<?xml version="1.0" encoding="us-ascii" standalone="no"?><svg xmlns="http://www.w3.org/2000/svg" xmlns:xlink="http://www.w3.org/1999/xlink" contentStyleType="text/css" height="388px" preserveAspectRatio="none" style="width:511px;height:388px;background:#FFFFFF;" version="1.1" viewBox="0 0 511 388" width="511px" zoomAndPan="magnify"><defs/><g><text fill="#000000" font-family="sans-serif" font-size="14" font-weight="bold" lengthAdjust="spacing" textLength="262" x="126" y="30.1074">US 6.2.15 - System Sequence Diagram</text><rect fill="#FFFFFF" height="221.0371" style="stroke:#181818;stroke-width:1.0;" width="10" x="43" y="111.5332"/><rect fill="#FFFFFF" height="221.0371" style="stroke:#181818;stroke-width:1.0;" width="10" x="460" y="111.5332"/><rect fill="none" height="50.582" style="stroke:#000000;stroke-width:1.5;" width="495" x="10" y="220.4063"/><line style="stroke:#181818;stroke-width:0.5;stroke-dasharray:5.0,5.0;" x1="48" x2="48" y1="78.2422" y2="350.5703"/><line style="stroke:#181818;stroke-width:0.5;stroke-dasharray:5.0,5.0;" x1="465" x2="465" y1="78.2422" y2="350.5703"/><rect fill="#E2E2F0" height="32.6211" rx="2.5" ry="2.5" style="stroke:#181818;stroke-width:0.5;" width="56" x="20" y="44.6211"/><text fill="#000000" font-family="sans-serif" font-size="14" lengthAdjust="spacing" textLength="42" x="27" y="66.7285">Doctor</text><rect fill="#E2E2F0" height="32.6211" rx="2.5" ry="2.5" style="stroke:#181818;stroke-width:0.5;" width="56" x="20" y="349.5703"/><text fill="#000000" font-family="sans-serif" font-size="14" lengthAdjust="spacing" textLength="42" x="27" y="371.6777">Doctor</text><rect fill="#E2E2F0" height="32.6211" rx="2.5" ry="2.5" style="stroke:#181818;stroke-width:0.5;" width="60" x="435" y="44.6211"/><text fill="#000000" font-family="sans-serif" font-size="14" lengthAdjust="spacing" textLength="46" x="442" y="66.7285">System</text><rect fill="#E2E2F0" height="32.6211" rx="2.5" ry="2.5" style="stroke:#181818;stroke-width:0.5;" width="60" x="435" y="349.5703"/><text fill="#000000" font-family="sans-serif" font-size="14" lengthAdjust="spacing" textLength="46" x="442" y="371.6777">System</text><rect fill="#FFFFFF" height="221.0371" style="stroke:#181818;stroke-width:1.0;" width="10" x="43" y="111.5332"/><rect fill="#FFFFFF" height="221.0371" style="stroke:#181818;stroke-width:1.0;" width="10" x="460" y="111.5332"/><polygon fill="#181818" points="448,107.5332,458,111.5332,448,115.5332,452,111.5332" style="stroke:#181818;stroke-width:1.0;"/><line style="stroke:#181818;stroke-width:1.0;" x1="53" x2="454" y1="111.5332" y2="111.5332"/><text fill="#000000" font-family="sans-serif" font-size="13" font-weight="bold" lengthAdjust="spacing" textLength="7" x="60" y="106.2705">1</text><text fill="#000000" font-family="sans-serif" font-size="13" lengthAdjust="spacing" textLength="309" x="71" y="106.2705">requests the edition/update of an operation requisition</text><polygon fill="#181818" points="64,138.8242,54,142.8242,64,146.8242,60,142.8242" style="stroke:#181818;stroke-width:1.0;"/><line style="stroke:#181818;stroke-width:1.0;stroke-dasharray:2.0,2.0;" x1="58" x2="459" y1="142.8242" y2="142.8242"/><text fill="#000000" font-family="sans-serif" font-size="13" font-weight="bold" lengthAdjust="spacing" textLength="7" x="70" y="137.5615">2</text><text fill="#000000" font-family="sans-serif" font-size="13" lengthAdjust="spacing" textLength="300" x="81" y="137.5615">lists the operation requisitions created by the doctor</text><polygon fill="#181818" points="448,170.1152,458,174.1152,448,178.1152,452,174.1152" style="stroke:#181818;stroke-width:1.0;"/><line style="stroke:#181818;stroke-width:1.0;" x1="53" x2="454" y1="174.1152" y2="174.1152"/><text fill="#000000" font-family="sans-serif" font-size="13" font-weight="bold" lengthAdjust="spacing" textLength="7" x="60" y="168.8525">3</text><text fill="#000000" font-family="sans-serif" font-size="13" lengthAdjust="spacing" textLength="173" x="71" y="168.8525">selects the desired requisition</text><polygon fill="#181818" points="64,201.4063,54,205.4063,64,209.4063,60,205.4063" style="stroke:#181818;stroke-width:1.0;"/><line style="stroke:#181818;stroke-width:1.0;stroke-dasharray:2.0,2.0;" x1="58" x2="459" y1="205.4063" y2="205.4063"/><text fill="#000000" font-family="sans-serif" font-size="13" font-weight="bold" lengthAdjust="spacing" textLength="7" x="70" y="200.1436">4</text><text fill="#000000" font-family="sans-serif" font-size="13" lengthAdjust="spacing" textLength="221" x="81" y="200.1436">presents the operation requisition data</text><path d="M10,220.4063 L83,220.4063 L83,229.6973 L73,239.6973 L10,239.6973 L10,220.4063 " fill="#EEEEEE" style="stroke:#000000;stroke-width:1.5;"/><rect fill="none" height="50.582" style="stroke:#000000;stroke-width:1.5;" width="495" x="10" y="220.4063"/><text fill="#000000" font-family="sans-serif" font-size="13" font-weight="bold" lengthAdjust="spacing" textLength="28" x="25" y="235.4346">loop</text><text fill="#000000" font-family="sans-serif" font-size="11" font-weight="bold" lengthAdjust="spacing" textLength="138" x="98" y="234.2764">[until the Doctor desires]</text><polygon fill="#181818" points="448,258.9883,458,262.9883,448,266.9883,452,262.9883" style="stroke:#181818;stroke-width:1.0;"/><line style="stroke:#181818;stroke-width:1.0;" x1="53" x2="454" y1="262.9883" y2="262.9883"/><text fill="#000000" font-family="sans-serif" font-size="13" font-weight="bold" lengthAdjust="spacing" textLength="7" x="60" y="257.7256">5</text><text fill="#000000" font-family="sans-serif" font-size="13" lengthAdjust="spacing" textLength="372" x="71" y="257.7256">edits/updates an information of the selected operation requisition</text><polygon fill="#181818" points="448,297.2793,458,301.2793,448,305.2793,452,301.2793" style="stroke:#181818;stroke-width:1.0;"/><line style="stroke:#181818;stroke-width:1.0;" x1="53" x2="454" y1="301.2793" y2="301.2793"/><text fill="#000000" font-family="sans-serif" font-size="13" font-weight="bold" lengthAdjust="spacing" textLength="7" x="60" y="296.0166">6</text><text fill="#000000" font-family="sans-serif" font-size="13" lengthAdjust="spacing" textLength="231" x="71" y="296.0166">confirms the end of the editions/updates</text><polygon fill="#181818" points="59,328.5703,49,332.5703,59,336.5703,55,332.5703" style="stroke:#181818;stroke-width:1.0;"/><line style="stroke:#181818;stroke-width:1.0;stroke-dasharray:2.0,2.0;" x1="53" x2="464" y1="332.5703" y2="332.5703"/><text fill="#000000" font-family="sans-serif" font-size="13" font-weight="bold" lengthAdjust="spacing" textLength="7" x="65" y="327.3076">7</text><text fill="#000000" font-family="sans-serif" font-size="13" lengthAdjust="spacing" textLength="164" x="76" y="327.3076">confirms the data was saved</text><!--SRC=[VP4_JmCn3CNtV0gh2zFr118CDx3GdU74m9WcBesKVyI-edvxuhjGjQUABObVViz-VZWoPnhwFdiTUGf-QrBe2RydZ0Oxw_HNqK4fTkmHDXyZl6oVje_FqC5u9iO0OzF2Rj5kbD8JfpY5FHQbiYxiZCkL3hjaE1NG1BltjvjAOzNA-3agLSlGlSeP1YXYG4p0HmIqZbsA_PIjPeHq01qXPInQdcUjercYj65t4f6ONIupNy1TDH2V0Rpxezy54PY2zQk5_NbMsNcCLPU47at3M2HNglwwcvLdBaWO_xE5Eg1MogUKOOhi_2nj4IuEjEf1mg4M3KamBXvI2GkwHYM0fS_QtFtGC5eGonNPf7Xm9RGTL4sZjNLSJDTZtloJWU2dxfZq2QrI5czMT7ML9Vq2]--></g></svg>