<?xml version="1.0" encoding="us-ascii" standalone="no"?><svg xmlns="http://www.w3.org/2000/svg" xmlns:xlink="http://www.w3.org/1999/xlink" contentStyleType="text/css" height="495px" preserveAspectRatio="none" style="width:446px;height:495px;background:#FFFFFF;" version="1.1" viewBox="0 0 446 495" width="446px" zoomAndPan="magnify"><defs/><g><text fill="#000000" font-family="sans-serif" font-size="14" font-weight="bold" lengthAdjust="spacing" textLength="254" x="97.75" y="30.1074">US 5.1.9 - System Sequence Diagram</text><rect fill="#FFFFFF" height="270.6191" style="stroke:#181818;stroke-width:1.0;" width="10" x="37.5" y="133.2422"/><rect fill="#FFFFFF" height="238.3281" style="stroke:#181818;stroke-width:1.0;" width="10" x="395.5" y="156.5332"/><rect fill="none" height="67.873" style="stroke:#000000;stroke-width:1.5;" width="430.5" x="10" y="296.6973"/><line style="stroke:#181818;stroke-width:0.5;stroke-dasharray:5.0,5.0;" x1="42" x2="42" y1="123.2422" y2="412.8613"/><line style="stroke:#181818;stroke-width:0.5;stroke-dasharray:5.0,5.0;" x1="400.5" x2="400.5" y1="123.2422" y2="412.8613"/><text fill="#000000" font-family="sans-serif" font-size="14" lengthAdjust="spacing" textLength="39" x="20" y="119.7285">Admin</text><ellipse cx="42.5" cy="53.1211" fill="#E2E2F0" rx="8" ry="8" style="stroke:#181818;stroke-width:0.5;"/><path d="M42.5,61.1211 L42.5,88.1211 M29.5,69.1211 L55.5,69.1211 M42.5,88.1211 L29.5,103.1211 M42.5,88.1211 L55.5,103.1211 " fill="none" style="stroke:#181818;stroke-width:0.5;"/><text fill="#000000" font-family="sans-serif" font-size="14" lengthAdjust="spacing" textLength="39" x="20" y="426.9688">Admin</text><ellipse cx="42.5" cy="438.9824" fill="#E2E2F0" rx="8" ry="8" style="stroke:#181818;stroke-width:0.5;"/><path d="M42.5,446.9824 L42.5,473.9824 M29.5,454.9824 L55.5,454.9824 M42.5,473.9824 L29.5,488.9824 M42.5,473.9824 L55.5,488.9824 " fill="none" style="stroke:#181818;stroke-width:0.5;"/><rect fill="#E2E2F0" height="32.6211" rx="2.5" ry="2.5" style="stroke:#181818;stroke-width:0.5;" width="60" x="370.5" y="89.6211"/><text fill="#000000" font-family="sans-serif" font-size="14" lengthAdjust="spacing" textLength="46" x="377.5" y="111.7285">System</text><rect fill="#E2E2F0" height="32.6211" rx="2.5" ry="2.5" style="stroke:#181818;stroke-width:0.5;" width="60" x="370.5" y="411.8613"/><text fill="#000000" font-family="sans-serif" font-size="14" lengthAdjust="spacing" textLength="46" x="377.5" y="433.9688">System</text><rect fill="#FFFFFF" height="270.6191" style="stroke:#181818;stroke-width:1.0;" width="10" x="37.5" y="133.2422"/><rect fill="#FFFFFF" height="238.3281" style="stroke:#181818;stroke-width:1.0;" width="10" x="395.5" y="156.5332"/><polygon fill="#181818" points="383.5,152.5332,393.5,156.5332,383.5,160.5332,387.5,156.5332" style="stroke:#181818;stroke-width:1.0;"/><line style="stroke:#181818;stroke-width:1.0;" x1="47.5" x2="389.5" y1="156.5332" y2="156.5332"/><text fill="#000000" font-family="sans-serif" font-size="13" font-weight="bold" lengthAdjust="spacing" textLength="7" x="54.5" y="151.2705">1</text><text fill="#000000" font-family="sans-serif" font-size="13" lengthAdjust="spacing" textLength="318" x="65.5" y="151.2705">asks to edit a patient profile, to update their information</text><polygon fill="#181818" points="58.5,183.8242,48.5,187.8242,58.5,191.8242,54.5,187.8242" style="stroke:#181818;stroke-width:1.0;"/><line style="stroke:#181818;stroke-width:1.0;stroke-dasharray:2.0,2.0;" x1="52.5" x2="394.5" y1="187.8242" y2="187.8242"/><text fill="#000000" font-family="sans-serif" font-size="13" font-weight="bold" lengthAdjust="spacing" textLength="7" x="64.5" y="182.5615">2</text><text fill="#000000" font-family="sans-serif" font-size="13" lengthAdjust="spacing" textLength="93" x="75.5" y="182.5615">gives patient list</text><polygon fill="#181818" points="383.5,215.1152,393.5,219.1152,383.5,223.1152,387.5,219.1152" style="stroke:#181818;stroke-width:1.0;"/><line style="stroke:#181818;stroke-width:1.0;" x1="47.5" x2="389.5" y1="219.1152" y2="219.1152"/><text fill="#000000" font-family="sans-serif" font-size="13" font-weight="bold" lengthAdjust="spacing" textLength="7" x="54.5" y="213.8525">3</text><text fill="#000000" font-family="sans-serif" font-size="13" lengthAdjust="spacing" textLength="145" x="65.5" y="213.8525">selects the patient profile</text><polygon fill="#181818" points="58.5,246.4063,48.5,250.4063,58.5,254.4063,54.5,250.4063" style="stroke:#181818;stroke-width:1.0;"/><line style="stroke:#181818;stroke-width:1.0;stroke-dasharray:2.0,2.0;" x1="52.5" x2="394.5" y1="250.4063" y2="250.4063"/><text fill="#000000" font-family="sans-serif" font-size="13" font-weight="bold" lengthAdjust="spacing" textLength="7" x="64.5" y="245.1436">4</text><text fill="#000000" font-family="sans-serif" font-size="13" lengthAdjust="spacing" textLength="147" x="75.5" y="245.1436">shows patient information</text><polygon fill="#181818" points="383.5,277.6973,393.5,281.6973,383.5,285.6973,387.5,281.6973" style="stroke:#181818;stroke-width:1.0;"/><line style="stroke:#181818;stroke-width:1.0;" x1="47.5" x2="389.5" y1="281.6973" y2="281.6973"/><text fill="#000000" font-family="sans-serif" font-size="13" font-weight="bold" lengthAdjust="spacing" textLength="7" x="54.5" y="276.4346">5</text><text fill="#000000" font-family="sans-serif" font-size="13" lengthAdjust="spacing" textLength="154" x="65.5" y="276.4346">changes the editable fields</text><path d="M10,296.6973 L83,296.6973 L83,305.9883 L73,315.9883 L10,315.9883 L10,296.6973 " fill="#EEEEEE" style="stroke:#000000;stroke-width:1.5;"/><rect fill="none" height="67.873" style="stroke:#000000;stroke-width:1.5;" width="430.5" x="10" y="296.6973"/><text fill="#000000" font-family="sans-serif" font-size="13" font-weight="bold" lengthAdjust="spacing" textLength="28" x="25" y="311.7256">loop</text><text fill="#000000" font-family="sans-serif" font-size="11" font-weight="bold" lengthAdjust="spacing" textLength="127" x="98" y="310.5674">[until the admin wants]</text><polygon fill="#181818" points="383.5,352.5703,393.5,356.5703,383.5,360.5703,387.5,356.5703" style="stroke:#181818;stroke-width:1.0;"/><line style="stroke:#181818;stroke-width:1.0;" x1="47.5" x2="389.5" y1="356.5703" y2="356.5703"/><text fill="#000000" font-family="sans-serif" font-size="13" font-weight="bold" lengthAdjust="spacing" textLength="7" x="54.5" y="342.6621">6</text><text fill="#000000" font-family="sans-serif" font-size="13" lengthAdjust="spacing" textLength="245" x="65.5" y="334.0166">changes the editable fields (name, contact</text><text fill="#000000" font-family="sans-serif" font-size="13" lengthAdjust="spacing" textLength="240" x="69.5" y="351.3076">information, medical history and allergies)</text><polygon fill="#181818" points="58.5,390.8613,48.5,394.8613,58.5,398.8613,54.5,394.8613" style="stroke:#181818;stroke-width:1.0;"/><line style="stroke:#181818;stroke-width:1.0;stroke-dasharray:2.0,2.0;" x1="52.5" x2="399.5" y1="394.8613" y2="394.8613"/><text fill="#000000" font-family="sans-serif" font-size="13" font-weight="bold" lengthAdjust="spacing" textLength="7" x="64.5" y="389.5986">7</text><text fill="#000000" font-family="sans-serif" font-size="13" lengthAdjust="spacing" textLength="244" x="75.5" y="389.5986">confirms the alteration of the chosen fields</text><!--SRC=[ZP0_JyCm4CLtVufJ5q1gMZ4mq06fKbUcY069vUfSaXF-4-nBgtvxpYcKDXDBvFYUV-_Uk-j5XhnPhmU7GKRlLZRwTQQlaOAbgc7i4dfZXCKHBDvgU5ezhfwXWlgKXJpKFrBOdQKBOt2K64Q_fwHdAp71jl4S03DiTwzcm2HiUL2_NuXEwlTwKlC1XIQTqGzKBsK26vLyPf08rB00me32f80XnPOTBSje79hoLdhY11pQcBogOhZYJYu5M2cuy3VGyO7oXUSuoymvaoChkN3djdDMxkFnZtMpmWtIzXWwEYDB8DnhkIsJQx8nBiO1nY3ifZbEtHsrhVn_2jm7zDgAZK4q_4UuNcO9NkKM7VIQDgOJO6W0dQFKCUK7OqZ_onhpV8fhEVcp9JgXD04XjjEDxMEcS0dIq6tltm00]--></g></svg>