<?xml version="1.0" encoding="us-ascii" standalone="no"?><svg xmlns="http://www.w3.org/2000/svg" xmlns:xlink="http://www.w3.org/1999/xlink" contentStyleType="text/css" height="264px" preserveAspectRatio="none" style="width:663px;height:264px;background:#FFFFFF;" version="1.1" viewBox="0 0 663 264" width="663px" zoomAndPan="magnify"><defs/><g><!--cluster <<aggregate Specialization>>--><g id="cluster_&lt;&lt;aggregate Specialization&gt;&gt;"><path d="M8.5,6.0137 L198.5,6.0137 A3.75,3.75 0 0 1 201,8.5137 L208,30.6348 L653.5,30.6348 A2.5,2.5 0 0 1 656,33.1348 L656,254.5137 A2.5,2.5 0 0 1 653.5,257.0137 L8.5,257.0137 A2.5,2.5 0 0 1 6,254.5137 L6,8.5137 A2.5,2.5 0 0 1 8.5,6.0137 " fill="none" style="stroke:#000000;stroke-width:1.5;"/><line style="stroke:#000000;stroke-width:1.5;" x1="6" x2="208" y1="30.6348" y2="30.6348"/><text fill="#000000" font-family="sans-serif" font-size="14" font-weight="bold" lengthAdjust="spacing" textLength="189" x="10" y="23.1211">&#171;aggregate Specialization&#187;</text></g><!--class Specialization--><g id="elem_Specialization"><rect codeLine="7" fill="#F5F5DC" height="68.543" id="Specialization" rx="2.5" ry="2.5" style="stroke:#181818;stroke-width:0.5;" width="118" x="280" y="43.0137"/><ellipse cx="295" cy="73.2852" fill="#ADD1B2" rx="11" ry="11" style="stroke:#181818;stroke-width:1.0;"/><path d="M293.8594,74.082 L293.8594,76.582 L298.1875,76.582 L298.1875,75.6602 Q298.1875,75.0508 298.4219,74.7852 Q298.6719,74.5195 299.0469,74.5195 Q299.4219,74.5195 299.6563,74.7852 Q299.8906,75.0508 299.8906,75.6602 L299.8906,78.2852 L291.8906,78.2852 Q291.2656,78.2852 291,78.0508 Q290.75,77.8164 290.75,77.4258 Q290.75,77.0508 291.0156,76.8164 Q291.2813,76.582 291.8906,76.582 L292.1563,76.582 L292.1563,69.9258 L291.8906,69.9258 Q291.2656,69.9258 291,69.6914 Q290.75,69.457 290.75,69.0664 Q290.75,68.6914 291,68.457 Q291.2656,68.2227 291.8906,68.2227 L299.5156,68.2227 L299.5156,70.8164 Q299.5156,71.4258 299.2813,71.6914 Q299.0625,71.9414 298.6719,71.9414 Q298.2969,71.9414 298.0625,71.6914 Q297.8281,71.4258 297.8281,70.8164 L297.8281,69.9258 L293.8594,69.9258 L293.8594,72.3789 L295.3438,72.3789 Q295.3438,71.7227 295.4688,71.5352 Q295.7344,71.1289 296.2031,71.1289 Q296.5781,71.1289 296.8125,71.3945 Q297.0469,71.6445 297.0469,72.2539 L297.0469,74.2227 Q297.0469,74.7695 296.9219,74.957 Q296.6563,75.3477 296.2031,75.3477 Q295.7344,75.3477 295.4688,74.9414 Q295.3438,74.7539 295.3438,74.082 L293.8594,74.082 Z " fill="#000000"/><text fill="#000000" font-family="sans-serif" font-size="12" font-style="italic" lengthAdjust="spacing" textLength="43" x="330.5" y="60.9629">&#171;entity&#187;</text><text fill="#000000" font-family="sans-serif" font-size="12" font-style="italic" lengthAdjust="spacing" textLength="35" x="334.5" y="76.9238">&#171;root&#187;</text><text fill="#000000" font-family="sans-serif" font-size="14" lengthAdjust="spacing" textLength="86" x="309" y="95.043">Specialization</text><line style="stroke:#181818;stroke-width:0.5;" x1="281" x2="397" y1="103.5566" y2="103.5566"/></g><!--class SpecializationDenomination--><g id="elem_SpecializationDenomination"><rect codeLine="8" fill="#F5F5DC" height="52.582" id="SpecializationDenomination" rx="2.5" ry="2.5" style="stroke:#181818;stroke-width:0.5;" width="205" x="22.5" y="180.0137"/><ellipse cx="37.5" cy="202.3047" fill="#FF8B40" rx="11" ry="11" style="stroke:#181818;stroke-width:1.0;"/><path d="M38.0938,205.5703 L40.5625,199.6953 L40.1719,199.6953 Q39.5625,199.6953 39.2969,199.4609 Q39.0313,199.2266 39.0313,198.8359 Q39.0313,198.4609 39.2969,198.2266 Q39.5625,197.9922 40.1719,197.9922 L42.4531,197.9922 Q43.0625,197.9922 43.3281,198.2266 Q43.5938,198.4609 43.5938,198.8359 Q43.5938,199.3047 43.1875,199.5703 Q43,199.6953 42.4063,199.6953 L38.9219,208.0547 L37.2813,208.0547 L33.7969,199.6953 Q33.2031,199.6953 33.0156,199.5703 Q32.6094,199.3047 32.6094,198.8359 Q32.6094,198.4609 32.875,198.2266 Q33.1406,197.9922 33.75,197.9922 L36.0469,197.9922 Q36.6563,197.9922 36.9063,198.2266 Q37.1719,198.4609 37.1719,198.8359 Q37.1719,199.2266 36.9063,199.4609 Q36.6563,199.6953 36.0469,199.6953 L35.6406,199.6953 L38.0938,205.5703 Z " fill="#000000"/><text fill="#000000" font-family="sans-serif" font-size="12" font-style="italic" lengthAdjust="spacing" textLength="81" x="97.5" y="197.9629">&#171;value object&#187;</text><text fill="#000000" font-family="sans-serif" font-size="14" lengthAdjust="spacing" textLength="173" x="51.5" y="216.082">SpecializationDenomination</text><line style="stroke:#181818;stroke-width:0.5;" x1="23.5" x2="226.5" y1="224.5957" y2="224.5957"/></g><!--class SpecializationCode--><g id="elem_SpecializationCode"><rect codeLine="9" fill="#F5F5DC" height="68.543" id="SpecializationCode" rx="2.5" ry="2.5" style="stroke:#181818;stroke-width:0.5;" width="152" x="263" y="172.0137"/><ellipse cx="278" cy="202.2852" fill="#FF8B40" rx="11" ry="11" style="stroke:#181818;stroke-width:1.0;"/><path d="M278.5938,205.5508 L281.0625,199.6758 L280.6719,199.6758 Q280.0625,199.6758 279.7969,199.4414 Q279.5313,199.207 279.5313,198.8164 Q279.5313,198.4414 279.7969,198.207 Q280.0625,197.9727 280.6719,197.9727 L282.9531,197.9727 Q283.5625,197.9727 283.8281,198.207 Q284.0938,198.4414 284.0938,198.8164 Q284.0938,199.2852 283.6875,199.5508 Q283.5,199.6758 282.9063,199.6758 L279.4219,208.0352 L277.7813,208.0352 L274.2969,199.6758 Q273.7031,199.6758 273.5156,199.5508 Q273.1094,199.2852 273.1094,198.8164 Q273.1094,198.4414 273.375,198.207 Q273.6406,197.9727 274.25,197.9727 L276.5469,197.9727 Q277.1563,197.9727 277.4063,198.207 Q277.6719,198.4414 277.6719,198.8164 Q277.6719,199.207 277.4063,199.4414 Q277.1563,199.6758 276.5469,199.6758 L276.1406,199.6758 L278.5938,205.5508 Z " fill="#000000"/><text fill="#000000" font-family="sans-serif" font-size="12" font-style="italic" lengthAdjust="spacing" textLength="81" x="311.5" y="189.9629">&#171;value object&#187;</text><text fill="#000000" font-family="sans-serif" font-size="12" font-style="italic" lengthAdjust="spacing" textLength="61" x="321.5" y="205.9238">&#171;identifier&#187;</text><text fill="#000000" font-family="sans-serif" font-size="14" lengthAdjust="spacing" textLength="120" x="292" y="224.043">SpecializationCode</text><line style="stroke:#181818;stroke-width:0.5;" x1="264" x2="414" y1="232.5566" y2="232.5566"/></g><!--class SpecializationDescription--><g id="elem_SpecializationDescription"><rect codeLine="10" fill="#F5F5DC" height="52.582" id="SpecializationDescription" rx="2.5" ry="2.5" style="stroke:#181818;stroke-width:0.5;" width="189" x="450.5" y="180.0137"/><ellipse cx="465.5" cy="202.3047" fill="#FF8B40" rx="11" ry="11" style="stroke:#181818;stroke-width:1.0;"/><path d="M466.0938,205.5703 L468.5625,199.6953 L468.1719,199.6953 Q467.5625,199.6953 467.2969,199.4609 Q467.0313,199.2266 467.0313,198.8359 Q467.0313,198.4609 467.2969,198.2266 Q467.5625,197.9922 468.1719,197.9922 L470.4531,197.9922 Q471.0625,197.9922 471.3281,198.2266 Q471.5938,198.4609 471.5938,198.8359 Q471.5938,199.3047 471.1875,199.5703 Q471,199.6953 470.4063,199.6953 L466.9219,208.0547 L465.2813,208.0547 L461.7969,199.6953 Q461.2031,199.6953 461.0156,199.5703 Q460.6094,199.3047 460.6094,198.8359 Q460.6094,198.4609 460.875,198.2266 Q461.1406,197.9922 461.75,197.9922 L464.0469,197.9922 Q464.6563,197.9922 464.9063,198.2266 Q465.1719,198.4609 465.1719,198.8359 Q465.1719,199.2266 464.9063,199.4609 Q464.6563,199.6953 464.0469,199.6953 L463.6406,199.6953 L466.0938,205.5703 Z " fill="#000000"/><text fill="#000000" font-family="sans-serif" font-size="12" font-style="italic" lengthAdjust="spacing" textLength="81" x="517.5" y="197.9629">&#171;value object&#187;</text><text fill="#000000" font-family="sans-serif" font-size="14" lengthAdjust="spacing" textLength="157" x="479.5" y="216.082">SpecializationDescription</text><line style="stroke:#181818;stroke-width:0.5;" x1="451.5" x2="638.5" y1="224.5957" y2="224.5957"/></g><!--link Specialization to SpecializationDenomination--><g id="link_Specialization_SpecializationDenomination"><path codeLine="13" d="M282.49,112.0437 C246.71,133.2837 206.2994,157.2609 173.3994,176.7909 " fill="none" id="Specialization-to-SpecializationDenomination" style="stroke:#222222;stroke-width:1.0;"/><polygon fill="#222222" points="168.24,179.8537,178.021,178.6992,172.5395,177.3014,173.9373,171.82,168.24,179.8537" style="stroke:#222222;stroke-width:1.0;"/><text fill="#000000" font-family="sans-serif" font-size="13" lengthAdjust="spacing" textLength="7" x="170.4299" y="168.8332">1</text></g><!--link Specialization to SpecializationCode--><g id="link_Specialization_SpecializationCode"><path codeLine="14" d="M339,112.2137 C339,130.5837 339,147.2637 339,165.6537 " fill="none" id="Specialization-to-SpecializationCode" style="stroke:#222222;stroke-width:1.0;"/><polygon fill="#222222" points="339,171.6537,343,162.6537,339,166.6537,335,162.6537,339,171.6537" style="stroke:#222222;stroke-width:1.0;"/><text fill="#000000" font-family="sans-serif" font-size="13" lengthAdjust="spacing" textLength="7" x="331.3547" y="160.7565">1</text></g><!--link Specialization to SpecializationDescription--><g id="link_Specialization_SpecializationDescription"><path codeLine="15" d="M393.39,112.0437 C427.84,133.2837 466.603,157.1743 498.273,176.7043 " fill="none" id="Specialization-to-SpecializationDescription" style="stroke:#222222;stroke-width:1.0;"/><polygon fill="#222222" points="503.38,179.8537,497.819,171.725,499.1242,177.2292,493.6199,178.5343,503.38,179.8537" style="stroke:#222222;stroke-width:1.0;"/><text fill="#000000" font-family="sans-serif" font-size="13" lengthAdjust="spacing" textLength="22" x="469.2116" y="168.8332">0..1</text></g><!--SRC=[ZL1DImCn4BtdLmpRYu8jgtZm41RQIi5pmVjiEiQnkvcGP1LR-jzDjrHiALtdDCpxuBs9QtOU0xPW6enncbBWkalqOiGjUKDGgdTU4L3hqpVW4OugdWfdQDOsIETMSsaaG4riwGzf6e9y7Q3HGpzA-Qn1Ir1eZTO6ifW8bfuCOyCRJ2okgegjWZpa4kS0foXeVRXNLLw3IChBTjSB-bHd_6Toqh8xQczUxqQBnTFiiRpznAOZaFg3p837NF8thccrpl_AgTwOmb2SQ0BxmJHxZvrIPzt7umgA- -9AnVyfzeKkCil9v8BzRsJr0m00]--></g></svg>