<?xml version="1.0" encoding="us-ascii" standalone="no"?><svg xmlns="http://www.w3.org/2000/svg" xmlns:xlink="http://www.w3.org/1999/xlink" contentStyleType="text/css" height="826px" preserveAspectRatio="none" style="width:2148px;height:826px;background:#FFFFFF;" version="1.1" viewBox="0 0 2148 826" width="2148px" zoomAndPan="magnify"><defs/><g><text fill="#000000" font-family="sans-serif" font-size="14" font-weight="bold" lengthAdjust="spacing" textLength="231" x="959.75" y="30.1074">US 7.2.11- Process View [Level 3]</text><rect fill="#FFFFFF" height="615.5098" style="stroke:#181818;stroke-width:1.0;" width="10" x="255" y="130.1543"/><rect fill="#FFFFFF" height="431.1035" style="stroke:#181818;stroke-width:1.0;" width="10" x="619" y="223.6875"/><rect fill="#FFFFFF" height="368.5215" style="stroke:#181818;stroke-width:1.0;" width="10" x="826" y="254.9785"/><rect fill="#FFFFFF" height="31.291" style="stroke:#181818;stroke-width:1.0;" width="10" x="1322" y="348.5117"/><rect fill="#FFFFFF" height="156.1152" style="stroke:#181818;stroke-width:1.0;" width="10" x="1460.5" y="436.0938"/><rect fill="#FFFFFF" height="31.291" style="stroke:#181818;stroke-width:1.0;" width="10" x="2065.5" y="529.627"/><rect fill="none" height="83.873" style="stroke:#000000;stroke-width:1.5;" width="290.5" x="11" y="669.791"/><line style="stroke:#181818;stroke-width:0.5;stroke-dasharray:5.0,5.0;" x1="259.5" x2="259.5" y1="96.8633" y2="770.6641"/><line style="stroke:#181818;stroke-width:0.5;stroke-dasharray:5.0,5.0;" x1="450" x2="450" y1="179.2754" y2="770.6641"/><line style="stroke:#181818;stroke-width:0.5;stroke-dasharray:5.0,5.0;" x1="624" x2="624" y1="96.8633" y2="770.6641"/><line style="stroke:#181818;stroke-width:0.5;stroke-dasharray:5.0,5.0;" x1="830.5" x2="830.5" y1="96.8633" y2="770.6641"/><line style="stroke:#181818;stroke-width:0.5;stroke-dasharray:5.0,5.0;" x1="1183" x2="1183" y1="304.0996" y2="770.6641"/><line style="stroke:#181818;stroke-width:0.5;stroke-dasharray:5.0,5.0;" x1="1327" x2="1327" y1="96.8633" y2="770.6641"/><line style="stroke:#181818;stroke-width:0.5;stroke-dasharray:5.0,5.0;" x1="1465" x2="1465" y1="96.8633" y2="770.6641"/><line style="stroke:#181818;stroke-width:0.5;stroke-dasharray:5.0,5.0;" x1="1967.5" x2="1967.5" y1="485.2148" y2="770.6641"/><line style="stroke:#181818;stroke-width:0.5;stroke-dasharray:5.0,5.0;" x1="2070.5" x2="2070.5" y1="96.8633" y2="770.6641"/><rect fill="#E2E2F0" height="51.2422" rx="2.5" ry="2.5" style="stroke:#181818;stroke-width:0.5;" width="63" x="228.5" y="44.6211"/><text fill="#000000" font-family="sans-serif" font-size="14" font-style="italic" lengthAdjust="spacing" textLength="49" x="235.5" y="66.7285">&#171;route&#187;</text><text fill="#000000" font-family="sans-serif" font-size="14" lengthAdjust="spacing" textLength="49" x="235.5" y="85.3496">Routing</text><rect fill="#E2E2F0" height="51.2422" rx="2.5" ry="2.5" style="stroke:#181818;stroke-width:0.5;" width="63" x="228.5" y="769.6641"/><text fill="#000000" font-family="sans-serif" font-size="14" font-style="italic" lengthAdjust="spacing" textLength="49" x="235.5" y="791.7715">&#171;route&#187;</text><text fill="#000000" font-family="sans-serif" font-size="14" lengthAdjust="spacing" textLength="49" x="235.5" y="810.3926">Routing</text><rect fill="#E2E2F0" height="51.2422" rx="2.5" ry="2.5" style="stroke:#181818;stroke-width:0.5;" width="165" x="368" y="769.6641"/><text fill="#000000" font-family="sans-serif" font-size="14" font-style="italic" lengthAdjust="spacing" textLength="36" x="432.5" y="791.7715">&#171;dto&#187;</text><text fill="#000000" font-family="sans-serif" font-size="14" lengthAdjust="spacing" textLength="151" x="375" y="810.3926">CreateSpecializationDto</text><rect fill="#E2E2F0" height="51.2422" rx="2.5" ry="2.5" style="stroke:#181818;stroke-width:0.5;" width="162" x="543" y="44.6211"/><text fill="#000000" font-family="sans-serif" font-size="14" font-style="italic" lengthAdjust="spacing" textLength="75" x="586.5" y="66.7285">&#171;controller&#187;</text><text fill="#000000" font-family="sans-serif" font-size="14" lengthAdjust="spacing" textLength="148" x="550" y="85.3496">SpecializationController</text><rect fill="#E2E2F0" height="51.2422" rx="2.5" ry="2.5" style="stroke:#181818;stroke-width:0.5;" width="162" x="543" y="769.6641"/><text fill="#000000" font-family="sans-serif" font-size="14" font-style="italic" lengthAdjust="spacing" textLength="75" x="586.5" y="791.7715">&#171;controller&#187;</text><text fill="#000000" font-family="sans-serif" font-size="14" lengthAdjust="spacing" textLength="148" x="550" y="810.3926">SpecializationController</text><rect fill="#E2E2F0" height="51.2422" rx="2.5" ry="2.5" style="stroke:#181818;stroke-width:0.5;" width="147" x="757.5" y="44.6211"/><text fill="#000000" font-family="sans-serif" font-size="14" font-style="italic" lengthAdjust="spacing" textLength="60" x="801" y="66.7285">&#171;service&#187;</text><text fill="#000000" font-family="sans-serif" font-size="14" lengthAdjust="spacing" textLength="133" x="764.5" y="85.3496">SpecializationService</text><rect fill="#E2E2F0" height="51.2422" rx="2.5" ry="2.5" style="stroke:#181818;stroke-width:0.5;" width="147" x="757.5" y="769.6641"/><text fill="#000000" font-family="sans-serif" font-size="14" font-style="italic" lengthAdjust="spacing" textLength="60" x="801" y="791.7715">&#171;service&#187;</text><text fill="#000000" font-family="sans-serif" font-size="14" lengthAdjust="spacing" textLength="133" x="764.5" y="810.3926">SpecializationService</text><rect fill="#E2E2F0" height="51.2422" rx="2.5" ry="2.5" style="stroke:#181818;stroke-width:0.5;" width="100" x="1133" y="769.6641"/><text fill="#000000" font-family="sans-serif" font-size="14" font-style="italic" lengthAdjust="spacing" textLength="62" x="1152" y="791.7715">&#171;domain&#187;</text><text fill="#000000" font-family="sans-serif" font-size="14" lengthAdjust="spacing" textLength="86" x="1140" y="810.3926">Specialization</text><rect fill="#E2E2F0" height="51.2422" rx="2.5" ry="2.5" style="stroke:#181818;stroke-width:0.5;" width="168" x="1243" y="44.6211"/><text fill="#000000" font-family="sans-serif" font-size="14" font-style="italic" lengthAdjust="spacing" textLength="79" x="1287.5" y="66.7285">&#171;repository&#187;</text><text fill="#000000" font-family="sans-serif" font-size="14" lengthAdjust="spacing" textLength="154" x="1250" y="85.3496">SpecializationRepository</text><rect fill="#E2E2F0" height="51.2422" rx="2.5" ry="2.5" style="stroke:#181818;stroke-width:0.5;" width="168" x="1243" y="769.6641"/><text fill="#000000" font-family="sans-serif" font-size="14" font-style="italic" lengthAdjust="spacing" textLength="79" x="1287.5" y="791.7715">&#171;repository&#187;</text><text fill="#000000" font-family="sans-serif" font-size="14" lengthAdjust="spacing" textLength="154" x="1250" y="810.3926">SpecializationRepository</text><rect fill="#E2E2F0" height="51.2422" rx="2.5" ry="2.5" style="stroke:#181818;stroke-width:0.5;" width="89" x="1421" y="44.6211"/><text fill="#000000" font-family="sans-serif" font-size="14" lengthAdjust="spacing" textLength="61" x="1435" y="66.7285">&#171;service&#187;</text><text fill="#000000" font-family="sans-serif" font-size="14" lengthAdjust="spacing" textLength="71" x="1432" y="85.3496">LogService</text><rect fill="#E2E2F0" height="51.2422" rx="2.5" ry="2.5" style="stroke:#181818;stroke-width:0.5;" width="89" x="1421" y="769.6641"/><text fill="#000000" font-family="sans-serif" font-size="14" lengthAdjust="spacing" textLength="61" x="1435" y="791.7715">&#171;service&#187;</text><text fill="#000000" font-family="sans-serif" font-size="14" lengthAdjust="spacing" textLength="71" x="1432" y="810.3926">LogService</text><rect fill="#E2E2F0" height="51.2422" rx="2.5" ry="2.5" style="stroke:#181818;stroke-width:0.5;" width="76" x="1929.5" y="769.6641"/><text fill="#000000" font-family="sans-serif" font-size="14" lengthAdjust="spacing" textLength="62" x="1936.5" y="791.7715">&#171;domain&#187;</text><text fill="#000000" font-family="sans-serif" font-size="14" lengthAdjust="spacing" textLength="24" x="1957.5" y="810.3926">Log</text><rect fill="#E2E2F0" height="51.2422" rx="2.5" ry="2.5" style="stroke:#181818;stroke-width:0.5;" width="110" x="2015.5" y="44.6211"/><text fill="#000000" font-family="sans-serif" font-size="14" lengthAdjust="spacing" textLength="79" x="2031" y="66.7285">&#171;repository&#187;</text><text fill="#000000" font-family="sans-serif" font-size="14" lengthAdjust="spacing" textLength="92" x="2026.5" y="85.3496">LogRepository</text><rect fill="#E2E2F0" height="51.2422" rx="2.5" ry="2.5" style="stroke:#181818;stroke-width:0.5;" width="110" x="2015.5" y="769.6641"/><text fill="#000000" font-family="sans-serif" font-size="14" lengthAdjust="spacing" textLength="79" x="2031" y="791.7715">&#171;repository&#187;</text><text fill="#000000" font-family="sans-serif" font-size="14" lengthAdjust="spacing" textLength="92" x="2026.5" y="810.3926">LogRepository</text><rect fill="#FFFFFF" height="615.5098" style="stroke:#181818;stroke-width:1.0;" width="10" x="255" y="130.1543"/><rect fill="#FFFFFF" height="431.1035" style="stroke:#181818;stroke-width:1.0;" width="10" x="619" y="223.6875"/><rect fill="#FFFFFF" height="368.5215" style="stroke:#181818;stroke-width:1.0;" width="10" x="826" y="254.9785"/><rect fill="#FFFFFF" height="31.291" style="stroke:#181818;stroke-width:1.0;" width="10" x="1322" y="348.5117"/><rect fill="#FFFFFF" height="156.1152" style="stroke:#181818;stroke-width:1.0;" width="10" x="1460.5" y="436.0938"/><rect fill="#FFFFFF" height="31.291" style="stroke:#181818;stroke-width:1.0;" width="10" x="2065.5" y="529.627"/><ellipse cx="7.5" cy="129.4043" fill="none" rx="4" ry="4" style="stroke:#181818;stroke-width:1.5;"/><polygon fill="#181818" points="243,126.1543,253,130.1543,243,134.1543,247,130.1543" style="stroke:#181818;stroke-width:1.0;"/><line style="stroke:#181818;stroke-width:1.0;" x1="12" x2="249" y1="130.1543" y2="130.1543"/><text fill="#000000" font-family="sans-serif" font-size="13" font-weight="bold" lengthAdjust="spacing" textLength="7" x="15" y="124.8916">1</text><text fill="#000000" font-family="sans-serif" font-size="13" lengthAdjust="spacing" textLength="217" x="26" y="124.8916">POST(json) /api/create-Specialization</text><polygon fill="#181818" points="356,157.4453,366,161.4453,356,165.4453,360,161.4453" style="stroke:#181818;stroke-width:1.0;"/><line style="stroke:#181818;stroke-width:1.0;" x1="265" x2="362" y1="161.4453" y2="161.4453"/><text fill="#000000" font-family="sans-serif" font-size="13" font-weight="bold" lengthAdjust="spacing" textLength="7" x="272" y="156.1826">2</text><text fill="#000000" font-family="sans-serif" font-size="13" lengthAdjust="spacing" textLength="68" x="283" y="156.1826">create(json)</text><rect fill="#E2E2F0" height="51.2422" rx="2.5" ry="2.5" style="stroke:#181818;stroke-width:0.5;" width="165" x="368" y="138.1543"/><text fill="#000000" font-family="sans-serif" font-size="14" font-style="italic" lengthAdjust="spacing" textLength="36" x="432.5" y="160.2617">&#171;dto&#187;</text><text fill="#000000" font-family="sans-serif" font-size="14" lengthAdjust="spacing" textLength="151" x="375" y="178.8828">CreateSpecializationDto</text><polygon fill="#181818" points="607,219.6875,617,223.6875,607,227.6875,611,223.6875" style="stroke:#181818;stroke-width:1.0;"/><line style="stroke:#181818;stroke-width:1.0;" x1="265" x2="613" y1="223.6875" y2="223.6875"/><text fill="#000000" font-family="sans-serif" font-size="13" font-weight="bold" lengthAdjust="spacing" textLength="7" x="272" y="218.4248">3</text><text fill="#000000" font-family="sans-serif" font-size="13" lengthAdjust="spacing" textLength="143" x="283" y="218.4248">create(specializationDto)</text><polygon fill="#181818" points="814,250.9785,824,254.9785,814,258.9785,818,254.9785" style="stroke:#181818;stroke-width:1.0;"/><line style="stroke:#181818;stroke-width:1.0;" x1="629" x2="820" y1="254.9785" y2="254.9785"/><text fill="#000000" font-family="sans-serif" font-size="13" font-weight="bold" lengthAdjust="spacing" textLength="7" x="636" y="249.7158">4</text><text fill="#000000" font-family="sans-serif" font-size="13" lengthAdjust="spacing" textLength="167" x="647" y="249.7158">AddAsync(specializationDto)</text><polygon fill="#181818" points="1121,282.2695,1131,286.2695,1121,290.2695,1125,286.2695" style="stroke:#181818;stroke-width:1.0;"/><line style="stroke:#181818;stroke-width:1.0;" x1="836" x2="1127" y1="286.2695" y2="286.2695"/><text fill="#000000" font-family="sans-serif" font-size="13" font-weight="bold" lengthAdjust="spacing" textLength="7" x="843" y="281.0068">5</text><text fill="#000000" font-family="sans-serif" font-size="13" lengthAdjust="spacing" textLength="262" x="854" y="281.0068">Specialization(code, designation, description)</text><rect fill="#E2E2F0" height="51.2422" rx="2.5" ry="2.5" style="stroke:#181818;stroke-width:0.5;" width="100" x="1133" y="262.9785"/><text fill="#000000" font-family="sans-serif" font-size="14" font-style="italic" lengthAdjust="spacing" textLength="62" x="1152" y="285.0859">&#171;domain&#187;</text><text fill="#000000" font-family="sans-serif" font-size="14" lengthAdjust="spacing" textLength="86" x="1140" y="303.707">Specialization</text><polygon fill="#181818" points="1310,344.5117,1320,348.5117,1310,352.5117,1314,348.5117" style="stroke:#181818;stroke-width:1.0;"/><line style="stroke:#181818;stroke-width:1.0;" x1="836" x2="1316" y1="348.5117" y2="348.5117"/><text fill="#000000" font-family="sans-serif" font-size="13" font-weight="bold" lengthAdjust="spacing" textLength="7" x="843" y="343.249">6</text><text fill="#000000" font-family="sans-serif" font-size="13" lengthAdjust="spacing" textLength="147" x="854" y="343.249">AddAsync(specialization)</text><polygon fill="#181818" points="847,375.8027,837,379.8027,847,383.8027,843,379.8027" style="stroke:#181818;stroke-width:1.0;"/><line style="stroke:#181818;stroke-width:1.0;stroke-dasharray:2.0,2.0;" x1="841" x2="1326" y1="379.8027" y2="379.8027"/><text fill="#000000" font-family="sans-serif" font-size="13" font-weight="bold" lengthAdjust="spacing" textLength="7" x="853" y="374.54">7</text><text fill="#000000" font-family="sans-serif" font-size="13" lengthAdjust="spacing" textLength="79" x="864" y="374.54">specialization</text><polygon fill="#181818" points="1448.5,432.0938,1458.5,436.0938,1448.5,440.0938,1452.5,436.0938" style="stroke:#181818;stroke-width:1.0;"/><line style="stroke:#181818;stroke-width:1.0;" x1="836" x2="1454.5" y1="436.0938" y2="436.0938"/><text fill="#000000" font-family="sans-serif" font-size="13" font-weight="bold" lengthAdjust="spacing" textLength="7" x="843" y="430.8311">8</text><text fill="#000000" font-family="sans-serif" font-size="13" lengthAdjust="spacing" textLength="424" x="854" y="430.8311">CreateCreateLog(specializationCode, specializationClass, logDescription)</text><polygon fill="#181818" points="1917.5,463.3848,1927.5,467.3848,1917.5,471.3848,1921.5,467.3848" style="stroke:#181818;stroke-width:1.0;"/><line style="stroke:#181818;stroke-width:1.0;" x1="1470.5" x2="1923.5" y1="467.3848" y2="467.3848"/><text fill="#000000" font-family="sans-serif" font-size="13" font-weight="bold" lengthAdjust="spacing" textLength="7" x="1477.5" y="462.1221">9</text><text fill="#000000" font-family="sans-serif" font-size="13" lengthAdjust="spacing" textLength="424" x="1488.5" y="462.1221">Log(getSequentialNumber(), objectClass, objectReference, 1, description)</text><rect fill="#E2E2F0" height="51.2422" rx="2.5" ry="2.5" style="stroke:#181818;stroke-width:0.5;" width="76" x="1929.5" y="444.0938"/><text fill="#000000" font-family="sans-serif" font-size="14" lengthAdjust="spacing" textLength="62" x="1936.5" y="466.2012">&#171;domain&#187;</text><text fill="#000000" font-family="sans-serif" font-size="14" lengthAdjust="spacing" textLength="24" x="1957.5" y="484.8223">Log</text><path d="M2010,452.9238 L2010,496.9238 L2141,496.9238 L2141,462.9238 L2131,452.9238 L2010,452.9238 " fill="#FEFFDD" style="stroke:#181818;stroke-width:0.5;"/><path d="M2131,452.9238 L2131,462.9238 L2141,462.9238 L2131,452.9238 " fill="#FEFFDD" style="stroke:#181818;stroke-width:0.5;"/><text fill="#000000" font-family="sans-serif" font-size="13" lengthAdjust="spacing" textLength="94" x="2016" y="471.9521">1 represents the</text><text fill="#000000" font-family="sans-serif" font-size="13" lengthAdjust="spacing" textLength="110" x="2016" y="489.2432">Log type - Creation</text><polygon fill="#181818" points="2053.5,525.627,2063.5,529.627,2053.5,533.627,2057.5,529.627" style="stroke:#181818;stroke-width:1.0;"/><line style="stroke:#181818;stroke-width:1.0;" x1="1470.5" x2="2059.5" y1="529.627" y2="529.627"/><text fill="#000000" font-family="sans-serif" font-size="13" font-weight="bold" lengthAdjust="spacing" textLength="14" x="1477.5" y="524.3643">10</text><text fill="#000000" font-family="sans-serif" font-size="13" lengthAdjust="spacing" textLength="85" x="1495.5" y="524.3643">AddAsync(log)</text><polygon fill="#181818" points="1481.5,556.918,1471.5,560.918,1481.5,564.918,1477.5,560.918" style="stroke:#181818;stroke-width:1.0;"/><line style="stroke:#181818;stroke-width:1.0;stroke-dasharray:2.0,2.0;" x1="1475.5" x2="2069.5" y1="560.918" y2="560.918"/><text fill="#000000" font-family="sans-serif" font-size="13" font-weight="bold" lengthAdjust="spacing" textLength="14" x="1487.5" y="555.6553">11</text><text fill="#000000" font-family="sans-serif" font-size="13" lengthAdjust="spacing" textLength="17" x="1505.5" y="555.6553">log</text><polygon fill="#181818" points="847,588.209,837,592.209,847,596.209,843,592.209" style="stroke:#181818;stroke-width:1.0;"/><line style="stroke:#181818;stroke-width:1.0;stroke-dasharray:2.0,2.0;" x1="841" x2="1464.5" y1="592.209" y2="592.209"/><text fill="#000000" font-family="sans-serif" font-size="13" font-weight="bold" lengthAdjust="spacing" textLength="14" x="853" y="586.9463">12</text><text fill="#000000" font-family="sans-serif" font-size="13" lengthAdjust="spacing" textLength="17" x="871" y="586.9463">log</text><polygon fill="#181818" points="640,619.5,630,623.5,640,627.5,636,623.5" style="stroke:#181818;stroke-width:1.0;"/><line style="stroke:#181818;stroke-width:1.0;stroke-dasharray:2.0,2.0;" x1="634" x2="830" y1="623.5" y2="623.5"/><text fill="#000000" font-family="sans-serif" font-size="13" font-weight="bold" lengthAdjust="spacing" textLength="14" x="646" y="618.2373">13</text><text fill="#000000" font-family="sans-serif" font-size="13" lengthAdjust="spacing" textLength="79" x="664" y="618.2373">specialization</text><polygon fill="#181818" points="276,650.791,266,654.791,276,658.791,272,654.791" style="stroke:#181818;stroke-width:1.0;"/><line style="stroke:#181818;stroke-width:1.0;stroke-dasharray:2.0,2.0;" x1="270" x2="623" y1="654.791" y2="654.791"/><text fill="#000000" font-family="sans-serif" font-size="13" font-weight="bold" lengthAdjust="spacing" textLength="14" x="282" y="649.5283">14</text><text fill="#000000" font-family="sans-serif" font-size="13" lengthAdjust="spacing" textLength="79" x="300" y="649.5283">specialization</text><path d="M11,669.791 L72,669.791 L72,679.082 L62,689.082 L11,689.082 L11,669.791 " fill="#EEEEEE" style="stroke:#000000;stroke-width:1.5;"/><rect fill="none" height="83.873" style="stroke:#000000;stroke-width:1.5;" width="290.5" x="11" y="669.791"/><text fill="#000000" font-family="sans-serif" font-size="13" font-weight="bold" lengthAdjust="spacing" textLength="16" x="26" y="684.8193">alt</text><ellipse cx="7.5" cy="711.623" fill="none" rx="4" ry="4" style="stroke:#181818;stroke-width:1.5;"/><polygon fill="#181818" points="24.5,708.373,14.5,712.373,24.5,716.373,20.5,712.373" style="stroke:#181818;stroke-width:1.0;"/><line style="stroke:#181818;stroke-width:1.0;stroke-dasharray:2.0,2.0;" x1="22.5" x2="254" y1="712.373" y2="712.373"/><text fill="#000000" font-family="sans-serif" font-size="13" font-weight="bold" lengthAdjust="spacing" textLength="14" x="25" y="707.1104">15</text><text fill="#000000" font-family="sans-serif" font-size="13" lengthAdjust="spacing" textLength="44" x="43" y="707.1104">200 OK</text><line style="stroke:#000000;stroke-width:1.0;stroke-dasharray:2.0,2.0;" x1="11" x2="301.5" y1="721.373" y2="721.373"/><ellipse cx="7.5" cy="744.9141" fill="none" rx="4" ry="4" style="stroke:#181818;stroke-width:1.5;"/><polygon fill="#181818" points="24.5,741.6641,14.5,745.6641,24.5,749.6641,20.5,745.6641" style="stroke:#181818;stroke-width:1.0;"/><line style="stroke:#181818;stroke-width:1.0;stroke-dasharray:2.0,2.0;" x1="22.5" x2="259" y1="745.6641" y2="745.6641"/><text fill="#000000" font-family="sans-serif" font-size="13" font-weight="bold" lengthAdjust="spacing" textLength="14" x="25" y="740.4014">16</text><text fill="#000000" font-family="sans-serif" font-size="13" lengthAdjust="spacing" textLength="118" x="43" y="740.4014">400 BAD REQUEST</text><!--SRC=[VLJ1RXen4BtxAqQS06MJa5QgX10I1Kv5XRAGIzg3uvrk76tihMsegFZuZ6tOx6u5bvKyVc_UpBpnEkaAXCusXI-t3xU3GG8hemLQ2uyI_yBJ0lTOmATV7SRupccrUtj6mqfkd1IovCf1PwrtJggy0zp2UhdTp64qCXJ3yRW9d1ha3jCIXUI5_CUTr6hcT23EDakYPKwtIKtuL2jdT56W2QpfPhqWcgYYrzafchqK6AZfuvIODaQkqm9-il1AcNxZKbs7hx7KLZfj3d4ayvLlpLHHOZVfjJ9-AbZel5xdwTXcd0k9X3EoZQgBHcIhk5E4CVQaat6qRmYhPRhflbgjUd37ItadWd59iqt6XPDxYaSMOz5xokAzxFU746anKUtQcrPTslOsz3xoUY1ZmMEYUSU6CCcoYJqeSPL8ICQymKJpllNxC8HczLsXCxo13AtCLOY4Wp2oz8TUnG_sNTIjYNeWTUdX2V4yVGXDDCkm1JyUZvNIoMbYnOSIlnHjQKv3vQrOmQszWKBditeJbTfvYzXP9Eh5oNY975sAVtQe72Nz7bvvjtS3-laLXJjbZuSr_aQ3Ib0DWzRCb2Of8_CNnmP0ksVGKa8BxWMzCBX3YP34zlmuK6NWEUso_4hMPqvjDNk9Etj69etX4RW-vpewIbJc_8-CCug6L9jwsSEmPt4_FnxFPNZSPruueDSsIfBJtt883_VtiFp661OMMUlkCzrzdSneNtviv-cciKBXtVaXKax6tW40]--></g></svg>