<svg xmlns="http://www.w3.org/2000/svg" xmlns:xlink="http://www.w3.org/1999/xlink" contentStyleType="text/css" height="1058px" preserveAspectRatio="none" style="width:2157px;height:1058px;background:#FFFFFF;" version="1.1" viewBox="0 0 2157 1058" width="2157px" zoomAndPan="magnify"><title>US 5.1.1. Process View (Level 3)</title><defs/><g><text fill="#000000" font-family="sans-serif" font-size="14" font-weight="bold" lengthAdjust="spacing" textLength="254.6797" x="950.6548" y="27.9951">US 5.1.1. Process View (Level 3)</text><rect fill="#FFFFFF" height="850.1641" style="stroke:#181818;stroke-width:1.0;" width="10" x="174.4878" y="139.1563"/><rect fill="#FFFFFF" height="773.7656" style="stroke:#181818;stroke-width:1.0;" width="10" x="483.6733" y="186.4219"/><rect fill="#FFFFFF" height="123.6641" style="stroke:#181818;stroke-width:1.0;" width="10" x="693.6196" y="273.1484"/><rect fill="#FFFFFF" height="158.9922" style="stroke:#181818;stroke-width:1.0;" width="10" x="693.6196" y="425.9453"/><rect fill="#FFFFFF" height="47.2656" style="stroke:#181818;stroke-width:1.0;" width="10" x="1050.1177" y="302.2813"/><rect fill="#FFFFFF" height="43.1328" style="stroke:#181818;stroke-width:1.0;" width="10" x="1050.1177" y="512.6719"/><rect fill="#FFFFFF" height="316.9844" style="stroke:#181818;stroke-width:1.0;" width="10" x="1177.3506" y="614.0703"/><rect fill="#FFFFFF" height="216.5859" style="stroke:#181818;stroke-width:1.0;" width="10" x="1586.0464" y="643.2031"/><rect fill="#FFFFFF" height="43.1328" style="stroke:#181818;stroke-width:1.0;" width="10" x="1973.5557" y="729.9297"/><line style="stroke:#181818;stroke-width:0.5;stroke-dasharray:5.0,5.0;" x1="179.2222" x2="179.2222" y1="89.8906" y2="1007.3203"/><line style="stroke:#181818;stroke-width:0.5;stroke-dasharray:5.0,5.0;" x1="488.4556" x2="488.4556" y1="89.8906" y2="1007.3203"/><line style="stroke:#181818;stroke-width:0.5;stroke-dasharray:5.0,5.0;" x1="698.0059" x2="698.0059" y1="89.8906" y2="1007.3203"/><line style="stroke:#181818;stroke-width:0.5;stroke-dasharray:5.0,5.0;" x1="846.2334" x2="846.2334" y1="233.2188" y2="1007.3203"/><line style="stroke:#181818;stroke-width:0.5;stroke-dasharray:5.0,5.0;" x1="938.9453" x2="938.9453" y1="472.7422" y2="1007.3203"/><line style="stroke:#181818;stroke-width:0.5;stroke-dasharray:5.0,5.0;" x1="1054.4014" x2="1054.4014" y1="89.8906" y2="1007.3203"/><line style="stroke:#181818;stroke-width:0.5;stroke-dasharray:5.0,5.0;" x1="1181.834" x2="1181.834" y1="89.8906" y2="1007.3203"/><line style="stroke:#181818;stroke-width:0.5;stroke-dasharray:5.0,5.0;" x1="1590.4834" x2="1590.4834" y1="89.8906" y2="1007.3203"/><line style="stroke:#181818;stroke-width:0.5;stroke-dasharray:5.0,5.0;" x1="1758.6094" x2="1758.6094" y1="690" y2="1007.3203"/><line style="stroke:#181818;stroke-width:0.5;stroke-dasharray:5.0,5.0;" x1="1868.9414" x2="1868.9414" y1="819.8594" y2="1007.3203"/><line style="stroke:#181818;stroke-width:0.5;stroke-dasharray:5.0,5.0;" x1="1978.4541" x2="1978.4541" y1="89.8906" y2="1007.3203"/><line style="stroke:#181818;stroke-width:0.5;stroke-dasharray:5.0,5.0;" x1="2096.6572" x2="2096.6572" y1="89.8906" y2="1007.3203"/><rect fill="#E2E2F0" height="46.5938" rx="2.5" ry="2.5" style="stroke:#181818;stroke-width:0.5;" width="92.5313" x="133.2222" y="42.2969"/><text fill="#000000" font-family="sans-serif" font-size="14" lengthAdjust="spacing" textLength="58.3994" x="150.2881" y="62.292">&#171;Route&#187;</text><text fill="#000000" font-family="sans-serif" font-size="14" lengthAdjust="spacing" textLength="74.0811" x="144.6724" y="78.5889">StaffRoute</text><rect fill="#E2E2F0" height="46.5938" rx="2.5" ry="2.5" style="stroke:#181818;stroke-width:0.5;" width="92.5313" x="133.2222" y="1006.3203"/><text fill="#000000" font-family="sans-serif" font-size="14" lengthAdjust="spacing" textLength="58.3994" x="150.2881" y="1026.3154">&#171;Route&#187;</text><text fill="#000000" font-family="sans-serif" font-size="14" lengthAdjust="spacing" textLength="74.0811" x="144.6724" y="1042.6123">StaffRoute</text><rect fill="#E2E2F0" height="46.5938" rx="2.5" ry="2.5" style="stroke:#181818;stroke-width:0.5;" width="120.4355" x="428.4556" y="42.2969"/><text fill="#000000" font-family="sans-serif" font-size="14" lengthAdjust="spacing" textLength="86.3037" x="445.5215" y="62.292">&#171;Controller&#187;</text><text fill="#000000" font-family="sans-serif" font-size="14" lengthAdjust="spacing" textLength="101.9854" x="439.9058" y="78.5889">StaffController</text><rect fill="#E2E2F0" height="46.5938" rx="2.5" ry="2.5" style="stroke:#181818;stroke-width:0.5;" width="120.4355" x="428.4556" y="1006.3203"/><text fill="#000000" font-family="sans-serif" font-size="14" lengthAdjust="spacing" textLength="86.3037" x="445.5215" y="1026.3154">&#171;Controller&#187;</text><text fill="#000000" font-family="sans-serif" font-size="14" lengthAdjust="spacing" textLength="101.9854" x="439.9058" y="1042.6123">StaffController</text><rect fill="#E2E2F0" height="46.5938" rx="2.5" ry="2.5" style="stroke:#181818;stroke-width:0.5;" width="195.2275" x="601.0059" y="42.2969"/><text fill="#000000" font-family="sans-serif" font-size="14" lengthAdjust="spacing" textLength="68.8721" x="664.1836" y="62.292">&#171;Service&#187;</text><text fill="#000000" font-family="sans-serif" font-size="14" lengthAdjust="spacing" textLength="176.7773" x="612.4561" y="78.5889">AuthManagementService</text><rect fill="#E2E2F0" height="46.5938" rx="2.5" ry="2.5" style="stroke:#181818;stroke-width:0.5;" width="195.2275" x="601.0059" y="1006.3203"/><text fill="#000000" font-family="sans-serif" font-size="14" lengthAdjust="spacing" textLength="68.8721" x="664.1836" y="1026.3154">&#171;Service&#187;</text><text fill="#000000" font-family="sans-serif" font-size="14" lengthAdjust="spacing" textLength="176.7773" x="612.4561" y="1042.6123">AuthManagementService</text><rect fill="#E2E2F0" height="46.5938" rx="2.5" ry="2.5" style="stroke:#181818;stroke-width:0.5;" width="80.7119" x="806.2334" y="1006.3203"/><text fill="#000000" font-family="sans-serif" font-size="14" lengthAdjust="spacing" textLength="47.4824" x="822.8481" y="1026.3154">&#171;DTO&#187;</text><text fill="#000000" font-family="sans-serif" font-size="14" lengthAdjust="spacing" textLength="62.2617" x="817.6836" y="1042.6123">UserDTO</text><rect fill="#E2E2F0" height="46.5938" rx="2.5" ry="2.5" style="stroke:#181818;stroke-width:0.5;" width="85.4561" x="896.9453" y="1006.3203"/><text fill="#000000" font-family="sans-serif" font-size="14" lengthAdjust="spacing" textLength="71.4561" x="903.9453" y="1026.3154">&#171;Domain&#187;</text><text fill="#000000" font-family="sans-serif" font-size="14" lengthAdjust="spacing" textLength="31.9102" x="925.9434" y="1042.6123">User</text><rect fill="#E2E2F0" height="46.5938" rx="2.5" ry="2.5" style="stroke:#181818;stroke-width:0.5;" width="125.4326" x="992.4014" y="42.2969"/><text fill="#000000" font-family="sans-serif" font-size="14" lengthAdjust="spacing" textLength="92.2031" x="1009.0161" y="62.292">&#171;Repository&#187;</text><text fill="#000000" font-family="sans-serif" font-size="14" lengthAdjust="spacing" textLength="106.9824" x="1003.8516" y="78.5889">UserRepository</text><rect fill="#E2E2F0" height="46.5938" rx="2.5" ry="2.5" style="stroke:#181818;stroke-width:0.5;" width="125.4326" x="992.4014" y="1006.3203"/><text fill="#000000" font-family="sans-serif" font-size="14" lengthAdjust="spacing" textLength="92.2031" x="1009.0161" y="1026.3154">&#171;Repository&#187;</text><text fill="#000000" font-family="sans-serif" font-size="14" lengthAdjust="spacing" textLength="106.9824" x="1003.8516" y="1042.6123">UserRepository</text><rect fill="#E2E2F0" height="46.5938" rx="2.5" ry="2.5" style="stroke:#181818;stroke-width:0.5;" width="109.0332" x="1127.834" y="42.2969"/><text fill="#000000" font-family="sans-serif" font-size="14" lengthAdjust="spacing" textLength="68.8721" x="1147.9146" y="62.292">&#171;Service&#187;</text><text fill="#000000" font-family="sans-serif" font-size="14" lengthAdjust="spacing" textLength="90.583" x="1139.2842" y="78.5889">EmailService</text><rect fill="#E2E2F0" height="46.5938" rx="2.5" ry="2.5" style="stroke:#181818;stroke-width:0.5;" width="109.0332" x="1127.834" y="1006.3203"/><text fill="#000000" font-family="sans-serif" font-size="14" lengthAdjust="spacing" textLength="68.8721" x="1147.9146" y="1026.3154">&#171;Service&#187;</text><text fill="#000000" font-family="sans-serif" font-size="14" lengthAdjust="spacing" textLength="90.583" x="1139.2842" y="1042.6123">EmailService</text><rect fill="#E2E2F0" height="46.5938" rx="2.5" ry="2.5" style="stroke:#181818;stroke-width:0.5;" width="205.126" x="1488.4834" y="42.2969"/><text fill="#000000" font-family="sans-serif" font-size="14" lengthAdjust="spacing" textLength="68.8721" x="1556.6104" y="62.292">&#171;Service&#187;</text><text fill="#000000" font-family="sans-serif" font-size="14" lengthAdjust="spacing" textLength="186.6758" x="1499.9336" y="78.5889">TokenManagementService</text><rect fill="#E2E2F0" height="46.5938" rx="2.5" ry="2.5" style="stroke:#181818;stroke-width:0.5;" width="205.126" x="1488.4834" y="1006.3203"/><text fill="#000000" font-family="sans-serif" font-size="14" lengthAdjust="spacing" textLength="68.8721" x="1556.6104" y="1026.3154">&#171;Service&#187;</text><text fill="#000000" font-family="sans-serif" font-size="14" lengthAdjust="spacing" textLength="186.6758" x="1499.9336" y="1042.6123">TokenManagementService</text><rect fill="#E2E2F0" height="46.5938" rx="2.5" ry="2.5" style="stroke:#181818;stroke-width:0.5;" width="110.332" x="1703.6094" y="1006.3203"/><text fill="#000000" font-family="sans-serif" font-size="14" lengthAdjust="spacing" textLength="96.332" x="1710.6094" y="1026.3154">&#171;component&#187;</text><text fill="#000000" font-family="sans-serif" font-size="14" lengthAdjust="spacing" textLength="42.7109" x="1739.645" y="1042.6123">Token</text><rect fill="#E2E2F0" height="46.5938" rx="2.5" ry="2.5" style="stroke:#181818;stroke-width:0.5;" width="91.5127" x="1823.9414" y="1006.3203"/><text fill="#000000" font-family="sans-serif" font-size="14" lengthAdjust="spacing" textLength="47.4824" x="1845.9565" y="1026.3154">&#171;DTO&#187;</text><text fill="#000000" font-family="sans-serif" font-size="14" lengthAdjust="spacing" textLength="73.0625" x="1835.3916" y="1042.6123">TokenDTO</text><rect fill="#E2E2F0" height="46.5938" rx="2.5" ry="2.5" style="stroke:#181818;stroke-width:0.5;" width="106.2031" x="1925.4541" y="42.2969"/><text fill="#000000" font-family="sans-serif" font-size="14" lengthAdjust="spacing" textLength="92.2031" x="1932.4541" y="62.292">&#171;Repository&#187;</text><text fill="#000000" font-family="sans-serif" font-size="14" lengthAdjust="spacing" textLength="78.5039" x="1941.5288" y="78.5889">TokenRepo</text><rect fill="#E2E2F0" height="46.5938" rx="2.5" ry="2.5" style="stroke:#181818;stroke-width:0.5;" width="106.2031" x="1925.4541" y="1006.3203"/><text fill="#000000" font-family="sans-serif" font-size="14" lengthAdjust="spacing" textLength="92.2031" x="1932.4541" y="1026.3154">&#171;Repository&#187;</text><text fill="#000000" font-family="sans-serif" font-size="14" lengthAdjust="spacing" textLength="78.5039" x="1941.5288" y="1042.6123">TokenRepo</text><rect fill="#E2E2F0" height="46.5938" rx="2.5" ry="2.5" style="stroke:#181818;stroke-width:0.5;" width="110.332" x="2041.6572" y="42.2969"/><text fill="#000000" font-family="sans-serif" font-size="14" lengthAdjust="spacing" textLength="96.332" x="2048.6572" y="62.292">&#171;component&#187;</text><text fill="#000000" font-family="sans-serif" font-size="14" lengthAdjust="spacing" textLength="80.5752" x="2058.7607" y="78.5889">Persistence</text><rect fill="#E2E2F0" height="46.5938" rx="2.5" ry="2.5" style="stroke:#181818;stroke-width:0.5;" width="110.332" x="2041.6572" y="1006.3203"/><text fill="#000000" font-family="sans-serif" font-size="14" lengthAdjust="spacing" textLength="96.332" x="2048.6572" y="1026.3154">&#171;component&#187;</text><text fill="#000000" font-family="sans-serif" font-size="14" lengthAdjust="spacing" textLength="80.5752" x="2058.7607" y="1042.6123">Persistence</text><rect fill="#FFFFFF" height="850.1641" style="stroke:#181818;stroke-width:1.0;" width="10" x="174.4878" y="139.1563"/><rect fill="#FFFFFF" height="773.7656" style="stroke:#181818;stroke-width:1.0;" width="10" x="483.6733" y="186.4219"/><rect fill="#FFFFFF" height="123.6641" style="stroke:#181818;stroke-width:1.0;" width="10" x="693.6196" y="273.1484"/><rect fill="#FFFFFF" height="158.9922" style="stroke:#181818;stroke-width:1.0;" width="10" x="693.6196" y="425.9453"/><rect fill="#FFFFFF" height="47.2656" style="stroke:#181818;stroke-width:1.0;" width="10" x="1050.1177" y="302.2813"/><rect fill="#FFFFFF" height="43.1328" style="stroke:#181818;stroke-width:1.0;" width="10" x="1050.1177" y="512.6719"/><rect fill="#FFFFFF" height="316.9844" style="stroke:#181818;stroke-width:1.0;" width="10" x="1177.3506" y="614.0703"/><rect fill="#FFFFFF" height="216.5859" style="stroke:#181818;stroke-width:1.0;" width="10" x="1586.0464" y="643.2031"/><rect fill="#FFFFFF" height="43.1328" style="stroke:#181818;stroke-width:1.0;" width="10" x="1973.5557" y="729.9297"/><ellipse cx="7.5" cy="138.4063" fill="#000000" rx="4" ry="4" style="stroke:#181818;stroke-width:1.5;"/><polygon fill="#181818" points="162.4878,135.1563,172.4878,139.1563,162.4878,143.1563,166.4878,139.1563" style="stroke:#181818;stroke-width:1.0;"/><line style="stroke:#181818;stroke-width:1.0;" x1="12" x2="168.4878" y1="139.1563" y2="139.1563"/><text fill="#000000" font-family="sans-serif" font-size="13" lengthAdjust="spacing" textLength="147.4878" x="15" y="134.0903">POST(credentialsData)</text><path d="M189,104.8906 L189,159.8906 L303,159.8906 L303,114.8906 L293,104.8906 L189,104.8906 " fill="#FEFFDD" style="stroke:#181818;stroke-width:0.5;"/><path d="M293,104.8906 L293,114.8906 L303,114.8906 L293,104.8906 " fill="#FEFFDD" style="stroke:#181818;stroke-width:0.5;"/><text fill="#000000" font-family="sans-serif" font-size="13" lengthAdjust="spacing" textLength="93.8374" x="195" y="121.9575">email is staff's</text><text fill="#000000" font-family="sans-serif" font-size="13" lengthAdjust="spacing" textLength="82.272" x="195" y="137.0903">no password</text><text fill="#000000" font-family="sans-serif" font-size="13" lengthAdjust="spacing" textLength="59.5854" x="195" y="152.2231">right role</text><polygon fill="#181818" points="471.6733,182.4219,481.6733,186.4219,471.6733,190.4219,475.6733,186.4219" style="stroke:#181818;stroke-width:1.0;"/><line style="stroke:#181818;stroke-width:1.0;" x1="184.4878" x2="477.6733" y1="186.4219" y2="186.4219"/><text fill="#000000" font-family="sans-serif" font-size="13" lengthAdjust="spacing" textLength="280.1855" x="191.4878" y="181.356">createNewBackofficeUser(credentialsData)</text><polygon fill="#181818" points="794.2334,211.5547,804.2334,215.5547,794.2334,219.5547,798.2334,215.5547" style="stroke:#181818;stroke-width:1.0;"/><line style="stroke:#181818;stroke-width:1.0;" x1="493.6733" x2="800.2334" y1="215.5547" y2="215.5547"/><text fill="#000000" font-family="sans-serif" font-size="13" lengthAdjust="spacing" textLength="154.4575" x="500.6733" y="210.4888">toDTO(credentialsData)</text><rect fill="#E2E2F0" height="46.5938" rx="2.5" ry="2.5" style="stroke:#181818;stroke-width:0.5;" width="80.7119" x="806.2334" y="194.4219"/><text fill="#000000" font-family="sans-serif" font-size="14" lengthAdjust="spacing" textLength="47.4824" x="822.8481" y="214.417">&#171;DTO&#187;</text><text fill="#000000" font-family="sans-serif" font-size="14" lengthAdjust="spacing" textLength="62.2617" x="817.6836" y="230.7139">UserDTO</text><polygon fill="#181818" points="681.6196,269.1484,691.6196,273.1484,681.6196,277.1484,685.6196,273.1484" style="stroke:#181818;stroke-width:1.0;"/><line style="stroke:#181818;stroke-width:1.0;" x1="493.6733" x2="687.6196" y1="273.1484" y2="273.1484"/><text fill="#000000" font-family="sans-serif" font-size="13" lengthAdjust="spacing" textLength="180.9463" x="500.6733" y="268.0825">checkIfUserExists(userDTO)</text><polygon fill="#181818" points="1038.1177,298.2813,1048.1177,302.2813,1038.1177,306.2813,1042.1177,302.2813" style="stroke:#181818;stroke-width:1.0;"/><line style="stroke:#181818;stroke-width:1.0;" x1="703.6196" x2="1044.1177" y1="302.2813" y2="302.2813"/><text fill="#000000" font-family="sans-serif" font-size="13" lengthAdjust="spacing" textLength="180.8066" x="710.6196" y="297.2153">existsById(usernameString)</text><polygon fill="#181818" points="714.6196,345.5469,704.6196,349.5469,714.6196,353.5469,710.6196,349.5469" style="stroke:#181818;stroke-width:1.0;"/><line style="stroke:#181818;stroke-width:1.0;stroke-dasharray:2.0,2.0;" x1="708.6196" x2="1054.1177" y1="349.5469" y2="349.5469"/><text fill="#000000" font-family="sans-serif" font-size="13" lengthAdjust="spacing" textLength="51.9746" x="720.6196" y="344.481">boolean</text><path d="M1065,315.2813 L1065,370.2813 L1205,370.2813 L1205,325.2813 L1195,315.2813 L1065,315.2813 " fill="#FEFFDD" style="stroke:#181818;stroke-width:0.5;"/><path d="M1195,315.2813 L1195,325.2813 L1205,325.2813 L1195,315.2813 " fill="#FEFFDD" style="stroke:#181818;stroke-width:0.5;"/><text fill="#000000" font-family="sans-serif" font-size="13" lengthAdjust="spacing" textLength="101.7402" x="1071" y="332.3481">checks if a user</text><text fill="#000000" font-family="sans-serif" font-size="13" lengthAdjust="spacing" textLength="114.9053" x="1075.1323" y="347.481">doesn't exist with</text><text fill="#000000" font-family="sans-serif" font-size="13" lengthAdjust="spacing" textLength="66.3838" x="1075.1323" y="362.6138">that email</text><polygon fill="#181818" points="504.6733,392.8125,494.6733,396.8125,504.6733,400.8125,500.6733,396.8125" style="stroke:#181818;stroke-width:1.0;"/><line style="stroke:#181818;stroke-width:1.0;stroke-dasharray:2.0,2.0;" x1="498.6733" x2="697.6196" y1="396.8125" y2="396.8125"/><text fill="#000000" font-family="sans-serif" font-size="13" lengthAdjust="spacing" textLength="51.9746" x="510.6733" y="391.7466">boolean</text><polygon fill="#181818" points="681.6196,421.9453,691.6196,425.9453,681.6196,429.9453,685.6196,425.9453" style="stroke:#181818;stroke-width:1.0;"/><line style="stroke:#181818;stroke-width:1.0;" x1="493.6733" x2="687.6196" y1="425.9453" y2="425.9453"/><text fill="#000000" font-family="sans-serif" font-size="13" lengthAdjust="spacing" textLength="166.2197" x="500.6733" y="420.8794">createNewUser(userDTO)</text><polygon fill="#181818" points="884.9453,435.9453,894.9453,439.9453,884.9453,443.9453,888.9453,439.9453" style="stroke:#181818;stroke-width:1.0;"/><line style="stroke:#181818;stroke-width:1.0;" x1="703.6196" x2="890.9453" y1="439.9453" y2="439.9453"/><rect fill="#E2E2F0" height="46.5938" rx="2.5" ry="2.5" style="stroke:#181818;stroke-width:0.5;" width="85.4561" x="896.9453" y="433.9453"/><text fill="#000000" font-family="sans-serif" font-size="14" lengthAdjust="spacing" textLength="71.4561" x="903.9453" y="453.9404">&#171;Domain&#187;</text><text fill="#000000" font-family="sans-serif" font-size="14" lengthAdjust="spacing" textLength="31.9102" x="925.9434" y="470.2373">User</text><polygon fill="#181818" points="1038.1177,508.6719,1048.1177,512.6719,1038.1177,516.6719,1042.1177,512.6719" style="stroke:#181818;stroke-width:1.0;"/><line style="stroke:#181818;stroke-width:1.0;" x1="703.6196" x2="1044.1177" y1="512.6719" y2="512.6719"/><text fill="#000000" font-family="sans-serif" font-size="13" lengthAdjust="spacing" textLength="68.9292" x="710.6196" y="507.606">save(user)</text><polygon fill="#181818" points="2084.8232,522.6719,2094.8232,526.6719,2084.8232,530.6719,2088.8232,526.6719" style="stroke:#181818;stroke-width:1.0;"/><line style="stroke:#181818;stroke-width:1.0;" x1="1060.1177" x2="2090.8232" y1="526.6719" y2="526.6719"/><polygon fill="#181818" points="714.6196,551.8047,704.6196,555.8047,714.6196,559.8047,710.6196,555.8047" style="stroke:#181818;stroke-width:1.0;"/><line style="stroke:#181818;stroke-width:1.0;stroke-dasharray:2.0,2.0;" x1="708.6196" x2="1054.1177" y1="555.8047" y2="555.8047"/><text fill="#000000" font-family="sans-serif" font-size="13" lengthAdjust="spacing" textLength="28.355" x="720.6196" y="550.7388">user</text><polygon fill="#181818" points="504.6733,580.9375,494.6733,584.9375,504.6733,588.9375,500.6733,584.9375" style="stroke:#181818;stroke-width:1.0;"/><line style="stroke:#181818;stroke-width:1.0;stroke-dasharray:2.0,2.0;" x1="498.6733" x2="697.6196" y1="584.9375" y2="584.9375"/><text fill="#000000" font-family="sans-serif" font-size="13" lengthAdjust="spacing" textLength="40.2632" x="510.6733" y="579.8716">return</text><polygon fill="#181818" points="1165.3506,610.0703,1175.3506,614.0703,1165.3506,618.0703,1169.3506,614.0703" style="stroke:#181818;stroke-width:1.0;"/><line style="stroke:#181818;stroke-width:1.0;" x1="493.6733" x2="1171.3506" y1="614.0703" y2="614.0703"/><text fill="#000000" font-family="sans-serif" font-size="13" lengthAdjust="spacing" textLength="162.4048" x="500.6733" y="609.0044">sendSetupLink(userDTO)</text><polygon fill="#181818" points="1574.0464,639.2031,1584.0464,643.2031,1574.0464,647.2031,1578.0464,643.2031" style="stroke:#181818;stroke-width:1.0;"/><line style="stroke:#181818;stroke-width:1.0;" x1="1187.3506" x2="1580.0464" y1="643.2031" y2="643.2031"/><text fill="#000000" font-family="sans-serif" font-size="13" lengthAdjust="spacing" textLength="214.9189" x="1194.3506" y="638.1372">generateActivateAccountToken()</text><polygon fill="#181818" points="1691.6094,653.2031,1701.6094,657.2031,1691.6094,661.2031,1695.6094,657.2031" style="stroke:#181818;stroke-width:1.0;"/><line style="stroke:#181818;stroke-width:1.0;" x1="1596.0464" x2="1697.6094" y1="657.2031" y2="657.2031"/><rect fill="#E2E2F0" height="46.5938" rx="2.5" ry="2.5" style="stroke:#181818;stroke-width:0.5;" width="110.332" x="1703.6094" y="651.2031"/><text fill="#000000" font-family="sans-serif" font-size="14" lengthAdjust="spacing" textLength="96.332" x="1710.6094" y="671.1982">&#171;component&#187;</text><text fill="#000000" font-family="sans-serif" font-size="14" lengthAdjust="spacing" textLength="42.7109" x="1739.645" y="687.4951">Token</text><polygon fill="#181818" points="1961.5557,725.9297,1971.5557,729.9297,1961.5557,733.9297,1965.5557,729.9297" style="stroke:#181818;stroke-width:1.0;"/><line style="stroke:#181818;stroke-width:1.0;" x1="1596.0464" x2="1967.5557" y1="729.9297" y2="729.9297"/><text fill="#000000" font-family="sans-serif" font-size="13" lengthAdjust="spacing" textLength="77.3906" x="1603.0464" y="724.8638">save(token)</text><polygon fill="#181818" points="2084.8232,739.9297,2094.8232,743.9297,2084.8232,747.9297,2088.8232,743.9297" style="stroke:#181818;stroke-width:1.0;"/><line style="stroke:#181818;stroke-width:1.0;" x1="1983.5557" x2="2090.8232" y1="743.9297" y2="743.9297"/><polygon fill="#181818" points="1607.0464,769.0625,1597.0464,773.0625,1607.0464,777.0625,1603.0464,773.0625" style="stroke:#181818;stroke-width:1.0;"/><line style="stroke:#181818;stroke-width:1.0;stroke-dasharray:2.0,2.0;" x1="1601.0464" x2="1977.5557" y1="773.0625" y2="773.0625"/><text fill="#000000" font-family="sans-serif" font-size="13" lengthAdjust="spacing" textLength="40.2632" x="1613.0464" y="767.9966">return</text><polygon fill="#181818" points="1811.9414,798.1953,1821.9414,802.1953,1811.9414,806.1953,1815.9414,802.1953" style="stroke:#181818;stroke-width:1.0;"/><line style="stroke:#181818;stroke-width:1.0;" x1="1596.0464" x2="1817.9414" y1="802.1953" y2="802.1953"/><text fill="#000000" font-family="sans-serif" font-size="13" lengthAdjust="spacing" textLength="88.1943" x="1603.0464" y="797.1294">toDTO(token)</text><rect fill="#E2E2F0" height="46.5938" rx="2.5" ry="2.5" style="stroke:#181818;stroke-width:0.5;" width="91.5127" x="1823.9414" y="781.0625"/><text fill="#000000" font-family="sans-serif" font-size="14" lengthAdjust="spacing" textLength="47.4824" x="1845.9565" y="801.0576">&#171;DTO&#187;</text><text fill="#000000" font-family="sans-serif" font-size="14" lengthAdjust="spacing" textLength="73.0625" x="1835.3916" y="817.3545">TokenDTO</text><polygon fill="#181818" points="1198.3506,855.7891,1188.3506,859.7891,1198.3506,863.7891,1194.3506,859.7891" style="stroke:#181818;stroke-width:1.0;"/><line style="stroke:#181818;stroke-width:1.0;stroke-dasharray:2.0,2.0;" x1="1192.3506" x2="1590.0464" y1="859.7891" y2="859.7891"/><text fill="#000000" font-family="sans-serif" font-size="13" lengthAdjust="spacing" textLength="65" x="1204.3506" y="854.7231">tokenDTO</text><line style="stroke:#181818;stroke-width:1.0;" x1="1187.3506" x2="1229.3506" y1="888.9219" y2="888.9219"/><line style="stroke:#181818;stroke-width:1.0;" x1="1229.3506" x2="1229.3506" y1="888.9219" y2="901.9219"/><line style="stroke:#181818;stroke-width:1.0;" x1="1188.3506" x2="1229.3506" y1="901.9219" y2="901.9219"/><polygon fill="#181818" points="1198.3506,897.9219,1188.3506,901.9219,1198.3506,905.9219,1194.3506,901.9219" style="stroke:#181818;stroke-width:1.0;"/><text fill="#000000" font-family="sans-serif" font-size="13" lengthAdjust="spacing" textLength="374.6958" x="1194.3506" y="883.856">sendEmail(emailString, tokenDTO, emailTitle, emailBody)</text><polygon fill="#181818" points="504.6733,927.0547,494.6733,931.0547,504.6733,935.0547,500.6733,931.0547" style="stroke:#181818;stroke-width:1.0;"/><line style="stroke:#181818;stroke-width:1.0;stroke-dasharray:2.0,2.0;" x1="498.6733" x2="1181.3506" y1="931.0547" y2="931.0547"/><text fill="#000000" font-family="sans-serif" font-size="13" lengthAdjust="spacing" textLength="40.2632" x="510.6733" y="925.9888">return</text><polygon fill="#181818" points="195.4878,956.1875,185.4878,960.1875,195.4878,964.1875,191.4878,960.1875" style="stroke:#181818;stroke-width:1.0;"/><line style="stroke:#181818;stroke-width:1.0;stroke-dasharray:2.0,2.0;" x1="189.4878" x2="487.6733" y1="960.1875" y2="960.1875"/><text fill="#000000" font-family="sans-serif" font-size="13" lengthAdjust="spacing" textLength="40.2632" x="201.4878" y="955.1216">return</text><polygon fill="#181818" points="11,985.3203,1,989.3203,11,993.3203,7,989.3203" style="stroke:#181818;stroke-width:1.0;"/><line style="stroke:#181818;stroke-width:1.0;stroke-dasharray:2.0,2.0;" x1="5" x2="178.4878" y1="989.3203" y2="989.3203"/><text fill="#000000" font-family="sans-serif" font-size="13" lengthAdjust="spacing" textLength="87.2168" x="17" y="984.2544">success/error</text><!--SRC=[bLPDZzem4BtxLrXS5j3IggfwgH0IB96AoW8YePVknKq6i00RsGRAlwy_4ZjVR5jn2SvxRsRUZ0SKLKV0dKsCltpuf3zu9NWAKk8V56wuEuSh7F7dNWUXCn6AflHCcCATuN3DBmf6epU6OqMsM_krWud4w-KcYUhe5ywKuCSZY409PvRtibmaw-My4IW6SQMf2pM-gFqhOMG79s0gVsFPuqtopNnlqAV9qb8t4eH-jk3ykG7b9qAPHpje7AqRfSEPIwguk7jiEFBPcAFtQebqi6EvXEXrF9lR6jvX9Vm0hDs2PFazMhJnKtuwSwRHGI4G7lbbOOLX5jdYMCq9op5dWTJcGZMV5GX9fGAMbx6Arl4iJgB5IuJGJpuOkOd2N_5g6IVTL42cgPGSvPGeqaECAy22xlPAGy2OYgd4qapOatnZZECpaVB6HVR674mF7I0qJXMz4irr0ujS51qk7qIjfcDfm09k4v8U-7QhdJRDRkOGnFmK5ofQC1-tVbzBAgwVcW8bT3799luUqiDiQ_ZHR-sHx5wSL2y438FlYRc8iTvOOfcJ-oopR4PE42j1sQucOZk5F75GJUKNrwOHLdNRvYSntMA2ZRRkPiP1iYVbek8RLNjzgFP4kTQWAP3se2xpYlr5p1h7LVl0iQ9Zja__wfQvvFt-8mCbkOAL-ejXe-heFdBIAFsN3GBKHLHSg5JlruP95LWMQ_XvJjcXfVomOb2WQGs_EhJ63XW83Iv8upJb5wRitUxsa4yYh1iKw8KMrdQs79STLKQmhkUC2DYwgQKtjRHpbp9uA5Z9HFk2InSoJwOCh5chydtOYD1YPxqbTjLtxGLmL-_PopsxUv6Od-7yUSApUw-Ys3OEfJHANVLpKLgRJO9VKjFcsN0my4nvISr_WOyW11SLj4Ny0G00]--></g></svg>