<svg xmlns="http://www.w3.org/2000/svg" xmlns:xlink="http://www.w3.org/1999/xlink" contentStyleType="text/css" height="1199px" preserveAspectRatio="none" style="width:2367px;height:1199px;background:#FFFFFF;" version="1.1" viewBox="0 0 2367 1199" width="2367px" zoomAndPan="magnify"><title>US 5.1.1. Process View (Level 3)</title><defs/><g><text fill="#000000" font-family="sans-serif" font-size="14" font-weight="bold" lengthAdjust="spacing" textLength="254.6797" x="1061.0288" y="27.9951">US 5.1.1. Process View (Level 3)</text><rect fill="#FFFFFF" height="1007.3398" style="stroke:#181818;stroke-width:1.0;" width="10" x="241.6396" y="131.5898"/><rect fill="#FFFFFF" height="929.5078" style="stroke:#181818;stroke-width:1.0;" width="10" x="565.2788" y="171.2891"/><rect fill="#FFFFFF" height="29.1328" style="stroke:#181818;stroke-width:1.0;" width="10" x="840.771" y="315.6094"/><rect fill="#FFFFFF" height="262.1953" style="stroke:#181818;stroke-width:1.0;" width="10" x="840.771" y="679.0703"/><rect fill="#FFFFFF" height="29.1328" style="stroke:#181818;stroke-width:1.0;" width="10" x="1087.9971" y="766.4688"/><rect fill="#FFFFFF" height="29.1328" style="stroke:#181818;stroke-width:1.0;" width="10" x="1087.9971" y="824.7344"/><rect fill="#FFFFFF" height="29.1328" style="stroke:#181818;stroke-width:1.0;" width="10" x="1203.4414" y="708.2031"/><rect fill="#FFFFFF" height="29.1328" style="stroke:#181818;stroke-width:1.0;" width="10" x="1203.4414" y="883"/><rect fill="#FFFFFF" height="276.0625" style="stroke:#181818;stroke-width:1.0;" width="10" x="1378.7207" y="373.875"/><rect fill="#FFFFFF" height="28" style="stroke:#181818;stroke-width:1.0;" width="10" x="1383.7207" y="469.2734"/><rect fill="#FFFFFF" height="29.1328" style="stroke:#181818;stroke-width:1.0;" width="10" x="1626.6431" y="533.4063"/><rect fill="#FFFFFF" height="29.1328" style="stroke:#181818;stroke-width:1.0;" width="10" x="1846.4233" y="403.0078"/><rect fill="#FFFFFF" height="29.1328" style="stroke:#181818;stroke-width:1.0;" width="10" x="1846.4233" y="591.6719"/><rect fill="#FFFFFF" height="101.2656" style="stroke:#181818;stroke-width:1.0;" width="10" x="1964.0415" y="970.3984"/><rect fill="#FFFFFF" height="28" style="stroke:#181818;stroke-width:1.0;" width="10" x="1969.0415" y="1007.5313"/><line style="stroke:#181818;stroke-width:0.5;stroke-dasharray:5.0,5.0;" x1="246.374" x2="246.374" y1="89.8906" y2="1147.9297"/><line style="stroke:#181818;stroke-width:0.5;stroke-dasharray:5.0,5.0;" x1="570.061" x2="570.061" y1="89.8906" y2="1147.9297"/><line style="stroke:#181818;stroke-width:0.5;stroke-dasharray:5.0,5.0;" x1="845.1572" x2="845.1572" y1="89.8906" y2="1147.9297"/><line style="stroke:#181818;stroke-width:0.5;stroke-dasharray:5.0,5.0;" x1="993.3848" x2="993.3848" y1="275.6797" y2="1147.9297"/><line style="stroke:#181818;stroke-width:0.5;stroke-dasharray:5.0,5.0;" x1="1092.269" x2="1092.269" y1="89.8906" y2="1147.9297"/><line style="stroke:#181818;stroke-width:0.5;stroke-dasharray:5.0,5.0;" x1="1207.7251" x2="1207.7251" y1="89.8906" y2="1147.9297"/><line style="stroke:#181818;stroke-width:0.5;stroke-dasharray:5.0,5.0;" x1="1383.1577" x2="1383.1577" y1="89.8906" y2="1147.9297"/><line style="stroke:#181818;stroke-width:0.5;stroke-dasharray:5.0,5.0;" x1="1631.4771" x2="1631.4771" y1="89.8906" y2="1147.9297"/><line style="stroke:#181818;stroke-width:0.5;stroke-dasharray:5.0,5.0;" x1="1741.8091" x2="1741.8091" y1="218.0859" y2="1147.9297"/><line style="stroke:#181818;stroke-width:0.5;stroke-dasharray:5.0,5.0;" x1="1851.3218" x2="1851.3218" y1="89.8906" y2="1147.9297"/><line style="stroke:#181818;stroke-width:0.5;stroke-dasharray:5.0,5.0;" x1="1968.5249" x2="1968.5249" y1="89.8906" y2="1147.9297"/><rect fill="#E2E2F0" height="46.5938" rx="2.5" ry="2.5" style="stroke:#181818;stroke-width:0.5;" width="92.5313" x="200.374" y="42.2969"/><text fill="#000000" font-family="sans-serif" font-size="14" lengthAdjust="spacing" textLength="58.3994" x="217.4399" y="62.292">&#171;Route&#187;</text><text fill="#000000" font-family="sans-serif" font-size="14" lengthAdjust="spacing" textLength="74.0811" x="211.8242" y="78.5889">StaffRoute</text><rect fill="#E2E2F0" height="46.5938" rx="2.5" ry="2.5" style="stroke:#181818;stroke-width:0.5;" width="92.5313" x="200.374" y="1146.9297"/><text fill="#000000" font-family="sans-serif" font-size="14" lengthAdjust="spacing" textLength="58.3994" x="217.4399" y="1166.9248">&#171;Route&#187;</text><text fill="#000000" font-family="sans-serif" font-size="14" lengthAdjust="spacing" textLength="74.0811" x="211.8242" y="1183.2217">StaffRoute</text><rect fill="#E2E2F0" height="46.5938" rx="2.5" ry="2.5" style="stroke:#181818;stroke-width:0.5;" width="120.4355" x="510.061" y="42.2969"/><text fill="#000000" font-family="sans-serif" font-size="14" lengthAdjust="spacing" textLength="86.3037" x="527.127" y="62.292">&#171;Controller&#187;</text><text fill="#000000" font-family="sans-serif" font-size="14" lengthAdjust="spacing" textLength="101.9854" x="521.5112" y="78.5889">StaffController</text><rect fill="#E2E2F0" height="46.5938" rx="2.5" ry="2.5" style="stroke:#181818;stroke-width:0.5;" width="120.4355" x="510.061" y="1146.9297"/><text fill="#000000" font-family="sans-serif" font-size="14" lengthAdjust="spacing" textLength="86.3037" x="527.127" y="1166.9248">&#171;Controller&#187;</text><text fill="#000000" font-family="sans-serif" font-size="14" lengthAdjust="spacing" textLength="101.9854" x="521.5112" y="1183.2217">StaffController</text><rect fill="#E2E2F0" height="46.5938" rx="2.5" ry="2.5" style="stroke:#181818;stroke-width:0.5;" width="195.2275" x="748.1572" y="42.2969"/><text fill="#000000" font-family="sans-serif" font-size="14" lengthAdjust="spacing" textLength="68.8721" x="811.335" y="62.292">&#171;Service&#187;</text><text fill="#000000" font-family="sans-serif" font-size="14" lengthAdjust="spacing" textLength="176.7773" x="759.6074" y="78.5889">AuthManagementService</text><rect fill="#E2E2F0" height="46.5938" rx="2.5" ry="2.5" style="stroke:#181818;stroke-width:0.5;" width="195.2275" x="748.1572" y="1146.9297"/><text fill="#000000" font-family="sans-serif" font-size="14" lengthAdjust="spacing" textLength="68.8721" x="811.335" y="1166.9248">&#171;Service&#187;</text><text fill="#000000" font-family="sans-serif" font-size="14" lengthAdjust="spacing" textLength="176.7773" x="759.6074" y="1183.2217">AuthManagementService</text><rect fill="#E2E2F0" height="46.5938" rx="2.5" ry="2.5" style="stroke:#181818;stroke-width:0.5;" width="80.7119" x="953.3848" y="1146.9297"/><text fill="#000000" font-family="sans-serif" font-size="14" lengthAdjust="spacing" textLength="47.4824" x="969.9995" y="1166.9248">&#171;DTO&#187;</text><text fill="#000000" font-family="sans-serif" font-size="14" lengthAdjust="spacing" textLength="62.2617" x="964.835" y="1183.2217">UserDTO</text><rect fill="#E2E2F0" height="46.5938" rx="2.5" ry="2.5" style="stroke:#181818;stroke-width:0.5;" width="85.4561" x="1050.269" y="42.2969"/><text fill="#000000" font-family="sans-serif" font-size="14" lengthAdjust="spacing" textLength="71.4561" x="1057.269" y="62.292">&#171;Domain&#187;</text><text fill="#000000" font-family="sans-serif" font-size="14" lengthAdjust="spacing" textLength="31.9102" x="1079.2671" y="78.5889">User</text><rect fill="#E2E2F0" height="46.5938" rx="2.5" ry="2.5" style="stroke:#181818;stroke-width:0.5;" width="85.4561" x="1050.269" y="1146.9297"/><text fill="#000000" font-family="sans-serif" font-size="14" lengthAdjust="spacing" textLength="71.4561" x="1057.269" y="1166.9248">&#171;Domain&#187;</text><text fill="#000000" font-family="sans-serif" font-size="14" lengthAdjust="spacing" textLength="31.9102" x="1079.2671" y="1183.2217">User</text><rect fill="#E2E2F0" height="46.5938" rx="2.5" ry="2.5" style="stroke:#181818;stroke-width:0.5;" width="125.4326" x="1145.7251" y="42.2969"/><text fill="#000000" font-family="sans-serif" font-size="14" lengthAdjust="spacing" textLength="92.2031" x="1162.3398" y="62.292">&#171;Repository&#187;</text><text fill="#000000" font-family="sans-serif" font-size="14" lengthAdjust="spacing" textLength="106.9824" x="1157.1753" y="78.5889">UserRepository</text><rect fill="#E2E2F0" height="46.5938" rx="2.5" ry="2.5" style="stroke:#181818;stroke-width:0.5;" width="125.4326" x="1145.7251" y="1146.9297"/><text fill="#000000" font-family="sans-serif" font-size="14" lengthAdjust="spacing" textLength="92.2031" x="1162.3398" y="1166.9248">&#171;Repository&#187;</text><text fill="#000000" font-family="sans-serif" font-size="14" lengthAdjust="spacing" textLength="106.9824" x="1157.1753" y="1183.2217">UserRepository</text><rect fill="#E2E2F0" height="46.5938" rx="2.5" ry="2.5" style="stroke:#181818;stroke-width:0.5;" width="205.126" x="1281.1577" y="42.2969"/><text fill="#000000" font-family="sans-serif" font-size="14" lengthAdjust="spacing" textLength="68.8721" x="1349.2847" y="62.292">&#171;Service&#187;</text><text fill="#000000" font-family="sans-serif" font-size="14" lengthAdjust="spacing" textLength="186.6758" x="1292.6079" y="78.5889">TokenManagementService</text><rect fill="#E2E2F0" height="46.5938" rx="2.5" ry="2.5" style="stroke:#181818;stroke-width:0.5;" width="205.126" x="1281.1577" y="1146.9297"/><text fill="#000000" font-family="sans-serif" font-size="14" lengthAdjust="spacing" textLength="68.8721" x="1349.2847" y="1166.9248">&#171;Service&#187;</text><text fill="#000000" font-family="sans-serif" font-size="14" lengthAdjust="spacing" textLength="186.6758" x="1292.6079" y="1183.2217">TokenManagementService</text><rect fill="#E2E2F0" height="46.5938" rx="2.5" ry="2.5" style="stroke:#181818;stroke-width:0.5;" width="110.332" x="1576.4771" y="42.2969"/><text fill="#000000" font-family="sans-serif" font-size="14" lengthAdjust="spacing" textLength="96.332" x="1583.4771" y="62.292">&#171;component&#187;</text><text fill="#000000" font-family="sans-serif" font-size="14" lengthAdjust="spacing" textLength="42.7109" x="1612.5127" y="78.5889">Token</text><rect fill="#E2E2F0" height="46.5938" rx="2.5" ry="2.5" style="stroke:#181818;stroke-width:0.5;" width="110.332" x="1576.4771" y="1146.9297"/><text fill="#000000" font-family="sans-serif" font-size="14" lengthAdjust="spacing" textLength="96.332" x="1583.4771" y="1166.9248">&#171;component&#187;</text><text fill="#000000" font-family="sans-serif" font-size="14" lengthAdjust="spacing" textLength="42.7109" x="1612.5127" y="1183.2217">Token</text><rect fill="#E2E2F0" height="46.5938" rx="2.5" ry="2.5" style="stroke:#181818;stroke-width:0.5;" width="91.5127" x="1696.8091" y="1146.9297"/><text fill="#000000" font-family="sans-serif" font-size="14" lengthAdjust="spacing" textLength="47.4824" x="1718.8242" y="1166.9248">&#171;DTO&#187;</text><text fill="#000000" font-family="sans-serif" font-size="14" lengthAdjust="spacing" textLength="73.0625" x="1708.2593" y="1183.2217">TokenDTO</text><rect fill="#E2E2F0" height="46.5938" rx="2.5" ry="2.5" style="stroke:#181818;stroke-width:0.5;" width="106.2031" x="1798.3218" y="42.2969"/><text fill="#000000" font-family="sans-serif" font-size="14" lengthAdjust="spacing" textLength="92.2031" x="1805.3218" y="62.292">&#171;Repository&#187;</text><text fill="#000000" font-family="sans-serif" font-size="14" lengthAdjust="spacing" textLength="78.5039" x="1814.3965" y="78.5889">TokenRepo</text><rect fill="#E2E2F0" height="46.5938" rx="2.5" ry="2.5" style="stroke:#181818;stroke-width:0.5;" width="106.2031" x="1798.3218" y="1146.9297"/><text fill="#000000" font-family="sans-serif" font-size="14" lengthAdjust="spacing" textLength="92.2031" x="1805.3218" y="1166.9248">&#171;Repository&#187;</text><text fill="#000000" font-family="sans-serif" font-size="14" lengthAdjust="spacing" textLength="78.5039" x="1814.3965" y="1183.2217">TokenRepo</text><rect fill="#E2E2F0" height="46.5938" rx="2.5" ry="2.5" style="stroke:#181818;stroke-width:0.5;" width="109.0332" x="1914.5249" y="42.2969"/><text fill="#000000" font-family="sans-serif" font-size="14" lengthAdjust="spacing" textLength="68.8721" x="1934.6055" y="62.292">&#171;Service&#187;</text><text fill="#000000" font-family="sans-serif" font-size="14" lengthAdjust="spacing" textLength="90.583" x="1925.9751" y="78.5889">EmailService</text><rect fill="#E2E2F0" height="46.5938" rx="2.5" ry="2.5" style="stroke:#181818;stroke-width:0.5;" width="109.0332" x="1914.5249" y="1146.9297"/><text fill="#000000" font-family="sans-serif" font-size="14" lengthAdjust="spacing" textLength="68.8721" x="1934.6055" y="1166.9248">&#171;Service&#187;</text><text fill="#000000" font-family="sans-serif" font-size="14" lengthAdjust="spacing" textLength="90.583" x="1925.9751" y="1183.2217">EmailService</text><rect fill="#FFFFFF" height="1007.3398" style="stroke:#181818;stroke-width:1.0;" width="10" x="241.6396" y="131.5898"/><rect fill="#FFFFFF" height="929.5078" style="stroke:#181818;stroke-width:1.0;" width="10" x="565.2788" y="171.2891"/><rect fill="#FFFFFF" height="29.1328" style="stroke:#181818;stroke-width:1.0;" width="10" x="840.771" y="315.6094"/><rect fill="#FFFFFF" height="262.1953" style="stroke:#181818;stroke-width:1.0;" width="10" x="840.771" y="679.0703"/><rect fill="#FFFFFF" height="29.1328" style="stroke:#181818;stroke-width:1.0;" width="10" x="1087.9971" y="766.4688"/><rect fill="#FFFFFF" height="29.1328" style="stroke:#181818;stroke-width:1.0;" width="10" x="1087.9971" y="824.7344"/><rect fill="#FFFFFF" height="29.1328" style="stroke:#181818;stroke-width:1.0;" width="10" x="1203.4414" y="708.2031"/><rect fill="#FFFFFF" height="29.1328" style="stroke:#181818;stroke-width:1.0;" width="10" x="1203.4414" y="883"/><rect fill="#FFFFFF" height="276.0625" style="stroke:#181818;stroke-width:1.0;" width="10" x="1378.7207" y="373.875"/><rect fill="#FFFFFF" height="28" style="stroke:#181818;stroke-width:1.0;" width="10" x="1383.7207" y="469.2734"/><rect fill="#FFFFFF" height="29.1328" style="stroke:#181818;stroke-width:1.0;" width="10" x="1626.6431" y="533.4063"/><rect fill="#FFFFFF" height="29.1328" style="stroke:#181818;stroke-width:1.0;" width="10" x="1846.4233" y="403.0078"/><rect fill="#FFFFFF" height="29.1328" style="stroke:#181818;stroke-width:1.0;" width="10" x="1846.4233" y="591.6719"/><rect fill="#FFFFFF" height="101.2656" style="stroke:#181818;stroke-width:1.0;" width="10" x="1964.0415" y="970.3984"/><rect fill="#FFFFFF" height="28" style="stroke:#181818;stroke-width:1.0;" width="10" x="1969.0415" y="1007.5313"/><ellipse cx="7.5" cy="130.8398" fill="#000000" rx="4" ry="4" style="stroke:#181818;stroke-width:1.5;"/><polygon fill="#181818" points="229.6396,127.5898,239.6396,131.5898,229.6396,135.5898,233.6396,131.5898" style="stroke:#181818;stroke-width:1.0;"/><line style="stroke:#181818;stroke-width:1.0;" x1="12" x2="235.6396" y1="131.5898" y2="131.5898"/><text fill="#000000" font-family="sans-serif" font-size="13" lengthAdjust="spacing" textLength="214.6396" x="15" y="126.5239">PUT(credentialsData, tokenData)</text><path d="M256,104.8906 L256,144.8906 L407,144.8906 L407,114.8906 L397,104.8906 L256,104.8906 " fill="#FEFFDD" style="stroke:#181818;stroke-width:0.5;"/><path d="M397,104.8906 L397,114.8906 L407,114.8906 L397,104.8906 " fill="#FEFFDD" style="stroke:#181818;stroke-width:0.5;"/><text fill="#000000" font-family="sans-serif" font-size="13" lengthAdjust="spacing" textLength="130.9839" x="262" y="121.9575">After clicking on the</text><text fill="#000000" font-family="sans-serif" font-size="13" lengthAdjust="spacing" textLength="84.8174" x="262" y="137.0903">one time link</text><polygon fill="#181818" points="553.2788,167.2891,563.2788,171.2891,553.2788,175.2891,557.2788,171.2891" style="stroke:#181818;stroke-width:1.0;"/><line style="stroke:#181818;stroke-width:1.0;" x1="251.6396" x2="559.2788" y1="171.2891" y2="171.2891"/><text fill="#000000" font-family="sans-serif" font-size="13" lengthAdjust="spacing" textLength="294.6392" x="258.6396" y="166.2231">activateAccount(credentialsData, tokenData)</text><polygon fill="#181818" points="1684.8091,196.4219,1694.8091,200.4219,1684.8091,204.4219,1688.8091,200.4219" style="stroke:#181818;stroke-width:1.0;"/><line style="stroke:#181818;stroke-width:1.0;" x1="575.2788" x2="1690.8091" y1="200.4219" y2="200.4219"/><text fill="#000000" font-family="sans-serif" font-size="13" lengthAdjust="spacing" textLength="119.2344" x="582.2788" y="195.356">toDTO(tokenData)</text><rect fill="#E2E2F0" height="46.5938" rx="2.5" ry="2.5" style="stroke:#181818;stroke-width:0.5;" width="91.5127" x="1696.8091" y="179.2891"/><text fill="#000000" font-family="sans-serif" font-size="14" lengthAdjust="spacing" textLength="47.4824" x="1718.8242" y="199.2842">&#171;DTO&#187;</text><text fill="#000000" font-family="sans-serif" font-size="14" lengthAdjust="spacing" textLength="73.0625" x="1708.2593" y="215.5811">TokenDTO</text><polygon fill="#181818" points="941.3848,254.0156,951.3848,258.0156,941.3848,262.0156,945.3848,258.0156" style="stroke:#181818;stroke-width:1.0;"/><line style="stroke:#181818;stroke-width:1.0;" x1="575.2788" x2="947.3848" y1="258.0156" y2="258.0156"/><text fill="#000000" font-family="sans-serif" font-size="13" lengthAdjust="spacing" textLength="154.4575" x="582.2788" y="252.9497">toDTO(credentialsData)</text><rect fill="#E2E2F0" height="46.5938" rx="2.5" ry="2.5" style="stroke:#181818;stroke-width:0.5;" width="80.7119" x="953.3848" y="236.8828"/><text fill="#000000" font-family="sans-serif" font-size="14" lengthAdjust="spacing" textLength="47.4824" x="969.9995" y="256.8779">&#171;DTO&#187;</text><text fill="#000000" font-family="sans-serif" font-size="14" lengthAdjust="spacing" textLength="62.2617" x="964.835" y="273.1748">UserDTO</text><polygon fill="#181818" points="828.771,311.6094,838.771,315.6094,828.771,319.6094,832.771,315.6094" style="stroke:#181818;stroke-width:1.0;"/><line style="stroke:#181818;stroke-width:1.0;" x1="575.2788" x2="834.771" y1="315.6094" y2="315.6094"/><text fill="#000000" font-family="sans-serif" font-size="13" lengthAdjust="spacing" textLength="246.4922" x="582.2788" y="310.5435">validatePassword(userDTO.password)</text><polygon fill="#181818" points="586.2788,340.7422,576.2788,344.7422,586.2788,348.7422,582.2788,344.7422" style="stroke:#181818;stroke-width:1.0;"/><line style="stroke:#181818;stroke-width:1.0;stroke-dasharray:2.0,2.0;" x1="580.2788" x2="844.771" y1="344.7422" y2="344.7422"/><text fill="#000000" font-family="sans-serif" font-size="13" lengthAdjust="spacing" textLength="26.6792" x="592.2788" y="339.6763">true</text><polygon fill="#181818" points="1366.7207,369.875,1376.7207,373.875,1366.7207,377.875,1370.7207,373.875" style="stroke:#181818;stroke-width:1.0;"/><line style="stroke:#181818;stroke-width:1.0;" x1="575.2788" x2="1372.7207" y1="373.875" y2="373.875"/><text fill="#000000" font-family="sans-serif" font-size="13" lengthAdjust="spacing" textLength="167.0005" x="582.2788" y="368.8091">validateToken(tokenDTO)</text><polygon fill="#181818" points="1834.4233,399.0078,1844.4233,403.0078,1834.4233,407.0078,1838.4233,403.0078" style="stroke:#181818;stroke-width:1.0;"/><line style="stroke:#181818;stroke-width:1.0;" x1="1388.7207" x2="1840.4233" y1="403.0078" y2="403.0078"/><text fill="#000000" font-family="sans-serif" font-size="13" lengthAdjust="spacing" textLength="139.001" x="1395.7207" y="397.9419">findByID(tokenDtoID)</text><polygon fill="#181818" points="1399.7207,428.1406,1389.7207,432.1406,1399.7207,436.1406,1395.7207,432.1406" style="stroke:#181818;stroke-width:1.0;"/><line style="stroke:#181818;stroke-width:1.0;stroke-dasharray:2.0,2.0;" x1="1393.7207" x2="1850.4233" y1="432.1406" y2="432.1406"/><text fill="#000000" font-family="sans-serif" font-size="13" lengthAdjust="spacing" textLength="36.8164" x="1405.7207" y="427.0747">token</text><line style="stroke:#181818;stroke-width:1.0;" x1="1393.7207" x2="1435.7207" y1="461.2734" y2="461.2734"/><line style="stroke:#181818;stroke-width:1.0;" x1="1435.7207" x2="1435.7207" y1="461.2734" y2="474.2734"/><line style="stroke:#181818;stroke-width:1.0;" x1="1394.7207" x2="1435.7207" y1="474.2734" y2="474.2734"/><polygon fill="#181818" points="1404.7207,470.2734,1394.7207,474.2734,1404.7207,478.2734,1400.7207,474.2734" style="stroke:#181818;stroke-width:1.0;"/><text fill="#000000" font-family="sans-serif" font-size="13" lengthAdjust="spacing" textLength="213.9224" x="1400.7207" y="456.2075">checkTokenValidityUsage(token)</text><polygon fill="#181818" points="1614.6431,529.4063,1624.6431,533.4063,1614.6431,537.4063,1618.6431,533.4063" style="stroke:#181818;stroke-width:1.0;"/><line style="stroke:#181818;stroke-width:1.0;" x1="1388.7207" x2="1620.6431" y1="533.4063" y2="533.4063"/><text fill="#000000" font-family="sans-serif" font-size="13" lengthAdjust="spacing" textLength="104.6855" x="1395.7207" y="528.3403">updateValidity()</text><polygon fill="#181818" points="1399.7207,558.5391,1389.7207,562.5391,1399.7207,566.5391,1395.7207,562.5391" style="stroke:#181818;stroke-width:1.0;"/><line style="stroke:#181818;stroke-width:1.0;stroke-dasharray:2.0,2.0;" x1="1393.7207" x2="1630.6431" y1="562.5391" y2="562.5391"/><text fill="#000000" font-family="sans-serif" font-size="13" lengthAdjust="spacing" textLength="40.2632" x="1405.7207" y="557.4731">return</text><polygon fill="#181818" points="1834.4233,587.6719,1844.4233,591.6719,1834.4233,595.6719,1838.4233,591.6719" style="stroke:#181818;stroke-width:1.0;"/><line style="stroke:#181818;stroke-width:1.0;" x1="1388.7207" x2="1840.4233" y1="591.6719" y2="591.6719"/><text fill="#000000" font-family="sans-serif" font-size="13" lengthAdjust="spacing" textLength="77.3906" x="1395.7207" y="586.606">save(token)</text><polygon fill="#181818" points="1399.7207,616.8047,1389.7207,620.8047,1399.7207,624.8047,1395.7207,620.8047" style="stroke:#181818;stroke-width:1.0;"/><line style="stroke:#181818;stroke-width:1.0;stroke-dasharray:2.0,2.0;" x1="1393.7207" x2="1850.4233" y1="620.8047" y2="620.8047"/><text fill="#000000" font-family="sans-serif" font-size="13" lengthAdjust="spacing" textLength="40.2632" x="1405.7207" y="615.7388">return</text><polygon fill="#181818" points="586.2788,645.9375,576.2788,649.9375,586.2788,653.9375,582.2788,649.9375" style="stroke:#181818;stroke-width:1.0;"/><line style="stroke:#181818;stroke-width:1.0;stroke-dasharray:2.0,2.0;" x1="580.2788" x2="1382.7207" y1="649.9375" y2="649.9375"/><text fill="#000000" font-family="sans-serif" font-size="13" lengthAdjust="spacing" textLength="26.6792" x="592.2788" y="644.8716">true</text><polygon fill="#181818" points="828.771,675.0703,838.771,679.0703,828.771,683.0703,832.771,679.0703" style="stroke:#181818;stroke-width:1.0;"/><line style="stroke:#181818;stroke-width:1.0;" x1="575.2788" x2="834.771" y1="679.0703" y2="679.0703"/><text fill="#000000" font-family="sans-serif" font-size="13" lengthAdjust="spacing" textLength="226.7383" x="582.2788" y="674.0044">updateAccountPassword(userDTO)</text><polygon fill="#181818" points="1191.4414,704.2031,1201.4414,708.2031,1191.4414,712.2031,1195.4414,708.2031" style="stroke:#181818;stroke-width:1.0;"/><line style="stroke:#181818;stroke-width:1.0;" x1="850.771" x2="1197.4414" y1="708.2031" y2="708.2031"/><text fill="#000000" font-family="sans-serif" font-size="13" lengthAdjust="spacing" textLength="167.54" x="857.771" y="703.1372">findById(usernameString)</text><polygon fill="#181818" points="861.771,733.3359,851.771,737.3359,861.771,741.3359,857.771,737.3359" style="stroke:#181818;stroke-width:1.0;"/><line style="stroke:#181818;stroke-width:1.0;stroke-dasharray:2.0,2.0;" x1="855.771" x2="1207.4414" y1="737.3359" y2="737.3359"/><text fill="#000000" font-family="sans-serif" font-size="13" lengthAdjust="spacing" textLength="28.355" x="867.771" y="732.27">user</text><polygon fill="#181818" points="1075.9971,762.4688,1085.9971,766.4688,1075.9971,770.4688,1079.9971,766.4688" style="stroke:#181818;stroke-width:1.0;"/><line style="stroke:#181818;stroke-width:1.0;" x1="850.771" x2="1081.9971" y1="766.4688" y2="766.4688"/><text fill="#000000" font-family="sans-serif" font-size="13" lengthAdjust="spacing" textLength="218.2261" x="857.771" y="761.4028">updatePassword(passwordString)</text><polygon fill="#181818" points="861.771,791.6016,851.771,795.6016,861.771,799.6016,857.771,795.6016" style="stroke:#181818;stroke-width:1.0;"/><line style="stroke:#181818;stroke-width:1.0;stroke-dasharray:2.0,2.0;" x1="855.771" x2="1091.9971" y1="795.6016" y2="795.6016"/><text fill="#000000" font-family="sans-serif" font-size="13" lengthAdjust="spacing" textLength="40.2632" x="867.771" y="790.5356">return</text><polygon fill="#181818" points="1075.9971,820.7344,1085.9971,824.7344,1075.9971,828.7344,1079.9971,824.7344" style="stroke:#181818;stroke-width:1.0;"/><line style="stroke:#181818;stroke-width:1.0;" x1="850.771" x2="1081.9971" y1="824.7344" y2="824.7344"/><text fill="#000000" font-family="sans-serif" font-size="13" lengthAdjust="spacing" textLength="115.4385" x="857.771" y="819.6685">activateAccount()</text><polygon fill="#181818" points="861.771,849.8672,851.771,853.8672,861.771,857.8672,857.771,853.8672" style="stroke:#181818;stroke-width:1.0;"/><line style="stroke:#181818;stroke-width:1.0;stroke-dasharray:2.0,2.0;" x1="855.771" x2="1091.9971" y1="853.8672" y2="853.8672"/><text fill="#000000" font-family="sans-serif" font-size="13" lengthAdjust="spacing" textLength="40.2632" x="867.771" y="848.8013">return</text><polygon fill="#181818" points="1191.4414,879,1201.4414,883,1191.4414,887,1195.4414,883" style="stroke:#181818;stroke-width:1.0;"/><line style="stroke:#181818;stroke-width:1.0;" x1="850.771" x2="1197.4414" y1="883" y2="883"/><text fill="#000000" font-family="sans-serif" font-size="13" lengthAdjust="spacing" textLength="68.9292" x="857.771" y="877.9341">save(user)</text><polygon fill="#181818" points="861.771,908.1328,851.771,912.1328,861.771,916.1328,857.771,912.1328" style="stroke:#181818;stroke-width:1.0;"/><line style="stroke:#181818;stroke-width:1.0;stroke-dasharray:2.0,2.0;" x1="855.771" x2="1207.4414" y1="912.1328" y2="912.1328"/><text fill="#000000" font-family="sans-serif" font-size="13" lengthAdjust="spacing" textLength="40.2632" x="867.771" y="907.0669">return</text><polygon fill="#181818" points="586.2788,937.2656,576.2788,941.2656,586.2788,945.2656,582.2788,941.2656" style="stroke:#181818;stroke-width:1.0;"/><line style="stroke:#181818;stroke-width:1.0;stroke-dasharray:2.0,2.0;" x1="580.2788" x2="844.771" y1="941.2656" y2="941.2656"/><text fill="#000000" font-family="sans-serif" font-size="13" lengthAdjust="spacing" textLength="40.2632" x="592.2788" y="936.1997">return</text><polygon fill="#181818" points="1952.0415,966.3984,1962.0415,970.3984,1952.0415,974.3984,1956.0415,970.3984" style="stroke:#181818;stroke-width:1.0;"/><line style="stroke:#181818;stroke-width:1.0;" x1="575.2788" x2="1958.0415" y1="970.3984" y2="970.3984"/><text fill="#000000" font-family="sans-serif" font-size="13" lengthAdjust="spacing" textLength="179.1943" x="582.2788" y="965.3325">sendSucessEmail(userDTO)</text><line style="stroke:#181818;stroke-width:1.0;" x1="1979.0415" x2="2021.0415" y1="999.5313" y2="999.5313"/><line style="stroke:#181818;stroke-width:1.0;" x1="2021.0415" x2="2021.0415" y1="999.5313" y2="1012.5313"/><line style="stroke:#181818;stroke-width:1.0;" x1="1980.0415" x2="2021.0415" y1="1012.5313" y2="1012.5313"/><polygon fill="#181818" points="1990.0415,1008.5313,1980.0415,1012.5313,1990.0415,1016.5313,1986.0415,1012.5313" style="stroke:#181818;stroke-width:1.0;"/><text fill="#000000" font-family="sans-serif" font-size="13" lengthAdjust="spacing" textLength="374.6958" x="1986.0415" y="994.4653">sendEmail(emailString, tokenDTO, emailTitle, emailBody)</text><polygon fill="#181818" points="586.2788,1067.6641,576.2788,1071.6641,586.2788,1075.6641,582.2788,1071.6641" style="stroke:#181818;stroke-width:1.0;"/><line style="stroke:#181818;stroke-width:1.0;stroke-dasharray:2.0,2.0;" x1="580.2788" x2="1968.0415" y1="1071.6641" y2="1071.6641"/><text fill="#000000" font-family="sans-serif" font-size="13" lengthAdjust="spacing" textLength="40.2632" x="592.2788" y="1066.5981">return</text><polygon fill="#181818" points="262.6396,1096.7969,252.6396,1100.7969,262.6396,1104.7969,258.6396,1100.7969" style="stroke:#181818;stroke-width:1.0;"/><line style="stroke:#181818;stroke-width:1.0;stroke-dasharray:2.0,2.0;" x1="256.6396" x2="569.2788" y1="1100.7969" y2="1100.7969"/><text fill="#000000" font-family="sans-serif" font-size="13" lengthAdjust="spacing" textLength="40.2632" x="268.6396" y="1095.731">return</text><polygon fill="#181818" points="11,1125.9297,1,1129.9297,11,1133.9297,7,1129.9297" style="stroke:#181818;stroke-width:1.0;"/><line style="stroke:#181818;stroke-width:1.0;stroke-dasharray:2.0,2.0;" x1="5" x2="240.6396" y1="1129.9297" y2="1129.9297"/><text fill="#000000" font-family="sans-serif" font-size="13" lengthAdjust="spacing" textLength="87.2168" x="17" y="1124.8638">success/error</text><!--SRC=[hLPDR-8m5BpxLrYSe2fThLPxMLL8QK5Qj6rJGUYbUx6SHsiHREGuLFpxzKVY63kbbnKNOzwycNcPs2YcAi2ZpHh_lFckF_XP2WfrZLyOVE3n0noXmZyc8uGEH2f6sO5mXKUtjolHA9ZD_dAyLcIxjLz7cDHubM-AHLnzBxYIegf0zf1-p-BkywTYbJyaH6kGHqOTLTQezqV2oHliWQls5ulEDiLlynqb-7cHM-oc1gdNjhfT9wLYJnZtrQvqlLWbtk4WQgQ4FFdQVilBCLiNtHHY1tpOJf7_MJnPFn6UYlr1S5tTT-W1drctPPrtMpbWFZ9bCMQl1rb35_mizFIgqCNYCLi-j4_bLKndBXlu5txU56CgeTG-6AdgEL7a6YkhKYydY0i5k8AjGjbMWSIqOdJ7-1iM7AjtG7e2MB6zhc5yXu2Ns20GeOeTYOQw3297ftdRR6dchYIZL3HSNLJXs_beTdrqoswC-EfAjrL2ByS1DYnjqnPMHhJdzLsMTVMHLApK4fv9NNy8MOuRr-lcq6u4AZqC-TNqpBkI3Q0I4a3gAsAtMMZT5Nb0sSSKzRYkYOcBRh9blBmxBUSjNedbFExWtfGUD8rqM6IeF4QTyROW-WvqPvM_61jCdJQrVjESZ44FCO7TJFlhtit1ZANhEvwWx0peG8aD2QgH7CqZcWkpgydH2yvIyvzFx1EgP6GNyn4ytU5qkZ6qhr8SqO5aeY2PCtz6zXbnM4xsi5PIl-vH2wlUewQH5esCm-tiXfpcDFV2lUBkPKfOxU5lCH5REz-0pvOESSKdplzg7upFniGC84Z9bmDB8p8qihE0fB86Zn1_x1jf-d1UD-OVXRqT1i8HN18zSA2BmuEzO-npwixg8h_6Thim_sNQzPqeJuCaWVX-Co3-md2WrZiEBhOKuE-Es-dKbzKDDIFv1b8A-Gy0]--></g></svg>