<svg xmlns="http://www.w3.org/2000/svg" xmlns:xlink="http://www.w3.org/1999/xlink" contentStyleType="text/css" height="1109px" preserveAspectRatio="none" style="width:2420px;height:1109px;background:#FFFFFF;" version="1.1" viewBox="0 0 2420 1109" width="2420px" zoomAndPan="magnify"><title>US 5.1.1. Process View (Level 3)</title><defs/><g><text fill="#000000" font-family="sans-serif" font-size="14" font-weight="bold" lengthAdjust="spacing" textLength="254.6797" x="1081.7014" y="27.9951">US 5.1.1. Process View (Level 3)</text><rect fill="#FFFFFF" height="917.0742" style="stroke:#181818;stroke-width:1.0;" width="10" x="242.5728" y="131.5898"/><rect fill="#FFFFFF" height="839.2422" style="stroke:#181818;stroke-width:1.0;" width="10" x="566.2119" y="171.2891"/><rect fill="#FFFFFF" height="276.1953" style="stroke:#181818;stroke-width:1.0;" width="10" x="821.9502" y="604.8047"/><rect fill="#FFFFFF" height="29.1328" style="stroke:#181818;stroke-width:1.0;" width="10" x="1069.1763" y="692.2031"/><rect fill="#FFFFFF" height="29.1328" style="stroke:#181818;stroke-width:1.0;" width="10" x="1069.1763" y="750.4688"/><rect fill="#FFFFFF" height="29.1328" style="stroke:#181818;stroke-width:1.0;" width="10" x="1184.6206" y="633.9375"/><rect fill="#FFFFFF" height="43.1328" style="stroke:#181818;stroke-width:1.0;" width="10" x="1184.6206" y="808.7344"/><rect fill="#FFFFFF" height="260.0625" style="stroke:#181818;stroke-width:1.0;" width="10" x="1359.8999" y="258.0156"/><rect fill="#FFFFFF" height="29.1328" style="stroke:#181818;stroke-width:1.0;" width="10" x="1607.8223" y="387.5469"/><rect fill="#FFFFFF" height="29.1328" style="stroke:#181818;stroke-width:1.0;" width="10" x="1827.6025" y="287.1484"/><rect fill="#FFFFFF" height="43.1328" style="stroke:#181818;stroke-width:1.0;" width="10" x="1827.6025" y="445.8125"/><rect fill="#FFFFFF" height="71.2656" style="stroke:#181818;stroke-width:1.0;" width="10" x="1945.2207" y="910.1328"/><line style="stroke:#181818;stroke-width:0.5;stroke-dasharray:5.0,5.0;" x1="247.3071" x2="247.3071" y1="89.8906" y2="1057.6641"/><line style="stroke:#181818;stroke-width:0.5;stroke-dasharray:5.0,5.0;" x1="570.9941" x2="570.9941" y1="89.8906" y2="1057.6641"/><line style="stroke:#181818;stroke-width:0.5;stroke-dasharray:5.0,5.0;" x1="826.3364" x2="826.3364" y1="89.8906" y2="1057.6641"/><line style="stroke:#181818;stroke-width:0.5;stroke-dasharray:5.0,5.0;" x1="974.564" x2="974.564" y1="564.875" y2="1057.6641"/><line style="stroke:#181818;stroke-width:0.5;stroke-dasharray:5.0,5.0;" x1="1073.4482" x2="1073.4482" y1="89.8906" y2="1057.6641"/><line style="stroke:#181818;stroke-width:0.5;stroke-dasharray:5.0,5.0;" x1="1188.9043" x2="1188.9043" y1="89.8906" y2="1057.6641"/><line style="stroke:#181818;stroke-width:0.5;stroke-dasharray:5.0,5.0;" x1="1364.3369" x2="1364.3369" y1="89.8906" y2="1057.6641"/><line style="stroke:#181818;stroke-width:0.5;stroke-dasharray:5.0,5.0;" x1="1612.6563" x2="1612.6563" y1="89.8906" y2="1057.6641"/><line style="stroke:#181818;stroke-width:0.5;stroke-dasharray:5.0,5.0;" x1="1722.9883" x2="1722.9883" y1="218.0859" y2="1057.6641"/><line style="stroke:#181818;stroke-width:0.5;stroke-dasharray:5.0,5.0;" x1="1832.501" x2="1832.501" y1="89.8906" y2="1057.6641"/><line style="stroke:#181818;stroke-width:0.5;stroke-dasharray:5.0,5.0;" x1="1949.7041" x2="1949.7041" y1="89.8906" y2="1057.6641"/><line style="stroke:#181818;stroke-width:0.5;stroke-dasharray:5.0,5.0;" x1="2358.7505" x2="2358.7505" y1="89.8906" y2="1057.6641"/><rect fill="#E2E2F0" height="46.5938" rx="2.5" ry="2.5" style="stroke:#181818;stroke-width:0.5;" width="92.5313" x="201.3071" y="42.2969"/><text fill="#000000" font-family="sans-serif" font-size="14" lengthAdjust="spacing" textLength="58.3994" x="218.373" y="62.292">&#171;Route&#187;</text><text fill="#000000" font-family="sans-serif" font-size="14" lengthAdjust="spacing" textLength="74.0811" x="212.7573" y="78.5889">StaffRoute</text><rect fill="#E2E2F0" height="46.5938" rx="2.5" ry="2.5" style="stroke:#181818;stroke-width:0.5;" width="92.5313" x="201.3071" y="1056.6641"/><text fill="#000000" font-family="sans-serif" font-size="14" lengthAdjust="spacing" textLength="58.3994" x="218.373" y="1076.6592">&#171;Route&#187;</text><text fill="#000000" font-family="sans-serif" font-size="14" lengthAdjust="spacing" textLength="74.0811" x="212.7573" y="1092.9561">StaffRoute</text><rect fill="#E2E2F0" height="46.5938" rx="2.5" ry="2.5" style="stroke:#181818;stroke-width:0.5;" width="120.4355" x="510.9941" y="42.2969"/><text fill="#000000" font-family="sans-serif" font-size="14" lengthAdjust="spacing" textLength="86.3037" x="528.0601" y="62.292">&#171;Controller&#187;</text><text fill="#000000" font-family="sans-serif" font-size="14" lengthAdjust="spacing" textLength="101.9854" x="522.4443" y="78.5889">StaffController</text><rect fill="#E2E2F0" height="46.5938" rx="2.5" ry="2.5" style="stroke:#181818;stroke-width:0.5;" width="120.4355" x="510.9941" y="1056.6641"/><text fill="#000000" font-family="sans-serif" font-size="14" lengthAdjust="spacing" textLength="86.3037" x="528.0601" y="1076.6592">&#171;Controller&#187;</text><text fill="#000000" font-family="sans-serif" font-size="14" lengthAdjust="spacing" textLength="101.9854" x="522.4443" y="1092.9561">StaffController</text><rect fill="#E2E2F0" height="46.5938" rx="2.5" ry="2.5" style="stroke:#181818;stroke-width:0.5;" width="195.2275" x="729.3364" y="42.2969"/><text fill="#000000" font-family="sans-serif" font-size="14" lengthAdjust="spacing" textLength="68.8721" x="792.5142" y="62.292">&#171;Service&#187;</text><text fill="#000000" font-family="sans-serif" font-size="14" lengthAdjust="spacing" textLength="176.7773" x="740.7866" y="78.5889">AuthManagementService</text><rect fill="#E2E2F0" height="46.5938" rx="2.5" ry="2.5" style="stroke:#181818;stroke-width:0.5;" width="195.2275" x="729.3364" y="1056.6641"/><text fill="#000000" font-family="sans-serif" font-size="14" lengthAdjust="spacing" textLength="68.8721" x="792.5142" y="1076.6592">&#171;Service&#187;</text><text fill="#000000" font-family="sans-serif" font-size="14" lengthAdjust="spacing" textLength="176.7773" x="740.7866" y="1092.9561">AuthManagementService</text><rect fill="#E2E2F0" height="46.5938" rx="2.5" ry="2.5" style="stroke:#181818;stroke-width:0.5;" width="80.7119" x="934.564" y="1056.6641"/><text fill="#000000" font-family="sans-serif" font-size="14" lengthAdjust="spacing" textLength="47.4824" x="951.1787" y="1076.6592">&#171;DTO&#187;</text><text fill="#000000" font-family="sans-serif" font-size="14" lengthAdjust="spacing" textLength="62.2617" x="946.0142" y="1092.9561">UserDTO</text><rect fill="#E2E2F0" height="46.5938" rx="2.5" ry="2.5" style="stroke:#181818;stroke-width:0.5;" width="85.4561" x="1031.4482" y="42.2969"/><text fill="#000000" font-family="sans-serif" font-size="14" lengthAdjust="spacing" textLength="71.4561" x="1038.4482" y="62.292">&#171;Domain&#187;</text><text fill="#000000" font-family="sans-serif" font-size="14" lengthAdjust="spacing" textLength="31.9102" x="1060.4463" y="78.5889">User</text><rect fill="#E2E2F0" height="46.5938" rx="2.5" ry="2.5" style="stroke:#181818;stroke-width:0.5;" width="85.4561" x="1031.4482" y="1056.6641"/><text fill="#000000" font-family="sans-serif" font-size="14" lengthAdjust="spacing" textLength="71.4561" x="1038.4482" y="1076.6592">&#171;Domain&#187;</text><text fill="#000000" font-family="sans-serif" font-size="14" lengthAdjust="spacing" textLength="31.9102" x="1060.4463" y="1092.9561">User</text><rect fill="#E2E2F0" height="46.5938" rx="2.5" ry="2.5" style="stroke:#181818;stroke-width:0.5;" width="125.4326" x="1126.9043" y="42.2969"/><text fill="#000000" font-family="sans-serif" font-size="14" lengthAdjust="spacing" textLength="92.2031" x="1143.519" y="62.292">&#171;Repository&#187;</text><text fill="#000000" font-family="sans-serif" font-size="14" lengthAdjust="spacing" textLength="106.9824" x="1138.3545" y="78.5889">UserRepository</text><rect fill="#E2E2F0" height="46.5938" rx="2.5" ry="2.5" style="stroke:#181818;stroke-width:0.5;" width="125.4326" x="1126.9043" y="1056.6641"/><text fill="#000000" font-family="sans-serif" font-size="14" lengthAdjust="spacing" textLength="92.2031" x="1143.519" y="1076.6592">&#171;Repository&#187;</text><text fill="#000000" font-family="sans-serif" font-size="14" lengthAdjust="spacing" textLength="106.9824" x="1138.3545" y="1092.9561">UserRepository</text><rect fill="#E2E2F0" height="46.5938" rx="2.5" ry="2.5" style="stroke:#181818;stroke-width:0.5;" width="205.126" x="1262.3369" y="42.2969"/><text fill="#000000" font-family="sans-serif" font-size="14" lengthAdjust="spacing" textLength="68.8721" x="1330.4639" y="62.292">&#171;Service&#187;</text><text fill="#000000" font-family="sans-serif" font-size="14" lengthAdjust="spacing" textLength="186.6758" x="1273.7871" y="78.5889">TokenManagementService</text><rect fill="#E2E2F0" height="46.5938" rx="2.5" ry="2.5" style="stroke:#181818;stroke-width:0.5;" width="205.126" x="1262.3369" y="1056.6641"/><text fill="#000000" font-family="sans-serif" font-size="14" lengthAdjust="spacing" textLength="68.8721" x="1330.4639" y="1076.6592">&#171;Service&#187;</text><text fill="#000000" font-family="sans-serif" font-size="14" lengthAdjust="spacing" textLength="186.6758" x="1273.7871" y="1092.9561">TokenManagementService</text><rect fill="#E2E2F0" height="46.5938" rx="2.5" ry="2.5" style="stroke:#181818;stroke-width:0.5;" width="110.332" x="1557.6563" y="42.2969"/><text fill="#000000" font-family="sans-serif" font-size="14" lengthAdjust="spacing" textLength="96.332" x="1564.6563" y="62.292">&#171;component&#187;</text><text fill="#000000" font-family="sans-serif" font-size="14" lengthAdjust="spacing" textLength="42.7109" x="1593.6919" y="78.5889">Token</text><rect fill="#E2E2F0" height="46.5938" rx="2.5" ry="2.5" style="stroke:#181818;stroke-width:0.5;" width="110.332" x="1557.6563" y="1056.6641"/><text fill="#000000" font-family="sans-serif" font-size="14" lengthAdjust="spacing" textLength="96.332" x="1564.6563" y="1076.6592">&#171;component&#187;</text><text fill="#000000" font-family="sans-serif" font-size="14" lengthAdjust="spacing" textLength="42.7109" x="1593.6919" y="1092.9561">Token</text><rect fill="#E2E2F0" height="46.5938" rx="2.5" ry="2.5" style="stroke:#181818;stroke-width:0.5;" width="91.5127" x="1677.9883" y="1056.6641"/><text fill="#000000" font-family="sans-serif" font-size="14" lengthAdjust="spacing" textLength="47.4824" x="1700.0034" y="1076.6592">&#171;DTO&#187;</text><text fill="#000000" font-family="sans-serif" font-size="14" lengthAdjust="spacing" textLength="73.0625" x="1689.4385" y="1092.9561">TokenDTO</text><rect fill="#E2E2F0" height="46.5938" rx="2.5" ry="2.5" style="stroke:#181818;stroke-width:0.5;" width="106.2031" x="1779.501" y="42.2969"/><text fill="#000000" font-family="sans-serif" font-size="14" lengthAdjust="spacing" textLength="92.2031" x="1786.501" y="62.292">&#171;Repository&#187;</text><text fill="#000000" font-family="sans-serif" font-size="14" lengthAdjust="spacing" textLength="78.5039" x="1795.5757" y="78.5889">TokenRepo</text><rect fill="#E2E2F0" height="46.5938" rx="2.5" ry="2.5" style="stroke:#181818;stroke-width:0.5;" width="106.2031" x="1779.501" y="1056.6641"/><text fill="#000000" font-family="sans-serif" font-size="14" lengthAdjust="spacing" textLength="92.2031" x="1786.501" y="1076.6592">&#171;Repository&#187;</text><text fill="#000000" font-family="sans-serif" font-size="14" lengthAdjust="spacing" textLength="78.5039" x="1795.5757" y="1092.9561">TokenRepo</text><rect fill="#E2E2F0" height="46.5938" rx="2.5" ry="2.5" style="stroke:#181818;stroke-width:0.5;" width="109.0332" x="1895.7041" y="42.2969"/><text fill="#000000" font-family="sans-serif" font-size="14" lengthAdjust="spacing" textLength="68.8721" x="1915.7847" y="62.292">&#171;Service&#187;</text><text fill="#000000" font-family="sans-serif" font-size="14" lengthAdjust="spacing" textLength="90.583" x="1907.1543" y="78.5889">EmailService</text><rect fill="#E2E2F0" height="46.5938" rx="2.5" ry="2.5" style="stroke:#181818;stroke-width:0.5;" width="109.0332" x="1895.7041" y="1056.6641"/><text fill="#000000" font-family="sans-serif" font-size="14" lengthAdjust="spacing" textLength="68.8721" x="1915.7847" y="1076.6592">&#171;Service&#187;</text><text fill="#000000" font-family="sans-serif" font-size="14" lengthAdjust="spacing" textLength="90.583" x="1907.1543" y="1092.9561">EmailService</text><rect fill="#E2E2F0" height="46.5938" rx="2.5" ry="2.5" style="stroke:#181818;stroke-width:0.5;" width="110.332" x="2303.7505" y="42.2969"/><text fill="#000000" font-family="sans-serif" font-size="14" lengthAdjust="spacing" textLength="96.332" x="2310.7505" y="62.292">&#171;component&#187;</text><text fill="#000000" font-family="sans-serif" font-size="14" lengthAdjust="spacing" textLength="80.5752" x="2320.854" y="78.5889">Persistence</text><rect fill="#E2E2F0" height="46.5938" rx="2.5" ry="2.5" style="stroke:#181818;stroke-width:0.5;" width="110.332" x="2303.7505" y="1056.6641"/><text fill="#000000" font-family="sans-serif" font-size="14" lengthAdjust="spacing" textLength="96.332" x="2310.7505" y="1076.6592">&#171;component&#187;</text><text fill="#000000" font-family="sans-serif" font-size="14" lengthAdjust="spacing" textLength="80.5752" x="2320.854" y="1092.9561">Persistence</text><rect fill="#FFFFFF" height="917.0742" style="stroke:#181818;stroke-width:1.0;" width="10" x="242.5728" y="131.5898"/><rect fill="#FFFFFF" height="839.2422" style="stroke:#181818;stroke-width:1.0;" width="10" x="566.2119" y="171.2891"/><rect fill="#FFFFFF" height="276.1953" style="stroke:#181818;stroke-width:1.0;" width="10" x="821.9502" y="604.8047"/><rect fill="#FFFFFF" height="29.1328" style="stroke:#181818;stroke-width:1.0;" width="10" x="1069.1763" y="692.2031"/><rect fill="#FFFFFF" height="29.1328" style="stroke:#181818;stroke-width:1.0;" width="10" x="1069.1763" y="750.4688"/><rect fill="#FFFFFF" height="29.1328" style="stroke:#181818;stroke-width:1.0;" width="10" x="1184.6206" y="633.9375"/><rect fill="#FFFFFF" height="43.1328" style="stroke:#181818;stroke-width:1.0;" width="10" x="1184.6206" y="808.7344"/><rect fill="#FFFFFF" height="260.0625" style="stroke:#181818;stroke-width:1.0;" width="10" x="1359.8999" y="258.0156"/><rect fill="#FFFFFF" height="29.1328" style="stroke:#181818;stroke-width:1.0;" width="10" x="1607.8223" y="387.5469"/><rect fill="#FFFFFF" height="29.1328" style="stroke:#181818;stroke-width:1.0;" width="10" x="1827.6025" y="287.1484"/><rect fill="#FFFFFF" height="43.1328" style="stroke:#181818;stroke-width:1.0;" width="10" x="1827.6025" y="445.8125"/><rect fill="#FFFFFF" height="71.2656" style="stroke:#181818;stroke-width:1.0;" width="10" x="1945.2207" y="910.1328"/><ellipse cx="7.5" cy="130.8398" fill="#000000" rx="4" ry="4" style="stroke:#181818;stroke-width:1.5;"/><polygon fill="#181818" points="230.5728,127.5898,240.5728,131.5898,230.5728,135.5898,234.5728,131.5898" style="stroke:#181818;stroke-width:1.0;"/><line style="stroke:#181818;stroke-width:1.0;" x1="12" x2="236.5728" y1="131.5898" y2="131.5898"/><text fill="#000000" font-family="sans-serif" font-size="13" lengthAdjust="spacing" textLength="215.5728" x="15" y="126.5239">GET(credentialsData, tokenData)</text><path d="M257,104.8906 L257,144.8906 L408,144.8906 L408,114.8906 L398,104.8906 L257,104.8906 " fill="#FEFFDD" style="stroke:#181818;stroke-width:0.5;"/><path d="M398,104.8906 L398,114.8906 L408,114.8906 L398,104.8906 " fill="#FEFFDD" style="stroke:#181818;stroke-width:0.5;"/><text fill="#000000" font-family="sans-serif" font-size="13" lengthAdjust="spacing" textLength="130.9839" x="263" y="121.9575">After clicking on the</text><text fill="#000000" font-family="sans-serif" font-size="13" lengthAdjust="spacing" textLength="84.8174" x="263" y="137.0903">one time link</text><polygon fill="#181818" points="554.2119,167.2891,564.2119,171.2891,554.2119,175.2891,558.2119,171.2891" style="stroke:#181818;stroke-width:1.0;"/><line style="stroke:#181818;stroke-width:1.0;" x1="252.5728" x2="560.2119" y1="171.2891" y2="171.2891"/><text fill="#000000" font-family="sans-serif" font-size="13" lengthAdjust="spacing" textLength="294.6392" x="259.5728" y="166.2231">activateAccount(credentialsData, tokenData)</text><polygon fill="#181818" points="1665.9883,196.4219,1675.9883,200.4219,1665.9883,204.4219,1669.9883,200.4219" style="stroke:#181818;stroke-width:1.0;"/><line style="stroke:#181818;stroke-width:1.0;" x1="576.2119" x2="1671.9883" y1="200.4219" y2="200.4219"/><text fill="#000000" font-family="sans-serif" font-size="13" lengthAdjust="spacing" textLength="119.2344" x="583.2119" y="195.356">toDTO(tokenData)</text><rect fill="#E2E2F0" height="46.5938" rx="2.5" ry="2.5" style="stroke:#181818;stroke-width:0.5;" width="91.5127" x="1677.9883" y="179.2891"/><text fill="#000000" font-family="sans-serif" font-size="14" lengthAdjust="spacing" textLength="47.4824" x="1700.0034" y="199.2842">&#171;DTO&#187;</text><text fill="#000000" font-family="sans-serif" font-size="14" lengthAdjust="spacing" textLength="73.0625" x="1689.4385" y="215.5811">TokenDTO</text><polygon fill="#181818" points="1347.8999,254.0156,1357.8999,258.0156,1347.8999,262.0156,1351.8999,258.0156" style="stroke:#181818;stroke-width:1.0;"/><line style="stroke:#181818;stroke-width:1.0;" x1="576.2119" x2="1353.8999" y1="258.0156" y2="258.0156"/><text fill="#000000" font-family="sans-serif" font-size="13" lengthAdjust="spacing" textLength="167.0005" x="583.2119" y="252.9497">validateToken(tokenDTO)</text><polygon fill="#181818" points="1815.6025,283.1484,1825.6025,287.1484,1815.6025,291.1484,1819.6025,287.1484" style="stroke:#181818;stroke-width:1.0;"/><line style="stroke:#181818;stroke-width:1.0;" x1="1369.8999" x2="1821.6025" y1="287.1484" y2="287.1484"/><text fill="#000000" font-family="sans-serif" font-size="13" lengthAdjust="spacing" textLength="139.001" x="1376.8999" y="282.0825">findByID(tokenDtoID)</text><polygon fill="#181818" points="1380.8999,312.2813,1370.8999,316.2813,1380.8999,320.2813,1376.8999,316.2813" style="stroke:#181818;stroke-width:1.0;"/><line style="stroke:#181818;stroke-width:1.0;stroke-dasharray:2.0,2.0;" x1="1374.8999" x2="1831.6025" y1="316.2813" y2="316.2813"/><text fill="#000000" font-family="sans-serif" font-size="13" lengthAdjust="spacing" textLength="36.8164" x="1386.8999" y="311.2153">token</text><line style="stroke:#181818;stroke-width:1.0;" x1="1369.8999" x2="1411.8999" y1="345.4141" y2="345.4141"/><line style="stroke:#181818;stroke-width:1.0;" x1="1411.8999" x2="1411.8999" y1="345.4141" y2="358.4141"/><line style="stroke:#181818;stroke-width:1.0;" x1="1370.8999" x2="1411.8999" y1="358.4141" y2="358.4141"/><polygon fill="#181818" points="1380.8999,354.4141,1370.8999,358.4141,1380.8999,362.4141,1376.8999,358.4141" style="stroke:#181818;stroke-width:1.0;"/><text fill="#000000" font-family="sans-serif" font-size="13" lengthAdjust="spacing" textLength="213.9224" x="1376.8999" y="340.3481">checkTokenValidityUsage(token)</text><polygon fill="#181818" points="1595.8223,383.5469,1605.8223,387.5469,1595.8223,391.5469,1599.8223,387.5469" style="stroke:#181818;stroke-width:1.0;"/><line style="stroke:#181818;stroke-width:1.0;" x1="1369.8999" x2="1601.8223" y1="387.5469" y2="387.5469"/><text fill="#000000" font-family="sans-serif" font-size="13" lengthAdjust="spacing" textLength="104.6855" x="1376.8999" y="382.481">updateValidity()</text><polygon fill="#181818" points="1380.8999,412.6797,1370.8999,416.6797,1380.8999,420.6797,1376.8999,416.6797" style="stroke:#181818;stroke-width:1.0;"/><line style="stroke:#181818;stroke-width:1.0;stroke-dasharray:2.0,2.0;" x1="1374.8999" x2="1611.8223" y1="416.6797" y2="416.6797"/><text fill="#000000" font-family="sans-serif" font-size="13" lengthAdjust="spacing" textLength="40.2632" x="1386.8999" y="411.6138">return</text><polygon fill="#181818" points="1815.6025,441.8125,1825.6025,445.8125,1815.6025,449.8125,1819.6025,445.8125" style="stroke:#181818;stroke-width:1.0;"/><line style="stroke:#181818;stroke-width:1.0;" x1="1369.8999" x2="1821.6025" y1="445.8125" y2="445.8125"/><text fill="#000000" font-family="sans-serif" font-size="13" lengthAdjust="spacing" textLength="77.3906" x="1376.8999" y="440.7466">save(token)</text><polygon fill="#181818" points="2346.9165,455.8125,2356.9165,459.8125,2346.9165,463.8125,2350.9165,459.8125" style="stroke:#181818;stroke-width:1.0;"/><line style="stroke:#181818;stroke-width:1.0;" x1="1837.6025" x2="2352.9165" y1="459.8125" y2="459.8125"/><polygon fill="#181818" points="1380.8999,484.9453,1370.8999,488.9453,1380.8999,492.9453,1376.8999,488.9453" style="stroke:#181818;stroke-width:1.0;"/><line style="stroke:#181818;stroke-width:1.0;stroke-dasharray:2.0,2.0;" x1="1374.8999" x2="1831.6025" y1="488.9453" y2="488.9453"/><text fill="#000000" font-family="sans-serif" font-size="13" lengthAdjust="spacing" textLength="40.2632" x="1386.8999" y="483.8794">return</text><polygon fill="#181818" points="587.2119,514.0781,577.2119,518.0781,587.2119,522.0781,583.2119,518.0781" style="stroke:#181818;stroke-width:1.0;"/><line style="stroke:#181818;stroke-width:1.0;stroke-dasharray:2.0,2.0;" x1="581.2119" x2="1363.8999" y1="518.0781" y2="518.0781"/><text fill="#000000" font-family="sans-serif" font-size="13" lengthAdjust="spacing" textLength="26.6792" x="593.2119" y="513.0122">true</text><polygon fill="#181818" points="922.564,543.2109,932.564,547.2109,922.564,551.2109,926.564,547.2109" style="stroke:#181818;stroke-width:1.0;"/><line style="stroke:#181818;stroke-width:1.0;" x1="576.2119" x2="928.564" y1="547.2109" y2="547.2109"/><text fill="#000000" font-family="sans-serif" font-size="13" lengthAdjust="spacing" textLength="154.4575" x="583.2119" y="542.145">toDTO(credentialsData)</text><rect fill="#E2E2F0" height="46.5938" rx="2.5" ry="2.5" style="stroke:#181818;stroke-width:0.5;" width="80.7119" x="934.564" y="526.0781"/><text fill="#000000" font-family="sans-serif" font-size="14" lengthAdjust="spacing" textLength="47.4824" x="951.1787" y="546.0732">&#171;DTO&#187;</text><text fill="#000000" font-family="sans-serif" font-size="14" lengthAdjust="spacing" textLength="62.2617" x="946.0142" y="562.3701">UserDTO</text><polygon fill="#181818" points="809.9502,600.8047,819.9502,604.8047,809.9502,608.8047,813.9502,604.8047" style="stroke:#181818;stroke-width:1.0;"/><line style="stroke:#181818;stroke-width:1.0;" x1="576.2119" x2="815.9502" y1="604.8047" y2="604.8047"/><text fill="#000000" font-family="sans-serif" font-size="13" lengthAdjust="spacing" textLength="226.7383" x="583.2119" y="599.7388">updateAccountPassword(userDTO)</text><polygon fill="#181818" points="1172.6206,629.9375,1182.6206,633.9375,1172.6206,637.9375,1176.6206,633.9375" style="stroke:#181818;stroke-width:1.0;"/><line style="stroke:#181818;stroke-width:1.0;" x1="831.9502" x2="1178.6206" y1="633.9375" y2="633.9375"/><text fill="#000000" font-family="sans-serif" font-size="13" lengthAdjust="spacing" textLength="167.54" x="838.9502" y="628.8716">findById(usernameString)</text><polygon fill="#181818" points="842.9502,659.0703,832.9502,663.0703,842.9502,667.0703,838.9502,663.0703" style="stroke:#181818;stroke-width:1.0;"/><line style="stroke:#181818;stroke-width:1.0;stroke-dasharray:2.0,2.0;" x1="836.9502" x2="1188.6206" y1="663.0703" y2="663.0703"/><text fill="#000000" font-family="sans-serif" font-size="13" lengthAdjust="spacing" textLength="28.355" x="848.9502" y="658.0044">user</text><polygon fill="#181818" points="1057.1763,688.2031,1067.1763,692.2031,1057.1763,696.2031,1061.1763,692.2031" style="stroke:#181818;stroke-width:1.0;"/><line style="stroke:#181818;stroke-width:1.0;" x1="831.9502" x2="1063.1763" y1="692.2031" y2="692.2031"/><text fill="#000000" font-family="sans-serif" font-size="13" lengthAdjust="spacing" textLength="218.2261" x="838.9502" y="687.1372">updatePassword(passwordString)</text><polygon fill="#181818" points="842.9502,717.3359,832.9502,721.3359,842.9502,725.3359,838.9502,721.3359" style="stroke:#181818;stroke-width:1.0;"/><line style="stroke:#181818;stroke-width:1.0;stroke-dasharray:2.0,2.0;" x1="836.9502" x2="1073.1763" y1="721.3359" y2="721.3359"/><text fill="#000000" font-family="sans-serif" font-size="13" lengthAdjust="spacing" textLength="40.2632" x="848.9502" y="716.27">return</text><polygon fill="#181818" points="1057.1763,746.4688,1067.1763,750.4688,1057.1763,754.4688,1061.1763,750.4688" style="stroke:#181818;stroke-width:1.0;"/><line style="stroke:#181818;stroke-width:1.0;" x1="831.9502" x2="1063.1763" y1="750.4688" y2="750.4688"/><text fill="#000000" font-family="sans-serif" font-size="13" lengthAdjust="spacing" textLength="115.4385" x="838.9502" y="745.4028">activateAccount()</text><polygon fill="#181818" points="842.9502,775.6016,832.9502,779.6016,842.9502,783.6016,838.9502,779.6016" style="stroke:#181818;stroke-width:1.0;"/><line style="stroke:#181818;stroke-width:1.0;stroke-dasharray:2.0,2.0;" x1="836.9502" x2="1073.1763" y1="779.6016" y2="779.6016"/><text fill="#000000" font-family="sans-serif" font-size="13" lengthAdjust="spacing" textLength="40.2632" x="848.9502" y="774.5356">return</text><polygon fill="#181818" points="1172.6206,804.7344,1182.6206,808.7344,1172.6206,812.7344,1176.6206,808.7344" style="stroke:#181818;stroke-width:1.0;"/><line style="stroke:#181818;stroke-width:1.0;" x1="831.9502" x2="1178.6206" y1="808.7344" y2="808.7344"/><text fill="#000000" font-family="sans-serif" font-size="13" lengthAdjust="spacing" textLength="68.9292" x="838.9502" y="803.6685">save(user)</text><polygon fill="#181818" points="2346.9165,818.7344,2356.9165,822.7344,2346.9165,826.7344,2350.9165,822.7344" style="stroke:#181818;stroke-width:1.0;"/><line style="stroke:#181818;stroke-width:1.0;" x1="1194.6206" x2="2352.9165" y1="822.7344" y2="822.7344"/><polygon fill="#181818" points="842.9502,847.8672,832.9502,851.8672,842.9502,855.8672,838.9502,851.8672" style="stroke:#181818;stroke-width:1.0;"/><line style="stroke:#181818;stroke-width:1.0;stroke-dasharray:2.0,2.0;" x1="836.9502" x2="1188.6206" y1="851.8672" y2="851.8672"/><text fill="#000000" font-family="sans-serif" font-size="13" lengthAdjust="spacing" textLength="40.2632" x="848.9502" y="846.8013">return</text><polygon fill="#181818" points="587.2119,877,577.2119,881,587.2119,885,583.2119,881" style="stroke:#181818;stroke-width:1.0;"/><line style="stroke:#181818;stroke-width:1.0;stroke-dasharray:2.0,2.0;" x1="581.2119" x2="825.9502" y1="881" y2="881"/><text fill="#000000" font-family="sans-serif" font-size="13" lengthAdjust="spacing" textLength="40.2632" x="593.2119" y="875.9341">return</text><polygon fill="#181818" points="1933.2207,906.1328,1943.2207,910.1328,1933.2207,914.1328,1937.2207,910.1328" style="stroke:#181818;stroke-width:1.0;"/><line style="stroke:#181818;stroke-width:1.0;" x1="576.2119" x2="1939.2207" y1="910.1328" y2="910.1328"/><text fill="#000000" font-family="sans-serif" font-size="13" lengthAdjust="spacing" textLength="179.1943" x="583.2119" y="905.0669">sendSucessEmail(userDTO)</text><line style="stroke:#181818;stroke-width:1.0;" x1="1955.2207" x2="1997.2207" y1="939.2656" y2="939.2656"/><line style="stroke:#181818;stroke-width:1.0;" x1="1997.2207" x2="1997.2207" y1="939.2656" y2="952.2656"/><line style="stroke:#181818;stroke-width:1.0;" x1="1956.2207" x2="1997.2207" y1="952.2656" y2="952.2656"/><polygon fill="#181818" points="1966.2207,948.2656,1956.2207,952.2656,1966.2207,956.2656,1962.2207,952.2656" style="stroke:#181818;stroke-width:1.0;"/><text fill="#000000" font-family="sans-serif" font-size="13" lengthAdjust="spacing" textLength="374.6958" x="1962.2207" y="934.1997">sendEmail(emailString, tokenDTO, emailTitle, emailBody)</text><polygon fill="#181818" points="587.2119,977.3984,577.2119,981.3984,587.2119,985.3984,583.2119,981.3984" style="stroke:#181818;stroke-width:1.0;"/><line style="stroke:#181818;stroke-width:1.0;stroke-dasharray:2.0,2.0;" x1="581.2119" x2="1949.2207" y1="981.3984" y2="981.3984"/><text fill="#000000" font-family="sans-serif" font-size="13" lengthAdjust="spacing" textLength="40.2632" x="593.2119" y="976.3325">return</text><polygon fill="#181818" points="263.5728,1006.5313,253.5728,1010.5313,263.5728,1014.5313,259.5728,1010.5313" style="stroke:#181818;stroke-width:1.0;"/><line style="stroke:#181818;stroke-width:1.0;stroke-dasharray:2.0,2.0;" x1="257.5728" x2="570.2119" y1="1010.5313" y2="1010.5313"/><text fill="#000000" font-family="sans-serif" font-size="13" lengthAdjust="spacing" textLength="40.2632" x="269.5728" y="1005.4653">return</text><polygon fill="#181818" points="11,1035.6641,1,1039.6641,11,1043.6641,7,1039.6641" style="stroke:#181818;stroke-width:1.0;"/><line style="stroke:#181818;stroke-width:1.0;stroke-dasharray:2.0,2.0;" x1="5" x2="241.5728" y1="1039.6641" y2="1039.6641"/><text fill="#000000" font-family="sans-serif" font-size="13" lengthAdjust="spacing" textLength="87.2168" x="17" y="1034.5981">success/error</text><!--SRC=[hLR1Zjem4BtxAonEi5fQLLKlrGef2r6BocuG2NjfBvOpB1R1Hex3Yh-lxIIsIGAzL5mSyzxCl9cN0SLK0NYqJV6tJr_q1w-be52M-8t11nwlu0m5_ZeP8NGYKZ7AJeGhF7fwseXAmMpsX-DKaTtEFeumAV4csMPn5pqNN4bH520znTzPtZnvpJR9gfSe1Nbcj4uLLMh_GZXvXoDmrNnZsT4s-scUKO-_o1BBtPOWzTcYctCFAew4SOUkeMcywMc7aoYP4lBYiFxAbMEkxgh9n07ui9mi-HM_MZqTFXN7a-0QxIDumYtf5jPgjyW1yHrHbcFkFCaAkgCdrjqhGXNnIxHSrLEvAsCDicIb0jxmrl4cNQPP_3gF4VejfhFQLFWx_X5dOoeXrqn6Yd9157d4oihJnmdYGW4kOATGj5CWCIqOFJ3-ZWN7QWz8vyIA7JM6yGC2dcF3G8GgTYQQMfiNrUbqtiQKEdCBYIWL5LTtgt3XdAVRE3fast_yyA33Ag6Fuu3RWvh-QU2P52pNCUrS6aAM1BcyPP3djK7Cw7IG7UFvysMvQFXAB1VT2BLhFMdQgSCoKGutMLTv6nBT0ptOoj-C3AOksrAxlYvZCi3JdEfavBRuyGH5LnbhKgyy2QgI72qwzTtfIKdEhf2eBohen2mq9hxJenj5z9fqPJ0bA-ZrjPvdO8bcSuNcwJZnsaBjNdGDRVox9cNv8MG-hkg0WGtyAdNa9j2rYsek9qT8bTJlM2U4LUjOqqujcXcAzViop6bsholSLNng3hsiTbLRJYTRCuyWduKEvUg-vlyhVD0-QpZJWC1l0mthkErM9_jU6-hbbTFwzVgH1zPnszlKh5TbMfa_1dR93xWcsFMUE12bveFzgR03R3TdbZnYUvsPloJD-LdabqaOy1z2WYgSak3deqzm6_ffEdMmig96wcUGKiY_]--></g></svg>