<?xml version="1.0" encoding="us-ascii" standalone="no"?><svg xmlns="http://www.w3.org/2000/svg" xmlns:xlink="http://www.w3.org/1999/xlink" contentStyleType="text/css" height="1733.4px" preserveAspectRatio="none" style="width:1990px;height:1733px;background:#FFFFFF;" version="1.1" viewBox="0 0 1990 1733" width="1990.8px" zoomAndPan="magnify"><defs/><g><text fill="#000000" font-family="sans-serif" font-size="12.6" font-weight="bold" lengthAdjust="spacing" textLength="199.8" x="894.825" y="27.0967">US 5.1.5. Process View (Level 3)</text><rect fill="#FFFFFF" height="735.8625" style="stroke:#181818;stroke-width:0.9;" width="9" x="108" y="117.1389"/><rect fill="#FFFFFF" height="753.198" style="stroke:#181818;stroke-width:0.9;" width="9" x="108" y="921.9252"/><rect fill="#FFFFFF" height="679.5387" style="stroke:#181818;stroke-width:0.9;" width="9" x="302.4" y="145.3008"/><rect fill="#FFFFFF" height="670.5123" style="stroke:#181818;stroke-width:0.9;" width="9" x="302.4" y="968.349"/><rect fill="#FFFFFF" height="196.8275" style="stroke:#181818;stroke-width:0.9;" width="9" x="491.4" y="229.4807"/><rect fill="#FFFFFF" height="349.643" style="stroke:#181818;stroke-width:0.9;" width="9" x="491.4" y="1261.0564"/><rect fill="#FFFFFF" height="28.1619" style="stroke:#181818;stroke-width:0.9;" width="9" x="787.95" y="257.6426"/><rect fill="#FFFFFF" height="28.1619" style="stroke:#181818;stroke-width:0.9;" width="9" x="787.95" y="313.9664"/><rect fill="#FFFFFF" height="28.1619" style="stroke:#181818;stroke-width:0.9;" width="9" x="787.95" y="1498.0518"/><rect fill="#FFFFFF" height="28.1619" style="stroke:#181818;stroke-width:0.9;" width="9" x="787.95" y="1554.3756"/><rect fill="#FFFFFF" height="319.7074" style="stroke:#181818;stroke-width:0.9;" width="9" x="893.7" y="476.9701"/><rect fill="#FFFFFF" height="25.2" style="stroke:#181818;stroke-width:0.9;" width="9" x="898.2" y="737.0156"/><rect fill="#FFFFFF" height="196.5217" style="stroke:#181818;stroke-width:0.9;" width="9" x="1230.3" y="505.132"/><rect fill="#FFFFFF" height="124.3477" style="stroke:#181818;stroke-width:0.9;" width="9" x="1230.3" y="1108.5469"/><rect fill="#FFFFFF" height="28.1619" style="stroke:#181818;stroke-width:0.9;" width="9" x="1640.7" y="589.3119"/><rect fill="#FFFFFF" height="28.1619" style="stroke:#181818;stroke-width:0.9;" width="9" x="1640.7" y="1136.7088"/><rect fill="#FFFFFF" height="140.8096" style="stroke:#181818;stroke-width:0.9;" width="9" x="1755.45" y="1329.0803"/><rect fill="#FFFFFF" height="28.1619" style="stroke:#181818;stroke-width:0.9;" width="9" x="1922.85" y="1357.2422"/><rect fill="#FFFFFF" height="28.1619" style="stroke:#181818;stroke-width:0.9;" width="9" x="1922.85" y="1413.566"/><line style="stroke:#181818;stroke-width:0.45;stroke-dasharray:5.0,5.0;" x1="112.5" x2="112.5" y1="87.177" y2="1683.2232"/><line style="stroke:#181818;stroke-width:0.45;stroke-dasharray:5.0,5.0;" x1="306.9" x2="306.9" y1="87.177" y2="1683.2232"/><line style="stroke:#181818;stroke-width:0.45;stroke-dasharray:5.0,5.0;" x1="495.9" x2="495.9" y1="87.177" y2="1683.2232"/><line style="stroke:#181818;stroke-width:0.45;stroke-dasharray:5.0,5.0;" x1="686.7" x2="686.7" y1="1068.576" y2="1683.2232"/><line style="stroke:#181818;stroke-width:0.45;stroke-dasharray:5.0,5.0;" x1="792" x2="792" y1="87.177" y2="1683.2232"/><line style="stroke:#181818;stroke-width:0.45;stroke-dasharray:5.0,5.0;" x1="898.2" x2="898.2" y1="87.177" y2="1683.2232"/><line style="stroke:#181818;stroke-width:0.45;stroke-dasharray:5.0,5.0;" x1="1234.35" x2="1234.35" y1="87.177" y2="1683.2232"/><line style="stroke:#181818;stroke-width:0.45;stroke-dasharray:5.0,5.0;" x1="1435.5" x2="1435.5" y1="549.341" y2="1683.2232"/><line style="stroke:#181818;stroke-width:0.45;stroke-dasharray:5.0,5.0;" x1="1534.5" x2="1534.5" y1="1012.558" y2="1683.2232"/><line style="stroke:#181818;stroke-width:0.45;stroke-dasharray:5.0,5.0;" x1="1645.2" x2="1645.2" y1="87.177" y2="1683.2232"/><line style="stroke:#181818;stroke-width:0.45;stroke-dasharray:5.0,5.0;" x1="1759.5" x2="1759.5" y1="87.177" y2="1683.2232"/><line style="stroke:#181818;stroke-width:0.45;stroke-dasharray:5.0,5.0;" x1="1927.35" x2="1927.35" y1="87.177" y2="1683.2232"/><rect fill="#E2E2F0" height="46.118" rx="2.25" ry="2.25" style="stroke:#181818;stroke-width:0.45;" width="90" x="67.5" y="40.159"/><text fill="#000000" font-family="sans-serif" font-size="12.6" lengthAdjust="spacing" textLength="77.4" x="73.8" y="60.0557">&#171;component&#187;</text><text fill="#000000" font-family="sans-serif" font-size="12.6" lengthAdjust="spacing" textLength="44.1" x="92.25" y="76.8146">Routing</text><rect fill="#E2E2F0" height="46.118" rx="2.25" ry="2.25" style="stroke:#181818;stroke-width:0.45;" width="90" x="67.5" y="1682.3232"/><text fill="#000000" font-family="sans-serif" font-size="12.6" lengthAdjust="spacing" textLength="77.4" x="73.8" y="1702.2199">&#171;component&#187;</text><text fill="#000000" font-family="sans-serif" font-size="12.6" lengthAdjust="spacing" textLength="44.1" x="92.25" y="1718.9789">Routing</text><rect fill="#E2E2F0" height="46.118" rx="2.25" ry="2.25" style="stroke:#181818;stroke-width:0.45;" width="90" x="261.9" y="40.159"/><text fill="#000000" font-family="sans-serif" font-size="12.6" lengthAdjust="spacing" textLength="77.4" x="268.2" y="60.0557">&#171;component&#187;</text><text fill="#000000" font-family="sans-serif" font-size="12.6" lengthAdjust="spacing" textLength="55.8" x="280.8" y="76.8146">Controller</text><rect fill="#E2E2F0" height="46.118" rx="2.25" ry="2.25" style="stroke:#181818;stroke-width:0.45;" width="90" x="261.9" y="1682.3232"/><text fill="#000000" font-family="sans-serif" font-size="12.6" lengthAdjust="spacing" textLength="77.4" x="268.2" y="1702.2199">&#171;component&#187;</text><text fill="#000000" font-family="sans-serif" font-size="12.6" lengthAdjust="spacing" textLength="55.8" x="280.8" y="1718.9789">Controller</text><rect fill="#E2E2F0" height="46.118" rx="2.25" ry="2.25" style="stroke:#181818;stroke-width:0.45;" width="158.4" x="416.7" y="40.159"/><text fill="#000000" font-family="sans-serif" font-size="12.6" lengthAdjust="spacing" textLength="77.4" x="457.2" y="60.0557">&#171;component&#187;</text><text fill="#000000" font-family="sans-serif" font-size="12.6" lengthAdjust="spacing" textLength="142.2" x="426.6" y="76.8146">AuthManagementService</text><rect fill="#E2E2F0" height="46.118" rx="2.25" ry="2.25" style="stroke:#181818;stroke-width:0.45;" width="158.4" x="416.7" y="1682.3232"/><text fill="#000000" font-family="sans-serif" font-size="12.6" lengthAdjust="spacing" textLength="77.4" x="457.2" y="1702.2199">&#171;component&#187;</text><text fill="#000000" font-family="sans-serif" font-size="12.6" lengthAdjust="spacing" textLength="142.2" x="426.6" y="1718.9789">AuthManagementService</text><rect fill="#E2E2F0" height="46.118" rx="2.25" ry="2.25" style="stroke:#181818;stroke-width:0.45;" width="90" x="641.7" y="1682.3232"/><text fill="#000000" font-family="sans-serif" font-size="12.6" lengthAdjust="spacing" textLength="77.4" x="648" y="1702.2199">&#171;component&#187;</text><text fill="#000000" font-family="sans-serif" font-size="12.6" lengthAdjust="spacing" textLength="53.1" x="661.95" y="1718.9789">UserDTO</text><rect fill="#E2E2F0" height="46.118" rx="2.25" ry="2.25" style="stroke:#181818;stroke-width:0.45;" width="103.5" x="740.7" y="40.159"/><text fill="#000000" font-family="sans-serif" font-size="12.6" lengthAdjust="spacing" textLength="77.4" x="753.75" y="60.0557">&#171;component&#187;</text><text fill="#000000" font-family="sans-serif" font-size="12.6" lengthAdjust="spacing" textLength="87.3" x="750.6" y="76.8146">UserRepository</text><rect fill="#E2E2F0" height="46.118" rx="2.25" ry="2.25" style="stroke:#181818;stroke-width:0.45;" width="103.5" x="740.7" y="1682.3232"/><text fill="#000000" font-family="sans-serif" font-size="12.6" lengthAdjust="spacing" textLength="77.4" x="753.75" y="1702.2199">&#171;component&#187;</text><text fill="#000000" font-family="sans-serif" font-size="12.6" lengthAdjust="spacing" textLength="87.3" x="750.6" y="1718.9789">UserRepository</text><rect fill="#E2E2F0" height="46.118" rx="2.25" ry="2.25" style="stroke:#181818;stroke-width:0.45;" width="90" x="853.2" y="40.159"/><text fill="#000000" font-family="sans-serif" font-size="12.6" lengthAdjust="spacing" textLength="77.4" x="859.5" y="60.0557">&#171;component&#187;</text><text fill="#000000" font-family="sans-serif" font-size="12.6" lengthAdjust="spacing" textLength="72.9" x="863.55" y="76.8146">EmailService</text><rect fill="#E2E2F0" height="46.118" rx="2.25" ry="2.25" style="stroke:#181818;stroke-width:0.45;" width="90" x="853.2" y="1682.3232"/><text fill="#000000" font-family="sans-serif" font-size="12.6" lengthAdjust="spacing" textLength="77.4" x="859.5" y="1702.2199">&#171;component&#187;</text><text fill="#000000" font-family="sans-serif" font-size="12.6" lengthAdjust="spacing" textLength="72.9" x="863.55" y="1718.9789">EmailService</text><rect fill="#E2E2F0" height="46.118" rx="2.25" ry="2.25" style="stroke:#181818;stroke-width:0.45;" width="168.3" x="1150.65" y="40.159"/><text fill="#000000" font-family="sans-serif" font-size="12.6" lengthAdjust="spacing" textLength="77.4" x="1196.1" y="60.0557">&#171;component&#187;</text><text fill="#000000" font-family="sans-serif" font-size="12.6" lengthAdjust="spacing" textLength="152.1" x="1160.55" y="76.8146">TokenManagementService</text><rect fill="#E2E2F0" height="46.118" rx="2.25" ry="2.25" style="stroke:#181818;stroke-width:0.45;" width="168.3" x="1150.65" y="1682.3232"/><text fill="#000000" font-family="sans-serif" font-size="12.6" lengthAdjust="spacing" textLength="77.4" x="1196.1" y="1702.2199">&#171;component&#187;</text><text fill="#000000" font-family="sans-serif" font-size="12.6" lengthAdjust="spacing" textLength="152.1" x="1160.55" y="1718.9789">TokenManagementService</text><rect fill="#E2E2F0" height="46.118" rx="2.25" ry="2.25" style="stroke:#181818;stroke-width:0.45;" width="90" x="1390.5" y="1682.3232"/><text fill="#000000" font-family="sans-serif" font-size="12.6" lengthAdjust="spacing" textLength="77.4" x="1396.8" y="1702.2199">&#171;component&#187;</text><text fill="#000000" font-family="sans-serif" font-size="12.6" lengthAdjust="spacing" textLength="36" x="1419.3" y="1718.9789">Token</text><rect fill="#E2E2F0" height="46.118" rx="2.25" ry="2.25" style="stroke:#181818;stroke-width:0.45;" width="90" x="1489.5" y="1682.3232"/><text fill="#000000" font-family="sans-serif" font-size="12.6" lengthAdjust="spacing" textLength="77.4" x="1495.8" y="1702.2199">&#171;component&#187;</text><text fill="#000000" font-family="sans-serif" font-size="12.6" lengthAdjust="spacing" textLength="63" x="1504.8" y="1718.9789">TokenDTO</text><rect fill="#E2E2F0" height="46.118" rx="2.25" ry="2.25" style="stroke:#181818;stroke-width:0.45;" width="113.4" x="1588.5" y="40.159"/><text fill="#000000" font-family="sans-serif" font-size="12.6" lengthAdjust="spacing" textLength="77.4" x="1606.5" y="60.0557">&#171;component&#187;</text><text fill="#000000" font-family="sans-serif" font-size="12.6" lengthAdjust="spacing" textLength="97.2" x="1598.4" y="76.8146">TokenRepository</text><rect fill="#E2E2F0" height="46.118" rx="2.25" ry="2.25" style="stroke:#181818;stroke-width:0.45;" width="113.4" x="1588.5" y="1682.3232"/><text fill="#000000" font-family="sans-serif" font-size="12.6" lengthAdjust="spacing" textLength="77.4" x="1606.5" y="1702.2199">&#171;component&#187;</text><text fill="#000000" font-family="sans-serif" font-size="12.6" lengthAdjust="spacing" textLength="97.2" x="1598.4" y="1718.9789">TokenRepository</text><rect fill="#E2E2F0" height="46.118" rx="2.25" ry="2.25" style="stroke:#181818;stroke-width:0.45;" width="98.1" x="1710.9" y="40.159"/><text fill="#000000" font-family="sans-serif" font-size="12.6" lengthAdjust="spacing" textLength="77.4" x="1721.25" y="60.0557">&#171;component&#187;</text><text fill="#000000" font-family="sans-serif" font-size="12.6" lengthAdjust="spacing" textLength="81.9" x="1720.8" y="76.8146">PatientService</text><rect fill="#E2E2F0" height="46.118" rx="2.25" ry="2.25" style="stroke:#181818;stroke-width:0.45;" width="98.1" x="1710.9" y="1682.3232"/><text fill="#000000" font-family="sans-serif" font-size="12.6" lengthAdjust="spacing" textLength="77.4" x="1721.25" y="1702.2199">&#171;component&#187;</text><text fill="#000000" font-family="sans-serif" font-size="12.6" lengthAdjust="spacing" textLength="81.9" x="1720.8" y="1718.9789">PatientService</text><rect fill="#E2E2F0" height="46.118" rx="2.25" ry="2.25" style="stroke:#181818;stroke-width:0.45;" width="117" x="1868.85" y="40.159"/><text fill="#000000" font-family="sans-serif" font-size="12.6" lengthAdjust="spacing" textLength="77.4" x="1888.65" y="60.0557">&#171;component&#187;</text><text fill="#000000" font-family="sans-serif" font-size="12.6" lengthAdjust="spacing" textLength="100.8" x="1878.75" y="76.8146">PatientRepository</text><rect fill="#E2E2F0" height="46.118" rx="2.25" ry="2.25" style="stroke:#181818;stroke-width:0.45;" width="117" x="1868.85" y="1682.3232"/><text fill="#000000" font-family="sans-serif" font-size="12.6" lengthAdjust="spacing" textLength="77.4" x="1888.65" y="1702.2199">&#171;component&#187;</text><text fill="#000000" font-family="sans-serif" font-size="12.6" lengthAdjust="spacing" textLength="100.8" x="1878.75" y="1718.9789">PatientRepository</text><rect fill="#FFFFFF" height="735.8625" style="stroke:#181818;stroke-width:0.9;" width="9" x="108" y="117.1389"/><rect fill="#FFFFFF" height="753.198" style="stroke:#181818;stroke-width:0.9;" width="9" x="108" y="921.9252"/><rect fill="#FFFFFF" height="679.5387" style="stroke:#181818;stroke-width:0.9;" width="9" x="302.4" y="145.3008"/><rect fill="#FFFFFF" height="670.5123" style="stroke:#181818;stroke-width:0.9;" width="9" x="302.4" y="968.349"/><rect fill="#FFFFFF" height="196.8275" style="stroke:#181818;stroke-width:0.9;" width="9" x="491.4" y="229.4807"/><rect fill="#FFFFFF" height="349.643" style="stroke:#181818;stroke-width:0.9;" width="9" x="491.4" y="1261.0564"/><rect fill="#FFFFFF" height="28.1619" style="stroke:#181818;stroke-width:0.9;" width="9" x="787.95" y="257.6426"/><rect fill="#FFFFFF" height="28.1619" style="stroke:#181818;stroke-width:0.9;" width="9" x="787.95" y="313.9664"/><rect fill="#FFFFFF" height="28.1619" style="stroke:#181818;stroke-width:0.9;" width="9" x="787.95" y="1498.0518"/><rect fill="#FFFFFF" height="28.1619" style="stroke:#181818;stroke-width:0.9;" width="9" x="787.95" y="1554.3756"/><rect fill="#FFFFFF" height="319.7074" style="stroke:#181818;stroke-width:0.9;" width="9" x="893.7" y="476.9701"/><rect fill="#FFFFFF" height="25.2" style="stroke:#181818;stroke-width:0.9;" width="9" x="898.2" y="737.0156"/><rect fill="#FFFFFF" height="196.5217" style="stroke:#181818;stroke-width:0.9;" width="9" x="1230.3" y="505.132"/><rect fill="#FFFFFF" height="124.3477" style="stroke:#181818;stroke-width:0.9;" width="9" x="1230.3" y="1108.5469"/><rect fill="#FFFFFF" height="28.1619" style="stroke:#181818;stroke-width:0.9;" width="9" x="1640.7" y="589.3119"/><rect fill="#FFFFFF" height="28.1619" style="stroke:#181818;stroke-width:0.9;" width="9" x="1640.7" y="1136.7088"/><rect fill="#FFFFFF" height="140.8096" style="stroke:#181818;stroke-width:0.9;" width="9" x="1755.45" y="1329.0803"/><rect fill="#FFFFFF" height="28.1619" style="stroke:#181818;stroke-width:0.9;" width="9" x="1922.85" y="1357.2422"/><rect fill="#FFFFFF" height="28.1619" style="stroke:#181818;stroke-width:0.9;" width="9" x="1922.85" y="1413.566"/><ellipse cx="6.75" cy="116.4639" fill="none" rx="3.6" ry="3.6" style="stroke:#181818;stroke-width:1.35;"/><polygon fill="#181818" points="97.2,113.5389,106.2,117.1389,97.2,120.7389,100.8,117.1389" style="stroke:#181818;stroke-width:0.9;"/><line style="stroke:#181818;stroke-width:0.9;" x1="10.8" x2="102.6" y1="117.1389" y2="117.1389"/><text fill="#000000" font-family="sans-serif" font-size="11.7" font-weight="bold" lengthAdjust="spacing" textLength="6.3" x="13.5" y="112.4024">1</text><text fill="#000000" font-family="sans-serif" font-size="11.7" lengthAdjust="spacing" textLength="73.8" x="23.4" y="112.4024">DELETE(json)</text><polygon fill="#181818" points="291.6,141.7008,300.6,145.3008,291.6,148.9008,295.2,145.3008" style="stroke:#181818;stroke-width:0.9;"/><line style="stroke:#181818;stroke-width:0.9;" x1="117" x2="297" y1="145.3008" y2="145.3008"/><text fill="#000000" font-family="sans-serif" font-size="11.7" font-weight="bold" lengthAdjust="spacing" textLength="6.3" x="123.3" y="140.5644">2</text><text fill="#000000" font-family="sans-serif" font-size="11.7" lengthAdjust="spacing" textLength="103.5" x="133.2" y="140.5644">deleteAccount(json)</text><polygon fill="#181818" points="630.9,169.8627,639.9,173.4627,630.9,177.0627,634.5,173.4627" style="stroke:#181818;stroke-width:0.9;"/><line style="stroke:#181818;stroke-width:0.9;" x1="311.4" x2="636.3" y1="173.4627" y2="173.4627"/><text fill="#000000" font-family="sans-serif" font-size="11.7" font-weight="bold" lengthAdjust="spacing" textLength="6.3" x="317.7" y="168.7263">3</text><text fill="#000000" font-family="sans-serif" font-size="11.7" lengthAdjust="spacing" textLength="121.5" x="327.6" y="168.7263">toDTO(credentialsData)</text><rect fill="#E2E2F0" height="46.118" rx="2.25" ry="2.25" style="stroke:#181818;stroke-width:0.45;" width="90" x="641.7" y="152.5008"/><text fill="#000000" font-family="sans-serif" font-size="12.6" lengthAdjust="spacing" textLength="77.4" x="648" y="172.3975">&#171;component&#187;</text><text fill="#000000" font-family="sans-serif" font-size="12.6" lengthAdjust="spacing" textLength="53.1" x="661.95" y="189.1564">UserDTO</text><polygon fill="#181818" points="480.6,225.8807,489.6,229.4807,480.6,233.0807,484.2,229.4807" style="stroke:#181818;stroke-width:0.9;"/><line style="stroke:#181818;stroke-width:0.9;" x1="311.4" x2="486" y1="229.4807" y2="229.4807"/><text fill="#000000" font-family="sans-serif" font-size="11.7" font-weight="bold" lengthAdjust="spacing" textLength="6.3" x="317.7" y="224.7442">4</text><text fill="#000000" font-family="sans-serif" font-size="11.7" lengthAdjust="spacing" textLength="153" x="327.6" y="224.7442">validatePatientUser(userDTO)</text><polygon fill="#181818" points="777.15,254.0426,786.15,257.6426,777.15,261.2426,780.75,257.6426" style="stroke:#181818;stroke-width:0.9;"/><line style="stroke:#181818;stroke-width:0.9;" x1="500.4" x2="782.55" y1="257.6426" y2="257.6426"/><text fill="#000000" font-family="sans-serif" font-size="11.7" font-weight="bold" lengthAdjust="spacing" textLength="6.3" x="506.7" y="252.9062">5</text><text fill="#000000" font-family="sans-serif" font-size="11.7" lengthAdjust="spacing" textLength="132.3" x="516.6" y="252.9062">findByID(usernameString)</text><polygon fill="#181818" points="510.3,282.2045,501.3,285.8045,510.3,289.4045,506.7,285.8045" style="stroke:#181818;stroke-width:0.9;"/><line style="stroke:#181818;stroke-width:0.9;stroke-dasharray:2.0,2.0;" x1="504.9" x2="791.55" y1="285.8045" y2="285.8045"/><text fill="#000000" font-family="sans-serif" font-size="11.7" font-weight="bold" lengthAdjust="spacing" textLength="6.3" x="515.7" y="281.0681">6</text><text fill="#000000" font-family="sans-serif" font-size="11.7" lengthAdjust="spacing" textLength="22.5" x="525.6" y="281.0681">user</text><polygon fill="#181818" points="777.15,310.3664,786.15,313.9664,777.15,317.5664,780.75,313.9664" style="stroke:#181818;stroke-width:0.9;"/><line style="stroke:#181818;stroke-width:0.9;" x1="500.4" x2="782.55" y1="313.9664" y2="313.9664"/><text fill="#000000" font-family="sans-serif" font-size="11.7" font-weight="bold" lengthAdjust="spacing" textLength="6.3" x="506.7" y="309.23">7</text><text fill="#000000" font-family="sans-serif" font-size="11.7" lengthAdjust="spacing" textLength="108" x="516.6" y="309.23">isUserAPatient(user)</text><polygon fill="#181818" points="510.3,338.5283,501.3,342.1283,510.3,345.7283,506.7,342.1283" style="stroke:#181818;stroke-width:0.9;"/><line style="stroke:#181818;stroke-width:0.9;stroke-dasharray:2.0,2.0;" x1="504.9" x2="791.55" y1="342.1283" y2="342.1283"/><text fill="#000000" font-family="sans-serif" font-size="11.7" font-weight="bold" lengthAdjust="spacing" textLength="6.3" x="515.7" y="337.3919">8</text><text fill="#000000" font-family="sans-serif" font-size="11.7" lengthAdjust="spacing" textLength="19.8" x="525.6" y="337.3919">true</text><polygon fill="#181818" points="630.9,366.6902,639.9,370.2902,630.9,373.8902,634.5,370.2902" style="stroke:#181818;stroke-width:0.9;"/><line style="stroke:#181818;stroke-width:0.9;" x1="500.4" x2="636.3" y1="370.2902" y2="370.2902"/><text fill="#000000" font-family="sans-serif" font-size="11.7" font-weight="bold" lengthAdjust="spacing" textLength="6.3" x="506.7" y="365.5538">9</text><text fill="#000000" font-family="sans-serif" font-size="11.7" lengthAdjust="spacing" textLength="63" x="516.6" y="365.5538">toDTO(user)</text><rect fill="#E2E2F0" height="46.118" rx="2.25" ry="2.25" style="stroke:#181818;stroke-width:0.45;" width="90" x="641.7" y="349.3283"/><text fill="#000000" font-family="sans-serif" font-size="12.6" lengthAdjust="spacing" textLength="77.4" x="648" y="369.225">&#171;component&#187;</text><text fill="#000000" font-family="sans-serif" font-size="12.6" lengthAdjust="spacing" textLength="53.1" x="661.95" y="385.984">UserDTO</text><polygon fill="#181818" points="321.3,422.7082,312.3,426.3082,321.3,429.9082,317.7,426.3082" style="stroke:#181818;stroke-width:0.9;"/><line style="stroke:#181818;stroke-width:0.9;stroke-dasharray:2.0,2.0;" x1="315.9" x2="495" y1="426.3082" y2="426.3082"/><text fill="#000000" font-family="sans-serif" font-size="11.7" font-weight="bold" lengthAdjust="spacing" textLength="12.6" x="326.7" y="421.5718">10</text><text fill="#000000" font-family="sans-serif" font-size="11.7" lengthAdjust="spacing" textLength="95.4" x="342.9" y="421.5718">completeUserDTO</text><polygon fill="#181818" points="882.9,473.3701,891.9,476.9701,882.9,480.5701,886.5,476.9701" style="stroke:#181818;stroke-width:0.9;"/><line style="stroke:#181818;stroke-width:0.9;" x1="311.4" x2="888.3" y1="476.9701" y2="476.9701"/><text fill="#000000" font-family="sans-serif" font-size="11.7" font-weight="bold" lengthAdjust="spacing" textLength="12.6" x="317.7" y="472.2337">11</text><text fill="#000000" font-family="sans-serif" font-size="11.7" lengthAdjust="spacing" textLength="258.3" x="333.9" y="472.2337">sendAccountDeletionConfirmationEmail(userDTO)</text><polygon fill="#181818" points="1219.5,501.532,1228.5,505.132,1219.5,508.732,1223.1,505.132" style="stroke:#181818;stroke-width:0.9;"/><line style="stroke:#181818;stroke-width:0.9;" x1="902.7" x2="1224.9" y1="505.132" y2="505.132"/><text fill="#000000" font-family="sans-serif" font-size="11.7" font-weight="bold" lengthAdjust="spacing" textLength="12.6" x="909" y="500.3956">12</text><text fill="#000000" font-family="sans-serif" font-size="11.7" lengthAdjust="spacing" textLength="169.2" x="925.2" y="500.3956">generateDeletionAccountToken()</text><polygon fill="#181818" points="1379.7,529.6939,1388.7,533.2939,1379.7,536.8939,1383.3,533.2939" style="stroke:#181818;stroke-width:0.9;"/><line style="stroke:#181818;stroke-width:0.9;" x1="1239.3" x2="1385.1" y1="533.2939" y2="533.2939"/><text fill="#000000" font-family="sans-serif" font-size="11.7" font-weight="bold" lengthAdjust="spacing" textLength="12.6" x="1245.6" y="528.5575">13</text><text fill="#000000" font-family="sans-serif" font-size="11.7" lengthAdjust="spacing" textLength="3.6" x="1261.8" y="528.5575">&#160;</text><rect fill="#E2E2F0" height="46.118" rx="2.25" ry="2.25" style="stroke:#181818;stroke-width:0.45;" width="90" x="1390.5" y="512.332"/><text fill="#000000" font-family="sans-serif" font-size="12.6" lengthAdjust="spacing" textLength="77.4" x="1396.8" y="532.2287">&#171;component&#187;</text><text fill="#000000" font-family="sans-serif" font-size="12.6" lengthAdjust="spacing" textLength="36" x="1419.3" y="548.9877">Token</text><polygon fill="#181818" points="1629.9,585.7119,1638.9,589.3119,1629.9,592.9119,1633.5,589.3119" style="stroke:#181818;stroke-width:0.9;"/><line style="stroke:#181818;stroke-width:0.9;" x1="1239.3" x2="1635.3" y1="589.3119" y2="589.3119"/><text fill="#000000" font-family="sans-serif" font-size="11.7" font-weight="bold" lengthAdjust="spacing" textLength="12.6" x="1245.6" y="584.5755">14</text><text fill="#000000" font-family="sans-serif" font-size="11.7" lengthAdjust="spacing" textLength="59.4" x="1261.8" y="584.5755">save(token)</text><polygon fill="#181818" points="1249.2,613.8738,1240.2,617.4738,1249.2,621.0738,1245.6,617.4738" style="stroke:#181818;stroke-width:0.9;"/><line style="stroke:#181818;stroke-width:0.9;stroke-dasharray:2.0,2.0;" x1="1243.8" x2="1644.3" y1="617.4738" y2="617.4738"/><text fill="#000000" font-family="sans-serif" font-size="11.7" font-weight="bold" lengthAdjust="spacing" textLength="12.6" x="1254.6" y="612.7374">15</text><text fill="#000000" font-family="sans-serif" font-size="11.7" lengthAdjust="spacing" textLength="29.7" x="1270.8" y="612.7374">return</text><polygon fill="#181818" points="1478.7,642.0357,1487.7,645.6357,1478.7,649.2357,1482.3,645.6357" style="stroke:#181818;stroke-width:0.9;"/><line style="stroke:#181818;stroke-width:0.9;" x1="1239.3" x2="1484.1" y1="645.6357" y2="645.6357"/><text fill="#000000" font-family="sans-serif" font-size="11.7" font-weight="bold" lengthAdjust="spacing" textLength="12.6" x="1245.6" y="640.8993">16</text><text fill="#000000" font-family="sans-serif" font-size="11.7" lengthAdjust="spacing" textLength="69.3" x="1261.8" y="640.8993">toDTO(token)</text><rect fill="#E2E2F0" height="46.118" rx="2.25" ry="2.25" style="stroke:#181818;stroke-width:0.45;" width="90" x="1489.5" y="624.6738"/><text fill="#000000" font-family="sans-serif" font-size="12.6" lengthAdjust="spacing" textLength="77.4" x="1495.8" y="644.5705">&#171;component&#187;</text><text fill="#000000" font-family="sans-serif" font-size="12.6" lengthAdjust="spacing" textLength="63" x="1504.8" y="661.3295">TokenDTO</text><polygon fill="#181818" points="912.6,698.0537,903.6,701.6537,912.6,705.2537,909,701.6537" style="stroke:#181818;stroke-width:0.9;"/><line style="stroke:#181818;stroke-width:0.9;stroke-dasharray:2.0,2.0;" x1="907.2" x2="1233.9" y1="701.6537" y2="701.6537"/><text fill="#000000" font-family="sans-serif" font-size="11.7" font-weight="bold" lengthAdjust="spacing" textLength="12.6" x="918" y="696.9173">17</text><text fill="#000000" font-family="sans-serif" font-size="11.7" lengthAdjust="spacing" textLength="52.2" x="934.2" y="696.9173">tokenDTO</text><line style="stroke:#181818;stroke-width:0.9;" x1="907.2" x2="945" y1="729.8156" y2="729.8156"/><line style="stroke:#181818;stroke-width:0.9;" x1="945" x2="945" y1="729.8156" y2="741.5156"/><line style="stroke:#181818;stroke-width:0.9;" x1="908.1" x2="945" y1="741.5156" y2="741.5156"/><polygon fill="#181818" points="917.1,737.9156,908.1,741.5156,917.1,745.1156,913.5,741.5156" style="stroke:#181818;stroke-width:0.9;"/><text fill="#000000" font-family="sans-serif" font-size="11.7" font-weight="bold" lengthAdjust="spacing" textLength="12.6" x="913.5" y="725.0792">18</text><text fill="#000000" font-family="sans-serif" font-size="11.7" lengthAdjust="spacing" textLength="298.8" x="929.7" y="725.0792">sendEmail(emailString, tokenDTO, emailTitle, emailBody)</text><polygon fill="#181818" points="321.3,793.0775,312.3,796.6775,321.3,800.2775,317.7,796.6775" style="stroke:#181818;stroke-width:0.9;"/><line style="stroke:#181818;stroke-width:0.9;stroke-dasharray:2.0,2.0;" x1="315.9" x2="897.3" y1="796.6775" y2="796.6775"/><text fill="#000000" font-family="sans-serif" font-size="11.7" font-weight="bold" lengthAdjust="spacing" textLength="12.6" x="326.7" y="791.9411">19</text><text fill="#000000" font-family="sans-serif" font-size="11.7" lengthAdjust="spacing" textLength="29.7" x="342.9" y="791.9411">return</text><polygon fill="#181818" points="126.9,821.2395,117.9,824.8395,126.9,828.4395,123.3,824.8395" style="stroke:#181818;stroke-width:0.9;"/><line style="stroke:#181818;stroke-width:0.9;stroke-dasharray:2.0,2.0;" x1="121.5" x2="306" y1="824.8395" y2="824.8395"/><text fill="#000000" font-family="sans-serif" font-size="11.7" font-weight="bold" lengthAdjust="spacing" textLength="12.6" x="132.3" y="820.103">20</text><text fill="#000000" font-family="sans-serif" font-size="11.7" lengthAdjust="spacing" textLength="29.7" x="148.5" y="820.103">return</text><polygon fill="#181818" points="9.9,849.4014,0.9,853.0014,9.9,856.6014,6.3,853.0014" style="stroke:#181818;stroke-width:0.9;"/><line style="stroke:#181818;stroke-width:0.9;stroke-dasharray:2.0,2.0;" x1="4.5" x2="111.6" y1="853.0014" y2="853.0014"/><text fill="#000000" font-family="sans-serif" font-size="11.7" font-weight="bold" lengthAdjust="spacing" textLength="12.6" x="15.3" y="848.2649">21</text><text fill="#000000" font-family="sans-serif" font-size="11.7" lengthAdjust="spacing" textLength="71.1" x="31.5" y="848.2649">success/error</text><ellipse cx="6.75" cy="921.2502" fill="none" rx="3.6" ry="3.6" style="stroke:#181818;stroke-width:1.35;"/><polygon fill="#181818" points="97.2,918.3252,106.2,921.9252,97.2,925.5252,100.8,921.9252" style="stroke:#181818;stroke-width:0.9;"/><line style="stroke:#181818;stroke-width:0.9;" x1="10.8" x2="102.6" y1="921.9252" y2="921.9252"/><text fill="#000000" font-family="sans-serif" font-size="11.7" font-weight="bold" lengthAdjust="spacing" textLength="12.6" x="13.5" y="917.1888">22</text><text fill="#000000" font-family="sans-serif" font-size="11.7" lengthAdjust="spacing" textLength="52.2" x="29.7" y="917.1888">GET(json)</text><path d="M121.5,887.2014 L121.5,942.1014 L279,942.1014 L279,896.2014 L270,887.2014 L121.5,887.2014 " fill="#FEFFDD" style="stroke:#181818;stroke-width:0.45;"/><path d="M270,887.2014 L270,896.2014 L279,896.2014 L270,887.2014 " fill="#FEFFDD" style="stroke:#181818;stroke-width:0.45;"/><text fill="#000000" font-family="sans-serif" font-size="11.7" lengthAdjust="spacing" textLength="103.5" x="126.9" y="904.3269">After clicking on the</text><text fill="#000000" font-family="sans-serif" font-size="11.7" lengthAdjust="spacing" textLength="95.4" x="126.9" y="919.8888">link of the account</text><text fill="#000000" font-family="sans-serif" font-size="11.7" lengthAdjust="spacing" textLength="138.6" x="126.9" y="935.4507">deletion confirmation email</text><polygon fill="#181818" points="291.6,964.749,300.6,968.349,291.6,971.949,295.2,968.349" style="stroke:#181818;stroke-width:0.9;"/><line style="stroke:#181818;stroke-width:0.9;" x1="117" x2="297" y1="968.349" y2="968.349"/><text fill="#000000" font-family="sans-serif" font-size="11.7" font-weight="bold" lengthAdjust="spacing" textLength="12.6" x="123.3" y="963.6126">23</text><text fill="#000000" font-family="sans-serif" font-size="11.7" lengthAdjust="spacing" textLength="152.1" x="139.5" y="963.6126">confirmAccountDeletion(json)</text><polygon fill="#181818" points="1478.7,992.9109,1487.7,996.5109,1478.7,1000.1109,1482.3,996.5109" style="stroke:#181818;stroke-width:0.9;"/><line style="stroke:#181818;stroke-width:0.9;" x1="311.4" x2="1484.1" y1="996.5109" y2="996.5109"/><text fill="#000000" font-family="sans-serif" font-size="11.7" font-weight="bold" lengthAdjust="spacing" textLength="12.6" x="317.7" y="991.7745">24</text><text fill="#000000" font-family="sans-serif" font-size="11.7" lengthAdjust="spacing" textLength="93.6" x="333.9" y="991.7745">toDTO(tokenData)</text><rect fill="#E2E2F0" height="46.118" rx="2.25" ry="2.25" style="stroke:#181818;stroke-width:0.45;" width="90" x="1489.5" y="975.549"/><text fill="#000000" font-family="sans-serif" font-size="12.6" lengthAdjust="spacing" textLength="77.4" x="1495.8" y="995.4457">&#171;component&#187;</text><text fill="#000000" font-family="sans-serif" font-size="12.6" lengthAdjust="spacing" textLength="63" x="1504.8" y="1012.2047">TokenDTO</text><polygon fill="#181818" points="630.9,1048.9289,639.9,1052.5289,630.9,1056.1289,634.5,1052.5289" style="stroke:#181818;stroke-width:0.9;"/><line style="stroke:#181818;stroke-width:0.9;" x1="311.4" x2="636.3" y1="1052.5289" y2="1052.5289"/><text fill="#000000" font-family="sans-serif" font-size="11.7" font-weight="bold" lengthAdjust="spacing" textLength="12.6" x="317.7" y="1047.7925">25</text><text fill="#000000" font-family="sans-serif" font-size="11.7" lengthAdjust="spacing" textLength="121.5" x="333.9" y="1047.7925">toDTO(credentialsData)</text><rect fill="#E2E2F0" height="46.118" rx="2.25" ry="2.25" style="stroke:#181818;stroke-width:0.45;" width="90" x="641.7" y="1031.567"/><text fill="#000000" font-family="sans-serif" font-size="12.6" lengthAdjust="spacing" textLength="77.4" x="648" y="1051.4637">&#171;component&#187;</text><text fill="#000000" font-family="sans-serif" font-size="12.6" lengthAdjust="spacing" textLength="53.1" x="661.95" y="1068.2227">UserDTO</text><polygon fill="#181818" points="1219.5,1104.9469,1228.5,1108.5469,1219.5,1112.1469,1223.1,1108.5469" style="stroke:#181818;stroke-width:0.9;"/><line style="stroke:#181818;stroke-width:0.9;" x1="311.4" x2="1224.9" y1="1108.5469" y2="1108.5469"/><text fill="#000000" font-family="sans-serif" font-size="11.7" font-weight="bold" lengthAdjust="spacing" textLength="12.6" x="317.7" y="1103.8104">26</text><text fill="#000000" font-family="sans-serif" font-size="11.7" lengthAdjust="spacing" textLength="129.6" x="333.9" y="1103.8104">validateToken(tokenDTO)</text><polygon fill="#181818" points="1629.9,1133.1088,1638.9,1136.7088,1629.9,1140.3088,1633.5,1136.7088" style="stroke:#181818;stroke-width:0.9;"/><line style="stroke:#181818;stroke-width:0.9;" x1="1239.3" x2="1635.3" y1="1136.7088" y2="1136.7088"/><text fill="#000000" font-family="sans-serif" font-size="11.7" font-weight="bold" lengthAdjust="spacing" textLength="12.6" x="1245.6" y="1131.9724">27</text><text fill="#000000" font-family="sans-serif" font-size="11.7" lengthAdjust="spacing" textLength="108" x="1261.8" y="1131.9724">findByID(tokenDtoID)</text><polygon fill="#181818" points="1249.2,1161.2707,1240.2,1164.8707,1249.2,1168.4707,1245.6,1164.8707" style="stroke:#181818;stroke-width:0.9;"/><line style="stroke:#181818;stroke-width:0.9;stroke-dasharray:2.0,2.0;" x1="1243.8" x2="1644.3" y1="1164.8707" y2="1164.8707"/><text fill="#000000" font-family="sans-serif" font-size="11.7" font-weight="bold" lengthAdjust="spacing" textLength="12.6" x="1254.6" y="1160.1343">28</text><text fill="#000000" font-family="sans-serif" font-size="11.7" lengthAdjust="spacing" textLength="28.8" x="1270.8" y="1160.1343">token</text><line style="stroke:#181818;stroke-width:0.9;" x1="1239.3" x2="1277.1" y1="1193.0326" y2="1193.0326"/><line style="stroke:#181818;stroke-width:0.9;" x1="1277.1" x2="1277.1" y1="1193.0326" y2="1204.7326"/><line style="stroke:#181818;stroke-width:0.9;" x1="1240.2" x2="1277.1" y1="1204.7326" y2="1204.7326"/><polygon fill="#181818" points="1249.2,1201.1326,1240.2,1204.7326,1249.2,1208.3326,1245.6,1204.7326" style="stroke:#181818;stroke-width:0.9;"/><text fill="#000000" font-family="sans-serif" font-size="11.7" font-weight="bold" lengthAdjust="spacing" textLength="12.6" x="1245.6" y="1188.2962">29</text><text fill="#000000" font-family="sans-serif" font-size="11.7" lengthAdjust="spacing" textLength="162.9" x="1261.8" y="1188.2962">checkTokenValidityTime(token)</text><polygon fill="#181818" points="321.3,1229.2945,312.3,1232.8945,321.3,1236.4945,317.7,1232.8945" style="stroke:#181818;stroke-width:0.9;"/><line style="stroke:#181818;stroke-width:0.9;stroke-dasharray:2.0,2.0;" x1="315.9" x2="1233.9" y1="1232.8945" y2="1232.8945"/><text fill="#000000" font-family="sans-serif" font-size="11.7" font-weight="bold" lengthAdjust="spacing" textLength="12.6" x="326.7" y="1228.1581">30</text><text fill="#000000" font-family="sans-serif" font-size="11.7" lengthAdjust="spacing" textLength="19.8" x="342.9" y="1228.1581">true</text><polygon fill="#181818" points="480.6,1257.4564,489.6,1261.0564,480.6,1264.6564,484.2,1261.0564" style="stroke:#181818;stroke-width:0.9;"/><line style="stroke:#181818;stroke-width:0.9;" x1="311.4" x2="486" y1="1261.0564" y2="1261.0564"/><text fill="#000000" font-family="sans-serif" font-size="11.7" font-weight="bold" lengthAdjust="spacing" textLength="12.6" x="317.7" y="1256.32">31</text><text fill="#000000" font-family="sans-serif" font-size="11.7" lengthAdjust="spacing" textLength="127.8" x="333.9" y="1256.32">deleteAccount(userDTO)</text><line style="stroke:#181818;stroke-width:0.9;" x1="500.4" x2="538.2" y1="1289.2184" y2="1289.2184"/><line style="stroke:#181818;stroke-width:0.9;" x1="538.2" x2="538.2" y1="1289.2184" y2="1300.9184"/><line style="stroke:#181818;stroke-width:0.9;" x1="501.3" x2="538.2" y1="1300.9184" y2="1300.9184"/><polygon fill="#181818" points="510.3,1297.3184,501.3,1300.9184,510.3,1304.5184,506.7,1300.9184" style="stroke:#181818;stroke-width:0.9;"/><text fill="#000000" font-family="sans-serif" font-size="11.7" font-weight="bold" lengthAdjust="spacing" textLength="12.6" x="506.7" y="1284.4819">32</text><text fill="#000000" font-family="sans-serif" font-size="11.7" lengthAdjust="spacing" textLength="153" x="522.9" y="1284.4819">validatePatientUser(userDTO)</text><polygon fill="#181818" points="1744.65,1325.4803,1753.65,1329.0803,1744.65,1332.6803,1748.25,1329.0803" style="stroke:#181818;stroke-width:0.9;"/><line style="stroke:#181818;stroke-width:0.9;" x1="500.4" x2="1750.05" y1="1329.0803" y2="1329.0803"/><text fill="#000000" font-family="sans-serif" font-size="11.7" font-weight="bold" lengthAdjust="spacing" textLength="12.6" x="506.7" y="1324.3438">33</text><text fill="#000000" font-family="sans-serif" font-size="11.7" lengthAdjust="spacing" textLength="184.5" x="522.9" y="1324.3438">deletePatientProfile(patientIDString)</text><polygon fill="#181818" points="1912.05,1353.6422,1921.05,1357.2422,1912.05,1360.8422,1915.65,1357.2422" style="stroke:#181818;stroke-width:0.9;"/><line style="stroke:#181818;stroke-width:0.9;" x1="1764.45" x2="1917.45" y1="1357.2422" y2="1357.2422"/><text fill="#000000" font-family="sans-serif" font-size="11.7" font-weight="bold" lengthAdjust="spacing" textLength="12.6" x="1770.75" y="1352.5058">34</text><text fill="#000000" font-family="sans-serif" font-size="11.7" lengthAdjust="spacing" textLength="125.1" x="1786.95" y="1352.5058">getByID(patientIDString)</text><polygon fill="#181818" points="1774.35,1381.8041,1765.35,1385.4041,1774.35,1389.0041,1770.75,1385.4041" style="stroke:#181818;stroke-width:0.9;"/><line style="stroke:#181818;stroke-width:0.9;stroke-dasharray:2.0,2.0;" x1="1768.95" x2="1926.45" y1="1385.4041" y2="1385.4041"/><text fill="#000000" font-family="sans-serif" font-size="11.7" font-weight="bold" lengthAdjust="spacing" textLength="12.6" x="1779.75" y="1380.6677">35</text><text fill="#000000" font-family="sans-serif" font-size="11.7" lengthAdjust="spacing" textLength="35.1" x="1795.95" y="1380.6677">patient</text><polygon fill="#181818" points="1912.05,1409.966,1921.05,1413.566,1912.05,1417.166,1915.65,1413.566" style="stroke:#181818;stroke-width:0.9;"/><line style="stroke:#181818;stroke-width:0.9;" x1="1764.45" x2="1917.45" y1="1413.566" y2="1413.566"/><text fill="#000000" font-family="sans-serif" font-size="11.7" font-weight="bold" lengthAdjust="spacing" textLength="12.6" x="1770.75" y="1408.8296">36</text><text fill="#000000" font-family="sans-serif" font-size="11.7" lengthAdjust="spacing" textLength="79.2" x="1786.95" y="1408.8296">remove(patient)</text><polygon fill="#181818" points="1774.35,1438.1279,1765.35,1441.7279,1774.35,1445.3279,1770.75,1441.7279" style="stroke:#181818;stroke-width:0.9;"/><line style="stroke:#181818;stroke-width:0.9;stroke-dasharray:2.0,2.0;" x1="1768.95" x2="1926.45" y1="1441.7279" y2="1441.7279"/><text fill="#000000" font-family="sans-serif" font-size="11.7" font-weight="bold" lengthAdjust="spacing" textLength="12.6" x="1779.75" y="1436.9915">37</text><text fill="#000000" font-family="sans-serif" font-size="11.7" lengthAdjust="spacing" textLength="29.7" x="1795.95" y="1436.9915">return</text><polygon fill="#181818" points="510.3,1466.2898,501.3,1469.8898,510.3,1473.4898,506.7,1469.8898" style="stroke:#181818;stroke-width:0.9;"/><line style="stroke:#181818;stroke-width:0.9;stroke-dasharray:2.0,2.0;" x1="504.9" x2="1759.05" y1="1469.8898" y2="1469.8898"/><text fill="#000000" font-family="sans-serif" font-size="11.7" font-weight="bold" lengthAdjust="spacing" textLength="12.6" x="515.7" y="1465.1534">38</text><text fill="#000000" font-family="sans-serif" font-size="11.7" lengthAdjust="spacing" textLength="29.7" x="531.9" y="1465.1534">return</text><polygon fill="#181818" points="777.15,1494.4518,786.15,1498.0518,777.15,1501.6518,780.75,1498.0518" style="stroke:#181818;stroke-width:0.9;"/><line style="stroke:#181818;stroke-width:0.9;" x1="500.4" x2="782.55" y1="1498.0518" y2="1498.0518"/><text fill="#000000" font-family="sans-serif" font-size="11.7" font-weight="bold" lengthAdjust="spacing" textLength="12.6" x="506.7" y="1493.3153">39</text><text fill="#000000" font-family="sans-serif" font-size="11.7" lengthAdjust="spacing" textLength="132.3" x="522.9" y="1493.3153">findByID(usernameString)</text><polygon fill="#181818" points="510.3,1522.6137,501.3,1526.2137,510.3,1529.8137,506.7,1526.2137" style="stroke:#181818;stroke-width:0.9;"/><line style="stroke:#181818;stroke-width:0.9;stroke-dasharray:2.0,2.0;" x1="504.9" x2="791.55" y1="1526.2137" y2="1526.2137"/><text fill="#000000" font-family="sans-serif" font-size="11.7" font-weight="bold" lengthAdjust="spacing" textLength="12.6" x="515.7" y="1521.4772">40</text><text fill="#000000" font-family="sans-serif" font-size="11.7" lengthAdjust="spacing" textLength="22.5" x="531.9" y="1521.4772">user</text><polygon fill="#181818" points="777.15,1550.7756,786.15,1554.3756,777.15,1557.9756,780.75,1554.3756" style="stroke:#181818;stroke-width:0.9;"/><line style="stroke:#181818;stroke-width:0.9;" x1="500.4" x2="782.55" y1="1554.3756" y2="1554.3756"/><text fill="#000000" font-family="sans-serif" font-size="11.7" font-weight="bold" lengthAdjust="spacing" textLength="12.6" x="506.7" y="1549.6392">41</text><text fill="#000000" font-family="sans-serif" font-size="11.7" lengthAdjust="spacing" textLength="66.6" x="522.9" y="1549.6392">remove(user)</text><polygon fill="#181818" points="510.3,1578.9375,501.3,1582.5375,510.3,1586.1375,506.7,1582.5375" style="stroke:#181818;stroke-width:0.9;"/><line style="stroke:#181818;stroke-width:0.9;stroke-dasharray:2.0,2.0;" x1="504.9" x2="791.55" y1="1582.5375" y2="1582.5375"/><text fill="#000000" font-family="sans-serif" font-size="11.7" font-weight="bold" lengthAdjust="spacing" textLength="12.6" x="515.7" y="1577.8011">42</text><text fill="#000000" font-family="sans-serif" font-size="11.7" lengthAdjust="spacing" textLength="29.7" x="531.9" y="1577.8011">return</text><polygon fill="#181818" points="321.3,1607.0994,312.3,1610.6994,321.3,1614.2994,317.7,1610.6994" style="stroke:#181818;stroke-width:0.9;"/><line style="stroke:#181818;stroke-width:0.9;stroke-dasharray:2.0,2.0;" x1="315.9" x2="495" y1="1610.6994" y2="1610.6994"/><text fill="#000000" font-family="sans-serif" font-size="11.7" font-weight="bold" lengthAdjust="spacing" textLength="12.6" x="326.7" y="1605.963">43</text><text fill="#000000" font-family="sans-serif" font-size="11.7" lengthAdjust="spacing" textLength="29.7" x="342.9" y="1605.963">return</text><polygon fill="#181818" points="126.9,1635.2613,117.9,1638.8613,126.9,1642.4613,123.3,1638.8613" style="stroke:#181818;stroke-width:0.9;"/><line style="stroke:#181818;stroke-width:0.9;stroke-dasharray:2.0,2.0;" x1="121.5" x2="306" y1="1638.8613" y2="1638.8613"/><text fill="#000000" font-family="sans-serif" font-size="11.7" font-weight="bold" lengthAdjust="spacing" textLength="12.6" x="132.3" y="1634.1249">44</text><text fill="#000000" font-family="sans-serif" font-size="11.7" lengthAdjust="spacing" textLength="29.7" x="148.5" y="1634.1249">return</text><polygon fill="#181818" points="9.9,1663.4232,0.9,1667.0232,9.9,1670.6232,6.3,1667.0232" style="stroke:#181818;stroke-width:0.9;"/><line style="stroke:#181818;stroke-width:0.9;stroke-dasharray:2.0,2.0;" x1="4.5" x2="107.1" y1="1667.0232" y2="1667.0232"/><text fill="#000000" font-family="sans-serif" font-size="11.7" font-weight="bold" lengthAdjust="spacing" textLength="12.6" x="15.3" y="1662.2868">45</text><text fill="#000000" font-family="sans-serif" font-size="11.7" lengthAdjust="spacing" textLength="71.1" x="31.5" y="1662.2868">success/error</text><!--SRC=[hLR1RgCm4BtxAwnScbPDejMgbwggb3PiDzeqgHBIo-x52vF46x2pncGLgH-_nXWm10gLUWCqxxtnp9in5pif3z7jQ7G829Dn60mz7euY-1i3ys3WKx8L94H8KXa0xgrN-6RuPNWpn2-2Un15-9N2FzoVmH42_FMoXn299MTn-1i4GWSY9FNeGL7ZtjsTeZvm1apUt_zYUCbZITcsXqc4bukrwxmV_iYP53m8G6Z4usBkBXUp5ernB7VFX94jXEhJ2iIHUg3nuxNxFNbl8LX782RkGaFCSmV44WuyefABKwwLV6f1EY6XWPsZypoUpZeawV8ziFfZkeiVpbnJj3CKW0x1ML6obmwGIbMqKeUol119AwTw6RjJP-wsdyjWAye6dcgZdtnmdneGt-A9CtDSf_ydukmI4K_I8v5Wx8dI81LjpAVYVGX0mjZpUCna5PPxD8jNK6EYgoi5bbmzzJq1ligHaY2Q44akI-6PJLNqaGJKLxJcJ0bHFqxPBCt2rpdKq2J7LJGRolo7qtIYiOo4i992ZM65mjGcnmtAkIHOv4CDf46LHac-OvExrgvLR1AK8ePsGLDSR5KtLRAYIkrBt98qC1ljYa9QoBUtDtInSkQJwVmfdSbIY_8fLNmHCD-OOP8uWtAczjQ6Yf0apth2Qvfc3Nh1fgZpwLNKMs0WL736QsJqPFKjhcBYKG7Fk5HbwZwR9aNa27sP45RvZ1sAu44bEm4o5iokduKh2vg5OJV9QDg1bSBARCrK5MggLcr8MdNGsrLx_JgdkyRwivlSRkRvWVkdsjPOobQ_REcIjSuhOg5o-rYhvnoGxu-xmI0FYs8lkNX780GlpQ1PKjgkw49XlqsNpshJBUQL7VVak6PJCQvm0Mma6cya2Em5rDkh0c7EiDm12YZROxv9dZ59_OPyupyrEuMnqz8XLMoSS7RPd0PUcPOkAxJHGUdwF5-skEksjHsThTjqm3B3T1sqwh9DyP9F9_MZrJnP6jbfi2oGjmDlhpD_JOv1vScb8JJCMT6JwfQrZbX_9vMllu_SHbqkjHB8klDpOODI_w8R6a3_aBvE9sTNclt3W6ocWjXqR0jIDwoLA-s03HwSPMb8x9BMeUip4H3oOtwefWHQCZXVAiq9b3lJY7ptx-93lnUVzdTXIjNuLz6eT7x8EgsMlLwO_DFM-dy0]--></g></svg>