<?xml version="1.0" encoding="us-ascii" standalone="no"?><svg xmlns="http://www.w3.org/2000/svg" xmlns:xlink="http://www.w3.org/1999/xlink" contentStyleType="text/css" height="2211px" preserveAspectRatio="none" style="width:2356px;height:2211px;background:#FFFFFF;" version="1.1" viewBox="0 0 2356 2211" width="2356px" zoomAndPan="magnify"><defs/><g><text fill="#000000" font-family="sans-serif" font-size="14" font-weight="bold" lengthAdjust="spacing" textLength="222" x="1066" y="30.1074">US 5.1.5. Process View (Level 3)</text><rect fill="#FFFFFF" height="954.0801" style="stroke:#181818;stroke-width:1.0;" width="10" x="145" y="130.1543"/><rect fill="#FFFFFF" height="962.0996" style="stroke:#181818;stroke-width:1.0;" width="10" x="145" y="1167.8164"/><rect fill="#FFFFFF" height="817.2852" style="stroke:#181818;stroke-width:1.0;" width="10" x="361" y="161.4453"/><rect fill="#FFFFFF" height="805.0137" style="stroke:#181818;stroke-width:1.0;" width="10" x="361" y="1219.3984"/><rect fill="#FFFFFF" height="218.6973" style="stroke:#181818;stroke-width:1.0;" width="10" x="571" y="254.9785"/><rect fill="#FFFFFF" height="418.4922" style="stroke:#181818;stroke-width:1.0;" width="10" x="571" y="1574.6289"/><rect fill="#FFFFFF" height="28" style="stroke:#181818;stroke-width:1.0;" width="10" x="576" y="1613.9199"/><rect fill="#FFFFFF" height="31.291" style="stroke:#181818;stroke-width:1.0;" width="10" x="889" y="286.2695"/><rect fill="#FFFFFF" height="31.291" style="stroke:#181818;stroke-width:1.0;" width="10" x="889" y="348.8516"/><rect fill="#FFFFFF" height="31.291" style="stroke:#181818;stroke-width:1.0;" width="10" x="889" y="1867.957"/><rect fill="#FFFFFF" height="31.291" style="stroke:#181818;stroke-width:1.0;" width="10" x="889" y="1930.5391"/><rect fill="#FFFFFF" height="417.4727" style="stroke:#181818;stroke-width:1.0;" width="10" x="1006" y="529.9668"/><rect fill="#FFFFFF" height="28" style="stroke:#181818;stroke-width:1.0;" width="10" x="1011" y="881.1484"/><rect fill="#FFFFFF" height="218.3574" style="stroke:#181818;stroke-width:1.0;" width="10" x="1534.5" y="561.2578"/><rect fill="#FFFFFF" height="168.1641" style="stroke:#181818;stroke-width:1.0;" width="10" x="1534.5" y="1375.1738"/><rect fill="#FFFFFF" height="28" style="stroke:#181818;stroke-width:1.0;" width="10" x="1539.5" y="1477.0469"/><rect fill="#FFFFFF" height="31.291" style="stroke:#181818;stroke-width:1.0;" width="10" x="1966.5" y="654.791"/><rect fill="#FFFFFF" height="31.291" style="stroke:#181818;stroke-width:1.0;" width="10" x="1966.5" y="1406.4648"/><rect fill="#FFFFFF" height="156.4551" style="stroke:#181818;stroke-width:1.0;" width="10" x="2094" y="1680.2109"/><rect fill="#FFFFFF" height="31.291" style="stroke:#181818;stroke-width:1.0;" width="10" x="2280" y="1711.502"/><rect fill="#FFFFFF" height="31.291" style="stroke:#181818;stroke-width:1.0;" width="10" x="2280" y="1774.084"/><rect fill="none" height="98.5039" style="stroke:#000000;stroke-width:1.5;" width="182.5" x="11" y="993.7305"/><rect fill="none" height="98.5039" style="stroke:#000000;stroke-width:1.5;" width="182.5" x="11" y="2039.4121"/><line style="stroke:#181818;stroke-width:0.5;stroke-dasharray:5.0,5.0;" x1="149.5" x2="149.5" y1="96.8633" y2="2154.916"/><line style="stroke:#181818;stroke-width:0.5;stroke-dasharray:5.0,5.0;" x1="366" x2="366" y1="96.8633" y2="2154.916"/><line style="stroke:#181818;stroke-width:0.5;stroke-dasharray:5.0,5.0;" x1="575.5" x2="575.5" y1="96.8633" y2="2154.916"/><line style="stroke:#181818;stroke-width:0.5;stroke-dasharray:5.0,5.0;" x1="787.5" x2="787.5" y1="1330.7617" y2="2154.916"/><line style="stroke:#181818;stroke-width:0.5;stroke-dasharray:5.0,5.0;" x1="893.5" x2="893.5" y1="96.8633" y2="2154.916"/><line style="stroke:#181818;stroke-width:0.5;stroke-dasharray:5.0,5.0;" x1="1010.5" x2="1010.5" y1="96.8633" y2="2154.916"/><line style="stroke:#181818;stroke-width:0.5;stroke-dasharray:5.0,5.0;" x1="1436" x2="1436" y1="828.7363" y2="2154.916"/><line style="stroke:#181818;stroke-width:0.5;stroke-dasharray:5.0,5.0;" x1="1539" x2="1539" y1="96.8633" y2="2154.916"/><line style="stroke:#181818;stroke-width:0.5;stroke-dasharray:5.0,5.0;" x1="1762.5" x2="1762.5" y1="610.3789" y2="2154.916"/><line style="stroke:#181818;stroke-width:0.5;stroke-dasharray:5.0,5.0;" x1="1854.5" x2="1854.5" y1="1268.5195" y2="2154.916"/><line style="stroke:#181818;stroke-width:0.5;stroke-dasharray:5.0,5.0;" x1="1971.5" x2="1971.5" y1="96.8633" y2="2154.916"/><line style="stroke:#181818;stroke-width:0.5;stroke-dasharray:5.0,5.0;" x1="2098.5" x2="2098.5" y1="96.8633" y2="2154.916"/><line style="stroke:#181818;stroke-width:0.5;stroke-dasharray:5.0,5.0;" x1="2285" x2="2285" y1="96.8633" y2="2154.916"/><rect fill="#E2E2F0" height="51.2422" rx="2.5" ry="2.5" style="stroke:#181818;stroke-width:0.5;" width="67" x="116.5" y="44.6211"/><text fill="#000000" font-family="sans-serif" font-size="14" lengthAdjust="spacing" textLength="49" x="125.5" y="66.7285">&#171;route&#187;</text><text fill="#000000" font-family="sans-serif" font-size="14" lengthAdjust="spacing" textLength="49" x="127.5" y="85.3496">Routing</text><rect fill="#E2E2F0" height="51.2422" rx="2.5" ry="2.5" style="stroke:#181818;stroke-width:0.5;" width="67" x="116.5" y="2153.916"/><text fill="#000000" font-family="sans-serif" font-size="14" lengthAdjust="spacing" textLength="49" x="125.5" y="2176.0234">&#171;route&#187;</text><text fill="#000000" font-family="sans-serif" font-size="14" lengthAdjust="spacing" textLength="49" x="127.5" y="2194.6445">Routing</text><rect fill="#E2E2F0" height="51.2422" rx="2.5" ry="2.5" style="stroke:#181818;stroke-width:0.5;" width="124" x="304" y="44.6211"/><text fill="#000000" font-family="sans-serif" font-size="14" lengthAdjust="spacing" textLength="75" x="328.5" y="66.7285">&#171;controller&#187;</text><text fill="#000000" font-family="sans-serif" font-size="14" lengthAdjust="spacing" textLength="106" x="315" y="85.3496">PatientController</text><rect fill="#E2E2F0" height="51.2422" rx="2.5" ry="2.5" style="stroke:#181818;stroke-width:0.5;" width="124" x="304" y="2153.916"/><text fill="#000000" font-family="sans-serif" font-size="14" lengthAdjust="spacing" textLength="75" x="328.5" y="2176.0234">&#171;controller&#187;</text><text fill="#000000" font-family="sans-serif" font-size="14" lengthAdjust="spacing" textLength="106" x="315" y="2194.6445">PatientController</text><rect fill="#E2E2F0" height="51.2422" rx="2.5" ry="2.5" style="stroke:#181818;stroke-width:0.5;" width="155" x="498.5" y="44.6211"/><text fill="#000000" font-family="sans-serif" font-size="14" lengthAdjust="spacing" textLength="61" x="545.5" y="66.7285">&#171;service&#187;</text><text fill="#000000" font-family="sans-serif" font-size="14" lengthAdjust="spacing" textLength="137" x="509.5" y="85.3496">AuthenticationService</text><rect fill="#E2E2F0" height="51.2422" rx="2.5" ry="2.5" style="stroke:#181818;stroke-width:0.5;" width="155" x="498.5" y="2153.916"/><text fill="#000000" font-family="sans-serif" font-size="14" lengthAdjust="spacing" textLength="61" x="545.5" y="2176.0234">&#171;service&#187;</text><text fill="#000000" font-family="sans-serif" font-size="14" lengthAdjust="spacing" textLength="137" x="509.5" y="2194.6445">AuthenticationService</text><rect fill="#E2E2F0" height="51.2422" rx="2.5" ry="2.5" style="stroke:#181818;stroke-width:0.5;" width="77" x="749.5" y="2153.916"/><text fill="#000000" font-family="sans-serif" font-size="14" lengthAdjust="spacing" textLength="36" x="770" y="2176.0234">&#171;dto&#187;</text><text fill="#000000" font-family="sans-serif" font-size="14" lengthAdjust="spacing" textLength="59" x="760.5" y="2194.6445">UserDTO</text><rect fill="#E2E2F0" height="51.2422" rx="2.5" ry="2.5" style="stroke:#181818;stroke-width:0.5;" width="115" x="836.5" y="44.6211"/><text fill="#000000" font-family="sans-serif" font-size="14" lengthAdjust="spacing" textLength="79" x="854.5" y="66.7285">&#171;repository&#187;</text><text fill="#000000" font-family="sans-serif" font-size="14" lengthAdjust="spacing" textLength="97" x="847.5" y="85.3496">UserRepository</text><rect fill="#E2E2F0" height="51.2422" rx="2.5" ry="2.5" style="stroke:#181818;stroke-width:0.5;" width="115" x="836.5" y="2153.916"/><text fill="#000000" font-family="sans-serif" font-size="14" lengthAdjust="spacing" textLength="79" x="854.5" y="2176.0234">&#171;repository&#187;</text><text fill="#000000" font-family="sans-serif" font-size="14" lengthAdjust="spacing" textLength="97" x="847.5" y="2194.6445">UserRepository</text><rect fill="#E2E2F0" height="51.2422" rx="2.5" ry="2.5" style="stroke:#181818;stroke-width:0.5;" width="99" x="961.5" y="44.6211"/><text fill="#000000" font-family="sans-serif" font-size="14" lengthAdjust="spacing" textLength="61" x="980.5" y="66.7285">&#171;service&#187;</text><text fill="#000000" font-family="sans-serif" font-size="14" lengthAdjust="spacing" textLength="81" x="972.5" y="85.3496">EmailService</text><rect fill="#E2E2F0" height="51.2422" rx="2.5" ry="2.5" style="stroke:#181818;stroke-width:0.5;" width="99" x="961.5" y="2153.916"/><text fill="#000000" font-family="sans-serif" font-size="14" lengthAdjust="spacing" textLength="61" x="980.5" y="2176.0234">&#171;service&#187;</text><text fill="#000000" font-family="sans-serif" font-size="14" lengthAdjust="spacing" textLength="81" x="972.5" y="2194.6445">EmailService</text><rect fill="#E2E2F0" height="51.2422" rx="2.5" ry="2.5" style="stroke:#181818;stroke-width:0.5;" width="82" x="1395" y="2153.916"/><text fill="#000000" font-family="sans-serif" font-size="14" lengthAdjust="spacing" textLength="36" x="1418" y="2176.0234">&#171;dto&#187;</text><text fill="#000000" font-family="sans-serif" font-size="14" lengthAdjust="spacing" textLength="64" x="1406" y="2194.6445">EmailDTO</text><rect fill="#E2E2F0" height="51.2422" rx="2.5" ry="2.5" style="stroke:#181818;stroke-width:0.5;" width="105" x="1487" y="44.6211"/><text fill="#000000" font-family="sans-serif" font-size="14" lengthAdjust="spacing" textLength="61" x="1509" y="66.7285">&#171;service&#187;</text><text fill="#000000" font-family="sans-serif" font-size="14" lengthAdjust="spacing" textLength="87" x="1498" y="85.3496">TokenService</text><rect fill="#E2E2F0" height="51.2422" rx="2.5" ry="2.5" style="stroke:#181818;stroke-width:0.5;" width="105" x="1487" y="2153.916"/><text fill="#000000" font-family="sans-serif" font-size="14" lengthAdjust="spacing" textLength="61" x="1509" y="2176.0234">&#171;service&#187;</text><text fill="#000000" font-family="sans-serif" font-size="14" lengthAdjust="spacing" textLength="87" x="1498" y="2194.6445">TokenService</text><rect fill="#E2E2F0" height="51.2422" rx="2.5" ry="2.5" style="stroke:#181818;stroke-width:0.5;" width="76" x="1724.5" y="2153.916"/><text fill="#000000" font-family="sans-serif" font-size="14" lengthAdjust="spacing" textLength="62" x="1731.5" y="2176.0234">&#171;domain&#187;</text><text fill="#000000" font-family="sans-serif" font-size="14" lengthAdjust="spacing" textLength="40" x="1744.5" y="2194.6445">Token</text><rect fill="#E2E2F0" height="51.2422" rx="2.5" ry="2.5" style="stroke:#181818;stroke-width:0.5;" width="88" x="1810.5" y="2153.916"/><text fill="#000000" font-family="sans-serif" font-size="14" lengthAdjust="spacing" textLength="36" x="1836.5" y="2176.0234">&#171;dto&#187;</text><text fill="#000000" font-family="sans-serif" font-size="14" lengthAdjust="spacing" textLength="70" x="1821.5" y="2194.6445">TokenDTO</text><rect fill="#E2E2F0" height="51.2422" rx="2.5" ry="2.5" style="stroke:#181818;stroke-width:0.5;" width="126" x="1908.5" y="44.6211"/><text fill="#000000" font-family="sans-serif" font-size="14" lengthAdjust="spacing" textLength="79" x="1932" y="66.7285">&#171;repository&#187;</text><text fill="#000000" font-family="sans-serif" font-size="14" lengthAdjust="spacing" textLength="108" x="1919.5" y="85.3496">TokenRepository</text><rect fill="#E2E2F0" height="51.2422" rx="2.5" ry="2.5" style="stroke:#181818;stroke-width:0.5;" width="126" x="1908.5" y="2153.916"/><text fill="#000000" font-family="sans-serif" font-size="14" lengthAdjust="spacing" textLength="79" x="1932" y="2176.0234">&#171;repository&#187;</text><text fill="#000000" font-family="sans-serif" font-size="14" lengthAdjust="spacing" textLength="108" x="1919.5" y="2194.6445">TokenRepository</text><rect fill="#E2E2F0" height="51.2422" rx="2.5" ry="2.5" style="stroke:#181818;stroke-width:0.5;" width="109" x="2044.5" y="44.6211"/><text fill="#000000" font-family="sans-serif" font-size="14" lengthAdjust="spacing" textLength="61" x="2068.5" y="66.7285">&#171;service&#187;</text><text fill="#000000" font-family="sans-serif" font-size="14" lengthAdjust="spacing" textLength="91" x="2055.5" y="85.3496">PatientService</text><rect fill="#E2E2F0" height="51.2422" rx="2.5" ry="2.5" style="stroke:#181818;stroke-width:0.5;" width="109" x="2044.5" y="2153.916"/><text fill="#000000" font-family="sans-serif" font-size="14" lengthAdjust="spacing" textLength="61" x="2068.5" y="2176.0234">&#171;service&#187;</text><text fill="#000000" font-family="sans-serif" font-size="14" lengthAdjust="spacing" textLength="91" x="2055.5" y="2194.6445">PatientService</text><rect fill="#E2E2F0" height="51.2422" rx="2.5" ry="2.5" style="stroke:#181818;stroke-width:0.5;" width="130" x="2220" y="44.6211"/><text fill="#000000" font-family="sans-serif" font-size="14" lengthAdjust="spacing" textLength="79" x="2245.5" y="66.7285">&#171;repository&#187;</text><text fill="#000000" font-family="sans-serif" font-size="14" lengthAdjust="spacing" textLength="112" x="2231" y="85.3496">PatientRepository</text><rect fill="#E2E2F0" height="51.2422" rx="2.5" ry="2.5" style="stroke:#181818;stroke-width:0.5;" width="130" x="2220" y="2153.916"/><text fill="#000000" font-family="sans-serif" font-size="14" lengthAdjust="spacing" textLength="79" x="2245.5" y="2176.0234">&#171;repository&#187;</text><text fill="#000000" font-family="sans-serif" font-size="14" lengthAdjust="spacing" textLength="112" x="2231" y="2194.6445">PatientRepository</text><rect fill="#FFFFFF" height="954.0801" style="stroke:#181818;stroke-width:1.0;" width="10" x="145" y="130.1543"/><rect fill="#FFFFFF" height="962.0996" style="stroke:#181818;stroke-width:1.0;" width="10" x="145" y="1167.8164"/><rect fill="#FFFFFF" height="817.2852" style="stroke:#181818;stroke-width:1.0;" width="10" x="361" y="161.4453"/><rect fill="#FFFFFF" height="805.0137" style="stroke:#181818;stroke-width:1.0;" width="10" x="361" y="1219.3984"/><rect fill="#FFFFFF" height="218.6973" style="stroke:#181818;stroke-width:1.0;" width="10" x="571" y="254.9785"/><rect fill="#FFFFFF" height="418.4922" style="stroke:#181818;stroke-width:1.0;" width="10" x="571" y="1574.6289"/><rect fill="#FFFFFF" height="28" style="stroke:#181818;stroke-width:1.0;" width="10" x="576" y="1613.9199"/><rect fill="#FFFFFF" height="31.291" style="stroke:#181818;stroke-width:1.0;" width="10" x="889" y="286.2695"/><rect fill="#FFFFFF" height="31.291" style="stroke:#181818;stroke-width:1.0;" width="10" x="889" y="348.8516"/><rect fill="#FFFFFF" height="31.291" style="stroke:#181818;stroke-width:1.0;" width="10" x="889" y="1867.957"/><rect fill="#FFFFFF" height="31.291" style="stroke:#181818;stroke-width:1.0;" width="10" x="889" y="1930.5391"/><rect fill="#FFFFFF" height="417.4727" style="stroke:#181818;stroke-width:1.0;" width="10" x="1006" y="529.9668"/><rect fill="#FFFFFF" height="28" style="stroke:#181818;stroke-width:1.0;" width="10" x="1011" y="881.1484"/><rect fill="#FFFFFF" height="218.3574" style="stroke:#181818;stroke-width:1.0;" width="10" x="1534.5" y="561.2578"/><rect fill="#FFFFFF" height="168.1641" style="stroke:#181818;stroke-width:1.0;" width="10" x="1534.5" y="1375.1738"/><rect fill="#FFFFFF" height="28" style="stroke:#181818;stroke-width:1.0;" width="10" x="1539.5" y="1477.0469"/><rect fill="#FFFFFF" height="31.291" style="stroke:#181818;stroke-width:1.0;" width="10" x="1966.5" y="654.791"/><rect fill="#FFFFFF" height="31.291" style="stroke:#181818;stroke-width:1.0;" width="10" x="1966.5" y="1406.4648"/><rect fill="#FFFFFF" height="156.4551" style="stroke:#181818;stroke-width:1.0;" width="10" x="2094" y="1680.2109"/><rect fill="#FFFFFF" height="31.291" style="stroke:#181818;stroke-width:1.0;" width="10" x="2280" y="1711.502"/><rect fill="#FFFFFF" height="31.291" style="stroke:#181818;stroke-width:1.0;" width="10" x="2280" y="1774.084"/><ellipse cx="7.5" cy="129.4043" fill="none" rx="4" ry="4" style="stroke:#181818;stroke-width:1.5;"/><polygon fill="#181818" points="133,126.1543,143,130.1543,133,134.1543,137,130.1543" style="stroke:#181818;stroke-width:1.0;"/><line style="stroke:#181818;stroke-width:1.0;" x1="12" x2="139" y1="130.1543" y2="130.1543"/><text fill="#000000" font-family="sans-serif" font-size="13" font-weight="bold" lengthAdjust="spacing" textLength="7" x="15" y="124.8916">1</text><text fill="#000000" font-family="sans-serif" font-size="13" lengthAdjust="spacing" textLength="82" x="26" y="124.8916">DELETE(json)</text><polygon fill="#181818" points="349,157.4453,359,161.4453,349,165.4453,353,161.4453" style="stroke:#181818;stroke-width:1.0;"/><line style="stroke:#181818;stroke-width:1.0;" x1="155" x2="355" y1="161.4453" y2="161.4453"/><text fill="#000000" font-family="sans-serif" font-size="13" font-weight="bold" lengthAdjust="spacing" textLength="7" x="162" y="156.1826">2</text><text fill="#000000" font-family="sans-serif" font-size="13" lengthAdjust="spacing" textLength="115" x="173" y="156.1826">deleteAccount(json)</text><polygon fill="#181818" points="737.5,188.7363,747.5,192.7363,737.5,196.7363,741.5,192.7363" style="stroke:#181818;stroke-width:1.0;"/><line style="stroke:#181818;stroke-width:1.0;" x1="371" x2="743.5" y1="192.7363" y2="192.7363"/><text fill="#000000" font-family="sans-serif" font-size="13" font-weight="bold" lengthAdjust="spacing" textLength="7" x="378" y="187.4736">3</text><text fill="#000000" font-family="sans-serif" font-size="13" lengthAdjust="spacing" textLength="135" x="389" y="187.4736">toDTO(credentialsData)</text><rect fill="#E2E2F0" height="51.2422" rx="2.5" ry="2.5" style="stroke:#181818;stroke-width:0.5;" width="77" x="749.5" y="169.4453"/><text fill="#000000" font-family="sans-serif" font-size="14" lengthAdjust="spacing" textLength="36" x="770" y="191.5527">&#171;dto&#187;</text><text fill="#000000" font-family="sans-serif" font-size="14" lengthAdjust="spacing" textLength="59" x="760.5" y="210.1738">UserDTO</text><polygon fill="#181818" points="559,250.9785,569,254.9785,559,258.9785,563,254.9785" style="stroke:#181818;stroke-width:1.0;"/><line style="stroke:#181818;stroke-width:1.0;" x1="371" x2="565" y1="254.9785" y2="254.9785"/><text fill="#000000" font-family="sans-serif" font-size="13" font-weight="bold" lengthAdjust="spacing" textLength="7" x="378" y="249.7158">4</text><text fill="#000000" font-family="sans-serif" font-size="13" lengthAdjust="spacing" textLength="170" x="389" y="249.7158">validatePatientUser(userDTO)</text><polygon fill="#181818" points="877,282.2695,887,286.2695,877,290.2695,881,286.2695" style="stroke:#181818;stroke-width:1.0;"/><line style="stroke:#181818;stroke-width:1.0;" x1="581" x2="883" y1="286.2695" y2="286.2695"/><text fill="#000000" font-family="sans-serif" font-size="13" font-weight="bold" lengthAdjust="spacing" textLength="7" x="588" y="281.0068">5</text><text fill="#000000" font-family="sans-serif" font-size="13" lengthAdjust="spacing" textLength="147" x="599" y="281.0068">findByID(usernameString)</text><polygon fill="#181818" points="592,313.5605,582,317.5605,592,321.5605,588,317.5605" style="stroke:#181818;stroke-width:1.0;"/><line style="stroke:#181818;stroke-width:1.0;stroke-dasharray:2.0,2.0;" x1="586" x2="893" y1="317.5605" y2="317.5605"/><text fill="#000000" font-family="sans-serif" font-size="13" font-weight="bold" lengthAdjust="spacing" textLength="7" x="598" y="312.2979">6</text><text fill="#000000" font-family="sans-serif" font-size="13" lengthAdjust="spacing" textLength="25" x="609" y="312.2979">user</text><polygon fill="#181818" points="877,344.8516,887,348.8516,877,352.8516,881,348.8516" style="stroke:#181818;stroke-width:1.0;"/><line style="stroke:#181818;stroke-width:1.0;" x1="581" x2="883" y1="348.8516" y2="348.8516"/><text fill="#000000" font-family="sans-serif" font-size="13" font-weight="bold" lengthAdjust="spacing" textLength="7" x="588" y="343.5889">7</text><text fill="#000000" font-family="sans-serif" font-size="13" lengthAdjust="spacing" textLength="120" x="599" y="343.5889">isUserAPatient(user)</text><polygon fill="#181818" points="592,376.1426,582,380.1426,592,384.1426,588,380.1426" style="stroke:#181818;stroke-width:1.0;"/><line style="stroke:#181818;stroke-width:1.0;stroke-dasharray:2.0,2.0;" x1="586" x2="893" y1="380.1426" y2="380.1426"/><text fill="#000000" font-family="sans-serif" font-size="13" font-weight="bold" lengthAdjust="spacing" textLength="7" x="598" y="374.8799">8</text><text fill="#000000" font-family="sans-serif" font-size="13" lengthAdjust="spacing" textLength="22" x="609" y="374.8799">true</text><polygon fill="#181818" points="737.5,407.4336,747.5,411.4336,737.5,415.4336,741.5,411.4336" style="stroke:#181818;stroke-width:1.0;"/><line style="stroke:#181818;stroke-width:1.0;" x1="581" x2="743.5" y1="411.4336" y2="411.4336"/><text fill="#000000" font-family="sans-serif" font-size="13" font-weight="bold" lengthAdjust="spacing" textLength="7" x="588" y="406.1709">9</text><text fill="#000000" font-family="sans-serif" font-size="13" lengthAdjust="spacing" textLength="70" x="599" y="406.1709">toDTO(user)</text><rect fill="#E2E2F0" height="51.2422" rx="2.5" ry="2.5" style="stroke:#181818;stroke-width:0.5;" width="77" x="749.5" y="388.1426"/><text fill="#000000" font-family="sans-serif" font-size="14" lengthAdjust="spacing" textLength="36" x="770" y="410.25">&#171;dto&#187;</text><text fill="#000000" font-family="sans-serif" font-size="14" lengthAdjust="spacing" textLength="59" x="760.5" y="428.8711">UserDTO</text><polygon fill="#181818" points="382,469.6758,372,473.6758,382,477.6758,378,473.6758" style="stroke:#181818;stroke-width:1.0;"/><line style="stroke:#181818;stroke-width:1.0;stroke-dasharray:2.0,2.0;" x1="376" x2="575" y1="473.6758" y2="473.6758"/><text fill="#000000" font-family="sans-serif" font-size="13" font-weight="bold" lengthAdjust="spacing" textLength="14" x="388" y="468.4131">10</text><text fill="#000000" font-family="sans-serif" font-size="13" lengthAdjust="spacing" textLength="106" x="406" y="468.4131">completeUserDTO</text><polygon fill="#181818" points="994,525.9668,1004,529.9668,994,533.9668,998,529.9668" style="stroke:#181818;stroke-width:1.0;"/><line style="stroke:#181818;stroke-width:1.0;" x1="371" x2="1000" y1="529.9668" y2="529.9668"/><text fill="#000000" font-family="sans-serif" font-size="13" font-weight="bold" lengthAdjust="spacing" textLength="14" x="378" y="524.7041">11</text><text fill="#000000" font-family="sans-serif" font-size="13" lengthAdjust="spacing" textLength="287" x="396" y="524.7041">sendAccountDeletionConfirmationEmail(userDTO)</text><polygon fill="#181818" points="1522.5,557.2578,1532.5,561.2578,1522.5,565.2578,1526.5,561.2578" style="stroke:#181818;stroke-width:1.0;"/><line style="stroke:#181818;stroke-width:1.0;" x1="1016" x2="1528.5" y1="561.2578" y2="561.2578"/><text fill="#000000" font-family="sans-serif" font-size="13" font-weight="bold" lengthAdjust="spacing" textLength="14" x="1023" y="555.9951">12</text><text fill="#000000" font-family="sans-serif" font-size="13" lengthAdjust="spacing" textLength="289" x="1041" y="555.9951">CreateAccountDeletionToken(userDTO.userEmail)</text><polygon fill="#181818" points="1712.5,588.5488,1722.5,592.5488,1712.5,596.5488,1716.5,592.5488" style="stroke:#181818;stroke-width:1.0;"/><line style="stroke:#181818;stroke-width:1.0;" x1="1544.5" x2="1718.5" y1="592.5488" y2="592.5488"/><text fill="#000000" font-family="sans-serif" font-size="13" font-weight="bold" lengthAdjust="spacing" textLength="14" x="1551.5" y="587.2861">13</text><text fill="#000000" font-family="sans-serif" font-size="13" lengthAdjust="spacing" textLength="4" x="1569.5" y="587.2861">&#160;</text><rect fill="#E2E2F0" height="51.2422" rx="2.5" ry="2.5" style="stroke:#181818;stroke-width:0.5;" width="76" x="1724.5" y="569.2578"/><text fill="#000000" font-family="sans-serif" font-size="14" lengthAdjust="spacing" textLength="62" x="1731.5" y="591.3652">&#171;domain&#187;</text><text fill="#000000" font-family="sans-serif" font-size="14" lengthAdjust="spacing" textLength="40" x="1744.5" y="609.9863">Token</text><polygon fill="#181818" points="1954.5,650.791,1964.5,654.791,1954.5,658.791,1958.5,654.791" style="stroke:#181818;stroke-width:1.0;"/><line style="stroke:#181818;stroke-width:1.0;" x1="1544.5" x2="1960.5" y1="654.791" y2="654.791"/><text fill="#000000" font-family="sans-serif" font-size="13" font-weight="bold" lengthAdjust="spacing" textLength="14" x="1551.5" y="649.5283">14</text><text fill="#000000" font-family="sans-serif" font-size="13" lengthAdjust="spacing" textLength="66" x="1569.5" y="649.5283">save(token)</text><polygon fill="#181818" points="1555.5,682.082,1545.5,686.082,1555.5,690.082,1551.5,686.082" style="stroke:#181818;stroke-width:1.0;"/><line style="stroke:#181818;stroke-width:1.0;stroke-dasharray:2.0,2.0;" x1="1549.5" x2="1970.5" y1="686.082" y2="686.082"/><text fill="#000000" font-family="sans-serif" font-size="13" font-weight="bold" lengthAdjust="spacing" textLength="14" x="1561.5" y="680.8193">15</text><text fill="#000000" font-family="sans-serif" font-size="13" lengthAdjust="spacing" textLength="33" x="1579.5" y="680.8193">return</text><polygon fill="#181818" points="1798.5,713.373,1808.5,717.373,1798.5,721.373,1802.5,717.373" style="stroke:#181818;stroke-width:1.0;"/><line style="stroke:#181818;stroke-width:1.0;" x1="1544.5" x2="1804.5" y1="717.373" y2="717.373"/><text fill="#000000" font-family="sans-serif" font-size="13" font-weight="bold" lengthAdjust="spacing" textLength="14" x="1551.5" y="712.1104">16</text><text fill="#000000" font-family="sans-serif" font-size="13" lengthAdjust="spacing" textLength="77" x="1569.5" y="712.1104">toDTO(token)</text><rect fill="#E2E2F0" height="51.2422" rx="2.5" ry="2.5" style="stroke:#181818;stroke-width:0.5;" width="88" x="1810.5" y="694.082"/><text fill="#000000" font-family="sans-serif" font-size="14" lengthAdjust="spacing" textLength="36" x="1836.5" y="716.1895">&#171;dto&#187;</text><text fill="#000000" font-family="sans-serif" font-size="14" lengthAdjust="spacing" textLength="70" x="1821.5" y="734.8105">TokenDTO</text><polygon fill="#181818" points="1027,775.6152,1017,779.6152,1027,783.6152,1023,779.6152" style="stroke:#181818;stroke-width:1.0;"/><line style="stroke:#181818;stroke-width:1.0;stroke-dasharray:2.0,2.0;" x1="1021" x2="1538.5" y1="779.6152" y2="779.6152"/><text fill="#000000" font-family="sans-serif" font-size="13" font-weight="bold" lengthAdjust="spacing" textLength="14" x="1033" y="774.3525">17</text><text fill="#000000" font-family="sans-serif" font-size="13" lengthAdjust="spacing" textLength="58" x="1051" y="774.3525">tokenDTO</text><polygon fill="#181818" points="1383,806.9063,1393,810.9063,1383,814.9063,1387,810.9063" style="stroke:#181818;stroke-width:1.0;"/><line style="stroke:#181818;stroke-width:1.0;" x1="1016" x2="1389" y1="810.9063" y2="810.9063"/><text fill="#000000" font-family="sans-serif" font-size="13" font-weight="bold" lengthAdjust="spacing" textLength="14" x="1023" y="805.6436">18</text><text fill="#000000" font-family="sans-serif" font-size="13" lengthAdjust="spacing" textLength="337" x="1041" y="805.6436">toDTO(ADMIN_EMAIL, emailString, emailTitle, emailBody)</text><rect fill="#E2E2F0" height="51.2422" rx="2.5" ry="2.5" style="stroke:#181818;stroke-width:0.5;" width="82" x="1395" y="787.6152"/><text fill="#000000" font-family="sans-serif" font-size="14" lengthAdjust="spacing" textLength="36" x="1418" y="809.7227">&#171;dto&#187;</text><text fill="#000000" font-family="sans-serif" font-size="14" lengthAdjust="spacing" textLength="64" x="1406" y="828.3438">EmailDTO</text><line style="stroke:#181818;stroke-width:1.0;" x1="1021" x2="1063" y1="873.1484" y2="873.1484"/><line style="stroke:#181818;stroke-width:1.0;" x1="1063" x2="1063" y1="873.1484" y2="886.1484"/><line style="stroke:#181818;stroke-width:1.0;" x1="1022" x2="1063" y1="886.1484" y2="886.1484"/><polygon fill="#181818" points="1032,882.1484,1022,886.1484,1032,890.1484,1028,886.1484" style="stroke:#181818;stroke-width:1.0;"/><text fill="#000000" font-family="sans-serif" font-size="13" font-weight="bold" lengthAdjust="spacing" textLength="14" x="1028" y="867.8857">19</text><text fill="#000000" font-family="sans-serif" font-size="13" lengthAdjust="spacing" textLength="192" x="1046" y="867.8857">sendEmail(emailDTO, tokenDTO)</text><polygon fill="#181818" points="382,943.4395,372,947.4395,382,951.4395,378,947.4395" style="stroke:#181818;stroke-width:1.0;"/><line style="stroke:#181818;stroke-width:1.0;stroke-dasharray:2.0,2.0;" x1="376" x2="1010" y1="947.4395" y2="947.4395"/><text fill="#000000" font-family="sans-serif" font-size="13" font-weight="bold" lengthAdjust="spacing" textLength="14" x="388" y="942.1768">20</text><text fill="#000000" font-family="sans-serif" font-size="13" lengthAdjust="spacing" textLength="33" x="406" y="942.1768">return</text><polygon fill="#181818" points="166,974.7305,156,978.7305,166,982.7305,162,978.7305" style="stroke:#181818;stroke-width:1.0;"/><line style="stroke:#181818;stroke-width:1.0;stroke-dasharray:2.0,2.0;" x1="160" x2="365" y1="978.7305" y2="978.7305"/><text fill="#000000" font-family="sans-serif" font-size="13" font-weight="bold" lengthAdjust="spacing" textLength="14" x="172" y="973.4678">21</text><text fill="#000000" font-family="sans-serif" font-size="13" lengthAdjust="spacing" textLength="33" x="190" y="973.4678">return</text><path d="M11,993.7305 L72,993.7305 L72,1003.0215 L62,1013.0215 L11,1013.0215 L11,993.7305 " fill="#EEEEEE" style="stroke:#000000;stroke-width:1.5;"/><rect fill="none" height="98.5039" style="stroke:#000000;stroke-width:1.5;" width="182.5" x="11" y="993.7305"/><text fill="#000000" font-family="sans-serif" font-size="13" font-weight="bold" lengthAdjust="spacing" textLength="16" x="26" y="1008.7588">alt</text><text fill="#000000" font-family="sans-serif" font-size="11" font-weight="bold" lengthAdjust="spacing" textLength="55" x="87" y="1007.6006">[success]</text><ellipse cx="7.5" cy="1035.5625" fill="none" rx="4" ry="4" style="stroke:#181818;stroke-width:1.5;"/><polygon fill="#181818" points="24.5,1032.3125,14.5,1036.3125,24.5,1040.3125,20.5,1036.3125" style="stroke:#181818;stroke-width:1.0;"/><line style="stroke:#181818;stroke-width:1.0;stroke-dasharray:2.0,2.0;" x1="22.5" x2="144" y1="1036.3125" y2="1036.3125"/><text fill="#000000" font-family="sans-serif" font-size="13" font-weight="bold" lengthAdjust="spacing" textLength="14" x="25" y="1031.0498">22</text><text fill="#000000" font-family="sans-serif" font-size="13" lengthAdjust="spacing" textLength="44" x="43" y="1031.0498">200 OK</text><line style="stroke:#000000;stroke-width:1.0;stroke-dasharray:2.0,2.0;" x1="11" x2="193.5" y1="1045.3125" y2="1045.3125"/><text fill="#000000" font-family="sans-serif" font-size="11" font-weight="bold" lengthAdjust="spacing" textLength="43" x="16" y="1057.1826">[failure]</text><ellipse cx="7.5" cy="1083.4844" fill="none" rx="4" ry="4" style="stroke:#181818;stroke-width:1.5;"/><polygon fill="#181818" points="24.5,1080.2344,14.5,1084.2344,24.5,1088.2344,20.5,1084.2344" style="stroke:#181818;stroke-width:1.0;"/><line style="stroke:#181818;stroke-width:1.0;stroke-dasharray:2.0,2.0;" x1="22.5" x2="149" y1="1084.2344" y2="1084.2344"/><text fill="#000000" font-family="sans-serif" font-size="13" font-weight="bold" lengthAdjust="spacing" textLength="14" x="25" y="1078.9717">23</text><text fill="#000000" font-family="sans-serif" font-size="13" lengthAdjust="spacing" textLength="100" x="43" y="1078.9717">400 Bad Request</text><ellipse cx="7.5" cy="1167.0664" fill="none" rx="4" ry="4" style="stroke:#181818;stroke-width:1.5;"/><polygon fill="#181818" points="133,1163.8164,143,1167.8164,133,1171.8164,137,1167.8164" style="stroke:#181818;stroke-width:1.0;"/><line style="stroke:#181818;stroke-width:1.0;" x1="12" x2="139" y1="1167.8164" y2="1167.8164"/><text fill="#000000" font-family="sans-serif" font-size="13" font-weight="bold" lengthAdjust="spacing" textLength="14" x="15" y="1162.5537">24</text><text fill="#000000" font-family="sans-serif" font-size="13" lengthAdjust="spacing" textLength="58" x="33" y="1162.5537">GET(json)</text><path d="M160,1129.2344 L160,1190.2344 L335,1190.2344 L335,1139.2344 L325,1129.2344 L160,1129.2344 " fill="#FEFFDD" style="stroke:#181818;stroke-width:0.5;"/><path d="M325,1129.2344 L325,1139.2344 L335,1139.2344 L325,1129.2344 " fill="#FEFFDD" style="stroke:#181818;stroke-width:0.5;"/><text fill="#000000" font-family="sans-serif" font-size="13" lengthAdjust="spacing" textLength="115" x="166" y="1148.2627">After clicking on the</text><text fill="#000000" font-family="sans-serif" font-size="13" lengthAdjust="spacing" textLength="106" x="166" y="1165.5537">link of the account</text><text fill="#000000" font-family="sans-serif" font-size="13" lengthAdjust="spacing" textLength="154" x="166" y="1182.8447">deletion confirmation email</text><polygon fill="#181818" points="349,1215.3984,359,1219.3984,349,1223.3984,353,1219.3984" style="stroke:#181818;stroke-width:1.0;"/><line style="stroke:#181818;stroke-width:1.0;" x1="155" x2="355" y1="1219.3984" y2="1219.3984"/><text fill="#000000" font-family="sans-serif" font-size="13" font-weight="bold" lengthAdjust="spacing" textLength="14" x="162" y="1214.1357">25</text><text fill="#000000" font-family="sans-serif" font-size="13" lengthAdjust="spacing" textLength="169" x="180" y="1214.1357">confirmAccountDeletion(json)</text><polygon fill="#181818" points="1798.5,1246.6895,1808.5,1250.6895,1798.5,1254.6895,1802.5,1250.6895" style="stroke:#181818;stroke-width:1.0;"/><line style="stroke:#181818;stroke-width:1.0;" x1="371" x2="1804.5" y1="1250.6895" y2="1250.6895"/><text fill="#000000" font-family="sans-serif" font-size="13" font-weight="bold" lengthAdjust="spacing" textLength="14" x="378" y="1245.4268">26</text><text fill="#000000" font-family="sans-serif" font-size="13" lengthAdjust="spacing" textLength="104" x="396" y="1245.4268">toDTO(tokenData)</text><rect fill="#E2E2F0" height="51.2422" rx="2.5" ry="2.5" style="stroke:#181818;stroke-width:0.5;" width="88" x="1810.5" y="1227.3984"/><text fill="#000000" font-family="sans-serif" font-size="14" lengthAdjust="spacing" textLength="36" x="1836.5" y="1249.5059">&#171;dto&#187;</text><text fill="#000000" font-family="sans-serif" font-size="14" lengthAdjust="spacing" textLength="70" x="1821.5" y="1268.127">TokenDTO</text><polygon fill="#181818" points="737.5,1308.9316,747.5,1312.9316,737.5,1316.9316,741.5,1312.9316" style="stroke:#181818;stroke-width:1.0;"/><line style="stroke:#181818;stroke-width:1.0;" x1="371" x2="743.5" y1="1312.9316" y2="1312.9316"/><text fill="#000000" font-family="sans-serif" font-size="13" font-weight="bold" lengthAdjust="spacing" textLength="14" x="378" y="1307.6689">27</text><text fill="#000000" font-family="sans-serif" font-size="13" lengthAdjust="spacing" textLength="135" x="396" y="1307.6689">toDTO(credentialsData)</text><rect fill="#E2E2F0" height="51.2422" rx="2.5" ry="2.5" style="stroke:#181818;stroke-width:0.5;" width="77" x="749.5" y="1289.6406"/><text fill="#000000" font-family="sans-serif" font-size="14" lengthAdjust="spacing" textLength="36" x="770" y="1311.748">&#171;dto&#187;</text><text fill="#000000" font-family="sans-serif" font-size="14" lengthAdjust="spacing" textLength="59" x="760.5" y="1330.3691">UserDTO</text><polygon fill="#181818" points="1522.5,1371.1738,1532.5,1375.1738,1522.5,1379.1738,1526.5,1375.1738" style="stroke:#181818;stroke-width:1.0;"/><line style="stroke:#181818;stroke-width:1.0;" x1="371" x2="1528.5" y1="1375.1738" y2="1375.1738"/><text fill="#000000" font-family="sans-serif" font-size="13" font-weight="bold" lengthAdjust="spacing" textLength="14" x="378" y="1369.9111">28</text><text fill="#000000" font-family="sans-serif" font-size="13" lengthAdjust="spacing" textLength="144" x="396" y="1369.9111">validateToken(tokenDTO)</text><polygon fill="#181818" points="1954.5,1402.4648,1964.5,1406.4648,1954.5,1410.4648,1958.5,1406.4648" style="stroke:#181818;stroke-width:1.0;"/><line style="stroke:#181818;stroke-width:1.0;" x1="1544.5" x2="1960.5" y1="1406.4648" y2="1406.4648"/><text fill="#000000" font-family="sans-serif" font-size="13" font-weight="bold" lengthAdjust="spacing" textLength="14" x="1551.5" y="1401.2021">29</text><text fill="#000000" font-family="sans-serif" font-size="13" lengthAdjust="spacing" textLength="120" x="1569.5" y="1401.2021">findByID(tokenDtoID)</text><polygon fill="#181818" points="1555.5,1433.7559,1545.5,1437.7559,1555.5,1441.7559,1551.5,1437.7559" style="stroke:#181818;stroke-width:1.0;"/><line style="stroke:#181818;stroke-width:1.0;stroke-dasharray:2.0,2.0;" x1="1549.5" x2="1970.5" y1="1437.7559" y2="1437.7559"/><text fill="#000000" font-family="sans-serif" font-size="13" font-weight="bold" lengthAdjust="spacing" textLength="14" x="1561.5" y="1432.4932">30</text><text fill="#000000" font-family="sans-serif" font-size="13" lengthAdjust="spacing" textLength="32" x="1579.5" y="1432.4932">token</text><line style="stroke:#181818;stroke-width:1.0;" x1="1549.5" x2="1591.5" y1="1469.0469" y2="1469.0469"/><line style="stroke:#181818;stroke-width:1.0;" x1="1591.5" x2="1591.5" y1="1469.0469" y2="1482.0469"/><line style="stroke:#181818;stroke-width:1.0;" x1="1550.5" x2="1591.5" y1="1482.0469" y2="1482.0469"/><polygon fill="#181818" points="1560.5,1478.0469,1550.5,1482.0469,1560.5,1486.0469,1556.5,1482.0469" style="stroke:#181818;stroke-width:1.0;"/><text fill="#000000" font-family="sans-serif" font-size="13" font-weight="bold" lengthAdjust="spacing" textLength="14" x="1556.5" y="1463.7842">31</text><text fill="#000000" font-family="sans-serif" font-size="13" lengthAdjust="spacing" textLength="181" x="1574.5" y="1463.7842">checkTokenValidityTime(token)</text><polygon fill="#181818" points="382,1539.3379,372,1543.3379,382,1547.3379,378,1543.3379" style="stroke:#181818;stroke-width:1.0;"/><line style="stroke:#181818;stroke-width:1.0;stroke-dasharray:2.0,2.0;" x1="376" x2="1538.5" y1="1543.3379" y2="1543.3379"/><text fill="#000000" font-family="sans-serif" font-size="13" font-weight="bold" lengthAdjust="spacing" textLength="14" x="388" y="1538.0752">32</text><text fill="#000000" font-family="sans-serif" font-size="13" lengthAdjust="spacing" textLength="22" x="406" y="1538.0752">true</text><polygon fill="#181818" points="559,1570.6289,569,1574.6289,559,1578.6289,563,1574.6289" style="stroke:#181818;stroke-width:1.0;"/><line style="stroke:#181818;stroke-width:1.0;" x1="371" x2="565" y1="1574.6289" y2="1574.6289"/><text fill="#000000" font-family="sans-serif" font-size="13" font-weight="bold" lengthAdjust="spacing" textLength="14" x="378" y="1569.3662">33</text><text fill="#000000" font-family="sans-serif" font-size="13" lengthAdjust="spacing" textLength="142" x="396" y="1569.3662">deleteAccount(userDTO)</text><line style="stroke:#181818;stroke-width:1.0;" x1="586" x2="628" y1="1605.9199" y2="1605.9199"/><line style="stroke:#181818;stroke-width:1.0;" x1="628" x2="628" y1="1605.9199" y2="1618.9199"/><line style="stroke:#181818;stroke-width:1.0;" x1="587" x2="628" y1="1618.9199" y2="1618.9199"/><polygon fill="#181818" points="597,1614.9199,587,1618.9199,597,1622.9199,593,1618.9199" style="stroke:#181818;stroke-width:1.0;"/><text fill="#000000" font-family="sans-serif" font-size="13" font-weight="bold" lengthAdjust="spacing" textLength="14" x="593" y="1600.6572">34</text><text fill="#000000" font-family="sans-serif" font-size="13" lengthAdjust="spacing" textLength="170" x="611" y="1600.6572">validatePatientUser(userDTO)</text><polygon fill="#181818" points="2082,1676.2109,2092,1680.2109,2082,1684.2109,2086,1680.2109" style="stroke:#181818;stroke-width:1.0;"/><line style="stroke:#181818;stroke-width:1.0;" x1="581" x2="2088" y1="1680.2109" y2="1680.2109"/><text fill="#000000" font-family="sans-serif" font-size="13" font-weight="bold" lengthAdjust="spacing" textLength="14" x="588" y="1674.9482">35</text><text fill="#000000" font-family="sans-serif" font-size="13" lengthAdjust="spacing" textLength="205" x="606" y="1674.9482">deletePatientProfile(patientIDString)</text><polygon fill="#181818" points="2268,1707.502,2278,1711.502,2268,1715.502,2272,1711.502" style="stroke:#181818;stroke-width:1.0;"/><line style="stroke:#181818;stroke-width:1.0;" x1="2104" x2="2274" y1="1711.502" y2="1711.502"/><text fill="#000000" font-family="sans-serif" font-size="13" font-weight="bold" lengthAdjust="spacing" textLength="14" x="2111" y="1706.2393">36</text><text fill="#000000" font-family="sans-serif" font-size="13" lengthAdjust="spacing" textLength="139" x="2129" y="1706.2393">getByID(patientIDString)</text><polygon fill="#181818" points="2115,1738.793,2105,1742.793,2115,1746.793,2111,1742.793" style="stroke:#181818;stroke-width:1.0;"/><line style="stroke:#181818;stroke-width:1.0;stroke-dasharray:2.0,2.0;" x1="2109" x2="2284" y1="1742.793" y2="1742.793"/><text fill="#000000" font-family="sans-serif" font-size="13" font-weight="bold" lengthAdjust="spacing" textLength="14" x="2121" y="1737.5303">37</text><text fill="#000000" font-family="sans-serif" font-size="13" lengthAdjust="spacing" textLength="39" x="2139" y="1737.5303">patient</text><polygon fill="#181818" points="2268,1770.084,2278,1774.084,2268,1778.084,2272,1774.084" style="stroke:#181818;stroke-width:1.0;"/><line style="stroke:#181818;stroke-width:1.0;" x1="2104" x2="2274" y1="1774.084" y2="1774.084"/><text fill="#000000" font-family="sans-serif" font-size="13" font-weight="bold" lengthAdjust="spacing" textLength="14" x="2111" y="1768.8213">38</text><text fill="#000000" font-family="sans-serif" font-size="13" lengthAdjust="spacing" textLength="88" x="2129" y="1768.8213">remove(patient)</text><polygon fill="#181818" points="2115,1801.375,2105,1805.375,2115,1809.375,2111,1805.375" style="stroke:#181818;stroke-width:1.0;"/><line style="stroke:#181818;stroke-width:1.0;stroke-dasharray:2.0,2.0;" x1="2109" x2="2284" y1="1805.375" y2="1805.375"/><text fill="#000000" font-family="sans-serif" font-size="13" font-weight="bold" lengthAdjust="spacing" textLength="14" x="2121" y="1800.1123">39</text><text fill="#000000" font-family="sans-serif" font-size="13" lengthAdjust="spacing" textLength="33" x="2139" y="1800.1123">return</text><polygon fill="#181818" points="592,1832.666,582,1836.666,592,1840.666,588,1836.666" style="stroke:#181818;stroke-width:1.0;"/><line style="stroke:#181818;stroke-width:1.0;stroke-dasharray:2.0,2.0;" x1="586" x2="2098" y1="1836.666" y2="1836.666"/><text fill="#000000" font-family="sans-serif" font-size="13" font-weight="bold" lengthAdjust="spacing" textLength="14" x="598" y="1831.4033">40</text><text fill="#000000" font-family="sans-serif" font-size="13" lengthAdjust="spacing" textLength="33" x="616" y="1831.4033">return</text><polygon fill="#181818" points="877,1863.957,887,1867.957,877,1871.957,881,1867.957" style="stroke:#181818;stroke-width:1.0;"/><line style="stroke:#181818;stroke-width:1.0;" x1="581" x2="883" y1="1867.957" y2="1867.957"/><text fill="#000000" font-family="sans-serif" font-size="13" font-weight="bold" lengthAdjust="spacing" textLength="14" x="588" y="1862.6943">41</text><text fill="#000000" font-family="sans-serif" font-size="13" lengthAdjust="spacing" textLength="147" x="606" y="1862.6943">findByID(usernameString)</text><polygon fill="#181818" points="592,1895.248,582,1899.248,592,1903.248,588,1899.248" style="stroke:#181818;stroke-width:1.0;"/><line style="stroke:#181818;stroke-width:1.0;stroke-dasharray:2.0,2.0;" x1="586" x2="893" y1="1899.248" y2="1899.248"/><text fill="#000000" font-family="sans-serif" font-size="13" font-weight="bold" lengthAdjust="spacing" textLength="14" x="598" y="1893.9854">42</text><text fill="#000000" font-family="sans-serif" font-size="13" lengthAdjust="spacing" textLength="25" x="616" y="1893.9854">user</text><polygon fill="#181818" points="877,1926.5391,887,1930.5391,877,1934.5391,881,1930.5391" style="stroke:#181818;stroke-width:1.0;"/><line style="stroke:#181818;stroke-width:1.0;" x1="581" x2="883" y1="1930.5391" y2="1930.5391"/><text fill="#000000" font-family="sans-serif" font-size="13" font-weight="bold" lengthAdjust="spacing" textLength="14" x="588" y="1925.2764">43</text><text fill="#000000" font-family="sans-serif" font-size="13" lengthAdjust="spacing" textLength="74" x="606" y="1925.2764">remove(user)</text><polygon fill="#181818" points="592,1957.8301,582,1961.8301,592,1965.8301,588,1961.8301" style="stroke:#181818;stroke-width:1.0;"/><line style="stroke:#181818;stroke-width:1.0;stroke-dasharray:2.0,2.0;" x1="586" x2="893" y1="1961.8301" y2="1961.8301"/><text fill="#000000" font-family="sans-serif" font-size="13" font-weight="bold" lengthAdjust="spacing" textLength="14" x="598" y="1956.5674">44</text><text fill="#000000" font-family="sans-serif" font-size="13" lengthAdjust="spacing" textLength="33" x="616" y="1956.5674">return</text><polygon fill="#181818" points="382,1989.1211,372,1993.1211,382,1997.1211,378,1993.1211" style="stroke:#181818;stroke-width:1.0;"/><line style="stroke:#181818;stroke-width:1.0;stroke-dasharray:2.0,2.0;" x1="376" x2="575" y1="1993.1211" y2="1993.1211"/><text fill="#000000" font-family="sans-serif" font-size="13" font-weight="bold" lengthAdjust="spacing" textLength="14" x="388" y="1987.8584">45</text><text fill="#000000" font-family="sans-serif" font-size="13" lengthAdjust="spacing" textLength="33" x="406" y="1987.8584">return</text><polygon fill="#181818" points="166,2020.4121,156,2024.4121,166,2028.4121,162,2024.4121" style="stroke:#181818;stroke-width:1.0;"/><line style="stroke:#181818;stroke-width:1.0;stroke-dasharray:2.0,2.0;" x1="160" x2="365" y1="2024.4121" y2="2024.4121"/><text fill="#000000" font-family="sans-serif" font-size="13" font-weight="bold" lengthAdjust="spacing" textLength="14" x="172" y="2019.1494">46</text><text fill="#000000" font-family="sans-serif" font-size="13" lengthAdjust="spacing" textLength="33" x="190" y="2019.1494">return</text><path d="M11,2039.4121 L72,2039.4121 L72,2048.7031 L62,2058.7031 L11,2058.7031 L11,2039.4121 " fill="#EEEEEE" style="stroke:#000000;stroke-width:1.5;"/><rect fill="none" height="98.5039" style="stroke:#000000;stroke-width:1.5;" width="182.5" x="11" y="2039.4121"/><text fill="#000000" font-family="sans-serif" font-size="13" font-weight="bold" lengthAdjust="spacing" textLength="16" x="26" y="2054.4404">alt</text><text fill="#000000" font-family="sans-serif" font-size="11" font-weight="bold" lengthAdjust="spacing" textLength="55" x="87" y="2053.2822">[success]</text><ellipse cx="7.5" cy="2081.2441" fill="none" rx="4" ry="4" style="stroke:#181818;stroke-width:1.5;"/><polygon fill="#181818" points="24.5,2077.9941,14.5,2081.9941,24.5,2085.9941,20.5,2081.9941" style="stroke:#181818;stroke-width:1.0;"/><line style="stroke:#181818;stroke-width:1.0;stroke-dasharray:2.0,2.0;" x1="22.5" x2="144" y1="2081.9941" y2="2081.9941"/><text fill="#000000" font-family="sans-serif" font-size="13" font-weight="bold" lengthAdjust="spacing" textLength="14" x="25" y="2076.7314">47</text><text fill="#000000" font-family="sans-serif" font-size="13" lengthAdjust="spacing" textLength="44" x="43" y="2076.7314">200 OK</text><line style="stroke:#000000;stroke-width:1.0;stroke-dasharray:2.0,2.0;" x1="11" x2="193.5" y1="2090.9941" y2="2090.9941"/><text fill="#000000" font-family="sans-serif" font-size="11" font-weight="bold" lengthAdjust="spacing" textLength="43" x="16" y="2102.8643">[failure]</text><ellipse cx="7.5" cy="2129.166" fill="none" rx="4" ry="4" style="stroke:#181818;stroke-width:1.5;"/><polygon fill="#181818" points="24.5,2125.916,14.5,2129.916,24.5,2133.916,20.5,2129.916" style="stroke:#181818;stroke-width:1.0;"/><line style="stroke:#181818;stroke-width:1.0;stroke-dasharray:2.0,2.0;" x1="22.5" x2="149" y1="2129.916" y2="2129.916"/><text fill="#000000" font-family="sans-serif" font-size="13" font-weight="bold" lengthAdjust="spacing" textLength="14" x="25" y="2124.6533">48</text><text fill="#000000" font-family="sans-serif" font-size="13" lengthAdjust="spacing" textLength="100" x="43" y="2124.6533">400 Bad Request</text><!--SRC=[pLRBRjiu5DtpAuXiuXIraywqco88u4HgncXY1uxIpHGOiD9rmaOYFHJb8a0-VlYIH55Id0wwwCgIVCyvb_V9mmSfj-N7u-DjJfYiYdoMykAuX7yhO2bCCqhk1IaGabJcW0_kRl67sRlPXnc-4Jo5iiHVAFp0aolOGOx_F3f0Y5IIiwhu1WAXBH6IfdIhgF71wQdWbOIpiwyChzKJPVS7c9HulRfBuj0qvKmAdkSWZFqDaHIOl6Y-6kJ5QfciLrSzdHB4ZgPMQLx91uMagMBWxDR-Oz3pk-Gl_Tw3Pv8Rw9tYYPALCNRF_IF1bfTKSl7KGDRDfqP6VthHoxWWDFUTYw_dYolZtOXp1b5xLx-yg97mH-W485bzZfU36bpniHRKMezvOyngR-gNFR4oPa6mZCZUQBbgyCzoCqyMyJ8PEaqWwy21iCDRQVGtdvxPkiGVSHHVnKay-LvoTeH8AkcEI71LYwoHidQrgEmpo472F4rvnMG8QqgsjbTGLrjltYYmvEffaWh8TD6Il8o894STyxfkbVMEv3HJjEvCccXIMJPFiorqr60TZpwlujbGbfq_BI83PgI0MobKUmOSBZWDRjfrHcDH1WEG4LLQQeVdpdcZFQWu9YX51Vi5NNIn5rwhv5brygS6u5Pdi6xvGC56yldv6HtUnijeiRoqpTh9KTE-Ygy4bhbgY7Hfg36avjY6YiAC9DEx0rbh9m1gsHHrqxMA-a80QKgj9ZTzLHFEzA-HyAZRnaSjMqsj0ZNqsUMi93kOIAqGyhdgQ8sdWRC2P2MO7quFrnLq0yJFcTFq3OCuothiX0e3GQm7fgymZwuNot-CsLiCPY2RBd0lYTw0xlcSPqz78MMGSfjNS49l6_S6K-ovxENT5-YKQ3-K7gefGs-6zG7D82Avn6MLwcMkvjxfTDg0_ZWvmQlF245U0jweSrG2K63pNjcSamolzOsXbBw2dP0g4bX9s8v1Xqhsqs9zhQRjQXdCsSiuSTEISGNFOIFHV2D1u3IdwQFA1EOCgssESieUCT_ePqniyQFCLRzgtxQtRBQC3vhpDTFRmOEUUiqO7wrQEyBx0n-_TkBxNLIFVDlb0qNrOdE7yzxY9Lz4m-qytiq6-Qfcza3f0wIFnlCl-XXKFYMq69adOLyCdwkJkt0XU93X_TbTrIzjpd25_Ry5FBXAV6hl6jEuvxZLXNj3SvXixUiYwkre_mw4VAQMsEN_7gH9_rukcqyVFErvwKZymmsXXpqHKF1TSwWn1_Puq9zkumvqypUA7CwwS_gdxak_xBhaGZLwJHfLwXzoI6lFWcdhzVVSB_y1]--></g></svg>