<?xml version="1.0" encoding="us-ascii" standalone="no"?><svg xmlns="http://www.w3.org/2000/svg" xmlns:xlink="http://www.w3.org/1999/xlink" contentStyleType="text/css" height="2088px" preserveAspectRatio="none" style="width:2237px;height:2088px;background:#FFFFFF;" version="1.1" viewBox="0 0 2237 2088" width="2237px" zoomAndPan="magnify"><defs/><g><text fill="#000000" font-family="sans-serif" font-size="14" font-weight="bold" lengthAdjust="spacing" textLength="222" x="1006.75" y="30.1074">US 5.1.5. Process View (Level 3)</text><rect fill="#FFFFFF" height="891.8379" style="stroke:#181818;stroke-width:1.0;" width="10" x="145" y="130.1543"/><rect fill="#FFFFFF" height="902.0996" style="stroke:#181818;stroke-width:1.0;" width="10" x="145" y="1105.5742"/><rect fill="#FFFFFF" height="755.043" style="stroke:#181818;stroke-width:1.0;" width="10" x="361" y="161.4453"/><rect fill="#FFFFFF" height="745.0137" style="stroke:#181818;stroke-width:1.0;" width="10" x="361" y="1157.1563"/><rect fill="#FFFFFF" height="218.6973" style="stroke:#181818;stroke-width:1.0;" width="10" x="571" y="254.9785"/><rect fill="#FFFFFF" height="388.4922" style="stroke:#181818;stroke-width:1.0;" width="10" x="571" y="1482.3867"/><rect fill="#FFFFFF" height="31.291" style="stroke:#181818;stroke-width:1.0;" width="10" x="900.5" y="286.2695"/><rect fill="#FFFFFF" height="31.291" style="stroke:#181818;stroke-width:1.0;" width="10" x="900.5" y="348.8516"/><rect fill="#FFFFFF" height="31.291" style="stroke:#181818;stroke-width:1.0;" width="10" x="900.5" y="1745.7148"/><rect fill="#FFFFFF" height="31.291" style="stroke:#181818;stroke-width:1.0;" width="10" x="900.5" y="1808.2969"/><rect fill="#FFFFFF" height="355.2305" style="stroke:#181818;stroke-width:1.0;" width="10" x="1018" y="529.9668"/><rect fill="#FFFFFF" height="28" style="stroke:#181818;stroke-width:1.0;" width="10" x="1023" y="818.9063"/><rect fill="#FFFFFF" height="218.3574" style="stroke:#181818;stroke-width:1.0;" width="10" x="1392" y="561.2578"/><rect fill="#FFFFFF" height="138.1641" style="stroke:#181818;stroke-width:1.0;" width="10" x="1392" y="1312.9316"/><rect fill="#FFFFFF" height="31.291" style="stroke:#181818;stroke-width:1.0;" width="10" x="1848" y="654.791"/><rect fill="#FFFFFF" height="31.291" style="stroke:#181818;stroke-width:1.0;" width="10" x="1848" y="1344.2227"/><rect fill="#FFFFFF" height="156.4551" style="stroke:#181818;stroke-width:1.0;" width="10" x="1975.5" y="1557.9688"/><rect fill="#FFFFFF" height="31.291" style="stroke:#181818;stroke-width:1.0;" width="10" x="2161.5" y="1589.2598"/><rect fill="#FFFFFF" height="31.291" style="stroke:#181818;stroke-width:1.0;" width="10" x="2161.5" y="1651.8418"/><rect fill="none" height="98.5039" style="stroke:#000000;stroke-width:1.5;" width="199" x="11" y="931.4883"/><rect fill="none" height="98.5039" style="stroke:#000000;stroke-width:1.5;" width="199" x="11" y="1917.1699"/><line style="stroke:#181818;stroke-width:0.5;stroke-dasharray:5.0,5.0;" x1="150" x2="150" y1="96.8633" y2="2032.6738"/><line style="stroke:#181818;stroke-width:0.5;stroke-dasharray:5.0,5.0;" x1="366" x2="366" y1="96.8633" y2="2032.6738"/><line style="stroke:#181818;stroke-width:0.5;stroke-dasharray:5.0,5.0;" x1="575.5" x2="575.5" y1="96.8633" y2="2032.6738"/><line style="stroke:#181818;stroke-width:0.5;stroke-dasharray:5.0,5.0;" x1="788" x2="788" y1="1268.5195" y2="2032.6738"/><line style="stroke:#181818;stroke-width:0.5;stroke-dasharray:5.0,5.0;" x1="905" x2="905" y1="96.8633" y2="2032.6738"/><line style="stroke:#181818;stroke-width:0.5;stroke-dasharray:5.0,5.0;" x1="1023" x2="1023" y1="96.8633" y2="2032.6738"/><line style="stroke:#181818;stroke-width:0.5;stroke-dasharray:5.0,5.0;" x1="1396.5" x2="1396.5" y1="96.8633" y2="2032.6738"/><line style="stroke:#181818;stroke-width:0.5;stroke-dasharray:5.0,5.0;" x1="1620" x2="1620" y1="610.3789" y2="2032.6738"/><line style="stroke:#181818;stroke-width:0.5;stroke-dasharray:5.0,5.0;" x1="1730" x2="1730" y1="1206.2773" y2="2032.6738"/><line style="stroke:#181818;stroke-width:0.5;stroke-dasharray:5.0,5.0;" x1="1853" x2="1853" y1="96.8633" y2="2032.6738"/><line style="stroke:#181818;stroke-width:0.5;stroke-dasharray:5.0,5.0;" x1="1980" x2="1980" y1="96.8633" y2="2032.6738"/><line style="stroke:#181818;stroke-width:0.5;stroke-dasharray:5.0,5.0;" x1="2166.5" x2="2166.5" y1="96.8633" y2="2032.6738"/><rect fill="#E2E2F0" height="51.2422" rx="2.5" ry="2.5" style="stroke:#181818;stroke-width:0.5;" width="100" x="100" y="44.6211"/><text fill="#000000" font-family="sans-serif" font-size="14" lengthAdjust="spacing" textLength="86" x="107" y="66.7285">&#171;component&#187;</text><text fill="#000000" font-family="sans-serif" font-size="14" lengthAdjust="spacing" textLength="49" x="127.5" y="85.3496">Routing</text><rect fill="#E2E2F0" height="51.2422" rx="2.5" ry="2.5" style="stroke:#181818;stroke-width:0.5;" width="100" x="100" y="2031.6738"/><text fill="#000000" font-family="sans-serif" font-size="14" lengthAdjust="spacing" textLength="86" x="107" y="2053.7813">&#171;component&#187;</text><text fill="#000000" font-family="sans-serif" font-size="14" lengthAdjust="spacing" textLength="49" x="127.5" y="2072.4023">Routing</text><rect fill="#E2E2F0" height="51.2422" rx="2.5" ry="2.5" style="stroke:#181818;stroke-width:0.5;" width="124" x="304" y="44.6211"/><text fill="#000000" font-family="sans-serif" font-size="14" lengthAdjust="spacing" textLength="86" x="323" y="66.7285">&#171;component&#187;</text><text fill="#000000" font-family="sans-serif" font-size="14" lengthAdjust="spacing" textLength="106" x="315" y="85.3496">PatientController</text><rect fill="#E2E2F0" height="51.2422" rx="2.5" ry="2.5" style="stroke:#181818;stroke-width:0.5;" width="124" x="304" y="2031.6738"/><text fill="#000000" font-family="sans-serif" font-size="14" lengthAdjust="spacing" textLength="86" x="323" y="2053.7813">&#171;component&#187;</text><text fill="#000000" font-family="sans-serif" font-size="14" lengthAdjust="spacing" textLength="106" x="315" y="2072.4023">PatientController</text><rect fill="#E2E2F0" height="51.2422" rx="2.5" ry="2.5" style="stroke:#181818;stroke-width:0.5;" width="155" x="498.5" y="44.6211"/><text fill="#000000" font-family="sans-serif" font-size="14" lengthAdjust="spacing" textLength="86" x="533" y="66.7285">&#171;component&#187;</text><text fill="#000000" font-family="sans-serif" font-size="14" lengthAdjust="spacing" textLength="137" x="509.5" y="85.3496">AuthenticationService</text><rect fill="#E2E2F0" height="51.2422" rx="2.5" ry="2.5" style="stroke:#181818;stroke-width:0.5;" width="155" x="498.5" y="2031.6738"/><text fill="#000000" font-family="sans-serif" font-size="14" lengthAdjust="spacing" textLength="86" x="533" y="2053.7813">&#171;component&#187;</text><text fill="#000000" font-family="sans-serif" font-size="14" lengthAdjust="spacing" textLength="137" x="509.5" y="2072.4023">AuthenticationService</text><rect fill="#E2E2F0" height="51.2422" rx="2.5" ry="2.5" style="stroke:#181818;stroke-width:0.5;" width="100" x="738" y="2031.6738"/><text fill="#000000" font-family="sans-serif" font-size="14" lengthAdjust="spacing" textLength="86" x="745" y="2053.7813">&#171;component&#187;</text><text fill="#000000" font-family="sans-serif" font-size="14" lengthAdjust="spacing" textLength="59" x="760.5" y="2072.4023">UserDTO</text><rect fill="#E2E2F0" height="51.2422" rx="2.5" ry="2.5" style="stroke:#181818;stroke-width:0.5;" width="115" x="848" y="44.6211"/><text fill="#000000" font-family="sans-serif" font-size="14" lengthAdjust="spacing" textLength="86" x="862.5" y="66.7285">&#171;component&#187;</text><text fill="#000000" font-family="sans-serif" font-size="14" lengthAdjust="spacing" textLength="97" x="859" y="85.3496">UserRepository</text><rect fill="#E2E2F0" height="51.2422" rx="2.5" ry="2.5" style="stroke:#181818;stroke-width:0.5;" width="115" x="848" y="2031.6738"/><text fill="#000000" font-family="sans-serif" font-size="14" lengthAdjust="spacing" textLength="86" x="862.5" y="2053.7813">&#171;component&#187;</text><text fill="#000000" font-family="sans-serif" font-size="14" lengthAdjust="spacing" textLength="97" x="859" y="2072.4023">UserRepository</text><rect fill="#E2E2F0" height="51.2422" rx="2.5" ry="2.5" style="stroke:#181818;stroke-width:0.5;" width="100" x="973" y="44.6211"/><text fill="#000000" font-family="sans-serif" font-size="14" lengthAdjust="spacing" textLength="86" x="980" y="66.7285">&#171;component&#187;</text><text fill="#000000" font-family="sans-serif" font-size="14" lengthAdjust="spacing" textLength="81" x="984.5" y="85.3496">EmailService</text><rect fill="#E2E2F0" height="51.2422" rx="2.5" ry="2.5" style="stroke:#181818;stroke-width:0.5;" width="100" x="973" y="2031.6738"/><text fill="#000000" font-family="sans-serif" font-size="14" lengthAdjust="spacing" textLength="86" x="980" y="2053.7813">&#171;component&#187;</text><text fill="#000000" font-family="sans-serif" font-size="14" lengthAdjust="spacing" textLength="81" x="984.5" y="2072.4023">EmailService</text><rect fill="#E2E2F0" height="51.2422" rx="2.5" ry="2.5" style="stroke:#181818;stroke-width:0.5;" width="105" x="1344.5" y="44.6211"/><text fill="#000000" font-family="sans-serif" font-size="14" lengthAdjust="spacing" textLength="86" x="1354" y="66.7285">&#171;component&#187;</text><text fill="#000000" font-family="sans-serif" font-size="14" lengthAdjust="spacing" textLength="87" x="1355.5" y="85.3496">TokenService</text><rect fill="#E2E2F0" height="51.2422" rx="2.5" ry="2.5" style="stroke:#181818;stroke-width:0.5;" width="105" x="1344.5" y="2031.6738"/><text fill="#000000" font-family="sans-serif" font-size="14" lengthAdjust="spacing" textLength="86" x="1354" y="2053.7813">&#171;component&#187;</text><text fill="#000000" font-family="sans-serif" font-size="14" lengthAdjust="spacing" textLength="87" x="1355.5" y="2072.4023">TokenService</text><rect fill="#E2E2F0" height="51.2422" rx="2.5" ry="2.5" style="stroke:#181818;stroke-width:0.5;" width="100" x="1570" y="2031.6738"/><text fill="#000000" font-family="sans-serif" font-size="14" lengthAdjust="spacing" textLength="86" x="1577" y="2053.7813">&#171;component&#187;</text><text fill="#000000" font-family="sans-serif" font-size="14" lengthAdjust="spacing" textLength="40" x="1602" y="2072.4023">Token</text><rect fill="#E2E2F0" height="51.2422" rx="2.5" ry="2.5" style="stroke:#181818;stroke-width:0.5;" width="100" x="1680" y="2031.6738"/><text fill="#000000" font-family="sans-serif" font-size="14" lengthAdjust="spacing" textLength="86" x="1687" y="2053.7813">&#171;component&#187;</text><text fill="#000000" font-family="sans-serif" font-size="14" lengthAdjust="spacing" textLength="70" x="1697" y="2072.4023">TokenDTO</text><rect fill="#E2E2F0" height="51.2422" rx="2.5" ry="2.5" style="stroke:#181818;stroke-width:0.5;" width="126" x="1790" y="44.6211"/><text fill="#000000" font-family="sans-serif" font-size="14" lengthAdjust="spacing" textLength="86" x="1810" y="66.7285">&#171;component&#187;</text><text fill="#000000" font-family="sans-serif" font-size="14" lengthAdjust="spacing" textLength="108" x="1801" y="85.3496">TokenRepository</text><rect fill="#E2E2F0" height="51.2422" rx="2.5" ry="2.5" style="stroke:#181818;stroke-width:0.5;" width="126" x="1790" y="2031.6738"/><text fill="#000000" font-family="sans-serif" font-size="14" lengthAdjust="spacing" textLength="86" x="1810" y="2053.7813">&#171;component&#187;</text><text fill="#000000" font-family="sans-serif" font-size="14" lengthAdjust="spacing" textLength="108" x="1801" y="2072.4023">TokenRepository</text><rect fill="#E2E2F0" height="51.2422" rx="2.5" ry="2.5" style="stroke:#181818;stroke-width:0.5;" width="109" x="1926" y="44.6211"/><text fill="#000000" font-family="sans-serif" font-size="14" lengthAdjust="spacing" textLength="86" x="1937.5" y="66.7285">&#171;component&#187;</text><text fill="#000000" font-family="sans-serif" font-size="14" lengthAdjust="spacing" textLength="91" x="1937" y="85.3496">PatientService</text><rect fill="#E2E2F0" height="51.2422" rx="2.5" ry="2.5" style="stroke:#181818;stroke-width:0.5;" width="109" x="1926" y="2031.6738"/><text fill="#000000" font-family="sans-serif" font-size="14" lengthAdjust="spacing" textLength="86" x="1937.5" y="2053.7813">&#171;component&#187;</text><text fill="#000000" font-family="sans-serif" font-size="14" lengthAdjust="spacing" textLength="91" x="1937" y="2072.4023">PatientService</text><rect fill="#E2E2F0" height="51.2422" rx="2.5" ry="2.5" style="stroke:#181818;stroke-width:0.5;" width="130" x="2101.5" y="44.6211"/><text fill="#000000" font-family="sans-serif" font-size="14" lengthAdjust="spacing" textLength="86" x="2123.5" y="66.7285">&#171;component&#187;</text><text fill="#000000" font-family="sans-serif" font-size="14" lengthAdjust="spacing" textLength="112" x="2112.5" y="85.3496">PatientRepository</text><rect fill="#E2E2F0" height="51.2422" rx="2.5" ry="2.5" style="stroke:#181818;stroke-width:0.5;" width="130" x="2101.5" y="2031.6738"/><text fill="#000000" font-family="sans-serif" font-size="14" lengthAdjust="spacing" textLength="86" x="2123.5" y="2053.7813">&#171;component&#187;</text><text fill="#000000" font-family="sans-serif" font-size="14" lengthAdjust="spacing" textLength="112" x="2112.5" y="2072.4023">PatientRepository</text><rect fill="#FFFFFF" height="891.8379" style="stroke:#181818;stroke-width:1.0;" width="10" x="145" y="130.1543"/><rect fill="#FFFFFF" height="902.0996" style="stroke:#181818;stroke-width:1.0;" width="10" x="145" y="1105.5742"/><rect fill="#FFFFFF" height="755.043" style="stroke:#181818;stroke-width:1.0;" width="10" x="361" y="161.4453"/><rect fill="#FFFFFF" height="745.0137" style="stroke:#181818;stroke-width:1.0;" width="10" x="361" y="1157.1563"/><rect fill="#FFFFFF" height="218.6973" style="stroke:#181818;stroke-width:1.0;" width="10" x="571" y="254.9785"/><rect fill="#FFFFFF" height="388.4922" style="stroke:#181818;stroke-width:1.0;" width="10" x="571" y="1482.3867"/><rect fill="#FFFFFF" height="31.291" style="stroke:#181818;stroke-width:1.0;" width="10" x="900.5" y="286.2695"/><rect fill="#FFFFFF" height="31.291" style="stroke:#181818;stroke-width:1.0;" width="10" x="900.5" y="348.8516"/><rect fill="#FFFFFF" height="31.291" style="stroke:#181818;stroke-width:1.0;" width="10" x="900.5" y="1745.7148"/><rect fill="#FFFFFF" height="31.291" style="stroke:#181818;stroke-width:1.0;" width="10" x="900.5" y="1808.2969"/><rect fill="#FFFFFF" height="355.2305" style="stroke:#181818;stroke-width:1.0;" width="10" x="1018" y="529.9668"/><rect fill="#FFFFFF" height="28" style="stroke:#181818;stroke-width:1.0;" width="10" x="1023" y="818.9063"/><rect fill="#FFFFFF" height="218.3574" style="stroke:#181818;stroke-width:1.0;" width="10" x="1392" y="561.2578"/><rect fill="#FFFFFF" height="138.1641" style="stroke:#181818;stroke-width:1.0;" width="10" x="1392" y="1312.9316"/><rect fill="#FFFFFF" height="31.291" style="stroke:#181818;stroke-width:1.0;" width="10" x="1848" y="654.791"/><rect fill="#FFFFFF" height="31.291" style="stroke:#181818;stroke-width:1.0;" width="10" x="1848" y="1344.2227"/><rect fill="#FFFFFF" height="156.4551" style="stroke:#181818;stroke-width:1.0;" width="10" x="1975.5" y="1557.9688"/><rect fill="#FFFFFF" height="31.291" style="stroke:#181818;stroke-width:1.0;" width="10" x="2161.5" y="1589.2598"/><rect fill="#FFFFFF" height="31.291" style="stroke:#181818;stroke-width:1.0;" width="10" x="2161.5" y="1651.8418"/><ellipse cx="7.5" cy="129.4043" fill="none" rx="4" ry="4" style="stroke:#181818;stroke-width:1.5;"/><polygon fill="#181818" points="133,126.1543,143,130.1543,133,134.1543,137,130.1543" style="stroke:#181818;stroke-width:1.0;"/><line style="stroke:#181818;stroke-width:1.0;" x1="12" x2="139" y1="130.1543" y2="130.1543"/><text fill="#000000" font-family="sans-serif" font-size="13" font-weight="bold" lengthAdjust="spacing" textLength="7" x="15" y="124.8916">1</text><text fill="#000000" font-family="sans-serif" font-size="13" lengthAdjust="spacing" textLength="82" x="26" y="124.8916">DELETE(json)</text><polygon fill="#181818" points="349,157.4453,359,161.4453,349,165.4453,353,161.4453" style="stroke:#181818;stroke-width:1.0;"/><line style="stroke:#181818;stroke-width:1.0;" x1="155" x2="355" y1="161.4453" y2="161.4453"/><text fill="#000000" font-family="sans-serif" font-size="13" font-weight="bold" lengthAdjust="spacing" textLength="7" x="162" y="156.1826">2</text><text fill="#000000" font-family="sans-serif" font-size="13" lengthAdjust="spacing" textLength="115" x="173" y="156.1826">deleteAccount(json)</text><polygon fill="#181818" points="726,188.7363,736,192.7363,726,196.7363,730,192.7363" style="stroke:#181818;stroke-width:1.0;"/><line style="stroke:#181818;stroke-width:1.0;" x1="371" x2="732" y1="192.7363" y2="192.7363"/><text fill="#000000" font-family="sans-serif" font-size="13" font-weight="bold" lengthAdjust="spacing" textLength="7" x="378" y="187.4736">3</text><text fill="#000000" font-family="sans-serif" font-size="13" lengthAdjust="spacing" textLength="135" x="389" y="187.4736">toDTO(credentialsData)</text><rect fill="#E2E2F0" height="51.2422" rx="2.5" ry="2.5" style="stroke:#181818;stroke-width:0.5;" width="100" x="738" y="169.4453"/><text fill="#000000" font-family="sans-serif" font-size="14" lengthAdjust="spacing" textLength="86" x="745" y="191.5527">&#171;component&#187;</text><text fill="#000000" font-family="sans-serif" font-size="14" lengthAdjust="spacing" textLength="59" x="760.5" y="210.1738">UserDTO</text><polygon fill="#181818" points="559,250.9785,569,254.9785,559,258.9785,563,254.9785" style="stroke:#181818;stroke-width:1.0;"/><line style="stroke:#181818;stroke-width:1.0;" x1="371" x2="565" y1="254.9785" y2="254.9785"/><text fill="#000000" font-family="sans-serif" font-size="13" font-weight="bold" lengthAdjust="spacing" textLength="7" x="378" y="249.7158">4</text><text fill="#000000" font-family="sans-serif" font-size="13" lengthAdjust="spacing" textLength="170" x="389" y="249.7158">validatePatientUser(userDTO)</text><polygon fill="#181818" points="888.5,282.2695,898.5,286.2695,888.5,290.2695,892.5,286.2695" style="stroke:#181818;stroke-width:1.0;"/><line style="stroke:#181818;stroke-width:1.0;" x1="581" x2="894.5" y1="286.2695" y2="286.2695"/><text fill="#000000" font-family="sans-serif" font-size="13" font-weight="bold" lengthAdjust="spacing" textLength="7" x="588" y="281.0068">5</text><text fill="#000000" font-family="sans-serif" font-size="13" lengthAdjust="spacing" textLength="147" x="599" y="281.0068">findByID(usernameString)</text><polygon fill="#181818" points="592,313.5605,582,317.5605,592,321.5605,588,317.5605" style="stroke:#181818;stroke-width:1.0;"/><line style="stroke:#181818;stroke-width:1.0;stroke-dasharray:2.0,2.0;" x1="586" x2="904.5" y1="317.5605" y2="317.5605"/><text fill="#000000" font-family="sans-serif" font-size="13" font-weight="bold" lengthAdjust="spacing" textLength="7" x="598" y="312.2979">6</text><text fill="#000000" font-family="sans-serif" font-size="13" lengthAdjust="spacing" textLength="25" x="609" y="312.2979">user</text><polygon fill="#181818" points="888.5,344.8516,898.5,348.8516,888.5,352.8516,892.5,348.8516" style="stroke:#181818;stroke-width:1.0;"/><line style="stroke:#181818;stroke-width:1.0;" x1="581" x2="894.5" y1="348.8516" y2="348.8516"/><text fill="#000000" font-family="sans-serif" font-size="13" font-weight="bold" lengthAdjust="spacing" textLength="7" x="588" y="343.5889">7</text><text fill="#000000" font-family="sans-serif" font-size="13" lengthAdjust="spacing" textLength="120" x="599" y="343.5889">isUserAPatient(user)</text><polygon fill="#181818" points="592,376.1426,582,380.1426,592,384.1426,588,380.1426" style="stroke:#181818;stroke-width:1.0;"/><line style="stroke:#181818;stroke-width:1.0;stroke-dasharray:2.0,2.0;" x1="586" x2="904.5" y1="380.1426" y2="380.1426"/><text fill="#000000" font-family="sans-serif" font-size="13" font-weight="bold" lengthAdjust="spacing" textLength="7" x="598" y="374.8799">8</text><text fill="#000000" font-family="sans-serif" font-size="13" lengthAdjust="spacing" textLength="22" x="609" y="374.8799">true</text><polygon fill="#181818" points="726,407.4336,736,411.4336,726,415.4336,730,411.4336" style="stroke:#181818;stroke-width:1.0;"/><line style="stroke:#181818;stroke-width:1.0;" x1="581" x2="732" y1="411.4336" y2="411.4336"/><text fill="#000000" font-family="sans-serif" font-size="13" font-weight="bold" lengthAdjust="spacing" textLength="7" x="588" y="406.1709">9</text><text fill="#000000" font-family="sans-serif" font-size="13" lengthAdjust="spacing" textLength="70" x="599" y="406.1709">toDTO(user)</text><rect fill="#E2E2F0" height="51.2422" rx="2.5" ry="2.5" style="stroke:#181818;stroke-width:0.5;" width="100" x="738" y="388.1426"/><text fill="#000000" font-family="sans-serif" font-size="14" lengthAdjust="spacing" textLength="86" x="745" y="410.25">&#171;component&#187;</text><text fill="#000000" font-family="sans-serif" font-size="14" lengthAdjust="spacing" textLength="59" x="760.5" y="428.8711">UserDTO</text><polygon fill="#181818" points="382,469.6758,372,473.6758,382,477.6758,378,473.6758" style="stroke:#181818;stroke-width:1.0;"/><line style="stroke:#181818;stroke-width:1.0;stroke-dasharray:2.0,2.0;" x1="376" x2="575" y1="473.6758" y2="473.6758"/><text fill="#000000" font-family="sans-serif" font-size="13" font-weight="bold" lengthAdjust="spacing" textLength="14" x="388" y="468.4131">10</text><text fill="#000000" font-family="sans-serif" font-size="13" lengthAdjust="spacing" textLength="106" x="406" y="468.4131">completeUserDTO</text><polygon fill="#181818" points="1006,525.9668,1016,529.9668,1006,533.9668,1010,529.9668" style="stroke:#181818;stroke-width:1.0;"/><line style="stroke:#181818;stroke-width:1.0;" x1="371" x2="1012" y1="529.9668" y2="529.9668"/><text fill="#000000" font-family="sans-serif" font-size="13" font-weight="bold" lengthAdjust="spacing" textLength="14" x="378" y="524.7041">11</text><text fill="#000000" font-family="sans-serif" font-size="13" lengthAdjust="spacing" textLength="287" x="396" y="524.7041">sendAccountDeletionConfirmationEmail(userDTO)</text><polygon fill="#181818" points="1380,557.2578,1390,561.2578,1380,565.2578,1384,561.2578" style="stroke:#181818;stroke-width:1.0;"/><line style="stroke:#181818;stroke-width:1.0;" x1="1028" x2="1386" y1="561.2578" y2="561.2578"/><text fill="#000000" font-family="sans-serif" font-size="13" font-weight="bold" lengthAdjust="spacing" textLength="14" x="1035" y="555.9951">12</text><text fill="#000000" font-family="sans-serif" font-size="13" lengthAdjust="spacing" textLength="188" x="1053" y="555.9951">generateDeletionAccountToken()</text><polygon fill="#181818" points="1558,588.5488,1568,592.5488,1558,596.5488,1562,592.5488" style="stroke:#181818;stroke-width:1.0;"/><line style="stroke:#181818;stroke-width:1.0;" x1="1402" x2="1564" y1="592.5488" y2="592.5488"/><text fill="#000000" font-family="sans-serif" font-size="13" font-weight="bold" lengthAdjust="spacing" textLength="14" x="1409" y="587.2861">13</text><text fill="#000000" font-family="sans-serif" font-size="13" lengthAdjust="spacing" textLength="4" x="1427" y="587.2861">&#160;</text><rect fill="#E2E2F0" height="51.2422" rx="2.5" ry="2.5" style="stroke:#181818;stroke-width:0.5;" width="100" x="1570" y="569.2578"/><text fill="#000000" font-family="sans-serif" font-size="14" lengthAdjust="spacing" textLength="86" x="1577" y="591.3652">&#171;component&#187;</text><text fill="#000000" font-family="sans-serif" font-size="14" lengthAdjust="spacing" textLength="40" x="1602" y="609.9863">Token</text><polygon fill="#181818" points="1836,650.791,1846,654.791,1836,658.791,1840,654.791" style="stroke:#181818;stroke-width:1.0;"/><line style="stroke:#181818;stroke-width:1.0;" x1="1402" x2="1842" y1="654.791" y2="654.791"/><text fill="#000000" font-family="sans-serif" font-size="13" font-weight="bold" lengthAdjust="spacing" textLength="14" x="1409" y="649.5283">14</text><text fill="#000000" font-family="sans-serif" font-size="13" lengthAdjust="spacing" textLength="66" x="1427" y="649.5283">save(token)</text><polygon fill="#181818" points="1413,682.082,1403,686.082,1413,690.082,1409,686.082" style="stroke:#181818;stroke-width:1.0;"/><line style="stroke:#181818;stroke-width:1.0;stroke-dasharray:2.0,2.0;" x1="1407" x2="1852" y1="686.082" y2="686.082"/><text fill="#000000" font-family="sans-serif" font-size="13" font-weight="bold" lengthAdjust="spacing" textLength="14" x="1419" y="680.8193">15</text><text fill="#000000" font-family="sans-serif" font-size="13" lengthAdjust="spacing" textLength="33" x="1437" y="680.8193">return</text><polygon fill="#181818" points="1668,713.373,1678,717.373,1668,721.373,1672,717.373" style="stroke:#181818;stroke-width:1.0;"/><line style="stroke:#181818;stroke-width:1.0;" x1="1402" x2="1674" y1="717.373" y2="717.373"/><text fill="#000000" font-family="sans-serif" font-size="13" font-weight="bold" lengthAdjust="spacing" textLength="14" x="1409" y="712.1104">16</text><text fill="#000000" font-family="sans-serif" font-size="13" lengthAdjust="spacing" textLength="77" x="1427" y="712.1104">toDTO(token)</text><rect fill="#E2E2F0" height="51.2422" rx="2.5" ry="2.5" style="stroke:#181818;stroke-width:0.5;" width="100" x="1680" y="694.082"/><text fill="#000000" font-family="sans-serif" font-size="14" lengthAdjust="spacing" textLength="86" x="1687" y="716.1895">&#171;component&#187;</text><text fill="#000000" font-family="sans-serif" font-size="14" lengthAdjust="spacing" textLength="70" x="1697" y="734.8105">TokenDTO</text><polygon fill="#181818" points="1039,775.6152,1029,779.6152,1039,783.6152,1035,779.6152" style="stroke:#181818;stroke-width:1.0;"/><line style="stroke:#181818;stroke-width:1.0;stroke-dasharray:2.0,2.0;" x1="1033" x2="1396" y1="779.6152" y2="779.6152"/><text fill="#000000" font-family="sans-serif" font-size="13" font-weight="bold" lengthAdjust="spacing" textLength="14" x="1045" y="774.3525">17</text><text fill="#000000" font-family="sans-serif" font-size="13" lengthAdjust="spacing" textLength="58" x="1063" y="774.3525">tokenDTO</text><line style="stroke:#181818;stroke-width:1.0;" x1="1033" x2="1075" y1="810.9063" y2="810.9063"/><line style="stroke:#181818;stroke-width:1.0;" x1="1075" x2="1075" y1="810.9063" y2="823.9063"/><line style="stroke:#181818;stroke-width:1.0;" x1="1034" x2="1075" y1="823.9063" y2="823.9063"/><polygon fill="#181818" points="1044,819.9063,1034,823.9063,1044,827.9063,1040,823.9063" style="stroke:#181818;stroke-width:1.0;"/><text fill="#000000" font-family="sans-serif" font-size="13" font-weight="bold" lengthAdjust="spacing" textLength="14" x="1040" y="805.6436">18</text><text fill="#000000" font-family="sans-serif" font-size="13" lengthAdjust="spacing" textLength="332" x="1058" y="805.6436">sendEmail(emailString, tokenDTO, emailTitle, emailBody)</text><polygon fill="#181818" points="382,881.1973,372,885.1973,382,889.1973,378,885.1973" style="stroke:#181818;stroke-width:1.0;"/><line style="stroke:#181818;stroke-width:1.0;stroke-dasharray:2.0,2.0;" x1="376" x2="1022" y1="885.1973" y2="885.1973"/><text fill="#000000" font-family="sans-serif" font-size="13" font-weight="bold" lengthAdjust="spacing" textLength="14" x="388" y="879.9346">19</text><text fill="#000000" font-family="sans-serif" font-size="13" lengthAdjust="spacing" textLength="33" x="406" y="879.9346">return</text><polygon fill="#181818" points="166,912.4883,156,916.4883,166,920.4883,162,916.4883" style="stroke:#181818;stroke-width:1.0;"/><line style="stroke:#181818;stroke-width:1.0;stroke-dasharray:2.0,2.0;" x1="160" x2="365" y1="916.4883" y2="916.4883"/><text fill="#000000" font-family="sans-serif" font-size="13" font-weight="bold" lengthAdjust="spacing" textLength="14" x="172" y="911.2256">20</text><text fill="#000000" font-family="sans-serif" font-size="13" lengthAdjust="spacing" textLength="33" x="190" y="911.2256">return</text><path d="M11,931.4883 L72,931.4883 L72,940.7793 L62,950.7793 L11,950.7793 L11,931.4883 " fill="#EEEEEE" style="stroke:#000000;stroke-width:1.5;"/><rect fill="none" height="98.5039" style="stroke:#000000;stroke-width:1.5;" width="199" x="11" y="931.4883"/><text fill="#000000" font-family="sans-serif" font-size="13" font-weight="bold" lengthAdjust="spacing" textLength="16" x="26" y="946.5166">alt</text><text fill="#000000" font-family="sans-serif" font-size="11" font-weight="bold" lengthAdjust="spacing" textLength="55" x="87" y="945.3584">[success]</text><ellipse cx="7.5" cy="973.3203" fill="none" rx="4" ry="4" style="stroke:#181818;stroke-width:1.5;"/><polygon fill="#181818" points="24.5,970.0703,14.5,974.0703,24.5,978.0703,20.5,974.0703" style="stroke:#181818;stroke-width:1.0;"/><line style="stroke:#181818;stroke-width:1.0;stroke-dasharray:2.0,2.0;" x1="22.5" x2="144" y1="974.0703" y2="974.0703"/><text fill="#000000" font-family="sans-serif" font-size="13" font-weight="bold" lengthAdjust="spacing" textLength="14" x="25" y="968.8076">21</text><text fill="#000000" font-family="sans-serif" font-size="13" lengthAdjust="spacing" textLength="44" x="43" y="968.8076">200 OK</text><line style="stroke:#000000;stroke-width:1.0;stroke-dasharray:2.0,2.0;" x1="11" x2="210" y1="983.0703" y2="983.0703"/><text fill="#000000" font-family="sans-serif" font-size="11" font-weight="bold" lengthAdjust="spacing" textLength="43" x="16" y="994.9404">[failure]</text><ellipse cx="7.5" cy="1021.2422" fill="none" rx="4" ry="4" style="stroke:#181818;stroke-width:1.5;"/><polygon fill="#181818" points="24.5,1017.9922,14.5,1021.9922,24.5,1025.9922,20.5,1021.9922" style="stroke:#181818;stroke-width:1.0;"/><line style="stroke:#181818;stroke-width:1.0;stroke-dasharray:2.0,2.0;" x1="22.5" x2="149" y1="1021.9922" y2="1021.9922"/><text fill="#000000" font-family="sans-serif" font-size="13" font-weight="bold" lengthAdjust="spacing" textLength="14" x="25" y="1016.7295">22</text><text fill="#000000" font-family="sans-serif" font-size="13" lengthAdjust="spacing" textLength="100" x="43" y="1016.7295">400 Bad Request</text><ellipse cx="7.5" cy="1104.8242" fill="none" rx="4" ry="4" style="stroke:#181818;stroke-width:1.5;"/><polygon fill="#181818" points="133,1101.5742,143,1105.5742,133,1109.5742,137,1105.5742" style="stroke:#181818;stroke-width:1.0;"/><line style="stroke:#181818;stroke-width:1.0;" x1="12" x2="139" y1="1105.5742" y2="1105.5742"/><text fill="#000000" font-family="sans-serif" font-size="13" font-weight="bold" lengthAdjust="spacing" textLength="14" x="15" y="1100.3115">23</text><text fill="#000000" font-family="sans-serif" font-size="13" lengthAdjust="spacing" textLength="58" x="33" y="1100.3115">GET(json)</text><path d="M160,1066.9922 L160,1127.9922 L335,1127.9922 L335,1076.9922 L325,1066.9922 L160,1066.9922 " fill="#FEFFDD" style="stroke:#181818;stroke-width:0.5;"/><path d="M325,1066.9922 L325,1076.9922 L335,1076.9922 L325,1066.9922 " fill="#FEFFDD" style="stroke:#181818;stroke-width:0.5;"/><text fill="#000000" font-family="sans-serif" font-size="13" lengthAdjust="spacing" textLength="115" x="166" y="1086.0205">After clicking on the</text><text fill="#000000" font-family="sans-serif" font-size="13" lengthAdjust="spacing" textLength="106" x="166" y="1103.3115">link of the account</text><text fill="#000000" font-family="sans-serif" font-size="13" lengthAdjust="spacing" textLength="154" x="166" y="1120.6025">deletion confirmation email</text><polygon fill="#181818" points="349,1153.1563,359,1157.1563,349,1161.1563,353,1157.1563" style="stroke:#181818;stroke-width:1.0;"/><line style="stroke:#181818;stroke-width:1.0;" x1="155" x2="355" y1="1157.1563" y2="1157.1563"/><text fill="#000000" font-family="sans-serif" font-size="13" font-weight="bold" lengthAdjust="spacing" textLength="14" x="162" y="1151.8936">24</text><text fill="#000000" font-family="sans-serif" font-size="13" lengthAdjust="spacing" textLength="169" x="180" y="1151.8936">confirmAccountDeletion(json)</text><polygon fill="#181818" points="1668,1184.4473,1678,1188.4473,1668,1192.4473,1672,1188.4473" style="stroke:#181818;stroke-width:1.0;"/><line style="stroke:#181818;stroke-width:1.0;" x1="371" x2="1674" y1="1188.4473" y2="1188.4473"/><text fill="#000000" font-family="sans-serif" font-size="13" font-weight="bold" lengthAdjust="spacing" textLength="14" x="378" y="1183.1846">25</text><text fill="#000000" font-family="sans-serif" font-size="13" lengthAdjust="spacing" textLength="104" x="396" y="1183.1846">toDTO(tokenData)</text><rect fill="#E2E2F0" height="51.2422" rx="2.5" ry="2.5" style="stroke:#181818;stroke-width:0.5;" width="100" x="1680" y="1165.1563"/><text fill="#000000" font-family="sans-serif" font-size="14" lengthAdjust="spacing" textLength="86" x="1687" y="1187.2637">&#171;component&#187;</text><text fill="#000000" font-family="sans-serif" font-size="14" lengthAdjust="spacing" textLength="70" x="1697" y="1205.8848">TokenDTO</text><polygon fill="#181818" points="726,1246.6895,736,1250.6895,726,1254.6895,730,1250.6895" style="stroke:#181818;stroke-width:1.0;"/><line style="stroke:#181818;stroke-width:1.0;" x1="371" x2="732" y1="1250.6895" y2="1250.6895"/><text fill="#000000" font-family="sans-serif" font-size="13" font-weight="bold" lengthAdjust="spacing" textLength="14" x="378" y="1245.4268">26</text><text fill="#000000" font-family="sans-serif" font-size="13" lengthAdjust="spacing" textLength="135" x="396" y="1245.4268">toDTO(credentialsData)</text><rect fill="#E2E2F0" height="51.2422" rx="2.5" ry="2.5" style="stroke:#181818;stroke-width:0.5;" width="100" x="738" y="1227.3984"/><text fill="#000000" font-family="sans-serif" font-size="14" lengthAdjust="spacing" textLength="86" x="745" y="1249.5059">&#171;component&#187;</text><text fill="#000000" font-family="sans-serif" font-size="14" lengthAdjust="spacing" textLength="59" x="760.5" y="1268.127">UserDTO</text><polygon fill="#181818" points="1380,1308.9316,1390,1312.9316,1380,1316.9316,1384,1312.9316" style="stroke:#181818;stroke-width:1.0;"/><line style="stroke:#181818;stroke-width:1.0;" x1="371" x2="1386" y1="1312.9316" y2="1312.9316"/><text fill="#000000" font-family="sans-serif" font-size="13" font-weight="bold" lengthAdjust="spacing" textLength="14" x="378" y="1307.6689">27</text><text fill="#000000" font-family="sans-serif" font-size="13" lengthAdjust="spacing" textLength="144" x="396" y="1307.6689">validateToken(tokenDTO)</text><polygon fill="#181818" points="1836,1340.2227,1846,1344.2227,1836,1348.2227,1840,1344.2227" style="stroke:#181818;stroke-width:1.0;"/><line style="stroke:#181818;stroke-width:1.0;" x1="1402" x2="1842" y1="1344.2227" y2="1344.2227"/><text fill="#000000" font-family="sans-serif" font-size="13" font-weight="bold" lengthAdjust="spacing" textLength="14" x="1409" y="1338.96">28</text><text fill="#000000" font-family="sans-serif" font-size="13" lengthAdjust="spacing" textLength="120" x="1427" y="1338.96">findByID(tokenDtoID)</text><polygon fill="#181818" points="1413,1371.5137,1403,1375.5137,1413,1379.5137,1409,1375.5137" style="stroke:#181818;stroke-width:1.0;"/><line style="stroke:#181818;stroke-width:1.0;stroke-dasharray:2.0,2.0;" x1="1407" x2="1852" y1="1375.5137" y2="1375.5137"/><text fill="#000000" font-family="sans-serif" font-size="13" font-weight="bold" lengthAdjust="spacing" textLength="14" x="1419" y="1370.251">29</text><text fill="#000000" font-family="sans-serif" font-size="13" lengthAdjust="spacing" textLength="32" x="1437" y="1370.251">token</text><line style="stroke:#181818;stroke-width:1.0;" x1="1402" x2="1444" y1="1406.8047" y2="1406.8047"/><line style="stroke:#181818;stroke-width:1.0;" x1="1444" x2="1444" y1="1406.8047" y2="1419.8047"/><line style="stroke:#181818;stroke-width:1.0;" x1="1403" x2="1444" y1="1419.8047" y2="1419.8047"/><polygon fill="#181818" points="1413,1415.8047,1403,1419.8047,1413,1423.8047,1409,1419.8047" style="stroke:#181818;stroke-width:1.0;"/><text fill="#000000" font-family="sans-serif" font-size="13" font-weight="bold" lengthAdjust="spacing" textLength="14" x="1409" y="1401.542">30</text><text fill="#000000" font-family="sans-serif" font-size="13" lengthAdjust="spacing" textLength="181" x="1427" y="1401.542">checkTokenValidityTime(token)</text><polygon fill="#181818" points="382,1447.0957,372,1451.0957,382,1455.0957,378,1451.0957" style="stroke:#181818;stroke-width:1.0;"/><line style="stroke:#181818;stroke-width:1.0;stroke-dasharray:2.0,2.0;" x1="376" x2="1396" y1="1451.0957" y2="1451.0957"/><text fill="#000000" font-family="sans-serif" font-size="13" font-weight="bold" lengthAdjust="spacing" textLength="14" x="388" y="1445.833">31</text><text fill="#000000" font-family="sans-serif" font-size="13" lengthAdjust="spacing" textLength="22" x="406" y="1445.833">true</text><polygon fill="#181818" points="559,1478.3867,569,1482.3867,559,1486.3867,563,1482.3867" style="stroke:#181818;stroke-width:1.0;"/><line style="stroke:#181818;stroke-width:1.0;" x1="371" x2="565" y1="1482.3867" y2="1482.3867"/><text fill="#000000" font-family="sans-serif" font-size="13" font-weight="bold" lengthAdjust="spacing" textLength="14" x="378" y="1477.124">32</text><text fill="#000000" font-family="sans-serif" font-size="13" lengthAdjust="spacing" textLength="142" x="396" y="1477.124">deleteAccount(userDTO)</text><line style="stroke:#181818;stroke-width:1.0;" x1="581" x2="623" y1="1513.6777" y2="1513.6777"/><line style="stroke:#181818;stroke-width:1.0;" x1="623" x2="623" y1="1513.6777" y2="1526.6777"/><line style="stroke:#181818;stroke-width:1.0;" x1="582" x2="623" y1="1526.6777" y2="1526.6777"/><polygon fill="#181818" points="592,1522.6777,582,1526.6777,592,1530.6777,588,1526.6777" style="stroke:#181818;stroke-width:1.0;"/><text fill="#000000" font-family="sans-serif" font-size="13" font-weight="bold" lengthAdjust="spacing" textLength="14" x="588" y="1508.415">33</text><text fill="#000000" font-family="sans-serif" font-size="13" lengthAdjust="spacing" textLength="170" x="606" y="1508.415">validatePatientUser(userDTO)</text><polygon fill="#181818" points="1963.5,1553.9688,1973.5,1557.9688,1963.5,1561.9688,1967.5,1557.9688" style="stroke:#181818;stroke-width:1.0;"/><line style="stroke:#181818;stroke-width:1.0;" x1="581" x2="1969.5" y1="1557.9688" y2="1557.9688"/><text fill="#000000" font-family="sans-serif" font-size="13" font-weight="bold" lengthAdjust="spacing" textLength="14" x="588" y="1552.7061">34</text><text fill="#000000" font-family="sans-serif" font-size="13" lengthAdjust="spacing" textLength="205" x="606" y="1552.7061">deletePatientProfile(patientIDString)</text><polygon fill="#181818" points="2149.5,1585.2598,2159.5,1589.2598,2149.5,1593.2598,2153.5,1589.2598" style="stroke:#181818;stroke-width:1.0;"/><line style="stroke:#181818;stroke-width:1.0;" x1="1985.5" x2="2155.5" y1="1589.2598" y2="1589.2598"/><text fill="#000000" font-family="sans-serif" font-size="13" font-weight="bold" lengthAdjust="spacing" textLength="14" x="1992.5" y="1583.9971">35</text><text fill="#000000" font-family="sans-serif" font-size="13" lengthAdjust="spacing" textLength="139" x="2010.5" y="1583.9971">getByID(patientIDString)</text><polygon fill="#181818" points="1996.5,1616.5508,1986.5,1620.5508,1996.5,1624.5508,1992.5,1620.5508" style="stroke:#181818;stroke-width:1.0;"/><line style="stroke:#181818;stroke-width:1.0;stroke-dasharray:2.0,2.0;" x1="1990.5" x2="2165.5" y1="1620.5508" y2="1620.5508"/><text fill="#000000" font-family="sans-serif" font-size="13" font-weight="bold" lengthAdjust="spacing" textLength="14" x="2002.5" y="1615.2881">36</text><text fill="#000000" font-family="sans-serif" font-size="13" lengthAdjust="spacing" textLength="39" x="2020.5" y="1615.2881">patient</text><polygon fill="#181818" points="2149.5,1647.8418,2159.5,1651.8418,2149.5,1655.8418,2153.5,1651.8418" style="stroke:#181818;stroke-width:1.0;"/><line style="stroke:#181818;stroke-width:1.0;" x1="1985.5" x2="2155.5" y1="1651.8418" y2="1651.8418"/><text fill="#000000" font-family="sans-serif" font-size="13" font-weight="bold" lengthAdjust="spacing" textLength="14" x="1992.5" y="1646.5791">37</text><text fill="#000000" font-family="sans-serif" font-size="13" lengthAdjust="spacing" textLength="88" x="2010.5" y="1646.5791">remove(patient)</text><polygon fill="#181818" points="1996.5,1679.1328,1986.5,1683.1328,1996.5,1687.1328,1992.5,1683.1328" style="stroke:#181818;stroke-width:1.0;"/><line style="stroke:#181818;stroke-width:1.0;stroke-dasharray:2.0,2.0;" x1="1990.5" x2="2165.5" y1="1683.1328" y2="1683.1328"/><text fill="#000000" font-family="sans-serif" font-size="13" font-weight="bold" lengthAdjust="spacing" textLength="14" x="2002.5" y="1677.8701">38</text><text fill="#000000" font-family="sans-serif" font-size="13" lengthAdjust="spacing" textLength="33" x="2020.5" y="1677.8701">return</text><polygon fill="#181818" points="592,1710.4238,582,1714.4238,592,1718.4238,588,1714.4238" style="stroke:#181818;stroke-width:1.0;"/><line style="stroke:#181818;stroke-width:1.0;stroke-dasharray:2.0,2.0;" x1="586" x2="1979.5" y1="1714.4238" y2="1714.4238"/><text fill="#000000" font-family="sans-serif" font-size="13" font-weight="bold" lengthAdjust="spacing" textLength="14" x="598" y="1709.1611">39</text><text fill="#000000" font-family="sans-serif" font-size="13" lengthAdjust="spacing" textLength="33" x="616" y="1709.1611">return</text><polygon fill="#181818" points="888.5,1741.7148,898.5,1745.7148,888.5,1749.7148,892.5,1745.7148" style="stroke:#181818;stroke-width:1.0;"/><line style="stroke:#181818;stroke-width:1.0;" x1="581" x2="894.5" y1="1745.7148" y2="1745.7148"/><text fill="#000000" font-family="sans-serif" font-size="13" font-weight="bold" lengthAdjust="spacing" textLength="14" x="588" y="1740.4521">40</text><text fill="#000000" font-family="sans-serif" font-size="13" lengthAdjust="spacing" textLength="147" x="606" y="1740.4521">findByID(usernameString)</text><polygon fill="#181818" points="592,1773.0059,582,1777.0059,592,1781.0059,588,1777.0059" style="stroke:#181818;stroke-width:1.0;"/><line style="stroke:#181818;stroke-width:1.0;stroke-dasharray:2.0,2.0;" x1="586" x2="904.5" y1="1777.0059" y2="1777.0059"/><text fill="#000000" font-family="sans-serif" font-size="13" font-weight="bold" lengthAdjust="spacing" textLength="14" x="598" y="1771.7432">41</text><text fill="#000000" font-family="sans-serif" font-size="13" lengthAdjust="spacing" textLength="25" x="616" y="1771.7432">user</text><polygon fill="#181818" points="888.5,1804.2969,898.5,1808.2969,888.5,1812.2969,892.5,1808.2969" style="stroke:#181818;stroke-width:1.0;"/><line style="stroke:#181818;stroke-width:1.0;" x1="581" x2="894.5" y1="1808.2969" y2="1808.2969"/><text fill="#000000" font-family="sans-serif" font-size="13" font-weight="bold" lengthAdjust="spacing" textLength="14" x="588" y="1803.0342">42</text><text fill="#000000" font-family="sans-serif" font-size="13" lengthAdjust="spacing" textLength="74" x="606" y="1803.0342">remove(user)</text><polygon fill="#181818" points="592,1835.5879,582,1839.5879,592,1843.5879,588,1839.5879" style="stroke:#181818;stroke-width:1.0;"/><line style="stroke:#181818;stroke-width:1.0;stroke-dasharray:2.0,2.0;" x1="586" x2="904.5" y1="1839.5879" y2="1839.5879"/><text fill="#000000" font-family="sans-serif" font-size="13" font-weight="bold" lengthAdjust="spacing" textLength="14" x="598" y="1834.3252">43</text><text fill="#000000" font-family="sans-serif" font-size="13" lengthAdjust="spacing" textLength="33" x="616" y="1834.3252">return</text><polygon fill="#181818" points="382,1866.8789,372,1870.8789,382,1874.8789,378,1870.8789" style="stroke:#181818;stroke-width:1.0;"/><line style="stroke:#181818;stroke-width:1.0;stroke-dasharray:2.0,2.0;" x1="376" x2="575" y1="1870.8789" y2="1870.8789"/><text fill="#000000" font-family="sans-serif" font-size="13" font-weight="bold" lengthAdjust="spacing" textLength="14" x="388" y="1865.6162">44</text><text fill="#000000" font-family="sans-serif" font-size="13" lengthAdjust="spacing" textLength="33" x="406" y="1865.6162">return</text><polygon fill="#181818" points="166,1898.1699,156,1902.1699,166,1906.1699,162,1902.1699" style="stroke:#181818;stroke-width:1.0;"/><line style="stroke:#181818;stroke-width:1.0;stroke-dasharray:2.0,2.0;" x1="160" x2="365" y1="1902.1699" y2="1902.1699"/><text fill="#000000" font-family="sans-serif" font-size="13" font-weight="bold" lengthAdjust="spacing" textLength="14" x="172" y="1896.9072">45</text><text fill="#000000" font-family="sans-serif" font-size="13" lengthAdjust="spacing" textLength="33" x="190" y="1896.9072">return</text><path d="M11,1917.1699 L72,1917.1699 L72,1926.4609 L62,1936.4609 L11,1936.4609 L11,1917.1699 " fill="#EEEEEE" style="stroke:#000000;stroke-width:1.5;"/><rect fill="none" height="98.5039" style="stroke:#000000;stroke-width:1.5;" width="199" x="11" y="1917.1699"/><text fill="#000000" font-family="sans-serif" font-size="13" font-weight="bold" lengthAdjust="spacing" textLength="16" x="26" y="1932.1982">alt</text><text fill="#000000" font-family="sans-serif" font-size="11" font-weight="bold" lengthAdjust="spacing" textLength="55" x="87" y="1931.04">[success]</text><ellipse cx="7.5" cy="1959.002" fill="none" rx="4" ry="4" style="stroke:#181818;stroke-width:1.5;"/><polygon fill="#181818" points="24.5,1955.752,14.5,1959.752,24.5,1963.752,20.5,1959.752" style="stroke:#181818;stroke-width:1.0;"/><line style="stroke:#181818;stroke-width:1.0;stroke-dasharray:2.0,2.0;" x1="22.5" x2="144" y1="1959.752" y2="1959.752"/><text fill="#000000" font-family="sans-serif" font-size="13" font-weight="bold" lengthAdjust="spacing" textLength="14" x="25" y="1954.4893">46</text><text fill="#000000" font-family="sans-serif" font-size="13" lengthAdjust="spacing" textLength="44" x="43" y="1954.4893">200 OK</text><line style="stroke:#000000;stroke-width:1.0;stroke-dasharray:2.0,2.0;" x1="11" x2="210" y1="1968.752" y2="1968.752"/><text fill="#000000" font-family="sans-serif" font-size="11" font-weight="bold" lengthAdjust="spacing" textLength="43" x="16" y="1980.6221">[failure]</text><ellipse cx="7.5" cy="2006.9238" fill="none" rx="4" ry="4" style="stroke:#181818;stroke-width:1.5;"/><polygon fill="#181818" points="24.5,2003.6738,14.5,2007.6738,24.5,2011.6738,20.5,2007.6738" style="stroke:#181818;stroke-width:1.0;"/><line style="stroke:#181818;stroke-width:1.0;stroke-dasharray:2.0,2.0;" x1="22.5" x2="149" y1="2007.6738" y2="2007.6738"/><text fill="#000000" font-family="sans-serif" font-size="13" font-weight="bold" lengthAdjust="spacing" textLength="14" x="25" y="2002.4111">47</text><text fill="#000000" font-family="sans-serif" font-size="13" lengthAdjust="spacing" textLength="100" x="43" y="2002.4111">400 Bad Request</text><!--SRC=[pLRBRjiu5DtpAuXiuXHrqdbqKmG1d5hJCPhQWQDqCxDXfUk4ZKHwACf5W7pyN3uaKR9KgK0NtL72FUTStYTF7xNU5-ykBlOP4xhCi_D4vXS5_5U2I62USlQWM4w8vZe3Ud9_Hz-U_tR-zfpUAfb0KT3F7BxHsGqS8AD_d9qGmaejHPb_0KN8dYdD4xv7QdfoUOdKUob0wAkhVmNTob9pyN12MK6tc_iu-hxvBTCSp- -bq4fc6IWBVBzPnzlDpOZKejIFUEO9SaXn1-h04x3unNtyj_aU8RWlG2tZZONuymJ45lQou5ggvrhB_1f1HZdZMUXZz6cnkfdWP2oVe7MvUFCnMblWEAu1J32kGb5zJ81qOc6L9WJ3PpsyrUqYNaNhUFnU7jjHzd2dJVwHyojNVVGTNKOtKHpDlXPId16MQ7vW6dnj4cU4rhxaq3w533GiaaIMGdTXTMLMzWZrfVFg5OArnDCiKP2QocHPiMIQdRNCg-94wmFBU8gq_aw6Q5Owja2pgUOQwcdCTP5cnqLw_RnQMgnWETnfXJtOeV2ngN7pjYy6IrBeWGoeyiBuk_2-M-rUnI51hKeO5_J1fK5qdL9WrKgVgHQJmAgXEmeka2ylB-JqBbelL-iFhXDRAQfx4_aA4AalXgMf31mrEArsNELsxDY-xabQqDuD6rBNtOlK3o10eN75wsLiPyq2hgRZIGElk30oVRzzaWfsW9asX5q-NmwDyRpZdG9TAX76By2r1Vt029FaDKF3Jc1rDMQw2ZrHwoR4HHtiJBMr_hgcUqtjxzYiDd- -bkbpRse2vI1VeNIhj8uZ4g3gyWb6pp6WdXyiqxGe4xDjSLnTpkSrwFStR-Zc8o6G5K1tw7wfW7Hi_aIRQvRIhLdfXGuLt633656KS9LEJb7shzNs4mx9pRep7Zz4iHzoGY8yWvqcYvq6HPEC9qyOMoe5nKrBCYwUgDoPCsMkL4dgInVRhka95tNhW-6SCdGzlDDeKwRlOF6voNiyf-dKGHqsGpMfNMzMjJQrHxjpsk6rN2txktAuAIroKay6eEGHaYVh-MTp3QwVOvx3G8isEUaEwE2A_UkilJb_P95DsOSjKF1Sg8Kz2j-mEvx1REy-LykZRHY-DKZ8r13xZ3s0jWaRvN8P2C7p8oyzIHZIFdI_9mfoUQWlDUJ0Y0V7ysZOWNPc1f7VVPZyqClafprCVAW67oI3IiUNxDCQMGbDaV-Q6-5_]--></g></svg>