<?xml version="1.0" encoding="us-ascii" standalone="no"?><svg xmlns="http://www.w3.org/2000/svg" xmlns:xlink="http://www.w3.org/1999/xlink" contentStyleType="text/css" height="1799px" preserveAspectRatio="none" style="width:1182px;height:1799px;background:#FFFFFF;" version="1.1" viewBox="0 0 1182 1799" width="1182px" zoomAndPan="magnify"><defs/><g><text fill="#000000" font-family="sans-serif" font-size="14" font-weight="bold" lengthAdjust="spacing" textLength="230" x="475.25" y="30.1074">US 5.1.15. Process View (Level 3)</text><rect fill="#FFFFFF" height="388.8613" style="stroke:#181818;stroke-width:1.0;" width="10" x="145" y="130.1543"/><rect fill="#FFFFFF" height="536.9766" style="stroke:#181818;stroke-width:1.0;" width="10" x="145" y="575.3066"/><rect fill="#FFFFFF" height="523.8691" style="stroke:#181818;stroke-width:1.0;" width="10" x="145" y="1194.8652"/><rect fill="#FFFFFF" height="326.2793" style="stroke:#181818;stroke-width:1.0;" width="10" x="306" y="161.4453"/><rect fill="#FFFFFF" height="28" style="stroke:#181818;stroke-width:1.0;" width="10" x="311" y="421.4336"/><rect fill="#FFFFFF" height="462.749" style="stroke:#181818;stroke-width:1.0;" width="10" x="306" y="618.2432"/><rect fill="#FFFFFF" height="28" style="stroke:#181818;stroke-width:1.0;" width="10" x="311" y="1014.7012"/><rect fill="#FFFFFF" height="157.7461" style="stroke:#181818;stroke-width:1.0;" width="10" x="306" y="1226.1563"/><rect fill="#FFFFFF" height="157.7461" style="stroke:#181818;stroke-width:1.0;" width="10" x="306" y="1448.4844"/><rect fill="#FFFFFF" height="189.4063" style="stroke:#181818;stroke-width:1.0;" width="10" x="629.5" y="192.7363"/><rect fill="#FFFFFF" height="251.9883" style="stroke:#181818;stroke-width:1.0;" width="10" x="629.5" y="723.4219"/><rect fill="#FFFFFF" height="31.291" style="stroke:#181818;stroke-width:1.0;" width="10" x="819.5" y="224.0273"/><rect fill="#FFFFFF" height="31.291" style="stroke:#181818;stroke-width:1.0;" width="10" x="819.5" y="817.2949"/><rect fill="#FFFFFF" height="31.291" style="stroke:#181818;stroke-width:1.0;" width="10" x="1057" y="754.7129"/><rect fill="none" height="81.5332" style="stroke:#000000;stroke-width:1.5;" width="360.5" x="587" y="270.3184"/><rect fill="none" height="81.5332" style="stroke:#000000;stroke-width:1.5;" width="360.5" x="587" y="863.5859"/><rect fill="none" height="461.9473" style="stroke:#000000;stroke-width:1.5;" width="936.5" x="11" y="1152.2832"/><rect fill="none" height="98.5039" style="stroke:#000000;stroke-width:1.5;" width="182.5" x="11" y="1628.2305"/><line style="stroke:#181818;stroke-width:0.5;stroke-dasharray:5.0,5.0;" x1="149.5" x2="149.5" y1="96.8633" y2="1743.7344"/><line style="stroke:#181818;stroke-width:0.5;stroke-dasharray:5.0,5.0;" x1="310.5" x2="310.5" y1="96.8633" y2="1743.7344"/><line style="stroke:#181818;stroke-width:0.5;stroke-dasharray:5.0,5.0;" x1="507" x2="507" y1="679.0098" y2="1743.7344"/><line style="stroke:#181818;stroke-width:0.5;stroke-dasharray:5.0,5.0;" x1="634" x2="634" y1="96.8633" y2="1743.7344"/><line style="stroke:#181818;stroke-width:0.5;stroke-dasharray:5.0,5.0;" x1="824.5" x2="824.5" y1="96.8633" y2="1743.7344"/><line style="stroke:#181818;stroke-width:0.5;stroke-dasharray:5.0,5.0;" x1="909.5" x2="909.5" y1="1497.6055" y2="1743.7344"/><line style="stroke:#181818;stroke-width:0.5;stroke-dasharray:5.0,5.0;" x1="1061.5" x2="1061.5" y1="96.8633" y2="1743.7344"/><rect fill="#E2E2F0" height="51.2422" rx="2.5" ry="2.5" style="stroke:#181818;stroke-width:0.5;" width="67" x="116.5" y="44.6211"/><text fill="#000000" font-family="sans-serif" font-size="14" lengthAdjust="spacing" textLength="49" x="125.5" y="66.7285">&#171;route&#187;</text><text fill="#000000" font-family="sans-serif" font-size="14" lengthAdjust="spacing" textLength="49" x="127.5" y="85.3496">Routing</text><rect fill="#E2E2F0" height="51.2422" rx="2.5" ry="2.5" style="stroke:#181818;stroke-width:0.5;" width="67" x="116.5" y="1742.7344"/><text fill="#000000" font-family="sans-serif" font-size="14" lengthAdjust="spacing" textLength="49" x="125.5" y="1764.8418">&#171;route&#187;</text><text fill="#000000" font-family="sans-serif" font-size="14" lengthAdjust="spacing" textLength="49" x="127.5" y="1783.4629">Routing</text><rect fill="#E2E2F0" height="51.2422" rx="2.5" ry="2.5" style="stroke:#181818;stroke-width:0.5;" width="169" x="226.5" y="44.6211"/><text fill="#000000" font-family="sans-serif" font-size="14" lengthAdjust="spacing" textLength="75" x="273.5" y="66.7285">&#171;controller&#187;</text><text fill="#000000" font-family="sans-serif" font-size="14" lengthAdjust="spacing" textLength="151" x="237.5" y="85.3496">XProfileListingController</text><rect fill="#E2E2F0" height="51.2422" rx="2.5" ry="2.5" style="stroke:#181818;stroke-width:0.5;" width="169" x="226.5" y="1742.7344"/><text fill="#000000" font-family="sans-serif" font-size="14" lengthAdjust="spacing" textLength="75" x="273.5" y="1764.8418">&#171;controller&#187;</text><text fill="#000000" font-family="sans-serif" font-size="14" lengthAdjust="spacing" textLength="151" x="237.5" y="1783.4629">XProfileListingController</text><rect fill="#E2E2F0" height="51.2422" rx="2.5" ry="2.5" style="stroke:#181818;stroke-width:0.5;" width="160" x="427" y="1742.7344"/><text fill="#000000" font-family="sans-serif" font-size="14" lengthAdjust="spacing" textLength="36" x="489" y="1764.8418">&#171;dto&#187;</text><text fill="#000000" font-family="sans-serif" font-size="14" lengthAdjust="spacing" textLength="142" x="438" y="1783.4629">QueryParametersDTO</text><rect fill="#E2E2F0" height="51.2422" rx="2.5" ry="2.5" style="stroke:#181818;stroke-width:0.5;" width="75" x="597" y="44.6211"/><text fill="#000000" font-family="sans-serif" font-size="14" lengthAdjust="spacing" textLength="61" x="604" y="66.7285">&#171;service&#187;</text><text fill="#000000" font-family="sans-serif" font-size="14" lengthAdjust="spacing" textLength="55" x="609" y="85.3496">XService</text><rect fill="#E2E2F0" height="51.2422" rx="2.5" ry="2.5" style="stroke:#181818;stroke-width:0.5;" width="75" x="597" y="1742.7344"/><text fill="#000000" font-family="sans-serif" font-size="14" lengthAdjust="spacing" textLength="61" x="604" y="1764.8418">&#171;service&#187;</text><text fill="#000000" font-family="sans-serif" font-size="14" lengthAdjust="spacing" textLength="55" x="609" y="1783.4629">XService</text><rect fill="#E2E2F0" height="51.2422" rx="2.5" ry="2.5" style="stroke:#181818;stroke-width:0.5;" width="94" x="777.5" y="44.6211"/><text fill="#000000" font-family="sans-serif" font-size="14" lengthAdjust="spacing" textLength="79" x="785" y="66.7285">&#171;repository&#187;</text><text fill="#000000" font-family="sans-serif" font-size="14" lengthAdjust="spacing" textLength="76" x="788.5" y="85.3496">XRepository</text><rect fill="#E2E2F0" height="51.2422" rx="2.5" ry="2.5" style="stroke:#181818;stroke-width:0.5;" width="94" x="777.5" y="1742.7344"/><text fill="#000000" font-family="sans-serif" font-size="14" lengthAdjust="spacing" textLength="79" x="785" y="1764.8418">&#171;repository&#187;</text><text fill="#000000" font-family="sans-serif" font-size="14" lengthAdjust="spacing" textLength="76" x="788.5" y="1783.4629">XRepository</text><rect fill="#E2E2F0" height="51.2422" rx="2.5" ry="2.5" style="stroke:#181818;stroke-width:0.5;" width="56" x="881.5" y="1742.7344"/><text fill="#000000" font-family="sans-serif" font-size="14" lengthAdjust="spacing" textLength="36" x="891.5" y="1764.8418">&#171;dto&#187;</text><text fill="#000000" font-family="sans-serif" font-size="14" lengthAdjust="spacing" textLength="38" x="892.5" y="1783.4629">XDTO</text><rect fill="#E2E2F0" height="51.2422" rx="2.5" ry="2.5" style="stroke:#181818;stroke-width:0.5;" width="229" x="947.5" y="44.6211"/><text fill="#000000" font-family="sans-serif" font-size="14" lengthAdjust="spacing" textLength="61" x="1031.5" y="66.7285">&#171;service&#187;</text><text fill="#000000" font-family="sans-serif" font-size="14" lengthAdjust="spacing" textLength="211" x="958.5" y="85.3496">DynamicQueryGenerationService</text><rect fill="#E2E2F0" height="51.2422" rx="2.5" ry="2.5" style="stroke:#181818;stroke-width:0.5;" width="229" x="947.5" y="1742.7344"/><text fill="#000000" font-family="sans-serif" font-size="14" lengthAdjust="spacing" textLength="61" x="1031.5" y="1764.8418">&#171;service&#187;</text><text fill="#000000" font-family="sans-serif" font-size="14" lengthAdjust="spacing" textLength="211" x="958.5" y="1783.4629">DynamicQueryGenerationService</text><rect fill="#FFFFFF" height="388.8613" style="stroke:#181818;stroke-width:1.0;" width="10" x="145" y="130.1543"/><rect fill="#FFFFFF" height="536.9766" style="stroke:#181818;stroke-width:1.0;" width="10" x="145" y="575.3066"/><rect fill="#FFFFFF" height="523.8691" style="stroke:#181818;stroke-width:1.0;" width="10" x="145" y="1194.8652"/><rect fill="#FFFFFF" height="326.2793" style="stroke:#181818;stroke-width:1.0;" width="10" x="306" y="161.4453"/><rect fill="#FFFFFF" height="28" style="stroke:#181818;stroke-width:1.0;" width="10" x="311" y="421.4336"/><rect fill="#FFFFFF" height="462.749" style="stroke:#181818;stroke-width:1.0;" width="10" x="306" y="618.2432"/><rect fill="#FFFFFF" height="28" style="stroke:#181818;stroke-width:1.0;" width="10" x="311" y="1014.7012"/><rect fill="#FFFFFF" height="157.7461" style="stroke:#181818;stroke-width:1.0;" width="10" x="306" y="1226.1563"/><rect fill="#FFFFFF" height="157.7461" style="stroke:#181818;stroke-width:1.0;" width="10" x="306" y="1448.4844"/><rect fill="#FFFFFF" height="189.4063" style="stroke:#181818;stroke-width:1.0;" width="10" x="629.5" y="192.7363"/><rect fill="#FFFFFF" height="251.9883" style="stroke:#181818;stroke-width:1.0;" width="10" x="629.5" y="723.4219"/><rect fill="#FFFFFF" height="31.291" style="stroke:#181818;stroke-width:1.0;" width="10" x="819.5" y="224.0273"/><rect fill="#FFFFFF" height="31.291" style="stroke:#181818;stroke-width:1.0;" width="10" x="819.5" y="817.2949"/><rect fill="#FFFFFF" height="31.291" style="stroke:#181818;stroke-width:1.0;" width="10" x="1057" y="754.7129"/><ellipse cx="7.5" cy="129.4043" fill="none" rx="4" ry="4" style="stroke:#181818;stroke-width:1.5;"/><polygon fill="#181818" points="133,126.1543,143,130.1543,133,134.1543,137,130.1543" style="stroke:#181818;stroke-width:1.0;"/><line style="stroke:#181818;stroke-width:1.0;" x1="12" x2="139" y1="130.1543" y2="130.1543"/><text fill="#000000" font-family="sans-serif" font-size="13" font-weight="bold" lengthAdjust="spacing" textLength="7" x="15" y="124.8916">1</text><text fill="#000000" font-family="sans-serif" font-size="13" lengthAdjust="spacing" textLength="77" x="26" y="124.8916">GET() /api/Xs</text><polygon fill="#181818" points="294,157.4453,304,161.4453,294,165.4453,298,161.4453" style="stroke:#181818;stroke-width:1.0;"/><line style="stroke:#181818;stroke-width:1.0;" x1="155" x2="300" y1="161.4453" y2="161.4453"/><text fill="#000000" font-family="sans-serif" font-size="13" font-weight="bold" lengthAdjust="spacing" textLength="7" x="162" y="156.1826">2</text><text fill="#000000" font-family="sans-serif" font-size="13" lengthAdjust="spacing" textLength="91" x="173" y="156.1826">getAllXProfiles()</text><polygon fill="#181818" points="617.5,188.7363,627.5,192.7363,617.5,196.7363,621.5,192.7363" style="stroke:#181818;stroke-width:1.0;"/><line style="stroke:#181818;stroke-width:1.0;" x1="316" x2="623.5" y1="192.7363" y2="192.7363"/><text fill="#000000" font-family="sans-serif" font-size="13" font-weight="bold" lengthAdjust="spacing" textLength="7" x="323" y="187.4736">3</text><text fill="#000000" font-family="sans-serif" font-size="13" lengthAdjust="spacing" textLength="84" x="334" y="187.4736">getAllProfiles()</text><polygon fill="#181818" points="807.5,220.0273,817.5,224.0273,807.5,228.0273,811.5,224.0273" style="stroke:#181818;stroke-width:1.0;"/><line style="stroke:#181818;stroke-width:1.0;" x1="639.5" x2="813.5" y1="224.0273" y2="224.0273"/><text fill="#000000" font-family="sans-serif" font-size="13" font-weight="bold" lengthAdjust="spacing" textLength="7" x="646.5" y="218.7646">4</text><text fill="#000000" font-family="sans-serif" font-size="13" lengthAdjust="spacing" textLength="43" x="657.5" y="218.7646">findAll()</text><polygon fill="#181818" points="650.5,251.3184,640.5,255.3184,650.5,259.3184,646.5,255.3184" style="stroke:#181818;stroke-width:1.0;"/><line style="stroke:#181818;stroke-width:1.0;stroke-dasharray:2.0,2.0;" x1="644.5" x2="823.5" y1="255.3184" y2="255.3184"/><text fill="#000000" font-family="sans-serif" font-size="13" font-weight="bold" lengthAdjust="spacing" textLength="7" x="656.5" y="250.0557">5</text><text fill="#000000" font-family="sans-serif" font-size="13" lengthAdjust="spacing" textLength="69" x="667.5" y="250.0557">XprofilesList</text><path d="M587,270.3184 L660,270.3184 L660,279.6094 L650,289.6094 L587,289.6094 L587,270.3184 " fill="#EEEEEE" style="stroke:#000000;stroke-width:1.5;"/><rect fill="none" height="81.5332" style="stroke:#000000;stroke-width:1.5;" width="360.5" x="587" y="270.3184"/><text fill="#000000" font-family="sans-serif" font-size="13" font-weight="bold" lengthAdjust="spacing" textLength="28" x="602" y="285.3467">loop</text><text fill="#000000" font-family="sans-serif" font-size="11" font-weight="bold" lengthAdjust="spacing" textLength="160" x="675" y="284.1885">[for all the profiles in the list]</text><polygon fill="#181818" points="869.5,308.9004,879.5,312.9004,869.5,316.9004,873.5,312.9004" style="stroke:#181818;stroke-width:1.0;"/><line style="stroke:#181818;stroke-width:1.0;" x1="639.5" x2="875.5" y1="312.9004" y2="312.9004"/><text fill="#000000" font-family="sans-serif" font-size="13" font-weight="bold" lengthAdjust="spacing" textLength="7" x="646.5" y="307.6377">6</text><text fill="#000000" font-family="sans-serif" font-size="13" lengthAdjust="spacing" textLength="86" x="657.5" y="307.6377">toDTO(Xprofile)</text><rect fill="#E2E2F0" height="51.2422" rx="2.5" ry="2.5" style="stroke:#181818;stroke-width:0.5;" width="56" x="881.5" y="289.6094"/><text fill="#000000" font-family="sans-serif" font-size="14" lengthAdjust="spacing" textLength="36" x="891.5" y="311.7168">&#171;dto&#187;</text><text fill="#000000" font-family="sans-serif" font-size="14" lengthAdjust="spacing" textLength="38" x="892.5" y="330.3379">XDTO</text><polygon fill="#181818" points="327,378.1426,317,382.1426,327,386.1426,323,382.1426" style="stroke:#181818;stroke-width:1.0;"/><line style="stroke:#181818;stroke-width:1.0;stroke-dasharray:2.0,2.0;" x1="321" x2="633.5" y1="382.1426" y2="382.1426"/><text fill="#000000" font-family="sans-serif" font-size="13" font-weight="bold" lengthAdjust="spacing" textLength="7" x="333" y="376.8799">7</text><text fill="#000000" font-family="sans-serif" font-size="13" lengthAdjust="spacing" textLength="88" x="344" y="376.8799">XprofileDTOList</text><line style="stroke:#181818;stroke-width:1.0;" x1="321" x2="363" y1="413.4336" y2="413.4336"/><line style="stroke:#181818;stroke-width:1.0;" x1="363" x2="363" y1="413.4336" y2="426.4336"/><line style="stroke:#181818;stroke-width:1.0;" x1="322" x2="363" y1="426.4336" y2="426.4336"/><polygon fill="#181818" points="332,422.4336,322,426.4336,332,430.4336,328,426.4336" style="stroke:#181818;stroke-width:1.0;"/><text fill="#000000" font-family="sans-serif" font-size="13" font-weight="bold" lengthAdjust="spacing" textLength="7" x="328" y="408.1709">8</text><text fill="#000000" font-family="sans-serif" font-size="13" lengthAdjust="spacing" textLength="120" x="339" y="408.1709">json(XprofileDTOList)</text><polygon fill="#181818" points="166,483.7246,156,487.7246,166,491.7246,162,487.7246" style="stroke:#181818;stroke-width:1.0;"/><line style="stroke:#181818;stroke-width:1.0;stroke-dasharray:2.0,2.0;" x1="160" x2="310" y1="487.7246" y2="487.7246"/><text fill="#000000" font-family="sans-serif" font-size="13" font-weight="bold" lengthAdjust="spacing" textLength="7" x="172" y="482.4619">9</text><text fill="#000000" font-family="sans-serif" font-size="13" lengthAdjust="spacing" textLength="24" x="183" y="482.4619">json</text><ellipse cx="7.5" cy="518.2656" fill="none" rx="4" ry="4" style="stroke:#181818;stroke-width:1.5;"/><polygon fill="#181818" points="24.5,515.0156,14.5,519.0156,24.5,523.0156,20.5,519.0156" style="stroke:#181818;stroke-width:1.0;"/><line style="stroke:#181818;stroke-width:1.0;stroke-dasharray:2.0,2.0;" x1="22.5" x2="149" y1="519.0156" y2="519.0156"/><text fill="#000000" font-family="sans-serif" font-size="13" font-weight="bold" lengthAdjust="spacing" textLength="14" x="25" y="513.7529">10</text><text fill="#000000" font-family="sans-serif" font-size="13" lengthAdjust="spacing" textLength="46" x="43" y="513.7529">ok(json)</text><ellipse cx="7.5" cy="574.5566" fill="none" rx="4" ry="4" style="stroke:#181818;stroke-width:1.5;"/><polygon fill="#181818" points="133,571.3066,143,575.3066,133,579.3066,137,575.3066" style="stroke:#181818;stroke-width:1.0;"/><line style="stroke:#181818;stroke-width:1.0;" x1="12" x2="139" y1="575.3066" y2="575.3066"/><text fill="#000000" font-family="sans-serif" font-size="13" font-weight="bold" lengthAdjust="spacing" textLength="14" x="15" y="570.0439">11</text><text fill="#000000" font-family="sans-serif" font-size="13" lengthAdjust="spacing" textLength="67" x="33" y="570.0439">POST(json)</text><polygon fill="#181818" points="294,614.2432,304,618.2432,294,622.2432,298,618.2432" style="stroke:#181818;stroke-width:1.0;"/><line style="stroke:#181818;stroke-width:1.0;" x1="155" x2="300" y1="618.2432" y2="618.2432"/><text fill="#000000" font-family="sans-serif" font-size="13" font-weight="bold" lengthAdjust="spacing" textLength="14" x="162" y="612.9805">12</text><text fill="#000000" font-family="sans-serif" font-size="13" lengthAdjust="spacing" textLength="106" x="180" y="612.9805">filterXProfiles(json)</text><path d="M18,588.3066 L18,632.3066 L140,632.3066 L140,598.3066 L130,588.3066 L18,588.3066 " fill="#FEFFDD" style="stroke:#181818;stroke-width:0.5;"/><path d="M130,588.3066 L130,598.3066 L140,598.3066 L130,588.3066 " fill="#FEFFDD" style="stroke:#181818;stroke-width:0.5;"/><text fill="#000000" font-family="sans-serif" font-size="13" lengthAdjust="spacing" textLength="99" x="24" y="607.335">json contains the</text><text fill="#000000" font-family="sans-serif" font-size="13" lengthAdjust="spacing" textLength="101" x="24" y="624.626">query parameters</text><polygon fill="#181818" points="415,657.1797,425,661.1797,415,665.1797,419,661.1797" style="stroke:#181818;stroke-width:1.0;"/><line style="stroke:#181818;stroke-width:1.0;" x1="316" x2="421" y1="661.1797" y2="661.1797"/><text fill="#000000" font-family="sans-serif" font-size="13" font-weight="bold" lengthAdjust="spacing" textLength="14" x="323" y="655.917">13</text><text fill="#000000" font-family="sans-serif" font-size="13" lengthAdjust="spacing" textLength="69" x="341" y="655.917">toDTO(json)</text><rect fill="#E2E2F0" height="51.2422" rx="2.5" ry="2.5" style="stroke:#181818;stroke-width:0.5;" width="160" x="427" y="637.8887"/><text fill="#000000" font-family="sans-serif" font-size="14" lengthAdjust="spacing" textLength="36" x="489" y="659.9961">&#171;dto&#187;</text><text fill="#000000" font-family="sans-serif" font-size="14" lengthAdjust="spacing" textLength="142" x="438" y="678.6172">QueryParametersDTO</text><polygon fill="#181818" points="617.5,719.4219,627.5,723.4219,617.5,727.4219,621.5,723.4219" style="stroke:#181818;stroke-width:1.0;"/><line style="stroke:#181818;stroke-width:1.0;" x1="316" x2="623.5" y1="723.4219" y2="723.4219"/><text fill="#000000" font-family="sans-serif" font-size="13" font-weight="bold" lengthAdjust="spacing" textLength="14" x="323" y="718.1592">14</text><text fill="#000000" font-family="sans-serif" font-size="13" lengthAdjust="spacing" textLength="207" x="341" y="718.1592">filterXProfiles(queryParametersDTO)</text><polygon fill="#181818" points="1045,750.7129,1055,754.7129,1045,758.7129,1049,754.7129" style="stroke:#181818;stroke-width:1.0;"/><line style="stroke:#181818;stroke-width:1.0;" x1="639.5" x2="1051" y1="754.7129" y2="754.7129"/><text fill="#000000" font-family="sans-serif" font-size="13" font-weight="bold" lengthAdjust="spacing" textLength="14" x="646.5" y="749.4502">15</text><text fill="#000000" font-family="sans-serif" font-size="13" lengthAdjust="spacing" textLength="243" x="664.5" y="749.4502">generateQueryText(queryParametersDTO)</text><polygon fill="#181818" points="650.5,782.0039,640.5,786.0039,650.5,790.0039,646.5,786.0039" style="stroke:#181818;stroke-width:1.0;"/><line style="stroke:#181818;stroke-width:1.0;stroke-dasharray:2.0,2.0;" x1="644.5" x2="1061" y1="786.0039" y2="786.0039"/><text fill="#000000" font-family="sans-serif" font-size="13" font-weight="bold" lengthAdjust="spacing" textLength="14" x="656.5" y="780.7412">16</text><text fill="#000000" font-family="sans-serif" font-size="13" lengthAdjust="spacing" textLength="32" x="674.5" y="780.7412">query</text><polygon fill="#181818" points="807.5,813.2949,817.5,817.2949,807.5,821.2949,811.5,817.2949" style="stroke:#181818;stroke-width:1.0;"/><line style="stroke:#181818;stroke-width:1.0;" x1="639.5" x2="813.5" y1="817.2949" y2="817.2949"/><text fill="#000000" font-family="sans-serif" font-size="13" font-weight="bold" lengthAdjust="spacing" textLength="14" x="646.5" y="812.0322">17</text><text fill="#000000" font-family="sans-serif" font-size="13" lengthAdjust="spacing" textLength="143" x="664.5" y="812.0322">findAllConditioned(query)</text><polygon fill="#181818" points="650.5,844.5859,640.5,848.5859,650.5,852.5859,646.5,848.5859" style="stroke:#181818;stroke-width:1.0;"/><line style="stroke:#181818;stroke-width:1.0;stroke-dasharray:2.0,2.0;" x1="644.5" x2="823.5" y1="848.5859" y2="848.5859"/><text fill="#000000" font-family="sans-serif" font-size="13" font-weight="bold" lengthAdjust="spacing" textLength="14" x="656.5" y="843.3232">18</text><text fill="#000000" font-family="sans-serif" font-size="13" lengthAdjust="spacing" textLength="69" x="674.5" y="843.3232">XprofilesList</text><path d="M587,863.5859 L660,863.5859 L660,872.877 L650,882.877 L587,882.877 L587,863.5859 " fill="#EEEEEE" style="stroke:#000000;stroke-width:1.5;"/><rect fill="none" height="81.5332" style="stroke:#000000;stroke-width:1.5;" width="360.5" x="587" y="863.5859"/><text fill="#000000" font-family="sans-serif" font-size="13" font-weight="bold" lengthAdjust="spacing" textLength="28" x="602" y="878.6143">loop</text><text fill="#000000" font-family="sans-serif" font-size="11" font-weight="bold" lengthAdjust="spacing" textLength="160" x="675" y="877.4561">[for all the profiles in the list]</text><polygon fill="#181818" points="869.5,902.168,879.5,906.168,869.5,910.168,873.5,906.168" style="stroke:#181818;stroke-width:1.0;"/><line style="stroke:#181818;stroke-width:1.0;" x1="639.5" x2="875.5" y1="906.168" y2="906.168"/><text fill="#000000" font-family="sans-serif" font-size="13" font-weight="bold" lengthAdjust="spacing" textLength="14" x="646.5" y="900.9053">19</text><text fill="#000000" font-family="sans-serif" font-size="13" lengthAdjust="spacing" textLength="86" x="664.5" y="900.9053">toDTO(Xprofile)</text><rect fill="#E2E2F0" height="51.2422" rx="2.5" ry="2.5" style="stroke:#181818;stroke-width:0.5;" width="56" x="881.5" y="882.877"/><text fill="#000000" font-family="sans-serif" font-size="14" lengthAdjust="spacing" textLength="36" x="891.5" y="904.9844">&#171;dto&#187;</text><text fill="#000000" font-family="sans-serif" font-size="14" lengthAdjust="spacing" textLength="38" x="892.5" y="923.6055">XDTO</text><polygon fill="#181818" points="327,971.4102,317,975.4102,327,979.4102,323,975.4102" style="stroke:#181818;stroke-width:1.0;"/><line style="stroke:#181818;stroke-width:1.0;stroke-dasharray:2.0,2.0;" x1="321" x2="633.5" y1="975.4102" y2="975.4102"/><text fill="#000000" font-family="sans-serif" font-size="13" font-weight="bold" lengthAdjust="spacing" textLength="14" x="333" y="970.1475">20</text><text fill="#000000" font-family="sans-serif" font-size="13" lengthAdjust="spacing" textLength="135" x="351" y="970.1475">filteredXProfilesDTOList</text><line style="stroke:#181818;stroke-width:1.0;" x1="321" x2="363" y1="1006.7012" y2="1006.7012"/><line style="stroke:#181818;stroke-width:1.0;" x1="363" x2="363" y1="1006.7012" y2="1019.7012"/><line style="stroke:#181818;stroke-width:1.0;" x1="322" x2="363" y1="1019.7012" y2="1019.7012"/><polygon fill="#181818" points="332,1015.7012,322,1019.7012,332,1023.7012,328,1019.7012" style="stroke:#181818;stroke-width:1.0;"/><text fill="#000000" font-family="sans-serif" font-size="13" font-weight="bold" lengthAdjust="spacing" textLength="14" x="328" y="1001.4385">21</text><text fill="#000000" font-family="sans-serif" font-size="13" lengthAdjust="spacing" textLength="120" x="346" y="1001.4385">json(XprofileDTOList)</text><polygon fill="#181818" points="166,1076.9922,156,1080.9922,166,1084.9922,162,1080.9922" style="stroke:#181818;stroke-width:1.0;"/><line style="stroke:#181818;stroke-width:1.0;stroke-dasharray:2.0,2.0;" x1="160" x2="310" y1="1080.9922" y2="1080.9922"/><text fill="#000000" font-family="sans-serif" font-size="13" font-weight="bold" lengthAdjust="spacing" textLength="14" x="172" y="1075.7295">22</text><text fill="#000000" font-family="sans-serif" font-size="13" lengthAdjust="spacing" textLength="24" x="190" y="1075.7295">json</text><ellipse cx="7.5" cy="1111.5332" fill="none" rx="4" ry="4" style="stroke:#181818;stroke-width:1.5;"/><polygon fill="#181818" points="24.5,1108.2832,14.5,1112.2832,24.5,1116.2832,20.5,1112.2832" style="stroke:#181818;stroke-width:1.0;"/><line style="stroke:#181818;stroke-width:1.0;stroke-dasharray:2.0,2.0;" x1="22.5" x2="149" y1="1112.2832" y2="1112.2832"/><text fill="#000000" font-family="sans-serif" font-size="13" font-weight="bold" lengthAdjust="spacing" textLength="14" x="25" y="1107.0205">23</text><text fill="#000000" font-family="sans-serif" font-size="13" lengthAdjust="spacing" textLength="46" x="43" y="1107.0205">ok(json)</text><path d="M11,1152.2832 L72,1152.2832 L72,1161.5742 L62,1171.5742 L11,1171.5742 L11,1152.2832 " fill="#EEEEEE" style="stroke:#000000;stroke-width:1.5;"/><rect fill="none" height="461.9473" style="stroke:#000000;stroke-width:1.5;" width="936.5" x="11" y="1152.2832"/><text fill="#000000" font-family="sans-serif" font-size="13" font-weight="bold" lengthAdjust="spacing" textLength="16" x="26" y="1167.3115">alt</text><text fill="#000000" font-family="sans-serif" font-size="11" font-weight="bold" lengthAdjust="spacing" textLength="78" x="87" y="1166.1533">[edit X profile]</text><ellipse cx="7.5" cy="1194.1152" fill="none" rx="4" ry="4" style="stroke:#181818;stroke-width:1.5;"/><polygon fill="#181818" points="133,1190.8652,143,1194.8652,133,1198.8652,137,1194.8652" style="stroke:#181818;stroke-width:1.0;"/><line style="stroke:#181818;stroke-width:1.0;" x1="12" x2="139" y1="1194.8652" y2="1194.8652"/><text fill="#000000" font-family="sans-serif" font-size="13" font-weight="bold" lengthAdjust="spacing" textLength="14" x="15" y="1189.6025">24</text><text fill="#000000" font-family="sans-serif" font-size="13" lengthAdjust="spacing" textLength="57" x="33" y="1189.6025">PUT(json)</text><polygon fill="#181818" points="294,1222.1563,304,1226.1563,294,1230.1563,298,1226.1563" style="stroke:#181818;stroke-width:1.0;"/><line style="stroke:#181818;stroke-width:1.0;" x1="155" x2="300" y1="1226.1563" y2="1226.1563"/><text fill="#000000" font-family="sans-serif" font-size="13" font-weight="bold" lengthAdjust="spacing" textLength="14" x="162" y="1220.8936">25</text><text fill="#000000" font-family="sans-serif" font-size="13" lengthAdjust="spacing" textLength="114" x="180" y="1220.8936">updateXProfile(json)</text><polygon fill="#181818" points="869.5,1253.4473,879.5,1257.4473,869.5,1261.4473,873.5,1257.4473" style="stroke:#181818;stroke-width:1.0;"/><line style="stroke:#181818;stroke-width:1.0;" x1="316" x2="875.5" y1="1257.4473" y2="1257.4473"/><text fill="#000000" font-family="sans-serif" font-size="13" font-weight="bold" lengthAdjust="spacing" textLength="14" x="323" y="1252.1846">26</text><text fill="#000000" font-family="sans-serif" font-size="13" lengthAdjust="spacing" textLength="63" x="341" y="1252.1846">toDto(json)</text><rect fill="#E2E2F0" height="51.2422" rx="2.5" ry="2.5" style="stroke:#181818;stroke-width:0.5;" width="56" x="881.5" y="1234.1563"/><text fill="#000000" font-family="sans-serif" font-size="14" lengthAdjust="spacing" textLength="36" x="891.5" y="1256.2637">&#171;dto&#187;</text><text fill="#000000" font-family="sans-serif" font-size="14" lengthAdjust="spacing" textLength="38" x="892.5" y="1274.8848">XDTO</text><rect fill="none" height="59.2129" style="stroke:#000000;stroke-width:1.5;" width="175" x="223.5" y="1296.3984"/><path d="M223.5,1296.3984 L285.5,1296.3984 L285.5,1305.3984 L275.5,1315.3984 L223.5,1315.3984 L223.5,1296.3984 " fill="#EEEEEE" style="stroke:#000000;stroke-width:2.0;"/><text fill="#000000" font-family="sans-serif" font-size="13" font-weight="bold" lengthAdjust="spacing" textLength="17" x="236.5" y="1312.4268">ref</text><text fill="#000000" font-family="sans-serif" font-size="12" lengthAdjust="spacing" textLength="3" x="309.5" y="1332.3477">&#160;</text><text fill="#000000" font-family="sans-serif" font-size="12" font-weight="bold" lengthAdjust="spacing" textLength="49" x="286.5" y="1348.3086">US 5.1.Y.</text><polygon fill="#181818" points="166,1379.9023,156,1383.9023,166,1387.9023,162,1383.9023" style="stroke:#181818;stroke-width:1.0;"/><line style="stroke:#181818;stroke-width:1.0;stroke-dasharray:2.0,2.0;" x1="160" x2="310" y1="1383.9023" y2="1383.9023"/><text fill="#000000" font-family="sans-serif" font-size="13" font-weight="bold" lengthAdjust="spacing" textLength="14" x="172" y="1378.6396">27</text><text fill="#000000" font-family="sans-serif" font-size="13" lengthAdjust="spacing" textLength="33" x="190" y="1378.6396">return</text><line style="stroke:#000000;stroke-width:1.0;stroke-dasharray:2.0,2.0;" x1="11" x2="947.5" y1="1392.9023" y2="1392.9023"/><ellipse cx="7.5" cy="1416.4434" fill="none" rx="4" ry="4" style="stroke:#181818;stroke-width:1.5;"/><polygon fill="#181818" points="133,1413.1934,143,1417.1934,133,1421.1934,137,1417.1934" style="stroke:#181818;stroke-width:1.0;"/><line style="stroke:#181818;stroke-width:1.0;" x1="12" x2="139" y1="1417.1934" y2="1417.1934"/><text fill="#000000" font-family="sans-serif" font-size="13" font-weight="bold" lengthAdjust="spacing" textLength="14" x="15" y="1411.9307">28</text><text fill="#000000" font-family="sans-serif" font-size="13" lengthAdjust="spacing" textLength="82" x="33" y="1411.9307">DELETE(json)</text><polygon fill="#181818" points="294,1444.4844,304,1448.4844,294,1452.4844,298,1448.4844" style="stroke:#181818;stroke-width:1.0;"/><line style="stroke:#181818;stroke-width:1.0;" x1="155" x2="300" y1="1448.4844" y2="1448.4844"/><text fill="#000000" font-family="sans-serif" font-size="13" font-weight="bold" lengthAdjust="spacing" textLength="14" x="162" y="1443.2217">29</text><text fill="#000000" font-family="sans-serif" font-size="13" lengthAdjust="spacing" textLength="110" x="180" y="1443.2217">deleteXProfile(json)</text><polygon fill="#181818" points="869.5,1475.7754,879.5,1479.7754,869.5,1483.7754,873.5,1479.7754" style="stroke:#181818;stroke-width:1.0;"/><line style="stroke:#181818;stroke-width:1.0;" x1="316" x2="875.5" y1="1479.7754" y2="1479.7754"/><text fill="#000000" font-family="sans-serif" font-size="13" font-weight="bold" lengthAdjust="spacing" textLength="14" x="323" y="1474.5127">30</text><text fill="#000000" font-family="sans-serif" font-size="13" lengthAdjust="spacing" textLength="63" x="341" y="1474.5127">toDto(json)</text><rect fill="#E2E2F0" height="51.2422" rx="2.5" ry="2.5" style="stroke:#181818;stroke-width:0.5;" width="56" x="881.5" y="1456.4844"/><text fill="#000000" font-family="sans-serif" font-size="14" lengthAdjust="spacing" textLength="36" x="891.5" y="1478.5918">&#171;dto&#187;</text><text fill="#000000" font-family="sans-serif" font-size="14" lengthAdjust="spacing" textLength="38" x="892.5" y="1497.2129">XDTO</text><rect fill="none" height="59.2129" style="stroke:#000000;stroke-width:1.5;" width="175" x="223.5" y="1518.7266"/><path d="M223.5,1518.7266 L285.5,1518.7266 L285.5,1527.7266 L275.5,1537.7266 L223.5,1537.7266 L223.5,1518.7266 " fill="#EEEEEE" style="stroke:#000000;stroke-width:2.0;"/><text fill="#000000" font-family="sans-serif" font-size="13" font-weight="bold" lengthAdjust="spacing" textLength="17" x="236.5" y="1534.7549">ref</text><text fill="#000000" font-family="sans-serif" font-size="12" lengthAdjust="spacing" textLength="3" x="309.5" y="1554.6758">&#160;</text><text fill="#000000" font-family="sans-serif" font-size="12" font-weight="bold" lengthAdjust="spacing" textLength="49" x="286.5" y="1570.6367">US 5.1.Z.</text><polygon fill="#181818" points="166,1602.2305,156,1606.2305,166,1610.2305,162,1606.2305" style="stroke:#181818;stroke-width:1.0;"/><line style="stroke:#181818;stroke-width:1.0;stroke-dasharray:2.0,2.0;" x1="160" x2="310" y1="1606.2305" y2="1606.2305"/><text fill="#000000" font-family="sans-serif" font-size="13" font-weight="bold" lengthAdjust="spacing" textLength="14" x="172" y="1600.9678">31</text><text fill="#000000" font-family="sans-serif" font-size="13" lengthAdjust="spacing" textLength="33" x="190" y="1600.9678">return</text><path d="M11,1628.2305 L72,1628.2305 L72,1637.5215 L62,1647.5215 L11,1647.5215 L11,1628.2305 " fill="#EEEEEE" style="stroke:#000000;stroke-width:1.5;"/><rect fill="none" height="98.5039" style="stroke:#000000;stroke-width:1.5;" width="182.5" x="11" y="1628.2305"/><text fill="#000000" font-family="sans-serif" font-size="13" font-weight="bold" lengthAdjust="spacing" textLength="16" x="26" y="1643.2588">alt</text><text fill="#000000" font-family="sans-serif" font-size="11" font-weight="bold" lengthAdjust="spacing" textLength="55" x="87" y="1642.1006">[success]</text><ellipse cx="7.5" cy="1670.0625" fill="none" rx="4" ry="4" style="stroke:#181818;stroke-width:1.5;"/><polygon fill="#181818" points="24.5,1666.8125,14.5,1670.8125,24.5,1674.8125,20.5,1670.8125" style="stroke:#181818;stroke-width:1.0;"/><line style="stroke:#181818;stroke-width:1.0;stroke-dasharray:2.0,2.0;" x1="22.5" x2="144" y1="1670.8125" y2="1670.8125"/><text fill="#000000" font-family="sans-serif" font-size="13" font-weight="bold" lengthAdjust="spacing" textLength="14" x="25" y="1665.5498">32</text><text fill="#000000" font-family="sans-serif" font-size="13" lengthAdjust="spacing" textLength="44" x="43" y="1665.5498">200 OK</text><line style="stroke:#000000;stroke-width:1.0;stroke-dasharray:2.0,2.0;" x1="11" x2="193.5" y1="1679.8125" y2="1679.8125"/><text fill="#000000" font-family="sans-serif" font-size="11" font-weight="bold" lengthAdjust="spacing" textLength="43" x="16" y="1691.6826">[failure]</text><ellipse cx="7.5" cy="1717.9844" fill="none" rx="4" ry="4" style="stroke:#181818;stroke-width:1.5;"/><polygon fill="#181818" points="24.5,1714.7344,14.5,1718.7344,24.5,1722.7344,20.5,1718.7344" style="stroke:#181818;stroke-width:1.0;"/><line style="stroke:#181818;stroke-width:1.0;stroke-dasharray:2.0,2.0;" x1="22.5" x2="149" y1="1718.7344" y2="1718.7344"/><text fill="#000000" font-family="sans-serif" font-size="13" font-weight="bold" lengthAdjust="spacing" textLength="14" x="25" y="1713.4717">33</text><text fill="#000000" font-family="sans-serif" font-size="13" lengthAdjust="spacing" textLength="100" x="43" y="1713.4717">400 Bad Request</text><!--SRC=[tLPDRzD04BtlhnZbGX8fIGlqKbMLe8rw828bTP1BkIpsf5tOxBgxwq2b_dZsmtOsZbiu82J8oMk_DnzlvZb-SMTCeOydau9JOSer7sToFT5uNwB8S9GpUglecX3334VeBQ_WQ7muFZmQmwMI6MeD7nb-X_uCDyZXrQ1722sD5ENw2of22geCorXXOqFlv4J9qk3fwMS12tl5n6qFg8R5V9bCsz1C2gCavwWyFhNfLepZZ6d7EskU-WXdy_V9OZxRovSRwTaVIbGFbzHsWWQLFa_cdkPlsyCUJwFQi2nKcbw5WsVumrvNM4ZDZ5GFWR1epe7ZpazLbjQrfB-gu_n1q3NBVCqNA51HmwI8Y_kmd2wkVO7aHevEWwvm31VJf3-02ItO9DM4PePjgC5ATX9G5bw9Q0ctQDvmNakk-uCjgL6wHbkY5wMXTR62R2G07SD9OXah9d9BsO5wjKX0ZABeQL45TYj0ScmpmFwub0Mif0BAEPWxX9e3JFWpTroeVjjohFOm7DeaHjhBVfrg4AAYo7tafe4TiMgm9UvL5jgEfDhIlcef-YrkXyvHj7tfencxS9tW6tao6ZKm-Qtla8COMkt1u-DZQsykvrT91V-DfR5zM6zjboOGXRGaZYj3t1cSgoaJsWs3tBjLXgAn9N52EyBpwrQxDfvOIDQrbEsoxlTU1S_iQUCelztUS-ZJ9_Z3F1ygCkCsIhpFdXtF8M8yPHJxsikPiptc8Vk_R9mm6SoRsVmN3gBS0DeXGLfh6BJOTTQoDfPxr8xZxdKOh2no2whLwk8t9RkxiHVYCHbPkyMX5Av0Rb3jSeV3we_-UZmSDgEqs5Reg2M5fbJ2F-uI4Rdk4k9yEficqxYWZiPpvFYt6__qnngtVBiJ96o6BZFtqTJQgPS71p1_5qI25MMyLDZUkzSMyvRci72VPhic2MlJ9Fe9]--></g></svg>