<?xml version="1.0" encoding="us-ascii" standalone="no"?><svg xmlns="http://www.w3.org/2000/svg" xmlns:xlink="http://www.w3.org/1999/xlink" contentStyleType="text/css" height="1714px" preserveAspectRatio="none" style="width:1363px;height:1714px;background:#FFFFFF;" version="1.1" viewBox="0 0 1363 1714" width="1363px" zoomAndPan="magnify"><defs/><g><text fill="#000000" font-family="sans-serif" font-size="14" font-weight="bold" lengthAdjust="spacing" textLength="230" x="565.5" y="30.1074">US 5.1.15. Process View (Level 3)</text><rect fill="#FFFFFF" height="388.8613" style="stroke:#181818;stroke-width:1.0;" width="10" x="145" y="130.1543"/><rect fill="#FFFFFF" height="451.1035" style="stroke:#181818;stroke-width:1.0;" width="10" x="145" y="575.3066"/><rect fill="#FFFFFF" height="523.8691" style="stroke:#181818;stroke-width:1.0;" width="10" x="145" y="1108.9922"/><rect fill="#FFFFFF" height="326.2793" style="stroke:#181818;stroke-width:1.0;" width="10" x="439" y="161.4453"/><rect fill="#FFFFFF" height="28" style="stroke:#181818;stroke-width:1.0;" width="10" x="444" y="421.4336"/><rect fill="#FFFFFF" height="326.2793" style="stroke:#181818;stroke-width:1.0;" width="10" x="439" y="668.8398"/><rect fill="#FFFFFF" height="28" style="stroke:#181818;stroke-width:1.0;" width="10" x="444" y="928.8281"/><rect fill="#FFFFFF" height="157.7461" style="stroke:#181818;stroke-width:1.0;" width="10" x="439" y="1140.2832"/><rect fill="#FFFFFF" height="157.7461" style="stroke:#181818;stroke-width:1.0;" width="10" x="439" y="1362.6113"/><rect fill="#FFFFFF" height="189.4063" style="stroke:#181818;stroke-width:1.0;" width="10" x="741" y="192.7363"/><rect fill="#FFFFFF" height="189.4063" style="stroke:#181818;stroke-width:1.0;" width="10" x="741" y="700.1309"/><rect fill="#FFFFFF" height="31.291" style="stroke:#181818;stroke-width:1.0;" width="10" x="1000" y="224.0273"/><rect fill="#FFFFFF" height="31.291" style="stroke:#181818;stroke-width:1.0;" width="10" x="1000" y="731.4219"/><rect fill="none" height="81.5332" style="stroke:#000000;stroke-width:1.5;" width="429.5" x="698.5" y="270.3184"/><rect fill="none" height="81.5332" style="stroke:#000000;stroke-width:1.5;" width="429.5" x="698.5" y="777.7129"/><rect fill="none" height="461.9473" style="stroke:#000000;stroke-width:1.5;" width="1117" x="11" y="1066.4102"/><rect fill="none" height="98.5039" style="stroke:#000000;stroke-width:1.5;" width="182.5" x="11" y="1542.3574"/><line style="stroke:#181818;stroke-width:0.5;stroke-dasharray:5.0,5.0;" x1="149.5" x2="149.5" y1="96.8633" y2="1657.8613"/><line style="stroke:#181818;stroke-width:0.5;stroke-dasharray:5.0,5.0;" x1="443.5" x2="443.5" y1="96.8633" y2="1657.8613"/><line style="stroke:#181818;stroke-width:0.5;stroke-dasharray:5.0,5.0;" x1="618.5" x2="618.5" y1="624.4277" y2="1657.8613"/><line style="stroke:#181818;stroke-width:0.5;stroke-dasharray:5.0,5.0;" x1="745.5" x2="745.5" y1="96.8633" y2="1657.8613"/><line style="stroke:#181818;stroke-width:0.5;stroke-dasharray:5.0,5.0;" x1="1005" x2="1005" y1="96.8633" y2="1657.8613"/><line style="stroke:#181818;stroke-width:0.5;stroke-dasharray:5.0,5.0;" x1="1090" x2="1090" y1="1411.7324" y2="1657.8613"/><line style="stroke:#181818;stroke-width:0.5;stroke-dasharray:5.0,5.0;" x1="1242" x2="1242" y1="96.8633" y2="1657.8613"/><rect fill="#E2E2F0" height="51.2422" rx="2.5" ry="2.5" style="stroke:#181818;stroke-width:0.5;" width="67" x="116.5" y="44.6211"/><text fill="#000000" font-family="sans-serif" font-size="14" lengthAdjust="spacing" textLength="49" x="125.5" y="66.7285">&#171;route&#187;</text><text fill="#000000" font-family="sans-serif" font-size="14" lengthAdjust="spacing" textLength="49" x="127.5" y="85.3496">Routing</text><rect fill="#E2E2F0" height="51.2422" rx="2.5" ry="2.5" style="stroke:#181818;stroke-width:0.5;" width="67" x="116.5" y="1656.8613"/><text fill="#000000" font-family="sans-serif" font-size="14" lengthAdjust="spacing" textLength="49" x="125.5" y="1678.9688">&#171;route&#187;</text><text fill="#000000" font-family="sans-serif" font-size="14" lengthAdjust="spacing" textLength="49" x="127.5" y="1697.5898">Routing</text><rect fill="#E2E2F0" height="51.2422" rx="2.5" ry="2.5" style="stroke:#181818;stroke-width:0.5;" width="169" x="359.5" y="44.6211"/><text fill="#000000" font-family="sans-serif" font-size="14" lengthAdjust="spacing" textLength="75" x="406.5" y="66.7285">&#171;controller&#187;</text><text fill="#000000" font-family="sans-serif" font-size="14" lengthAdjust="spacing" textLength="151" x="370.5" y="85.3496">XProfileListingController</text><rect fill="#E2E2F0" height="51.2422" rx="2.5" ry="2.5" style="stroke:#181818;stroke-width:0.5;" width="169" x="359.5" y="1656.8613"/><text fill="#000000" font-family="sans-serif" font-size="14" lengthAdjust="spacing" textLength="75" x="406.5" y="1678.9688">&#171;controller&#187;</text><text fill="#000000" font-family="sans-serif" font-size="14" lengthAdjust="spacing" textLength="151" x="370.5" y="1697.5898">XProfileListingController</text><rect fill="#E2E2F0" height="51.2422" rx="2.5" ry="2.5" style="stroke:#181818;stroke-width:0.5;" width="160" x="538.5" y="1656.8613"/><text fill="#000000" font-family="sans-serif" font-size="14" lengthAdjust="spacing" textLength="36" x="600.5" y="1678.9688">&#171;dto&#187;</text><text fill="#000000" font-family="sans-serif" font-size="14" lengthAdjust="spacing" textLength="142" x="549.5" y="1697.5898">XQueryParametersDto</text><rect fill="#E2E2F0" height="51.2422" rx="2.5" ry="2.5" style="stroke:#181818;stroke-width:0.5;" width="75" x="708.5" y="44.6211"/><text fill="#000000" font-family="sans-serif" font-size="14" lengthAdjust="spacing" textLength="61" x="715.5" y="66.7285">&#171;service&#187;</text><text fill="#000000" font-family="sans-serif" font-size="14" lengthAdjust="spacing" textLength="55" x="720.5" y="85.3496">XService</text><rect fill="#E2E2F0" height="51.2422" rx="2.5" ry="2.5" style="stroke:#181818;stroke-width:0.5;" width="75" x="708.5" y="1656.8613"/><text fill="#000000" font-family="sans-serif" font-size="14" lengthAdjust="spacing" textLength="61" x="715.5" y="1678.9688">&#171;service&#187;</text><text fill="#000000" font-family="sans-serif" font-size="14" lengthAdjust="spacing" textLength="55" x="720.5" y="1697.5898">XService</text><rect fill="#E2E2F0" height="51.2422" rx="2.5" ry="2.5" style="stroke:#181818;stroke-width:0.5;" width="94" x="958" y="44.6211"/><text fill="#000000" font-family="sans-serif" font-size="14" lengthAdjust="spacing" textLength="79" x="965.5" y="66.7285">&#171;repository&#187;</text><text fill="#000000" font-family="sans-serif" font-size="14" lengthAdjust="spacing" textLength="76" x="969" y="85.3496">XRepository</text><rect fill="#E2E2F0" height="51.2422" rx="2.5" ry="2.5" style="stroke:#181818;stroke-width:0.5;" width="94" x="958" y="1656.8613"/><text fill="#000000" font-family="sans-serif" font-size="14" lengthAdjust="spacing" textLength="79" x="965.5" y="1678.9688">&#171;repository&#187;</text><text fill="#000000" font-family="sans-serif" font-size="14" lengthAdjust="spacing" textLength="76" x="969" y="1697.5898">XRepository</text><rect fill="#E2E2F0" height="51.2422" rx="2.5" ry="2.5" style="stroke:#181818;stroke-width:0.5;" width="56" x="1062" y="1656.8613"/><text fill="#000000" font-family="sans-serif" font-size="14" lengthAdjust="spacing" textLength="36" x="1072" y="1678.9688">&#171;dto&#187;</text><text fill="#000000" font-family="sans-serif" font-size="14" lengthAdjust="spacing" textLength="38" x="1073" y="1697.5898">XDTO</text><rect fill="#E2E2F0" height="51.2422" rx="2.5" ry="2.5" style="stroke:#181818;stroke-width:0.5;" width="229" x="1128" y="44.6211"/><text fill="#000000" font-family="sans-serif" font-size="14" lengthAdjust="spacing" textLength="61" x="1212" y="66.7285">&#171;service&#187;</text><text fill="#000000" font-family="sans-serif" font-size="14" lengthAdjust="spacing" textLength="211" x="1139" y="85.3496">DynamicQueryGenerationService</text><rect fill="#E2E2F0" height="51.2422" rx="2.5" ry="2.5" style="stroke:#181818;stroke-width:0.5;" width="229" x="1128" y="1656.8613"/><text fill="#000000" font-family="sans-serif" font-size="14" lengthAdjust="spacing" textLength="61" x="1212" y="1678.9688">&#171;service&#187;</text><text fill="#000000" font-family="sans-serif" font-size="14" lengthAdjust="spacing" textLength="211" x="1139" y="1697.5898">DynamicQueryGenerationService</text><rect fill="#FFFFFF" height="388.8613" style="stroke:#181818;stroke-width:1.0;" width="10" x="145" y="130.1543"/><rect fill="#FFFFFF" height="451.1035" style="stroke:#181818;stroke-width:1.0;" width="10" x="145" y="575.3066"/><rect fill="#FFFFFF" height="523.8691" style="stroke:#181818;stroke-width:1.0;" width="10" x="145" y="1108.9922"/><rect fill="#FFFFFF" height="326.2793" style="stroke:#181818;stroke-width:1.0;" width="10" x="439" y="161.4453"/><rect fill="#FFFFFF" height="28" style="stroke:#181818;stroke-width:1.0;" width="10" x="444" y="421.4336"/><rect fill="#FFFFFF" height="326.2793" style="stroke:#181818;stroke-width:1.0;" width="10" x="439" y="668.8398"/><rect fill="#FFFFFF" height="28" style="stroke:#181818;stroke-width:1.0;" width="10" x="444" y="928.8281"/><rect fill="#FFFFFF" height="157.7461" style="stroke:#181818;stroke-width:1.0;" width="10" x="439" y="1140.2832"/><rect fill="#FFFFFF" height="157.7461" style="stroke:#181818;stroke-width:1.0;" width="10" x="439" y="1362.6113"/><rect fill="#FFFFFF" height="189.4063" style="stroke:#181818;stroke-width:1.0;" width="10" x="741" y="192.7363"/><rect fill="#FFFFFF" height="189.4063" style="stroke:#181818;stroke-width:1.0;" width="10" x="741" y="700.1309"/><rect fill="#FFFFFF" height="31.291" style="stroke:#181818;stroke-width:1.0;" width="10" x="1000" y="224.0273"/><rect fill="#FFFFFF" height="31.291" style="stroke:#181818;stroke-width:1.0;" width="10" x="1000" y="731.4219"/><ellipse cx="7.5" cy="129.4043" fill="none" rx="4" ry="4" style="stroke:#181818;stroke-width:1.5;"/><polygon fill="#181818" points="133,126.1543,143,130.1543,133,134.1543,137,130.1543" style="stroke:#181818;stroke-width:1.0;"/><line style="stroke:#181818;stroke-width:1.0;" x1="12" x2="139" y1="130.1543" y2="130.1543"/><text fill="#000000" font-family="sans-serif" font-size="13" font-weight="bold" lengthAdjust="spacing" textLength="7" x="15" y="124.8916">1</text><text fill="#000000" font-family="sans-serif" font-size="13" lengthAdjust="spacing" textLength="77" x="26" y="124.8916">GET() /api/Xs</text><polygon fill="#181818" points="427,157.4453,437,161.4453,427,165.4453,431,161.4453" style="stroke:#181818;stroke-width:1.0;"/><line style="stroke:#181818;stroke-width:1.0;" x1="155" x2="433" y1="161.4453" y2="161.4453"/><text fill="#000000" font-family="sans-serif" font-size="13" font-weight="bold" lengthAdjust="spacing" textLength="7" x="162" y="156.1826">2</text><text fill="#000000" font-family="sans-serif" font-size="13" lengthAdjust="spacing" textLength="91" x="173" y="156.1826">getAllXProfiles()</text><polygon fill="#181818" points="729,188.7363,739,192.7363,729,196.7363,733,192.7363" style="stroke:#181818;stroke-width:1.0;"/><line style="stroke:#181818;stroke-width:1.0;" x1="449" x2="735" y1="192.7363" y2="192.7363"/><text fill="#000000" font-family="sans-serif" font-size="13" font-weight="bold" lengthAdjust="spacing" textLength="7" x="456" y="187.4736">3</text><text fill="#000000" font-family="sans-serif" font-size="13" lengthAdjust="spacing" textLength="84" x="467" y="187.4736">getAllProfiles()</text><polygon fill="#181818" points="988,220.0273,998,224.0273,988,228.0273,992,224.0273" style="stroke:#181818;stroke-width:1.0;"/><line style="stroke:#181818;stroke-width:1.0;" x1="751" x2="994" y1="224.0273" y2="224.0273"/><text fill="#000000" font-family="sans-serif" font-size="13" font-weight="bold" lengthAdjust="spacing" textLength="7" x="758" y="218.7646">4</text><text fill="#000000" font-family="sans-serif" font-size="13" lengthAdjust="spacing" textLength="43" x="769" y="218.7646">findAll()</text><polygon fill="#181818" points="762,251.3184,752,255.3184,762,259.3184,758,255.3184" style="stroke:#181818;stroke-width:1.0;"/><line style="stroke:#181818;stroke-width:1.0;stroke-dasharray:2.0,2.0;" x1="756" x2="1004" y1="255.3184" y2="255.3184"/><text fill="#000000" font-family="sans-serif" font-size="13" font-weight="bold" lengthAdjust="spacing" textLength="7" x="768" y="250.0557">5</text><text fill="#000000" font-family="sans-serif" font-size="13" lengthAdjust="spacing" textLength="69" x="779" y="250.0557">XprofilesList</text><path d="M698.5,270.3184 L771.5,270.3184 L771.5,279.6094 L761.5,289.6094 L698.5,289.6094 L698.5,270.3184 " fill="#EEEEEE" style="stroke:#000000;stroke-width:1.5;"/><rect fill="none" height="81.5332" style="stroke:#000000;stroke-width:1.5;" width="429.5" x="698.5" y="270.3184"/><text fill="#000000" font-family="sans-serif" font-size="13" font-weight="bold" lengthAdjust="spacing" textLength="28" x="713.5" y="285.3467">loop</text><text fill="#000000" font-family="sans-serif" font-size="11" font-weight="bold" lengthAdjust="spacing" textLength="160" x="786.5" y="284.1885">[for all the profiles in the list]</text><polygon fill="#181818" points="1050,308.9004,1060,312.9004,1050,316.9004,1054,312.9004" style="stroke:#181818;stroke-width:1.0;"/><line style="stroke:#181818;stroke-width:1.0;" x1="751" x2="1056" y1="312.9004" y2="312.9004"/><text fill="#000000" font-family="sans-serif" font-size="13" font-weight="bold" lengthAdjust="spacing" textLength="7" x="758" y="307.6377">6</text><text fill="#000000" font-family="sans-serif" font-size="13" lengthAdjust="spacing" textLength="86" x="769" y="307.6377">toDTO(Xprofile)</text><rect fill="#E2E2F0" height="51.2422" rx="2.5" ry="2.5" style="stroke:#181818;stroke-width:0.5;" width="56" x="1062" y="289.6094"/><text fill="#000000" font-family="sans-serif" font-size="14" lengthAdjust="spacing" textLength="36" x="1072" y="311.7168">&#171;dto&#187;</text><text fill="#000000" font-family="sans-serif" font-size="14" lengthAdjust="spacing" textLength="38" x="1073" y="330.3379">XDTO</text><polygon fill="#181818" points="460,378.1426,450,382.1426,460,386.1426,456,382.1426" style="stroke:#181818;stroke-width:1.0;"/><line style="stroke:#181818;stroke-width:1.0;stroke-dasharray:2.0,2.0;" x1="454" x2="745" y1="382.1426" y2="382.1426"/><text fill="#000000" font-family="sans-serif" font-size="13" font-weight="bold" lengthAdjust="spacing" textLength="7" x="466" y="376.8799">7</text><text fill="#000000" font-family="sans-serif" font-size="13" lengthAdjust="spacing" textLength="88" x="477" y="376.8799">XprofileDTOList</text><line style="stroke:#181818;stroke-width:1.0;" x1="454" x2="496" y1="413.4336" y2="413.4336"/><line style="stroke:#181818;stroke-width:1.0;" x1="496" x2="496" y1="413.4336" y2="426.4336"/><line style="stroke:#181818;stroke-width:1.0;" x1="455" x2="496" y1="426.4336" y2="426.4336"/><polygon fill="#181818" points="465,422.4336,455,426.4336,465,430.4336,461,426.4336" style="stroke:#181818;stroke-width:1.0;"/><text fill="#000000" font-family="sans-serif" font-size="13" font-weight="bold" lengthAdjust="spacing" textLength="7" x="461" y="408.1709">8</text><text fill="#000000" font-family="sans-serif" font-size="13" lengthAdjust="spacing" textLength="120" x="472" y="408.1709">json(XprofileDTOList)</text><polygon fill="#181818" points="166,483.7246,156,487.7246,166,491.7246,162,487.7246" style="stroke:#181818;stroke-width:1.0;"/><line style="stroke:#181818;stroke-width:1.0;stroke-dasharray:2.0,2.0;" x1="160" x2="443" y1="487.7246" y2="487.7246"/><text fill="#000000" font-family="sans-serif" font-size="13" font-weight="bold" lengthAdjust="spacing" textLength="7" x="172" y="482.4619">9</text><text fill="#000000" font-family="sans-serif" font-size="13" lengthAdjust="spacing" textLength="24" x="183" y="482.4619">json</text><ellipse cx="7.5" cy="518.2656" fill="none" rx="4" ry="4" style="stroke:#181818;stroke-width:1.5;"/><polygon fill="#181818" points="24.5,515.0156,14.5,519.0156,24.5,523.0156,20.5,519.0156" style="stroke:#181818;stroke-width:1.0;"/><line style="stroke:#181818;stroke-width:1.0;stroke-dasharray:2.0,2.0;" x1="22.5" x2="149" y1="519.0156" y2="519.0156"/><text fill="#000000" font-family="sans-serif" font-size="13" font-weight="bold" lengthAdjust="spacing" textLength="14" x="25" y="513.7529">10</text><text fill="#000000" font-family="sans-serif" font-size="13" lengthAdjust="spacing" textLength="46" x="43" y="513.7529">ok(json)</text><ellipse cx="7.5" cy="574.5566" fill="none" rx="4" ry="4" style="stroke:#181818;stroke-width:1.5;"/><polygon fill="#181818" points="133,571.3066,143,575.3066,133,579.3066,137,575.3066" style="stroke:#181818;stroke-width:1.0;"/><line style="stroke:#181818;stroke-width:1.0;" x1="12" x2="139" y1="575.3066" y2="575.3066"/><text fill="#000000" font-family="sans-serif" font-size="13" font-weight="bold" lengthAdjust="spacing" textLength="14" x="15" y="570.0439">11</text><text fill="#000000" font-family="sans-serif" font-size="13" lengthAdjust="spacing" textLength="67" x="33" y="570.0439">POST(json)</text><polygon fill="#181818" points="526.5,602.5977,536.5,606.5977,526.5,610.5977,530.5,606.5977" style="stroke:#181818;stroke-width:1.0;"/><line style="stroke:#181818;stroke-width:1.0;" x1="155" x2="532.5" y1="606.5977" y2="606.5977"/><text fill="#000000" font-family="sans-serif" font-size="13" font-weight="bold" lengthAdjust="spacing" textLength="14" x="162" y="601.335">12</text><text fill="#000000" font-family="sans-serif" font-size="13" lengthAdjust="spacing" textLength="69" x="180" y="601.335">toDTO(json)</text><rect fill="#E2E2F0" height="51.2422" rx="2.5" ry="2.5" style="stroke:#181818;stroke-width:0.5;" width="160" x="538.5" y="583.3066"/><text fill="#000000" font-family="sans-serif" font-size="14" lengthAdjust="spacing" textLength="36" x="600.5" y="605.4141">&#171;dto&#187;</text><text fill="#000000" font-family="sans-serif" font-size="14" lengthAdjust="spacing" textLength="142" x="549.5" y="624.0352">XQueryParametersDto</text><polygon fill="#181818" points="427,664.8398,437,668.8398,427,672.8398,431,668.8398" style="stroke:#181818;stroke-width:1.0;"/><line style="stroke:#181818;stroke-width:1.0;" x1="155" x2="433" y1="668.8398" y2="668.8398"/><text fill="#000000" font-family="sans-serif" font-size="13" font-weight="bold" lengthAdjust="spacing" textLength="14" x="162" y="663.5771">13</text><text fill="#000000" font-family="sans-serif" font-size="13" lengthAdjust="spacing" textLength="247" x="180" y="663.5771">GetFilteredXProfiles(queryParametersDTO)</text><polygon fill="#181818" points="729,696.1309,739,700.1309,729,704.1309,733,700.1309" style="stroke:#181818;stroke-width:1.0;"/><line style="stroke:#181818;stroke-width:1.0;" x1="449" x2="735" y1="700.1309" y2="700.1309"/><text fill="#000000" font-family="sans-serif" font-size="13" font-weight="bold" lengthAdjust="spacing" textLength="14" x="456" y="694.8682">14</text><text fill="#000000" font-family="sans-serif" font-size="13" lengthAdjust="spacing" textLength="231" x="474" y="694.8682">FilterStaffProfiles(queryParametersDTO)</text><polygon fill="#181818" points="988,727.4219,998,731.4219,988,735.4219,992,731.4219" style="stroke:#181818;stroke-width:1.0;"/><line style="stroke:#181818;stroke-width:1.0;" x1="751" x2="994" y1="731.4219" y2="731.4219"/><text fill="#000000" font-family="sans-serif" font-size="13" font-weight="bold" lengthAdjust="spacing" textLength="14" x="758" y="726.1592">15</text><text fill="#000000" font-family="sans-serif" font-size="13" lengthAdjust="spacing" textLength="212" x="776" y="726.1592">FilterXProfiles(queryParametersDTO)</text><polygon fill="#181818" points="762,758.7129,752,762.7129,762,766.7129,758,762.7129" style="stroke:#181818;stroke-width:1.0;"/><line style="stroke:#181818;stroke-width:1.0;stroke-dasharray:2.0,2.0;" x1="756" x2="1004" y1="762.7129" y2="762.7129"/><text fill="#000000" font-family="sans-serif" font-size="13" font-weight="bold" lengthAdjust="spacing" textLength="14" x="768" y="757.4502">16</text><text fill="#000000" font-family="sans-serif" font-size="13" lengthAdjust="spacing" textLength="69" x="786" y="757.4502">XprofilesList</text><path d="M698.5,777.7129 L771.5,777.7129 L771.5,787.0039 L761.5,797.0039 L698.5,797.0039 L698.5,777.7129 " fill="#EEEEEE" style="stroke:#000000;stroke-width:1.5;"/><rect fill="none" height="81.5332" style="stroke:#000000;stroke-width:1.5;" width="429.5" x="698.5" y="777.7129"/><text fill="#000000" font-family="sans-serif" font-size="13" font-weight="bold" lengthAdjust="spacing" textLength="28" x="713.5" y="792.7412">loop</text><text fill="#000000" font-family="sans-serif" font-size="11" font-weight="bold" lengthAdjust="spacing" textLength="160" x="786.5" y="791.583">[for all the profiles in the list]</text><polygon fill="#181818" points="1050,816.2949,1060,820.2949,1050,824.2949,1054,820.2949" style="stroke:#181818;stroke-width:1.0;"/><line style="stroke:#181818;stroke-width:1.0;" x1="751" x2="1056" y1="820.2949" y2="820.2949"/><text fill="#000000" font-family="sans-serif" font-size="13" font-weight="bold" lengthAdjust="spacing" textLength="14" x="758" y="815.0322">17</text><text fill="#000000" font-family="sans-serif" font-size="13" lengthAdjust="spacing" textLength="86" x="776" y="815.0322">toDTO(Xprofile)</text><rect fill="#E2E2F0" height="51.2422" rx="2.5" ry="2.5" style="stroke:#181818;stroke-width:0.5;" width="56" x="1062" y="797.0039"/><text fill="#000000" font-family="sans-serif" font-size="14" lengthAdjust="spacing" textLength="36" x="1072" y="819.1113">&#171;dto&#187;</text><text fill="#000000" font-family="sans-serif" font-size="14" lengthAdjust="spacing" textLength="38" x="1073" y="837.7324">XDTO</text><polygon fill="#181818" points="460,885.5371,450,889.5371,460,893.5371,456,889.5371" style="stroke:#181818;stroke-width:1.0;"/><line style="stroke:#181818;stroke-width:1.0;stroke-dasharray:2.0,2.0;" x1="454" x2="745" y1="889.5371" y2="889.5371"/><text fill="#000000" font-family="sans-serif" font-size="13" font-weight="bold" lengthAdjust="spacing" textLength="14" x="466" y="884.2744">18</text><text fill="#000000" font-family="sans-serif" font-size="13" lengthAdjust="spacing" textLength="135" x="484" y="884.2744">filteredXProfilesDTOList</text><line style="stroke:#181818;stroke-width:1.0;" x1="454" x2="496" y1="920.8281" y2="920.8281"/><line style="stroke:#181818;stroke-width:1.0;" x1="496" x2="496" y1="920.8281" y2="933.8281"/><line style="stroke:#181818;stroke-width:1.0;" x1="455" x2="496" y1="933.8281" y2="933.8281"/><polygon fill="#181818" points="465,929.8281,455,933.8281,465,937.8281,461,933.8281" style="stroke:#181818;stroke-width:1.0;"/><text fill="#000000" font-family="sans-serif" font-size="13" font-weight="bold" lengthAdjust="spacing" textLength="14" x="461" y="915.5654">19</text><text fill="#000000" font-family="sans-serif" font-size="13" lengthAdjust="spacing" textLength="120" x="479" y="915.5654">json(XprofileDTOList)</text><polygon fill="#181818" points="166,991.1191,156,995.1191,166,999.1191,162,995.1191" style="stroke:#181818;stroke-width:1.0;"/><line style="stroke:#181818;stroke-width:1.0;stroke-dasharray:2.0,2.0;" x1="160" x2="443" y1="995.1191" y2="995.1191"/><text fill="#000000" font-family="sans-serif" font-size="13" font-weight="bold" lengthAdjust="spacing" textLength="14" x="172" y="989.8564">20</text><text fill="#000000" font-family="sans-serif" font-size="13" lengthAdjust="spacing" textLength="24" x="190" y="989.8564">json</text><ellipse cx="7.5" cy="1025.6602" fill="none" rx="4" ry="4" style="stroke:#181818;stroke-width:1.5;"/><polygon fill="#181818" points="24.5,1022.4102,14.5,1026.4102,24.5,1030.4102,20.5,1026.4102" style="stroke:#181818;stroke-width:1.0;"/><line style="stroke:#181818;stroke-width:1.0;stroke-dasharray:2.0,2.0;" x1="22.5" x2="149" y1="1026.4102" y2="1026.4102"/><text fill="#000000" font-family="sans-serif" font-size="13" font-weight="bold" lengthAdjust="spacing" textLength="14" x="25" y="1021.1475">21</text><text fill="#000000" font-family="sans-serif" font-size="13" lengthAdjust="spacing" textLength="46" x="43" y="1021.1475">ok(json)</text><path d="M11,1066.4102 L72,1066.4102 L72,1075.7012 L62,1085.7012 L11,1085.7012 L11,1066.4102 " fill="#EEEEEE" style="stroke:#000000;stroke-width:1.5;"/><rect fill="none" height="461.9473" style="stroke:#000000;stroke-width:1.5;" width="1117" x="11" y="1066.4102"/><text fill="#000000" font-family="sans-serif" font-size="13" font-weight="bold" lengthAdjust="spacing" textLength="16" x="26" y="1081.4385">alt</text><text fill="#000000" font-family="sans-serif" font-size="11" font-weight="bold" lengthAdjust="spacing" textLength="78" x="87" y="1080.2803">[edit X profile]</text><ellipse cx="7.5" cy="1108.2422" fill="none" rx="4" ry="4" style="stroke:#181818;stroke-width:1.5;"/><polygon fill="#181818" points="133,1104.9922,143,1108.9922,133,1112.9922,137,1108.9922" style="stroke:#181818;stroke-width:1.0;"/><line style="stroke:#181818;stroke-width:1.0;" x1="12" x2="139" y1="1108.9922" y2="1108.9922"/><text fill="#000000" font-family="sans-serif" font-size="13" font-weight="bold" lengthAdjust="spacing" textLength="14" x="15" y="1103.7295">22</text><text fill="#000000" font-family="sans-serif" font-size="13" lengthAdjust="spacing" textLength="57" x="33" y="1103.7295">PUT(json)</text><polygon fill="#181818" points="427,1136.2832,437,1140.2832,427,1144.2832,431,1140.2832" style="stroke:#181818;stroke-width:1.0;"/><line style="stroke:#181818;stroke-width:1.0;" x1="155" x2="433" y1="1140.2832" y2="1140.2832"/><text fill="#000000" font-family="sans-serif" font-size="13" font-weight="bold" lengthAdjust="spacing" textLength="14" x="162" y="1135.0205">23</text><text fill="#000000" font-family="sans-serif" font-size="13" lengthAdjust="spacing" textLength="114" x="180" y="1135.0205">updateXProfile(json)</text><polygon fill="#181818" points="1050,1167.5742,1060,1171.5742,1050,1175.5742,1054,1171.5742" style="stroke:#181818;stroke-width:1.0;"/><line style="stroke:#181818;stroke-width:1.0;" x1="449" x2="1056" y1="1171.5742" y2="1171.5742"/><text fill="#000000" font-family="sans-serif" font-size="13" font-weight="bold" lengthAdjust="spacing" textLength="14" x="456" y="1166.3115">24</text><text fill="#000000" font-family="sans-serif" font-size="13" lengthAdjust="spacing" textLength="63" x="474" y="1166.3115">toDto(json)</text><rect fill="#E2E2F0" height="51.2422" rx="2.5" ry="2.5" style="stroke:#181818;stroke-width:0.5;" width="56" x="1062" y="1148.2832"/><text fill="#000000" font-family="sans-serif" font-size="14" lengthAdjust="spacing" textLength="36" x="1072" y="1170.3906">&#171;dto&#187;</text><text fill="#000000" font-family="sans-serif" font-size="14" lengthAdjust="spacing" textLength="38" x="1073" y="1189.0117">XDTO</text><rect fill="none" height="59.2129" style="stroke:#000000;stroke-width:1.5;" width="175" x="356.5" y="1210.5254"/><path d="M356.5,1210.5254 L418.5,1210.5254 L418.5,1219.5254 L408.5,1229.5254 L356.5,1229.5254 L356.5,1210.5254 " fill="#EEEEEE" style="stroke:#000000;stroke-width:2.0;"/><text fill="#000000" font-family="sans-serif" font-size="13" font-weight="bold" lengthAdjust="spacing" textLength="17" x="369.5" y="1226.5537">ref</text><text fill="#000000" font-family="sans-serif" font-size="12" lengthAdjust="spacing" textLength="3" x="442.5" y="1246.4746">&#160;</text><text fill="#000000" font-family="sans-serif" font-size="12" font-weight="bold" lengthAdjust="spacing" textLength="49" x="419.5" y="1262.4355">US 5.1.Y.</text><polygon fill="#181818" points="166,1294.0293,156,1298.0293,166,1302.0293,162,1298.0293" style="stroke:#181818;stroke-width:1.0;"/><line style="stroke:#181818;stroke-width:1.0;stroke-dasharray:2.0,2.0;" x1="160" x2="443" y1="1298.0293" y2="1298.0293"/><text fill="#000000" font-family="sans-serif" font-size="13" font-weight="bold" lengthAdjust="spacing" textLength="14" x="172" y="1292.7666">25</text><text fill="#000000" font-family="sans-serif" font-size="13" lengthAdjust="spacing" textLength="33" x="190" y="1292.7666">return</text><line style="stroke:#000000;stroke-width:1.0;stroke-dasharray:2.0,2.0;" x1="11" x2="1128" y1="1307.0293" y2="1307.0293"/><ellipse cx="7.5" cy="1330.5703" fill="none" rx="4" ry="4" style="stroke:#181818;stroke-width:1.5;"/><polygon fill="#181818" points="133,1327.3203,143,1331.3203,133,1335.3203,137,1331.3203" style="stroke:#181818;stroke-width:1.0;"/><line style="stroke:#181818;stroke-width:1.0;" x1="12" x2="139" y1="1331.3203" y2="1331.3203"/><text fill="#000000" font-family="sans-serif" font-size="13" font-weight="bold" lengthAdjust="spacing" textLength="14" x="15" y="1326.0576">26</text><text fill="#000000" font-family="sans-serif" font-size="13" lengthAdjust="spacing" textLength="82" x="33" y="1326.0576">DELETE(json)</text><polygon fill="#181818" points="427,1358.6113,437,1362.6113,427,1366.6113,431,1362.6113" style="stroke:#181818;stroke-width:1.0;"/><line style="stroke:#181818;stroke-width:1.0;" x1="155" x2="433" y1="1362.6113" y2="1362.6113"/><text fill="#000000" font-family="sans-serif" font-size="13" font-weight="bold" lengthAdjust="spacing" textLength="14" x="162" y="1357.3486">27</text><text fill="#000000" font-family="sans-serif" font-size="13" lengthAdjust="spacing" textLength="110" x="180" y="1357.3486">deleteXProfile(json)</text><polygon fill="#181818" points="1050,1389.9023,1060,1393.9023,1050,1397.9023,1054,1393.9023" style="stroke:#181818;stroke-width:1.0;"/><line style="stroke:#181818;stroke-width:1.0;" x1="449" x2="1056" y1="1393.9023" y2="1393.9023"/><text fill="#000000" font-family="sans-serif" font-size="13" font-weight="bold" lengthAdjust="spacing" textLength="14" x="456" y="1388.6396">28</text><text fill="#000000" font-family="sans-serif" font-size="13" lengthAdjust="spacing" textLength="63" x="474" y="1388.6396">toDto(json)</text><rect fill="#E2E2F0" height="51.2422" rx="2.5" ry="2.5" style="stroke:#181818;stroke-width:0.5;" width="56" x="1062" y="1370.6113"/><text fill="#000000" font-family="sans-serif" font-size="14" lengthAdjust="spacing" textLength="36" x="1072" y="1392.7188">&#171;dto&#187;</text><text fill="#000000" font-family="sans-serif" font-size="14" lengthAdjust="spacing" textLength="38" x="1073" y="1411.3398">XDTO</text><rect fill="none" height="59.2129" style="stroke:#000000;stroke-width:1.5;" width="175" x="356.5" y="1432.8535"/><path d="M356.5,1432.8535 L418.5,1432.8535 L418.5,1441.8535 L408.5,1451.8535 L356.5,1451.8535 L356.5,1432.8535 " fill="#EEEEEE" style="stroke:#000000;stroke-width:2.0;"/><text fill="#000000" font-family="sans-serif" font-size="13" font-weight="bold" lengthAdjust="spacing" textLength="17" x="369.5" y="1448.8818">ref</text><text fill="#000000" font-family="sans-serif" font-size="12" lengthAdjust="spacing" textLength="3" x="442.5" y="1468.8027">&#160;</text><text fill="#000000" font-family="sans-serif" font-size="12" font-weight="bold" lengthAdjust="spacing" textLength="49" x="419.5" y="1484.7637">US 5.1.Z.</text><polygon fill="#181818" points="166,1516.3574,156,1520.3574,166,1524.3574,162,1520.3574" style="stroke:#181818;stroke-width:1.0;"/><line style="stroke:#181818;stroke-width:1.0;stroke-dasharray:2.0,2.0;" x1="160" x2="443" y1="1520.3574" y2="1520.3574"/><text fill="#000000" font-family="sans-serif" font-size="13" font-weight="bold" lengthAdjust="spacing" textLength="14" x="172" y="1515.0947">29</text><text fill="#000000" font-family="sans-serif" font-size="13" lengthAdjust="spacing" textLength="33" x="190" y="1515.0947">return</text><path d="M11,1542.3574 L72,1542.3574 L72,1551.6484 L62,1561.6484 L11,1561.6484 L11,1542.3574 " fill="#EEEEEE" style="stroke:#000000;stroke-width:1.5;"/><rect fill="none" height="98.5039" style="stroke:#000000;stroke-width:1.5;" width="182.5" x="11" y="1542.3574"/><text fill="#000000" font-family="sans-serif" font-size="13" font-weight="bold" lengthAdjust="spacing" textLength="16" x="26" y="1557.3857">alt</text><text fill="#000000" font-family="sans-serif" font-size="11" font-weight="bold" lengthAdjust="spacing" textLength="55" x="87" y="1556.2275">[success]</text><ellipse cx="7.5" cy="1584.1895" fill="none" rx="4" ry="4" style="stroke:#181818;stroke-width:1.5;"/><polygon fill="#181818" points="24.5,1580.9395,14.5,1584.9395,24.5,1588.9395,20.5,1584.9395" style="stroke:#181818;stroke-width:1.0;"/><line style="stroke:#181818;stroke-width:1.0;stroke-dasharray:2.0,2.0;" x1="22.5" x2="144" y1="1584.9395" y2="1584.9395"/><text fill="#000000" font-family="sans-serif" font-size="13" font-weight="bold" lengthAdjust="spacing" textLength="14" x="25" y="1579.6768">30</text><text fill="#000000" font-family="sans-serif" font-size="13" lengthAdjust="spacing" textLength="44" x="43" y="1579.6768">200 OK</text><line style="stroke:#000000;stroke-width:1.0;stroke-dasharray:2.0,2.0;" x1="11" x2="193.5" y1="1593.9395" y2="1593.9395"/><text fill="#000000" font-family="sans-serif" font-size="11" font-weight="bold" lengthAdjust="spacing" textLength="43" x="16" y="1605.8096">[failure]</text><ellipse cx="7.5" cy="1632.1113" fill="none" rx="4" ry="4" style="stroke:#181818;stroke-width:1.5;"/><polygon fill="#181818" points="24.5,1628.8613,14.5,1632.8613,24.5,1636.8613,20.5,1632.8613" style="stroke:#181818;stroke-width:1.0;"/><line style="stroke:#181818;stroke-width:1.0;stroke-dasharray:2.0,2.0;" x1="22.5" x2="149" y1="1632.8613" y2="1632.8613"/><text fill="#000000" font-family="sans-serif" font-size="13" font-weight="bold" lengthAdjust="spacing" textLength="14" x="25" y="1627.5986">31</text><text fill="#000000" font-family="sans-serif" font-size="13" lengthAdjust="spacing" textLength="100" x="43" y="1627.5986">400 Bad Request</text><!--SRC=[tLPTRzCm57tthxZg2ssbjXkmbscQ16lP0nNPsXHrZ1UJt6m6ryvifzEa_NZyaQHf6iGU41BaARRFERxt-5Z9gtjZSdqwcUIS2bDi-3YHcud6Xm95WgEKqJj5DuGOPZX2RxM4a_7n-FXa35TA9gWrV6Ru2FqvRf73cq6F45eOAOhDDrI4v5GPbh3SQaFlx4p9mk3v-LS12_l6n5qFg8P5j8fdRMWYXL6ISrGUlxRRPOpZd6d7kwXNlS95z2bUHFE3_L8Z0_kwGFLqHMqhQ53fgP6UvwUdSNH0rAYsB0cbhfTXu1b-SD0Mvb8p8zLJ82pgSU2uyIzBizi7rE_gc3u9kc69h_aI1Ifgc1JDugvNiyMDBv3Soj5vC1PEuN8MzmSmeJcRh3MXYM5RQh3qdGIKXPSkMi8TcdUSLvxh_c17ggskq9ReJQbfNQnW6mb0nt2MM4R6H6efUr3l5Wc8KKDzdPV2BWCanJO3xCEbp26J2YZdOEuHAWumuSVSSQ5yTkLOxs4uj9iOQL_xrLQ3e8eYzSfr0tjcLM1BFAWijDsmQaVxhgNejxWTFZVK3grldB6JwmJVohFHg8R97ts773IXPGwUdvzRkRcAbd49Ru7hp5GtgEbUO7JbwXBD1yRj3SHq5ww7rjsCenV6BKWj3SsobucLnt4Omw3qmfB-kO1cRSl_YwHIRW1JPc1TUHYys4_mgWgmMshhkBcEb1PvQa6LMrtykcGtsqncyvYCh6w2GodCG6vHxNE7m_ABUZCU3kkZjDYMTACbXQPGmYztcOXSTnandSrdyQnPK4VZANBysur_-MEDMxxD10d9q4NY_avQcNfzT0JHns0IP9JnGc4xTsyjvZrDOU7-WVOlIOXDlT5F]--></g></svg>