<?xml version="1.0" encoding="us-ascii" standalone="no"?><svg xmlns="http://www.w3.org/2000/svg" xmlns:xlink="http://www.w3.org/1999/xlink" contentStyleType="text/css" height="1413px" preserveAspectRatio="none" style="width:1189px;height:1413px;background:#FFFFFF;" version="1.1" viewBox="0 0 1189 1413" width="1189.8px" zoomAndPan="magnify"><defs/><g><text fill="#000000" font-family="sans-serif" font-size="12.6" font-weight="bold" lengthAdjust="spacing" textLength="207" x="490.725" y="27.0967">US 5.1.15. Process View (Level 3)</text><rect fill="#FFFFFF" height="283.1133" style="stroke:#181818;stroke-width:0.9;" width="9" x="154.8" y="117.1389"/><rect fill="#FFFFFF" height="416.417" style="stroke:#181818;stroke-width:0.9;" width="9" x="154.8" y="450.9141"/><rect fill="#FFFFFF" height="404.6906" style="stroke:#181818;stroke-width:0.9;" width="9" x="154.8" y="941.6549"/><rect fill="#FFFFFF" height="226.7895" style="stroke:#181818;stroke-width:0.9;" width="9" x="323.1" y="145.3008"/><rect fill="#FFFFFF" height="349.6122" style="stroke:#181818;stroke-width:0.9;" width="9" x="323.1" y="489.5569"/><rect fill="#FFFFFF" height="141.9715" style="stroke:#181818;stroke-width:0.9;" width="9" x="323.1" y="969.8168"/><rect fill="#FFFFFF" height="141.9715" style="stroke:#181818;stroke-width:0.9;" width="9" x="323.1" y="1169.9121"/><rect fill="#FFFFFF" height="170.4656" style="stroke:#181818;stroke-width:0.9;" width="9" x="650.25" y="173.4627"/><rect fill="#FFFFFF" height="226.7895" style="stroke:#181818;stroke-width:0.9;" width="9" x="650.25" y="584.2178"/><rect fill="#FFFFFF" height="28.1619" style="stroke:#181818;stroke-width:0.9;" width="9" x="821.25" y="201.6246"/><rect fill="#FFFFFF" height="28.1619" style="stroke:#181818;stroke-width:0.9;" width="9" x="821.25" y="668.7035"/><rect fill="#FFFFFF" height="28.1619" style="stroke:#181818;stroke-width:0.9;" width="9" x="1077.3" y="612.3797"/><rect fill="none" height="73.3799" style="stroke:#000000;stroke-width:1.35;" width="402.75" x="576" y="243.2865"/><rect fill="none" height="73.3799" style="stroke:#000000;stroke-width:1.35;" width="402.75" x="576" y="710.3654"/><rect fill="none" height="415.7525" style="stroke:#000000;stroke-width:1.35;" width="968.85" x="9.9" y="903.3311"/><line style="stroke:#181818;stroke-width:0.45;stroke-dasharray:5.0,5.0;" x1="159.3" x2="159.3" y1="87.177" y2="1362.5455"/><line style="stroke:#181818;stroke-width:0.45;stroke-dasharray:5.0,5.0;" x1="327.15" x2="327.15" y1="87.177" y2="1362.5455"/><line style="stroke:#181818;stroke-width:0.45;stroke-dasharray:5.0,5.0;" x1="504" x2="504" y1="544.2469" y2="1362.5455"/><line style="stroke:#181818;stroke-width:0.45;stroke-dasharray:5.0,5.0;" x1="654.3" x2="654.3" y1="87.177" y2="1362.5455"/><line style="stroke:#181818;stroke-width:0.45;stroke-dasharray:5.0,5.0;" x1="825.75" x2="825.75" y1="87.177" y2="1362.5455"/><line style="stroke:#181818;stroke-width:0.45;stroke-dasharray:5.0,5.0;" x1="924.75" x2="924.75" y1="1214.1211" y2="1362.5455"/><line style="stroke:#181818;stroke-width:0.45;stroke-dasharray:5.0,5.0;" x1="1081.35" x2="1081.35" y1="87.177" y2="1362.5455"/><rect fill="#E2E2F0" height="46.118" rx="2.25" ry="2.25" style="stroke:#181818;stroke-width:0.45;" width="90" x="114.3" y="40.159"/><text fill="#000000" font-family="sans-serif" font-size="12.6" lengthAdjust="spacing" textLength="77.4" x="120.6" y="60.0557">&#171;component&#187;</text><text fill="#000000" font-family="sans-serif" font-size="12.6" lengthAdjust="spacing" textLength="44.1" x="139.05" y="76.8146">Routing</text><rect fill="#E2E2F0" height="46.118" rx="2.25" ry="2.25" style="stroke:#181818;stroke-width:0.45;" width="90" x="114.3" y="1361.6455"/><text fill="#000000" font-family="sans-serif" font-size="12.6" lengthAdjust="spacing" textLength="77.4" x="120.6" y="1381.5422">&#171;component&#187;</text><text fill="#000000" font-family="sans-serif" font-size="12.6" lengthAdjust="spacing" textLength="44.1" x="139.05" y="1398.3012">Routing</text><rect fill="#E2E2F0" height="46.118" rx="2.25" ry="2.25" style="stroke:#181818;stroke-width:0.45;" width="144.9" x="255.15" y="40.159"/><text fill="#000000" font-family="sans-serif" font-size="12.6" lengthAdjust="spacing" textLength="77.4" x="288.9" y="60.0557">&#171;component&#187;</text><text fill="#000000" font-family="sans-serif" font-size="12.6" lengthAdjust="spacing" textLength="128.7" x="265.05" y="76.8146">ProfileListingController</text><rect fill="#E2E2F0" height="46.118" rx="2.25" ry="2.25" style="stroke:#181818;stroke-width:0.45;" width="144.9" x="255.15" y="1361.6455"/><text fill="#000000" font-family="sans-serif" font-size="12.6" lengthAdjust="spacing" textLength="77.4" x="288.9" y="1381.5422">&#171;component&#187;</text><text fill="#000000" font-family="sans-serif" font-size="12.6" lengthAdjust="spacing" textLength="128.7" x="265.05" y="1398.3012">ProfileListingController</text><rect fill="#E2E2F0" height="46.118" rx="2.25" ry="2.25" style="stroke:#181818;stroke-width:0.45;" width="144" x="432" y="1361.6455"/><text fill="#000000" font-family="sans-serif" font-size="12.6" lengthAdjust="spacing" textLength="77.4" x="465.3" y="1381.5422">&#171;component&#187;</text><text fill="#000000" font-family="sans-serif" font-size="12.6" lengthAdjust="spacing" textLength="127.8" x="441.9" y="1398.3012">QueryParametersDTO</text><rect fill="#E2E2F0" height="46.118" rx="2.25" ry="2.25" style="stroke:#181818;stroke-width:0.45;" width="139.5" x="585" y="40.159"/><text fill="#000000" font-family="sans-serif" font-size="12.6" lengthAdjust="spacing" textLength="77.4" x="616.05" y="60.0557">&#171;component&#187;</text><text fill="#000000" font-family="sans-serif" font-size="12.6" lengthAdjust="spacing" textLength="123.3" x="594.9" y="76.8146">XManagementService</text><rect fill="#E2E2F0" height="46.118" rx="2.25" ry="2.25" style="stroke:#181818;stroke-width:0.45;" width="139.5" x="585" y="1361.6455"/><text fill="#000000" font-family="sans-serif" font-size="12.6" lengthAdjust="spacing" textLength="77.4" x="616.05" y="1381.5422">&#171;component&#187;</text><text fill="#000000" font-family="sans-serif" font-size="12.6" lengthAdjust="spacing" textLength="123.3" x="594.9" y="1398.3012">XManagementService</text><rect fill="#E2E2F0" height="46.118" rx="2.25" ry="2.25" style="stroke:#181818;stroke-width:0.45;" width="90" x="780.75" y="40.159"/><text fill="#000000" font-family="sans-serif" font-size="12.6" lengthAdjust="spacing" textLength="77.4" x="787.05" y="60.0557">&#171;component&#187;</text><text fill="#000000" font-family="sans-serif" font-size="12.6" lengthAdjust="spacing" textLength="68.4" x="793.35" y="76.8146">XRepository</text><rect fill="#E2E2F0" height="46.118" rx="2.25" ry="2.25" style="stroke:#181818;stroke-width:0.45;" width="90" x="780.75" y="1361.6455"/><text fill="#000000" font-family="sans-serif" font-size="12.6" lengthAdjust="spacing" textLength="77.4" x="787.05" y="1381.5422">&#171;component&#187;</text><text fill="#000000" font-family="sans-serif" font-size="12.6" lengthAdjust="spacing" textLength="68.4" x="793.35" y="1398.3012">XRepository</text><rect fill="#E2E2F0" height="46.118" rx="2.25" ry="2.25" style="stroke:#181818;stroke-width:0.45;" width="90" x="879.75" y="1361.6455"/><text fill="#000000" font-family="sans-serif" font-size="12.6" lengthAdjust="spacing" textLength="77.4" x="886.05" y="1381.5422">&#171;component&#187;</text><text fill="#000000" font-family="sans-serif" font-size="12.6" lengthAdjust="spacing" textLength="34.2" x="909.45" y="1398.3012">XDTO</text><rect fill="#E2E2F0" height="46.118" rx="2.25" ry="2.25" style="stroke:#181818;stroke-width:0.45;" width="206.1" x="978.75" y="40.159"/><text fill="#000000" font-family="sans-serif" font-size="12.6" lengthAdjust="spacing" textLength="77.4" x="1043.1" y="60.0557">&#171;component&#187;</text><text fill="#000000" font-family="sans-serif" font-size="12.6" lengthAdjust="spacing" textLength="189.9" x="988.65" y="76.8146">DynamicQueryGenerationService</text><rect fill="#E2E2F0" height="46.118" rx="2.25" ry="2.25" style="stroke:#181818;stroke-width:0.45;" width="206.1" x="978.75" y="1361.6455"/><text fill="#000000" font-family="sans-serif" font-size="12.6" lengthAdjust="spacing" textLength="77.4" x="1043.1" y="1381.5422">&#171;component&#187;</text><text fill="#000000" font-family="sans-serif" font-size="12.6" lengthAdjust="spacing" textLength="189.9" x="988.65" y="1398.3012">DynamicQueryGenerationService</text><rect fill="#FFFFFF" height="283.1133" style="stroke:#181818;stroke-width:0.9;" width="9" x="154.8" y="117.1389"/><rect fill="#FFFFFF" height="416.417" style="stroke:#181818;stroke-width:0.9;" width="9" x="154.8" y="450.9141"/><rect fill="#FFFFFF" height="404.6906" style="stroke:#181818;stroke-width:0.9;" width="9" x="154.8" y="941.6549"/><rect fill="#FFFFFF" height="226.7895" style="stroke:#181818;stroke-width:0.9;" width="9" x="323.1" y="145.3008"/><rect fill="#FFFFFF" height="349.6122" style="stroke:#181818;stroke-width:0.9;" width="9" x="323.1" y="489.5569"/><rect fill="#FFFFFF" height="141.9715" style="stroke:#181818;stroke-width:0.9;" width="9" x="323.1" y="969.8168"/><rect fill="#FFFFFF" height="141.9715" style="stroke:#181818;stroke-width:0.9;" width="9" x="323.1" y="1169.9121"/><rect fill="#FFFFFF" height="170.4656" style="stroke:#181818;stroke-width:0.9;" width="9" x="650.25" y="173.4627"/><rect fill="#FFFFFF" height="226.7895" style="stroke:#181818;stroke-width:0.9;" width="9" x="650.25" y="584.2178"/><rect fill="#FFFFFF" height="28.1619" style="stroke:#181818;stroke-width:0.9;" width="9" x="821.25" y="201.6246"/><rect fill="#FFFFFF" height="28.1619" style="stroke:#181818;stroke-width:0.9;" width="9" x="821.25" y="668.7035"/><rect fill="#FFFFFF" height="28.1619" style="stroke:#181818;stroke-width:0.9;" width="9" x="1077.3" y="612.3797"/><ellipse cx="6.75" cy="116.4639" fill="none" rx="3.6" ry="3.6" style="stroke:#181818;stroke-width:1.35;"/><polygon fill="#181818" points="144,113.5389,153,117.1389,144,120.7389,147.6,117.1389" style="stroke:#181818;stroke-width:0.9;"/><line style="stroke:#181818;stroke-width:0.9;" x1="10.8" x2="149.4" y1="117.1389" y2="117.1389"/><text fill="#000000" font-family="sans-serif" font-size="11.7" font-weight="bold" lengthAdjust="spacing" textLength="6.3" x="13.5" y="112.4024">1</text><text fill="#000000" font-family="sans-serif" font-size="11.7" lengthAdjust="spacing" textLength="30.6" x="23.4" y="112.4024">GET()</text><polygon fill="#181818" points="312.3,141.7008,321.3,145.3008,312.3,148.9008,315.9,145.3008" style="stroke:#181818;stroke-width:0.9;"/><line style="stroke:#181818;stroke-width:0.9;" x1="163.8" x2="317.7" y1="145.3008" y2="145.3008"/><text fill="#000000" font-family="sans-serif" font-size="11.7" font-weight="bold" lengthAdjust="spacing" textLength="6.3" x="170.1" y="140.5644">2</text><text fill="#000000" font-family="sans-serif" font-size="11.7" lengthAdjust="spacing" textLength="81.9" x="180" y="140.5644">getAllXProfiles()</text><polygon fill="#181818" points="639.45,169.8627,648.45,173.4627,639.45,177.0627,643.05,173.4627" style="stroke:#181818;stroke-width:0.9;"/><line style="stroke:#181818;stroke-width:0.9;" x1="332.1" x2="644.85" y1="173.4627" y2="173.4627"/><text fill="#000000" font-family="sans-serif" font-size="11.7" font-weight="bold" lengthAdjust="spacing" textLength="6.3" x="338.4" y="168.7263">3</text><text fill="#000000" font-family="sans-serif" font-size="11.7" lengthAdjust="spacing" textLength="75.6" x="348.3" y="168.7263">getAllProfiles()</text><polygon fill="#181818" points="810.45,198.0246,819.45,201.6246,810.45,205.2246,814.05,201.6246" style="stroke:#181818;stroke-width:0.9;"/><line style="stroke:#181818;stroke-width:0.9;" x1="659.25" x2="815.85" y1="201.6246" y2="201.6246"/><text fill="#000000" font-family="sans-serif" font-size="11.7" font-weight="bold" lengthAdjust="spacing" textLength="6.3" x="665.55" y="196.8882">4</text><text fill="#000000" font-family="sans-serif" font-size="11.7" lengthAdjust="spacing" textLength="38.7" x="675.45" y="196.8882">findAll()</text><polygon fill="#181818" points="669.15,226.1865,660.15,229.7865,669.15,233.3865,665.55,229.7865" style="stroke:#181818;stroke-width:0.9;"/><line style="stroke:#181818;stroke-width:0.9;stroke-dasharray:2.0,2.0;" x1="663.75" x2="824.85" y1="229.7865" y2="229.7865"/><text fill="#000000" font-family="sans-serif" font-size="11.7" font-weight="bold" lengthAdjust="spacing" textLength="6.3" x="674.55" y="225.0501">5</text><text fill="#000000" font-family="sans-serif" font-size="11.7" lengthAdjust="spacing" textLength="62.1" x="684.45" y="225.0501">XprofilesList</text><path d="M576,243.2865 L641.7,243.2865 L641.7,251.6484 L632.7,260.6484 L576,260.6484 L576,243.2865 " fill="#EEEEEE" style="stroke:#000000;stroke-width:1.35;"/><rect fill="none" height="73.3799" style="stroke:#000000;stroke-width:1.35;" width="402.75" x="576" y="243.2865"/><text fill="#000000" font-family="sans-serif" font-size="11.7" font-weight="bold" lengthAdjust="spacing" textLength="25.2" x="589.5" y="256.812">loop</text><text fill="#000000" font-family="sans-serif" font-size="9.9" font-weight="bold" lengthAdjust="spacing" textLength="144" x="655.2" y="255.7696">[for all the profiles in the list]</text><polygon fill="#181818" points="868.95,278.0104,877.95,281.6104,868.95,285.2104,872.55,281.6104" style="stroke:#181818;stroke-width:0.9;"/><line style="stroke:#181818;stroke-width:0.9;" x1="659.25" x2="874.35" y1="281.6104" y2="281.6104"/><text fill="#000000" font-family="sans-serif" font-size="11.7" font-weight="bold" lengthAdjust="spacing" textLength="6.3" x="665.55" y="276.8739">6</text><text fill="#000000" font-family="sans-serif" font-size="11.7" lengthAdjust="spacing" textLength="77.4" x="675.45" y="276.8739">toDTO(Xprofile)</text><rect fill="#E2E2F0" height="46.118" rx="2.25" ry="2.25" style="stroke:#181818;stroke-width:0.45;" width="90" x="879.75" y="260.6484"/><text fill="#000000" font-family="sans-serif" font-size="12.6" lengthAdjust="spacing" textLength="77.4" x="886.05" y="280.5451">&#171;component&#187;</text><text fill="#000000" font-family="sans-serif" font-size="12.6" lengthAdjust="spacing" textLength="34.2" x="909.45" y="297.3041">XDTO</text><polygon fill="#181818" points="342,340.3283,333,343.9283,342,347.5283,338.4,343.9283" style="stroke:#181818;stroke-width:0.9;"/><line style="stroke:#181818;stroke-width:0.9;stroke-dasharray:2.0,2.0;" x1="336.6" x2="653.85" y1="343.9283" y2="343.9283"/><text fill="#000000" font-family="sans-serif" font-size="11.7" font-weight="bold" lengthAdjust="spacing" textLength="6.3" x="347.4" y="339.1919">7</text><text fill="#000000" font-family="sans-serif" font-size="11.7" lengthAdjust="spacing" textLength="79.2" x="357.3" y="339.1919">XprofileDTOList</text><polygon fill="#181818" points="173.7,368.4902,164.7,372.0902,173.7,375.6902,170.1,372.0902" style="stroke:#181818;stroke-width:0.9;"/><line style="stroke:#181818;stroke-width:0.9;stroke-dasharray:2.0,2.0;" x1="168.3" x2="326.7" y1="372.0902" y2="372.0902"/><text fill="#000000" font-family="sans-serif" font-size="11.7" font-weight="bold" lengthAdjust="spacing" textLength="6.3" x="179.1" y="367.3538">8</text><text fill="#000000" font-family="sans-serif" font-size="11.7" lengthAdjust="spacing" textLength="79.2" x="189" y="367.3538">XprofileDTOList</text><polygon fill="#181818" points="9.9,396.6521,0.9,400.2521,9.9,403.8521,6.3,400.2521" style="stroke:#181818;stroke-width:0.9;"/><line style="stroke:#181818;stroke-width:0.9;stroke-dasharray:2.0,2.0;" x1="4.5" x2="158.4" y1="400.2521" y2="400.2521"/><text fill="#000000" font-family="sans-serif" font-size="11.7" font-weight="bold" lengthAdjust="spacing" textLength="6.3" x="15.3" y="395.5157">9</text><text fill="#000000" font-family="sans-serif" font-size="11.7" lengthAdjust="spacing" textLength="79.2" x="25.2" y="395.5157">XprofileDTOList</text><ellipse cx="6.75" cy="450.2391" fill="none" rx="3.6" ry="3.6" style="stroke:#181818;stroke-width:1.35;"/><polygon fill="#181818" points="144,447.3141,153,450.9141,144,454.5141,147.6,450.9141" style="stroke:#181818;stroke-width:0.9;"/><line style="stroke:#181818;stroke-width:0.9;" x1="10.8" x2="149.4" y1="450.9141" y2="450.9141"/><text fill="#000000" font-family="sans-serif" font-size="11.7" font-weight="bold" lengthAdjust="spacing" textLength="12.6" x="13.5" y="446.1776">10</text><text fill="#000000" font-family="sans-serif" font-size="11.7" lengthAdjust="spacing" textLength="60.3" x="29.7" y="446.1776">POST(json)</text><polygon fill="#181818" points="312.3,485.9569,321.3,489.5569,312.3,493.1569,315.9,489.5569" style="stroke:#181818;stroke-width:0.9;"/><line style="stroke:#181818;stroke-width:0.9;" x1="163.8" x2="317.7" y1="489.5569" y2="489.5569"/><text fill="#000000" font-family="sans-serif" font-size="11.7" font-weight="bold" lengthAdjust="spacing" textLength="12.6" x="170.1" y="484.8205">11</text><text fill="#000000" font-family="sans-serif" font-size="11.7" lengthAdjust="spacing" textLength="95.4" x="186.3" y="484.8205">filterXProfiles(json)</text><path d="M40.5,462.6141 L40.5,502.2141 L150.3,502.2141 L150.3,471.6141 L141.3,462.6141 L40.5,462.6141 " fill="#FEFFDD" style="stroke:#181818;stroke-width:0.45;"/><path d="M141.3,462.6141 L141.3,471.6141 L150.3,471.6141 L141.3,462.6141 " fill="#FEFFDD" style="stroke:#181818;stroke-width:0.45;"/><text fill="#000000" font-family="sans-serif" font-size="11.7" lengthAdjust="spacing" textLength="89.1" x="45.9" y="479.7396">json contains the</text><text fill="#000000" font-family="sans-serif" font-size="11.7" lengthAdjust="spacing" textLength="90.9" x="45.9" y="495.3015">query parameters</text><polygon fill="#181818" points="421.2,524.5998,430.2,528.1998,421.2,531.7998,424.8,528.1998" style="stroke:#181818;stroke-width:0.9;"/><line style="stroke:#181818;stroke-width:0.9;" x1="332.1" x2="426.6" y1="528.1998" y2="528.1998"/><text fill="#000000" font-family="sans-serif" font-size="11.7" font-weight="bold" lengthAdjust="spacing" textLength="12.6" x="338.4" y="523.4634">12</text><text fill="#000000" font-family="sans-serif" font-size="11.7" lengthAdjust="spacing" textLength="62.1" x="354.6" y="523.4634">toDTO(json)</text><rect fill="#E2E2F0" height="46.118" rx="2.25" ry="2.25" style="stroke:#181818;stroke-width:0.45;" width="144" x="432" y="507.2379"/><text fill="#000000" font-family="sans-serif" font-size="12.6" lengthAdjust="spacing" textLength="77.4" x="465.3" y="527.1346">&#171;component&#187;</text><text fill="#000000" font-family="sans-serif" font-size="12.6" lengthAdjust="spacing" textLength="127.8" x="441.9" y="543.8936">QueryParametersDTO</text><polygon fill="#181818" points="639.45,580.6178,648.45,584.2178,639.45,587.8178,643.05,584.2178" style="stroke:#181818;stroke-width:0.9;"/><line style="stroke:#181818;stroke-width:0.9;" x1="332.1" x2="644.85" y1="584.2178" y2="584.2178"/><text fill="#000000" font-family="sans-serif" font-size="11.7" font-weight="bold" lengthAdjust="spacing" textLength="12.6" x="338.4" y="579.4813">13</text><text fill="#000000" font-family="sans-serif" font-size="11.7" lengthAdjust="spacing" textLength="186.3" x="354.6" y="579.4813">filterXProfiles(queryParametersDTO)</text><polygon fill="#181818" points="1066.5,608.7797,1075.5,612.3797,1066.5,615.9797,1070.1,612.3797" style="stroke:#181818;stroke-width:0.9;"/><line style="stroke:#181818;stroke-width:0.9;" x1="659.25" x2="1071.9" y1="612.3797" y2="612.3797"/><text fill="#000000" font-family="sans-serif" font-size="11.7" font-weight="bold" lengthAdjust="spacing" textLength="12.6" x="665.55" y="607.6433">14</text><text fill="#000000" font-family="sans-serif" font-size="11.7" lengthAdjust="spacing" textLength="218.7" x="681.75" y="607.6433">generateQueryText(queryParametersDTO)</text><polygon fill="#181818" points="669.15,636.9416,660.15,640.5416,669.15,644.1416,665.55,640.5416" style="stroke:#181818;stroke-width:0.9;"/><line style="stroke:#181818;stroke-width:0.9;stroke-dasharray:2.0,2.0;" x1="663.75" x2="1080.9" y1="640.5416" y2="640.5416"/><text fill="#000000" font-family="sans-serif" font-size="11.7" font-weight="bold" lengthAdjust="spacing" textLength="12.6" x="674.55" y="635.8052">15</text><text fill="#000000" font-family="sans-serif" font-size="11.7" lengthAdjust="spacing" textLength="28.8" x="690.75" y="635.8052">query</text><polygon fill="#181818" points="810.45,665.1035,819.45,668.7035,810.45,672.3035,814.05,668.7035" style="stroke:#181818;stroke-width:0.9;"/><line style="stroke:#181818;stroke-width:0.9;" x1="659.25" x2="815.85" y1="668.7035" y2="668.7035"/><text fill="#000000" font-family="sans-serif" font-size="11.7" font-weight="bold" lengthAdjust="spacing" textLength="12.6" x="665.55" y="663.9671">16</text><text fill="#000000" font-family="sans-serif" font-size="11.7" lengthAdjust="spacing" textLength="128.7" x="681.75" y="663.9671">findAllConditioned(query)</text><polygon fill="#181818" points="669.15,693.2654,660.15,696.8654,669.15,700.4654,665.55,696.8654" style="stroke:#181818;stroke-width:0.9;"/><line style="stroke:#181818;stroke-width:0.9;stroke-dasharray:2.0,2.0;" x1="663.75" x2="824.85" y1="696.8654" y2="696.8654"/><text fill="#000000" font-family="sans-serif" font-size="11.7" font-weight="bold" lengthAdjust="spacing" textLength="12.6" x="674.55" y="692.129">17</text><text fill="#000000" font-family="sans-serif" font-size="11.7" lengthAdjust="spacing" textLength="62.1" x="690.75" y="692.129">XprofilesList</text><path d="M576,710.3654 L641.7,710.3654 L641.7,718.7273 L632.7,727.7273 L576,727.7273 L576,710.3654 " fill="#EEEEEE" style="stroke:#000000;stroke-width:1.35;"/><rect fill="none" height="73.3799" style="stroke:#000000;stroke-width:1.35;" width="402.75" x="576" y="710.3654"/><text fill="#000000" font-family="sans-serif" font-size="11.7" font-weight="bold" lengthAdjust="spacing" textLength="25.2" x="589.5" y="723.8909">loop</text><text fill="#000000" font-family="sans-serif" font-size="9.9" font-weight="bold" lengthAdjust="spacing" textLength="144" x="655.2" y="722.8485">[for all the profiles in the list]</text><polygon fill="#181818" points="868.95,745.0893,877.95,748.6893,868.95,752.2893,872.55,748.6893" style="stroke:#181818;stroke-width:0.9;"/><line style="stroke:#181818;stroke-width:0.9;" x1="659.25" x2="874.35" y1="748.6893" y2="748.6893"/><text fill="#000000" font-family="sans-serif" font-size="11.7" font-weight="bold" lengthAdjust="spacing" textLength="12.6" x="665.55" y="743.9528">18</text><text fill="#000000" font-family="sans-serif" font-size="11.7" lengthAdjust="spacing" textLength="77.4" x="681.75" y="743.9528">toDTO(Xprofile)</text><rect fill="#E2E2F0" height="46.118" rx="2.25" ry="2.25" style="stroke:#181818;stroke-width:0.45;" width="90" x="879.75" y="727.7273"/><text fill="#000000" font-family="sans-serif" font-size="12.6" lengthAdjust="spacing" textLength="77.4" x="886.05" y="747.624">&#171;component&#187;</text><text fill="#000000" font-family="sans-serif" font-size="12.6" lengthAdjust="spacing" textLength="34.2" x="909.45" y="764.383">XDTO</text><polygon fill="#181818" points="342,807.4072,333,811.0072,342,814.6072,338.4,811.0072" style="stroke:#181818;stroke-width:0.9;"/><line style="stroke:#181818;stroke-width:0.9;stroke-dasharray:2.0,2.0;" x1="336.6" x2="653.85" y1="811.0072" y2="811.0072"/><text fill="#000000" font-family="sans-serif" font-size="11.7" font-weight="bold" lengthAdjust="spacing" textLength="12.6" x="347.4" y="806.2708">19</text><text fill="#000000" font-family="sans-serif" font-size="11.7" lengthAdjust="spacing" textLength="121.5" x="363.6" y="806.2708">filteredXProfilesDTOList</text><polygon fill="#181818" points="173.7,835.5691,164.7,839.1691,173.7,842.7691,170.1,839.1691" style="stroke:#181818;stroke-width:0.9;"/><line style="stroke:#181818;stroke-width:0.9;stroke-dasharray:2.0,2.0;" x1="168.3" x2="326.7" y1="839.1691" y2="839.1691"/><text fill="#000000" font-family="sans-serif" font-size="11.7" font-weight="bold" lengthAdjust="spacing" textLength="12.6" x="179.1" y="834.4327">20</text><text fill="#000000" font-family="sans-serif" font-size="11.7" lengthAdjust="spacing" textLength="121.5" x="195.3" y="834.4327">filteredXProfilesDTOList</text><polygon fill="#181818" points="9.9,863.7311,0.9,867.3311,9.9,870.9311,6.3,867.3311" style="stroke:#181818;stroke-width:0.9;"/><line style="stroke:#181818;stroke-width:0.9;stroke-dasharray:2.0,2.0;" x1="4.5" x2="158.4" y1="867.3311" y2="867.3311"/><text fill="#000000" font-family="sans-serif" font-size="11.7" font-weight="bold" lengthAdjust="spacing" textLength="12.6" x="15.3" y="862.5946">21</text><text fill="#000000" font-family="sans-serif" font-size="11.7" lengthAdjust="spacing" textLength="121.5" x="31.5" y="862.5946">filteredXProfilesDTOList</text><path d="M9.9,903.3311 L64.8,903.3311 L64.8,911.693 L55.8,920.693 L9.9,920.693 L9.9,903.3311 " fill="#EEEEEE" style="stroke:#000000;stroke-width:1.35;"/><rect fill="none" height="415.7525" style="stroke:#000000;stroke-width:1.35;" width="968.85" x="9.9" y="903.3311"/><text fill="#000000" font-family="sans-serif" font-size="11.7" font-weight="bold" lengthAdjust="spacing" textLength="14.4" x="23.4" y="916.8565">alt</text><text fill="#000000" font-family="sans-serif" font-size="9.9" font-weight="bold" lengthAdjust="spacing" textLength="70.2" x="78.3" y="915.8142">[edit X profile]</text><ellipse cx="6.75" cy="940.9799" fill="none" rx="3.6" ry="3.6" style="stroke:#181818;stroke-width:1.35;"/><polygon fill="#181818" points="144,938.0549,153,941.6549,144,945.2549,147.6,941.6549" style="stroke:#181818;stroke-width:0.9;"/><line style="stroke:#181818;stroke-width:0.9;" x1="10.8" x2="149.4" y1="941.6549" y2="941.6549"/><text fill="#000000" font-family="sans-serif" font-size="11.7" font-weight="bold" lengthAdjust="spacing" textLength="12.6" x="13.5" y="936.9185">22</text><text fill="#000000" font-family="sans-serif" font-size="11.7" lengthAdjust="spacing" textLength="51.3" x="29.7" y="936.9185">PUT(json)</text><polygon fill="#181818" points="312.3,966.2168,321.3,969.8168,312.3,973.4168,315.9,969.8168" style="stroke:#181818;stroke-width:0.9;"/><line style="stroke:#181818;stroke-width:0.9;" x1="163.8" x2="317.7" y1="969.8168" y2="969.8168"/><text fill="#000000" font-family="sans-serif" font-size="11.7" font-weight="bold" lengthAdjust="spacing" textLength="12.6" x="170.1" y="965.0804">23</text><text fill="#000000" font-family="sans-serif" font-size="11.7" lengthAdjust="spacing" textLength="102.6" x="186.3" y="965.0804">updateXProfile(json)</text><polygon fill="#181818" points="868.95,994.3787,877.95,997.9787,868.95,1001.5787,872.55,997.9787" style="stroke:#181818;stroke-width:0.9;"/><line style="stroke:#181818;stroke-width:0.9;" x1="332.1" x2="874.35" y1="997.9787" y2="997.9787"/><text fill="#000000" font-family="sans-serif" font-size="11.7" font-weight="bold" lengthAdjust="spacing" textLength="12.6" x="338.4" y="993.2423">24</text><text fill="#000000" font-family="sans-serif" font-size="11.7" lengthAdjust="spacing" textLength="56.7" x="354.6" y="993.2423">toDto(json)</text><rect fill="#E2E2F0" height="46.118" rx="2.25" ry="2.25" style="stroke:#181818;stroke-width:0.45;" width="90" x="879.75" y="977.0168"/><text fill="#000000" font-family="sans-serif" font-size="12.6" lengthAdjust="spacing" textLength="77.4" x="886.05" y="996.9135">&#171;component&#187;</text><text fill="#000000" font-family="sans-serif" font-size="12.6" lengthAdjust="spacing" textLength="34.2" x="909.45" y="1013.6725">XDTO</text><rect fill="none" height="53.2916" style="stroke:#000000;stroke-width:1.35;" width="150.3" x="252.45" y="1033.0348"/><path d="M252.45,1033.0348 L308.25,1033.0348 L308.25,1041.1348 L299.25,1050.1348 L252.45,1050.1348 L252.45,1033.0348 " fill="#EEEEEE" style="stroke:#000000;stroke-width:1.8;"/><text fill="#000000" font-family="sans-serif" font-size="11.7" font-weight="bold" lengthAdjust="spacing" textLength="15.3" x="264.15" y="1047.4603">ref</text><text fill="#000000" font-family="sans-serif" font-size="10.8" lengthAdjust="spacing" textLength="2.7" x="326.25" y="1065.3891">&#160;</text><text fill="#000000" font-family="sans-serif" font-size="10.8" font-weight="bold" lengthAdjust="spacing" textLength="44.1" x="305.55" y="1079.7539">US 5.1.Y.</text><polygon fill="#181818" points="173.7,1108.1883,164.7,1111.7883,173.7,1115.3883,170.1,1111.7883" style="stroke:#181818;stroke-width:0.9;"/><line style="stroke:#181818;stroke-width:0.9;stroke-dasharray:2.0,2.0;" x1="168.3" x2="326.7" y1="1111.7883" y2="1111.7883"/><text fill="#000000" font-family="sans-serif" font-size="11.7" font-weight="bold" lengthAdjust="spacing" textLength="12.6" x="179.1" y="1107.0519">25</text><text fill="#000000" font-family="sans-serif" font-size="11.7" lengthAdjust="spacing" textLength="29.7" x="195.3" y="1107.0519">return</text><line style="stroke:#000000;stroke-width:0.9;stroke-dasharray:2.0,2.0;" x1="9.9" x2="978.75" y1="1119.8883" y2="1119.8883"/><ellipse cx="6.75" cy="1141.0752" fill="none" rx="3.6" ry="3.6" style="stroke:#181818;stroke-width:1.35;"/><polygon fill="#181818" points="144,1138.1502,153,1141.7502,144,1145.3502,147.6,1141.7502" style="stroke:#181818;stroke-width:0.9;"/><line style="stroke:#181818;stroke-width:0.9;" x1="10.8" x2="149.4" y1="1141.7502" y2="1141.7502"/><text fill="#000000" font-family="sans-serif" font-size="11.7" font-weight="bold" lengthAdjust="spacing" textLength="12.6" x="13.5" y="1137.0138">26</text><text fill="#000000" font-family="sans-serif" font-size="11.7" lengthAdjust="spacing" textLength="73.8" x="29.7" y="1137.0138">DELETE(json)</text><polygon fill="#181818" points="312.3,1166.3121,321.3,1169.9121,312.3,1173.5121,315.9,1169.9121" style="stroke:#181818;stroke-width:0.9;"/><line style="stroke:#181818;stroke-width:0.9;" x1="163.8" x2="317.7" y1="1169.9121" y2="1169.9121"/><text fill="#000000" font-family="sans-serif" font-size="11.7" font-weight="bold" lengthAdjust="spacing" textLength="12.6" x="170.1" y="1165.1757">27</text><text fill="#000000" font-family="sans-serif" font-size="11.7" lengthAdjust="spacing" textLength="99" x="186.3" y="1165.1757">deleteXProfile(json)</text><polygon fill="#181818" points="868.95,1194.474,877.95,1198.074,868.95,1201.674,872.55,1198.074" style="stroke:#181818;stroke-width:0.9;"/><line style="stroke:#181818;stroke-width:0.9;" x1="332.1" x2="874.35" y1="1198.074" y2="1198.074"/><text fill="#000000" font-family="sans-serif" font-size="11.7" font-weight="bold" lengthAdjust="spacing" textLength="12.6" x="338.4" y="1193.3376">28</text><text fill="#000000" font-family="sans-serif" font-size="11.7" lengthAdjust="spacing" textLength="56.7" x="354.6" y="1193.3376">toDto(json)</text><rect fill="#E2E2F0" height="46.118" rx="2.25" ry="2.25" style="stroke:#181818;stroke-width:0.45;" width="90" x="879.75" y="1177.1121"/><text fill="#000000" font-family="sans-serif" font-size="12.6" lengthAdjust="spacing" textLength="77.4" x="886.05" y="1197.0088">&#171;component&#187;</text><text fill="#000000" font-family="sans-serif" font-size="12.6" lengthAdjust="spacing" textLength="34.2" x="909.45" y="1213.7678">XDTO</text><rect fill="none" height="53.2916" style="stroke:#000000;stroke-width:1.35;" width="150.3" x="252.45" y="1233.1301"/><path d="M252.45,1233.1301 L308.25,1233.1301 L308.25,1241.2301 L299.25,1250.2301 L252.45,1250.2301 L252.45,1233.1301 " fill="#EEEEEE" style="stroke:#000000;stroke-width:1.8;"/><text fill="#000000" font-family="sans-serif" font-size="11.7" font-weight="bold" lengthAdjust="spacing" textLength="15.3" x="264.15" y="1247.5556">ref</text><text fill="#000000" font-family="sans-serif" font-size="10.8" lengthAdjust="spacing" textLength="2.7" x="326.25" y="1265.4844">&#160;</text><text fill="#000000" font-family="sans-serif" font-size="10.8" font-weight="bold" lengthAdjust="spacing" textLength="44.1" x="305.55" y="1279.8492">US 5.1.Z.</text><polygon fill="#181818" points="173.7,1308.2836,164.7,1311.8836,173.7,1315.4836,170.1,1311.8836" style="stroke:#181818;stroke-width:0.9;"/><line style="stroke:#181818;stroke-width:0.9;stroke-dasharray:2.0,2.0;" x1="168.3" x2="326.7" y1="1311.8836" y2="1311.8836"/><text fill="#000000" font-family="sans-serif" font-size="11.7" font-weight="bold" lengthAdjust="spacing" textLength="12.6" x="179.1" y="1307.1472">29</text><text fill="#000000" font-family="sans-serif" font-size="11.7" lengthAdjust="spacing" textLength="29.7" x="195.3" y="1307.1472">return</text><polygon fill="#181818" points="9.9,1342.7455,0.9,1346.3455,9.9,1349.9455,6.3,1346.3455" style="stroke:#181818;stroke-width:0.9;"/><line style="stroke:#181818;stroke-width:0.9;stroke-dasharray:2.0,2.0;" x1="4.5" x2="158.4" y1="1346.3455" y2="1346.3455"/><text fill="#000000" font-family="sans-serif" font-size="11.7" font-weight="bold" lengthAdjust="spacing" textLength="12.6" x="15.3" y="1341.6091">30</text><text fill="#000000" font-family="sans-serif" font-size="11.7" lengthAdjust="spacing" textLength="71.1" x="31.5" y="1341.6091">success/error</text><!--SRC=[rPR1RXen48RlVWgBImaIeAZA9OgGgWJbGWk19I9jB-xkG5mPUsDxQP5u-8xjtOqXMw1ILQcSyEvyuvb_vazuzsnjRgxx_LmmQOkrwALgtJVmKe1CePjnjj9iJOZbLW1jpMVqgdVPkxpgqObMAHX37pdyeEqHR43GznSjGbXXbIpMtq0JaZDjUSfpp4rRDpUOErSIf1qClaewLONbSjMYpD3fU9uCZuVZXKikOCIDeswLj5e90Thpj-DFoNGyEd7ZGm5wEs7O4LZGvYuPUzW_niC9Ul6HIRQ2DPvde3Sy1KyltE44EOLS6MwLtWR4dKyWLN6BquNTRILRyzItSGyIDBDSoRZ6X_bm-kJh9EIBwWw2tlIQtW-JzWLXgUKRPg4S0mblCQoK5GDNO3y8iIY7O6AerhwAHj2BKcDDL92DX417E4sGM7AP8R8NwkKY8Q8RPL_aPMAt52I3GuBYHoYLqwNIb0b1xJFGYg5S-hDmB2q_h-MWxBJJmKkimg_jwggBa1LavZFN3Uo9LGKZ-AQoq7OjLJIB8rGjyKstUqvyESVTRdSmxybubhI_6oNF6ZfcHv-y3Zs0KY4aO6c9EzCKdSYuD4vCyk9saEQrnOWJoW77rwLoOAnukAnfgGxBUdbZwoDxLbl1RwSt2_Zh4_XfZwUANFIQ9Tv7JyTpY8ZVBJh-8SkuyojauVR_UV73P22hP_Dd3ZW7RxJ2EM3i2IOi1PITBYfLGdVxNfbNLd6l3lEuPmsMAV8CWwewclYw0VSqtkvOUAkg_NTH6fPKRK3livrE-U_ugTVfrCF1s8FKKKiQRA6bVzqaAGZJ9CJTS3HCXd513Ord8E1VD_xvhpMEFEx4_bAP8dM_SFgWjT8Dc_GB]--></g></svg>