<?xml version="1.0" encoding="us-ascii" standalone="no"?><svg xmlns="http://www.w3.org/2000/svg" xmlns:xlink="http://www.w3.org/1999/xlink" contentStyleType="text/css" height="292px" preserveAspectRatio="none" style="width:228px;height:292px;background:#FFFFFF;" version="1.1" viewBox="0 0 228 292" width="228px" zoomAndPan="magnify"><defs/><g><!--class Staff--><g id="elem_Staff"><rect codeLine="7" fill="#F5F5DC" height="40" id="Staff" rx="2.5" ry="2.5" style="stroke:#181818;stroke-width:0.5;" width="61" x="7" y="245"/><ellipse cx="22" cy="261" fill="#ADD1B2" rx="11" ry="11" style="stroke:#181818;stroke-width:1.0;"/><path d="M20.8594,261.7969 L20.8594,264.2969 L25.1875,264.2969 L25.1875,263.375 Q25.1875,262.7656 25.4219,262.5 Q25.6719,262.2344 26.0469,262.2344 Q26.4219,262.2344 26.6563,262.5 Q26.8906,262.7656 26.8906,263.375 L26.8906,266 L18.8906,266 Q18.2656,266 18,265.7656 Q17.75,265.5313 17.75,265.1406 Q17.75,264.7656 18.0156,264.5313 Q18.2813,264.2969 18.8906,264.2969 L19.1563,264.2969 L19.1563,257.6406 L18.8906,257.6406 Q18.2656,257.6406 18,257.4063 Q17.75,257.1719 17.75,256.7813 Q17.75,256.4063 18,256.1719 Q18.2656,255.9375 18.8906,255.9375 L26.5156,255.9375 L26.5156,258.5313 Q26.5156,259.1406 26.2813,259.4063 Q26.0625,259.6563 25.6719,259.6563 Q25.2969,259.6563 25.0625,259.4063 Q24.8281,259.1406 24.8281,258.5313 L24.8281,257.6406 L20.8594,257.6406 L20.8594,260.0938 L22.3438,260.0938 Q22.3438,259.4375 22.4688,259.25 Q22.7344,258.8438 23.2031,258.8438 Q23.5781,258.8438 23.8125,259.1094 Q24.0469,259.3594 24.0469,259.9688 L24.0469,261.9375 Q24.0469,262.4844 23.9219,262.6719 Q23.6563,263.0625 23.2031,263.0625 Q22.7344,263.0625 22.4688,262.6563 Q22.3438,262.4688 22.3438,261.7969 L20.8594,261.7969 Z " fill="#000000"/><text fill="#000000" font-family="sans-serif" font-size="14" lengthAdjust="spacing" textLength="29" x="36" y="266.7969">Staff</text><line style="stroke:#181818;stroke-width:0.5;" x1="8" x2="67" y1="277" y2="277"/></g><!--class Doctor--><g id="elem_Doctor"><rect codeLine="8" fill="#F5F5DC" height="40" id="Doctor" rx="2.5" ry="2.5" style="stroke:#181818;stroke-width:0.5;" width="74" x="29.5" y="7"/><ellipse cx="44.5" cy="23" fill="#ADD1B2" rx="11" ry="11" style="stroke:#181818;stroke-width:1.0;"/><path d="M43.3594,23.7969 L43.3594,26.2969 L47.6875,26.2969 L47.6875,25.375 Q47.6875,24.7656 47.9219,24.5 Q48.1719,24.2344 48.5469,24.2344 Q48.9219,24.2344 49.1563,24.5 Q49.3906,24.7656 49.3906,25.375 L49.3906,28 L41.3906,28 Q40.7656,28 40.5,27.7656 Q40.25,27.5313 40.25,27.1406 Q40.25,26.7656 40.5156,26.5313 Q40.7813,26.2969 41.3906,26.2969 L41.6563,26.2969 L41.6563,19.6406 L41.3906,19.6406 Q40.7656,19.6406 40.5,19.4063 Q40.25,19.1719 40.25,18.7813 Q40.25,18.4063 40.5,18.1719 Q40.7656,17.9375 41.3906,17.9375 L49.0156,17.9375 L49.0156,20.5313 Q49.0156,21.1406 48.7813,21.4063 Q48.5625,21.6563 48.1719,21.6563 Q47.7969,21.6563 47.5625,21.4063 Q47.3281,21.1406 47.3281,20.5313 L47.3281,19.6406 L43.3594,19.6406 L43.3594,22.0938 L44.8438,22.0938 Q44.8438,21.4375 44.9688,21.25 Q45.2344,20.8438 45.7031,20.8438 Q46.0781,20.8438 46.3125,21.1094 Q46.5469,21.3594 46.5469,21.9688 L46.5469,23.9375 Q46.5469,24.4844 46.4219,24.6719 Q46.1563,25.0625 45.7031,25.0625 Q45.2344,25.0625 44.9688,24.6563 Q44.8438,24.4688 44.8438,23.7969 L43.3594,23.7969 Z " fill="#000000"/><text fill="#000000" font-family="sans-serif" font-size="14" lengthAdjust="spacing" textLength="42" x="58.5" y="28.7969">Doctor</text><line style="stroke:#181818;stroke-width:0.5;" x1="30.5" x2="102.5" y1="39" y2="39"/></g><!--class Allergy--><g id="elem_Allergy"><rect codeLine="9" fill="#F5F5DC" height="40" id="Allergy" rx="2.5" ry="2.5" style="stroke:#181818;stroke-width:0.5;" width="75" x="121" y="245"/><ellipse cx="136" cy="261" fill="#ADD1B2" rx="11" ry="11" style="stroke:#181818;stroke-width:1.0;"/><path d="M134.8594,261.7969 L134.8594,264.2969 L139.1875,264.2969 L139.1875,263.375 Q139.1875,262.7656 139.4219,262.5 Q139.6719,262.2344 140.0469,262.2344 Q140.4219,262.2344 140.6563,262.5 Q140.8906,262.7656 140.8906,263.375 L140.8906,266 L132.8906,266 Q132.2656,266 132,265.7656 Q131.75,265.5313 131.75,265.1406 Q131.75,264.7656 132.0156,264.5313 Q132.2813,264.2969 132.8906,264.2969 L133.1563,264.2969 L133.1563,257.6406 L132.8906,257.6406 Q132.2656,257.6406 132,257.4063 Q131.75,257.1719 131.75,256.7813 Q131.75,256.4063 132,256.1719 Q132.2656,255.9375 132.8906,255.9375 L140.5156,255.9375 L140.5156,258.5313 Q140.5156,259.1406 140.2813,259.4063 Q140.0625,259.6563 139.6719,259.6563 Q139.2969,259.6563 139.0625,259.4063 Q138.8281,259.1406 138.8281,258.5313 L138.8281,257.6406 L134.8594,257.6406 L134.8594,260.0938 L136.3438,260.0938 Q136.3438,259.4375 136.4688,259.25 Q136.7344,258.8438 137.2031,258.8438 Q137.5781,258.8438 137.8125,259.1094 Q138.0469,259.3594 138.0469,259.9688 L138.0469,261.9375 Q138.0469,262.4844 137.9219,262.6719 Q137.6563,263.0625 137.2031,263.0625 Q136.7344,263.0625 136.4688,262.6563 Q136.3438,262.4688 136.3438,261.7969 L134.8594,261.7969 Z " fill="#000000"/><text fill="#000000" font-family="sans-serif" font-size="14" lengthAdjust="spacing" textLength="43" x="150" y="266.7969">Allergy</text><line style="stroke:#181818;stroke-width:0.5;" x1="122" x2="195" y1="277" y2="277"/></g><!--class MedicalRecord--><g id="elem_MedicalRecord"><rect fill="#F5F5DC" height="40" id="MedicalRecord" rx="2.5" ry="2.5" style="stroke:#181818;stroke-width:0.5;" width="126" x="95.5" y="126"/><ellipse cx="110.5" cy="142" fill="#ADD1B2" rx="11" ry="11" style="stroke:#181818;stroke-width:1.0;"/><path d="M113.2656,137.875 Q113.4219,137.6563 113.6094,137.5469 Q113.7969,137.4375 114.0156,137.4375 Q114.3906,137.4375 114.625,137.7031 Q114.8594,137.9531 114.8594,138.5625 L114.8594,140.0156 Q114.8594,140.625 114.625,140.8906 Q114.3906,141.1563 114.0156,141.1563 Q113.6719,141.1563 113.4688,140.9531 Q113.2656,140.7656 113.1563,140.25 Q113.1094,139.8906 112.9219,139.7031 Q112.5938,139.3281 111.9844,139.1094 Q111.375,138.8906 110.75,138.8906 Q109.9844,138.8906 109.3438,139.2188 Q108.7188,139.5469 108.2188,140.2969 Q107.7344,141.0469 107.7344,142.0781 L107.7344,143.1719 Q107.7344,144.4063 108.625,145.2344 Q109.5156,146.0469 111.1094,146.0469 Q112.0469,146.0469 112.7031,145.7969 Q113.0938,145.6406 113.5156,145.2031 Q113.7813,144.9375 113.9219,144.8594 Q114.0781,144.7813 114.2813,144.7813 Q114.6094,144.7813 114.8594,145.0469 Q115.125,145.2969 115.125,145.6406 Q115.125,145.9844 114.7813,146.3906 Q114.2813,146.9688 113.4844,147.2969 Q112.4063,147.75 111.1094,147.75 Q109.5938,147.75 108.3906,147.125 Q107.4063,146.625 106.7188,145.5625 Q106.0313,144.4844 106.0313,143.2031 L106.0313,142.0469 Q106.0313,140.7188 106.6406,139.5781 Q107.2656,138.4219 108.3594,137.8125 Q109.4531,137.1875 110.6875,137.1875 Q111.4219,137.1875 112.0625,137.3594 Q112.7188,137.5156 113.2656,137.875 Z " fill="#000000"/><text fill="#000000" font-family="sans-serif" font-size="14" lengthAdjust="spacing" textLength="94" x="124.5" y="147.7969">MedicalRecord</text><line style="stroke:#181818;stroke-width:0.5;" x1="96.5" x2="220.5" y1="158" y2="158"/></g><!--link Doctor to Staff--><g id="link_Doctor_Staff"><path codeLine="11" d="M64.13,47.31 C58.68,91.68 46.0413,194.4947 40.6013,238.7947 " fill="none" id="Doctor-to-Staff" style="stroke:#222222;stroke-width:1.0;"/><polygon fill="#222222" points="39.87,244.75,44.9371,236.3046,40.4794,239.7873,36.9968,235.3296,39.87,244.75" style="stroke:#222222;stroke-width:1.0;"/><text fill="#000000" font-family="sans-serif" font-size="13" lengthAdjust="spacing" textLength="21" x="55.5" y="151.5283">is a</text><text fill="#000000" font-family="sans-serif" font-size="13" lengthAdjust="spacing" textLength="7" x="32.5522" y="233.7333">1</text></g><!--link MedicalRecord to Allergy--><g id="link_MedicalRecord_Allergy"><path codeLine="12" d="M158.5,166.06 C158.5,187.82 158.5,217.2 158.5,238.95 " fill="none" id="MedicalRecord-to-Allergy" style="stroke:#222222;stroke-width:1.0;"/><polygon fill="#222222" points="158.5,244.95,162.5,235.95,158.5,239.95,154.5,235.95,158.5,244.95" style="stroke:#222222;stroke-width:1.0;"/><text fill="#000000" font-family="sans-serif" font-size="13" lengthAdjust="spacing" textLength="49" x="159.5" y="211.0283">contains</text><text fill="#000000" font-family="sans-serif" font-size="13" lengthAdjust="spacing" textLength="20" x="135.5625" y="233.6345">0..*</text></g><!--link Doctor to MedicalRecord--><g id="link_Doctor_MedicalRecord"><path codeLine="13" d="M81.49,47.06 C98.59,68.82 122.7003,99.4843 139.8103,121.2343 " fill="none" id="Doctor-to-MedicalRecord" style="stroke:#222222;stroke-width:1.0;"/><polygon fill="#222222" points="143.52,125.95,141.0993,116.4033,140.4286,122.0202,134.8116,121.3495,143.52,125.95" style="stroke:#222222;stroke-width:1.0;"/><text fill="#000000" font-family="sans-serif" font-size="13" lengthAdjust="spacing" textLength="53" x="118.5" y="92.0283">manages</text><text fill="#000000" font-family="sans-serif" font-size="13" lengthAdjust="spacing" textLength="20" x="116.1821" y="114.6345">0..*</text></g><!--SRC=[LO-z3i8m38JtF8LLDgHMXR43Ke65WGMUm4rCi9ecLP8A0UBT2Ny5lFdkkvCkj6nxzDY1D1X27QFdPeYqaSxk-K9GYYCh0khwU0Rys464_-0IPQkz6wnQEUCyDCIQVg3QUtTwMPFvyuGW6pcLxYCU3d2zVVwrap5XNw4sXhm-FnJnDlCyNq0sozxX2ZW0YYqfbcXs99rNy4JAefXcOqC5QLP4jk5RD4B_wGewjAZJKd47]--></g></svg>