<?xml version="1.0" encoding="UTF-8" standalone="no"?><svg xmlns="http://www.w3.org/2000/svg" xmlns:xlink="http://www.w3.org/1999/xlink" contentStyleType="text/css" height="551px" preserveAspectRatio="none" style="width:596px;height:551px;background:#FFFFFF;" version="1.1" viewBox="0 0 596 551" width="596px" zoomAndPan="magnify"><defs/><g><text fill="#000000" font-family="sans-serif" font-size="14" font-weight="bold" lengthAdjust="spacing" textLength="235" x="179.75" y="29.5332">US 6.2.10 - Process View [Level 2]</text><rect fill="#FFFFFF" height="305.25" style="stroke:#181818;stroke-width:1.0;" width="10" x="30" y="138.7656"/><rect fill="#FFFFFF" height="117.4688" style="stroke:#181818;stroke-width:1.0;" width="10" x="258" y="169.9219"/><rect fill="#FFFFFF" height="117.4688" style="stroke:#181818;stroke-width:1.0;" width="10" x="258" y="326.5469"/><rect fill="#FFFFFF" height="39.1563" style="stroke:#181818;stroke-width:1.0;" width="10" x="509" y="209.0781"/><rect fill="#FFFFFF" height="39.1563" style="stroke:#181818;stroke-width:1.0;" width="10" x="509" y="365.7031"/><line style="stroke:#181818;stroke-width:0.5;stroke-dasharray:5.0,5.0;" x1="35" x2="35" y1="128.7656" y2="462.0156"/><line style="stroke:#181818;stroke-width:0.5;stroke-dasharray:5.0,5.0;" x1="262.5" x2="262.5" y1="128.7656" y2="462.0156"/><line style="stroke:#181818;stroke-width:0.5;stroke-dasharray:5.0,5.0;" x1="513.5" x2="513.5" y1="128.7656" y2="462.0156"/><text fill="#000000" font-family="sans-serif" font-size="20" lengthAdjust="spacing" textLength="54" x="5" y="124.3711">Admin</text><ellipse cx="35" cy="52.1094" fill="#E2E2F0" rx="8" ry="8" style="stroke:#181818;stroke-width:0.5;"/><path d="M35,60.1094 L35,87.1094 M22,68.1094 L48,68.1094 M35,87.1094 L22,102.1094 M35,87.1094 L48,102.1094 " fill="none" style="stroke:#181818;stroke-width:0.5;"/><text fill="#000000" font-family="sans-serif" font-size="20" lengthAdjust="spacing" textLength="54" x="5" y="481.7773">Admin</text><ellipse cx="35" cy="494.6719" fill="#E2E2F0" rx="8" ry="8" style="stroke:#181818;stroke-width:0.5;"/><path d="M35,502.6719 L35,529.6719 M22,510.6719 L48,510.6719 M35,529.6719 L22,544.6719 M35,529.6719 L48,544.6719 " fill="none" style="stroke:#181818;stroke-width:0.5;"/><rect fill="#E2E2F0" height="64.3125" rx="2.5" ry="2.5" style="stroke:#181818;stroke-width:0.5;" width="153" x="186.5" y="63.4531"/><text fill="#000000" font-family="sans-serif" font-size="20" font-style="italic" lengthAdjust="spacing" textLength="139" x="193.5" y="91.2148">«Container C4»</text><text fill="#000000" font-family="sans-serif" font-size="20" lengthAdjust="spacing" textLength="107" x="209.5" y="116.3711">Visualization</text><rect fill="#E2E2F0" height="64.3125" rx="2.5" ry="2.5" style="stroke:#181818;stroke-width:0.5;" width="153" x="186.5" y="461.0156"/><text fill="#000000" font-family="sans-serif" font-size="20" font-style="italic" lengthAdjust="spacing" textLength="139" x="193.5" y="488.7773">«Container C4»</text><text fill="#000000" font-family="sans-serif" font-size="20" lengthAdjust="spacing" textLength="107" x="209.5" y="513.9336">Visualization</text><rect fill="#E2E2F0" height="64.3125" rx="2.5" ry="2.5" style="stroke:#181818;stroke-width:0.5;" width="153" x="437.5" y="63.4531"/><text fill="#000000" font-family="sans-serif" font-size="20" font-style="italic" lengthAdjust="spacing" textLength="139" x="444.5" y="91.2148">«Container C4»</text><text fill="#000000" font-family="sans-serif" font-size="20" lengthAdjust="spacing" textLength="123" x="452.5" y="116.3711">MDBackoffice</text><rect fill="#E2E2F0" height="64.3125" rx="2.5" ry="2.5" style="stroke:#181818;stroke-width:0.5;" width="153" x="437.5" y="461.0156"/><text fill="#000000" font-family="sans-serif" font-size="20" font-style="italic" lengthAdjust="spacing" textLength="139" x="444.5" y="488.7773">«Container C4»</text><text fill="#000000" font-family="sans-serif" font-size="20" lengthAdjust="spacing" textLength="123" x="452.5" y="513.9336">MDBackoffice</text><rect fill="#FFFFFF" height="305.25" style="stroke:#181818;stroke-width:1.0;" width="10" x="30" y="138.7656"/><rect fill="#FFFFFF" height="117.4688" style="stroke:#181818;stroke-width:1.0;" width="10" x="258" y="169.9219"/><rect fill="#FFFFFF" height="117.4688" style="stroke:#181818;stroke-width:1.0;" width="10" x="258" y="326.5469"/><rect fill="#FFFFFF" height="39.1563" style="stroke:#181818;stroke-width:1.0;" width="10" x="509" y="209.0781"/><rect fill="#FFFFFF" height="39.1563" style="stroke:#181818;stroke-width:1.0;" width="10" x="509" y="365.7031"/><polygon fill="#181818" points="246,165.9219,256,169.9219,246,173.9219,250,169.9219" style="stroke:#181818;stroke-width:1.0;"/><line style="stroke:#181818;stroke-width:1.0;" x1="40" x2="252" y1="169.9219" y2="169.9219"/><text fill="#000000" font-family="sans-serif" font-size="20" font-weight="bold" lengthAdjust="spacing" textLength="11" x="47" y="163.5273">1</text><text fill="#000000" font-family="sans-serif" font-size="20" lengthAdjust="spacing" textLength="161" x="62" y="163.5273">create staff profile</text><polygon fill="#181818" points="497,205.0781,507,209.0781,497,213.0781,501,209.0781" style="stroke:#181818;stroke-width:1.0;"/><line style="stroke:#181818;stroke-width:1.0;" x1="268" x2="503" y1="209.0781" y2="209.0781"/><text fill="#000000" font-family="sans-serif" font-size="20" font-weight="bold" lengthAdjust="spacing" textLength="11" x="275" y="202.6836">2</text><text fill="#000000" font-family="sans-serif" font-size="20" lengthAdjust="spacing" textLength="146" x="290" y="202.6836">GetAllAvailable()</text><polygon fill="#181818" points="279,244.2344,269,248.2344,279,252.2344,275,248.2344" style="stroke:#181818;stroke-width:1.0;"/><line style="stroke:#181818;stroke-width:1.0;stroke-dasharray:2.0,2.0;" x1="273" x2="513" y1="248.2344" y2="248.2344"/><text fill="#000000" font-family="sans-serif" font-size="20" font-weight="bold" lengthAdjust="spacing" textLength="11" x="285" y="241.8398">3</text><text fill="#000000" font-family="sans-serif" font-size="20" lengthAdjust="spacing" textLength="126" x="300" y="241.8398">specializations</text><polygon fill="#181818" points="51,283.3906,41,287.3906,51,291.3906,47,287.3906" style="stroke:#181818;stroke-width:1.0;"/><line style="stroke:#181818;stroke-width:1.0;stroke-dasharray:2.0,2.0;" x1="45" x2="262" y1="287.3906" y2="287.3906"/><text fill="#000000" font-family="sans-serif" font-size="20" font-weight="bold" lengthAdjust="spacing" textLength="11" x="57" y="280.9961">4</text><text fill="#000000" font-family="sans-serif" font-size="20" lengthAdjust="spacing" textLength="174" x="72" y="280.9961">select specialization</text><polygon fill="#181818" points="246,322.5469,256,326.5469,246,330.5469,250,326.5469" style="stroke:#181818;stroke-width:1.0;"/><line style="stroke:#181818;stroke-width:1.0;" x1="40" x2="252" y1="326.5469" y2="326.5469"/><text fill="#000000" font-family="sans-serif" font-size="20" font-weight="bold" lengthAdjust="spacing" textLength="11" x="47" y="320.1523">5</text><text fill="#000000" font-family="sans-serif" font-size="20" lengthAdjust="spacing" textLength="184" x="62" y="320.1523">selects specialization</text><polygon fill="#181818" points="497,361.7031,507,365.7031,497,369.7031,501,365.7031" style="stroke:#181818;stroke-width:1.0;"/><line style="stroke:#181818;stroke-width:1.0;" x1="268" x2="503" y1="365.7031" y2="365.7031"/><text fill="#000000" font-family="sans-serif" font-size="20" font-weight="bold" lengthAdjust="spacing" textLength="11" x="275" y="359.3086">6</text><text fill="#000000" font-family="sans-serif" font-size="20" lengthAdjust="spacing" textLength="207" x="290" y="359.3086">CreateStaffProfile(json)</text><polygon fill="#181818" points="279,400.8594,269,404.8594,279,408.8594,275,404.8594" style="stroke:#181818;stroke-width:1.0;"/><line style="stroke:#181818;stroke-width:1.0;stroke-dasharray:2.0,2.0;" x1="273" x2="513" y1="404.8594" y2="404.8594"/><text fill="#000000" font-family="sans-serif" font-size="20" font-weight="bold" lengthAdjust="spacing" textLength="11" x="285" y="398.4648">7</text><text fill="#000000" font-family="sans-serif" font-size="20" lengthAdjust="spacing" textLength="152" x="300" y="398.4648">success/insucess</text><polygon fill="#181818" points="46,440.0156,36,444.0156,46,448.0156,42,444.0156" style="stroke:#181818;stroke-width:1.0;"/><line style="stroke:#181818;stroke-width:1.0;stroke-dasharray:2.0,2.0;" x1="40" x2="262" y1="444.0156" y2="444.0156"/><text fill="#000000" font-family="sans-serif" font-size="20" font-weight="bold" lengthAdjust="spacing" textLength="11" x="52" y="437.6211">8</text><text fill="#000000" font-family="sans-serif" font-size="20" lengthAdjust="spacing" textLength="152" x="67" y="437.6211">success/insucess</text><!--SRC=[VP5FImCn4CNl-HJ3dkgXjHRnK4fXRL442uN51H4Fq-miZ4sJ9Pcjq4zliaNx1zb3O19-Rzvx96pPDkXnPvpUKWKLrTWQUN9M2ZuGJCPA2OiXoDuAU1XDHdTZ6CBQEqqXGCdq3H-lj2S3ayzCAMp5sNQt8HzdBSv3NktO0WR8boiLhOGrDsW5if93YuOFAEnibf3ofO3PR17DaIrvMDpFvvUQrV8HzTRLDMlg9CNxFv9apNiKwapZWU6yMpu5xIcz1y6wXiQxcWsTyCWebS38fyrJU2R9ZSdto0OtXWOt9pW2IYLgUDm-XT2GvhzAGLLq2NUR8nmJHPWCQRdId4kwCAVmlufmBUb9l-ZQ5gdi-jXry1MSxI_HwlItjspZ58U-5j2Ffq1dr_GPFm00]--></g></svg>