<?xml version="1.0" encoding="UTF-8" standalone="no"?><svg xmlns="http://www.w3.org/2000/svg" xmlns:xlink="http://www.w3.org/1999/xlink" contentStyleType="text/css" height="708px" preserveAspectRatio="none" style="width:1111px;height:708px;background:#FFFFFF;" version="1.1" viewBox="0 0 1111 708" width="1111px" zoomAndPan="magnify"><defs/><g><text fill="#000000" font-family="sans-serif" font-size="14" font-weight="bold" lengthAdjust="spacing" textLength="334" x="387.25" y="29.5332">US 6.2.10 - Process View [Level 3 | Visualization]</text><rect fill="#FFFFFF" height="461.875" style="stroke:#181818;stroke-width:1.0;" width="10" x="30" y="138.7656"/><rect fill="#FFFFFF" height="195.7813" style="stroke:#181818;stroke-width:1.0;" width="10" x="258" y="169.9219"/><rect fill="#FFFFFF" height="195.7813" style="stroke:#181818;stroke-width:1.0;" width="10" x="258" y="404.8594"/><rect fill="#FFFFFF" height="117.4688" style="stroke:#181818;stroke-width:1.0;" width="10" x="572" y="209.0781"/><rect fill="#FFFFFF" height="117.4688" style="stroke:#181818;stroke-width:1.0;" width="10" x="741.5" y="444.0156"/><line style="stroke:#181818;stroke-width:0.5;stroke-dasharray:5.0,5.0;" x1="35" x2="35" y1="128.7656" y2="618.6406"/><line style="stroke:#181818;stroke-width:0.5;stroke-dasharray:5.0,5.0;" x1="263" x2="263" y1="128.7656" y2="618.6406"/><line style="stroke:#181818;stroke-width:0.5;stroke-dasharray:5.0,5.0;" x1="577" x2="577" y1="128.7656" y2="618.6406"/><line style="stroke:#181818;stroke-width:0.5;stroke-dasharray:5.0,5.0;" x1="746" x2="746" y1="128.7656" y2="618.6406"/><text fill="#000000" font-family="sans-serif" font-size="20" lengthAdjust="spacing" textLength="54" x="5" y="124.3711">Admin</text><ellipse cx="35" cy="52.1094" fill="#E2E2F0" rx="8" ry="8" style="stroke:#181818;stroke-width:0.5;"/><path d="M35,60.1094 L35,87.1094 M22,68.1094 L48,68.1094 M35,87.1094 L22,102.1094 M35,87.1094 L48,102.1094 " fill="none" style="stroke:#181818;stroke-width:0.5;"/><text fill="#000000" font-family="sans-serif" font-size="20" lengthAdjust="spacing" textLength="54" x="5" y="638.4023">Admin</text><ellipse cx="35" cy="651.2969" fill="#E2E2F0" rx="8" ry="8" style="stroke:#181818;stroke-width:0.5;"/><path d="M35,659.2969 L35,686.2969 M22,667.2969 L48,667.2969 M35,686.2969 L22,701.2969 M35,686.2969 L48,701.2969 " fill="none" style="stroke:#181818;stroke-width:0.5;"/><rect fill="#E2E2F0" height="64.3125" rx="2.5" ry="2.5" style="stroke:#181818;stroke-width:0.5;" width="134" x="196" y="63.4531"/><text fill="#000000" font-family="sans-serif" font-size="20" font-style="italic" lengthAdjust="spacing" textLength="120" x="203" y="91.2148">«component»</text><text fill="#000000" font-family="sans-serif" font-size="20" lengthAdjust="spacing" textLength="102" x="212" y="116.3711">CreateStaff</text><rect fill="#E2E2F0" height="64.3125" rx="2.5" ry="2.5" style="stroke:#181818;stroke-width:0.5;" width="134" x="196" y="617.6406"/><text fill="#000000" font-family="sans-serif" font-size="20" font-style="italic" lengthAdjust="spacing" textLength="120" x="203" y="645.4023">«component»</text><text fill="#000000" font-family="sans-serif" font-size="20" lengthAdjust="spacing" textLength="102" x="212" y="670.5586">CreateStaff</text><rect fill="#E2E2F0" height="64.3125" rx="2.5" ry="2.5" style="stroke:#181818;stroke-width:0.5;" width="198" x="478" y="63.4531"/><text fill="#000000" font-family="sans-serif" font-size="20" font-style="italic" lengthAdjust="spacing" textLength="86" x="534" y="91.2148">«service»</text><text fill="#000000" font-family="sans-serif" font-size="20" lengthAdjust="spacing" textLength="184" x="485" y="116.3711">SpecializationService</text><rect fill="#E2E2F0" height="64.3125" rx="2.5" ry="2.5" style="stroke:#181818;stroke-width:0.5;" width="198" x="478" y="617.6406"/><text fill="#000000" font-family="sans-serif" font-size="20" font-style="italic" lengthAdjust="spacing" textLength="86" x="534" y="645.4023">«service»</text><text fill="#000000" font-family="sans-serif" font-size="20" lengthAdjust="spacing" textLength="184" x="485" y="670.5586">SpecializationService</text><rect fill="#E2E2F0" height="64.3125" rx="2.5" ry="2.5" style="stroke:#181818;stroke-width:0.5;" width="121" x="686" y="63.4531"/><text fill="#000000" font-family="sans-serif" font-size="20" font-style="italic" lengthAdjust="spacing" textLength="86" x="703.5" y="91.2148">«service»</text><text fill="#000000" font-family="sans-serif" font-size="20" lengthAdjust="spacing" textLength="107" x="693" y="116.3711">StaffService</text><rect fill="#E2E2F0" height="64.3125" rx="2.5" ry="2.5" style="stroke:#181818;stroke-width:0.5;" width="121" x="686" y="617.6406"/><text fill="#000000" font-family="sans-serif" font-size="20" font-style="italic" lengthAdjust="spacing" textLength="86" x="703.5" y="645.4023">«service»</text><text fill="#000000" font-family="sans-serif" font-size="20" lengthAdjust="spacing" textLength="107" x="693" y="670.5586">StaffService</text><rect fill="#FFFFFF" height="461.875" style="stroke:#181818;stroke-width:1.0;" width="10" x="30" y="138.7656"/><rect fill="#FFFFFF" height="195.7813" style="stroke:#181818;stroke-width:1.0;" width="10" x="258" y="169.9219"/><rect fill="#FFFFFF" height="195.7813" style="stroke:#181818;stroke-width:1.0;" width="10" x="258" y="404.8594"/><rect fill="#FFFFFF" height="117.4688" style="stroke:#181818;stroke-width:1.0;" width="10" x="572" y="209.0781"/><rect fill="#FFFFFF" height="117.4688" style="stroke:#181818;stroke-width:1.0;" width="10" x="741.5" y="444.0156"/><polygon fill="#181818" points="246,165.9219,256,169.9219,246,173.9219,250,169.9219" style="stroke:#181818;stroke-width:1.0;"/><line style="stroke:#181818;stroke-width:1.0;" x1="40" x2="252" y1="169.9219" y2="169.9219"/><text fill="#000000" font-family="sans-serif" font-size="20" font-weight="bold" lengthAdjust="spacing" textLength="11" x="47" y="163.5273">1</text><text fill="#000000" font-family="sans-serif" font-size="20" lengthAdjust="spacing" textLength="161" x="62" y="163.5273">create staff profile</text><polygon fill="#181818" points="560,205.0781,570,209.0781,560,213.0781,564,209.0781" style="stroke:#181818;stroke-width:1.0;"/><line style="stroke:#181818;stroke-width:1.0;" x1="268" x2="566" y1="209.0781" y2="209.0781"/><text fill="#000000" font-family="sans-serif" font-size="20" font-weight="bold" lengthAdjust="spacing" textLength="11" x="275" y="202.6836">2</text><text fill="#000000" font-family="sans-serif" font-size="20" lengthAdjust="spacing" textLength="270" x="290" y="202.6836">getAllSpecializationsAvailable()</text><ellipse cx="1101" cy="247.4844" fill="none" rx="4" ry="4" style="stroke:#181818;stroke-width:1.5;"/><polygon fill="#181818" points="1084,244.2344,1094,248.2344,1084,252.2344,1088,248.2344" style="stroke:#181818;stroke-width:1.0;"/><line style="stroke:#181818;stroke-width:1.0;" x1="582" x2="1090" y1="248.2344" y2="248.2344"/><text fill="#000000" font-family="sans-serif" font-size="20" font-weight="bold" lengthAdjust="spacing" textLength="11" x="589" y="241.8398">3</text><text fill="#000000" font-family="sans-serif" font-size="20" lengthAdjust="spacing" textLength="214" x="604" y="241.8398">GET: api/Specializations</text><polygon fill="#181818" points="593,283.3906,583,287.3906,593,291.3906,589,287.3906" style="stroke:#181818;stroke-width:1.0;"/><ellipse cx="1101" cy="286.6406" fill="none" rx="4" ry="4" style="stroke:#181818;stroke-width:1.5;"/><line style="stroke:#181818;stroke-width:1.0;stroke-dasharray:2.0,2.0;" x1="587" x2="1096.5" y1="287.3906" y2="287.3906"/><text fill="#000000" font-family="sans-serif" font-size="20" font-weight="bold" lengthAdjust="spacing" textLength="11" x="599" y="280.9961">4</text><text fill="#000000" font-family="sans-serif" font-size="20" lengthAdjust="spacing" textLength="126" x="614" y="280.9961">specializations</text><polygon fill="#181818" points="279,322.5469,269,326.5469,279,330.5469,275,326.5469" style="stroke:#181818;stroke-width:1.0;"/><line style="stroke:#181818;stroke-width:1.0;stroke-dasharray:2.0,2.0;" x1="273" x2="576" y1="326.5469" y2="326.5469"/><text fill="#000000" font-family="sans-serif" font-size="20" font-weight="bold" lengthAdjust="spacing" textLength="11" x="285" y="320.1523">5</text><text fill="#000000" font-family="sans-serif" font-size="20" lengthAdjust="spacing" textLength="126" x="300" y="320.1523">specializations</text><polygon fill="#181818" points="51,361.7031,41,365.7031,51,369.7031,47,365.7031" style="stroke:#181818;stroke-width:1.0;"/><line style="stroke:#181818;stroke-width:1.0;stroke-dasharray:2.0,2.0;" x1="45" x2="262" y1="365.7031" y2="365.7031"/><text fill="#000000" font-family="sans-serif" font-size="20" font-weight="bold" lengthAdjust="spacing" textLength="11" x="57" y="359.3086">6</text><text fill="#000000" font-family="sans-serif" font-size="20" lengthAdjust="spacing" textLength="174" x="72" y="359.3086">select specialization</text><polygon fill="#181818" points="246,400.8594,256,404.8594,246,408.8594,250,404.8594" style="stroke:#181818;stroke-width:1.0;"/><line style="stroke:#181818;stroke-width:1.0;" x1="40" x2="252" y1="404.8594" y2="404.8594"/><text fill="#000000" font-family="sans-serif" font-size="20" font-weight="bold" lengthAdjust="spacing" textLength="11" x="47" y="398.4648">7</text><text fill="#000000" font-family="sans-serif" font-size="20" lengthAdjust="spacing" textLength="184" x="62" y="398.4648">selects specialization</text><polygon fill="#181818" points="729.5,440.0156,739.5,444.0156,729.5,448.0156,733.5,444.0156" style="stroke:#181818;stroke-width:1.0;"/><line style="stroke:#181818;stroke-width:1.0;" x1="268" x2="735.5" y1="444.0156" y2="444.0156"/><text fill="#000000" font-family="sans-serif" font-size="20" font-weight="bold" lengthAdjust="spacing" textLength="11" x="275" y="437.6211">8</text><text fill="#000000" font-family="sans-serif" font-size="20" lengthAdjust="spacing" textLength="252" x="290" y="437.6211">createStaff(StaffInformation)</text><ellipse cx="1101" cy="482.4219" fill="none" rx="4" ry="4" style="stroke:#181818;stroke-width:1.5;"/><polygon fill="#181818" points="1084,479.1719,1094,483.1719,1084,487.1719,1088,483.1719" style="stroke:#181818;stroke-width:1.0;"/><line style="stroke:#181818;stroke-width:1.0;" x1="751.5" x2="1090" y1="483.1719" y2="483.1719"/><text fill="#000000" font-family="sans-serif" font-size="20" font-weight="bold" lengthAdjust="spacing" textLength="11" x="758.5" y="476.7773">9</text><text fill="#000000" font-family="sans-serif" font-size="20" lengthAdjust="spacing" textLength="311" x="773.5" y="476.7773">POST: api/Staff/Create-StaffProfile</text><polygon fill="#181818" points="762.5,518.3281,752.5,522.3281,762.5,526.3281,758.5,522.3281" style="stroke:#181818;stroke-width:1.0;"/><ellipse cx="1101" cy="521.5781" fill="none" rx="4" ry="4" style="stroke:#181818;stroke-width:1.5;"/><line style="stroke:#181818;stroke-width:1.0;stroke-dasharray:2.0,2.0;" x1="756.5" x2="1096.5" y1="522.3281" y2="522.3281"/><text fill="#000000" font-family="sans-serif" font-size="20" font-weight="bold" lengthAdjust="spacing" textLength="22" x="768.5" y="515.9336">10</text><text fill="#000000" font-family="sans-serif" font-size="20" lengthAdjust="spacing" textLength="158" x="794.5" y="515.9336">Created(StaffDto)</text><polygon fill="#181818" points="279,557.4844,269,561.4844,279,565.4844,275,561.4844" style="stroke:#181818;stroke-width:1.0;"/><line style="stroke:#181818;stroke-width:1.0;stroke-dasharray:2.0,2.0;" x1="273" x2="745.5" y1="561.4844" y2="561.4844"/><text fill="#000000" font-family="sans-serif" font-size="20" font-weight="bold" lengthAdjust="spacing" textLength="22" x="285" y="555.0898">11</text><text fill="#000000" font-family="sans-serif" font-size="20" lengthAdjust="spacing" textLength="71" x="311" y="555.0898">success</text><polygon fill="#181818" points="46,596.6406,36,600.6406,46,604.6406,42,600.6406" style="stroke:#181818;stroke-width:1.0;"/><line style="stroke:#181818;stroke-width:1.0;stroke-dasharray:2.0,2.0;" x1="40" x2="262" y1="600.6406" y2="600.6406"/><text fill="#000000" font-family="sans-serif" font-size="20" font-weight="bold" lengthAdjust="spacing" textLength="22" x="52" y="594.2461">12</text><text fill="#000000" font-family="sans-serif" font-size="20" lengthAdjust="spacing" textLength="71" x="78" y="594.2461">success</text><!--SRC=[RP8nQyCm48Lt_Oh3Kp8uILFe488Xj6af52ggfal9eCZd8Y9Bnf9J2FtnbUGwSTmiXlEzJ_VkSNOlTSLhNYeZzfX3ZWLlb7iqsZ5vH9ZF277IAOHam-1kCf_Sp205MXk1riA7n6_uVC43AhY57r_RXYjvv4uQlKq8uOqpkYbtM1CkdAbXbPTI0xUmOUit87wsaq9MN3j8xcla3fdZHP542QMmN0fJLaQZTbasqBCAXJoDOrWVfC18CkP1s_x8iW4Ltk-BwQKu69K7RoHQ9D5dcaKp2n3H8jZm1bIrAQJ27a0f8K7ezOmju0lTIgbBctPru5BndSBH-4moHeWtdMPcwwSyhTyNm2iv7Q11iapJgB63LiHRd_-REVOdHOT16bRpObGet83f8-rQvnmwn0wPgq7uUBlSOlIZ-7tMXQdBYFLYe3u6Ueg1lh8kXu1Cs_j8Oq7_iW_oBfAsdxS37fmPju-TJ3SY76r_ip2ldyPLKLYcNuQh8EGN]--></g></svg>