<?xml version="1.0" encoding="UTF-8" standalone="no"?><svg xmlns="http://www.w3.org/2000/svg" xmlns:xlink="http://www.w3.org/1999/xlink" contentStyleType="text/css" height="615px" preserveAspectRatio="none" style="width:1086px;height:615px;background:#FFFFFF;" version="1.1" viewBox="0 0 1086 615" width="1086px" zoomAndPan="magnify"><defs/><g><text fill="#000000" font-family="sans-serif" font-size="14" font-weight="bold" lengthAdjust="spacing" textLength="382" x="351" y="29.5332">US 6.2.10 - Process View [Level 3] - Get Specializations</text><rect fill="#FFFFFF" height="378.4063" style="stroke:#181818;stroke-width:1.0;" width="10" x="299" y="150.0781"/><rect fill="#FFFFFF" height="300.0938" style="stroke:#181818;stroke-width:1.0;" width="10" x="516" y="189.2344"/><rect fill="#FFFFFF" height="221.7813" style="stroke:#181818;stroke-width:1.0;" width="10" x="734" y="228.3906"/><rect fill="#FFFFFF" height="50.1563" style="stroke:#181818;stroke-width:1.0;" width="10" x="739" y="353.8594"/><rect fill="#FFFFFF" height="39.1563" style="stroke:#181818;stroke-width:1.0;" width="10" x="961" y="267.5469"/><line style="stroke:#181818;stroke-width:0.5;stroke-dasharray:5.0,5.0;" x1="303.5" x2="303.5" y1="108.9219" y2="546.4844"/><line style="stroke:#181818;stroke-width:0.5;stroke-dasharray:5.0,5.0;" x1="521" x2="521" y1="108.9219" y2="546.4844"/><line style="stroke:#181818;stroke-width:0.5;stroke-dasharray:5.0,5.0;" x1="739" x2="739" y1="108.9219" y2="546.4844"/><line style="stroke:#181818;stroke-width:0.5;stroke-dasharray:5.0,5.0;" x1="966" x2="966" y1="108.9219" y2="546.4844"/><rect fill="#E2E2F0" height="64.3125" rx="2.5" ry="2.5" style="stroke:#181818;stroke-width:0.5;" width="185" x="211.5" y="43.6094"/><text fill="#000000" font-family="sans-serif" font-size="20" font-style="italic" lengthAdjust="spacing" textLength="67" x="270.5" y="71.3711">«route»</text><text fill="#000000" font-family="sans-serif" font-size="20" lengthAdjust="spacing" textLength="171" x="218.5" y="96.5273">SpecializationRoute</text><rect fill="#E2E2F0" height="64.3125" rx="2.5" ry="2.5" style="stroke:#181818;stroke-width:0.5;" width="185" x="211.5" y="545.4844"/><text fill="#000000" font-family="sans-serif" font-size="20" font-style="italic" lengthAdjust="spacing" textLength="67" x="270.5" y="573.2461">«route»</text><text fill="#000000" font-family="sans-serif" font-size="20" lengthAdjust="spacing" textLength="171" x="218.5" y="598.4023">SpecializationRoute</text><rect fill="#E2E2F0" height="64.3125" rx="2.5" ry="2.5" style="stroke:#181818;stroke-width:0.5;" width="218" x="412" y="43.6094"/><text fill="#000000" font-family="sans-serif" font-size="20" font-style="italic" lengthAdjust="spacing" textLength="105" x="468.5" y="71.3711">«controller»</text><text fill="#000000" font-family="sans-serif" font-size="20" lengthAdjust="spacing" textLength="204" x="419" y="96.5273">SpecializationController</text><rect fill="#E2E2F0" height="64.3125" rx="2.5" ry="2.5" style="stroke:#181818;stroke-width:0.5;" width="218" x="412" y="545.4844"/><text fill="#000000" font-family="sans-serif" font-size="20" font-style="italic" lengthAdjust="spacing" textLength="105" x="468.5" y="573.2461">«controller»</text><text fill="#000000" font-family="sans-serif" font-size="20" lengthAdjust="spacing" textLength="204" x="419" y="598.4023">SpecializationController</text><rect fill="#E2E2F0" height="64.3125" rx="2.5" ry="2.5" style="stroke:#181818;stroke-width:0.5;" width="198" x="640" y="43.6094"/><text fill="#000000" font-family="sans-serif" font-size="20" font-style="italic" lengthAdjust="spacing" textLength="86" x="696" y="71.3711">«service»</text><text fill="#000000" font-family="sans-serif" font-size="20" lengthAdjust="spacing" textLength="184" x="647" y="96.5273">SpecializationService</text><rect fill="#E2E2F0" height="64.3125" rx="2.5" ry="2.5" style="stroke:#181818;stroke-width:0.5;" width="198" x="640" y="545.4844"/><text fill="#000000" font-family="sans-serif" font-size="20" font-style="italic" lengthAdjust="spacing" textLength="86" x="696" y="573.2461">«service»</text><text fill="#000000" font-family="sans-serif" font-size="20" lengthAdjust="spacing" textLength="184" x="647" y="598.4023">SpecializationService</text><rect fill="#E2E2F0" height="64.3125" rx="2.5" ry="2.5" style="stroke:#181818;stroke-width:0.5;" width="228" x="852" y="43.6094"/><text fill="#000000" font-family="sans-serif" font-size="20" font-style="italic" lengthAdjust="spacing" textLength="110" x="911" y="71.3711">«repository»</text><text fill="#000000" font-family="sans-serif" font-size="20" lengthAdjust="spacing" textLength="214" x="859" y="96.5273">SpecializationRepository</text><rect fill="#E2E2F0" height="64.3125" rx="2.5" ry="2.5" style="stroke:#181818;stroke-width:0.5;" width="228" x="852" y="545.4844"/><text fill="#000000" font-family="sans-serif" font-size="20" font-style="italic" lengthAdjust="spacing" textLength="110" x="911" y="573.2461">«repository»</text><text fill="#000000" font-family="sans-serif" font-size="20" lengthAdjust="spacing" textLength="214" x="859" y="598.4023">SpecializationRepository</text><rect fill="#FFFFFF" height="378.4063" style="stroke:#181818;stroke-width:1.0;" width="10" x="299" y="150.0781"/><rect fill="#FFFFFF" height="300.0938" style="stroke:#181818;stroke-width:1.0;" width="10" x="516" y="189.2344"/><rect fill="#FFFFFF" height="221.7813" style="stroke:#181818;stroke-width:1.0;" width="10" x="734" y="228.3906"/><rect fill="#FFFFFF" height="50.1563" style="stroke:#181818;stroke-width:1.0;" width="10" x="739" y="353.8594"/><rect fill="#FFFFFF" height="39.1563" style="stroke:#181818;stroke-width:1.0;" width="10" x="961" y="267.5469"/><ellipse cx="7.5" cy="149.3281" fill="none" rx="4" ry="4" style="stroke:#181818;stroke-width:1.5;"/><polygon fill="#181818" points="287,146.0781,297,150.0781,287,154.0781,291,150.0781" style="stroke:#181818;stroke-width:1.0;"/><line style="stroke:#181818;stroke-width:1.0;" x1="12" x2="293" y1="150.0781" y2="150.0781"/><text fill="#000000" font-family="sans-serif" font-size="20" font-weight="bold" lengthAdjust="spacing" textLength="11" x="15" y="143.6836">1</text><text fill="#000000" font-family="sans-serif" font-size="20" lengthAdjust="spacing" textLength="257" x="30" y="143.6836">GET(json) api/Specializations</text><polygon fill="#181818" points="504,185.2344,514,189.2344,504,193.2344,508,189.2344" style="stroke:#181818;stroke-width:1.0;"/><line style="stroke:#181818;stroke-width:1.0;" x1="309" x2="510" y1="189.2344" y2="189.2344"/><text fill="#000000" font-family="sans-serif" font-size="20" font-weight="bold" lengthAdjust="spacing" textLength="11" x="316" y="182.8398">2</text><text fill="#000000" font-family="sans-serif" font-size="20" lengthAdjust="spacing" textLength="146" x="331" y="182.8398">GetAllAvailable()</text><polygon fill="#181818" points="722,224.3906,732,228.3906,722,232.3906,726,228.3906" style="stroke:#181818;stroke-width:1.0;"/><line style="stroke:#181818;stroke-width:1.0;" x1="526" x2="728" y1="228.3906" y2="228.3906"/><text fill="#000000" font-family="sans-serif" font-size="20" font-weight="bold" lengthAdjust="spacing" textLength="11" x="533" y="221.9961">3</text><text fill="#000000" font-family="sans-serif" font-size="20" lengthAdjust="spacing" textLength="121" x="548" y="221.9961">GetAllAsync()</text><polygon fill="#181818" points="949,263.5469,959,267.5469,949,271.5469,953,267.5469" style="stroke:#181818;stroke-width:1.0;"/><line style="stroke:#181818;stroke-width:1.0;" x1="744" x2="955" y1="267.5469" y2="267.5469"/><text fill="#000000" font-family="sans-serif" font-size="20" font-weight="bold" lengthAdjust="spacing" textLength="11" x="751" y="261.1523">4</text><text fill="#000000" font-family="sans-serif" font-size="20" lengthAdjust="spacing" textLength="121" x="766" y="261.1523">GetAllAsync()</text><polygon fill="#181818" points="755,302.7031,745,306.7031,755,310.7031,751,306.7031" style="stroke:#181818;stroke-width:1.0;"/><line style="stroke:#181818;stroke-width:1.0;stroke-dasharray:2.0,2.0;" x1="749" x2="965" y1="306.7031" y2="306.7031"/><text fill="#000000" font-family="sans-serif" font-size="20" font-weight="bold" lengthAdjust="spacing" textLength="11" x="761" y="300.3086">5</text><text fill="#000000" font-family="sans-serif" font-size="20" lengthAdjust="spacing" textLength="126" x="776" y="300.3086">specializations</text><line style="stroke:#181818;stroke-width:1.0;" x1="744" x2="791" y1="340.8594" y2="340.8594"/><line style="stroke:#181818;stroke-width:1.0;" x1="791" x2="791" y1="340.8594" y2="353.8594"/><line style="stroke:#181818;stroke-width:1.0;" x1="750" x2="791" y1="353.8594" y2="353.8594"/><polygon fill="#181818" points="760,349.8594,750,353.8594,760,357.8594,756,353.8594" style="stroke:#181818;stroke-width:1.0;"/><text fill="#000000" font-family="sans-serif" font-size="20" font-weight="bold" lengthAdjust="spacing" textLength="11" x="756" y="334.4648">6</text><text fill="#000000" font-family="sans-serif" font-size="20" lengthAdjust="spacing" textLength="188" x="771" y="334.4648">toDto(specializations)</text><line style="stroke:#181818;stroke-width:1.0;stroke-dasharray:2.0,2.0;" x1="749" x2="791" y1="403.0156" y2="403.0156"/><line style="stroke:#181818;stroke-width:1.0;stroke-dasharray:2.0,2.0;" x1="791" x2="791" y1="403.0156" y2="416.0156"/><line style="stroke:#181818;stroke-width:1.0;stroke-dasharray:2.0,2.0;" x1="744" x2="791" y1="416.0156" y2="416.0156"/><polygon fill="#181818" points="754,412.0156,744,416.0156,754,420.0156,750,416.0156" style="stroke:#181818;stroke-width:1.0;"/><text fill="#000000" font-family="sans-serif" font-size="20" font-weight="bold" lengthAdjust="spacing" textLength="11" x="756" y="396.6211">7</text><text fill="#000000" font-family="sans-serif" font-size="20" lengthAdjust="spacing" textLength="168" x="771" y="396.6211">specializationDTOs</text><polygon fill="#181818" points="537,446.1719,527,450.1719,537,454.1719,533,450.1719" style="stroke:#181818;stroke-width:1.0;"/><line style="stroke:#181818;stroke-width:1.0;stroke-dasharray:2.0,2.0;" x1="531" x2="738" y1="450.1719" y2="450.1719"/><text fill="#000000" font-family="sans-serif" font-size="20" font-weight="bold" lengthAdjust="spacing" textLength="11" x="543" y="443.7773">8</text><text fill="#000000" font-family="sans-serif" font-size="20" lengthAdjust="spacing" textLength="168" x="558" y="443.7773">specializationDTOs</text><polygon fill="#181818" points="320,485.3281,310,489.3281,320,493.3281,316,489.3281" style="stroke:#181818;stroke-width:1.0;"/><line style="stroke:#181818;stroke-width:1.0;stroke-dasharray:2.0,2.0;" x1="314" x2="520" y1="489.3281" y2="489.3281"/><text fill="#000000" font-family="sans-serif" font-size="20" font-weight="bold" lengthAdjust="spacing" textLength="11" x="326" y="482.9336">9</text><text fill="#000000" font-family="sans-serif" font-size="20" lengthAdjust="spacing" textLength="168" x="341" y="482.9336">specializationDTOs</text><ellipse cx="7.5" cy="527.7344" fill="none" rx="4" ry="4" style="stroke:#181818;stroke-width:1.5;"/><polygon fill="#181818" points="24.5,524.4844,14.5,528.4844,24.5,532.4844,20.5,528.4844" style="stroke:#181818;stroke-width:1.0;"/><line style="stroke:#181818;stroke-width:1.0;stroke-dasharray:2.0,2.0;" x1="22.5" x2="303" y1="528.4844" y2="528.4844"/><text fill="#000000" font-family="sans-serif" font-size="20" font-weight="bold" lengthAdjust="spacing" textLength="22" x="25" y="522.0898">10</text><text fill="#000000" font-family="sans-serif" font-size="20" lengthAdjust="spacing" textLength="65" x="51" y="522.0898">200 Ok</text><!--SRC=[XP4zRy8m48Pt_ufJ9XX2KofrG0W90ML12ae22-fWdAlaOkB8TbB1hwyTYuz4QhhUFO_ztfq-yQAaYfw5P2VC8SSlMWdp8GkJyYl2E2B4S2CGWbqAxwFnw3M24BPACjGQzXn_uB316WMyVTh66Wsa9J9E1RzImsMX0q9ePMHHdO-eYFtCSCPBMXW8scGYAuC1K0r9lCjMC9qgLvdD-gI5JQga4AWQSv4b6okoUxNVJb7LdFbFq_t2cjfN-hLb5ZyfkP7zU8AbrDn8TV7JhRQn6-vUjJOvo73cvvx0UfKDlhKiXa1B_j9P9w7Cy9eQz3GXVbdMThDFt0NcGinhoWKz2XmC7u8326bMP74R_axhIy6UITiZn4tdGhcuVvAkIneaz6zQL7SIvzZ6Royt2OnS6ZdeA9qe3NyJTFSKhGyUoUyR-L_mAtaSeDzerdYGqp2yyUCeWlZKcjCrVW40]--></g></svg>