<?xml version="1.0" encoding="us-ascii" standalone="no"?><svg xmlns="http://www.w3.org/2000/svg" xmlns:xlink="http://www.w3.org/1999/xlink" contentStyleType="text/css" height="556px" preserveAspectRatio="none" style="width:329px;height:556px;background:#FFFFFF;" version="1.1" viewBox="0 0 329 556" width="329px" zoomAndPan="magnify"><defs/><g><text fill="#000000" font-family="sans-serif" font-size="14" font-weight="bold" lengthAdjust="spacing" textLength="262" x="32.5" y="30.1074">US 5.1.16 - System Sequence Diagram</text><rect fill="#FFFFFF" height="331.2012" style="stroke:#181818;stroke-width:1.0;" width="10" x="24" y="133.2422"/><rect fill="#FFFFFF" height="298.9102" style="stroke:#181818;stroke-width:1.0;" width="10" x="288" y="156.5332"/><line style="stroke:#181818;stroke-width:0.5;stroke-dasharray:5.0,5.0;" x1="29" x2="29" y1="123.2422" y2="473.4434"/><line style="stroke:#181818;stroke-width:0.5;stroke-dasharray:5.0,5.0;" x1="293" x2="293" y1="123.2422" y2="473.4434"/><text fill="#000000" font-family="sans-serif" font-size="14" lengthAdjust="spacing" textLength="42" x="5" y="119.7285">Doctor</text><ellipse cx="29" cy="53.1211" fill="#E2E2F0" rx="8" ry="8" style="stroke:#181818;stroke-width:0.5;"/><path d="M29,61.1211 L29,88.1211 M16,69.1211 L42,69.1211 M29,88.1211 L16,103.1211 M29,88.1211 L42,103.1211 " fill="none" style="stroke:#181818;stroke-width:0.5;"/><text fill="#000000" font-family="sans-serif" font-size="14" lengthAdjust="spacing" textLength="42" x="5" y="487.5508">Doctor</text><ellipse cx="29" cy="499.5645" fill="#E2E2F0" rx="8" ry="8" style="stroke:#181818;stroke-width:0.5;"/><path d="M29,507.5645 L29,534.5645 M16,515.5645 L42,515.5645 M29,534.5645 L16,549.5645 M29,534.5645 L42,549.5645 " fill="none" style="stroke:#181818;stroke-width:0.5;"/><rect fill="#E2E2F0" height="32.6211" rx="2.5" ry="2.5" style="stroke:#181818;stroke-width:0.5;" width="60" x="263" y="89.6211"/><text fill="#000000" font-family="sans-serif" font-size="14" lengthAdjust="spacing" textLength="46" x="270" y="111.7285">System</text><rect fill="#E2E2F0" height="32.6211" rx="2.5" ry="2.5" style="stroke:#181818;stroke-width:0.5;" width="60" x="263" y="472.4434"/><text fill="#000000" font-family="sans-serif" font-size="14" lengthAdjust="spacing" textLength="46" x="270" y="494.5508">System</text><rect fill="#FFFFFF" height="331.2012" style="stroke:#181818;stroke-width:1.0;" width="10" x="24" y="133.2422"/><rect fill="#FFFFFF" height="298.9102" style="stroke:#181818;stroke-width:1.0;" width="10" x="288" y="156.5332"/><polygon fill="#181818" points="276,152.5332,286,156.5332,276,160.5332,280,156.5332" style="stroke:#181818;stroke-width:1.0;"/><line style="stroke:#181818;stroke-width:1.0;" x1="34" x2="282" y1="156.5332" y2="156.5332"/><text fill="#000000" font-family="sans-serif" font-size="13" font-weight="bold" lengthAdjust="spacing" textLength="7" x="41" y="151.2705">1</text><text fill="#000000" font-family="sans-serif" font-size="13" lengthAdjust="spacing" textLength="150" x="52" y="151.2705">asks request an operation</text><polygon fill="#181818" points="45,183.8242,35,187.8242,45,191.8242,41,187.8242" style="stroke:#181818;stroke-width:1.0;"/><line style="stroke:#181818;stroke-width:1.0;stroke-dasharray:2.0,2.0;" x1="39" x2="287" y1="187.8242" y2="187.8242"/><text fill="#000000" font-family="sans-serif" font-size="13" font-weight="bold" lengthAdjust="spacing" textLength="7" x="51" y="182.5615">2</text><text fill="#000000" font-family="sans-serif" font-size="13" lengthAdjust="spacing" textLength="219" x="62" y="182.5615">asks to provide the patient information</text><polygon fill="#181818" points="276,215.1152,286,219.1152,276,223.1152,280,219.1152" style="stroke:#181818;stroke-width:1.0;"/><line style="stroke:#181818;stroke-width:1.0;" x1="34" x2="282" y1="219.1152" y2="219.1152"/><text fill="#000000" font-family="sans-serif" font-size="13" font-weight="bold" lengthAdjust="spacing" textLength="7" x="41" y="213.8525">3</text><text fill="#000000" font-family="sans-serif" font-size="13" lengthAdjust="spacing" textLength="157" x="52" y="213.8525">provides patient information</text><polygon fill="#181818" points="45,246.4063,35,250.4063,45,254.4063,41,250.4063" style="stroke:#181818;stroke-width:1.0;"/><line style="stroke:#181818;stroke-width:1.0;stroke-dasharray:2.0,2.0;" x1="39" x2="287" y1="250.4063" y2="250.4063"/><text fill="#000000" font-family="sans-serif" font-size="13" font-weight="bold" lengthAdjust="spacing" textLength="7" x="51" y="245.1436">4</text><text fill="#000000" font-family="sans-serif" font-size="13" lengthAdjust="spacing" textLength="173" x="62" y="245.1436">asks to provide operation type</text><polygon fill="#181818" points="276,277.6973,286,281.6973,276,285.6973,280,281.6973" style="stroke:#181818;stroke-width:1.0;"/><line style="stroke:#181818;stroke-width:1.0;" x1="34" x2="282" y1="281.6973" y2="281.6973"/><text fill="#000000" font-family="sans-serif" font-size="13" font-weight="bold" lengthAdjust="spacing" textLength="7" x="41" y="276.4346">5</text><text fill="#000000" font-family="sans-serif" font-size="13" lengthAdjust="spacing" textLength="133" x="52" y="276.4346">provides operation type</text><polygon fill="#181818" points="45,308.9883,35,312.9883,45,316.9883,41,312.9883" style="stroke:#181818;stroke-width:1.0;"/><line style="stroke:#181818;stroke-width:1.0;stroke-dasharray:2.0,2.0;" x1="39" x2="287" y1="312.9883" y2="312.9883"/><text fill="#000000" font-family="sans-serif" font-size="13" font-weight="bold" lengthAdjust="spacing" textLength="7" x="51" y="307.7256">6</text><text fill="#000000" font-family="sans-serif" font-size="13" lengthAdjust="spacing" textLength="130" x="62" y="307.7256">asks to provide priority</text><polygon fill="#181818" points="276,340.2793,286,344.2793,276,348.2793,280,344.2793" style="stroke:#181818;stroke-width:1.0;"/><line style="stroke:#181818;stroke-width:1.0;" x1="34" x2="282" y1="344.2793" y2="344.2793"/><text fill="#000000" font-family="sans-serif" font-size="13" font-weight="bold" lengthAdjust="spacing" textLength="7" x="41" y="339.0166">7</text><text fill="#000000" font-family="sans-serif" font-size="13" lengthAdjust="spacing" textLength="90" x="52" y="339.0166">provides priority</text><polygon fill="#181818" points="45,371.5703,35,375.5703,45,379.5703,41,375.5703" style="stroke:#181818;stroke-width:1.0;"/><line style="stroke:#181818;stroke-width:1.0;stroke-dasharray:2.0,2.0;" x1="39" x2="287" y1="375.5703" y2="375.5703"/><text fill="#000000" font-family="sans-serif" font-size="13" font-weight="bold" lengthAdjust="spacing" textLength="7" x="51" y="370.3076">8</text><text fill="#000000" font-family="sans-serif" font-size="13" lengthAdjust="spacing" textLength="203" x="62" y="370.3076">asks to provide suggested deadline</text><polygon fill="#181818" points="276,402.8613,286,406.8613,276,410.8613,280,406.8613" style="stroke:#181818;stroke-width:1.0;"/><line style="stroke:#181818;stroke-width:1.0;" x1="34" x2="282" y1="406.8613" y2="406.8613"/><text fill="#000000" font-family="sans-serif" font-size="13" font-weight="bold" lengthAdjust="spacing" textLength="7" x="41" y="401.5986">9</text><text fill="#000000" font-family="sans-serif" font-size="13" lengthAdjust="spacing" textLength="163" x="52" y="401.5986">provides suggested deadline</text><polygon fill="#181818" points="45,451.4434,35,455.4434,45,459.4434,41,455.4434" style="stroke:#181818;stroke-width:1.0;"/><line style="stroke:#181818;stroke-width:1.0;stroke-dasharray:2.0,2.0;" x1="39" x2="292" y1="455.4434" y2="455.4434"/><text fill="#000000" font-family="sans-serif" font-size="13" font-weight="bold" lengthAdjust="spacing" textLength="14" x="51" y="441.5352">10</text><text fill="#000000" font-family="sans-serif" font-size="13" lengthAdjust="spacing" textLength="137" x="69" y="432.8896">confirms the successful</text><text fill="#000000" font-family="sans-serif" font-size="13" lengthAdjust="spacing" textLength="206" x="73" y="450.1807">submission of the operation request</text><!--SRC=[VP6xRiCm34LtVGMHfPDZP6Y735tglOFHeK0NHQOTejQZ8XN0Vr_PSHEuYBte0PvxBoazdKK27yiozDf9iltUU5io_YHq1ek6T1UrLKf8UeJTHmtF-yF-y085r0CBMgXd5gehkrDA9_4ksHF6V3RY8rH-sZH3zVwcWev2Xa9E_7F9bVgpdd2wQC69Ktc1udMim34ZtmnnJ6C1xS07Z5h8kxjeiXZf8gj6yQmI3o7w2pK8SaO8MOOvcrphexrwBBDccX-Zsmctla26W6l6_wbjpn39Hv9XjSrRVTk7KzVbvyC66jHDJswrlqVaqjjurrAqF3qf9sEGkKtzbykNaoNcSJZVJkNxjFC7AfLj5z_s2m00]--></g></svg>