<?xml version="1.0" encoding="us-ascii" standalone="no"?><svg xmlns="http://www.w3.org/2000/svg" xmlns:xlink="http://www.w3.org/1999/xlink" contentStyleType="text/css" height="466px" preserveAspectRatio="none" style="width:333px;height:466px;background:#FFFFFF;" version="1.1" viewBox="0 0 333 466" width="333px" zoomAndPan="magnify"><defs/><g><text fill="#000000" font-family="sans-serif" font-size="14" font-weight="bold" lengthAdjust="spacing" textLength="262" x="34.5" y="30.1074">US 5.1.16 - System Sequence Diagram</text><rect fill="#FFFFFF" height="307.9102" style="stroke:#181818;stroke-width:1.0;" width="10" x="28" y="111.5332"/><rect fill="#FFFFFF" height="298.9102" style="stroke:#181818;stroke-width:1.0;" width="10" x="292" y="111.5332"/><line style="stroke:#181818;stroke-width:0.5;stroke-dasharray:5.0,5.0;" x1="33" x2="33" y1="78.2422" y2="428.4434"/><line style="stroke:#181818;stroke-width:0.5;stroke-dasharray:5.0,5.0;" x1="297" x2="297" y1="78.2422" y2="428.4434"/><rect fill="#E2E2F0" height="32.6211" rx="2.5" ry="2.5" style="stroke:#181818;stroke-width:0.5;" width="56" x="5" y="44.6211"/><text fill="#000000" font-family="sans-serif" font-size="14" lengthAdjust="spacing" textLength="42" x="12" y="66.7285">Doctor</text><rect fill="#E2E2F0" height="32.6211" rx="2.5" ry="2.5" style="stroke:#181818;stroke-width:0.5;" width="56" x="5" y="427.4434"/><text fill="#000000" font-family="sans-serif" font-size="14" lengthAdjust="spacing" textLength="42" x="12" y="449.5508">Doctor</text><rect fill="#E2E2F0" height="32.6211" rx="2.5" ry="2.5" style="stroke:#181818;stroke-width:0.5;" width="60" x="267" y="44.6211"/><text fill="#000000" font-family="sans-serif" font-size="14" lengthAdjust="spacing" textLength="46" x="274" y="66.7285">System</text><rect fill="#E2E2F0" height="32.6211" rx="2.5" ry="2.5" style="stroke:#181818;stroke-width:0.5;" width="60" x="267" y="427.4434"/><text fill="#000000" font-family="sans-serif" font-size="14" lengthAdjust="spacing" textLength="46" x="274" y="449.5508">System</text><rect fill="#FFFFFF" height="307.9102" style="stroke:#181818;stroke-width:1.0;" width="10" x="28" y="111.5332"/><rect fill="#FFFFFF" height="298.9102" style="stroke:#181818;stroke-width:1.0;" width="10" x="292" y="111.5332"/><polygon fill="#181818" points="280,107.5332,290,111.5332,280,115.5332,284,111.5332" style="stroke:#181818;stroke-width:1.0;"/><line style="stroke:#181818;stroke-width:1.0;" x1="38" x2="286" y1="111.5332" y2="111.5332"/><text fill="#000000" font-family="sans-serif" font-size="13" font-weight="bold" lengthAdjust="spacing" textLength="7" x="45" y="106.2705">1</text><text fill="#000000" font-family="sans-serif" font-size="13" lengthAdjust="spacing" textLength="150" x="56" y="106.2705">asks request an operation</text><polygon fill="#181818" points="49,138.8242,39,142.8242,49,146.8242,45,142.8242" style="stroke:#181818;stroke-width:1.0;"/><line style="stroke:#181818;stroke-width:1.0;stroke-dasharray:2.0,2.0;" x1="43" x2="291" y1="142.8242" y2="142.8242"/><text fill="#000000" font-family="sans-serif" font-size="13" font-weight="bold" lengthAdjust="spacing" textLength="7" x="55" y="137.5615">2</text><text fill="#000000" font-family="sans-serif" font-size="13" lengthAdjust="spacing" textLength="219" x="66" y="137.5615">asks to provide the patient information</text><polygon fill="#181818" points="280,170.1152,290,174.1152,280,178.1152,284,174.1152" style="stroke:#181818;stroke-width:1.0;"/><line style="stroke:#181818;stroke-width:1.0;" x1="38" x2="286" y1="174.1152" y2="174.1152"/><text fill="#000000" font-family="sans-serif" font-size="13" font-weight="bold" lengthAdjust="spacing" textLength="7" x="45" y="168.8525">3</text><text fill="#000000" font-family="sans-serif" font-size="13" lengthAdjust="spacing" textLength="157" x="56" y="168.8525">provides patient information</text><polygon fill="#181818" points="49,201.4063,39,205.4063,49,209.4063,45,205.4063" style="stroke:#181818;stroke-width:1.0;"/><line style="stroke:#181818;stroke-width:1.0;stroke-dasharray:2.0,2.0;" x1="43" x2="291" y1="205.4063" y2="205.4063"/><text fill="#000000" font-family="sans-serif" font-size="13" font-weight="bold" lengthAdjust="spacing" textLength="7" x="55" y="200.1436">4</text><text fill="#000000" font-family="sans-serif" font-size="13" lengthAdjust="spacing" textLength="173" x="66" y="200.1436">asks to provide operation type</text><polygon fill="#181818" points="280,232.6973,290,236.6973,280,240.6973,284,236.6973" style="stroke:#181818;stroke-width:1.0;"/><line style="stroke:#181818;stroke-width:1.0;" x1="38" x2="286" y1="236.6973" y2="236.6973"/><text fill="#000000" font-family="sans-serif" font-size="13" font-weight="bold" lengthAdjust="spacing" textLength="7" x="45" y="231.4346">5</text><text fill="#000000" font-family="sans-serif" font-size="13" lengthAdjust="spacing" textLength="133" x="56" y="231.4346">provides operation type</text><polygon fill="#181818" points="49,263.9883,39,267.9883,49,271.9883,45,267.9883" style="stroke:#181818;stroke-width:1.0;"/><line style="stroke:#181818;stroke-width:1.0;stroke-dasharray:2.0,2.0;" x1="43" x2="291" y1="267.9883" y2="267.9883"/><text fill="#000000" font-family="sans-serif" font-size="13" font-weight="bold" lengthAdjust="spacing" textLength="7" x="55" y="262.7256">6</text><text fill="#000000" font-family="sans-serif" font-size="13" lengthAdjust="spacing" textLength="130" x="66" y="262.7256">asks to provide priority</text><polygon fill="#181818" points="280,295.2793,290,299.2793,280,303.2793,284,299.2793" style="stroke:#181818;stroke-width:1.0;"/><line style="stroke:#181818;stroke-width:1.0;" x1="38" x2="286" y1="299.2793" y2="299.2793"/><text fill="#000000" font-family="sans-serif" font-size="13" font-weight="bold" lengthAdjust="spacing" textLength="7" x="45" y="294.0166">7</text><text fill="#000000" font-family="sans-serif" font-size="13" lengthAdjust="spacing" textLength="90" x="56" y="294.0166">provides priority</text><polygon fill="#181818" points="49,326.5703,39,330.5703,49,334.5703,45,330.5703" style="stroke:#181818;stroke-width:1.0;"/><line style="stroke:#181818;stroke-width:1.0;stroke-dasharray:2.0,2.0;" x1="43" x2="291" y1="330.5703" y2="330.5703"/><text fill="#000000" font-family="sans-serif" font-size="13" font-weight="bold" lengthAdjust="spacing" textLength="7" x="55" y="325.3076">8</text><text fill="#000000" font-family="sans-serif" font-size="13" lengthAdjust="spacing" textLength="203" x="66" y="325.3076">asks to provide suggested deadline</text><polygon fill="#181818" points="280,357.8613,290,361.8613,280,365.8613,284,361.8613" style="stroke:#181818;stroke-width:1.0;"/><line style="stroke:#181818;stroke-width:1.0;" x1="38" x2="286" y1="361.8613" y2="361.8613"/><text fill="#000000" font-family="sans-serif" font-size="13" font-weight="bold" lengthAdjust="spacing" textLength="7" x="45" y="356.5986">9</text><text fill="#000000" font-family="sans-serif" font-size="13" lengthAdjust="spacing" textLength="163" x="56" y="356.5986">provides suggested deadline</text><polygon fill="#181818" points="49,406.4434,39,410.4434,49,414.4434,45,410.4434" style="stroke:#181818;stroke-width:1.0;"/><line style="stroke:#181818;stroke-width:1.0;stroke-dasharray:2.0,2.0;" x1="43" x2="296" y1="410.4434" y2="410.4434"/><text fill="#000000" font-family="sans-serif" font-size="13" font-weight="bold" lengthAdjust="spacing" textLength="14" x="55" y="396.5352">10</text><text fill="#000000" font-family="sans-serif" font-size="13" lengthAdjust="spacing" textLength="137" x="73" y="387.8896">confirms the successful</text><text fill="#000000" font-family="sans-serif" font-size="13" lengthAdjust="spacing" textLength="206" x="77" y="405.1807">submission of the operation request</text><!--SRC=[VP6zRiCm38HtFGMHfPDjP6Y735tglOFHeK0NHQOJejPFHIg0txwoOxXm4NiJTQVlIEhfAXBuL5MXrqwIxKlZRSNuaz0PB5hIbwYjKaBI8nm-6dWkZ-Nn1Gfe1XQqqCnUgE_UWr8wYNV9dZ4g5NGKCXGo7Mfln4VG3FNxsqgPMLbfFXkbiWp5wtY6KxxyPeXZ2Wje1pvWr4BUAMs4RbfmmYt5H1YV5XanacQ4U0ZHtwX5a2j2o0pCqUGw7-qTk0wUtVpOkf-mD0ao1Dm2_tVjCqCa7qc6pJONVP_3wNB9kyGMMjHjJswplqVEDTjurr6qFAsKap78tAN-o-NYR8bv7Cvta_mtxVoRIcNiwjlKBm00]--></g></svg>