<?xml version="1.0" encoding="us-ascii" standalone="no"?><svg xmlns="http://www.w3.org/2000/svg" xmlns:xlink="http://www.w3.org/1999/xlink" contentStyleType="text/css" height="1920px" preserveAspectRatio="none" style="width:1976px;height:1920px;background:#FFFFFF;" version="1.1" viewBox="0 0 1976 1920" width="1976px" zoomAndPan="magnify"><defs/><g><text fill="#000000" font-family="sans-serif" font-size="14" font-weight="bold" lengthAdjust="spacing" textLength="328" x="825.75" y="30.1074">US 6.2.8 Process View (Level 3) - MDBackoffice</text><rect fill="#FFFFFF" height="507.3164" style="stroke:#181818;stroke-width:1.0;" width="10" x="104" y="141.7998"/><rect fill="#FFFFFF" height="1142.3936" style="stroke:#181818;stroke-width:1.0;" width="10" x="104" y="703.6982"/><rect fill="#FFFFFF" height="421.4434" style="stroke:#181818;stroke-width:1.0;" width="10" x="265" y="184.7363"/><rect fill="#FFFFFF" height="1068.166" style="stroke:#181818;stroke-width:1.0;" width="10" x="265" y="746.6348"/><rect fill="#FFFFFF" height="314.5703" style="stroke:#181818;stroke-width:1.0;" width="10" x="576" y="216.0273"/><rect fill="#FFFFFF" height="899.0508" style="stroke:#181818;stroke-width:1.0;" width="10" x="576" y="840.168"/><rect fill="#FFFFFF" height="31.291" style="stroke:#181818;stroke-width:1.0;" width="10" x="873" y="247.3184"/><rect fill="#FFFFFF" height="31.291" style="stroke:#181818;stroke-width:1.0;" width="10" x="873" y="871.459"/><rect fill="#FFFFFF" height="31.291" style="stroke:#181818;stroke-width:1.0;" width="10" x="873" y="934.041"/><rect fill="#FFFFFF" height="31.291" style="stroke:#181818;stroke-width:1.0;" width="10" x="1009" y="461.0156"/><rect fill="#FFFFFF" height="31.291" style="stroke:#181818;stroke-width:1.0;" width="10" x="1119" y="398.4336"/><rect fill="#FFFFFF" height="31.291" style="stroke:#181818;stroke-width:1.0;" width="10" x="1119" y="1040.9141"/><rect fill="#FFFFFF" height="156.1152" style="stroke:#181818;stroke-width:1.0;" width="10" x="1304.5" y="1164.3691"/><rect fill="#FFFFFF" height="156.1152" style="stroke:#181818;stroke-width:1.0;" width="10" x="1304.5" y="1537.8125"/><rect fill="#FFFFFF" height="31.291" style="stroke:#181818;stroke-width:1.0;" width="10" x="1502" y="1257.9023"/><rect fill="#FFFFFF" height="31.291" style="stroke:#181818;stroke-width:1.0;" width="10" x="1502" y="1631.3457"/><rect fill="#FFFFFF" height="93.873" style="stroke:#181818;stroke-width:1.0;" width="10" x="1614" y="1351.7754"/><rect fill="#FFFFFF" height="31.291" style="stroke:#181818;stroke-width:1.0;" width="10" x="1904" y="1383.0664"/><rect fill="none" height="144.4551" style="stroke:#000000;stroke-width:1.5;" width="656.5" x="516.5" y="355.8516"/><rect fill="none" height="621.7227" style="stroke:#000000;stroke-width:1.5;" width="1464" x="506.5" y="1087.2051"/><rect fill="none" height="241.2793" style="stroke:#000000;stroke-width:1.5;" width="1055.5" x="516.5" y="1460.6484"/><line style="stroke:#181818;stroke-width:0.5;stroke-dasharray:5.0,5.0;" x1="109" x2="109" y1="96.8633" y2="1864.0918"/><line style="stroke:#181818;stroke-width:0.5;stroke-dasharray:5.0,5.0;" x1="270" x2="270" y1="96.8633" y2="1864.0918"/><line style="stroke:#181818;stroke-width:0.5;stroke-dasharray:5.0,5.0;" x1="580.5" x2="580.5" y1="96.8633" y2="1864.0918"/><line style="stroke:#181818;stroke-width:0.5;stroke-dasharray:5.0,5.0;" x1="878" x2="878" y1="96.8633" y2="1864.0918"/><line style="stroke:#181818;stroke-width:0.5;stroke-dasharray:5.0,5.0;" x1="1014" x2="1014" y1="327.7305" y2="1864.0918"/><line style="stroke:#181818;stroke-width:0.5;stroke-dasharray:5.0,5.0;" x1="1124" x2="1124" y1="96.8633" y2="1864.0918"/><line style="stroke:#181818;stroke-width:0.5;stroke-dasharray:5.0,5.0;" x1="1214" x2="1214" y1="795.7559" y2="1864.0918"/><line style="stroke:#181818;stroke-width:0.5;stroke-dasharray:5.0,5.0;" x1="1309" x2="1309" y1="96.8633" y2="1864.0918"/><line style="stroke:#181818;stroke-width:0.5;stroke-dasharray:5.0,5.0;" x1="1403" x2="1403" y1="1586.9336" y2="1864.0918"/><line style="stroke:#181818;stroke-width:0.5;stroke-dasharray:5.0,5.0;" x1="1507" x2="1507" y1="96.8633" y2="1864.0918"/><line style="stroke:#181818;stroke-width:0.5;stroke-dasharray:5.0,5.0;" x1="1619" x2="1619" y1="96.8633" y2="1864.0918"/><line style="stroke:#181818;stroke-width:0.5;stroke-dasharray:5.0,5.0;" x1="1908.5" x2="1908.5" y1="96.8633" y2="1864.0918"/><rect fill="#E2E2F0" height="51.2422" rx="2.5" ry="2.5" style="stroke:#181818;stroke-width:0.5;" width="100" x="59" y="44.6211"/><text fill="#000000" font-family="sans-serif" font-size="14" lengthAdjust="spacing" textLength="54" x="82" y="66.7285">&#171;Route&#187;</text><text fill="#000000" font-family="sans-serif" font-size="14" lengthAdjust="spacing" textLength="82" x="70" y="85.3496">PatientRoute</text><rect fill="#E2E2F0" height="51.2422" rx="2.5" ry="2.5" style="stroke:#181818;stroke-width:0.5;" width="100" x="59" y="1863.0918"/><text fill="#000000" font-family="sans-serif" font-size="14" lengthAdjust="spacing" textLength="54" x="82" y="1885.1992">&#171;Route&#187;</text><text fill="#000000" font-family="sans-serif" font-size="14" lengthAdjust="spacing" textLength="82" x="70" y="1903.8203">PatientRoute</text><rect fill="#E2E2F0" height="51.2422" rx="2.5" ry="2.5" style="stroke:#181818;stroke-width:0.5;" width="124" x="208" y="44.6211"/><text fill="#000000" font-family="sans-serif" font-size="14" lengthAdjust="spacing" textLength="78" x="231" y="66.7285">&#171;Controller&#187;</text><text fill="#000000" font-family="sans-serif" font-size="14" lengthAdjust="spacing" textLength="106" x="219" y="85.3496">PatientController</text><rect fill="#E2E2F0" height="51.2422" rx="2.5" ry="2.5" style="stroke:#181818;stroke-width:0.5;" width="124" x="208" y="1863.0918"/><text fill="#000000" font-family="sans-serif" font-size="14" lengthAdjust="spacing" textLength="78" x="231" y="1885.1992">&#171;Controller&#187;</text><text fill="#000000" font-family="sans-serif" font-size="14" lengthAdjust="spacing" textLength="106" x="219" y="1903.8203">PatientController</text><rect fill="#E2E2F0" height="51.2422" rx="2.5" ry="2.5" style="stroke:#181818;stroke-width:0.5;" width="109" x="526.5" y="44.6211"/><text fill="#000000" font-family="sans-serif" font-size="14" lengthAdjust="spacing" textLength="63" x="549.5" y="66.7285">&#171;Service&#187;</text><text fill="#000000" font-family="sans-serif" font-size="14" lengthAdjust="spacing" textLength="91" x="537.5" y="85.3496">PatientService</text><rect fill="#E2E2F0" height="51.2422" rx="2.5" ry="2.5" style="stroke:#181818;stroke-width:0.5;" width="109" x="526.5" y="1863.0918"/><text fill="#000000" font-family="sans-serif" font-size="14" lengthAdjust="spacing" textLength="63" x="549.5" y="1885.1992">&#171;Service&#187;</text><text fill="#000000" font-family="sans-serif" font-size="14" lengthAdjust="spacing" textLength="91" x="537.5" y="1903.8203">PatientService</text><rect fill="#E2E2F0" height="51.2422" rx="2.5" ry="2.5" style="stroke:#181818;stroke-width:0.5;" width="130" x="813" y="44.6211"/><text fill="#000000" font-family="sans-serif" font-size="14" lengthAdjust="spacing" textLength="84" x="836" y="66.7285">&#171;Repository&#187;</text><text fill="#000000" font-family="sans-serif" font-size="14" lengthAdjust="spacing" textLength="112" x="824" y="85.3496">PatientRepository</text><rect fill="#E2E2F0" height="51.2422" rx="2.5" ry="2.5" style="stroke:#181818;stroke-width:0.5;" width="130" x="813" y="1863.0918"/><text fill="#000000" font-family="sans-serif" font-size="14" lengthAdjust="spacing" textLength="84" x="836" y="1885.1992">&#171;Repository&#187;</text><text fill="#000000" font-family="sans-serif" font-size="14" lengthAdjust="spacing" textLength="112" x="824" y="1903.8203">PatientRepository</text><rect fill="#E2E2F0" height="51.2422" rx="2.5" ry="2.5" style="stroke:#181818;stroke-width:0.5;" width="122" x="953" y="1863.0918"/><text fill="#000000" font-family="sans-serif" font-size="14" lengthAdjust="spacing" textLength="46" x="991" y="1885.1992">&#171;DTO&#187;</text><text fill="#000000" font-family="sans-serif" font-size="14" lengthAdjust="spacing" textLength="104" x="964" y="1903.8203">List&lt;PatientDto&gt;</text><rect fill="#E2E2F0" height="51.2422" rx="2.5" ry="2.5" style="stroke:#181818;stroke-width:0.5;" width="78" x="1085" y="44.6211"/><text fill="#000000" font-family="sans-serif" font-size="14" lengthAdjust="spacing" textLength="64" x="1092" y="66.7285">&#171;Domain&#187;</text><text fill="#000000" font-family="sans-serif" font-size="14" lengthAdjust="spacing" textLength="44" x="1104" y="85.3496">Patient</text><rect fill="#E2E2F0" height="51.2422" rx="2.5" ry="2.5" style="stroke:#181818;stroke-width:0.5;" width="78" x="1085" y="1863.0918"/><text fill="#000000" font-family="sans-serif" font-size="14" lengthAdjust="spacing" textLength="64" x="1092" y="1885.1992">&#171;Domain&#187;</text><text fill="#000000" font-family="sans-serif" font-size="14" lengthAdjust="spacing" textLength="44" x="1104" y="1903.8203">Patient</text><rect fill="#E2E2F0" height="51.2422" rx="2.5" ry="2.5" style="stroke:#181818;stroke-width:0.5;" width="82" x="1173" y="1863.0918"/><text fill="#000000" font-family="sans-serif" font-size="14" lengthAdjust="spacing" textLength="46" x="1191" y="1885.1992">&#171;DTO&#187;</text><text fill="#000000" font-family="sans-serif" font-size="14" lengthAdjust="spacing" textLength="64" x="1184" y="1903.8203">IdPassDto</text><rect fill="#E2E2F0" height="51.2422" rx="2.5" ry="2.5" style="stroke:#181818;stroke-width:0.5;" width="89" x="1265" y="44.6211"/><text fill="#000000" font-family="sans-serif" font-size="14" lengthAdjust="spacing" textLength="63" x="1278" y="66.7285">&#171;Service&#187;</text><text fill="#000000" font-family="sans-serif" font-size="14" lengthAdjust="spacing" textLength="71" x="1276" y="85.3496">LogService</text><rect fill="#E2E2F0" height="51.2422" rx="2.5" ry="2.5" style="stroke:#181818;stroke-width:0.5;" width="89" x="1265" y="1863.0918"/><text fill="#000000" font-family="sans-serif" font-size="14" lengthAdjust="spacing" textLength="63" x="1278" y="1885.1992">&#171;Service&#187;</text><text fill="#000000" font-family="sans-serif" font-size="14" lengthAdjust="spacing" textLength="71" x="1276" y="1903.8203">LogService</text><rect fill="#E2E2F0" height="51.2422" rx="2.5" ry="2.5" style="stroke:#181818;stroke-width:0.5;" width="78" x="1364" y="1863.0918"/><text fill="#000000" font-family="sans-serif" font-size="14" lengthAdjust="spacing" textLength="64" x="1371" y="1885.1992">&#171;Domain&#187;</text><text fill="#000000" font-family="sans-serif" font-size="14" lengthAdjust="spacing" textLength="24" x="1393" y="1903.8203">Log</text><rect fill="#E2E2F0" height="51.2422" rx="2.5" ry="2.5" style="stroke:#181818;stroke-width:0.5;" width="110" x="1452" y="44.6211"/><text fill="#000000" font-family="sans-serif" font-size="14" lengthAdjust="spacing" textLength="84" x="1465" y="66.7285">&#171;Repository&#187;</text><text fill="#000000" font-family="sans-serif" font-size="14" lengthAdjust="spacing" textLength="92" x="1463" y="85.3496">LogRepository</text><rect fill="#E2E2F0" height="51.2422" rx="2.5" ry="2.5" style="stroke:#181818;stroke-width:0.5;" width="110" x="1452" y="1863.0918"/><text fill="#000000" font-family="sans-serif" font-size="14" lengthAdjust="spacing" textLength="84" x="1465" y="1885.1992">&#171;Repository&#187;</text><text fill="#000000" font-family="sans-serif" font-size="14" lengthAdjust="spacing" textLength="92" x="1463" y="1903.8203">LogRepository</text><rect fill="#E2E2F0" height="51.2422" rx="2.5" ry="2.5" style="stroke:#181818;stroke-width:0.5;" width="94" x="1572" y="44.6211"/><text fill="#000000" font-family="sans-serif" font-size="14" lengthAdjust="spacing" textLength="63" x="1587.5" y="66.7285">&#171;Service&#187;</text><text fill="#000000" font-family="sans-serif" font-size="14" lengthAdjust="spacing" textLength="76" x="1583" y="85.3496">UserService</text><rect fill="#E2E2F0" height="51.2422" rx="2.5" ry="2.5" style="stroke:#181818;stroke-width:0.5;" width="94" x="1572" y="1863.0918"/><text fill="#000000" font-family="sans-serif" font-size="14" lengthAdjust="spacing" textLength="63" x="1587.5" y="1885.1992">&#171;Service&#187;</text><text fill="#000000" font-family="sans-serif" font-size="14" lengthAdjust="spacing" textLength="76" x="1583" y="1903.8203">UserService</text><rect fill="#E2E2F0" height="51.2422" rx="2.5" ry="2.5" style="stroke:#181818;stroke-width:0.5;" width="103" x="1857.5" y="44.6211"/><text fill="#000000" font-family="sans-serif" font-size="14" lengthAdjust="spacing" textLength="49" x="1884.5" y="66.7285">&#171;Utility&#187;</text><text fill="#000000" font-family="sans-serif" font-size="14" lengthAdjust="spacing" textLength="85" x="1868.5" y="85.3496">UserManager</text><rect fill="#E2E2F0" height="51.2422" rx="2.5" ry="2.5" style="stroke:#181818;stroke-width:0.5;" width="103" x="1857.5" y="1863.0918"/><text fill="#000000" font-family="sans-serif" font-size="14" lengthAdjust="spacing" textLength="49" x="1884.5" y="1885.1992">&#171;Utility&#187;</text><text fill="#000000" font-family="sans-serif" font-size="14" lengthAdjust="spacing" textLength="85" x="1868.5" y="1903.8203">UserManager</text><rect fill="#FFFFFF" height="507.3164" style="stroke:#181818;stroke-width:1.0;" width="10" x="104" y="141.7998"/><rect fill="#FFFFFF" height="1142.3936" style="stroke:#181818;stroke-width:1.0;" width="10" x="104" y="703.6982"/><rect fill="#FFFFFF" height="421.4434" style="stroke:#181818;stroke-width:1.0;" width="10" x="265" y="184.7363"/><rect fill="#FFFFFF" height="1068.166" style="stroke:#181818;stroke-width:1.0;" width="10" x="265" y="746.6348"/><rect fill="#FFFFFF" height="314.5703" style="stroke:#181818;stroke-width:1.0;" width="10" x="576" y="216.0273"/><rect fill="#FFFFFF" height="899.0508" style="stroke:#181818;stroke-width:1.0;" width="10" x="576" y="840.168"/><rect fill="#FFFFFF" height="31.291" style="stroke:#181818;stroke-width:1.0;" width="10" x="873" y="247.3184"/><rect fill="#FFFFFF" height="31.291" style="stroke:#181818;stroke-width:1.0;" width="10" x="873" y="871.459"/><rect fill="#FFFFFF" height="31.291" style="stroke:#181818;stroke-width:1.0;" width="10" x="873" y="934.041"/><rect fill="#FFFFFF" height="31.291" style="stroke:#181818;stroke-width:1.0;" width="10" x="1009" y="461.0156"/><rect fill="#FFFFFF" height="31.291" style="stroke:#181818;stroke-width:1.0;" width="10" x="1119" y="398.4336"/><rect fill="#FFFFFF" height="31.291" style="stroke:#181818;stroke-width:1.0;" width="10" x="1119" y="1040.9141"/><rect fill="#FFFFFF" height="156.1152" style="stroke:#181818;stroke-width:1.0;" width="10" x="1304.5" y="1164.3691"/><rect fill="#FFFFFF" height="156.1152" style="stroke:#181818;stroke-width:1.0;" width="10" x="1304.5" y="1537.8125"/><rect fill="#FFFFFF" height="31.291" style="stroke:#181818;stroke-width:1.0;" width="10" x="1502" y="1257.9023"/><rect fill="#FFFFFF" height="31.291" style="stroke:#181818;stroke-width:1.0;" width="10" x="1502" y="1631.3457"/><rect fill="#FFFFFF" height="93.873" style="stroke:#181818;stroke-width:1.0;" width="10" x="1614" y="1351.7754"/><rect fill="#FFFFFF" height="31.291" style="stroke:#181818;stroke-width:1.0;" width="10" x="1904" y="1383.0664"/><ellipse cx="7.5" cy="141.0498" fill="none" rx="4" ry="4" style="stroke:#181818;stroke-width:1.5;"/><polygon fill="#181818" points="92,137.7998,102,141.7998,92,145.7998,96,141.7998" style="stroke:#181818;stroke-width:1.0;"/><line style="stroke:#181818;stroke-width:1.0;" x1="12" x2="98" y1="141.7998" y2="141.7998"/><text fill="#000000" font-family="sans-serif" font-size="13" lengthAdjust="spacing" textLength="34" x="15" y="136.5371">GET()</text><path d="M119,111.8633 L119,155.8633 L216,155.8633 L216,121.8633 L206,111.8633 L119,111.8633 " fill="#FEFFDD" style="stroke:#181818;stroke-width:0.5;"/><path d="M206,111.8633 L206,121.8633 L216,121.8633 L206,111.8633 " fill="#FEFFDD" style="stroke:#181818;stroke-width:0.5;"/><text fill="#000000" font-family="sans-serif" font-size="13" lengthAdjust="spacing" textLength="61" x="125" y="130.8916">getting the</text><text fill="#000000" font-family="sans-serif" font-size="13" lengthAdjust="spacing" textLength="76" x="125" y="148.1826">list of profiles</text><polygon fill="#181818" points="253,180.7363,263,184.7363,253,188.7363,257,184.7363" style="stroke:#181818;stroke-width:1.0;"/><line style="stroke:#181818;stroke-width:1.0;" x1="114" x2="259" y1="184.7363" y2="184.7363"/><text fill="#000000" font-family="sans-serif" font-size="13" lengthAdjust="spacing" textLength="113" x="121" y="179.4736">GetPatientProfiles()</text><polygon fill="#181818" points="564,212.0273,574,216.0273,564,220.0273,568,216.0273" style="stroke:#181818;stroke-width:1.0;"/><line style="stroke:#181818;stroke-width:1.0;" x1="275" x2="570" y1="216.0273" y2="216.0273"/><text fill="#000000" font-family="sans-serif" font-size="13" lengthAdjust="spacing" textLength="74" x="282" y="210.7646">GetAllSync()</text><polygon fill="#181818" points="861,243.3184,871,247.3184,861,251.3184,865,247.3184" style="stroke:#181818;stroke-width:1.0;"/><line style="stroke:#181818;stroke-width:1.0;" x1="586" x2="867" y1="247.3184" y2="247.3184"/><text fill="#000000" font-family="sans-serif" font-size="13" lengthAdjust="spacing" textLength="74" x="593" y="242.0557">GetAllSync()</text><polygon fill="#181818" points="597,274.6094,587,278.6094,597,282.6094,593,278.6094" style="stroke:#181818;stroke-width:1.0;"/><line style="stroke:#181818;stroke-width:1.0;stroke-dasharray:2.0,2.0;" x1="591" x2="877" y1="278.6094" y2="278.6094"/><text fill="#000000" font-family="sans-serif" font-size="13" lengthAdjust="spacing" textLength="131" x="603" y="273.3467">var list = List&lt;Patient&gt;</text><polygon fill="#181818" points="941,288.6094,951,292.6094,941,296.6094,945,292.6094" style="stroke:#181818;stroke-width:1.0;"/><line style="stroke:#181818;stroke-width:1.0;" x1="586" x2="947" y1="292.6094" y2="292.6094"/><rect fill="#E2E2F0" height="51.2422" rx="2.5" ry="2.5" style="stroke:#181818;stroke-width:0.5;" width="122" x="953" y="286.6094"/><text fill="#000000" font-family="sans-serif" font-size="14" lengthAdjust="spacing" textLength="46" x="991" y="308.7168">&#171;DTO&#187;</text><text fill="#000000" font-family="sans-serif" font-size="14" lengthAdjust="spacing" textLength="104" x="964" y="327.3379">List&lt;PatientDto&gt;</text><path d="M516.5,355.8516 L589.5,355.8516 L589.5,365.1426 L579.5,375.1426 L516.5,375.1426 L516.5,355.8516 " fill="#EEEEEE" style="stroke:#000000;stroke-width:1.5;"/><rect fill="none" height="144.4551" style="stroke:#000000;stroke-width:1.5;" width="656.5" x="516.5" y="355.8516"/><text fill="#000000" font-family="sans-serif" font-size="13" font-weight="bold" lengthAdjust="spacing" textLength="28" x="531.5" y="370.8799">loop</text><text fill="#000000" font-family="sans-serif" font-size="11" font-weight="bold" lengthAdjust="spacing" textLength="185" x="604.5" y="369.7217">[for every profile in listOfProfiles]</text><polygon fill="#181818" points="1107,394.4336,1117,398.4336,1107,402.4336,1111,398.4336" style="stroke:#181818;stroke-width:1.0;"/><line style="stroke:#181818;stroke-width:1.0;" x1="586" x2="1113" y1="398.4336" y2="398.4336"/><text fill="#000000" font-family="sans-serif" font-size="13" lengthAdjust="spacing" textLength="45" x="593" y="393.1709">toDTO()</text><polygon fill="#181818" points="597,425.7246,587,429.7246,597,433.7246,593,429.7246" style="stroke:#181818;stroke-width:1.0;"/><line style="stroke:#181818;stroke-width:1.0;stroke-dasharray:2.0,2.0;" x1="591" x2="1123" y1="429.7246" y2="429.7246"/><text fill="#000000" font-family="sans-serif" font-size="13" lengthAdjust="spacing" textLength="60" x="603" y="424.4619">profileDTO</text><polygon fill="#181818" points="997,457.0156,1007,461.0156,997,465.0156,1001,461.0156" style="stroke:#181818;stroke-width:1.0;"/><line style="stroke:#181818;stroke-width:1.0;" x1="586" x2="1003" y1="461.0156" y2="461.0156"/><text fill="#000000" font-family="sans-serif" font-size="13" lengthAdjust="spacing" textLength="108" x="593" y="455.7529">listAdd(profileDTO)</text><polygon fill="#181818" points="597,488.3066,587,492.3066,597,496.3066,593,492.3066" style="stroke:#181818;stroke-width:1.0;"/><line style="stroke:#181818;stroke-width:1.0;stroke-dasharray:2.0,2.0;" x1="591" x2="1013" y1="492.3066" y2="492.3066"/><text fill="#000000" font-family="sans-serif" font-size="13" lengthAdjust="spacing" textLength="33" x="603" y="487.0439">return</text><polygon fill="#181818" points="286,526.5977,276,530.5977,286,534.5977,282,530.5977" style="stroke:#181818;stroke-width:1.0;"/><line style="stroke:#181818;stroke-width:1.0;stroke-dasharray:2.0,2.0;" x1="280" x2="580" y1="530.5977" y2="530.5977"/><text fill="#000000" font-family="sans-serif" font-size="13" lengthAdjust="spacing" textLength="86" x="292" y="525.335">patientListDTO</text><line style="stroke:#181818;stroke-width:1.0;" x1="275" x2="317" y1="561.8887" y2="561.8887"/><line style="stroke:#181818;stroke-width:1.0;" x1="317" x2="317" y1="561.8887" y2="574.8887"/><line style="stroke:#181818;stroke-width:1.0;" x1="276" x2="317" y1="574.8887" y2="574.8887"/><polygon fill="#181818" points="286,570.8887,276,574.8887,286,578.8887,282,574.8887" style="stroke:#181818;stroke-width:1.0;"/><text fill="#000000" font-family="sans-serif" font-size="13" lengthAdjust="spacing" textLength="108" x="282" y="556.626">ok(patientListDTO)</text><polygon fill="#181818" points="125,602.1797,115,606.1797,125,610.1797,121,606.1797" style="stroke:#181818;stroke-width:1.0;"/><line style="stroke:#181818;stroke-width:1.0;stroke-dasharray:2.0,2.0;" x1="119" x2="269" y1="606.1797" y2="606.1797"/><text fill="#000000" font-family="sans-serif" font-size="13" lengthAdjust="spacing" textLength="24" x="131" y="600.917">json</text><polygon fill="#181818" points="11,645.1162,1,649.1162,11,653.1162,7,649.1162" style="stroke:#181818;stroke-width:1.0;"/><line style="stroke:#181818;stroke-width:1.0;stroke-dasharray:2.0,2.0;" x1="5" x2="108" y1="649.1162" y2="649.1162"/><text fill="#000000" font-family="sans-serif" font-size="13" lengthAdjust="spacing" textLength="24" x="17" y="643.8535">json</text><path d="M119,619.1797 L119,663.1797 L221,663.1797 L221,629.1797 L211,619.1797 L119,619.1797 " fill="#FEFFDD" style="stroke:#181818;stroke-width:0.5;"/><path d="M211,619.1797 L211,629.1797 L221,629.1797 L211,619.1797 " fill="#FEFFDD" style="stroke:#181818;stroke-width:0.5;"/><text fill="#000000" font-family="sans-serif" font-size="13" lengthAdjust="spacing" textLength="81" x="125" y="638.208">after choosing</text><text fill="#000000" font-family="sans-serif" font-size="13" lengthAdjust="spacing" textLength="45" x="129" y="655.499">a profile</text><ellipse cx="7.5" cy="702.9482" fill="none" rx="4" ry="4" style="stroke:#181818;stroke-width:1.5;"/><polygon fill="#181818" points="92,699.6982,102,703.6982,92,707.6982,96,703.6982" style="stroke:#181818;stroke-width:1.0;"/><line style="stroke:#181818;stroke-width:1.0;" x1="12" x2="98" y1="703.6982" y2="703.6982"/><text fill="#000000" font-family="sans-serif" font-size="13" lengthAdjust="spacing" textLength="77" x="15" y="698.4355">POST(JSON)</text><path d="M119,673.7617 L119,717.7617 L236,717.7617 L236,683.7617 L226,673.7617 L119,673.7617 " fill="#FEFFDD" style="stroke:#181818;stroke-width:0.5;"/><path d="M226,673.7617 L226,683.7617 L236,683.7617 L226,673.7617 " fill="#FEFFDD" style="stroke:#181818;stroke-width:0.5;"/><text fill="#000000" font-family="sans-serif" font-size="13" lengthAdjust="spacing" textLength="68" x="125" y="692.79">after getting</text><text fill="#000000" font-family="sans-serif" font-size="13" lengthAdjust="spacing" textLength="92" x="129" y="710.0811">the confirmation</text><polygon fill="#181818" points="253,742.6348,263,746.6348,253,750.6348,257,746.6348" style="stroke:#181818;stroke-width:1.0;"/><line style="stroke:#181818;stroke-width:1.0;" x1="114" x2="259" y1="746.6348" y2="746.6348"/><text fill="#000000" font-family="sans-serif" font-size="13" lengthAdjust="spacing" textLength="132" x="121" y="741.3721">DeletePatientProfile(id)</text><polygon fill="#181818" points="1161,773.9258,1171,777.9258,1161,781.9258,1165,777.9258" style="stroke:#181818;stroke-width:1.0;"/><line style="stroke:#181818;stroke-width:1.0;" x1="275" x2="1167" y1="777.9258" y2="777.9258"/><text fill="#000000" font-family="sans-serif" font-size="13" lengthAdjust="spacing" textLength="55" x="282" y="772.6631">toDTO(id)</text><rect fill="#E2E2F0" height="51.2422" rx="2.5" ry="2.5" style="stroke:#181818;stroke-width:0.5;" width="82" x="1173" y="754.6348"/><text fill="#000000" font-family="sans-serif" font-size="14" lengthAdjust="spacing" textLength="46" x="1191" y="776.7422">&#171;DTO&#187;</text><text fill="#000000" font-family="sans-serif" font-size="14" lengthAdjust="spacing" textLength="64" x="1184" y="795.3633">IdPassDto</text><polygon fill="#181818" points="564,836.168,574,840.168,564,844.168,568,840.168" style="stroke:#181818;stroke-width:1.0;"/><line style="stroke:#181818;stroke-width:1.0;" x1="275" x2="570" y1="840.168" y2="840.168"/><text fill="#000000" font-family="sans-serif" font-size="13" lengthAdjust="spacing" textLength="196" x="282" y="834.9053">DeletePatientProfile(idPassDto.Id)</text><polygon fill="#181818" points="861,867.459,871,871.459,861,875.459,865,871.459" style="stroke:#181818;stroke-width:1.0;"/><line style="stroke:#181818;stroke-width:1.0;" x1="586" x2="867" y1="871.459" y2="871.459"/><text fill="#000000" font-family="sans-serif" font-size="13" lengthAdjust="spacing" textLength="133" x="593" y="866.1963">ExistsPatientWithId(id)</text><polygon fill="#181818" points="597,898.75,587,902.75,597,906.75,593,902.75" style="stroke:#181818;stroke-width:1.0;"/><line style="stroke:#181818;stroke-width:1.0;stroke-dasharray:2.0,2.0;" x1="591" x2="877" y1="902.75" y2="902.75"/><text fill="#000000" font-family="sans-serif" font-size="13" lengthAdjust="spacing" textLength="22" x="603" y="897.4873">true</text><polygon fill="#181818" points="861,930.041,871,934.041,861,938.041,865,934.041" style="stroke:#181818;stroke-width:1.0;"/><line style="stroke:#181818;stroke-width:1.0;" x1="586" x2="867" y1="934.041" y2="934.041"/><text fill="#000000" font-family="sans-serif" font-size="13" lengthAdjust="spacing" textLength="268" x="593" y="928.7783">GetByIdAsync(new MedicalRecordNumber(id))</text><polygon fill="#181818" points="597,961.332,587,965.332,597,969.332,593,965.332" style="stroke:#181818;stroke-width:1.0;"/><line style="stroke:#181818;stroke-width:1.0;stroke-dasharray:2.0,2.0;" x1="591" x2="877" y1="965.332" y2="965.332"/><text fill="#000000" font-family="sans-serif" font-size="13" lengthAdjust="spacing" textLength="39" x="603" y="960.0693">patient</text><line style="stroke:#181818;stroke-width:1.0;" x1="586" x2="628" y1="996.623" y2="996.623"/><line style="stroke:#181818;stroke-width:1.0;" x1="628" x2="628" y1="996.623" y2="1009.623"/><line style="stroke:#181818;stroke-width:1.0;" x1="587" x2="628" y1="1009.623" y2="1009.623"/><polygon fill="#181818" points="597,1005.623,587,1009.623,597,1013.623,593,1009.623" style="stroke:#181818;stroke-width:1.0;"/><text fill="#000000" font-family="sans-serif" font-size="13" lengthAdjust="spacing" textLength="188" x="593" y="991.3604">userRef = patient.UserReference</text><polygon fill="#181818" points="1107,1036.9141,1117,1040.9141,1107,1044.9141,1111,1040.9141" style="stroke:#181818;stroke-width:1.0;"/><line style="stroke:#181818;stroke-width:1.0;" x1="586" x2="1113" y1="1040.9141" y2="1040.9141"/><text fill="#000000" font-family="sans-serif" font-size="13" lengthAdjust="spacing" textLength="73" x="593" y="1035.6514">Anonymize()</text><polygon fill="#181818" points="597,1068.2051,587,1072.2051,597,1076.2051,593,1072.2051" style="stroke:#181818;stroke-width:1.0;"/><line style="stroke:#181818;stroke-width:1.0;stroke-dasharray:2.0,2.0;" x1="591" x2="1123" y1="1072.2051" y2="1072.2051"/><text fill="#000000" font-family="sans-serif" font-size="13" lengthAdjust="spacing" textLength="22" x="603" y="1066.9424">true</text><path d="M506.5,1087.2051 L567.5,1087.2051 L567.5,1096.4961 L557.5,1106.4961 L506.5,1106.4961 L506.5,1087.2051 " fill="#EEEEEE" style="stroke:#000000;stroke-width:1.5;"/><rect fill="none" height="621.7227" style="stroke:#000000;stroke-width:1.5;" width="1464" x="506.5" y="1087.2051"/><text fill="#000000" font-family="sans-serif" font-size="13" font-weight="bold" lengthAdjust="spacing" textLength="16" x="521.5" y="1102.2334">alt</text><text fill="#000000" font-family="sans-serif" font-size="11" font-weight="bold" lengthAdjust="spacing" textLength="151" x="582.5" y="1101.0752">[If Anonymize returns true]</text><polygon fill="#181818" points="1292.5,1160.3691,1302.5,1164.3691,1292.5,1168.3691,1296.5,1164.3691" style="stroke:#181818;stroke-width:1.0;"/><line style="stroke:#181818;stroke-width:1.0;" x1="586" x2="1298.5" y1="1164.3691" y2="1164.3691"/><text fill="#000000" font-family="sans-serif" font-size="13" lengthAdjust="spacing" textLength="204" x="593" y="1124.5244">CreateDeletionLog(patient.Id.Value,</text><text fill="#000000" font-family="sans-serif" font-size="13" lengthAdjust="spacing" textLength="164" x="593" y="1141.8154">patient.GetType().ToString(),</text><text fill="#000000" font-family="sans-serif" font-size="13" lengthAdjust="spacing" textLength="208" x="593" y="1159.1064">"Anonymization of patient's profile.")</text><polygon fill="#181818" points="1352,1174.3691,1362,1178.3691,1352,1182.3691,1356,1178.3691" style="stroke:#181818;stroke-width:1.0;"/><line style="stroke:#181818;stroke-width:1.0;" x1="1314.5" x2="1358" y1="1178.3691" y2="1178.3691"/><rect fill="#E2E2F0" height="51.2422" rx="2.5" ry="2.5" style="stroke:#181818;stroke-width:0.5;" width="78" x="1364" y="1172.3691"/><text fill="#000000" font-family="sans-serif" font-size="14" lengthAdjust="spacing" textLength="64" x="1371" y="1194.4766">&#171;Domain&#187;</text><text fill="#000000" font-family="sans-serif" font-size="14" lengthAdjust="spacing" textLength="24" x="1393" y="1213.0977">Log</text><polygon fill="#181818" points="1490,1253.9023,1500,1257.9023,1490,1261.9023,1494,1257.9023" style="stroke:#181818;stroke-width:1.0;"/><line style="stroke:#181818;stroke-width:1.0;" x1="1314.5" x2="1496" y1="1257.9023" y2="1257.9023"/><text fill="#000000" font-family="sans-serif" font-size="13" lengthAdjust="spacing" textLength="85" x="1321.5" y="1252.6396">AddAsync(log)</text><polygon fill="#181818" points="1325.5,1285.1934,1315.5,1289.1934,1325.5,1293.1934,1321.5,1289.1934" style="stroke:#181818;stroke-width:1.0;"/><line style="stroke:#181818;stroke-width:1.0;stroke-dasharray:2.0,2.0;" x1="1319.5" x2="1506" y1="1289.1934" y2="1289.1934"/><text fill="#000000" font-family="sans-serif" font-size="13" lengthAdjust="spacing" textLength="22" x="1331.5" y="1283.9307">true</text><polygon fill="#181818" points="597,1316.4844,587,1320.4844,597,1324.4844,593,1320.4844" style="stroke:#181818;stroke-width:1.0;"/><line style="stroke:#181818;stroke-width:1.0;stroke-dasharray:2.0,2.0;" x1="591" x2="1308.5" y1="1320.4844" y2="1320.4844"/><text fill="#000000" font-family="sans-serif" font-size="13" lengthAdjust="spacing" textLength="22" x="603" y="1315.2217">true</text><polygon fill="#181818" points="1602,1347.7754,1612,1351.7754,1602,1355.7754,1606,1351.7754" style="stroke:#181818;stroke-width:1.0;"/><line style="stroke:#181818;stroke-width:1.0;" x1="586" x2="1608" y1="1351.7754" y2="1351.7754"/><text fill="#000000" font-family="sans-serif" font-size="13" lengthAdjust="spacing" textLength="236" x="593" y="1346.5127">DeleteByIdAsync(patient.UserReference)</text><polygon fill="#181818" points="1892,1379.0664,1902,1383.0664,1892,1387.0664,1896,1383.0664" style="stroke:#181818;stroke-width:1.0;"/><line style="stroke:#181818;stroke-width:1.0;" x1="1624" x2="1898" y1="1383.0664" y2="1383.0664"/><text fill="#000000" font-family="sans-serif" font-size="13" lengthAdjust="spacing" textLength="261" x="1631" y="1377.8037">DeleteAsync(FindByIdAsync(userReference))</text><polygon fill="#181818" points="1635,1410.3574,1625,1414.3574,1635,1418.3574,1631,1414.3574" style="stroke:#181818;stroke-width:1.0;"/><line style="stroke:#181818;stroke-width:1.0;stroke-dasharray:2.0,2.0;" x1="1629" x2="1908" y1="1414.3574" y2="1414.3574"/><text fill="#000000" font-family="sans-serif" font-size="13" lengthAdjust="spacing" textLength="22" x="1641" y="1409.0947">true</text><polygon fill="#181818" points="597,1441.6484,587,1445.6484,597,1449.6484,593,1445.6484" style="stroke:#181818;stroke-width:1.0;"/><line style="stroke:#181818;stroke-width:1.0;stroke-dasharray:2.0,2.0;" x1="591" x2="1618" y1="1445.6484" y2="1445.6484"/><text fill="#000000" font-family="sans-serif" font-size="13" lengthAdjust="spacing" textLength="22" x="603" y="1440.3857">true</text><path d="M516.5,1460.6484 L577.5,1460.6484 L577.5,1469.9395 L567.5,1479.9395 L516.5,1479.9395 L516.5,1460.6484 " fill="#EEEEEE" style="stroke:#000000;stroke-width:1.5;"/><rect fill="none" height="241.2793" style="stroke:#000000;stroke-width:1.5;" width="1055.5" x="516.5" y="1460.6484"/><text fill="#000000" font-family="sans-serif" font-size="13" font-weight="bold" lengthAdjust="spacing" textLength="16" x="531.5" y="1475.6768">alt</text><text fill="#000000" font-family="sans-serif" font-size="11" font-weight="bold" lengthAdjust="spacing" textLength="96" x="592.5" y="1474.5186">[If it returns true]</text><polygon fill="#181818" points="1292.5,1533.8125,1302.5,1537.8125,1292.5,1541.8125,1296.5,1537.8125" style="stroke:#181818;stroke-width:1.0;"/><line style="stroke:#181818;stroke-width:1.0;" x1="586" x2="1298.5" y1="1537.8125" y2="1537.8125"/><text fill="#000000" font-family="sans-serif" font-size="13" lengthAdjust="spacing" textLength="158" x="593" y="1497.9678">CreateDeletionLog(userRef,</text><text fill="#000000" font-family="sans-serif" font-size="13" lengthAdjust="spacing" textLength="180" x="593" y="1515.2588">"MDBackoffice.Domain.Users",</text><text fill="#000000" font-family="sans-serif" font-size="13" lengthAdjust="spacing" textLength="181" x="593" y="1532.5498">"Deletion of patient's account.")</text><polygon fill="#181818" points="1352,1547.8125,1362,1551.8125,1352,1555.8125,1356,1551.8125" style="stroke:#181818;stroke-width:1.0;"/><line style="stroke:#181818;stroke-width:1.0;" x1="1314.5" x2="1358" y1="1551.8125" y2="1551.8125"/><rect fill="#E2E2F0" height="51.2422" rx="2.5" ry="2.5" style="stroke:#181818;stroke-width:0.5;" width="78" x="1364" y="1545.8125"/><text fill="#000000" font-family="sans-serif" font-size="14" lengthAdjust="spacing" textLength="64" x="1371" y="1567.9199">&#171;Domain&#187;</text><text fill="#000000" font-family="sans-serif" font-size="14" lengthAdjust="spacing" textLength="24" x="1393" y="1586.541">Log</text><polygon fill="#181818" points="1490,1627.3457,1500,1631.3457,1490,1635.3457,1494,1631.3457" style="stroke:#181818;stroke-width:1.0;"/><line style="stroke:#181818;stroke-width:1.0;" x1="1314.5" x2="1496" y1="1631.3457" y2="1631.3457"/><text fill="#000000" font-family="sans-serif" font-size="13" lengthAdjust="spacing" textLength="85" x="1321.5" y="1626.083">AddAsync(log)</text><polygon fill="#181818" points="1325.5,1658.6367,1315.5,1662.6367,1325.5,1666.6367,1321.5,1662.6367" style="stroke:#181818;stroke-width:1.0;"/><line style="stroke:#181818;stroke-width:1.0;stroke-dasharray:2.0,2.0;" x1="1319.5" x2="1506" y1="1662.6367" y2="1662.6367"/><text fill="#000000" font-family="sans-serif" font-size="13" lengthAdjust="spacing" textLength="22" x="1331.5" y="1657.374">true</text><polygon fill="#181818" points="597,1689.9277,587,1693.9277,597,1697.9277,593,1693.9277" style="stroke:#181818;stroke-width:1.0;"/><line style="stroke:#181818;stroke-width:1.0;stroke-dasharray:2.0,2.0;" x1="591" x2="1308.5" y1="1693.9277" y2="1693.9277"/><text fill="#000000" font-family="sans-serif" font-size="13" lengthAdjust="spacing" textLength="22" x="603" y="1688.665">true</text><polygon fill="#181818" points="286,1735.2188,276,1739.2188,286,1743.2188,282,1739.2188" style="stroke:#181818;stroke-width:1.0;"/><line style="stroke:#181818;stroke-width:1.0;stroke-dasharray:2.0,2.0;" x1="280" x2="580" y1="1739.2188" y2="1739.2188"/><text fill="#000000" font-family="sans-serif" font-size="13" lengthAdjust="spacing" textLength="33" x="292" y="1733.9561">return</text><line style="stroke:#181818;stroke-width:1.0;stroke-dasharray:2.0,2.0;" x1="275" x2="317" y1="1770.5098" y2="1770.5098"/><line style="stroke:#181818;stroke-width:1.0;stroke-dasharray:2.0,2.0;" x1="317" x2="317" y1="1770.5098" y2="1783.5098"/><line style="stroke:#181818;stroke-width:1.0;stroke-dasharray:2.0,2.0;" x1="276" x2="317" y1="1783.5098" y2="1783.5098"/><polygon fill="#181818" points="286,1779.5098,276,1783.5098,286,1787.5098,282,1783.5098" style="stroke:#181818;stroke-width:1.0;"/><text fill="#000000" font-family="sans-serif" font-size="13" lengthAdjust="spacing" textLength="287" x="282" y="1765.2471">Ok(Patient profile and account succefully deleted)</text><polygon fill="#181818" points="125,1810.8008,115,1814.8008,125,1818.8008,121,1814.8008" style="stroke:#181818;stroke-width:1.0;"/><line style="stroke:#181818;stroke-width:1.0;stroke-dasharray:2.0,2.0;" x1="119" x2="269" y1="1814.8008" y2="1814.8008"/><text fill="#000000" font-family="sans-serif" font-size="13" lengthAdjust="spacing" textLength="24" x="131" y="1809.5381">json</text><polygon fill="#181818" points="11,1842.0918,1,1846.0918,11,1850.0918,7,1846.0918" style="stroke:#181818;stroke-width:1.0;"/><line style="stroke:#181818;stroke-width:1.0;stroke-dasharray:2.0,2.0;" x1="5" x2="108" y1="1846.0918" y2="1846.0918"/><text fill="#000000" font-family="sans-serif" font-size="13" lengthAdjust="spacing" textLength="24" x="17" y="1840.8291">json</text><!--SRC=[rLR1Rjiu4BtpAmXVQWTh7rgWM1HP0sxijbuuaM7BwM5pOQMHmuOX3OfAw_tw7KcaHCfockojDvlYU_CuV3D3muq0EjXjwVl9sycVTArL0dbERpdyeCCLF86WxqPqJA_d7rdoeBAC9p0WvC2quGa_C6deuF9oeme3q-cTf6jcE4XJBGmeo-acsiMBxluh9OrMGe3sGUrgXRoARk9DjEfYjw2VK8GFj4iLQhQBlvJ_JoJ2GUNSA7qCT3Qh5NWzYvSBZ8ghNVmyZYhWYkVcqgBdHarhNFs__8RxJg3gaN7fX_M3dGkqJDSipp647w67tS_7IktzNAoYptsfyFGWmEtyHS9mPoTPYEbBbAzdbuFs1UssYqsVeftXWfjZWxbcaksj3KeC_YVa7pMUrdQY7-ZdHJmS4QaCKCttzmQNzc0Cbtjgxe7UIO5tGLL63rfbN41Eo2mn_8aXeBOagQcGqngjP0LZ4xssC0pI0fqZYKCWsFcjHi-4s1vbWgW6r1YID5iHvZcjWwGjrBSZyH7ZCF0JqxGwxr-1FQTa3goNAr0IUFVYWX2Xr85cIbCiVtrq6QHSLa6YpEMcxq2enYZamGnqGxiJTDLR_jBQwOdUPwGYjDGpIzDXI-673Oko0-w8q60ABGC18HnawkSjiCqXtEfblRrypp8jK3qCG-p8s-Yv_Nkkf4_hZ7Wv7eTx_4tMva6DiCo0ficzmaAMUwmsvjBVgQzrj8s7Vs-Zcr4VWIqrn9V5bYYPSVs81oaLlA3CvY30G5XfGvx-gjJQ7dXnqVYiWlNNuvamjgrEbkahgtJn4oyfjtnVkRbVfbNutXfxfboDBg37wZsbsMqI7u_BT9QNRKBYVBw6b2TCR21HEhqf7h-1BlMyNf3ru8iqUR02E_K6Ckmwbc2ogrT0Wqo0dEaFCwdayP7_2w_e4MTIHWWJXYwpbjCMSbuZ0WLs6YBRbGOagUo1biN9vgeGFJ6vPQA0F-waMyAqnyS3Yft4Qciqsduumiy35xAoVJLfQi2Rt9NKPE0Tq4KdxaUj2Fjjk60l6xjQVT52xKEMwahSnd5mhcwMlDrDrtecgUwv46JDZUocdbeFzjww9xQPzWs7vSDntj3LL9-uJ5lY8Y3iC9Pl0KSo3WMM1wB-YVpzByb0ezZvYfl_QIXxXD8e_jDvKh-zgfJbW_Ah0uKEOacY2apjx-gWSbe-Dp5FnstFf0mGqSFGTjxcGS9awX95yo9982k4EDAqyXNsvREJD3sTfAUZDErEqly0]--></g></svg>