<?xml version="1.0" encoding="us-ascii" standalone="no"?><svg xmlns="http://www.w3.org/2000/svg" xmlns:xlink="http://www.w3.org/1999/xlink" contentStyleType="text/css" height="812px" preserveAspectRatio="none" style="width:714px;height:812px;background:#FFFFFF;" version="1.1" viewBox="0 0 714 812" width="714px" zoomAndPan="magnify"><defs/><g><!--class User--><g id="elem_User"><rect codeLine="8" fill="#F5F5DC" height="40" id="User" rx="2.5" ry="2.5" style="stroke:#181818;stroke-width:0.5;" width="61" x="85.5" y="765"/><ellipse cx="100.5" cy="781" fill="#ADD1B2" rx="11" ry="11" style="stroke:#181818;stroke-width:1.0;"/><path d="M99.3594,781.7969 L99.3594,784.2969 L103.6875,784.2969 L103.6875,783.375 Q103.6875,782.7656 103.9219,782.5 Q104.1719,782.2344 104.5469,782.2344 Q104.9219,782.2344 105.1563,782.5 Q105.3906,782.7656 105.3906,783.375 L105.3906,786 L97.3906,786 Q96.7656,786 96.5,785.7656 Q96.25,785.5313 96.25,785.1406 Q96.25,784.7656 96.5156,784.5313 Q96.7813,784.2969 97.3906,784.2969 L97.6563,784.2969 L97.6563,777.6406 L97.3906,777.6406 Q96.7656,777.6406 96.5,777.4063 Q96.25,777.1719 96.25,776.7813 Q96.25,776.4063 96.5,776.1719 Q96.7656,775.9375 97.3906,775.9375 L105.0156,775.9375 L105.0156,778.5313 Q105.0156,779.1406 104.7813,779.4063 Q104.5625,779.6563 104.1719,779.6563 Q103.7969,779.6563 103.5625,779.4063 Q103.3281,779.1406 103.3281,778.5313 L103.3281,777.6406 L99.3594,777.6406 L99.3594,780.0938 L100.8438,780.0938 Q100.8438,779.4375 100.9688,779.25 Q101.2344,778.8438 101.7031,778.8438 Q102.0781,778.8438 102.3125,779.1094 Q102.5469,779.3594 102.5469,779.9688 L102.5469,781.9375 Q102.5469,782.4844 102.4219,782.6719 Q102.1563,783.0625 101.7031,783.0625 Q101.2344,783.0625 100.9688,782.6563 Q100.8438,782.4688 100.8438,781.7969 L99.3594,781.7969 Z " fill="#000000"/><text fill="#000000" font-family="sans-serif" font-size="14" lengthAdjust="spacing" textLength="29" x="114.5" y="786.7969">User</text><line style="stroke:#181818;stroke-width:0.5;" x1="86.5" x2="145.5" y1="797" y2="797"/></g><!--class Staff--><g id="elem_Staff"><rect codeLine="9" fill="#F5F5DC" height="40" id="Staff" rx="2.5" ry="2.5" style="stroke:#181818;stroke-width:0.5;" width="61" x="345.5" y="545"/><ellipse cx="360.5" cy="561" fill="#ADD1B2" rx="11" ry="11" style="stroke:#181818;stroke-width:1.0;"/><path d="M359.3594,561.7969 L359.3594,564.2969 L363.6875,564.2969 L363.6875,563.375 Q363.6875,562.7656 363.9219,562.5 Q364.1719,562.2344 364.5469,562.2344 Q364.9219,562.2344 365.1563,562.5 Q365.3906,562.7656 365.3906,563.375 L365.3906,566 L357.3906,566 Q356.7656,566 356.5,565.7656 Q356.25,565.5313 356.25,565.1406 Q356.25,564.7656 356.5156,564.5313 Q356.7813,564.2969 357.3906,564.2969 L357.6563,564.2969 L357.6563,557.6406 L357.3906,557.6406 Q356.7656,557.6406 356.5,557.4063 Q356.25,557.1719 356.25,556.7813 Q356.25,556.4063 356.5,556.1719 Q356.7656,555.9375 357.3906,555.9375 L365.0156,555.9375 L365.0156,558.5313 Q365.0156,559.1406 364.7813,559.4063 Q364.5625,559.6563 364.1719,559.6563 Q363.7969,559.6563 363.5625,559.4063 Q363.3281,559.1406 363.3281,558.5313 L363.3281,557.6406 L359.3594,557.6406 L359.3594,560.0938 L360.8438,560.0938 Q360.8438,559.4375 360.9688,559.25 Q361.2344,558.8438 361.7031,558.8438 Q362.0781,558.8438 362.3125,559.1094 Q362.5469,559.3594 362.5469,559.9688 L362.5469,561.9375 Q362.5469,562.4844 362.4219,562.6719 Q362.1563,563.0625 361.7031,563.0625 Q361.2344,563.0625 360.9688,562.6563 Q360.8438,562.4688 360.8438,561.7969 L359.3594,561.7969 Z " fill="#000000"/><text fill="#000000" font-family="sans-serif" font-size="14" lengthAdjust="spacing" textLength="29" x="374.5" y="566.7969">Staff</text><line style="stroke:#181818;stroke-width:0.5;" x1="346.5" x2="405.5" y1="577" y2="577"/></g><!--class Patient--><g id="elem_Patient"><rect codeLine="10" fill="#F5F5DC" height="40" id="Patient" rx="2.5" ry="2.5" style="stroke:#181818;stroke-width:0.5;" width="76" x="128" y="307"/><ellipse cx="143" cy="323" fill="#ADD1B2" rx="11" ry="11" style="stroke:#181818;stroke-width:1.0;"/><path d="M141.8594,323.7969 L141.8594,326.2969 L146.1875,326.2969 L146.1875,325.375 Q146.1875,324.7656 146.4219,324.5 Q146.6719,324.2344 147.0469,324.2344 Q147.4219,324.2344 147.6563,324.5 Q147.8906,324.7656 147.8906,325.375 L147.8906,328 L139.8906,328 Q139.2656,328 139,327.7656 Q138.75,327.5313 138.75,327.1406 Q138.75,326.7656 139.0156,326.5313 Q139.2813,326.2969 139.8906,326.2969 L140.1563,326.2969 L140.1563,319.6406 L139.8906,319.6406 Q139.2656,319.6406 139,319.4063 Q138.75,319.1719 138.75,318.7813 Q138.75,318.4063 139,318.1719 Q139.2656,317.9375 139.8906,317.9375 L147.5156,317.9375 L147.5156,320.5313 Q147.5156,321.1406 147.2813,321.4063 Q147.0625,321.6563 146.6719,321.6563 Q146.2969,321.6563 146.0625,321.4063 Q145.8281,321.1406 145.8281,320.5313 L145.8281,319.6406 L141.8594,319.6406 L141.8594,322.0938 L143.3438,322.0938 Q143.3438,321.4375 143.4688,321.25 Q143.7344,320.8438 144.2031,320.8438 Q144.5781,320.8438 144.8125,321.1094 Q145.0469,321.3594 145.0469,321.9688 L145.0469,323.9375 Q145.0469,324.4844 144.9219,324.6719 Q144.6563,325.0625 144.2031,325.0625 Q143.7344,325.0625 143.4688,324.6563 Q143.3438,324.4688 143.3438,323.7969 L141.8594,323.7969 Z " fill="#000000"/><text fill="#000000" font-family="sans-serif" font-size="14" lengthAdjust="spacing" textLength="44" x="157" y="328.7969">Patient</text><line style="stroke:#181818;stroke-width:0.5;" x1="129" x2="203" y1="339" y2="339"/></g><!--class Doctor--><g id="elem_Doctor"><rect codeLine="11" fill="#F5F5DC" height="40" id="Doctor" rx="2.5" ry="2.5" style="stroke:#181818;stroke-width:0.5;" width="74" x="294" y="307"/><ellipse cx="309" cy="323" fill="#ADD1B2" rx="11" ry="11" style="stroke:#181818;stroke-width:1.0;"/><path d="M307.8594,323.7969 L307.8594,326.2969 L312.1875,326.2969 L312.1875,325.375 Q312.1875,324.7656 312.4219,324.5 Q312.6719,324.2344 313.0469,324.2344 Q313.4219,324.2344 313.6563,324.5 Q313.8906,324.7656 313.8906,325.375 L313.8906,328 L305.8906,328 Q305.2656,328 305,327.7656 Q304.75,327.5313 304.75,327.1406 Q304.75,326.7656 305.0156,326.5313 Q305.2813,326.2969 305.8906,326.2969 L306.1563,326.2969 L306.1563,319.6406 L305.8906,319.6406 Q305.2656,319.6406 305,319.4063 Q304.75,319.1719 304.75,318.7813 Q304.75,318.4063 305,318.1719 Q305.2656,317.9375 305.8906,317.9375 L313.5156,317.9375 L313.5156,320.5313 Q313.5156,321.1406 313.2813,321.4063 Q313.0625,321.6563 312.6719,321.6563 Q312.2969,321.6563 312.0625,321.4063 Q311.8281,321.1406 311.8281,320.5313 L311.8281,319.6406 L307.8594,319.6406 L307.8594,322.0938 L309.3438,322.0938 Q309.3438,321.4375 309.4688,321.25 Q309.7344,320.8438 310.2031,320.8438 Q310.5781,320.8438 310.8125,321.1094 Q311.0469,321.3594 311.0469,321.9688 L311.0469,323.9375 Q311.0469,324.4844 310.9219,324.6719 Q310.6563,325.0625 310.2031,325.0625 Q309.7344,325.0625 309.4688,324.6563 Q309.3438,324.4688 309.3438,323.7969 L307.8594,323.7969 Z " fill="#000000"/><text fill="#000000" font-family="sans-serif" font-size="14" lengthAdjust="spacing" textLength="42" x="323" y="328.7969">Doctor</text><line style="stroke:#181818;stroke-width:0.5;" x1="295" x2="367" y1="339" y2="339"/></g><!--class Appointment--><g id="elem_Appointment"><rect codeLine="12" fill="#F5F5DC" height="40" id="Appointment" rx="2.5" ry="2.5" style="stroke:#181818;stroke-width:0.5;" width="111" x="349.5" y="7"/><ellipse cx="364.5" cy="23" fill="#ADD1B2" rx="11" ry="11" style="stroke:#181818;stroke-width:1.0;"/><path d="M363.3594,23.7969 L363.3594,26.2969 L367.6875,26.2969 L367.6875,25.375 Q367.6875,24.7656 367.9219,24.5 Q368.1719,24.2344 368.5469,24.2344 Q368.9219,24.2344 369.1563,24.5 Q369.3906,24.7656 369.3906,25.375 L369.3906,28 L361.3906,28 Q360.7656,28 360.5,27.7656 Q360.25,27.5313 360.25,27.1406 Q360.25,26.7656 360.5156,26.5313 Q360.7813,26.2969 361.3906,26.2969 L361.6563,26.2969 L361.6563,19.6406 L361.3906,19.6406 Q360.7656,19.6406 360.5,19.4063 Q360.25,19.1719 360.25,18.7813 Q360.25,18.4063 360.5,18.1719 Q360.7656,17.9375 361.3906,17.9375 L369.0156,17.9375 L369.0156,20.5313 Q369.0156,21.1406 368.7813,21.4063 Q368.5625,21.6563 368.1719,21.6563 Q367.7969,21.6563 367.5625,21.4063 Q367.3281,21.1406 367.3281,20.5313 L367.3281,19.6406 L363.3594,19.6406 L363.3594,22.0938 L364.8438,22.0938 Q364.8438,21.4375 364.9688,21.25 Q365.2344,20.8438 365.7031,20.8438 Q366.0781,20.8438 366.3125,21.1094 Q366.5469,21.3594 366.5469,21.9688 L366.5469,23.9375 Q366.5469,24.4844 366.4219,24.6719 Q366.1563,25.0625 365.7031,25.0625 Q365.2344,25.0625 364.9688,24.6563 Q364.8438,24.4688 364.8438,23.7969 L363.3594,23.7969 Z " fill="#000000"/><text fill="#000000" font-family="sans-serif" font-size="14" lengthAdjust="spacing" textLength="79" x="378.5" y="28.7969">Appointment</text><line style="stroke:#181818;stroke-width:0.5;" x1="350.5" x2="459.5" y1="39" y2="39"/></g><!--class OperationRequest--><g id="elem_OperationRequest"><rect codeLine="13" fill="#F5F5DC" height="40" id="OperationRequest" rx="2.5" ry="2.5" style="stroke:#181818;stroke-width:0.5;" width="148" x="257" y="188"/><ellipse cx="272" cy="204" fill="#ADD1B2" rx="11" ry="11" style="stroke:#181818;stroke-width:1.0;"/><path d="M270.8594,204.7969 L270.8594,207.2969 L275.1875,207.2969 L275.1875,206.375 Q275.1875,205.7656 275.4219,205.5 Q275.6719,205.2344 276.0469,205.2344 Q276.4219,205.2344 276.6563,205.5 Q276.8906,205.7656 276.8906,206.375 L276.8906,209 L268.8906,209 Q268.2656,209 268,208.7656 Q267.75,208.5313 267.75,208.1406 Q267.75,207.7656 268.0156,207.5313 Q268.2813,207.2969 268.8906,207.2969 L269.1563,207.2969 L269.1563,200.6406 L268.8906,200.6406 Q268.2656,200.6406 268,200.4063 Q267.75,200.1719 267.75,199.7813 Q267.75,199.4063 268,199.1719 Q268.2656,198.9375 268.8906,198.9375 L276.5156,198.9375 L276.5156,201.5313 Q276.5156,202.1406 276.2813,202.4063 Q276.0625,202.6563 275.6719,202.6563 Q275.2969,202.6563 275.0625,202.4063 Q274.8281,202.1406 274.8281,201.5313 L274.8281,200.6406 L270.8594,200.6406 L270.8594,203.0938 L272.3438,203.0938 Q272.3438,202.4375 272.4688,202.25 Q272.7344,201.8438 273.2031,201.8438 Q273.5781,201.8438 273.8125,202.1094 Q274.0469,202.3594 274.0469,202.9688 L274.0469,204.9375 Q274.0469,205.4844 273.9219,205.6719 Q273.6563,206.0625 273.2031,206.0625 Q272.7344,206.0625 272.4688,205.6563 Q272.3438,205.4688 272.3438,204.7969 L270.8594,204.7969 Z " fill="#000000"/><text fill="#000000" font-family="sans-serif" font-size="14" lengthAdjust="spacing" textLength="116" x="286" y="209.7969">OperationRequest</text><line style="stroke:#181818;stroke-width:0.5;" x1="258" x2="404" y1="220" y2="220"/></g><!--class OperationType--><g id="elem_OperationType"><rect codeLine="14" fill="#F5F5DC" height="40" id="OperationType" rx="2.5" ry="2.5" style="stroke:#181818;stroke-width:0.5;" width="127" x="464.5" y="426"/><ellipse cx="479.5" cy="442" fill="#ADD1B2" rx="11" ry="11" style="stroke:#181818;stroke-width:1.0;"/><path d="M478.3594,442.7969 L478.3594,445.2969 L482.6875,445.2969 L482.6875,444.375 Q482.6875,443.7656 482.9219,443.5 Q483.1719,443.2344 483.5469,443.2344 Q483.9219,443.2344 484.1563,443.5 Q484.3906,443.7656 484.3906,444.375 L484.3906,447 L476.3906,447 Q475.7656,447 475.5,446.7656 Q475.25,446.5313 475.25,446.1406 Q475.25,445.7656 475.5156,445.5313 Q475.7813,445.2969 476.3906,445.2969 L476.6563,445.2969 L476.6563,438.6406 L476.3906,438.6406 Q475.7656,438.6406 475.5,438.4063 Q475.25,438.1719 475.25,437.7813 Q475.25,437.4063 475.5,437.1719 Q475.7656,436.9375 476.3906,436.9375 L484.0156,436.9375 L484.0156,439.5313 Q484.0156,440.1406 483.7813,440.4063 Q483.5625,440.6563 483.1719,440.6563 Q482.7969,440.6563 482.5625,440.4063 Q482.3281,440.1406 482.3281,439.5313 L482.3281,438.6406 L478.3594,438.6406 L478.3594,441.0938 L479.8438,441.0938 Q479.8438,440.4375 479.9688,440.25 Q480.2344,439.8438 480.7031,439.8438 Q481.0781,439.8438 481.3125,440.1094 Q481.5469,440.3594 481.5469,440.9688 L481.5469,442.9375 Q481.5469,443.4844 481.4219,443.6719 Q481.1563,444.0625 480.7031,444.0625 Q480.2344,444.0625 479.9688,443.6563 Q479.8438,443.4688 479.8438,442.7969 L478.3594,442.7969 Z " fill="#000000"/><text fill="#000000" font-family="sans-serif" font-size="14" lengthAdjust="spacing" textLength="95" x="493.5" y="447.7969">OperationType</text><line style="stroke:#181818;stroke-width:0.5;" x1="465.5" x2="590.5" y1="458" y2="458"/></g><!--class OperationTypeRecord--><g id="elem_OperationTypeRecord"><rect codeLine="15" fill="#F5F5DC" height="40" id="OperationTypeRecord" rx="2.5" ry="2.5" style="stroke:#181818;stroke-width:0.5;" width="173" x="441.5" y="545"/><ellipse cx="456.5" cy="561" fill="#ADD1B2" rx="11" ry="11" style="stroke:#181818;stroke-width:1.0;"/><path d="M455.3594,561.7969 L455.3594,564.2969 L459.6875,564.2969 L459.6875,563.375 Q459.6875,562.7656 459.9219,562.5 Q460.1719,562.2344 460.5469,562.2344 Q460.9219,562.2344 461.1563,562.5 Q461.3906,562.7656 461.3906,563.375 L461.3906,566 L453.3906,566 Q452.7656,566 452.5,565.7656 Q452.25,565.5313 452.25,565.1406 Q452.25,564.7656 452.5156,564.5313 Q452.7813,564.2969 453.3906,564.2969 L453.6563,564.2969 L453.6563,557.6406 L453.3906,557.6406 Q452.7656,557.6406 452.5,557.4063 Q452.25,557.1719 452.25,556.7813 Q452.25,556.4063 452.5,556.1719 Q452.7656,555.9375 453.3906,555.9375 L461.0156,555.9375 L461.0156,558.5313 Q461.0156,559.1406 460.7813,559.4063 Q460.5625,559.6563 460.1719,559.6563 Q459.7969,559.6563 459.5625,559.4063 Q459.3281,559.1406 459.3281,558.5313 L459.3281,557.6406 L455.3594,557.6406 L455.3594,560.0938 L456.8438,560.0938 Q456.8438,559.4375 456.9688,559.25 Q457.2344,558.8438 457.7031,558.8438 Q458.0781,558.8438 458.3125,559.1094 Q458.5469,559.3594 458.5469,559.9688 L458.5469,561.9375 Q458.5469,562.4844 458.4219,562.6719 Q458.1563,563.0625 457.7031,563.0625 Q457.2344,563.0625 456.9688,562.6563 Q456.8438,562.4688 456.8438,561.7969 L455.3594,561.7969 Z " fill="#000000"/><text fill="#000000" font-family="sans-serif" font-size="14" lengthAdjust="spacing" textLength="141" x="470.5" y="566.7969">OperationTypeRecord</text><line style="stroke:#181818;stroke-width:0.5;" x1="442.5" x2="613.5" y1="577" y2="577"/></g><!--class Room--><g id="elem_Room"><rect codeLine="16" fill="#F5F5DC" height="40" id="Room" rx="2.5" ry="2.5" style="stroke:#181818;stroke-width:0.5;" width="69" x="444.5" y="188"/><ellipse cx="459.5" cy="204" fill="#ADD1B2" rx="11" ry="11" style="stroke:#181818;stroke-width:1.0;"/><path d="M458.3594,204.7969 L458.3594,207.2969 L462.6875,207.2969 L462.6875,206.375 Q462.6875,205.7656 462.9219,205.5 Q463.1719,205.2344 463.5469,205.2344 Q463.9219,205.2344 464.1563,205.5 Q464.3906,205.7656 464.3906,206.375 L464.3906,209 L456.3906,209 Q455.7656,209 455.5,208.7656 Q455.25,208.5313 455.25,208.1406 Q455.25,207.7656 455.5156,207.5313 Q455.7813,207.2969 456.3906,207.2969 L456.6563,207.2969 L456.6563,200.6406 L456.3906,200.6406 Q455.7656,200.6406 455.5,200.4063 Q455.25,200.1719 455.25,199.7813 Q455.25,199.4063 455.5,199.1719 Q455.7656,198.9375 456.3906,198.9375 L464.0156,198.9375 L464.0156,201.5313 Q464.0156,202.1406 463.7813,202.4063 Q463.5625,202.6563 463.1719,202.6563 Q462.7969,202.6563 462.5625,202.4063 Q462.3281,202.1406 462.3281,201.5313 L462.3281,200.6406 L458.3594,200.6406 L458.3594,203.0938 L459.8438,203.0938 Q459.8438,202.4375 459.9688,202.25 Q460.2344,201.8438 460.7031,201.8438 Q461.0781,201.8438 461.3125,202.1094 Q461.5469,202.3594 461.5469,202.9688 L461.5469,204.9375 Q461.5469,205.4844 461.4219,205.6719 Q461.1563,206.0625 460.7031,206.0625 Q460.2344,206.0625 459.9688,205.6563 Q459.8438,205.4688 459.8438,204.7969 L458.3594,204.7969 Z " fill="#000000"/><text fill="#000000" font-family="sans-serif" font-size="14" lengthAdjust="spacing" textLength="37" x="473.5" y="209.7969">Room</text><line style="stroke:#181818;stroke-width:0.5;" x1="445.5" x2="512.5" y1="220" y2="220"/></g><!--class Specialization--><g id="elem_Specialization"><rect codeLine="17" fill="#F5F5DC" height="40" id="Specialization" rx="2.5" ry="2.5" style="stroke:#181818;stroke-width:0.5;" width="118" x="463" y="765"/><ellipse cx="478" cy="781" fill="#ADD1B2" rx="11" ry="11" style="stroke:#181818;stroke-width:1.0;"/><path d="M476.8594,781.7969 L476.8594,784.2969 L481.1875,784.2969 L481.1875,783.375 Q481.1875,782.7656 481.4219,782.5 Q481.6719,782.2344 482.0469,782.2344 Q482.4219,782.2344 482.6563,782.5 Q482.8906,782.7656 482.8906,783.375 L482.8906,786 L474.8906,786 Q474.2656,786 474,785.7656 Q473.75,785.5313 473.75,785.1406 Q473.75,784.7656 474.0156,784.5313 Q474.2813,784.2969 474.8906,784.2969 L475.1563,784.2969 L475.1563,777.6406 L474.8906,777.6406 Q474.2656,777.6406 474,777.4063 Q473.75,777.1719 473.75,776.7813 Q473.75,776.4063 474,776.1719 Q474.2656,775.9375 474.8906,775.9375 L482.5156,775.9375 L482.5156,778.5313 Q482.5156,779.1406 482.2813,779.4063 Q482.0625,779.6563 481.6719,779.6563 Q481.2969,779.6563 481.0625,779.4063 Q480.8281,779.1406 480.8281,778.5313 L480.8281,777.6406 L476.8594,777.6406 L476.8594,780.0938 L478.3438,780.0938 Q478.3438,779.4375 478.4688,779.25 Q478.7344,778.8438 479.2031,778.8438 Q479.5781,778.8438 479.8125,779.1094 Q480.0469,779.3594 480.0469,779.9688 L480.0469,781.9375 Q480.0469,782.4844 479.9219,782.6719 Q479.6563,783.0625 479.2031,783.0625 Q478.7344,783.0625 478.4688,782.6563 Q478.3438,782.4688 478.3438,781.7969 L476.8594,781.7969 Z " fill="#000000"/><text fill="#000000" font-family="sans-serif" font-size="14" lengthAdjust="spacing" textLength="86" x="492" y="786.7969">Specialization</text><line style="stroke:#181818;stroke-width:0.5;" x1="464" x2="580" y1="797" y2="797"/></g><!--class Allergy--><g id="elem_Allergy"><rect codeLine="18" fill="#F5F5DC" height="40" id="Allergy" rx="2.5" ry="2.5" style="stroke:#181818;stroke-width:0.5;" width="75" x="59.5" y="545"/><ellipse cx="74.5" cy="561" fill="#ADD1B2" rx="11" ry="11" style="stroke:#181818;stroke-width:1.0;"/><path d="M73.3594,561.7969 L73.3594,564.2969 L77.6875,564.2969 L77.6875,563.375 Q77.6875,562.7656 77.9219,562.5 Q78.1719,562.2344 78.5469,562.2344 Q78.9219,562.2344 79.1563,562.5 Q79.3906,562.7656 79.3906,563.375 L79.3906,566 L71.3906,566 Q70.7656,566 70.5,565.7656 Q70.25,565.5313 70.25,565.1406 Q70.25,564.7656 70.5156,564.5313 Q70.7813,564.2969 71.3906,564.2969 L71.6563,564.2969 L71.6563,557.6406 L71.3906,557.6406 Q70.7656,557.6406 70.5,557.4063 Q70.25,557.1719 70.25,556.7813 Q70.25,556.4063 70.5,556.1719 Q70.7656,555.9375 71.3906,555.9375 L79.0156,555.9375 L79.0156,558.5313 Q79.0156,559.1406 78.7813,559.4063 Q78.5625,559.6563 78.1719,559.6563 Q77.7969,559.6563 77.5625,559.4063 Q77.3281,559.1406 77.3281,558.5313 L77.3281,557.6406 L73.3594,557.6406 L73.3594,560.0938 L74.8438,560.0938 Q74.8438,559.4375 74.9688,559.25 Q75.2344,558.8438 75.7031,558.8438 Q76.0781,558.8438 76.3125,559.1094 Q76.5469,559.3594 76.5469,559.9688 L76.5469,561.9375 Q76.5469,562.4844 76.4219,562.6719 Q76.1563,563.0625 75.7031,563.0625 Q75.2344,563.0625 74.9688,562.6563 Q74.8438,562.4688 74.8438,561.7969 L73.3594,561.7969 Z " fill="#000000"/><text fill="#000000" font-family="sans-serif" font-size="14" lengthAdjust="spacing" textLength="43" x="88.5" y="566.7969">Allergy</text><line style="stroke:#181818;stroke-width:0.5;" x1="60.5" x2="133.5" y1="577" y2="577"/></g><!--class MedicalCondition--><g id="elem_MedicalCondition"><rect codeLine="19" fill="#F5F5DC" height="40" id="MedicalCondition" rx="2.5" ry="2.5" style="stroke:#181818;stroke-width:0.5;" width="140" x="170" y="545"/><ellipse cx="185" cy="561" fill="#ADD1B2" rx="11" ry="11" style="stroke:#181818;stroke-width:1.0;"/><path d="M183.8594,561.7969 L183.8594,564.2969 L188.1875,564.2969 L188.1875,563.375 Q188.1875,562.7656 188.4219,562.5 Q188.6719,562.2344 189.0469,562.2344 Q189.4219,562.2344 189.6563,562.5 Q189.8906,562.7656 189.8906,563.375 L189.8906,566 L181.8906,566 Q181.2656,566 181,565.7656 Q180.75,565.5313 180.75,565.1406 Q180.75,564.7656 181.0156,564.5313 Q181.2813,564.2969 181.8906,564.2969 L182.1563,564.2969 L182.1563,557.6406 L181.8906,557.6406 Q181.2656,557.6406 181,557.4063 Q180.75,557.1719 180.75,556.7813 Q180.75,556.4063 181,556.1719 Q181.2656,555.9375 181.8906,555.9375 L189.5156,555.9375 L189.5156,558.5313 Q189.5156,559.1406 189.2813,559.4063 Q189.0625,559.6563 188.6719,559.6563 Q188.2969,559.6563 188.0625,559.4063 Q187.8281,559.1406 187.8281,558.5313 L187.8281,557.6406 L183.8594,557.6406 L183.8594,560.0938 L185.3438,560.0938 Q185.3438,559.4375 185.4688,559.25 Q185.7344,558.8438 186.2031,558.8438 Q186.5781,558.8438 186.8125,559.1094 Q187.0469,559.3594 187.0469,559.9688 L187.0469,561.9375 Q187.0469,562.4844 186.9219,562.6719 Q186.6563,563.0625 186.2031,563.0625 Q185.7344,563.0625 185.4688,562.6563 Q185.3438,562.4688 185.3438,561.7969 L183.8594,561.7969 Z " fill="#000000"/><text fill="#000000" font-family="sans-serif" font-size="14" lengthAdjust="spacing" textLength="108" x="199" y="566.7969">MedicalCondition</text><line style="stroke:#181818;stroke-width:0.5;" x1="171" x2="309" y1="577" y2="577"/></g><!--class MedicalRecord--><g id="elem_MedicalRecord"><rect codeLine="20" fill="#F5F5DC" height="40" id="MedicalRecord" rx="2.5" ry="2.5" style="stroke:#181818;stroke-width:0.5;" width="126" x="140" y="426"/><ellipse cx="155" cy="442" fill="#ADD1B2" rx="11" ry="11" style="stroke:#181818;stroke-width:1.0;"/><path d="M153.8594,442.7969 L153.8594,445.2969 L158.1875,445.2969 L158.1875,444.375 Q158.1875,443.7656 158.4219,443.5 Q158.6719,443.2344 159.0469,443.2344 Q159.4219,443.2344 159.6563,443.5 Q159.8906,443.7656 159.8906,444.375 L159.8906,447 L151.8906,447 Q151.2656,447 151,446.7656 Q150.75,446.5313 150.75,446.1406 Q150.75,445.7656 151.0156,445.5313 Q151.2813,445.2969 151.8906,445.2969 L152.1563,445.2969 L152.1563,438.6406 L151.8906,438.6406 Q151.2656,438.6406 151,438.4063 Q150.75,438.1719 150.75,437.7813 Q150.75,437.4063 151,437.1719 Q151.2656,436.9375 151.8906,436.9375 L159.5156,436.9375 L159.5156,439.5313 Q159.5156,440.1406 159.2813,440.4063 Q159.0625,440.6563 158.6719,440.6563 Q158.2969,440.6563 158.0625,440.4063 Q157.8281,440.1406 157.8281,439.5313 L157.8281,438.6406 L153.8594,438.6406 L153.8594,441.0938 L155.3438,441.0938 Q155.3438,440.4375 155.4688,440.25 Q155.7344,439.8438 156.2031,439.8438 Q156.5781,439.8438 156.8125,440.1094 Q157.0469,440.3594 157.0469,440.9688 L157.0469,442.9375 Q157.0469,443.4844 156.9219,443.6719 Q156.6563,444.0625 156.2031,444.0625 Q155.7344,444.0625 155.4688,443.6563 Q155.3438,443.4688 155.3438,442.7969 L153.8594,442.7969 Z " fill="#000000"/><text fill="#000000" font-family="sans-serif" font-size="14" lengthAdjust="spacing" textLength="94" x="169" y="447.7969">MedicalRecord</text><line style="stroke:#181818;stroke-width:0.5;" x1="141" x2="265" y1="458" y2="458"/></g><!--class RequiredStaff--><g id="elem_RequiredStaff"><rect fill="#F5F5DC" height="40" id="RequiredStaff" rx="2.5" ry="2.5" style="stroke:#181818;stroke-width:0.5;" width="119" x="588.5" y="615"/><ellipse cx="603.5" cy="631" fill="#ADD1B2" rx="11" ry="11" style="stroke:#181818;stroke-width:1.0;"/><path d="M606.2656,626.875 Q606.4219,626.6563 606.6094,626.5469 Q606.7969,626.4375 607.0156,626.4375 Q607.3906,626.4375 607.625,626.7031 Q607.8594,626.9531 607.8594,627.5625 L607.8594,629.0156 Q607.8594,629.625 607.625,629.8906 Q607.3906,630.1563 607.0156,630.1563 Q606.6719,630.1563 606.4688,629.9531 Q606.2656,629.7656 606.1563,629.25 Q606.1094,628.8906 605.9219,628.7031 Q605.5938,628.3281 604.9844,628.1094 Q604.375,627.8906 603.75,627.8906 Q602.9844,627.8906 602.3438,628.2188 Q601.7188,628.5469 601.2188,629.2969 Q600.7344,630.0469 600.7344,631.0781 L600.7344,632.1719 Q600.7344,633.4063 601.625,634.2344 Q602.5156,635.0469 604.1094,635.0469 Q605.0469,635.0469 605.7031,634.7969 Q606.0938,634.6406 606.5156,634.2031 Q606.7813,633.9375 606.9219,633.8594 Q607.0781,633.7813 607.2813,633.7813 Q607.6094,633.7813 607.8594,634.0469 Q608.125,634.2969 608.125,634.6406 Q608.125,634.9844 607.7813,635.3906 Q607.2813,635.9688 606.4844,636.2969 Q605.4063,636.75 604.1094,636.75 Q602.5938,636.75 601.3906,636.125 Q600.4063,635.625 599.7188,634.5625 Q599.0313,633.4844 599.0313,632.2031 L599.0313,631.0469 Q599.0313,629.7188 599.6406,628.5781 Q600.2656,627.4219 601.3594,626.8125 Q602.4531,626.1875 603.6875,626.1875 Q604.4219,626.1875 605.0625,626.3594 Q605.7188,626.5156 606.2656,626.875 Z " fill="#000000"/><text fill="#000000" font-family="sans-serif" font-size="14" lengthAdjust="spacing" textLength="87" x="617.5" y="636.7969">RequiredStaff</text><line style="stroke:#181818;stroke-width:0.5;" x1="589.5" x2="706.5" y1="647" y2="647"/></g><!--link Staff to User--><g id="link_Staff_User"><path codeLine="23" d="M352.93,585.35 C303.59,626.72 192.9076,719.5149 143.6176,760.8449 " fill="none" id="Staff-to-User" style="stroke:#222222;stroke-width:1.0;"/><polygon fill="#222222" points="139.02,764.7,148.4865,761.9824,142.8513,761.4874,143.3463,755.8522,139.02,764.7" style="stroke:#222222;stroke-width:1.0;"/><text fill="#000000" font-family="sans-serif" font-size="13" lengthAdjust="spacing" textLength="7" x="338.7893" y="607.1709">1</text></g><!--link Patient to User--><g id="link_Patient_User"><path codeLine="24" d="M127.68,337.77 C80.34,352.4 6,384.95 6,445 C6,445 6,445 6,695.5 C6,736.43 47.2129,759.4585 79.7629,772.0285 " fill="none" id="Patient-to-User" style="stroke:#222222;stroke-width:1.0;"/><polygon fill="#222222" points="85.36,774.19,78.4053,767.2164,80.6957,772.3888,75.5233,774.6792,85.36,774.19" style="stroke:#222222;stroke-width:1.0;"/><text fill="#000000" font-family="sans-serif" font-size="13" lengthAdjust="spacing" textLength="22" x="98.1279" y="335.1682">0..1</text></g><!--link Doctor to Staff--><g id="link_Doctor_Staff"><path codeLine="25" d="M335.47,347.04 C337.54,356.1 339.99,367.09 342,377 C354.41,438.12 366.0272,505.0044 371.7772,538.9244 " fill="none" id="Doctor-to-Staff" style="stroke:#222222;stroke-width:1.0;"/><polygon fill="#222222" points="372.78,544.84,375.2195,535.2981,371.9443,539.9103,367.3321,536.6351,372.78,544.84" style="stroke:#222222;stroke-width:1.0;"/><text fill="#000000" font-family="sans-serif" font-size="13" lengthAdjust="spacing" textLength="21" x="360" y="451.5283">is a</text><text fill="#000000" font-family="sans-serif" font-size="13" lengthAdjust="spacing" textLength="7" x="363.89" y="533.8486">1</text></g><!--link Staff to Specialization--><g id="link_Staff_Specialization"><path codeLine="26" d="M388.96,585.35 C416.66,626.72 478.0512,718.3848 505.7312,759.7148 " fill="none" id="Staff-to-Specialization" style="stroke:#222222;stroke-width:1.0;"/><polygon fill="#222222" points="509.07,764.7,507.3853,754.9963,506.2877,760.5456,500.7384,759.448,509.07,764.7" style="stroke:#222222;stroke-width:1.0;"/><text fill="#000000" font-family="sans-serif" font-size="13" lengthAdjust="spacing" textLength="79" x="470" y="700.0283">specializes in</text><text fill="#000000" font-family="sans-serif" font-size="13" lengthAdjust="spacing" textLength="7" x="497.4491" y="753.6692">1</text></g><!--link OperationRequest to Doctor--><g id="link_OperationRequest_Doctor"><path codeLine="27" d="M331,228.06 C331,249.82 331,279.2 331,300.95 " fill="none" id="OperationRequest-to-Doctor" style="stroke:#222222;stroke-width:1.0;"/><polygon fill="#222222" points="331,306.95,335,297.95,331,301.95,327,297.95,331,306.95" style="stroke:#222222;stroke-width:1.0;"/><text fill="#000000" font-family="sans-serif" font-size="13" lengthAdjust="spacing" textLength="61" x="332" y="273.0283">request by</text><text fill="#000000" font-family="sans-serif" font-size="13" lengthAdjust="spacing" textLength="7" x="322.9719" y="295.6345">1</text></g><!--link OperationRequest to Patient--><g id="link_OperationRequest_Patient"><path codeLine="28" d="M304.12,228.06 C273.44,249.82 228.4342,281.7292 197.7642,303.4792 " fill="none" id="OperationRequest-to-Patient" style="stroke:#222222;stroke-width:1.0;"/><polygon fill="#222222" points="192.87,306.95,202.5252,305.0066,196.9485,304.0577,197.8975,298.481,192.87,306.95" style="stroke:#222222;stroke-width:1.0;"/><text fill="#000000" font-family="sans-serif" font-size="13" lengthAdjust="spacing" textLength="50" x="260" y="273.0283">made for</text><text fill="#000000" font-family="sans-serif" font-size="13" lengthAdjust="spacing" textLength="7" x="192.7349" y="295.6345">1</text></g><!--link Appointment to OperationRequest--><g id="link_Appointment_OperationRequest"><path codeLine="29" d="M391.69,47.29 C381.33,63.04 367.19,86.18 358,108 C346.73,134.76 340.0806,161.7055 335.8606,182.0155 " fill="none" id="Appointment-to-OperationRequest" style="stroke:#222222;stroke-width:1.0;"/><polygon fill="#222222" points="334.64,187.89,340.3873,179.8919,335.6572,182.9946,332.5546,178.2645,334.64,187.89" style="stroke:#222222;stroke-width:1.0;"/><text fill="#000000" font-family="sans-serif" font-size="13" lengthAdjust="spacing" textLength="76" x="359" y="123.0283">scheduling of</text><text fill="#000000" font-family="sans-serif" font-size="13" lengthAdjust="spacing" textLength="7" x="327.6794" y="176.9127">1</text></g><!--link OperationRequest to OperationType--><g id="link_OperationRequest_OperationType"><path codeLine="30" d="M364.06,228.13 C376.75,236.37 390.84,246.71 402,258 C454.85,311.44 496.502,384.6024 515.422,420.4924 " fill="none" id="OperationRequest-to-OperationType" style="stroke:#222222;stroke-width:1.0;"/><polygon fill="#222222" points="518.22,425.8,517.5614,415.9732,515.8883,421.377,510.4845,419.7039,518.22,425.8" style="stroke:#222222;stroke-width:1.0;"/><text fill="#000000" font-family="sans-serif" font-size="13" lengthAdjust="spacing" textLength="59" x="473" y="332.5283">defined by</text><text fill="#000000" font-family="sans-serif" font-size="13" lengthAdjust="spacing" textLength="7" x="507.485" y="414.7974">1</text></g><!--reverse link OperationType to OperationTypeRecord--><g id="link_OperationType_OperationTypeRecord"><path codeLine="31" d="M528,472.06 C528,493.82 528,523.2 528,544.95 " fill="none" id="OperationType-backto-OperationTypeRecord" style="stroke:#222222;stroke-width:1.0;"/><polygon fill="#222222" points="528,466.06,524,475.06,528,471.06,532,475.06,528,466.06" style="stroke:#222222;stroke-width:1.0;"/><text fill="#000000" font-family="sans-serif" font-size="13" lengthAdjust="spacing" textLength="47" x="529" y="511.0283">versions</text><text fill="#000000" font-family="sans-serif" font-size="13" lengthAdjust="spacing" textLength="7" x="520.0156" y="488.1617">1</text></g><!--link Appointment to Room--><g id="link_Appointment_Room"><path codeLine="32" d="M413.69,47.31 C420.9,63.46 431.33,87.14 440,108 C451.48,135.64 461.8991,162.3388 469.5791,182.3388 " fill="none" id="Appointment-to-Room" style="stroke:#222222;stroke-width:1.0;"/><polygon fill="#222222" points="471.73,187.94,472.2378,178.1042,469.9376,183.2723,464.7695,180.9721,471.73,187.94" style="stroke:#222222;stroke-width:1.0;"/><text fill="#000000" font-family="sans-serif" font-size="13" lengthAdjust="spacing" textLength="90" x="449" y="123.0283">associated with</text><text fill="#000000" font-family="sans-serif" font-size="13" lengthAdjust="spacing" textLength="7" x="461.5663" y="176.6216">1</text></g><!--link OperationType to RequiredStaff--><g id="link_OperationType_RequiredStaff"><path codeLine="33" d="M557.55,466.09 C581.87,483.52 614.99,511.62 632,545 C643.33,567.24 646.4498,590.198 647.4198,608.938 " fill="none" id="OperationType-to-RequiredStaff" style="stroke:#222222;stroke-width:1.0;"/><polygon fill="#222222" points="647.73,614.93,651.2594,605.7353,647.4715,609.9367,643.2701,606.1488,647.73,614.93" style="stroke:#222222;stroke-width:1.0;"/><text fill="#000000" font-family="sans-serif" font-size="13" lengthAdjust="spacing" textLength="20" x="624.7132" y="603.6086">1..*</text></g><!--link RequiredStaff to Specialization--><g id="link_RequiredStaff_Specialization"><path codeLine="34" d="M631.79,655.05 C607.72,683.31 566.6999,731.5018 542.4399,759.9918 " fill="none" id="RequiredStaff-to-Specialization" style="stroke:#222222;stroke-width:1.0;"/><polygon fill="#222222" points="538.55,764.56,547.4304,760.301,541.7916,760.7532,541.3394,755.1144,538.55,764.56" style="stroke:#222222;stroke-width:1.0;"/><text fill="#000000" font-family="sans-serif" font-size="13" lengthAdjust="spacing" textLength="7" x="535.0572" y="753.8498">1</text></g><!--link Patient to MedicalRecord--><g id="link_Patient_MedicalRecord"><path codeLine="35" d="M161.39,347.04 C158.91,361 157.37,380.19 163,396 C166.91,406.97 170.4206,412.7953 177.9006,421.0853 " fill="none" id="Patient-to-MedicalRecord" style="stroke:#222222;stroke-width:1.0;"/><polygon fill="#222222" points="181.92,425.54,178.8607,416.1784,178.5705,421.8278,172.9211,421.5376,181.92,425.54" style="stroke:#222222;stroke-width:1.0;"/><text fill="#000000" font-family="sans-serif" font-size="13" lengthAdjust="spacing" textLength="90" x="164" y="392.0283">associated with</text><text fill="#000000" font-family="sans-serif" font-size="13" lengthAdjust="spacing" textLength="7" x="168.3141" y="414.8244">1</text></g><!--link MedicalRecord to MedicalCondition--><g id="link_MedicalRecord_MedicalCondition"><path codeLine="36" d="M209.03,466.06 C215.91,487.82 225.2904,517.4794 232.1704,539.2294 " fill="none" id="MedicalRecord-to-MedicalCondition" style="stroke:#222222;stroke-width:1.0;"/><polygon fill="#222222" points="233.98,544.95,235.0794,535.1627,232.472,540.1828,227.4519,537.5754,233.98,544.95" style="stroke:#222222;stroke-width:1.0;"/><text fill="#000000" font-family="sans-serif" font-size="13" lengthAdjust="spacing" textLength="49" x="225" y="511.0283">contains</text><text fill="#000000" font-family="sans-serif" font-size="13" lengthAdjust="spacing" textLength="20" x="209.2741" y="533.6345">0..*</text></g><!--link MedicalRecord to Allergy--><g id="link_MedicalRecord_Allergy"><path codeLine="37" d="M185.73,466.06 C166.02,487.82 137.999,518.754 118.289,540.504 " fill="none" id="MedicalRecord-to-Allergy" style="stroke:#222222;stroke-width:1.0;"/><polygon fill="#222222" points="114.26,544.95,123.2675,540.967,117.6175,541.245,117.3395,535.595,114.26,544.95" style="stroke:#222222;stroke-width:1.0;"/><text fill="#000000" font-family="sans-serif" font-size="13" lengthAdjust="spacing" textLength="49" x="158" y="511.0283">contains</text><text fill="#000000" font-family="sans-serif" font-size="13" lengthAdjust="spacing" textLength="20" x="96.3926" y="533.6345">0..*</text></g><!--link Doctor to MedicalRecord--><g id="link_Doctor_MedicalRecord"><path codeLine="38" d="M311.02,347.26 C296.67,360.99 276.81,379.81 259,396 C248.01,405.99 240.1201,412.9657 229.7801,421.9457 " fill="none" id="Doctor-to-MedicalRecord" style="stroke:#222222;stroke-width:1.0;"/><polygon fill="#222222" points="225.25,425.88,234.668,422.9987,229.0251,422.6015,229.4223,416.9586,225.25,425.88" style="stroke:#222222;stroke-width:1.0;"/><text fill="#000000" font-family="sans-serif" font-size="13" lengthAdjust="spacing" textLength="53" x="280" y="392.0283">manages</text><text fill="#000000" font-family="sans-serif" font-size="13" lengthAdjust="spacing" textLength="20" x="208.6953" y="414.8999">0..*</text></g><!--SRC=[TLHDRy8m3BtdLrZiDgc8xLYXIOnTTfWsmVO3GkCMYpRfadG8flttcNv0IajFsEyz-s6xTJlIfRIoW2INpYsyjxIfFBucHg_fY30JMr88M9J-0BA3dN1zuRDCTfarbLPBaniB6wGC0zB2MhDleBl7-X52eFR4LRySMe3VlovUUvccGVmXFV7FaF9Y4i-bBeb5MHhIlZZnBjdt4YsBZLxXTuLk5Feyb0YtW1KcngeGNXbJX5vBJ4ZcTAmbeQ4yHviTWimRAafalZHQqHMvXTfkd1UY7ieygieeWid3f1bAFpkRJXbefoFQaKHHz7GHG0paG8eck61zrp6uBe4EI8l1t3fXsoG6smARmsrojxSO2iadb1ehmZMTtGmAi9zaYwhAIMTWqh4Erz9wYp4eJ4cZwjcgeHDvpaCRssuCFsWTvzoulthbCV2L6nwIv_9xyjkh1WrvEhrdFhiaYwfPMI-2yGs8RbGTt3-8OUy-NgjcTU_1aSN0RxANn7_kfgYxrO1xlgRhocTBXTGoum-14Fy0]--></g></svg>