<?xml version="1.0" encoding="us-ascii" standalone="no"?><svg xmlns="http://www.w3.org/2000/svg" xmlns:xlink="http://www.w3.org/1999/xlink" contentStyleType="text/css" height="490px" preserveAspectRatio="none" style="width:1042px;height:490px;background:#FFFFFF;" version="1.1" viewBox="0 0 1042 490" width="1042px" zoomAndPan="magnify"><defs/><g><!--cluster <<aggregate>> Patient--><g id="cluster_&lt;&lt;aggregate&gt;&gt; Patient"><path d="M8.5,6.0137 L150.5,6.0137 A3.75,3.75 0 0 1 153,8.5137 L160,30.6348 L1032.5,30.6348 A2.5,2.5 0 0 1 1035,33.1348 L1035,480.5137 A2.5,2.5 0 0 1 1032.5,483.0137 L8.5,483.0137 A2.5,2.5 0 0 1 6,480.5137 L6,8.5137 A2.5,2.5 0 0 1 8.5,6.0137 " fill="none" style="stroke:#000000;stroke-width:1.5;"/><line style="stroke:#000000;stroke-width:1.5;" x1="6" x2="160" y1="30.6348" y2="30.6348"/><text fill="#000000" font-family="sans-serif" font-size="14" font-weight="bold" lengthAdjust="spacing" textLength="141" x="10" y="23.1211">&#171;aggregate&#187; Patient</text></g><!--class Patient--><g id="elem_Patient"><rect codeLine="7" fill="#F5F5DC" height="68.543" id="Patient" rx="2.5" ry="2.5" style="stroke:#181818;stroke-width:0.5;" width="76" x="478" y="43.0137"/><ellipse cx="493" cy="73.2852" fill="#ADD1B2" rx="11" ry="11" style="stroke:#181818;stroke-width:1.0;"/><path d="M491.8594,74.082 L491.8594,76.582 L496.1875,76.582 L496.1875,75.6602 Q496.1875,75.0508 496.4219,74.7852 Q496.6719,74.5195 497.0469,74.5195 Q497.4219,74.5195 497.6563,74.7852 Q497.8906,75.0508 497.8906,75.6602 L497.8906,78.2852 L489.8906,78.2852 Q489.2656,78.2852 489,78.0508 Q488.75,77.8164 488.75,77.4258 Q488.75,77.0508 489.0156,76.8164 Q489.2813,76.582 489.8906,76.582 L490.1563,76.582 L490.1563,69.9258 L489.8906,69.9258 Q489.2656,69.9258 489,69.6914 Q488.75,69.457 488.75,69.0664 Q488.75,68.6914 489,68.457 Q489.2656,68.2227 489.8906,68.2227 L497.5156,68.2227 L497.5156,70.8164 Q497.5156,71.4258 497.2813,71.6914 Q497.0625,71.9414 496.6719,71.9414 Q496.2969,71.9414 496.0625,71.6914 Q495.8281,71.4258 495.8281,70.8164 L495.8281,69.9258 L491.8594,69.9258 L491.8594,72.3789 L493.3438,72.3789 Q493.3438,71.7227 493.4688,71.5352 Q493.7344,71.1289 494.2031,71.1289 Q494.5781,71.1289 494.8125,71.3945 Q495.0469,71.6445 495.0469,72.2539 L495.0469,74.2227 Q495.0469,74.7695 494.9219,74.957 Q494.6563,75.3477 494.2031,75.3477 Q493.7344,75.3477 493.4688,74.9414 Q493.3438,74.7539 493.3438,74.082 L491.8594,74.082 Z " fill="#000000"/><text fill="#000000" font-family="sans-serif" font-size="12" font-style="italic" lengthAdjust="spacing" textLength="43" x="507.5" y="60.9629">&#171;entity&#187;</text><text fill="#000000" font-family="sans-serif" font-size="12" font-style="italic" lengthAdjust="spacing" textLength="35" x="511.5" y="76.9238">&#171;root&#187;</text><text fill="#000000" font-family="sans-serif" font-size="14" lengthAdjust="spacing" textLength="44" x="507" y="95.043">Patient</text><line style="stroke:#181818;stroke-width:0.5;" x1="479" x2="553" y1="103.5566" y2="103.5566"/></g><!--class DateBirth--><g id="elem_DateBirth"><rect codeLine="8" fill="#F5F5DC" height="52.582" id="DateBirth" rx="2.5" ry="2.5" style="stroke:#181818;stroke-width:0.5;" width="109" x="59.5" y="180.0137"/><ellipse cx="74.5" cy="202.3047" fill="#FF8B40" rx="11" ry="11" style="stroke:#181818;stroke-width:1.0;"/><path d="M75.0938,205.5703 L77.5625,199.6953 L77.1719,199.6953 Q76.5625,199.6953 76.2969,199.4609 Q76.0313,199.2266 76.0313,198.8359 Q76.0313,198.4609 76.2969,198.2266 Q76.5625,197.9922 77.1719,197.9922 L79.4531,197.9922 Q80.0625,197.9922 80.3281,198.2266 Q80.5938,198.4609 80.5938,198.8359 Q80.5938,199.3047 80.1875,199.5703 Q80,199.6953 79.4063,199.6953 L75.9219,208.0547 L74.2813,208.0547 L70.7969,199.6953 Q70.2031,199.6953 70.0156,199.5703 Q69.6094,199.3047 69.6094,198.8359 Q69.6094,198.4609 69.875,198.2266 Q70.1406,197.9922 70.75,197.9922 L73.0469,197.9922 Q73.6563,197.9922 73.9063,198.2266 Q74.1719,198.4609 74.1719,198.8359 Q74.1719,199.2266 73.9063,199.4609 Q73.6563,199.6953 73.0469,199.6953 L72.6406,199.6953 L75.0938,205.5703 Z " fill="#000000"/><text fill="#000000" font-family="sans-serif" font-size="12" font-style="italic" lengthAdjust="spacing" textLength="81" x="86.5" y="197.9629">&#171;value object&#187;</text><text fill="#000000" font-family="sans-serif" font-size="14" lengthAdjust="spacing" textLength="59" x="97.5" y="216.082">DateBirth</text><line style="stroke:#181818;stroke-width:0.5;" x1="60.5" x2="167.5" y1="224.5957" y2="224.5957"/></g><!--class Name--><g id="elem_Name"><rect codeLine="9" fill="#F5F5DC" height="52.582" id="Name" rx="2.5" ry="2.5" style="stroke:#181818;stroke-width:0.5;" width="109" x="22.5" y="301.0137"/><ellipse cx="37.5" cy="323.3047" fill="#FF8B40" rx="11" ry="11" style="stroke:#181818;stroke-width:1.0;"/><path d="M38.0938,326.5703 L40.5625,320.6953 L40.1719,320.6953 Q39.5625,320.6953 39.2969,320.4609 Q39.0313,320.2266 39.0313,319.8359 Q39.0313,319.4609 39.2969,319.2266 Q39.5625,318.9922 40.1719,318.9922 L42.4531,318.9922 Q43.0625,318.9922 43.3281,319.2266 Q43.5938,319.4609 43.5938,319.8359 Q43.5938,320.3047 43.1875,320.5703 Q43,320.6953 42.4063,320.6953 L38.9219,329.0547 L37.2813,329.0547 L33.7969,320.6953 Q33.2031,320.6953 33.0156,320.5703 Q32.6094,320.3047 32.6094,319.8359 Q32.6094,319.4609 32.875,319.2266 Q33.1406,318.9922 33.75,318.9922 L36.0469,318.9922 Q36.6563,318.9922 36.9063,319.2266 Q37.1719,319.4609 37.1719,319.8359 Q37.1719,320.2266 36.9063,320.4609 Q36.6563,320.6953 36.0469,320.6953 L35.6406,320.6953 L38.0938,326.5703 Z " fill="#000000"/><text fill="#000000" font-family="sans-serif" font-size="12" font-style="italic" lengthAdjust="spacing" textLength="81" x="49.5" y="318.9629">&#171;value object&#187;</text><text fill="#000000" font-family="sans-serif" font-size="14" lengthAdjust="spacing" textLength="36" x="72" y="337.082">Name</text><line style="stroke:#181818;stroke-width:0.5;" x1="23.5" x2="130.5" y1="345.5957" y2="345.5957"/></g><!--class FirstName--><g id="elem_FirstName"><rect codeLine="10" fill="#F5F5DC" height="52.582" id="FirstName" rx="2.5" ry="2.5" style="stroke:#181818;stroke-width:0.5;" width="109" x="22.5" y="414.0137"/><ellipse cx="37.5" cy="436.3047" fill="#FF8B40" rx="11" ry="11" style="stroke:#181818;stroke-width:1.0;"/><path d="M38.0938,439.5703 L40.5625,433.6953 L40.1719,433.6953 Q39.5625,433.6953 39.2969,433.4609 Q39.0313,433.2266 39.0313,432.8359 Q39.0313,432.4609 39.2969,432.2266 Q39.5625,431.9922 40.1719,431.9922 L42.4531,431.9922 Q43.0625,431.9922 43.3281,432.2266 Q43.5938,432.4609 43.5938,432.8359 Q43.5938,433.3047 43.1875,433.5703 Q43,433.6953 42.4063,433.6953 L38.9219,442.0547 L37.2813,442.0547 L33.7969,433.6953 Q33.2031,433.6953 33.0156,433.5703 Q32.6094,433.3047 32.6094,432.8359 Q32.6094,432.4609 32.875,432.2266 Q33.1406,431.9922 33.75,431.9922 L36.0469,431.9922 Q36.6563,431.9922 36.9063,432.2266 Q37.1719,432.4609 37.1719,432.8359 Q37.1719,433.2266 36.9063,433.4609 Q36.6563,433.6953 36.0469,433.6953 L35.6406,433.6953 L38.0938,439.5703 Z " fill="#000000"/><text fill="#000000" font-family="sans-serif" font-size="12" font-style="italic" lengthAdjust="spacing" textLength="81" x="49.5" y="431.9629">&#171;value object&#187;</text><text fill="#000000" font-family="sans-serif" font-size="14" lengthAdjust="spacing" textLength="64" x="58" y="450.082">FirstName</text><line style="stroke:#181818;stroke-width:0.5;" x1="23.5" x2="130.5" y1="458.5957" y2="458.5957"/></g><!--class LastName--><g id="elem_LastName"><rect codeLine="11" fill="#F5F5DC" height="52.582" id="LastName" rx="2.5" ry="2.5" style="stroke:#181818;stroke-width:0.5;" width="109" x="166.5" y="301.0137"/><ellipse cx="181.5" cy="323.3047" fill="#FF8B40" rx="11" ry="11" style="stroke:#181818;stroke-width:1.0;"/><path d="M182.0938,326.5703 L184.5625,320.6953 L184.1719,320.6953 Q183.5625,320.6953 183.2969,320.4609 Q183.0313,320.2266 183.0313,319.8359 Q183.0313,319.4609 183.2969,319.2266 Q183.5625,318.9922 184.1719,318.9922 L186.4531,318.9922 Q187.0625,318.9922 187.3281,319.2266 Q187.5938,319.4609 187.5938,319.8359 Q187.5938,320.3047 187.1875,320.5703 Q187,320.6953 186.4063,320.6953 L182.9219,329.0547 L181.2813,329.0547 L177.7969,320.6953 Q177.2031,320.6953 177.0156,320.5703 Q176.6094,320.3047 176.6094,319.8359 Q176.6094,319.4609 176.875,319.2266 Q177.1406,318.9922 177.75,318.9922 L180.0469,318.9922 Q180.6563,318.9922 180.9063,319.2266 Q181.1719,319.4609 181.1719,319.8359 Q181.1719,320.2266 180.9063,320.4609 Q180.6563,320.6953 180.0469,320.6953 L179.6406,320.6953 L182.0938,326.5703 Z " fill="#000000"/><text fill="#000000" font-family="sans-serif" font-size="12" font-style="italic" lengthAdjust="spacing" textLength="81" x="193.5" y="318.9629">&#171;value object&#187;</text><text fill="#000000" font-family="sans-serif" font-size="14" lengthAdjust="spacing" textLength="63" x="202.5" y="337.082">LastName</text><line style="stroke:#181818;stroke-width:0.5;" x1="167.5" x2="274.5" y1="345.5957" y2="345.5957"/></g><!--class FullName--><g id="elem_FullName"><rect codeLine="12" fill="#F5F5DC" height="52.582" id="FullName" rx="2.5" ry="2.5" style="stroke:#181818;stroke-width:0.5;" width="109" x="166.5" y="414.0137"/><ellipse cx="181.5" cy="436.3047" fill="#FF8B40" rx="11" ry="11" style="stroke:#181818;stroke-width:1.0;"/><path d="M182.0938,439.5703 L184.5625,433.6953 L184.1719,433.6953 Q183.5625,433.6953 183.2969,433.4609 Q183.0313,433.2266 183.0313,432.8359 Q183.0313,432.4609 183.2969,432.2266 Q183.5625,431.9922 184.1719,431.9922 L186.4531,431.9922 Q187.0625,431.9922 187.3281,432.2266 Q187.5938,432.4609 187.5938,432.8359 Q187.5938,433.3047 187.1875,433.5703 Q187,433.6953 186.4063,433.6953 L182.9219,442.0547 L181.2813,442.0547 L177.7969,433.6953 Q177.2031,433.6953 177.0156,433.5703 Q176.6094,433.3047 176.6094,432.8359 Q176.6094,432.4609 176.875,432.2266 Q177.1406,431.9922 177.75,431.9922 L180.0469,431.9922 Q180.6563,431.9922 180.9063,432.2266 Q181.1719,432.4609 181.1719,432.8359 Q181.1719,433.2266 180.9063,433.4609 Q180.6563,433.6953 180.0469,433.6953 L179.6406,433.6953 L182.0938,439.5703 Z " fill="#000000"/><text fill="#000000" font-family="sans-serif" font-size="12" font-style="italic" lengthAdjust="spacing" textLength="81" x="193.5" y="431.9629">&#171;value object&#187;</text><text fill="#000000" font-family="sans-serif" font-size="14" lengthAdjust="spacing" textLength="59" x="204.5" y="450.082">FullName</text><line style="stroke:#181818;stroke-width:0.5;" x1="167.5" x2="274.5" y1="458.5957" y2="458.5957"/></g><!--class Gender--><g id="elem_Gender"><rect codeLine="13" fill="#F5F5DC" height="52.582" id="Gender" rx="2.5" ry="2.5" style="stroke:#181818;stroke-width:0.5;" width="109" x="203.5" y="180.0137"/><ellipse cx="218.5" cy="202.3047" fill="#FF8B40" rx="11" ry="11" style="stroke:#181818;stroke-width:1.0;"/><path d="M219.0938,205.5703 L221.5625,199.6953 L221.1719,199.6953 Q220.5625,199.6953 220.2969,199.4609 Q220.0313,199.2266 220.0313,198.8359 Q220.0313,198.4609 220.2969,198.2266 Q220.5625,197.9922 221.1719,197.9922 L223.4531,197.9922 Q224.0625,197.9922 224.3281,198.2266 Q224.5938,198.4609 224.5938,198.8359 Q224.5938,199.3047 224.1875,199.5703 Q224,199.6953 223.4063,199.6953 L219.9219,208.0547 L218.2813,208.0547 L214.7969,199.6953 Q214.2031,199.6953 214.0156,199.5703 Q213.6094,199.3047 213.6094,198.8359 Q213.6094,198.4609 213.875,198.2266 Q214.1406,197.9922 214.75,197.9922 L217.0469,197.9922 Q217.6563,197.9922 217.9063,198.2266 Q218.1719,198.4609 218.1719,198.8359 Q218.1719,199.2266 217.9063,199.4609 Q217.6563,199.6953 217.0469,199.6953 L216.6406,199.6953 L219.0938,205.5703 Z " fill="#000000"/><text fill="#000000" font-family="sans-serif" font-size="12" font-style="italic" lengthAdjust="spacing" textLength="81" x="230.5" y="197.9629">&#171;value object&#187;</text><text fill="#000000" font-family="sans-serif" font-size="14" lengthAdjust="spacing" textLength="48" x="247" y="216.082">Gender</text><line style="stroke:#181818;stroke-width:0.5;" x1="204.5" x2="311.5" y1="224.5957" y2="224.5957"/></g><!--class EmergencyContact--><g id="elem_EmergencyContact"><rect codeLine="14" fill="#F5F5DC" height="52.582" id="EmergencyContact" rx="2.5" ry="2.5" style="stroke:#181818;stroke-width:0.5;" width="152" x="311" y="301.0137"/><ellipse cx="326" cy="323.3047" fill="#FF8B40" rx="11" ry="11" style="stroke:#181818;stroke-width:1.0;"/><path d="M326.5938,326.5703 L329.0625,320.6953 L328.6719,320.6953 Q328.0625,320.6953 327.7969,320.4609 Q327.5313,320.2266 327.5313,319.8359 Q327.5313,319.4609 327.7969,319.2266 Q328.0625,318.9922 328.6719,318.9922 L330.9531,318.9922 Q331.5625,318.9922 331.8281,319.2266 Q332.0938,319.4609 332.0938,319.8359 Q332.0938,320.3047 331.6875,320.5703 Q331.5,320.6953 330.9063,320.6953 L327.4219,329.0547 L325.7813,329.0547 L322.2969,320.6953 Q321.7031,320.6953 321.5156,320.5703 Q321.1094,320.3047 321.1094,319.8359 Q321.1094,319.4609 321.375,319.2266 Q321.6406,318.9922 322.25,318.9922 L324.5469,318.9922 Q325.1563,318.9922 325.4063,319.2266 Q325.6719,319.4609 325.6719,319.8359 Q325.6719,320.2266 325.4063,320.4609 Q325.1563,320.6953 324.5469,320.6953 L324.1406,320.6953 L326.5938,326.5703 Z " fill="#000000"/><text fill="#000000" font-family="sans-serif" font-size="12" font-style="italic" lengthAdjust="spacing" textLength="81" x="359.5" y="318.9629">&#171;value object&#187;</text><text fill="#000000" font-family="sans-serif" font-size="14" lengthAdjust="spacing" textLength="120" x="340" y="337.082">EmergencyContact</text><line style="stroke:#181818;stroke-width:0.5;" x1="312" x2="462" y1="345.5957" y2="345.5957"/></g><!--class MRN--><g id="elem_MRN"><rect codeLine="15" fill="#F5F5DC" height="68.543" id="MRN" rx="2.5" ry="2.5" style="stroke:#181818;stroke-width:0.5;" width="109" x="385.5" y="172.0137"/><ellipse cx="400.5" cy="202.2852" fill="#FF8B40" rx="11" ry="11" style="stroke:#181818;stroke-width:1.0;"/><path d="M401.0938,205.5508 L403.5625,199.6758 L403.1719,199.6758 Q402.5625,199.6758 402.2969,199.4414 Q402.0313,199.207 402.0313,198.8164 Q402.0313,198.4414 402.2969,198.207 Q402.5625,197.9727 403.1719,197.9727 L405.4531,197.9727 Q406.0625,197.9727 406.3281,198.207 Q406.5938,198.4414 406.5938,198.8164 Q406.5938,199.2852 406.1875,199.5508 Q406,199.6758 405.4063,199.6758 L401.9219,208.0352 L400.2813,208.0352 L396.7969,199.6758 Q396.2031,199.6758 396.0156,199.5508 Q395.6094,199.2852 395.6094,198.8164 Q395.6094,198.4414 395.875,198.207 Q396.1406,197.9727 396.75,197.9727 L399.0469,197.9727 Q399.6563,197.9727 399.9063,198.207 Q400.1719,198.4414 400.1719,198.8164 Q400.1719,199.207 399.9063,199.4414 Q399.6563,199.6758 399.0469,199.6758 L398.6406,199.6758 L401.0938,205.5508 Z " fill="#000000"/><text fill="#000000" font-family="sans-serif" font-size="12" font-style="italic" lengthAdjust="spacing" textLength="81" x="412.5" y="189.9629">&#171;value object&#187;</text><text fill="#000000" font-family="sans-serif" font-size="12" font-style="italic" lengthAdjust="spacing" textLength="61" x="422.5" y="205.9238">&#171;identifier&#187;</text><text fill="#000000" font-family="sans-serif" font-size="14" lengthAdjust="spacing" textLength="30" x="438" y="224.043">MRN</text><line style="stroke:#181818;stroke-width:0.5;" x1="386.5" x2="493.5" y1="232.5566" y2="232.5566"/></g><!--class MedicalRecord--><g id="elem_MedicalRecord"><rect codeLine="16" fill="#F5F5DC" height="52.582" id="MedicalRecord" rx="2.5" ry="2.5" style="stroke:#181818;stroke-width:0.5;" width="126" x="530" y="180.0137"/><ellipse cx="545" cy="202.3047" fill="#FF8B40" rx="11" ry="11" style="stroke:#181818;stroke-width:1.0;"/><path d="M545.5938,205.5703 L548.0625,199.6953 L547.6719,199.6953 Q547.0625,199.6953 546.7969,199.4609 Q546.5313,199.2266 546.5313,198.8359 Q546.5313,198.4609 546.7969,198.2266 Q547.0625,197.9922 547.6719,197.9922 L549.9531,197.9922 Q550.5625,197.9922 550.8281,198.2266 Q551.0938,198.4609 551.0938,198.8359 Q551.0938,199.3047 550.6875,199.5703 Q550.5,199.6953 549.9063,199.6953 L546.4219,208.0547 L544.7813,208.0547 L541.2969,199.6953 Q540.7031,199.6953 540.5156,199.5703 Q540.1094,199.3047 540.1094,198.8359 Q540.1094,198.4609 540.375,198.2266 Q540.6406,197.9922 541.25,197.9922 L543.5469,197.9922 Q544.1563,197.9922 544.4063,198.2266 Q544.6719,198.4609 544.6719,198.8359 Q544.6719,199.2266 544.4063,199.4609 Q544.1563,199.6953 543.5469,199.6953 L543.1406,199.6953 L545.5938,205.5703 Z " fill="#000000"/><text fill="#000000" font-family="sans-serif" font-size="12" font-style="italic" lengthAdjust="spacing" textLength="81" x="565.5" y="197.9629">&#171;value object&#187;</text><text fill="#000000" font-family="sans-serif" font-size="14" lengthAdjust="spacing" textLength="94" x="559" y="216.082">MedicalRecord</text><line style="stroke:#181818;stroke-width:0.5;" x1="531" x2="655" y1="224.5957" y2="224.5957"/></g><!--class Allergy--><g id="elem_Allergy"><rect codeLine="17" fill="#F5F5DC" height="52.582" id="Allergy" rx="2.5" ry="2.5" style="stroke:#181818;stroke-width:0.5;" width="109" x="673.5" y="301.0137"/><ellipse cx="688.5" cy="323.3047" fill="#FF8B40" rx="11" ry="11" style="stroke:#181818;stroke-width:1.0;"/><path d="M689.0938,326.5703 L691.5625,320.6953 L691.1719,320.6953 Q690.5625,320.6953 690.2969,320.4609 Q690.0313,320.2266 690.0313,319.8359 Q690.0313,319.4609 690.2969,319.2266 Q690.5625,318.9922 691.1719,318.9922 L693.4531,318.9922 Q694.0625,318.9922 694.3281,319.2266 Q694.5938,319.4609 694.5938,319.8359 Q694.5938,320.3047 694.1875,320.5703 Q694,320.6953 693.4063,320.6953 L689.9219,329.0547 L688.2813,329.0547 L684.7969,320.6953 Q684.2031,320.6953 684.0156,320.5703 Q683.6094,320.3047 683.6094,319.8359 Q683.6094,319.4609 683.875,319.2266 Q684.1406,318.9922 684.75,318.9922 L687.0469,318.9922 Q687.6563,318.9922 687.9063,319.2266 Q688.1719,319.4609 688.1719,319.8359 Q688.1719,320.2266 687.9063,320.4609 Q687.6563,320.6953 687.0469,320.6953 L686.6406,320.6953 L689.0938,326.5703 Z " fill="#000000"/><text fill="#000000" font-family="sans-serif" font-size="12" font-style="italic" lengthAdjust="spacing" textLength="81" x="700.5" y="318.9629">&#171;value object&#187;</text><text fill="#000000" font-family="sans-serif" font-size="14" lengthAdjust="spacing" textLength="43" x="719.5" y="337.082">Allergy</text><line style="stroke:#181818;stroke-width:0.5;" x1="674.5" x2="781.5" y1="345.5957" y2="345.5957"/></g><!--class MedicalCondition--><g id="elem_MedicalCondition"><rect codeLine="18" fill="#F5F5DC" height="52.582" id="MedicalCondition" rx="2.5" ry="2.5" style="stroke:#181818;stroke-width:0.5;" width="140" x="498" y="301.0137"/><ellipse cx="513" cy="323.3047" fill="#FF8B40" rx="11" ry="11" style="stroke:#181818;stroke-width:1.0;"/><path d="M513.5938,326.5703 L516.0625,320.6953 L515.6719,320.6953 Q515.0625,320.6953 514.7969,320.4609 Q514.5313,320.2266 514.5313,319.8359 Q514.5313,319.4609 514.7969,319.2266 Q515.0625,318.9922 515.6719,318.9922 L517.9531,318.9922 Q518.5625,318.9922 518.8281,319.2266 Q519.0938,319.4609 519.0938,319.8359 Q519.0938,320.3047 518.6875,320.5703 Q518.5,320.6953 517.9063,320.6953 L514.4219,329.0547 L512.7813,329.0547 L509.2969,320.6953 Q508.7031,320.6953 508.5156,320.5703 Q508.1094,320.3047 508.1094,319.8359 Q508.1094,319.4609 508.375,319.2266 Q508.6406,318.9922 509.25,318.9922 L511.5469,318.9922 Q512.1563,318.9922 512.4063,319.2266 Q512.6719,319.4609 512.6719,319.8359 Q512.6719,320.2266 512.4063,320.4609 Q512.1563,320.6953 511.5469,320.6953 L511.1406,320.6953 L513.5938,326.5703 Z " fill="#000000"/><text fill="#000000" font-family="sans-serif" font-size="12" font-style="italic" lengthAdjust="spacing" textLength="81" x="540.5" y="318.9629">&#171;value object&#187;</text><text fill="#000000" font-family="sans-serif" font-size="14" lengthAdjust="spacing" textLength="108" x="527" y="337.082">MedicalCondition</text><line style="stroke:#181818;stroke-width:0.5;" x1="499" x2="637" y1="345.5957" y2="345.5957"/></g><!--class AppointmentHistory--><g id="elem_AppointmentHistory"><rect codeLine="19" fill="#F5F5DC" height="52.582" id="AppointmentHistory" rx="2.5" ry="2.5" style="stroke:#181818;stroke-width:0.5;" width="154" x="855" y="301.0137"/><ellipse cx="870" cy="323.3047" fill="#FF8B40" rx="11" ry="11" style="stroke:#181818;stroke-width:1.0;"/><path d="M870.5938,326.5703 L873.0625,320.6953 L872.6719,320.6953 Q872.0625,320.6953 871.7969,320.4609 Q871.5313,320.2266 871.5313,319.8359 Q871.5313,319.4609 871.7969,319.2266 Q872.0625,318.9922 872.6719,318.9922 L874.9531,318.9922 Q875.5625,318.9922 875.8281,319.2266 Q876.0938,319.4609 876.0938,319.8359 Q876.0938,320.3047 875.6875,320.5703 Q875.5,320.6953 874.9063,320.6953 L871.4219,329.0547 L869.7813,329.0547 L866.2969,320.6953 Q865.7031,320.6953 865.5156,320.5703 Q865.1094,320.3047 865.1094,319.8359 Q865.1094,319.4609 865.375,319.2266 Q865.6406,318.9922 866.25,318.9922 L868.5469,318.9922 Q869.1563,318.9922 869.4063,319.2266 Q869.6719,319.4609 869.6719,319.8359 Q869.6719,320.2266 869.4063,320.4609 Q869.1563,320.6953 868.5469,320.6953 L868.1406,320.6953 L870.5938,326.5703 Z " fill="#000000"/><text fill="#000000" font-family="sans-serif" font-size="12" font-style="italic" lengthAdjust="spacing" textLength="81" x="904.5" y="318.9629">&#171;value object&#187;</text><text fill="#000000" font-family="sans-serif" font-size="14" lengthAdjust="spacing" textLength="122" x="884" y="337.082">AppointmentHistory</text><line style="stroke:#181818;stroke-width:0.5;" x1="856" x2="1008" y1="345.5957" y2="345.5957"/></g><!--class AppointmentHistoryStatus--><g id="elem_AppointmentHistoryStatus"><rect codeLine="20" fill="#F5F5DC" height="52.582" id="AppointmentHistoryStatus" rx="2.5" ry="2.5" style="stroke:#181818;stroke-width:0.5;" width="194" x="459" y="414.0137"/><ellipse cx="474" cy="436.3047" fill="#FF8B40" rx="11" ry="11" style="stroke:#181818;stroke-width:1.0;"/><path d="M474.5938,439.5703 L477.0625,433.6953 L476.6719,433.6953 Q476.0625,433.6953 475.7969,433.4609 Q475.5313,433.2266 475.5313,432.8359 Q475.5313,432.4609 475.7969,432.2266 Q476.0625,431.9922 476.6719,431.9922 L478.9531,431.9922 Q479.5625,431.9922 479.8281,432.2266 Q480.0938,432.4609 480.0938,432.8359 Q480.0938,433.3047 479.6875,433.5703 Q479.5,433.6953 478.9063,433.6953 L475.4219,442.0547 L473.7813,442.0547 L470.2969,433.6953 Q469.7031,433.6953 469.5156,433.5703 Q469.1094,433.3047 469.1094,432.8359 Q469.1094,432.4609 469.375,432.2266 Q469.6406,431.9922 470.25,431.9922 L472.5469,431.9922 Q473.1563,431.9922 473.4063,432.2266 Q473.6719,432.4609 473.6719,432.8359 Q473.6719,433.2266 473.4063,433.4609 Q473.1563,433.6953 472.5469,433.6953 L472.1406,433.6953 L474.5938,439.5703 Z " fill="#000000"/><text fill="#000000" font-family="sans-serif" font-size="12" font-style="italic" lengthAdjust="spacing" textLength="81" x="528.5" y="431.9629">&#171;value object&#187;</text><text fill="#000000" font-family="sans-serif" font-size="14" lengthAdjust="spacing" textLength="162" x="488" y="450.082">AppointmentHistoryStatus</text><line style="stroke:#181818;stroke-width:0.5;" x1="460" x2="652" y1="458.5957" y2="458.5957"/></g><!--class AppointmentHistoryType--><g id="elem_AppointmentHistoryType"><rect codeLine="21" fill="#F5F5DC" height="52.582" id="AppointmentHistoryType" rx="2.5" ry="2.5" style="stroke:#181818;stroke-width:0.5;" width="186" x="688" y="414.0137"/><ellipse cx="703" cy="436.3047" fill="#FF8B40" rx="11" ry="11" style="stroke:#181818;stroke-width:1.0;"/><path d="M703.5938,439.5703 L706.0625,433.6953 L705.6719,433.6953 Q705.0625,433.6953 704.7969,433.4609 Q704.5313,433.2266 704.5313,432.8359 Q704.5313,432.4609 704.7969,432.2266 Q705.0625,431.9922 705.6719,431.9922 L707.9531,431.9922 Q708.5625,431.9922 708.8281,432.2266 Q709.0938,432.4609 709.0938,432.8359 Q709.0938,433.3047 708.6875,433.5703 Q708.5,433.6953 707.9063,433.6953 L704.4219,442.0547 L702.7813,442.0547 L699.2969,433.6953 Q698.7031,433.6953 698.5156,433.5703 Q698.1094,433.3047 698.1094,432.8359 Q698.1094,432.4609 698.375,432.2266 Q698.6406,431.9922 699.25,431.9922 L701.5469,431.9922 Q702.1563,431.9922 702.4063,432.2266 Q702.6719,432.4609 702.6719,432.8359 Q702.6719,433.2266 702.4063,433.4609 Q702.1563,433.6953 701.5469,433.6953 L701.1406,433.6953 L703.5938,439.5703 Z " fill="#000000"/><text fill="#000000" font-family="sans-serif" font-size="12" font-style="italic" lengthAdjust="spacing" textLength="81" x="753.5" y="431.9629">&#171;value object&#187;</text><text fill="#000000" font-family="sans-serif" font-size="14" lengthAdjust="spacing" textLength="154" x="717" y="450.082">AppointmentHistoryType</text><line style="stroke:#181818;stroke-width:0.5;" x1="689" x2="873" y1="458.5957" y2="458.5957"/></g><!--class CreatedAt--><g id="elem_CreatedAt"><rect codeLine="22" fill="#F5F5DC" height="52.582" id="CreatedAt" rx="2.5" ry="2.5" style="stroke:#181818;stroke-width:0.5;" width="109" x="909.5" y="414.0137"/><ellipse cx="924.5" cy="436.3047" fill="#FF8B40" rx="11" ry="11" style="stroke:#181818;stroke-width:1.0;"/><path d="M925.0938,439.5703 L927.5625,433.6953 L927.1719,433.6953 Q926.5625,433.6953 926.2969,433.4609 Q926.0313,433.2266 926.0313,432.8359 Q926.0313,432.4609 926.2969,432.2266 Q926.5625,431.9922 927.1719,431.9922 L929.4531,431.9922 Q930.0625,431.9922 930.3281,432.2266 Q930.5938,432.4609 930.5938,432.8359 Q930.5938,433.3047 930.1875,433.5703 Q930,433.6953 929.4063,433.6953 L925.9219,442.0547 L924.2813,442.0547 L920.7969,433.6953 Q920.2031,433.6953 920.0156,433.5703 Q919.6094,433.3047 919.6094,432.8359 Q919.6094,432.4609 919.875,432.2266 Q920.1406,431.9922 920.75,431.9922 L923.0469,431.9922 Q923.6563,431.9922 923.9063,432.2266 Q924.1719,432.4609 924.1719,432.8359 Q924.1719,433.2266 923.9063,433.4609 Q923.6563,433.6953 923.0469,433.6953 L922.6406,433.6953 L925.0938,439.5703 Z " fill="#000000"/><text fill="#000000" font-family="sans-serif" font-size="12" font-style="italic" lengthAdjust="spacing" textLength="81" x="936.5" y="431.9629">&#171;value object&#187;</text><text fill="#000000" font-family="sans-serif" font-size="14" lengthAdjust="spacing" textLength="64" x="945" y="450.082">CreatedAt</text><line style="stroke:#181818;stroke-width:0.5;" x1="910.5" x2="1017.5" y1="458.5957" y2="458.5957"/></g><!--class Phone--><g id="elem_Phone"><rect codeLine="23" fill="#F5F5DC" height="52.582" id="Phone" rx="2.5" ry="2.5" style="stroke:#181818;stroke-width:0.5;" width="109" x="314.5" y="414.0137"/><ellipse cx="329.5" cy="436.3047" fill="#FF8B40" rx="11" ry="11" style="stroke:#181818;stroke-width:1.0;"/><path d="M330.0938,439.5703 L332.5625,433.6953 L332.1719,433.6953 Q331.5625,433.6953 331.2969,433.4609 Q331.0313,433.2266 331.0313,432.8359 Q331.0313,432.4609 331.2969,432.2266 Q331.5625,431.9922 332.1719,431.9922 L334.4531,431.9922 Q335.0625,431.9922 335.3281,432.2266 Q335.5938,432.4609 335.5938,432.8359 Q335.5938,433.3047 335.1875,433.5703 Q335,433.6953 334.4063,433.6953 L330.9219,442.0547 L329.2813,442.0547 L325.7969,433.6953 Q325.2031,433.6953 325.0156,433.5703 Q324.6094,433.3047 324.6094,432.8359 Q324.6094,432.4609 324.875,432.2266 Q325.1406,431.9922 325.75,431.9922 L328.0469,431.9922 Q328.6563,431.9922 328.9063,432.2266 Q329.1719,432.4609 329.1719,432.8359 Q329.1719,433.2266 328.9063,433.4609 Q328.6563,433.6953 328.0469,433.6953 L327.6406,433.6953 L330.0938,439.5703 Z " fill="#000000"/><text fill="#000000" font-family="sans-serif" font-size="12" font-style="italic" lengthAdjust="spacing" textLength="81" x="341.5" y="431.9629">&#171;value object&#187;</text><text fill="#000000" font-family="sans-serif" font-size="14" lengthAdjust="spacing" textLength="41" x="361.5" y="450.082">Phone</text><line style="stroke:#181818;stroke-width:0.5;" x1="315.5" x2="422.5" y1="458.5957" y2="458.5957"/></g><!--class Email--><g id="elem_Email"><rect codeLine="24" fill="#F5F5DC" height="52.582" id="Email" rx="2.5" ry="2.5" style="stroke:#181818;stroke-width:0.5;" width="109" x="765.5" y="180.0137"/><ellipse cx="780.5" cy="202.3047" fill="#FF8B40" rx="11" ry="11" style="stroke:#181818;stroke-width:1.0;"/><path d="M781.0938,205.5703 L783.5625,199.6953 L783.1719,199.6953 Q782.5625,199.6953 782.2969,199.4609 Q782.0313,199.2266 782.0313,198.8359 Q782.0313,198.4609 782.2969,198.2266 Q782.5625,197.9922 783.1719,197.9922 L785.4531,197.9922 Q786.0625,197.9922 786.3281,198.2266 Q786.5938,198.4609 786.5938,198.8359 Q786.5938,199.3047 786.1875,199.5703 Q786,199.6953 785.4063,199.6953 L781.9219,208.0547 L780.2813,208.0547 L776.7969,199.6953 Q776.2031,199.6953 776.0156,199.5703 Q775.6094,199.3047 775.6094,198.8359 Q775.6094,198.4609 775.875,198.2266 Q776.1406,197.9922 776.75,197.9922 L779.0469,197.9922 Q779.6563,197.9922 779.9063,198.2266 Q780.1719,198.4609 780.1719,198.8359 Q780.1719,199.2266 779.9063,199.4609 Q779.6563,199.6953 779.0469,199.6953 L778.6406,199.6953 L781.0938,205.5703 Z " fill="#000000"/><text fill="#000000" font-family="sans-serif" font-size="12" font-style="italic" lengthAdjust="spacing" textLength="81" x="792.5" y="197.9629">&#171;value object&#187;</text><text fill="#000000" font-family="sans-serif" font-size="14" lengthAdjust="spacing" textLength="34" x="816" y="216.082">Email</text><line style="stroke:#181818;stroke-width:0.5;" x1="766.5" x2="873.5" y1="224.5957" y2="224.5957"/></g><!--class Address--><g id="elem_Address"><rect codeLine="25" fill="#F5F5DC" height="52.582" id="Address" rx="2.5" ry="2.5" style="stroke:#181818;stroke-width:0.5;" width="109" x="909.5" y="180.0137"/><ellipse cx="924.5" cy="202.3047" fill="#FF8B40" rx="11" ry="11" style="stroke:#181818;stroke-width:1.0;"/><path d="M925.0938,205.5703 L927.5625,199.6953 L927.1719,199.6953 Q926.5625,199.6953 926.2969,199.4609 Q926.0313,199.2266 926.0313,198.8359 Q926.0313,198.4609 926.2969,198.2266 Q926.5625,197.9922 927.1719,197.9922 L929.4531,197.9922 Q930.0625,197.9922 930.3281,198.2266 Q930.5938,198.4609 930.5938,198.8359 Q930.5938,199.3047 930.1875,199.5703 Q930,199.6953 929.4063,199.6953 L925.9219,208.0547 L924.2813,208.0547 L920.7969,199.6953 Q920.2031,199.6953 920.0156,199.5703 Q919.6094,199.3047 919.6094,198.8359 Q919.6094,198.4609 919.875,198.2266 Q920.1406,197.9922 920.75,197.9922 L923.0469,197.9922 Q923.6563,197.9922 923.9063,198.2266 Q924.1719,198.4609 924.1719,198.8359 Q924.1719,199.2266 923.9063,199.4609 Q923.6563,199.6953 923.0469,199.6953 L922.6406,199.6953 L925.0938,205.5703 Z " fill="#000000"/><text fill="#000000" font-family="sans-serif" font-size="12" font-style="italic" lengthAdjust="spacing" textLength="81" x="936.5" y="197.9629">&#171;value object&#187;</text><text fill="#000000" font-family="sans-serif" font-size="14" lengthAdjust="spacing" textLength="52" x="951" y="216.082">Address</text><line style="stroke:#181818;stroke-width:0.5;" x1="910.5" x2="1017.5" y1="224.5957" y2="224.5957"/></g><!--class Status--><g id="elem_Status"><rect codeLine="26" fill="#F5F5DC" height="52.582" id="Status" rx="2.5" ry="2.5" style="stroke:#181818;stroke-width:0.5;" width="109" x="589.5" y="51.0137"/><ellipse cx="604.5" cy="73.3047" fill="#FF8B40" rx="11" ry="11" style="stroke:#181818;stroke-width:1.0;"/><path d="M605.0938,76.5703 L607.5625,70.6953 L607.1719,70.6953 Q606.5625,70.6953 606.2969,70.4609 Q606.0313,70.2266 606.0313,69.8359 Q606.0313,69.4609 606.2969,69.2266 Q606.5625,68.9922 607.1719,68.9922 L609.4531,68.9922 Q610.0625,68.9922 610.3281,69.2266 Q610.5938,69.4609 610.5938,69.8359 Q610.5938,70.3047 610.1875,70.5703 Q610,70.6953 609.4063,70.6953 L605.9219,79.0547 L604.2813,79.0547 L600.7969,70.6953 Q600.2031,70.6953 600.0156,70.5703 Q599.6094,70.3047 599.6094,69.8359 Q599.6094,69.4609 599.875,69.2266 Q600.1406,68.9922 600.75,68.9922 L603.0469,68.9922 Q603.6563,68.9922 603.9063,69.2266 Q604.1719,69.4609 604.1719,69.8359 Q604.1719,70.2266 603.9063,70.4609 Q603.6563,70.6953 603.0469,70.6953 L602.6406,70.6953 L605.0938,76.5703 Z " fill="#000000"/><text fill="#000000" font-family="sans-serif" font-size="12" font-style="italic" lengthAdjust="spacing" textLength="81" x="616.5" y="68.9629">&#171;value object&#187;</text><text fill="#000000" font-family="sans-serif" font-size="14" lengthAdjust="spacing" textLength="40" x="637" y="87.082">Status</text><line style="stroke:#181818;stroke-width:0.5;" x1="590.5" x2="697.5" y1="95.5957" y2="95.5957"/></g><!--link Name to FirstName--><g id="link_Name_FirstName"><path codeLine="31" d="M77,354.2537 C77,372.1937 77,390.0037 77,407.9037 " fill="none" id="Name-to-FirstName" style="stroke:#222222;stroke-width:1.0;"/><polygon fill="#222222" points="77,413.9037,81,404.9037,77,408.9037,73,404.9037,77,413.9037" style="stroke:#222222;stroke-width:1.0;"/></g><!--link Name to LastName--><g id="link_Name_LastName"><path codeLine="32" d="M131.56,327.5137 C143.21,327.5137 148.85,327.5137 160.5,327.5137 " fill="none" id="Name-to-LastName" style="stroke:#222222;stroke-width:1.0;"/><polygon fill="#222222" points="166.5,327.5137,157.5,323.5137,161.5,327.5137,157.5,331.5137,166.5,327.5137" style="stroke:#222222;stroke-width:1.0;"/></g><!--link Name to FullName--><g id="link_Name_FullName"><path codeLine="33" d="M110.4,354.2537 C133.66,372.1937 159.8081,392.3405 183.0281,410.2405 " fill="none" id="Name-to-FullName" style="stroke:#222222;stroke-width:1.0;"/><polygon fill="#222222" points="187.78,413.9037,183.0942,405.2409,183.8201,410.851,178.21,411.5768,187.78,413.9037" style="stroke:#222222;stroke-width:1.0;"/></g><!--link Patient to Status--><g id="link_Patient_Status"><path codeLine="35" d="M554,77.5137 C565.72,77.5137 571.44,77.5137 583.16,77.5137 " fill="none" id="Patient-to-Status" style="stroke:#222222;stroke-width:1.0;"/><polygon fill="#222222" points="589.16,77.5137,580.16,73.5137,584.16,77.5137,580.16,81.5137,589.16,77.5137" style="stroke:#222222;stroke-width:1.0;"/><text fill="#000000" font-family="sans-serif" font-size="13" lengthAdjust="spacing" textLength="7" x="574.3206" y="73.4474">1</text></g><!--link Patient to Name--><g id="link_Patient_Name"><path codeLine="36" d="M477.73,80.0537 C375.02,85.0637 97.33,104.7037 42,172.0137 C11.52,209.0837 35.7211,262.2902 56.2111,295.6702 " fill="none" id="Patient-to-Name" style="stroke:#222222;stroke-width:1.0;"/><polygon fill="#222222" points="59.35,300.7837,58.0507,291.0209,56.7343,296.5224,51.2327,295.206,59.35,300.7837" style="stroke:#222222;stroke-width:1.0;"/><text fill="#000000" font-family="sans-serif" font-size="13" lengthAdjust="spacing" textLength="7" x="47.4591" y="289.747">1</text></g><!--link Patient to DateBirth--><g id="link_Patient_DateBirth"><path codeLine="37" d="M477.76,87.2437 C415.61,101.9037 289.26,133.6437 186,172.0137 C179.54,174.4137 178.3514,174.7589 171.7814,177.6189 " fill="none" id="Patient-to-DateBirth" style="stroke:#222222;stroke-width:1.0;"/><polygon fill="#222222" points="166.28,180.0137,176.1286,180.089,170.8645,178.018,172.9355,172.7539,166.28,180.0137" style="stroke:#222222;stroke-width:1.0;"/><text fill="#000000" font-family="sans-serif" font-size="13" lengthAdjust="spacing" textLength="7" x="171.1701" y="168.5971">1</text></g><!--link Patient to Gender--><g id="link_Patient_Gender"><path codeLine="38" d="M477.93,97.2537 C433.5,119.1237 365.1631,152.7638 315.4531,177.2338 " fill="none" id="Patient-to-Gender" style="stroke:#222222;stroke-width:1.0;"/><polygon fill="#222222" points="310.07,179.8837,319.9113,179.4976,314.5559,177.6754,316.3781,172.3201,310.07,179.8837" style="stroke:#222222;stroke-width:1.0;"/><text fill="#000000" font-family="sans-serif" font-size="13" lengthAdjust="spacing" textLength="7" x="314.3018" y="168.8702">1</text></g><!--link Patient to EmergencyContact--><g id="link_Patient_EmergencyContact"><path codeLine="39" d="M477.73,90.6437 C442.12,104.1937 391.18,129.9537 368,172.0137 C345.5,212.8437 359.6836,263.2382 372.8036,295.3982 " fill="none" id="Patient-to-EmergencyContact" style="stroke:#222222;stroke-width:1.0;"/><polygon fill="#222222" points="375.07,300.9537,375.374,291.1095,373.1813,296.3241,367.9667,294.1314,375.07,300.9537" style="stroke:#222222;stroke-width:1.0;"/><text fill="#000000" font-family="sans-serif" font-size="13" lengthAdjust="spacing" textLength="7" x="364.5018" y="289.9563">1</text></g><!--link Patient to MRN--><g id="link_Patient_MRN"><path codeLine="40" d="M495.83,112.2137 C484.84,130.5837 474.352,148.1158 463.342,166.5058 " fill="none" id="Patient-to-MRN" style="stroke:#222222;stroke-width:1.0;"/><polygon fill="#222222" points="460.26,171.6537,468.315,165.9865,462.8284,167.3637,461.4511,161.8771,460.26,171.6537" style="stroke:#222222;stroke-width:1.0;"/><text fill="#000000" font-family="sans-serif" font-size="13" lengthAdjust="spacing" textLength="7" x="456.3501" y="160.7565">1</text></g><!--link Patient to MedicalRecord--><g id="link_Patient_MedicalRecord"><path codeLine="41" d="M536.43,112.2137 C549.26,133.3737 562.449,155.1232 574.249,174.5832 " fill="none" id="Patient-to-MedicalRecord" style="stroke:#222222;stroke-width:1.0;"/><polygon fill="#222222" points="577.36,179.7137,576.1139,169.944,574.7675,175.4383,569.2732,174.0919,577.36,179.7137" style="stroke:#222222;stroke-width:1.0;"/><text fill="#000000" font-family="sans-serif" font-size="13" lengthAdjust="spacing" textLength="7" x="565.9339" y="168.6608">1</text></g><!--link MedicalRecord to MedicalCondition--><g id="link_MedicalRecord_MedicalCondition"><path codeLine="42" d="M587.64,233.0437 C583.45,252.9837 578.8841,274.712 574.6741,294.742 " fill="none" id="MedicalRecord-to-MedicalCondition" style="stroke:#222222;stroke-width:1.0;"/><polygon fill="#222222" points="573.44,300.6137,579.2057,292.6289,574.4685,295.7206,571.3767,290.9834,573.44,300.6137" style="stroke:#222222;stroke-width:1.0;"/><text fill="#000000" font-family="sans-serif" font-size="13" lengthAdjust="spacing" textLength="20" x="552.3855" y="289.5377">0..*</text></g><!--link MedicalRecord to Allergy--><g id="link_MedicalRecord_Allergy"><path codeLine="43" d="M621.96,233.0437 C644.58,252.9837 671.3884,276.6168 694.1184,296.6468 " fill="none" id="MedicalRecord-to-Allergy" style="stroke:#222222;stroke-width:1.0;"/><polygon fill="#222222" points="698.62,300.6137,694.5122,291.6624,694.8687,297.308,689.2231,297.6644,698.62,300.6137" style="stroke:#222222;stroke-width:1.0;"/><text fill="#000000" font-family="sans-serif" font-size="13" lengthAdjust="spacing" textLength="20" x="669.5134" y="289.5377">0..*</text></g><!--link MedicalRecord to AppointmentHistory--><g id="link_MedicalRecord_AppointmentHistory"><path codeLine="44" d="M656.37,229.7537 C713.95,249.9737 793.2288,277.7959 853.5788,298.9859 " fill="none" id="MedicalRecord-to-AppointmentHistory" style="stroke:#222222;stroke-width:1.0;"/><polygon fill="#222222" points="859.24,300.9737,852.0734,294.2179,854.5224,299.3172,849.4231,301.7662,859.24,300.9737" style="stroke:#222222;stroke-width:1.0;"/><text fill="#000000" font-family="sans-serif" font-size="13" lengthAdjust="spacing" textLength="7" x="842.3579" y="289.5474">1</text></g><!--link Patient to AppointmentHistory--><g id="link_Patient_AppointmentHistory"><path codeLine="45" d="M554.26,102.1137 C560.14,105.5337 566.19,108.9337 572,112.0137 C627.87,141.6137 652.8,131.0837 701,172.0137 C729.28,196.0337 719.71,217.0037 748,241.0137 C779.01,267.3437 813.9266,285.1016 849.0166,299.0916 " fill="none" id="Patient-to-AppointmentHistory" style="stroke:#222222;stroke-width:1.0;"/><polygon fill="#222222" points="854.59,301.3137,847.7113,294.265,849.9455,299.462,844.7486,301.6962,854.59,301.3137" style="stroke:#222222;stroke-width:1.0;"/><text fill="#000000" font-family="sans-serif" font-size="13" lengthAdjust="spacing" textLength="20" x="827.0782" y="295.3904">0..*</text></g><!--link Patient to Email--><g id="link_Patient_Email"><path codeLine="46" d="M554.02,102.5837 C559.94,105.9337 566.06,109.1937 572,112.0137 C642.88,145.6437 664.78,143.8437 738,172.0137 C746.9,175.4337 750.7372,176.9154 759.8672,180.6054 " fill="none" id="Patient-to-Email" style="stroke:#222222;stroke-width:1.0;"/><polygon fill="#222222" points="765.43,182.8537,758.5846,175.7727,760.7943,180.9801,755.5869,183.1898,765.43,182.8537" style="stroke:#222222;stroke-width:1.0;"/><text fill="#000000" font-family="sans-serif" font-size="13" lengthAdjust="spacing" textLength="7" x="750.6268" y="175.6081">1</text></g><!--link Patient to Phone--><g id="link_Patient_Phone"><path codeLine="47" d="M554.23,101.4337 C560.18,104.9837 566.25,108.6037 572,112.0137 C617.23,138.8437 640.91,131.1337 674,172.0137 C694.34,197.1437 676.61,215.9337 697,241.0137 C730.42,282.1237 773.6,255.0837 800,301.0137 C811.74,321.4337 815.22,336.0337 800,354.0137 C747.89,415.5837 520.14,393.9737 442,414.0137 C436.02,415.5437 435.553,415.5518 429.423,417.4818 " fill="none" id="Patient-to-Phone" style="stroke:#222222;stroke-width:1.0;"/><polygon fill="#222222" points="423.7,419.2837,433.4858,420.3962,428.4692,417.7821,431.0833,412.7655,423.7,419.2837" style="stroke:#222222;stroke-width:1.0;"/><text fill="#000000" font-family="sans-serif" font-size="13" lengthAdjust="spacing" textLength="7" x="431.5206" y="412.3647">1</text></g><!--link Patient to Address--><g id="link_Patient_Address"><path codeLine="48" d="M554.27,103.7937 C560.05,106.8937 566.07,109.7637 572,112.0137 C707.31,163.2937 754.22,127.8137 892,172.0137 C898.96,174.2437 900.5893,174.6675 907.5793,177.6075 " fill="none" id="Patient-to-Address" style="stroke:#222222;stroke-width:1.0;"/><polygon fill="#222222" points="913.11,179.9337,906.3648,172.7572,908.5011,177.9952,903.2631,180.1315,913.11,179.9337" style="stroke:#222222;stroke-width:1.0;"/><text fill="#000000" font-family="sans-serif" font-size="13" lengthAdjust="spacing" textLength="7" x="894.2122" y="169.3658">1</text></g><!--link EmergencyContact to Phone--><g id="link_EmergencyContact_Phone"><path codeLine="49" d="M382.83,354.2537 C379.92,372.1937 377.0228,390.0814 374.1128,407.9814 " fill="none" id="EmergencyContact-to-Phone" style="stroke:#222222;stroke-width:1.0;"/><polygon fill="#222222" points="373.15,413.9037,378.5423,405.6621,373.9523,408.9685,370.646,404.3784,373.15,413.9037" style="stroke:#222222;stroke-width:1.0;"/><text fill="#000000" font-family="sans-serif" font-size="13" lengthAdjust="spacing" textLength="7" x="366.3003" y="402.8948">1</text></g><!--link AppointmentHistory to AppointmentHistoryStatus--><g id="link_AppointmentHistory_AppointmentHistoryStatus"><path codeLine="51" d="M854.55,351.3737 C792.85,369.5937 712.2645,393.385 648.3045,412.265 " fill="none" id="AppointmentHistory-to-AppointmentHistoryStatus" style="stroke:#222222;stroke-width:1.0;"/><polygon fill="#222222" points="642.55,413.9637,652.3142,415.2521,647.3454,412.5481,650.0494,407.5793,642.55,413.9637" style="stroke:#222222;stroke-width:1.0;"/><text fill="#000000" font-family="sans-serif" font-size="13" lengthAdjust="spacing" textLength="7" x="655.7934" y="402.535">1</text></g><!--link AppointmentHistory to AppointmentHistoryType--><g id="link_AppointmentHistory_AppointmentHistoryType"><path codeLine="52" d="M896.98,354.2537 C872.58,372.1937 845.0143,392.4499 820.6643,410.3499 " fill="none" id="AppointmentHistory-to-AppointmentHistoryType" style="stroke:#222222;stroke-width:1.0;"/><polygon fill="#222222" points="815.83,413.9037,825.4507,411.7959,819.8586,410.9422,820.7123,405.3501,815.83,413.9037" style="stroke:#222222;stroke-width:1.0;"/><text fill="#000000" font-family="sans-serif" font-size="13" lengthAdjust="spacing" textLength="7" x="816.0751" y="402.8948">1</text></g><!--link AppointmentHistory to CreatedAt--><g id="link_AppointmentHistory_CreatedAt"><path codeLine="53" d="M939.42,354.2537 C944.59,372.1937 949.7981,390.2384 954.9581,408.1384 " fill="none" id="AppointmentHistory-to-CreatedAt" style="stroke:#222222;stroke-width:1.0;"/><polygon fill="#222222" points="956.62,413.9037,957.9706,404.1479,955.2351,409.0993,950.2836,406.3638,956.62,413.9037" style="stroke:#222222;stroke-width:1.0;"/><text fill="#000000" font-family="sans-serif" font-size="13" lengthAdjust="spacing" textLength="7" x="947.104" y="402.8948">1</text></g><!--SRC=[fLHDJzmm5BpxLrZX0gYBjgW73j5AkriMAXM4eEhT6p-oBeuTFJj5AUA_yqZCVjHynC8dQppZzspFsDqfKmiK5I-qS6xgFQfbu-57OSsD-WTyp5PA0eUgzYqNBykEkLtXJ1Ht9Th6oBdL5laIL0bRf2cYlU-NzewxmLXD6b42p_9Sb2L2AJnC9lnAU0N6P_o1SHeqLLGwe3pFUu28UOxMUfeyF7RChX7-dNQPAVGhMj___MLliJYPVHiV_1Mw0MwNVw2899UYWk7iXKBdqoG_HQfYqMYTfZW38m67yqyhm19CqSwjyQBmmvKNrvVlalES74EFTAi08or8LGXz3OL5ERpaL6lgjateiQz3PvFAAsiIIjMrLSPNT89pvRp5zZFQ6ozyupwpmw-sJd31787yBwS9ptcriWPIV2EKJZYGb0WkuGQ6tTWZez45P3IQR28PeCawSLkSa2Z6NhuI0hElMIYuGKS1xyWRj0VNlqkqqkSltkR_d4L2YbECRSU4xOQcuuoFZWwpoELlCqE0NYDGkTXrkns5FJvWTOSbSqHevx083SvWqKUqAsEl1FBjliDZ9ccU4_QUOfqfzWG0]--></g></svg>