<?xml version="1.0" encoding="us-ascii" standalone="no"?><svg xmlns="http://www.w3.org/2000/svg" xmlns:xlink="http://www.w3.org/1999/xlink" contentStyleType="text/css" height="561px" preserveAspectRatio="none" style="width:1456px;height:561px;background:#FFFFFF;" version="1.1" viewBox="0 0 1456 561" width="1456px" zoomAndPan="magnify"><defs/><g><text fill="#000000" font-family="sans-serif" font-size="14" font-weight="bold" lengthAdjust="spacing" textLength="168" x="637" y="25.1074">US 5.1.9 - Domain Model</text><!--cluster <<aggregate>> Patient--><g id="cluster_&lt;&lt;aggregate&gt;&gt; Patient"><path d="M8.5,45.6348 L150.5,45.6348 A3.75,3.75 0 0 1 153,48.1348 L160,70.2559 L1446.5,70.2559 A2.5,2.5 0 0 1 1449,72.7559 L1449,552.1348 A2.5,2.5 0 0 1 1446.5,554.6348 L8.5,554.6348 A2.5,2.5 0 0 1 6,552.1348 L6,48.1348 A2.5,2.5 0 0 1 8.5,45.6348 " fill="none" style="stroke:#000000;stroke-width:1.5;"/><line style="stroke:#000000;stroke-width:1.5;" x1="6" x2="160" y1="70.2559" y2="70.2559"/><text fill="#000000" font-family="sans-serif" font-size="14" font-weight="bold" lengthAdjust="spacing" textLength="141" x="10" y="62.7422">&#171;aggregate&#187; Patient</text></g><!--class Patient--><g id="elem_Patient"><rect codeLine="6" fill="#F1F1F1" height="76.543" id="Patient" rx="2.5" ry="2.5" style="stroke:#181818;stroke-width:0.5;" width="76" x="623" y="82.6348"/><ellipse cx="638" cy="112.9063" fill="#ADD1B2" rx="11" ry="11" style="stroke:#181818;stroke-width:1.0;"/><path d="M636.8594,113.7031 L636.8594,116.2031 L641.1875,116.2031 L641.1875,115.2813 Q641.1875,114.6719 641.4219,114.4063 Q641.6719,114.1406 642.0469,114.1406 Q642.4219,114.1406 642.6563,114.4063 Q642.8906,114.6719 642.8906,115.2813 L642.8906,117.9063 L634.8906,117.9063 Q634.2656,117.9063 634,117.6719 Q633.75,117.4375 633.75,117.0469 Q633.75,116.6719 634.0156,116.4375 Q634.2813,116.2031 634.8906,116.2031 L635.1563,116.2031 L635.1563,109.5469 L634.8906,109.5469 Q634.2656,109.5469 634,109.3125 Q633.75,109.0781 633.75,108.6875 Q633.75,108.3125 634,108.0781 Q634.2656,107.8438 634.8906,107.8438 L642.5156,107.8438 L642.5156,110.4375 Q642.5156,111.0469 642.2813,111.3125 Q642.0625,111.5625 641.6719,111.5625 Q641.2969,111.5625 641.0625,111.3125 Q640.8281,111.0469 640.8281,110.4375 L640.8281,109.5469 L636.8594,109.5469 L636.8594,112 L638.3438,112 Q638.3438,111.3438 638.4688,111.1563 Q638.7344,110.75 639.2031,110.75 Q639.5781,110.75 639.8125,111.0156 Q640.0469,111.2656 640.0469,111.875 L640.0469,113.8438 Q640.0469,114.3906 639.9219,114.5781 Q639.6563,114.9688 639.2031,114.9688 Q638.7344,114.9688 638.4688,114.5625 Q638.3438,114.375 638.3438,113.7031 L636.8594,113.7031 Z " fill="#000000"/><text fill="#000000" font-family="sans-serif" font-size="12" font-style="italic" lengthAdjust="spacing" textLength="43" x="652.5" y="100.584">&#171;entity&#187;</text><text fill="#000000" font-family="sans-serif" font-size="12" font-style="italic" lengthAdjust="spacing" textLength="35" x="656.5" y="116.5449">&#171;root&#187;</text><text fill="#000000" font-family="sans-serif" font-size="14" lengthAdjust="spacing" textLength="44" x="652" y="134.6641">Patient</text><line style="stroke:#181818;stroke-width:0.5;" x1="624" x2="698" y1="143.1777" y2="143.1777"/><line style="stroke:#181818;stroke-width:0.5;" x1="624" x2="698" y1="151.1777" y2="151.1777"/></g><!--class DateBirth--><g id="elem_DateBirth"><rect codeLine="7" fill="#F1F1F1" height="60.582" id="DateBirth" rx="2.5" ry="2.5" style="stroke:#181818;stroke-width:0.5;" width="109" x="390.5" y="227.6348"/><ellipse cx="405.5" cy="249.9258" fill="#FF8B40" rx="11" ry="11" style="stroke:#181818;stroke-width:1.0;"/><path d="M406.0938,253.1914 L408.5625,247.3164 L408.1719,247.3164 Q407.5625,247.3164 407.2969,247.082 Q407.0313,246.8477 407.0313,246.457 Q407.0313,246.082 407.2969,245.8477 Q407.5625,245.6133 408.1719,245.6133 L410.4531,245.6133 Q411.0625,245.6133 411.3281,245.8477 Q411.5938,246.082 411.5938,246.457 Q411.5938,246.9258 411.1875,247.1914 Q411,247.3164 410.4063,247.3164 L406.9219,255.6758 L405.2813,255.6758 L401.7969,247.3164 Q401.2031,247.3164 401.0156,247.1914 Q400.6094,246.9258 400.6094,246.457 Q400.6094,246.082 400.875,245.8477 Q401.1406,245.6133 401.75,245.6133 L404.0469,245.6133 Q404.6563,245.6133 404.9063,245.8477 Q405.1719,246.082 405.1719,246.457 Q405.1719,246.8477 404.9063,247.082 Q404.6563,247.3164 404.0469,247.3164 L403.6406,247.3164 L406.0938,253.1914 Z " fill="#000000"/><text fill="#000000" font-family="sans-serif" font-size="12" font-style="italic" lengthAdjust="spacing" textLength="81" x="417.5" y="245.584">&#171;value object&#187;</text><text fill="#000000" font-family="sans-serif" font-size="14" lengthAdjust="spacing" textLength="59" x="428.5" y="263.7031">DateBirth</text><line style="stroke:#181818;stroke-width:0.5;" x1="391.5" x2="498.5" y1="272.2168" y2="272.2168"/><line style="stroke:#181818;stroke-width:0.5;" x1="391.5" x2="498.5" y1="280.2168" y2="280.2168"/></g><!--class Gender--><g id="elem_Gender"><rect codeLine="8" fill="#F1F1F1" height="60.582" id="Gender" rx="2.5" ry="2.5" style="stroke:#181818;stroke-width:0.5;" width="109" x="534.5" y="227.6348"/><ellipse cx="549.5" cy="249.9258" fill="#FF8B40" rx="11" ry="11" style="stroke:#181818;stroke-width:1.0;"/><path d="M550.0938,253.1914 L552.5625,247.3164 L552.1719,247.3164 Q551.5625,247.3164 551.2969,247.082 Q551.0313,246.8477 551.0313,246.457 Q551.0313,246.082 551.2969,245.8477 Q551.5625,245.6133 552.1719,245.6133 L554.4531,245.6133 Q555.0625,245.6133 555.3281,245.8477 Q555.5938,246.082 555.5938,246.457 Q555.5938,246.9258 555.1875,247.1914 Q555,247.3164 554.4063,247.3164 L550.9219,255.6758 L549.2813,255.6758 L545.7969,247.3164 Q545.2031,247.3164 545.0156,247.1914 Q544.6094,246.9258 544.6094,246.457 Q544.6094,246.082 544.875,245.8477 Q545.1406,245.6133 545.75,245.6133 L548.0469,245.6133 Q548.6563,245.6133 548.9063,245.8477 Q549.1719,246.082 549.1719,246.457 Q549.1719,246.8477 548.9063,247.082 Q548.6563,247.3164 548.0469,247.3164 L547.6406,247.3164 L550.0938,253.1914 Z " fill="#000000"/><text fill="#000000" font-family="sans-serif" font-size="12" font-style="italic" lengthAdjust="spacing" textLength="81" x="561.5" y="245.584">&#171;value object&#187;</text><text fill="#000000" font-family="sans-serif" font-size="14" lengthAdjust="spacing" textLength="48" x="578" y="263.7031">Gender</text><line style="stroke:#181818;stroke-width:0.5;" x1="535.5" x2="642.5" y1="272.2168" y2="272.2168"/><line style="stroke:#181818;stroke-width:0.5;" x1="535.5" x2="642.5" y1="280.2168" y2="280.2168"/></g><!--class EmergencyContact--><g id="elem_EmergencyContact"><rect codeLine="9" fill="#F1F1F1" height="60.582" id="EmergencyContact" rx="2.5" ry="2.5" style="stroke:#181818;stroke-width:0.5;" width="152" x="59" y="227.6348"/><ellipse cx="74" cy="249.9258" fill="#FF8B40" rx="11" ry="11" style="stroke:#181818;stroke-width:1.0;"/><path d="M74.5938,253.1914 L77.0625,247.3164 L76.6719,247.3164 Q76.0625,247.3164 75.7969,247.082 Q75.5313,246.8477 75.5313,246.457 Q75.5313,246.082 75.7969,245.8477 Q76.0625,245.6133 76.6719,245.6133 L78.9531,245.6133 Q79.5625,245.6133 79.8281,245.8477 Q80.0938,246.082 80.0938,246.457 Q80.0938,246.9258 79.6875,247.1914 Q79.5,247.3164 78.9063,247.3164 L75.4219,255.6758 L73.7813,255.6758 L70.2969,247.3164 Q69.7031,247.3164 69.5156,247.1914 Q69.1094,246.9258 69.1094,246.457 Q69.1094,246.082 69.375,245.8477 Q69.6406,245.6133 70.25,245.6133 L72.5469,245.6133 Q73.1563,245.6133 73.4063,245.8477 Q73.6719,246.082 73.6719,246.457 Q73.6719,246.8477 73.4063,247.082 Q73.1563,247.3164 72.5469,247.3164 L72.1406,247.3164 L74.5938,253.1914 Z " fill="#000000"/><text fill="#000000" font-family="sans-serif" font-size="12" font-style="italic" lengthAdjust="spacing" textLength="81" x="107.5" y="245.584">&#171;value object&#187;</text><text fill="#000000" font-family="sans-serif" font-size="14" lengthAdjust="spacing" textLength="120" x="88" y="263.7031">EmergencyContact</text><line style="stroke:#181818;stroke-width:0.5;" x1="60" x2="210" y1="272.2168" y2="272.2168"/><line style="stroke:#181818;stroke-width:0.5;" x1="60" x2="210" y1="280.2168" y2="280.2168"/></g><!--class MRN--><g id="elem_MRN"><rect codeLine="10" fill="#F1F1F1" height="76.543" id="MRN" rx="2.5" ry="2.5" style="stroke:#181818;stroke-width:0.5;" width="109" x="678.5" y="219.6348"/><ellipse cx="693.5" cy="249.9063" fill="#FF8B40" rx="11" ry="11" style="stroke:#181818;stroke-width:1.0;"/><path d="M694.0938,253.1719 L696.5625,247.2969 L696.1719,247.2969 Q695.5625,247.2969 695.2969,247.0625 Q695.0313,246.8281 695.0313,246.4375 Q695.0313,246.0625 695.2969,245.8281 Q695.5625,245.5938 696.1719,245.5938 L698.4531,245.5938 Q699.0625,245.5938 699.3281,245.8281 Q699.5938,246.0625 699.5938,246.4375 Q699.5938,246.9063 699.1875,247.1719 Q699,247.2969 698.4063,247.2969 L694.9219,255.6563 L693.2813,255.6563 L689.7969,247.2969 Q689.2031,247.2969 689.0156,247.1719 Q688.6094,246.9063 688.6094,246.4375 Q688.6094,246.0625 688.875,245.8281 Q689.1406,245.5938 689.75,245.5938 L692.0469,245.5938 Q692.6563,245.5938 692.9063,245.8281 Q693.1719,246.0625 693.1719,246.4375 Q693.1719,246.8281 692.9063,247.0625 Q692.6563,247.2969 692.0469,247.2969 L691.6406,247.2969 L694.0938,253.1719 Z " fill="#000000"/><text fill="#000000" font-family="sans-serif" font-size="12" font-style="italic" lengthAdjust="spacing" textLength="81" x="705.5" y="237.584">&#171;value object&#187;</text><text fill="#000000" font-family="sans-serif" font-size="12" font-style="italic" lengthAdjust="spacing" textLength="61" x="715.5" y="253.5449">&#171;identifier&#187;</text><text fill="#000000" font-family="sans-serif" font-size="14" lengthAdjust="spacing" textLength="30" x="731" y="271.6641">MRN</text><line style="stroke:#181818;stroke-width:0.5;" x1="679.5" x2="786.5" y1="280.1777" y2="280.1777"/><line style="stroke:#181818;stroke-width:0.5;" x1="679.5" x2="786.5" y1="288.1777" y2="288.1777"/></g><!--class MedicalCondition--><g id="elem_MedicalCondition"><rect codeLine="11" fill="#F1F1F1" height="60.582" id="MedicalCondition" rx="2.5" ry="2.5" style="stroke:#181818;stroke-width:0.5;" width="140" x="823" y="227.6348"/><ellipse cx="838" cy="249.9258" fill="#FF8B40" rx="11" ry="11" style="stroke:#181818;stroke-width:1.0;"/><path d="M838.5938,253.1914 L841.0625,247.3164 L840.6719,247.3164 Q840.0625,247.3164 839.7969,247.082 Q839.5313,246.8477 839.5313,246.457 Q839.5313,246.082 839.7969,245.8477 Q840.0625,245.6133 840.6719,245.6133 L842.9531,245.6133 Q843.5625,245.6133 843.8281,245.8477 Q844.0938,246.082 844.0938,246.457 Q844.0938,246.9258 843.6875,247.1914 Q843.5,247.3164 842.9063,247.3164 L839.4219,255.6758 L837.7813,255.6758 L834.2969,247.3164 Q833.7031,247.3164 833.5156,247.1914 Q833.1094,246.9258 833.1094,246.457 Q833.1094,246.082 833.375,245.8477 Q833.6406,245.6133 834.25,245.6133 L836.5469,245.6133 Q837.1563,245.6133 837.4063,245.8477 Q837.6719,246.082 837.6719,246.457 Q837.6719,246.8477 837.4063,247.082 Q837.1563,247.3164 836.5469,247.3164 L836.1406,247.3164 L838.5938,253.1914 Z " fill="#000000"/><text fill="#000000" font-family="sans-serif" font-size="12" font-style="italic" lengthAdjust="spacing" textLength="81" x="865.5" y="245.584">&#171;value object&#187;</text><text fill="#000000" font-family="sans-serif" font-size="14" lengthAdjust="spacing" textLength="108" x="852" y="263.7031">MedicalCondition</text><line style="stroke:#181818;stroke-width:0.5;" x1="824" x2="962" y1="272.2168" y2="272.2168"/><line style="stroke:#181818;stroke-width:0.5;" x1="824" x2="962" y1="280.2168" y2="280.2168"/></g><!--class AppoitmentHistory--><g id="elem_AppoitmentHistory"><rect codeLine="12" fill="#F1F1F1" height="60.582" id="AppoitmentHistory" rx="2.5" ry="2.5" style="stroke:#181818;stroke-width:0.5;" width="146" x="998" y="227.6348"/><ellipse cx="1013" cy="249.9258" fill="#FF8B40" rx="11" ry="11" style="stroke:#181818;stroke-width:1.0;"/><path d="M1013.5938,253.1914 L1016.0625,247.3164 L1015.6719,247.3164 Q1015.0625,247.3164 1014.7969,247.082 Q1014.5313,246.8477 1014.5313,246.457 Q1014.5313,246.082 1014.7969,245.8477 Q1015.0625,245.6133 1015.6719,245.6133 L1017.9531,245.6133 Q1018.5625,245.6133 1018.8281,245.8477 Q1019.0938,246.082 1019.0938,246.457 Q1019.0938,246.9258 1018.6875,247.1914 Q1018.5,247.3164 1017.9063,247.3164 L1014.4219,255.6758 L1012.7813,255.6758 L1009.2969,247.3164 Q1008.7031,247.3164 1008.5156,247.1914 Q1008.1094,246.9258 1008.1094,246.457 Q1008.1094,246.082 1008.375,245.8477 Q1008.6406,245.6133 1009.25,245.6133 L1011.5469,245.6133 Q1012.1563,245.6133 1012.4063,245.8477 Q1012.6719,246.082 1012.6719,246.457 Q1012.6719,246.8477 1012.4063,247.082 Q1012.1563,247.3164 1011.5469,247.3164 L1011.1406,247.3164 L1013.5938,253.1914 Z " fill="#000000"/><text fill="#000000" font-family="sans-serif" font-size="12" font-style="italic" lengthAdjust="spacing" textLength="81" x="1043.5" y="245.584">&#171;value object&#187;</text><text fill="#000000" font-family="sans-serif" font-size="14" lengthAdjust="spacing" textLength="114" x="1027" y="263.7031">AppoitmentHistory</text><line style="stroke:#181818;stroke-width:0.5;" x1="999" x2="1143" y1="272.2168" y2="272.2168"/><line style="stroke:#181818;stroke-width:0.5;" x1="999" x2="1143" y1="280.2168" y2="280.2168"/></g><!--class Name--><g id="elem_Name"><rect codeLine="13" fill="#F1F1F1" height="60.582" id="Name" rx="2.5" ry="2.5" style="stroke:#181818;stroke-width:0.5;" width="109" x="22.5" y="356.6348"/><ellipse cx="37.5" cy="378.9258" fill="#FF8B40" rx="11" ry="11" style="stroke:#181818;stroke-width:1.0;"/><path d="M38.0938,382.1914 L40.5625,376.3164 L40.1719,376.3164 Q39.5625,376.3164 39.2969,376.082 Q39.0313,375.8477 39.0313,375.457 Q39.0313,375.082 39.2969,374.8477 Q39.5625,374.6133 40.1719,374.6133 L42.4531,374.6133 Q43.0625,374.6133 43.3281,374.8477 Q43.5938,375.082 43.5938,375.457 Q43.5938,375.9258 43.1875,376.1914 Q43,376.3164 42.4063,376.3164 L38.9219,384.6758 L37.2813,384.6758 L33.7969,376.3164 Q33.2031,376.3164 33.0156,376.1914 Q32.6094,375.9258 32.6094,375.457 Q32.6094,375.082 32.875,374.8477 Q33.1406,374.6133 33.75,374.6133 L36.0469,374.6133 Q36.6563,374.6133 36.9063,374.8477 Q37.1719,375.082 37.1719,375.457 Q37.1719,375.8477 36.9063,376.082 Q36.6563,376.3164 36.0469,376.3164 L35.6406,376.3164 L38.0938,382.1914 Z " fill="#000000"/><text fill="#000000" font-family="sans-serif" font-size="12" font-style="italic" lengthAdjust="spacing" textLength="81" x="49.5" y="374.584">&#171;value object&#187;</text><text fill="#000000" font-family="sans-serif" font-size="14" lengthAdjust="spacing" textLength="36" x="72" y="392.7031">Name</text><line style="stroke:#181818;stroke-width:0.5;" x1="23.5" x2="130.5" y1="401.2168" y2="401.2168"/><line style="stroke:#181818;stroke-width:0.5;" x1="23.5" x2="130.5" y1="409.2168" y2="409.2168"/></g><!--class FirstName--><g id="elem_FirstName"><rect codeLine="14" fill="#F1F1F1" height="60.582" id="FirstName" rx="2.5" ry="2.5" style="stroke:#181818;stroke-width:0.5;" width="109" x="22.5" y="477.6348"/><ellipse cx="37.5" cy="499.9258" fill="#FF8B40" rx="11" ry="11" style="stroke:#181818;stroke-width:1.0;"/><path d="M38.0938,503.1914 L40.5625,497.3164 L40.1719,497.3164 Q39.5625,497.3164 39.2969,497.082 Q39.0313,496.8477 39.0313,496.457 Q39.0313,496.082 39.2969,495.8477 Q39.5625,495.6133 40.1719,495.6133 L42.4531,495.6133 Q43.0625,495.6133 43.3281,495.8477 Q43.5938,496.082 43.5938,496.457 Q43.5938,496.9258 43.1875,497.1914 Q43,497.3164 42.4063,497.3164 L38.9219,505.6758 L37.2813,505.6758 L33.7969,497.3164 Q33.2031,497.3164 33.0156,497.1914 Q32.6094,496.9258 32.6094,496.457 Q32.6094,496.082 32.875,495.8477 Q33.1406,495.6133 33.75,495.6133 L36.0469,495.6133 Q36.6563,495.6133 36.9063,495.8477 Q37.1719,496.082 37.1719,496.457 Q37.1719,496.8477 36.9063,497.082 Q36.6563,497.3164 36.0469,497.3164 L35.6406,497.3164 L38.0938,503.1914 Z " fill="#000000"/><text fill="#000000" font-family="sans-serif" font-size="12" font-style="italic" lengthAdjust="spacing" textLength="81" x="49.5" y="495.584">&#171;value object&#187;</text><text fill="#000000" font-family="sans-serif" font-size="14" lengthAdjust="spacing" textLength="64" x="58" y="513.7031">FirstName</text><line style="stroke:#181818;stroke-width:0.5;" x1="23.5" x2="130.5" y1="522.2168" y2="522.2168"/><line style="stroke:#181818;stroke-width:0.5;" x1="23.5" x2="130.5" y1="530.2168" y2="530.2168"/></g><!--class LastName--><g id="elem_LastName"><rect codeLine="15" fill="#F1F1F1" height="60.582" id="LastName" rx="2.5" ry="2.5" style="stroke:#181818;stroke-width:0.5;" width="109" x="166.5" y="356.6348"/><ellipse cx="181.5" cy="378.9258" fill="#FF8B40" rx="11" ry="11" style="stroke:#181818;stroke-width:1.0;"/><path d="M182.0938,382.1914 L184.5625,376.3164 L184.1719,376.3164 Q183.5625,376.3164 183.2969,376.082 Q183.0313,375.8477 183.0313,375.457 Q183.0313,375.082 183.2969,374.8477 Q183.5625,374.6133 184.1719,374.6133 L186.4531,374.6133 Q187.0625,374.6133 187.3281,374.8477 Q187.5938,375.082 187.5938,375.457 Q187.5938,375.9258 187.1875,376.1914 Q187,376.3164 186.4063,376.3164 L182.9219,384.6758 L181.2813,384.6758 L177.7969,376.3164 Q177.2031,376.3164 177.0156,376.1914 Q176.6094,375.9258 176.6094,375.457 Q176.6094,375.082 176.875,374.8477 Q177.1406,374.6133 177.75,374.6133 L180.0469,374.6133 Q180.6563,374.6133 180.9063,374.8477 Q181.1719,375.082 181.1719,375.457 Q181.1719,375.8477 180.9063,376.082 Q180.6563,376.3164 180.0469,376.3164 L179.6406,376.3164 L182.0938,382.1914 Z " fill="#000000"/><text fill="#000000" font-family="sans-serif" font-size="12" font-style="italic" lengthAdjust="spacing" textLength="81" x="193.5" y="374.584">&#171;value object&#187;</text><text fill="#000000" font-family="sans-serif" font-size="14" lengthAdjust="spacing" textLength="63" x="202.5" y="392.7031">LastName</text><line style="stroke:#181818;stroke-width:0.5;" x1="167.5" x2="274.5" y1="401.2168" y2="401.2168"/><line style="stroke:#181818;stroke-width:0.5;" x1="167.5" x2="274.5" y1="409.2168" y2="409.2168"/></g><!--class FullName--><g id="elem_FullName"><rect codeLine="16" fill="#F1F1F1" height="60.582" id="FullName" rx="2.5" ry="2.5" style="stroke:#181818;stroke-width:0.5;" width="109" x="166.5" y="477.6348"/><ellipse cx="181.5" cy="499.9258" fill="#FF8B40" rx="11" ry="11" style="stroke:#181818;stroke-width:1.0;"/><path d="M182.0938,503.1914 L184.5625,497.3164 L184.1719,497.3164 Q183.5625,497.3164 183.2969,497.082 Q183.0313,496.8477 183.0313,496.457 Q183.0313,496.082 183.2969,495.8477 Q183.5625,495.6133 184.1719,495.6133 L186.4531,495.6133 Q187.0625,495.6133 187.3281,495.8477 Q187.5938,496.082 187.5938,496.457 Q187.5938,496.9258 187.1875,497.1914 Q187,497.3164 186.4063,497.3164 L182.9219,505.6758 L181.2813,505.6758 L177.7969,497.3164 Q177.2031,497.3164 177.0156,497.1914 Q176.6094,496.9258 176.6094,496.457 Q176.6094,496.082 176.875,495.8477 Q177.1406,495.6133 177.75,495.6133 L180.0469,495.6133 Q180.6563,495.6133 180.9063,495.8477 Q181.1719,496.082 181.1719,496.457 Q181.1719,496.8477 180.9063,497.082 Q180.6563,497.3164 180.0469,497.3164 L179.6406,497.3164 L182.0938,503.1914 Z " fill="#000000"/><text fill="#000000" font-family="sans-serif" font-size="12" font-style="italic" lengthAdjust="spacing" textLength="81" x="193.5" y="495.584">&#171;value object&#187;</text><text fill="#000000" font-family="sans-serif" font-size="14" lengthAdjust="spacing" textLength="59" x="204.5" y="513.7031">FullName</text><line style="stroke:#181818;stroke-width:0.5;" x1="167.5" x2="274.5" y1="522.2168" y2="522.2168"/><line style="stroke:#181818;stroke-width:0.5;" x1="167.5" x2="274.5" y1="530.2168" y2="530.2168"/></g><!--class Phone--><g id="elem_Phone"><rect codeLine="17" fill="#F1F1F1" height="60.582" id="Phone" rx="2.5" ry="2.5" style="stroke:#181818;stroke-width:0.5;" width="109" x="246.5" y="227.6348"/><ellipse cx="261.5" cy="249.9258" fill="#FF8B40" rx="11" ry="11" style="stroke:#181818;stroke-width:1.0;"/><path d="M262.0938,253.1914 L264.5625,247.3164 L264.1719,247.3164 Q263.5625,247.3164 263.2969,247.082 Q263.0313,246.8477 263.0313,246.457 Q263.0313,246.082 263.2969,245.8477 Q263.5625,245.6133 264.1719,245.6133 L266.4531,245.6133 Q267.0625,245.6133 267.3281,245.8477 Q267.5938,246.082 267.5938,246.457 Q267.5938,246.9258 267.1875,247.1914 Q267,247.3164 266.4063,247.3164 L262.9219,255.6758 L261.2813,255.6758 L257.7969,247.3164 Q257.2031,247.3164 257.0156,247.1914 Q256.6094,246.9258 256.6094,246.457 Q256.6094,246.082 256.875,245.8477 Q257.1406,245.6133 257.75,245.6133 L260.0469,245.6133 Q260.6563,245.6133 260.9063,245.8477 Q261.1719,246.082 261.1719,246.457 Q261.1719,246.8477 260.9063,247.082 Q260.6563,247.3164 260.0469,247.3164 L259.6406,247.3164 L262.0938,253.1914 Z " fill="#000000"/><text fill="#000000" font-family="sans-serif" font-size="12" font-style="italic" lengthAdjust="spacing" textLength="81" x="273.5" y="245.584">&#171;value object&#187;</text><text fill="#000000" font-family="sans-serif" font-size="14" lengthAdjust="spacing" textLength="41" x="293.5" y="263.7031">Phone</text><line style="stroke:#181818;stroke-width:0.5;" x1="247.5" x2="354.5" y1="272.2168" y2="272.2168"/><line style="stroke:#181818;stroke-width:0.5;" x1="247.5" x2="354.5" y1="280.2168" y2="280.2168"/></g><!--class Email--><g id="elem_Email"><rect codeLine="18" fill="#F1F1F1" height="60.582" id="Email" rx="2.5" ry="2.5" style="stroke:#181818;stroke-width:0.5;" width="109" x="1179.5" y="227.6348"/><ellipse cx="1194.5" cy="249.9258" fill="#FF8B40" rx="11" ry="11" style="stroke:#181818;stroke-width:1.0;"/><path d="M1195.0938,253.1914 L1197.5625,247.3164 L1197.1719,247.3164 Q1196.5625,247.3164 1196.2969,247.082 Q1196.0313,246.8477 1196.0313,246.457 Q1196.0313,246.082 1196.2969,245.8477 Q1196.5625,245.6133 1197.1719,245.6133 L1199.4531,245.6133 Q1200.0625,245.6133 1200.3281,245.8477 Q1200.5938,246.082 1200.5938,246.457 Q1200.5938,246.9258 1200.1875,247.1914 Q1200,247.3164 1199.4063,247.3164 L1195.9219,255.6758 L1194.2813,255.6758 L1190.7969,247.3164 Q1190.2031,247.3164 1190.0156,247.1914 Q1189.6094,246.9258 1189.6094,246.457 Q1189.6094,246.082 1189.875,245.8477 Q1190.1406,245.6133 1190.75,245.6133 L1193.0469,245.6133 Q1193.6563,245.6133 1193.9063,245.8477 Q1194.1719,246.082 1194.1719,246.457 Q1194.1719,246.8477 1193.9063,247.082 Q1193.6563,247.3164 1193.0469,247.3164 L1192.6406,247.3164 L1195.0938,253.1914 Z " fill="#000000"/><text fill="#000000" font-family="sans-serif" font-size="12" font-style="italic" lengthAdjust="spacing" textLength="81" x="1206.5" y="245.584">&#171;value object&#187;</text><text fill="#000000" font-family="sans-serif" font-size="14" lengthAdjust="spacing" textLength="34" x="1230" y="263.7031">Email</text><line style="stroke:#181818;stroke-width:0.5;" x1="1180.5" x2="1287.5" y1="272.2168" y2="272.2168"/><line style="stroke:#181818;stroke-width:0.5;" x1="1180.5" x2="1287.5" y1="280.2168" y2="280.2168"/></g><!--class Address--><g id="elem_Address"><rect codeLine="19" fill="#F1F1F1" height="60.582" id="Address" rx="2.5" ry="2.5" style="stroke:#181818;stroke-width:0.5;" width="109" x="1323.5" y="227.6348"/><ellipse cx="1338.5" cy="249.9258" fill="#FF8B40" rx="11" ry="11" style="stroke:#181818;stroke-width:1.0;"/><path d="M1339.0938,253.1914 L1341.5625,247.3164 L1341.1719,247.3164 Q1340.5625,247.3164 1340.2969,247.082 Q1340.0313,246.8477 1340.0313,246.457 Q1340.0313,246.082 1340.2969,245.8477 Q1340.5625,245.6133 1341.1719,245.6133 L1343.4531,245.6133 Q1344.0625,245.6133 1344.3281,245.8477 Q1344.5938,246.082 1344.5938,246.457 Q1344.5938,246.9258 1344.1875,247.1914 Q1344,247.3164 1343.4063,247.3164 L1339.9219,255.6758 L1338.2813,255.6758 L1334.7969,247.3164 Q1334.2031,247.3164 1334.0156,247.1914 Q1333.6094,246.9258 1333.6094,246.457 Q1333.6094,246.082 1333.875,245.8477 Q1334.1406,245.6133 1334.75,245.6133 L1337.0469,245.6133 Q1337.6563,245.6133 1337.9063,245.8477 Q1338.1719,246.082 1338.1719,246.457 Q1338.1719,246.8477 1337.9063,247.082 Q1337.6563,247.3164 1337.0469,247.3164 L1336.6406,247.3164 L1339.0938,253.1914 Z " fill="#000000"/><text fill="#000000" font-family="sans-serif" font-size="12" font-style="italic" lengthAdjust="spacing" textLength="81" x="1350.5" y="245.584">&#171;value object&#187;</text><text fill="#000000" font-family="sans-serif" font-size="14" lengthAdjust="spacing" textLength="52" x="1365" y="263.7031">Address</text><line style="stroke:#181818;stroke-width:0.5;" x1="1324.5" x2="1431.5" y1="272.2168" y2="272.2168"/><line style="stroke:#181818;stroke-width:0.5;" x1="1324.5" x2="1431.5" y1="280.2168" y2="280.2168"/></g><!--class Status--><g id="elem_Status"><rect codeLine="20" fill="#F1F1F1" height="60.582" id="Status" rx="2.5" ry="2.5" style="stroke:#181818;stroke-width:0.5;" width="109" x="734.5" y="90.6348"/><ellipse cx="749.5" cy="112.9258" fill="#FF8B40" rx="11" ry="11" style="stroke:#181818;stroke-width:1.0;"/><path d="M750.0938,116.1914 L752.5625,110.3164 L752.1719,110.3164 Q751.5625,110.3164 751.2969,110.082 Q751.0313,109.8477 751.0313,109.457 Q751.0313,109.082 751.2969,108.8477 Q751.5625,108.6133 752.1719,108.6133 L754.4531,108.6133 Q755.0625,108.6133 755.3281,108.8477 Q755.5938,109.082 755.5938,109.457 Q755.5938,109.9258 755.1875,110.1914 Q755,110.3164 754.4063,110.3164 L750.9219,118.6758 L749.2813,118.6758 L745.7969,110.3164 Q745.2031,110.3164 745.0156,110.1914 Q744.6094,109.9258 744.6094,109.457 Q744.6094,109.082 744.875,108.8477 Q745.1406,108.6133 745.75,108.6133 L748.0469,108.6133 Q748.6563,108.6133 748.9063,108.8477 Q749.1719,109.082 749.1719,109.457 Q749.1719,109.8477 748.9063,110.082 Q748.6563,110.3164 748.0469,110.3164 L747.6406,110.3164 L750.0938,116.1914 Z " fill="#000000"/><text fill="#000000" font-family="sans-serif" font-size="12" font-style="italic" lengthAdjust="spacing" textLength="81" x="761.5" y="108.584">&#171;value object&#187;</text><text fill="#000000" font-family="sans-serif" font-size="14" lengthAdjust="spacing" textLength="40" x="782" y="126.7031">Status</text><line style="stroke:#181818;stroke-width:0.5;" x1="735.5" x2="842.5" y1="135.2168" y2="135.2168"/><line style="stroke:#181818;stroke-width:0.5;" x1="735.5" x2="842.5" y1="143.2168" y2="143.2168"/></g><!--link Name to FirstName--><g id="link_Name_FirstName"><path codeLine="24" d="M77,417.8548 C77,436.0348 77,453.1948 77,471.3748 " fill="none" id="Name-to-FirstName" style="stroke:#181818;stroke-width:1.0;"/><polygon fill="#181818" points="77,477.3748,81,468.3748,77,472.3748,73,468.3748,77,477.3748" style="stroke:#181818;stroke-width:1.0;"/></g><!--link Name to LastName--><g id="link_Name_LastName"><path codeLine="25" d="M131.56,387.1348 C143.21,387.1348 148.85,387.1348 160.5,387.1348 " fill="none" id="Name-to-LastName" style="stroke:#181818;stroke-width:1.0;"/><polygon fill="#181818" points="166.5,387.1348,157.5,383.1348,161.5,387.1348,157.5,391.1348,166.5,387.1348" style="stroke:#181818;stroke-width:1.0;"/></g><!--link Name to FullName--><g id="link_Name_FullName"><path codeLine="26" d="M112.97,417.8548 C134.96,436.0348 158.3649,455.3727 180.3649,473.5527 " fill="none" id="Name-to-FullName" style="stroke:#181818;stroke-width:1.0;"/><polygon fill="#181818" points="184.99,477.3748,180.6003,468.5583,181.1357,474.1897,175.5043,474.7251,184.99,477.3748" style="stroke:#181818;stroke-width:1.0;"/></g><!--link Patient to Status--><g id="link_Patient_Status"><path codeLine="28" d="M699.5,121.1348 C711.15,121.1348 716.81,121.1348 728.46,121.1348 " fill="none" id="Patient-to-Status" style="stroke:#181818;stroke-width:1.0;"/><polygon fill="#181818" points="734.46,121.1348,725.46,117.1348,729.46,121.1348,725.46,125.1348,734.46,121.1348" style="stroke:#181818;stroke-width:1.0;"/><text fill="#000000" font-family="sans-serif" font-size="13" lengthAdjust="spacing" textLength="7" x="719.6609" y="117.0685">1</text></g><!--link Patient to Name--><g id="link_Patient_Name"><path codeLine="29" d="M622.96,121.9848 C500.01,122.4048 116.86,130.9148 41,219.6348 C7.94,258.2948 32.4922,315.0084 54.1722,351.4484 " fill="none" id="Patient-to-Name" style="stroke:#181818;stroke-width:1.0;"/><polygon fill="#181818" points="57.24,356.6048,56.0759,346.8249,54.6835,352.3078,49.2007,350.9154,57.24,356.6048" style="stroke:#181818;stroke-width:1.0;"/><text fill="#000000" font-family="sans-serif" font-size="13" lengthAdjust="spacing" textLength="7" x="45.1519" y="345.1728">1</text></g><!--link Patient to DateBirth--><g id="link_Patient_DateBirth"><path codeLine="30" d="M622.88,145.9548 C586.55,168.6648 536.8081,199.7549 497.6381,224.2349 " fill="none" id="Patient-to-DateBirth" style="stroke:#181818;stroke-width:1.0;"/><polygon fill="#181818" points="492.55,227.4148,502.302,226.037,496.7901,224.7649,498.0622,219.2529,492.55,227.4148" style="stroke:#181818;stroke-width:1.0;"/><text fill="#000000" font-family="sans-serif" font-size="13" lengthAdjust="spacing" textLength="7" x="494.6353" y="216.4271">1</text></g><!--link Patient to Gender--><g id="link_Patient_Gender"><path codeLine="31" d="M640.94,159.7448 C629.54,181.1148 618.2927,202.2102 607.6727,222.1302 " fill="none" id="Patient-to-Gender" style="stroke:#181818;stroke-width:1.0;"/><polygon fill="#181818" points="604.85,227.4248,612.6138,221.3647,607.2023,223.0126,605.5543,217.6011,604.85,227.4248" style="stroke:#181818;stroke-width:1.0;"/><text fill="#000000" font-family="sans-serif" font-size="13" lengthAdjust="spacing" textLength="7" x="600.3972" y="216.4391">1</text></g><!--link Patient to EmergencyContact--><g id="link_Patient_EmergencyContact"><path codeLine="32" d="M622.91,128.6448 C546.99,142.0648 371.83,175.3248 229,219.6348 C221.36,222.0048 219.1041,222.6516 211.2941,225.5116 " fill="none" id="Patient-to-EmergencyContact" style="stroke:#181818;stroke-width:1.0;"/><polygon fill="#181818" points="205.66,227.5748,215.4866,228.236,210.3551,225.8554,212.7357,220.7239,205.66,227.5748" style="stroke:#181818;stroke-width:1.0;"/><text fill="#000000" font-family="sans-serif" font-size="13" lengthAdjust="spacing" textLength="7" x="213.3513" y="216.1363">1</text></g><!--link Patient to MRN--><g id="link_Patient_MRN"><path codeLine="33" d="M681.06,159.7448 C690.96,178.3048 700.0577,195.36 709.9777,213.97 " fill="none" id="Patient-to-MRN" style="stroke:#181818;stroke-width:1.0;"/><polygon fill="#181818" points="712.8,219.2648,712.0963,209.4411,710.448,214.8525,705.0366,213.2042,712.8,219.2648" style="stroke:#181818;stroke-width:1.0;"/><text fill="#000000" font-family="sans-serif" font-size="13" lengthAdjust="spacing" textLength="7" x="701.8747" y="208.5094">1</text></g><!--link Patient to MedicalCondition--><g id="link_Patient_MedicalCondition"><path codeLine="34" d="M699.28,148.3848 C705.16,152.2448 711.21,156.0948 717,159.6348 C756.36,183.6548 796.6342,205.9858 831.5442,224.7358 " fill="none" id="Patient-to-MedicalCondition" style="stroke:#181818;stroke-width:1.0;"/><polygon fill="#181818" points="836.83,227.5748,830.7939,219.7924,832.4251,225.2089,827.0086,226.8402,836.83,227.5748" style="stroke:#181818;stroke-width:1.0;"/><text fill="#000000" font-family="sans-serif" font-size="13" lengthAdjust="spacing" textLength="22" x="800.1366" y="216.1363">0..1</text></g><!--link Patient to AppoitmentHistory--><g id="link_Patient_AppoitmentHistory"><path codeLine="35" d="M699.11,150.2848 C704.92,153.7848 710.98,157.0448 717,159.6348 C827.51,207.2448 866.38,183.0248 981,219.6348 C988.42,222.0048 990.4612,222.6037 998.0412,225.4837 " fill="none" id="Patient-to-AppoitmentHistory" style="stroke:#181818;stroke-width:1.0;"/><polygon fill="#181818" points="1003.65,227.6148,996.6575,220.679,998.976,225.8389,993.8161,228.1574,1003.65,227.6148" style="stroke:#181818;stroke-width:1.0;"/><text fill="#000000" font-family="sans-serif" font-size="13" lengthAdjust="spacing" textLength="7" x="983.1442" y="217.2725">1</text></g><!--link Patient to Email--><g id="link_Patient_Email"><path codeLine="36" d="M699.23,150.9748 C704.96,154.3248 710.98,157.3548 717,159.6348 C903.63,230.3148 971.77,159.3048 1162,219.6348 C1168.72,221.7648 1170.0925,222.0237 1176.7525,225.0337 " fill="none" id="Patient-to-Email" style="stroke:#181818;stroke-width:1.0;"/><polygon fill="#181818" points="1182.22,227.5048,1175.6661,220.1532,1177.6637,225.4455,1172.3713,227.4432,1182.22,227.5048" style="stroke:#181818;stroke-width:1.0;"/><text fill="#000000" font-family="sans-serif" font-size="13" lengthAdjust="spacing" textLength="7" x="1164.3368" y="216.8992">1</text></g><!--link Patient to Phone--><g id="link_Patient_Phone"><path codeLine="37" d="M622.56,133.0848 C566.68,149.4748 460.15,182.4448 373,219.6348 C367.3,222.0648 366.8314,222.1624 361.0214,224.9724 " fill="none" id="Patient-to-Phone" style="stroke:#181818;stroke-width:1.0;"/><polygon fill="#181818" points="355.62,227.5848,365.4637,227.2671,360.1212,225.4078,361.9805,220.0652,355.62,227.5848" style="stroke:#181818;stroke-width:1.0;"/><text fill="#000000" font-family="sans-serif" font-size="13" lengthAdjust="spacing" textLength="7" x="359.8025" y="216.1484">1</text></g><!--link Patient to Address--><g id="link_Patient_Address"><path codeLine="38" d="M699.16,151.1548 C704.91,154.4748 710.95,157.4548 717,159.6348 C964.56,248.8248 1053.92,144.1748 1306,219.6348 C1312.89,221.6948 1314.4168,221.9663 1321.2068,225.0163 " fill="none" id="Patient-to-Address" style="stroke:#181818;stroke-width:1.0;"/><polygon fill="#181818" points="1326.68,227.4748,1320.1092,220.1382,1322.119,225.426,1316.8312,227.4358,1326.68,227.4748" style="stroke:#181818;stroke-width:1.0;"/><text fill="#000000" font-family="sans-serif" font-size="13" lengthAdjust="spacing" textLength="7" x="1308.3734" y="216.4994">1</text></g><!--link EmergencyContact to Phone--><g id="link_EmergencyContact_Phone"><path codeLine="39" d="M211.19,258.1348 C222.89,258.1348 228.58,258.1348 240.27,258.1348 " fill="none" id="EmergencyContact-to-Phone" style="stroke:#181818;stroke-width:1.0;"/><polygon fill="#181818" points="246.27,258.1348,237.27,254.1348,241.27,258.1348,237.27,262.1348,246.27,258.1348" style="stroke:#181818;stroke-width:1.0;"/><text fill="#000000" font-family="sans-serif" font-size="13" lengthAdjust="spacing" textLength="7" x="231.4453" y="254.0685">1</text></g><!--SRC=[bPDHIyCm4CVVyob2VL31TXieg8I2SrOVd0o7lfzDxA9fKjARCCQ-krdRRMuHRVlIyCl_VyVTvOvdY4LvtUiL2ZJESnMb9k-b2ieov18o2paXA5496hnCwKKqYAveI4Sc1wdfs72X0a8AI3yXSnB68Ckio0157DC9e1GQ0xear7tkA76nePIn6ZWXOzOOT8Vbgb9M-Ud8HHbAYpDtV_9wTfGabyFp_kaNgBcWvkr3f9xbNcWkR7lzNIvi9dIwk3KQ8SNspl7pqvzYnYHVr_SkXVMyWiiKbCl99KgZssUzAGeZCNU17sI9nYxQMvyW5-tLYRGbThCyGbT7CbUgcsCoCrfq6Iz8rQ6xd5lX_gqDKmIS_wjV4KAgCiCmtZMsGV6sRpyqJLy8sUoAWy4WQFBjQDZmIhoZDTokZtTJRuc73vV14xWtly_wKRJ61y_PytclzfVKRb27rLR3zeFLGoBUwkwvlW40]--></g></svg>