<?xml version="1.0" encoding="us-ascii" standalone="no"?><svg xmlns="http://www.w3.org/2000/svg" xmlns:xlink="http://www.w3.org/1999/xlink" contentStyleType="text/css" height="892px" preserveAspectRatio="none" style="width:2819px;height:892px;background:#FFFFFF;" version="1.1" viewBox="0 0 2819 892" width="2819px" zoomAndPan="magnify"><defs/><g><!--cluster <<aggregate>> Patient--><g id="cluster_&lt;&lt;aggregate&gt;&gt; Patient"><path d="M636.5,177.0137 L778.5,177.0137 A3.75,3.75 0 0 1 781,179.5137 L788,201.6348 L1781.5,201.6348 A2.5,2.5 0 0 1 1784,204.1348 L1784,726.5137 A2.5,2.5 0 0 1 1781.5,729.0137 L636.5,729.0137 A2.5,2.5 0 0 1 634,726.5137 L634,179.5137 A2.5,2.5 0 0 1 636.5,177.0137 " fill="none" style="stroke:#000000;stroke-width:1.5;"/><line style="stroke:#000000;stroke-width:1.5;" x1="634" x2="788" y1="201.6348" y2="201.6348"/><text fill="#000000" font-family="sans-serif" font-size="14" font-weight="bold" lengthAdjust="spacing" textLength="141" x="638" y="194.1211">&#171;aggregate&#187; Patient</text></g><!--cluster <<aggregate Doctor>>--><g id="cluster_&lt;&lt;aggregate Doctor&gt;&gt;"><path d="M1810.5,177.0137 L1950.5,177.0137 A3.75,3.75 0 0 1 1953,179.5137 L1960,201.6348 L1960.5,201.6348 A2.5,2.5 0 0 1 1963,204.1348 L1963,296.5137 A2.5,2.5 0 0 1 1960.5,299.0137 L1810.5,299.0137 A2.5,2.5 0 0 1 1808,296.5137 L1808,179.5137 A2.5,2.5 0 0 1 1810.5,177.0137 " fill="none" style="stroke:#000000;stroke-width:1.5;"/><line style="stroke:#000000;stroke-width:1.5;" x1="1808" x2="1960" y1="201.6348" y2="201.6348"/><text fill="#000000" font-family="sans-serif" font-size="14" font-weight="bold" lengthAdjust="spacing" textLength="139" x="1812" y="194.1211">&#171;aggregate Doctor&#187;</text></g><!--cluster <<aggregate OperationRequest>>--><g id="cluster_&lt;&lt;aggregate OperationRequest&gt;&gt;"><path d="M8.5,6.0137 L230.5,6.0137 A3.75,3.75 0 0 1 233,8.5137 L240,30.6348 L607.5,30.6348 A2.5,2.5 0 0 1 610,33.1348 L610,288.5137 A2.5,2.5 0 0 1 607.5,291.0137 L8.5,291.0137 A2.5,2.5 0 0 1 6,288.5137 L6,8.5137 A2.5,2.5 0 0 1 8.5,6.0137 " fill="none" style="stroke:#000000;stroke-width:1.5;"/><line style="stroke:#000000;stroke-width:1.5;" x1="6" x2="240" y1="30.6348" y2="30.6348"/><text fill="#000000" font-family="sans-serif" font-size="14" font-weight="bold" lengthAdjust="spacing" textLength="221" x="10" y="23.1211">&#171;aggregate OperationRequest&#187;</text></g><!--cluster <<aggregate OperationType>>--><g id="cluster_&lt;&lt;aggregate OperationType&gt;&gt;"><path d="M1810.5,332.0137 L2006.5,332.0137 A3.75,3.75 0 0 1 2009,334.5137 L2016,356.6348 L2547.5,356.6348 A2.5,2.5 0 0 1 2550,359.1348 L2550,874.5137 A2.5,2.5 0 0 1 2547.5,877.0137 L1810.5,877.0137 A2.5,2.5 0 0 1 1808,874.5137 L1808,334.5137 A2.5,2.5 0 0 1 1810.5,332.0137 " fill="none" style="stroke:#000000;stroke-width:1.5;"/><line style="stroke:#000000;stroke-width:1.5;" x1="1808" x2="2016" y1="356.6348" y2="356.6348"/><text fill="#000000" font-family="sans-serif" font-size="14" font-weight="bold" lengthAdjust="spacing" textLength="195" x="1812" y="349.1211">&#171;aggregate OperationType&#187;</text></g><!--cluster <<aggregate Specialization>>--><g id="cluster_&lt;&lt;aggregate Specialization&gt;&gt;"><path d="M2576.5,615.0137 L2766.5,615.0137 A3.75,3.75 0 0 1 2769,617.5137 L2776,639.6348 L2809.5,639.6348 A2.5,2.5 0 0 1 2812,642.1348 L2812,882.5137 A2.5,2.5 0 0 1 2809.5,885.0137 L2576.5,885.0137 A2.5,2.5 0 0 1 2574,882.5137 L2574,617.5137 A2.5,2.5 0 0 1 2576.5,615.0137 " fill="none" style="stroke:#000000;stroke-width:1.5;"/><line style="stroke:#000000;stroke-width:1.5;" x1="2574" x2="2776" y1="639.6348" y2="639.6348"/><text fill="#000000" font-family="sans-serif" font-size="14" font-weight="bold" lengthAdjust="spacing" textLength="189" x="2578" y="632.1211">&#171;aggregate Specialization&#187;</text></g><!--class Patient--><g id="elem_Patient"><rect codeLine="9" fill="#F5F5DC" height="68.543" id="Patient" rx="2.5" ry="2.5" style="stroke:#181818;stroke-width:0.5;" width="76" x="939" y="214.0137"/><ellipse cx="954" cy="244.2852" fill="#ADD1B2" rx="11" ry="11" style="stroke:#181818;stroke-width:1.0;"/><path d="M952.8594,245.082 L952.8594,247.582 L957.1875,247.582 L957.1875,246.6602 Q957.1875,246.0508 957.4219,245.7852 Q957.6719,245.5195 958.0469,245.5195 Q958.4219,245.5195 958.6563,245.7852 Q958.8906,246.0508 958.8906,246.6602 L958.8906,249.2852 L950.8906,249.2852 Q950.2656,249.2852 950,249.0508 Q949.75,248.8164 949.75,248.4258 Q949.75,248.0508 950.0156,247.8164 Q950.2813,247.582 950.8906,247.582 L951.1563,247.582 L951.1563,240.9258 L950.8906,240.9258 Q950.2656,240.9258 950,240.6914 Q949.75,240.457 949.75,240.0664 Q949.75,239.6914 950,239.457 Q950.2656,239.2227 950.8906,239.2227 L958.5156,239.2227 L958.5156,241.8164 Q958.5156,242.4258 958.2813,242.6914 Q958.0625,242.9414 957.6719,242.9414 Q957.2969,242.9414 957.0625,242.6914 Q956.8281,242.4258 956.8281,241.8164 L956.8281,240.9258 L952.8594,240.9258 L952.8594,243.3789 L954.3438,243.3789 Q954.3438,242.7227 954.4688,242.5352 Q954.7344,242.1289 955.2031,242.1289 Q955.5781,242.1289 955.8125,242.3945 Q956.0469,242.6445 956.0469,243.2539 L956.0469,245.2227 Q956.0469,245.7695 955.9219,245.957 Q955.6563,246.3477 955.2031,246.3477 Q954.7344,246.3477 954.4688,245.9414 Q954.3438,245.7539 954.3438,245.082 L952.8594,245.082 Z " fill="#000000"/><text fill="#000000" font-family="sans-serif" font-size="12" font-style="italic" lengthAdjust="spacing" textLength="43" x="968.5" y="231.9629">&#171;entity&#187;</text><text fill="#000000" font-family="sans-serif" font-size="12" font-style="italic" lengthAdjust="spacing" textLength="35" x="972.5" y="247.9238">&#171;root&#187;</text><text fill="#000000" font-family="sans-serif" font-size="14" lengthAdjust="spacing" textLength="44" x="968" y="266.043">Patient</text><line style="stroke:#181818;stroke-width:0.5;" x1="940" x2="1014" y1="274.5566" y2="274.5566"/></g><!--class DateBirth--><g id="elem_DateBirth"><rect codeLine="10" fill="#F5F5DC" height="52.582" id="DateBirth" rx="2.5" ry="2.5" style="stroke:#181818;stroke-width:0.5;" width="109" x="687.5" y="377.0137"/><ellipse cx="702.5" cy="399.3047" fill="#FF8B40" rx="11" ry="11" style="stroke:#181818;stroke-width:1.0;"/><path d="M703.0938,402.5703 L705.5625,396.6953 L705.1719,396.6953 Q704.5625,396.6953 704.2969,396.4609 Q704.0313,396.2266 704.0313,395.8359 Q704.0313,395.4609 704.2969,395.2266 Q704.5625,394.9922 705.1719,394.9922 L707.4531,394.9922 Q708.0625,394.9922 708.3281,395.2266 Q708.5938,395.4609 708.5938,395.8359 Q708.5938,396.3047 708.1875,396.5703 Q708,396.6953 707.4063,396.6953 L703.9219,405.0547 L702.2813,405.0547 L698.7969,396.6953 Q698.2031,396.6953 698.0156,396.5703 Q697.6094,396.3047 697.6094,395.8359 Q697.6094,395.4609 697.875,395.2266 Q698.1406,394.9922 698.75,394.9922 L701.0469,394.9922 Q701.6563,394.9922 701.9063,395.2266 Q702.1719,395.4609 702.1719,395.8359 Q702.1719,396.2266 701.9063,396.4609 Q701.6563,396.6953 701.0469,396.6953 L700.6406,396.6953 L703.0938,402.5703 Z " fill="#000000"/><text fill="#000000" font-family="sans-serif" font-size="12" font-style="italic" lengthAdjust="spacing" textLength="81" x="714.5" y="394.9629">&#171;value object&#187;</text><text fill="#000000" font-family="sans-serif" font-size="14" lengthAdjust="spacing" textLength="59" x="725.5" y="413.082">DateBirth</text><line style="stroke:#181818;stroke-width:0.5;" x1="688.5" x2="795.5" y1="421.5957" y2="421.5957"/></g><!--class Gender--><g id="elem_Gender"><rect codeLine="11" fill="#F5F5DC" height="52.582" id="Gender" rx="2.5" ry="2.5" style="stroke:#181818;stroke-width:0.5;" width="109" x="831.5" y="377.0137"/><ellipse cx="846.5" cy="399.3047" fill="#FF8B40" rx="11" ry="11" style="stroke:#181818;stroke-width:1.0;"/><path d="M847.0938,402.5703 L849.5625,396.6953 L849.1719,396.6953 Q848.5625,396.6953 848.2969,396.4609 Q848.0313,396.2266 848.0313,395.8359 Q848.0313,395.4609 848.2969,395.2266 Q848.5625,394.9922 849.1719,394.9922 L851.4531,394.9922 Q852.0625,394.9922 852.3281,395.2266 Q852.5938,395.4609 852.5938,395.8359 Q852.5938,396.3047 852.1875,396.5703 Q852,396.6953 851.4063,396.6953 L847.9219,405.0547 L846.2813,405.0547 L842.7969,396.6953 Q842.2031,396.6953 842.0156,396.5703 Q841.6094,396.3047 841.6094,395.8359 Q841.6094,395.4609 841.875,395.2266 Q842.1406,394.9922 842.75,394.9922 L845.0469,394.9922 Q845.6563,394.9922 845.9063,395.2266 Q846.1719,395.4609 846.1719,395.8359 Q846.1719,396.2266 845.9063,396.4609 Q845.6563,396.6953 845.0469,396.6953 L844.6406,396.6953 L847.0938,402.5703 Z " fill="#000000"/><text fill="#000000" font-family="sans-serif" font-size="12" font-style="italic" lengthAdjust="spacing" textLength="81" x="858.5" y="394.9629">&#171;value object&#187;</text><text fill="#000000" font-family="sans-serif" font-size="14" lengthAdjust="spacing" textLength="48" x="875" y="413.082">Gender</text><line style="stroke:#181818;stroke-width:0.5;" x1="832.5" x2="939.5" y1="421.5957" y2="421.5957"/></g><!--class EmergencyContact--><g id="elem_EmergencyContact"><rect codeLine="12" fill="#F5F5DC" height="52.582" id="EmergencyContact" rx="2.5" ry="2.5" style="stroke:#181818;stroke-width:0.5;" width="152" x="892" y="507.0137"/><ellipse cx="907" cy="529.3047" fill="#FF8B40" rx="11" ry="11" style="stroke:#181818;stroke-width:1.0;"/><path d="M907.5938,532.5703 L910.0625,526.6953 L909.6719,526.6953 Q909.0625,526.6953 908.7969,526.4609 Q908.5313,526.2266 908.5313,525.8359 Q908.5313,525.4609 908.7969,525.2266 Q909.0625,524.9922 909.6719,524.9922 L911.9531,524.9922 Q912.5625,524.9922 912.8281,525.2266 Q913.0938,525.4609 913.0938,525.8359 Q913.0938,526.3047 912.6875,526.5703 Q912.5,526.6953 911.9063,526.6953 L908.4219,535.0547 L906.7813,535.0547 L903.2969,526.6953 Q902.7031,526.6953 902.5156,526.5703 Q902.1094,526.3047 902.1094,525.8359 Q902.1094,525.4609 902.375,525.2266 Q902.6406,524.9922 903.25,524.9922 L905.5469,524.9922 Q906.1563,524.9922 906.4063,525.2266 Q906.6719,525.4609 906.6719,525.8359 Q906.6719,526.2266 906.4063,526.4609 Q906.1563,526.6953 905.5469,526.6953 L905.1406,526.6953 L907.5938,532.5703 Z " fill="#000000"/><text fill="#000000" font-family="sans-serif" font-size="12" font-style="italic" lengthAdjust="spacing" textLength="81" x="940.5" y="524.9629">&#171;value object&#187;</text><text fill="#000000" font-family="sans-serif" font-size="14" lengthAdjust="spacing" textLength="120" x="921" y="543.082">EmergencyContact</text><line style="stroke:#181818;stroke-width:0.5;" x1="893" x2="1043" y1="551.5957" y2="551.5957"/></g><!--class MRN--><g id="elem_MRN"><rect codeLine="13" fill="#F5F5DC" height="68.543" id="MRN" rx="2.5" ry="2.5" style="stroke:#181818;stroke-width:0.5;" width="109" x="1013.5" y="369.0137"/><ellipse cx="1028.5" cy="399.2852" fill="#FF8B40" rx="11" ry="11" style="stroke:#181818;stroke-width:1.0;"/><path d="M1029.0938,402.5508 L1031.5625,396.6758 L1031.1719,396.6758 Q1030.5625,396.6758 1030.2969,396.4414 Q1030.0313,396.207 1030.0313,395.8164 Q1030.0313,395.4414 1030.2969,395.207 Q1030.5625,394.9727 1031.1719,394.9727 L1033.4531,394.9727 Q1034.0625,394.9727 1034.3281,395.207 Q1034.5938,395.4414 1034.5938,395.8164 Q1034.5938,396.2852 1034.1875,396.5508 Q1034,396.6758 1033.4063,396.6758 L1029.9219,405.0352 L1028.2813,405.0352 L1024.7969,396.6758 Q1024.2031,396.6758 1024.0156,396.5508 Q1023.6094,396.2852 1023.6094,395.8164 Q1023.6094,395.4414 1023.875,395.207 Q1024.1406,394.9727 1024.75,394.9727 L1027.0469,394.9727 Q1027.6563,394.9727 1027.9063,395.207 Q1028.1719,395.4414 1028.1719,395.8164 Q1028.1719,396.207 1027.9063,396.4414 Q1027.6563,396.6758 1027.0469,396.6758 L1026.6406,396.6758 L1029.0938,402.5508 Z " fill="#000000"/><text fill="#000000" font-family="sans-serif" font-size="12" font-style="italic" lengthAdjust="spacing" textLength="81" x="1040.5" y="386.9629">&#171;value object&#187;</text><text fill="#000000" font-family="sans-serif" font-size="12" font-style="italic" lengthAdjust="spacing" textLength="61" x="1050.5" y="402.9238">&#171;identifier&#187;</text><text fill="#000000" font-family="sans-serif" font-size="14" lengthAdjust="spacing" textLength="30" x="1066" y="421.043">MRN</text><line style="stroke:#181818;stroke-width:0.5;" x1="1014.5" x2="1121.5" y1="429.5566" y2="429.5566"/></g><!--class MedicalCondition--><g id="elem_MedicalCondition"><rect codeLine="14" fill="#F5F5DC" height="52.582" id="MedicalCondition" rx="2.5" ry="2.5" style="stroke:#181818;stroke-width:0.5;" width="140" x="1158" y="377.0137"/><ellipse cx="1173" cy="399.3047" fill="#FF8B40" rx="11" ry="11" style="stroke:#181818;stroke-width:1.0;"/><path d="M1173.5938,402.5703 L1176.0625,396.6953 L1175.6719,396.6953 Q1175.0625,396.6953 1174.7969,396.4609 Q1174.5313,396.2266 1174.5313,395.8359 Q1174.5313,395.4609 1174.7969,395.2266 Q1175.0625,394.9922 1175.6719,394.9922 L1177.9531,394.9922 Q1178.5625,394.9922 1178.8281,395.2266 Q1179.0938,395.4609 1179.0938,395.8359 Q1179.0938,396.3047 1178.6875,396.5703 Q1178.5,396.6953 1177.9063,396.6953 L1174.4219,405.0547 L1172.7813,405.0547 L1169.2969,396.6953 Q1168.7031,396.6953 1168.5156,396.5703 Q1168.1094,396.3047 1168.1094,395.8359 Q1168.1094,395.4609 1168.375,395.2266 Q1168.6406,394.9922 1169.25,394.9922 L1171.5469,394.9922 Q1172.1563,394.9922 1172.4063,395.2266 Q1172.6719,395.4609 1172.6719,395.8359 Q1172.6719,396.2266 1172.4063,396.4609 Q1172.1563,396.6953 1171.5469,396.6953 L1171.1406,396.6953 L1173.5938,402.5703 Z " fill="#000000"/><text fill="#000000" font-family="sans-serif" font-size="12" font-style="italic" lengthAdjust="spacing" textLength="81" x="1200.5" y="394.9629">&#171;value object&#187;</text><text fill="#000000" font-family="sans-serif" font-size="14" lengthAdjust="spacing" textLength="108" x="1187" y="413.082">MedicalCondition</text><line style="stroke:#181818;stroke-width:0.5;" x1="1159" x2="1297" y1="421.5957" y2="421.5957"/></g><!--class AppoitmentHistory--><g id="elem_AppoitmentHistory"><rect codeLine="15" fill="#F5F5DC" height="52.582" id="AppoitmentHistory" rx="2.5" ry="2.5" style="stroke:#181818;stroke-width:0.5;" width="146" x="1333" y="377.0137"/><ellipse cx="1348" cy="399.3047" fill="#FF8B40" rx="11" ry="11" style="stroke:#181818;stroke-width:1.0;"/><path d="M1348.5938,402.5703 L1351.0625,396.6953 L1350.6719,396.6953 Q1350.0625,396.6953 1349.7969,396.4609 Q1349.5313,396.2266 1349.5313,395.8359 Q1349.5313,395.4609 1349.7969,395.2266 Q1350.0625,394.9922 1350.6719,394.9922 L1352.9531,394.9922 Q1353.5625,394.9922 1353.8281,395.2266 Q1354.0938,395.4609 1354.0938,395.8359 Q1354.0938,396.3047 1353.6875,396.5703 Q1353.5,396.6953 1352.9063,396.6953 L1349.4219,405.0547 L1347.7813,405.0547 L1344.2969,396.6953 Q1343.7031,396.6953 1343.5156,396.5703 Q1343.1094,396.3047 1343.1094,395.8359 Q1343.1094,395.4609 1343.375,395.2266 Q1343.6406,394.9922 1344.25,394.9922 L1346.5469,394.9922 Q1347.1563,394.9922 1347.4063,395.2266 Q1347.6719,395.4609 1347.6719,395.8359 Q1347.6719,396.2266 1347.4063,396.4609 Q1347.1563,396.6953 1346.5469,396.6953 L1346.1406,396.6953 L1348.5938,402.5703 Z " fill="#000000"/><text fill="#000000" font-family="sans-serif" font-size="12" font-style="italic" lengthAdjust="spacing" textLength="81" x="1378.5" y="394.9629">&#171;value object&#187;</text><text fill="#000000" font-family="sans-serif" font-size="14" lengthAdjust="spacing" textLength="114" x="1362" y="413.082">AppoitmentHistory</text><line style="stroke:#181818;stroke-width:0.5;" x1="1334" x2="1478" y1="421.5957" y2="421.5957"/></g><!--class Name--><g id="elem_Name"><rect codeLine="17" fill="#F5F5DC" height="52.582" id="Name" rx="2.5" ry="2.5" style="stroke:#181818;stroke-width:0.5;" width="109" x="1514.5" y="222.0137"/><ellipse cx="1529.5" cy="244.3047" fill="#FF8B40" rx="11" ry="11" style="stroke:#181818;stroke-width:1.0;"/><path d="M1530.0938,247.5703 L1532.5625,241.6953 L1532.1719,241.6953 Q1531.5625,241.6953 1531.2969,241.4609 Q1531.0313,241.2266 1531.0313,240.8359 Q1531.0313,240.4609 1531.2969,240.2266 Q1531.5625,239.9922 1532.1719,239.9922 L1534.4531,239.9922 Q1535.0625,239.9922 1535.3281,240.2266 Q1535.5938,240.4609 1535.5938,240.8359 Q1535.5938,241.3047 1535.1875,241.5703 Q1535,241.6953 1534.4063,241.6953 L1530.9219,250.0547 L1529.2813,250.0547 L1525.7969,241.6953 Q1525.2031,241.6953 1525.0156,241.5703 Q1524.6094,241.3047 1524.6094,240.8359 Q1524.6094,240.4609 1524.875,240.2266 Q1525.1406,239.9922 1525.75,239.9922 L1528.0469,239.9922 Q1528.6563,239.9922 1528.9063,240.2266 Q1529.1719,240.4609 1529.1719,240.8359 Q1529.1719,241.2266 1528.9063,241.4609 Q1528.6563,241.6953 1528.0469,241.6953 L1527.6406,241.6953 L1530.0938,247.5703 Z " fill="#000000"/><text fill="#000000" font-family="sans-serif" font-size="12" font-style="italic" lengthAdjust="spacing" textLength="81" x="1541.5" y="239.9629">&#171;value object&#187;</text><text fill="#000000" font-family="sans-serif" font-size="14" lengthAdjust="spacing" textLength="36" x="1564" y="258.082">Name</text><line style="stroke:#181818;stroke-width:0.5;" x1="1515.5" x2="1622.5" y1="266.5957" y2="266.5957"/></g><!--class FirstName--><g id="elem_FirstName"><rect codeLine="19" fill="#F5F5DC" height="52.582" id="FirstName" rx="2.5" ry="2.5" style="stroke:#181818;stroke-width:0.5;" width="109" x="1514.5" y="377.0137"/><ellipse cx="1529.5" cy="399.3047" fill="#FF8B40" rx="11" ry="11" style="stroke:#181818;stroke-width:1.0;"/><path d="M1530.0938,402.5703 L1532.5625,396.6953 L1532.1719,396.6953 Q1531.5625,396.6953 1531.2969,396.4609 Q1531.0313,396.2266 1531.0313,395.8359 Q1531.0313,395.4609 1531.2969,395.2266 Q1531.5625,394.9922 1532.1719,394.9922 L1534.4531,394.9922 Q1535.0625,394.9922 1535.3281,395.2266 Q1535.5938,395.4609 1535.5938,395.8359 Q1535.5938,396.3047 1535.1875,396.5703 Q1535,396.6953 1534.4063,396.6953 L1530.9219,405.0547 L1529.2813,405.0547 L1525.7969,396.6953 Q1525.2031,396.6953 1525.0156,396.5703 Q1524.6094,396.3047 1524.6094,395.8359 Q1524.6094,395.4609 1524.875,395.2266 Q1525.1406,394.9922 1525.75,394.9922 L1528.0469,394.9922 Q1528.6563,394.9922 1528.9063,395.2266 Q1529.1719,395.4609 1529.1719,395.8359 Q1529.1719,396.2266 1528.9063,396.4609 Q1528.6563,396.6953 1528.0469,396.6953 L1527.6406,396.6953 L1530.0938,402.5703 Z " fill="#000000"/><text fill="#000000" font-family="sans-serif" font-size="12" font-style="italic" lengthAdjust="spacing" textLength="81" x="1541.5" y="394.9629">&#171;value object&#187;</text><text fill="#000000" font-family="sans-serif" font-size="14" lengthAdjust="spacing" textLength="64" x="1550" y="413.082">FirstName</text><line style="stroke:#181818;stroke-width:0.5;" x1="1515.5" x2="1622.5" y1="421.5957" y2="421.5957"/></g><!--class LastName--><g id="elem_LastName"><rect codeLine="20" fill="#F5F5DC" height="52.582" id="LastName" rx="2.5" ry="2.5" style="stroke:#181818;stroke-width:0.5;" width="109" x="1658.5" y="222.0137"/><ellipse cx="1673.5" cy="244.3047" fill="#FF8B40" rx="11" ry="11" style="stroke:#181818;stroke-width:1.0;"/><path d="M1674.0938,247.5703 L1676.5625,241.6953 L1676.1719,241.6953 Q1675.5625,241.6953 1675.2969,241.4609 Q1675.0313,241.2266 1675.0313,240.8359 Q1675.0313,240.4609 1675.2969,240.2266 Q1675.5625,239.9922 1676.1719,239.9922 L1678.4531,239.9922 Q1679.0625,239.9922 1679.3281,240.2266 Q1679.5938,240.4609 1679.5938,240.8359 Q1679.5938,241.3047 1679.1875,241.5703 Q1679,241.6953 1678.4063,241.6953 L1674.9219,250.0547 L1673.2813,250.0547 L1669.7969,241.6953 Q1669.2031,241.6953 1669.0156,241.5703 Q1668.6094,241.3047 1668.6094,240.8359 Q1668.6094,240.4609 1668.875,240.2266 Q1669.1406,239.9922 1669.75,239.9922 L1672.0469,239.9922 Q1672.6563,239.9922 1672.9063,240.2266 Q1673.1719,240.4609 1673.1719,240.8359 Q1673.1719,241.2266 1672.9063,241.4609 Q1672.6563,241.6953 1672.0469,241.6953 L1671.6406,241.6953 L1674.0938,247.5703 Z " fill="#000000"/><text fill="#000000" font-family="sans-serif" font-size="12" font-style="italic" lengthAdjust="spacing" textLength="81" x="1685.5" y="239.9629">&#171;value object&#187;</text><text fill="#000000" font-family="sans-serif" font-size="14" lengthAdjust="spacing" textLength="63" x="1694.5" y="258.082">LastName</text><line style="stroke:#181818;stroke-width:0.5;" x1="1659.5" x2="1766.5" y1="266.5957" y2="266.5957"/></g><!--class FullName--><g id="elem_FullName"><rect codeLine="21" fill="#F5F5DC" height="52.582" id="FullName" rx="2.5" ry="2.5" style="stroke:#181818;stroke-width:0.5;" width="109" x="1658.5" y="377.0137"/><ellipse cx="1673.5" cy="399.3047" fill="#FF8B40" rx="11" ry="11" style="stroke:#181818;stroke-width:1.0;"/><path d="M1674.0938,402.5703 L1676.5625,396.6953 L1676.1719,396.6953 Q1675.5625,396.6953 1675.2969,396.4609 Q1675.0313,396.2266 1675.0313,395.8359 Q1675.0313,395.4609 1675.2969,395.2266 Q1675.5625,394.9922 1676.1719,394.9922 L1678.4531,394.9922 Q1679.0625,394.9922 1679.3281,395.2266 Q1679.5938,395.4609 1679.5938,395.8359 Q1679.5938,396.3047 1679.1875,396.5703 Q1679,396.6953 1678.4063,396.6953 L1674.9219,405.0547 L1673.2813,405.0547 L1669.7969,396.6953 Q1669.2031,396.6953 1669.0156,396.5703 Q1668.6094,396.3047 1668.6094,395.8359 Q1668.6094,395.4609 1668.875,395.2266 Q1669.1406,394.9922 1669.75,394.9922 L1672.0469,394.9922 Q1672.6563,394.9922 1672.9063,395.2266 Q1673.1719,395.4609 1673.1719,395.8359 Q1673.1719,396.2266 1672.9063,396.4609 Q1672.6563,396.6953 1672.0469,396.6953 L1671.6406,396.6953 L1674.0938,402.5703 Z " fill="#000000"/><text fill="#000000" font-family="sans-serif" font-size="12" font-style="italic" lengthAdjust="spacing" textLength="81" x="1685.5" y="394.9629">&#171;value object&#187;</text><text fill="#000000" font-family="sans-serif" font-size="14" lengthAdjust="spacing" textLength="59" x="1696.5" y="413.082">FullName</text><line style="stroke:#181818;stroke-width:0.5;" x1="1659.5" x2="1766.5" y1="421.5957" y2="421.5957"/></g><!--class ContactInfo--><g id="elem_ContactInfo"><rect codeLine="22" fill="#F5F5DC" height="52.582" id="ContactInfo" rx="2.5" ry="2.5" style="stroke:#181818;stroke-width:0.5;" width="109" x="703.5" y="507.0137"/><ellipse cx="718.5" cy="529.3047" fill="#FF8B40" rx="11" ry="11" style="stroke:#181818;stroke-width:1.0;"/><path d="M719.0938,532.5703 L721.5625,526.6953 L721.1719,526.6953 Q720.5625,526.6953 720.2969,526.4609 Q720.0313,526.2266 720.0313,525.8359 Q720.0313,525.4609 720.2969,525.2266 Q720.5625,524.9922 721.1719,524.9922 L723.4531,524.9922 Q724.0625,524.9922 724.3281,525.2266 Q724.5938,525.4609 724.5938,525.8359 Q724.5938,526.3047 724.1875,526.5703 Q724,526.6953 723.4063,526.6953 L719.9219,535.0547 L718.2813,535.0547 L714.7969,526.6953 Q714.2031,526.6953 714.0156,526.5703 Q713.6094,526.3047 713.6094,525.8359 Q713.6094,525.4609 713.875,525.2266 Q714.1406,524.9922 714.75,524.9922 L717.0469,524.9922 Q717.6563,524.9922 717.9063,525.2266 Q718.1719,525.4609 718.1719,525.8359 Q718.1719,526.2266 717.9063,526.4609 Q717.6563,526.6953 717.0469,526.6953 L716.6406,526.6953 L719.0938,532.5703 Z " fill="#000000"/><text fill="#000000" font-family="sans-serif" font-size="12" font-style="italic" lengthAdjust="spacing" textLength="81" x="730.5" y="524.9629">&#171;value object&#187;</text><text fill="#000000" font-family="sans-serif" font-size="14" lengthAdjust="spacing" textLength="72" x="735" y="543.082">ContactInfo</text><line style="stroke:#181818;stroke-width:0.5;" x1="704.5" x2="811.5" y1="551.5957" y2="551.5957"/></g><!--class Phone--><g id="elem_Phone"><rect codeLine="23" fill="#F5F5DC" height="52.582" id="Phone" rx="2.5" ry="2.5" style="stroke:#181818;stroke-width:0.5;" width="109" x="884.5" y="660.0137"/><ellipse cx="899.5" cy="682.3047" fill="#FF8B40" rx="11" ry="11" style="stroke:#181818;stroke-width:1.0;"/><path d="M900.0938,685.5703 L902.5625,679.6953 L902.1719,679.6953 Q901.5625,679.6953 901.2969,679.4609 Q901.0313,679.2266 901.0313,678.8359 Q901.0313,678.4609 901.2969,678.2266 Q901.5625,677.9922 902.1719,677.9922 L904.4531,677.9922 Q905.0625,677.9922 905.3281,678.2266 Q905.5938,678.4609 905.5938,678.8359 Q905.5938,679.3047 905.1875,679.5703 Q905,679.6953 904.4063,679.6953 L900.9219,688.0547 L899.2813,688.0547 L895.7969,679.6953 Q895.2031,679.6953 895.0156,679.5703 Q894.6094,679.3047 894.6094,678.8359 Q894.6094,678.4609 894.875,678.2266 Q895.1406,677.9922 895.75,677.9922 L898.0469,677.9922 Q898.6563,677.9922 898.9063,678.2266 Q899.1719,678.4609 899.1719,678.8359 Q899.1719,679.2266 898.9063,679.4609 Q898.6563,679.6953 898.0469,679.6953 L897.6406,679.6953 L900.0938,685.5703 Z " fill="#000000"/><text fill="#000000" font-family="sans-serif" font-size="12" font-style="italic" lengthAdjust="spacing" textLength="81" x="911.5" y="677.9629">&#171;value object&#187;</text><text fill="#000000" font-family="sans-serif" font-size="14" lengthAdjust="spacing" textLength="41" x="931.5" y="696.082">Phone</text><line style="stroke:#181818;stroke-width:0.5;" x1="885.5" x2="992.5" y1="704.5957" y2="704.5957"/></g><!--class Email--><g id="elem_Email"><rect codeLine="24" fill="#F5F5DC" height="52.582" id="Email" rx="2.5" ry="2.5" style="stroke:#181818;stroke-width:0.5;" width="109" x="703.5" y="660.0137"/><ellipse cx="718.5" cy="682.3047" fill="#FF8B40" rx="11" ry="11" style="stroke:#181818;stroke-width:1.0;"/><path d="M719.0938,685.5703 L721.5625,679.6953 L721.1719,679.6953 Q720.5625,679.6953 720.2969,679.4609 Q720.0313,679.2266 720.0313,678.8359 Q720.0313,678.4609 720.2969,678.2266 Q720.5625,677.9922 721.1719,677.9922 L723.4531,677.9922 Q724.0625,677.9922 724.3281,678.2266 Q724.5938,678.4609 724.5938,678.8359 Q724.5938,679.3047 724.1875,679.5703 Q724,679.6953 723.4063,679.6953 L719.9219,688.0547 L718.2813,688.0547 L714.7969,679.6953 Q714.2031,679.6953 714.0156,679.5703 Q713.6094,679.3047 713.6094,678.8359 Q713.6094,678.4609 713.875,678.2266 Q714.1406,677.9922 714.75,677.9922 L717.0469,677.9922 Q717.6563,677.9922 717.9063,678.2266 Q718.1719,678.4609 718.1719,678.8359 Q718.1719,679.2266 717.9063,679.4609 Q717.6563,679.6953 717.0469,679.6953 L716.6406,679.6953 L719.0938,685.5703 Z " fill="#000000"/><text fill="#000000" font-family="sans-serif" font-size="12" font-style="italic" lengthAdjust="spacing" textLength="81" x="730.5" y="677.9629">&#171;value object&#187;</text><text fill="#000000" font-family="sans-serif" font-size="14" lengthAdjust="spacing" textLength="34" x="754" y="696.082">Email</text><line style="stroke:#181818;stroke-width:0.5;" x1="704.5" x2="811.5" y1="704.5957" y2="704.5957"/></g><!--class Doctor--><g id="elem_Doctor"><rect codeLine="28" fill="#F5F5DC" height="68.543" id="Doctor" rx="2.5" ry="2.5" style="stroke:#181818;stroke-width:0.5;" width="74" x="1824" y="214.0137"/><ellipse cx="1839" cy="244.2852" fill="#ADD1B2" rx="11" ry="11" style="stroke:#181818;stroke-width:1.0;"/><path d="M1837.8594,245.082 L1837.8594,247.582 L1842.1875,247.582 L1842.1875,246.6602 Q1842.1875,246.0508 1842.4219,245.7852 Q1842.6719,245.5195 1843.0469,245.5195 Q1843.4219,245.5195 1843.6563,245.7852 Q1843.8906,246.0508 1843.8906,246.6602 L1843.8906,249.2852 L1835.8906,249.2852 Q1835.2656,249.2852 1835,249.0508 Q1834.75,248.8164 1834.75,248.4258 Q1834.75,248.0508 1835.0156,247.8164 Q1835.2813,247.582 1835.8906,247.582 L1836.1563,247.582 L1836.1563,240.9258 L1835.8906,240.9258 Q1835.2656,240.9258 1835,240.6914 Q1834.75,240.457 1834.75,240.0664 Q1834.75,239.6914 1835,239.457 Q1835.2656,239.2227 1835.8906,239.2227 L1843.5156,239.2227 L1843.5156,241.8164 Q1843.5156,242.4258 1843.2813,242.6914 Q1843.0625,242.9414 1842.6719,242.9414 Q1842.2969,242.9414 1842.0625,242.6914 Q1841.8281,242.4258 1841.8281,241.8164 L1841.8281,240.9258 L1837.8594,240.9258 L1837.8594,243.3789 L1839.3438,243.3789 Q1839.3438,242.7227 1839.4688,242.5352 Q1839.7344,242.1289 1840.2031,242.1289 Q1840.5781,242.1289 1840.8125,242.3945 Q1841.0469,242.6445 1841.0469,243.2539 L1841.0469,245.2227 Q1841.0469,245.7695 1840.9219,245.957 Q1840.6563,246.3477 1840.2031,246.3477 Q1839.7344,246.3477 1839.4688,245.9414 Q1839.3438,245.7539 1839.3438,245.082 L1837.8594,245.082 Z " fill="#000000"/><text fill="#000000" font-family="sans-serif" font-size="12" font-style="italic" lengthAdjust="spacing" textLength="43" x="1852.5" y="231.9629">&#171;entity&#187;</text><text fill="#000000" font-family="sans-serif" font-size="12" font-style="italic" lengthAdjust="spacing" textLength="35" x="1856.5" y="247.9238">&#171;root&#187;</text><text fill="#000000" font-family="sans-serif" font-size="14" lengthAdjust="spacing" textLength="42" x="1853" y="266.043">Doctor</text><line style="stroke:#181818;stroke-width:0.5;" x1="1825" x2="1897" y1="274.5566" y2="274.5566"/></g><!--class OperationRequest--><g id="elem_OperationRequest"><rect codeLine="33" fill="#F5F5DC" height="68.543" id="OperationRequest" rx="2.5" ry="2.5" style="stroke:#181818;stroke-width:0.5;" width="148" x="251" y="43.0137"/><ellipse cx="266" cy="73.2852" fill="#ADD1B2" rx="11" ry="11" style="stroke:#181818;stroke-width:1.0;"/><path d="M264.8594,74.082 L264.8594,76.582 L269.1875,76.582 L269.1875,75.6602 Q269.1875,75.0508 269.4219,74.7852 Q269.6719,74.5195 270.0469,74.5195 Q270.4219,74.5195 270.6563,74.7852 Q270.8906,75.0508 270.8906,75.6602 L270.8906,78.2852 L262.8906,78.2852 Q262.2656,78.2852 262,78.0508 Q261.75,77.8164 261.75,77.4258 Q261.75,77.0508 262.0156,76.8164 Q262.2813,76.582 262.8906,76.582 L263.1563,76.582 L263.1563,69.9258 L262.8906,69.9258 Q262.2656,69.9258 262,69.6914 Q261.75,69.457 261.75,69.0664 Q261.75,68.6914 262,68.457 Q262.2656,68.2227 262.8906,68.2227 L270.5156,68.2227 L270.5156,70.8164 Q270.5156,71.4258 270.2813,71.6914 Q270.0625,71.9414 269.6719,71.9414 Q269.2969,71.9414 269.0625,71.6914 Q268.8281,71.4258 268.8281,70.8164 L268.8281,69.9258 L264.8594,69.9258 L264.8594,72.3789 L266.3438,72.3789 Q266.3438,71.7227 266.4688,71.5352 Q266.7344,71.1289 267.2031,71.1289 Q267.5781,71.1289 267.8125,71.3945 Q268.0469,71.6445 268.0469,72.2539 L268.0469,74.2227 Q268.0469,74.7695 267.9219,74.957 Q267.6563,75.3477 267.2031,75.3477 Q266.7344,75.3477 266.4688,74.9414 Q266.3438,74.7539 266.3438,74.082 L264.8594,74.082 Z " fill="#000000"/><text fill="#000000" font-family="sans-serif" font-size="12" font-style="italic" lengthAdjust="spacing" textLength="43" x="316.5" y="60.9629">&#171;entity&#187;</text><text fill="#000000" font-family="sans-serif" font-size="12" font-style="italic" lengthAdjust="spacing" textLength="35" x="320.5" y="76.9238">&#171;root&#187;</text><text fill="#000000" font-family="sans-serif" font-size="14" lengthAdjust="spacing" textLength="116" x="280" y="95.043">OperationRequest</text><line style="stroke:#181818;stroke-width:0.5;" x1="252" x2="398" y1="103.5566" y2="103.5566"/></g><!--class OperationRequestId--><g id="elem_OperationRequestId"><rect codeLine="34" fill="#F5F5DC" height="68.543" id="OperationRequestId" rx="2.5" ry="2.5" style="stroke:#181818;stroke-width:0.5;" width="159" x="434.5" y="43.0137"/><ellipse cx="449.5" cy="73.2852" fill="#FF8B40" rx="11" ry="11" style="stroke:#181818;stroke-width:1.0;"/><path d="M450.0938,76.5508 L452.5625,70.6758 L452.1719,70.6758 Q451.5625,70.6758 451.2969,70.4414 Q451.0313,70.207 451.0313,69.8164 Q451.0313,69.4414 451.2969,69.207 Q451.5625,68.9727 452.1719,68.9727 L454.4531,68.9727 Q455.0625,68.9727 455.3281,69.207 Q455.5938,69.4414 455.5938,69.8164 Q455.5938,70.2852 455.1875,70.5508 Q455,70.6758 454.4063,70.6758 L450.9219,79.0352 L449.2813,79.0352 L445.7969,70.6758 Q445.2031,70.6758 445.0156,70.5508 Q444.6094,70.2852 444.6094,69.8164 Q444.6094,69.4414 444.875,69.207 Q445.1406,68.9727 445.75,68.9727 L448.0469,68.9727 Q448.6563,68.9727 448.9063,69.207 Q449.1719,69.4414 449.1719,69.8164 Q449.1719,70.207 448.9063,70.4414 Q448.6563,70.6758 448.0469,70.6758 L447.6406,70.6758 L450.0938,76.5508 Z " fill="#000000"/><text fill="#000000" font-family="sans-serif" font-size="12" font-style="italic" lengthAdjust="spacing" textLength="81" x="486.5" y="60.9629">&#171;value object&#187;</text><text fill="#000000" font-family="sans-serif" font-size="12" font-style="italic" lengthAdjust="spacing" textLength="61" x="496.5" y="76.9238">&#171;identifier&#187;</text><text fill="#000000" font-family="sans-serif" font-size="14" lengthAdjust="spacing" textLength="127" x="463.5" y="95.043">OperationRequestId</text><line style="stroke:#181818;stroke-width:0.5;" x1="435.5" x2="592.5" y1="103.5566" y2="103.5566"/></g><!--class Priority--><g id="elem_Priority"><rect codeLine="35" fill="#F5F5DC" height="52.582" id="Priority" rx="2.5" ry="2.5" style="stroke:#181818;stroke-width:0.5;" width="109" x="340.5" y="222.0137"/><ellipse cx="355.5" cy="244.3047" fill="#FF8B40" rx="11" ry="11" style="stroke:#181818;stroke-width:1.0;"/><path d="M356.0938,247.5703 L358.5625,241.6953 L358.1719,241.6953 Q357.5625,241.6953 357.2969,241.4609 Q357.0313,241.2266 357.0313,240.8359 Q357.0313,240.4609 357.2969,240.2266 Q357.5625,239.9922 358.1719,239.9922 L360.4531,239.9922 Q361.0625,239.9922 361.3281,240.2266 Q361.5938,240.4609 361.5938,240.8359 Q361.5938,241.3047 361.1875,241.5703 Q361,241.6953 360.4063,241.6953 L356.9219,250.0547 L355.2813,250.0547 L351.7969,241.6953 Q351.2031,241.6953 351.0156,241.5703 Q350.6094,241.3047 350.6094,240.8359 Q350.6094,240.4609 350.875,240.2266 Q351.1406,239.9922 351.75,239.9922 L354.0469,239.9922 Q354.6563,239.9922 354.9063,240.2266 Q355.1719,240.4609 355.1719,240.8359 Q355.1719,241.2266 354.9063,241.4609 Q354.6563,241.6953 354.0469,241.6953 L353.6406,241.6953 L356.0938,247.5703 Z " fill="#000000"/><text fill="#000000" font-family="sans-serif" font-size="12" font-style="italic" lengthAdjust="spacing" textLength="81" x="367.5" y="239.9629">&#171;value object&#187;</text><text fill="#000000" font-family="sans-serif" font-size="14" lengthAdjust="spacing" textLength="44" x="386" y="258.082">Priority</text><line style="stroke:#181818;stroke-width:0.5;" x1="341.5" x2="448.5" y1="266.5957" y2="266.5957"/></g><!--class Status--><g id="elem_Status"><rect codeLine="36" fill="#F5F5DC" height="52.582" id="Status" rx="2.5" ry="2.5" style="stroke:#181818;stroke-width:0.5;" width="109" x="484.5" y="222.0137"/><ellipse cx="499.5" cy="244.3047" fill="#FF8B40" rx="11" ry="11" style="stroke:#181818;stroke-width:1.0;"/><path d="M500.0938,247.5703 L502.5625,241.6953 L502.1719,241.6953 Q501.5625,241.6953 501.2969,241.4609 Q501.0313,241.2266 501.0313,240.8359 Q501.0313,240.4609 501.2969,240.2266 Q501.5625,239.9922 502.1719,239.9922 L504.4531,239.9922 Q505.0625,239.9922 505.3281,240.2266 Q505.5938,240.4609 505.5938,240.8359 Q505.5938,241.3047 505.1875,241.5703 Q505,241.6953 504.4063,241.6953 L500.9219,250.0547 L499.2813,250.0547 L495.7969,241.6953 Q495.2031,241.6953 495.0156,241.5703 Q494.6094,241.3047 494.6094,240.8359 Q494.6094,240.4609 494.875,240.2266 Q495.1406,239.9922 495.75,239.9922 L498.0469,239.9922 Q498.6563,239.9922 498.9063,240.2266 Q499.1719,240.4609 499.1719,240.8359 Q499.1719,241.2266 498.9063,241.4609 Q498.6563,241.6953 498.0469,241.6953 L497.6406,241.6953 L500.0938,247.5703 Z " fill="#000000"/><text fill="#000000" font-family="sans-serif" font-size="12" font-style="italic" lengthAdjust="spacing" textLength="81" x="511.5" y="239.9629">&#171;value object&#187;</text><text fill="#000000" font-family="sans-serif" font-size="14" lengthAdjust="spacing" textLength="40" x="532" y="258.082">Status</text><line style="stroke:#181818;stroke-width:0.5;" x1="485.5" x2="592.5" y1="266.5957" y2="266.5957"/></g><!--class DateOfRequest--><g id="elem_DateOfRequest"><rect codeLine="37" fill="#F5F5DC" height="52.582" id="DateOfRequest" rx="2.5" ry="2.5" style="stroke:#181818;stroke-width:0.5;" width="130" x="22" y="222.0137"/><ellipse cx="37" cy="244.3047" fill="#FF8B40" rx="11" ry="11" style="stroke:#181818;stroke-width:1.0;"/><path d="M37.5938,247.5703 L40.0625,241.6953 L39.6719,241.6953 Q39.0625,241.6953 38.7969,241.4609 Q38.5313,241.2266 38.5313,240.8359 Q38.5313,240.4609 38.7969,240.2266 Q39.0625,239.9922 39.6719,239.9922 L41.9531,239.9922 Q42.5625,239.9922 42.8281,240.2266 Q43.0938,240.4609 43.0938,240.8359 Q43.0938,241.3047 42.6875,241.5703 Q42.5,241.6953 41.9063,241.6953 L38.4219,250.0547 L36.7813,250.0547 L33.2969,241.6953 Q32.7031,241.6953 32.5156,241.5703 Q32.1094,241.3047 32.1094,240.8359 Q32.1094,240.4609 32.375,240.2266 Q32.6406,239.9922 33.25,239.9922 L35.5469,239.9922 Q36.1563,239.9922 36.4063,240.2266 Q36.6719,240.4609 36.6719,240.8359 Q36.6719,241.2266 36.4063,241.4609 Q36.1563,241.6953 35.5469,241.6953 L35.1406,241.6953 L37.5938,247.5703 Z " fill="#000000"/><text fill="#000000" font-family="sans-serif" font-size="12" font-style="italic" lengthAdjust="spacing" textLength="81" x="59.5" y="239.9629">&#171;value object&#187;</text><text fill="#000000" font-family="sans-serif" font-size="14" lengthAdjust="spacing" textLength="98" x="51" y="258.082">DateOfRequest</text><line style="stroke:#181818;stroke-width:0.5;" x1="23" x2="151" y1="266.5957" y2="266.5957"/></g><!--class DeadlineDate--><g id="elem_DeadlineDate"><rect codeLine="38" fill="#F5F5DC" height="52.582" id="DeadlineDate" rx="2.5" ry="2.5" style="stroke:#181818;stroke-width:0.5;" width="118" x="187" y="222.0137"/><ellipse cx="202" cy="244.3047" fill="#FF8B40" rx="11" ry="11" style="stroke:#181818;stroke-width:1.0;"/><path d="M202.5938,247.5703 L205.0625,241.6953 L204.6719,241.6953 Q204.0625,241.6953 203.7969,241.4609 Q203.5313,241.2266 203.5313,240.8359 Q203.5313,240.4609 203.7969,240.2266 Q204.0625,239.9922 204.6719,239.9922 L206.9531,239.9922 Q207.5625,239.9922 207.8281,240.2266 Q208.0938,240.4609 208.0938,240.8359 Q208.0938,241.3047 207.6875,241.5703 Q207.5,241.6953 206.9063,241.6953 L203.4219,250.0547 L201.7813,250.0547 L198.2969,241.6953 Q197.7031,241.6953 197.5156,241.5703 Q197.1094,241.3047 197.1094,240.8359 Q197.1094,240.4609 197.375,240.2266 Q197.6406,239.9922 198.25,239.9922 L200.5469,239.9922 Q201.1563,239.9922 201.4063,240.2266 Q201.6719,240.4609 201.6719,240.8359 Q201.6719,241.2266 201.4063,241.4609 Q201.1563,241.6953 200.5469,241.6953 L200.1406,241.6953 L202.5938,247.5703 Z " fill="#000000"/><text fill="#000000" font-family="sans-serif" font-size="12" font-style="italic" lengthAdjust="spacing" textLength="81" x="218.5" y="239.9629">&#171;value object&#187;</text><text fill="#000000" font-family="sans-serif" font-size="14" lengthAdjust="spacing" textLength="86" x="216" y="258.082">DeadlineDate</text><line style="stroke:#181818;stroke-width:0.5;" x1="188" x2="304" y1="266.5957" y2="266.5957"/></g><!--class OperationType--><g id="elem_OperationType"><rect codeLine="43" fill="#F5F5DC" height="68.543" id="OperationType" rx="2.5" ry="2.5" style="stroke:#181818;stroke-width:0.5;" width="127" x="2011.5" y="369.0137"/><ellipse cx="2026.5" cy="399.2852" fill="#ADD1B2" rx="11" ry="11" style="stroke:#181818;stroke-width:1.0;"/><path d="M2025.3594,400.082 L2025.3594,402.582 L2029.6875,402.582 L2029.6875,401.6602 Q2029.6875,401.0508 2029.9219,400.7852 Q2030.1719,400.5195 2030.5469,400.5195 Q2030.9219,400.5195 2031.1563,400.7852 Q2031.3906,401.0508 2031.3906,401.6602 L2031.3906,404.2852 L2023.3906,404.2852 Q2022.7656,404.2852 2022.5,404.0508 Q2022.25,403.8164 2022.25,403.4258 Q2022.25,403.0508 2022.5156,402.8164 Q2022.7813,402.582 2023.3906,402.582 L2023.6563,402.582 L2023.6563,395.9258 L2023.3906,395.9258 Q2022.7656,395.9258 2022.5,395.6914 Q2022.25,395.457 2022.25,395.0664 Q2022.25,394.6914 2022.5,394.457 Q2022.7656,394.2227 2023.3906,394.2227 L2031.0156,394.2227 L2031.0156,396.8164 Q2031.0156,397.4258 2030.7813,397.6914 Q2030.5625,397.9414 2030.1719,397.9414 Q2029.7969,397.9414 2029.5625,397.6914 Q2029.3281,397.4258 2029.3281,396.8164 L2029.3281,395.9258 L2025.3594,395.9258 L2025.3594,398.3789 L2026.8438,398.3789 Q2026.8438,397.7227 2026.9688,397.5352 Q2027.2344,397.1289 2027.7031,397.1289 Q2028.0781,397.1289 2028.3125,397.3945 Q2028.5469,397.6445 2028.5469,398.2539 L2028.5469,400.2227 Q2028.5469,400.7695 2028.4219,400.957 Q2028.1563,401.3477 2027.7031,401.3477 Q2027.2344,401.3477 2026.9688,400.9414 Q2026.8438,400.7539 2026.8438,400.082 L2025.3594,400.082 Z " fill="#000000"/><text fill="#000000" font-family="sans-serif" font-size="12" font-style="italic" lengthAdjust="spacing" textLength="43" x="2066.5" y="386.9629">&#171;entity&#187;</text><text fill="#000000" font-family="sans-serif" font-size="12" font-style="italic" lengthAdjust="spacing" textLength="35" x="2070.5" y="402.9238">&#171;root&#187;</text><text fill="#000000" font-family="sans-serif" font-size="14" lengthAdjust="spacing" textLength="95" x="2040.5" y="421.043">OperationType</text><line style="stroke:#181818;stroke-width:0.5;" x1="2012.5" x2="2137.5" y1="429.5566" y2="429.5566"/></g><!--class OperationTypeId--><g id="elem_OperationTypeId"><rect codeLine="44" fill="#F5F5DC" height="68.543" id="OperationTypeId" rx="2.5" ry="2.5" style="stroke:#181818;stroke-width:0.5;" width="138" x="2006" y="499.0137"/><ellipse cx="2021" cy="529.2852" fill="#FF8B40" rx="11" ry="11" style="stroke:#181818;stroke-width:1.0;"/><path d="M2021.5938,532.5508 L2024.0625,526.6758 L2023.6719,526.6758 Q2023.0625,526.6758 2022.7969,526.4414 Q2022.5313,526.207 2022.5313,525.8164 Q2022.5313,525.4414 2022.7969,525.207 Q2023.0625,524.9727 2023.6719,524.9727 L2025.9531,524.9727 Q2026.5625,524.9727 2026.8281,525.207 Q2027.0938,525.4414 2027.0938,525.8164 Q2027.0938,526.2852 2026.6875,526.5508 Q2026.5,526.6758 2025.9063,526.6758 L2022.4219,535.0352 L2020.7813,535.0352 L2017.2969,526.6758 Q2016.7031,526.6758 2016.5156,526.5508 Q2016.1094,526.2852 2016.1094,525.8164 Q2016.1094,525.4414 2016.375,525.207 Q2016.6406,524.9727 2017.25,524.9727 L2019.5469,524.9727 Q2020.1563,524.9727 2020.4063,525.207 Q2020.6719,525.4414 2020.6719,525.8164 Q2020.6719,526.207 2020.4063,526.4414 Q2020.1563,526.6758 2019.5469,526.6758 L2019.1406,526.6758 L2021.5938,532.5508 Z " fill="#000000"/><text fill="#000000" font-family="sans-serif" font-size="12" font-style="italic" lengthAdjust="spacing" textLength="81" x="2047.5" y="516.9629">&#171;value object&#187;</text><text fill="#000000" font-family="sans-serif" font-size="12" font-style="italic" lengthAdjust="spacing" textLength="61" x="2057.5" y="532.9238">&#171;identifier&#187;</text><text fill="#000000" font-family="sans-serif" font-size="14" lengthAdjust="spacing" textLength="106" x="2035" y="551.043">OperationTypeId</text><line style="stroke:#181818;stroke-width:0.5;" x1="2007" x2="2143" y1="559.5566" y2="559.5566"/></g><!--class OperationTypeName--><g id="elem_OperationTypeName"><rect codeLine="45" fill="#F5F5DC" height="52.582" id="OperationTypeName" rx="2.5" ry="2.5" style="stroke:#181818;stroke-width:0.5;" width="163" x="2179.5" y="507.0137"/><ellipse cx="2194.5" cy="529.3047" fill="#FF8B40" rx="11" ry="11" style="stroke:#181818;stroke-width:1.0;"/><path d="M2195.0938,532.5703 L2197.5625,526.6953 L2197.1719,526.6953 Q2196.5625,526.6953 2196.2969,526.4609 Q2196.0313,526.2266 2196.0313,525.8359 Q2196.0313,525.4609 2196.2969,525.2266 Q2196.5625,524.9922 2197.1719,524.9922 L2199.4531,524.9922 Q2200.0625,524.9922 2200.3281,525.2266 Q2200.5938,525.4609 2200.5938,525.8359 Q2200.5938,526.3047 2200.1875,526.5703 Q2200,526.6953 2199.4063,526.6953 L2195.9219,535.0547 L2194.2813,535.0547 L2190.7969,526.6953 Q2190.2031,526.6953 2190.0156,526.5703 Q2189.6094,526.3047 2189.6094,525.8359 Q2189.6094,525.4609 2189.875,525.2266 Q2190.1406,524.9922 2190.75,524.9922 L2193.0469,524.9922 Q2193.6563,524.9922 2193.9063,525.2266 Q2194.1719,525.4609 2194.1719,525.8359 Q2194.1719,526.2266 2193.9063,526.4609 Q2193.6563,526.6953 2193.0469,526.6953 L2192.6406,526.6953 L2195.0938,532.5703 Z " fill="#000000"/><text fill="#000000" font-family="sans-serif" font-size="12" font-style="italic" lengthAdjust="spacing" textLength="81" x="2233.5" y="524.9629">&#171;value object&#187;</text><text fill="#000000" font-family="sans-serif" font-size="14" lengthAdjust="spacing" textLength="131" x="2208.5" y="543.082">OperationTypeName</text><line style="stroke:#181818;stroke-width:0.5;" x1="2180.5" x2="2341.5" y1="551.5957" y2="551.5957"/></g><!--class RequiredStaff--><g id="elem_RequiredStaff"><rect codeLine="46" fill="#F5F5DC" height="52.582" id="RequiredStaff" rx="2.5" ry="2.5" style="stroke:#181818;stroke-width:0.5;" width="119" x="2377.5" y="507.0137"/><ellipse cx="2392.5" cy="529.3047" fill="#ADD1B2" rx="11" ry="11" style="stroke:#181818;stroke-width:1.0;"/><path d="M2395.2656,525.1797 Q2395.4219,524.9609 2395.6094,524.8516 Q2395.7969,524.7422 2396.0156,524.7422 Q2396.3906,524.7422 2396.625,525.0078 Q2396.8594,525.2578 2396.8594,525.8672 L2396.8594,527.3203 Q2396.8594,527.9297 2396.625,528.1953 Q2396.3906,528.4609 2396.0156,528.4609 Q2395.6719,528.4609 2395.4688,528.2578 Q2395.2656,528.0703 2395.1563,527.5547 Q2395.1094,527.1953 2394.9219,527.0078 Q2394.5938,526.6328 2393.9844,526.4141 Q2393.375,526.1953 2392.75,526.1953 Q2391.9844,526.1953 2391.3438,526.5234 Q2390.7188,526.8516 2390.2188,527.6016 Q2389.7344,528.3516 2389.7344,529.3828 L2389.7344,530.4766 Q2389.7344,531.7109 2390.625,532.5391 Q2391.5156,533.3516 2393.1094,533.3516 Q2394.0469,533.3516 2394.7031,533.1016 Q2395.0938,532.9453 2395.5156,532.5078 Q2395.7813,532.2422 2395.9219,532.1641 Q2396.0781,532.0859 2396.2813,532.0859 Q2396.6094,532.0859 2396.8594,532.3516 Q2397.125,532.6016 2397.125,532.9453 Q2397.125,533.2891 2396.7813,533.6953 Q2396.2813,534.2734 2395.4844,534.6016 Q2394.4063,535.0547 2393.1094,535.0547 Q2391.5938,535.0547 2390.3906,534.4297 Q2389.4063,533.9297 2388.7188,532.8672 Q2388.0313,531.7891 2388.0313,530.5078 L2388.0313,529.3516 Q2388.0313,528.0234 2388.6406,526.8828 Q2389.2656,525.7266 2390.3594,525.1172 Q2391.4531,524.4922 2392.6875,524.4922 Q2393.4219,524.4922 2394.0625,524.6641 Q2394.7188,524.8203 2395.2656,525.1797 Z " fill="#000000"/><text fill="#000000" font-family="sans-serif" font-size="12" font-style="italic" lengthAdjust="spacing" textLength="43" x="2428.5" y="524.9629">&#171;entity&#187;</text><text fill="#000000" font-family="sans-serif" font-size="14" lengthAdjust="spacing" textLength="87" x="2406.5" y="543.082">RequiredStaff</text><line style="stroke:#181818;stroke-width:0.5;" x1="2378.5" x2="2495.5" y1="551.5957" y2="551.5957"/></g><!--class NumberStaff--><g id="elem_NumberStaff"><rect codeLine="47" fill="#F5F5DC" height="52.582" id="NumberStaff" rx="2.5" ry="2.5" style="stroke:#181818;stroke-width:0.5;" width="110" x="2096" y="660.0137"/><ellipse cx="2111" cy="682.3047" fill="#FF8B40" rx="11" ry="11" style="stroke:#181818;stroke-width:1.0;"/><path d="M2111.5938,685.5703 L2114.0625,679.6953 L2113.6719,679.6953 Q2113.0625,679.6953 2112.7969,679.4609 Q2112.5313,679.2266 2112.5313,678.8359 Q2112.5313,678.4609 2112.7969,678.2266 Q2113.0625,677.9922 2113.6719,677.9922 L2115.9531,677.9922 Q2116.5625,677.9922 2116.8281,678.2266 Q2117.0938,678.4609 2117.0938,678.8359 Q2117.0938,679.3047 2116.6875,679.5703 Q2116.5,679.6953 2115.9063,679.6953 L2112.4219,688.0547 L2110.7813,688.0547 L2107.2969,679.6953 Q2106.7031,679.6953 2106.5156,679.5703 Q2106.1094,679.3047 2106.1094,678.8359 Q2106.1094,678.4609 2106.375,678.2266 Q2106.6406,677.9922 2107.25,677.9922 L2109.5469,677.9922 Q2110.1563,677.9922 2110.4063,678.2266 Q2110.6719,678.4609 2110.6719,678.8359 Q2110.6719,679.2266 2110.4063,679.4609 Q2110.1563,679.6953 2109.5469,679.6953 L2109.1406,679.6953 L2111.5938,685.5703 Z " fill="#000000"/><text fill="#000000" font-family="sans-serif" font-size="12" font-style="italic" lengthAdjust="spacing" textLength="81" x="2123.5" y="677.9629">&#171;value object&#187;</text><text fill="#000000" font-family="sans-serif" font-size="14" lengthAdjust="spacing" textLength="78" x="2125" y="696.082">NumberStaff</text><line style="stroke:#181818;stroke-width:0.5;" x1="2097" x2="2205" y1="704.5957" y2="704.5957"/></g><!--class EstimatedDuration--><g id="elem_EstimatedDuration"><rect codeLine="49" fill="#F5F5DC" height="52.582" id="EstimatedDuration" rx="2.5" ry="2.5" style="stroke:#181818;stroke-width:0.5;" width="148" x="2386" y="660.0137"/><ellipse cx="2401" cy="682.3047" fill="#FF8B40" rx="11" ry="11" style="stroke:#181818;stroke-width:1.0;"/><path d="M2401.5938,685.5703 L2404.0625,679.6953 L2403.6719,679.6953 Q2403.0625,679.6953 2402.7969,679.4609 Q2402.5313,679.2266 2402.5313,678.8359 Q2402.5313,678.4609 2402.7969,678.2266 Q2403.0625,677.9922 2403.6719,677.9922 L2405.9531,677.9922 Q2406.5625,677.9922 2406.8281,678.2266 Q2407.0938,678.4609 2407.0938,678.8359 Q2407.0938,679.3047 2406.6875,679.5703 Q2406.5,679.6953 2405.9063,679.6953 L2402.4219,688.0547 L2400.7813,688.0547 L2397.2969,679.6953 Q2396.7031,679.6953 2396.5156,679.5703 Q2396.1094,679.3047 2396.1094,678.8359 Q2396.1094,678.4609 2396.375,678.2266 Q2396.6406,677.9922 2397.25,677.9922 L2399.5469,677.9922 Q2400.1563,677.9922 2400.4063,678.2266 Q2400.6719,678.4609 2400.6719,678.8359 Q2400.6719,679.2266 2400.4063,679.4609 Q2400.1563,679.6953 2399.5469,679.6953 L2399.1406,679.6953 L2401.5938,685.5703 Z " fill="#000000"/><text fill="#000000" font-family="sans-serif" font-size="12" font-style="italic" lengthAdjust="spacing" textLength="81" x="2432.5" y="677.9629">&#171;value object&#187;</text><text fill="#000000" font-family="sans-serif" font-size="14" lengthAdjust="spacing" textLength="116" x="2415" y="696.082">EstimatedDuration</text><line style="stroke:#181818;stroke-width:0.5;" x1="2387" x2="2533" y1="704.5957" y2="704.5957"/></g><!--class Phase--><g id="elem_Phase"><rect codeLine="50" fill="#F5F5DC" height="52.582" id="Phase" rx="2.5" ry="2.5" style="stroke:#181818;stroke-width:0.5;" width="109" x="1832.5" y="660.0137"/><ellipse cx="1847.5" cy="682.3047" fill="#FF8B40" rx="11" ry="11" style="stroke:#181818;stroke-width:1.0;"/><path d="M1848.0938,685.5703 L1850.5625,679.6953 L1850.1719,679.6953 Q1849.5625,679.6953 1849.2969,679.4609 Q1849.0313,679.2266 1849.0313,678.8359 Q1849.0313,678.4609 1849.2969,678.2266 Q1849.5625,677.9922 1850.1719,677.9922 L1852.4531,677.9922 Q1853.0625,677.9922 1853.3281,678.2266 Q1853.5938,678.4609 1853.5938,678.8359 Q1853.5938,679.3047 1853.1875,679.5703 Q1853,679.6953 1852.4063,679.6953 L1848.9219,688.0547 L1847.2813,688.0547 L1843.7969,679.6953 Q1843.2031,679.6953 1843.0156,679.5703 Q1842.6094,679.3047 1842.6094,678.8359 Q1842.6094,678.4609 1842.875,678.2266 Q1843.1406,677.9922 1843.75,677.9922 L1846.0469,677.9922 Q1846.6563,677.9922 1846.9063,678.2266 Q1847.1719,678.4609 1847.1719,678.8359 Q1847.1719,679.2266 1846.9063,679.4609 Q1846.6563,679.6953 1846.0469,679.6953 L1845.6406,679.6953 L1848.0938,685.5703 Z " fill="#000000"/><text fill="#000000" font-family="sans-serif" font-size="12" font-style="italic" lengthAdjust="spacing" textLength="81" x="1859.5" y="677.9629">&#171;value object&#187;</text><text fill="#000000" font-family="sans-serif" font-size="14" lengthAdjust="spacing" textLength="40" x="1880" y="696.082">Phase</text><line style="stroke:#181818;stroke-width:0.5;" x1="1833.5" x2="1940.5" y1="704.5957" y2="704.5957"/></g><!--class PhaseDuration--><g id="elem_PhaseDuration"><rect codeLine="51" fill="#F5F5DC" height="52.582" id="PhaseDuration" rx="2.5" ry="2.5" style="stroke:#181818;stroke-width:0.5;" width="126" x="1824" y="808.0137"/><ellipse cx="1839" cy="830.3047" fill="#FF8B40" rx="11" ry="11" style="stroke:#181818;stroke-width:1.0;"/><path d="M1839.5938,833.5703 L1842.0625,827.6953 L1841.6719,827.6953 Q1841.0625,827.6953 1840.7969,827.4609 Q1840.5313,827.2266 1840.5313,826.8359 Q1840.5313,826.4609 1840.7969,826.2266 Q1841.0625,825.9922 1841.6719,825.9922 L1843.9531,825.9922 Q1844.5625,825.9922 1844.8281,826.2266 Q1845.0938,826.4609 1845.0938,826.8359 Q1845.0938,827.3047 1844.6875,827.5703 Q1844.5,827.6953 1843.9063,827.6953 L1840.4219,836.0547 L1838.7813,836.0547 L1835.2969,827.6953 Q1834.7031,827.6953 1834.5156,827.5703 Q1834.1094,827.3047 1834.1094,826.8359 Q1834.1094,826.4609 1834.375,826.2266 Q1834.6406,825.9922 1835.25,825.9922 L1837.5469,825.9922 Q1838.1563,825.9922 1838.4063,826.2266 Q1838.6719,826.4609 1838.6719,826.8359 Q1838.6719,827.2266 1838.4063,827.4609 Q1838.1563,827.6953 1837.5469,827.6953 L1837.1406,827.6953 L1839.5938,833.5703 Z " fill="#000000"/><text fill="#000000" font-family="sans-serif" font-size="12" font-style="italic" lengthAdjust="spacing" textLength="81" x="1859.5" y="825.9629">&#171;value object&#187;</text><text fill="#000000" font-family="sans-serif" font-size="14" lengthAdjust="spacing" textLength="94" x="1853" y="844.082">PhaseDuration</text><line style="stroke:#181818;stroke-width:0.5;" x1="1825" x2="1949" y1="852.5957" y2="852.5957"/></g><!--class PhaseDescription--><g id="elem_PhaseDescription"><rect codeLine="52" fill="#F5F5DC" height="52.582" id="PhaseDescription" rx="2.5" ry="2.5" style="stroke:#181818;stroke-width:0.5;" width="143" x="1985.5" y="808.0137"/><ellipse cx="2000.5" cy="830.3047" fill="#FF8B40" rx="11" ry="11" style="stroke:#181818;stroke-width:1.0;"/><path d="M2001.0938,833.5703 L2003.5625,827.6953 L2003.1719,827.6953 Q2002.5625,827.6953 2002.2969,827.4609 Q2002.0313,827.2266 2002.0313,826.8359 Q2002.0313,826.4609 2002.2969,826.2266 Q2002.5625,825.9922 2003.1719,825.9922 L2005.4531,825.9922 Q2006.0625,825.9922 2006.3281,826.2266 Q2006.5938,826.4609 2006.5938,826.8359 Q2006.5938,827.3047 2006.1875,827.5703 Q2006,827.6953 2005.4063,827.6953 L2001.9219,836.0547 L2000.2813,836.0547 L1996.7969,827.6953 Q1996.2031,827.6953 1996.0156,827.5703 Q1995.6094,827.3047 1995.6094,826.8359 Q1995.6094,826.4609 1995.875,826.2266 Q1996.1406,825.9922 1996.75,825.9922 L1999.0469,825.9922 Q1999.6563,825.9922 1999.9063,826.2266 Q2000.1719,826.4609 2000.1719,826.8359 Q2000.1719,827.2266 1999.9063,827.4609 Q1999.6563,827.6953 1999.0469,827.6953 L1998.6406,827.6953 L2001.0938,833.5703 Z " fill="#000000"/><text fill="#000000" font-family="sans-serif" font-size="12" font-style="italic" lengthAdjust="spacing" textLength="81" x="2029.5" y="825.9629">&#171;value object&#187;</text><text fill="#000000" font-family="sans-serif" font-size="14" lengthAdjust="spacing" textLength="111" x="2014.5" y="844.082">PhaseDescription</text><line style="stroke:#181818;stroke-width:0.5;" x1="1986.5" x2="2127.5" y1="852.5957" y2="852.5957"/></g><!--class IsActive--><g id="elem_IsActive"><rect codeLine="53" fill="#F5F5DC" height="52.582" id="IsActive" rx="2.5" ry="2.5" style="stroke:#181818;stroke-width:0.5;" width="109" x="1861.5" y="507.0137"/><ellipse cx="1876.5" cy="529.3047" fill="#FF8B40" rx="11" ry="11" style="stroke:#181818;stroke-width:1.0;"/><path d="M1877.0938,532.5703 L1879.5625,526.6953 L1879.1719,526.6953 Q1878.5625,526.6953 1878.2969,526.4609 Q1878.0313,526.2266 1878.0313,525.8359 Q1878.0313,525.4609 1878.2969,525.2266 Q1878.5625,524.9922 1879.1719,524.9922 L1881.4531,524.9922 Q1882.0625,524.9922 1882.3281,525.2266 Q1882.5938,525.4609 1882.5938,525.8359 Q1882.5938,526.3047 1882.1875,526.5703 Q1882,526.6953 1881.4063,526.6953 L1877.9219,535.0547 L1876.2813,535.0547 L1872.7969,526.6953 Q1872.2031,526.6953 1872.0156,526.5703 Q1871.6094,526.3047 1871.6094,525.8359 Q1871.6094,525.4609 1871.875,525.2266 Q1872.1406,524.9922 1872.75,524.9922 L1875.0469,524.9922 Q1875.6563,524.9922 1875.9063,525.2266 Q1876.1719,525.4609 1876.1719,525.8359 Q1876.1719,526.2266 1875.9063,526.4609 Q1875.6563,526.6953 1875.0469,526.6953 L1874.6406,526.6953 L1877.0938,532.5703 Z " fill="#000000"/><text fill="#000000" font-family="sans-serif" font-size="12" font-style="italic" lengthAdjust="spacing" textLength="81" x="1888.5" y="524.9629">&#171;value object&#187;</text><text fill="#000000" font-family="sans-serif" font-size="14" lengthAdjust="spacing" textLength="48" x="1905" y="543.082">IsActive</text><line style="stroke:#181818;stroke-width:0.5;" x1="1862.5" x2="1969.5" y1="551.5957" y2="551.5957"/></g><!--class Function--><g id="elem_Function"><rect codeLine="54" fill="#F5F5DC" height="52.582" id="Function" rx="2.5" ry="2.5" style="stroke:#181818;stroke-width:0.5;" width="109" x="2241.5" y="660.0137"/><ellipse cx="2256.5" cy="682.3047" fill="#FF8B40" rx="11" ry="11" style="stroke:#181818;stroke-width:1.0;"/><path d="M2257.0938,685.5703 L2259.5625,679.6953 L2259.1719,679.6953 Q2258.5625,679.6953 2258.2969,679.4609 Q2258.0313,679.2266 2258.0313,678.8359 Q2258.0313,678.4609 2258.2969,678.2266 Q2258.5625,677.9922 2259.1719,677.9922 L2261.4531,677.9922 Q2262.0625,677.9922 2262.3281,678.2266 Q2262.5938,678.4609 2262.5938,678.8359 Q2262.5938,679.3047 2262.1875,679.5703 Q2262,679.6953 2261.4063,679.6953 L2257.9219,688.0547 L2256.2813,688.0547 L2252.7969,679.6953 Q2252.2031,679.6953 2252.0156,679.5703 Q2251.6094,679.3047 2251.6094,678.8359 Q2251.6094,678.4609 2251.875,678.2266 Q2252.1406,677.9922 2252.75,677.9922 L2255.0469,677.9922 Q2255.6563,677.9922 2255.9063,678.2266 Q2256.1719,678.4609 2256.1719,678.8359 Q2256.1719,679.2266 2255.9063,679.4609 Q2255.6563,679.6953 2255.0469,679.6953 L2254.6406,679.6953 L2257.0938,685.5703 Z " fill="#000000"/><text fill="#000000" font-family="sans-serif" font-size="12" font-style="italic" lengthAdjust="spacing" textLength="81" x="2268.5" y="677.9629">&#171;value object&#187;</text><text fill="#000000" font-family="sans-serif" font-size="14" lengthAdjust="spacing" textLength="55" x="2281.5" y="696.082">Function</text><line style="stroke:#181818;stroke-width:0.5;" x1="2242.5" x2="2349.5" y1="704.5957" y2="704.5957"/></g><!--class Specialization--><g id="elem_Specialization"><rect codeLine="59" fill="#F5F5DC" height="68.543" id="Specialization" rx="2.5" ry="2.5" style="stroke:#181818;stroke-width:0.5;" width="118" x="2612" y="652.0137"/><ellipse cx="2627" cy="682.2852" fill="#ADD1B2" rx="11" ry="11" style="stroke:#181818;stroke-width:1.0;"/><path d="M2625.8594,683.082 L2625.8594,685.582 L2630.1875,685.582 L2630.1875,684.6602 Q2630.1875,684.0508 2630.4219,683.7852 Q2630.6719,683.5195 2631.0469,683.5195 Q2631.4219,683.5195 2631.6563,683.7852 Q2631.8906,684.0508 2631.8906,684.6602 L2631.8906,687.2852 L2623.8906,687.2852 Q2623.2656,687.2852 2623,687.0508 Q2622.75,686.8164 2622.75,686.4258 Q2622.75,686.0508 2623.0156,685.8164 Q2623.2813,685.582 2623.8906,685.582 L2624.1563,685.582 L2624.1563,678.9258 L2623.8906,678.9258 Q2623.2656,678.9258 2623,678.6914 Q2622.75,678.457 2622.75,678.0664 Q2622.75,677.6914 2623,677.457 Q2623.2656,677.2227 2623.8906,677.2227 L2631.5156,677.2227 L2631.5156,679.8164 Q2631.5156,680.4258 2631.2813,680.6914 Q2631.0625,680.9414 2630.6719,680.9414 Q2630.2969,680.9414 2630.0625,680.6914 Q2629.8281,680.4258 2629.8281,679.8164 L2629.8281,678.9258 L2625.8594,678.9258 L2625.8594,681.3789 L2627.3438,681.3789 Q2627.3438,680.7227 2627.4688,680.5352 Q2627.7344,680.1289 2628.2031,680.1289 Q2628.5781,680.1289 2628.8125,680.3945 Q2629.0469,680.6445 2629.0469,681.2539 L2629.0469,683.2227 Q2629.0469,683.7695 2628.9219,683.957 Q2628.6563,684.3477 2628.2031,684.3477 Q2627.7344,684.3477 2627.4688,683.9414 Q2627.3438,683.7539 2627.3438,683.082 L2625.8594,683.082 Z " fill="#000000"/><text fill="#000000" font-family="sans-serif" font-size="12" font-style="italic" lengthAdjust="spacing" textLength="43" x="2662.5" y="669.9629">&#171;entity&#187;</text><text fill="#000000" font-family="sans-serif" font-size="12" font-style="italic" lengthAdjust="spacing" textLength="35" x="2666.5" y="685.9238">&#171;root&#187;</text><text fill="#000000" font-family="sans-serif" font-size="14" lengthAdjust="spacing" textLength="86" x="2641" y="704.043">Specialization</text><line style="stroke:#181818;stroke-width:0.5;" x1="2613" x2="2729" y1="712.5566" y2="712.5566"/></g><!--class SpecializationDenomination--><g id="elem_SpecializationDenomination"><rect codeLine="60" fill="#F5F5DC" height="68.543" id="SpecializationDenomination" rx="2.5" ry="2.5" style="stroke:#181818;stroke-width:0.5;" width="205" x="2590.5" y="800.0137"/><ellipse cx="2605.5" cy="830.2852" fill="#FF8B40" rx="11" ry="11" style="stroke:#181818;stroke-width:1.0;"/><path d="M2606.0938,833.5508 L2608.5625,827.6758 L2608.1719,827.6758 Q2607.5625,827.6758 2607.2969,827.4414 Q2607.0313,827.207 2607.0313,826.8164 Q2607.0313,826.4414 2607.2969,826.207 Q2607.5625,825.9727 2608.1719,825.9727 L2610.4531,825.9727 Q2611.0625,825.9727 2611.3281,826.207 Q2611.5938,826.4414 2611.5938,826.8164 Q2611.5938,827.2852 2611.1875,827.5508 Q2611,827.6758 2610.4063,827.6758 L2606.9219,836.0352 L2605.2813,836.0352 L2601.7969,827.6758 Q2601.2031,827.6758 2601.0156,827.5508 Q2600.6094,827.2852 2600.6094,826.8164 Q2600.6094,826.4414 2600.875,826.207 Q2601.1406,825.9727 2601.75,825.9727 L2604.0469,825.9727 Q2604.6563,825.9727 2604.9063,826.207 Q2605.1719,826.4414 2605.1719,826.8164 Q2605.1719,827.207 2604.9063,827.4414 Q2604.6563,827.6758 2604.0469,827.6758 L2603.6406,827.6758 L2606.0938,833.5508 Z " fill="#000000"/><text fill="#000000" font-family="sans-serif" font-size="12" font-style="italic" lengthAdjust="spacing" textLength="81" x="2665.5" y="817.9629">&#171;value object&#187;</text><text fill="#000000" font-family="sans-serif" font-size="12" font-style="italic" lengthAdjust="spacing" textLength="61" x="2675.5" y="833.9238">&#171;identifier&#187;</text><text fill="#000000" font-family="sans-serif" font-size="14" lengthAdjust="spacing" textLength="173" x="2619.5" y="852.043">SpecializationDenomination</text><line style="stroke:#181818;stroke-width:0.5;" x1="2591.5" x2="2794.5" y1="860.5566" y2="860.5566"/></g><!--link Name to FirstName--><g id="link_Name_FirstName"><path codeLine="64" d="M1569,275.1237 C1569,303.3637 1569,342.5437 1569,370.8237 " fill="none" id="Name-to-FirstName" style="stroke:#222222;stroke-width:1.0;"/><polygon fill="#222222" points="1569,376.8237,1573,367.8237,1569,371.8237,1565,367.8237,1569,376.8237" style="stroke:#222222;stroke-width:1.0;"/></g><!--link Name to LastName--><g id="link_Name_LastName"><path codeLine="65" d="M1623.56,248.5137 C1635.21,248.5137 1640.85,248.5137 1652.5,248.5137 " fill="none" id="Name-to-LastName" style="stroke:#222222;stroke-width:1.0;"/><polygon fill="#222222" points="1658.5,248.5137,1649.5,244.5137,1653.5,248.5137,1649.5,252.5137,1658.5,248.5137" style="stroke:#222222;stroke-width:1.0;"/></g><!--link Name to FullName--><g id="link_Name_FullName"><path codeLine="66" d="M1594.16,275.2137 C1608.06,289.4937 1625.59,307.6437 1641,324.0137 C1657.48,341.5137 1671.7521,357.0457 1685.7821,372.4657 " fill="none" id="Name-to-FullName" style="stroke:#222222;stroke-width:1.0;"/><polygon fill="#222222" points="1689.82,376.9037,1686.7218,367.5548,1686.4551,373.2054,1680.8045,372.9387,1689.82,376.9037" style="stroke:#222222;stroke-width:1.0;"/></g><!--link OperationType to OperationTypeId--><g id="link_OperationType_OperationTypeId"><path codeLine="69" d="M2075,438.1437 C2075,456.8137 2075,473.9637 2075,492.6637 " fill="none" id="OperationType-to-OperationTypeId" style="stroke:#222222;stroke-width:1.0;"/><polygon fill="#222222" points="2075,498.6637,2079,489.6637,2075,493.6637,2071,489.6637,2075,498.6637" style="stroke:#222222;stroke-width:1.0;"/><text fill="#000000" font-family="sans-serif" font-size="13" lengthAdjust="spacing" textLength="7" x="2067.3547" y="487.7683">1</text></g><!--link OperationType to IsActive--><g id="link_OperationType_IsActive"><path codeLine="70" d="M2033.22,438.1437 C2006.45,459.7037 1976.9133,483.4707 1952.3733,503.2307 " fill="none" id="OperationType-to-IsActive" style="stroke:#222222;stroke-width:1.0;"/><polygon fill="#222222" points="1947.7,506.9937,1957.2186,504.4647,1951.5944,503.8578,1952.2013,498.2336,1947.7,506.9937" style="stroke:#222222;stroke-width:1.0;"/><text fill="#000000" font-family="sans-serif" font-size="13" lengthAdjust="spacing" textLength="7" x="1947.5738" y="495.5723">1</text></g><!--link OperationType to OperationTypeName--><g id="link_OperationType_OperationTypeName"><path codeLine="71" d="M2123.87,438.1437 C2155.19,459.7037 2190.2675,483.8319 2218.9775,503.5919 " fill="none" id="OperationType-to-OperationTypeName" style="stroke:#222222;stroke-width:1.0;"/><polygon fill="#222222" points="2223.92,506.9937,2218.7741,498.5961,2219.8013,504.1589,2214.2384,505.1861,2223.92,506.9937" style="stroke:#222222;stroke-width:1.0;"/><text fill="#000000" font-family="sans-serif" font-size="13" lengthAdjust="spacing" textLength="7" x="2207.0286" y="495.5723">1</text></g><!--link OperationType to RequiredStaff--><g id="link_OperationType_RequiredStaff"><path codeLine="72" d="M2138.69,423.8237 C2196.83,441.8737 2284.9,470.2937 2360,499.0137 C2366.4,501.4637 2367.511,501.8372 2374.091,504.5772 " fill="none" id="OperationType-to-RequiredStaff" style="stroke:#222222;stroke-width:1.0;"/><polygon fill="#222222" points="2379.63,506.8837,2372.8592,499.7313,2375.0142,504.9616,2369.7839,507.1166,2379.63,506.8837" style="stroke:#222222;stroke-width:1.0;"/><text fill="#000000" font-family="sans-serif" font-size="13" lengthAdjust="spacing" textLength="20" x="2349.314" y="498.587">1..*</text></g><!--link RequiredStaff to Specialization--><g id="link_RequiredStaff_Specialization"><path codeLine="73" d="M2477.04,560.1337 C2498.66,573.9837 2525.81,591.4037 2550,607.0137 C2572.72,621.6737 2592.7786,634.6648 2614.1886,648.5748 " fill="none" id="RequiredStaff-to-Specialization" style="stroke:#222222;stroke-width:1.0;"/><polygon fill="#222222" points="2619.22,651.8437,2613.8522,643.5861,2615.0272,649.1196,2609.4937,650.2946,2619.22,651.8437" style="stroke:#222222;stroke-width:1.0;"/><text fill="#000000" font-family="sans-serif" font-size="13" lengthAdjust="spacing" textLength="7" x="2601.6823" y="640.714">1</text></g><!--link RequiredStaff to Function--><g id="link_RequiredStaff_Function"><path codeLine="74" d="M2412.74,560.3237 C2399.75,574.1537 2383.49,591.5037 2369,607.0137 C2352.61,624.5637 2338.2949,639.959 2324.0549,655.279 " fill="none" id="RequiredStaff-to-Function" style="stroke:#222222;stroke-width:1.0;"/><polygon fill="#222222" points="2319.97,659.6737,2329.0272,655.8049,2323.3741,656.0114,2323.1675,650.3583,2319.97,659.6737" style="stroke:#222222;stroke-width:1.0;"/><text fill="#000000" font-family="sans-serif" font-size="13" lengthAdjust="spacing" textLength="7" x="2317.7037" y="648.6116">1</text></g><!--link RequiredStaff to NumberStaff--><g id="link_RequiredStaff_NumberStaff"><path codeLine="75" d="M2380.57,560.0637 C2373.69,562.8837 2366.72,565.6037 2360,568.0137 C2300.82,589.2737 2277.59,574.1237 2224,607.0137 C2201.95,620.5437 2185.9978,637.7753 2172.6578,655.0453 " fill="none" id="RequiredStaff-to-NumberStaff" style="stroke:#222222;stroke-width:1.0;"/><polygon fill="#222222" points="2168.99,659.7937,2177.6573,655.1163,2172.0465,655.8367,2171.3262,650.2259,2168.99,659.7937" style="stroke:#222222;stroke-width:1.0;"/><text fill="#000000" font-family="sans-serif" font-size="13" lengthAdjust="spacing" textLength="7" x="2165.3408" y="648.7593">1</text></g><!--link OperationType to EstimatedDuration--><g id="link_OperationType_EstimatedDuration"><path codeLine="76" d="M2138.65,408.6637 C2248.76,417.3137 2467.53,441.4737 2514,499.0137 C2552.55,546.7437 2512.5303,616.0295 2484.1303,654.8895 " fill="none" id="OperationType-to-EstimatedDuration" style="stroke:#222222;stroke-width:1.0;"/><polygon fill="#222222" points="2480.59,659.7337,2489.1299,654.8275,2483.5402,655.6968,2482.671,650.1072,2480.59,659.7337" style="stroke:#222222;stroke-width:1.0;"/><text fill="#000000" font-family="sans-serif" font-size="13" lengthAdjust="spacing" textLength="7" x="2477.5421" y="648.6855">1</text></g><!--link OperationType to Phase--><g id="link_OperationType_Phase"><path codeLine="77" d="M2011.39,411.2737 C1956.74,420.8137 1881.07,443.7937 1844,499.0137 C1810.48,548.9437 1842.6967,616.3991 1866.3067,654.6191 " fill="none" id="OperationType-to-Phase" style="stroke:#222222;stroke-width:1.0;"/><polygon fill="#222222" points="1869.46,659.7237,1868.1331,649.9646,1866.8323,655.4699,1861.327,654.169,1869.46,659.7237" style="stroke:#222222;stroke-width:1.0;"/><text fill="#000000" font-family="sans-serif" font-size="13" lengthAdjust="spacing" textLength="7" x="1857.5945" y="648.6732">3</text></g><!--link Phase to PhaseDuration--><g id="link_Phase_PhaseDuration"><path codeLine="78" d="M1887,713.2837 C1887,739.9637 1887,775.4137 1887,802.0037 " fill="none" id="Phase-to-PhaseDuration" style="stroke:#222222;stroke-width:1.0;"/><polygon fill="#222222" points="1887,808.0037,1891,799.0037,1887,803.0037,1883,799.0037,1887,808.0037" style="stroke:#222222;stroke-width:1.0;"/><text fill="#000000" font-family="sans-serif" font-size="13" lengthAdjust="spacing" textLength="7" x="1879.1469" y="796.5847">1</text></g><!--link Phase to PhaseDescription--><g id="link_Phase_PhaseDescription"><path codeLine="79" d="M1917,713.2837 C1948.08,739.9637 1991.7883,777.5044 2022.7483,804.0944 " fill="none" id="Phase-to-PhaseDescription" style="stroke:#222222;stroke-width:1.0;"/><polygon fill="#222222" points="2027.3,808.0037,2023.0786,799.1054,2023.5069,804.746,2017.8663,805.1743,2027.3,808.0037" style="stroke:#222222;stroke-width:1.0;"/><text fill="#000000" font-family="sans-serif" font-size="13" lengthAdjust="spacing" textLength="7" x="2012.2075" y="796.5847">1</text></g><!--link OperationRequest to OperationRequestId--><g id="link_OperationRequest_OperationRequestId"><path codeLine="81" d="M399.2,77.5137 C410.86,77.5137 416.52,77.5137 428.18,77.5137 " fill="none" id="OperationRequest-to-OperationRequestId" style="stroke:#222222;stroke-width:1.0;"/><polygon fill="#222222" points="434.18,77.5137,425.18,73.5137,429.18,77.5137,425.18,81.5137,434.18,77.5137" style="stroke:#222222;stroke-width:1.0;"/><text fill="#000000" font-family="sans-serif" font-size="13" lengthAdjust="spacing" textLength="7" x="419.4989" y="73.7929">1</text></g><!--link OperationRequest to Priority--><g id="link_OperationRequest_Priority"><path codeLine="82" d="M339,112.3037 C352.36,144.5737 369.9136,186.9605 382.0436,216.2405 " fill="none" id="OperationRequest-to-Priority" style="stroke:#222222;stroke-width:1.0;"/><polygon fill="#222222" points="384.34,221.7837,384.5908,211.938,382.4263,217.1644,377.2,214.9999,384.34,221.7837" style="stroke:#222222;stroke-width:1.0;"/><text fill="#000000" font-family="sans-serif" font-size="13" lengthAdjust="spacing" textLength="7" x="374.0655" y="210.747">1</text></g><!--link OperationRequest to Patient--><g id="link_OperationRequest_Patient"><path codeLine="83" d="M399.07,106.2937 C405.11,108.3137 411.14,110.2437 417,112.0137 C610.67,170.5037 841.9824,219.9479 933.0424,238.6279 " fill="none" id="OperationRequest-to-Patient" style="stroke:#222222;stroke-width:1.0;"/><polygon fill="#222222" points="938.92,239.8337,930.9074,234.1067,934.022,238.8289,929.2998,241.9435,938.92,239.8337" style="stroke:#222222;stroke-width:1.0;"/><text fill="#000000" font-family="sans-serif" font-size="13" lengthAdjust="spacing" textLength="50" x="586" y="157.042">made for</text><text fill="#000000" font-family="sans-serif" font-size="13" lengthAdjust="spacing" textLength="7" x="923.9938" y="233.6584">1</text></g><!--link OperationRequest to Doctor--><g id="link_OperationRequest_Doctor"><path codeLine="84" d="M399.01,107.6537 C405.03,109.3537 411.08,110.8437 417,112.0137 C715.25,171.0537 1506.18,45.4937 1784,169.0137 C1805.46,178.5537 1820.2828,192.39 1833.8328,209.04 " fill="none" id="OperationRequest-to-Doctor" style="stroke:#222222;stroke-width:1.0;"/><polygon fill="#222222" points="1837.62,213.6937,1835.0416,204.1883,1834.464,209.8156,1828.8367,209.238,1837.62,213.6937" style="stroke:#222222;stroke-width:1.0;"/><text fill="#000000" font-family="sans-serif" font-size="13" lengthAdjust="spacing" textLength="64" x="1750" y="157.042">registed by</text><text fill="#000000" font-family="sans-serif" font-size="13" lengthAdjust="spacing" textLength="7" x="1825.664" y="202.8038">1</text></g><!--link OperationRequest to OperationType--><g id="link_OperationRequest_OperationType"><path codeLine="85" d="M399.24,107.8537 C405.18,109.4937 411.15,110.9137 417,112.0137 C724.17,169.5837 1514.23,93.8037 1823,142.0137 C1864.68,148.5237 1879.86,144.2337 1914,169.0137 C1986.73,221.7937 2035.0898,312.5348 2058.2998,363.4148 " fill="none" id="OperationRequest-to-OperationType" style="stroke:#222222;stroke-width:1.0;"/><polygon fill="#222222" points="2060.79,368.8737,2060.694,359.0253,2058.7149,364.3246,2053.4155,362.3455,2060.79,368.8737" style="stroke:#222222;stroke-width:1.0;"/><text fill="#000000" font-family="sans-serif" font-size="13" lengthAdjust="spacing" textLength="59" x="2030" y="254.042">defined by</text><text fill="#000000" font-family="sans-serif" font-size="13" lengthAdjust="spacing" textLength="7" x="2050.414" y="357.7497">1</text></g><!--link OperationRequest to DateOfRequest--><g id="link_OperationRequest_DateOfRequest"><path codeLine="86" d="M259.06,112.2037 C230.39,127.9837 197.03,147.9437 169,169.0137 C147.89,184.8837 130.5828,201.3324 114.9128,217.5224 " fill="none" id="OperationRequest-to-DateOfRequest" style="stroke:#222222;stroke-width:1.0;"/><polygon fill="#222222" points="110.74,221.8337,119.8735,218.1486,114.2174,218.2409,114.1251,212.5848,110.74,221.8337" style="stroke:#222222;stroke-width:1.0;"/><text fill="#000000" font-family="sans-serif" font-size="13" lengthAdjust="spacing" textLength="7" x="108.4205" y="210.8086">1</text></g><!--link OperationRequest to DeadlineDate--><g id="link_OperationRequest_DeadlineDate"><path codeLine="87" d="M309.2,112.3037 C294.12,144.5737 274.2613,187.0684 260.5713,216.3484 " fill="none" id="OperationRequest-to-DeadlineDate" style="stroke:#222222;stroke-width:1.0;"/><polygon fill="#222222" points="258.03,221.7837,265.4654,215.325,260.1477,217.2543,258.2184,211.9366,258.03,221.7837" style="stroke:#222222;stroke-width:1.0;"/><text fill="#000000" font-family="sans-serif" font-size="13" lengthAdjust="spacing" textLength="7" x="253.0026" y="210.747">1</text></g><!--link OperationRequest to Status--><g id="link_OperationRequest_Status"><path codeLine="88" d="M385.08,112.0237 C411.33,127.8437 441.8,147.8737 467,169.0137 C485.99,184.9437 500.9513,201.1174 514.5913,217.2874 " fill="none" id="OperationRequest-to-Status" style="stroke:#222222;stroke-width:1.0;"/><polygon fill="#222222" points="518.46,221.8737,515.7145,212.4152,515.2361,218.0518,509.5995,217.5734,518.46,221.8737" style="stroke:#222222;stroke-width:1.0;"/><text fill="#000000" font-family="sans-serif" font-size="13" lengthAdjust="spacing" textLength="7" x="505.9008" y="210.8578">1</text></g><!--link Patient to Name--><g id="link_Patient_Name"><path codeLine="91" d="M1015.16,248.5137 C1181.56,248.5137 1341.97,248.5137 1508.37,248.5137 " fill="none" id="Patient-to-Name" style="stroke:#222222;stroke-width:1.0;"/><polygon fill="#222222" points="1514.37,248.5137,1505.37,244.5137,1509.37,248.5137,1505.37,252.5137,1514.37,248.5137" style="stroke:#222222;stroke-width:1.0;"/><text fill="#000000" font-family="sans-serif" font-size="13" lengthAdjust="spacing" textLength="7" x="1499.5588" y="244.4474">1</text></g><!--link Patient to DateBirth--><g id="link_Patient_DateBirth"><path codeLine="92" d="M938.78,262.0337 C904.2,274.4637 852.88,295.7437 814,324.0137 C793.66,338.8037 778.3701,355.3581 764.9801,372.0081 " fill="none" id="Patient-to-DateBirth" style="stroke:#222222;stroke-width:1.0;"/><polygon fill="#222222" points="761.22,376.6837,769.9773,372.177,764.3535,372.7873,763.7431,367.1635,761.22,376.6837" style="stroke:#222222;stroke-width:1.0;"/><text fill="#000000" font-family="sans-serif" font-size="13" lengthAdjust="spacing" textLength="7" x="757.8553" y="365.6239">1</text></g><!--link Patient to Gender--><g id="link_Patient_Gender"><path codeLine="93" d="M957.03,283.0937 C940.29,311.2437 919.7978,345.6973 904.4778,371.4473 " fill="none" id="Patient-to-Gender" style="stroke:#222222;stroke-width:1.0;"/><polygon fill="#222222" points="901.41,376.6037,909.4493,370.9143,903.9665,372.3067,902.5741,366.8239,901.41,376.6037" style="stroke:#222222;stroke-width:1.0;"/><text fill="#000000" font-family="sans-serif" font-size="13" lengthAdjust="spacing" textLength="7" x="897.0153" y="365.9636">1</text></g><!--link Patient to ContactInfo--><g id="link_Patient_ContactInfo"><path codeLine="94" d="M938.93,252.9937 C864.29,260.7037 703.1,281.9237 670,324.0137 C638.68,363.8437 651.45,390.8637 670,438.0137 C680.84,465.5537 699.3434,485.8985 719.1434,502.9485 " fill="none" id="Patient-to-ContactInfo" style="stroke:#222222;stroke-width:1.0;"/><polygon fill="#222222" points="723.69,506.8637,719.4802,497.9599,719.9012,503.6011,714.26,504.022,723.69,506.8637" style="stroke:#222222;stroke-width:1.0;"/><text fill="#000000" font-family="sans-serif" font-size="13" lengthAdjust="spacing" textLength="7" x="707.9464" y="495.8455">1</text></g><!--link Patient to EmergencyContact--><g id="link_Patient_EmergencyContact"><path codeLine="95" d="M975.93,283.0937 C974.11,340.3337 970.6418,449.6167 969.0018,500.8967 " fill="none" id="Patient-to-EmergencyContact" style="stroke:#222222;stroke-width:1.0;"/><polygon fill="#222222" points="968.81,506.8937,973.0956,498.0261,968.9698,501.8962,965.0997,497.7704,968.81,506.8937" style="stroke:#222222;stroke-width:1.0;"/><text fill="#000000" font-family="sans-serif" font-size="13" lengthAdjust="spacing" textLength="7" x="961.1879" y="495.8825">1</text></g><!--link Patient to MRN--><g id="link_Patient_MRN"><path codeLine="96" d="M996.97,283.0937 C1012.09,308.5137 1029.7027,338.127 1044.8527,363.597 " fill="none" id="Patient-to-MRN" style="stroke:#222222;stroke-width:1.0;"/><polygon fill="#222222" points="1047.92,368.7537,1046.7569,358.9737,1045.3639,364.4564,1039.8812,363.0635,1047.92,368.7537" style="stroke:#222222;stroke-width:1.0;"/><text fill="#000000" font-family="sans-serif" font-size="13" lengthAdjust="spacing" textLength="7" x="1036.5724" y="357.8749">1</text></g><!--link Patient to MedicalCondition--><g id="link_Patient_MedicalCondition"><path codeLine="97" d="M1015.24,263.2237 C1049.38,276.3137 1100.01,297.8937 1140,324.0137 C1163.31,339.2437 1182.4131,356.2355 1199.2131,372.7655 " fill="none" id="Patient-to-MedicalCondition" style="stroke:#222222;stroke-width:1.0;"/><polygon fill="#222222" points="1203.49,376.9737,1199.8801,367.8102,1199.9259,373.4669,1194.2693,373.5127,1203.49,376.9737" style="stroke:#222222;stroke-width:1.0;"/><text fill="#000000" font-family="sans-serif" font-size="13" lengthAdjust="spacing" textLength="22" x="1172.8344" y="365.5474">0..1</text></g><!--link Patient to AppoitmentHistory--><g id="link_Patient_AppoitmentHistory"><path codeLine="98" d="M1015.01,251.8237 C1079.77,257.0437 1214.26,273.5537 1315,324.0137 C1341.12,337.0937 1361.6855,355.0534 1378.7755,372.5334 " fill="none" id="Patient-to-AppoitmentHistory" style="stroke:#222222;stroke-width:1.0;"/><polygon fill="#222222" points="1382.97,376.8237,1379.5384,367.592,1379.4746,373.2485,1373.8181,373.1847,1382.97,376.8237" style="stroke:#222222;stroke-width:1.0;"/><text fill="#000000" font-family="sans-serif" font-size="13" lengthAdjust="spacing" textLength="7" x="1369.8349" y="365.7963">1</text></g><!--link ContactInfo to Email--><g id="link_ContactInfo_Email"><path codeLine="99" d="M758,560.1337 C758,587.8937 758,625.9537 758,653.7737 " fill="none" id="ContactInfo-to-Email" style="stroke:#222222;stroke-width:1.0;"/><polygon fill="#222222" points="758,659.7737,762,650.7737,758,654.7737,754,650.7737,758,659.7737" style="stroke:#222222;stroke-width:1.0;"/><text fill="#000000" font-family="sans-serif" font-size="13" lengthAdjust="spacing" textLength="7" x="750.1906" y="648.7347">1</text></g><!--link ContactInfo to Phone--><g id="link_ContactInfo_Phone"><path codeLine="100" d="M788.7,560.1337 C821.99,587.8937 870.1926,628.1103 903.5426,655.9303 " fill="none" id="ContactInfo-to-Phone" style="stroke:#222222;stroke-width:1.0;"/><polygon fill="#222222" points="908.15,659.7737,903.8012,650.9369,904.3105,656.5708,898.6766,657.0801,908.15,659.7737" style="stroke:#222222;stroke-width:1.0;"/><text fill="#000000" font-family="sans-serif" font-size="13" lengthAdjust="spacing" textLength="7" x="893.2066" y="648.7347">1</text></g><!--link EmergencyContact to Phone--><g id="link_EmergencyContact_Phone"><path codeLine="101" d="M963.08,560.1337 C957.75,587.8937 950.4231,626.0616 945.0731,653.8816 " fill="none" id="EmergencyContact-to-Phone" style="stroke:#222222;stroke-width:1.0;"/><polygon fill="#222222" points="943.94,659.7737,949.5677,651.691,944.8842,654.8636,941.7116,650.1802,943.94,659.7737" style="stroke:#222222;stroke-width:1.0;"/><text fill="#000000" font-family="sans-serif" font-size="13" lengthAdjust="spacing" textLength="7" x="937.273" y="648.7347">1</text></g><!--link Specialization to SpecializationDenomination--><g id="link_Specialization_SpecializationDenomination"><path codeLine="103" d="M2676.1,721.3737 C2679.66,744.9637 2683.4856,770.3507 2687.0356,793.9007 " fill="none" id="Specialization-to-SpecializationDenomination" style="stroke:#222222;stroke-width:1.0;"/><polygon fill="#222222" points="2687.93,799.8337,2690.5438,790.338,2687.1847,794.8895,2682.6332,791.5305,2687.93,799.8337" style="stroke:#222222;stroke-width:1.0;"/><text fill="#000000" font-family="sans-serif" font-size="13" lengthAdjust="spacing" textLength="59" x="2684" y="766.042">defined by</text><text fill="#000000" font-family="sans-serif" font-size="13" lengthAdjust="spacing" textLength="7" x="2679.2963" y="788.7021">1</text></g><!--SRC=[fLR9Rjim4BthAmZbqXQDaIw78X0CE77T6cWJ8obwfwMHp4OYLP9AuHJvzuusczHYIQbEminxC-Hi7FN0U4ebJOWVKwKMMakspJIiVS7lsHEG2sV70Y2Gf7fFQArMZhA9LzH_YAJ8U70jOY795bW41cWXfVXJgixU5v-3Nuei6W5nFOz6aOI8QfZFoOPg1boxvAz3yCDVXiuhAV6yKe10pvD2QFpv-rmWYwEG9LgvObBlKF_gvzkprUhJrSUBruyqpe28xI_mMvGlm0EGu_6V4v0HS7z_BRYclXxF_7vtSnBiUHXkl5_8GBQu432VnkWpO9e9Fjxh8aq5qmaQ_igK5d8_XchmRsW2WnG3ls9IwL6a0-KRdSfOPN4yZL5bQyr3CPwqsGaEKqg3idW8_jnT-sGfVCpEVDue_L9iL7vT-AMfRbktAKYQbyaT_Cv08TgrZ3RrmutLPAo35vVoHZ8XyrECZkkzfZfJ9_7jCN0R7YytcWSqY1c7d3z8wyta8LO_zYdqXZvNJeXx3l-Fe5js1Zl7vkPnP182J4COcaUsOJTPiWLPWmPYPpIDqYp1i0NBh3pXX9DjTbJ1LFnB_In1-PAbqwRlMYrypHudZJRkZpfUR_tTf-0p6hEdufhD0hIrmnLeuvV0HSBuS03RnPXFgwBopi_dnrUY4iqFZu21gOOyykokoPNkExVP73seEWLZZ1Jkkd2psHlNRWJ7RelQd1sk7b2TunwrqKcjmrIGLjTq0Z-uPUawPQFKPAiDEdN7KZTYNy_JPk0EJq87jBPQpVmJY6h5koG9nQKp5B8VMxs9bmGB7dSQ2CYsqt9NXf4LG8WplezKkJ1Va1Cmuy7eHvNl5vPnVSawptcr7MI6vsA5RMdAJTKGLt9ZjMahc-jgoofkfRRiOZRBnOs5iyLhxPMEkM8TtUDArAafTYkdjKtRQgSnhRgxp1fALdwTVm00]--></g></svg>