<?xml version="1.0" encoding="UTF-8" standalone="no"?><svg xmlns="http://www.w3.org/2000/svg" xmlns:xlink="http://www.w3.org/1999/xlink" contentStyleType="text/css" height="807px" preserveAspectRatio="none" style="width:1732px;height:807px;background:#FFFFFF;" version="1.1" viewBox="0 0 1732 807" width="1732px" zoomAndPan="magnify"><defs/><g><text fill="#000000" font-family="sans-serif" font-size="14" font-weight="bold" lengthAdjust="spacing" textLength="239" x="745.5" y="29.5332">US 5.1.22. - Process View [Level 3]</text><rect fill="#FFFFFF" height="578.0313" style="stroke:#181818;stroke-width:1.0;" width="10" x="331" y="150.0781"/><rect fill="#FFFFFF" height="334.0938" style="stroke:#181818;stroke-width:1.0;" width="10" x="781" y="264.5469"/><rect fill="#FFFFFF" height="255.7813" style="stroke:#181818;stroke-width:1.0;" width="10" x="1119" y="303.7031"/><rect fill="#FFFFFF" height="39.1563" style="stroke:#181818;stroke-width:1.0;" width="10" x="1446" y="342.8594"/><rect fill="#FFFFFF" height="30" style="stroke:#181818;stroke-width:1.0;" width="10" x="1446" y="490.3281"/><rect fill="#FFFFFF" height="30" style="stroke:#181818;stroke-width:1.0;" width="10" x="1648.5" y="421.1719"/><rect fill="none" height="107.4688" style="stroke:#000000;stroke-width:1.5;" width="433.5" x="11" y="613.6406"/><line style="stroke:#181818;stroke-width:0.5;stroke-dasharray:5.0,5.0;" x1="335.5" x2="335.5" y1="108.9219" y2="738.1094"/><line style="stroke:#181818;stroke-width:0.5;stroke-dasharray:5.0,5.0;" x1="573" x2="573" y1="205.7344" y2="738.1094"/><line style="stroke:#181818;stroke-width:0.5;stroke-dasharray:5.0,5.0;" x1="786" x2="786" y1="108.9219" y2="738.1094"/><line style="stroke:#181818;stroke-width:0.5;stroke-dasharray:5.0,5.0;" x1="1124" x2="1124" y1="108.9219" y2="738.1094"/><line style="stroke:#181818;stroke-width:0.5;stroke-dasharray:5.0,5.0;" x1="1451" x2="1451" y1="108.9219" y2="738.1094"/><line style="stroke:#181818;stroke-width:0.5;stroke-dasharray:5.0,5.0;" x1="1653" x2="1653" y1="108.9219" y2="738.1094"/><rect fill="#E2E2F0" height="64.3125" rx="2.5" ry="2.5" style="stroke:#181818;stroke-width:0.5;" width="197" x="237.5" y="43.6094"/><text fill="#000000" font-family="sans-serif" font-size="20" font-style="italic" lengthAdjust="spacing" textLength="67" x="302.5" y="71.3711">«route»</text><text fill="#000000" font-family="sans-serif" font-size="20" lengthAdjust="spacing" textLength="183" x="244.5" y="96.5273">OperationTypeRoute</text><rect fill="#E2E2F0" height="64.3125" rx="2.5" ry="2.5" style="stroke:#181818;stroke-width:0.5;" width="197" x="237.5" y="737.1094"/><text fill="#000000" font-family="sans-serif" font-size="20" font-style="italic" lengthAdjust="spacing" textLength="67" x="302.5" y="764.8711">«route»</text><text fill="#000000" font-family="sans-serif" font-size="20" lengthAdjust="spacing" textLength="183" x="244.5" y="790.0273">OperationTypeRoute</text><rect fill="#E2E2F0" height="64.3125" rx="2.5" ry="2.5" style="stroke:#181818;stroke-width:0.5;" width="176" x="485" y="737.1094"/><text fill="#000000" font-family="sans-serif" font-size="20" font-style="italic" lengthAdjust="spacing" textLength="49" x="548.5" y="764.8711">«dto»</text><text fill="#000000" font-family="sans-serif" font-size="20" lengthAdjust="spacing" textLength="162" x="492" y="790.0273">OperationTypeDto</text><rect fill="#E2E2F0" height="64.3125" rx="2.5" ry="2.5" style="stroke:#181818;stroke-width:0.5;" width="230" x="671" y="43.6094"/><text fill="#000000" font-family="sans-serif" font-size="20" font-style="italic" lengthAdjust="spacing" textLength="105" x="733.5" y="71.3711">«controller»</text><text fill="#000000" font-family="sans-serif" font-size="20" lengthAdjust="spacing" textLength="216" x="678" y="96.5273">OperationTypeController</text><rect fill="#E2E2F0" height="64.3125" rx="2.5" ry="2.5" style="stroke:#181818;stroke-width:0.5;" width="230" x="671" y="737.1094"/><text fill="#000000" font-family="sans-serif" font-size="20" font-style="italic" lengthAdjust="spacing" textLength="105" x="733.5" y="764.8711">«controller»</text><text fill="#000000" font-family="sans-serif" font-size="20" lengthAdjust="spacing" textLength="216" x="678" y="790.0273">OperationTypeController</text><rect fill="#E2E2F0" height="64.3125" rx="2.5" ry="2.5" style="stroke:#181818;stroke-width:0.5;" width="210" x="1019" y="43.6094"/><text fill="#000000" font-family="sans-serif" font-size="20" font-style="italic" lengthAdjust="spacing" textLength="86" x="1081" y="71.3711">«service»</text><text fill="#000000" font-family="sans-serif" font-size="20" lengthAdjust="spacing" textLength="196" x="1026" y="96.5273">OperationTypeService</text><rect fill="#E2E2F0" height="64.3125" rx="2.5" ry="2.5" style="stroke:#181818;stroke-width:0.5;" width="210" x="1019" y="737.1094"/><text fill="#000000" font-family="sans-serif" font-size="20" font-style="italic" lengthAdjust="spacing" textLength="86" x="1081" y="764.8711">«service»</text><text fill="#000000" font-family="sans-serif" font-size="20" lengthAdjust="spacing" textLength="196" x="1026" y="790.0273">OperationTypeService</text><rect fill="#E2E2F0" height="64.3125" rx="2.5" ry="2.5" style="stroke:#181818;stroke-width:0.5;" width="240" x="1331" y="43.6094"/><text fill="#000000" font-family="sans-serif" font-size="20" font-style="italic" lengthAdjust="spacing" textLength="110" x="1396" y="71.3711">«repository»</text><text fill="#000000" font-family="sans-serif" font-size="20" lengthAdjust="spacing" textLength="226" x="1338" y="96.5273">OperationTypeRepository</text><rect fill="#E2E2F0" height="64.3125" rx="2.5" ry="2.5" style="stroke:#181818;stroke-width:0.5;" width="240" x="1331" y="737.1094"/><text fill="#000000" font-family="sans-serif" font-size="20" font-style="italic" lengthAdjust="spacing" textLength="110" x="1396" y="764.8711">«repository»</text><text fill="#000000" font-family="sans-serif" font-size="20" lengthAdjust="spacing" textLength="226" x="1338" y="790.0273">OperationTypeRepository</text><rect fill="#E2E2F0" height="64.3125" rx="2.5" ry="2.5" style="stroke:#181818;stroke-width:0.5;" width="145" x="1581" y="43.6094"/><text fill="#000000" font-family="sans-serif" font-size="20" font-style="italic" lengthAdjust="spacing" textLength="88" x="1609.5" y="71.3711">«domain»</text><text fill="#000000" font-family="sans-serif" font-size="20" lengthAdjust="spacing" textLength="131" x="1588" y="96.5273">OperationType</text><rect fill="#E2E2F0" height="64.3125" rx="2.5" ry="2.5" style="stroke:#181818;stroke-width:0.5;" width="145" x="1581" y="737.1094"/><text fill="#000000" font-family="sans-serif" font-size="20" font-style="italic" lengthAdjust="spacing" textLength="88" x="1609.5" y="764.8711">«domain»</text><text fill="#000000" font-family="sans-serif" font-size="20" lengthAdjust="spacing" textLength="131" x="1588" y="790.0273">OperationType</text><rect fill="#FFFFFF" height="578.0313" style="stroke:#181818;stroke-width:1.0;" width="10" x="331" y="150.0781"/><rect fill="#FFFFFF" height="334.0938" style="stroke:#181818;stroke-width:1.0;" width="10" x="781" y="264.5469"/><rect fill="#FFFFFF" height="255.7813" style="stroke:#181818;stroke-width:1.0;" width="10" x="1119" y="303.7031"/><rect fill="#FFFFFF" height="39.1563" style="stroke:#181818;stroke-width:1.0;" width="10" x="1446" y="342.8594"/><rect fill="#FFFFFF" height="30" style="stroke:#181818;stroke-width:1.0;" width="10" x="1446" y="490.3281"/><rect fill="#FFFFFF" height="30" style="stroke:#181818;stroke-width:1.0;" width="10" x="1648.5" y="421.1719"/><ellipse cx="7.5" cy="149.3281" fill="none" rx="4" ry="4" style="stroke:#181818;stroke-width:1.5;"/><polygon fill="#181818" points="319,146.0781,329,150.0781,319,154.0781,323,150.0781" style="stroke:#181818;stroke-width:1.0;"/><line style="stroke:#181818;stroke-width:1.0;" x1="12" x2="325" y1="150.0781" y2="150.0781"/><text fill="#000000" font-family="sans-serif" font-size="20" font-weight="bold" lengthAdjust="spacing" textLength="11" x="15" y="143.6836">1</text><text fill="#000000" font-family="sans-serif" font-size="20" lengthAdjust="spacing" textLength="289" x="30" y="143.6836">DELETE(json) /api/operationtype</text><polygon fill="#181818" points="473,185.2344,483,189.2344,473,193.2344,477,189.2344" style="stroke:#181818;stroke-width:1.0;"/><line style="stroke:#181818;stroke-width:1.0;" x1="341" x2="479" y1="189.2344" y2="189.2344"/><text fill="#000000" font-family="sans-serif" font-size="20" font-weight="bold" lengthAdjust="spacing" textLength="11" x="348" y="182.8398">2</text><text fill="#000000" font-family="sans-serif" font-size="20" lengthAdjust="spacing" textLength="105" x="363" y="182.8398">create(json)</text><rect fill="#E2E2F0" height="64.3125" rx="2.5" ry="2.5" style="stroke:#181818;stroke-width:0.5;" width="176" x="485" y="158.0781"/><text fill="#000000" font-family="sans-serif" font-size="20" font-style="italic" lengthAdjust="spacing" textLength="49" x="548.5" y="185.8398">«dto»</text><text fill="#000000" font-family="sans-serif" font-size="20" lengthAdjust="spacing" textLength="162" x="492" y="210.9961">OperationTypeDto</text><polygon fill="#181818" points="769,260.5469,779,264.5469,769,268.5469,773,264.5469" style="stroke:#181818;stroke-width:1.0;"/><line style="stroke:#181818;stroke-width:1.0;" x1="341" x2="775" y1="264.5469" y2="264.5469"/><text fill="#000000" font-family="sans-serif" font-size="20" font-weight="bold" lengthAdjust="spacing" textLength="11" x="348" y="258.1523">3</text><text fill="#000000" font-family="sans-serif" font-size="20" lengthAdjust="spacing" textLength="360" x="363" y="258.1523">RemoveOperationType(operationTypeId)</text><polygon fill="#181818" points="1107,299.7031,1117,303.7031,1107,307.7031,1111,303.7031" style="stroke:#181818;stroke-width:1.0;"/><line style="stroke:#181818;stroke-width:1.0;" x1="791" x2="1113" y1="303.7031" y2="303.7031"/><text fill="#000000" font-family="sans-serif" font-size="20" font-weight="bold" lengthAdjust="spacing" textLength="11" x="798" y="297.3086">4</text><text fill="#000000" font-family="sans-serif" font-size="20" lengthAdjust="spacing" textLength="294" x="813" y="297.3086">InactivateAsync(operationTypeId)</text><polygon fill="#181818" points="1434,338.8594,1444,342.8594,1434,346.8594,1438,342.8594" style="stroke:#181818;stroke-width:1.0;"/><line style="stroke:#181818;stroke-width:1.0;" x1="1129" x2="1440" y1="342.8594" y2="342.8594"/><text fill="#000000" font-family="sans-serif" font-size="20" font-weight="bold" lengthAdjust="spacing" textLength="11" x="1136" y="336.4648">5</text><text fill="#000000" font-family="sans-serif" font-size="20" lengthAdjust="spacing" textLength="283" x="1151" y="336.4648">GetByIdAsync(operationTypeId)</text><polygon fill="#181818" points="1140,378.0156,1130,382.0156,1140,386.0156,1136,382.0156" style="stroke:#181818;stroke-width:1.0;"/><line style="stroke:#181818;stroke-width:1.0;stroke-dasharray:2.0,2.0;" x1="1134" x2="1450" y1="382.0156" y2="382.0156"/><text fill="#000000" font-family="sans-serif" font-size="20" font-weight="bold" lengthAdjust="spacing" textLength="11" x="1146" y="375.6211">6</text><text fill="#000000" font-family="sans-serif" font-size="20" lengthAdjust="spacing" textLength="126" x="1161" y="375.6211">operationType</text><polygon fill="#181818" points="1636.5,417.1719,1646.5,421.1719,1636.5,425.1719,1640.5,421.1719" style="stroke:#181818;stroke-width:1.0;"/><line style="stroke:#181818;stroke-width:1.0;" x1="1129" x2="1642.5" y1="421.1719" y2="421.1719"/><text fill="#000000" font-family="sans-serif" font-size="20" font-weight="bold" lengthAdjust="spacing" textLength="11" x="1136" y="414.7773">7</text><text fill="#000000" font-family="sans-serif" font-size="20" lengthAdjust="spacing" textLength="81" x="1151" y="414.7773">Inactive()</text><polygon fill="#181818" points="1434,486.3281,1444,490.3281,1434,494.3281,1438,490.3281" style="stroke:#181818;stroke-width:1.0;"/><line style="stroke:#181818;stroke-width:1.0;" x1="1129" x2="1440" y1="490.3281" y2="490.3281"/><text fill="#000000" font-family="sans-serif" font-size="20" font-weight="bold" lengthAdjust="spacing" textLength="11" x="1136" y="483.9336">8</text><text fill="#000000" font-family="sans-serif" font-size="20" lengthAdjust="spacing" textLength="181" x="1151" y="483.9336">save(operationType)</text><polygon fill="#181818" points="802,555.4844,792,559.4844,802,563.4844,798,559.4844" style="stroke:#181818;stroke-width:1.0;"/><line style="stroke:#181818;stroke-width:1.0;stroke-dasharray:2.0,2.0;" x1="796" x2="1123" y1="559.4844" y2="559.4844"/><text fill="#000000" font-family="sans-serif" font-size="20" font-weight="bold" lengthAdjust="spacing" textLength="11" x="808" y="553.0898">9</text><text fill="#000000" font-family="sans-serif" font-size="20" lengthAdjust="spacing" textLength="71" x="823" y="553.0898">success</text><polygon fill="#181818" points="352,594.6406,342,598.6406,352,602.6406,348,598.6406" style="stroke:#181818;stroke-width:1.0;"/><line style="stroke:#181818;stroke-width:1.0;stroke-dasharray:2.0,2.0;" x1="346" x2="785" y1="598.6406" y2="598.6406"/><text fill="#000000" font-family="sans-serif" font-size="20" font-weight="bold" lengthAdjust="spacing" textLength="22" x="358" y="592.2461">10</text><text fill="#000000" font-family="sans-serif" font-size="20" lengthAdjust="spacing" textLength="71" x="384" y="592.2461">success</text><path d="M11,613.6406 L79,613.6406 L79,630.7969 L69,640.7969 L11,640.7969 L11,613.6406 " fill="#EEEEEE" style="stroke:#000000;stroke-width:1.5;"/><rect fill="none" height="107.4688" style="stroke:#000000;stroke-width:1.5;" width="433.5" x="11" y="613.6406"/><text fill="#000000" font-family="sans-serif" font-size="20" font-weight="bold" lengthAdjust="spacing" textLength="23" x="26" y="635.4023">alt</text><ellipse cx="7.5" cy="671.2031" fill="none" rx="4" ry="4" style="stroke:#181818;stroke-width:1.5;"/><polygon fill="#181818" points="24.5,667.9531,14.5,671.9531,24.5,675.9531,20.5,671.9531" style="stroke:#181818;stroke-width:1.0;"/><line style="stroke:#181818;stroke-width:1.0;stroke-dasharray:2.0,2.0;" x1="22.5" x2="330" y1="671.9531" y2="671.9531"/><text fill="#000000" font-family="sans-serif" font-size="20" font-weight="bold" lengthAdjust="spacing" textLength="22" x="25" y="665.5586">11</text><text fill="#000000" font-family="sans-serif" font-size="20" lengthAdjust="spacing" textLength="65" x="51" y="665.5586">200 Ok</text><line style="stroke:#000000;stroke-width:1.0;stroke-dasharray:2.0,2.0;" x1="11" x2="444.5" y1="680.9531" y2="680.9531"/><ellipse cx="7.5" cy="712.3594" fill="none" rx="4" ry="4" style="stroke:#181818;stroke-width:1.5;"/><polygon fill="#181818" points="24.5,709.1094,14.5,713.1094,24.5,717.1094,20.5,713.1094" style="stroke:#181818;stroke-width:1.0;"/><line style="stroke:#181818;stroke-width:1.0;stroke-dasharray:2.0,2.0;" x1="22.5" x2="330" y1="713.1094" y2="713.1094"/><text fill="#000000" font-family="sans-serif" font-size="20" font-weight="bold" lengthAdjust="spacing" textLength="22" x="25" y="706.7148">12</text><text fill="#000000" font-family="sans-serif" font-size="20" lengthAdjust="spacing" textLength="129" x="51" y="706.7148">404 Not Found</text><!--SRC=[XPD1Qzj048Nlyoi6dvo07CTDBy8OMaS91bC5MSabbBAL9h2nl2jsHohkh- -k5Zco2Uf5iBFlctdp9DczLBKmub3fOaybblGcceeVjEAT_4kuc0Emv8fmyhp3hxFRsM8nmmYVZ2x8MdoHz0TVjzHIXLz-JW14mrerXzzamFLbMSXQACP9MfCHBBNAZpLbkc6QeB2OfSzvWikbyPNLQeIvPzqHjU1V9Ml7kESeiNPB65rLP3fmdMTRHnMdwYYy8zFA8fZSlQmTQ4DbbCgerbQoDiUmNVAK-kLErL6uGzBSRwOFGYed1dZLqIga5EDziatoPFfkjRh26r7B6ztpx7WG1SjMC0KzG0ZNyNrcrzSn5eQS93GPI7mwCMPqq2sTkPhguMbJNdsCyGn0bwlhu5AASQFwss_sg8eHsCa1VB9-FvzJZ8_4tu-Ryd-aLqE7H66iGy_KKDAvk9-JvYU7D1rqJFCXuauNngneBtAujFFvn5EkjYdyxpAK-Vr3T1yl-1DPo5XKZFvRM4PHhrtCvvZk0QYoT7btDx_37vhnGJUgT19Leki0PowzyXy0]--></g></svg>