<?xml version="1.0" encoding="us-ascii" standalone="no"?><svg xmlns="http://www.w3.org/2000/svg" xmlns:xlink="http://www.w3.org/1999/xlink" contentStyleType="text/css" height="351.4px" preserveAspectRatio="none" style="width:332px;height:351px;background:#FFFFFF;" version="1.1" viewBox="0 0 332 351" width="332.5px" zoomAndPan="magnify"><defs/><g><text fill="#000000" font-family="sans-serif" font-size="9.8" font-weight="bold" lengthAdjust="spacing" textLength="183.4" x="75.775" y="21.0752">US 6.2.13 - System Sequence Diagram</text><rect fill="#FFFFFF" height="240.4787" style="stroke:#181818;stroke-width:0.6999999999999998;" width="7" x="36.05" y="78.0732"/><rect fill="#FFFFFF" height="240.4787" style="stroke:#181818;stroke-width:0.6999999999999998;" width="7" x="290.15" y="78.0732"/><rect fill="none" height="57.3111" style="stroke:#000000;stroke-width:1.0499999999999998;" width="307.65" x="14" y="110.477"/><rect fill="none" height="136.0639" style="stroke:#000000;stroke-width:1.0499999999999998;" width="321.65" x="7" y="177.5881"/><rect fill="none" height="68.9527" style="stroke:#000000;stroke-width:1.0499999999999998;" width="307.65" x="14" y="239.7992"/><line style="stroke:#181818;stroke-width:0.3499999999999999;stroke-dasharray:5.0,5.0;" x1="39.2" x2="39.2" y1="54.7695" y2="325.552"/><line style="stroke:#181818;stroke-width:0.3499999999999999;stroke-dasharray:5.0,5.0;" x1="293.65" x2="293.65" y1="54.7695" y2="325.552"/><rect fill="#E2E2F0" height="22.8348" rx="1.75" ry="1.75" style="stroke:#181818;stroke-width:0.3499999999999999;" width="37.1" x="21" y="31.2348"/><text fill="#000000" font-family="sans-serif" font-size="9.8" lengthAdjust="spacing" textLength="27.3" x="25.9" y="46.71">Admin</text><rect fill="#E2E2F0" height="22.8348" rx="1.75" ry="1.75" style="stroke:#181818;stroke-width:0.3499999999999999;" width="37.1" x="21" y="324.852"/><text fill="#000000" font-family="sans-serif" font-size="9.8" lengthAdjust="spacing" textLength="27.3" x="25.9" y="340.3271">Admin</text><rect fill="#E2E2F0" height="22.8348" rx="1.75" ry="1.75" style="stroke:#181818;stroke-width:0.3499999999999999;" width="42" x="272.65" y="31.2348"/><text fill="#000000" font-family="sans-serif" font-size="9.8" lengthAdjust="spacing" textLength="32.2" x="277.55" y="46.71">System</text><rect fill="#E2E2F0" height="22.8348" rx="1.75" ry="1.75" style="stroke:#181818;stroke-width:0.3499999999999999;" width="42" x="272.65" y="324.852"/><text fill="#000000" font-family="sans-serif" font-size="9.8" lengthAdjust="spacing" textLength="32.2" x="277.55" y="340.3271">System</text><rect fill="#FFFFFF" height="240.4787" style="stroke:#181818;stroke-width:0.6999999999999998;" width="7" x="36.05" y="78.0732"/><rect fill="#FFFFFF" height="240.4787" style="stroke:#181818;stroke-width:0.6999999999999998;" width="7" x="290.15" y="78.0732"/><polygon fill="#181818" points="281.75,75.2732,288.75,78.0732,281.75,80.8732,284.55,78.0732" style="stroke:#181818;stroke-width:0.6999999999999998;"/><line style="stroke:#181818;stroke-width:0.6999999999999998;" x1="43.05" x2="285.95" y1="78.0732" y2="78.0732"/><text fill="#000000" font-family="sans-serif" font-size="9.1" font-weight="bold" lengthAdjust="spacing" textLength="4.9" x="47.95" y="74.3894">1</text><text fill="#000000" font-family="sans-serif" font-size="9.1" lengthAdjust="spacing" textLength="141.4" x="55.65" y="74.3894">requests the list of the staff profiles</text><polygon fill="#181818" points="50.75,97.177,43.75,99.977,50.75,102.777,47.95,99.977" style="stroke:#181818;stroke-width:0.6999999999999998;"/><line style="stroke:#181818;stroke-width:0.6999999999999998;stroke-dasharray:2.0,2.0;" x1="46.55" x2="289.45" y1="99.977" y2="99.977"/><text fill="#000000" font-family="sans-serif" font-size="9.1" font-weight="bold" lengthAdjust="spacing" textLength="4.9" x="54.95" y="96.2931">2</text><text fill="#000000" font-family="sans-serif" font-size="9.1" lengthAdjust="spacing" textLength="83.3" x="62.65" y="96.2931">lists the staff profiles</text><path d="M14,110.477 L65.1,110.477 L65.1,116.9807 L58.1,123.9807 L14,123.9807 L14,110.477 " fill="#EEEEEE" style="stroke:#000000;stroke-width:1.0499999999999998;"/><rect fill="none" height="57.3111" style="stroke:#000000;stroke-width:1.0499999999999998;" width="307.65" x="14" y="110.477"/><text fill="#000000" font-family="sans-serif" font-size="9.1" font-weight="bold" lengthAdjust="spacing" textLength="19.6" x="24.5" y="120.9968">loop</text><text fill="#000000" font-family="sans-serif" font-size="7.7" font-weight="bold" lengthAdjust="spacing" textLength="96.6" x="75.6" y="120.186">[until the Admin desires]</text><polygon fill="#181818" points="281.75,137.4844,288.75,140.2844,281.75,143.0844,284.55,140.2844" style="stroke:#181818;stroke-width:0.6999999999999998;"/><line style="stroke:#181818;stroke-width:0.6999999999999998;" x1="43.05" x2="285.95" y1="140.2844" y2="140.2844"/><text fill="#000000" font-family="sans-serif" font-size="9.1" font-weight="bold" lengthAdjust="spacing" textLength="4.9" x="47.95" y="136.6005">3</text><text fill="#000000" font-family="sans-serif" font-size="9.1" lengthAdjust="spacing" textLength="222.6" x="55.65" y="136.6005">applies search filters (by name, email or specialization)</text><polygon fill="#181818" points="50.75,159.3881,43.75,162.1881,50.75,164.9881,47.95,162.1881" style="stroke:#181818;stroke-width:0.6999999999999998;"/><line style="stroke:#181818;stroke-width:0.6999999999999998;stroke-dasharray:2.0,2.0;" x1="46.55" x2="289.45" y1="162.1881" y2="162.1881"/><text fill="#000000" font-family="sans-serif" font-size="9.1" font-weight="bold" lengthAdjust="spacing" textLength="4.9" x="54.95" y="158.5042">4</text><text fill="#000000" font-family="sans-serif" font-size="9.1" lengthAdjust="spacing" textLength="110.6" x="62.65" y="158.5042">presents the search results</text><path d="M7,177.5881 L52.5,177.5881 L52.5,184.0918 L45.5,191.0918 L7,191.0918 L7,177.5881 " fill="#EEEEEE" style="stroke:#000000;stroke-width:1.0499999999999998;"/><rect fill="none" height="136.0639" style="stroke:#000000;stroke-width:1.0499999999999998;" width="321.65" x="7" y="177.5881"/><text fill="#000000" font-family="sans-serif" font-size="9.1" font-weight="bold" lengthAdjust="spacing" textLength="14" x="17.5" y="188.1079">opt</text><text fill="#000000" font-family="sans-serif" font-size="7.7" font-weight="bold" lengthAdjust="spacing" textLength="126" x="63" y="187.2972">[Admin wants to select a profile]</text><polygon fill="#181818" points="281.75,204.5955,288.75,207.3955,281.75,210.1955,284.55,207.3955" style="stroke:#181818;stroke-width:0.6999999999999998;"/><line style="stroke:#181818;stroke-width:0.6999999999999998;" x1="43.05" x2="285.95" y1="207.3955" y2="207.3955"/><text fill="#000000" font-family="sans-serif" font-size="9.1" font-weight="bold" lengthAdjust="spacing" textLength="4.9" x="47.95" y="203.7116">5</text><text fill="#000000" font-family="sans-serif" font-size="9.1" lengthAdjust="spacing" textLength="63.7" x="55.65" y="203.7116">selects a profile</text><polygon fill="#181818" points="50.75,226.4992,43.75,229.2992,50.75,232.0992,47.95,229.2992" style="stroke:#181818;stroke-width:0.6999999999999998;"/><line style="stroke:#181818;stroke-width:0.6999999999999998;stroke-dasharray:2.0,2.0;" x1="46.55" x2="289.45" y1="229.2992" y2="229.2992"/><text fill="#000000" font-family="sans-serif" font-size="9.1" font-weight="bold" lengthAdjust="spacing" textLength="4.9" x="54.95" y="225.6153">6</text><text fill="#000000" font-family="sans-serif" font-size="9.1" lengthAdjust="spacing" textLength="52.5" x="62.65" y="225.6153">shows profile</text><path d="M14,239.7992 L56.7,239.7992 L56.7,246.3029 L49.7,253.3029 L14,253.3029 L14,239.7992 " fill="#EEEEEE" style="stroke:#000000;stroke-width:1.0499999999999998;"/><rect fill="none" height="68.9527" style="stroke:#000000;stroke-width:1.0499999999999998;" width="307.65" x="14" y="239.7992"/><text fill="#000000" font-family="sans-serif" font-size="9.1" font-weight="bold" lengthAdjust="spacing" textLength="11.2" x="24.5" y="250.319">alt</text><text fill="#000000" font-family="sans-serif" font-size="7.7" font-weight="bold" lengthAdjust="spacing" textLength="47.6" x="67.2" y="249.5083">[edit profile]</text><polygon fill="#181818" points="281.75,266.8066,288.75,269.6066,281.75,272.4066,284.55,269.6066" style="stroke:#181818;stroke-width:0.6999999999999998;"/><line style="stroke:#181818;stroke-width:0.6999999999999998;stroke-dasharray:2.0,2.0;" x1="43.05" x2="285.95" y1="269.6066" y2="269.6066"/><text fill="#000000" font-family="sans-serif" font-size="9.1" lengthAdjust="spacing" textLength="40.6" x="47.95" y="265.9228">US 6.2.11</text><line style="stroke:#000000;stroke-width:0.6999999999999998;stroke-dasharray:2.0,2.0;" x1="14" x2="321.65" y1="275.9066" y2="275.9066"/><text fill="#000000" font-family="sans-serif" font-size="7.7" font-weight="bold" lengthAdjust="spacing" textLength="72.1" x="17.5" y="284.2157">[deactivate profile]</text><polygon fill="#181818" points="281.75,300.352,288.75,303.152,281.75,305.952,284.55,303.152" style="stroke:#181818;stroke-width:0.6999999999999998;"/><line style="stroke:#181818;stroke-width:0.6999999999999998;stroke-dasharray:2.0,2.0;" x1="43.05" x2="285.95" y1="303.152" y2="303.152"/><text fill="#000000" font-family="sans-serif" font-size="9.1" lengthAdjust="spacing" textLength="40.6" x="47.95" y="299.4681">US 6.2.12</text><!--SRC=[TP8_Ry8m4CLtVueJIrkf0K6b3WoLa5WxHHqw7icbMFA_-Yv5zDFNSKX81FLavvv_x-Ly3qUHmDlLAXXqqbgphBnTCNstv2egQerV4QrIeiKGB3vAU5rkbkiNAA0yiv25ygA5VQzTA8MjUDVQ0qMb0aRHbGw93hlQQWV8iDk_pmeNLAgKdwLIgGp5MxU7BSIEpy8WHmAZMS0tUS-2JGCX-aOROeMLw1yKol3na7aTg4Z0ZhlD3Bv7K92MyJv0wqIRBEaZryGw3efPEWp1Q69WmbWT8O648iFZuGmEBJq3MKme7u43LHgD_aNHtZtrh7coa3p83U5wOlhK6k6i9bVdVFrT7uQEdZ1VykcEeKe0Xt-w4xYNy4HpcuEF_iHNnlKvKyUIErmM6W6gjSpTHiVHSXYQzLL0XYbrTNoc6yB_bCs4algHGgYnEQabjt7LnAURZScncuu_]--></g></svg>