<?xml version="1.0" encoding="us-ascii" standalone="no"?><svg xmlns="http://www.w3.org/2000/svg" xmlns:xlink="http://www.w3.org/1999/xlink" contentStyleType="text/css" height="784px" preserveAspectRatio="none" style="width:2174px;height:784px;background:#FFFFFF;" version="1.1" viewBox="0 0 2174 784" width="2174px" zoomAndPan="magnify"><defs/><g><text fill="#000000" font-family="sans-serif" font-size="14" font-weight="bold" lengthAdjust="spacing" textLength="176" x="992.25" y="25.1074">US 5.1.16 - Domain Model</text><!--cluster <<aggregate>> Patient--><g id="cluster_&lt;&lt;aggregate&gt;&gt; Patient"><path d="M750,224.6348 L892,224.6348 A3.75,3.75 0 0 1 894.5,227.1348 L901.5,249.2559 L1577,249.2559 A2.5,2.5 0 0 1 1579.5,251.7559 L1579.5,645.1348 A2.5,2.5 0 0 1 1577,647.6348 L750,647.6348 A2.5,2.5 0 0 1 747.5,645.1348 L747.5,227.1348 A2.5,2.5 0 0 1 750,224.6348 " fill="none" style="stroke:#000000;stroke-width:1.5;"/><line style="stroke:#000000;stroke-width:1.5;" x1="747.5" x2="901.5" y1="249.2559" y2="249.2559"/><text fill="#000000" font-family="sans-serif" font-size="14" font-weight="bold" lengthAdjust="spacing" textLength="141" x="751.5" y="241.7422">&#171;aggregate&#187; Patient</text></g><!--cluster <<aggregate Doctor>>--><g id="cluster_&lt;&lt;aggregate Doctor&gt;&gt;"><path d="M1725,224.6348 L1865,224.6348 A3.75,3.75 0 0 1 1867.5,227.1348 L1874.5,249.2559 L1875,249.2559 A2.5,2.5 0 0 1 1877.5,251.7559 L1877.5,352.1348 A2.5,2.5 0 0 1 1875,354.6348 L1725,354.6348 A2.5,2.5 0 0 1 1722.5,352.1348 L1722.5,227.1348 A2.5,2.5 0 0 1 1725,224.6348 " fill="none" style="stroke:#000000;stroke-width:1.5;"/><line style="stroke:#000000;stroke-width:1.5;" x1="1722.5" x2="1874.5" y1="249.2559" y2="249.2559"/><text fill="#000000" font-family="sans-serif" font-size="14" font-weight="bold" lengthAdjust="spacing" textLength="139" x="1726.5" y="241.7422">&#171;aggregate Doctor&#187;</text></g><!--cluster <<aggregate OperationRequest>>--><g id="cluster_&lt;&lt;aggregate OperationRequest&gt;&gt;"><path d="M351,45.6348 L573,45.6348 A3.75,3.75 0 0 1 575.5,48.1348 L582.5,70.2559 L721,70.2559 A2.5,2.5 0 0 1 723.5,72.7559 L723.5,352.1348 A2.5,2.5 0 0 1 721,354.6348 L351,354.6348 A2.5,2.5 0 0 1 348.5,352.1348 L348.5,48.1348 A2.5,2.5 0 0 1 351,45.6348 " fill="none" style="stroke:#000000;stroke-width:1.5;"/><line style="stroke:#000000;stroke-width:1.5;" x1="348.5" x2="582.5" y1="70.2559" y2="70.2559"/><text fill="#000000" font-family="sans-serif" font-size="14" font-weight="bold" lengthAdjust="spacing" textLength="221" x="352.5" y="62.7422">&#171;aggregate OperationRequest&#187;</text></g><!--cluster <<aggregate OperationType>>--><g id="cluster_&lt;&lt;aggregate OperationType&gt;&gt;"><path d="M1727,387.6348 L1923,387.6348 A3.75,3.75 0 0 1 1925.5,390.1348 L1932.5,412.2559 L2165,412.2559 A2.5,2.5 0 0 1 2167.5,414.7559 L2167.5,775.1348 A2.5,2.5 0 0 1 2165,777.6348 L1727,777.6348 A2.5,2.5 0 0 1 1724.5,775.1348 L1724.5,390.1348 A2.5,2.5 0 0 1 1727,387.6348 " fill="none" style="stroke:#000000;stroke-width:1.5;"/><line style="stroke:#000000;stroke-width:1.5;" x1="1724.5" x2="1932.5" y1="412.2559" y2="412.2559"/><text fill="#000000" font-family="sans-serif" font-size="14" font-weight="bold" lengthAdjust="spacing" textLength="195" x="1728.5" y="404.7422">&#171;aggregate OperationType&#187;</text></g><!--class Patient--><g id="elem_Patient"><rect codeLine="15" fill="#F1F1F1" height="76.543" id="Patient" rx="2.5" ry="2.5" style="stroke:#181818;stroke-width:0.5;" width="76" x="1015.5" y="261.6348"/><ellipse cx="1030.5" cy="291.9063" fill="#ADD1B2" rx="11" ry="11" style="stroke:#181818;stroke-width:1.0;"/><path d="M1029.3594,292.7031 L1029.3594,295.2031 L1033.6875,295.2031 L1033.6875,294.2813 Q1033.6875,293.6719 1033.9219,293.4063 Q1034.1719,293.1406 1034.5469,293.1406 Q1034.9219,293.1406 1035.1563,293.4063 Q1035.3906,293.6719 1035.3906,294.2813 L1035.3906,296.9063 L1027.3906,296.9063 Q1026.7656,296.9063 1026.5,296.6719 Q1026.25,296.4375 1026.25,296.0469 Q1026.25,295.6719 1026.5156,295.4375 Q1026.7813,295.2031 1027.3906,295.2031 L1027.6563,295.2031 L1027.6563,288.5469 L1027.3906,288.5469 Q1026.7656,288.5469 1026.5,288.3125 Q1026.25,288.0781 1026.25,287.6875 Q1026.25,287.3125 1026.5,287.0781 Q1026.7656,286.8438 1027.3906,286.8438 L1035.0156,286.8438 L1035.0156,289.4375 Q1035.0156,290.0469 1034.7813,290.3125 Q1034.5625,290.5625 1034.1719,290.5625 Q1033.7969,290.5625 1033.5625,290.3125 Q1033.3281,290.0469 1033.3281,289.4375 L1033.3281,288.5469 L1029.3594,288.5469 L1029.3594,291 L1030.8438,291 Q1030.8438,290.3438 1030.9688,290.1563 Q1031.2344,289.75 1031.7031,289.75 Q1032.0781,289.75 1032.3125,290.0156 Q1032.5469,290.2656 1032.5469,290.875 L1032.5469,292.8438 Q1032.5469,293.3906 1032.4219,293.5781 Q1032.1563,293.9688 1031.7031,293.9688 Q1031.2344,293.9688 1030.9688,293.5625 Q1030.8438,293.375 1030.8438,292.7031 L1029.3594,292.7031 Z " fill="#000000"/><text fill="#000000" font-family="sans-serif" font-size="12" font-style="italic" lengthAdjust="spacing" textLength="43" x="1045" y="279.584">&#171;entity&#187;</text><text fill="#000000" font-family="sans-serif" font-size="12" font-style="italic" lengthAdjust="spacing" textLength="35" x="1049" y="295.5449">&#171;root&#187;</text><text fill="#000000" font-family="sans-serif" font-size="14" lengthAdjust="spacing" textLength="44" x="1044.5" y="313.6641">Patient</text><line style="stroke:#181818;stroke-width:0.5;" x1="1016.5" x2="1090.5" y1="322.1777" y2="322.1777"/><line style="stroke:#181818;stroke-width:0.5;" x1="1016.5" x2="1090.5" y1="330.1777" y2="330.1777"/></g><!--class DateBirth--><g id="elem_DateBirth"><rect codeLine="16" fill="#F1F1F1" height="60.582" id="DateBirth" rx="2.5" ry="2.5" style="stroke:#181818;stroke-width:0.5;" width="109" x="764" y="432.6348"/><ellipse cx="779" cy="454.9258" fill="#FF8B40" rx="11" ry="11" style="stroke:#181818;stroke-width:1.0;"/><path d="M779.5938,458.1914 L782.0625,452.3164 L781.6719,452.3164 Q781.0625,452.3164 780.7969,452.082 Q780.5313,451.8477 780.5313,451.457 Q780.5313,451.082 780.7969,450.8477 Q781.0625,450.6133 781.6719,450.6133 L783.9531,450.6133 Q784.5625,450.6133 784.8281,450.8477 Q785.0938,451.082 785.0938,451.457 Q785.0938,451.9258 784.6875,452.1914 Q784.5,452.3164 783.9063,452.3164 L780.4219,460.6758 L778.7813,460.6758 L775.2969,452.3164 Q774.7031,452.3164 774.5156,452.1914 Q774.1094,451.9258 774.1094,451.457 Q774.1094,451.082 774.375,450.8477 Q774.6406,450.6133 775.25,450.6133 L777.5469,450.6133 Q778.1563,450.6133 778.4063,450.8477 Q778.6719,451.082 778.6719,451.457 Q778.6719,451.8477 778.4063,452.082 Q778.1563,452.3164 777.5469,452.3164 L777.1406,452.3164 L779.5938,458.1914 Z " fill="#000000"/><text fill="#000000" font-family="sans-serif" font-size="12" font-style="italic" lengthAdjust="spacing" textLength="81" x="791" y="450.584">&#171;value object&#187;</text><text fill="#000000" font-family="sans-serif" font-size="14" lengthAdjust="spacing" textLength="59" x="802" y="468.7031">DateBirth</text><line style="stroke:#181818;stroke-width:0.5;" x1="765" x2="872" y1="477.2168" y2="477.2168"/><line style="stroke:#181818;stroke-width:0.5;" x1="765" x2="872" y1="485.2168" y2="485.2168"/></g><!--class Gender--><g id="elem_Gender"><rect codeLine="17" fill="#F1F1F1" height="60.582" id="Gender" rx="2.5" ry="2.5" style="stroke:#181818;stroke-width:0.5;" width="109" x="908" y="432.6348"/><ellipse cx="923" cy="454.9258" fill="#FF8B40" rx="11" ry="11" style="stroke:#181818;stroke-width:1.0;"/><path d="M923.5938,458.1914 L926.0625,452.3164 L925.6719,452.3164 Q925.0625,452.3164 924.7969,452.082 Q924.5313,451.8477 924.5313,451.457 Q924.5313,451.082 924.7969,450.8477 Q925.0625,450.6133 925.6719,450.6133 L927.9531,450.6133 Q928.5625,450.6133 928.8281,450.8477 Q929.0938,451.082 929.0938,451.457 Q929.0938,451.9258 928.6875,452.1914 Q928.5,452.3164 927.9063,452.3164 L924.4219,460.6758 L922.7813,460.6758 L919.2969,452.3164 Q918.7031,452.3164 918.5156,452.1914 Q918.1094,451.9258 918.1094,451.457 Q918.1094,451.082 918.375,450.8477 Q918.6406,450.6133 919.25,450.6133 L921.5469,450.6133 Q922.1563,450.6133 922.4063,450.8477 Q922.6719,451.082 922.6719,451.457 Q922.6719,451.8477 922.4063,452.082 Q922.1563,452.3164 921.5469,452.3164 L921.1406,452.3164 L923.5938,458.1914 Z " fill="#000000"/><text fill="#000000" font-family="sans-serif" font-size="12" font-style="italic" lengthAdjust="spacing" textLength="81" x="935" y="450.584">&#171;value object&#187;</text><text fill="#000000" font-family="sans-serif" font-size="14" lengthAdjust="spacing" textLength="48" x="951.5" y="468.7031">Gender</text><line style="stroke:#181818;stroke-width:0.5;" x1="909" x2="1016" y1="477.2168" y2="477.2168"/><line style="stroke:#181818;stroke-width:0.5;" x1="909" x2="1016" y1="485.2168" y2="485.2168"/></g><!--class EmergencyContact--><g id="elem_EmergencyContact"><rect codeLine="19" fill="#F1F1F1" height="60.582" id="EmergencyContact" rx="2.5" ry="2.5" style="stroke:#181818;stroke-width:0.5;" width="152" x="1193.5" y="570.6348"/><ellipse cx="1208.5" cy="592.9258" fill="#FF8B40" rx="11" ry="11" style="stroke:#181818;stroke-width:1.0;"/><path d="M1209.0938,596.1914 L1211.5625,590.3164 L1211.1719,590.3164 Q1210.5625,590.3164 1210.2969,590.082 Q1210.0313,589.8477 1210.0313,589.457 Q1210.0313,589.082 1210.2969,588.8477 Q1210.5625,588.6133 1211.1719,588.6133 L1213.4531,588.6133 Q1214.0625,588.6133 1214.3281,588.8477 Q1214.5938,589.082 1214.5938,589.457 Q1214.5938,589.9258 1214.1875,590.1914 Q1214,590.3164 1213.4063,590.3164 L1209.9219,598.6758 L1208.2813,598.6758 L1204.7969,590.3164 Q1204.2031,590.3164 1204.0156,590.1914 Q1203.6094,589.9258 1203.6094,589.457 Q1203.6094,589.082 1203.875,588.8477 Q1204.1406,588.6133 1204.75,588.6133 L1207.0469,588.6133 Q1207.6563,588.6133 1207.9063,588.8477 Q1208.1719,589.082 1208.1719,589.457 Q1208.1719,589.8477 1207.9063,590.082 Q1207.6563,590.3164 1207.0469,590.3164 L1206.6406,590.3164 L1209.0938,596.1914 Z " fill="#000000"/><text fill="#000000" font-family="sans-serif" font-size="12" font-style="italic" lengthAdjust="spacing" textLength="81" x="1242" y="588.584">&#171;value object&#187;</text><text fill="#000000" font-family="sans-serif" font-size="14" lengthAdjust="spacing" textLength="120" x="1222.5" y="606.7031">EmergencyContact</text><line style="stroke:#181818;stroke-width:0.5;" x1="1194.5" x2="1344.5" y1="615.2168" y2="615.2168"/><line style="stroke:#181818;stroke-width:0.5;" x1="1194.5" x2="1344.5" y1="623.2168" y2="623.2168"/></g><!--class MRN--><g id="elem_MRN"><rect codeLine="20" fill="#F1F1F1" height="76.543" id="MRN" rx="2.5" ry="2.5" style="stroke:#181818;stroke-width:0.5;" width="109" x="1090" y="424.6348"/><ellipse cx="1105" cy="454.9063" fill="#FF8B40" rx="11" ry="11" style="stroke:#181818;stroke-width:1.0;"/><path d="M1105.5938,458.1719 L1108.0625,452.2969 L1107.6719,452.2969 Q1107.0625,452.2969 1106.7969,452.0625 Q1106.5313,451.8281 1106.5313,451.4375 Q1106.5313,451.0625 1106.7969,450.8281 Q1107.0625,450.5938 1107.6719,450.5938 L1109.9531,450.5938 Q1110.5625,450.5938 1110.8281,450.8281 Q1111.0938,451.0625 1111.0938,451.4375 Q1111.0938,451.9063 1110.6875,452.1719 Q1110.5,452.2969 1109.9063,452.2969 L1106.4219,460.6563 L1104.7813,460.6563 L1101.2969,452.2969 Q1100.7031,452.2969 1100.5156,452.1719 Q1100.1094,451.9063 1100.1094,451.4375 Q1100.1094,451.0625 1100.375,450.8281 Q1100.6406,450.5938 1101.25,450.5938 L1103.5469,450.5938 Q1104.1563,450.5938 1104.4063,450.8281 Q1104.6719,451.0625 1104.6719,451.4375 Q1104.6719,451.8281 1104.4063,452.0625 Q1104.1563,452.2969 1103.5469,452.2969 L1103.1406,452.2969 L1105.5938,458.1719 Z " fill="#000000"/><text fill="#000000" font-family="sans-serif" font-size="12" font-style="italic" lengthAdjust="spacing" textLength="81" x="1117" y="442.584">&#171;value object&#187;</text><text fill="#000000" font-family="sans-serif" font-size="12" font-style="italic" lengthAdjust="spacing" textLength="61" x="1127" y="458.5449">&#171;identifier&#187;</text><text fill="#000000" font-family="sans-serif" font-size="14" lengthAdjust="spacing" textLength="30" x="1142.5" y="476.6641">MRN</text><line style="stroke:#181818;stroke-width:0.5;" x1="1091" x2="1198" y1="485.1777" y2="485.1777"/><line style="stroke:#181818;stroke-width:0.5;" x1="1091" x2="1198" y1="493.1777" y2="493.1777"/></g><!--class MedicalCondition--><g id="elem_MedicalCondition"><rect codeLine="21" fill="#F1F1F1" height="60.582" id="MedicalCondition" rx="2.5" ry="2.5" style="stroke:#181818;stroke-width:0.5;" width="140" x="1234.5" y="432.6348"/><ellipse cx="1249.5" cy="454.9258" fill="#FF8B40" rx="11" ry="11" style="stroke:#181818;stroke-width:1.0;"/><path d="M1250.0938,458.1914 L1252.5625,452.3164 L1252.1719,452.3164 Q1251.5625,452.3164 1251.2969,452.082 Q1251.0313,451.8477 1251.0313,451.457 Q1251.0313,451.082 1251.2969,450.8477 Q1251.5625,450.6133 1252.1719,450.6133 L1254.4531,450.6133 Q1255.0625,450.6133 1255.3281,450.8477 Q1255.5938,451.082 1255.5938,451.457 Q1255.5938,451.9258 1255.1875,452.1914 Q1255,452.3164 1254.4063,452.3164 L1250.9219,460.6758 L1249.2813,460.6758 L1245.7969,452.3164 Q1245.2031,452.3164 1245.0156,452.1914 Q1244.6094,451.9258 1244.6094,451.457 Q1244.6094,451.082 1244.875,450.8477 Q1245.1406,450.6133 1245.75,450.6133 L1248.0469,450.6133 Q1248.6563,450.6133 1248.9063,450.8477 Q1249.1719,451.082 1249.1719,451.457 Q1249.1719,451.8477 1248.9063,452.082 Q1248.6563,452.3164 1248.0469,452.3164 L1247.6406,452.3164 L1250.0938,458.1914 Z " fill="#000000"/><text fill="#000000" font-family="sans-serif" font-size="12" font-style="italic" lengthAdjust="spacing" textLength="81" x="1277" y="450.584">&#171;value object&#187;</text><text fill="#000000" font-family="sans-serif" font-size="14" lengthAdjust="spacing" textLength="108" x="1263.5" y="468.7031">MedicalCondition</text><line style="stroke:#181818;stroke-width:0.5;" x1="1235.5" x2="1373.5" y1="477.2168" y2="477.2168"/><line style="stroke:#181818;stroke-width:0.5;" x1="1235.5" x2="1373.5" y1="485.2168" y2="485.2168"/></g><!--class AppointmentHistory--><g id="elem_AppointmentHistory"><rect codeLine="22" fill="#F1F1F1" height="60.582" id="AppointmentHistory" rx="2.5" ry="2.5" style="stroke:#181818;stroke-width:0.5;" width="154" x="1409.5" y="432.6348"/><ellipse cx="1424.5" cy="454.9258" fill="#FF8B40" rx="11" ry="11" style="stroke:#181818;stroke-width:1.0;"/><path d="M1425.0938,458.1914 L1427.5625,452.3164 L1427.1719,452.3164 Q1426.5625,452.3164 1426.2969,452.082 Q1426.0313,451.8477 1426.0313,451.457 Q1426.0313,451.082 1426.2969,450.8477 Q1426.5625,450.6133 1427.1719,450.6133 L1429.4531,450.6133 Q1430.0625,450.6133 1430.3281,450.8477 Q1430.5938,451.082 1430.5938,451.457 Q1430.5938,451.9258 1430.1875,452.1914 Q1430,452.3164 1429.4063,452.3164 L1425.9219,460.6758 L1424.2813,460.6758 L1420.7969,452.3164 Q1420.2031,452.3164 1420.0156,452.1914 Q1419.6094,451.9258 1419.6094,451.457 Q1419.6094,451.082 1419.875,450.8477 Q1420.1406,450.6133 1420.75,450.6133 L1423.0469,450.6133 Q1423.6563,450.6133 1423.9063,450.8477 Q1424.1719,451.082 1424.1719,451.457 Q1424.1719,451.8477 1423.9063,452.082 Q1423.6563,452.3164 1423.0469,452.3164 L1422.6406,452.3164 L1425.0938,458.1914 Z " fill="#000000"/><text fill="#000000" font-family="sans-serif" font-size="12" font-style="italic" lengthAdjust="spacing" textLength="81" x="1459" y="450.584">&#171;value object&#187;</text><text fill="#000000" font-family="sans-serif" font-size="14" lengthAdjust="spacing" textLength="122" x="1438.5" y="468.7031">AppointmentHistory</text><line style="stroke:#181818;stroke-width:0.5;" x1="1410.5" x2="1562.5" y1="477.2168" y2="477.2168"/><line style="stroke:#181818;stroke-width:0.5;" x1="1410.5" x2="1562.5" y1="485.2168" y2="485.2168"/></g><!--class Doctor--><g id="elem_Doctor"><rect codeLine="26" fill="#F1F1F1" height="76.543" id="Doctor" rx="2.5" ry="2.5" style="stroke:#181818;stroke-width:0.5;" width="74" x="1740.5" y="261.6348"/><ellipse cx="1755.5" cy="291.9063" fill="#ADD1B2" rx="11" ry="11" style="stroke:#181818;stroke-width:1.0;"/><path d="M1754.3594,292.7031 L1754.3594,295.2031 L1758.6875,295.2031 L1758.6875,294.2813 Q1758.6875,293.6719 1758.9219,293.4063 Q1759.1719,293.1406 1759.5469,293.1406 Q1759.9219,293.1406 1760.1563,293.4063 Q1760.3906,293.6719 1760.3906,294.2813 L1760.3906,296.9063 L1752.3906,296.9063 Q1751.7656,296.9063 1751.5,296.6719 Q1751.25,296.4375 1751.25,296.0469 Q1751.25,295.6719 1751.5156,295.4375 Q1751.7813,295.2031 1752.3906,295.2031 L1752.6563,295.2031 L1752.6563,288.5469 L1752.3906,288.5469 Q1751.7656,288.5469 1751.5,288.3125 Q1751.25,288.0781 1751.25,287.6875 Q1751.25,287.3125 1751.5,287.0781 Q1751.7656,286.8438 1752.3906,286.8438 L1760.0156,286.8438 L1760.0156,289.4375 Q1760.0156,290.0469 1759.7813,290.3125 Q1759.5625,290.5625 1759.1719,290.5625 Q1758.7969,290.5625 1758.5625,290.3125 Q1758.3281,290.0469 1758.3281,289.4375 L1758.3281,288.5469 L1754.3594,288.5469 L1754.3594,291 L1755.8438,291 Q1755.8438,290.3438 1755.9688,290.1563 Q1756.2344,289.75 1756.7031,289.75 Q1757.0781,289.75 1757.3125,290.0156 Q1757.5469,290.2656 1757.5469,290.875 L1757.5469,292.8438 Q1757.5469,293.3906 1757.4219,293.5781 Q1757.1563,293.9688 1756.7031,293.9688 Q1756.2344,293.9688 1755.9688,293.5625 Q1755.8438,293.375 1755.8438,292.7031 L1754.3594,292.7031 Z " fill="#000000"/><text fill="#000000" font-family="sans-serif" font-size="12" font-style="italic" lengthAdjust="spacing" textLength="43" x="1769" y="279.584">&#171;entity&#187;</text><text fill="#000000" font-family="sans-serif" font-size="12" font-style="italic" lengthAdjust="spacing" textLength="35" x="1773" y="295.5449">&#171;root&#187;</text><text fill="#000000" font-family="sans-serif" font-size="14" lengthAdjust="spacing" textLength="42" x="1769.5" y="313.6641">Doctor</text><line style="stroke:#181818;stroke-width:0.5;" x1="1741.5" x2="1813.5" y1="322.1777" y2="322.1777"/><line style="stroke:#181818;stroke-width:0.5;" x1="1741.5" x2="1813.5" y1="330.1777" y2="330.1777"/></g><!--class OperationRequest--><g id="elem_OperationRequest"><rect codeLine="30" fill="#F1F1F1" height="76.543" id="OperationRequest" rx="2.5" ry="2.5" style="stroke:#181818;stroke-width:0.5;" width="148" x="364.5" y="82.6348"/><ellipse cx="379.5" cy="112.9063" fill="#ADD1B2" rx="11" ry="11" style="stroke:#181818;stroke-width:1.0;"/><path d="M378.3594,113.7031 L378.3594,116.2031 L382.6875,116.2031 L382.6875,115.2813 Q382.6875,114.6719 382.9219,114.4063 Q383.1719,114.1406 383.5469,114.1406 Q383.9219,114.1406 384.1563,114.4063 Q384.3906,114.6719 384.3906,115.2813 L384.3906,117.9063 L376.3906,117.9063 Q375.7656,117.9063 375.5,117.6719 Q375.25,117.4375 375.25,117.0469 Q375.25,116.6719 375.5156,116.4375 Q375.7813,116.2031 376.3906,116.2031 L376.6563,116.2031 L376.6563,109.5469 L376.3906,109.5469 Q375.7656,109.5469 375.5,109.3125 Q375.25,109.0781 375.25,108.6875 Q375.25,108.3125 375.5,108.0781 Q375.7656,107.8438 376.3906,107.8438 L384.0156,107.8438 L384.0156,110.4375 Q384.0156,111.0469 383.7813,111.3125 Q383.5625,111.5625 383.1719,111.5625 Q382.7969,111.5625 382.5625,111.3125 Q382.3281,111.0469 382.3281,110.4375 L382.3281,109.5469 L378.3594,109.5469 L378.3594,112 L379.8438,112 Q379.8438,111.3438 379.9688,111.1563 Q380.2344,110.75 380.7031,110.75 Q381.0781,110.75 381.3125,111.0156 Q381.5469,111.2656 381.5469,111.875 L381.5469,113.8438 Q381.5469,114.3906 381.4219,114.5781 Q381.1563,114.9688 380.7031,114.9688 Q380.2344,114.9688 379.9688,114.5625 Q379.8438,114.375 379.8438,113.7031 L378.3594,113.7031 Z " fill="#000000"/><text fill="#000000" font-family="sans-serif" font-size="12" font-style="italic" lengthAdjust="spacing" textLength="43" x="430" y="100.584">&#171;entity&#187;</text><text fill="#000000" font-family="sans-serif" font-size="12" font-style="italic" lengthAdjust="spacing" textLength="35" x="434" y="116.5449">&#171;root&#187;</text><text fill="#000000" font-family="sans-serif" font-size="14" lengthAdjust="spacing" textLength="116" x="393.5" y="134.6641">OperationRequest</text><line style="stroke:#181818;stroke-width:0.5;" x1="365.5" x2="511.5" y1="143.1777" y2="143.1777"/><line style="stroke:#181818;stroke-width:0.5;" x1="365.5" x2="511.5" y1="151.1777" y2="151.1777"/></g><!--class OperationRequestId--><g id="elem_OperationRequestId"><rect codeLine="31" fill="#F1F1F1" height="76.543" id="OperationRequestId" rx="2.5" ry="2.5" style="stroke:#181818;stroke-width:0.5;" width="159" x="548" y="82.6348"/><ellipse cx="563" cy="112.9063" fill="#FF8B40" rx="11" ry="11" style="stroke:#181818;stroke-width:1.0;"/><path d="M563.5938,116.1719 L566.0625,110.2969 L565.6719,110.2969 Q565.0625,110.2969 564.7969,110.0625 Q564.5313,109.8281 564.5313,109.4375 Q564.5313,109.0625 564.7969,108.8281 Q565.0625,108.5938 565.6719,108.5938 L567.9531,108.5938 Q568.5625,108.5938 568.8281,108.8281 Q569.0938,109.0625 569.0938,109.4375 Q569.0938,109.9063 568.6875,110.1719 Q568.5,110.2969 567.9063,110.2969 L564.4219,118.6563 L562.7813,118.6563 L559.2969,110.2969 Q558.7031,110.2969 558.5156,110.1719 Q558.1094,109.9063 558.1094,109.4375 Q558.1094,109.0625 558.375,108.8281 Q558.6406,108.5938 559.25,108.5938 L561.5469,108.5938 Q562.1563,108.5938 562.4063,108.8281 Q562.6719,109.0625 562.6719,109.4375 Q562.6719,109.8281 562.4063,110.0625 Q562.1563,110.2969 561.5469,110.2969 L561.1406,110.2969 L563.5938,116.1719 Z " fill="#000000"/><text fill="#000000" font-family="sans-serif" font-size="12" font-style="italic" lengthAdjust="spacing" textLength="81" x="600" y="100.584">&#171;value object&#187;</text><text fill="#000000" font-family="sans-serif" font-size="12" font-style="italic" lengthAdjust="spacing" textLength="61" x="610" y="116.5449">&#171;identifier&#187;</text><text fill="#000000" font-family="sans-serif" font-size="14" lengthAdjust="spacing" textLength="127" x="577" y="134.6641">OperationRequestId</text><line style="stroke:#181818;stroke-width:0.5;" x1="549" x2="706" y1="143.1777" y2="143.1777"/><line style="stroke:#181818;stroke-width:0.5;" x1="549" x2="706" y1="151.1777" y2="151.1777"/></g><!--class Priority--><g id="elem_Priority"><rect codeLine="32" fill="#F1F1F1" height="76.543" id="Priority" rx="2.5" ry="2.5" style="stroke:#181818;stroke-width:0.5;" width="109" x="384" y="261.6348"/><ellipse cx="399" cy="291.9063" fill="#FF8B40" rx="11" ry="11" style="stroke:#181818;stroke-width:1.0;"/><path d="M399.5938,295.1719 L402.0625,289.2969 L401.6719,289.2969 Q401.0625,289.2969 400.7969,289.0625 Q400.5313,288.8281 400.5313,288.4375 Q400.5313,288.0625 400.7969,287.8281 Q401.0625,287.5938 401.6719,287.5938 L403.9531,287.5938 Q404.5625,287.5938 404.8281,287.8281 Q405.0938,288.0625 405.0938,288.4375 Q405.0938,288.9063 404.6875,289.1719 Q404.5,289.2969 403.9063,289.2969 L400.4219,297.6563 L398.7813,297.6563 L395.2969,289.2969 Q394.7031,289.2969 394.5156,289.1719 Q394.1094,288.9063 394.1094,288.4375 Q394.1094,288.0625 394.375,287.8281 Q394.6406,287.5938 395.25,287.5938 L397.5469,287.5938 Q398.1563,287.5938 398.4063,287.8281 Q398.6719,288.0625 398.6719,288.4375 Q398.6719,288.8281 398.4063,289.0625 Q398.1563,289.2969 397.5469,289.2969 L397.1406,289.2969 L399.5938,295.1719 Z " fill="#000000"/><text fill="#000000" font-family="sans-serif" font-size="12" font-style="italic" lengthAdjust="spacing" textLength="81" x="411" y="279.584">&#171;value object&#187;</text><text fill="#000000" font-family="sans-serif" font-size="12" font-style="italic" lengthAdjust="spacing" textLength="61" x="421" y="295.5449">&#171;identifier&#187;</text><text fill="#000000" font-family="sans-serif" font-size="14" lengthAdjust="spacing" textLength="44" x="429.5" y="313.6641">Priority</text><line style="stroke:#181818;stroke-width:0.5;" x1="385" x2="492" y1="322.1777" y2="322.1777"/><line style="stroke:#181818;stroke-width:0.5;" x1="385" x2="492" y1="330.1777" y2="330.1777"/></g><!--class OperationType--><g id="elem_OperationType"><rect codeLine="36" fill="#F1F1F1" height="76.543" id="OperationType" rx="2.5" ry="2.5" style="stroke:#181818;stroke-width:0.5;" width="127" x="1932" y="424.6348"/><ellipse cx="1947" cy="454.9063" fill="#ADD1B2" rx="11" ry="11" style="stroke:#181818;stroke-width:1.0;"/><path d="M1945.8594,455.7031 L1945.8594,458.2031 L1950.1875,458.2031 L1950.1875,457.2813 Q1950.1875,456.6719 1950.4219,456.4063 Q1950.6719,456.1406 1951.0469,456.1406 Q1951.4219,456.1406 1951.6563,456.4063 Q1951.8906,456.6719 1951.8906,457.2813 L1951.8906,459.9063 L1943.8906,459.9063 Q1943.2656,459.9063 1943,459.6719 Q1942.75,459.4375 1942.75,459.0469 Q1942.75,458.6719 1943.0156,458.4375 Q1943.2813,458.2031 1943.8906,458.2031 L1944.1563,458.2031 L1944.1563,451.5469 L1943.8906,451.5469 Q1943.2656,451.5469 1943,451.3125 Q1942.75,451.0781 1942.75,450.6875 Q1942.75,450.3125 1943,450.0781 Q1943.2656,449.8438 1943.8906,449.8438 L1951.5156,449.8438 L1951.5156,452.4375 Q1951.5156,453.0469 1951.2813,453.3125 Q1951.0625,453.5625 1950.6719,453.5625 Q1950.2969,453.5625 1950.0625,453.3125 Q1949.8281,453.0469 1949.8281,452.4375 L1949.8281,451.5469 L1945.8594,451.5469 L1945.8594,454 L1947.3438,454 Q1947.3438,453.3438 1947.4688,453.1563 Q1947.7344,452.75 1948.2031,452.75 Q1948.5781,452.75 1948.8125,453.0156 Q1949.0469,453.2656 1949.0469,453.875 L1949.0469,455.8438 Q1949.0469,456.3906 1948.9219,456.5781 Q1948.6563,456.9688 1948.2031,456.9688 Q1947.7344,456.9688 1947.4688,456.5625 Q1947.3438,456.375 1947.3438,455.7031 L1945.8594,455.7031 Z " fill="#000000"/><text fill="#000000" font-family="sans-serif" font-size="12" font-style="italic" lengthAdjust="spacing" textLength="43" x="1987" y="442.584">&#171;entity&#187;</text><text fill="#000000" font-family="sans-serif" font-size="12" font-style="italic" lengthAdjust="spacing" textLength="35" x="1991" y="458.5449">&#171;root&#187;</text><text fill="#000000" font-family="sans-serif" font-size="14" lengthAdjust="spacing" textLength="95" x="1961" y="476.6641">OperationType</text><line style="stroke:#181818;stroke-width:0.5;" x1="1933" x2="2058" y1="485.1777" y2="485.1777"/><line style="stroke:#181818;stroke-width:0.5;" x1="1933" x2="2058" y1="493.1777" y2="493.1777"/></g><!--class OperationTypeId--><g id="elem_OperationTypeId"><rect codeLine="37" fill="#F1F1F1" height="76.543" id="OperationTypeId" rx="2.5" ry="2.5" style="stroke:#181818;stroke-width:0.5;" width="138" x="1740.5" y="562.6348"/><ellipse cx="1755.5" cy="592.9063" fill="#FF8B40" rx="11" ry="11" style="stroke:#181818;stroke-width:1.0;"/><path d="M1756.0938,596.1719 L1758.5625,590.2969 L1758.1719,590.2969 Q1757.5625,590.2969 1757.2969,590.0625 Q1757.0313,589.8281 1757.0313,589.4375 Q1757.0313,589.0625 1757.2969,588.8281 Q1757.5625,588.5938 1758.1719,588.5938 L1760.4531,588.5938 Q1761.0625,588.5938 1761.3281,588.8281 Q1761.5938,589.0625 1761.5938,589.4375 Q1761.5938,589.9063 1761.1875,590.1719 Q1761,590.2969 1760.4063,590.2969 L1756.9219,598.6563 L1755.2813,598.6563 L1751.7969,590.2969 Q1751.2031,590.2969 1751.0156,590.1719 Q1750.6094,589.9063 1750.6094,589.4375 Q1750.6094,589.0625 1750.875,588.8281 Q1751.1406,588.5938 1751.75,588.5938 L1754.0469,588.5938 Q1754.6563,588.5938 1754.9063,588.8281 Q1755.1719,589.0625 1755.1719,589.4375 Q1755.1719,589.8281 1754.9063,590.0625 Q1754.6563,590.2969 1754.0469,590.2969 L1753.6406,590.2969 L1756.0938,596.1719 Z " fill="#000000"/><text fill="#000000" font-family="sans-serif" font-size="12" font-style="italic" lengthAdjust="spacing" textLength="81" x="1782" y="580.584">&#171;value object&#187;</text><text fill="#000000" font-family="sans-serif" font-size="12" font-style="italic" lengthAdjust="spacing" textLength="61" x="1792" y="596.5449">&#171;identifier&#187;</text><text fill="#000000" font-family="sans-serif" font-size="14" lengthAdjust="spacing" textLength="106" x="1769.5" y="614.6641">OperationTypeId</text><line style="stroke:#181818;stroke-width:0.5;" x1="1741.5" x2="1877.5" y1="623.1777" y2="623.1777"/><line style="stroke:#181818;stroke-width:0.5;" x1="1741.5" x2="1877.5" y1="631.1777" y2="631.1777"/></g><!--class OperationTypeName--><g id="elem_OperationTypeName"><rect codeLine="38" fill="#F1F1F1" height="60.582" id="OperationTypeName" rx="2.5" ry="2.5" style="stroke:#181818;stroke-width:0.5;" width="163" x="1914" y="570.6348"/><ellipse cx="1929" cy="592.9258" fill="#FF8B40" rx="11" ry="11" style="stroke:#181818;stroke-width:1.0;"/><path d="M1929.5938,596.1914 L1932.0625,590.3164 L1931.6719,590.3164 Q1931.0625,590.3164 1930.7969,590.082 Q1930.5313,589.8477 1930.5313,589.457 Q1930.5313,589.082 1930.7969,588.8477 Q1931.0625,588.6133 1931.6719,588.6133 L1933.9531,588.6133 Q1934.5625,588.6133 1934.8281,588.8477 Q1935.0938,589.082 1935.0938,589.457 Q1935.0938,589.9258 1934.6875,590.1914 Q1934.5,590.3164 1933.9063,590.3164 L1930.4219,598.6758 L1928.7813,598.6758 L1925.2969,590.3164 Q1924.7031,590.3164 1924.5156,590.1914 Q1924.1094,589.9258 1924.1094,589.457 Q1924.1094,589.082 1924.375,588.8477 Q1924.6406,588.6133 1925.25,588.6133 L1927.5469,588.6133 Q1928.1563,588.6133 1928.4063,588.8477 Q1928.6719,589.082 1928.6719,589.457 Q1928.6719,589.8477 1928.4063,590.082 Q1928.1563,590.3164 1927.5469,590.3164 L1927.1406,590.3164 L1929.5938,596.1914 Z " fill="#000000"/><text fill="#000000" font-family="sans-serif" font-size="12" font-style="italic" lengthAdjust="spacing" textLength="81" x="1968" y="588.584">&#171;value object&#187;</text><text fill="#000000" font-family="sans-serif" font-size="14" lengthAdjust="spacing" textLength="131" x="1943" y="606.7031">OperationTypeName</text><line style="stroke:#181818;stroke-width:0.5;" x1="1915" x2="2076" y1="615.2168" y2="615.2168"/><line style="stroke:#181818;stroke-width:0.5;" x1="1915" x2="2076" y1="623.2168" y2="623.2168"/></g><!--class RequiredStaff--><g id="elem_RequiredStaff"><rect codeLine="39" fill="#F1F1F1" height="60.582" id="RequiredStaff" rx="2.5" ry="2.5" style="stroke:#181818;stroke-width:0.5;" width="119" x="1849" y="700.6348"/><ellipse cx="1864" cy="722.9258" fill="#FF8B40" rx="11" ry="11" style="stroke:#181818;stroke-width:1.0;"/><path d="M1864.5938,726.1914 L1867.0625,720.3164 L1866.6719,720.3164 Q1866.0625,720.3164 1865.7969,720.082 Q1865.5313,719.8477 1865.5313,719.457 Q1865.5313,719.082 1865.7969,718.8477 Q1866.0625,718.6133 1866.6719,718.6133 L1868.9531,718.6133 Q1869.5625,718.6133 1869.8281,718.8477 Q1870.0938,719.082 1870.0938,719.457 Q1870.0938,719.9258 1869.6875,720.1914 Q1869.5,720.3164 1868.9063,720.3164 L1865.4219,728.6758 L1863.7813,728.6758 L1860.2969,720.3164 Q1859.7031,720.3164 1859.5156,720.1914 Q1859.1094,719.9258 1859.1094,719.457 Q1859.1094,719.082 1859.375,718.8477 Q1859.6406,718.6133 1860.25,718.6133 L1862.5469,718.6133 Q1863.1563,718.6133 1863.4063,718.8477 Q1863.6719,719.082 1863.6719,719.457 Q1863.6719,719.8477 1863.4063,720.082 Q1863.1563,720.3164 1862.5469,720.3164 L1862.1406,720.3164 L1864.5938,726.1914 Z " fill="#000000"/><text fill="#000000" font-family="sans-serif" font-size="12" font-style="italic" lengthAdjust="spacing" textLength="81" x="1881" y="718.584">&#171;value object&#187;</text><text fill="#000000" font-family="sans-serif" font-size="14" lengthAdjust="spacing" textLength="87" x="1878" y="736.7031">RequiredStaff</text><line style="stroke:#181818;stroke-width:0.5;" x1="1850" x2="1967" y1="745.2168" y2="745.2168"/><line style="stroke:#181818;stroke-width:0.5;" x1="1850" x2="1967" y1="753.2168" y2="753.2168"/></g><!--class EstimatedDuration--><g id="elem_EstimatedDuration"><rect codeLine="40" fill="#F1F1F1" height="60.582" id="EstimatedDuration" rx="2.5" ry="2.5" style="stroke:#181818;stroke-width:0.5;" width="148" x="2003.5" y="700.6348"/><ellipse cx="2018.5" cy="722.9258" fill="#FF8B40" rx="11" ry="11" style="stroke:#181818;stroke-width:1.0;"/><path d="M2019.0938,726.1914 L2021.5625,720.3164 L2021.1719,720.3164 Q2020.5625,720.3164 2020.2969,720.082 Q2020.0313,719.8477 2020.0313,719.457 Q2020.0313,719.082 2020.2969,718.8477 Q2020.5625,718.6133 2021.1719,718.6133 L2023.4531,718.6133 Q2024.0625,718.6133 2024.3281,718.8477 Q2024.5938,719.082 2024.5938,719.457 Q2024.5938,719.9258 2024.1875,720.1914 Q2024,720.3164 2023.4063,720.3164 L2019.9219,728.6758 L2018.2813,728.6758 L2014.7969,720.3164 Q2014.2031,720.3164 2014.0156,720.1914 Q2013.6094,719.9258 2013.6094,719.457 Q2013.6094,719.082 2013.875,718.8477 Q2014.1406,718.6133 2014.75,718.6133 L2017.0469,718.6133 Q2017.6563,718.6133 2017.9063,718.8477 Q2018.1719,719.082 2018.1719,719.457 Q2018.1719,719.8477 2017.9063,720.082 Q2017.6563,720.3164 2017.0469,720.3164 L2016.6406,720.3164 L2019.0938,726.1914 Z " fill="#000000"/><text fill="#000000" font-family="sans-serif" font-size="12" font-style="italic" lengthAdjust="spacing" textLength="81" x="2050" y="718.584">&#171;value object&#187;</text><text fill="#000000" font-family="sans-serif" font-size="14" lengthAdjust="spacing" textLength="116" x="2032.5" y="736.7031">EstimatedDuration</text><line style="stroke:#181818;stroke-width:0.5;" x1="2004.5" x2="2150.5" y1="745.2168" y2="745.2168"/><line style="stroke:#181818;stroke-width:0.5;" x1="2004.5" x2="2150.5" y1="753.2168" y2="753.2168"/></g><!--class Name--><g id="elem_Name"><rect codeLine="5" fill="#F1F1F1" height="60.582" id="Name" rx="2.5" ry="2.5" style="stroke:#181818;stroke-width:0.5;" width="109" x="79" y="269.6348"/><ellipse cx="94" cy="291.9258" fill="#FF8B40" rx="11" ry="11" style="stroke:#181818;stroke-width:1.0;"/><path d="M94.5938,295.1914 L97.0625,289.3164 L96.6719,289.3164 Q96.0625,289.3164 95.7969,289.082 Q95.5313,288.8477 95.5313,288.457 Q95.5313,288.082 95.7969,287.8477 Q96.0625,287.6133 96.6719,287.6133 L98.9531,287.6133 Q99.5625,287.6133 99.8281,287.8477 Q100.0938,288.082 100.0938,288.457 Q100.0938,288.9258 99.6875,289.1914 Q99.5,289.3164 98.9063,289.3164 L95.4219,297.6758 L93.7813,297.6758 L90.2969,289.3164 Q89.7031,289.3164 89.5156,289.1914 Q89.1094,288.9258 89.1094,288.457 Q89.1094,288.082 89.375,287.8477 Q89.6406,287.6133 90.25,287.6133 L92.5469,287.6133 Q93.1563,287.6133 93.4063,287.8477 Q93.6719,288.082 93.6719,288.457 Q93.6719,288.8477 93.4063,289.082 Q93.1563,289.3164 92.5469,289.3164 L92.1406,289.3164 L94.5938,295.1914 Z " fill="#000000"/><text fill="#000000" font-family="sans-serif" font-size="12" font-style="italic" lengthAdjust="spacing" textLength="81" x="106" y="287.584">&#171;value object&#187;</text><text fill="#000000" font-family="sans-serif" font-size="14" lengthAdjust="spacing" textLength="36" x="128.5" y="305.7031">Name</text><line style="stroke:#181818;stroke-width:0.5;" x1="80" x2="187" y1="314.2168" y2="314.2168"/><line style="stroke:#181818;stroke-width:0.5;" x1="80" x2="187" y1="322.2168" y2="322.2168"/></g><!--class FirstName--><g id="elem_FirstName"><rect codeLine="6" fill="#F1F1F1" height="60.582" id="FirstName" rx="2.5" ry="2.5" style="stroke:#181818;stroke-width:0.5;" width="109" x="7" y="432.6348"/><ellipse cx="22" cy="454.9258" fill="#FF8B40" rx="11" ry="11" style="stroke:#181818;stroke-width:1.0;"/><path d="M22.5938,458.1914 L25.0625,452.3164 L24.6719,452.3164 Q24.0625,452.3164 23.7969,452.082 Q23.5313,451.8477 23.5313,451.457 Q23.5313,451.082 23.7969,450.8477 Q24.0625,450.6133 24.6719,450.6133 L26.9531,450.6133 Q27.5625,450.6133 27.8281,450.8477 Q28.0938,451.082 28.0938,451.457 Q28.0938,451.9258 27.6875,452.1914 Q27.5,452.3164 26.9063,452.3164 L23.4219,460.6758 L21.7813,460.6758 L18.2969,452.3164 Q17.7031,452.3164 17.5156,452.1914 Q17.1094,451.9258 17.1094,451.457 Q17.1094,451.082 17.375,450.8477 Q17.6406,450.6133 18.25,450.6133 L20.5469,450.6133 Q21.1563,450.6133 21.4063,450.8477 Q21.6719,451.082 21.6719,451.457 Q21.6719,451.8477 21.4063,452.082 Q21.1563,452.3164 20.5469,452.3164 L20.1406,452.3164 L22.5938,458.1914 Z " fill="#000000"/><text fill="#000000" font-family="sans-serif" font-size="12" font-style="italic" lengthAdjust="spacing" textLength="81" x="34" y="450.584">&#171;value object&#187;</text><text fill="#000000" font-family="sans-serif" font-size="14" lengthAdjust="spacing" textLength="64" x="42.5" y="468.7031">FirstName</text><line style="stroke:#181818;stroke-width:0.5;" x1="8" x2="115" y1="477.2168" y2="477.2168"/><line style="stroke:#181818;stroke-width:0.5;" x1="8" x2="115" y1="485.2168" y2="485.2168"/></g><!--class LastName--><g id="elem_LastName"><rect codeLine="7" fill="#F1F1F1" height="60.582" id="LastName" rx="2.5" ry="2.5" style="stroke:#181818;stroke-width:0.5;" width="109" x="223" y="269.6348"/><ellipse cx="238" cy="291.9258" fill="#FF8B40" rx="11" ry="11" style="stroke:#181818;stroke-width:1.0;"/><path d="M238.5938,295.1914 L241.0625,289.3164 L240.6719,289.3164 Q240.0625,289.3164 239.7969,289.082 Q239.5313,288.8477 239.5313,288.457 Q239.5313,288.082 239.7969,287.8477 Q240.0625,287.6133 240.6719,287.6133 L242.9531,287.6133 Q243.5625,287.6133 243.8281,287.8477 Q244.0938,288.082 244.0938,288.457 Q244.0938,288.9258 243.6875,289.1914 Q243.5,289.3164 242.9063,289.3164 L239.4219,297.6758 L237.7813,297.6758 L234.2969,289.3164 Q233.7031,289.3164 233.5156,289.1914 Q233.1094,288.9258 233.1094,288.457 Q233.1094,288.082 233.375,287.8477 Q233.6406,287.6133 234.25,287.6133 L236.5469,287.6133 Q237.1563,287.6133 237.4063,287.8477 Q237.6719,288.082 237.6719,288.457 Q237.6719,288.8477 237.4063,289.082 Q237.1563,289.3164 236.5469,289.3164 L236.1406,289.3164 L238.5938,295.1914 Z " fill="#000000"/><text fill="#000000" font-family="sans-serif" font-size="12" font-style="italic" lengthAdjust="spacing" textLength="81" x="250" y="287.584">&#171;value object&#187;</text><text fill="#000000" font-family="sans-serif" font-size="14" lengthAdjust="spacing" textLength="63" x="259" y="305.7031">LastName</text><line style="stroke:#181818;stroke-width:0.5;" x1="224" x2="331" y1="314.2168" y2="314.2168"/><line style="stroke:#181818;stroke-width:0.5;" x1="224" x2="331" y1="322.2168" y2="322.2168"/></g><!--class FullName--><g id="elem_FullName"><rect codeLine="8" fill="#F1F1F1" height="60.582" id="FullName" rx="2.5" ry="2.5" style="stroke:#181818;stroke-width:0.5;" width="109" x="151" y="432.6348"/><ellipse cx="166" cy="454.9258" fill="#FF8B40" rx="11" ry="11" style="stroke:#181818;stroke-width:1.0;"/><path d="M166.5938,458.1914 L169.0625,452.3164 L168.6719,452.3164 Q168.0625,452.3164 167.7969,452.082 Q167.5313,451.8477 167.5313,451.457 Q167.5313,451.082 167.7969,450.8477 Q168.0625,450.6133 168.6719,450.6133 L170.9531,450.6133 Q171.5625,450.6133 171.8281,450.8477 Q172.0938,451.082 172.0938,451.457 Q172.0938,451.9258 171.6875,452.1914 Q171.5,452.3164 170.9063,452.3164 L167.4219,460.6758 L165.7813,460.6758 L162.2969,452.3164 Q161.7031,452.3164 161.5156,452.1914 Q161.1094,451.9258 161.1094,451.457 Q161.1094,451.082 161.375,450.8477 Q161.6406,450.6133 162.25,450.6133 L164.5469,450.6133 Q165.1563,450.6133 165.4063,450.8477 Q165.6719,451.082 165.6719,451.457 Q165.6719,451.8477 165.4063,452.082 Q165.1563,452.3164 164.5469,452.3164 L164.1406,452.3164 L166.5938,458.1914 Z " fill="#000000"/><text fill="#000000" font-family="sans-serif" font-size="12" font-style="italic" lengthAdjust="spacing" textLength="81" x="178" y="450.584">&#171;value object&#187;</text><text fill="#000000" font-family="sans-serif" font-size="14" lengthAdjust="spacing" textLength="59" x="189" y="468.7031">FullName</text><line style="stroke:#181818;stroke-width:0.5;" x1="152" x2="259" y1="477.2168" y2="477.2168"/><line style="stroke:#181818;stroke-width:0.5;" x1="152" x2="259" y1="485.2168" y2="485.2168"/></g><!--class ContactInfo--><g id="elem_ContactInfo"><rect codeLine="9" fill="#F1F1F1" height="60.582" id="ContactInfo" rx="2.5" ry="2.5" style="stroke:#181818;stroke-width:0.5;" width="109" x="1596" y="570.6348"/><ellipse cx="1611" cy="592.9258" fill="#FF8B40" rx="11" ry="11" style="stroke:#181818;stroke-width:1.0;"/><path d="M1611.5938,596.1914 L1614.0625,590.3164 L1613.6719,590.3164 Q1613.0625,590.3164 1612.7969,590.082 Q1612.5313,589.8477 1612.5313,589.457 Q1612.5313,589.082 1612.7969,588.8477 Q1613.0625,588.6133 1613.6719,588.6133 L1615.9531,588.6133 Q1616.5625,588.6133 1616.8281,588.8477 Q1617.0938,589.082 1617.0938,589.457 Q1617.0938,589.9258 1616.6875,590.1914 Q1616.5,590.3164 1615.9063,590.3164 L1612.4219,598.6758 L1610.7813,598.6758 L1607.2969,590.3164 Q1606.7031,590.3164 1606.5156,590.1914 Q1606.1094,589.9258 1606.1094,589.457 Q1606.1094,589.082 1606.375,588.8477 Q1606.6406,588.6133 1607.25,588.6133 L1609.5469,588.6133 Q1610.1563,588.6133 1610.4063,588.8477 Q1610.6719,589.082 1610.6719,589.457 Q1610.6719,589.8477 1610.4063,590.082 Q1610.1563,590.3164 1609.5469,590.3164 L1609.1406,590.3164 L1611.5938,596.1914 Z " fill="#000000"/><text fill="#000000" font-family="sans-serif" font-size="12" font-style="italic" lengthAdjust="spacing" textLength="81" x="1623" y="588.584">&#171;value object&#187;</text><text fill="#000000" font-family="sans-serif" font-size="14" lengthAdjust="spacing" textLength="72" x="1627.5" y="606.7031">ContactInfo</text><line style="stroke:#181818;stroke-width:0.5;" x1="1597" x2="1704" y1="615.2168" y2="615.2168"/><line style="stroke:#181818;stroke-width:0.5;" x1="1597" x2="1704" y1="623.2168" y2="623.2168"/></g><!--class Phone--><g id="elem_Phone"><rect codeLine="10" fill="#F1F1F1" height="60.582" id="Phone" rx="2.5" ry="2.5" style="stroke:#181818;stroke-width:0.5;" width="109" x="1393" y="700.6348"/><ellipse cx="1408" cy="722.9258" fill="#FF8B40" rx="11" ry="11" style="stroke:#181818;stroke-width:1.0;"/><path d="M1408.5938,726.1914 L1411.0625,720.3164 L1410.6719,720.3164 Q1410.0625,720.3164 1409.7969,720.082 Q1409.5313,719.8477 1409.5313,719.457 Q1409.5313,719.082 1409.7969,718.8477 Q1410.0625,718.6133 1410.6719,718.6133 L1412.9531,718.6133 Q1413.5625,718.6133 1413.8281,718.8477 Q1414.0938,719.082 1414.0938,719.457 Q1414.0938,719.9258 1413.6875,720.1914 Q1413.5,720.3164 1412.9063,720.3164 L1409.4219,728.6758 L1407.7813,728.6758 L1404.2969,720.3164 Q1403.7031,720.3164 1403.5156,720.1914 Q1403.1094,719.9258 1403.1094,719.457 Q1403.1094,719.082 1403.375,718.8477 Q1403.6406,718.6133 1404.25,718.6133 L1406.5469,718.6133 Q1407.1563,718.6133 1407.4063,718.8477 Q1407.6719,719.082 1407.6719,719.457 Q1407.6719,719.8477 1407.4063,720.082 Q1407.1563,720.3164 1406.5469,720.3164 L1406.1406,720.3164 L1408.5938,726.1914 Z " fill="#000000"/><text fill="#000000" font-family="sans-serif" font-size="12" font-style="italic" lengthAdjust="spacing" textLength="81" x="1420" y="718.584">&#171;value object&#187;</text><text fill="#000000" font-family="sans-serif" font-size="14" lengthAdjust="spacing" textLength="41" x="1440" y="736.7031">Phone</text><line style="stroke:#181818;stroke-width:0.5;" x1="1394" x2="1501" y1="745.2168" y2="745.2168"/><line style="stroke:#181818;stroke-width:0.5;" x1="1394" x2="1501" y1="753.2168" y2="753.2168"/></g><!--class Email--><g id="elem_Email"><rect codeLine="11" fill="#F1F1F1" height="60.582" id="Email" rx="2.5" ry="2.5" style="stroke:#181818;stroke-width:0.5;" width="109" x="1596" y="700.6348"/><ellipse cx="1611" cy="722.9258" fill="#FF8B40" rx="11" ry="11" style="stroke:#181818;stroke-width:1.0;"/><path d="M1611.5938,726.1914 L1614.0625,720.3164 L1613.6719,720.3164 Q1613.0625,720.3164 1612.7969,720.082 Q1612.5313,719.8477 1612.5313,719.457 Q1612.5313,719.082 1612.7969,718.8477 Q1613.0625,718.6133 1613.6719,718.6133 L1615.9531,718.6133 Q1616.5625,718.6133 1616.8281,718.8477 Q1617.0938,719.082 1617.0938,719.457 Q1617.0938,719.9258 1616.6875,720.1914 Q1616.5,720.3164 1615.9063,720.3164 L1612.4219,728.6758 L1610.7813,728.6758 L1607.2969,720.3164 Q1606.7031,720.3164 1606.5156,720.1914 Q1606.1094,719.9258 1606.1094,719.457 Q1606.1094,719.082 1606.375,718.8477 Q1606.6406,718.6133 1607.25,718.6133 L1609.5469,718.6133 Q1610.1563,718.6133 1610.4063,718.8477 Q1610.6719,719.082 1610.6719,719.457 Q1610.6719,719.8477 1610.4063,720.082 Q1610.1563,720.3164 1609.5469,720.3164 L1609.1406,720.3164 L1611.5938,726.1914 Z " fill="#000000"/><text fill="#000000" font-family="sans-serif" font-size="12" font-style="italic" lengthAdjust="spacing" textLength="81" x="1623" y="718.584">&#171;value object&#187;</text><text fill="#000000" font-family="sans-serif" font-size="14" lengthAdjust="spacing" textLength="34" x="1646.5" y="736.7031">Email</text><line style="stroke:#181818;stroke-width:0.5;" x1="1597" x2="1704" y1="745.2168" y2="745.2168"/><line style="stroke:#181818;stroke-width:0.5;" x1="1597" x2="1704" y1="753.2168" y2="753.2168"/></g><!--class Date--><g id="elem_Date"><rect codeLine="12" fill="#F1F1F1" height="60.582" id="Date" rx="2.5" ry="2.5" style="stroke:#181818;stroke-width:0.5;" width="109" x="1596" y="269.6348"/><ellipse cx="1611" cy="291.9258" fill="#FF8B40" rx="11" ry="11" style="stroke:#181818;stroke-width:1.0;"/><path d="M1611.5938,295.1914 L1614.0625,289.3164 L1613.6719,289.3164 Q1613.0625,289.3164 1612.7969,289.082 Q1612.5313,288.8477 1612.5313,288.457 Q1612.5313,288.082 1612.7969,287.8477 Q1613.0625,287.6133 1613.6719,287.6133 L1615.9531,287.6133 Q1616.5625,287.6133 1616.8281,287.8477 Q1617.0938,288.082 1617.0938,288.457 Q1617.0938,288.9258 1616.6875,289.1914 Q1616.5,289.3164 1615.9063,289.3164 L1612.4219,297.6758 L1610.7813,297.6758 L1607.2969,289.3164 Q1606.7031,289.3164 1606.5156,289.1914 Q1606.1094,288.9258 1606.1094,288.457 Q1606.1094,288.082 1606.375,287.8477 Q1606.6406,287.6133 1607.25,287.6133 L1609.5469,287.6133 Q1610.1563,287.6133 1610.4063,287.8477 Q1610.6719,288.082 1610.6719,288.457 Q1610.6719,288.8477 1610.4063,289.082 Q1610.1563,289.3164 1609.5469,289.3164 L1609.1406,289.3164 L1611.5938,295.1914 Z " fill="#000000"/><text fill="#000000" font-family="sans-serif" font-size="12" font-style="italic" lengthAdjust="spacing" textLength="81" x="1623" y="287.584">&#171;value object&#187;</text><text fill="#000000" font-family="sans-serif" font-size="14" lengthAdjust="spacing" textLength="30" x="1648.5" y="305.7031">Date</text><line style="stroke:#181818;stroke-width:0.5;" x1="1597" x2="1704" y1="314.2168" y2="314.2168"/><line style="stroke:#181818;stroke-width:0.5;" x1="1597" x2="1704" y1="322.2168" y2="322.2168"/></g><!--link Name to FirstName--><g id="link_Name_FirstName"><path codeLine="43" d="M120.29,330.6648 C107.34,359.6248 90.1603,398.0579 77.1903,427.0479 " fill="none" id="Name-to-FirstName" style="stroke:#181818;stroke-width:1.0;"/><polygon fill="#181818" points="74.74,432.5248,82.0667,425.943,76.7819,427.9607,74.7642,422.6759,74.74,432.5248" style="stroke:#181818;stroke-width:1.0;"/></g><!--link Name to LastName--><g id="link_Name_LastName"><path codeLine="44" d="M188.06,300.1348 C199.71,300.1348 205.35,300.1348 217,300.1348 " fill="none" id="Name-to-LastName" style="stroke:#181818;stroke-width:1.0;"/><polygon fill="#181818" points="223,300.1348,214,296.1348,218,300.1348,214,304.1348,223,300.1348" style="stroke:#181818;stroke-width:1.0;"/></g><!--link Name to FullName--><g id="link_Name_FullName"><path codeLine="45" d="M146.71,330.6648 C159.66,359.6248 176.8397,398.0579 189.8097,427.0479 " fill="none" id="Name-to-FullName" style="stroke:#181818;stroke-width:1.0;"/><polygon fill="#181818" points="192.26,432.5248,192.2358,422.6759,190.2181,427.9607,184.9333,425.943,192.26,432.5248" style="stroke:#181818;stroke-width:1.0;"/></g><!--link OperationType to OperationTypeId--><g id="link_OperationType_OperationTypeId"><path codeLine="47" d="M1944.18,501.6548 C1918.27,520.6048 1891.754,539.9942 1865.814,558.9542 " fill="none" id="OperationType-to-OperationTypeId" style="stroke:#181818;stroke-width:1.0;"/><polygon fill="#181818" points="1860.97,562.4948,1870.5964,560.4133,1865.0067,559.5443,1865.8756,553.9546,1860.97,562.4948" style="stroke:#181818;stroke-width:1.0;"/><text fill="#000000" font-family="sans-serif" font-size="13" lengthAdjust="spacing" textLength="7" x="1862.2148" y="551.4852">1</text></g><!--link OperationType to OperationTypeName--><g id="link_OperationType_OperationTypeName"><path codeLine="48" d="M1995.5,501.6548 C1995.5,523.3548 1995.5,544.2748 1995.5,564.4848 " fill="none" id="OperationType-to-OperationTypeName" style="stroke:#181818;stroke-width:1.0;"/><polygon fill="#181818" points="1995.5,570.4848,1999.5,561.4848,1995.5,565.4848,1991.5,561.4848,1995.5,570.4848" style="stroke:#181818;stroke-width:1.0;"/><text fill="#000000" font-family="sans-serif" font-size="13" lengthAdjust="spacing" textLength="7" x="1987.7781" y="559.5115">1</text></g><!--link OperationType to RequiredStaff--><g id="link_OperationType_RequiredStaff"><path codeLine="49" d="M2047.74,501.7448 C2066.14,518.1348 2084.68,539.0148 2094.5,562.6348 C2110.37,600.8048 2117.66,621.4048 2094.5,655.6348 C2092.57,658.4848 2027.324,684.1951 1973.644,705.0151 " fill="none" id="OperationType-to-RequiredStaff" style="stroke:#181818;stroke-width:1.0;"/><polygon fill="#181818" points="1968.05,707.1848,1977.8874,707.6596,1972.7117,705.3767,1974.9945,700.201,1968.05,707.1848" style="stroke:#181818;stroke-width:1.0;"/><text fill="#000000" font-family="sans-serif" font-size="13" lengthAdjust="spacing" textLength="7" x="1976.1283" y="700.1008">1</text></g><!--link OperationType to EstimatedDuration--><g id="link_OperationType_EstimatedDuration"><path codeLine="50" d="M2059.17,482.2648 C2083.38,492.6048 2108.48,508.3048 2122.5,531.6348 C2154.32,584.5848 2142.15,612.0648 2122.5,670.6348 C2118.92,681.3148 2116.2117,686.8463 2109.3917,695.7763 " fill="none" id="OperationType-to-EstimatedDuration" style="stroke:#181818;stroke-width:1.0;"/><polygon fill="#181818" points="2105.75,700.5448,2114.3915,695.82,2108.7848,696.5711,2108.0336,690.9643,2105.75,700.5448" style="stroke:#181818;stroke-width:1.0;"/><text fill="#000000" font-family="sans-serif" font-size="13" lengthAdjust="spacing" textLength="7" x="2103.8547" y="689.5839">1</text></g><!--link OperationRequest to OperationRequestId--><g id="link_OperationRequest_OperationRequestId"><path codeLine="52" d="M512.7,121.1348 C524.36,121.1348 530.02,121.1348 541.68,121.1348 " fill="none" id="OperationRequest-to-OperationRequestId" style="stroke:#181818;stroke-width:1.0;"/><polygon fill="#181818" points="547.68,121.1348,538.68,117.1348,542.68,121.1348,538.68,125.1348,547.68,121.1348" style="stroke:#181818;stroke-width:1.0;"/><text fill="#000000" font-family="sans-serif" font-size="13" lengthAdjust="spacing" textLength="7" x="532.9989" y="117.414">1</text></g><!--link OperationRequest to Priority--><g id="link_OperationRequest_Priority"><path codeLine="53" d="M438.5,159.6748 C438.5,189.6048 438.5,225.3448 438.5,255.3448 " fill="none" id="OperationRequest-to-Priority" style="stroke:#181818;stroke-width:1.0;"/><polygon fill="#181818" points="438.5,261.3448,442.5,252.3448,438.5,256.3448,434.5,252.3448,438.5,261.3448" style="stroke:#181818;stroke-width:1.0;"/><text fill="#000000" font-family="sans-serif" font-size="13" lengthAdjust="spacing" textLength="7" x="430.8984" y="250.3094">1</text></g><!--link OperationRequest to Patient--><g id="link_OperationRequest_Patient"><path codeLine="54" d="M512.51,153.2448 C518.56,155.4948 524.61,157.6548 530.5,159.6348 C623.26,190.7748 905.3795,262.1082 1009.5595,288.1782 " fill="none" id="OperationRequest-to-Patient" style="stroke:#181818;stroke-width:1.0;"/><polygon fill="#181818" points="1015.38,289.6348,1007.6202,283.5696,1010.5296,288.421,1005.6782,291.3303,1015.38,289.6348" style="stroke:#181818;stroke-width:1.0;"/><text fill="#000000" font-family="sans-serif" font-size="13" lengthAdjust="spacing" textLength="50" x="694.5" y="204.6631">made for</text><text fill="#000000" font-family="sans-serif" font-size="13" lengthAdjust="spacing" textLength="7" x="1000.4462" y="283.1125">1</text></g><!--link OperationRequest to Doctor--><g id="link_OperationRequest_Doctor"><path codeLine="55" d="M512.61,154.9348 C518.58,156.7748 524.59,158.3848 530.5,159.6348 C753.24,206.6848 1327.86,168.1948 1554.5,189.6348 C1629.79,196.7548 1658.88,175.7548 1722.5,216.6348 C1739.15,227.3348 1749.0411,239.8271 1758.0711,256.1171 " fill="none" id="OperationRequest-to-Doctor" style="stroke:#181818;stroke-width:1.0;"/><polygon fill="#181818" points="1760.98,261.3648,1760.1151,251.554,1758.5559,256.9917,1753.1181,255.4325,1760.98,261.3648" style="stroke:#181818;stroke-width:1.0;"/><text fill="#000000" font-family="sans-serif" font-size="13" lengthAdjust="spacing" textLength="64" x="1708.5" y="204.6631">registed by</text><text fill="#000000" font-family="sans-serif" font-size="13" lengthAdjust="spacing" textLength="7" x="1750.5391" y="250.3328">1</text></g><!--link OperationRequest to OperationType--><g id="link_OperationRequest_OperationType"><path codeLine="56" d="M512.6,154.9648 C518.58,156.8048 524.59,158.4048 530.5,159.6348 C802.73,216.3848 1513.04,117.1248 1781.5,189.6348 C1892.56,219.6348 1954.9965,351.2831 1980.5465,418.8031 " fill="none" id="OperationRequest-to-OperationType" style="stroke:#181818;stroke-width:1.0;"/><polygon fill="#181818" points="1982.67,424.4148,1983.2259,414.5816,1980.9004,419.7384,1975.7437,417.4129,1982.67,424.4148" style="stroke:#181818;stroke-width:1.0;"/><text fill="#000000" font-family="sans-serif" font-size="13" lengthAdjust="spacing" textLength="59" x="1955.5" y="305.6631">defined by</text><text fill="#000000" font-family="sans-serif" font-size="13" lengthAdjust="spacing" textLength="7" x="1972.8633" y="413.3914">1</text></g><!--link OperationRequest to Date--><g id="link_OperationRequest_Date"><path codeLine="57" d="M512.64,154.7648 C518.61,156.6548 524.61,158.3148 530.5,159.6348 C758.29,210.7348 1370.03,113.5748 1579.5,216.6348 C1602.56,227.9848 1617.8479,245.5518 1630.2079,264.2218 " fill="none" id="OperationRequest-to-Date" style="stroke:#181818;stroke-width:1.0;"/><polygon fill="#181818" points="1633.52,269.2248,1631.8872,259.5122,1630.7599,265.0556,1625.2165,263.9283,1633.52,269.2248" style="stroke:#181818;stroke-width:1.0;"/><text fill="#000000" font-family="sans-serif" font-size="13" lengthAdjust="spacing" textLength="7" x="1622.296" y="258.1979">1</text></g><!--link Patient to Name--><g id="link_Patient_Name"><path codeLine="59" d="M1015.38,283.4848 C952.43,256.9948 822.16,206.3948 706,188.1348 C599.97,171.4648 319.73,141.6148 223,188.1348 C188.23,204.8548 165.6267,237.1139 150.9367,264.1239 " fill="none" id="Patient-to-Name" style="stroke:#181818;stroke-width:1.0;"/><polygon fill="#181818" points="148.07,269.3948,155.8839,263.3996,150.4589,265.0024,148.8561,259.5773,148.07,269.3948" style="stroke:#181818;stroke-width:1.0;"/><text fill="#000000" font-family="sans-serif" font-size="13" lengthAdjust="spacing" textLength="7" x="143.3532" y="258.4029">1</text></g><!--link Patient to DateBirth--><g id="link_Patient_DateBirth"><path codeLine="60" d="M1015.49,314.3748 C980.81,327.5748 929.23,350.1348 890.5,379.6348 C870.99,394.4948 856.5336,410.5809 843.3536,427.6009 " fill="none" id="Patient-to-DateBirth" style="stroke:#181818;stroke-width:1.0;"/><polygon fill="#181818" points="839.68,432.3448,848.353,427.678,842.7413,428.3915,842.0278,422.7798,839.68,432.3448" style="stroke:#181818;stroke-width:1.0;"/><text fill="#000000" font-family="sans-serif" font-size="13" lengthAdjust="spacing" textLength="7" x="836.3265" y="421.3426">1</text></g><!--link Patient to Gender--><g id="link_Patient_Gender"><path codeLine="61" d="M1032.16,338.8848 C1016.04,367.4148 997.1525,400.8215 982.2525,427.1815 " fill="none" id="Patient-to-Gender" style="stroke:#181818;stroke-width:1.0;"/><polygon fill="#181818" points="979.3,432.4048,987.2109,426.5381,981.7604,428.052,980.2465,422.6015,979.3,432.4048" style="stroke:#181818;stroke-width:1.0;"/><text fill="#000000" font-family="sans-serif" font-size="13" lengthAdjust="spacing" textLength="7" x="975.0431" y="421.415">1</text></g><!--link Patient to ContactInfo--><g id="link_Patient_ContactInfo"><path codeLine="62" d="M1091.74,301.7148 C1200.36,304.1148 1507.64,316.4648 1581.5,379.6348 C1638.2,428.1248 1648.7264,516.5582 1650.3564,564.5682 " fill="none" id="Patient-to-ContactInfo" style="stroke:#181818;stroke-width:1.0;"/><polygon fill="#181818" points="1650.56,570.5648,1654.2523,561.4342,1650.3903,565.5676,1646.2569,561.7057,1650.56,570.5648" style="stroke:#181818;stroke-width:1.0;"/><text fill="#000000" font-family="sans-serif" font-size="13" lengthAdjust="spacing" textLength="7" x="1642.8505" y="559.608">1</text></g><!--link Patient to EmergencyContact--><g id="link_Patient_EmergencyContact"><path codeLine="63" d="M1046.92,338.7448 C1041.49,381.9748 1039.29,453.1848 1072.5,501.6348 C1100.49,542.4848 1144.898,565.2775 1187.558,579.7475 " fill="none" id="Patient-to-EmergencyContact" style="stroke:#181818;stroke-width:1.0;"/><polygon fill="#181818" points="1193.24,581.6748,1186.0018,574.9958,1188.505,580.0687,1183.4321,582.5718,1193.24,581.6748" style="stroke:#181818;stroke-width:1.0;"/><text fill="#000000" font-family="sans-serif" font-size="13" lengthAdjust="spacing" textLength="7" x="1178.3886" y="575.9857">1</text></g><!--link Patient to MRN--><g id="link_Patient_MRN"><path codeLine="64" d="M1074.84,338.8848 C1089.44,364.7248 1105.7672,393.6117 1120.3472,419.4017 " fill="none" id="Patient-to-MRN" style="stroke:#181818;stroke-width:1.0;"/><polygon fill="#181818" points="1123.3,424.6248,1122.3529,414.8216,1120.8393,420.2722,1115.3887,418.7586,1123.3,424.6248" style="stroke:#181818;stroke-width:1.0;"/><text fill="#000000" font-family="sans-serif" font-size="13" lengthAdjust="spacing" textLength="7" x="1111.9003" y="413.3461">1</text></g><!--link Patient to MedicalCondition--><g id="link_Patient_MedicalCondition"><path codeLine="65" d="M1091.51,315.5648 C1125.72,329.4348 1176.61,352.2848 1216.5,379.6348 C1238.61,394.7948 1256.4147,411.1253 1272.8847,427.9653 " fill="none" id="Patient-to-MedicalCondition" style="stroke:#181818;stroke-width:1.0;"/><polygon fill="#181818" points="1277.08,432.2548,1273.6468,423.0237,1273.584,428.6802,1267.9274,428.6173,1277.08,432.2548" style="stroke:#181818;stroke-width:1.0;"/><text fill="#000000" font-family="sans-serif" font-size="13" lengthAdjust="spacing" textLength="20" x="1249.3621" y="421.2341">0..*</text></g><!--link Patient to AppointmentHistory--><g id="link_Patient_AppointmentHistory"><path codeLine="66" d="M1091.68,303.8848 C1156.71,309.8548 1291.71,327.9348 1392.5,379.6348 C1418.2,392.8148 1438.362,410.278 1455.852,428.138 " fill="none" id="Patient-to-AppointmentHistory" style="stroke:#181818;stroke-width:1.0;"/><polygon fill="#181818" points="1460.05,432.4248,1456.6109,423.1959,1456.5517,428.8524,1450.8951,428.7932,1460.05,432.4248" style="stroke:#181818;stroke-width:1.0;"/><text fill="#000000" font-family="sans-serif" font-size="13" lengthAdjust="spacing" textLength="7" x="1446.8728" y="421.4391">1</text></g><!--link ContactInfo to Email--><g id="link_ContactInfo_Email"><path codeLine="67" d="M1650.5,631.8248 C1650.5,652.5048 1650.5,673.9648 1650.5,694.6048 " fill="none" id="ContactInfo-to-Email" style="stroke:#181818;stroke-width:1.0;"/><polygon fill="#181818" points="1650.5,700.6048,1654.5,691.6048,1650.5,695.6048,1646.5,691.6048,1650.5,700.6048" style="stroke:#181818;stroke-width:1.0;"/><text fill="#000000" font-family="sans-serif" font-size="13" lengthAdjust="spacing" textLength="7" x="1642.7344" y="689.1728">1</text></g><!--link ContactInfo to Phone--><g id="link_ContactInfo_Phone"><path codeLine="68" d="M1613.21,631.6848 C1602.53,639.7448 1590.73,648.2748 1579.5,655.6348 C1554.73,671.8548 1531.5017,685.3213 1507.3417,698.5613 " fill="none" id="ContactInfo-to-Phone" style="stroke:#181818;stroke-width:1.0;"/><polygon fill="#181818" points="1502.08,701.4448,1511.8949,700.6273,1506.4648,699.0419,1508.0502,693.6117,1502.08,701.4448" style="stroke:#181818;stroke-width:1.0;"/><text fill="#000000" font-family="sans-serif" font-size="13" lengthAdjust="spacing" textLength="7" x="1509.8845" y="693.3889">1</text></g><!--link EmergencyContact to Phone--><g id="link_EmergencyContact_Phone"><path codeLine="69" d="M1310.78,631.8248 C1339.54,652.5048 1372.8583,676.4624 1401.5683,697.1024 " fill="none" id="EmergencyContact-to-Phone" style="stroke:#181818;stroke-width:1.0;"/><polygon fill="#181818" points="1406.44,700.6048,1401.4673,692.1034,1402.3802,697.6861,1396.7975,698.5991,1406.44,700.6048" style="stroke:#181818;stroke-width:1.0;"/><text fill="#000000" font-family="sans-serif" font-size="13" lengthAdjust="spacing" textLength="7" x="1389.6925" y="689.1728">1</text></g><!--SRC=[fLNRZjCm47ttLrZXWOjekfLWXQee4ajRM8dThNQ1TsyyIGs97HmNgLhjlpD9dURMD2dqgPevPyPpnZb-kJ4cpURJQHepQRP9x0OgcGOnox895opIB27421C3TRu_qFVkp9rTqWbTg8G9IMyKXzWXf23GMvO0zRnNFzw-MAq-NBsxUFs7nLkWwl4d1CRtwTEpHQw4pinu-5Ts3dgrZUFnw4zA6XQOQncgSOJrHicHjPSeKZmEkc1ci2X9MV2BHRWApsDHf2524gRMp0YGng5FXE8F_mgpAwDOT1z0eETffMon75crlXBQR8RwLvJF83demVDMX6K2EW8PxApSurlTtD-U17kUuFc0eG3TuG8N0Okn9nT6A3c-wySqLKAQ12j_4PbHUZV4xLaFVYa1qds_jPrzkBQSSZSdIjsbe5a-nptytaA6OATHivqVNdsRSSt_MUkr5ahdfpYlmE2ittOfz0wQ9y-OCeV_nuYDEeCEq-Jc0WiD_C6mC3o3jyoCI50GljZkUmzoKT7YR9E9N_ci3Va7AwrXh5qIqfGrppapfwtU65HHhespm8OGVQ3ErBN3bPUxtVXmXOz0BRQyeoSGrZJdD64SQAXqFzP-mdEALnOz0ZXzF5hvc4B8uX0AsKkoBL03Gif3sM2XxY5MGnOctidilReMjl7QmzTDjlswKnLjkHcxSDqtJiTnExokiPBw2rprnvVpQAPuVaddFMcc_m80]--></g></svg>