<?xml version="1.0" encoding="us-ascii" standalone="no"?><svg xmlns="http://www.w3.org/2000/svg" xmlns:xlink="http://www.w3.org/1999/xlink" contentStyleType="text/css" height="464px" preserveAspectRatio="none" style="width:440px;height:464px;background:#FFFFFF;" version="1.1" viewBox="0 0 440 464" width="440px" zoomAndPan="magnify"><defs/><g><text fill="#000000" font-family="sans-serif" font-size="14" font-weight="bold" lengthAdjust="spacing" textLength="262" x="90.75" y="30.1074">US 5.1.13 - System Sequence Diagram</text><rect fill="#FFFFFF" height="239.3281" style="stroke:#181818;stroke-width:1.0;" width="10" x="37.5" y="133.2422"/><rect fill="#FFFFFF" height="207.0371" style="stroke:#181818;stroke-width:1.0;" width="10" x="389.5" y="156.5332"/><rect fill="none" height="67.873" style="stroke:#000000;stroke-width:1.5;" width="424.5" x="10" y="265.4063"/><line style="stroke:#181818;stroke-width:0.5;stroke-dasharray:5.0,5.0;" x1="42" x2="42" y1="123.2422" y2="381.5703"/><line style="stroke:#181818;stroke-width:0.5;stroke-dasharray:5.0,5.0;" x1="394.5" x2="394.5" y1="123.2422" y2="381.5703"/><text fill="#000000" font-family="sans-serif" font-size="14" lengthAdjust="spacing" textLength="39" x="20" y="119.7285">Admin</text><ellipse cx="42.5" cy="53.1211" fill="#E2E2F0" rx="8" ry="8" style="stroke:#181818;stroke-width:0.5;"/><path d="M42.5,61.1211 L42.5,88.1211 M29.5,69.1211 L55.5,69.1211 M42.5,88.1211 L29.5,103.1211 M42.5,88.1211 L55.5,103.1211 " fill="none" style="stroke:#181818;stroke-width:0.5;"/><text fill="#000000" font-family="sans-serif" font-size="14" lengthAdjust="spacing" textLength="39" x="20" y="395.6777">Admin</text><ellipse cx="42.5" cy="407.6914" fill="#E2E2F0" rx="8" ry="8" style="stroke:#181818;stroke-width:0.5;"/><path d="M42.5,415.6914 L42.5,442.6914 M29.5,423.6914 L55.5,423.6914 M42.5,442.6914 L29.5,457.6914 M42.5,442.6914 L55.5,457.6914 " fill="none" style="stroke:#181818;stroke-width:0.5;"/><rect fill="#E2E2F0" height="32.6211" rx="2.5" ry="2.5" style="stroke:#181818;stroke-width:0.5;" width="60" x="364.5" y="89.6211"/><text fill="#000000" font-family="sans-serif" font-size="14" lengthAdjust="spacing" textLength="46" x="371.5" y="111.7285">System</text><rect fill="#E2E2F0" height="32.6211" rx="2.5" ry="2.5" style="stroke:#181818;stroke-width:0.5;" width="60" x="364.5" y="380.5703"/><text fill="#000000" font-family="sans-serif" font-size="14" lengthAdjust="spacing" textLength="46" x="371.5" y="402.6777">System</text><rect fill="#FFFFFF" height="239.3281" style="stroke:#181818;stroke-width:1.0;" width="10" x="37.5" y="133.2422"/><rect fill="#FFFFFF" height="207.0371" style="stroke:#181818;stroke-width:1.0;" width="10" x="389.5" y="156.5332"/><polygon fill="#181818" points="377.5,152.5332,387.5,156.5332,377.5,160.5332,381.5,156.5332" style="stroke:#181818;stroke-width:1.0;"/><line style="stroke:#181818;stroke-width:1.0;" x1="47.5" x2="383.5" y1="156.5332" y2="156.5332"/><text fill="#000000" font-family="sans-serif" font-size="13" font-weight="bold" lengthAdjust="spacing" textLength="7" x="54.5" y="151.2705">1</text><text fill="#000000" font-family="sans-serif" font-size="13" lengthAdjust="spacing" textLength="312" x="65.5" y="151.2705">asks to edit a staff's profile, to update their information</text><polygon fill="#181818" points="58.5,183.8242,48.5,187.8242,58.5,191.8242,54.5,187.8242" style="stroke:#181818;stroke-width:1.0;"/><line style="stroke:#181818;stroke-width:1.0;stroke-dasharray:2.0,2.0;" x1="52.5" x2="388.5" y1="187.8242" y2="187.8242"/><text fill="#000000" font-family="sans-serif" font-size="13" font-weight="bold" lengthAdjust="spacing" textLength="7" x="64.5" y="182.5615">2</text><text fill="#000000" font-family="sans-serif" font-size="13" lengthAdjust="spacing" textLength="87" x="75.5" y="182.5615">gives staff's list</text><polygon fill="#181818" points="377.5,215.1152,387.5,219.1152,377.5,223.1152,381.5,219.1152" style="stroke:#181818;stroke-width:1.0;"/><line style="stroke:#181818;stroke-width:1.0;" x1="47.5" x2="383.5" y1="219.1152" y2="219.1152"/><text fill="#000000" font-family="sans-serif" font-size="13" font-weight="bold" lengthAdjust="spacing" textLength="7" x="54.5" y="213.8525">3</text><text fill="#000000" font-family="sans-serif" font-size="13" lengthAdjust="spacing" textLength="130" x="65.5" y="213.8525">selects the staff profile</text><polygon fill="#181818" points="58.5,246.4063,48.5,250.4063,58.5,254.4063,54.5,250.4063" style="stroke:#181818;stroke-width:1.0;"/><line style="stroke:#181818;stroke-width:1.0;stroke-dasharray:2.0,2.0;" x1="52.5" x2="388.5" y1="250.4063" y2="250.4063"/><text fill="#000000" font-family="sans-serif" font-size="13" font-weight="bold" lengthAdjust="spacing" textLength="7" x="64.5" y="245.1436">4</text><text fill="#000000" font-family="sans-serif" font-size="13" lengthAdjust="spacing" textLength="132" x="75.5" y="245.1436">shows staff information</text><path d="M10,265.4063 L83,265.4063 L83,274.6973 L73,284.6973 L10,284.6973 L10,265.4063 " fill="#EEEEEE" style="stroke:#000000;stroke-width:1.5;"/><rect fill="none" height="67.873" style="stroke:#000000;stroke-width:1.5;" width="424.5" x="10" y="265.4063"/><text fill="#000000" font-family="sans-serif" font-size="13" font-weight="bold" lengthAdjust="spacing" textLength="28" x="25" y="280.4346">loop</text><text fill="#000000" font-family="sans-serif" font-size="11" font-weight="bold" lengthAdjust="spacing" textLength="127" x="98" y="279.2764">[until the admin wants]</text><polygon fill="#181818" points="377.5,321.2793,387.5,325.2793,377.5,329.2793,381.5,325.2793" style="stroke:#181818;stroke-width:1.0;"/><line style="stroke:#181818;stroke-width:1.0;" x1="47.5" x2="383.5" y1="325.2793" y2="325.2793"/><text fill="#000000" font-family="sans-serif" font-size="13" font-weight="bold" lengthAdjust="spacing" textLength="7" x="54.5" y="311.3711">5</text><text fill="#000000" font-family="sans-serif" font-size="13" lengthAdjust="spacing" textLength="276" x="65.5" y="302.7256">changes the editable fields (contact information,</text><text fill="#000000" font-family="sans-serif" font-size="13" lengthAdjust="spacing" textLength="83" x="69.5" y="320.0166">specialization)</text><polygon fill="#181818" points="58.5,359.5703,48.5,363.5703,58.5,367.5703,54.5,363.5703" style="stroke:#181818;stroke-width:1.0;"/><line style="stroke:#181818;stroke-width:1.0;stroke-dasharray:2.0,2.0;" x1="52.5" x2="393.5" y1="363.5703" y2="363.5703"/><text fill="#000000" font-family="sans-serif" font-size="13" font-weight="bold" lengthAdjust="spacing" textLength="7" x="64.5" y="358.3076">6</text><text fill="#000000" font-family="sans-serif" font-size="13" lengthAdjust="spacing" textLength="244" x="75.5" y="358.3076">confirms the alteration of the chosen fields</text><!--SRC=[NP0zJmCn38Rt_0ghIq7YMbM8fGDIfQvC9mOabZJdwrdaYzZN2duzIQu5UaiKnQ-V9_Po48cyNQ-ZrLv6PrSck3NZvuZUODEHFYRjb18IYx1uRU5fjLbj7g61zei57RINBEodx48fFKhmepjWodSZ8S6kS-H1C-psBohg96GePk4LaYljMrlJTDA2DQVo0SrpgS0sHpuO901s9A21HVVzaY6cq9F5Xr8QOrTwPK1AGBuFoMcXuF-mLL9uJUOM_1QET4B-nLbYcOaPBHhXWfrYL-USn4CuNqWtTcL3Y31w8LiXkYxZdCVdcSeCsXznKfKvzI4llIUq7SET2Lxo8F_H3-yUEA8XRUcxljmhXRw3Ofn_B_VtbDn4rrOmrGu8VNqnGs3q5vjI7TukxGS0]--></g></svg>