<?xml version="1.0" encoding="us-ascii" standalone="no"?><svg xmlns="http://www.w3.org/2000/svg" xmlns:xlink="http://www.w3.org/1999/xlink" contentStyleType="text/css" height="616.7px" preserveAspectRatio="none" style="width:831px;height:616px;background:#FFFFFF;" version="1.1" viewBox="0 0 831 616" width="831.6px" zoomAndPan="magnify"><defs/><g><text fill="#000000" font-family="sans-serif" font-size="9.8" font-weight="bold" lengthAdjust="spacing" textLength="158.9" x="335.65" y="21.0752">US 6.2.4 - Process View [Level 3]</text><rect fill="#FFFFFF" height="468.9289" style="stroke:#181818;stroke-width:0.6999999999999998;" width="7" x="115.5" y="91.108"/><rect fill="#FFFFFF" height="339.8445" style="stroke:#181818;stroke-width:0.6999999999999998;" width="7" x="304.85" y="156.5812"/><rect fill="#FFFFFF" height="296.0371" style="stroke:#181818;stroke-width:0.6999999999999998;" width="7" x="411.95" y="178.485"/><rect fill="#FFFFFF" height="29.6037" style="stroke:#181818;stroke-width:0.6999999999999998;" width="7" x="415.45" y="373.3146"/><rect fill="#FFFFFF" height="21.9037" style="stroke:#181818;stroke-width:0.6999999999999998;" width="7" x="544.95" y="200.3887"/><rect fill="#FFFFFF" height="21" style="stroke:#181818;stroke-width:0.6999999999999998;" width="7" x="544.95" y="262.5998"/><rect fill="#FFFFFF" height="21.9037" style="stroke:#181818;stroke-width:0.6999999999999998;" width="7" x="717.85" y="323.9072"/><rect fill="none" height="220.526" style="stroke:#000000;stroke-width:1.0499999999999998;" width="403.55" x="369.95" y="232.7924"/><rect fill="none" height="136.8186" style="stroke:#000000;stroke-width:1.0499999999999998;" width="389.55" x="376.95" y="294.0998"/><rect fill="none" height="58.7111" style="stroke:#000000;stroke-width:1.0499999999999998;" width="146.65" x="7.7" y="506.9258"/><line style="stroke:#181818;stroke-width:0.3499999999999999;stroke-dasharray:5.0,5.0;" x1="118.65" x2="118.65" y1="67.8043" y2="577.5369"/><line style="stroke:#181818;stroke-width:0.3499999999999999;stroke-dasharray:5.0,5.0;" x1="229.6" x2="229.6" y1="125.4928" y2="577.5369"/><line style="stroke:#181818;stroke-width:0.3499999999999999;stroke-dasharray:5.0,5.0;" x1="308" x2="308" y1="67.8043" y2="577.5369"/><line style="stroke:#181818;stroke-width:0.3499999999999999;stroke-dasharray:5.0,5.0;" x1="415.45" x2="415.45" y1="67.8043" y2="577.5369"/><line style="stroke:#181818;stroke-width:0.3499999999999999;stroke-dasharray:5.0,5.0;" x1="548.1" x2="548.1" y1="67.8043" y2="577.5369"/><line style="stroke:#181818;stroke-width:0.3499999999999999;stroke-dasharray:5.0,5.0;" x1="721" x2="721" y1="67.8043" y2="577.5369"/><line style="stroke:#181818;stroke-width:0.3499999999999999;stroke-dasharray:5.0,5.0;" x1="796.6" x2="796.6" y1="67.8043" y2="577.5369"/><rect fill="#E2E2F0" height="35.8695" rx="1.75" ry="1.75" style="stroke:#181818;stroke-width:0.3499999999999999;" width="56.7" x="90.65" y="31.2348"/><text fill="#000000" font-family="sans-serif" font-size="9.8" font-style="italic" lengthAdjust="spacing" textLength="34.3" x="101.85" y="46.71">&#171;route&#187;</text><text fill="#000000" font-family="sans-serif" font-size="9.8" lengthAdjust="spacing" textLength="46.9" x="95.55" y="59.7447">UserRoute</text><rect fill="#E2E2F0" height="35.8695" rx="1.75" ry="1.75" style="stroke:#181818;stroke-width:0.3499999999999999;" width="56.7" x="90.65" y="576.8369"/><text fill="#000000" font-family="sans-serif" font-size="9.8" font-style="italic" lengthAdjust="spacing" textLength="34.3" x="101.85" y="592.3121">&#171;route&#187;</text><text fill="#000000" font-family="sans-serif" font-size="9.8" lengthAdjust="spacing" textLength="46.9" x="95.55" y="605.3469">UserRoute</text><rect fill="#E2E2F0" height="35.8695" rx="1.75" ry="1.75" style="stroke:#181818;stroke-width:0.3499999999999999;" width="70" x="194.6" y="576.8369"/><text fill="#000000" font-family="sans-serif" font-size="9.8" font-style="italic" lengthAdjust="spacing" textLength="25.2" x="217" y="592.3121">&#171;dto&#187;</text><text fill="#000000" font-family="sans-serif" font-size="9.8" lengthAdjust="spacing" textLength="60.2" x="199.5" y="605.3469">LoginUserDto</text><rect fill="#E2E2F0" height="35.8695" rx="1.75" ry="1.75" style="stroke:#181818;stroke-width:0.3499999999999999;" width="73.5" x="271.6" y="31.2348"/><text fill="#000000" font-family="sans-serif" font-size="9.8" font-style="italic" lengthAdjust="spacing" textLength="52.5" x="282.1" y="46.71">&#171;controller&#187;</text><text fill="#000000" font-family="sans-serif" font-size="9.8" lengthAdjust="spacing" textLength="63.7" x="276.5" y="59.7447">UserController</text><rect fill="#E2E2F0" height="35.8695" rx="1.75" ry="1.75" style="stroke:#181818;stroke-width:0.3499999999999999;" width="73.5" x="271.6" y="576.8369"/><text fill="#000000" font-family="sans-serif" font-size="9.8" font-style="italic" lengthAdjust="spacing" textLength="52.5" x="282.1" y="592.3121">&#171;controller&#187;</text><text fill="#000000" font-family="sans-serif" font-size="9.8" lengthAdjust="spacing" textLength="63.7" x="276.5" y="605.3469">UserController</text><rect fill="#E2E2F0" height="35.8695" rx="1.75" ry="1.75" style="stroke:#181818;stroke-width:0.3499999999999999;" width="63" x="383.95" y="31.2348"/><text fill="#000000" font-family="sans-serif" font-size="9.8" font-style="italic" lengthAdjust="spacing" textLength="42" x="394.45" y="46.71">&#171;service&#187;</text><text fill="#000000" font-family="sans-serif" font-size="9.8" lengthAdjust="spacing" textLength="53.2" x="388.85" y="59.7447">UserService</text><rect fill="#E2E2F0" height="35.8695" rx="1.75" ry="1.75" style="stroke:#181818;stroke-width:0.3499999999999999;" width="63" x="383.95" y="576.8369"/><text fill="#000000" font-family="sans-serif" font-size="9.8" font-style="italic" lengthAdjust="spacing" textLength="42" x="394.45" y="592.3121">&#171;service&#187;</text><text fill="#000000" font-family="sans-serif" font-size="9.8" lengthAdjust="spacing" textLength="53.2" x="388.85" y="605.3469">UserService</text><rect fill="#E2E2F0" height="35.8695" rx="1.75" ry="1.75" style="stroke:#181818;stroke-width:0.3499999999999999;" width="69.3" x="513.8" y="31.2348"/><text fill="#000000" font-family="sans-serif" font-size="9.8" font-style="italic" lengthAdjust="spacing" textLength="42" x="527.45" y="46.71">&#171;service&#187;</text><text fill="#000000" font-family="sans-serif" font-size="9.8" lengthAdjust="spacing" textLength="59.5" x="518.7" y="59.7447">UserManager</text><rect fill="#E2E2F0" height="35.8695" rx="1.75" ry="1.75" style="stroke:#181818;stroke-width:0.3499999999999999;" width="69.3" x="513.8" y="576.8369"/><text fill="#000000" font-family="sans-serif" font-size="9.8" font-style="italic" lengthAdjust="spacing" textLength="42" x="527.45" y="592.3121">&#171;service&#187;</text><text fill="#000000" font-family="sans-serif" font-size="9.8" lengthAdjust="spacing" textLength="59.5" x="518.7" y="605.3469">UserManager</text><rect fill="#E2E2F0" height="35.8695" rx="1.75" ry="1.75" style="stroke:#181818;stroke-width:0.3499999999999999;" width="76.3" x="683.2" y="31.2348"/><text fill="#000000" font-family="sans-serif" font-size="9.8" font-style="italic" lengthAdjust="spacing" textLength="42" x="700.35" y="46.71">&#171;service&#187;</text><text fill="#000000" font-family="sans-serif" font-size="9.8" lengthAdjust="spacing" textLength="66.5" x="688.1" y="59.7447">SigninManager</text><rect fill="#E2E2F0" height="35.8695" rx="1.75" ry="1.75" style="stroke:#181818;stroke-width:0.3499999999999999;" width="76.3" x="683.2" y="576.8369"/><text fill="#000000" font-family="sans-serif" font-size="9.8" font-style="italic" lengthAdjust="spacing" textLength="42" x="700.35" y="592.3121">&#171;service&#187;</text><text fill="#000000" font-family="sans-serif" font-size="9.8" lengthAdjust="spacing" textLength="66.5" x="688.1" y="605.3469">SigninManager</text><rect fill="#E2E2F0" height="22.8348" rx="1.75" ry="1.75" style="stroke:#181818;stroke-width:0.3499999999999999;" width="60.9" x="766.5" y="44.2695"/><text fill="#000000" font-family="sans-serif" font-size="9.8" lengthAdjust="spacing" textLength="51.1" x="771.4" y="59.7447">HttpContext</text><rect fill="#E2E2F0" height="22.8348" rx="1.75" ry="1.75" style="stroke:#181818;stroke-width:0.3499999999999999;" width="60.9" x="766.5" y="576.8369"/><text fill="#000000" font-family="sans-serif" font-size="9.8" lengthAdjust="spacing" textLength="51.1" x="771.4" y="592.3121">HttpContext</text><rect fill="#FFFFFF" height="468.9289" style="stroke:#181818;stroke-width:0.6999999999999998;" width="7" x="115.5" y="91.108"/><rect fill="#FFFFFF" height="339.8445" style="stroke:#181818;stroke-width:0.6999999999999998;" width="7" x="304.85" y="156.5812"/><rect fill="#FFFFFF" height="296.0371" style="stroke:#181818;stroke-width:0.6999999999999998;" width="7" x="411.95" y="178.485"/><rect fill="#FFFFFF" height="29.6037" style="stroke:#181818;stroke-width:0.6999999999999998;" width="7" x="415.45" y="373.3146"/><rect fill="#FFFFFF" height="21.9037" style="stroke:#181818;stroke-width:0.6999999999999998;" width="7" x="544.95" y="200.3887"/><rect fill="#FFFFFF" height="21" style="stroke:#181818;stroke-width:0.6999999999999998;" width="7" x="544.95" y="262.5998"/><rect fill="#FFFFFF" height="21.9037" style="stroke:#181818;stroke-width:0.6999999999999998;" width="7" x="717.85" y="323.9072"/><ellipse cx="5.25" cy="90.583" fill="none" rx="2.8" ry="2.8" style="stroke:#181818;stroke-width:1.0499999999999998;"/><polygon fill="#181818" points="107.1,88.308,114.1,91.108,107.1,93.908,109.9,91.108" style="stroke:#181818;stroke-width:0.6999999999999998;"/><line style="stroke:#181818;stroke-width:0.6999999999999998;" x1="8.4" x2="111.3" y1="91.108" y2="91.108"/><text fill="#000000" font-family="sans-serif" font-size="9.1" font-weight="bold" lengthAdjust="spacing" textLength="4.9" x="10.5" y="87.4241">1</text><text fill="#000000" font-family="sans-serif" font-size="9.1" lengthAdjust="spacing" textLength="88.9" x="18.2" y="87.4241">POST(json) /api/Login</text><polygon fill="#181818" points="186.2,110.2117,193.2,113.0117,186.2,115.8117,189,113.0117" style="stroke:#181818;stroke-width:0.6999999999999998;"/><line style="stroke:#181818;stroke-width:0.6999999999999998;" x1="122.5" x2="190.4" y1="113.0117" y2="113.0117"/><text fill="#000000" font-family="sans-serif" font-size="9.1" font-weight="bold" lengthAdjust="spacing" textLength="4.9" x="127.4" y="109.3278">2</text><text fill="#000000" font-family="sans-serif" font-size="9.1" lengthAdjust="spacing" textLength="47.6" x="135.1" y="109.3278">create(json)</text><rect fill="#E2E2F0" height="35.8695" rx="1.75" ry="1.75" style="stroke:#181818;stroke-width:0.3499999999999999;" width="70" x="194.6" y="96.708"/><text fill="#000000" font-family="sans-serif" font-size="9.8" font-style="italic" lengthAdjust="spacing" textLength="25.2" x="217" y="112.1832">&#171;dto&#187;</text><text fill="#000000" font-family="sans-serif" font-size="9.8" lengthAdjust="spacing" textLength="60.2" x="199.5" y="125.218">LoginUserDto</text><polygon fill="#181818" points="296.45,153.7812,303.45,156.5812,296.45,159.3812,299.25,156.5812" style="stroke:#181818;stroke-width:0.6999999999999998;"/><line style="stroke:#181818;stroke-width:0.6999999999999998;" x1="122.5" x2="300.65" y1="156.5812" y2="156.5812"/><text fill="#000000" font-family="sans-serif" font-size="9.1" font-weight="bold" lengthAdjust="spacing" textLength="4.9" x="127.4" y="152.8974">3</text><text fill="#000000" font-family="sans-serif" font-size="9.1" lengthAdjust="spacing" textLength="79.1" x="135.1" y="152.8974">Login(loginUserDto)</text><polygon fill="#181818" points="403.55,175.685,410.55,178.485,403.55,181.285,406.35,178.485" style="stroke:#181818;stroke-width:0.6999999999999998;"/><line style="stroke:#181818;stroke-width:0.6999999999999998;" x1="311.85" x2="407.75" y1="178.485" y2="178.485"/><text fill="#000000" font-family="sans-serif" font-size="9.1" font-weight="bold" lengthAdjust="spacing" textLength="4.9" x="316.75" y="174.8011">4</text><text fill="#000000" font-family="sans-serif" font-size="9.1" lengthAdjust="spacing" textLength="79.1" x="324.45" y="174.8011">Login(loginUserDto)</text><polygon fill="#181818" points="536.55,197.5887,543.55,200.3887,536.55,203.1887,539.35,200.3887" style="stroke:#181818;stroke-width:0.6999999999999998;"/><line style="stroke:#181818;stroke-width:0.6999999999999998;" x1="418.95" x2="540.75" y1="200.3887" y2="200.3887"/><text fill="#000000" font-family="sans-serif" font-size="9.1" font-weight="bold" lengthAdjust="spacing" textLength="4.9" x="423.85" y="196.7048">5</text><text fill="#000000" font-family="sans-serif" font-size="9.1" lengthAdjust="spacing" textLength="105" x="431.55" y="196.7048">FindByEmailAsync(email)</text><polygon fill="#181818" points="426.65,219.4924,419.65,222.2924,426.65,225.0924,423.85,222.2924" style="stroke:#181818;stroke-width:0.6999999999999998;"/><line style="stroke:#181818;stroke-width:0.6999999999999998;stroke-dasharray:2.0,2.0;" x1="422.45" x2="547.75" y1="222.2924" y2="222.2924"/><text fill="#000000" font-family="sans-serif" font-size="9.1" font-weight="bold" lengthAdjust="spacing" textLength="4.9" x="430.85" y="218.6085">6</text><text fill="#000000" font-family="sans-serif" font-size="9.1" lengthAdjust="spacing" textLength="17.5" x="438.55" y="218.6085">user</text><path d="M369.95,232.7924 L412.65,232.7924 L412.65,239.2961 L405.65,246.2961 L369.95,246.2961 L369.95,232.7924 " fill="#EEEEEE" style="stroke:#000000;stroke-width:1.0499999999999998;"/><rect fill="none" height="220.526" style="stroke:#000000;stroke-width:1.0499999999999998;" width="403.55" x="369.95" y="232.7924"/><text fill="#000000" font-family="sans-serif" font-size="9.1" font-weight="bold" lengthAdjust="spacing" textLength="11.2" x="380.45" y="243.3122">alt</text><text fill="#000000" font-family="sans-serif" font-size="7.7" font-weight="bold" lengthAdjust="spacing" textLength="77" x="423.15" y="242.5015">[userStatus == true]</text><polygon fill="#181818" points="536.55,259.7998,543.55,262.5998,536.55,265.3998,539.35,262.5998" style="stroke:#181818;stroke-width:0.6999999999999998;"/><line style="stroke:#181818;stroke-width:0.6999999999999998;" x1="418.95" x2="540.75" y1="262.5998" y2="262.5998"/><text fill="#000000" font-family="sans-serif" font-size="9.1" font-weight="bold" lengthAdjust="spacing" textLength="4.9" x="423.85" y="258.9159">7</text><text fill="#000000" font-family="sans-serif" font-size="9.1" lengthAdjust="spacing" textLength="82.6" x="431.55" y="258.9159">IsLockedOutAsync()</text><path d="M376.95,294.0998 L419.65,294.0998 L419.65,300.6035 L412.65,307.6035 L376.95,307.6035 L376.95,294.0998 " fill="#EEEEEE" style="stroke:#000000;stroke-width:1.0499999999999998;"/><rect fill="none" height="136.8186" style="stroke:#000000;stroke-width:1.0499999999999998;" width="389.55" x="376.95" y="294.0998"/><text fill="#000000" font-family="sans-serif" font-size="9.1" font-weight="bold" lengthAdjust="spacing" textLength="11.2" x="387.45" y="304.6196">alt</text><text fill="#000000" font-family="sans-serif" font-size="7.7" font-weight="bold" lengthAdjust="spacing" textLength="76.3" x="430.15" y="303.8089">[lockedOut == false]</text><polygon fill="#181818" points="709.45,321.1072,716.45,323.9072,709.45,326.7072,712.25,323.9072" style="stroke:#181818;stroke-width:0.6999999999999998;"/><line style="stroke:#181818;stroke-width:0.6999999999999998;" x1="418.95" x2="713.65" y1="323.9072" y2="323.9072"/><text fill="#000000" font-family="sans-serif" font-size="9.1" font-weight="bold" lengthAdjust="spacing" textLength="4.9" x="423.85" y="320.2233">8</text><text fill="#000000" font-family="sans-serif" font-size="9.1" lengthAdjust="spacing" textLength="277.9" x="431.55" y="320.2233">PasswordSignInAsync(user,password,isPersistent,lockoutOnFailure)</text><polygon fill="#181818" points="426.65,343.0109,419.65,345.8109,426.65,348.6109,423.85,345.8109" style="stroke:#181818;stroke-width:0.6999999999999998;"/><line style="stroke:#181818;stroke-width:0.6999999999999998;stroke-dasharray:2.0,2.0;" x1="422.45" x2="720.65" y1="345.8109" y2="345.8109"/><text fill="#000000" font-family="sans-serif" font-size="9.1" font-weight="bold" lengthAdjust="spacing" textLength="4.9" x="430.85" y="342.1271">9</text><text fill="#000000" font-family="sans-serif" font-size="9.1" lengthAdjust="spacing" textLength="22.4" x="438.55" y="342.1271">result</text><line style="stroke:#181818;stroke-width:0.6999999999999998;" x1="418.95" x2="451.85" y1="364.2146" y2="364.2146"/><line style="stroke:#181818;stroke-width:0.6999999999999998;" x1="451.85" x2="451.85" y1="364.2146" y2="373.3146"/><line style="stroke:#181818;stroke-width:0.6999999999999998;" x1="423.15" x2="451.85" y1="373.3146" y2="373.3146"/><polygon fill="#181818" points="430.15,370.5146,423.15,373.3146,430.15,376.1146,427.35,373.3146" style="stroke:#181818;stroke-width:0.6999999999999998;"/><text fill="#000000" font-family="sans-serif" font-size="9.1" font-weight="bold" lengthAdjust="spacing" textLength="9.8" x="427.35" y="360.5308">10</text><text fill="#000000" font-family="sans-serif" font-size="9.1" lengthAdjust="spacing" textLength="98" x="439.95" y="360.5308">GenerateJwtToken(user)</text><line style="stroke:#181818;stroke-width:0.6999999999999998;stroke-dasharray:2.0,2.0;" x1="422.45" x2="451.85" y1="402.2184" y2="402.2184"/><line style="stroke:#181818;stroke-width:0.6999999999999998;stroke-dasharray:2.0,2.0;" x1="451.85" x2="451.85" y1="402.2184" y2="411.3184"/><line style="stroke:#181818;stroke-width:0.6999999999999998;stroke-dasharray:2.0,2.0;" x1="418.95" x2="451.85" y1="411.3184" y2="411.3184"/><polygon fill="#181818" points="425.95,408.5184,418.95,411.3184,425.95,414.1184,423.15,411.3184" style="stroke:#181818;stroke-width:0.6999999999999998;"/><text fill="#000000" font-family="sans-serif" font-size="9.1" font-weight="bold" lengthAdjust="spacing" textLength="9.8" x="427.35" y="398.5345">11</text><text fill="#000000" font-family="sans-serif" font-size="9.1" lengthAdjust="spacing" textLength="22.4" x="439.95" y="398.5345">token</text><polygon fill="#181818" points="319.55,471.7221,312.55,474.5221,319.55,477.3221,316.75,474.5221" style="stroke:#181818;stroke-width:0.6999999999999998;"/><line style="stroke:#181818;stroke-width:0.6999999999999998;stroke-dasharray:2.0,2.0;" x1="315.35" x2="414.75" y1="474.5221" y2="474.5221"/><text fill="#000000" font-family="sans-serif" font-size="9.1" font-weight="bold" lengthAdjust="spacing" textLength="9.8" x="323.75" y="470.8382">12</text><text fill="#000000" font-family="sans-serif" font-size="9.1" lengthAdjust="spacing" textLength="22.4" x="336.35" y="470.8382">token</text><polygon fill="#181818" points="130.2,493.6258,123.2,496.4258,130.2,499.2258,127.4,496.4258" style="stroke:#181818;stroke-width:0.6999999999999998;"/><line style="stroke:#181818;stroke-width:0.6999999999999998;stroke-dasharray:2.0,2.0;" x1="126" x2="307.65" y1="496.4258" y2="496.4258"/><text fill="#000000" font-family="sans-serif" font-size="9.1" font-weight="bold" lengthAdjust="spacing" textLength="9.8" x="134.4" y="492.7419">13</text><text fill="#000000" font-family="sans-serif" font-size="9.1" lengthAdjust="spacing" textLength="22.4" x="147" y="492.7419">token</text><path d="M7.7,506.9258 L50.4,506.9258 L50.4,513.4295 L43.4,520.4295 L7.7,520.4295 L7.7,506.9258 " fill="#EEEEEE" style="stroke:#000000;stroke-width:1.0499999999999998;"/><rect fill="none" height="58.7111" style="stroke:#000000;stroke-width:1.0499999999999998;" width="146.65" x="7.7" y="506.9258"/><text fill="#000000" font-family="sans-serif" font-size="9.1" font-weight="bold" lengthAdjust="spacing" textLength="11.2" x="18.2" y="517.4456">alt</text><ellipse cx="5.25" cy="536.2082" fill="none" rx="2.8" ry="2.8" style="stroke:#181818;stroke-width:1.0499999999999998;"/><polygon fill="#181818" points="17.15,533.9332,10.15,536.7332,17.15,539.5332,14.35,536.7332" style="stroke:#181818;stroke-width:0.6999999999999998;"/><line style="stroke:#181818;stroke-width:0.6999999999999998;stroke-dasharray:2.0,2.0;" x1="15.75" x2="114.8" y1="536.7332" y2="536.7332"/><text fill="#000000" font-family="sans-serif" font-size="9.1" font-weight="bold" lengthAdjust="spacing" textLength="9.8" x="17.5" y="533.0493">14</text><text fill="#000000" font-family="sans-serif" font-size="9.1" lengthAdjust="spacing" textLength="56" x="30.1" y="533.0493">202 Accepted</text><line style="stroke:#000000;stroke-width:0.6999999999999998;stroke-dasharray:2.0,2.0;" x1="7.7" x2="154.35" y1="543.0332" y2="543.0332"/><ellipse cx="5.25" cy="559.5119" fill="none" rx="2.8" ry="2.8" style="stroke:#181818;stroke-width:1.0499999999999998;"/><polygon fill="#181818" points="17.15,557.2369,10.15,560.0369,17.15,562.8369,14.35,560.0369" style="stroke:#181818;stroke-width:0.6999999999999998;"/><line style="stroke:#181818;stroke-width:0.6999999999999998;stroke-dasharray:2.0,2.0;" x1="15.75" x2="118.3" y1="560.0369" y2="560.0369"/><text fill="#000000" font-family="sans-serif" font-size="9.1" font-weight="bold" lengthAdjust="spacing" textLength="9.8" x="17.5" y="556.353">15</text><text fill="#000000" font-family="sans-serif" font-size="9.1" lengthAdjust="spacing" textLength="70.7" x="30.1" y="556.353">401 Unauthorized</text><!--SRC=[XPH1Rzf048Nl-oj6d2229ALH3nP1IWbfg8X067A9UjZQKxgDisljZY6f-F7TMHjYd4Gz0RFVUpD-ivWKPGYjLGnVJlkd5z23kJK9EWVt2hVmCCKDPl3vHqi8MP3HnTDFj2ANbbIYSgd9QntQXIa8Mo0TB6QhvHW60ykLuV0OdPgrqinVamdqzNBcsPHCasHeP3HPasLe0pjQBgOUJWxLzpGnserAob7Y-v7dNLbv3xwJMguhzybu-Z4SgxLMkex7axkFyLkYd8V7PmhmxKY81zCRbk54C9_5o_OVPtG7pcIkpa8iGYQaDfAmf8Gea_Gg3kda98B4eZykXRLZpYM2uD7EQW5tNXqP4I84w0KSp7y4dX22y_Cu9nF1ZTBfrvVnarJPbNlHIHlvQqtYCI6OxNaDIoCelAz8yHYH6OM3c2GL3YulWMo10Y3CLJMCOEAc9dd4T5PGsQyJa2ClBZJj0-HRP7irT_WbCuUYteFtvnSXdTiQc_9-9xhimxDry-gWgzmShLEEK5ENFVsrdkaR_-Y5nSP8thFguSsh52Amw8gCchCoowMZcHZ_XXgj9xvlQMaUKOTvceruEmVXNacCl-dZKIxjThlmYJhbU0wr_UzgsuVhL9erZAeRz7gHtr3bHUFy_OKVz7hLwo22_daVhf84Sy9K20phE2OkpZ_1IlkNp6zZrLzFrMpBVyHXrdy0]--></g></svg>