<?xml version="1.0" encoding="us-ascii" standalone="no"?><svg xmlns="http://www.w3.org/2000/svg" xmlns:xlink="http://www.w3.org/1999/xlink" contentStyleType="text/css" height="881px" preserveAspectRatio="none" style="width:1188px;height:881px;background:#FFFFFF;" version="1.1" viewBox="0 0 1188 881" width="1188px" zoomAndPan="magnify"><defs/><g><text fill="#000000" font-family="sans-serif" font-size="14" font-weight="bold" lengthAdjust="spacing" textLength="227" x="479.5" y="30.1074">US 6.2.4 - Process View [Level 3]</text><rect fill="#FFFFFF" height="669.8984" style="stroke:#181818;stroke-width:1.0;" width="10" x="165" y="130.1543"/><rect fill="#FFFFFF" height="485.4922" style="stroke:#181818;stroke-width:1.0;" width="10" x="435.5" y="223.6875"/><rect fill="#FFFFFF" height="422.9102" style="stroke:#181818;stroke-width:1.0;" width="10" x="588.5" y="254.9785"/><rect fill="#FFFFFF" height="42.291" style="stroke:#181818;stroke-width:1.0;" width="10" x="593.5" y="533.3066"/><rect fill="#FFFFFF" height="31.291" style="stroke:#181818;stroke-width:1.0;" width="10" x="778.5" y="286.2695"/><rect fill="#FFFFFF" height="30" style="stroke:#181818;stroke-width:1.0;" width="10" x="778.5" y="375.1426"/><rect fill="#FFFFFF" height="31.291" style="stroke:#181818;stroke-width:1.0;" width="10" x="1025.5" y="462.7246"/><rect fill="none" height="315.0371" style="stroke:#000000;stroke-width:1.5;" width="576.5" x="528.5" y="332.5605"/><rect fill="none" height="195.4551" style="stroke:#000000;stroke-width:1.5;" width="556.5" x="538.5" y="420.1426"/><rect fill="none" height="83.873" style="stroke:#000000;stroke-width:1.5;" width="200.5" x="11" y="724.1797"/><line style="stroke:#181818;stroke-width:0.5;stroke-dasharray:5.0,5.0;" x1="169.5" x2="169.5" y1="96.8633" y2="825.0527"/><line style="stroke:#181818;stroke-width:0.5;stroke-dasharray:5.0,5.0;" x1="328" x2="328" y1="179.2754" y2="825.0527"/><line style="stroke:#181818;stroke-width:0.5;stroke-dasharray:5.0,5.0;" x1="440" x2="440" y1="96.8633" y2="825.0527"/><line style="stroke:#181818;stroke-width:0.5;stroke-dasharray:5.0,5.0;" x1="593.5" x2="593.5" y1="96.8633" y2="825.0527"/><line style="stroke:#181818;stroke-width:0.5;stroke-dasharray:5.0,5.0;" x1="783" x2="783" y1="96.8633" y2="825.0527"/><line style="stroke:#181818;stroke-width:0.5;stroke-dasharray:5.0,5.0;" x1="1030" x2="1030" y1="96.8633" y2="825.0527"/><line style="stroke:#181818;stroke-width:0.5;stroke-dasharray:5.0,5.0;" x1="1138" x2="1138" y1="96.8633" y2="825.0527"/><rect fill="#E2E2F0" height="51.2422" rx="2.5" ry="2.5" style="stroke:#181818;stroke-width:0.5;" width="63" x="138.5" y="44.6211"/><text fill="#000000" font-family="sans-serif" font-size="14" font-style="italic" lengthAdjust="spacing" textLength="49" x="145.5" y="66.7285">&#171;route&#187;</text><text fill="#000000" font-family="sans-serif" font-size="14" lengthAdjust="spacing" textLength="49" x="145.5" y="85.3496">Routing</text><rect fill="#E2E2F0" height="51.2422" rx="2.5" ry="2.5" style="stroke:#181818;stroke-width:0.5;" width="63" x="138.5" y="824.0527"/><text fill="#000000" font-family="sans-serif" font-size="14" font-style="italic" lengthAdjust="spacing" textLength="49" x="145.5" y="846.1602">&#171;route&#187;</text><text fill="#000000" font-family="sans-serif" font-size="14" lengthAdjust="spacing" textLength="49" x="145.5" y="864.7813">Routing</text><rect fill="#E2E2F0" height="51.2422" rx="2.5" ry="2.5" style="stroke:#181818;stroke-width:0.5;" width="100" x="278" y="824.0527"/><text fill="#000000" font-family="sans-serif" font-size="14" font-style="italic" lengthAdjust="spacing" textLength="36" x="310" y="846.1602">&#171;dto&#187;</text><text fill="#000000" font-family="sans-serif" font-size="14" lengthAdjust="spacing" textLength="86" x="285" y="864.7813">LoginUserDto</text><rect fill="#E2E2F0" height="51.2422" rx="2.5" ry="2.5" style="stroke:#181818;stroke-width:0.5;" width="105" x="388" y="44.6211"/><text fill="#000000" font-family="sans-serif" font-size="14" font-style="italic" lengthAdjust="spacing" textLength="75" x="403" y="66.7285">&#171;controller&#187;</text><text fill="#000000" font-family="sans-serif" font-size="14" lengthAdjust="spacing" textLength="91" x="395" y="85.3496">UserController</text><rect fill="#E2E2F0" height="51.2422" rx="2.5" ry="2.5" style="stroke:#181818;stroke-width:0.5;" width="105" x="388" y="824.0527"/><text fill="#000000" font-family="sans-serif" font-size="14" font-style="italic" lengthAdjust="spacing" textLength="75" x="403" y="846.1602">&#171;controller&#187;</text><text fill="#000000" font-family="sans-serif" font-size="14" lengthAdjust="spacing" textLength="91" x="395" y="864.7813">UserController</text><rect fill="#E2E2F0" height="51.2422" rx="2.5" ry="2.5" style="stroke:#181818;stroke-width:0.5;" width="90" x="548.5" y="44.6211"/><text fill="#000000" font-family="sans-serif" font-size="14" font-style="italic" lengthAdjust="spacing" textLength="60" x="563.5" y="66.7285">&#171;service&#187;</text><text fill="#000000" font-family="sans-serif" font-size="14" lengthAdjust="spacing" textLength="76" x="555.5" y="85.3496">UserService</text><rect fill="#E2E2F0" height="51.2422" rx="2.5" ry="2.5" style="stroke:#181818;stroke-width:0.5;" width="90" x="548.5" y="824.0527"/><text fill="#000000" font-family="sans-serif" font-size="14" font-style="italic" lengthAdjust="spacing" textLength="60" x="563.5" y="846.1602">&#171;service&#187;</text><text fill="#000000" font-family="sans-serif" font-size="14" lengthAdjust="spacing" textLength="76" x="555.5" y="864.7813">UserService</text><rect fill="#E2E2F0" height="51.2422" rx="2.5" ry="2.5" style="stroke:#181818;stroke-width:0.5;" width="99" x="734" y="44.6211"/><text fill="#000000" font-family="sans-serif" font-size="14" font-style="italic" lengthAdjust="spacing" textLength="60" x="753.5" y="66.7285">&#171;service&#187;</text><text fill="#000000" font-family="sans-serif" font-size="14" lengthAdjust="spacing" textLength="85" x="741" y="85.3496">UserManager</text><rect fill="#E2E2F0" height="51.2422" rx="2.5" ry="2.5" style="stroke:#181818;stroke-width:0.5;" width="99" x="734" y="824.0527"/><text fill="#000000" font-family="sans-serif" font-size="14" font-style="italic" lengthAdjust="spacing" textLength="60" x="753.5" y="846.1602">&#171;service&#187;</text><text fill="#000000" font-family="sans-serif" font-size="14" lengthAdjust="spacing" textLength="85" x="741" y="864.7813">UserManager</text><rect fill="#E2E2F0" height="51.2422" rx="2.5" ry="2.5" style="stroke:#181818;stroke-width:0.5;" width="109" x="976" y="44.6211"/><text fill="#000000" font-family="sans-serif" font-size="14" font-style="italic" lengthAdjust="spacing" textLength="60" x="1000.5" y="66.7285">&#171;service&#187;</text><text fill="#000000" font-family="sans-serif" font-size="14" lengthAdjust="spacing" textLength="95" x="983" y="85.3496">SigninManager</text><rect fill="#E2E2F0" height="51.2422" rx="2.5" ry="2.5" style="stroke:#181818;stroke-width:0.5;" width="109" x="976" y="824.0527"/><text fill="#000000" font-family="sans-serif" font-size="14" font-style="italic" lengthAdjust="spacing" textLength="60" x="1000.5" y="846.1602">&#171;service&#187;</text><text fill="#000000" font-family="sans-serif" font-size="14" lengthAdjust="spacing" textLength="95" x="983" y="864.7813">SigninManager</text><rect fill="#E2E2F0" height="32.6211" rx="2.5" ry="2.5" style="stroke:#181818;stroke-width:0.5;" width="87" x="1095" y="63.2422"/><text fill="#000000" font-family="sans-serif" font-size="14" lengthAdjust="spacing" textLength="73" x="1102" y="85.3496">HttpContext</text><rect fill="#E2E2F0" height="32.6211" rx="2.5" ry="2.5" style="stroke:#181818;stroke-width:0.5;" width="87" x="1095" y="824.0527"/><text fill="#000000" font-family="sans-serif" font-size="14" lengthAdjust="spacing" textLength="73" x="1102" y="846.1602">HttpContext</text><rect fill="#FFFFFF" height="669.8984" style="stroke:#181818;stroke-width:1.0;" width="10" x="165" y="130.1543"/><rect fill="#FFFFFF" height="485.4922" style="stroke:#181818;stroke-width:1.0;" width="10" x="435.5" y="223.6875"/><rect fill="#FFFFFF" height="422.9102" style="stroke:#181818;stroke-width:1.0;" width="10" x="588.5" y="254.9785"/><rect fill="#FFFFFF" height="42.291" style="stroke:#181818;stroke-width:1.0;" width="10" x="593.5" y="533.3066"/><rect fill="#FFFFFF" height="31.291" style="stroke:#181818;stroke-width:1.0;" width="10" x="778.5" y="286.2695"/><rect fill="#FFFFFF" height="30" style="stroke:#181818;stroke-width:1.0;" width="10" x="778.5" y="375.1426"/><rect fill="#FFFFFF" height="31.291" style="stroke:#181818;stroke-width:1.0;" width="10" x="1025.5" y="462.7246"/><ellipse cx="7.5" cy="129.4043" fill="none" rx="4" ry="4" style="stroke:#181818;stroke-width:1.5;"/><polygon fill="#181818" points="153,126.1543,163,130.1543,153,134.1543,157,130.1543" style="stroke:#181818;stroke-width:1.0;"/><line style="stroke:#181818;stroke-width:1.0;" x1="12" x2="159" y1="130.1543" y2="130.1543"/><text fill="#000000" font-family="sans-serif" font-size="13" font-weight="bold" lengthAdjust="spacing" textLength="7" x="15" y="124.8916">1</text><text fill="#000000" font-family="sans-serif" font-size="13" lengthAdjust="spacing" textLength="127" x="26" y="124.8916">POST(json) /api/Login</text><polygon fill="#181818" points="266,157.4453,276,161.4453,266,165.4453,270,161.4453" style="stroke:#181818;stroke-width:1.0;"/><line style="stroke:#181818;stroke-width:1.0;" x1="175" x2="272" y1="161.4453" y2="161.4453"/><text fill="#000000" font-family="sans-serif" font-size="13" font-weight="bold" lengthAdjust="spacing" textLength="7" x="182" y="156.1826">2</text><text fill="#000000" font-family="sans-serif" font-size="13" lengthAdjust="spacing" textLength="68" x="193" y="156.1826">create(json)</text><rect fill="#E2E2F0" height="51.2422" rx="2.5" ry="2.5" style="stroke:#181818;stroke-width:0.5;" width="100" x="278" y="138.1543"/><text fill="#000000" font-family="sans-serif" font-size="14" font-style="italic" lengthAdjust="spacing" textLength="36" x="310" y="160.2617">&#171;dto&#187;</text><text fill="#000000" font-family="sans-serif" font-size="14" lengthAdjust="spacing" textLength="86" x="285" y="178.8828">LoginUserDto</text><polygon fill="#181818" points="423.5,219.6875,433.5,223.6875,423.5,227.6875,427.5,223.6875" style="stroke:#181818;stroke-width:1.0;"/><line style="stroke:#181818;stroke-width:1.0;" x1="175" x2="429.5" y1="223.6875" y2="223.6875"/><text fill="#000000" font-family="sans-serif" font-size="13" font-weight="bold" lengthAdjust="spacing" textLength="7" x="182" y="218.4248">3</text><text fill="#000000" font-family="sans-serif" font-size="13" lengthAdjust="spacing" textLength="113" x="193" y="218.4248">Login(loginUserDto)</text><polygon fill="#181818" points="576.5,250.9785,586.5,254.9785,576.5,258.9785,580.5,254.9785" style="stroke:#181818;stroke-width:1.0;"/><line style="stroke:#181818;stroke-width:1.0;" x1="445.5" x2="582.5" y1="254.9785" y2="254.9785"/><text fill="#000000" font-family="sans-serif" font-size="13" font-weight="bold" lengthAdjust="spacing" textLength="7" x="452.5" y="249.7158">4</text><text fill="#000000" font-family="sans-serif" font-size="13" lengthAdjust="spacing" textLength="113" x="463.5" y="249.7158">Login(loginUserDto)</text><polygon fill="#181818" points="766.5,282.2695,776.5,286.2695,766.5,290.2695,770.5,286.2695" style="stroke:#181818;stroke-width:1.0;"/><line style="stroke:#181818;stroke-width:1.0;" x1="598.5" x2="772.5" y1="286.2695" y2="286.2695"/><text fill="#000000" font-family="sans-serif" font-size="13" font-weight="bold" lengthAdjust="spacing" textLength="7" x="605.5" y="281.0068">5</text><text fill="#000000" font-family="sans-serif" font-size="13" lengthAdjust="spacing" textLength="150" x="616.5" y="281.0068">FindByEmailAsync(email)</text><polygon fill="#181818" points="609.5,313.5605,599.5,317.5605,609.5,321.5605,605.5,317.5605" style="stroke:#181818;stroke-width:1.0;"/><line style="stroke:#181818;stroke-width:1.0;stroke-dasharray:2.0,2.0;" x1="603.5" x2="782.5" y1="317.5605" y2="317.5605"/><text fill="#000000" font-family="sans-serif" font-size="13" font-weight="bold" lengthAdjust="spacing" textLength="7" x="615.5" y="312.2979">6</text><text fill="#000000" font-family="sans-serif" font-size="13" lengthAdjust="spacing" textLength="25" x="626.5" y="312.2979">user</text><path d="M528.5,332.5605 L589.5,332.5605 L589.5,341.8516 L579.5,351.8516 L528.5,351.8516 L528.5,332.5605 " fill="#EEEEEE" style="stroke:#000000;stroke-width:1.5;"/><rect fill="none" height="315.0371" style="stroke:#000000;stroke-width:1.5;" width="576.5" x="528.5" y="332.5605"/><text fill="#000000" font-family="sans-serif" font-size="13" font-weight="bold" lengthAdjust="spacing" textLength="16" x="543.5" y="347.5889">alt</text><text fill="#000000" font-family="sans-serif" font-size="11" font-weight="bold" lengthAdjust="spacing" textLength="110" x="604.5" y="346.4307">[userStatus == true]</text><polygon fill="#181818" points="766.5,371.1426,776.5,375.1426,766.5,379.1426,770.5,375.1426" style="stroke:#181818;stroke-width:1.0;"/><line style="stroke:#181818;stroke-width:1.0;" x1="598.5" x2="772.5" y1="375.1426" y2="375.1426"/><text fill="#000000" font-family="sans-serif" font-size="13" font-weight="bold" lengthAdjust="spacing" textLength="7" x="605.5" y="369.8799">7</text><text fill="#000000" font-family="sans-serif" font-size="13" lengthAdjust="spacing" textLength="118" x="616.5" y="369.8799">IsLockedOutAsync()</text><path d="M538.5,420.1426 L599.5,420.1426 L599.5,429.4336 L589.5,439.4336 L538.5,439.4336 L538.5,420.1426 " fill="#EEEEEE" style="stroke:#000000;stroke-width:1.5;"/><rect fill="none" height="195.4551" style="stroke:#000000;stroke-width:1.5;" width="556.5" x="538.5" y="420.1426"/><text fill="#000000" font-family="sans-serif" font-size="13" font-weight="bold" lengthAdjust="spacing" textLength="16" x="553.5" y="435.1709">alt</text><text fill="#000000" font-family="sans-serif" font-size="11" font-weight="bold" lengthAdjust="spacing" textLength="109" x="614.5" y="434.0127">[lockedOut == false]</text><polygon fill="#181818" points="1013.5,458.7246,1023.5,462.7246,1013.5,466.7246,1017.5,462.7246" style="stroke:#181818;stroke-width:1.0;"/><line style="stroke:#181818;stroke-width:1.0;" x1="598.5" x2="1019.5" y1="462.7246" y2="462.7246"/><text fill="#000000" font-family="sans-serif" font-size="13" font-weight="bold" lengthAdjust="spacing" textLength="7" x="605.5" y="457.4619">8</text><text fill="#000000" font-family="sans-serif" font-size="13" lengthAdjust="spacing" textLength="397" x="616.5" y="457.4619">PasswordSignInAsync(user,password,isPersistent,lockoutOnFailure)</text><polygon fill="#181818" points="609.5,490.0156,599.5,494.0156,609.5,498.0156,605.5,494.0156" style="stroke:#181818;stroke-width:1.0;"/><line style="stroke:#181818;stroke-width:1.0;stroke-dasharray:2.0,2.0;" x1="603.5" x2="1029.5" y1="494.0156" y2="494.0156"/><text fill="#000000" font-family="sans-serif" font-size="13" font-weight="bold" lengthAdjust="spacing" textLength="7" x="615.5" y="488.7529">9</text><text fill="#000000" font-family="sans-serif" font-size="13" lengthAdjust="spacing" textLength="32" x="626.5" y="488.7529">result</text><line style="stroke:#181818;stroke-width:1.0;" x1="598.5" x2="645.5" y1="520.3066" y2="520.3066"/><line style="stroke:#181818;stroke-width:1.0;" x1="645.5" x2="645.5" y1="520.3066" y2="533.3066"/><line style="stroke:#181818;stroke-width:1.0;" x1="604.5" x2="645.5" y1="533.3066" y2="533.3066"/><polygon fill="#181818" points="614.5,529.3066,604.5,533.3066,614.5,537.3066,610.5,533.3066" style="stroke:#181818;stroke-width:1.0;"/><text fill="#000000" font-family="sans-serif" font-size="13" font-weight="bold" lengthAdjust="spacing" textLength="14" x="610.5" y="515.0439">10</text><text fill="#000000" font-family="sans-serif" font-size="13" lengthAdjust="spacing" textLength="140" x="628.5" y="515.0439">GenerateJwtToken(user)</text><line style="stroke:#181818;stroke-width:1.0;stroke-dasharray:2.0,2.0;" x1="603.5" x2="645.5" y1="574.5977" y2="574.5977"/><line style="stroke:#181818;stroke-width:1.0;stroke-dasharray:2.0,2.0;" x1="645.5" x2="645.5" y1="574.5977" y2="587.5977"/><line style="stroke:#181818;stroke-width:1.0;stroke-dasharray:2.0,2.0;" x1="598.5" x2="645.5" y1="587.5977" y2="587.5977"/><polygon fill="#181818" points="608.5,583.5977,598.5,587.5977,608.5,591.5977,604.5,587.5977" style="stroke:#181818;stroke-width:1.0;"/><text fill="#000000" font-family="sans-serif" font-size="13" font-weight="bold" lengthAdjust="spacing" textLength="14" x="610.5" y="569.335">11</text><text fill="#000000" font-family="sans-serif" font-size="13" lengthAdjust="spacing" textLength="32" x="628.5" y="569.335">token</text><polygon fill="#181818" points="456.5,673.8887,446.5,677.8887,456.5,681.8887,452.5,677.8887" style="stroke:#181818;stroke-width:1.0;"/><line style="stroke:#181818;stroke-width:1.0;stroke-dasharray:2.0,2.0;" x1="450.5" x2="592.5" y1="677.8887" y2="677.8887"/><text fill="#000000" font-family="sans-serif" font-size="13" font-weight="bold" lengthAdjust="spacing" textLength="14" x="462.5" y="672.626">12</text><text fill="#000000" font-family="sans-serif" font-size="13" lengthAdjust="spacing" textLength="32" x="480.5" y="672.626">token</text><polygon fill="#181818" points="186,705.1797,176,709.1797,186,713.1797,182,709.1797" style="stroke:#181818;stroke-width:1.0;"/><line style="stroke:#181818;stroke-width:1.0;stroke-dasharray:2.0,2.0;" x1="180" x2="439.5" y1="709.1797" y2="709.1797"/><text fill="#000000" font-family="sans-serif" font-size="13" font-weight="bold" lengthAdjust="spacing" textLength="14" x="192" y="703.917">13</text><text fill="#000000" font-family="sans-serif" font-size="13" lengthAdjust="spacing" textLength="32" x="210" y="703.917">token</text><path d="M11,724.1797 L72,724.1797 L72,733.4707 L62,743.4707 L11,743.4707 L11,724.1797 " fill="#EEEEEE" style="stroke:#000000;stroke-width:1.5;"/><rect fill="none" height="83.873" style="stroke:#000000;stroke-width:1.5;" width="200.5" x="11" y="724.1797"/><text fill="#000000" font-family="sans-serif" font-size="13" font-weight="bold" lengthAdjust="spacing" textLength="16" x="26" y="739.208">alt</text><ellipse cx="7.5" cy="766.0117" fill="none" rx="4" ry="4" style="stroke:#181818;stroke-width:1.5;"/><polygon fill="#181818" points="24.5,762.7617,14.5,766.7617,24.5,770.7617,20.5,766.7617" style="stroke:#181818;stroke-width:1.0;"/><line style="stroke:#181818;stroke-width:1.0;stroke-dasharray:2.0,2.0;" x1="22.5" x2="164" y1="766.7617" y2="766.7617"/><text fill="#000000" font-family="sans-serif" font-size="13" font-weight="bold" lengthAdjust="spacing" textLength="14" x="25" y="761.499">14</text><text fill="#000000" font-family="sans-serif" font-size="13" lengthAdjust="spacing" textLength="80" x="43" y="761.499">202 Accepted</text><line style="stroke:#000000;stroke-width:1.0;stroke-dasharray:2.0,2.0;" x1="11" x2="211.5" y1="775.7617" y2="775.7617"/><ellipse cx="7.5" cy="799.3027" fill="none" rx="4" ry="4" style="stroke:#181818;stroke-width:1.5;"/><polygon fill="#181818" points="24.5,796.0527,14.5,800.0527,24.5,804.0527,20.5,800.0527" style="stroke:#181818;stroke-width:1.0;"/><line style="stroke:#181818;stroke-width:1.0;stroke-dasharray:2.0,2.0;" x1="22.5" x2="169" y1="800.0527" y2="800.0527"/><text fill="#000000" font-family="sans-serif" font-size="13" font-weight="bold" lengthAdjust="spacing" textLength="14" x="25" y="794.79">15</text><text fill="#000000" font-family="sans-serif" font-size="13" lengthAdjust="spacing" textLength="101" x="43" y="794.79">401 Unauthorized</text><!--SRC=[XPH1Rzf048Nl-oj6d2229ALH3nP1IWbfg8X067A9UjZQKxgDisljZY6f-F7TMHjYd4Gz0RFVUpD-ivWKPGYjLGnVJlkd5z23kJK9EWVt2hVmCCKDPl3vHqi8MP3HnTDFj2ANbbIYSga9MWjJaDBh5aW7YzbgEOR1mFeQ3eV7uDIibLuvjDTa0dszd7as9TCa6HePJTPa6Th0ZfQBgOUJG_KzJOnsen8CWlX-v7bNLjw3xwIMwyfzCfv-3CTghPMku_7axcFybYZduV6P0dmx4kB1z8PbE17CP_6o_SSPtO4pcQkp48kG2QcD92mf8SealOf3EZc98B7eZqjXxPXpYI1ujBDQm9rNHqQ4205w0GVp7u4dXE3yFCx9H72ZTFhrPVmaLNRbNdJIHlvQatXC26PxNiFI20hlAr8yHcH6uI0cIOM3oqiWMw0027DL3IEOkAb97Z6T5LJswmJao8iBJVi0-HRPNiqTVidCeQZtuFtvHKZdjiQclD-9BllmRDsyEkWgDqVhb2FKr6LFVwrd-iO_Uc6nCPBth7fuyog522ow8gFchCnowMWcnh-XHkk9xrjQcaVKOPvc8zxEGRXN4kDl-dYKIxlTBdoYJZcUGst_kzhsuJgLPWsZwWQzNkGtL7dHE7z_uGUzNlKwYA1_teUh9C6SC1K2mpgEYOlpJx3I_XNpsrZrrrCrs_8VSPZr7m00]--></g></svg>