<?xml version="1.0" encoding="us-ascii" standalone="no"?><svg xmlns="http://www.w3.org/2000/svg" xmlns:xlink="http://www.w3.org/1999/xlink" contentStyleType="text/css" height="1425px" preserveAspectRatio="none" style="width:1530px;height:1425px;background:#FFFFFF;" version="1.1" viewBox="0 0 1530 1425" width="1530px" zoomAndPan="magnify"><defs/><g><text fill="#000000" font-family="sans-serif" font-size="14" font-weight="bold" lengthAdjust="spacing" textLength="334" x="597.25" y="30.1074">US 6.2.12 Process View (Level 3) | MDBackoffice</text><rect fill="#FFFFFF" height="495.6709" style="stroke:#181818;stroke-width:1.0;" width="10" x="94" y="141.7998"/><rect fill="#FFFFFF" height="679.7861" style="stroke:#181818;stroke-width:1.0;" width="10" x="94" y="680.4072"/><rect fill="#FFFFFF" height="421.4434" style="stroke:#181818;stroke-width:1.0;" width="10" x="287" y="184.7363"/><rect fill="#FFFFFF" height="555.9766" style="stroke:#181818;stroke-width:1.0;" width="10" x="287" y="723.3438"/><rect fill="#FFFFFF" height="314.5703" style="stroke:#181818;stroke-width:1.0;" width="10" x="521" y="216.0273"/><rect fill="#FFFFFF" height="386.8613" style="stroke:#181818;stroke-width:1.0;" width="10" x="521" y="816.877"/><rect fill="#FFFFFF" height="31.291" style="stroke:#181818;stroke-width:1.0;" width="10" x="723" y="247.3184"/><rect fill="#FFFFFF" height="31.291" style="stroke:#181818;stroke-width:1.0;" width="10" x="723" y="848.168"/><rect fill="#FFFFFF" height="31.291" style="stroke:#181818;stroke-width:1.0;" width="10" x="855" y="461.0156"/><rect fill="#FFFFFF" height="31.291" style="stroke:#181818;stroke-width:1.0;" width="10" x="968.5" y="398.4336"/><rect fill="#FFFFFF" height="30" style="stroke:#181818;stroke-width:1.0;" width="10" x="968.5" y="910.75"/><rect fill="#FFFFFF" height="156.1152" style="stroke:#181818;stroke-width:1.0;" width="10" x="1267" y="972.041"/><rect fill="#FFFFFF" height="31.291" style="stroke:#181818;stroke-width:1.0;" width="10" x="1464.5" y="1065.5742"/><rect fill="none" height="144.4551" style="stroke:#000000;stroke-width:1.5;" width="553.5" x="469" y="355.8516"/><line style="stroke:#181818;stroke-width:0.5;stroke-dasharray:5.0,5.0;" x1="98.5" x2="98.5" y1="96.8633" y2="1369.1934"/><line style="stroke:#181818;stroke-width:0.5;stroke-dasharray:5.0,5.0;" x1="291.5" x2="291.5" y1="96.8633" y2="1369.1934"/><line style="stroke:#181818;stroke-width:0.5;stroke-dasharray:5.0,5.0;" x1="526" x2="526" y1="96.8633" y2="1369.1934"/><line style="stroke:#181818;stroke-width:0.5;stroke-dasharray:5.0,5.0;" x1="727.5" x2="727.5" y1="96.8633" y2="1369.1934"/><line style="stroke:#181818;stroke-width:0.5;stroke-dasharray:5.0,5.0;" x1="859.5" x2="859.5" y1="327.7305" y2="1369.1934"/><line style="stroke:#181818;stroke-width:0.5;stroke-dasharray:5.0,5.0;" x1="973.5" x2="973.5" y1="96.8633" y2="1369.1934"/><line style="stroke:#181818;stroke-width:0.5;stroke-dasharray:5.0,5.0;" x1="1063.5" x2="1063.5" y1="772.4648" y2="1369.1934"/><line style="stroke:#181818;stroke-width:0.5;stroke-dasharray:5.0,5.0;" x1="1165.5" x2="1165.5" y1="96.8633" y2="1369.1934"/><line style="stroke:#181818;stroke-width:0.5;stroke-dasharray:5.0,5.0;" x1="1271.5" x2="1271.5" y1="96.8633" y2="1369.1934"/><line style="stroke:#181818;stroke-width:0.5;stroke-dasharray:5.0,5.0;" x1="1365.5" x2="1365.5" y1="1021.1621" y2="1369.1934"/><line style="stroke:#181818;stroke-width:0.5;stroke-dasharray:5.0,5.0;" x1="1469.5" x2="1469.5" y1="96.8633" y2="1369.1934"/><rect fill="#E2E2F0" height="51.2422" rx="2.5" ry="2.5" style="stroke:#181818;stroke-width:0.5;" width="85" x="56.5" y="44.6211"/><text fill="#000000" font-family="sans-serif" font-size="14" lengthAdjust="spacing" textLength="54" x="72" y="66.7285">&#171;Route&#187;</text><text fill="#000000" font-family="sans-serif" font-size="14" lengthAdjust="spacing" textLength="67" x="67.5" y="85.3496">StaffRoute</text><rect fill="#E2E2F0" height="51.2422" rx="2.5" ry="2.5" style="stroke:#181818;stroke-width:0.5;" width="85" x="56.5" y="1368.1934"/><text fill="#000000" font-family="sans-serif" font-size="14" lengthAdjust="spacing" textLength="54" x="72" y="1390.3008">&#171;Route&#187;</text><text fill="#000000" font-family="sans-serif" font-size="14" lengthAdjust="spacing" textLength="67" x="67.5" y="1408.9219">StaffRoute</text><rect fill="#E2E2F0" height="51.2422" rx="2.5" ry="2.5" style="stroke:#181818;stroke-width:0.5;" width="109" x="237.5" y="44.6211"/><text fill="#000000" font-family="sans-serif" font-size="14" lengthAdjust="spacing" textLength="78" x="253" y="66.7285">&#171;Controller&#187;</text><text fill="#000000" font-family="sans-serif" font-size="14" lengthAdjust="spacing" textLength="91" x="248.5" y="85.3496">StaffController</text><rect fill="#E2E2F0" height="51.2422" rx="2.5" ry="2.5" style="stroke:#181818;stroke-width:0.5;" width="109" x="237.5" y="1368.1934"/><text fill="#000000" font-family="sans-serif" font-size="14" lengthAdjust="spacing" textLength="78" x="253" y="1390.3008">&#171;Controller&#187;</text><text fill="#000000" font-family="sans-serif" font-size="14" lengthAdjust="spacing" textLength="91" x="248.5" y="1408.9219">StaffController</text><rect fill="#E2E2F0" height="51.2422" rx="2.5" ry="2.5" style="stroke:#181818;stroke-width:0.5;" width="94" x="479" y="44.6211"/><text fill="#000000" font-family="sans-serif" font-size="14" lengthAdjust="spacing" textLength="63" x="494.5" y="66.7285">&#171;Service&#187;</text><text fill="#000000" font-family="sans-serif" font-size="14" lengthAdjust="spacing" textLength="76" x="490" y="85.3496">StaffService</text><rect fill="#E2E2F0" height="51.2422" rx="2.5" ry="2.5" style="stroke:#181818;stroke-width:0.5;" width="94" x="479" y="1368.1934"/><text fill="#000000" font-family="sans-serif" font-size="14" lengthAdjust="spacing" textLength="63" x="494.5" y="1390.3008">&#171;Service&#187;</text><text fill="#000000" font-family="sans-serif" font-size="14" lengthAdjust="spacing" textLength="76" x="490" y="1408.9219">StaffService</text><rect fill="#E2E2F0" height="51.2422" rx="2.5" ry="2.5" style="stroke:#181818;stroke-width:0.5;" width="115" x="670.5" y="44.6211"/><text fill="#000000" font-family="sans-serif" font-size="14" lengthAdjust="spacing" textLength="84" x="686" y="66.7285">&#171;Repository&#187;</text><text fill="#000000" font-family="sans-serif" font-size="14" lengthAdjust="spacing" textLength="97" x="681.5" y="85.3496">StaffRepository</text><rect fill="#E2E2F0" height="51.2422" rx="2.5" ry="2.5" style="stroke:#181818;stroke-width:0.5;" width="115" x="670.5" y="1368.1934"/><text fill="#000000" font-family="sans-serif" font-size="14" lengthAdjust="spacing" textLength="84" x="686" y="1390.3008">&#171;Repository&#187;</text><text fill="#000000" font-family="sans-serif" font-size="14" lengthAdjust="spacing" textLength="97" x="681.5" y="1408.9219">StaffRepository</text><rect fill="#E2E2F0" height="51.2422" rx="2.5" ry="2.5" style="stroke:#181818;stroke-width:0.5;" width="129" x="795.5" y="1368.1934"/><text fill="#000000" font-family="sans-serif" font-size="14" lengthAdjust="spacing" textLength="46" x="837" y="1390.3008">&#171;DTO&#187;</text><text fill="#000000" font-family="sans-serif" font-size="14" lengthAdjust="spacing" textLength="111" x="806.5" y="1408.9219">ActiveStaffListDto</text><rect fill="#E2E2F0" height="51.2422" rx="2.5" ry="2.5" style="stroke:#181818;stroke-width:0.5;" width="78" x="934.5" y="44.6211"/><text fill="#000000" font-family="sans-serif" font-size="14" lengthAdjust="spacing" textLength="64" x="941.5" y="66.7285">&#171;Domain&#187;</text><text fill="#000000" font-family="sans-serif" font-size="14" lengthAdjust="spacing" textLength="29" x="961" y="85.3496">Staff</text><rect fill="#E2E2F0" height="51.2422" rx="2.5" ry="2.5" style="stroke:#181818;stroke-width:0.5;" width="78" x="934.5" y="1368.1934"/><text fill="#000000" font-family="sans-serif" font-size="14" lengthAdjust="spacing" textLength="64" x="941.5" y="1390.3008">&#171;Domain&#187;</text><text fill="#000000" font-family="sans-serif" font-size="14" lengthAdjust="spacing" textLength="29" x="961" y="1408.9219">Staff</text><rect fill="#E2E2F0" height="51.2422" rx="2.5" ry="2.5" style="stroke:#181818;stroke-width:0.5;" width="82" x="1022.5" y="1368.1934"/><text fill="#000000" font-family="sans-serif" font-size="14" lengthAdjust="spacing" textLength="46" x="1040.5" y="1390.3008">&#171;DTO&#187;</text><text fill="#000000" font-family="sans-serif" font-size="14" lengthAdjust="spacing" textLength="64" x="1033.5" y="1408.9219">IdPassDto</text><rect fill="#E2E2F0" height="51.2422" rx="2.5" ry="2.5" style="stroke:#181818;stroke-width:0.5;" width="103" x="1114.5" y="44.6211"/><text fill="#000000" font-family="sans-serif" font-size="14" lengthAdjust="spacing" textLength="89" x="1121.5" y="66.7285">&#171;Component&#187;</text><text fill="#000000" font-family="sans-serif" font-size="14" lengthAdjust="spacing" textLength="55" x="1140.5" y="85.3496">Planning</text><rect fill="#E2E2F0" height="51.2422" rx="2.5" ry="2.5" style="stroke:#181818;stroke-width:0.5;" width="103" x="1114.5" y="1368.1934"/><text fill="#000000" font-family="sans-serif" font-size="14" lengthAdjust="spacing" textLength="89" x="1121.5" y="1390.3008">&#171;Component&#187;</text><text fill="#000000" font-family="sans-serif" font-size="14" lengthAdjust="spacing" textLength="55" x="1140.5" y="1408.9219">Planning</text><rect fill="#E2E2F0" height="51.2422" rx="2.5" ry="2.5" style="stroke:#181818;stroke-width:0.5;" width="89" x="1227.5" y="44.6211"/><text fill="#000000" font-family="sans-serif" font-size="14" lengthAdjust="spacing" textLength="63" x="1240.5" y="66.7285">&#171;Service&#187;</text><text fill="#000000" font-family="sans-serif" font-size="14" lengthAdjust="spacing" textLength="71" x="1238.5" y="85.3496">LogService</text><rect fill="#E2E2F0" height="51.2422" rx="2.5" ry="2.5" style="stroke:#181818;stroke-width:0.5;" width="89" x="1227.5" y="1368.1934"/><text fill="#000000" font-family="sans-serif" font-size="14" lengthAdjust="spacing" textLength="63" x="1240.5" y="1390.3008">&#171;Service&#187;</text><text fill="#000000" font-family="sans-serif" font-size="14" lengthAdjust="spacing" textLength="71" x="1238.5" y="1408.9219">LogService</text><rect fill="#E2E2F0" height="51.2422" rx="2.5" ry="2.5" style="stroke:#181818;stroke-width:0.5;" width="78" x="1326.5" y="1368.1934"/><text fill="#000000" font-family="sans-serif" font-size="14" lengthAdjust="spacing" textLength="64" x="1333.5" y="1390.3008">&#171;Domain&#187;</text><text fill="#000000" font-family="sans-serif" font-size="14" lengthAdjust="spacing" textLength="24" x="1355.5" y="1408.9219">Log</text><rect fill="#E2E2F0" height="51.2422" rx="2.5" ry="2.5" style="stroke:#181818;stroke-width:0.5;" width="110" x="1414.5" y="44.6211"/><text fill="#000000" font-family="sans-serif" font-size="14" lengthAdjust="spacing" textLength="84" x="1427.5" y="66.7285">&#171;Repository&#187;</text><text fill="#000000" font-family="sans-serif" font-size="14" lengthAdjust="spacing" textLength="92" x="1425.5" y="85.3496">LogRepository</text><rect fill="#E2E2F0" height="51.2422" rx="2.5" ry="2.5" style="stroke:#181818;stroke-width:0.5;" width="110" x="1414.5" y="1368.1934"/><text fill="#000000" font-family="sans-serif" font-size="14" lengthAdjust="spacing" textLength="84" x="1427.5" y="1390.3008">&#171;Repository&#187;</text><text fill="#000000" font-family="sans-serif" font-size="14" lengthAdjust="spacing" textLength="92" x="1425.5" y="1408.9219">LogRepository</text><rect fill="#FFFFFF" height="495.6709" style="stroke:#181818;stroke-width:1.0;" width="10" x="94" y="141.7998"/><rect fill="#FFFFFF" height="679.7861" style="stroke:#181818;stroke-width:1.0;" width="10" x="94" y="680.4072"/><rect fill="#FFFFFF" height="421.4434" style="stroke:#181818;stroke-width:1.0;" width="10" x="287" y="184.7363"/><rect fill="#FFFFFF" height="555.9766" style="stroke:#181818;stroke-width:1.0;" width="10" x="287" y="723.3438"/><rect fill="#FFFFFF" height="314.5703" style="stroke:#181818;stroke-width:1.0;" width="10" x="521" y="216.0273"/><rect fill="#FFFFFF" height="386.8613" style="stroke:#181818;stroke-width:1.0;" width="10" x="521" y="816.877"/><rect fill="#FFFFFF" height="31.291" style="stroke:#181818;stroke-width:1.0;" width="10" x="723" y="247.3184"/><rect fill="#FFFFFF" height="31.291" style="stroke:#181818;stroke-width:1.0;" width="10" x="723" y="848.168"/><rect fill="#FFFFFF" height="31.291" style="stroke:#181818;stroke-width:1.0;" width="10" x="855" y="461.0156"/><rect fill="#FFFFFF" height="31.291" style="stroke:#181818;stroke-width:1.0;" width="10" x="968.5" y="398.4336"/><rect fill="#FFFFFF" height="30" style="stroke:#181818;stroke-width:1.0;" width="10" x="968.5" y="910.75"/><rect fill="#FFFFFF" height="156.1152" style="stroke:#181818;stroke-width:1.0;" width="10" x="1267" y="972.041"/><rect fill="#FFFFFF" height="31.291" style="stroke:#181818;stroke-width:1.0;" width="10" x="1464.5" y="1065.5742"/><ellipse cx="7.5" cy="141.0498" fill="none" rx="4" ry="4" style="stroke:#181818;stroke-width:1.5;"/><polygon fill="#181818" points="82,137.7998,92,141.7998,82,145.7998,86,141.7998" style="stroke:#181818;stroke-width:1.0;"/><line style="stroke:#181818;stroke-width:1.0;" x1="12" x2="88" y1="141.7998" y2="141.7998"/><text fill="#000000" font-family="sans-serif" font-size="13" lengthAdjust="spacing" textLength="34" x="15" y="136.5371">GET()</text><path d="M109,111.8633 L109,155.8633 L206,155.8633 L206,121.8633 L196,111.8633 L109,111.8633 " fill="#FEFFDD" style="stroke:#181818;stroke-width:0.5;"/><path d="M196,111.8633 L196,121.8633 L206,121.8633 L196,111.8633 " fill="#FEFFDD" style="stroke:#181818;stroke-width:0.5;"/><text fill="#000000" font-family="sans-serif" font-size="13" lengthAdjust="spacing" textLength="61" x="115" y="130.8916">getting the</text><text fill="#000000" font-family="sans-serif" font-size="13" lengthAdjust="spacing" textLength="76" x="115" y="148.1826">list of profiles</text><polygon fill="#181818" points="275,180.7363,285,184.7363,275,188.7363,279,184.7363" style="stroke:#181818;stroke-width:1.0;"/><line style="stroke:#181818;stroke-width:1.0;" x1="104" x2="281" y1="184.7363" y2="184.7363"/><text fill="#000000" font-family="sans-serif" font-size="13" lengthAdjust="spacing" textLength="133" x="111" y="179.4736">GetActiveStaffProfiles()</text><polygon fill="#181818" points="509,212.0273,519,216.0273,509,220.0273,513,216.0273" style="stroke:#181818;stroke-width:1.0;"/><line style="stroke:#181818;stroke-width:1.0;" x1="297" x2="515" y1="216.0273" y2="216.0273"/><text fill="#000000" font-family="sans-serif" font-size="13" lengthAdjust="spacing" textLength="74" x="304" y="210.7646">GetAllSync()</text><polygon fill="#181818" points="711,243.3184,721,247.3184,711,251.3184,715,247.3184" style="stroke:#181818;stroke-width:1.0;"/><line style="stroke:#181818;stroke-width:1.0;" x1="531" x2="717" y1="247.3184" y2="247.3184"/><text fill="#000000" font-family="sans-serif" font-size="13" lengthAdjust="spacing" textLength="74" x="538" y="242.0557">GetAllSync()</text><polygon fill="#181818" points="542,274.6094,532,278.6094,542,282.6094,538,278.6094" style="stroke:#181818;stroke-width:1.0;"/><line style="stroke:#181818;stroke-width:1.0;stroke-dasharray:2.0,2.0;" x1="536" x2="727" y1="278.6094" y2="278.6094"/><text fill="#000000" font-family="sans-serif" font-size="13" lengthAdjust="spacing" textLength="116" x="548" y="273.3467">var list = List&lt;Staff&gt;</text><polygon fill="#181818" points="783.5,288.6094,793.5,292.6094,783.5,296.6094,787.5,292.6094" style="stroke:#181818;stroke-width:1.0;"/><line style="stroke:#181818;stroke-width:1.0;" x1="531" x2="789.5" y1="292.6094" y2="292.6094"/><rect fill="#E2E2F0" height="51.2422" rx="2.5" ry="2.5" style="stroke:#181818;stroke-width:0.5;" width="129" x="795.5" y="286.6094"/><text fill="#000000" font-family="sans-serif" font-size="14" lengthAdjust="spacing" textLength="46" x="837" y="308.7168">&#171;DTO&#187;</text><text fill="#000000" font-family="sans-serif" font-size="14" lengthAdjust="spacing" textLength="111" x="806.5" y="327.3379">ActiveStaffListDto</text><path d="M469,355.8516 L542,355.8516 L542,365.1426 L532,375.1426 L469,375.1426 L469,355.8516 " fill="#EEEEEE" style="stroke:#000000;stroke-width:1.5;"/><rect fill="none" height="144.4551" style="stroke:#000000;stroke-width:1.5;" width="553.5" x="469" y="355.8516"/><text fill="#000000" font-family="sans-serif" font-size="13" font-weight="bold" lengthAdjust="spacing" textLength="28" x="484" y="370.8799">loop</text><text fill="#000000" font-family="sans-serif" font-size="11" font-weight="bold" lengthAdjust="spacing" textLength="185" x="557" y="369.7217">[for every profile in listOfProfiles]</text><polygon fill="#181818" points="956.5,394.4336,966.5,398.4336,956.5,402.4336,960.5,398.4336" style="stroke:#181818;stroke-width:1.0;"/><line style="stroke:#181818;stroke-width:1.0;" x1="531" x2="962.5" y1="398.4336" y2="398.4336"/><text fill="#000000" font-family="sans-serif" font-size="13" lengthAdjust="spacing" textLength="45" x="538" y="393.1709">toDTO()</text><polygon fill="#181818" points="542,425.7246,532,429.7246,542,433.7246,538,429.7246" style="stroke:#181818;stroke-width:1.0;"/><line style="stroke:#181818;stroke-width:1.0;stroke-dasharray:2.0,2.0;" x1="536" x2="972.5" y1="429.7246" y2="429.7246"/><text fill="#000000" font-family="sans-serif" font-size="13" lengthAdjust="spacing" textLength="60" x="548" y="424.4619">profileDTO</text><polygon fill="#181818" points="843,457.0156,853,461.0156,843,465.0156,847,461.0156" style="stroke:#181818;stroke-width:1.0;"/><line style="stroke:#181818;stroke-width:1.0;" x1="531" x2="849" y1="461.0156" y2="461.0156"/><text fill="#000000" font-family="sans-serif" font-size="13" lengthAdjust="spacing" textLength="108" x="538" y="455.7529">listAdd(profileDTO)</text><polygon fill="#181818" points="542,488.3066,532,492.3066,542,496.3066,538,492.3066" style="stroke:#181818;stroke-width:1.0;"/><line style="stroke:#181818;stroke-width:1.0;stroke-dasharray:2.0,2.0;" x1="536" x2="859" y1="492.3066" y2="492.3066"/><text fill="#000000" font-family="sans-serif" font-size="13" lengthAdjust="spacing" textLength="33" x="548" y="487.0439">return</text><polygon fill="#181818" points="308,526.5977,298,530.5977,308,534.5977,304,530.5977" style="stroke:#181818;stroke-width:1.0;"/><line style="stroke:#181818;stroke-width:1.0;stroke-dasharray:2.0,2.0;" x1="302" x2="525" y1="530.5977" y2="530.5977"/><text fill="#000000" font-family="sans-serif" font-size="13" lengthAdjust="spacing" textLength="100" x="314" y="525.335">activeStaffListDto</text><line style="stroke:#181818;stroke-width:1.0;" x1="297" x2="339" y1="561.8887" y2="561.8887"/><line style="stroke:#181818;stroke-width:1.0;" x1="339" x2="339" y1="561.8887" y2="574.8887"/><line style="stroke:#181818;stroke-width:1.0;" x1="298" x2="339" y1="574.8887" y2="574.8887"/><polygon fill="#181818" points="308,570.8887,298,574.8887,308,578.8887,304,574.8887" style="stroke:#181818;stroke-width:1.0;"/><text fill="#000000" font-family="sans-serif" font-size="13" lengthAdjust="spacing" textLength="125" x="304" y="556.626">Ok(activeStaffListDto)</text><polygon fill="#181818" points="115,602.1797,105,606.1797,115,610.1797,111,606.1797" style="stroke:#181818;stroke-width:1.0;"/><line style="stroke:#181818;stroke-width:1.0;stroke-dasharray:2.0,2.0;" x1="109" x2="291" y1="606.1797" y2="606.1797"/><text fill="#000000" font-family="sans-serif" font-size="13" lengthAdjust="spacing" textLength="24" x="121" y="600.917">json</text><polygon fill="#181818" points="11,633.4707,1,637.4707,11,641.4707,7,637.4707" style="stroke:#181818;stroke-width:1.0;"/><line style="stroke:#181818;stroke-width:1.0;stroke-dasharray:2.0,2.0;" x1="5" x2="98" y1="637.4707" y2="637.4707"/><text fill="#000000" font-family="sans-serif" font-size="13" lengthAdjust="spacing" textLength="24" x="17" y="632.208">json</text><ellipse cx="7.5" cy="679.6572" fill="none" rx="4" ry="4" style="stroke:#181818;stroke-width:1.5;"/><polygon fill="#181818" points="82,676.4072,92,680.4072,82,684.4072,86,680.4072" style="stroke:#181818;stroke-width:1.0;"/><line style="stroke:#181818;stroke-width:1.0;" x1="12" x2="88" y1="680.4072" y2="680.4072"/><text fill="#000000" font-family="sans-serif" font-size="13" lengthAdjust="spacing" textLength="67" x="15" y="675.1445">PUT(JSON)</text><path d="M109,650.4707 L109,694.4707 L211,694.4707 L211,660.4707 L201,650.4707 L109,650.4707 " fill="#FEFFDD" style="stroke:#181818;stroke-width:0.5;"/><path d="M201,650.4707 L201,660.4707 L211,660.4707 L201,650.4707 " fill="#FEFFDD" style="stroke:#181818;stroke-width:0.5;"/><text fill="#000000" font-family="sans-serif" font-size="13" lengthAdjust="spacing" textLength="81" x="115" y="669.499">after choosing</text><text fill="#000000" font-family="sans-serif" font-size="13" lengthAdjust="spacing" textLength="45" x="119" y="686.79">a profile</text><polygon fill="#181818" points="275,719.3438,285,723.3438,275,727.3438,279,723.3438" style="stroke:#181818;stroke-width:1.0;"/><line style="stroke:#181818;stroke-width:1.0;" x1="104" x2="281" y1="723.3438" y2="723.3438"/><text fill="#000000" font-family="sans-serif" font-size="13" lengthAdjust="spacing" textLength="164" x="111" y="718.0811">DeactivateStaffProfile(JSON)</text><polygon fill="#181818" points="1010.5,750.6348,1020.5,754.6348,1010.5,758.6348,1014.5,754.6348" style="stroke:#181818;stroke-width:1.0;"/><line style="stroke:#181818;stroke-width:1.0;" x1="297" x2="1016.5" y1="754.6348" y2="754.6348"/><text fill="#000000" font-family="sans-serif" font-size="13" lengthAdjust="spacing" textLength="79" x="304" y="749.3721">toDTO(JSON)</text><rect fill="#E2E2F0" height="51.2422" rx="2.5" ry="2.5" style="stroke:#181818;stroke-width:0.5;" width="82" x="1022.5" y="731.3438"/><text fill="#000000" font-family="sans-serif" font-size="14" lengthAdjust="spacing" textLength="46" x="1040.5" y="753.4512">&#171;DTO&#187;</text><text fill="#000000" font-family="sans-serif" font-size="14" lengthAdjust="spacing" textLength="64" x="1033.5" y="772.0723">IdPassDto</text><polygon fill="#181818" points="509,812.877,519,816.877,509,820.877,513,816.877" style="stroke:#181818;stroke-width:1.0;"/><line style="stroke:#181818;stroke-width:1.0;" x1="297" x2="515" y1="816.877" y2="816.877"/><text fill="#000000" font-family="sans-serif" font-size="13" lengthAdjust="spacing" textLength="204" x="304" y="811.6143">DeactivateStaffProfile(idPassDto.Id)</text><polygon fill="#181818" points="711,844.168,721,848.168,711,852.168,715,848.168" style="stroke:#181818;stroke-width:1.0;"/><line style="stroke:#181818;stroke-width:1.0;" x1="531" x2="717" y1="848.168" y2="848.168"/><text fill="#000000" font-family="sans-serif" font-size="13" lengthAdjust="spacing" textLength="173" x="538" y="842.9053">GetByIdAsync(new StaffId(id))</text><polygon fill="#181818" points="542,875.459,532,879.459,542,883.459,538,879.459" style="stroke:#181818;stroke-width:1.0;"/><line style="stroke:#181818;stroke-width:1.0;stroke-dasharray:2.0,2.0;" x1="536" x2="727" y1="879.459" y2="879.459"/><text fill="#000000" font-family="sans-serif" font-size="13" lengthAdjust="spacing" textLength="60" x="548" y="874.1963">staffProfile</text><polygon fill="#181818" points="956.5,906.75,966.5,910.75,956.5,914.75,960.5,910.75" style="stroke:#181818;stroke-width:1.0;"/><line style="stroke:#181818;stroke-width:1.0;" x1="531" x2="962.5" y1="910.75" y2="910.75"/><text fill="#000000" font-family="sans-serif" font-size="13" lengthAdjust="spacing" textLength="104" x="538" y="905.4873">DeactivateProfile()</text><polygon fill="#181818" points="1255,968.041,1265,972.041,1255,976.041,1259,972.041" style="stroke:#181818;stroke-width:1.0;"/><line style="stroke:#181818;stroke-width:1.0;" x1="531" x2="1261" y1="972.041" y2="972.041"/><text fill="#000000" font-family="sans-serif" font-size="13" lengthAdjust="spacing" textLength="434" x="538" y="966.7783">CreateEditLog(id, staff.GetType().ToString(), "Deactivation of staff's profile.")</text><polygon fill="#181818" points="1314.5,982.041,1324.5,986.041,1314.5,990.041,1318.5,986.041" style="stroke:#181818;stroke-width:1.0;"/><line style="stroke:#181818;stroke-width:1.0;" x1="1277" x2="1320.5" y1="986.041" y2="986.041"/><rect fill="#E2E2F0" height="51.2422" rx="2.5" ry="2.5" style="stroke:#181818;stroke-width:0.5;" width="78" x="1326.5" y="980.041"/><text fill="#000000" font-family="sans-serif" font-size="14" lengthAdjust="spacing" textLength="64" x="1333.5" y="1002.1484">&#171;Domain&#187;</text><text fill="#000000" font-family="sans-serif" font-size="14" lengthAdjust="spacing" textLength="24" x="1355.5" y="1020.7695">Log</text><polygon fill="#181818" points="1452.5,1061.5742,1462.5,1065.5742,1452.5,1069.5742,1456.5,1065.5742" style="stroke:#181818;stroke-width:1.0;"/><line style="stroke:#181818;stroke-width:1.0;" x1="1277" x2="1458.5" y1="1065.5742" y2="1065.5742"/><text fill="#000000" font-family="sans-serif" font-size="13" lengthAdjust="spacing" textLength="85" x="1284" y="1060.3115">AddAsync(log)</text><polygon fill="#181818" points="1288,1092.8652,1278,1096.8652,1288,1100.8652,1284,1096.8652" style="stroke:#181818;stroke-width:1.0;"/><line style="stroke:#181818;stroke-width:1.0;stroke-dasharray:2.0,2.0;" x1="1282" x2="1468.5" y1="1096.8652" y2="1096.8652"/><text fill="#000000" font-family="sans-serif" font-size="13" lengthAdjust="spacing" textLength="22" x="1294" y="1091.6025">true</text><polygon fill="#181818" points="542,1124.1563,532,1128.1563,542,1132.1563,538,1128.1563" style="stroke:#181818;stroke-width:1.0;"/><line style="stroke:#181818;stroke-width:1.0;stroke-dasharray:2.0,2.0;" x1="536" x2="1271" y1="1128.1563" y2="1128.1563"/><text fill="#000000" font-family="sans-serif" font-size="13" lengthAdjust="spacing" textLength="22" x="548" y="1122.8936">true</text><line style="stroke:#181818;stroke-width:1.0;" x1="531" x2="573" y1="1159.4473" y2="1159.4473"/><line style="stroke:#181818;stroke-width:1.0;" x1="573" x2="573" y1="1159.4473" y2="1172.4473"/><line style="stroke:#181818;stroke-width:1.0;" x1="532" x2="573" y1="1172.4473" y2="1172.4473"/><polygon fill="#181818" points="542,1168.4473,532,1172.4473,542,1176.4473,538,1172.4473" style="stroke:#181818;stroke-width:1.0;"/><text fill="#000000" font-family="sans-serif" font-size="13" lengthAdjust="spacing" textLength="90" x="538" y="1154.1846">CommitAsync()</text><polygon fill="#181818" points="308,1199.7383,298,1203.7383,308,1207.7383,304,1203.7383" style="stroke:#181818;stroke-width:1.0;"/><line style="stroke:#181818;stroke-width:1.0;stroke-dasharray:2.0,2.0;" x1="302" x2="525" y1="1203.7383" y2="1203.7383"/><text fill="#000000" font-family="sans-serif" font-size="13" lengthAdjust="spacing" textLength="33" x="314" y="1198.4756">return</text><line style="stroke:#181818;stroke-width:1.0;" x1="297" x2="339" y1="1235.0293" y2="1235.0293"/><line style="stroke:#181818;stroke-width:1.0;" x1="339" x2="339" y1="1235.0293" y2="1248.0293"/><line style="stroke:#181818;stroke-width:1.0;" x1="298" x2="339" y1="1248.0293" y2="1248.0293"/><polygon fill="#181818" points="308,1244.0293,298,1248.0293,308,1252.0293,304,1248.0293" style="stroke:#181818;stroke-width:1.0;"/><text fill="#000000" font-family="sans-serif" font-size="13" lengthAdjust="spacing" textLength="210" x="304" y="1229.7666">Ok("Staff deactivated successfully.")</text><polygon fill="#181818" points="115,1275.3203,105,1279.3203,115,1283.3203,111,1279.3203" style="stroke:#181818;stroke-width:1.0;"/><line style="stroke:#181818;stroke-width:1.0;stroke-dasharray:2.0,2.0;" x1="109" x2="291" y1="1279.3203" y2="1279.3203"/><text fill="#000000" font-family="sans-serif" font-size="13" lengthAdjust="spacing" textLength="34" x="121" y="1274.0576">JSON</text><polygon fill="#181818" points="11,1326.9023,1,1330.9023,11,1334.9023,7,1330.9023" style="stroke:#181818;stroke-width:1.0;"/><line style="stroke:#181818;stroke-width:1.0;stroke-dasharray:2.0,2.0;" x1="5" x2="93" y1="1330.9023" y2="1330.9023"/><text fill="#000000" font-family="sans-serif" font-size="13" lengthAdjust="spacing" textLength="34" x="17" y="1325.6396">JSON</text><path d="M109,1292.3203 L109,1353.3203 L262,1353.3203 L262,1302.3203 L252,1292.3203 L109,1292.3203 " fill="#FEFFDD" style="stroke:#181818;stroke-width:0.5;"/><path d="M252,1292.3203 L252,1302.3203 L262,1302.3203 L252,1292.3203 " fill="#FEFFDD" style="stroke:#181818;stroke-width:0.5;"/><text fill="#000000" font-family="sans-serif" font-size="13" lengthAdjust="spacing" textLength="121" x="115" y="1311.3486">The Planning module</text><text fill="#000000" font-family="sans-serif" font-size="13" lengthAdjust="spacing" textLength="128" x="119" y="1328.6396">update will be handled</text><text fill="#000000" font-family="sans-serif" font-size="13" lengthAdjust="spacing" textLength="97" x="119" y="1345.9307">in the next sprint</text><!--SRC=[ZLPTRzem57tthxZYPL0Lf7NI7YQ6H85MJAn19EtB-f8b3dWrTkIOTaZxyRjnOk9yTNi3Sy-vnzVds6YcEON1em-V9pUJZpUmLJAYMGPFZBx1S4DVAOTF8_W3tvUtOVGYauH5T4186YhD8fQ6GiDWEjt9awQpsRC0NuT9OhuE8CnWvpq6gsRrGWgj9ETKLP1gpU0MtaEmypPDf4_LAmgeOEM2mVZ1_ExEN-sUMkfeAZEcfJex4Yzh5NQtsdfDx3Bm36WUQVPA3NJ3ChtKqk3cYs3zj3BepTeFiBf588yX4rNZgbrVgtMy3RFCTZ2b7RmBUKobe48Rp9Q7GZ2nDv3jPlxmtkGsSk_ERUFTvr_V4Ou0M_cFsM9bOxA8oLS8-I77iy8Fy0NkLy5mH8JK51JR7pGkxQdMk0FG1mhFWkEGGIQGAfamJZD2p0c422WyHGegv2ozahDIxPpJjeHYemfiZKKi2WaknYafEFVF8aBO1LLPYrJ55fdRfe641jGuYrJLuqRNrr21sV5NoDqrDVfdP4d3FXghe6t0goj2k9Gf95811bYTxH212TF5kuocOpUeHakamUtNcnUrBUabT-xGc7OX-fKYEfSpZ-DXnUAqxGXN1qbJaABwf8GhfeE7YhWso9gDmbRMMoTHUC7nK8NsNePjWf5JxCJWLoQ5ostTEHsFwpNERahxr-AqVGo6ttpleH6fCD5KGNIG64YnntY6zhYAGSuHt9-cIfSRfxBF1TyRA6F5YviAL5_gUbenUnDErh7JyZ_JU7jUn_CipwF0nymGhsFa73MfJApwmvavaiXorO7jZb6rARkVPkCMMuEfl9cHQw4eygnYfl66nJrS5weckCtWd2Bp992-LdZAmz4r32wjcHJvBMgAFsJsz2S39sMs2R4VYiPuZTGNybiSbM1QYw5okQ-pc6lU5evhyhKwKTV3JdNHeJ7oZdhpH7KCkaJWStXakb0swezsUJaqv_v-d0V6Er3fYI4xHVd_fEJ4-JcVPbUuSykxdIv9STDjYcgX3V3ziyyv76LyuXIJUqhZV11lZ7FuIU4GYfZJ67_0Epr_CGNzhI5BqG6QaBy0]--></g></svg>