<?xml version="1.0" encoding="us-ascii" standalone="no"?><svg xmlns="http://www.w3.org/2000/svg" xmlns:xlink="http://www.w3.org/1999/xlink" contentStyleType="text/css" height="636px" preserveAspectRatio="none" style="width:670px;height:636px;background:#FFFFFF;" version="1.1" viewBox="0 0 670 636" width="670px" zoomAndPan="magnify"><defs/><g><text fill="#000000" font-family="sans-serif" font-size="14" font-weight="bold" lengthAdjust="spacing" textLength="222" x="223" y="30.1074">US 7.2.6. Process View (Level 2)</text><rect fill="#FFFFFF" height="402.0742" style="stroke:#181818;stroke-width:1.0;" width="10" x="24" y="133.2422"/><rect fill="#FFFFFF" height="173.7461" style="stroke:#181818;stroke-width:1.0;" width="10" x="358" y="156.5332"/><rect fill="#FFFFFF" height="31.291" style="stroke:#181818;stroke-width:1.0;" width="10" x="358" y="361.5703"/><rect fill="#FFFFFF" height="93.873" style="stroke:#181818;stroke-width:1.0;" width="10" x="358" y="441.4434"/><rect fill="#FFFFFF" height="31.291" style="stroke:#181818;stroke-width:1.0;" width="10" x="585" y="187.8242"/><rect fill="#FFFFFF" height="31.291" style="stroke:#181818;stroke-width:1.0;" width="10" x="585" y="250.4063"/><rect fill="#FFFFFF" height="31.291" style="stroke:#181818;stroke-width:1.0;" width="10" x="585" y="472.7344"/><line style="stroke:#181818;stroke-width:0.5;stroke-dasharray:5.0,5.0;" x1="29" x2="29" y1="123.2422" y2="553.3164"/><line style="stroke:#181818;stroke-width:0.5;stroke-dasharray:5.0,5.0;" x1="363" x2="363" y1="123.2422" y2="553.3164"/><line style="stroke:#181818;stroke-width:0.5;stroke-dasharray:5.0,5.0;" x1="590" x2="590" y1="123.2422" y2="553.3164"/><text fill="#000000" font-family="sans-serif" font-size="14" lengthAdjust="spacing" textLength="42" x="5" y="119.7285">Doctor</text><ellipse cx="29" cy="53.1211" fill="#E2E2F0" rx="8" ry="8" style="stroke:#181818;stroke-width:0.5;"/><path d="M29,61.1211 L29,88.1211 M16,69.1211 L42,69.1211 M29,88.1211 L16,103.1211 M29,88.1211 L42,103.1211 " fill="none" style="stroke:#181818;stroke-width:0.5;"/><text fill="#000000" font-family="sans-serif" font-size="14" lengthAdjust="spacing" textLength="42" x="5" y="567.4238">Doctor</text><ellipse cx="29" cy="579.4375" fill="#E2E2F0" rx="8" ry="8" style="stroke:#181818;stroke-width:0.5;"/><path d="M29,587.4375 L29,614.4375 M16,595.4375 L42,595.4375 M29,614.4375 L16,629.4375 M29,614.4375 L42,629.4375 " fill="none" style="stroke:#181818;stroke-width:0.5;"/><rect fill="#E2E2F0" height="51.2422" rx="2.5" ry="2.5" style="stroke:#181818;stroke-width:0.5;" width="122" x="302" y="71"/><text fill="#000000" font-family="sans-serif" font-size="14" lengthAdjust="spacing" textLength="86" x="320" y="93.1074">&#171;component&#187;</text><text fill="#000000" font-family="sans-serif" font-size="14" lengthAdjust="spacing" textLength="104" x="313" y="111.7285">Visualization (UI)</text><rect fill="#E2E2F0" height="51.2422" rx="2.5" ry="2.5" style="stroke:#181818;stroke-width:0.5;" width="122" x="302" y="552.3164"/><text fill="#000000" font-family="sans-serif" font-size="14" lengthAdjust="spacing" textLength="86" x="320" y="574.4238">&#171;component&#187;</text><text fill="#000000" font-family="sans-serif" font-size="14" lengthAdjust="spacing" textLength="104" x="313" y="593.0449">Visualization (UI)</text><rect fill="#E2E2F0" height="51.2422" rx="2.5" ry="2.5" style="stroke:#181818;stroke-width:0.5;" width="148" x="516" y="71"/><text fill="#000000" font-family="sans-serif" font-size="14" lengthAdjust="spacing" textLength="86" x="547" y="93.1074">&#171;component&#187;</text><text fill="#000000" font-family="sans-serif" font-size="14" lengthAdjust="spacing" textLength="130" x="527" y="111.7285">Patient Management</text><rect fill="#E2E2F0" height="51.2422" rx="2.5" ry="2.5" style="stroke:#181818;stroke-width:0.5;" width="148" x="516" y="552.3164"/><text fill="#000000" font-family="sans-serif" font-size="14" lengthAdjust="spacing" textLength="86" x="547" y="574.4238">&#171;component&#187;</text><text fill="#000000" font-family="sans-serif" font-size="14" lengthAdjust="spacing" textLength="130" x="527" y="593.0449">Patient Management</text><rect fill="#FFFFFF" height="402.0742" style="stroke:#181818;stroke-width:1.0;" width="10" x="24" y="133.2422"/><rect fill="#FFFFFF" height="173.7461" style="stroke:#181818;stroke-width:1.0;" width="10" x="358" y="156.5332"/><rect fill="#FFFFFF" height="31.291" style="stroke:#181818;stroke-width:1.0;" width="10" x="358" y="361.5703"/><rect fill="#FFFFFF" height="93.873" style="stroke:#181818;stroke-width:1.0;" width="10" x="358" y="441.4434"/><rect fill="#FFFFFF" height="31.291" style="stroke:#181818;stroke-width:1.0;" width="10" x="585" y="187.8242"/><rect fill="#FFFFFF" height="31.291" style="stroke:#181818;stroke-width:1.0;" width="10" x="585" y="250.4063"/><rect fill="#FFFFFF" height="31.291" style="stroke:#181818;stroke-width:1.0;" width="10" x="585" y="472.7344"/><polygon fill="#181818" points="346,152.5332,356,156.5332,346,160.5332,350,156.5332" style="stroke:#181818;stroke-width:1.0;"/><line style="stroke:#181818;stroke-width:1.0;" x1="34" x2="352" y1="156.5332" y2="156.5332"/><text fill="#000000" font-family="sans-serif" font-size="13" font-weight="bold" lengthAdjust="spacing" textLength="7" x="41" y="151.2705">1</text><text fill="#000000" font-family="sans-serif" font-size="13" lengthAdjust="spacing" textLength="200" x="52" y="151.2705">asks to edit patient medical record</text><polygon fill="#181818" points="573,183.8242,583,187.8242,573,191.8242,577,187.8242" style="stroke:#181818;stroke-width:1.0;"/><line style="stroke:#181818;stroke-width:1.0;" x1="368" x2="579" y1="187.8242" y2="187.8242"/><text fill="#000000" font-family="sans-serif" font-size="13" font-weight="bold" lengthAdjust="spacing" textLength="7" x="375" y="182.5615">2</text><text fill="#000000" font-family="sans-serif" font-size="13" lengthAdjust="spacing" textLength="110" x="386" y="182.5615">getPatientProfiles()</text><polygon fill="#181818" points="379,215.1152,369,219.1152,379,223.1152,375,219.1152" style="stroke:#181818;stroke-width:1.0;"/><line style="stroke:#181818;stroke-width:1.0;stroke-dasharray:2.0,2.0;" x1="373" x2="589" y1="219.1152" y2="219.1152"/><text fill="#000000" font-family="sans-serif" font-size="13" font-weight="bold" lengthAdjust="spacing" textLength="7" x="385" y="213.8525">3</text><text fill="#000000" font-family="sans-serif" font-size="13" lengthAdjust="spacing" textLength="105" x="396" y="213.8525">PatientProfilesList</text><polygon fill="#181818" points="573,246.4063,583,250.4063,573,254.4063,577,250.4063" style="stroke:#181818;stroke-width:1.0;"/><line style="stroke:#181818;stroke-width:1.0;" x1="368" x2="579" y1="250.4063" y2="250.4063"/><text fill="#000000" font-family="sans-serif" font-size="13" font-weight="bold" lengthAdjust="spacing" textLength="7" x="375" y="245.1436">4</text><text fill="#000000" font-family="sans-serif" font-size="13" lengthAdjust="spacing" textLength="119" x="386" y="245.1436">getMedicalRecords()</text><polygon fill="#181818" points="379,277.6973,369,281.6973,379,285.6973,375,281.6973" style="stroke:#181818;stroke-width:1.0;"/><line style="stroke:#181818;stroke-width:1.0;stroke-dasharray:2.0,2.0;" x1="373" x2="589" y1="281.6973" y2="281.6973"/><text fill="#000000" font-family="sans-serif" font-size="13" font-weight="bold" lengthAdjust="spacing" textLength="7" x="385" y="276.4346">5</text><text fill="#000000" font-family="sans-serif" font-size="13" lengthAdjust="spacing" textLength="114" x="396" y="276.4346">medicalRecordsList</text><polygon fill="#181818" points="45,326.2793,35,330.2793,45,334.2793,41,330.2793" style="stroke:#181818;stroke-width:1.0;"/><line style="stroke:#181818;stroke-width:1.0;stroke-dasharray:2.0,2.0;" x1="39" x2="362" y1="330.2793" y2="330.2793"/><text fill="#000000" font-family="sans-serif" font-size="13" font-weight="bold" lengthAdjust="spacing" textLength="7" x="51" y="316.3711">6</text><text fill="#000000" font-family="sans-serif" font-size="13" lengthAdjust="spacing" textLength="160" x="62" y="307.7256">shows list of patient profiles</text><text fill="#000000" font-family="sans-serif" font-size="13" lengthAdjust="spacing" textLength="146" x="66" y="325.0166">and their medical records</text><polygon fill="#181818" points="346,357.5703,356,361.5703,346,365.5703,350,361.5703" style="stroke:#181818;stroke-width:1.0;"/><line style="stroke:#181818;stroke-width:1.0;" x1="34" x2="352" y1="361.5703" y2="361.5703"/><text fill="#000000" font-family="sans-serif" font-size="13" font-weight="bold" lengthAdjust="spacing" textLength="7" x="41" y="356.3076">7</text><text fill="#000000" font-family="sans-serif" font-size="13" lengthAdjust="spacing" textLength="134" x="52" y="356.3076">selects a patient profile</text><polygon fill="#181818" points="45,388.8613,35,392.8613,45,396.8613,41,392.8613" style="stroke:#181818;stroke-width:1.0;"/><line style="stroke:#181818;stroke-width:1.0;stroke-dasharray:2.0,2.0;" x1="39" x2="362" y1="392.8613" y2="392.8613"/><text fill="#000000" font-family="sans-serif" font-size="13" font-weight="bold" lengthAdjust="spacing" textLength="7" x="51" y="387.5986">8</text><text fill="#000000" font-family="sans-serif" font-size="13" lengthAdjust="spacing" textLength="191" x="62" y="387.5986">shows the patient medical record</text><polygon fill="#181818" points="346,437.4434,356,441.4434,346,445.4434,350,441.4434" style="stroke:#181818;stroke-width:1.0;"/><line style="stroke:#181818;stroke-width:1.0;" x1="34" x2="352" y1="441.4434" y2="441.4434"/><text fill="#000000" font-family="sans-serif" font-size="13" font-weight="bold" lengthAdjust="spacing" textLength="7" x="41" y="427.5352">9</text><text fill="#000000" font-family="sans-serif" font-size="13" lengthAdjust="spacing" textLength="160" x="52" y="418.8896">edits patient medical record</text><text fill="#000000" font-family="sans-serif" font-size="13" lengthAdjust="spacing" textLength="193" x="56" y="436.1807">(medical conditions and allergies)</text><polygon fill="#181818" points="573,468.7344,583,472.7344,573,476.7344,577,472.7344" style="stroke:#181818;stroke-width:1.0;"/><line style="stroke:#181818;stroke-width:1.0;" x1="368" x2="579" y1="472.7344" y2="472.7344"/><text fill="#000000" font-family="sans-serif" font-size="13" font-weight="bold" lengthAdjust="spacing" textLength="14" x="375" y="467.4717">10</text><text fill="#000000" font-family="sans-serif" font-size="13" lengthAdjust="spacing" textLength="180" x="393" y="467.4717">editPatientMedicalRecord(json)</text><polygon fill="#181818" points="379,500.0254,369,504.0254,379,508.0254,375,504.0254" style="stroke:#181818;stroke-width:1.0;"/><line style="stroke:#181818;stroke-width:1.0;stroke-dasharray:2.0,2.0;" x1="373" x2="589" y1="504.0254" y2="504.0254"/><text fill="#000000" font-family="sans-serif" font-size="13" font-weight="bold" lengthAdjust="spacing" textLength="14" x="385" y="498.7627">11</text><text fill="#000000" font-family="sans-serif" font-size="13" lengthAdjust="spacing" textLength="41" x="403" y="498.7627">answer</text><polygon fill="#181818" points="40,531.3164,30,535.3164,40,539.3164,36,535.3164" style="stroke:#181818;stroke-width:1.0;"/><line style="stroke:#181818;stroke-width:1.0;stroke-dasharray:2.0,2.0;" x1="34" x2="362" y1="535.3164" y2="535.3164"/><text fill="#000000" font-family="sans-serif" font-size="13" font-weight="bold" lengthAdjust="spacing" textLength="14" x="46" y="530.0537">12</text><text fill="#000000" font-family="sans-serif" font-size="13" lengthAdjust="spacing" textLength="282" x="64" y="530.0537">confirms the update of the patient medical record</text><!--SRC=[ZLCzJyCm4DtzAqvTI8Uq4WD8gAh4nu80WK1bOZcSQsjmxE2xK8bVpoLjeOtQmX35Zjx7-JtdQ2vIyTbmM7aCKfT-O6CvPFgeALZA2uUpXAKnuiGJz2PFS3eu7fmCu255Iypmx6W1sIrzaeVZViyOh2M6kdobPD1AJ70LsnSoNDrVcWgJEEigTOFUQAHkLGmKP3n-2Ih6DNhtXU9YW6notUyrlCdrOTg3udKDTnXmHgKkMzh5-UMDQOPmdoZKkkkJZrKFpXJmpY0Hg702rKgXr9r53ubiJCKlLoSmob9k8whi6SdALOEOEa-SzN_XI-SMcg_zEl1Rns8Awb2w7dVBUHxRSVwqABVGknqq0HZb-PB0yxXWy0g4EFq9eLgDgCbYA43cv58d6TuKRiBPJ9R9anK6x2fkvxbZ4hNQLyKEFrWRDXNo7g8U8bj_iJ4eKgyMjmT3xodD777_GD6DzggwhJAoDuxXZpumy49_WyCTw51JbyhbuUkgQ61Qnh-ZsDWrD_mR]--></g></svg>