<?xml version="1.0" encoding="us-ascii" standalone="no"?><svg xmlns="http://www.w3.org/2000/svg" xmlns:xlink="http://www.w3.org/1999/xlink" contentStyleType="text/css" height="525px" preserveAspectRatio="none" style="width:330px;height:525px;background:#FFFFFF;" version="1.1" viewBox="0 0 330 525" width="330px" zoomAndPan="magnify"><defs/><g><rect fill="#FFFFFF" height="341.9219" style="stroke:#181818;stroke-width:1.0;" width="10" x="22.5" y="92.6094"/><rect fill="#FFFFFF" height="303.2188" style="stroke:#181818;stroke-width:1.0;" width="10" x="289.5" y="131.3125"/><line style="stroke:#181818;stroke-width:0.5;stroke-dasharray:5.0,5.0;" x1="27" x2="27" y1="82.6094" y2="443.5313"/><line style="stroke:#181818;stroke-width:0.5;stroke-dasharray:5.0,5.0;" x1="294.5" x2="294.5" y1="82.6094" y2="443.5313"/><text fill="#000000" font-family="sans-serif" font-size="14" lengthAdjust="spacing" textLength="39" x="5" y="79.5332">Admin</text><ellipse cx="27.5" cy="13.5" fill="#E2E2F0" rx="8" ry="8" style="stroke:#181818;stroke-width:0.5;"/><path d="M27.5,21.5 L27.5,48.5 M14.5,29.5 L40.5,29.5 M27.5,48.5 L14.5,63.5 M27.5,48.5 L40.5,63.5 " fill="none" style="stroke:#181818;stroke-width:0.5;"/><text fill="#000000" font-family="sans-serif" font-size="14" lengthAdjust="spacing" textLength="39" x="5" y="457.0645">Admin</text><ellipse cx="27.5" cy="468.6406" fill="#E2E2F0" rx="8" ry="8" style="stroke:#181818;stroke-width:0.5;"/><path d="M27.5,476.6406 L27.5,503.6406 M14.5,484.6406 L40.5,484.6406 M27.5,503.6406 L14.5,518.6406 M27.5,503.6406 L40.5,518.6406 " fill="none" style="stroke:#181818;stroke-width:0.5;"/><rect fill="#E2E2F0" height="31.6094" rx="2.5" ry="2.5" style="stroke:#181818;stroke-width:0.5;" width="60" x="264.5" y="50"/><text fill="#000000" font-family="sans-serif" font-size="14" lengthAdjust="spacing" textLength="46" x="271.5" y="71.5332">System</text><rect fill="#E2E2F0" height="31.6094" rx="2.5" ry="2.5" style="stroke:#181818;stroke-width:0.5;" width="60" x="264.5" y="442.5313"/><text fill="#000000" font-family="sans-serif" font-size="14" lengthAdjust="spacing" textLength="46" x="271.5" y="464.0645">System</text><rect fill="#FFFFFF" height="341.9219" style="stroke:#181818;stroke-width:1.0;" width="10" x="22.5" y="92.6094"/><rect fill="#FFFFFF" height="303.2188" style="stroke:#181818;stroke-width:1.0;" width="10" x="289.5" y="131.3125"/><polygon fill="#181818" points="277.5,127.3125,287.5,131.3125,277.5,135.3125,281.5,131.3125" style="stroke:#181818;stroke-width:1.0;"/><line style="stroke:#181818;stroke-width:1.0;" x1="32.5" x2="283.5" y1="131.3125" y2="131.3125"/><text fill="#000000" font-family="sans-serif" font-size="13" font-weight="bold" lengthAdjust="spacing" textLength="7" x="39.5" y="118.2803">1</text><text fill="#000000" font-family="sans-serif" font-size="13" lengthAdjust="spacing" textLength="145" x="50.5" y="110.1045">Asks to edit an operation</text><text fill="#000000" font-family="sans-serif" font-size="13" lengthAdjust="spacing" textLength="154" x="54.5" y="126.4561">type's editable information.</text><polygon fill="#181818" points="43.5,174.0156,33.5,178.0156,43.5,182.0156,39.5,178.0156" style="stroke:#181818;stroke-width:1.0;"/><line style="stroke:#181818;stroke-width:1.0;stroke-dasharray:2.0,2.0;" x1="37.5" x2="288.5" y1="178.0156" y2="178.0156"/><text fill="#000000" font-family="sans-serif" font-size="13" font-weight="bold" lengthAdjust="spacing" textLength="7" x="49.5" y="164.9834">2</text><text fill="#000000" font-family="sans-serif" font-size="13" lengthAdjust="spacing" textLength="156" x="60.5" y="156.8076">Shows a list of all currently</text><text fill="#000000" font-family="sans-serif" font-size="13" lengthAdjust="spacing" textLength="146" x="64.5" y="173.1592">available operation types.</text><polygon fill="#181818" points="277.5,220.7188,287.5,224.7188,277.5,228.7188,281.5,224.7188" style="stroke:#181818;stroke-width:1.0;"/><line style="stroke:#181818;stroke-width:1.0;" x1="32.5" x2="283.5" y1="224.7188" y2="224.7188"/><text fill="#000000" font-family="sans-serif" font-size="13" font-weight="bold" lengthAdjust="spacing" textLength="7" x="39.5" y="211.6865">3</text><text fill="#000000" font-family="sans-serif" font-size="13" lengthAdjust="spacing" textLength="126" x="50.5" y="203.5107">Chooses an operation</text><text fill="#000000" font-family="sans-serif" font-size="13" lengthAdjust="spacing" textLength="69" x="50.5" y="219.8623">type to edit.</text><polygon fill="#181818" points="43.5,267.4219,33.5,271.4219,43.5,275.4219,39.5,271.4219" style="stroke:#181818;stroke-width:1.0;"/><line style="stroke:#181818;stroke-width:1.0;stroke-dasharray:2.0,2.0;" x1="37.5" x2="288.5" y1="271.4219" y2="271.4219"/><text fill="#000000" font-family="sans-serif" font-size="13" font-weight="bold" lengthAdjust="spacing" textLength="7" x="49.5" y="258.3896">4</text><text fill="#000000" font-family="sans-serif" font-size="13" lengthAdjust="spacing" textLength="123" x="60.5" y="250.2139">Asks what parameter</text><text fill="#000000" font-family="sans-serif" font-size="13" lengthAdjust="spacing" textLength="110" x="60.5" y="266.5654">it wants to change.</text><polygon fill="#181818" points="277.5,314.125,287.5,318.125,277.5,322.125,281.5,318.125" style="stroke:#181818;stroke-width:1.0;"/><line style="stroke:#181818;stroke-width:1.0;" x1="32.5" x2="283.5" y1="318.125" y2="318.125"/><text fill="#000000" font-family="sans-serif" font-size="13" font-weight="bold" lengthAdjust="spacing" textLength="7" x="39.5" y="305.0928">5</text><text fill="#000000" font-family="sans-serif" font-size="13" lengthAdjust="spacing" textLength="218" x="50.5" y="296.917">Chooses a parameter (name, required</text><text fill="#000000" font-family="sans-serif" font-size="13" lengthAdjust="spacing" textLength="97" x="50.5" y="313.2686">staff or duration).</text><polygon fill="#181818" points="43.5,360.8281,33.5,364.8281,43.5,368.8281,39.5,364.8281" style="stroke:#181818;stroke-width:1.0;"/><line style="stroke:#181818;stroke-width:1.0;stroke-dasharray:2.0,2.0;" x1="37.5" x2="288.5" y1="364.8281" y2="364.8281"/><text fill="#000000" font-family="sans-serif" font-size="13" font-weight="bold" lengthAdjust="spacing" textLength="7" x="49.5" y="351.7959">6</text><text fill="#000000" font-family="sans-serif" font-size="13" lengthAdjust="spacing" textLength="70" x="60.5" y="343.6201">Asks for the</text><text fill="#000000" font-family="sans-serif" font-size="13" lengthAdjust="spacing" textLength="112" x="60.5" y="359.9717">updated parameter.</text><polygon fill="#181818" points="277.5,391.1797,287.5,395.1797,277.5,399.1797,281.5,395.1797" style="stroke:#181818;stroke-width:1.0;"/><line style="stroke:#181818;stroke-width:1.0;" x1="32.5" x2="283.5" y1="395.1797" y2="395.1797"/><text fill="#000000" font-family="sans-serif" font-size="13" font-weight="bold" lengthAdjust="spacing" textLength="7" x="39.5" y="390.3232">7</text><text fill="#000000" font-family="sans-serif" font-size="13" lengthAdjust="spacing" textLength="169" x="50.5" y="390.3232">Inputs the updated parameter</text><polygon fill="#181818" points="43.5,421.5313,33.5,425.5313,43.5,429.5313,39.5,425.5313" style="stroke:#181818;stroke-width:1.0;"/><line style="stroke:#181818;stroke-width:1.0;stroke-dasharray:2.0,2.0;" x1="37.5" x2="288.5" y1="425.5313" y2="425.5313"/><text fill="#000000" font-family="sans-serif" font-size="13" font-weight="bold" lengthAdjust="spacing" textLength="7" x="49.5" y="420.6748">8</text><text fill="#000000" font-family="sans-serif" font-size="13" lengthAdjust="spacing" textLength="151" x="60.5" y="420.6748">Sends success message.</text><!--SRC=[VP4zJmCn38Rt-nLMbu94hti7f0gM3h3SXDJ5lVXw4VaYTbhrt-DB-IWgi2IHR3_lwpVpKIJnQhbC3eCKxze- -YNJMw7Gqy9Ot6VqJOD5OYX-Hxd1NcA6sTfu6sQ03El7fyrpap2BxMrI3Cow4mlvMkrUkcQQiGSK-kXjwWMB-waAArZpAuD486C5C41Cb55i3Di0Saeqvrh2dIEmOOZPrsfx0Quo4ssXr3D-1TqOZmm8ph90702TWxxaJ47SITbuGEigzKknwd5xPV5XZ969VxY3RPYwFvstSEsWRdOSKK3pGKz2MQTqowFcL7VkHmnx-aVmOl8cwECEidwFpMIKn8B30FeVffmztVxfGcC36Kc7IZ8QcVa6NwjlGYgJF-s_wlubPmg6WKlV4pDuFR2kz0u0]--></g></svg>