<?xml version="1.0" encoding="us-ascii" standalone="no"?><svg xmlns="http://www.w3.org/2000/svg" xmlns:xlink="http://www.w3.org/1999/xlink" contentStyleType="text/css" height="414px" preserveAspectRatio="none" style="width:469px;height:414px;background:#FFFFFF;" version="1.1" viewBox="0 0 469 414" width="469px" zoomAndPan="magnify"><defs/><g><rect fill="#FFFFFF" height="231.1641" style="stroke:#181818;stroke-width:1.0;" width="10" x="22.5" y="92.6094"/><rect fill="#FFFFFF" height="192.4609" style="stroke:#181818;stroke-width:1.0;" width="10" x="223.5" y="131.3125"/><line style="stroke:#181818;stroke-width:0.5;stroke-dasharray:5.0,5.0;" x1="27" x2="27" y1="82.6094" y2="332.7734"/><line style="stroke:#181818;stroke-width:0.5;stroke-dasharray:5.0,5.0;" x1="228.5" x2="228.5" y1="82.6094" y2="332.7734"/><text fill="#000000" font-family="sans-serif" font-size="14" lengthAdjust="spacing" textLength="39" x="5" y="79.5332">Admin</text><ellipse cx="27.5" cy="13.5" fill="#E2E2F0" rx="8" ry="8" style="stroke:#181818;stroke-width:0.5;"/><path d="M27.5,21.5 L27.5,48.5 M14.5,29.5 L40.5,29.5 M27.5,48.5 L14.5,63.5 M27.5,48.5 L40.5,63.5 " fill="none" style="stroke:#181818;stroke-width:0.5;"/><text fill="#000000" font-family="sans-serif" font-size="14" lengthAdjust="spacing" textLength="39" x="5" y="346.3066">Admin</text><ellipse cx="27.5" cy="357.8828" fill="#E2E2F0" rx="8" ry="8" style="stroke:#181818;stroke-width:0.5;"/><path d="M27.5,365.8828 L27.5,392.8828 M14.5,373.8828 L40.5,373.8828 M27.5,392.8828 L14.5,407.8828 M27.5,392.8828 L40.5,407.8828 " fill="none" style="stroke:#181818;stroke-width:0.5;"/><rect fill="#E2E2F0" height="31.6094" rx="2.5" ry="2.5" style="stroke:#181818;stroke-width:0.5;" width="60" x="198.5" y="50"/><text fill="#000000" font-family="sans-serif" font-size="14" lengthAdjust="spacing" textLength="46" x="205.5" y="71.5332">System</text><rect fill="#E2E2F0" height="31.6094" rx="2.5" ry="2.5" style="stroke:#181818;stroke-width:0.5;" width="60" x="198.5" y="331.7734"/><text fill="#000000" font-family="sans-serif" font-size="14" lengthAdjust="spacing" textLength="46" x="205.5" y="353.3066">System</text><rect fill="#FFFFFF" height="231.1641" style="stroke:#181818;stroke-width:1.0;" width="10" x="22.5" y="92.6094"/><rect fill="#FFFFFF" height="192.4609" style="stroke:#181818;stroke-width:1.0;" width="10" x="223.5" y="131.3125"/><polygon fill="#181818" points="211.5,127.3125,221.5,131.3125,211.5,135.3125,215.5,131.3125" style="stroke:#181818;stroke-width:1.0;"/><line style="stroke:#181818;stroke-width:1.0;stroke-dasharray:2.0,2.0;" x1="32.5" x2="217.5" y1="131.3125" y2="131.3125"/><text fill="#000000" font-family="sans-serif" font-size="13" font-weight="bold" lengthAdjust="spacing" textLength="7" x="39.5" y="118.2803">1</text><text fill="#000000" font-family="sans-serif" font-size="13" lengthAdjust="spacing" textLength="145" x="50.5" y="110.1045">Asks to edit an operation</text><text fill="#000000" font-family="sans-serif" font-size="13" lengthAdjust="spacing" textLength="154" x="54.5" y="126.4561">type's editable information.</text><polygon fill="#181818" points="43.5,174.0156,33.5,178.0156,43.5,182.0156,39.5,178.0156" style="stroke:#181818;stroke-width:1.0;"/><line style="stroke:#181818;stroke-width:1.0;stroke-dasharray:2.0,2.0;" x1="37.5" x2="222.5" y1="178.0156" y2="178.0156"/><text fill="#000000" font-family="sans-serif" font-size="13" font-weight="bold" lengthAdjust="spacing" textLength="7" x="49.5" y="164.9834">2</text><text fill="#000000" font-family="sans-serif" font-size="13" lengthAdjust="spacing" textLength="156" x="60.5" y="156.8076">Shows a list of all currently</text><text fill="#000000" font-family="sans-serif" font-size="13" lengthAdjust="spacing" textLength="146" x="64.5" y="173.1592">available operation types.</text><polygon fill="#181818" points="211.5,220.7188,221.5,224.7188,211.5,228.7188,215.5,224.7188" style="stroke:#181818;stroke-width:1.0;"/><line style="stroke:#181818;stroke-width:1.0;stroke-dasharray:2.0,2.0;" x1="32.5" x2="217.5" y1="224.7188" y2="224.7188"/><text fill="#000000" font-family="sans-serif" font-size="13" font-weight="bold" lengthAdjust="spacing" textLength="7" x="39.5" y="211.6865">3</text><text fill="#000000" font-family="sans-serif" font-size="13" lengthAdjust="spacing" textLength="126" x="50.5" y="203.5107">Chooses an operation</text><text fill="#000000" font-family="sans-serif" font-size="13" lengthAdjust="spacing" textLength="69" x="50.5" y="219.8623">type to edit.</text><line style="stroke:#181818;stroke-width:1.0;stroke-dasharray:2.0,2.0;" x1="233.5" x2="275.5" y1="271.4219" y2="271.4219"/><line style="stroke:#181818;stroke-width:1.0;stroke-dasharray:2.0,2.0;" x1="275.5" x2="275.5" y1="271.4219" y2="284.4219"/><line style="stroke:#181818;stroke-width:1.0;stroke-dasharray:2.0,2.0;" x1="234.5" x2="275.5" y1="284.4219" y2="284.4219"/><polygon fill="#181818" points="244.5,280.4219,234.5,284.4219,244.5,288.4219,240.5,284.4219" style="stroke:#181818;stroke-width:1.0;"/><text fill="#000000" font-family="sans-serif" font-size="13" font-weight="bold" lengthAdjust="spacing" textLength="7" x="240.5" y="258.3896">4</text><text fill="#000000" font-family="sans-serif" font-size="13" lengthAdjust="spacing" textLength="165" x="251.5" y="250.2139">Updates the operation type's</text><text fill="#000000" font-family="sans-serif" font-size="13" lengthAdjust="spacing" textLength="211" x="251.5" y="266.5654">requirements/info for future requests.</text><polygon fill="#181818" points="43.5,310.7734,33.5,314.7734,43.5,318.7734,39.5,314.7734" style="stroke:#181818;stroke-width:1.0;"/><line style="stroke:#181818;stroke-width:1.0;stroke-dasharray:2.0,2.0;" x1="37.5" x2="222.5" y1="314.7734" y2="314.7734"/><text fill="#000000" font-family="sans-serif" font-size="13" font-weight="bold" lengthAdjust="spacing" textLength="7" x="49.5" y="309.917">5</text><text fill="#000000" font-family="sans-serif" font-size="13" lengthAdjust="spacing" textLength="151" x="60.5" y="309.917">Sends success message.</text><!--SRC=[PP0xRyCm38Ht_uf3baonzmm5WdRfq2v6Xm9P69c9XUfLaKgHVr_9wRkBD1nvzntNisgIxJ0aHq6BTxs9VX1-BHmCRoPBfqo-wwXe3CKVE7TaD6QiTfEtOGKIxEuUxX-xH5cjiQdQO3LUHDalwlWyTct7dadvOxPRFcmsDqt65Zjv4MW4JrP10J5n9hKnx0FqadWjYqG7nx3X6BDVrFw7yvBJt9hhrN-BSOvl0eApeeX7a7Cm9MSEwYxLcyvatUBwbRZaIV-VyNQEKLX-uM4VslWdUezlXElIKvegNEqs_usebVOXrqFRpBxooD2AeNR3iMZ9Z2QoQ6Fvrul3991Y38l0ruTENEVU0G00]--></g></svg>