<?xml version="1.0" encoding="us-ascii" standalone="no"?><svg xmlns="http://www.w3.org/2000/svg" xmlns:xlink="http://www.w3.org/1999/xlink" contentStyleType="text/css" height="621px" preserveAspectRatio="none" style="width:373px;height:621px;background:#FFFFFF;" version="1.1" viewBox="0 0 373 621" width="373px" zoomAndPan="magnify"><defs/><g><text fill="#000000" font-family="sans-serif" font-size="14" font-weight="bold" lengthAdjust="spacing" textLength="230" x="72.75" y="30.1074">US 5.1.23. Process View (Level 1)</text><rect fill="#FFFFFF" height="57.582" style="stroke:#181818;stroke-width:1.0;" width="10" x="37.5" y="187.8242"/><rect fill="#FFFFFF" height="38.291" style="stroke:#181818;stroke-width:1.0;" width="10" x="37.5" y="276.6973"/><rect fill="#FFFFFF" height="135.5039" style="stroke:#181818;stroke-width:1.0;" width="10" x="37.5" y="346.2793"/><rect fill="#FFFFFF" height="31.291" style="stroke:#181818;stroke-width:1.0;" width="10" x="283.5" y="156.5332"/><rect fill="#FFFFFF" height="31.291" style="stroke:#181818;stroke-width:1.0;" width="10" x="283.5" y="245.4063"/><rect fill="#FFFFFF" height="31.291" style="stroke:#181818;stroke-width:1.0;" width="10" x="283.5" y="314.9883"/><rect fill="#FFFFFF" height="30" style="stroke:#181818;stroke-width:1.0;" width="10" x="283.5" y="403.8613"/><rect fill="#FFFFFF" height="38.291" style="stroke:#181818;stroke-width:1.0;" width="10" x="283.5" y="481.7832"/><rect fill="none" height="81.873" style="stroke:#000000;stroke-width:1.5;" width="356.5" x="10" y="202.8242"/><rect fill="none" height="128.5039" style="stroke:#000000;stroke-width:1.5;" width="356.5" x="10" y="361.2793"/><line style="stroke:#181818;stroke-width:0.5;stroke-dasharray:5.0,5.0;" x1="42" x2="42" y1="123.2422" y2="538.0742"/><line style="stroke:#181818;stroke-width:0.5;stroke-dasharray:5.0,5.0;" x1="288.5" x2="288.5" y1="123.2422" y2="538.0742"/><text fill="#000000" font-family="sans-serif" font-size="14" lengthAdjust="spacing" textLength="39" x="20" y="119.7285">Admin</text><ellipse cx="42.5" cy="53.1211" fill="#E2E2F0" rx="8" ry="8" style="stroke:#181818;stroke-width:0.5;"/><path d="M42.5,61.1211 L42.5,88.1211 M29.5,69.1211 L55.5,69.1211 M42.5,88.1211 L29.5,103.1211 M42.5,88.1211 L55.5,103.1211 " fill="none" style="stroke:#181818;stroke-width:0.5;"/><text fill="#000000" font-family="sans-serif" font-size="14" lengthAdjust="spacing" textLength="39" x="20" y="552.1816">Admin</text><ellipse cx="42.5" cy="564.1953" fill="#E2E2F0" rx="8" ry="8" style="stroke:#181818;stroke-width:0.5;"/><path d="M42.5,572.1953 L42.5,599.1953 M29.5,580.1953 L55.5,580.1953 M42.5,599.1953 L29.5,614.1953 M42.5,599.1953 L55.5,614.1953 " fill="none" style="stroke:#181818;stroke-width:0.5;"/><rect fill="#E2E2F0" height="51.2422" rx="2.5" ry="2.5" style="stroke:#181818;stroke-width:0.5;" width="136" x="220.5" y="71"/><text fill="#000000" font-family="sans-serif" font-size="14" lengthAdjust="spacing" textLength="92" x="242.5" y="93.1074">&#171;system (C4)&#187;</text><text fill="#000000" font-family="sans-serif" font-size="14" lengthAdjust="spacing" textLength="118" x="231.5" y="111.7285">Healthcare System</text><rect fill="#E2E2F0" height="51.2422" rx="2.5" ry="2.5" style="stroke:#181818;stroke-width:0.5;" width="136" x="220.5" y="537.0742"/><text fill="#000000" font-family="sans-serif" font-size="14" lengthAdjust="spacing" textLength="92" x="242.5" y="559.1816">&#171;system (C4)&#187;</text><text fill="#000000" font-family="sans-serif" font-size="14" lengthAdjust="spacing" textLength="118" x="231.5" y="577.8027">Healthcare System</text><rect fill="#FFFFFF" height="57.582" style="stroke:#181818;stroke-width:1.0;" width="10" x="37.5" y="187.8242"/><rect fill="#FFFFFF" height="38.291" style="stroke:#181818;stroke-width:1.0;" width="10" x="37.5" y="276.6973"/><rect fill="#FFFFFF" height="135.5039" style="stroke:#181818;stroke-width:1.0;" width="10" x="37.5" y="346.2793"/><rect fill="#FFFFFF" height="31.291" style="stroke:#181818;stroke-width:1.0;" width="10" x="283.5" y="156.5332"/><rect fill="#FFFFFF" height="31.291" style="stroke:#181818;stroke-width:1.0;" width="10" x="283.5" y="245.4063"/><rect fill="#FFFFFF" height="31.291" style="stroke:#181818;stroke-width:1.0;" width="10" x="283.5" y="314.9883"/><rect fill="#FFFFFF" height="30" style="stroke:#181818;stroke-width:1.0;" width="10" x="283.5" y="403.8613"/><rect fill="#FFFFFF" height="38.291" style="stroke:#181818;stroke-width:1.0;" width="10" x="283.5" y="481.7832"/><polygon fill="#181818" points="271.5,152.5332,281.5,156.5332,271.5,160.5332,275.5,156.5332" style="stroke:#181818;stroke-width:1.0;"/><line style="stroke:#181818;stroke-width:1.0;" x1="42.5" x2="277.5" y1="156.5332" y2="156.5332"/><text fill="#000000" font-family="sans-serif" font-size="13" lengthAdjust="spacing" textLength="222" x="49.5" y="151.2705">requests the list of the operation types</text><polygon fill="#181818" points="58.5,183.8242,48.5,187.8242,58.5,191.8242,54.5,187.8242" style="stroke:#181818;stroke-width:1.0;"/><line style="stroke:#181818;stroke-width:1.0;stroke-dasharray:2.0,2.0;" x1="52.5" x2="287.5" y1="187.8242" y2="187.8242"/><text fill="#000000" font-family="sans-serif" font-size="13" lengthAdjust="spacing" textLength="139" x="64.5" y="182.5615">lists the operation types</text><path d="M10,202.8242 L75,202.8242 L75,212.1152 L65,222.1152 L10,222.1152 L10,202.8242 " fill="#EEEEEE" style="stroke:#000000;stroke-width:1.5;"/><rect fill="none" height="81.873" style="stroke:#000000;stroke-width:1.5;" width="356.5" x="10" y="202.8242"/><text fill="#000000" font-family="sans-serif" font-size="13" font-weight="bold" lengthAdjust="spacing" textLength="20" x="25" y="217.8525">opt</text><text fill="#000000" font-family="sans-serif" font-size="11" font-weight="bold" lengthAdjust="spacing" textLength="137" x="90" y="216.6943">[search filters appliance]</text><polygon fill="#181818" points="271.5,241.4063,281.5,245.4063,271.5,249.4063,275.5,245.4063" style="stroke:#181818;stroke-width:1.0;"/><line style="stroke:#181818;stroke-width:1.0;" x1="42.5" x2="277.5" y1="245.4063" y2="245.4063"/><text fill="#000000" font-family="sans-serif" font-size="13" lengthAdjust="spacing" textLength="119" x="49.5" y="240.1436">applies search filters</text><polygon fill="#181818" points="58.5,272.6973,48.5,276.6973,58.5,280.6973,54.5,276.6973" style="stroke:#181818;stroke-width:1.0;"/><line style="stroke:#181818;stroke-width:1.0;stroke-dasharray:2.0,2.0;" x1="52.5" x2="287.5" y1="276.6973" y2="276.6973"/><text fill="#000000" font-family="sans-serif" font-size="13" lengthAdjust="spacing" textLength="145" x="64.5" y="271.4346">shows the search results</text><polygon fill="#181818" points="271.5,310.9883,281.5,314.9883,271.5,318.9883,275.5,314.9883" style="stroke:#181818;stroke-width:1.0;"/><line style="stroke:#181818;stroke-width:1.0;" x1="42.5" x2="277.5" y1="314.9883" y2="314.9883"/><text fill="#000000" font-family="sans-serif" font-size="13" lengthAdjust="spacing" textLength="146" x="49.5" y="309.7256">selects an operation type</text><polygon fill="#181818" points="58.5,342.2793,48.5,346.2793,58.5,350.2793,54.5,346.2793" style="stroke:#181818;stroke-width:1.0;"/><line style="stroke:#181818;stroke-width:1.0;stroke-dasharray:2.0,2.0;" x1="52.5" x2="287.5" y1="346.2793" y2="346.2793"/><text fill="#000000" font-family="sans-serif" font-size="13" lengthAdjust="spacing" textLength="123" x="64.5" y="341.0166">shows operation type</text><path d="M10,361.2793 L71,361.2793 L71,370.5703 L61,380.5703 L10,380.5703 L10,361.2793 " fill="#EEEEEE" style="stroke:#000000;stroke-width:1.5;"/><rect fill="none" height="128.5039" style="stroke:#000000;stroke-width:1.5;" width="356.5" x="10" y="361.2793"/><text fill="#000000" font-family="sans-serif" font-size="13" font-weight="bold" lengthAdjust="spacing" textLength="16" x="25" y="376.3076">alt</text><text fill="#000000" font-family="sans-serif" font-size="11" font-weight="bold" lengthAdjust="spacing" textLength="112" x="86" y="375.1494">[edit operation type]</text><polygon fill="#181818" points="271.5,399.8613,281.5,403.8613,271.5,407.8613,275.5,403.8613" style="stroke:#181818;stroke-width:1.0;"/><line style="stroke:#181818;stroke-width:1.0;stroke-dasharray:2.0,2.0;" x1="47.5" x2="277.5" y1="403.8613" y2="403.8613"/><text fill="#000000" font-family="sans-serif" font-size="13" lengthAdjust="spacing" textLength="58" x="54.5" y="398.5986">US 5.1.21</text><line style="stroke:#000000;stroke-width:1.0;stroke-dasharray:2.0,2.0;" x1="10" x2="366.5" y1="442.8613" y2="442.8613"/><text fill="#000000" font-family="sans-serif" font-size="11" font-weight="bold" lengthAdjust="spacing" textLength="147" x="15" y="454.7314">[deactivate operation type]</text><polygon fill="#181818" points="271.5,477.7832,281.5,481.7832,271.5,485.7832,275.5,481.7832" style="stroke:#181818;stroke-width:1.0;"/><line style="stroke:#181818;stroke-width:1.0;stroke-dasharray:2.0,2.0;" x1="42.5" x2="277.5" y1="481.7832" y2="481.7832"/><text fill="#000000" font-family="sans-serif" font-size="13" lengthAdjust="spacing" textLength="58" x="49.5" y="476.5205">US 5.1.22</text><polygon fill="#181818" points="53.5,516.0742,43.5,520.0742,53.5,524.0742,49.5,520.0742" style="stroke:#181818;stroke-width:1.0;"/><line style="stroke:#181818;stroke-width:1.0;stroke-dasharray:2.0,2.0;" x1="47.5" x2="287.5" y1="520.0742" y2="520.0742"/><text fill="#000000" font-family="sans-serif" font-size="13" lengthAdjust="spacing" textLength="150" x="59.5" y="514.8115">answer and shows the list</text><!--SRC=[bL9DImCn4BtdLmnxiJrqIwjUIYaKFNXG41O5mKl8Jjr0DXipqvR-UvDTjtHZgvXBFYRlpNilkQgO7IscKsUavMrjSjNKKyBFBLg5arBB3ozh8LYpGSXU2hZDP_dyEeTdtoWaWbUDUnWzuWuDpCQP448gRZoiorfRa0Jh-oVXf6Ujj0iz85ikwK2CDOpkRiQhrRk51vI6AoKzGj6MiWWitWeX0XecgxY61VYeYvY0AmIZYQ7PjEl6ePUi6mjyS4XHWjv9neuZWYU1978jMXoTHPKum1qtqS5fiTr368rZ89HULR3HXj4JIEUCbY6xxaOS0mjj7Ic17UycNVhZeP_-TEYBgcRV-VhczaXRmsUv8yqFxhuXsZ8wIx8dDAX2SD8ckQN9_9Pzf_4o_cVihKB3GLMfEKKE4ZugxJ_fx7ny5-Beh1l2qqBIxu-6y_y_Oymws4jpafRswCDKdZnh_BXfM5y0]--></g></svg>