<svg xmlns="http://www.w3.org/2000/svg" xmlns:xlink="http://www.w3.org/1999/xlink" contentStyleType="text/css" height="708px" preserveAspectRatio="none" style="width:1524px;height:708px;background:#FFFFFF;" version="1.1" viewBox="0 0 1524 708" width="1524px" zoomAndPan="magnify"><defs/><g><!--cluster <<aggregate>> Patient--><g id="cluster_&lt;&lt;aggregate&gt;&gt; Patient"><path d="M141.63,265.47 L304.4913,265.47 A3.75,3.75 0 0 1 306.9913,267.97 L313.9913,287.7669 L1009.63,287.7669 A2.5,2.5 0 0 1 1012.13,290.2669 L1012.13,606.7 A2.5,2.5 0 0 1 1009.63,609.2 L141.63,609.2 A2.5,2.5 0 0 1 139.13,606.7 L139.13,267.97 A2.5,2.5 0 0 1 141.63,265.47 " fill="none" style="stroke:#000000;stroke-width:1.5;"/><line style="stroke:#000000;stroke-width:1.5;" x1="139.13" x2="313.9913" y1="287.7669" y2="287.7669"/><text fill="#000000" font-family="sans-serif" font-size="14" font-weight="bold" lengthAdjust="spacing" textLength="161.8613" x="143.13" y="280.4651">&#171;aggregate&#187; Patient</text></g><!--cluster <<aggregate>> User--><g id="cluster_&lt;&lt;aggregate&gt;&gt; User"><path d="M147.63,6 L289.2384,6 A3.75,3.75 0 0 1 291.7384,8.5 L298.7384,28.2969 L441.63,28.2969 A2.5,2.5 0 0 1 444.13,30.7969 L444.13,238.97 A2.5,2.5 0 0 1 441.63,241.47 L147.63,241.47 A2.5,2.5 0 0 1 145.13,238.97 L145.13,8.5 A2.5,2.5 0 0 1 147.63,6 " fill="none" style="stroke:#000000;stroke-width:1.5;"/><line style="stroke:#000000;stroke-width:1.5;" x1="145.13" x2="298.7384" y1="28.2969" y2="28.2969"/><text fill="#000000" font-family="sans-serif" font-size="14" font-weight="bold" lengthAdjust="spacing" textLength="140.6084" x="149.13" y="20.9951">&#171;aggregate&#187; User</text></g><!--class Patient--><g id="elem_Patient"><rect codeLine="19" fill="#F5F5DC" height="62.2344" id="Patient" rx="2.5" ry="2.5" style="stroke:#181818;stroke-width:0.5;" width="81.376" x="511.44" y="300.47"/><ellipse cx="526.44" cy="327.5872" fill="#ADD1B2" rx="11" ry="11" style="stroke:#181818;stroke-width:1.0;"/><path d="M530.5494,333.5872 L522.8306,333.5872 L522.8306,321.1966 L530.5494,321.1966 L530.5494,323.3528 L525.2838,323.3528 L525.2838,326.0247 L530.0494,326.0247 L530.0494,328.1809 L525.2838,328.1809 L525.2838,331.4309 L530.5494,331.4309 L530.5494,333.5872 Z " fill="#000000"/><text fill="#000000" font-family="sans-serif" font-size="12" font-style="italic" lengthAdjust="spacing" textLength="49.5176" x="540.3692" y="316.6087">&#171;entity&#187;</text><text fill="#000000" font-family="sans-serif" font-size="12" font-style="italic" lengthAdjust="spacing" textLength="39.0059" x="545.6251" y="330.5774">&#171;root&#187;</text><text fill="#000000" font-family="sans-serif" font-size="14" lengthAdjust="spacing" textLength="49.376" x="540.44" y="346.4026">Patient</text><line style="stroke:#181818;stroke-width:0.5;" x1="512.44" x2="591.816" y1="354.7044" y2="354.7044"/></g><!--class DateBirth--><g id="elem_DateBirth"><rect codeLine="20" fill="#F5F5DC" height="48.2656" id="DateBirth" rx="2.5" ry="2.5" style="stroke:#181818;stroke-width:0.5;" width="116.2539" x="155" y="429.69"/><ellipse cx="170" cy="449.8228" fill="#FF8B40" rx="11" ry="11" style="stroke:#181818;stroke-width:1.0;"/><path d="M170.1094,454.2759 L172.2969,443.9322 L174.7656,443.9322 L171.8125,456.3228 L168.4219,456.3228 L165.4688,443.9322 L167.9375,443.9322 L170.1094,454.2759 Z " fill="#000000"/><text fill="#000000" font-family="sans-serif" font-size="12" font-style="italic" lengthAdjust="spacing" textLength="88.2539" x="182" y="445.8287">&#171;value object&#187;</text><text fill="#000000" font-family="sans-serif" font-size="14" lengthAdjust="spacing" textLength="67.0742" x="192.5898" y="461.6539">DateBirth</text><line style="stroke:#181818;stroke-width:0.5;" x1="156" x2="270.2539" y1="469.9556" y2="469.9556"/></g><!--class Gender--><g id="elem_Gender"><rect codeLine="21" fill="#F5F5DC" height="48.2656" id="Gender" rx="2.5" ry="2.5" style="stroke:#181818;stroke-width:0.5;" width="116.2539" x="306" y="429.69"/><ellipse cx="321" cy="449.8228" fill="#FF8B40" rx="11" ry="11" style="stroke:#181818;stroke-width:1.0;"/><path d="M321.1094,454.2759 L323.2969,443.9322 L325.7656,443.9322 L322.8125,456.3228 L319.4219,456.3228 L316.4688,443.9322 L318.9375,443.9322 L321.1094,454.2759 Z " fill="#000000"/><text fill="#000000" font-family="sans-serif" font-size="12" font-style="italic" lengthAdjust="spacing" textLength="88.2539" x="333" y="445.8287">&#171;value object&#187;</text><text fill="#000000" font-family="sans-serif" font-size="14" lengthAdjust="spacing" textLength="51.5908" x="351.3315" y="461.6539">Gender</text><line style="stroke:#181818;stroke-width:0.5;" x1="307" x2="421.2539" y1="469.9556" y2="469.9556"/></g><!--class EmergencyContact--><g id="elem_EmergencyContact"><rect codeLine="22" fill="#F5F5DC" height="48.2656" id="EmergencyContact" rx="2.5" ry="2.5" style="stroke:#181818;stroke-width:0.5;" width="165.6768" x="494.29" y="544.94"/><ellipse cx="509.29" cy="565.0728" fill="#FF8B40" rx="11" ry="11" style="stroke:#181818;stroke-width:1.0;"/><path d="M509.3994,569.5259 L511.5869,559.1822 L514.0556,559.1822 L511.1025,571.5728 L507.7119,571.5728 L504.7588,559.1822 L507.2275,559.1822 L509.3994,569.5259 Z " fill="#000000"/><text fill="#000000" font-family="sans-serif" font-size="12" font-style="italic" lengthAdjust="spacing" textLength="88.2539" x="546.0014" y="561.0787">&#171;value object&#187;</text><text fill="#000000" font-family="sans-serif" font-size="14" lengthAdjust="spacing" textLength="133.6768" x="523.29" y="576.9039">EmergencyContact</text><line style="stroke:#181818;stroke-width:0.5;" x1="495.29" x2="658.9668" y1="585.2056" y2="585.2056"/></g><!--class MRN--><g id="elem_MRN"><rect codeLine="23" fill="#F5F5DC" height="62.2344" id="MRN" rx="2.5" ry="2.5" style="stroke:#181818;stroke-width:0.5;" width="116.2539" x="494" y="422.7"/><ellipse cx="509" cy="449.8172" fill="#FF8B40" rx="11" ry="11" style="stroke:#181818;stroke-width:1.0;"/><path d="M509.1094,454.2703 L511.2969,443.9266 L513.7656,443.9266 L510.8125,456.3172 L507.4219,456.3172 L504.4688,443.9266 L506.9375,443.9266 L509.1094,454.2703 Z " fill="#000000"/><text fill="#000000" font-family="sans-serif" font-size="12" font-style="italic" lengthAdjust="spacing" textLength="88.2539" x="521" y="438.8387">&#171;value object&#187;</text><text fill="#000000" font-family="sans-serif" font-size="12" font-style="italic" lengthAdjust="spacing" textLength="68.5371" x="530.8584" y="452.8074">&#171;identifier&#187;</text><text fill="#000000" font-family="sans-serif" font-size="14" lengthAdjust="spacing" textLength="32.2793" x="548.9873" y="468.6326">MRN</text><line style="stroke:#181818;stroke-width:0.5;" x1="495" x2="609.2539" y1="476.9344" y2="476.9344"/></g><!--class MedicalCondition--><g id="elem_MedicalCondition"><rect codeLine="24" fill="#F5F5DC" height="48.2656" id="MedicalCondition" rx="2.5" ry="2.5" style="stroke:#181818;stroke-width:0.5;" width="152.4424" x="644.91" y="429.69"/><ellipse cx="659.91" cy="449.8228" fill="#FF8B40" rx="11" ry="11" style="stroke:#181818;stroke-width:1.0;"/><path d="M660.0194,454.2759 L662.2069,443.9322 L664.6756,443.9322 L661.7225,456.3228 L658.3319,456.3228 L655.3788,443.9322 L657.8475,443.9322 L660.0194,454.2759 Z " fill="#000000"/><text fill="#000000" font-family="sans-serif" font-size="12" font-style="italic" lengthAdjust="spacing" textLength="88.2539" x="690.0042" y="445.8287">&#171;value object&#187;</text><text fill="#000000" font-family="sans-serif" font-size="14" lengthAdjust="spacing" textLength="120.4424" x="673.91" y="461.6539">MedicalCondition</text><line style="stroke:#181818;stroke-width:0.5;" x1="645.91" x2="796.3524" y1="469.9556" y2="469.9556"/></g><!--class AppoitmentHistory--><g id="elem_AppoitmentHistory"><rect codeLine="25" fill="#F5F5DC" height="48.2656" id="AppoitmentHistory" rx="2.5" ry="2.5" style="stroke:#181818;stroke-width:0.5;" width="163.7148" x="832.27" y="429.69"/><ellipse cx="847.27" cy="449.8228" fill="#FF8B40" rx="11" ry="11" style="stroke:#181818;stroke-width:1.0;"/><path d="M847.3794,454.2759 L849.5669,443.9322 L852.0356,443.9322 L849.0825,456.3228 L845.6919,456.3228 L842.7388,443.9322 L845.2075,443.9322 L847.3794,454.2759 Z " fill="#000000"/><text fill="#000000" font-family="sans-serif" font-size="12" font-style="italic" lengthAdjust="spacing" textLength="88.2539" x="883.0005" y="445.8287">&#171;value object&#187;</text><text fill="#000000" font-family="sans-serif" font-size="14" lengthAdjust="spacing" textLength="131.7148" x="861.27" y="461.6539">AppoitmentHistory</text><line style="stroke:#181818;stroke-width:0.5;" x1="833.27" x2="994.9848" y1="469.9556" y2="469.9556"/></g><!--class User--><g id="elem_User"><rect codeLine="31" fill="#F5F5DC" height="62.2344" id="User" rx="2.5" ry="2.5" style="stroke:#181818;stroke-width:0.5;" width="77.5176" x="350.37" y="41"/><ellipse cx="365.37" cy="68.1172" fill="#ADD1B2" rx="11" ry="11" style="stroke:#181818;stroke-width:1.0;"/><path d="M369.4794,74.1172 L361.7606,74.1172 L361.7606,61.7266 L369.4794,61.7266 L369.4794,63.8828 L364.2138,63.8828 L364.2138,66.5547 L368.9794,66.5547 L368.9794,68.7109 L364.2138,68.7109 L364.2138,71.9609 L369.4794,71.9609 L369.4794,74.1172 Z " fill="#000000"/><text fill="#000000" font-family="sans-serif" font-size="12" font-style="italic" lengthAdjust="spacing" textLength="49.5176" x="377.37" y="57.1387">&#171;entity&#187;</text><text fill="#000000" font-family="sans-serif" font-size="12" font-style="italic" lengthAdjust="spacing" textLength="39.0059" x="382.6259" y="71.1074">&#171;root&#187;</text><text fill="#000000" font-family="sans-serif" font-size="14" lengthAdjust="spacing" textLength="31.9102" x="386.1737" y="86.9326">User</text><line style="stroke:#181818;stroke-width:0.5;" x1="351.37" x2="426.8876" y1="95.2344" y2="95.2344"/></g><!--class Username--><g id="elem_Username"><rect codeLine="32" fill="#F5F5DC" height="62.2344" id="Username" rx="2.5" ry="2.5" style="stroke:#181818;stroke-width:0.5;" width="116.2539" x="161" y="163.24"/><ellipse cx="176" cy="190.3572" fill="#FF8B40" rx="11" ry="11" style="stroke:#181818;stroke-width:1.0;"/><path d="M176.1094,194.8103 L178.2969,184.4666 L180.7656,184.4666 L177.8125,196.8572 L174.4219,196.8572 L171.4688,184.4666 L173.9375,184.4666 L176.1094,194.8103 Z " fill="#000000"/><text fill="#000000" font-family="sans-serif" font-size="12" font-style="italic" lengthAdjust="spacing" textLength="88.2539" x="188" y="179.3787">&#171;value object&#187;</text><text fill="#000000" font-family="sans-serif" font-size="12" font-style="italic" lengthAdjust="spacing" textLength="68.5371" x="197.8584" y="193.3474">&#171;identifier&#187;</text><text fill="#000000" font-family="sans-serif" font-size="14" lengthAdjust="spacing" textLength="71.6133" x="196.3203" y="209.1726">Username</text><line style="stroke:#181818;stroke-width:0.5;" x1="162" x2="276.2539" y1="217.4744" y2="217.4744"/></g><!--class Role--><g id="elem_Role"><rect codeLine="33" fill="#F5F5DC" height="48.2656" id="Role" rx="2.5" ry="2.5" style="stroke:#181818;stroke-width:0.5;" width="116.2539" x="312" y="170.22"/><ellipse cx="327" cy="190.3528" fill="#FF8B40" rx="11" ry="11" style="stroke:#181818;stroke-width:1.0;"/><path d="M327.1094,194.8059 L329.2969,184.4622 L331.7656,184.4622 L328.8125,196.8528 L325.4219,196.8528 L322.4688,184.4622 L324.9375,184.4622 L327.1094,194.8059 Z " fill="#000000"/><text fill="#000000" font-family="sans-serif" font-size="12" font-style="italic" lengthAdjust="spacing" textLength="88.2539" x="339" y="186.3587">&#171;value object&#187;</text><text fill="#000000" font-family="sans-serif" font-size="14" lengthAdjust="spacing" textLength="30.7959" x="367.729" y="202.1839">Role</text><line style="stroke:#181818;stroke-width:0.5;" x1="313" x2="427.2539" y1="210.4856" y2="210.4856"/></g><!--class Name--><g id="elem_Name"><rect codeLine="6" fill="#F5F5DC" height="48.2656" id="Name" rx="2.5" ry="2.5" style="stroke:#181818;stroke-width:0.5;" width="116.2539" x="1250" y="307.45"/><ellipse cx="1265" cy="327.5828" fill="#FF8B40" rx="11" ry="11" style="stroke:#181818;stroke-width:1.0;"/><path d="M1265.1094,332.0359 L1267.2969,321.6922 L1269.7656,321.6922 L1266.8125,334.0828 L1263.4219,334.0828 L1260.4688,321.6922 L1262.9375,321.6922 L1265.1094,332.0359 Z " fill="#000000"/><text fill="#000000" font-family="sans-serif" font-size="12" font-style="italic" lengthAdjust="spacing" textLength="88.2539" x="1277" y="323.5887">&#171;value object&#187;</text><text fill="#000000" font-family="sans-serif" font-size="14" lengthAdjust="spacing" textLength="41.3027" x="1300.4756" y="339.4139">Name</text><line style="stroke:#181818;stroke-width:0.5;" x1="1251" x2="1365.2539" y1="347.7156" y2="347.7156"/></g><!--class FirstName--><g id="elem_FirstName"><rect codeLine="8" fill="#F5F5DC" height="48.2656" id="FirstName" rx="2.5" ry="2.5" style="stroke:#181818;stroke-width:0.5;" width="116.2539" x="1250" y="429.69"/><ellipse cx="1265" cy="449.8228" fill="#FF8B40" rx="11" ry="11" style="stroke:#181818;stroke-width:1.0;"/><path d="M1265.1094,454.2759 L1267.2969,443.9322 L1269.7656,443.9322 L1266.8125,456.3228 L1263.4219,456.3228 L1260.4688,443.9322 L1262.9375,443.9322 L1265.1094,454.2759 Z " fill="#000000"/><text fill="#000000" font-family="sans-serif" font-size="12" font-style="italic" lengthAdjust="spacing" textLength="88.2539" x="1277" y="445.8287">&#171;value object&#187;</text><text fill="#000000" font-family="sans-serif" font-size="14" lengthAdjust="spacing" textLength="71.7842" x="1285.2349" y="461.6539">FirstName</text><line style="stroke:#181818;stroke-width:0.5;" x1="1251" x2="1365.2539" y1="469.9556" y2="469.9556"/></g><!--class LastName--><g id="elem_LastName"><rect codeLine="9" fill="#F5F5DC" height="48.2656" id="LastName" rx="2.5" ry="2.5" style="stroke:#181818;stroke-width:0.5;" width="116.2539" x="1401" y="307.45"/><ellipse cx="1416" cy="327.5828" fill="#FF8B40" rx="11" ry="11" style="stroke:#181818;stroke-width:1.0;"/><path d="M1416.1094,332.0359 L1418.2969,321.6922 L1420.7656,321.6922 L1417.8125,334.0828 L1414.4219,334.0828 L1411.4688,321.6922 L1413.9375,321.6922 L1416.1094,332.0359 Z " fill="#000000"/><text fill="#000000" font-family="sans-serif" font-size="12" font-style="italic" lengthAdjust="spacing" textLength="88.2539" x="1428" y="323.5887">&#171;value object&#187;</text><text fill="#000000" font-family="sans-serif" font-size="14" lengthAdjust="spacing" textLength="70.4648" x="1436.8945" y="339.4139">LastName</text><line style="stroke:#181818;stroke-width:0.5;" x1="1402" x2="1516.2539" y1="347.7156" y2="347.7156"/></g><!--class FullName--><g id="elem_FullName"><rect codeLine="10" fill="#F5F5DC" height="48.2656" id="FullName" rx="2.5" ry="2.5" style="stroke:#181818;stroke-width:0.5;" width="116.2539" x="1401" y="429.69"/><ellipse cx="1416" cy="449.8228" fill="#FF8B40" rx="11" ry="11" style="stroke:#181818;stroke-width:1.0;"/><path d="M1416.1094,454.2759 L1418.2969,443.9322 L1420.7656,443.9322 L1417.8125,456.3228 L1414.4219,456.3228 L1411.4688,443.9322 L1413.9375,443.9322 L1416.1094,454.2759 Z " fill="#000000"/><text fill="#000000" font-family="sans-serif" font-size="12" font-style="italic" lengthAdjust="spacing" textLength="88.2539" x="1428" y="445.8287">&#171;value object&#187;</text><text fill="#000000" font-family="sans-serif" font-size="14" lengthAdjust="spacing" textLength="66.0078" x="1439.123" y="461.6539">FullName</text><line style="stroke:#181818;stroke-width:0.5;" x1="1402" x2="1516.2539" y1="469.9556" y2="469.9556"/></g><!--class ContactInfo--><g id="elem_ContactInfo"><rect codeLine="11" fill="#F5F5DC" height="48.2656" id="ContactInfo" rx="2.5" ry="2.5" style="stroke:#181818;stroke-width:0.5;" width="116.2539" x="1028" y="544.94"/><ellipse cx="1043" cy="565.0728" fill="#FF8B40" rx="11" ry="11" style="stroke:#181818;stroke-width:1.0;"/><path d="M1043.1094,569.5259 L1045.2969,559.1822 L1047.7656,559.1822 L1044.8125,571.5728 L1041.4219,571.5728 L1038.4688,559.1822 L1040.9375,559.1822 L1043.1094,569.5259 Z " fill="#000000"/><text fill="#000000" font-family="sans-serif" font-size="12" font-style="italic" lengthAdjust="spacing" textLength="88.2539" x="1055" y="561.0787">&#171;value object&#187;</text><text fill="#000000" font-family="sans-serif" font-size="14" lengthAdjust="spacing" textLength="80.9648" x="1058.6445" y="576.9039">ContactInfo</text><line style="stroke:#181818;stroke-width:0.5;" x1="1029" x2="1143.2539" y1="585.2056" y2="585.2056"/></g><!--class Phone--><g id="elem_Phone"><rect codeLine="12" fill="#F5F5DC" height="48.2656" id="Phone" rx="2.5" ry="2.5" style="stroke:#181818;stroke-width:0.5;" width="116.2539" x="694" y="653.2"/><ellipse cx="709" cy="673.3328" fill="#FF8B40" rx="11" ry="11" style="stroke:#181818;stroke-width:1.0;"/><path d="M709.1094,677.7859 L711.2969,667.4422 L713.7656,667.4422 L710.8125,679.8328 L707.4219,679.8328 L704.4688,667.4422 L706.9375,667.4422 L709.1094,677.7859 Z " fill="#000000"/><text fill="#000000" font-family="sans-serif" font-size="12" font-style="italic" lengthAdjust="spacing" textLength="88.2539" x="721" y="669.3387">&#171;value object&#187;</text><text fill="#000000" font-family="sans-serif" font-size="14" lengthAdjust="spacing" textLength="43.3672" x="743.4434" y="685.1639">Phone</text><line style="stroke:#181818;stroke-width:0.5;" x1="695" x2="809.2539" y1="693.4656" y2="693.4656"/></g><!--class Email--><g id="elem_Email"><rect codeLine="13" fill="#F5F5DC" height="48.2656" id="Email" rx="2.5" ry="2.5" style="stroke:#181818;stroke-width:0.5;" width="116.2539" x="1083" y="653.2"/><ellipse cx="1098" cy="673.3328" fill="#FF8B40" rx="11" ry="11" style="stroke:#181818;stroke-width:1.0;"/><path d="M1098.1094,677.7859 L1100.2969,667.4422 L1102.7656,667.4422 L1099.8125,679.8328 L1096.4219,679.8328 L1093.4688,667.4422 L1095.9375,667.4422 L1098.1094,677.7859 Z " fill="#000000"/><text fill="#000000" font-family="sans-serif" font-size="12" font-style="italic" lengthAdjust="spacing" textLength="88.2539" x="1110" y="669.3387">&#171;value object&#187;</text><text fill="#000000" font-family="sans-serif" font-size="14" lengthAdjust="spacing" textLength="38.8418" x="1134.7061" y="685.1639">Email</text><line style="stroke:#181818;stroke-width:0.5;" x1="1084" x2="1198.2539" y1="693.4656" y2="693.4656"/></g><!--class Status--><g id="elem_Status"><rect codeLine="16" fill="#F5F5DC" height="48.2656" id="Status" rx="2.5" ry="2.5" style="stroke:#181818;stroke-width:0.5;" width="116.2539" x="7" y="307.45"/><ellipse cx="22" cy="327.5828" fill="#FF8B40" rx="11" ry="11" style="stroke:#181818;stroke-width:1.0;"/><path d="M22.1094,332.0359 L24.2969,321.6922 L26.7656,321.6922 L23.8125,334.0828 L20.4219,334.0828 L17.4688,321.6922 L19.9375,321.6922 L22.1094,332.0359 Z " fill="#000000"/><text fill="#000000" font-family="sans-serif" font-size="12" font-style="italic" lengthAdjust="spacing" textLength="88.2539" x="34" y="323.5887">&#171;value object&#187;</text><text fill="#000000" font-family="sans-serif" font-size="14" lengthAdjust="spacing" textLength="44.6113" x="55.8213" y="339.4139">Status</text><line style="stroke:#181818;stroke-width:0.5;" x1="8" x2="122.2539" y1="347.7156" y2="347.7156"/></g><!--link User to Patient--><g id="link_User_Patient"><path codeLine="37" d="M428.32,93.9 C454.34,109.64 487.25,133.58 507.13,163.24 C535.36,205.34 545.2622,258.5562 549.1822,294.0962 " fill="none" id="User-to-Patient" style="stroke:#222222;stroke-width:1.0;"/><polygon fill="#222222" points="549.84,300.06,552.8292,290.6757,549.2918,295.0901,544.8774,291.5528,549.84,300.06" style="stroke:#222222;stroke-width:1.0;"/><text fill="#000000" font-family="sans-serif" font-size="13" lengthAdjust="spacing" textLength="24.8066" x="523.1065" y="289.4565">0..1</text></g><!--link User to Status--><g id="link_User_Status"><path codeLine="38" d="M414.95,103.47 C444.82,142.31 485.2,209.37 446.13,249.47 C434.22,261.69 154.82,250.78 139.13,257.47 C115.03,267.73 98.1528,285.0777 84.8728,302.3077 " fill="none" id="User-to-Status" style="stroke:#222222;stroke-width:1.0;"/><polygon fill="#222222" points="81.21,307.06,89.8724,302.3735,84.2623,303.0998,83.536,297.4898,81.21,307.06" style="stroke:#222222;stroke-width:1.0;"/><text fill="#000000" font-family="sans-serif" font-size="13" lengthAdjust="spacing" textLength="8.271" x="76.1883" y="296.3375">1</text></g><!--link User to Username--><g id="link_User_Username"><path codeLine="39" d="M350.13,100.7 C323.85,119.28 294.0891,140.3361 267.0191,159.4761 " fill="none" id="User-to-Username" style="stroke:#222222;stroke-width:1.0;"/><polygon fill="#222222" points="262.12,162.94,271.7779,161.0102,266.2026,160.0534,267.1594,154.478,262.12,162.94" style="stroke:#222222;stroke-width:1.0;"/></g><!--link User to Email--><g id="link_User_Email"><path codeLine="40" d="M428.37,76.92 C590.18,93.64 1197.13,167.26 1197.13,330.59 C1197.13,330.59 1197.13,330.59 1197.13,454.82 C1197.13,529 1169.4968,607.4466 1153.3868,647.3366 " fill="none" id="User-to-Email" style="stroke:#222222;stroke-width:1.0;"/><polygon fill="#222222" points="1151.14,652.9,1158.2192,646.0528,1153.0124,648.2638,1150.8013,643.057,1151.14,652.9" style="stroke:#222222;stroke-width:1.0;"/></g><!--link User to Role--><g id="link_User_Role"><path codeLine="41" d="M384.33,103.46 C381.08,124.05 377.7772,144.9537 374.7772,163.9237 " fill="none" id="User-to-Role" style="stroke:#222222;stroke-width:1.0;"/><polygon fill="#222222" points="373.84,169.85,379.1967,161.5853,374.621,164.9114,371.2949,160.3357,373.84,169.85" style="stroke:#222222;stroke-width:1.0;"/></g><!--link Name to FirstName--><g id="link_Name_FirstName"><path codeLine="44" d="M1308.13,356.06 C1308.13,377.24 1308.13,402.25 1308.13,423.41 " fill="none" id="Name-to-FirstName" style="stroke:#222222;stroke-width:1.0;"/><polygon fill="#222222" points="1308.13,429.41,1312.13,420.41,1308.13,424.41,1304.13,420.41,1308.13,429.41" style="stroke:#222222;stroke-width:1.0;"/></g><!--link Name to LastName--><g id="link_Name_LastName"><path codeLine="45" d="M1366.52,331.59 C1377.86,331.59 1383.19,331.59 1394.53,331.59 " fill="none" id="Name-to-LastName" style="stroke:#222222;stroke-width:1.0;"/><polygon fill="#222222" points="1400.53,331.59,1391.53,327.59,1395.53,331.59,1391.53,335.59,1400.53,331.59" style="stroke:#222222;stroke-width:1.0;"/></g><!--link Name to FullName--><g id="link_Name_FullName"><path codeLine="46" d="M1337.6,356.06 C1364.12,377.17 1398.1958,404.313 1424.7758,425.473 " fill="none" id="Name-to-FullName" style="stroke:#222222;stroke-width:1.0;"/><polygon fill="#222222" points="1429.47,429.21,1424.9201,420.4751,1425.5582,426.0959,1419.9375,426.734,1429.47,429.21" style="stroke:#222222;stroke-width:1.0;"/></g><!--link Patient to Status--><g id="link_Patient_Status"><path codeLine="49" d="M511.12,331.59 C381.95,331.59 258.79,331.59 129.62,331.59 " fill="none" id="Patient-to-Status" style="stroke:#222222;stroke-width:1.0;"/><polygon fill="#222222" points="123.62,331.59,132.62,335.59,128.62,331.59,132.62,327.59,123.62,331.59" style="stroke:#222222;stroke-width:1.0;"/><text fill="#000000" font-family="sans-serif" font-size="13" lengthAdjust="spacing" textLength="8.271" x="131.2529" y="327.7518">1</text></g><!--link Patient to Name--><g id="link_Patient_Name"><path codeLine="50" d="M593.1,331.59 C812.01,331.59 1024.91,331.59 1243.82,331.59 " fill="none" id="Patient-to-Name" style="stroke:#222222;stroke-width:1.0;"/><polygon fill="#222222" points="1249.82,331.59,1240.82,327.59,1244.82,331.59,1240.82,335.59,1249.82,331.59" style="stroke:#222222;stroke-width:1.0;"/><text fill="#000000" font-family="sans-serif" font-size="13" lengthAdjust="spacing" textLength="8.271" x="1233.8543" y="327.7054">1</text></g><!--link Patient to DateBirth--><g id="link_Patient_DateBirth"><path codeLine="51" d="M511.19,345.82 C459.09,362.82 366.45,393.63 288.13,422.7 C282.47,424.8 282.1917,424.8744 276.3317,427.1544 " fill="none" id="Patient-to-DateBirth" style="stroke:#222222;stroke-width:1.0;"/><polygon fill="#222222" points="270.74,429.33,280.5779,429.7944,275.3997,427.517,277.6771,422.3388,270.74,429.33" style="stroke:#222222;stroke-width:1.0;"/><text fill="#000000" font-family="sans-serif" font-size="13" lengthAdjust="spacing" textLength="8.271" x="275.8412" y="418.6148">1</text></g><!--link Patient to Gender--><g id="link_Patient_Gender"><path codeLine="52" d="M511.33,358.68 C478.5,379.67 437.8146,405.6972 406.0746,425.9972 " fill="none" id="Patient-to-Gender" style="stroke:#222222;stroke-width:1.0;"/><polygon fill="#222222" points="401.02,429.23,410.7571,427.7506,405.2322,426.536,406.4467,421.0111,401.02,429.23" style="stroke:#222222;stroke-width:1.0;"/><text fill="#000000" font-family="sans-serif" font-size="13" lengthAdjust="spacing" textLength="8.271" x="401.0707" y="418.4905">1</text></g><!--link Patient to ContactInfo--><g id="link_Patient_ContactInfo"><path codeLine="53" d="M593.26,336.01 C693.47,345.05 946.87,372.42 1013.13,422.7 C1053.28,453.18 1071.4681,506.0108 1079.6881,538.7308 " fill="none" id="Patient-to-ContactInfo" style="stroke:#222222;stroke-width:1.0;"/><polygon fill="#222222" points="1081.15,544.55,1082.8366,534.8466,1079.9317,539.7007,1075.0777,536.7958,1081.15,544.55" style="stroke:#222222;stroke-width:1.0;"/><text fill="#000000" font-family="sans-serif" font-size="13" lengthAdjust="spacing" textLength="8.271" x="1070.9949" y="533.8275">1</text></g><!--link Patient to EmergencyContact--><g id="link_Patient_EmergencyContact"><path codeLine="54" d="M516.91,363.14 C501.21,379.1 484.42,400.02 476.13,422.7 C466.63,448.68 464.32,459.93 476.13,484.94 C488.05,510.2 506.8181,527.0814 528.3181,541.2314 " fill="none" id="Patient-to-EmergencyContact" style="stroke:#222222;stroke-width:1.0;"/><polygon fill="#222222" points="533.33,544.53,528.0111,536.2409,529.1534,541.7812,523.6131,542.9235,533.33,544.53" style="stroke:#222222;stroke-width:1.0;"/><text fill="#000000" font-family="sans-serif" font-size="13" lengthAdjust="spacing" textLength="8.271" x="513.7122" y="533.8026">1</text></g><!--link Patient to MRN--><g id="link_Patient_MRN"><path codeLine="55" d="M552.13,362.93 C552.13,381.15 552.13,398.27 552.13,416.49 " fill="none" id="Patient-to-MRN" style="stroke:#222222;stroke-width:1.0;"/><polygon fill="#222222" points="552.13,422.49,556.13,413.49,552.13,417.49,548.13,413.49,552.13,422.49" style="stroke:#222222;stroke-width:1.0;"/><text fill="#000000" font-family="sans-serif" font-size="13" lengthAdjust="spacing" textLength="8.271" x="543.3336" y="411.5625">1</text></g><!--link Patient to MedicalCondition--><g id="link_Patient_MedicalCondition"><path codeLine="56" d="M593.04,361.69 C622.15,382.4 655.8701,406.4031 683.0701,425.7431 " fill="none" id="Patient-to-MedicalCondition" style="stroke:#222222;stroke-width:1.0;"/><polygon fill="#222222" points="687.96,429.22,682.943,420.7447,683.8851,426.3226,678.3072,427.2646,687.96,429.22" style="stroke:#222222;stroke-width:1.0;"/><text fill="#000000" font-family="sans-serif" font-size="13" lengthAdjust="spacing" textLength="24.8066" x="653.0478" y="418.478">0..1</text></g><!--link Patient to AppoitmentHistory--><g id="link_Patient_AppoitmentHistory"><path codeLine="57" d="M593.3,346.26 C654.08,366.45 762.9661,402.6081 837.4561,427.3581 " fill="none" id="Patient-to-AppoitmentHistory" style="stroke:#222222;stroke-width:1.0;"/><polygon fill="#222222" points="843.15,429.25,835.8703,422.6163,838.4051,427.6734,833.3479,430.2082,843.15,429.25" style="stroke:#222222;stroke-width:1.0;"/><text fill="#000000" font-family="sans-serif" font-size="13" lengthAdjust="spacing" textLength="8.271" x="816.9073" y="418.5153">1</text></g><!--link ContactInfo to Email--><g id="link_ContactInfo_Email"><path codeLine="58" d="M1098.33,593.66 C1107.45,611.27 1117.0931,629.9009 1126.1931,647.4909 " fill="none" id="ContactInfo-to-Email" style="stroke:#222222;stroke-width:1.0;"/><polygon fill="#222222" points="1128.95,652.82,1128.3673,642.9884,1126.6525,648.3791,1121.2618,646.6643,1128.95,652.82" style="stroke:#222222;stroke-width:1.0;"/><text fill="#000000" font-family="sans-serif" font-size="13" lengthAdjust="spacing" textLength="8.271" x="1117.0399" y="642.1">1</text></g><!--link ContactInfo to Phone--><g id="link_ContactInfo_Phone"><path codeLine="59" d="M1054.67,593.49 C1041.99,602.01 1026.89,611.04 1012.13,617.2 C945.91,644.84 870.4917,659.7873 816.6117,667.9873 " fill="none" id="ContactInfo-to-Phone" style="stroke:#222222;stroke-width:1.0;"/><polygon fill="#222222" points="810.68,668.89,820.1794,671.4903,815.6231,668.1377,818.9757,663.5814,810.68,668.89" style="stroke:#222222;stroke-width:1.0;"/><text fill="#000000" font-family="sans-serif" font-size="13" lengthAdjust="spacing" textLength="8.271" x="818.3202" y="664.022">1</text></g><!--link EmergencyContact to Phone--><g id="link_EmergencyContact_Phone"><path codeLine="60" d="M615.97,593.66 C644.97,611.27 679.2909,632.1168 708.2709,649.7068 " fill="none" id="EmergencyContact-to-Phone" style="stroke:#222222;stroke-width:1.0;"/><polygon fill="#222222" points="713.4,652.82,707.7818,644.7308,709.1257,650.2256,703.6308,651.5696,713.4,652.82" style="stroke:#222222;stroke-width:1.0;"/><text fill="#000000" font-family="sans-serif" font-size="13" lengthAdjust="spacing" textLength="8.271" x="695.0183" y="642.1">1</text></g><!--SRC=[bLJ1JeD04Btp5PjwqSIQQZnu82IjYffeqsZqleKfNOLTiZjeQkE_Ey12ATGMES6RzsQ6dJThFeHCkUO92s9kp1XHYtc6y10e-IA-WOsSfGY1GPBYYl4gR1opBPpmu2FIAfFXjOgLPdCG4JH8OwtLLnawkYWUnoc4RCeJOAvx_7PwvFjNaylHoIUFCs1g_Wu1UXvR_rHKNsY3VVWb_P7_X-rdSToVVQqayW0Vv4Br4yoMIlRCVPjm4Hyy4aj-GOwPESXEQJuy0ZPmNHv56YAEGA4PHm4I1spjC7heLT2OBKf9Iu28hgkLiiboPbdyXh9CXCRbeVeRoHt847H__cq2EW8PhEo9zrS-FK_tabsNZ4t_jn2WEre8HS1ZgXaA54hshpfEKoKmeSJtmg3IgqFIV9H_ZUVLW6xD9eTs3QRHGawH7IUplR_Va3-hUB-qQBdeOpWSUcmmEZix7rIciG622IlDMN6zkhDQJLZXzWqbhqxfYqtCl-kTjv1NhtM3OrUNT9LrjnjeeGMtnYnOUxaJAItRW2tUk0EwmRPlErd9djjOUOnjvtLq7OCvpRjeKpu_rLsHuY9oEckr5Vu5]--></g></svg>