<?xml version="1.0" encoding="us-ascii" standalone="no"?><svg xmlns="http://www.w3.org/2000/svg" xmlns:xlink="http://www.w3.org/1999/xlink" contentStyleType="text/css" height="1519px" preserveAspectRatio="none" style="width:972px;height:1519px;background:#FFFFFF;" version="1.1" viewBox="0 0 972 1519" width="972px" zoomAndPan="magnify"><defs/><g><text fill="#000000" font-family="sans-serif" font-size="14" font-weight="bold" lengthAdjust="spacing" textLength="326" x="322" y="30.1074">US 6.1.3 - Process View [Level 3 | Visualization]</text><rect fill="#FFFFFF" height="406.9102" style="stroke:#181818;stroke-width:1.0;" width="10" x="358" y="156.5332"/><rect fill="#FFFFFF" height="28" style="stroke:#181818;stroke-width:1.0;" width="10" x="363" y="320.9883"/><rect fill="#FFFFFF" height="28" style="stroke:#181818;stroke-width:1.0;" width="10" x="363" y="395.2793"/><rect fill="#FFFFFF" height="28" style="stroke:#181818;stroke-width:1.0;" width="10" x="363" y="483.3613"/><rect fill="#FFFFFF" height="407.832" style="stroke:#181818;stroke-width:1.0;" width="10" x="358" y="594.7344"/><rect fill="#FFFFFF" height="307.8135" style="stroke:#181818;stroke-width:1.0;" width="10" x="363" y="639.1709"/><rect fill="#FFFFFF" height="384.0742" style="stroke:#181818;stroke-width:1.0;" width="10" x="358" y="1033.8574"/><rect fill="#FFFFFF" height="130.873" style="stroke:#181818;stroke-width:1.0;" width="10" x="363" y="1248.7676"/><rect fill="#FFFFFF" height="93.873" style="stroke:#181818;stroke-width:1.0;" width="10" x="724" y="187.8242"/><rect fill="none" height="246.377" style="stroke:#000000;stroke-width:1.5;" width="335" x="242" y="664.3164"/><rect fill="none" height="213.0859" style="stroke:#000000;stroke-width:1.5;" width="315" x="252" y="690.6074"/><line style="stroke:#181818;stroke-width:0.5;stroke-dasharray:5.0,5.0;" x1="57" x2="57" y1="123.2422" y2="1435.9316"/><line style="stroke:#181818;stroke-width:0.5;stroke-dasharray:5.0,5.0;" x1="363" x2="363" y1="123.2422" y2="1435.9316"/><line style="stroke:#181818;stroke-width:0.5;stroke-dasharray:5.0,5.0;" x1="729" x2="729" y1="123.2422" y2="1435.9316"/><text fill="#000000" font-family="sans-serif" font-size="14" lengthAdjust="spacing" textLength="98" x="5" y="119.7285">Backoffice User</text><ellipse cx="57" cy="53.1211" fill="#E2E2F0" rx="8" ry="8" style="stroke:#181818;stroke-width:0.5;"/><path d="M57,61.1211 L57,88.1211 M44,69.1211 L70,69.1211 M57,88.1211 L44,103.1211 M57,88.1211 L70,103.1211 " fill="none" style="stroke:#181818;stroke-width:0.5;"/><text fill="#000000" font-family="sans-serif" font-size="14" lengthAdjust="spacing" textLength="98" x="5" y="1450.0391">Backoffice User</text><ellipse cx="57" cy="1462.0527" fill="#E2E2F0" rx="8" ry="8" style="stroke:#181818;stroke-width:0.5;"/><path d="M57,1470.0527 L57,1497.0527 M44,1478.0527 L70,1478.0527 M57,1497.0527 L44,1512.0527 M57,1497.0527 L70,1512.0527 " fill="none" style="stroke:#181818;stroke-width:0.5;"/><rect fill="#E2E2F0" height="51.2422" rx="2.5" ry="2.5" style="stroke:#181818;stroke-width:0.5;" width="202" x="262" y="71"/><text fill="#000000" font-family="sans-serif" font-size="14" font-style="italic" lengthAdjust="spacing" textLength="86" x="320" y="93.1074">&#171;component&#187;</text><text fill="#000000" font-family="sans-serif" font-size="14" lengthAdjust="spacing" textLength="188" x="269" y="111.7285">HospitalSimulationComponent</text><rect fill="#E2E2F0" height="51.2422" rx="2.5" ry="2.5" style="stroke:#181818;stroke-width:0.5;" width="202" x="262" y="1434.9316"/><text fill="#000000" font-family="sans-serif" font-size="14" font-style="italic" lengthAdjust="spacing" textLength="86" x="320" y="1457.0391">&#171;component&#187;</text><text fill="#000000" font-family="sans-serif" font-size="14" lengthAdjust="spacing" textLength="188" x="269" y="1475.6602">HospitalSimulationComponent</text><rect fill="#E2E2F0" height="51.2422" rx="2.5" ry="2.5" style="stroke:#181818;stroke-width:0.5;" width="98" x="680" y="71"/><text fill="#000000" font-family="sans-serif" font-size="14" font-style="italic" lengthAdjust="spacing" textLength="60" x="699" y="93.1074">&#171;service&#187;</text><text fill="#000000" font-family="sans-serif" font-size="14" lengthAdjust="spacing" textLength="84" x="687" y="111.7285">RoomService</text><rect fill="#E2E2F0" height="51.2422" rx="2.5" ry="2.5" style="stroke:#181818;stroke-width:0.5;" width="98" x="680" y="1434.9316"/><text fill="#000000" font-family="sans-serif" font-size="14" font-style="italic" lengthAdjust="spacing" textLength="60" x="699" y="1457.0391">&#171;service&#187;</text><text fill="#000000" font-family="sans-serif" font-size="14" lengthAdjust="spacing" textLength="84" x="687" y="1475.6602">RoomService</text><rect fill="#FFFFFF" height="406.9102" style="stroke:#181818;stroke-width:1.0;" width="10" x="358" y="156.5332"/><rect fill="#FFFFFF" height="28" style="stroke:#181818;stroke-width:1.0;" width="10" x="363" y="320.9883"/><rect fill="#FFFFFF" height="28" style="stroke:#181818;stroke-width:1.0;" width="10" x="363" y="395.2793"/><rect fill="#FFFFFF" height="28" style="stroke:#181818;stroke-width:1.0;" width="10" x="363" y="483.3613"/><rect fill="#FFFFFF" height="407.832" style="stroke:#181818;stroke-width:1.0;" width="10" x="358" y="594.7344"/><rect fill="#FFFFFF" height="307.8135" style="stroke:#181818;stroke-width:1.0;" width="10" x="363" y="639.1709"/><rect fill="#FFFFFF" height="384.0742" style="stroke:#181818;stroke-width:1.0;" width="10" x="358" y="1033.8574"/><rect fill="#FFFFFF" height="130.873" style="stroke:#181818;stroke-width:1.0;" width="10" x="363" y="1248.7676"/><rect fill="#FFFFFF" height="93.873" style="stroke:#181818;stroke-width:1.0;" width="10" x="724" y="187.8242"/><polygon fill="#181818" points="346,152.5332,356,156.5332,346,160.5332,350,156.5332" style="stroke:#181818;stroke-width:1.0;"/><line style="stroke:#181818;stroke-width:1.0;" x1="57" x2="352" y1="156.5332" y2="156.5332"/><text fill="#000000" font-family="sans-serif" font-size="13" font-weight="bold" lengthAdjust="spacing" textLength="7" x="64" y="151.2705">1</text><text fill="#000000" font-family="sans-serif" font-size="13" lengthAdjust="spacing" textLength="214" x="75" y="151.2705">wants to see hospital floor simulation</text><polygon fill="#181818" points="712,183.8242,722,187.8242,712,191.8242,716,187.8242" style="stroke:#181818;stroke-width:1.0;"/><line style="stroke:#181818;stroke-width:1.0;" x1="368" x2="718" y1="187.8242" y2="187.8242"/><text fill="#000000" font-family="sans-serif" font-size="13" font-weight="bold" lengthAdjust="spacing" textLength="7" x="375" y="182.5615">2</text><text fill="#000000" font-family="sans-serif" font-size="13" lengthAdjust="spacing" textLength="121" x="386" y="182.5615">getRoomsSchedule()</text><ellipse cx="962.5" cy="218.3652" fill="none" rx="4" ry="4" style="stroke:#181818;stroke-width:1.5;"/><polygon fill="#181818" points="945.5,215.1152,955.5,219.1152,945.5,223.1152,949.5,219.1152" style="stroke:#181818;stroke-width:1.0;"/><line style="stroke:#181818;stroke-width:1.0;" x1="734" x2="951.5" y1="219.1152" y2="219.1152"/><text fill="#000000" font-family="sans-serif" font-size="13" font-weight="bold" lengthAdjust="spacing" textLength="7" x="741" y="213.8525">3</text><text fill="#000000" font-family="sans-serif" font-size="13" lengthAdjust="spacing" textLength="194" x="752" y="213.8525">GET: api/Room/Get-AllSchedules</text><polygon fill="#181818" points="745,246.4063,735,250.4063,745,254.4063,741,250.4063" style="stroke:#181818;stroke-width:1.0;"/><ellipse cx="962.5" cy="249.6563" fill="none" rx="4" ry="4" style="stroke:#181818;stroke-width:1.5;"/><line style="stroke:#181818;stroke-width:1.0;stroke-dasharray:2.0,2.0;" x1="739" x2="958" y1="250.4063" y2="250.4063"/><text fill="#000000" font-family="sans-serif" font-size="13" font-weight="bold" lengthAdjust="spacing" textLength="7" x="751" y="245.1436">4</text><text fill="#000000" font-family="sans-serif" font-size="13" lengthAdjust="spacing" textLength="77" x="762" y="245.1436">Ok(schedule)</text><polygon fill="#181818" points="379,277.6973,369,281.6973,379,285.6973,375,281.6973" style="stroke:#181818;stroke-width:1.0;"/><line style="stroke:#181818;stroke-width:1.0;stroke-dasharray:2.0,2.0;" x1="373" x2="728" y1="281.6973" y2="281.6973"/><text fill="#000000" font-family="sans-serif" font-size="13" font-weight="bold" lengthAdjust="spacing" textLength="7" x="385" y="276.4346">5</text><text fill="#000000" font-family="sans-serif" font-size="13" lengthAdjust="spacing" textLength="79" x="396" y="276.4346">scheduleData</text><line style="stroke:#181818;stroke-width:1.0;" x1="373" x2="415" y1="312.9883" y2="312.9883"/><line style="stroke:#181818;stroke-width:1.0;" x1="415" x2="415" y1="312.9883" y2="325.9883"/><line style="stroke:#181818;stroke-width:1.0;" x1="374" x2="415" y1="325.9883" y2="325.9883"/><polygon fill="#181818" points="384,321.9883,374,325.9883,384,329.9883,380,325.9883" style="stroke:#181818;stroke-width:1.0;"/><text fill="#000000" font-family="sans-serif" font-size="13" font-weight="bold" lengthAdjust="spacing" textLength="7" x="380" y="307.7256">6</text><text fill="#000000" font-family="sans-serif" font-size="13" lengthAdjust="spacing" textLength="145" x="391" y="307.7256">backend data processing</text><line style="stroke:#181818;stroke-width:1.0;" x1="373" x2="415" y1="387.2793" y2="387.2793"/><line style="stroke:#181818;stroke-width:1.0;" x1="415" x2="415" y1="387.2793" y2="400.2793"/><line style="stroke:#181818;stroke-width:1.0;" x1="374" x2="415" y1="400.2793" y2="400.2793"/><polygon fill="#181818" points="384,396.2793,374,400.2793,384,404.2793,380,400.2793" style="stroke:#181818;stroke-width:1.0;"/><text fill="#000000" font-family="sans-serif" font-size="13" font-weight="bold" lengthAdjust="spacing" textLength="7" x="380" y="382.0166">7</text><text fill="#000000" font-family="sans-serif" font-size="13" lengthAdjust="spacing" textLength="81" x="391" y="382.0166">createScene()</text><line style="stroke:#181818;stroke-width:1.0;" x1="373" x2="415" y1="475.3613" y2="475.3613"/><line style="stroke:#181818;stroke-width:1.0;" x1="415" x2="415" y1="475.3613" y2="488.3613"/><line style="stroke:#181818;stroke-width:1.0;" x1="374" x2="415" y1="488.3613" y2="488.3613"/><polygon fill="#181818" points="384,484.3613,374,488.3613,384,492.3613,380,488.3613" style="stroke:#181818;stroke-width:1.0;"/><text fill="#000000" font-family="sans-serif" font-size="13" font-weight="bold" lengthAdjust="spacing" textLength="7" x="380" y="470.0986">8</text><text fill="#000000" font-family="sans-serif" font-size="13" lengthAdjust="spacing" textLength="133" x="391" y="470.0986">loadLayout(layoutData)</text><path d="M536,443.2793 L536,504.2793 L698,504.2793 L698,453.2793 L688,443.2793 L536,443.2793 " fill="#FEFFDD" style="stroke:#181818;stroke-width:0.5;"/><path d="M688,443.2793 L688,453.2793 L698,453.2793 L688,443.2793 " fill="#FEFFDD" style="stroke:#181818;stroke-width:0.5;"/><text fill="#000000" font-family="sans-serif" font-size="13" lengthAdjust="spacing" textLength="115" x="542" y="462.3076">layoutData is a json</text><text fill="#000000" font-family="sans-serif" font-size="13" lengthAdjust="spacing" textLength="122" x="542" y="479.5986">with the hospital floor</text><text fill="#000000" font-family="sans-serif" font-size="13" lengthAdjust="spacing" textLength="141" x="542" y="496.8896">elements and initial data</text><polygon fill="#181818" points="68,559.4434,58,563.4434,68,567.4434,64,563.4434" style="stroke:#181818;stroke-width:1.0;"/><line style="stroke:#181818;stroke-width:1.0;stroke-dasharray:2.0,2.0;" x1="62" x2="362" y1="563.4434" y2="563.4434"/><text fill="#000000" font-family="sans-serif" font-size="13" font-weight="bold" lengthAdjust="spacing" textLength="7" x="74" y="558.1807">9</text><text fill="#000000" font-family="sans-serif" font-size="13" lengthAdjust="spacing" textLength="256" x="85" y="558.1807">shows 3D simulation canvas within webpage</text><polygon fill="#181818" points="346,590.7344,356,594.7344,346,598.7344,350,594.7344" style="stroke:#181818;stroke-width:1.0;"/><line style="stroke:#181818;stroke-width:1.0;" x1="57" x2="352" y1="594.7344" y2="594.7344"/><text fill="#000000" font-family="sans-serif" font-size="13" font-weight="bold" lengthAdjust="spacing" textLength="14" x="64" y="589.4717">10</text><text fill="#000000" font-family="sans-serif" font-size="13" lengthAdjust="spacing" textLength="264" x="82" y="589.4717">changes the time and/or day in the simulation</text><line style="stroke:#181818;stroke-width:1.0;" x1="368" x2="415" y1="626.1709" y2="626.1709"/><line style="stroke:#181818;stroke-width:1.0;" x1="415" x2="415" y1="626.1709" y2="639.1709"/><line style="stroke:#181818;stroke-width:1.0;" x1="374" x2="415" y1="639.1709" y2="639.1709"/><polygon fill="#181818" points="384,635.1709,374,639.1709,384,643.1709,380,639.1709" style="stroke:#181818;stroke-width:1.0;"/><text fill="#000000" font-family="sans-serif" font-size="13" font-weight="bold" lengthAdjust="spacing" textLength="14" x="380" y="620.9082">11</text><text fill="#000000" font-family="sans-serif" font-size="13" lengthAdjust="spacing" textLength="109" x="398" y="620.9082">checkOccupancy()</text><path d="M519,607.7344 L519,651.7344 L682,651.7344 L682,617.7344 L672,607.7344 L519,607.7344 " fill="#FEFFDD" style="stroke:#181818;stroke-width:0.5;"/><path d="M672,607.7344 L672,617.7344 L682,617.7344 L672,607.7344 " fill="#FEFFDD" style="stroke:#181818;stroke-width:0.5;"/><text fill="#000000" font-family="sans-serif" font-size="13" lengthAdjust="spacing" textLength="121" x="525" y="626.7627">Checks which rooms</text><text fill="#000000" font-family="sans-serif" font-size="13" lengthAdjust="spacing" textLength="142" x="525" y="644.0537">are occupied or available</text><path d="M242,664.3164 L315,664.3164 L315,673.6074 L305,683.6074 L242,683.6074 L242,664.3164 " fill="#EEEEEE" style="stroke:#000000;stroke-width:1.5;"/><rect fill="none" height="246.377" style="stroke:#000000;stroke-width:1.5;" width="335" x="242" y="664.3164"/><text fill="#000000" font-family="sans-serif" font-size="13" font-weight="bold" lengthAdjust="spacing" textLength="28" x="257" y="679.3447">loop</text><text fill="#000000" font-family="sans-serif" font-size="11" font-weight="bold" lengthAdjust="spacing" textLength="86" x="330" y="678.1865">[for each room]</text><path d="M252,690.6074 L313,690.6074 L313,699.8984 L303,709.8984 L252,709.8984 L252,690.6074 " fill="#EEEEEE" style="stroke:#000000;stroke-width:1.5;"/><rect fill="none" height="213.0859" style="stroke:#000000;stroke-width:1.5;" width="315" x="252" y="690.6074"/><text fill="#000000" font-family="sans-serif" font-size="13" font-weight="bold" lengthAdjust="spacing" textLength="16" x="267" y="705.6357">alt</text><text fill="#000000" font-family="sans-serif" font-size="11" font-weight="bold" lengthAdjust="spacing" textLength="104" x="328" y="704.4775">[room is occupied]</text><line style="stroke:#181818;stroke-width:1.0;" x1="373" x2="415" y1="733.1895" y2="733.1895"/><line style="stroke:#181818;stroke-width:1.0;" x1="415" x2="415" y1="733.1895" y2="746.1895"/><line style="stroke:#181818;stroke-width:1.0;" x1="374" x2="415" y1="746.1895" y2="746.1895"/><polygon fill="#181818" points="384,742.1895,374,746.1895,384,750.1895,380,746.1895" style="stroke:#181818;stroke-width:1.0;"/><text fill="#000000" font-family="sans-serif" font-size="13" font-weight="bold" lengthAdjust="spacing" textLength="14" x="380" y="727.9268">12</text><text fill="#000000" font-family="sans-serif" font-size="13" lengthAdjust="spacing" textLength="114" x="398" y="727.9268">loadPatient(roomID)</text><line style="stroke:#181818;stroke-width:1.0;" x1="373" x2="415" y1="777.4805" y2="777.4805"/><line style="stroke:#181818;stroke-width:1.0;" x1="415" x2="415" y1="777.4805" y2="790.4805"/><line style="stroke:#181818;stroke-width:1.0;" x1="374" x2="415" y1="790.4805" y2="790.4805"/><polygon fill="#181818" points="384,786.4805,374,790.4805,384,794.4805,380,790.4805" style="stroke:#181818;stroke-width:1.0;"/><text fill="#000000" font-family="sans-serif" font-size="13" font-weight="bold" lengthAdjust="spacing" textLength="14" x="380" y="772.2178">13</text><text fill="#000000" font-family="sans-serif" font-size="13" lengthAdjust="spacing" textLength="157" x="398" y="772.2178">updateSprite(roomID, false)</text><line style="stroke:#000000;stroke-width:1.0;stroke-dasharray:2.0,2.0;" x1="252" x2="567" y1="799.4805" y2="799.4805"/><text fill="#000000" font-family="sans-serif" font-size="11" font-weight="bold" lengthAdjust="spacing" textLength="101" x="257" y="811.3506">[room is available]</text><line style="stroke:#181818;stroke-width:1.0;" x1="373" x2="415" y1="838.4023" y2="838.4023"/><line style="stroke:#181818;stroke-width:1.0;" x1="415" x2="415" y1="838.4023" y2="851.4023"/><line style="stroke:#181818;stroke-width:1.0;" x1="374" x2="415" y1="851.4023" y2="851.4023"/><polygon fill="#181818" points="384,847.4023,374,851.4023,384,855.4023,380,851.4023" style="stroke:#181818;stroke-width:1.0;"/><text fill="#000000" font-family="sans-serif" font-size="13" font-weight="bold" lengthAdjust="spacing" textLength="14" x="380" y="833.1396">14</text><text fill="#000000" font-family="sans-serif" font-size="13" lengthAdjust="spacing" textLength="131" x="398" y="833.1396">removePatient(roomID)</text><line style="stroke:#181818;stroke-width:1.0;" x1="373" x2="415" y1="882.6934" y2="882.6934"/><line style="stroke:#181818;stroke-width:1.0;" x1="415" x2="415" y1="882.6934" y2="895.6934"/><line style="stroke:#181818;stroke-width:1.0;" x1="374" x2="415" y1="895.6934" y2="895.6934"/><polygon fill="#181818" points="384,891.6934,374,895.6934,384,899.6934,380,895.6934" style="stroke:#181818;stroke-width:1.0;"/><text fill="#000000" font-family="sans-serif" font-size="13" font-weight="bold" lengthAdjust="spacing" textLength="14" x="380" y="877.4307">15</text><text fill="#000000" font-family="sans-serif" font-size="13" lengthAdjust="spacing" textLength="157" x="398" y="877.4307">updateSprite(roomID, false)</text><line style="stroke:#181818;stroke-width:1.0;stroke-dasharray:2.0,2.0;" x1="373" x2="415" y1="945.9844" y2="945.9844"/><line style="stroke:#181818;stroke-width:1.0;stroke-dasharray:2.0,2.0;" x1="415" x2="415" y1="945.9844" y2="958.9844"/><line style="stroke:#181818;stroke-width:1.0;stroke-dasharray:2.0,2.0;" x1="368" x2="415" y1="958.9844" y2="958.9844"/><polygon fill="#181818" points="378,954.9844,368,958.9844,378,962.9844,374,958.9844" style="stroke:#181818;stroke-width:1.0;"/><text fill="#000000" font-family="sans-serif" font-size="13" font-weight="bold" lengthAdjust="spacing" textLength="14" x="380" y="940.7217">16</text><text fill="#000000" font-family="sans-serif" font-size="13" lengthAdjust="spacing" textLength="4" x="398" y="940.7217">&#160;</text><polygon fill="#181818" points="68,998.5664,58,1002.5664,68,1006.5664,64,1002.5664" style="stroke:#181818;stroke-width:1.0;"/><line style="stroke:#181818;stroke-width:1.0;stroke-dasharray:2.0,2.0;" x1="62" x2="362" y1="1002.5664" y2="1002.5664"/><text fill="#000000" font-family="sans-serif" font-size="13" font-weight="bold" lengthAdjust="spacing" textLength="14" x="74" y="988.6582">17</text><text fill="#000000" font-family="sans-serif" font-size="13" lengthAdjust="spacing" textLength="169" x="92" y="980.0127">shows the room with patients</text><text fill="#000000" font-family="sans-serif" font-size="13" lengthAdjust="spacing" textLength="122" x="96" y="997.3037">according to the time</text><polygon fill="#181818" points="346,1029.8574,356,1033.8574,346,1037.8574,350,1033.8574" style="stroke:#181818;stroke-width:1.0;"/><line style="stroke:#181818;stroke-width:1.0;" x1="57" x2="352" y1="1033.8574" y2="1033.8574"/><text fill="#000000" font-family="sans-serif" font-size="13" font-weight="bold" lengthAdjust="spacing" textLength="14" x="64" y="1028.5947">18</text><text fill="#000000" font-family="sans-serif" font-size="13" lengthAdjust="spacing" textLength="164" x="82" y="1028.5947">mouse is on a patient model</text><line style="stroke:#181818;stroke-width:1.0;" x1="368" x2="410" y1="1130.8125" y2="1130.8125"/><line style="stroke:#181818;stroke-width:1.0;" x1="410" x2="410" y1="1130.8125" y2="1143.8125"/><line style="stroke:#181818;stroke-width:1.0;" x1="369" x2="410" y1="1143.8125" y2="1143.8125"/><polygon fill="#181818" points="379,1139.8125,369,1143.8125,379,1147.8125,375,1143.8125" style="stroke:#181818;stroke-width:1.0;"/><text fill="#000000" font-family="sans-serif" font-size="13" font-weight="bold" lengthAdjust="spacing" textLength="14" x="375" y="1125.5498">19</text><text fill="#000000" font-family="sans-serif" font-size="13" lengthAdjust="spacing" textLength="267" x="393" y="1125.5498">raycaster.intersectObjects(objectsToIntersect)</text><path d="M211,1046.8574 L211,1211.8574 L353,1211.8574 L353,1056.8574 L343,1046.8574 L211,1046.8574 " fill="#FEFFDD" style="stroke:#181818;stroke-width:0.5;"/><path d="M343,1046.8574 L343,1056.8574 L353,1056.8574 L343,1046.8574 " fill="#FEFFDD" style="stroke:#181818;stroke-width:0.5;"/><text fill="#000000" font-family="sans-serif" font-size="13" lengthAdjust="spacing" textLength="120" x="217" y="1065.8857">Raycaster is used to</text><text fill="#000000" font-family="sans-serif" font-size="13" lengthAdjust="spacing" textLength="118" x="217" y="1083.1768">check which objects</text><text fill="#000000" font-family="sans-serif" font-size="13" lengthAdjust="spacing" textLength="121" x="217" y="1100.4678">are being intersected</text><text fill="#000000" font-family="sans-serif" font-size="13" lengthAdjust="spacing" textLength="79" x="217" y="1117.7588">by the mouse</text><text fill="#000000" font-family="sans-serif" font-size="13" lengthAdjust="spacing" textLength="4" x="217" y="1135.0498">&#160;</text><text fill="#000000" font-family="sans-serif" font-size="13" lengthAdjust="spacing" textLength="121" x="217" y="1152.3408">The only objects that</text><text fill="#000000" font-family="sans-serif" font-size="13" lengthAdjust="spacing" textLength="112" x="217" y="1169.6318">can be identified by</text><text fill="#000000" font-family="sans-serif" font-size="13" lengthAdjust="spacing" textLength="111" x="217" y="1186.9229">intersection are the</text><text fill="#000000" font-family="sans-serif" font-size="13" lengthAdjust="spacing" textLength="85" x="217" y="1204.2139">patient models</text><line style="stroke:#181818;stroke-width:1.0;" x1="368" x2="415" y1="1235.7676" y2="1235.7676"/><line style="stroke:#181818;stroke-width:1.0;" x1="415" x2="415" y1="1235.7676" y2="1248.7676"/><line style="stroke:#181818;stroke-width:1.0;" x1="374" x2="415" y1="1248.7676" y2="1248.7676"/><polygon fill="#181818" points="384,1244.7676,374,1248.7676,384,1252.7676,380,1248.7676" style="stroke:#181818;stroke-width:1.0;"/><text fill="#000000" font-family="sans-serif" font-size="13" font-weight="bold" lengthAdjust="spacing" textLength="14" x="380" y="1230.5049">20</text><text fill="#000000" font-family="sans-serif" font-size="13" lengthAdjust="spacing" textLength="304" x="398" y="1230.5049">raycasterIntersectedObjectTooltip(interceptedObject)</text><line style="stroke:#181818;stroke-width:1.0;" x1="373" x2="415" y1="1285.0586" y2="1285.0586"/><line style="stroke:#181818;stroke-width:1.0;" x1="415" x2="415" y1="1285.0586" y2="1298.0586"/><line style="stroke:#181818;stroke-width:1.0;" x1="374" x2="415" y1="1298.0586" y2="1298.0586"/><polygon fill="#181818" points="384,1294.0586,374,1298.0586,384,1302.0586,380,1298.0586" style="stroke:#181818;stroke-width:1.0;"/><text fill="#000000" font-family="sans-serif" font-size="13" font-weight="bold" lengthAdjust="spacing" textLength="14" x="380" y="1279.7959">21</text><text fill="#000000" font-family="sans-serif" font-size="13" lengthAdjust="spacing" textLength="319" x="398" y="1279.7959">message = getAppoitmentInfo(interceptedObject.name)</text><line style="stroke:#181818;stroke-width:1.0;" x1="373" x2="415" y1="1329.3496" y2="1329.3496"/><line style="stroke:#181818;stroke-width:1.0;" x1="415" x2="415" y1="1329.3496" y2="1342.3496"/><line style="stroke:#181818;stroke-width:1.0;" x1="374" x2="415" y1="1342.3496" y2="1342.3496"/><polygon fill="#181818" points="384,1338.3496,374,1342.3496,384,1346.3496,380,1342.3496" style="stroke:#181818;stroke-width:1.0;"/><text fill="#000000" font-family="sans-serif" font-size="13" font-weight="bold" lengthAdjust="spacing" textLength="14" x="380" y="1324.0869">22</text><text fill="#000000" font-family="sans-serif" font-size="13" lengthAdjust="spacing" textLength="288" x="398" y="1324.0869">showTooltip(message, intersectedObject.position)</text><line style="stroke:#181818;stroke-width:1.0;stroke-dasharray:2.0,2.0;" x1="373" x2="415" y1="1378.6406" y2="1378.6406"/><line style="stroke:#181818;stroke-width:1.0;stroke-dasharray:2.0,2.0;" x1="415" x2="415" y1="1378.6406" y2="1391.6406"/><line style="stroke:#181818;stroke-width:1.0;stroke-dasharray:2.0,2.0;" x1="368" x2="415" y1="1391.6406" y2="1391.6406"/><polygon fill="#181818" points="378,1387.6406,368,1391.6406,378,1395.6406,374,1391.6406" style="stroke:#181818;stroke-width:1.0;"/><text fill="#000000" font-family="sans-serif" font-size="13" font-weight="bold" lengthAdjust="spacing" textLength="14" x="380" y="1373.3779">23</text><text fill="#000000" font-family="sans-serif" font-size="13" lengthAdjust="spacing" textLength="4" x="398" y="1373.3779">&#160;</text><polygon fill="#181818" points="68,1413.9316,58,1417.9316,68,1421.9316,64,1417.9316" style="stroke:#181818;stroke-width:1.0;"/><line style="stroke:#181818;stroke-width:1.0;stroke-dasharray:2.0,2.0;" x1="62" x2="362" y1="1417.9316" y2="1417.9316"/><text fill="#000000" font-family="sans-serif" font-size="13" font-weight="bold" lengthAdjust="spacing" textLength="14" x="74" y="1412.6689">24</text><text fill="#000000" font-family="sans-serif" font-size="13" lengthAdjust="spacing" textLength="245" x="92" y="1412.6689">shows tooltip with appointment information</text><!--SRC=[dLHDRzim3BthLn0v9S2IOYYmGz05wDgY2r2WGTFkilKWotIiLfOCIqwGOJz-f6mdSRf-O1T_IEJZU-IJWWu6OV2mX2-JpvDJ6CEYSWgzXnyQD_3p1jTeu1J-qB-lfT6_PT3EFWw4a7LmjYuIh8HKmLKm-2RLiyiohH0UF5O3a1uUbbTtefHLq4gNqWOOV7U-r46QfIvg4z4kN54wYpOq6Oi5d9sfRcqswwVVELSiiLfJbHY-M5AqRnOeLd116CyYp1GsbECXEF28aBUL8JEE-FeT0HQWrp8WPn44fH828KzXXO4h-gNACQqD3aVxuCLI20eQpzmZHLvVtKz1blg4uq-kCOpFZUdIV8my6uzZwEtpqBSRemQY8Jo5RlbI1YbIx9LgQJN24kersXHI2eIocPcsgxwI0u13OGs2gf0sbWfjJzIxUSR9z4PkNHs69hwOwqXOHz6LNkL1x9T1Uv3mvAd56nro2Fdn50GQB92794cDjZfesc9LWkKnwWUuCJcQE_KlTniFfvS7mmKbxPgCmWIqXGqcfLpXIvoURrGkxGfz91nqWSpkX3oJoYsHZCklskUepJcgvrkbQhAlsWvxZRhWFMAMQvL3nJOJia9m7Aqn1Ieerr8RcHXyfHs2cbX2Hf6afm6Xesb2_EBsTs3_cEA2s5FhXnmwlnpr0-eoPNkKbGxOHdo2J1hFbaLwxIhiAVOHAYpS6l-x2Eib8I9-iCg3MR_Z0-YCm7EADAFxoeQA_sL1AkMgb0uCtmtTa5zW7fcYS3N9vfuIG8T6goaQySQ1gUHMIH-mccXBJuygt2PFzFH3rxpltRpRQVrXC0lYhalacbGw9R8Y-gcrJ9iUJPCWgzbLe84dswWiiXRYdZwTDTikYVPa47GsA1DqIafqnfvBjc87mgU7iGb6zEJwlHjVqJhV4sd4tZjdWYw74LnXkTiOlTMxWgurEgtmbI_Yyx9qEl1jCRUPUuaqiR9WT_OGs0XTxHRjqs6RsjJIUSrwHnztsSva3NhZCSaSRIH9LUXS5iqLSGJq5m00]--></g></svg>