<?xml version="1.0" encoding="us-ascii" standalone="no"?><svg xmlns="http://www.w3.org/2000/svg" xmlns:xlink="http://www.w3.org/1999/xlink" contentStyleType="text/css" height="1387px" preserveAspectRatio="none" style="width:1121px;height:1387px;background:#FFFFFF;" version="1.1" viewBox="0 0 1121 1387" width="1121px" zoomAndPan="magnify"><defs/><g><text fill="#000000" font-family="sans-serif" font-size="14" font-weight="bold" lengthAdjust="spacing" textLength="326" x="396.5" y="30.1074">US 6.1.3 - Process View [Level 3 | Visualization]</text><rect fill="#FFFFFF" height="339.6191" style="stroke:#181818;stroke-width:1.0;" width="10" x="464" y="156.5332"/><rect fill="#FFFFFF" height="28" style="stroke:#181818;stroke-width:1.0;" width="10" x="469" y="429.8613"/><rect fill="#FFFFFF" height="464.0742" style="stroke:#181818;stroke-width:1.0;" width="10" x="464" y="547.7344"/><rect fill="#FFFFFF" height="343.7646" style="stroke:#181818;stroke-width:1.0;" width="10" x="469" y="612.4619"/><rect fill="#FFFFFF" height="191.7461" style="stroke:#181818;stroke-width:1.0;" width="10" x="474" y="688.1895"/><rect fill="#FFFFFF" height="243.7461" style="stroke:#181818;stroke-width:1.0;" width="10" x="464" y="1043.0996"/><rect fill="#FFFFFF" height="168.1641" style="stroke:#181818;stroke-width:1.0;" width="10" x="827" y="187.8242"/><rect fill="#FFFFFF" height="28" style="stroke:#181818;stroke-width:1.0;" width="10" x="832" y="289.6973"/><rect fill="none" height="282.3281" style="stroke:#000000;stroke-width:1.5;" width="527" x="368" y="637.6074"/><rect fill="none" height="135.4551" style="stroke:#000000;stroke-width:1.5;" width="507" x="378" y="708.1895"/><rect fill="none" height="109.873" style="stroke:#000000;stroke-width:1.5;" width="329" x="378" y="1146.6816"/><line style="stroke:#181818;stroke-width:0.5;stroke-dasharray:5.0,5.0;" x1="173" x2="173" y1="123.2422" y2="1304.8457"/><line style="stroke:#181818;stroke-width:0.5;stroke-dasharray:5.0,5.0;" x1="469" x2="469" y1="123.2422" y2="1304.8457"/><line style="stroke:#181818;stroke-width:0.5;stroke-dasharray:5.0,5.0;" x1="832" x2="832" y1="123.2422" y2="1304.8457"/><text fill="#000000" font-family="sans-serif" font-size="14" lengthAdjust="spacing" textLength="98" x="121" y="119.7285">Backoffice User</text><ellipse cx="173" cy="53.1211" fill="#E2E2F0" rx="8" ry="8" style="stroke:#181818;stroke-width:0.5;"/><path d="M173,61.1211 L173,88.1211 M160,69.1211 L186,69.1211 M173,88.1211 L160,103.1211 M173,88.1211 L186,103.1211 " fill="none" style="stroke:#181818;stroke-width:0.5;"/><text fill="#000000" font-family="sans-serif" font-size="14" lengthAdjust="spacing" textLength="98" x="121" y="1318.9531">Backoffice User</text><ellipse cx="173" cy="1330.9668" fill="#E2E2F0" rx="8" ry="8" style="stroke:#181818;stroke-width:0.5;"/><path d="M173,1338.9668 L173,1365.9668 M160,1346.9668 L186,1346.9668 M173,1365.9668 L160,1380.9668 M173,1365.9668 L186,1380.9668 " fill="none" style="stroke:#181818;stroke-width:0.5;"/><rect fill="#E2E2F0" height="51.2422" rx="2.5" ry="2.5" style="stroke:#181818;stroke-width:0.5;" width="162" x="388" y="71"/><text fill="#000000" font-family="sans-serif" font-size="14" font-style="italic" lengthAdjust="spacing" textLength="86" x="426" y="93.1074">&#171;component&#187;</text><text fill="#000000" font-family="sans-serif" font-size="14" lengthAdjust="spacing" textLength="148" x="395" y="111.7285">HospitalFloorSimulation</text><rect fill="#E2E2F0" height="51.2422" rx="2.5" ry="2.5" style="stroke:#181818;stroke-width:0.5;" width="162" x="388" y="1303.8457"/><text fill="#000000" font-family="sans-serif" font-size="14" font-style="italic" lengthAdjust="spacing" textLength="86" x="426" y="1325.9531">&#171;component&#187;</text><text fill="#000000" font-family="sans-serif" font-size="14" lengthAdjust="spacing" textLength="148" x="395" y="1344.5742">HospitalFloorSimulation</text><rect fill="#E2E2F0" height="51.2422" rx="2.5" ry="2.5" style="stroke:#181818;stroke-width:0.5;" width="140" x="762" y="71"/><text fill="#000000" font-family="sans-serif" font-size="14" font-style="italic" lengthAdjust="spacing" textLength="60" x="802" y="93.1074">&#171;service&#187;</text><text fill="#000000" font-family="sans-serif" font-size="14" lengthAdjust="spacing" textLength="126" x="769" y="111.7285">AppointmentService</text><rect fill="#E2E2F0" height="51.2422" rx="2.5" ry="2.5" style="stroke:#181818;stroke-width:0.5;" width="140" x="762" y="1303.8457"/><text fill="#000000" font-family="sans-serif" font-size="14" font-style="italic" lengthAdjust="spacing" textLength="60" x="802" y="1325.9531">&#171;service&#187;</text><text fill="#000000" font-family="sans-serif" font-size="14" lengthAdjust="spacing" textLength="126" x="769" y="1344.5742">AppointmentService</text><rect fill="#FFFFFF" height="339.6191" style="stroke:#181818;stroke-width:1.0;" width="10" x="464" y="156.5332"/><rect fill="#FFFFFF" height="28" style="stroke:#181818;stroke-width:1.0;" width="10" x="469" y="429.8613"/><rect fill="#FFFFFF" height="464.0742" style="stroke:#181818;stroke-width:1.0;" width="10" x="464" y="547.7344"/><rect fill="#FFFFFF" height="343.7646" style="stroke:#181818;stroke-width:1.0;" width="10" x="469" y="612.4619"/><rect fill="#FFFFFF" height="191.7461" style="stroke:#181818;stroke-width:1.0;" width="10" x="474" y="688.1895"/><rect fill="#FFFFFF" height="243.7461" style="stroke:#181818;stroke-width:1.0;" width="10" x="464" y="1043.0996"/><rect fill="#FFFFFF" height="168.1641" style="stroke:#181818;stroke-width:1.0;" width="10" x="827" y="187.8242"/><rect fill="#FFFFFF" height="28" style="stroke:#181818;stroke-width:1.0;" width="10" x="832" y="289.6973"/><polygon fill="#181818" points="452,152.5332,462,156.5332,452,160.5332,456,156.5332" style="stroke:#181818;stroke-width:1.0;"/><line style="stroke:#181818;stroke-width:1.0;" x1="173" x2="458" y1="156.5332" y2="156.5332"/><text fill="#000000" font-family="sans-serif" font-size="13" font-weight="bold" lengthAdjust="spacing" textLength="7" x="180" y="151.2705">1</text><text fill="#000000" font-family="sans-serif" font-size="13" lengthAdjust="spacing" textLength="214" x="191" y="151.2705">wants to see hospital floor simulation</text><polygon fill="#181818" points="815,183.8242,825,187.8242,815,191.8242,819,187.8242" style="stroke:#181818;stroke-width:1.0;"/><line style="stroke:#181818;stroke-width:1.0;" x1="474" x2="821" y1="187.8242" y2="187.8242"/><text fill="#000000" font-family="sans-serif" font-size="13" font-weight="bold" lengthAdjust="spacing" textLength="7" x="481" y="182.5615">2</text><text fill="#000000" font-family="sans-serif" font-size="13" lengthAdjust="spacing" textLength="115" x="492" y="182.5615">getTodaySchedule()</text><ellipse cx="1111.5" cy="218.3652" fill="none" rx="4" ry="4" style="stroke:#181818;stroke-width:1.5;"/><polygon fill="#181818" points="1094.5,215.1152,1104.5,219.1152,1094.5,223.1152,1098.5,219.1152" style="stroke:#181818;stroke-width:1.0;"/><line style="stroke:#181818;stroke-width:1.0;" x1="837" x2="1100.5" y1="219.1152" y2="219.1152"/><text fill="#000000" font-family="sans-serif" font-size="13" font-weight="bold" lengthAdjust="spacing" textLength="7" x="844" y="213.8525">3</text><text fill="#000000" font-family="sans-serif" font-size="13" lengthAdjust="spacing" textLength="240" x="855" y="213.8525">GET: api/appointment/GetTodaySchedule</text><polygon fill="#181818" points="848,246.4063,838,250.4063,848,254.4063,844,250.4063" style="stroke:#181818;stroke-width:1.0;"/><ellipse cx="1111.5" cy="249.6563" fill="none" rx="4" ry="4" style="stroke:#181818;stroke-width:1.5;"/><line style="stroke:#181818;stroke-width:1.0;stroke-dasharray:2.0,2.0;" x1="842" x2="1107" y1="250.4063" y2="250.4063"/><text fill="#000000" font-family="sans-serif" font-size="13" font-weight="bold" lengthAdjust="spacing" textLength="7" x="854" y="245.1436">4</text><text fill="#000000" font-family="sans-serif" font-size="13" lengthAdjust="spacing" textLength="77" x="865" y="245.1436">Ok(schedule)</text><line style="stroke:#181818;stroke-width:1.0;" x1="842" x2="884" y1="281.6973" y2="281.6973"/><line style="stroke:#181818;stroke-width:1.0;" x1="884" x2="884" y1="281.6973" y2="294.6973"/><line style="stroke:#181818;stroke-width:1.0;" x1="843" x2="884" y1="294.6973" y2="294.6973"/><polygon fill="#181818" points="853,290.6973,843,294.6973,853,298.6973,849,294.6973" style="stroke:#181818;stroke-width:1.0;"/><text fill="#000000" font-family="sans-serif" font-size="13" font-weight="bold" lengthAdjust="spacing" textLength="7" x="849" y="276.4346">5</text><text fill="#000000" font-family="sans-serif" font-size="13" lengthAdjust="spacing" textLength="133" x="860" y="276.4346">processData(schedule)</text><polygon fill="#181818" points="485,351.9883,475,355.9883,485,359.9883,481,355.9883" style="stroke:#181818;stroke-width:1.0;"/><line style="stroke:#181818;stroke-width:1.0;stroke-dasharray:2.0,2.0;" x1="479" x2="831" y1="355.9883" y2="355.9883"/><text fill="#000000" font-family="sans-serif" font-size="13" font-weight="bold" lengthAdjust="spacing" textLength="7" x="491" y="350.7256">6</text><text fill="#000000" font-family="sans-serif" font-size="13" lengthAdjust="spacing" textLength="79" x="502" y="350.7256">scheduleData</text><line style="stroke:#181818;stroke-width:1.0;" x1="479" x2="521" y1="421.8613" y2="421.8613"/><line style="stroke:#181818;stroke-width:1.0;" x1="521" x2="521" y1="421.8613" y2="434.8613"/><line style="stroke:#181818;stroke-width:1.0;" x1="480" x2="521" y1="434.8613" y2="434.8613"/><polygon fill="#181818" points="490,430.8613,480,434.8613,490,438.8613,486,434.8613" style="stroke:#181818;stroke-width:1.0;"/><text fill="#000000" font-family="sans-serif" font-size="13" font-weight="bold" lengthAdjust="spacing" textLength="7" x="486" y="399.3076">7</text><text fill="#000000" font-family="sans-serif" font-size="13" lengthAdjust="spacing" textLength="164" x="497" y="382.0166">initialization of sub elements</text><text fill="#000000" font-family="sans-serif" font-size="13" lengthAdjust="spacing" textLength="122" x="501" y="399.3076">(walls, surgical beds,</text><text fill="#000000" font-family="sans-serif" font-size="13" lengthAdjust="spacing" textLength="151" x="501" y="416.5986">doors, floor, light, camera)</text><polygon fill="#181818" points="184,492.1523,174,496.1523,184,500.1523,180,496.1523" style="stroke:#181818;stroke-width:1.0;"/><line style="stroke:#181818;stroke-width:1.0;stroke-dasharray:2.0,2.0;" x1="178" x2="468" y1="496.1523" y2="496.1523"/><text fill="#000000" font-family="sans-serif" font-size="13" font-weight="bold" lengthAdjust="spacing" textLength="7" x="190" y="490.8896">8</text><text fill="#000000" font-family="sans-serif" font-size="13" lengthAdjust="spacing" textLength="256" x="201" y="490.8896">shows 3D simulation canvas within webpage</text><polygon fill="#181818" points="452,543.7344,462,547.7344,452,551.7344,456,547.7344" style="stroke:#181818;stroke-width:1.0;"/><line style="stroke:#181818;stroke-width:1.0;" x1="173" x2="458" y1="547.7344" y2="547.7344"/><text fill="#000000" font-family="sans-serif" font-size="13" font-weight="bold" lengthAdjust="spacing" textLength="7" x="180" y="542.4717">9</text><text fill="#000000" font-family="sans-serif" font-size="13" lengthAdjust="spacing" textLength="199" x="191" y="542.4717">changes the time in the simulation</text><path d="M5,509.1523 L5,570.1523 L168,570.1523 L168,519.1523 L158,509.1523 L5,509.1523 " fill="#FEFFDD" style="stroke:#181818;stroke-width:0.5;"/><path d="M158,509.1523 L158,519.1523 L168,519.1523 L158,509.1523 " fill="#FEFFDD" style="stroke:#181818;stroke-width:0.5;"/><text fill="#000000" font-family="sans-serif" font-size="13" lengthAdjust="spacing" textLength="142" x="11" y="528.1807">When  the time changes</text><text fill="#000000" font-family="sans-serif" font-size="13" lengthAdjust="spacing" textLength="124" x="11" y="545.4717">in the simulation's UI,</text><text fill="#000000" font-family="sans-serif" font-size="13" lengthAdjust="spacing" textLength="118" x="11" y="562.7627">onChange() is called</text><line style="stroke:#181818;stroke-width:1.0;" x1="474" x2="521" y1="599.4619" y2="599.4619"/><line style="stroke:#181818;stroke-width:1.0;" x1="521" x2="521" y1="599.4619" y2="612.4619"/><line style="stroke:#181818;stroke-width:1.0;" x1="480" x2="521" y1="612.4619" y2="612.4619"/><polygon fill="#181818" points="490,608.4619,480,612.4619,490,616.4619,486,612.4619" style="stroke:#181818;stroke-width:1.0;"/><text fill="#000000" font-family="sans-serif" font-size="13" font-weight="bold" lengthAdjust="spacing" textLength="14" x="486" y="594.1992">10</text><text fill="#000000" font-family="sans-serif" font-size="13" lengthAdjust="spacing" textLength="321" x="504" y="594.1992">onChange(time =&gt; timeCallback(time, roomsSchedule))</text><path d="M267,581.0254 L267,625.0254 L459,625.0254 L459,591.0254 L449,581.0254 L267,581.0254 " fill="#FEFFDD" style="stroke:#181818;stroke-width:0.5;"/><path d="M449,581.0254 L449,591.0254 L459,591.0254 L449,581.0254 " fill="#FEFFDD" style="stroke:#181818;stroke-width:0.5;"/><text fill="#000000" font-family="sans-serif" font-size="13" lengthAdjust="spacing" textLength="171" x="273" y="600.0537">roomsSchedule is a map with</text><text fill="#000000" font-family="sans-serif" font-size="13" lengthAdjust="spacing" textLength="158" x="273" y="617.3447">[roomID][AppointmentsList]</text><path d="M368,637.6074 L441,637.6074 L441,646.8984 L431,656.8984 L368,656.8984 L368,637.6074 " fill="#EEEEEE" style="stroke:#000000;stroke-width:1.5;"/><rect fill="none" height="282.3281" style="stroke:#000000;stroke-width:1.5;" width="527" x="368" y="637.6074"/><text fill="#000000" font-family="sans-serif" font-size="13" font-weight="bold" lengthAdjust="spacing" textLength="28" x="383" y="652.6357">loop</text><text fill="#000000" font-family="sans-serif" font-size="11" font-weight="bold" lengthAdjust="spacing" textLength="191" x="456" y="651.4775">[for each room appointment entry]</text><line style="stroke:#181818;stroke-width:1.0;" x1="479" x2="526" y1="675.1895" y2="675.1895"/><line style="stroke:#181818;stroke-width:1.0;" x1="526" x2="526" y1="675.1895" y2="688.1895"/><line style="stroke:#181818;stroke-width:1.0;" x1="485" x2="526" y1="688.1895" y2="688.1895"/><polygon fill="#181818" points="495,684.1895,485,688.1895,495,692.1895,491,688.1895" style="stroke:#181818;stroke-width:1.0;"/><text fill="#000000" font-family="sans-serif" font-size="13" font-weight="bold" lengthAdjust="spacing" textLength="14" x="491" y="669.9268">11</text><text fill="#000000" font-family="sans-serif" font-size="13" lengthAdjust="spacing" textLength="132" x="509" y="669.9268">isRoomOccupied(time)</text><path d="M378,708.1895 L439,708.1895 L439,717.4805 L429,727.4805 L378,727.4805 L378,708.1895 " fill="#EEEEEE" style="stroke:#000000;stroke-width:1.5;"/><rect fill="none" height="135.4551" style="stroke:#000000;stroke-width:1.5;" width="507" x="378" y="708.1895"/><text fill="#000000" font-family="sans-serif" font-size="13" font-weight="bold" lengthAdjust="spacing" textLength="16" x="393" y="723.2178">alt</text><text fill="#000000" font-family="sans-serif" font-size="11" font-weight="bold" lengthAdjust="spacing" textLength="104" x="454" y="722.0596">[room is occupied]</text><line style="stroke:#181818;stroke-width:1.0;" x1="484" x2="526" y1="764.5625" y2="764.5625"/><line style="stroke:#181818;stroke-width:1.0;" x1="526" x2="526" y1="764.5625" y2="777.5625"/><line style="stroke:#181818;stroke-width:1.0;" x1="485" x2="526" y1="777.5625" y2="777.5625"/><polygon fill="#181818" points="495,773.5625,485,777.5625,495,781.5625,491,777.5625" style="stroke:#181818;stroke-width:1.0;"/><text fill="#000000" font-family="sans-serif" font-size="13" font-weight="bold" lengthAdjust="spacing" textLength="14" x="491" y="759.2998">12</text><text fill="#000000" font-family="sans-serif" font-size="13" lengthAdjust="spacing" textLength="159" x="509" y="759.2998">addPatientToRoom(roomID)</text><path d="M680,732.4805 L680,793.4805 L855,793.4805 L855,742.4805 L845,732.4805 L680,732.4805 " fill="#FEFFDD" style="stroke:#181818;stroke-width:0.5;"/><path d="M845,732.4805 L845,742.4805 L855,742.4805 L845,732.4805 " fill="#FEFFDD" style="stroke:#181818;stroke-width:0.5;"/><text fill="#000000" font-family="sans-serif" font-size="13" lengthAdjust="spacing" textLength="145" x="686" y="751.5088">The component knows to</text><text fill="#000000" font-family="sans-serif" font-size="13" lengthAdjust="spacing" textLength="154" x="686" y="768.7998">what positions the surgical</text><text fill="#000000" font-family="sans-serif" font-size="13" lengthAdjust="spacing" textLength="111" x="686" y="786.0908">tables in rooms are</text><line style="stroke:#181818;stroke-width:1.0;" x1="484" x2="526" y1="822.6445" y2="822.6445"/><line style="stroke:#181818;stroke-width:1.0;" x1="526" x2="526" y1="822.6445" y2="835.6445"/><line style="stroke:#181818;stroke-width:1.0;" x1="485" x2="526" y1="835.6445" y2="835.6445"/><polygon fill="#181818" points="495,831.6445,485,835.6445,495,839.6445,491,835.6445" style="stroke:#181818;stroke-width:1.0;"/><text fill="#000000" font-family="sans-serif" font-size="13" font-weight="bold" lengthAdjust="spacing" textLength="14" x="491" y="817.3818">13</text><text fill="#000000" font-family="sans-serif" font-size="13" lengthAdjust="spacing" textLength="205" x="509" y="817.3818">updateTooltip(roomID, appointment)</text><line style="stroke:#181818;stroke-width:1.0;stroke-dasharray:2.0,2.0;" x1="484" x2="526" y1="878.9355" y2="878.9355"/><line style="stroke:#181818;stroke-width:1.0;stroke-dasharray:2.0,2.0;" x1="526" x2="526" y1="878.9355" y2="891.9355"/><line style="stroke:#181818;stroke-width:1.0;stroke-dasharray:2.0,2.0;" x1="479" x2="526" y1="891.9355" y2="891.9355"/><polygon fill="#181818" points="489,887.9355,479,891.9355,489,895.9355,485,891.9355" style="stroke:#181818;stroke-width:1.0;"/><text fill="#000000" font-family="sans-serif" font-size="13" font-weight="bold" lengthAdjust="spacing" textLength="14" x="491" y="873.6729">14</text><text fill="#000000" font-family="sans-serif" font-size="13" lengthAdjust="spacing" textLength="4" x="509" y="873.6729">&#160;</text><line style="stroke:#181818;stroke-width:1.0;stroke-dasharray:2.0,2.0;" x1="479" x2="521" y1="955.2266" y2="955.2266"/><line style="stroke:#181818;stroke-width:1.0;stroke-dasharray:2.0,2.0;" x1="521" x2="521" y1="955.2266" y2="968.2266"/><line style="stroke:#181818;stroke-width:1.0;stroke-dasharray:2.0,2.0;" x1="474" x2="521" y1="968.2266" y2="968.2266"/><polygon fill="#181818" points="484,964.2266,474,968.2266,484,972.2266,480,968.2266" style="stroke:#181818;stroke-width:1.0;"/><text fill="#000000" font-family="sans-serif" font-size="13" font-weight="bold" lengthAdjust="spacing" textLength="14" x="486" y="949.9639">15</text><text fill="#000000" font-family="sans-serif" font-size="13" lengthAdjust="spacing" textLength="4" x="504" y="949.9639">&#160;</text><polygon fill="#181818" points="184,1007.8086,174,1011.8086,184,1015.8086,180,1011.8086" style="stroke:#181818;stroke-width:1.0;"/><line style="stroke:#181818;stroke-width:1.0;stroke-dasharray:2.0,2.0;" x1="178" x2="468" y1="1011.8086" y2="1011.8086"/><text fill="#000000" font-family="sans-serif" font-size="13" font-weight="bold" lengthAdjust="spacing" textLength="14" x="190" y="997.9004">16</text><text fill="#000000" font-family="sans-serif" font-size="13" lengthAdjust="spacing" textLength="169" x="208" y="989.2549">shows the room with patients</text><text fill="#000000" font-family="sans-serif" font-size="13" lengthAdjust="spacing" textLength="122" x="212" y="1006.5459">according to the time</text><polygon fill="#181818" points="452,1039.0996,462,1043.0996,452,1047.0996,456,1043.0996" style="stroke:#181818;stroke-width:1.0;"/><line style="stroke:#181818;stroke-width:1.0;" x1="173" x2="458" y1="1043.0996" y2="1043.0996"/><text fill="#000000" font-family="sans-serif" font-size="13" font-weight="bold" lengthAdjust="spacing" textLength="14" x="180" y="1037.8369">17</text><text fill="#000000" font-family="sans-serif" font-size="13" lengthAdjust="spacing" textLength="137" x="198" y="1037.8369">clicks on a surgical bed</text><line style="stroke:#181818;stroke-width:1.0;" x1="474" x2="516" y1="1074.3906" y2="1074.3906"/><line style="stroke:#181818;stroke-width:1.0;" x1="516" x2="516" y1="1074.3906" y2="1087.3906"/><line style="stroke:#181818;stroke-width:1.0;" x1="475" x2="516" y1="1087.3906" y2="1087.3906"/><polygon fill="#181818" points="485,1083.3906,475,1087.3906,485,1091.3906,481,1087.3906" style="stroke:#181818;stroke-width:1.0;"/><text fill="#000000" font-family="sans-serif" font-size="13" font-weight="bold" lengthAdjust="spacing" textLength="14" x="481" y="1069.1279">18</text><text fill="#000000" font-family="sans-serif" font-size="13" lengthAdjust="spacing" textLength="178" x="499" y="1069.1279">getRoomFromBedRaycasting()</text><line style="stroke:#181818;stroke-width:1.0;" x1="474" x2="516" y1="1118.6816" y2="1118.6816"/><line style="stroke:#181818;stroke-width:1.0;" x1="516" x2="516" y1="1118.6816" y2="1131.6816"/><line style="stroke:#181818;stroke-width:1.0;" x1="475" x2="516" y1="1131.6816" y2="1131.6816"/><polygon fill="#181818" points="485,1127.6816,475,1131.6816,485,1135.6816,481,1131.6816" style="stroke:#181818;stroke-width:1.0;"/><text fill="#000000" font-family="sans-serif" font-size="13" font-weight="bold" lengthAdjust="spacing" textLength="14" x="481" y="1113.4189">19</text><text fill="#000000" font-family="sans-serif" font-size="13" lengthAdjust="spacing" textLength="132" x="499" y="1113.4189">isRoomOccupied(time)</text><path d="M378,1146.6816 L439,1146.6816 L439,1155.9727 L429,1165.9727 L378,1165.9727 L378,1146.6816 " fill="#EEEEEE" style="stroke:#000000;stroke-width:1.5;"/><rect fill="none" height="109.873" style="stroke:#000000;stroke-width:1.5;" width="329" x="378" y="1146.6816"/><text fill="#000000" font-family="sans-serif" font-size="13" font-weight="bold" lengthAdjust="spacing" textLength="16" x="393" y="1161.71">alt</text><text fill="#000000" font-family="sans-serif" font-size="11" font-weight="bold" lengthAdjust="spacing" textLength="71" x="454" y="1160.5518">[is occupied]</text><line style="stroke:#181818;stroke-width:1.0;" x1="474" x2="516" y1="1189.2637" y2="1189.2637"/><line style="stroke:#181818;stroke-width:1.0;" x1="516" x2="516" y1="1189.2637" y2="1202.2637"/><line style="stroke:#181818;stroke-width:1.0;" x1="475" x2="516" y1="1202.2637" y2="1202.2637"/><polygon fill="#181818" points="485,1198.2637,475,1202.2637,485,1206.2637,481,1202.2637" style="stroke:#181818;stroke-width:1.0;"/><text fill="#000000" font-family="sans-serif" font-size="13" font-weight="bold" lengthAdjust="spacing" textLength="14" x="481" y="1184.001">20</text><text fill="#000000" font-family="sans-serif" font-size="13" lengthAdjust="spacing" textLength="196" x="499" y="1184.001">showTooltip(roomID, appointment)</text><line style="stroke:#000000;stroke-width:1.0;stroke-dasharray:2.0,2.0;" x1="378" x2="707" y1="1211.2637" y2="1211.2637"/><line style="stroke:#181818;stroke-width:1.0;" x1="474" x2="516" y1="1235.5547" y2="1235.5547"/><line style="stroke:#181818;stroke-width:1.0;" x1="516" x2="516" y1="1235.5547" y2="1248.5547"/><line style="stroke:#181818;stroke-width:1.0;" x1="475" x2="516" y1="1248.5547" y2="1248.5547"/><polygon fill="#181818" points="485,1244.5547,475,1248.5547,485,1252.5547,481,1248.5547" style="stroke:#181818;stroke-width:1.0;"/><text fill="#000000" font-family="sans-serif" font-size="13" font-weight="bold" lengthAdjust="spacing" textLength="14" x="481" y="1230.292">21</text><text fill="#000000" font-family="sans-serif" font-size="13" lengthAdjust="spacing" textLength="190" x="499" y="1230.292">showTooltip(roomID, unidentified)</text><polygon fill="#181818" points="184,1282.8457,174,1286.8457,184,1290.8457,180,1286.8457" style="stroke:#181818;stroke-width:1.0;"/><line style="stroke:#181818;stroke-width:1.0;stroke-dasharray:2.0,2.0;" x1="178" x2="468" y1="1286.8457" y2="1286.8457"/><text fill="#000000" font-family="sans-serif" font-size="13" font-weight="bold" lengthAdjust="spacing" textLength="14" x="190" y="1281.583">22</text><text fill="#000000" font-family="sans-serif" font-size="13" lengthAdjust="spacing" textLength="245" x="208" y="1281.583">shows tooltip with appointment information</text><!--SRC=[ZLHDQnin4BthLmo-r0OxeGHwCAcX-MmWK1CxxI7rGTQElS9QIQoqNbByupkI_B5UfsaE0KSxR-RDUq_oqYk4plC4lfnzFhk00OnB8z0v-2cnXfT7NAE22zZG_wxYIlxXNXezwp36AszqLSonP5nuKqBdYekLMIoaG7XsM7Q0EtYUt3unoqilXRHSU-XyDyvApzMTCgQSoA9IiMMg7e_XybAOmXgDsez6nz1lrXgfVK6V9bYkQL14ZIS4Skc082pCXC4eTXj2JL07te13X7mx71PXEhZz-B23N7EF0KKj24eTgFCGbkYd9kEl4v5ZLYdizWx5umbZL3GOcHbLtjzEXy2jFES7ekVtBNW4N0u64V5ZrNNRyzwsKnfgamqttFD6HNDkXYSiqiv3s042kbsttInf8xNqSkygc0MuQWweC31tlpLqQwwKwzDnkPI2T9jZvlhq8IFvw3pAs0SbbxdlW-05bhnth6LZ_a7Qm81S8ggvgHrSt3Iie3PwJRRMqkTIGurpovTuqgTbiyYvNY8PdIDuMI3j5dytBDQ6i0eNdltAKSEXT8jb9v1F5Cc7FZFwEbPqUo0TqLCACuOwWz3nxUGaKdjW7FDr5CTT4tvELoKUzg4qfd2xSFHQuXqe7vK56XmARgD8x2LyVBYPlJGkY7kKpiyEB1avPM51eISTypWL6Z45-YjVM-bmJrJrGuZAIimYtHOzhdpgH7pCjgub0S-oCMb9xQScjEichhsqMXc2mwOa-lxImqg7I7Z3wfnxiCR9O4LoTfT3vlbSaTlaM1G6U8cDNOyOL3OZlbDZb9TsExxVtBqNaRHB8vodmTriDcnVsAY3uRiHXrt60_seLR0CRD8at34kX2apgPVXaTfbyhznLrAiI7I27rtEzz983rbmuAuqnHLcJ_nLSETfBZre7p6UlFwtpM77zoLM3Z-0gRJCg5ukQCHRlZGU3P-WISzcbAMcc1VfphTa_0i0]--></g></svg>