<?xml version="1.0" encoding="us-ascii" standalone="no"?><svg xmlns="http://www.w3.org/2000/svg" xmlns:xlink="http://www.w3.org/1999/xlink" contentStyleType="text/css" height="1026px" preserveAspectRatio="none" style="width:1516px;height:1026px;background:#FFFFFF;" version="1.1" viewBox="0 0 1516 1026" width="1516px" zoomAndPan="magnify"><defs/><g><text fill="#000000" font-family="sans-serif" font-size="14" font-weight="bold" lengthAdjust="spacing" textLength="396" x="559.25" y="30.1074">US 7.2.7. Process View (Level 3 | MDPatientManagement)</text><rect fill="#FFFFFF" height="314.5703" style="stroke:#181818;stroke-width:1.0;" width="10" x="185" y="130.1543"/><rect fill="#FFFFFF" height="451.1035" style="stroke:#181818;stroke-width:1.0;" width="10" x="185" y="501.0156"/><rect fill="#FFFFFF" height="251.9883" style="stroke:#181818;stroke-width:1.0;" width="10" x="421" y="161.4453"/><rect fill="#FFFFFF" height="388.5215" style="stroke:#181818;stroke-width:1.0;" width="10" x="421" y="532.3066"/><rect fill="#FFFFFF" height="28" style="stroke:#181818;stroke-width:1.0;" width="10" x="426" y="854.5371"/><rect fill="#FFFFFF" height="189.4063" style="stroke:#181818;stroke-width:1.0;" width="10" x="866.5" y="192.7363"/><rect fill="#FFFFFF" height="189.4063" style="stroke:#181818;stroke-width:1.0;" width="10" x="866.5" y="625.8398"/><rect fill="#FFFFFF" height="31.291" style="stroke:#181818;stroke-width:1.0;" width="10" x="1168.5" y="224.0273"/><rect fill="#FFFFFF" height="31.291" style="stroke:#181818;stroke-width:1.0;" width="10" x="1168.5" y="657.1309"/><rect fill="none" height="81.5332" style="stroke:#000000;stroke-width:1.5;" width="618.5" x="784" y="270.3184"/><rect fill="none" height="81.5332" style="stroke:#000000;stroke-width:1.5;" width="618.5" x="784" y="703.4219"/><line style="stroke:#181818;stroke-width:0.5;stroke-dasharray:5.0,5.0;" x1="190" x2="190" y1="96.8633" y2="970.1191"/><line style="stroke:#181818;stroke-width:0.5;stroke-dasharray:5.0,5.0;" x1="426" x2="426" y1="96.8633" y2="970.1191"/><line style="stroke:#181818;stroke-width:0.5;stroke-dasharray:5.0,5.0;" x1="663" x2="663" y1="581.4277" y2="970.1191"/><line style="stroke:#181818;stroke-width:0.5;stroke-dasharray:5.0,5.0;" x1="871" x2="871" y1="96.8633" y2="970.1191"/><line style="stroke:#181818;stroke-width:0.5;stroke-dasharray:5.0,5.0;" x1="1173.5" x2="1173.5" y1="96.8633" y2="970.1191"/><line style="stroke:#181818;stroke-width:0.5;stroke-dasharray:5.0,5.0;" x1="1323.5" x2="1323.5" y1="763.834" y2="970.1191"/><line style="stroke:#181818;stroke-width:0.5;stroke-dasharray:5.0,5.0;" x1="1456.5" x2="1456.5" y1="96.8633" y2="970.1191"/><rect fill="#E2E2F0" height="51.2422" rx="2.5" ry="2.5" style="stroke:#181818;stroke-width:0.5;" width="146" x="117" y="44.6211"/><text fill="#000000" font-family="sans-serif" font-size="14" lengthAdjust="spacing" textLength="37" x="171.5" y="66.7285">route:</text><text fill="#000000" font-family="sans-serif" font-size="14" lengthAdjust="spacing" textLength="132" x="124" y="85.3496">MedicalRecordRoute</text><rect fill="#E2E2F0" height="51.2422" rx="2.5" ry="2.5" style="stroke:#181818;stroke-width:0.5;" width="146" x="117" y="969.1191"/><text fill="#000000" font-family="sans-serif" font-size="14" lengthAdjust="spacing" textLength="37" x="171.5" y="991.2266">route:</text><text fill="#000000" font-family="sans-serif" font-size="14" lengthAdjust="spacing" textLength="132" x="124" y="1009.8477">MedicalRecordRoute</text><rect fill="#E2E2F0" height="51.2422" rx="2.5" ry="2.5" style="stroke:#181818;stroke-width:0.5;" width="170" x="341" y="44.6211"/><text fill="#000000" font-family="sans-serif" font-size="14" lengthAdjust="spacing" textLength="63" x="394.5" y="66.7285">controller:</text><text fill="#000000" font-family="sans-serif" font-size="14" lengthAdjust="spacing" textLength="156" x="348" y="85.3496">MedicalRecordController</text><rect fill="#E2E2F0" height="51.2422" rx="2.5" ry="2.5" style="stroke:#181818;stroke-width:0.5;" width="170" x="341" y="969.1191"/><text fill="#000000" font-family="sans-serif" font-size="14" lengthAdjust="spacing" textLength="63" x="394.5" y="991.2266">controller:</text><text fill="#000000" font-family="sans-serif" font-size="14" lengthAdjust="spacing" textLength="156" x="348" y="1009.8477">MedicalRecordController</text><rect fill="#E2E2F0" height="51.2422" rx="2.5" ry="2.5" style="stroke:#181818;stroke-width:0.5;" width="242" x="542" y="969.1191"/><text fill="#000000" font-family="sans-serif" font-size="14" lengthAdjust="spacing" textLength="40" x="643" y="991.2266">query:</text><text fill="#000000" font-family="sans-serif" font-size="14" lengthAdjust="spacing" textLength="228" x="549" y="1009.8477">MedicalRecordQueryParametersDto</text><rect fill="#E2E2F0" height="51.2422" rx="2.5" ry="2.5" style="stroke:#181818;stroke-width:0.5;" width="155" x="794" y="44.6211"/><text fill="#000000" font-family="sans-serif" font-size="14" lengthAdjust="spacing" textLength="49" x="847" y="66.7285">service:</text><text fill="#000000" font-family="sans-serif" font-size="14" lengthAdjust="spacing" textLength="141" x="801" y="85.3496">MedicalRecordService</text><rect fill="#E2E2F0" height="51.2422" rx="2.5" ry="2.5" style="stroke:#181818;stroke-width:0.5;" width="155" x="794" y="969.1191"/><text fill="#000000" font-family="sans-serif" font-size="14" lengthAdjust="spacing" textLength="49" x="847" y="991.2266">service:</text><text fill="#000000" font-family="sans-serif" font-size="14" lengthAdjust="spacing" textLength="141" x="801" y="1009.8477">MedicalRecordService</text><rect fill="#E2E2F0" height="51.2422" rx="2.5" ry="2.5" style="stroke:#181818;stroke-width:0.5;" width="142" x="1102.5" y="44.6211"/><text fill="#000000" font-family="sans-serif" font-size="14" lengthAdjust="spacing" textLength="67" x="1140" y="66.7285">repository:</text><text fill="#000000" font-family="sans-serif" font-size="14" lengthAdjust="spacing" textLength="128" x="1109.5" y="85.3496">MedicalRecordRepo</text><rect fill="#E2E2F0" height="51.2422" rx="2.5" ry="2.5" style="stroke:#181818;stroke-width:0.5;" width="142" x="1102.5" y="969.1191"/><text fill="#000000" font-family="sans-serif" font-size="14" lengthAdjust="spacing" textLength="67" x="1140" y="991.2266">repository:</text><text fill="#000000" font-family="sans-serif" font-size="14" lengthAdjust="spacing" textLength="128" x="1109.5" y="1009.8477">MedicalRecordRepo</text><rect fill="#E2E2F0" height="51.2422" rx="2.5" ry="2.5" style="stroke:#181818;stroke-width:0.5;" width="138" x="1254.5" y="969.1191"/><text fill="#000000" font-family="sans-serif" font-size="14" lengthAdjust="spacing" textLength="24" x="1311.5" y="991.2266">dto:</text><text fill="#000000" font-family="sans-serif" font-size="14" lengthAdjust="spacing" textLength="124" x="1261.5" y="1009.8477">MedicalRecordDTO</text><rect fill="#E2E2F0" height="51.2422" rx="2.5" ry="2.5" style="stroke:#181818;stroke-width:0.5;" width="108" x="1402.5" y="44.6211"/><text fill="#000000" font-family="sans-serif" font-size="14" lengthAdjust="spacing" textLength="50" x="1431.5" y="66.7285">domain:</text><text fill="#000000" font-family="sans-serif" font-size="14" lengthAdjust="spacing" textLength="94" x="1409.5" y="85.3496">MedicalRecord</text><rect fill="#E2E2F0" height="51.2422" rx="2.5" ry="2.5" style="stroke:#181818;stroke-width:0.5;" width="108" x="1402.5" y="969.1191"/><text fill="#000000" font-family="sans-serif" font-size="14" lengthAdjust="spacing" textLength="50" x="1431.5" y="991.2266">domain:</text><text fill="#000000" font-family="sans-serif" font-size="14" lengthAdjust="spacing" textLength="94" x="1409.5" y="1009.8477">MedicalRecord</text><rect fill="#FFFFFF" height="314.5703" style="stroke:#181818;stroke-width:1.0;" width="10" x="185" y="130.1543"/><rect fill="#FFFFFF" height="451.1035" style="stroke:#181818;stroke-width:1.0;" width="10" x="185" y="501.0156"/><rect fill="#FFFFFF" height="251.9883" style="stroke:#181818;stroke-width:1.0;" width="10" x="421" y="161.4453"/><rect fill="#FFFFFF" height="388.5215" style="stroke:#181818;stroke-width:1.0;" width="10" x="421" y="532.3066"/><rect fill="#FFFFFF" height="28" style="stroke:#181818;stroke-width:1.0;" width="10" x="426" y="854.5371"/><rect fill="#FFFFFF" height="189.4063" style="stroke:#181818;stroke-width:1.0;" width="10" x="866.5" y="192.7363"/><rect fill="#FFFFFF" height="189.4063" style="stroke:#181818;stroke-width:1.0;" width="10" x="866.5" y="625.8398"/><rect fill="#FFFFFF" height="31.291" style="stroke:#181818;stroke-width:1.0;" width="10" x="1168.5" y="224.0273"/><rect fill="#FFFFFF" height="31.291" style="stroke:#181818;stroke-width:1.0;" width="10" x="1168.5" y="657.1309"/><ellipse cx="7.5" cy="129.4043" fill="none" rx="4" ry="4" style="stroke:#181818;stroke-width:1.5;"/><polygon fill="#181818" points="173,126.1543,183,130.1543,173,134.1543,177,130.1543" style="stroke:#181818;stroke-width:1.0;"/><line style="stroke:#181818;stroke-width:1.0;" x1="12" x2="179" y1="130.1543" y2="130.1543"/><text fill="#000000" font-family="sans-serif" font-size="13" font-weight="bold" lengthAdjust="spacing" textLength="7" x="15" y="124.8916">1</text><text fill="#000000" font-family="sans-serif" font-size="13" lengthAdjust="spacing" textLength="34" x="26" y="124.8916">GET()</text><polygon fill="#181818" points="409,157.4453,419,161.4453,409,165.4453,413,161.4453" style="stroke:#181818;stroke-width:1.0;"/><line style="stroke:#181818;stroke-width:1.0;" x1="195" x2="415" y1="161.4453" y2="161.4453"/><text fill="#000000" font-family="sans-serif" font-size="13" font-weight="bold" lengthAdjust="spacing" textLength="7" x="202" y="156.1826">2</text><text fill="#000000" font-family="sans-serif" font-size="13" lengthAdjust="spacing" textLength="134" x="213" y="156.1826">getAllMedicalRecords()</text><polygon fill="#181818" points="854.5,188.7363,864.5,192.7363,854.5,196.7363,858.5,192.7363" style="stroke:#181818;stroke-width:1.0;"/><line style="stroke:#181818;stroke-width:1.0;" x1="431" x2="860.5" y1="192.7363" y2="192.7363"/><text fill="#000000" font-family="sans-serif" font-size="13" font-weight="bold" lengthAdjust="spacing" textLength="7" x="438" y="187.4736">3</text><text fill="#000000" font-family="sans-serif" font-size="13" lengthAdjust="spacing" textLength="134" x="449" y="187.4736">getAllMedicalRecords()</text><polygon fill="#181818" points="1156.5,220.0273,1166.5,224.0273,1156.5,228.0273,1160.5,224.0273" style="stroke:#181818;stroke-width:1.0;"/><line style="stroke:#181818;stroke-width:1.0;" x1="876.5" x2="1162.5" y1="224.0273" y2="224.0273"/><text fill="#000000" font-family="sans-serif" font-size="13" font-weight="bold" lengthAdjust="spacing" textLength="7" x="883.5" y="218.7646">4</text><text fill="#000000" font-family="sans-serif" font-size="13" lengthAdjust="spacing" textLength="43" x="894.5" y="218.7646">findAll()</text><polygon fill="#181818" points="887.5,251.3184,877.5,255.3184,887.5,259.3184,883.5,255.3184" style="stroke:#181818;stroke-width:1.0;"/><line style="stroke:#181818;stroke-width:1.0;stroke-dasharray:2.0,2.0;" x1="881.5" x2="1172.5" y1="255.3184" y2="255.3184"/><text fill="#000000" font-family="sans-serif" font-size="13" font-weight="bold" lengthAdjust="spacing" textLength="7" x="893.5" y="250.0557">5</text><text fill="#000000" font-family="sans-serif" font-size="13" lengthAdjust="spacing" textLength="114" x="904.5" y="250.0557">medicalRecordsList</text><path d="M784,270.3184 L857,270.3184 L857,279.6094 L847,289.6094 L784,289.6094 L784,270.3184 " fill="#EEEEEE" style="stroke:#000000;stroke-width:1.5;"/><rect fill="none" height="81.5332" style="stroke:#000000;stroke-width:1.5;" width="618.5" x="784" y="270.3184"/><text fill="#000000" font-family="sans-serif" font-size="13" font-weight="bold" lengthAdjust="spacing" textLength="28" x="799" y="285.3467">loop</text><text fill="#000000" font-family="sans-serif" font-size="11" font-weight="bold" lengthAdjust="spacing" textLength="207" x="872" y="284.1885">[for all the medical records in the list]</text><polygon fill="#181818" points="1242.5,308.9004,1252.5,312.9004,1242.5,316.9004,1246.5,312.9004" style="stroke:#181818;stroke-width:1.0;"/><line style="stroke:#181818;stroke-width:1.0;" x1="876.5" x2="1248.5" y1="312.9004" y2="312.9004"/><text fill="#000000" font-family="sans-serif" font-size="13" font-weight="bold" lengthAdjust="spacing" textLength="7" x="883.5" y="307.6377">6</text><text fill="#000000" font-family="sans-serif" font-size="13" lengthAdjust="spacing" textLength="131" x="894.5" y="307.6377">toDTO(medicalRecord)</text><rect fill="#E2E2F0" height="51.2422" rx="2.5" ry="2.5" style="stroke:#181818;stroke-width:0.5;" width="138" x="1254.5" y="289.6094"/><text fill="#000000" font-family="sans-serif" font-size="14" lengthAdjust="spacing" textLength="24" x="1311.5" y="311.7168">dto:</text><text fill="#000000" font-family="sans-serif" font-size="14" lengthAdjust="spacing" textLength="124" x="1261.5" y="330.3379">MedicalRecordDTO</text><polygon fill="#181818" points="442,378.1426,432,382.1426,442,386.1426,438,382.1426" style="stroke:#181818;stroke-width:1.0;"/><line style="stroke:#181818;stroke-width:1.0;stroke-dasharray:2.0,2.0;" x1="436" x2="870.5" y1="382.1426" y2="382.1426"/><text fill="#000000" font-family="sans-serif" font-size="13" font-weight="bold" lengthAdjust="spacing" textLength="7" x="448" y="376.8799">7</text><text fill="#000000" font-family="sans-serif" font-size="13" lengthAdjust="spacing" textLength="133" x="459" y="376.8799">medicalRecordDTOList</text><polygon fill="#181818" points="206,409.4336,196,413.4336,206,417.4336,202,413.4336" style="stroke:#181818;stroke-width:1.0;"/><line style="stroke:#181818;stroke-width:1.0;stroke-dasharray:2.0,2.0;" x1="200" x2="425" y1="413.4336" y2="413.4336"/><text fill="#000000" font-family="sans-serif" font-size="13" font-weight="bold" lengthAdjust="spacing" textLength="7" x="212" y="408.1709">8</text><text fill="#000000" font-family="sans-serif" font-size="13" lengthAdjust="spacing" textLength="133" x="223" y="408.1709">medicalRecordDTOList</text><polygon fill="#181818" points="11,440.7246,1,444.7246,11,448.7246,7,444.7246" style="stroke:#181818;stroke-width:1.0;"/><line style="stroke:#181818;stroke-width:1.0;" x1="5" x2="189" y1="444.7246" y2="444.7246"/><text fill="#000000" font-family="sans-serif" font-size="13" font-weight="bold" lengthAdjust="spacing" textLength="7" x="17" y="439.4619">9</text><text fill="#000000" font-family="sans-serif" font-size="13" lengthAdjust="spacing" textLength="155" x="28" y="439.4619">ok(medicalRecordDTOList)</text><ellipse cx="7.5" cy="500.2656" fill="none" rx="4" ry="4" style="stroke:#181818;stroke-width:1.5;"/><polygon fill="#181818" points="173,497.0156,183,501.0156,173,505.0156,177,501.0156" style="stroke:#181818;stroke-width:1.0;"/><line style="stroke:#181818;stroke-width:1.0;" x1="12" x2="179" y1="501.0156" y2="501.0156"/><text fill="#000000" font-family="sans-serif" font-size="13" font-weight="bold" lengthAdjust="spacing" textLength="14" x="15" y="495.7529">10</text><text fill="#000000" font-family="sans-serif" font-size="13" lengthAdjust="spacing" textLength="67" x="33" y="495.7529">POST(json)</text><polygon fill="#181818" points="409,528.3066,419,532.3066,409,536.3066,413,532.3066" style="stroke:#181818;stroke-width:1.0;"/><line style="stroke:#181818;stroke-width:1.0;" x1="195" x2="415" y1="532.3066" y2="532.3066"/><text fill="#000000" font-family="sans-serif" font-size="13" font-weight="bold" lengthAdjust="spacing" textLength="14" x="202" y="527.0439">11</text><text fill="#000000" font-family="sans-serif" font-size="13" lengthAdjust="spacing" textLength="189" x="220" y="527.0439">GetFilteredMedicalRecords(json)</text><polygon fill="#181818" points="530,559.5977,540,563.5977,530,567.5977,534,563.5977" style="stroke:#181818;stroke-width:1.0;"/><line style="stroke:#181818;stroke-width:1.0;" x1="431" x2="536" y1="563.5977" y2="563.5977"/><text fill="#000000" font-family="sans-serif" font-size="13" font-weight="bold" lengthAdjust="spacing" textLength="14" x="438" y="558.335">12</text><text fill="#000000" font-family="sans-serif" font-size="13" lengthAdjust="spacing" textLength="69" x="456" y="558.335">toDTO(json)</text><rect fill="#E2E2F0" height="51.2422" rx="2.5" ry="2.5" style="stroke:#181818;stroke-width:0.5;" width="242" x="542" y="540.3066"/><text fill="#000000" font-family="sans-serif" font-size="14" lengthAdjust="spacing" textLength="40" x="643" y="562.4141">query:</text><text fill="#000000" font-family="sans-serif" font-size="14" lengthAdjust="spacing" textLength="228" x="549" y="581.0352">MedicalRecordQueryParametersDto</text><polygon fill="#181818" points="854.5,621.8398,864.5,625.8398,854.5,629.8398,858.5,625.8398" style="stroke:#181818;stroke-width:1.0;"/><line style="stroke:#181818;stroke-width:1.0;" x1="431" x2="860.5" y1="625.8398" y2="625.8398"/><text fill="#000000" font-family="sans-serif" font-size="13" font-weight="bold" lengthAdjust="spacing" textLength="14" x="438" y="620.5771">13</text><text fill="#000000" font-family="sans-serif" font-size="13" lengthAdjust="spacing" textLength="255" x="456" y="620.5771">FilterMedicalRecords(queryParametersDTO)</text><polygon fill="#181818" points="1156.5,653.1309,1166.5,657.1309,1156.5,661.1309,1160.5,657.1309" style="stroke:#181818;stroke-width:1.0;"/><line style="stroke:#181818;stroke-width:1.0;" x1="876.5" x2="1162.5" y1="657.1309" y2="657.1309"/><text fill="#000000" font-family="sans-serif" font-size="13" font-weight="bold" lengthAdjust="spacing" textLength="14" x="883.5" y="651.8682">14</text><text fill="#000000" font-family="sans-serif" font-size="13" lengthAdjust="spacing" textLength="255" x="901.5" y="651.8682">FilterMedicalRecords(queryParametersDTO)</text><polygon fill="#181818" points="887.5,684.4219,877.5,688.4219,887.5,692.4219,883.5,688.4219" style="stroke:#181818;stroke-width:1.0;"/><line style="stroke:#181818;stroke-width:1.0;stroke-dasharray:2.0,2.0;" x1="881.5" x2="1172.5" y1="688.4219" y2="688.4219"/><text fill="#000000" font-family="sans-serif" font-size="13" font-weight="bold" lengthAdjust="spacing" textLength="14" x="893.5" y="683.1592">15</text><text fill="#000000" font-family="sans-serif" font-size="13" lengthAdjust="spacing" textLength="114" x="911.5" y="683.1592">medicalRecordsList</text><path d="M784,703.4219 L857,703.4219 L857,712.7129 L847,722.7129 L784,722.7129 L784,703.4219 " fill="#EEEEEE" style="stroke:#000000;stroke-width:1.5;"/><rect fill="none" height="81.5332" style="stroke:#000000;stroke-width:1.5;" width="618.5" x="784" y="703.4219"/><text fill="#000000" font-family="sans-serif" font-size="13" font-weight="bold" lengthAdjust="spacing" textLength="28" x="799" y="718.4502">loop</text><text fill="#000000" font-family="sans-serif" font-size="11" font-weight="bold" lengthAdjust="spacing" textLength="207" x="872" y="717.292">[for all the medical records in the list]</text><polygon fill="#181818" points="1242.5,742.0039,1252.5,746.0039,1242.5,750.0039,1246.5,746.0039" style="stroke:#181818;stroke-width:1.0;"/><line style="stroke:#181818;stroke-width:1.0;" x1="876.5" x2="1248.5" y1="746.0039" y2="746.0039"/><text fill="#000000" font-family="sans-serif" font-size="13" font-weight="bold" lengthAdjust="spacing" textLength="14" x="883.5" y="740.7412">16</text><text fill="#000000" font-family="sans-serif" font-size="13" lengthAdjust="spacing" textLength="126" x="901.5" y="740.7412">toDTO(operationType)</text><rect fill="#E2E2F0" height="51.2422" rx="2.5" ry="2.5" style="stroke:#181818;stroke-width:0.5;" width="138" x="1254.5" y="722.7129"/><text fill="#000000" font-family="sans-serif" font-size="14" lengthAdjust="spacing" textLength="24" x="1311.5" y="744.8203">dto:</text><text fill="#000000" font-family="sans-serif" font-size="14" lengthAdjust="spacing" textLength="124" x="1261.5" y="763.4414">MedicalRecordDTO</text><polygon fill="#181818" points="442,811.2461,432,815.2461,442,819.2461,438,815.2461" style="stroke:#181818;stroke-width:1.0;"/><line style="stroke:#181818;stroke-width:1.0;stroke-dasharray:2.0,2.0;" x1="436" x2="870.5" y1="815.2461" y2="815.2461"/><text fill="#000000" font-family="sans-serif" font-size="13" font-weight="bold" lengthAdjust="spacing" textLength="14" x="448" y="809.9834">17</text><text fill="#000000" font-family="sans-serif" font-size="13" lengthAdjust="spacing" textLength="164" x="466" y="809.9834">filterMedicalRecordsDTOList</text><line style="stroke:#181818;stroke-width:1.0;" x1="436" x2="478" y1="846.5371" y2="846.5371"/><line style="stroke:#181818;stroke-width:1.0;" x1="478" x2="478" y1="846.5371" y2="859.5371"/><line style="stroke:#181818;stroke-width:1.0;" x1="437" x2="478" y1="859.5371" y2="859.5371"/><polygon fill="#181818" points="447,855.5371,437,859.5371,447,863.5371,443,859.5371" style="stroke:#181818;stroke-width:1.0;"/><text fill="#000000" font-family="sans-serif" font-size="13" font-weight="bold" lengthAdjust="spacing" textLength="14" x="443" y="841.2744">18</text><text fill="#000000" font-family="sans-serif" font-size="13" lengthAdjust="spacing" textLength="172" x="461" y="841.2744">json(MedicalRecordsDTOList)</text><polygon fill="#181818" points="206,916.8281,196,920.8281,206,924.8281,202,920.8281" style="stroke:#181818;stroke-width:1.0;"/><line style="stroke:#181818;stroke-width:1.0;stroke-dasharray:2.0,2.0;" x1="200" x2="425" y1="920.8281" y2="920.8281"/><text fill="#000000" font-family="sans-serif" font-size="13" font-weight="bold" lengthAdjust="spacing" textLength="14" x="212" y="915.5654">19</text><text fill="#000000" font-family="sans-serif" font-size="13" lengthAdjust="spacing" textLength="24" x="230" y="915.5654">json</text><polygon fill="#181818" points="11,948.1191,1,952.1191,11,956.1191,7,952.1191" style="stroke:#181818;stroke-width:1.0;"/><line style="stroke:#181818;stroke-width:1.0;stroke-dasharray:2.0,2.0;" x1="5" x2="189" y1="952.1191" y2="952.1191"/><text fill="#000000" font-family="sans-serif" font-size="13" font-weight="bold" lengthAdjust="spacing" textLength="14" x="17" y="946.8564">20</text><text fill="#000000" font-family="sans-serif" font-size="13" lengthAdjust="spacing" textLength="46" x="35" y="946.8564">ok(json)</text><!--SRC=[dPHDRnen48Rl_XKMbowH0AazH49LfGgskO1sksnwQI_Exa3SUksDFL15uiVN7uHYGvAcd5RZUSOpxxpctJrYRwQJII-On6qdnetg9WOUjY0R6BMSRJJh246E0kZWTaMln-_7rsDQQjM0CVGRXzyqMy0E1Fr0ztGvBnboaBXaacsWir_30I5iYqfkkplGXFHC8szuRo-a0wss2DCVSWajRvYee56whLnmG9cXLN5Rvp7HA8bQ2G4wnMR74y_EwceHetOg_PXINrsmP7PCGD1cZihJFZolYwHV0th7cxEELo7ioLLU9JD2hmn7TNvtPK_2d7bPn52BAisstVXarrMSgph6PPhkSvVvlCfdX93lQlGfo4cdz2Qlio5X3V8TGpYeJCAfJNFAsQmDu6SXefhc5FC24vzi8JlsFp1E7E9INJTsQ8kikMmj4pNav23-V7GitKL55zmWQI51X58zNIjDcH0Kx-49eZfGb4iV5ewczdTenKfAhwxi9QZiPnPTDIGWM-eg7ph_gr2Nh2TjoayR13fH_pKgwFfnT0JKh-mICupc3plSx_V9hijYLMS_ZPAlB_m6y0iNzXL0csmmuUFDFpsLKmK3a9WZ54zAFoJlhovIkoH-UNkL_xQJSyYRBVMyhLGFsluxAba_zZ3qoSzQQtrXofSTTaITzjb5CbtXcUdElEfgNV9cPCwmx3Cp_W40]--></g></svg>