<?xml version="1.0" encoding="us-ascii" standalone="no"?><svg xmlns="http://www.w3.org/2000/svg" xmlns:xlink="http://www.w3.org/1999/xlink" contentStyleType="text/css" height="652px" preserveAspectRatio="none" style="width:865px;height:652px;background:#FFFFFF;" version="1.1" viewBox="0 0 865 652" width="865px" zoomAndPan="magnify"><defs/><g><text fill="#000000" font-family="sans-serif" font-size="14" font-weight="bold" lengthAdjust="spacing" textLength="321" x="271" y="30.1074">US 7.2.7. Process View (Level 3 | Visualization)</text><rect fill="#FFFFFF" height="427.0742" style="stroke:#181818;stroke-width:1.0;" width="10" x="39" y="133.2422"/><rect fill="#FFFFFF" height="156.4551" style="stroke:#181818;stroke-width:1.0;" width="10" x="322" y="156.5332"/><rect fill="#FFFFFF" height="173.7461" style="stroke:#181818;stroke-width:1.0;" width="10" x="322" y="370.5703"/><rect fill="#FFFFFF" height="93.873" style="stroke:#181818;stroke-width:1.0;" width="10" x="555" y="187.8242"/><rect fill="#FFFFFF" height="93.873" style="stroke:#181818;stroke-width:1.0;" width="10" x="555" y="401.8613"/><rect fill="none" height="224.3281" style="stroke:#000000;stroke-width:1.5;" width="843" x="10" y="327.9883"/><line style="stroke:#181818;stroke-width:0.5;stroke-dasharray:5.0,5.0;" x1="44" x2="44" y1="123.2422" y2="569.3164"/><line style="stroke:#181818;stroke-width:0.5;stroke-dasharray:5.0,5.0;" x1="326.5" x2="326.5" y1="123.2422" y2="569.3164"/><line style="stroke:#181818;stroke-width:0.5;stroke-dasharray:5.0,5.0;" x1="559.5" x2="559.5" y1="123.2422" y2="569.3164"/><text fill="#000000" font-family="sans-serif" font-size="14" lengthAdjust="spacing" textLength="42" x="20" y="119.7285">Doctor</text><ellipse cx="44" cy="53.1211" fill="#E2E2F0" rx="8" ry="8" style="stroke:#181818;stroke-width:0.5;"/><path d="M44,61.1211 L44,88.1211 M31,69.1211 L57,69.1211 M44,88.1211 L31,103.1211 M44,88.1211 L57,103.1211 " fill="none" style="stroke:#181818;stroke-width:0.5;"/><text fill="#000000" font-family="sans-serif" font-size="14" lengthAdjust="spacing" textLength="42" x="20" y="583.4238">Doctor</text><ellipse cx="44" cy="595.4375" fill="#E2E2F0" rx="8" ry="8" style="stroke:#181818;stroke-width:0.5;"/><path d="M44,603.4375 L44,630.4375 M31,611.4375 L57,611.4375 M44,630.4375 L31,645.4375 M44,630.4375 L57,645.4375 " fill="none" style="stroke:#181818;stroke-width:0.5;"/><rect fill="#E2E2F0" height="51.2422" rx="2.5" ry="2.5" style="stroke:#181818;stroke-width:0.5;" width="137" x="258.5" y="71"/><text fill="#000000" font-family="sans-serif" font-size="14" font-style="italic" lengthAdjust="spacing" textLength="86" x="284" y="93.1074">&#171;component&#187;</text><text fill="#000000" font-family="sans-serif" font-size="14" lengthAdjust="spacing" textLength="123" x="265.5" y="111.7285">ListMedicalRecords</text><rect fill="#E2E2F0" height="51.2422" rx="2.5" ry="2.5" style="stroke:#181818;stroke-width:0.5;" width="137" x="258.5" y="568.3164"/><text fill="#000000" font-family="sans-serif" font-size="14" font-style="italic" lengthAdjust="spacing" textLength="86" x="284" y="590.4238">&#171;component&#187;</text><text fill="#000000" font-family="sans-serif" font-size="14" lengthAdjust="spacing" textLength="123" x="265.5" y="609.0449">ListMedicalRecords</text><rect fill="#E2E2F0" height="51.2422" rx="2.5" ry="2.5" style="stroke:#181818;stroke-width:0.5;" width="155" x="482.5" y="71"/><text fill="#000000" font-family="sans-serif" font-size="14" font-style="italic" lengthAdjust="spacing" textLength="60" x="530" y="93.1074">&#171;service&#187;</text><text fill="#000000" font-family="sans-serif" font-size="14" lengthAdjust="spacing" textLength="141" x="489.5" y="111.7285">MedicalRecordService</text><rect fill="#E2E2F0" height="51.2422" rx="2.5" ry="2.5" style="stroke:#181818;stroke-width:0.5;" width="155" x="482.5" y="568.3164"/><text fill="#000000" font-family="sans-serif" font-size="14" font-style="italic" lengthAdjust="spacing" textLength="60" x="530" y="590.4238">&#171;service&#187;</text><text fill="#000000" font-family="sans-serif" font-size="14" lengthAdjust="spacing" textLength="141" x="489.5" y="609.0449">MedicalRecordService</text><rect fill="#FFFFFF" height="427.0742" style="stroke:#181818;stroke-width:1.0;" width="10" x="39" y="133.2422"/><rect fill="#FFFFFF" height="156.4551" style="stroke:#181818;stroke-width:1.0;" width="10" x="322" y="156.5332"/><rect fill="#FFFFFF" height="173.7461" style="stroke:#181818;stroke-width:1.0;" width="10" x="322" y="370.5703"/><rect fill="#FFFFFF" height="93.873" style="stroke:#181818;stroke-width:1.0;" width="10" x="555" y="187.8242"/><rect fill="#FFFFFF" height="93.873" style="stroke:#181818;stroke-width:1.0;" width="10" x="555" y="401.8613"/><polygon fill="#181818" points="310,152.5332,320,156.5332,310,160.5332,314,156.5332" style="stroke:#181818;stroke-width:1.0;"/><line style="stroke:#181818;stroke-width:1.0;" x1="49" x2="316" y1="156.5332" y2="156.5332"/><text fill="#000000" font-family="sans-serif" font-size="13" font-weight="bold" lengthAdjust="spacing" textLength="7" x="56" y="151.2705">1</text><text fill="#000000" font-family="sans-serif" font-size="13" lengthAdjust="spacing" textLength="243" x="67" y="151.2705">asks to search for patient medical records</text><polygon fill="#181818" points="543,183.8242,553,187.8242,543,191.8242,547,187.8242" style="stroke:#181818;stroke-width:1.0;"/><line style="stroke:#181818;stroke-width:1.0;" x1="332" x2="549" y1="187.8242" y2="187.8242"/><text fill="#000000" font-family="sans-serif" font-size="13" font-weight="bold" lengthAdjust="spacing" textLength="7" x="339" y="182.5615">2</text><text fill="#000000" font-family="sans-serif" font-size="13" lengthAdjust="spacing" textLength="134" x="350" y="182.5615">getAllMedicalRecords()</text><ellipse cx="855.5" cy="218.3652" fill="none" rx="4" ry="4" style="stroke:#181818;stroke-width:1.5;"/><polygon fill="#181818" points="838.5,215.1152,848.5,219.1152,838.5,223.1152,842.5,219.1152" style="stroke:#181818;stroke-width:1.0;"/><line style="stroke:#181818;stroke-width:1.0;" x1="565" x2="844.5" y1="219.1152" y2="219.1152"/><text fill="#000000" font-family="sans-serif" font-size="13" font-weight="bold" lengthAdjust="spacing" textLength="7" x="572" y="213.8525">3</text><text fill="#000000" font-family="sans-serif" font-size="13" lengthAdjust="spacing" textLength="123" x="583" y="213.8525">GET: api/get-patients</text><polygon fill="#181818" points="576,246.4063,566,250.4063,576,254.4063,572,250.4063" style="stroke:#181818;stroke-width:1.0;"/><ellipse cx="855.5" cy="249.6563" fill="none" rx="4" ry="4" style="stroke:#181818;stroke-width:1.5;"/><line style="stroke:#181818;stroke-width:1.0;stroke-dasharray:2.0,2.0;" x1="570" x2="851" y1="250.4063" y2="250.4063"/><text fill="#000000" font-family="sans-serif" font-size="13" font-weight="bold" lengthAdjust="spacing" textLength="7" x="582" y="245.1436">4</text><text fill="#000000" font-family="sans-serif" font-size="13" lengthAdjust="spacing" textLength="57" x="593" y="245.1436">Ok(token)</text><polygon fill="#181818" points="343,277.6973,333,281.6973,343,285.6973,339,281.6973" style="stroke:#181818;stroke-width:1.0;"/><line style="stroke:#181818;stroke-width:1.0;stroke-dasharray:2.0,2.0;" x1="337" x2="559" y1="281.6973" y2="281.6973"/><text fill="#000000" font-family="sans-serif" font-size="13" font-weight="bold" lengthAdjust="spacing" textLength="7" x="349" y="276.4346">5</text><text fill="#000000" font-family="sans-serif" font-size="13" lengthAdjust="spacing" textLength="49" x="360" y="276.4346">success</text><polygon fill="#181818" points="60,308.9883,50,312.9883,60,316.9883,56,312.9883" style="stroke:#181818;stroke-width:1.0;"/><line style="stroke:#181818;stroke-width:1.0;stroke-dasharray:2.0,2.0;" x1="54" x2="326" y1="312.9883" y2="312.9883"/><text fill="#000000" font-family="sans-serif" font-size="13" font-weight="bold" lengthAdjust="spacing" textLength="7" x="66" y="307.7256">6</text><text fill="#000000" font-family="sans-serif" font-size="13" lengthAdjust="spacing" textLength="211" x="77" y="307.7256">shows list of patient medical records</text><path d="M10,327.9883 L75,327.9883 L75,337.2793 L65,347.2793 L10,347.2793 L10,327.9883 " fill="#EEEEEE" style="stroke:#000000;stroke-width:1.5;"/><rect fill="none" height="224.3281" style="stroke:#000000;stroke-width:1.5;" width="843" x="10" y="327.9883"/><text fill="#000000" font-family="sans-serif" font-size="13" font-weight="bold" lengthAdjust="spacing" textLength="20" x="25" y="343.0166">opt</text><text fill="#000000" font-family="sans-serif" font-size="11" font-weight="bold" lengthAdjust="spacing" textLength="137" x="90" y="341.8584">[search filters appliance]</text><polygon fill="#181818" points="310,366.5703,320,370.5703,310,374.5703,314,370.5703" style="stroke:#181818;stroke-width:1.0;"/><line style="stroke:#181818;stroke-width:1.0;" x1="49" x2="316" y1="370.5703" y2="370.5703"/><text fill="#000000" font-family="sans-serif" font-size="13" font-weight="bold" lengthAdjust="spacing" textLength="7" x="56" y="365.3076">7</text><text fill="#000000" font-family="sans-serif" font-size="13" lengthAdjust="spacing" textLength="119" x="67" y="365.3076">applies search filters</text><polygon fill="#181818" points="543,397.8613,553,401.8613,543,405.8613,547,401.8613" style="stroke:#181818;stroke-width:1.0;"/><line style="stroke:#181818;stroke-width:1.0;" x1="332" x2="549" y1="401.8613" y2="401.8613"/><text fill="#000000" font-family="sans-serif" font-size="13" font-weight="bold" lengthAdjust="spacing" textLength="7" x="339" y="396.5986">8</text><text fill="#000000" font-family="sans-serif" font-size="13" lengthAdjust="spacing" textLength="193" x="350" y="396.5986">getFilterMedicalRecordsList(json)</text><ellipse cx="855.5" cy="432.4023" fill="none" rx="4" ry="4" style="stroke:#181818;stroke-width:1.5;"/><polygon fill="#181818" points="838.5,429.1523,848.5,433.1523,838.5,437.1523,842.5,433.1523" style="stroke:#181818;stroke-width:1.0;"/><line style="stroke:#181818;stroke-width:1.0;" x1="565" x2="844.5" y1="433.1523" y2="433.1523"/><text fill="#000000" font-family="sans-serif" font-size="13" font-weight="bold" lengthAdjust="spacing" textLength="7" x="572" y="427.8896">9</text><text fill="#000000" font-family="sans-serif" font-size="13" lengthAdjust="spacing" textLength="256" x="583" y="427.8896">GET: /api/MedicalRecord/MedicalRecordList</text><polygon fill="#181818" points="576,460.4434,566,464.4434,576,468.4434,572,464.4434" style="stroke:#181818;stroke-width:1.0;"/><ellipse cx="855.5" cy="463.6934" fill="none" rx="4" ry="4" style="stroke:#181818;stroke-width:1.5;"/><line style="stroke:#181818;stroke-width:1.0;stroke-dasharray:2.0,2.0;" x1="570" x2="851" y1="464.4434" y2="464.4434"/><text fill="#000000" font-family="sans-serif" font-size="13" font-weight="bold" lengthAdjust="spacing" textLength="14" x="582" y="459.1807">10</text><text fill="#000000" font-family="sans-serif" font-size="13" lengthAdjust="spacing" textLength="57" x="600" y="459.1807">Ok(token)</text><polygon fill="#181818" points="343,491.7344,333,495.7344,343,499.7344,339,495.7344" style="stroke:#181818;stroke-width:1.0;"/><line style="stroke:#181818;stroke-width:1.0;stroke-dasharray:2.0,2.0;" x1="337" x2="559" y1="495.7344" y2="495.7344"/><text fill="#000000" font-family="sans-serif" font-size="13" font-weight="bold" lengthAdjust="spacing" textLength="14" x="349" y="490.4717">11</text><text fill="#000000" font-family="sans-serif" font-size="13" lengthAdjust="spacing" textLength="155" x="367" y="490.4717">filtered medical records list</text><polygon fill="#181818" points="60,540.3164,50,544.3164,60,548.3164,56,544.3164" style="stroke:#181818;stroke-width:1.0;"/><line style="stroke:#181818;stroke-width:1.0;stroke-dasharray:2.0,2.0;" x1="54" x2="326" y1="544.3164" y2="544.3164"/><text fill="#000000" font-family="sans-serif" font-size="13" font-weight="bold" lengthAdjust="spacing" textLength="14" x="66" y="530.4082">12</text><text fill="#000000" font-family="sans-serif" font-size="13" lengthAdjust="spacing" textLength="225" x="84" y="521.7627">shows the patient medical records with</text><text fill="#000000" font-family="sans-serif" font-size="13" lengthAdjust="spacing" textLength="106" x="88" y="539.0537">the selected filters</text><!--SRC=[TLB1ZjCm5BpxAvvoeJsaaU2mKbLLGcBXieXemtA2Wt7URamTEzWlhOJuU9xjRhUEs1mI9PcPDpFFRmQYAMoRPZBIqZoQZN9Z4_3tZ5PXtMlvvEKe16ao2DL31pURjvkR3RJUAGm1lcaymUeEZsZW7Vpbzp1Be_z8qiwkAo7aJCxEuq_qGYfo7geFBZuha04UkjjxCKbFMkc93K1rfmDznbuhQUvHET-736nRsEtOs-GiMjhlIrR1wD0VjSB4QpkcXVo1IT62Fah2F3dUeDudzIt33m78GK3frG2Fx7NY63mEngmFFbkwacbR8IATLNZM5fwGtXjJ9bYjNmXj9mG3wxtxmUXFjrzvxgGRfjNdOI41TdMT45yEAt87jEjCosQt46OLwnSz5ih9ISHmC0ODxXJ0SAFW7b_DSYMHqhY9BXLeG-W3EvoCbdmW1F0LnLzAYxymB1W9Lyh2-LgKzJ4HohxY6LZz2dn-BgmYvVF7HOzDBB9GAj-YR47-JyVNqfUCEHJso-fIjHVAOXNFJSKfPvsy3nhmjLt0ITFmtIP8G8EAUEXrfOjTeUs1roN4Fm00]--></g></svg>