<?xml version="1.0" encoding="us-ascii" standalone="no"?><svg xmlns="http://www.w3.org/2000/svg" xmlns:xlink="http://www.w3.org/1999/xlink" contentStyleType="text/css" height="264px" preserveAspectRatio="none" style="width:521px;height:264px;background:#FFFFFF;" version="1.1" viewBox="0 0 521 264" width="521px" zoomAndPan="magnify"><defs/><g><!--cluster <<aggregate Allergy>>--><g id="cluster_&lt;&lt;aggregate Allergy&gt;&gt;"><path d="M8.5,6.0137 L149.5,6.0137 A3.75,3.75 0 0 1 152,8.5137 L159,30.6348 L511.5,30.6348 A2.5,2.5 0 0 1 514,33.1348 L514,254.5137 A2.5,2.5 0 0 1 511.5,257.0137 L8.5,257.0137 A2.5,2.5 0 0 1 6,254.5137 L6,8.5137 A2.5,2.5 0 0 1 8.5,6.0137 " fill="none" style="stroke:#000000;stroke-width:1.5;"/><line style="stroke:#000000;stroke-width:1.5;" x1="6" x2="159" y1="30.6348" y2="30.6348"/><text fill="#000000" font-family="sans-serif" font-size="14" font-weight="bold" lengthAdjust="spacing" textLength="140" x="10" y="23.1211">&#171;aggregate Allergy&#187;</text></g><!--class Allergy--><g id="elem_Allergy"><rect codeLine="7" fill="#F5F5DC" height="68.543" id="Allergy" rx="2.5" ry="2.5" style="stroke:#181818;stroke-width:0.5;" width="75" x="224.5" y="43.0137"/><ellipse cx="239.5" cy="73.2852" fill="#ADD1B2" rx="11" ry="11" style="stroke:#181818;stroke-width:1.0;"/><path d="M238.3594,74.082 L238.3594,76.582 L242.6875,76.582 L242.6875,75.6602 Q242.6875,75.0508 242.9219,74.7852 Q243.1719,74.5195 243.5469,74.5195 Q243.9219,74.5195 244.1563,74.7852 Q244.3906,75.0508 244.3906,75.6602 L244.3906,78.2852 L236.3906,78.2852 Q235.7656,78.2852 235.5,78.0508 Q235.25,77.8164 235.25,77.4258 Q235.25,77.0508 235.5156,76.8164 Q235.7813,76.582 236.3906,76.582 L236.6563,76.582 L236.6563,69.9258 L236.3906,69.9258 Q235.7656,69.9258 235.5,69.6914 Q235.25,69.457 235.25,69.0664 Q235.25,68.6914 235.5,68.457 Q235.7656,68.2227 236.3906,68.2227 L244.0156,68.2227 L244.0156,70.8164 Q244.0156,71.4258 243.7813,71.6914 Q243.5625,71.9414 243.1719,71.9414 Q242.7969,71.9414 242.5625,71.6914 Q242.3281,71.4258 242.3281,70.8164 L242.3281,69.9258 L238.3594,69.9258 L238.3594,72.3789 L239.8438,72.3789 Q239.8438,71.7227 239.9688,71.5352 Q240.2344,71.1289 240.7031,71.1289 Q241.0781,71.1289 241.3125,71.3945 Q241.5469,71.6445 241.5469,72.2539 L241.5469,74.2227 Q241.5469,74.7695 241.4219,74.957 Q241.1563,75.3477 240.7031,75.3477 Q240.2344,75.3477 239.9688,74.9414 Q239.8438,74.7539 239.8438,74.082 L238.3594,74.082 Z " fill="#000000"/><text fill="#000000" font-family="sans-serif" font-size="12" font-style="italic" lengthAdjust="spacing" textLength="43" x="253.5" y="60.9629">&#171;entity&#187;</text><text fill="#000000" font-family="sans-serif" font-size="12" font-style="italic" lengthAdjust="spacing" textLength="35" x="257.5" y="76.9238">&#171;root&#187;</text><text fill="#000000" font-family="sans-serif" font-size="14" lengthAdjust="spacing" textLength="43" x="253.5" y="95.043">Allergy</text><line style="stroke:#181818;stroke-width:0.5;" x1="225.5" x2="298.5" y1="103.5566" y2="103.5566"/></g><!--class AllergyDesignation--><g id="elem_AllergyDesignation"><rect codeLine="8" fill="#F5F5DC" height="52.582" id="AllergyDesignation" rx="2.5" ry="2.5" style="stroke:#181818;stroke-width:0.5;" width="150" x="22" y="180.0137"/><ellipse cx="37" cy="202.3047" fill="#FF8B40" rx="11" ry="11" style="stroke:#181818;stroke-width:1.0;"/><path d="M37.5938,205.5703 L40.0625,199.6953 L39.6719,199.6953 Q39.0625,199.6953 38.7969,199.4609 Q38.5313,199.2266 38.5313,198.8359 Q38.5313,198.4609 38.7969,198.2266 Q39.0625,197.9922 39.6719,197.9922 L41.9531,197.9922 Q42.5625,197.9922 42.8281,198.2266 Q43.0938,198.4609 43.0938,198.8359 Q43.0938,199.3047 42.6875,199.5703 Q42.5,199.6953 41.9063,199.6953 L38.4219,208.0547 L36.7813,208.0547 L33.2969,199.6953 Q32.7031,199.6953 32.5156,199.5703 Q32.1094,199.3047 32.1094,198.8359 Q32.1094,198.4609 32.375,198.2266 Q32.6406,197.9922 33.25,197.9922 L35.5469,197.9922 Q36.1563,197.9922 36.4063,198.2266 Q36.6719,198.4609 36.6719,198.8359 Q36.6719,199.2266 36.4063,199.4609 Q36.1563,199.6953 35.5469,199.6953 L35.1406,199.6953 L37.5938,205.5703 Z " fill="#000000"/><text fill="#000000" font-family="sans-serif" font-size="12" font-style="italic" lengthAdjust="spacing" textLength="81" x="69.5" y="197.9629">&#171;value object&#187;</text><text fill="#000000" font-family="sans-serif" font-size="14" lengthAdjust="spacing" textLength="118" x="51" y="216.082">AllergyDesignation</text><line style="stroke:#181818;stroke-width:0.5;" x1="23" x2="171" y1="224.5957" y2="224.5957"/></g><!--class AllergyCode--><g id="elem_AllergyCode"><rect codeLine="9" fill="#F5F5DC" height="68.543" id="AllergyCode" rx="2.5" ry="2.5" style="stroke:#181818;stroke-width:0.5;" width="109" x="207.5" y="172.0137"/><ellipse cx="222.5" cy="202.2852" fill="#FF8B40" rx="11" ry="11" style="stroke:#181818;stroke-width:1.0;"/><path d="M223.0938,205.5508 L225.5625,199.6758 L225.1719,199.6758 Q224.5625,199.6758 224.2969,199.4414 Q224.0313,199.207 224.0313,198.8164 Q224.0313,198.4414 224.2969,198.207 Q224.5625,197.9727 225.1719,197.9727 L227.4531,197.9727 Q228.0625,197.9727 228.3281,198.207 Q228.5938,198.4414 228.5938,198.8164 Q228.5938,199.2852 228.1875,199.5508 Q228,199.6758 227.4063,199.6758 L223.9219,208.0352 L222.2813,208.0352 L218.7969,199.6758 Q218.2031,199.6758 218.0156,199.5508 Q217.6094,199.2852 217.6094,198.8164 Q217.6094,198.4414 217.875,198.207 Q218.1406,197.9727 218.75,197.9727 L221.0469,197.9727 Q221.6563,197.9727 221.9063,198.207 Q222.1719,198.4414 222.1719,198.8164 Q222.1719,199.207 221.9063,199.4414 Q221.6563,199.6758 221.0469,199.6758 L220.6406,199.6758 L223.0938,205.5508 Z " fill="#000000"/><text fill="#000000" font-family="sans-serif" font-size="12" font-style="italic" lengthAdjust="spacing" textLength="81" x="234.5" y="189.9629">&#171;value object&#187;</text><text fill="#000000" font-family="sans-serif" font-size="12" font-style="italic" lengthAdjust="spacing" textLength="61" x="244.5" y="205.9238">&#171;identifier&#187;</text><text fill="#000000" font-family="sans-serif" font-size="14" lengthAdjust="spacing" textLength="77" x="236.5" y="224.043">AllergyCode</text><line style="stroke:#181818;stroke-width:0.5;" x1="208.5" x2="315.5" y1="232.5566" y2="232.5566"/></g><!--class AllergyDescription--><g id="elem_AllergyDescription"><rect codeLine="10" fill="#F5F5DC" height="52.582" id="AllergyDescription" rx="2.5" ry="2.5" style="stroke:#181818;stroke-width:0.5;" width="146" x="352" y="180.0137"/><ellipse cx="367" cy="202.3047" fill="#FF8B40" rx="11" ry="11" style="stroke:#181818;stroke-width:1.0;"/><path d="M367.5938,205.5703 L370.0625,199.6953 L369.6719,199.6953 Q369.0625,199.6953 368.7969,199.4609 Q368.5313,199.2266 368.5313,198.8359 Q368.5313,198.4609 368.7969,198.2266 Q369.0625,197.9922 369.6719,197.9922 L371.9531,197.9922 Q372.5625,197.9922 372.8281,198.2266 Q373.0938,198.4609 373.0938,198.8359 Q373.0938,199.3047 372.6875,199.5703 Q372.5,199.6953 371.9063,199.6953 L368.4219,208.0547 L366.7813,208.0547 L363.2969,199.6953 Q362.7031,199.6953 362.5156,199.5703 Q362.1094,199.3047 362.1094,198.8359 Q362.1094,198.4609 362.375,198.2266 Q362.6406,197.9922 363.25,197.9922 L365.5469,197.9922 Q366.1563,197.9922 366.4063,198.2266 Q366.6719,198.4609 366.6719,198.8359 Q366.6719,199.2266 366.4063,199.4609 Q366.1563,199.6953 365.5469,199.6953 L365.1406,199.6953 L367.5938,205.5703 Z " fill="#000000"/><text fill="#000000" font-family="sans-serif" font-size="12" font-style="italic" lengthAdjust="spacing" textLength="81" x="397.5" y="197.9629">&#171;value object&#187;</text><text fill="#000000" font-family="sans-serif" font-size="14" lengthAdjust="spacing" textLength="114" x="381" y="216.082">AllergyDescription</text><line style="stroke:#181818;stroke-width:0.5;" x1="353" x2="497" y1="224.5957" y2="224.5957"/></g><!--link Allergy to AllergyCode--><g id="link_Allergy_AllergyCode"><path codeLine="14" d="M262,112.2137 C262,130.5837 262,147.2637 262,165.6537 " fill="none" id="Allergy-to-AllergyCode" style="stroke:#222222;stroke-width:1.0;"/><polygon fill="#222222" points="262,171.6537,266,162.6537,262,166.6537,258,162.6537,262,171.6537" style="stroke:#222222;stroke-width:1.0;"/><text fill="#000000" font-family="sans-serif" font-size="13" lengthAdjust="spacing" textLength="7" x="254.3547" y="160.7565">1</text></g><!--link Allergy to AllergyDescription--><g id="link_Allergy_AllergyDescription"><path codeLine="15" d="M299.81,107.9737 C327.74,129.7337 360.6568,155.3863 387.3568,176.1863 " fill="none" id="Allergy-to-AllergyDescription" style="stroke:#222222;stroke-width:1.0;"/><polygon fill="#222222" points="392.09,179.8737,387.4483,171.1872,388.1456,176.8009,382.5319,177.4982,392.09,179.8737" style="stroke:#222222;stroke-width:1.0;"/><text fill="#000000" font-family="sans-serif" font-size="13" lengthAdjust="spacing" textLength="22" x="359.9358" y="168.8578">0..1</text></g><!--link Allergy to AllergyDesignation--><g id="link_Allergy_AllergyDesignation"><path codeLine="16" d="M224.15,107.6537 C195.79,129.4737 162.1242,155.3835 134.9642,176.2935 " fill="none" id="Allergy-to-AllergyDesignation" style="stroke:#222222;stroke-width:1.0;"/><polygon fill="#222222" points="130.21,179.9537,139.7815,177.6329,134.1719,176.9035,134.9012,171.2939,130.21,179.9537" style="stroke:#222222;stroke-width:1.0;"/><text fill="#000000" font-family="sans-serif" font-size="13" lengthAdjust="spacing" textLength="7" x="130.0804" y="168.9563">1</text></g><!--SRC=[XP11JyCm38Nl-HLMTm69JGLnu115weOcxOp4FUrCCClYoac7nhJ_JkYew2G6Flhvytjst51ehTWjDDx6MAKaL7S9Lms79_f0ADKhhH5mswOzs46EAfw3Szjid70NrWlsB50ZEHmDLIByVf8cTtqfrMR6EeH2Q-kSeBC9eV8UnUsDAU2W81U6HDdwkmzQdnh6Q2tCoPZ3iP_hOmnZZnZ91Pk8GoQkdcyco-N3_BwytbdV8N3zXar6uJTsmVdUlo2jyqToY1T2kR0Z-pT2xR_-N_1HAJLSDvqQA6wBSPHphPpDVkIHowKDeqUeJm00]--></g></svg>