<?xml version="1.0" encoding="us-ascii" standalone="no"?><svg xmlns="http://www.w3.org/2000/svg" xmlns:xlink="http://www.w3.org/1999/xlink" contentStyleType="text/css" height="620px" preserveAspectRatio="none" style="width:1208px;height:620px;background:#FFFFFF;" version="1.1" viewBox="0 0 1208 620" width="1208px" zoomAndPan="magnify"><defs/><g><text fill="#000000" font-family="sans-serif" font-size="14" font-weight="bold" lengthAdjust="spacing" textLength="326" x="437.25" y="30.1074">US 6.2.3 - Process View [Level 3 | Visualization]</text><rect fill="#FFFFFF" height="179.7461" style="stroke:#181818;stroke-width:1.0;" width="10" x="373" y="156.5332"/><rect fill="#FFFFFF" height="151.7461" style="stroke:#181818;stroke-width:1.0;" width="10" x="579.5" y="367.5703"/><rect fill="#FFFFFF" height="117.1641" style="stroke:#181818;stroke-width:1.0;" width="10" x="739.5" y="187.8242"/><line style="stroke:#181818;stroke-width:0.5;stroke-dasharray:5.0,5.0;" x1="30" x2="30" y1="123.2422" y2="537.3164"/><line style="stroke:#181818;stroke-width:0.5;stroke-dasharray:5.0,5.0;" x1="377.5" x2="377.5" y1="123.2422" y2="537.3164"/><line style="stroke:#181818;stroke-width:0.5;stroke-dasharray:5.0,5.0;" x1="584.5" x2="584.5" y1="123.2422" y2="537.3164"/><line style="stroke:#181818;stroke-width:0.5;stroke-dasharray:5.0,5.0;" x1="744.5" x2="744.5" y1="123.2422" y2="537.3164"/><text fill="#000000" font-family="sans-serif" font-size="14" lengthAdjust="spacing" textLength="44" x="5" y="119.7285">Patient</text><ellipse cx="30" cy="53.1211" fill="#E2E2F0" rx="8" ry="8" style="stroke:#181818;stroke-width:0.5;"/><path d="M30,61.1211 L30,88.1211 M17,69.1211 L43,69.1211 M30,88.1211 L17,103.1211 M30,88.1211 L43,103.1211 " fill="none" style="stroke:#181818;stroke-width:0.5;"/><text fill="#000000" font-family="sans-serif" font-size="14" lengthAdjust="spacing" textLength="44" x="5" y="551.4238">Patient</text><ellipse cx="30" cy="563.4375" fill="#E2E2F0" rx="8" ry="8" style="stroke:#181818;stroke-width:0.5;"/><path d="M30,571.4375 L30,598.4375 M17,579.4375 L43,579.4375 M30,598.4375 L17,613.4375 M30,598.4375 L43,613.4375 " fill="none" style="stroke:#181818;stroke-width:0.5;"/><rect fill="#E2E2F0" height="51.2422" rx="2.5" ry="2.5" style="stroke:#181818;stroke-width:0.5;" width="183" x="286.5" y="71"/><text fill="#000000" font-family="sans-serif" font-size="14" font-style="italic" lengthAdjust="spacing" textLength="86" x="335" y="93.1074">&#171;component&#187;</text><text fill="#000000" font-family="sans-serif" font-size="14" lengthAdjust="spacing" textLength="169" x="293.5" y="111.7285">Patient PatientPreferences</text><rect fill="#E2E2F0" height="51.2422" rx="2.5" ry="2.5" style="stroke:#181818;stroke-width:0.5;" width="183" x="286.5" y="536.3164"/><text fill="#000000" font-family="sans-serif" font-size="14" font-style="italic" lengthAdjust="spacing" textLength="86" x="335" y="558.4238">&#171;component&#187;</text><text fill="#000000" font-family="sans-serif" font-size="14" lengthAdjust="spacing" textLength="169" x="293.5" y="577.0449">Patient PatientPreferences</text><rect fill="#E2E2F0" height="51.2422" rx="2.5" ry="2.5" style="stroke:#181818;stroke-width:0.5;" width="210" x="479.5" y="71"/><text fill="#000000" font-family="sans-serif" font-size="14" font-style="italic" lengthAdjust="spacing" textLength="86" x="541.5" y="93.1074">&#171;component&#187;</text><text fill="#000000" font-family="sans-serif" font-size="14" lengthAdjust="spacing" textLength="196" x="486.5" y="111.7285">PatientAccountDeletionConfirm</text><rect fill="#E2E2F0" height="51.2422" rx="2.5" ry="2.5" style="stroke:#181818;stroke-width:0.5;" width="210" x="479.5" y="536.3164"/><text fill="#000000" font-family="sans-serif" font-size="14" font-style="italic" lengthAdjust="spacing" textLength="86" x="541.5" y="558.4238">&#171;component&#187;</text><text fill="#000000" font-family="sans-serif" font-size="14" lengthAdjust="spacing" textLength="196" x="486.5" y="577.0449">PatientAccountDeletionConfirm</text><rect fill="#E2E2F0" height="51.2422" rx="2.5" ry="2.5" style="stroke:#181818;stroke-width:0.5;" width="90" x="699.5" y="71"/><text fill="#000000" font-family="sans-serif" font-size="14" font-style="italic" lengthAdjust="spacing" textLength="60" x="714.5" y="93.1074">&#171;service&#187;</text><text fill="#000000" font-family="sans-serif" font-size="14" lengthAdjust="spacing" textLength="76" x="706.5" y="111.7285">UserService</text><rect fill="#E2E2F0" height="51.2422" rx="2.5" ry="2.5" style="stroke:#181818;stroke-width:0.5;" width="90" x="699.5" y="536.3164"/><text fill="#000000" font-family="sans-serif" font-size="14" font-style="italic" lengthAdjust="spacing" textLength="60" x="714.5" y="558.4238">&#171;service&#187;</text><text fill="#000000" font-family="sans-serif" font-size="14" lengthAdjust="spacing" textLength="76" x="706.5" y="577.0449">UserService</text><rect fill="#FFFFFF" height="179.7461" style="stroke:#181818;stroke-width:1.0;" width="10" x="373" y="156.5332"/><rect fill="#FFFFFF" height="151.7461" style="stroke:#181818;stroke-width:1.0;" width="10" x="579.5" y="367.5703"/><rect fill="#FFFFFF" height="117.1641" style="stroke:#181818;stroke-width:1.0;" width="10" x="739.5" y="187.8242"/><polygon fill="#181818" points="361,152.5332,371,156.5332,361,160.5332,365,156.5332" style="stroke:#181818;stroke-width:1.0;"/><line style="stroke:#181818;stroke-width:1.0;" x1="30" x2="367" y1="156.5332" y2="156.5332"/><text fill="#000000" font-family="sans-serif" font-size="13" font-weight="bold" lengthAdjust="spacing" textLength="7" x="37" y="151.2705">1</text><text fill="#000000" font-family="sans-serif" font-size="13" lengthAdjust="spacing" textLength="165" x="48" y="151.2705">clicks "Delete Profile" button</text><polygon fill="#181818" points="727.5,183.8242,737.5,187.8242,727.5,191.8242,731.5,187.8242" style="stroke:#181818;stroke-width:1.0;"/><line style="stroke:#181818;stroke-width:1.0;" x1="383" x2="733.5" y1="187.8242" y2="187.8242"/><text fill="#000000" font-family="sans-serif" font-size="13" font-weight="bold" lengthAdjust="spacing" textLength="7" x="390" y="182.5615">2</text><text fill="#000000" font-family="sans-serif" font-size="13" lengthAdjust="spacing" textLength="169" x="401" y="182.5615">sendAccountDeleteRequest()</text><ellipse cx="1193" cy="218.3652" fill="none" rx="4" ry="4" style="stroke:#181818;stroke-width:1.5;"/><polygon fill="#181818" points="1176,215.1152,1186,219.1152,1176,223.1152,1180,219.1152" style="stroke:#181818;stroke-width:1.0;"/><line style="stroke:#181818;stroke-width:1.0;" x1="749.5" x2="1182" y1="219.1152" y2="219.1152"/><text fill="#000000" font-family="sans-serif" font-size="13" font-weight="bold" lengthAdjust="spacing" textLength="7" x="756.5" y="213.8525">3</text><text fill="#000000" font-family="sans-serif" font-size="13" lengthAdjust="spacing" textLength="308" x="767.5" y="213.8525">DELETE: /api/Delete-PatientAccountDeletionRequest</text><polygon fill="#181818" points="760.5,258.0518,750.5,262.0518,760.5,266.0518,756.5,262.0518" style="stroke:#181818;stroke-width:1.0;"/><ellipse cx="1193" cy="261.3018" fill="none" rx="4" ry="4" style="stroke:#181818;stroke-width:1.5;"/><line style="stroke:#181818;stroke-width:1.0;stroke-dasharray:2.0,2.0;" x1="754.5" x2="1188.5" y1="262.0518" y2="262.0518"/><text fill="#000000" font-family="sans-serif" font-size="13" font-weight="bold" lengthAdjust="spacing" textLength="7" x="766.5" y="256.7891">4</text><text fill="#000000" font-family="sans-serif" font-size="13" lengthAdjust="spacing" textLength="25" x="777.5" y="256.7891">Ok()</text><path d="M604,232.1152 L604,276.1152 L734,276.1152 L734,242.1152 L724,232.1152 L604,232.1152 " fill="#FEFFDD" style="stroke:#181818;stroke-width:0.5;"/><path d="M724,232.1152 L724,242.1152 L734,242.1152 L724,232.1152 " fill="#FEFFDD" style="stroke:#181818;stroke-width:0.5;"/><text fill="#000000" font-family="sans-serif" font-size="13" lengthAdjust="spacing" textLength="109" x="610" y="251.1436">An email is sent to</text><text fill="#000000" font-family="sans-serif" font-size="13" lengthAdjust="spacing" textLength="96" x="614" y="268.4346">the patient inbox</text><polygon fill="#181818" points="394,300.9883,384,304.9883,394,308.9883,390,304.9883" style="stroke:#181818;stroke-width:1.0;"/><line style="stroke:#181818;stroke-width:1.0;stroke-dasharray:2.0,2.0;" x1="388" x2="743.5" y1="304.9883" y2="304.9883"/><text fill="#000000" font-family="sans-serif" font-size="13" font-weight="bold" lengthAdjust="spacing" textLength="7" x="400" y="299.7256">5</text><text fill="#000000" font-family="sans-serif" font-size="13" lengthAdjust="spacing" textLength="49" x="411" y="299.7256">success</text><polygon fill="#181818" points="41,332.2793,31,336.2793,41,340.2793,37,336.2793" style="stroke:#181818;stroke-width:1.0;"/><line style="stroke:#181818;stroke-width:1.0;stroke-dasharray:2.0,2.0;" x1="35" x2="377" y1="336.2793" y2="336.2793"/><text fill="#000000" font-family="sans-serif" font-size="13" font-weight="bold" lengthAdjust="spacing" textLength="7" x="47" y="331.0166">6</text><text fill="#000000" font-family="sans-serif" font-size="13" lengthAdjust="spacing" textLength="308" x="58" y="331.0166">"An email to confirm the account's deletion was sent"</text><polygon fill="#181818" points="567.5,363.5703,577.5,367.5703,567.5,371.5703,571.5,367.5703" style="stroke:#181818;stroke-width:1.0;"/><line style="stroke:#181818;stroke-width:1.0;" x1="30" x2="573.5" y1="367.5703" y2="367.5703"/><text fill="#000000" font-family="sans-serif" font-size="13" font-weight="bold" lengthAdjust="spacing" textLength="7" x="37" y="362.3076">7</text><text fill="#000000" font-family="sans-serif" font-size="13" lengthAdjust="spacing" textLength="213" x="48" y="362.3076">gets redirected from confirmation link</text><polygon fill="#181818" points="1181,423.7979,1191,427.7979,1181,431.7979,1185,427.7979" style="stroke:#181818;stroke-width:1.0;"/><line style="stroke:#181818;stroke-width:1.0;" x1="589.5" x2="1187" y1="427.7979" y2="427.7979"/><text fill="#000000" font-family="sans-serif" font-size="13" font-weight="bold" lengthAdjust="spacing" textLength="7" x="596.5" y="422.5352">8</text><text fill="#000000" font-family="sans-serif" font-size="13" lengthAdjust="spacing" textLength="574" x="607.5" y="422.5352">PUT(userId, token) : /api/Update-PatientAccountDeletionConfirmation?userId=VALUEtoken=VALUE</text><path d="M412,380.5703 L412,459.5703 L574,459.5703 L574,390.5703 L564,380.5703 L412,380.5703 " fill="#FEFFDD" style="stroke:#181818;stroke-width:0.5;"/><path d="M564,380.5703 L564,390.5703 L574,390.5703 L564,380.5703 " fill="#FEFFDD" style="stroke:#181818;stroke-width:0.5;"/><text fill="#000000" font-family="sans-serif" font-size="13" lengthAdjust="spacing" textLength="141" x="418" y="399.5986">Token and userID values</text><text fill="#000000" font-family="sans-serif" font-size="13" lengthAdjust="spacing" textLength="133" x="418" y="416.8896">are passed through the</text><text fill="#000000" font-family="sans-serif" font-size="13" lengthAdjust="spacing" textLength="120" x="418" y="434.1807">confirmation link that</text><text fill="#000000" font-family="sans-serif" font-size="13" lengthAdjust="spacing" textLength="52" x="418" y="451.4717">was sent</text><polygon fill="#181818" points="600.5,484.0254,590.5,488.0254,600.5,492.0254,596.5,488.0254" style="stroke:#181818;stroke-width:1.0;"/><ellipse cx="1193" cy="487.2754" fill="none" rx="4" ry="4" style="stroke:#181818;stroke-width:1.5;"/><line style="stroke:#181818;stroke-width:1.0;stroke-dasharray:2.0,2.0;" x1="594.5" x2="1188.5" y1="488.0254" y2="488.0254"/><text fill="#000000" font-family="sans-serif" font-size="13" font-weight="bold" lengthAdjust="spacing" textLength="7" x="606.5" y="482.7627">9</text><text fill="#000000" font-family="sans-serif" font-size="13" lengthAdjust="spacing" textLength="25" x="617.5" y="482.7627">Ok()</text><polygon fill="#181818" points="41,515.3164,31,519.3164,41,523.3164,37,519.3164" style="stroke:#181818;stroke-width:1.0;"/><line style="stroke:#181818;stroke-width:1.0;stroke-dasharray:2.0,2.0;" x1="35" x2="583.5" y1="519.3164" y2="519.3164"/><text fill="#000000" font-family="sans-serif" font-size="13" font-weight="bold" lengthAdjust="spacing" textLength="14" x="47" y="514.0537">10</text><text fill="#000000" font-family="sans-serif" font-size="13" lengthAdjust="spacing" textLength="49" x="65" y="514.0537">success</text><!--SRC=[VLDTQzim57tNhxZufIqqAQomXv1bcDgCGc0XYVjI-g38ruc8B7cId7PZFtvNajDvB9kVR4ddw7nSU-aLGbPjuEFqm_GU9h2oHg1py2Jn5PwNU485z_2JlbtFbVp1lJJw9MFiAdV0OKNVgFqjFC8hrnwyWHeLUeJsEt0XJ4-BNDV0bGBkd16IUwoXvfxVWZFW3zmJM70D-8PMI1UXLkuFaMs7q1YxDzwZ9WBeqCANOhMUCdfuxutksnrQneKt5h91JnQELfjopJfklHIo2-BEksVLAuiDMjHaE09MESpdmhITqRIxM5m4vybK4LnI50z6DzAswSAy-1z1vT1kq9wam44VdNPfWSuo5WJ3P15qp40eAOuEiYB5IRqqKX5mrtio7VpA4myREMC481ZnpS2XhiSISOtVUdJ- -kOtfDg4kmXYNWXHbCjoMyxWZdVoBc4cbxqEL14ydqmY-kkHcBKXrbWPowd7bai5qWKjeKD69IDqG_PIxymR8vKGK4b8z4pQUn5cZzNuXzJWBjehrpF8tY-WuH0f_CW_3DkLImD8ScaYauPip1ZoEWST2fl17hq3YxMqAC9iDjQqP-euxg2aFexYomkY8EWGuAhQNlVKusDzIwAEg6zWIBFgQCx_bUR3w8RF2V_fALzMPUH8hobPXOrdsx0QVwLuje0JLzG6upPawnm9zmTh-lqXnC7-qX__D7QEP5n0cDfncydRU-ANMg44VW40]--></g></svg>