<?xml version="1.0" encoding="us-ascii" standalone="no"?><svg xmlns="http://www.w3.org/2000/svg" xmlns:xlink="http://www.w3.org/1999/xlink" contentStyleType="text/css" height="471px" preserveAspectRatio="none" style="width:570px;height:471px;background:#FFFFFF;" version="1.1" viewBox="0 0 570 471" width="570px" zoomAndPan="magnify"><defs/><g><text fill="#000000" font-family="sans-serif" font-size="14" font-weight="bold" lengthAdjust="spacing" textLength="378" x="94.75" y="30.1074">Listing US 6.2.X - Process View [Level 3 | Visualization]</text><rect fill="#FFFFFF" height="214.3281" style="stroke:#181818;stroke-width:1.0;" width="10" x="137.5" y="156.5332"/><rect fill="#FFFFFF" height="122.8096" style="stroke:#181818;stroke-width:1.0;" width="10" x="361.5" y="216.7607"/><line style="stroke:#181818;stroke-width:0.5;stroke-dasharray:5.0,5.0;" x1="27" x2="27" y1="123.2422" y2="388.8613"/><line style="stroke:#181818;stroke-width:0.5;stroke-dasharray:5.0,5.0;" x1="142.5" x2="142.5" y1="123.2422" y2="388.8613"/><line style="stroke:#181818;stroke-width:0.5;stroke-dasharray:5.0,5.0;" x1="366.5" x2="366.5" y1="123.2422" y2="388.8613"/><text fill="#000000" font-family="sans-serif" font-size="14" lengthAdjust="spacing" textLength="39" x="5" y="119.7285">Admin</text><ellipse cx="27.5" cy="53.1211" fill="#E2E2F0" rx="8" ry="8" style="stroke:#181818;stroke-width:0.5;"/><path d="M27.5,61.1211 L27.5,88.1211 M14.5,69.1211 L40.5,69.1211 M27.5,88.1211 L14.5,103.1211 M27.5,88.1211 L40.5,103.1211 " fill="none" style="stroke:#181818;stroke-width:0.5;"/><text fill="#000000" font-family="sans-serif" font-size="14" lengthAdjust="spacing" textLength="39" x="5" y="402.9688">Admin</text><ellipse cx="27.5" cy="414.9824" fill="#E2E2F0" rx="8" ry="8" style="stroke:#181818;stroke-width:0.5;"/><path d="M27.5,422.9824 L27.5,449.9824 M14.5,430.9824 L40.5,430.9824 M27.5,449.9824 L14.5,464.9824 M27.5,449.9824 L40.5,464.9824 " fill="none" style="stroke:#181818;stroke-width:0.5;"/><rect fill="#E2E2F0" height="51.2422" rx="2.5" ry="2.5" style="stroke:#181818;stroke-width:0.5;" width="118" x="83.5" y="71"/><text fill="#000000" font-family="sans-serif" font-size="14" font-style="italic" lengthAdjust="spacing" textLength="86" x="99.5" y="93.1074">&#171;component&#187;</text><text fill="#000000" font-family="sans-serif" font-size="14" lengthAdjust="spacing" textLength="104" x="90.5" y="111.7285">X Profiles Listing</text><rect fill="#E2E2F0" height="51.2422" rx="2.5" ry="2.5" style="stroke:#181818;stroke-width:0.5;" width="118" x="83.5" y="387.8613"/><text fill="#000000" font-family="sans-serif" font-size="14" font-style="italic" lengthAdjust="spacing" textLength="86" x="99.5" y="409.9688">&#171;component&#187;</text><text fill="#000000" font-family="sans-serif" font-size="14" lengthAdjust="spacing" textLength="104" x="90.5" y="428.5898">X Profiles Listing</text><rect fill="#E2E2F0" height="51.2422" rx="2.5" ry="2.5" style="stroke:#181818;stroke-width:0.5;" width="74" x="329.5" y="71"/><text fill="#000000" font-family="sans-serif" font-size="14" font-style="italic" lengthAdjust="spacing" textLength="60" x="336.5" y="93.1074">&#171;service&#187;</text><text fill="#000000" font-family="sans-serif" font-size="14" lengthAdjust="spacing" textLength="55" x="339" y="111.7285">XService</text><rect fill="#E2E2F0" height="51.2422" rx="2.5" ry="2.5" style="stroke:#181818;stroke-width:0.5;" width="74" x="329.5" y="387.8613"/><text fill="#000000" font-family="sans-serif" font-size="14" font-style="italic" lengthAdjust="spacing" textLength="60" x="336.5" y="409.9688">&#171;service&#187;</text><text fill="#000000" font-family="sans-serif" font-size="14" lengthAdjust="spacing" textLength="55" x="339" y="428.5898">XService</text><rect fill="#FFFFFF" height="214.3281" style="stroke:#181818;stroke-width:1.0;" width="10" x="137.5" y="156.5332"/><rect fill="#FFFFFF" height="122.8096" style="stroke:#181818;stroke-width:1.0;" width="10" x="361.5" y="216.7607"/><polygon fill="#181818" points="125.5,152.5332,135.5,156.5332,125.5,160.5332,129.5,156.5332" style="stroke:#181818;stroke-width:1.0;"/><line style="stroke:#181818;stroke-width:1.0;" x1="27.5" x2="131.5" y1="156.5332" y2="156.5332"/><text fill="#000000" font-family="sans-serif" font-size="13" font-weight="bold" lengthAdjust="spacing" textLength="7" x="34.5" y="151.2705">1</text><text fill="#000000" font-family="sans-serif" font-size="13" lengthAdjust="spacing" textLength="80" x="45.5" y="151.2705">get all profiles</text><polygon fill="#181818" points="349.5,212.7607,359.5,216.7607,349.5,220.7607,353.5,216.7607" style="stroke:#181818;stroke-width:1.0;"/><line style="stroke:#181818;stroke-width:1.0;" x1="147.5" x2="355.5" y1="216.7607" y2="216.7607"/><text fill="#000000" font-family="sans-serif" font-size="13" font-weight="bold" lengthAdjust="spacing" textLength="7" x="154.5" y="211.498">2</text><text fill="#000000" font-family="sans-serif" font-size="13" lengthAdjust="spacing" textLength="184" x="165.5" y="211.498">getXByFilters(queryParameters)</text><path d="M376,169.5332 L376,248.5332 L563,248.5332 L563,179.5332 L553,169.5332 L376,169.5332 " fill="#FEFFDD" style="stroke:#181818;stroke-width:0.5;"/><path d="M553,169.5332 L553,179.5332 L563,179.5332 L553,169.5332 " fill="#FEFFDD" style="stroke:#181818;stroke-width:0.5;"/><text fill="#000000" font-family="sans-serif" font-size="13" lengthAdjust="spacing" textLength="163" x="382" y="188.5615">if queryParameters is empty</text><text fill="#000000" font-family="sans-serif" font-size="13" lengthAdjust="spacing" textLength="145" x="382" y="205.8525">then no filters are applied</text><text fill="#000000" font-family="sans-serif" font-size="13" lengthAdjust="spacing" textLength="160" x="382" y="223.1436">and the whole list of profiles</text><text fill="#000000" font-family="sans-serif" font-size="13" lengthAdjust="spacing" textLength="166" x="382" y="240.4346">is retrieved from the backend</text><ellipse cx="560" cy="276.2383" fill="none" rx="4" ry="4" style="stroke:#181818;stroke-width:1.5;"/><polygon fill="#181818" points="543,272.9883,553,276.9883,543,280.9883,547,276.9883" style="stroke:#181818;stroke-width:1.0;"/><line style="stroke:#181818;stroke-width:1.0;" x1="371.5" x2="549" y1="276.9883" y2="276.9883"/><text fill="#000000" font-family="sans-serif" font-size="13" font-weight="bold" lengthAdjust="spacing" textLength="7" x="378.5" y="271.7256">3</text><text fill="#000000" font-family="sans-serif" font-size="13" lengthAdjust="spacing" textLength="145" x="389.5" y="271.7256">GET: /api/X/Get-XProfiles</text><polygon fill="#181818" points="382.5,304.2793,372.5,308.2793,382.5,312.2793,378.5,308.2793" style="stroke:#181818;stroke-width:1.0;"/><ellipse cx="560" cy="307.5293" fill="none" rx="4" ry="4" style="stroke:#181818;stroke-width:1.5;"/><line style="stroke:#181818;stroke-width:1.0;stroke-dasharray:2.0,2.0;" x1="376.5" x2="555.5" y1="308.2793" y2="308.2793"/><text fill="#000000" font-family="sans-serif" font-size="13" font-weight="bold" lengthAdjust="spacing" textLength="7" x="388.5" y="303.0166">4</text><text fill="#000000" font-family="sans-serif" font-size="13" lengthAdjust="spacing" textLength="42" x="399.5" y="303.0166">Ok(list)</text><polygon fill="#181818" points="158.5,335.5703,148.5,339.5703,158.5,343.5703,154.5,339.5703" style="stroke:#181818;stroke-width:1.0;"/><line style="stroke:#181818;stroke-width:1.0;stroke-dasharray:2.0,2.0;" x1="152.5" x2="365.5" y1="339.5703" y2="339.5703"/><text fill="#000000" font-family="sans-serif" font-size="13" font-weight="bold" lengthAdjust="spacing" textLength="7" x="164.5" y="334.3076">5</text><text fill="#000000" font-family="sans-serif" font-size="13" lengthAdjust="spacing" textLength="73" x="175.5" y="334.3076">X profiles list</text><polygon fill="#181818" points="38.5,366.8613,28.5,370.8613,38.5,374.8613,34.5,370.8613" style="stroke:#181818;stroke-width:1.0;"/><line style="stroke:#181818;stroke-width:1.0;" x1="32.5" x2="141.5" y1="370.8613" y2="370.8613"/><text fill="#000000" font-family="sans-serif" font-size="13" font-weight="bold" lengthAdjust="spacing" textLength="7" x="44.5" y="365.5986">6</text><text fill="#000000" font-family="sans-serif" font-size="13" lengthAdjust="spacing" textLength="73" x="55.5" y="365.5986">X profiles list</text><!--SRC=[VP11Q-Cm48Nlyoi6NzeU74CNzX12O0jjBu66JNSnb1vKUvmCbIMjD4v9sH-_8oLjsHvwC5YQRzvxUcSxaP3cJHEiSJADTjRviKdqPoBNKTspsKOp0WYB9QnMd8JT5dzjyFliSjPYZUleEqe9VpEzuCEAzcJn6_xLSvgCvLSZxDrZ1M0cyMuQdoZgVoS-OlMZ7zbLQ98ANl-4OA9mnq6JODLcvO4j9Jov5d2zNk5YeI63T-HakVoqjQ6uvuuAssuKJSSB1I6ROBqi6dFSag2n5iF99eVYlH7ASu0CAQiQ1Msl3ZTiXM8wrsxYOMsq5yhd2t1Ubo9lTuB00twQ8oUaCSW1P4SEdSVXA8Gc4feGB5CFnlMeStpPUItQwelH3n_PL2EIHDPwUnoY7mlyPBfdSZteXpd4nnFQ3O16hvV-KVFVNj_FiJ61cxQv9QdRjseBjAZhGjqzdsVV2pYklXVLliSekQ2d_snEHPLoluHphVy0]--></g></svg>