<?xml version="1.0" encoding="us-ascii" standalone="no"?><svg xmlns="http://www.w3.org/2000/svg" xmlns:xlink="http://www.w3.org/1999/xlink" contentStyleType="text/css" height="866px" preserveAspectRatio="none" style="width:573px;height:866px;background:#FFFFFF;" version="1.1" viewBox="0 0 573 866" width="573px" zoomAndPan="magnify"><defs/><g><text fill="#000000" font-family="sans-serif" font-size="14" font-weight="bold" lengthAdjust="spacing" textLength="230" x="172.75" y="30.1074">US 6.2.21. Process View (Level 2)</text><rect fill="#FFFFFF" height="632.1602" style="stroke:#181818;stroke-width:1.0;" width="10" x="37.5" y="133.2422"/><rect fill="#FFFFFF" height="93.873" style="stroke:#181818;stroke-width:1.0;" width="10" x="277.5" y="156.5332"/><rect fill="#FFFFFF" height="93.873" style="stroke:#181818;stroke-width:1.0;" width="10" x="277.5" y="332.9883"/><rect fill="#FFFFFF" height="31.291" style="stroke:#181818;stroke-width:1.0;" width="10" x="277.5" y="465.1523"/><rect fill="#FFFFFF" height="211.377" style="stroke:#181818;stroke-width:1.0;" width="10" x="277.5" y="554.0254"/><rect fill="#FFFFFF" height="31.291" style="stroke:#181818;stroke-width:1.0;" width="10" x="501.5" y="187.8242"/><rect fill="#FFFFFF" height="31.291" style="stroke:#181818;stroke-width:1.0;" width="10" x="501.5" y="364.2793"/><rect fill="#FFFFFF" height="31.291" style="stroke:#181818;stroke-width:1.0;" width="10" x="501.5" y="585.3164"/><rect fill="#FFFFFF" height="31.291" style="stroke:#181818;stroke-width:1.0;" width="10" x="501.5" y="695.8203"/><rect fill="none" height="144.4551" style="stroke:#000000;stroke-width:1.5;" width="556.5" x="10" y="290.4063"/><rect fill="none" height="223.668" style="stroke:#000000;stroke-width:1.5;" width="556.5" x="10" y="511.4434"/><line style="stroke:#181818;stroke-width:0.5;stroke-dasharray:5.0,5.0;" x1="42" x2="42" y1="123.2422" y2="783.4023"/><line style="stroke:#181818;stroke-width:0.5;stroke-dasharray:5.0,5.0;" x1="282.5" x2="282.5" y1="123.2422" y2="783.4023"/><line style="stroke:#181818;stroke-width:0.5;stroke-dasharray:5.0,5.0;" x1="506.5" x2="506.5" y1="123.2422" y2="783.4023"/><text fill="#000000" font-family="sans-serif" font-size="14" lengthAdjust="spacing" textLength="39" x="20" y="119.7285">Admin</text><ellipse cx="42.5" cy="53.1211" fill="#E2E2F0" rx="8" ry="8" style="stroke:#181818;stroke-width:0.5;"/><path d="M42.5,61.1211 L42.5,88.1211 M29.5,69.1211 L55.5,69.1211 M42.5,88.1211 L29.5,103.1211 M42.5,88.1211 L55.5,103.1211 " fill="none" style="stroke:#181818;stroke-width:0.5;"/><text fill="#000000" font-family="sans-serif" font-size="14" lengthAdjust="spacing" textLength="39" x="20" y="797.5098">Admin</text><ellipse cx="42.5" cy="809.5234" fill="#E2E2F0" rx="8" ry="8" style="stroke:#181818;stroke-width:0.5;"/><path d="M42.5,817.5234 L42.5,844.5234 M29.5,825.5234 L55.5,825.5234 M42.5,844.5234 L29.5,859.5234 M42.5,844.5234 L55.5,859.5234 " fill="none" style="stroke:#181818;stroke-width:0.5;"/><rect fill="#E2E2F0" height="51.2422" rx="2.5" ry="2.5" style="stroke:#181818;stroke-width:0.5;" width="122" x="221.5" y="71"/><text fill="#000000" font-family="sans-serif" font-size="14" lengthAdjust="spacing" textLength="86" x="239.5" y="93.1074">&#171;component&#187;</text><text fill="#000000" font-family="sans-serif" font-size="14" lengthAdjust="spacing" textLength="104" x="232.5" y="111.7285">Visualization (UI)</text><rect fill="#E2E2F0" height="51.2422" rx="2.5" ry="2.5" style="stroke:#181818;stroke-width:0.5;" width="122" x="221.5" y="782.4023"/><text fill="#000000" font-family="sans-serif" font-size="14" lengthAdjust="spacing" textLength="86" x="239.5" y="804.5098">&#171;component&#187;</text><text fill="#000000" font-family="sans-serif" font-size="14" lengthAdjust="spacing" textLength="104" x="232.5" y="823.1309">Visualization (UI)</text><rect fill="#E2E2F0" height="51.2422" rx="2.5" ry="2.5" style="stroke:#181818;stroke-width:0.5;" width="100" x="456.5" y="71"/><text fill="#000000" font-family="sans-serif" font-size="14" lengthAdjust="spacing" textLength="86" x="463.5" y="93.1074">&#171;component&#187;</text><text fill="#000000" font-family="sans-serif" font-size="14" lengthAdjust="spacing" textLength="65" x="476" y="111.7285">Backoffice</text><rect fill="#E2E2F0" height="51.2422" rx="2.5" ry="2.5" style="stroke:#181818;stroke-width:0.5;" width="100" x="456.5" y="782.4023"/><text fill="#000000" font-family="sans-serif" font-size="14" lengthAdjust="spacing" textLength="86" x="463.5" y="804.5098">&#171;component&#187;</text><text fill="#000000" font-family="sans-serif" font-size="14" lengthAdjust="spacing" textLength="65" x="476" y="823.1309">Backoffice</text><rect fill="#FFFFFF" height="632.1602" style="stroke:#181818;stroke-width:1.0;" width="10" x="37.5" y="133.2422"/><rect fill="#FFFFFF" height="93.873" style="stroke:#181818;stroke-width:1.0;" width="10" x="277.5" y="156.5332"/><rect fill="#FFFFFF" height="93.873" style="stroke:#181818;stroke-width:1.0;" width="10" x="277.5" y="332.9883"/><rect fill="#FFFFFF" height="31.291" style="stroke:#181818;stroke-width:1.0;" width="10" x="277.5" y="465.1523"/><rect fill="#FFFFFF" height="211.377" style="stroke:#181818;stroke-width:1.0;" width="10" x="277.5" y="554.0254"/><rect fill="#FFFFFF" height="31.291" style="stroke:#181818;stroke-width:1.0;" width="10" x="501.5" y="187.8242"/><rect fill="#FFFFFF" height="31.291" style="stroke:#181818;stroke-width:1.0;" width="10" x="501.5" y="364.2793"/><rect fill="#FFFFFF" height="31.291" style="stroke:#181818;stroke-width:1.0;" width="10" x="501.5" y="585.3164"/><rect fill="#FFFFFF" height="31.291" style="stroke:#181818;stroke-width:1.0;" width="10" x="501.5" y="695.8203"/><polygon fill="#181818" points="265.5,152.5332,275.5,156.5332,265.5,160.5332,269.5,156.5332" style="stroke:#181818;stroke-width:1.0;"/><line style="stroke:#181818;stroke-width:1.0;" x1="47.5" x2="271.5" y1="156.5332" y2="156.5332"/><text fill="#000000" font-family="sans-serif" font-size="13" font-weight="bold" lengthAdjust="spacing" textLength="7" x="54.5" y="151.2705">1</text><text fill="#000000" font-family="sans-serif" font-size="13" lengthAdjust="spacing" textLength="200" x="65.5" y="151.2705">requests the list of operation types</text><polygon fill="#181818" points="489.5,183.8242,499.5,187.8242,489.5,191.8242,493.5,187.8242" style="stroke:#181818;stroke-width:1.0;"/><line style="stroke:#181818;stroke-width:1.0;" x1="287.5" x2="495.5" y1="187.8242" y2="187.8242"/><text fill="#000000" font-family="sans-serif" font-size="13" font-weight="bold" lengthAdjust="spacing" textLength="7" x="294.5" y="182.5615">2</text><text fill="#000000" font-family="sans-serif" font-size="13" lengthAdjust="spacing" textLength="156" x="305.5" y="182.5615">getAllOperationTypes(json)</text><polygon fill="#181818" points="298.5,215.1152,288.5,219.1152,298.5,223.1152,294.5,219.1152" style="stroke:#181818;stroke-width:1.0;"/><line style="stroke:#181818;stroke-width:1.0;stroke-dasharray:2.0,2.0;" x1="292.5" x2="505.5" y1="219.1152" y2="219.1152"/><text fill="#000000" font-family="sans-serif" font-size="13" font-weight="bold" lengthAdjust="spacing" textLength="7" x="304.5" y="213.8525">3</text><text fill="#000000" font-family="sans-serif" font-size="13" lengthAdjust="spacing" textLength="103" x="315.5" y="213.8525">operation type list</text><polygon fill="#181818" points="58.5,246.4063,48.5,250.4063,58.5,254.4063,54.5,250.4063" style="stroke:#181818;stroke-width:1.0;"/><line style="stroke:#181818;stroke-width:1.0;stroke-dasharray:2.0,2.0;" x1="52.5" x2="281.5" y1="250.4063" y2="250.4063"/><text fill="#000000" font-family="sans-serif" font-size="13" font-weight="bold" lengthAdjust="spacing" textLength="7" x="64.5" y="245.1436">4</text><text fill="#000000" font-family="sans-serif" font-size="13" lengthAdjust="spacing" textLength="139" x="75.5" y="245.1436">lists the operation types</text><path d="M10,290.4063 L75,290.4063 L75,299.6973 L65,309.6973 L10,309.6973 L10,290.4063 " fill="#EEEEEE" style="stroke:#000000;stroke-width:1.5;"/><rect fill="none" height="144.4551" style="stroke:#000000;stroke-width:1.5;" width="556.5" x="10" y="290.4063"/><text fill="#000000" font-family="sans-serif" font-size="13" font-weight="bold" lengthAdjust="spacing" textLength="20" x="25" y="305.4346">opt</text><text fill="#000000" font-family="sans-serif" font-size="11" font-weight="bold" lengthAdjust="spacing" textLength="137" x="90" y="304.2764">[search filters appliance]</text><polygon fill="#181818" points="265.5,328.9883,275.5,332.9883,265.5,336.9883,269.5,332.9883" style="stroke:#181818;stroke-width:1.0;"/><line style="stroke:#181818;stroke-width:1.0;" x1="47.5" x2="271.5" y1="332.9883" y2="332.9883"/><text fill="#000000" font-family="sans-serif" font-size="13" font-weight="bold" lengthAdjust="spacing" textLength="7" x="54.5" y="327.7256">5</text><text fill="#000000" font-family="sans-serif" font-size="13" lengthAdjust="spacing" textLength="119" x="65.5" y="327.7256">applies search filters</text><polygon fill="#181818" points="489.5,360.2793,499.5,364.2793,489.5,368.2793,493.5,364.2793" style="stroke:#181818;stroke-width:1.0;"/><line style="stroke:#181818;stroke-width:1.0;" x1="287.5" x2="495.5" y1="364.2793" y2="364.2793"/><text fill="#000000" font-family="sans-serif" font-size="13" font-weight="bold" lengthAdjust="spacing" textLength="7" x="294.5" y="359.0166">6</text><text fill="#000000" font-family="sans-serif" font-size="13" lengthAdjust="spacing" textLength="184" x="305.5" y="359.0166">getFilterOperationTypeList(json)</text><polygon fill="#181818" points="298.5,391.5703,288.5,395.5703,298.5,399.5703,294.5,395.5703" style="stroke:#181818;stroke-width:1.0;"/><line style="stroke:#181818;stroke-width:1.0;stroke-dasharray:2.0,2.0;" x1="292.5" x2="505.5" y1="395.5703" y2="395.5703"/><text fill="#000000" font-family="sans-serif" font-size="13" font-weight="bold" lengthAdjust="spacing" textLength="7" x="304.5" y="390.3076">7</text><text fill="#000000" font-family="sans-serif" font-size="13" lengthAdjust="spacing" textLength="152" x="315.5" y="390.3076">filtered operation types list</text><polygon fill="#181818" points="58.5,422.8613,48.5,426.8613,58.5,430.8613,54.5,426.8613" style="stroke:#181818;stroke-width:1.0;"/><line style="stroke:#181818;stroke-width:1.0;stroke-dasharray:2.0,2.0;" x1="52.5" x2="281.5" y1="426.8613" y2="426.8613"/><text fill="#000000" font-family="sans-serif" font-size="13" font-weight="bold" lengthAdjust="spacing" textLength="7" x="64.5" y="421.5986">8</text><text fill="#000000" font-family="sans-serif" font-size="13" lengthAdjust="spacing" textLength="158" x="75.5" y="421.5986">presents the search results</text><polygon fill="#181818" points="265.5,461.1523,275.5,465.1523,265.5,469.1523,269.5,465.1523" style="stroke:#181818;stroke-width:1.0;"/><line style="stroke:#181818;stroke-width:1.0;" x1="47.5" x2="271.5" y1="465.1523" y2="465.1523"/><text fill="#000000" font-family="sans-serif" font-size="13" font-weight="bold" lengthAdjust="spacing" textLength="7" x="54.5" y="459.8896">9</text><text fill="#000000" font-family="sans-serif" font-size="13" lengthAdjust="spacing" textLength="139" x="65.5" y="459.8896">selects a operation type</text><polygon fill="#181818" points="58.5,492.4434,48.5,496.4434,58.5,500.4434,54.5,496.4434" style="stroke:#181818;stroke-width:1.0;"/><line style="stroke:#181818;stroke-width:1.0;stroke-dasharray:2.0,2.0;" x1="52.5" x2="281.5" y1="496.4434" y2="496.4434"/><text fill="#000000" font-family="sans-serif" font-size="13" font-weight="bold" lengthAdjust="spacing" textLength="14" x="64.5" y="491.1807">10</text><text fill="#000000" font-family="sans-serif" font-size="13" lengthAdjust="spacing" textLength="123" x="82.5" y="491.1807">shows operation type</text><path d="M10,511.4434 L71,511.4434 L71,520.7344 L61,530.7344 L10,530.7344 L10,511.4434 " fill="#EEEEEE" style="stroke:#000000;stroke-width:1.5;"/><rect fill="none" height="223.668" style="stroke:#000000;stroke-width:1.5;" width="556.5" x="10" y="511.4434"/><text fill="#000000" font-family="sans-serif" font-size="13" font-weight="bold" lengthAdjust="spacing" textLength="16" x="25" y="526.4717">alt</text><text fill="#000000" font-family="sans-serif" font-size="11" font-weight="bold" lengthAdjust="spacing" textLength="112" x="86" y="525.3135">[edit operation type]</text><polygon fill="#181818" points="265.5,550.0254,275.5,554.0254,265.5,558.0254,269.5,554.0254" style="stroke:#181818;stroke-width:1.0;"/><line style="stroke:#181818;stroke-width:1.0;" x1="47.5" x2="271.5" y1="554.0254" y2="554.0254"/><text fill="#000000" font-family="sans-serif" font-size="13" font-weight="bold" lengthAdjust="spacing" textLength="14" x="54.5" y="548.7627">11</text><text fill="#000000" font-family="sans-serif" font-size="13" lengthAdjust="spacing" textLength="107" x="72.5" y="548.7627">edit operation type</text><polygon fill="#181818" points="489.5,581.3164,499.5,585.3164,489.5,589.3164,493.5,585.3164" style="stroke:#181818;stroke-width:1.0;"/><line style="stroke:#181818;stroke-width:1.0;" x1="287.5" x2="495.5" y1="585.3164" y2="585.3164"/><text fill="#000000" font-family="sans-serif" font-size="13" font-weight="bold" lengthAdjust="spacing" textLength="14" x="294.5" y="580.0537">12</text><text fill="#000000" font-family="sans-serif" font-size="13" lengthAdjust="spacing" textLength="58" x="312.5" y="580.0537">US 5.1.21</text><polygon fill="#181818" points="298.5,612.6074,288.5,616.6074,298.5,620.6074,294.5,616.6074" style="stroke:#181818;stroke-width:1.0;"/><line style="stroke:#181818;stroke-width:1.0;stroke-dasharray:2.0,2.0;" x1="292.5" x2="505.5" y1="616.6074" y2="616.6074"/><text fill="#000000" font-family="sans-serif" font-size="13" font-weight="bold" lengthAdjust="spacing" textLength="14" x="304.5" y="611.3447">13</text><text fill="#000000" font-family="sans-serif" font-size="13" lengthAdjust="spacing" textLength="41" x="322.5" y="611.3447">answer</text><line style="stroke:#000000;stroke-width:1.0;stroke-dasharray:2.0,2.0;" x1="10" x2="566.5" y1="625.6074" y2="625.6074"/><text fill="#000000" font-family="sans-serif" font-size="11" font-weight="bold" lengthAdjust="spacing" textLength="147" x="15" y="637.4775">[deactivate operation type]</text><polygon fill="#181818" points="265.5,660.5293,275.5,664.5293,265.5,668.5293,269.5,664.5293" style="stroke:#181818;stroke-width:1.0;"/><line style="stroke:#181818;stroke-width:1.0;" x1="47.5" x2="271.5" y1="664.5293" y2="664.5293"/><text fill="#000000" font-family="sans-serif" font-size="13" font-weight="bold" lengthAdjust="spacing" textLength="14" x="54.5" y="659.2666">14</text><text fill="#000000" font-family="sans-serif" font-size="13" lengthAdjust="spacing" textLength="121" x="72.5" y="659.2666">delete operation type</text><polygon fill="#181818" points="489.5,691.8203,499.5,695.8203,489.5,699.8203,493.5,695.8203" style="stroke:#181818;stroke-width:1.0;"/><line style="stroke:#181818;stroke-width:1.0;" x1="287.5" x2="495.5" y1="695.8203" y2="695.8203"/><text fill="#000000" font-family="sans-serif" font-size="13" font-weight="bold" lengthAdjust="spacing" textLength="14" x="294.5" y="690.5576">15</text><text fill="#000000" font-family="sans-serif" font-size="13" lengthAdjust="spacing" textLength="58" x="312.5" y="690.5576">US 5.1.22</text><polygon fill="#181818" points="298.5,723.1113,288.5,727.1113,298.5,731.1113,294.5,727.1113" style="stroke:#181818;stroke-width:1.0;"/><line style="stroke:#181818;stroke-width:1.0;stroke-dasharray:2.0,2.0;" x1="292.5" x2="505.5" y1="727.1113" y2="727.1113"/><text fill="#000000" font-family="sans-serif" font-size="13" font-weight="bold" lengthAdjust="spacing" textLength="14" x="304.5" y="721.8486">16</text><text fill="#000000" font-family="sans-serif" font-size="13" lengthAdjust="spacing" textLength="41" x="322.5" y="721.8486">answer</text><polygon fill="#181818" points="53.5,761.4023,43.5,765.4023,53.5,769.4023,49.5,765.4023" style="stroke:#181818;stroke-width:1.0;"/><line style="stroke:#181818;stroke-width:1.0;stroke-dasharray:2.0,2.0;" x1="47.5" x2="281.5" y1="765.4023" y2="765.4023"/><text fill="#000000" font-family="sans-serif" font-size="13" font-weight="bold" lengthAdjust="spacing" textLength="14" x="59.5" y="760.1396">17</text><text fill="#000000" font-family="sans-serif" font-size="13" lengthAdjust="spacing" textLength="41" x="77.5" y="760.1396">answer</text><!--SRC=[hLJ1ZjCm4BtxAqQzq1wIQYl1OLLLweAGLYm22Sg9YqccMuDZcynaAr0_dadIKjkKSi5IfCH-p-_D6plFTio1RkVpOBNZhh5bvPivuVSENOL5RVHZgnkbsB15c6m-m8joKIvkIdZV-Wg9u9F1FKmVy0ajB6OJfNJ7tdND5spblMBVmhfkZ0DDi7xrLWNTigbC43cOB9SY5xn3nwlLPoURKQUj-QdPU0VJpVriqlCszzTfTxhwvhTRK-40lrk_V3DecoVDEAZAKwna7xY5jY-Ec81t2DOGWz-23zYEelmZ89t98gs49kH-Lw4_8g-jVNV2V-pXqw_atUnC6WqCXE8acoeCmgh6Z28sOLaK8wE7Z2vpTn5F_1qE1wL0XWyCXBgjTh0rbh4bq25OewML0w0VKHB38bB6-OrCCe1ev7cy7eX990_Y_PXApCpAZPVIj4OlMEUbZxd5l3yoZ0ezPnbQ93ajOvp7UcMgitokDqsrdq7N6s0L7nz2YvLif3DhwP59n6ddzvJ3KxL1JbiMpTfmZerBElcuXhlOkQHhSf6VbpToaTK_MfEsHJlQoxt-Q_PZQfOmNifCNgocbbIlG2zwN_nVxwU6InUo_XsPQSUYh_u7ymi0]--></g></svg>