<?xml version="1.0" encoding="us-ascii" standalone="no"?><svg xmlns="http://www.w3.org/2000/svg" xmlns:xlink="http://www.w3.org/1999/xlink" contentStyleType="text/css" height="493.5px" preserveAspectRatio="none" style="width:1451px;height:493px;background:#FFFFFF;" version="1.1" viewBox="0 0 1451 493" width="1451.8px" zoomAndPan="magnify"><defs/><g><!--cluster <<aggregate>> Patient--><g id="cluster_&lt;&lt;aggregate&gt;&gt; Patient"><path d="M285.25,123.9096 L384.65,123.9096 A2.625,2.625 0 0 1 386.4,125.6596 L391.3,141.1443 L1086.05,141.1443 A1.75,1.75 0 0 1 1087.8,142.8943 L1087.8,486.8596 A1.75,1.75 0 0 1 1086.05,488.6096 L285.25,488.6096 A1.75,1.75 0 0 1 283.5,486.8596 L283.5,125.6596 A1.75,1.75 0 0 1 285.25,123.9096 " fill="none" style="stroke:#000000;stroke-width:1.0499999999999998;"/><line style="stroke:#000000;stroke-width:1.0499999999999998;" x1="283.5" x2="391.3" y1="141.1443" y2="141.1443"/><text fill="#000000" font-family="sans-serif" font-size="9.8" font-weight="bold" lengthAdjust="spacing" textLength="98.7" x="286.3" y="135.8848">&#171;aggregate&#187; Patient</text></g><!--cluster <<aggregate Doctor>>--><g id="cluster_&lt;&lt;aggregate Doctor&gt;&gt;"><path d="M1106.35,123.9096 L1204.35,123.9096 A2.625,2.625 0 0 1 1206.1,125.6596 L1211,141.1443 L1211.35,141.1443 A1.75,1.75 0 0 1 1213.1,142.8943 L1213.1,207.5596 A1.75,1.75 0 0 1 1211.35,209.3096 L1106.35,209.3096 A1.75,1.75 0 0 1 1104.6,207.5596 L1104.6,125.6596 A1.75,1.75 0 0 1 1106.35,123.9096 " fill="none" style="stroke:#000000;stroke-width:1.0499999999999998;"/><line style="stroke:#000000;stroke-width:1.0499999999999998;" x1="1104.6" x2="1211" y1="141.1443" y2="141.1443"/><text fill="#000000" font-family="sans-serif" font-size="9.8" font-weight="bold" lengthAdjust="spacing" textLength="97.3" x="1107.4" y="135.8848">&#171;aggregate Doctor&#187;</text></g><!--cluster <<aggregate OperationRequest>>--><g id="cluster_&lt;&lt;aggregate OperationRequest&gt;&gt;"><path d="M5.95,4.2096 L161.35,4.2096 A2.625,2.625 0 0 1 163.1,5.9596 L168,21.4443 L264.95,21.4443 A1.75,1.75 0 0 1 266.7,23.1943 L266.7,207.5596 A1.75,1.75 0 0 1 264.95,209.3096 L5.95,209.3096 A1.75,1.75 0 0 1 4.2,207.5596 L4.2,5.9596 A1.75,1.75 0 0 1 5.95,4.2096 " fill="none" style="stroke:#000000;stroke-width:1.0499999999999998;"/><line style="stroke:#000000;stroke-width:1.0499999999999998;" x1="4.2" x2="168" y1="21.4443" y2="21.4443"/><text fill="#000000" font-family="sans-serif" font-size="9.8" font-weight="bold" lengthAdjust="spacing" textLength="154.7" x="7" y="16.1848">&#171;aggregate OperationRequest&#187;</text></g><!--cluster <<aggregate OperationType>>--><g id="cluster_&lt;&lt;aggregate OperationType&gt;&gt;"><path d="M1132.95,232.4096 L1270.15,232.4096 A2.625,2.625 0 0 1 1271.9,234.1596 L1276.8,249.6443 L1445.15,249.6443 A1.75,1.75 0 0 1 1446.9,251.3943 L1446.9,486.8596 A1.75,1.75 0 0 1 1445.15,488.6096 L1132.95,488.6096 A1.75,1.75 0 0 1 1131.2,486.8596 L1131.2,234.1596 A1.75,1.75 0 0 1 1132.95,232.4096 " fill="none" style="stroke:#000000;stroke-width:1.0499999999999998;"/><line style="stroke:#000000;stroke-width:1.0499999999999998;" x1="1131.2" x2="1276.8" y1="249.6443" y2="249.6443"/><text fill="#000000" font-family="sans-serif" font-size="9.8" font-weight="bold" lengthAdjust="spacing" textLength="136.5" x="1134" y="244.3848">&#171;aggregate OperationType&#187;</text></g><!--class Patient--><g id="elem_Patient"><rect codeLine="8" fill="#F5F5DC" height="47.9801" id="Patient" rx="1.75" ry="1.75" style="stroke:#181818;stroke-width:0.3499999999999999;" width="53.2" x="521.5" y="149.8096"/><ellipse cx="532" cy="170.9996" fill="#ADD1B2" rx="7.7" ry="7.7" style="stroke:#181818;stroke-width:0.6999999999999998;"/><path d="M531.2016,171.5574 L531.2016,173.3074 L534.2312,173.3074 L534.2312,172.6621 Q534.2312,172.2355 534.3953,172.0496 Q534.5703,171.8637 534.8328,171.8637 Q535.0953,171.8637 535.2594,172.0496 Q535.4234,172.2355 535.4234,172.6621 L535.4234,174.4996 L529.8234,174.4996 Q529.3859,174.4996 529.2,174.3355 Q529.025,174.1715 529.025,173.898 Q529.025,173.6355 529.2109,173.4715 Q529.3969,173.3074 529.8234,173.3074 L530.0094,173.3074 L530.0094,168.648 L529.8234,168.648 Q529.3859,168.648 529.2,168.484 Q529.025,168.3199 529.025,168.0465 Q529.025,167.784 529.2,167.6199 Q529.3859,167.4559 529.8234,167.4559 L535.1609,167.4559 L535.1609,169.2715 Q535.1609,169.698 534.9969,169.884 Q534.8437,170.059 534.5703,170.059 Q534.3078,170.059 534.1437,169.884 Q533.9797,169.698 533.9797,169.2715 L533.9797,168.648 L531.2016,168.648 L531.2016,170.3652 L532.2406,170.3652 Q532.2406,169.9059 532.3281,169.7746 Q532.5141,169.4902 532.8422,169.4902 Q533.1047,169.4902 533.2687,169.6762 Q533.4328,169.8512 533.4328,170.2777 L533.4328,171.6559 Q533.4328,172.0387 533.3453,172.1699 Q533.1594,172.4434 532.8422,172.4434 Q532.5141,172.4434 532.3281,172.159 Q532.2406,172.0277 532.2406,171.5574 L531.2016,171.5574 Z " fill="#000000"/><text fill="#000000" font-family="sans-serif" font-size="8.4" font-style="italic" lengthAdjust="spacing" textLength="30.1" x="542.15" y="162.374">&#171;entity&#187;</text><text fill="#000000" font-family="sans-serif" font-size="8.4" font-style="italic" lengthAdjust="spacing" textLength="24.5" x="544.95" y="173.5467">&#171;root&#187;</text><text fill="#000000" font-family="sans-serif" font-size="9.8" lengthAdjust="spacing" textLength="30.8" x="541.8" y="186.2301">Patient</text><line style="stroke:#181818;stroke-width:0.3499999999999999;" x1="522.2" x2="574" y1="192.1896" y2="192.1896"/></g><!--class DateBirth--><g id="elem_DateBirth"><rect codeLine="9" fill="#F5F5DC" height="36.8074" id="DateBirth" rx="1.75" ry="1.75" style="stroke:#181818;stroke-width:0.3499999999999999;" width="76.3" x="697.55" y="263.9096"/><ellipse cx="708.05" cy="279.5133" fill="#FF8B40" rx="7.7" ry="7.7" style="stroke:#181818;stroke-width:0.6999999999999998;"/><path d="M708.4656,281.7992 L710.1937,277.6867 L709.9203,277.6867 Q709.4937,277.6867 709.3078,277.5227 Q709.1219,277.3586 709.1219,277.0852 Q709.1219,276.8227 709.3078,276.6586 Q709.4937,276.4945 709.9203,276.4945 L711.5172,276.4945 Q711.9437,276.4945 712.1297,276.6586 Q712.3156,276.8227 712.3156,277.0852 Q712.3156,277.4133 712.0312,277.5992 Q711.9,277.6867 711.4844,277.6867 L709.0453,283.5383 L707.8969,283.5383 L705.4578,277.6867 Q705.0422,277.6867 704.9109,277.5992 Q704.6266,277.4133 704.6266,277.0852 Q704.6266,276.8227 704.8125,276.6586 Q704.9984,276.4945 705.425,276.4945 L707.0328,276.4945 Q707.4594,276.4945 707.6344,276.6586 Q707.8203,276.8227 707.8203,277.0852 Q707.8203,277.3586 707.6344,277.5227 Q707.4594,277.6867 707.0328,277.6867 L706.7484,277.6867 L708.4656,281.7992 Z " fill="#000000"/><text fill="#000000" font-family="sans-serif" font-size="8.4" font-style="italic" lengthAdjust="spacing" textLength="56.7" x="716.45" y="276.474">&#171;value object&#187;</text><text fill="#000000" font-family="sans-serif" font-size="9.8" lengthAdjust="spacing" textLength="41.3" x="724.15" y="289.1574">DateBirth</text><line style="stroke:#181818;stroke-width:0.3499999999999999;" x1="698.25" x2="773.15" y1="295.117" y2="295.117"/></g><!--class Gender--><g id="elem_Gender"><rect codeLine="10" fill="#F5F5DC" height="36.8074" id="Gender" rx="1.75" ry="1.75" style="stroke:#181818;stroke-width:0.3499999999999999;" width="76.3" x="798.35" y="263.9096"/><ellipse cx="808.85" cy="279.5133" fill="#FF8B40" rx="7.7" ry="7.7" style="stroke:#181818;stroke-width:0.6999999999999998;"/><path d="M809.2656,281.7992 L810.9937,277.6867 L810.7203,277.6867 Q810.2937,277.6867 810.1078,277.5227 Q809.9219,277.3586 809.9219,277.0852 Q809.9219,276.8227 810.1078,276.6586 Q810.2937,276.4945 810.7203,276.4945 L812.3172,276.4945 Q812.7437,276.4945 812.9297,276.6586 Q813.1156,276.8227 813.1156,277.0852 Q813.1156,277.4133 812.8312,277.5992 Q812.7,277.6867 812.2844,277.6867 L809.8453,283.5383 L808.6969,283.5383 L806.2578,277.6867 Q805.8422,277.6867 805.7109,277.5992 Q805.4266,277.4133 805.4266,277.0852 Q805.4266,276.8227 805.6125,276.6586 Q805.7984,276.4945 806.225,276.4945 L807.8328,276.4945 Q808.2594,276.4945 808.4344,276.6586 Q808.6203,276.8227 808.6203,277.0852 Q808.6203,277.3586 808.4344,277.5227 Q808.2594,277.6867 807.8328,277.6867 L807.5484,277.6867 L809.2656,281.7992 Z " fill="#000000"/><text fill="#000000" font-family="sans-serif" font-size="8.4" font-style="italic" lengthAdjust="spacing" textLength="56.7" x="817.25" y="276.474">&#171;value object&#187;</text><text fill="#000000" font-family="sans-serif" font-size="9.8" lengthAdjust="spacing" textLength="33.6" x="828.8" y="289.1574">Gender</text><line style="stroke:#181818;stroke-width:0.3499999999999999;" x1="799.05" x2="873.95" y1="295.117" y2="295.117"/></g><!--class EmergencyContact--><g id="elem_EmergencyContact"><rect codeLine="12" fill="#F5F5DC" height="36.8074" id="EmergencyContact" rx="1.75" ry="1.75" style="stroke:#181818;stroke-width:0.3499999999999999;" width="106.4" x="347.2" y="354.9096"/><ellipse cx="357.7" cy="370.5133" fill="#FF8B40" rx="7.7" ry="7.7" style="stroke:#181818;stroke-width:0.6999999999999998;"/><path d="M358.1156,372.7992 L359.8437,368.6867 L359.5703,368.6867 Q359.1437,368.6867 358.9578,368.5227 Q358.7719,368.3586 358.7719,368.0852 Q358.7719,367.8227 358.9578,367.6586 Q359.1437,367.4945 359.5703,367.4945 L361.1672,367.4945 Q361.5937,367.4945 361.7797,367.6586 Q361.9656,367.8227 361.9656,368.0852 Q361.9656,368.4133 361.6812,368.5992 Q361.55,368.6867 361.1344,368.6867 L358.6953,374.5383 L357.5469,374.5383 L355.1078,368.6867 Q354.6922,368.6867 354.5609,368.5992 Q354.2766,368.4133 354.2766,368.0852 Q354.2766,367.8227 354.4625,367.6586 Q354.6484,367.4945 355.075,367.4945 L356.6828,367.4945 Q357.1094,367.4945 357.2844,367.6586 Q357.4703,367.8227 357.4703,368.0852 Q357.4703,368.3586 357.2844,368.5227 Q357.1094,368.6867 356.6828,368.6867 L356.3984,368.6867 L358.1156,372.7992 Z " fill="#000000"/><text fill="#000000" font-family="sans-serif" font-size="8.4" font-style="italic" lengthAdjust="spacing" textLength="56.7" x="381.15" y="367.474">&#171;value object&#187;</text><text fill="#000000" font-family="sans-serif" font-size="9.8" lengthAdjust="spacing" textLength="84" x="367.5" y="380.1574">EmergencyContact</text><line style="stroke:#181818;stroke-width:0.3499999999999999;" x1="347.9" x2="452.9" y1="386.117" y2="386.117"/></g><!--class MRN--><g id="elem_MRN"><rect codeLine="13" fill="#F5F5DC" height="47.9801" id="MRN" rx="1.75" ry="1.75" style="stroke:#181818;stroke-width:0.3499999999999999;" width="76.3" x="320.95" y="258.3096"/><ellipse cx="331.45" cy="279.4996" fill="#FF8B40" rx="7.7" ry="7.7" style="stroke:#181818;stroke-width:0.6999999999999998;"/><path d="M331.8656,281.7855 L333.5937,277.673 L333.3203,277.673 Q332.8937,277.673 332.7078,277.509 Q332.5219,277.3449 332.5219,277.0715 Q332.5219,276.809 332.7078,276.6449 Q332.8937,276.4809 333.3203,276.4809 L334.9172,276.4809 Q335.3437,276.4809 335.5297,276.6449 Q335.7156,276.809 335.7156,277.0715 Q335.7156,277.3996 335.4312,277.5855 Q335.3,277.673 334.8844,277.673 L332.4453,283.5246 L331.2969,283.5246 L328.8578,277.673 Q328.4422,277.673 328.3109,277.5855 Q328.0266,277.3996 328.0266,277.0715 Q328.0266,276.809 328.2125,276.6449 Q328.3984,276.4809 328.825,276.4809 L330.4328,276.4809 Q330.8594,276.4809 331.0344,276.6449 Q331.2203,276.809 331.2203,277.0715 Q331.2203,277.3449 331.0344,277.509 Q330.8594,277.673 330.4328,277.673 L330.1484,277.673 L331.8656,281.7855 Z " fill="#000000"/><text fill="#000000" font-family="sans-serif" font-size="8.4" font-style="italic" lengthAdjust="spacing" textLength="56.7" x="339.85" y="270.874">&#171;value object&#187;</text><text fill="#000000" font-family="sans-serif" font-size="8.4" font-style="italic" lengthAdjust="spacing" textLength="42.7" x="346.85" y="282.0467">&#171;identifier&#187;</text><text fill="#000000" font-family="sans-serif" font-size="9.8" lengthAdjust="spacing" textLength="21" x="357.7" y="294.7301">MRN</text><line style="stroke:#181818;stroke-width:0.3499999999999999;" x1="321.65" x2="396.55" y1="300.6896" y2="300.6896"/></g><!--class MedicalCondition--><g id="elem_MedicalCondition"><rect codeLine="14" fill="#F5F5DC" height="36.8074" id="MedicalCondition" rx="1.75" ry="1.75" style="stroke:#181818;stroke-width:0.3499999999999999;" width="98" x="422.1" y="263.9096"/><ellipse cx="432.6" cy="279.5133" fill="#FF8B40" rx="7.7" ry="7.7" style="stroke:#181818;stroke-width:0.6999999999999998;"/><path d="M433.0156,281.7992 L434.7437,277.6867 L434.4703,277.6867 Q434.0437,277.6867 433.8578,277.5227 Q433.6719,277.3586 433.6719,277.0852 Q433.6719,276.8227 433.8578,276.6586 Q434.0437,276.4945 434.4703,276.4945 L436.0672,276.4945 Q436.4937,276.4945 436.6797,276.6586 Q436.8656,276.8227 436.8656,277.0852 Q436.8656,277.4133 436.5812,277.5992 Q436.45,277.6867 436.0344,277.6867 L433.5953,283.5383 L432.4469,283.5383 L430.0078,277.6867 Q429.5922,277.6867 429.4609,277.5992 Q429.1766,277.4133 429.1766,277.0852 Q429.1766,276.8227 429.3625,276.6586 Q429.5484,276.4945 429.975,276.4945 L431.5828,276.4945 Q432.0094,276.4945 432.1844,276.6586 Q432.3703,276.8227 432.3703,277.0852 Q432.3703,277.3586 432.1844,277.5227 Q432.0094,277.6867 431.5828,277.6867 L431.2984,277.6867 L433.0156,281.7992 Z " fill="#000000"/><text fill="#000000" font-family="sans-serif" font-size="8.4" font-style="italic" lengthAdjust="spacing" textLength="56.7" x="451.85" y="276.474">&#171;value object&#187;</text><text fill="#000000" font-family="sans-serif" font-size="9.8" lengthAdjust="spacing" textLength="75.6" x="442.4" y="289.1574">MedicalCondition</text><line style="stroke:#181818;stroke-width:0.3499999999999999;" x1="422.8" x2="519.4" y1="295.117" y2="295.117"/></g><!--class AppoitmentHistory--><g id="elem_AppoitmentHistory"><rect codeLine="15" fill="#F5F5DC" height="36.8074" id="AppoitmentHistory" rx="1.75" ry="1.75" style="stroke:#181818;stroke-width:0.3499999999999999;" width="102.2" x="544.6" y="263.9096"/><ellipse cx="555.1" cy="279.5133" fill="#FF8B40" rx="7.7" ry="7.7" style="stroke:#181818;stroke-width:0.6999999999999998;"/><path d="M555.5156,281.7992 L557.2437,277.6867 L556.9703,277.6867 Q556.5437,277.6867 556.3578,277.5227 Q556.1719,277.3586 556.1719,277.0852 Q556.1719,276.8227 556.3578,276.6586 Q556.5437,276.4945 556.9703,276.4945 L558.5672,276.4945 Q558.9937,276.4945 559.1797,276.6586 Q559.3656,276.8227 559.3656,277.0852 Q559.3656,277.4133 559.0812,277.5992 Q558.95,277.6867 558.5344,277.6867 L556.0953,283.5383 L554.9469,283.5383 L552.5078,277.6867 Q552.0922,277.6867 551.9609,277.5992 Q551.6766,277.4133 551.6766,277.0852 Q551.6766,276.8227 551.8625,276.6586 Q552.0484,276.4945 552.475,276.4945 L554.0828,276.4945 Q554.5094,276.4945 554.6844,276.6586 Q554.8703,276.8227 554.8703,277.0852 Q554.8703,277.3586 554.6844,277.5227 Q554.5094,277.6867 554.0828,277.6867 L553.7984,277.6867 L555.5156,281.7992 Z " fill="#000000"/><text fill="#000000" font-family="sans-serif" font-size="8.4" font-style="italic" lengthAdjust="spacing" textLength="56.7" x="576.45" y="276.474">&#171;value object&#187;</text><text fill="#000000" font-family="sans-serif" font-size="9.8" lengthAdjust="spacing" textLength="79.8" x="564.9" y="289.1574">AppoitmentHistory</text><line style="stroke:#181818;stroke-width:0.3499999999999999;" x1="545.3" x2="646.1" y1="295.117" y2="295.117"/></g><!--class Name--><g id="elem_Name"><rect codeLine="17" fill="#F5F5DC" height="36.8074" id="Name" rx="1.75" ry="1.75" style="stroke:#181818;stroke-width:0.3499999999999999;" width="76.3" x="899.15" y="155.4096"/><ellipse cx="909.65" cy="171.0133" fill="#FF8B40" rx="7.7" ry="7.7" style="stroke:#181818;stroke-width:0.6999999999999998;"/><path d="M910.0656,173.2992 L911.7937,169.1867 L911.5203,169.1867 Q911.0937,169.1867 910.9078,169.0227 Q910.7219,168.8586 910.7219,168.5852 Q910.7219,168.3227 910.9078,168.1586 Q911.0937,167.9945 911.5203,167.9945 L913.1172,167.9945 Q913.5437,167.9945 913.7297,168.1586 Q913.9156,168.3227 913.9156,168.5852 Q913.9156,168.9133 913.6312,169.0992 Q913.5,169.1867 913.0844,169.1867 L910.6453,175.0383 L909.4969,175.0383 L907.0578,169.1867 Q906.6422,169.1867 906.5109,169.0992 Q906.2266,168.9133 906.2266,168.5852 Q906.2266,168.3227 906.4125,168.1586 Q906.5984,167.9945 907.025,167.9945 L908.6328,167.9945 Q909.0594,167.9945 909.2344,168.1586 Q909.4203,168.3227 909.4203,168.5852 Q909.4203,168.8586 909.2344,169.0227 Q909.0594,169.1867 908.6328,169.1867 L908.3484,169.1867 L910.0656,173.2992 Z " fill="#000000"/><text fill="#000000" font-family="sans-serif" font-size="8.4" font-style="italic" lengthAdjust="spacing" textLength="56.7" x="918.05" y="167.974">&#171;value object&#187;</text><text fill="#000000" font-family="sans-serif" font-size="9.8" lengthAdjust="spacing" textLength="25.2" x="933.8" y="180.6574">Name</text><line style="stroke:#181818;stroke-width:0.3499999999999999;" x1="899.85" x2="974.75" y1="186.617" y2="186.617"/></g><!--class FirstName--><g id="elem_FirstName"><rect codeLine="18" fill="#F5F5DC" height="36.8074" id="FirstName" rx="1.75" ry="1.75" style="stroke:#181818;stroke-width:0.3499999999999999;" width="76.3" x="999.95" y="263.9096"/><ellipse cx="1010.45" cy="279.5133" fill="#FF8B40" rx="7.7" ry="7.7" style="stroke:#181818;stroke-width:0.6999999999999998;"/><path d="M1010.8656,281.7992 L1012.5937,277.6867 L1012.3203,277.6867 Q1011.8937,277.6867 1011.7078,277.5227 Q1011.5219,277.3586 1011.5219,277.0852 Q1011.5219,276.8227 1011.7078,276.6586 Q1011.8937,276.4945 1012.3203,276.4945 L1013.9172,276.4945 Q1014.3437,276.4945 1014.5297,276.6586 Q1014.7156,276.8227 1014.7156,277.0852 Q1014.7156,277.4133 1014.4312,277.5992 Q1014.3,277.6867 1013.8844,277.6867 L1011.4453,283.5383 L1010.2969,283.5383 L1007.8578,277.6867 Q1007.4422,277.6867 1007.3109,277.5992 Q1007.0266,277.4133 1007.0266,277.0852 Q1007.0266,276.8227 1007.2125,276.6586 Q1007.3984,276.4945 1007.825,276.4945 L1009.4328,276.4945 Q1009.8594,276.4945 1010.0344,276.6586 Q1010.2203,276.8227 1010.2203,277.0852 Q1010.2203,277.3586 1010.0344,277.5227 Q1009.8594,277.6867 1009.4328,277.6867 L1009.1484,277.6867 L1010.8656,281.7992 Z " fill="#000000"/><text fill="#000000" font-family="sans-serif" font-size="8.4" font-style="italic" lengthAdjust="spacing" textLength="56.7" x="1018.85" y="276.474">&#171;value object&#187;</text><text fill="#000000" font-family="sans-serif" font-size="9.8" lengthAdjust="spacing" textLength="44.8" x="1024.8" y="289.1574">FirstName</text><line style="stroke:#181818;stroke-width:0.3499999999999999;" x1="1000.65" x2="1075.55" y1="295.117" y2="295.117"/></g><!--class LastName--><g id="elem_LastName"><rect codeLine="19" fill="#F5F5DC" height="36.8074" id="LastName" rx="1.75" ry="1.75" style="stroke:#181818;stroke-width:0.3499999999999999;" width="76.3" x="999.95" y="155.4096"/><ellipse cx="1010.45" cy="171.0133" fill="#FF8B40" rx="7.7" ry="7.7" style="stroke:#181818;stroke-width:0.6999999999999998;"/><path d="M1010.8656,173.2992 L1012.5937,169.1867 L1012.3203,169.1867 Q1011.8937,169.1867 1011.7078,169.0227 Q1011.5219,168.8586 1011.5219,168.5852 Q1011.5219,168.3227 1011.7078,168.1586 Q1011.8937,167.9945 1012.3203,167.9945 L1013.9172,167.9945 Q1014.3437,167.9945 1014.5297,168.1586 Q1014.7156,168.3227 1014.7156,168.5852 Q1014.7156,168.9133 1014.4312,169.0992 Q1014.3,169.1867 1013.8844,169.1867 L1011.4453,175.0383 L1010.2969,175.0383 L1007.8578,169.1867 Q1007.4422,169.1867 1007.3109,169.0992 Q1007.0266,168.9133 1007.0266,168.5852 Q1007.0266,168.3227 1007.2125,168.1586 Q1007.3984,167.9945 1007.825,167.9945 L1009.4328,167.9945 Q1009.8594,167.9945 1010.0344,168.1586 Q1010.2203,168.3227 1010.2203,168.5852 Q1010.2203,168.8586 1010.0344,169.0227 Q1009.8594,169.1867 1009.4328,169.1867 L1009.1484,169.1867 L1010.8656,173.2992 Z " fill="#000000"/><text fill="#000000" font-family="sans-serif" font-size="8.4" font-style="italic" lengthAdjust="spacing" textLength="56.7" x="1018.85" y="167.974">&#171;value object&#187;</text><text fill="#000000" font-family="sans-serif" font-size="9.8" lengthAdjust="spacing" textLength="44.1" x="1025.15" y="180.6574">LastName</text><line style="stroke:#181818;stroke-width:0.3499999999999999;" x1="1000.65" x2="1075.55" y1="186.617" y2="186.617"/></g><!--class FullName--><g id="elem_FullName"><rect codeLine="20" fill="#F5F5DC" height="36.8074" id="FullName" rx="1.75" ry="1.75" style="stroke:#181818;stroke-width:0.3499999999999999;" width="76.3" x="899.15" y="263.9096"/><ellipse cx="909.65" cy="279.5133" fill="#FF8B40" rx="7.7" ry="7.7" style="stroke:#181818;stroke-width:0.6999999999999998;"/><path d="M910.0656,281.7992 L911.7937,277.6867 L911.5203,277.6867 Q911.0937,277.6867 910.9078,277.5227 Q910.7219,277.3586 910.7219,277.0852 Q910.7219,276.8227 910.9078,276.6586 Q911.0937,276.4945 911.5203,276.4945 L913.1172,276.4945 Q913.5437,276.4945 913.7297,276.6586 Q913.9156,276.8227 913.9156,277.0852 Q913.9156,277.4133 913.6312,277.5992 Q913.5,277.6867 913.0844,277.6867 L910.6453,283.5383 L909.4969,283.5383 L907.0578,277.6867 Q906.6422,277.6867 906.5109,277.5992 Q906.2266,277.4133 906.2266,277.0852 Q906.2266,276.8227 906.4125,276.6586 Q906.5984,276.4945 907.025,276.4945 L908.6328,276.4945 Q909.0594,276.4945 909.2344,276.6586 Q909.4203,276.8227 909.4203,277.0852 Q909.4203,277.3586 909.2344,277.5227 Q909.0594,277.6867 908.6328,277.6867 L908.3484,277.6867 L910.0656,281.7992 Z " fill="#000000"/><text fill="#000000" font-family="sans-serif" font-size="8.4" font-style="italic" lengthAdjust="spacing" textLength="56.7" x="918.05" y="276.474">&#171;value object&#187;</text><text fill="#000000" font-family="sans-serif" font-size="9.8" lengthAdjust="spacing" textLength="41.3" x="925.75" y="289.1574">FullName</text><line style="stroke:#181818;stroke-width:0.3499999999999999;" x1="899.85" x2="974.75" y1="295.117" y2="295.117"/></g><!--class ContactInfo--><g id="elem_ContactInfo"><rect codeLine="21" fill="#F5F5DC" height="36.8074" id="ContactInfo" rx="1.75" ry="1.75" style="stroke:#181818;stroke-width:0.3499999999999999;" width="76.3" x="582.05" y="354.9096"/><ellipse cx="592.55" cy="370.5133" fill="#FF8B40" rx="7.7" ry="7.7" style="stroke:#181818;stroke-width:0.6999999999999998;"/><path d="M592.9656,372.7992 L594.6937,368.6867 L594.4203,368.6867 Q593.9937,368.6867 593.8078,368.5227 Q593.6219,368.3586 593.6219,368.0852 Q593.6219,367.8227 593.8078,367.6586 Q593.9937,367.4945 594.4203,367.4945 L596.0172,367.4945 Q596.4437,367.4945 596.6297,367.6586 Q596.8156,367.8227 596.8156,368.0852 Q596.8156,368.4133 596.5312,368.5992 Q596.4,368.6867 595.9844,368.6867 L593.5453,374.5383 L592.3969,374.5383 L589.9578,368.6867 Q589.5422,368.6867 589.4109,368.5992 Q589.1266,368.4133 589.1266,368.0852 Q589.1266,367.8227 589.3125,367.6586 Q589.4984,367.4945 589.925,367.4945 L591.5328,367.4945 Q591.9594,367.4945 592.1344,367.6586 Q592.3203,367.8227 592.3203,368.0852 Q592.3203,368.3586 592.1344,368.5227 Q591.9594,368.6867 591.5328,368.6867 L591.2484,368.6867 L592.9656,372.7992 Z " fill="#000000"/><text fill="#000000" font-family="sans-serif" font-size="8.4" font-style="italic" lengthAdjust="spacing" textLength="56.7" x="600.95" y="367.474">&#171;value object&#187;</text><text fill="#000000" font-family="sans-serif" font-size="9.8" lengthAdjust="spacing" textLength="50.4" x="604.1" y="380.1574">ContactInfo</text><line style="stroke:#181818;stroke-width:0.3499999999999999;" x1="582.75" x2="657.65" y1="386.117" y2="386.117"/></g><!--class Phone--><g id="elem_Phone"><rect codeLine="22" fill="#F5F5DC" height="36.8074" id="Phone" rx="1.75" ry="1.75" style="stroke:#181818;stroke-width:0.3499999999999999;" width="76.3" x="444.15" y="440.3096"/><ellipse cx="454.65" cy="455.9133" fill="#FF8B40" rx="7.7" ry="7.7" style="stroke:#181818;stroke-width:0.6999999999999998;"/><path d="M455.0656,458.1992 L456.7937,454.0867 L456.5203,454.0867 Q456.0937,454.0867 455.9078,453.9227 Q455.7219,453.7586 455.7219,453.4852 Q455.7219,453.2227 455.9078,453.0586 Q456.0937,452.8945 456.5203,452.8945 L458.1172,452.8945 Q458.5437,452.8945 458.7297,453.0586 Q458.9156,453.2227 458.9156,453.4852 Q458.9156,453.8133 458.6312,453.9992 Q458.5,454.0867 458.0844,454.0867 L455.6453,459.9383 L454.4969,459.9383 L452.0578,454.0867 Q451.6422,454.0867 451.5109,453.9992 Q451.2266,453.8133 451.2266,453.4852 Q451.2266,453.2227 451.4125,453.0586 Q451.5984,452.8945 452.025,452.8945 L453.6328,452.8945 Q454.0594,452.8945 454.2344,453.0586 Q454.4203,453.2227 454.4203,453.4852 Q454.4203,453.7586 454.2344,453.9227 Q454.0594,454.0867 453.6328,454.0867 L453.3484,454.0867 L455.0656,458.1992 Z " fill="#000000"/><text fill="#000000" font-family="sans-serif" font-size="8.4" font-style="italic" lengthAdjust="spacing" textLength="56.7" x="463.05" y="452.874">&#171;value object&#187;</text><text fill="#000000" font-family="sans-serif" font-size="9.8" lengthAdjust="spacing" textLength="28.7" x="477.05" y="465.5574">Phone</text><line style="stroke:#181818;stroke-width:0.3499999999999999;" x1="444.85" x2="519.75" y1="471.517" y2="471.517"/></g><!--class Email--><g id="elem_Email"><rect codeLine="23" fill="#F5F5DC" height="36.8074" id="Email" rx="1.75" ry="1.75" style="stroke:#181818;stroke-width:0.3499999999999999;" width="76.3" x="582.05" y="440.3096"/><ellipse cx="592.55" cy="455.9133" fill="#FF8B40" rx="7.7" ry="7.7" style="stroke:#181818;stroke-width:0.6999999999999998;"/><path d="M592.9656,458.1992 L594.6937,454.0867 L594.4203,454.0867 Q593.9937,454.0867 593.8078,453.9227 Q593.6219,453.7586 593.6219,453.4852 Q593.6219,453.2227 593.8078,453.0586 Q593.9937,452.8945 594.4203,452.8945 L596.0172,452.8945 Q596.4437,452.8945 596.6297,453.0586 Q596.8156,453.2227 596.8156,453.4852 Q596.8156,453.8133 596.5312,453.9992 Q596.4,454.0867 595.9844,454.0867 L593.5453,459.9383 L592.3969,459.9383 L589.9578,454.0867 Q589.5422,454.0867 589.4109,453.9992 Q589.1266,453.8133 589.1266,453.4852 Q589.1266,453.2227 589.3125,453.0586 Q589.4984,452.8945 589.925,452.8945 L591.5328,452.8945 Q591.9594,452.8945 592.1344,453.0586 Q592.3203,453.2227 592.3203,453.4852 Q592.3203,453.7586 592.1344,453.9227 Q591.9594,454.0867 591.5328,454.0867 L591.2484,454.0867 L592.9656,458.1992 Z " fill="#000000"/><text fill="#000000" font-family="sans-serif" font-size="8.4" font-style="italic" lengthAdjust="spacing" textLength="56.7" x="600.95" y="452.874">&#171;value object&#187;</text><text fill="#000000" font-family="sans-serif" font-size="9.8" lengthAdjust="spacing" textLength="23.8" x="617.4" y="465.5574">Email</text><line style="stroke:#181818;stroke-width:0.3499999999999999;" x1="582.75" x2="657.65" y1="471.517" y2="471.517"/></g><!--class Date--><g id="elem_Date"><rect codeLine="24" fill="#F5F5DC" height="36.8074" id="Date" rx="1.75" ry="1.75" style="stroke:#181818;stroke-width:0.3499999999999999;" width="76.3" x="599.55" y="155.4096"/><ellipse cx="610.05" cy="171.0133" fill="#FF8B40" rx="7.7" ry="7.7" style="stroke:#181818;stroke-width:0.6999999999999998;"/><path d="M610.4656,173.2992 L612.1937,169.1867 L611.9203,169.1867 Q611.4937,169.1867 611.3078,169.0227 Q611.1219,168.8586 611.1219,168.5852 Q611.1219,168.3227 611.3078,168.1586 Q611.4937,167.9945 611.9203,167.9945 L613.5172,167.9945 Q613.9437,167.9945 614.1297,168.1586 Q614.3156,168.3227 614.3156,168.5852 Q614.3156,168.9133 614.0312,169.0992 Q613.9,169.1867 613.4844,169.1867 L611.0453,175.0383 L609.8969,175.0383 L607.4578,169.1867 Q607.0422,169.1867 606.9109,169.0992 Q606.6266,168.9133 606.6266,168.5852 Q606.6266,168.3227 606.8125,168.1586 Q606.9984,167.9945 607.425,167.9945 L609.0328,167.9945 Q609.4594,167.9945 609.6344,168.1586 Q609.8203,168.3227 609.8203,168.5852 Q609.8203,168.8586 609.6344,169.0227 Q609.4594,169.1867 609.0328,169.1867 L608.7484,169.1867 L610.4656,173.2992 Z " fill="#000000"/><text fill="#000000" font-family="sans-serif" font-size="8.4" font-style="italic" lengthAdjust="spacing" textLength="56.7" x="618.45" y="167.974">&#171;value object&#187;</text><text fill="#000000" font-family="sans-serif" font-size="9.8" lengthAdjust="spacing" textLength="21" x="636.3" y="180.6574">Date</text><line style="stroke:#181818;stroke-width:0.3499999999999999;" x1="600.25" x2="675.15" y1="186.617" y2="186.617"/></g><!--class Doctor--><g id="elem_Doctor"><rect codeLine="28" fill="#F5F5DC" height="47.9801" id="Doctor" rx="1.75" ry="1.75" style="stroke:#181818;stroke-width:0.3499999999999999;" width="51.8" x="1115.8" y="149.8096"/><ellipse cx="1126.3" cy="170.9996" fill="#ADD1B2" rx="7.7" ry="7.7" style="stroke:#181818;stroke-width:0.6999999999999998;"/><path d="M1125.5016,171.5574 L1125.5016,173.3074 L1128.5312,173.3074 L1128.5312,172.6621 Q1128.5312,172.2355 1128.6953,172.0496 Q1128.8703,171.8637 1129.1328,171.8637 Q1129.3953,171.8637 1129.5594,172.0496 Q1129.7234,172.2355 1129.7234,172.6621 L1129.7234,174.4996 L1124.1234,174.4996 Q1123.6859,174.4996 1123.5,174.3355 Q1123.325,174.1715 1123.325,173.898 Q1123.325,173.6355 1123.5109,173.4715 Q1123.6969,173.3074 1124.1234,173.3074 L1124.3094,173.3074 L1124.3094,168.648 L1124.1234,168.648 Q1123.6859,168.648 1123.5,168.484 Q1123.325,168.3199 1123.325,168.0465 Q1123.325,167.784 1123.5,167.6199 Q1123.6859,167.4559 1124.1234,167.4559 L1129.4609,167.4559 L1129.4609,169.2715 Q1129.4609,169.698 1129.2969,169.884 Q1129.1437,170.059 1128.8703,170.059 Q1128.6078,170.059 1128.4437,169.884 Q1128.2797,169.698 1128.2797,169.2715 L1128.2797,168.648 L1125.5016,168.648 L1125.5016,170.3652 L1126.5406,170.3652 Q1126.5406,169.9059 1126.6281,169.7746 Q1126.8141,169.4902 1127.1422,169.4902 Q1127.4047,169.4902 1127.5687,169.6762 Q1127.7328,169.8512 1127.7328,170.2777 L1127.7328,171.6559 Q1127.7328,172.0387 1127.6453,172.1699 Q1127.4594,172.4434 1127.1422,172.4434 Q1126.8141,172.4434 1126.6281,172.159 Q1126.5406,172.0277 1126.5406,171.5574 L1125.5016,171.5574 Z " fill="#000000"/><text fill="#000000" font-family="sans-serif" font-size="8.4" font-style="italic" lengthAdjust="spacing" textLength="30.1" x="1135.75" y="162.374">&#171;entity&#187;</text><text fill="#000000" font-family="sans-serif" font-size="8.4" font-style="italic" lengthAdjust="spacing" textLength="24.5" x="1138.55" y="173.5467">&#171;root&#187;</text><text fill="#000000" font-family="sans-serif" font-size="9.8" lengthAdjust="spacing" textLength="29.4" x="1136.1" y="186.2301">Doctor</text><line style="stroke:#181818;stroke-width:0.3499999999999999;" x1="1116.5" x2="1166.9" y1="192.1896" y2="192.1896"/></g><!--class OperationRequest--><g id="elem_OperationRequest"><rect codeLine="33" fill="#F5F5DC" height="47.9801" id="OperationRequest" rx="1.75" ry="1.75" style="stroke:#181818;stroke-width:0.3499999999999999;" width="103.6" x="15.4" y="30.1096"/><ellipse cx="25.9" cy="51.2996" fill="#ADD1B2" rx="7.7" ry="7.7" style="stroke:#181818;stroke-width:0.6999999999999998;"/><path d="M25.1016,51.8574 L25.1016,53.6074 L28.1312,53.6074 L28.1312,52.9621 Q28.1312,52.5355 28.2953,52.3496 Q28.4703,52.1637 28.7328,52.1637 Q28.9953,52.1637 29.1594,52.3496 Q29.3234,52.5355 29.3234,52.9621 L29.3234,54.7996 L23.7234,54.7996 Q23.2859,54.7996 23.1,54.6355 Q22.925,54.4715 22.925,54.198 Q22.925,53.9355 23.1109,53.7715 Q23.2969,53.6074 23.7234,53.6074 L23.9094,53.6074 L23.9094,48.948 L23.7234,48.948 Q23.2859,48.948 23.1,48.784 Q22.925,48.6199 22.925,48.3465 Q22.925,48.084 23.1,47.9199 Q23.2859,47.7559 23.7234,47.7559 L29.0609,47.7559 L29.0609,49.5715 Q29.0609,49.998 28.8969,50.184 Q28.7437,50.359 28.4703,50.359 Q28.2078,50.359 28.0437,50.184 Q27.8797,49.998 27.8797,49.5715 L27.8797,48.948 L25.1016,48.948 L25.1016,50.6652 L26.1406,50.6652 Q26.1406,50.2059 26.2281,50.0746 Q26.4141,49.7902 26.7422,49.7902 Q27.0047,49.7902 27.1687,49.9762 Q27.3328,50.1512 27.3328,50.5777 L27.3328,51.9559 Q27.3328,52.3387 27.2453,52.4699 Q27.0594,52.7434 26.7422,52.7434 Q26.4141,52.7434 26.2281,52.459 Q26.1406,52.3277 26.1406,51.8574 L25.1016,51.8574 Z " fill="#000000"/><text fill="#000000" font-family="sans-serif" font-size="8.4" font-style="italic" lengthAdjust="spacing" textLength="30.1" x="61.25" y="42.674">&#171;entity&#187;</text><text fill="#000000" font-family="sans-serif" font-size="8.4" font-style="italic" lengthAdjust="spacing" textLength="24.5" x="64.05" y="53.8467">&#171;root&#187;</text><text fill="#000000" font-family="sans-serif" font-size="9.8" lengthAdjust="spacing" textLength="81.2" x="35.7" y="66.5301">OperationRequest</text><line style="stroke:#181818;stroke-width:0.3499999999999999;" x1="16.1" x2="118.3" y1="72.4896" y2="72.4896"/></g><!--class OperationRequestId--><g id="elem_OperationRequestId"><rect codeLine="34" fill="#F5F5DC" height="47.9801" id="OperationRequestId" rx="1.75" ry="1.75" style="stroke:#181818;stroke-width:0.3499999999999999;" width="111.3" x="143.85" y="30.1096"/><ellipse cx="154.35" cy="51.2996" fill="#FF8B40" rx="7.7" ry="7.7" style="stroke:#181818;stroke-width:0.6999999999999998;"/><path d="M154.7656,53.5855 L156.4937,49.473 L156.2203,49.473 Q155.7937,49.473 155.6078,49.309 Q155.4219,49.1449 155.4219,48.8715 Q155.4219,48.609 155.6078,48.4449 Q155.7937,48.2809 156.2203,48.2809 L157.8172,48.2809 Q158.2437,48.2809 158.4297,48.4449 Q158.6156,48.609 158.6156,48.8715 Q158.6156,49.1996 158.3312,49.3855 Q158.2,49.473 157.7844,49.473 L155.3453,55.3246 L154.1969,55.3246 L151.7578,49.473 Q151.3422,49.473 151.2109,49.3855 Q150.9266,49.1996 150.9266,48.8715 Q150.9266,48.609 151.1125,48.4449 Q151.2984,48.2809 151.725,48.2809 L153.3328,48.2809 Q153.7594,48.2809 153.9344,48.4449 Q154.1203,48.609 154.1203,48.8715 Q154.1203,49.1449 153.9344,49.309 Q153.7594,49.473 153.3328,49.473 L153.0484,49.473 L154.7656,53.5855 Z " fill="#000000"/><text fill="#000000" font-family="sans-serif" font-size="8.4" font-style="italic" lengthAdjust="spacing" textLength="56.7" x="180.25" y="42.674">&#171;value object&#187;</text><text fill="#000000" font-family="sans-serif" font-size="8.4" font-style="italic" lengthAdjust="spacing" textLength="42.7" x="187.25" y="53.8467">&#171;identifier&#187;</text><text fill="#000000" font-family="sans-serif" font-size="9.8" lengthAdjust="spacing" textLength="88.9" x="164.15" y="66.5301">OperationRequestId</text><line style="stroke:#181818;stroke-width:0.3499999999999999;" x1="144.55" x2="254.45" y1="72.4896" y2="72.4896"/></g><!--class Priority--><g id="elem_Priority"><rect codeLine="35" fill="#F5F5DC" height="47.9801" id="Priority" rx="1.75" ry="1.75" style="stroke:#181818;stroke-width:0.3499999999999999;" width="76.3" x="19.95" y="149.8096"/><ellipse cx="30.45" cy="170.9996" fill="#FF8B40" rx="7.7" ry="7.7" style="stroke:#181818;stroke-width:0.6999999999999998;"/><path d="M30.8656,173.2855 L32.5937,169.173 L32.3203,169.173 Q31.8937,169.173 31.7078,169.009 Q31.5219,168.8449 31.5219,168.5715 Q31.5219,168.309 31.7078,168.1449 Q31.8937,167.9809 32.3203,167.9809 L33.9172,167.9809 Q34.3437,167.9809 34.5297,168.1449 Q34.7156,168.309 34.7156,168.5715 Q34.7156,168.8996 34.4312,169.0855 Q34.3,169.173 33.8844,169.173 L31.4453,175.0246 L30.2969,175.0246 L27.8578,169.173 Q27.4422,169.173 27.3109,169.0855 Q27.0266,168.8996 27.0266,168.5715 Q27.0266,168.309 27.2125,168.1449 Q27.3984,167.9809 27.825,167.9809 L29.4328,167.9809 Q29.8594,167.9809 30.0344,168.1449 Q30.2203,168.309 30.2203,168.5715 Q30.2203,168.8449 30.0344,169.009 Q29.8594,169.173 29.4328,169.173 L29.1484,169.173 L30.8656,173.2855 Z " fill="#000000"/><text fill="#000000" font-family="sans-serif" font-size="8.4" font-style="italic" lengthAdjust="spacing" textLength="56.7" x="38.85" y="162.374">&#171;value object&#187;</text><text fill="#000000" font-family="sans-serif" font-size="8.4" font-style="italic" lengthAdjust="spacing" textLength="42.7" x="45.85" y="173.5467">&#171;identifier&#187;</text><text fill="#000000" font-family="sans-serif" font-size="9.8" lengthAdjust="spacing" textLength="30.8" x="51.8" y="186.2301">Priority</text><line style="stroke:#181818;stroke-width:0.3499999999999999;" x1="20.65" x2="95.55" y1="192.1896" y2="192.1896"/></g><!--class Status--><g id="elem_Status"><rect codeLine="36" fill="#F5F5DC" height="47.9801" id="Status" rx="1.75" ry="1.75" style="stroke:#181818;stroke-width:0.3499999999999999;" width="76.3" x="120.75" y="149.8096"/><ellipse cx="131.25" cy="170.9996" fill="#FF8B40" rx="7.7" ry="7.7" style="stroke:#181818;stroke-width:0.6999999999999998;"/><path d="M131.6656,173.2855 L133.3937,169.173 L133.1203,169.173 Q132.6937,169.173 132.5078,169.009 Q132.3219,168.8449 132.3219,168.5715 Q132.3219,168.309 132.5078,168.1449 Q132.6937,167.9809 133.1203,167.9809 L134.7172,167.9809 Q135.1437,167.9809 135.3297,168.1449 Q135.5156,168.309 135.5156,168.5715 Q135.5156,168.8996 135.2312,169.0855 Q135.1,169.173 134.6844,169.173 L132.2453,175.0246 L131.0969,175.0246 L128.6578,169.173 Q128.2422,169.173 128.1109,169.0855 Q127.8266,168.8996 127.8266,168.5715 Q127.8266,168.309 128.0125,168.1449 Q128.1984,167.9809 128.625,167.9809 L130.2328,167.9809 Q130.6594,167.9809 130.8344,168.1449 Q131.0203,168.309 131.0203,168.5715 Q131.0203,168.8449 130.8344,169.009 Q130.6594,169.173 130.2328,169.173 L129.9484,169.173 L131.6656,173.2855 Z " fill="#000000"/><text fill="#000000" font-family="sans-serif" font-size="8.4" font-style="italic" lengthAdjust="spacing" textLength="56.7" x="139.65" y="162.374">&#171;value object&#187;</text><text fill="#000000" font-family="sans-serif" font-size="8.4" font-style="italic" lengthAdjust="spacing" textLength="42.7" x="146.65" y="173.5467">&#171;identifier&#187;</text><text fill="#000000" font-family="sans-serif" font-size="9.8" lengthAdjust="spacing" textLength="28" x="154" y="186.2301">Status</text><line style="stroke:#181818;stroke-width:0.3499999999999999;" x1="121.45" x2="196.35" y1="192.1896" y2="192.1896"/></g><!--class OperationType--><g id="elem_OperationType"><rect codeLine="40" fill="#F5F5DC" height="47.9801" id="OperationType" rx="1.75" ry="1.75" style="stroke:#181818;stroke-width:0.3499999999999999;" width="88.9" x="1204.35" y="258.3096"/><ellipse cx="1214.85" cy="279.4996" fill="#ADD1B2" rx="7.7" ry="7.7" style="stroke:#181818;stroke-width:0.6999999999999998;"/><path d="M1214.0516,280.0574 L1214.0516,281.8074 L1217.0812,281.8074 L1217.0812,281.1621 Q1217.0812,280.7355 1217.2453,280.5496 Q1217.4203,280.3637 1217.6828,280.3637 Q1217.9453,280.3637 1218.1094,280.5496 Q1218.2734,280.7355 1218.2734,281.1621 L1218.2734,282.9996 L1212.6734,282.9996 Q1212.2359,282.9996 1212.05,282.8355 Q1211.875,282.6715 1211.875,282.398 Q1211.875,282.1355 1212.0609,281.9715 Q1212.2469,281.8074 1212.6734,281.8074 L1212.8594,281.8074 L1212.8594,277.148 L1212.6734,277.148 Q1212.2359,277.148 1212.05,276.984 Q1211.875,276.8199 1211.875,276.5465 Q1211.875,276.284 1212.05,276.1199 Q1212.2359,275.9559 1212.6734,275.9559 L1218.0109,275.9559 L1218.0109,277.7715 Q1218.0109,278.198 1217.8469,278.384 Q1217.6937,278.559 1217.4203,278.559 Q1217.1578,278.559 1216.9937,278.384 Q1216.8297,278.198 1216.8297,277.7715 L1216.8297,277.148 L1214.0516,277.148 L1214.0516,278.8652 L1215.0906,278.8652 Q1215.0906,278.4059 1215.1781,278.2746 Q1215.3641,277.9902 1215.6922,277.9902 Q1215.9547,277.9902 1216.1187,278.1762 Q1216.2828,278.3512 1216.2828,278.7777 L1216.2828,280.1559 Q1216.2828,280.5387 1216.1953,280.6699 Q1216.0094,280.9434 1215.6922,280.9434 Q1215.3641,280.9434 1215.1781,280.659 Q1215.0906,280.5277 1215.0906,280.0574 L1214.0516,280.0574 Z " fill="#000000"/><text fill="#000000" font-family="sans-serif" font-size="8.4" font-style="italic" lengthAdjust="spacing" textLength="30.1" x="1242.85" y="270.874">&#171;entity&#187;</text><text fill="#000000" font-family="sans-serif" font-size="8.4" font-style="italic" lengthAdjust="spacing" textLength="24.5" x="1245.65" y="282.0467">&#171;root&#187;</text><text fill="#000000" font-family="sans-serif" font-size="9.8" lengthAdjust="spacing" textLength="66.5" x="1224.65" y="294.7301">OperationType</text><line style="stroke:#181818;stroke-width:0.3499999999999999;" x1="1205.05" x2="1292.55" y1="300.6896" y2="300.6896"/></g><!--class OperationTypeId--><g id="elem_OperationTypeId"><rect codeLine="41" fill="#F5F5DC" height="47.9801" id="OperationTypeId" rx="1.75" ry="1.75" style="stroke:#181818;stroke-width:0.3499999999999999;" width="96.6" x="1171.1" y="349.3096"/><ellipse cx="1181.6" cy="370.4996" fill="#FF8B40" rx="7.7" ry="7.7" style="stroke:#181818;stroke-width:0.6999999999999998;"/><path d="M1182.0156,372.7855 L1183.7437,368.673 L1183.4703,368.673 Q1183.0437,368.673 1182.8578,368.509 Q1182.6719,368.3449 1182.6719,368.0715 Q1182.6719,367.809 1182.8578,367.6449 Q1183.0437,367.4809 1183.4703,367.4809 L1185.0672,367.4809 Q1185.4937,367.4809 1185.6797,367.6449 Q1185.8656,367.809 1185.8656,368.0715 Q1185.8656,368.3996 1185.5812,368.5855 Q1185.45,368.673 1185.0344,368.673 L1182.5953,374.5246 L1181.4469,374.5246 L1179.0078,368.673 Q1178.5922,368.673 1178.4609,368.5855 Q1178.1766,368.3996 1178.1766,368.0715 Q1178.1766,367.809 1178.3625,367.6449 Q1178.5484,367.4809 1178.975,367.4809 L1180.5828,367.4809 Q1181.0094,367.4809 1181.1844,367.6449 Q1181.3703,367.809 1181.3703,368.0715 Q1181.3703,368.3449 1181.1844,368.509 Q1181.0094,368.673 1180.5828,368.673 L1180.2984,368.673 L1182.0156,372.7855 Z " fill="#000000"/><text fill="#000000" font-family="sans-serif" font-size="8.4" font-style="italic" lengthAdjust="spacing" textLength="56.7" x="1200.15" y="361.874">&#171;value object&#187;</text><text fill="#000000" font-family="sans-serif" font-size="8.4" font-style="italic" lengthAdjust="spacing" textLength="42.7" x="1207.15" y="373.0467">&#171;identifier&#187;</text><text fill="#000000" font-family="sans-serif" font-size="9.8" lengthAdjust="spacing" textLength="74.2" x="1191.4" y="385.7301">OperationTypeId</text><line style="stroke:#181818;stroke-width:0.3499999999999999;" x1="1171.8" x2="1267" y1="391.6896" y2="391.6896"/></g><!--class OperationTypeName--><g id="elem_OperationTypeName"><rect codeLine="42" fill="#F5F5DC" height="36.8074" id="OperationTypeName" rx="1.75" ry="1.75" style="stroke:#181818;stroke-width:0.3499999999999999;" width="114.1" x="1292.55" y="354.9096"/><ellipse cx="1303.05" cy="370.5133" fill="#FF8B40" rx="7.7" ry="7.7" style="stroke:#181818;stroke-width:0.6999999999999998;"/><path d="M1303.4656,372.7992 L1305.1937,368.6867 L1304.9203,368.6867 Q1304.4937,368.6867 1304.3078,368.5227 Q1304.1219,368.3586 1304.1219,368.0852 Q1304.1219,367.8227 1304.3078,367.6586 Q1304.4937,367.4945 1304.9203,367.4945 L1306.5172,367.4945 Q1306.9437,367.4945 1307.1297,367.6586 Q1307.3156,367.8227 1307.3156,368.0852 Q1307.3156,368.4133 1307.0312,368.5992 Q1306.9,368.6867 1306.4844,368.6867 L1304.0453,374.5383 L1302.8969,374.5383 L1300.4578,368.6867 Q1300.0422,368.6867 1299.9109,368.5992 Q1299.6266,368.4133 1299.6266,368.0852 Q1299.6266,367.8227 1299.8125,367.6586 Q1299.9984,367.4945 1300.425,367.4945 L1302.0328,367.4945 Q1302.4594,367.4945 1302.6344,367.6586 Q1302.8203,367.8227 1302.8203,368.0852 Q1302.8203,368.3586 1302.6344,368.5227 Q1302.4594,368.6867 1302.0328,368.6867 L1301.7484,368.6867 L1303.4656,372.7992 Z " fill="#000000"/><text fill="#000000" font-family="sans-serif" font-size="8.4" font-style="italic" lengthAdjust="spacing" textLength="56.7" x="1330.35" y="367.474">&#171;value object&#187;</text><text fill="#000000" font-family="sans-serif" font-size="9.8" lengthAdjust="spacing" textLength="91.7" x="1312.85" y="380.1574">OperationTypeName</text><line style="stroke:#181818;stroke-width:0.3499999999999999;" x1="1293.25" x2="1405.95" y1="386.117" y2="386.117"/></g><!--class RequiredStaff--><g id="elem_RequiredStaff"><rect codeLine="43" fill="#F5F5DC" height="36.8074" id="RequiredStaff" rx="1.75" ry="1.75" style="stroke:#181818;stroke-width:0.3499999999999999;" width="83.3" x="1223.95" y="440.3096"/><ellipse cx="1234.45" cy="455.9133" fill="#FF8B40" rx="7.7" ry="7.7" style="stroke:#181818;stroke-width:0.6999999999999998;"/><path d="M1234.8656,458.1992 L1236.5937,454.0867 L1236.3203,454.0867 Q1235.8937,454.0867 1235.7078,453.9227 Q1235.5219,453.7586 1235.5219,453.4852 Q1235.5219,453.2227 1235.7078,453.0586 Q1235.8937,452.8945 1236.3203,452.8945 L1237.9172,452.8945 Q1238.3437,452.8945 1238.5297,453.0586 Q1238.7156,453.2227 1238.7156,453.4852 Q1238.7156,453.8133 1238.4312,453.9992 Q1238.3,454.0867 1237.8844,454.0867 L1235.4453,459.9383 L1234.2969,459.9383 L1231.8578,454.0867 Q1231.4422,454.0867 1231.3109,453.9992 Q1231.0266,453.8133 1231.0266,453.4852 Q1231.0266,453.2227 1231.2125,453.0586 Q1231.3984,452.8945 1231.825,452.8945 L1233.4328,452.8945 Q1233.8594,452.8945 1234.0344,453.0586 Q1234.2203,453.2227 1234.2203,453.4852 Q1234.2203,453.7586 1234.0344,453.9227 Q1233.8594,454.0867 1233.4328,454.0867 L1233.1484,454.0867 L1234.8656,458.1992 Z " fill="#000000"/><text fill="#000000" font-family="sans-serif" font-size="8.4" font-style="italic" lengthAdjust="spacing" textLength="56.7" x="1246.35" y="452.874">&#171;value object&#187;</text><text fill="#000000" font-family="sans-serif" font-size="9.8" lengthAdjust="spacing" textLength="60.9" x="1244.25" y="465.5574">RequiredStaff</text><line style="stroke:#181818;stroke-width:0.3499999999999999;" x1="1224.65" x2="1306.55" y1="471.517" y2="471.517"/></g><g id="elem_GMN30"><path d="M1142.75,449.4096 L1142.75,468.5133 A0,0 0 0 0 1142.75,468.5133 L1199.45,468.5133 A0,0 0 0 0 1199.45,468.5133 L1199.45,462.0096 L1223.789,458.8596 L1199.45,456.4096 L1199.45,456.4096 L1192.45,449.4096 L1142.75,449.4096 A0,0 0 0 0 1142.75,449.4096 " fill="#FEFFDD" style="stroke:#181818;stroke-width:0.3499999999999999;"/><path d="M1192.45,449.4096 L1192.45,456.4096 L1199.45,456.4096 L1192.45,449.4096 " fill="#FEFFDD" style="stroke:#181818;stroke-width:0.3499999999999999;"/><text fill="#000000" font-family="sans-serif" font-size="9.1" lengthAdjust="spacing" textLength="42" x="1146.95" y="462.7294">review this</text></g><!--class EstimatedDuration--><g id="elem_EstimatedDuration"><rect codeLine="45" fill="#F5F5DC" height="36.8074" id="EstimatedDuration" rx="1.75" ry="1.75" style="stroke:#181818;stroke-width:0.3499999999999999;" width="103.6" x="1332.1" y="440.3096"/><ellipse cx="1342.6" cy="455.9133" fill="#FF8B40" rx="7.7" ry="7.7" style="stroke:#181818;stroke-width:0.6999999999999998;"/><path d="M1343.0156,458.1992 L1344.7437,454.0867 L1344.4703,454.0867 Q1344.0437,454.0867 1343.8578,453.9227 Q1343.6719,453.7586 1343.6719,453.4852 Q1343.6719,453.2227 1343.8578,453.0586 Q1344.0437,452.8945 1344.4703,452.8945 L1346.0672,452.8945 Q1346.4937,452.8945 1346.6797,453.0586 Q1346.8656,453.2227 1346.8656,453.4852 Q1346.8656,453.8133 1346.5812,453.9992 Q1346.45,454.0867 1346.0344,454.0867 L1343.5953,459.9383 L1342.4469,459.9383 L1340.0078,454.0867 Q1339.5922,454.0867 1339.4609,453.9992 Q1339.1766,453.8133 1339.1766,453.4852 Q1339.1766,453.2227 1339.3625,453.0586 Q1339.5484,452.8945 1339.975,452.8945 L1341.5828,452.8945 Q1342.0094,452.8945 1342.1844,453.0586 Q1342.3703,453.2227 1342.3703,453.4852 Q1342.3703,453.7586 1342.1844,453.9227 Q1342.0094,454.0867 1341.5828,454.0867 L1341.2984,454.0867 L1343.0156,458.1992 Z " fill="#000000"/><text fill="#000000" font-family="sans-serif" font-size="8.4" font-style="italic" lengthAdjust="spacing" textLength="56.7" x="1364.65" y="452.874">&#171;value object&#187;</text><text fill="#000000" font-family="sans-serif" font-size="9.8" lengthAdjust="spacing" textLength="81.2" x="1352.4" y="465.5574">EstimatedDuration</text><line style="stroke:#181818;stroke-width:0.3499999999999999;" x1="1332.8" x2="1435" y1="471.517" y2="471.517"/></g><!--link Name to FirstName--><g id="link_Name_FirstName"><path codeLine="49" d="M954.912,192.6496 C964.642,202.6456 976.913,215.3506 987.7,226.8096 C999.236,239.0596 1009.2265,249.932 1019.0475,260.726 " fill="none" id="Name-to-FirstName" style="stroke:#222222;stroke-width:0.6999999999999998;"/><polygon fill="#222222" points="1021.874,263.8326,1019.7052,257.2884,1019.5186,261.2438,1015.5632,261.0571,1021.874,263.8326" style="stroke:#222222;stroke-width:0.6999999999999998;"/></g><!--link Name to LastName--><g id="link_Name_LastName"><path codeLine="50" d="M975.492,173.9596 C983.647,173.9596 987.595,173.9596 995.75,173.9596 " fill="none" id="Name-to-LastName" style="stroke:#222222;stroke-width:0.6999999999999998;"/><polygon fill="#222222" points="999.95,173.9596,993.65,171.1596,996.45,173.9596,993.65,176.7596,999.95,173.9596" style="stroke:#222222;stroke-width:0.6999999999999998;"/></g><!--link Name to FullName--><g id="link_Name_FullName"><path codeLine="51" d="M937.3,192.5866 C937.3,212.3546 937.3,239.7806 937.3,259.5766 " fill="none" id="Name-to-FullName" style="stroke:#222222;stroke-width:0.6999999999999998;"/><polygon fill="#222222" points="937.3,263.7766,940.1,257.4766,937.3,260.2766,934.5,257.4766,937.3,263.7766" style="stroke:#222222;stroke-width:0.6999999999999998;"/></g><!--link OperationType to OperationTypeId--><g id="link_OperationType_OperationTypeId"><path codeLine="53" d="M1241.072,306.7006 C1236.788,319.7696 1232.7763,331.9835 1228.4853,345.0735 " fill="none" id="OperationType-to-OperationTypeId" style="stroke:#222222;stroke-width:0.6999999999999998;"/><polygon fill="#222222" points="1227.177,349.0646,1231.8001,343.9502,1228.2672,345.7387,1226.4787,342.2058,1227.177,349.0646" style="stroke:#222222;stroke-width:0.6999999999999998;"/><text fill="#000000" font-family="sans-serif" font-size="9.1" lengthAdjust="spacing" textLength="4.9" x="1223.2592" y="341.4378">1</text></g><!--link OperationType to OperationTypeName--><g id="link_OperationType_OperationTypeName"><path codeLine="54" d="M1275.281,306.7006 C1292.2,321.7366 1310.6564,338.1396 1326.2034,351.9646 " fill="none" id="OperationType-to-OperationTypeName" style="stroke:#222222;stroke-width:0.6999999999999998;"/><polygon fill="#222222" points="1329.342,354.7556,1326.4948,348.4768,1326.7265,352.4298,1322.7735,352.6615,1329.342,354.7556" style="stroke:#222222;stroke-width:0.6999999999999998;"/><text fill="#000000" font-family="sans-serif" font-size="9.1" lengthAdjust="spacing" textLength="4.9" x="1319.1908" y="347.0315">1</text></g><!--link OperationType to RequiredStaff--><g id="link_OperationType_RequiredStaff"><path codeLine="55" d="M1204.196,304.4886 C1186.836,315.3036 1168.825,330.2346 1159.2,349.3096 C1149.526,368.4756 1148.406,379.0526 1159.2,397.6096 C1166.704,410.5176 1194.2282,425.6906 1220.9612,438.3886 " fill="none" id="OperationType-to-RequiredStaff" style="stroke:#222222;stroke-width:0.6999999999999998;"/><polygon fill="#222222" points="1224.755,440.1906,1220.2657,434.9584,1221.5935,438.6889,1217.863,440.0167,1224.755,440.1906" style="stroke:#222222;stroke-width:0.6999999999999998;"/><text fill="#000000" font-family="sans-serif" font-size="9.1" lengthAdjust="spacing" textLength="4.9" x="1213.496" y="434.5309">1</text></g><!--link OperationType to EstimatedDuration--><g id="link_OperationType_EstimatedDuration"><path codeLine="56" d="M1293.418,286.8486 C1333.752,292.8196 1390.949,308.4436 1418.9,349.3096 C1438.29,377.6526 1417.9857,414.0197 1401.1577,436.8117 " fill="none" id="OperationType-to-EstimatedDuration" style="stroke:#222222;stroke-width:0.6999999999999998;"/><polygon fill="#222222" points="1398.663,440.1906,1404.6576,436.7854,1400.7419,437.3749,1400.1525,433.4592,1398.663,440.1906" style="stroke:#222222;stroke-width:0.6999999999999998;"/><text fill="#000000" font-family="sans-serif" font-size="9.1" lengthAdjust="spacing" textLength="4.9" x="1396.6104" y="432.4746">1</text></g><!--link OperationRequest to OperationRequestId--><g id="link_OperationRequest_OperationRequestId"><path codeLine="58" d="M119.14,54.2596 C127.302,54.2596 131.264,54.2596 139.426,54.2596 " fill="none" id="OperationRequest-to-OperationRequestId" style="stroke:#222222;stroke-width:0.6999999999999998;"/><polygon fill="#222222" points="143.626,54.2596,137.326,51.4596,140.126,54.2596,137.326,57.0596,143.626,54.2596" style="stroke:#222222;stroke-width:0.6999999999999998;"/><text fill="#000000" font-family="sans-serif" font-size="9.1" lengthAdjust="spacing" textLength="4.9" x="133.3493" y="51.655">1</text></g><!--link OperationRequest to Priority--><g id="link_OperationRequest_Priority"><path codeLine="59" d="M65.38,78.6126 C63.791,99.2486 61.8247,124.839 60.2357,145.461 " fill="none" id="OperationRequest-to-Priority" style="stroke:#222222;stroke-width:0.6999999999999998;"/><polygon fill="#222222" points="59.913,149.6486,63.1887,143.5823,60.1819,146.1589,57.6053,143.1521,59.913,149.6486" style="stroke:#222222;stroke-width:0.6999999999999998;"/><text fill="#000000" font-family="sans-serif" font-size="9.1" lengthAdjust="spacing" textLength="4.9" x="54.8916" y="141.8498">1</text></g><!--link OperationRequest to Patient--><g id="link_OperationRequest_Patient"><path codeLine="60" d="M119.035,74.4686 C123.263,75.8616 127.491,77.1986 131.6,78.4096 C276.717,121.1726 450.9061,155.2418 517.3641,167.6318 " fill="none" id="OperationRequest-to-Patient" style="stroke:#222222;stroke-width:0.6999999999999998;"/><polygon fill="#222222" points="521.493,168.4016,515.8129,164.4944,518.0523,167.7601,514.7865,169.9995,521.493,168.4016" style="stroke:#222222;stroke-width:0.6999999999999998;"/><text fill="#000000" font-family="sans-serif" font-size="9.1" lengthAdjust="spacing" textLength="35" x="256.9" y="109.9294">made for</text><text fill="#000000" font-family="sans-serif" font-size="9.1" lengthAdjust="spacing" textLength="4.9" x="511.054" y="164.1776">1</text></g><!--link OperationRequest to Doctor--><g id="link_OperationRequest_Doctor"><path codeLine="61" d="M119.007,75.3576 C123.221,76.5476 127.456,77.5906 131.6,78.4096 C340.221,119.7166 893.466,31.9086 1087.8,118.3096 C1102.822,124.9876 1113.1979,134.673 1122.6829,146.328 " fill="none" id="OperationRequest-to-Doctor" style="stroke:#222222;stroke-width:0.6999999999999998;"/><polygon fill="#222222" points="1125.334,149.5856,1123.5291,142.9318,1123.1248,146.8709,1119.1857,146.4666,1125.334,149.5856" style="stroke:#222222;stroke-width:0.6999999999999998;"/><text fill="#000000" font-family="sans-serif" font-size="9.1" lengthAdjust="spacing" textLength="44.8" x="1063.3" y="109.9294">registed by</text><text fill="#000000" font-family="sans-serif" font-size="9.1" lengthAdjust="spacing" textLength="4.9" x="1116.9648" y="141.9627">1</text></g><!--link OperationRequest to OperationType--><g id="link_OperationRequest_OperationType"><path codeLine="62" d="M119.168,75.4976 C123.326,76.6456 127.505,77.6396 131.6,78.4096 C346.311,118.6526 898.513,66.0266 1114.4,99.4096 C1143.877,103.9666 1156.491,98.5136 1178.8,118.3096 C1220.821,155.5986 1237.6979,218.3561 1244.3899,253.9021 " fill="none" id="OperationRequest-to-OperationType" style="stroke:#222222;stroke-width:0.6999999999999998;"/><polygon fill="#222222" points="1245.167,258.0296,1246.7531,251.3203,1244.5195,254.59,1241.2498,252.3564,1245.167,258.0296" style="stroke:#222222;stroke-width:0.6999999999999998;"/><text fill="#000000" font-family="sans-serif" font-size="9.1" lengthAdjust="spacing" textLength="41.3" x="1234.8" y="177.8294">defined by</text><text fill="#000000" font-family="sans-serif" font-size="9.1" lengthAdjust="spacing" textLength="4.9" x="1239.1454" y="250.3964">1</text></g><!--link OperationRequest to Date--><g id="link_OperationRequest_Date"><path codeLine="63" d="M119.049,75.1476 C123.256,76.3796 127.477,77.4926 131.6,78.4096 C230.839,100.4246 496.118,73.3696 587.3,118.3096 C603.904,126.4926 615.271,139.2481 624.196,151.9391 " fill="none" id="OperationRequest-to-Date" style="stroke:#222222;stroke-width:0.6999999999999998;"/><polygon fill="#222222" points="626.612,155.3746,625.2783,148.6106,624.5986,152.5116,620.6976,151.832,626.612,155.3746" style="stroke:#222222;stroke-width:0.6999999999999998;"/><text fill="#000000" font-family="sans-serif" font-size="9.1" lengthAdjust="spacing" textLength="4.9" x="618.4121" y="147.3745">1</text></g><!--link OperationRequest to Status--><g id="link_OperationRequest_Status"><path codeLine="64" d="M85.533,78.6126 C101.528,99.2486 122.0413,125.7067 138.0223,146.3287 " fill="none" id="OperationRequest-to-Status" style="stroke:#222222;stroke-width:0.6999999999999998;"/><polygon fill="#222222" points="140.595,149.6486,138.9492,142.9537,138.4511,146.882,134.5227,146.384,140.595,149.6486" style="stroke:#222222;stroke-width:0.6999999999999998;"/><text fill="#000000" font-family="sans-serif" font-size="9.1" lengthAdjust="spacing" textLength="4.9" x="131.7386" y="141.8498">1</text></g><!--link Patient to Name--><g id="link_Patient_Name"><path codeLine="66" d="M557.256,149.7186 C565.397,131.9456 579.201,109.1256 599.55,98.3596 C704.578,42.7936 845.3092,115.9772 905.5372,153.1612 " fill="none" id="Patient-to-Name" style="stroke:#222222;stroke-width:0.6999999999999998;"/><polygon fill="#222222" points="909.111,155.3676,905.2213,149.6755,906.1329,153.5289,902.2794,154.4405,909.111,155.3676" style="stroke:#222222;stroke-width:0.6999999999999998;"/><text fill="#000000" font-family="sans-serif" font-size="9.1" lengthAdjust="spacing" textLength="4.9" x="897.1257" y="147.6694">1</text></g><!--link Patient to DateBirth--><g id="link_Patient_DateBirth"><path codeLine="67" d="M565.509,198.2356 C571.627,204.7806 579.054,211.1296 587.3,214.9096 C605.717,223.3586 659.967,211.8856 678.3,220.5096 C698.082,229.8126 711.9809,245.8007 722.0959,260.2907 " fill="none" id="Patient-to-DateBirth" style="stroke:#222222;stroke-width:0.6999999999999998;"/><polygon fill="#222222" points="724.5,263.7346,723.1898,256.966,722.4966,260.8647,718.598,260.1714,724.5,263.7346" style="stroke:#222222;stroke-width:0.6999999999999998;"/><text fill="#000000" font-family="sans-serif" font-size="9.1" lengthAdjust="spacing" textLength="4.9" x="716.4434" y="256.0057">1</text></g><!--link Patient to Gender--><g id="link_Patient_Gender"><path codeLine="68" d="M565.502,198.2566 C571.62,204.8016 579.047,211.1436 587.3,214.9096 C597.149,219.4036 673.792,219.8656 684.6,220.5096 C729.715,223.2116 745.311,207.3426 786.1,226.8096 C802.809,234.7826 814.1759,247.5493 823.0729,260.3103 " fill="none" id="Patient-to-Gender" style="stroke:#222222;stroke-width:0.6999999999999998;"/><polygon fill="#222222" points="825.475,263.7556,824.1688,256.9862,823.4733,260.8845,819.575,260.189,825.475,263.7556" style="stroke:#222222;stroke-width:0.6999999999999998;"/><text fill="#000000" font-family="sans-serif" font-size="9.1" lengthAdjust="spacing" textLength="4.9" x="817.4589" y="256.0315">1</text></g><!--link Patient to ContactInfo--><g id="link_Patient_ContactInfo"><path codeLine="69" d="M566.153,198.1516 C572.201,204.5286 579.432,210.8006 587.3,214.9096 C616.091,229.9386 638.386,202.0436 659.4,226.8096 C691.145,264.2176 658.038,321.4373 636.569,351.4043 " fill="none" id="Patient-to-ContactInfo" style="stroke:#222222;stroke-width:0.6999999999999998;"/><polygon fill="#222222" points="634.123,354.8186,640.0682,351.3279,636.1614,351.9734,635.5159,348.0665,634.123,354.8186" style="stroke:#222222;stroke-width:0.6999999999999998;"/><text fill="#000000" font-family="sans-serif" font-size="9.1" lengthAdjust="spacing" textLength="4.9" x="631.8761" y="347.1091">1</text></g><!--link Patient to EmergencyContact--><g id="link_Patient_EmergencyContact"><path codeLine="70" d="M521.304,176.3956 C464.534,180.6866 335.188,193.9306 308.7,226.8096 C286.447,254.4316 292.544,275.0326 308.7,306.6096 C319.606,327.9316 337.2919,341.8892 356.6399,352.8162 " fill="none" id="Patient-to-EmergencyContact" style="stroke:#222222;stroke-width:0.6999999999999998;"/><polygon fill="#222222" points="360.297,354.8816,356.1883,349.3455,357.2494,353.1604,353.4345,354.2216,360.297,354.8816" style="stroke:#222222;stroke-width:0.6999999999999998;"/><text fill="#000000" font-family="sans-serif" font-size="9.1" lengthAdjust="spacing" textLength="4.9" x="345.0247" y="346.8832">1</text></g><!--link Patient to MRN--><g id="link_Patient_MRN"><path codeLine="71" d="M521.234,180.8826 C492.121,188.4916 445.151,203.3246 410.2,226.8096 C397.551,235.3076 388.4946,244.3014 379.4506,255.0534 " fill="none" id="Patient-to-MRN" style="stroke:#222222;stroke-width:0.6999999999999998;"/><polygon fill="#222222" points="376.747,258.2676,382.9451,255.2487,379,255.5891,378.6596,251.644,376.747,258.2676" style="stroke:#222222;stroke-width:0.6999999999999998;"/><text fill="#000000" font-family="sans-serif" font-size="9.1" lengthAdjust="spacing" textLength="4.9" x="374.7439" y="250.4915">1</text></g><!--link Patient to MedicalCondition--><g id="link_Patient_MedicalCondition"><path codeLine="72" d="M531.202,198.1656 C517.034,217.8706 499.5495,242.1872 486.5925,260.2122 " fill="none" id="Patient-to-MedicalCondition" style="stroke:#222222;stroke-width:0.6999999999999998;"/><polygon fill="#222222" points="484.141,263.6226,490.0917,260.1414,486.1839,260.7806,485.5446,256.8728,484.141,263.6226" style="stroke:#222222;stroke-width:0.6999999999999998;"/><text fill="#000000" font-family="sans-serif" font-size="9.1" lengthAdjust="spacing" textLength="15.4" x="469.9093" y="256.1745">0..1</text></g><!--link Patient to AppoitmentHistory--><g id="link_Patient_AppoitmentHistory"><path codeLine="73" d="M558.544,198.1656 C567.301,217.8706 577.9228,241.7593 585.9308,259.7843 " fill="none" id="Patient-to-AppoitmentHistory" style="stroke:#222222;stroke-width:0.6999999999999998;"/><polygon fill="#222222" points="587.636,263.6226,587.637,256.7284,586.215,260.424,582.5193,259.002,587.636,263.6226" style="stroke:#222222;stroke-width:0.6999999999999998;"/><text fill="#000000" font-family="sans-serif" font-size="9.1" lengthAdjust="spacing" textLength="4.9" x="580.4361" y="256.1745">1</text></g><!--link ContactInfo to Email--><g id="link_ContactInfo_Email"><path codeLine="74" d="M620.2,392.1776 C620.2,406.3526 620.2,421.8016 620.2,435.9696 " fill="none" id="ContactInfo-to-Email" style="stroke:#222222;stroke-width:0.6999999999999998;"/><polygon fill="#222222" points="620.2,440.1696,623,433.8696,620.2,436.6696,617.4,433.8696,620.2,440.1696" style="stroke:#222222;stroke-width:0.6999999999999998;"/><text fill="#000000" font-family="sans-serif" font-size="9.1" lengthAdjust="spacing" textLength="4.9" x="614.7334" y="432.4488">1</text></g><!--link ContactInfo to Phone--><g id="link_ContactInfo_Phone"><path codeLine="75" d="M590.618,392.1776 C567.35,406.3526 538.6737,423.8163 515.4197,437.9843 " fill="none" id="ContactInfo-to-Phone" style="stroke:#222222;stroke-width:0.6999999999999998;"/><polygon fill="#222222" points="511.833,440.1696,518.6699,439.2828,514.8219,438.3485,515.7562,434.5005,511.833,440.1696" style="stroke:#222222;stroke-width:0.6999999999999998;"/><text fill="#000000" font-family="sans-serif" font-size="9.1" lengthAdjust="spacing" textLength="4.9" x="513.1959" y="432.4488">1</text></g><!--link EmergencyContact to Phone--><g id="link_EmergencyContact_Phone"><path codeLine="76" d="M417.97,392.1776 C431.788,406.3526 448.0153,422.9941 461.8263,437.1621 " fill="none" id="EmergencyContact-to-Phone" style="stroke:#222222;stroke-width:0.6999999999999998;"/><polygon fill="#222222" points="464.758,440.1696,462.3654,433.7038,462.3149,437.6633,458.3554,437.6128,464.758,440.1696" style="stroke:#222222;stroke-width:0.6999999999999998;"/><text fill="#000000" font-family="sans-serif" font-size="9.1" lengthAdjust="spacing" textLength="4.9" x="455.2348" y="432.4488">1</text></g><!--SRC=[fLRBRjim4BppAmZdqW9Du1Oz584Wm8xZra2R6adGEosjv6qaKYMf16xWV-_gOKSlHrAgax0xCqiDkLoP1vI9q2BcNYICcLchSPDQM7bAtk5Vu5EsHHyun8dTSN586sRgnBdm7aAjKkbVgKXflW4CeGAQQQsUYjJPf_nXZ2L44Y7mYUE8CDGG2WkkozV28aWxuS-CqqElIBNBA7US8a10nz5AMNfvtkV8V2LyGIfpr7PB-NU_Ffmjbr_cdwVl7qMK0bURt-2rA5z1-g3xy1N2TGmw1EdjhfIqmhF3I_sulNaLx3XaDtrWWA1RNF3H4n7LzD6YaiEhpf94eOr9-1iQg_HknBVUY1Y6LrgYDdOSvRiOorYcKJIEKUxJIWPgE6czLN94ZUjOO3GSdftJFlI-kqduGdcqYwxRw94YN6cHGuSKKjrQFnFG8ZjEj_0d1KFeIKsqcU_lm2PZvR_voAyrAfsjugq2TrROr8oax_kikjybSDAdB3d2f0p-7mxLT7gReixDzWSr-6HI40pYIKKsH13OIwxX4U69sosQQXCOYp5vvI_IObczijd1pDTzVkw-N1zbo3tU3XLCsVsCrItFSfEFawQpGr2vN1DN0cicdGArFhkok4FVD0iVkwC3Mc8Fn_yLH3aMBtaiQ4u7If_6bjT3jdKXZG7m-QPJkSiXOlaGe3n9AakG1wUpHJCoTbXq6SxTFyOgIlaORsMAQLq9b_7A7TzEDYTsIvK6SpqslRZ8mesPs-ArHYkhpfgNyZGREZFva66j7ufw-Xy0]--></g></svg>