<?xml version="1.0" encoding="us-ascii" standalone="no"?><svg xmlns="http://www.w3.org/2000/svg" xmlns:xlink="http://www.w3.org/1999/xlink" contentStyleType="text/css" height="711px" preserveAspectRatio="none" style="width:760px;height:711px;background:#FFFFFF;" version="1.1" viewBox="0 0 760 711" width="760px" zoomAndPan="magnify"><defs/><g><text fill="#000000" font-family="sans-serif" font-size="14" font-weight="bold" lengthAdjust="spacing" textLength="392" x="185.75" y="30.1074">US 7.2.3 Process View (Level 3) | MDPatientManagement</text><rect fill="#FFFFFF" height="495.6709" style="stroke:#181818;stroke-width:1.0;" width="10" x="61" y="141.7998"/><rect fill="#FFFFFF" height="421.4434" style="stroke:#181818;stroke-width:1.0;" width="10" x="184" y="184.7363"/><rect fill="#FFFFFF" height="314.5703" style="stroke:#181818;stroke-width:1.0;" width="10" x="322" y="216.0273"/><rect fill="#FFFFFF" height="31.291" style="stroke:#181818;stroke-width:1.0;" width="10" x="472" y="247.3184"/><rect fill="#FFFFFF" height="31.291" style="stroke:#181818;stroke-width:1.0;" width="10" x="599" y="461.0156"/><rect fill="#FFFFFF" height="31.291" style="stroke:#181818;stroke-width:1.0;" width="10" x="700.5" y="398.4336"/><rect fill="none" height="144.4551" style="stroke:#000000;stroke-width:1.5;" width="491.5" x="263" y="355.8516"/><line style="stroke:#181818;stroke-width:0.5;stroke-dasharray:5.0,5.0;" x1="65.5" x2="65.5" y1="96.8633" y2="655.4707"/><line style="stroke:#181818;stroke-width:0.5;stroke-dasharray:5.0,5.0;" x1="188.5" x2="188.5" y1="96.8633" y2="655.4707"/><line style="stroke:#181818;stroke-width:0.5;stroke-dasharray:5.0,5.0;" x1="327" x2="327" y1="96.8633" y2="655.4707"/><line style="stroke:#181818;stroke-width:0.5;stroke-dasharray:5.0,5.0;" x1="476.5" x2="476.5" y1="96.8633" y2="655.4707"/><line style="stroke:#181818;stroke-width:0.5;stroke-dasharray:5.0,5.0;" x1="603.5" x2="603.5" y1="327.7305" y2="655.4707"/><line style="stroke:#181818;stroke-width:0.5;stroke-dasharray:5.0,5.0;" x1="705.5" x2="705.5" y1="96.8633" y2="655.4707"/><rect fill="#E2E2F0" height="51.2422" rx="2.5" ry="2.5" style="stroke:#181818;stroke-width:0.5;" width="85" x="23.5" y="44.6211"/><text fill="#000000" font-family="sans-serif" font-size="14" lengthAdjust="spacing" textLength="54" x="39" y="66.7285">&#171;Route&#187;</text><text fill="#000000" font-family="sans-serif" font-size="14" lengthAdjust="spacing" textLength="67" x="34.5" y="85.3496">StaffRoute</text><rect fill="#E2E2F0" height="51.2422" rx="2.5" ry="2.5" style="stroke:#181818;stroke-width:0.5;" width="85" x="23.5" y="654.4707"/><text fill="#000000" font-family="sans-serif" font-size="14" lengthAdjust="spacing" textLength="54" x="39" y="676.5781">&#171;Route&#187;</text><text fill="#000000" font-family="sans-serif" font-size="14" lengthAdjust="spacing" textLength="67" x="34.5" y="695.1992">StaffRoute</text><rect fill="#E2E2F0" height="51.2422" rx="2.5" ry="2.5" style="stroke:#181818;stroke-width:0.5;" width="109" x="134.5" y="44.6211"/><text fill="#000000" font-family="sans-serif" font-size="14" lengthAdjust="spacing" textLength="78" x="150" y="66.7285">&#171;Controller&#187;</text><text fill="#000000" font-family="sans-serif" font-size="14" lengthAdjust="spacing" textLength="91" x="145.5" y="85.3496">StaffController</text><rect fill="#E2E2F0" height="51.2422" rx="2.5" ry="2.5" style="stroke:#181818;stroke-width:0.5;" width="109" x="134.5" y="654.4707"/><text fill="#000000" font-family="sans-serif" font-size="14" lengthAdjust="spacing" textLength="78" x="150" y="676.5781">&#171;Controller&#187;</text><text fill="#000000" font-family="sans-serif" font-size="14" lengthAdjust="spacing" textLength="91" x="145.5" y="695.1992">StaffController</text><rect fill="#E2E2F0" height="51.2422" rx="2.5" ry="2.5" style="stroke:#181818;stroke-width:0.5;" width="108" x="273" y="44.6211"/><text fill="#000000" font-family="sans-serif" font-size="14" lengthAdjust="spacing" textLength="63" x="295.5" y="66.7285">&#171;Service&#187;</text><text fill="#000000" font-family="sans-serif" font-size="14" lengthAdjust="spacing" textLength="90" x="284" y="85.3496">AllergyService</text><rect fill="#E2E2F0" height="51.2422" rx="2.5" ry="2.5" style="stroke:#181818;stroke-width:0.5;" width="108" x="273" y="654.4707"/><text fill="#000000" font-family="sans-serif" font-size="14" lengthAdjust="spacing" textLength="63" x="295.5" y="676.5781">&#171;Service&#187;</text><text fill="#000000" font-family="sans-serif" font-size="14" lengthAdjust="spacing" textLength="90" x="284" y="695.1992">AllergyService</text><rect fill="#E2E2F0" height="51.2422" rx="2.5" ry="2.5" style="stroke:#181818;stroke-width:0.5;" width="129" x="412.5" y="44.6211"/><text fill="#000000" font-family="sans-serif" font-size="14" lengthAdjust="spacing" textLength="84" x="435" y="66.7285">&#171;Repository&#187;</text><text fill="#000000" font-family="sans-serif" font-size="14" lengthAdjust="spacing" textLength="111" x="423.5" y="85.3496">AllergyRepository</text><rect fill="#E2E2F0" height="51.2422" rx="2.5" ry="2.5" style="stroke:#181818;stroke-width:0.5;" width="129" x="412.5" y="654.4707"/><text fill="#000000" font-family="sans-serif" font-size="14" lengthAdjust="spacing" textLength="84" x="435" y="676.5781">&#171;Repository&#187;</text><text fill="#000000" font-family="sans-serif" font-size="14" lengthAdjust="spacing" textLength="111" x="423.5" y="695.1992">AllergyRepository</text><rect fill="#E2E2F0" height="51.2422" rx="2.5" ry="2.5" style="stroke:#181818;stroke-width:0.5;" width="105" x="551.5" y="654.4707"/><text fill="#000000" font-family="sans-serif" font-size="14" lengthAdjust="spacing" textLength="46" x="581" y="676.5781">&#171;DTO&#187;</text><text fill="#000000" font-family="sans-serif" font-size="14" lengthAdjust="spacing" textLength="87" x="562.5" y="695.1992">AllergyListDto</text><rect fill="#E2E2F0" height="51.2422" rx="2.5" ry="2.5" style="stroke:#181818;stroke-width:0.5;" width="78" x="666.5" y="44.6211"/><text fill="#000000" font-family="sans-serif" font-size="14" lengthAdjust="spacing" textLength="64" x="673.5" y="66.7285">&#171;Domain&#187;</text><text fill="#000000" font-family="sans-serif" font-size="14" lengthAdjust="spacing" textLength="43" x="686" y="85.3496">Allergy</text><rect fill="#E2E2F0" height="51.2422" rx="2.5" ry="2.5" style="stroke:#181818;stroke-width:0.5;" width="78" x="666.5" y="654.4707"/><text fill="#000000" font-family="sans-serif" font-size="14" lengthAdjust="spacing" textLength="64" x="673.5" y="676.5781">&#171;Domain&#187;</text><text fill="#000000" font-family="sans-serif" font-size="14" lengthAdjust="spacing" textLength="43" x="686" y="695.1992">Allergy</text><rect fill="#FFFFFF" height="495.6709" style="stroke:#181818;stroke-width:1.0;" width="10" x="61" y="141.7998"/><rect fill="#FFFFFF" height="421.4434" style="stroke:#181818;stroke-width:1.0;" width="10" x="184" y="184.7363"/><rect fill="#FFFFFF" height="314.5703" style="stroke:#181818;stroke-width:1.0;" width="10" x="322" y="216.0273"/><rect fill="#FFFFFF" height="31.291" style="stroke:#181818;stroke-width:1.0;" width="10" x="472" y="247.3184"/><rect fill="#FFFFFF" height="31.291" style="stroke:#181818;stroke-width:1.0;" width="10" x="599" y="461.0156"/><rect fill="#FFFFFF" height="31.291" style="stroke:#181818;stroke-width:1.0;" width="10" x="700.5" y="398.4336"/><ellipse cx="7.5" cy="141.0498" fill="none" rx="4" ry="4" style="stroke:#181818;stroke-width:1.5;"/><polygon fill="#181818" points="49,137.7998,59,141.7998,49,145.7998,53,141.7998" style="stroke:#181818;stroke-width:1.0;"/><line style="stroke:#181818;stroke-width:1.0;" x1="12" x2="55" y1="141.7998" y2="141.7998"/><text fill="#000000" font-family="sans-serif" font-size="13" lengthAdjust="spacing" textLength="34" x="15" y="136.5371">GET()</text><path d="M76,111.8633 L76,155.8633 L173,155.8633 L173,121.8633 L163,111.8633 L76,111.8633 " fill="#FEFFDD" style="stroke:#181818;stroke-width:0.5;"/><path d="M163,111.8633 L163,121.8633 L173,121.8633 L163,111.8633 " fill="#FEFFDD" style="stroke:#181818;stroke-width:0.5;"/><text fill="#000000" font-family="sans-serif" font-size="13" lengthAdjust="spacing" textLength="61" x="82" y="130.8916">getting the</text><text fill="#000000" font-family="sans-serif" font-size="13" lengthAdjust="spacing" textLength="76" x="82" y="148.1826">list of profiles</text><polygon fill="#181818" points="172,180.7363,182,184.7363,172,188.7363,176,184.7363" style="stroke:#181818;stroke-width:1.0;"/><line style="stroke:#181818;stroke-width:1.0;" x1="71" x2="178" y1="184.7363" y2="184.7363"/><text fill="#000000" font-family="sans-serif" font-size="13" lengthAdjust="spacing" textLength="94" x="78" y="179.4736">GetAllAllergies()</text><polygon fill="#181818" points="310,212.0273,320,216.0273,310,220.0273,314,216.0273" style="stroke:#181818;stroke-width:1.0;"/><line style="stroke:#181818;stroke-width:1.0;" x1="194" x2="316" y1="216.0273" y2="216.0273"/><text fill="#000000" font-family="sans-serif" font-size="13" lengthAdjust="spacing" textLength="74" x="201" y="210.7646">GetAllSync()</text><polygon fill="#181818" points="460,243.3184,470,247.3184,460,251.3184,464,247.3184" style="stroke:#181818;stroke-width:1.0;"/><line style="stroke:#181818;stroke-width:1.0;" x1="332" x2="466" y1="247.3184" y2="247.3184"/><text fill="#000000" font-family="sans-serif" font-size="13" lengthAdjust="spacing" textLength="74" x="339" y="242.0557">GetAllSync()</text><polygon fill="#181818" points="343,274.6094,333,278.6094,343,282.6094,339,278.6094" style="stroke:#181818;stroke-width:1.0;"/><line style="stroke:#181818;stroke-width:1.0;stroke-dasharray:2.0,2.0;" x1="337" x2="476" y1="278.6094" y2="278.6094"/><text fill="#000000" font-family="sans-serif" font-size="13" lengthAdjust="spacing" textLength="116" x="349" y="273.3467">var list = List&lt;Staff&gt;</text><polygon fill="#181818" points="539.5,288.6094,549.5,292.6094,539.5,296.6094,543.5,292.6094" style="stroke:#181818;stroke-width:1.0;"/><line style="stroke:#181818;stroke-width:1.0;" x1="332" x2="545.5" y1="292.6094" y2="292.6094"/><rect fill="#E2E2F0" height="51.2422" rx="2.5" ry="2.5" style="stroke:#181818;stroke-width:0.5;" width="105" x="551.5" y="286.6094"/><text fill="#000000" font-family="sans-serif" font-size="14" lengthAdjust="spacing" textLength="46" x="581" y="308.7168">&#171;DTO&#187;</text><text fill="#000000" font-family="sans-serif" font-size="14" lengthAdjust="spacing" textLength="87" x="562.5" y="327.3379">AllergyListDto</text><path d="M263,355.8516 L336,355.8516 L336,365.1426 L326,375.1426 L263,375.1426 L263,355.8516 " fill="#EEEEEE" style="stroke:#000000;stroke-width:1.5;"/><rect fill="none" height="144.4551" style="stroke:#000000;stroke-width:1.5;" width="491.5" x="263" y="355.8516"/><text fill="#000000" font-family="sans-serif" font-size="13" font-weight="bold" lengthAdjust="spacing" textLength="28" x="278" y="370.8799">loop</text><text fill="#000000" font-family="sans-serif" font-size="11" font-weight="bold" lengthAdjust="spacing" textLength="192" x="351" y="369.7217">[for every profile in listOfAllergies]</text><polygon fill="#181818" points="688.5,394.4336,698.5,398.4336,688.5,402.4336,692.5,398.4336" style="stroke:#181818;stroke-width:1.0;"/><line style="stroke:#181818;stroke-width:1.0;" x1="332" x2="694.5" y1="398.4336" y2="398.4336"/><text fill="#000000" font-family="sans-serif" font-size="13" lengthAdjust="spacing" textLength="45" x="339" y="393.1709">toDTO()</text><polygon fill="#181818" points="343,425.7246,333,429.7246,343,433.7246,339,429.7246" style="stroke:#181818;stroke-width:1.0;"/><line style="stroke:#181818;stroke-width:1.0;stroke-dasharray:2.0,2.0;" x1="337" x2="704.5" y1="429.7246" y2="429.7246"/><text fill="#000000" font-family="sans-serif" font-size="13" lengthAdjust="spacing" textLength="64" x="349" y="424.4619">allergyDTO</text><polygon fill="#181818" points="587,457.0156,597,461.0156,587,465.0156,591,461.0156" style="stroke:#181818;stroke-width:1.0;"/><line style="stroke:#181818;stroke-width:1.0;" x1="332" x2="593" y1="461.0156" y2="461.0156"/><text fill="#000000" font-family="sans-serif" font-size="13" lengthAdjust="spacing" textLength="112" x="339" y="455.7529">listAdd(allergyDTO)</text><polygon fill="#181818" points="343,488.3066,333,492.3066,343,496.3066,339,492.3066" style="stroke:#181818;stroke-width:1.0;"/><line style="stroke:#181818;stroke-width:1.0;stroke-dasharray:2.0,2.0;" x1="337" x2="603" y1="492.3066" y2="492.3066"/><text fill="#000000" font-family="sans-serif" font-size="13" lengthAdjust="spacing" textLength="33" x="349" y="487.0439">return</text><polygon fill="#181818" points="205,526.5977,195,530.5977,205,534.5977,201,530.5977" style="stroke:#181818;stroke-width:1.0;"/><line style="stroke:#181818;stroke-width:1.0;stroke-dasharray:2.0,2.0;" x1="199" x2="326" y1="530.5977" y2="530.5977"/><text fill="#000000" font-family="sans-serif" font-size="13" lengthAdjust="spacing" textLength="89" x="211" y="525.335">allergiesListDto</text><line style="stroke:#181818;stroke-width:1.0;" x1="194" x2="236" y1="561.8887" y2="561.8887"/><line style="stroke:#181818;stroke-width:1.0;" x1="236" x2="236" y1="561.8887" y2="574.8887"/><line style="stroke:#181818;stroke-width:1.0;" x1="195" x2="236" y1="574.8887" y2="574.8887"/><polygon fill="#181818" points="205,570.8887,195,574.8887,205,578.8887,201,574.8887" style="stroke:#181818;stroke-width:1.0;"/><text fill="#000000" font-family="sans-serif" font-size="13" lengthAdjust="spacing" textLength="114" x="201" y="556.626">Ok(allergiesListDto)</text><polygon fill="#181818" points="82,602.1797,72,606.1797,82,610.1797,78,606.1797" style="stroke:#181818;stroke-width:1.0;"/><line style="stroke:#181818;stroke-width:1.0;stroke-dasharray:2.0,2.0;" x1="76" x2="188" y1="606.1797" y2="606.1797"/><text fill="#000000" font-family="sans-serif" font-size="13" lengthAdjust="spacing" textLength="24" x="88" y="600.917">json</text><polygon fill="#181818" points="11,633.4707,1,637.4707,11,641.4707,7,637.4707" style="stroke:#181818;stroke-width:1.0;"/><line style="stroke:#181818;stroke-width:1.0;stroke-dasharray:2.0,2.0;" x1="5" x2="65" y1="637.4707" y2="637.4707"/><text fill="#000000" font-family="sans-serif" font-size="13" lengthAdjust="spacing" textLength="24" x="17" y="632.208">json</text><!--SRC=[VP91Qzj048Nl-oi6d-o0SqWEXU8OH2o7Wb8PIGc4vhB88tbRPKUi9Ww6_FYi9CjQIsvkzZ3VlBTFZnKN29Ed67vStrpVmiPGYbK5pme_O1hW7WkudS4dFAusaXLgVfHQvlXcVqs4AALXbQfIQeR9OX7HE-Do-QeXPfbbpTy9o0gYy2dnXzltfDbGKQ3faNxMSFVXxoGAWo4Pezchj5NowkNyS1mrL9nuwtNiHyyZVrXIfPZCmKNxQKDxGU173o-Hlmc7_2e9NJ1G5Q-ON2hu5ITsQmJIcrJQPLr8Y3yqNxOXmKzuy9FfJ6XY1AFo7TjHZinAvy0xX5TTM5sW34f3cIgm4i9BMUsb1TgWHNlAtZm6M5z5jjAjkiBAAlHK5xFerYrv2l74nWUTMkn4zJ6BVjcIJe3_PTsGXGlC1z9xQQ1vxntKSI-QbYp52kN5KvUC7B_9rPKG1L496HcmnJQ7Ba1Gkj48irCy5mzPEqpsadt8KBrxmyY_R3zttOdjoFDtTYrRU_Asssb_OopS5Mu03sqOv7UZBrZeUDJRi_JEkYExM8wDT-DtMk2qfsV3VzCXFdDMdTx_hKYxbxjMBkRpyntd5Sty2m00]--></g></svg>