<?xml version="1.0" encoding="UTF-8" standalone="no"?><svg xmlns="http://www.w3.org/2000/svg" xmlns:xlink="http://www.w3.org/1999/xlink" contentStyleType="text/css" height="791px" preserveAspectRatio="none" style="width:1624px;height:791px;background:#FFFFFF;" version="1.1" viewBox="0 0 1624 791" width="1624px" zoomAndPan="magnify"><defs/><g><!--cluster <<aggregate>> Patient--><g id="cluster_&lt;&lt;aggregate&gt;&gt; Patient"><path d="M449.5,348.8945 L639.5,348.8945 A3.75,3.75 0 0 1 642,351.3945 L649,380.0508 L1020.5,380.0508 A2.5,2.5 0 0 1 1023,382.5508 L1023,782.3945 A2.5,2.5 0 0 1 1020.5,784.8945 L449.5,784.8945 A2.5,2.5 0 0 1 447,782.3945 L447,351.3945 A2.5,2.5 0 0 1 449.5,348.8945 " fill="none" style="stroke:#000000;stroke-width:1.5;"/><line style="stroke:#000000;stroke-width:1.5;" x1="447" x2="649" y1="380.0508" y2="380.0508"/><text fill="#000000" font-family="sans-serif" font-size="20" font-weight="bold" lengthAdjust="spacing" textLength="189" x="451" y="371.6563">«aggregate» Patient</text></g><!--cluster <<aggregate Doctor>>--><g id="cluster_&lt;&lt;aggregate Doctor&gt;&gt;"><path d="M894.5,6.8945 L1082.5,6.8945 A3.75,3.75 0 0 1 1085,9.3945 L1092,38.0508 L1092.5,38.0508 A2.5,2.5 0 0 1 1095,40.5508 L1095,157.3945 A2.5,2.5 0 0 1 1092.5,159.8945 L894.5,159.8945 A2.5,2.5 0 0 1 892,157.3945 L892,9.3945 A2.5,2.5 0 0 1 894.5,6.8945 " fill="none" style="stroke:#000000;stroke-width:1.5;"/><line style="stroke:#000000;stroke-width:1.5;" x1="892" x2="1092" y1="38.0508" y2="38.0508"/><text fill="#000000" font-family="sans-serif" font-size="20" font-weight="bold" lengthAdjust="spacing" textLength="187" x="896" y="29.6563">«aggregate Doctor»</text></g><!--cluster <<aggregate OperationRequest>>--><g id="cluster_&lt;&lt;aggregate OperationRequest&gt;&gt;"><path d="M8.5,6.8945 L304.5,6.8945 A3.75,3.75 0 0 1 307,9.3945 L314,38.0508 L826.5,38.0508 A2.5,2.5 0 0 1 829,40.5508 L829,313.3945 A2.5,2.5 0 0 1 826.5,315.8945 L8.5,315.8945 A2.5,2.5 0 0 1 6,313.3945 L6,9.3945 A2.5,2.5 0 0 1 8.5,6.8945 " fill="none" style="stroke:#000000;stroke-width:1.5;"/><line style="stroke:#000000;stroke-width:1.5;" x1="6" x2="314" y1="38.0508" y2="38.0508"/><text fill="#000000" font-family="sans-serif" font-size="20" font-weight="bold" lengthAdjust="spacing" textLength="295" x="10" y="29.6563">«aggregate OperationRequest»</text></g><!--cluster <<aggregate OperationType>>--><g id="cluster_&lt;&lt;aggregate OperationType&gt;&gt;"><path d="M1049.5,348.8945 L1314.5,348.8945 A3.75,3.75 0 0 1 1317,351.3945 L1324,380.0508 L1614.5,380.0508 A2.5,2.5 0 0 1 1617,382.5508 L1617,782.3945 A2.5,2.5 0 0 1 1614.5,784.8945 L1049.5,784.8945 A2.5,2.5 0 0 1 1047,782.3945 L1047,351.3945 A2.5,2.5 0 0 1 1049.5,348.8945 " fill="none" style="stroke:#000000;stroke-width:1.5;"/><line style="stroke:#000000;stroke-width:1.5;" x1="1047" x2="1324" y1="380.0508" y2="380.0508"/><text fill="#000000" font-family="sans-serif" font-size="20" font-weight="bold" lengthAdjust="spacing" textLength="264" x="1051" y="371.6563">«aggregate OperationType»</text></g><!--class Patient--><g id="elem_Patient"><rect codeLine="7" fill="#F5F5DC" height="93.4688" id="Patient" rx="2.5" ry="2.5" style="stroke:#181818;stroke-width:0.5;" width="99" x="795.5" y="392.8945"/><ellipse cx="811.5" cy="435.6289" fill="#ADD1B2" rx="12" ry="12" style="stroke:#181818;stroke-width:1.0;"/><path d="M809.4531,436.6914 L809.4531,439.6289 L814.5469,439.6289 L814.5469,438.5352 Q814.5469,437.8164 814.8281,437.5195 Q815.1094,437.207 815.5625,437.207 Q816,437.207 816.2813,437.5195 Q816.5625,437.8164 816.5625,438.5352 L816.5625,441.6289 L807.125,441.6289 Q806.4063,441.6289 806.0938,441.3477 Q805.7969,441.0664 805.7969,440.6289 Q805.7969,440.1758 806.1094,439.9102 Q806.4219,439.6289 807.125,439.6289 L807.4375,439.6289 L807.4375,431.8008 L807.125,431.8008 Q806.4063,431.8008 806.0938,431.5195 Q805.7969,431.2383 805.7969,430.7852 Q805.7969,430.332 806.0938,430.0664 Q806.4063,429.7852 807.125,429.7852 L816.1094,429.7852 L816.1094,432.832 Q816.1094,433.5508 815.8281,433.8633 Q815.5625,434.1602 815.125,434.1602 Q814.6719,434.1602 814.3906,433.8633 Q814.1094,433.5664 814.1094,432.832 L814.1094,431.8008 L809.4531,431.8008 L809.4531,434.6914 L811.2031,434.6914 Q811.2031,433.9102 811.3438,433.6758 Q811.6563,433.207 812.2031,433.207 Q812.6563,433.207 812.9219,433.5195 Q813.2031,433.8164 813.2031,434.5352 L813.2031,436.8477 Q813.2031,437.5039 813.0469,437.7227 Q812.7344,438.1758 812.2031,438.1758 Q811.6563,438.1758 811.3438,437.707 Q811.2031,437.4727 811.2031,436.6914 L809.4531,436.6914 Z " fill="#000000"/><text fill="#000000" font-family="sans-serif" font-size="20" font-style="italic" lengthAdjust="spacing" textLength="69" x="824.5" y="418.6563">«entity»</text><text fill="#000000" font-family="sans-serif" font-size="20" font-style="italic" lengthAdjust="spacing" textLength="56" x="831" y="443.8125">«root»</text><text fill="#000000" font-family="sans-serif" font-size="20" lengthAdjust="spacing" textLength="61" x="828.5" y="468.9688">Patient</text><line style="stroke:#181818;stroke-width:0.5;" x1="796.5" x2="893.5" y1="478.3633" y2="478.3633"/></g><!--class Name--><g id="elem_Name"><rect codeLine="8" fill="#F5F5DC" height="68.3125" id="Name" rx="2.5" ry="2.5" style="stroke:#181818;stroke-width:0.5;" width="158" x="685" y="559.3945"/><ellipse cx="701" cy="589.5508" fill="#FF8B40" rx="12" ry="12" style="stroke:#181818;stroke-width:1.0;"/><path d="M701.5,593.6289 L704.3906,586.7227 L703.9375,586.7227 Q703.2188,586.7227 702.9063,586.4414 Q702.5938,586.1602 702.5938,585.707 Q702.5938,585.2539 702.9063,584.9883 Q703.2188,584.707 703.9375,584.707 L706.625,584.707 Q707.3438,584.707 707.6563,584.9883 Q707.9688,585.2539 707.9688,585.707 Q707.9688,586.2539 707.5,586.5664 Q707.2656,586.7227 706.5781,586.7227 L702.4688,596.5508 L700.5469,596.5508 L696.4375,586.7227 Q695.7344,586.7227 695.5156,586.5664 Q695.0469,586.2539 695.0469,585.707 Q695.0469,585.2539 695.3594,584.9883 Q695.6563,584.707 696.375,584.707 L699.0781,584.707 Q699.7969,584.707 700.0938,584.9883 Q700.4063,585.2539 700.4063,585.707 Q700.4063,586.1602 700.1094,586.4414 Q699.8125,586.7227 699.0781,586.7227 L698.6094,586.7227 L701.5,593.6289 Z " fill="#000000"/><text fill="#000000" font-family="sans-serif" font-size="20" font-style="italic" lengthAdjust="spacing" textLength="128" x="714" y="585.1563">«value object»</text><text fill="#000000" font-family="sans-serif" font-size="20" lengthAdjust="spacing" textLength="51" x="752.5" y="610.3125">Name</text><line style="stroke:#181818;stroke-width:0.5;" x1="686" x2="842" y1="619.707" y2="619.707"/></g><!--class FirstName--><g id="elem_FirstName"><rect codeLine="9" fill="#F5F5DC" height="68.3125" id="FirstName" rx="2.5" ry="2.5" style="stroke:#181818;stroke-width:0.5;" width="158" x="463" y="700.8945"/><ellipse cx="479" cy="731.0508" fill="#FF8B40" rx="12" ry="12" style="stroke:#181818;stroke-width:1.0;"/><path d="M479.5,735.1289 L482.3906,728.2227 L481.9375,728.2227 Q481.2188,728.2227 480.9063,727.9414 Q480.5938,727.6602 480.5938,727.207 Q480.5938,726.7539 480.9063,726.4883 Q481.2188,726.207 481.9375,726.207 L484.625,726.207 Q485.3438,726.207 485.6563,726.4883 Q485.9688,726.7539 485.9688,727.207 Q485.9688,727.7539 485.5,728.0664 Q485.2656,728.2227 484.5781,728.2227 L480.4688,738.0508 L478.5469,738.0508 L474.4375,728.2227 Q473.7344,728.2227 473.5156,728.0664 Q473.0469,727.7539 473.0469,727.207 Q473.0469,726.7539 473.3594,726.4883 Q473.6563,726.207 474.375,726.207 L477.0781,726.207 Q477.7969,726.207 478.0938,726.4883 Q478.4063,726.7539 478.4063,727.207 Q478.4063,727.6602 478.1094,727.9414 Q477.8125,728.2227 477.0781,728.2227 L476.6094,728.2227 L479.5,735.1289 Z " fill="#000000"/><text fill="#000000" font-family="sans-serif" font-size="20" font-style="italic" lengthAdjust="spacing" textLength="128" x="492" y="726.6563">«value object»</text><text fill="#000000" font-family="sans-serif" font-size="20" lengthAdjust="spacing" textLength="90" x="511" y="751.8125">FirstName</text><line style="stroke:#181818;stroke-width:0.5;" x1="464" x2="620" y1="761.207" y2="761.207"/></g><!--class LastName--><g id="elem_LastName"><rect codeLine="10" fill="#F5F5DC" height="68.3125" id="LastName" rx="2.5" ry="2.5" style="stroke:#181818;stroke-width:0.5;" width="158" x="656" y="700.8945"/><ellipse cx="672" cy="731.0508" fill="#FF8B40" rx="12" ry="12" style="stroke:#181818;stroke-width:1.0;"/><path d="M672.5,735.1289 L675.3906,728.2227 L674.9375,728.2227 Q674.2188,728.2227 673.9063,727.9414 Q673.5938,727.6602 673.5938,727.207 Q673.5938,726.7539 673.9063,726.4883 Q674.2188,726.207 674.9375,726.207 L677.625,726.207 Q678.3438,726.207 678.6563,726.4883 Q678.9688,726.7539 678.9688,727.207 Q678.9688,727.7539 678.5,728.0664 Q678.2656,728.2227 677.5781,728.2227 L673.4688,738.0508 L671.5469,738.0508 L667.4375,728.2227 Q666.7344,728.2227 666.5156,728.0664 Q666.0469,727.7539 666.0469,727.207 Q666.0469,726.7539 666.3594,726.4883 Q666.6563,726.207 667.375,726.207 L670.0781,726.207 Q670.7969,726.207 671.0938,726.4883 Q671.4063,726.7539 671.4063,727.207 Q671.4063,727.6602 671.1094,727.9414 Q670.8125,728.2227 670.0781,728.2227 L669.6094,728.2227 L672.5,735.1289 Z " fill="#000000"/><text fill="#000000" font-family="sans-serif" font-size="20" font-style="italic" lengthAdjust="spacing" textLength="128" x="685" y="726.6563">«value object»</text><text fill="#000000" font-family="sans-serif" font-size="20" lengthAdjust="spacing" textLength="89" x="704.5" y="751.8125">LastName</text><line style="stroke:#181818;stroke-width:0.5;" x1="657" x2="813" y1="761.207" y2="761.207"/></g><!--class FullName--><g id="elem_FullName"><rect codeLine="11" fill="#F5F5DC" height="68.3125" id="FullName" rx="2.5" ry="2.5" style="stroke:#181818;stroke-width:0.5;" width="158" x="849" y="700.8945"/><ellipse cx="865" cy="731.0508" fill="#FF8B40" rx="12" ry="12" style="stroke:#181818;stroke-width:1.0;"/><path d="M865.5,735.1289 L868.3906,728.2227 L867.9375,728.2227 Q867.2188,728.2227 866.9063,727.9414 Q866.5938,727.6602 866.5938,727.207 Q866.5938,726.7539 866.9063,726.4883 Q867.2188,726.207 867.9375,726.207 L870.625,726.207 Q871.3438,726.207 871.6563,726.4883 Q871.9688,726.7539 871.9688,727.207 Q871.9688,727.7539 871.5,728.0664 Q871.2656,728.2227 870.5781,728.2227 L866.4688,738.0508 L864.5469,738.0508 L860.4375,728.2227 Q859.7344,728.2227 859.5156,728.0664 Q859.0469,727.7539 859.0469,727.207 Q859.0469,726.7539 859.3594,726.4883 Q859.6563,726.207 860.375,726.207 L863.0781,726.207 Q863.7969,726.207 864.0938,726.4883 Q864.4063,726.7539 864.4063,727.207 Q864.4063,727.6602 864.1094,727.9414 Q863.8125,728.2227 863.0781,728.2227 L862.6094,728.2227 L865.5,735.1289 Z " fill="#000000"/><text fill="#000000" font-family="sans-serif" font-size="20" font-style="italic" lengthAdjust="spacing" textLength="128" x="878" y="726.6563">«value object»</text><text fill="#000000" font-family="sans-serif" font-size="20" lengthAdjust="spacing" textLength="81" x="901.5" y="751.8125">FullName</text><line style="stroke:#181818;stroke-width:0.5;" x1="850" x2="1006" y1="761.207" y2="761.207"/></g><!--class Doctor--><g id="elem_Doctor"><rect codeLine="16" fill="#F5F5DC" height="93.4688" id="Doctor" rx="2.5" ry="2.5" style="stroke:#181818;stroke-width:0.5;" width="99" x="927.5" y="50.8945"/><ellipse cx="943.5" cy="93.6289" fill="#ADD1B2" rx="12" ry="12" style="stroke:#181818;stroke-width:1.0;"/><path d="M941.4531,94.6914 L941.4531,97.6289 L946.5469,97.6289 L946.5469,96.5352 Q946.5469,95.8164 946.8281,95.5195 Q947.1094,95.207 947.5625,95.207 Q948,95.207 948.2813,95.5195 Q948.5625,95.8164 948.5625,96.5352 L948.5625,99.6289 L939.125,99.6289 Q938.4063,99.6289 938.0938,99.3477 Q937.7969,99.0664 937.7969,98.6289 Q937.7969,98.1758 938.1094,97.9102 Q938.4219,97.6289 939.125,97.6289 L939.4375,97.6289 L939.4375,89.8008 L939.125,89.8008 Q938.4063,89.8008 938.0938,89.5195 Q937.7969,89.2383 937.7969,88.7852 Q937.7969,88.332 938.0938,88.0664 Q938.4063,87.7852 939.125,87.7852 L948.1094,87.7852 L948.1094,90.832 Q948.1094,91.5508 947.8281,91.8633 Q947.5625,92.1602 947.125,92.1602 Q946.6719,92.1602 946.3906,91.8633 Q946.1094,91.5664 946.1094,90.832 L946.1094,89.8008 L941.4531,89.8008 L941.4531,92.6914 L943.2031,92.6914 Q943.2031,91.9102 943.3438,91.6758 Q943.6563,91.207 944.2031,91.207 Q944.6563,91.207 944.9219,91.5195 Q945.2031,91.8164 945.2031,92.5352 L945.2031,94.8477 Q945.2031,95.5039 945.0469,95.7227 Q944.7344,96.1758 944.2031,96.1758 Q943.6563,96.1758 943.3438,95.707 Q943.2031,95.4727 943.2031,94.6914 L941.4531,94.6914 Z " fill="#000000"/><text fill="#000000" font-family="sans-serif" font-size="20" font-style="italic" lengthAdjust="spacing" textLength="69" x="956.5" y="76.6563">«entity»</text><text fill="#000000" font-family="sans-serif" font-size="20" font-style="italic" lengthAdjust="spacing" textLength="56" x="963" y="101.8125">«root»</text><text fill="#000000" font-family="sans-serif" font-size="20" lengthAdjust="spacing" textLength="59" x="961.5" y="126.9688">Doctor</text><line style="stroke:#181818;stroke-width:0.5;" x1="928.5" x2="1025.5" y1="136.3633" y2="136.3633"/></g><!--class OperationRequest--><g id="elem_OperationRequest"><rect codeLine="20" fill="#F5F5DC" height="93.4688" id="OperationRequest" rx="2.5" ry="2.5" style="stroke:#181818;stroke-width:0.5;" width="194" x="599" y="50.8945"/><ellipse cx="615" cy="93.6289" fill="#ADD1B2" rx="12" ry="12" style="stroke:#181818;stroke-width:1.0;"/><path d="M612.9531,94.6914 L612.9531,97.6289 L618.0469,97.6289 L618.0469,96.5352 Q618.0469,95.8164 618.3281,95.5195 Q618.6094,95.207 619.0625,95.207 Q619.5,95.207 619.7813,95.5195 Q620.0625,95.8164 620.0625,96.5352 L620.0625,99.6289 L610.625,99.6289 Q609.9063,99.6289 609.5938,99.3477 Q609.2969,99.0664 609.2969,98.6289 Q609.2969,98.1758 609.6094,97.9102 Q609.9219,97.6289 610.625,97.6289 L610.9375,97.6289 L610.9375,89.8008 L610.625,89.8008 Q609.9063,89.8008 609.5938,89.5195 Q609.2969,89.2383 609.2969,88.7852 Q609.2969,88.332 609.5938,88.0664 Q609.9063,87.7852 610.625,87.7852 L619.6094,87.7852 L619.6094,90.832 Q619.6094,91.5508 619.3281,91.8633 Q619.0625,92.1602 618.625,92.1602 Q618.1719,92.1602 617.8906,91.8633 Q617.6094,91.5664 617.6094,90.832 L617.6094,89.8008 L612.9531,89.8008 L612.9531,92.6914 L614.7031,92.6914 Q614.7031,91.9102 614.8438,91.6758 Q615.1563,91.207 615.7031,91.207 Q616.1563,91.207 616.4219,91.5195 Q616.7031,91.8164 616.7031,92.5352 L616.7031,94.8477 Q616.7031,95.5039 616.5469,95.7227 Q616.2344,96.1758 615.7031,96.1758 Q615.1563,96.1758 614.8438,95.707 Q614.7031,95.4727 614.7031,94.6914 L612.9531,94.6914 Z " fill="#000000"/><text fill="#000000" font-family="sans-serif" font-size="20" font-style="italic" lengthAdjust="spacing" textLength="69" x="675.5" y="76.6563">«entity»</text><text fill="#000000" font-family="sans-serif" font-size="20" font-style="italic" lengthAdjust="spacing" textLength="56" x="682" y="101.8125">«root»</text><text fill="#000000" font-family="sans-serif" font-size="20" lengthAdjust="spacing" textLength="160" x="630" y="126.9688">OperationRequest</text><line style="stroke:#181818;stroke-width:0.5;" x1="600" x2="792" y1="136.3633" y2="136.3633"/></g><!--class OperationRequestId--><g id="elem_OperationRequestId"><rect codeLine="21" fill="#F5F5DC" height="93.4688" id="OperationRequestId" rx="2.5" ry="2.5" style="stroke:#181818;stroke-width:0.5;" width="211" x="22.5" y="206.8945"/><ellipse cx="38.5" cy="249.6289" fill="#FF8B40" rx="12" ry="12" style="stroke:#181818;stroke-width:1.0;"/><path d="M39,253.707 L41.8906,246.8008 L41.4375,246.8008 Q40.7188,246.8008 40.4063,246.5195 Q40.0938,246.2383 40.0938,245.7852 Q40.0938,245.332 40.4063,245.0664 Q40.7188,244.7852 41.4375,244.7852 L44.125,244.7852 Q44.8438,244.7852 45.1563,245.0664 Q45.4688,245.332 45.4688,245.7852 Q45.4688,246.332 45,246.6445 Q44.7656,246.8008 44.0781,246.8008 L39.9688,256.6289 L38.0469,256.6289 L33.9375,246.8008 Q33.2344,246.8008 33.0156,246.6445 Q32.5469,246.332 32.5469,245.7852 Q32.5469,245.332 32.8594,245.0664 Q33.1563,244.7852 33.875,244.7852 L36.5781,244.7852 Q37.2969,244.7852 37.5938,245.0664 Q37.9063,245.332 37.9063,245.7852 Q37.9063,246.2383 37.6094,246.5195 Q37.3125,246.8008 36.5781,246.8008 L36.1094,246.8008 L39,253.707 Z " fill="#000000"/><text fill="#000000" font-family="sans-serif" font-size="20" font-style="italic" lengthAdjust="spacing" textLength="128" x="78" y="232.6563">«value object»</text><text fill="#000000" font-family="sans-serif" font-size="20" font-style="italic" lengthAdjust="spacing" textLength="99" x="92.5" y="257.8125">«identifier»</text><text fill="#000000" font-family="sans-serif" font-size="20" lengthAdjust="spacing" textLength="177" x="53.5" y="282.9688">OperationRequestId</text><line style="stroke:#181818;stroke-width:0.5;" x1="23.5" x2="232.5" y1="292.3633" y2="292.3633"/></g><!--class Priority--><g id="elem_Priority"><rect codeLine="22" fill="#F5F5DC" height="93.4688" id="Priority" rx="2.5" ry="2.5" style="stroke:#181818;stroke-width:0.5;" width="158" x="269" y="206.8945"/><ellipse cx="285" cy="249.6289" fill="#FF8B40" rx="12" ry="12" style="stroke:#181818;stroke-width:1.0;"/><path d="M285.5,253.707 L288.3906,246.8008 L287.9375,246.8008 Q287.2188,246.8008 286.9063,246.5195 Q286.5938,246.2383 286.5938,245.7852 Q286.5938,245.332 286.9063,245.0664 Q287.2188,244.7852 287.9375,244.7852 L290.625,244.7852 Q291.3438,244.7852 291.6563,245.0664 Q291.9688,245.332 291.9688,245.7852 Q291.9688,246.332 291.5,246.6445 Q291.2656,246.8008 290.5781,246.8008 L286.4688,256.6289 L284.5469,256.6289 L280.4375,246.8008 Q279.7344,246.8008 279.5156,246.6445 Q279.0469,246.332 279.0469,245.7852 Q279.0469,245.332 279.3594,245.0664 Q279.6563,244.7852 280.375,244.7852 L283.0781,244.7852 Q283.7969,244.7852 284.0938,245.0664 Q284.4063,245.332 284.4063,245.7852 Q284.4063,246.2383 284.1094,246.5195 Q283.8125,246.8008 283.0781,246.8008 L282.6094,246.8008 L285.5,253.707 Z " fill="#000000"/><text fill="#000000" font-family="sans-serif" font-size="20" font-style="italic" lengthAdjust="spacing" textLength="128" x="298" y="232.6563">«value object»</text><text fill="#000000" font-family="sans-serif" font-size="20" font-style="italic" lengthAdjust="spacing" textLength="99" x="312.5" y="257.8125">«identifier»</text><text fill="#000000" font-family="sans-serif" font-size="20" lengthAdjust="spacing" textLength="62" x="331" y="282.9688">Priority</text><line style="stroke:#181818;stroke-width:0.5;" x1="270" x2="426" y1="292.3633" y2="292.3633"/></g><!--class Status--><g id="elem_Status"><rect codeLine="23" fill="#F5F5DC" height="93.4688" id="Status" rx="2.5" ry="2.5" style="stroke:#181818;stroke-width:0.5;" width="158" x="462" y="206.8945"/><ellipse cx="478" cy="249.6289" fill="#FF8B40" rx="12" ry="12" style="stroke:#181818;stroke-width:1.0;"/><path d="M478.5,253.707 L481.3906,246.8008 L480.9375,246.8008 Q480.2188,246.8008 479.9063,246.5195 Q479.5938,246.2383 479.5938,245.7852 Q479.5938,245.332 479.9063,245.0664 Q480.2188,244.7852 480.9375,244.7852 L483.625,244.7852 Q484.3438,244.7852 484.6563,245.0664 Q484.9688,245.332 484.9688,245.7852 Q484.9688,246.332 484.5,246.6445 Q484.2656,246.8008 483.5781,246.8008 L479.4688,256.6289 L477.5469,256.6289 L473.4375,246.8008 Q472.7344,246.8008 472.5156,246.6445 Q472.0469,246.332 472.0469,245.7852 Q472.0469,245.332 472.3594,245.0664 Q472.6563,244.7852 473.375,244.7852 L476.0781,244.7852 Q476.7969,244.7852 477.0938,245.0664 Q477.4063,245.332 477.4063,245.7852 Q477.4063,246.2383 477.1094,246.5195 Q476.8125,246.8008 476.0781,246.8008 L475.6094,246.8008 L478.5,253.707 Z " fill="#000000"/><text fill="#000000" font-family="sans-serif" font-size="20" font-style="italic" lengthAdjust="spacing" textLength="128" x="491" y="232.6563">«value object»</text><text fill="#000000" font-family="sans-serif" font-size="20" font-style="italic" lengthAdjust="spacing" textLength="99" x="505.5" y="257.8125">«identifier»</text><text fill="#000000" font-family="sans-serif" font-size="20" lengthAdjust="spacing" textLength="56" x="527" y="282.9688">Status</text><line style="stroke:#181818;stroke-width:0.5;" x1="463" x2="619" y1="292.3633" y2="292.3633"/></g><!--class Date--><g id="elem_Date"><rect codeLine="24" fill="#F5F5DC" height="68.3125" id="Date" rx="2.5" ry="2.5" style="stroke:#181818;stroke-width:0.5;" width="158" x="655" y="219.3945"/><ellipse cx="671" cy="249.5508" fill="#FF8B40" rx="12" ry="12" style="stroke:#181818;stroke-width:1.0;"/><path d="M671.5,253.6289 L674.3906,246.7227 L673.9375,246.7227 Q673.2188,246.7227 672.9063,246.4414 Q672.5938,246.1602 672.5938,245.707 Q672.5938,245.2539 672.9063,244.9883 Q673.2188,244.707 673.9375,244.707 L676.625,244.707 Q677.3438,244.707 677.6563,244.9883 Q677.9688,245.2539 677.9688,245.707 Q677.9688,246.2539 677.5,246.5664 Q677.2656,246.7227 676.5781,246.7227 L672.4688,256.5508 L670.5469,256.5508 L666.4375,246.7227 Q665.7344,246.7227 665.5156,246.5664 Q665.0469,246.2539 665.0469,245.707 Q665.0469,245.2539 665.3594,244.9883 Q665.6563,244.707 666.375,244.707 L669.0781,244.707 Q669.7969,244.707 670.0938,244.9883 Q670.4063,245.2539 670.4063,245.707 Q670.4063,246.1602 670.1094,246.4414 Q669.8125,246.7227 669.0781,246.7227 L668.6094,246.7227 L671.5,253.6289 Z " fill="#000000"/><text fill="#000000" font-family="sans-serif" font-size="20" font-style="italic" lengthAdjust="spacing" textLength="128" x="684" y="245.1563">«value object»</text><text fill="#000000" font-family="sans-serif" font-size="20" lengthAdjust="spacing" textLength="42" x="727" y="270.3125">Date</text><line style="stroke:#181818;stroke-width:0.5;" x1="656" x2="812" y1="279.707" y2="279.707"/></g><!--class OperationType--><g id="elem_OperationType"><rect codeLine="28" fill="#F5F5DC" height="93.4688" id="OperationType" rx="2.5" ry="2.5" style="stroke:#181818;stroke-width:0.5;" width="165" x="1108.5" y="392.8945"/><ellipse cx="1124.5" cy="435.6289" fill="#ADD1B2" rx="12" ry="12" style="stroke:#181818;stroke-width:1.0;"/><path d="M1122.4531,436.6914 L1122.4531,439.6289 L1127.5469,439.6289 L1127.5469,438.5352 Q1127.5469,437.8164 1127.8281,437.5195 Q1128.1094,437.207 1128.5625,437.207 Q1129,437.207 1129.2813,437.5195 Q1129.5625,437.8164 1129.5625,438.5352 L1129.5625,441.6289 L1120.125,441.6289 Q1119.4063,441.6289 1119.0938,441.3477 Q1118.7969,441.0664 1118.7969,440.6289 Q1118.7969,440.1758 1119.1094,439.9102 Q1119.4219,439.6289 1120.125,439.6289 L1120.4375,439.6289 L1120.4375,431.8008 L1120.125,431.8008 Q1119.4063,431.8008 1119.0938,431.5195 Q1118.7969,431.2383 1118.7969,430.7852 Q1118.7969,430.332 1119.0938,430.0664 Q1119.4063,429.7852 1120.125,429.7852 L1129.1094,429.7852 L1129.1094,432.832 Q1129.1094,433.5508 1128.8281,433.8633 Q1128.5625,434.1602 1128.125,434.1602 Q1127.6719,434.1602 1127.3906,433.8633 Q1127.1094,433.5664 1127.1094,432.832 L1127.1094,431.8008 L1122.4531,431.8008 L1122.4531,434.6914 L1124.2031,434.6914 Q1124.2031,433.9102 1124.3438,433.6758 Q1124.6563,433.207 1125.2031,433.207 Q1125.6563,433.207 1125.9219,433.5195 Q1126.2031,433.8164 1126.2031,434.5352 L1126.2031,436.8477 Q1126.2031,437.5039 1126.0469,437.7227 Q1125.7344,438.1758 1125.2031,438.1758 Q1124.6563,438.1758 1124.3438,437.707 Q1124.2031,437.4727 1124.2031,436.6914 L1122.4531,436.6914 Z " fill="#000000"/><text fill="#000000" font-family="sans-serif" font-size="20" font-style="italic" lengthAdjust="spacing" textLength="69" x="1170.5" y="418.6563">«entity»</text><text fill="#000000" font-family="sans-serif" font-size="20" font-style="italic" lengthAdjust="spacing" textLength="56" x="1177" y="443.8125">«root»</text><text fill="#000000" font-family="sans-serif" font-size="20" lengthAdjust="spacing" textLength="131" x="1139.5" y="468.9688">OperationType</text><line style="stroke:#181818;stroke-width:0.5;" x1="1109.5" x2="1272.5" y1="478.3633" y2="478.3633"/></g><!--class OperationTypeId--><g id="elem_OperationTypeId"><rect codeLine="29" fill="#F5F5DC" height="93.4688" id="OperationTypeId" rx="2.5" ry="2.5" style="stroke:#181818;stroke-width:0.5;" width="182" x="1100" y="546.8945"/><ellipse cx="1116" cy="589.6289" fill="#FF8B40" rx="12" ry="12" style="stroke:#181818;stroke-width:1.0;"/><path d="M1116.5,593.707 L1119.3906,586.8008 L1118.9375,586.8008 Q1118.2188,586.8008 1117.9063,586.5195 Q1117.5938,586.2383 1117.5938,585.7852 Q1117.5938,585.332 1117.9063,585.0664 Q1118.2188,584.7852 1118.9375,584.7852 L1121.625,584.7852 Q1122.3438,584.7852 1122.6563,585.0664 Q1122.9688,585.332 1122.9688,585.7852 Q1122.9688,586.332 1122.5,586.6445 Q1122.2656,586.8008 1121.5781,586.8008 L1117.4688,596.6289 L1115.5469,596.6289 L1111.4375,586.8008 Q1110.7344,586.8008 1110.5156,586.6445 Q1110.0469,586.332 1110.0469,585.7852 Q1110.0469,585.332 1110.3594,585.0664 Q1110.6563,584.7852 1111.375,584.7852 L1114.0781,584.7852 Q1114.7969,584.7852 1115.0938,585.0664 Q1115.4063,585.332 1115.4063,585.7852 Q1115.4063,586.2383 1115.1094,586.5195 Q1114.8125,586.8008 1114.0781,586.8008 L1113.6094,586.8008 L1116.5,593.707 Z " fill="#000000"/><text fill="#000000" font-family="sans-serif" font-size="20" font-style="italic" lengthAdjust="spacing" textLength="128" x="1141" y="572.6563">«value object»</text><text fill="#000000" font-family="sans-serif" font-size="20" font-style="italic" lengthAdjust="spacing" textLength="99" x="1155.5" y="597.8125">«identifier»</text><text fill="#000000" font-family="sans-serif" font-size="20" lengthAdjust="spacing" textLength="148" x="1131" y="622.9688">OperationTypeId</text><line style="stroke:#181818;stroke-width:0.5;" x1="1101" x2="1281" y1="632.3633" y2="632.3633"/></g><!--class OperationTypeName--><g id="elem_OperationTypeName"><rect codeLine="30" fill="#F5F5DC" height="68.3125" id="OperationTypeName" rx="2.5" ry="2.5" style="stroke:#181818;stroke-width:0.5;" width="216" x="1317" y="559.3945"/><ellipse cx="1333" cy="589.5508" fill="#FF8B40" rx="12" ry="12" style="stroke:#181818;stroke-width:1.0;"/><path d="M1333.5,593.6289 L1336.3906,586.7227 L1335.9375,586.7227 Q1335.2188,586.7227 1334.9063,586.4414 Q1334.5938,586.1602 1334.5938,585.707 Q1334.5938,585.2539 1334.9063,584.9883 Q1335.2188,584.707 1335.9375,584.707 L1338.625,584.707 Q1339.3438,584.707 1339.6563,584.9883 Q1339.9688,585.2539 1339.9688,585.707 Q1339.9688,586.2539 1339.5,586.5664 Q1339.2656,586.7227 1338.5781,586.7227 L1334.4688,596.5508 L1332.5469,596.5508 L1328.4375,586.7227 Q1327.7344,586.7227 1327.5156,586.5664 Q1327.0469,586.2539 1327.0469,585.707 Q1327.0469,585.2539 1327.3594,584.9883 Q1327.6563,584.707 1328.375,584.707 L1331.0781,584.707 Q1331.7969,584.707 1332.0938,584.9883 Q1332.4063,585.2539 1332.4063,585.707 Q1332.4063,586.1602 1332.1094,586.4414 Q1331.8125,586.7227 1331.0781,586.7227 L1330.6094,586.7227 L1333.5,593.6289 Z " fill="#000000"/><text fill="#000000" font-family="sans-serif" font-size="20" font-style="italic" lengthAdjust="spacing" textLength="128" x="1375" y="585.1563">«value object»</text><text fill="#000000" font-family="sans-serif" font-size="20" lengthAdjust="spacing" textLength="182" x="1348" y="610.3125">OperationTypeName</text><line style="stroke:#181818;stroke-width:0.5;" x1="1318" x2="1532" y1="619.707" y2="619.707"/></g><!--class RequiredStaff--><g id="elem_RequiredStaff"><rect codeLine="31" fill="#F5F5DC" height="68.3125" id="RequiredStaff" rx="2.5" ry="2.5" style="stroke:#181818;stroke-width:0.5;" width="158" x="1212" y="700.8945"/><ellipse cx="1228" cy="731.0508" fill="#FF8B40" rx="12" ry="12" style="stroke:#181818;stroke-width:1.0;"/><path d="M1228.5,735.1289 L1231.3906,728.2227 L1230.9375,728.2227 Q1230.2188,728.2227 1229.9063,727.9414 Q1229.5938,727.6602 1229.5938,727.207 Q1229.5938,726.7539 1229.9063,726.4883 Q1230.2188,726.207 1230.9375,726.207 L1233.625,726.207 Q1234.3438,726.207 1234.6563,726.4883 Q1234.9688,726.7539 1234.9688,727.207 Q1234.9688,727.7539 1234.5,728.0664 Q1234.2656,728.2227 1233.5781,728.2227 L1229.4688,738.0508 L1227.5469,738.0508 L1223.4375,728.2227 Q1222.7344,728.2227 1222.5156,728.0664 Q1222.0469,727.7539 1222.0469,727.207 Q1222.0469,726.7539 1222.3594,726.4883 Q1222.6563,726.207 1223.375,726.207 L1226.0781,726.207 Q1226.7969,726.207 1227.0938,726.4883 Q1227.4063,726.7539 1227.4063,727.207 Q1227.4063,727.6602 1227.1094,727.9414 Q1226.8125,728.2227 1226.0781,728.2227 L1225.6094,728.2227 L1228.5,735.1289 Z " fill="#000000"/><text fill="#000000" font-family="sans-serif" font-size="20" font-style="italic" lengthAdjust="spacing" textLength="128" x="1241" y="726.6563">«value object»</text><text fill="#000000" font-family="sans-serif" font-size="20" lengthAdjust="spacing" textLength="121" x="1244.5" y="751.8125">RequiredStaff</text><line style="stroke:#181818;stroke-width:0.5;" x1="1213" x2="1369" y1="761.207" y2="761.207"/></g><g id="elem_GMN21"><path d="M1063,717.3945 L1063,752.5508 A0,0 0 0 0 1063,752.5508 L1177,752.5508 A0,0 0 0 0 1177,752.5508 L1177,738.8945 L1211.81,734.8945 L1177,730.8945 L1177,727.3945 L1167,717.3945 L1063,717.3945 A0,0 0 0 0 1063,717.3945 " fill="#FEFFDD" style="stroke:#181818;stroke-width:0.5;"/><path d="M1167,717.3945 L1167,727.3945 L1177,727.3945 L1167,717.3945 " fill="#FEFFDD" style="stroke:#181818;stroke-width:0.5;"/><text fill="#000000" font-family="sans-serif" font-size="20" lengthAdjust="spacing" textLength="93" x="1069" y="743.1563">review this</text></g><!--class EstimatedDuration--><g id="elem_EstimatedDuration"><rect codeLine="33" fill="#F5F5DC" height="68.3125" id="EstimatedDuration" rx="2.5" ry="2.5" style="stroke:#181818;stroke-width:0.5;" width="195" x="1405.5" y="700.8945"/><ellipse cx="1421.5" cy="731.0508" fill="#FF8B40" rx="12" ry="12" style="stroke:#181818;stroke-width:1.0;"/><path d="M1422,735.1289 L1424.8906,728.2227 L1424.4375,728.2227 Q1423.7188,728.2227 1423.4063,727.9414 Q1423.0938,727.6602 1423.0938,727.207 Q1423.0938,726.7539 1423.4063,726.4883 Q1423.7188,726.207 1424.4375,726.207 L1427.125,726.207 Q1427.8438,726.207 1428.1563,726.4883 Q1428.4688,726.7539 1428.4688,727.207 Q1428.4688,727.7539 1428,728.0664 Q1427.7656,728.2227 1427.0781,728.2227 L1422.9688,738.0508 L1421.0469,738.0508 L1416.9375,728.2227 Q1416.2344,728.2227 1416.0156,728.0664 Q1415.5469,727.7539 1415.5469,727.207 Q1415.5469,726.7539 1415.8594,726.4883 Q1416.1563,726.207 1416.875,726.207 L1419.5781,726.207 Q1420.2969,726.207 1420.5938,726.4883 Q1420.9063,726.7539 1420.9063,727.207 Q1420.9063,727.6602 1420.6094,727.9414 Q1420.3125,728.2227 1419.5781,728.2227 L1419.1094,728.2227 L1422,735.1289 Z " fill="#000000"/><text fill="#000000" font-family="sans-serif" font-size="20" font-style="italic" lengthAdjust="spacing" textLength="128" x="1453" y="726.6563">«value object»</text><text fill="#000000" font-family="sans-serif" font-size="20" lengthAdjust="spacing" textLength="161" x="1436.5" y="751.8125">EstimatedDuration</text><line style="stroke:#181818;stroke-width:0.5;" x1="1406.5" x2="1599.5" y1="761.207" y2="761.207"/></g><!--link Name to FirstName--><g id="link_Name_FirstName"><path codeLine="38" d="M711.39,627.4545 C677.64,648.6545 633.83,676.1845 599.22,697.9345 " fill="none" id="Name-to-FirstName" style="stroke:#222222;stroke-width:1.0;"/><polygon fill="#222222" points="594.62,700.8345,604.3707,699.4477,598.8576,698.1807,600.1246,692.6675,594.62,700.8345" style="stroke:#222222;stroke-width:1.0;"/></g><!--link Name to LastName--><g id="link_Name_LastName"><path codeLine="39" d="M757.13,627.4545 C752.88,647.8945 747.41,674.2045 742.97,695.5545 " fill="none" id="Name-to-LastName" style="stroke:#222222;stroke-width:1.0;"/><polygon fill="#222222" points="741.92,700.5845,747.6883,692.6016,742.9501,695.6918,739.8599,690.9535,741.92,700.5845" style="stroke:#222222;stroke-width:1.0;"/></g><!--link Name to FullName--><g id="link_Name_FullName"><path codeLine="40" d="M802.87,627.4545 C827.59,648.4845 859.63,675.7345 885.1,697.4045 " fill="none" id="Name-to-FullName" style="stroke:#222222;stroke-width:1.0;"/><polygon fill="#222222" points="889.13,700.8345,884.8448,691.9668,885.3136,697.6042,879.6762,698.073,889.13,700.8345" style="stroke:#222222;stroke-width:1.0;"/></g><!--link OperationType to OperationTypeId--><g id="link_OperationType_OperationTypeId"><path codeLine="42" d="M1191,486.0045 C1191,503.5845 1191,523.7645 1191,541.7945 " fill="none" id="OperationType-to-OperationTypeId" style="stroke:#222222;stroke-width:1.0;"/><polygon fill="#222222" points="1191,546.8245,1195,537.8245,1191,541.8245,1187,537.8245,1191,546.8245" style="stroke:#222222;stroke-width:1.0;"/><text fill="#000000" font-family="sans-serif" font-size="20" lengthAdjust="spacing" textLength="11" x="1179.2609" y="534.6277">1</text></g><!--link OperationType to OperationTypeName--><g id="link_OperationType_OperationTypeName"><path codeLine="43" d="M1261.21,486.0045 C1295.99,508.5945 1337.39,535.4845 1369.86,556.5745 " fill="none" id="OperationType-to-OperationTypeName" style="stroke:#222222;stroke-width:1.0;"/><polygon fill="#222222" points="1374.18,559.3845,1368.812,551.1271,1369.9871,556.6606,1364.4537,557.8357,1374.18,559.3845" style="stroke:#222222;stroke-width:1.0;"/><text fill="#000000" font-family="sans-serif" font-size="20" lengthAdjust="spacing" textLength="11" x="1353.5" y="547.1389">1</text></g><!--link OperationType to RequiredStaff--><g id="link_OperationType_RequiredStaff"><path codeLine="44" d="M1128.32,486.1345 C1110.2,502.9845 1092.7,523.6945 1083,546.8945 C1067.05,585.0245 1060.58,605.1645 1083,639.8945 C1090.56,651.6145 1152.69,678.8545 1207.09,701.0145 " fill="none" id="OperationType-to-RequiredStaff" style="stroke:#222222;stroke-width:1.0;"/><polygon fill="#222222" points="1211.99,703.0145,1205.1644,695.9145,1207.3595,701.128,1202.146,703.3232,1211.99,703.0145" style="stroke:#222222;stroke-width:1.0;"/><text fill="#000000" font-family="sans-serif" font-size="20" lengthAdjust="spacing" textLength="11" x="1192.9351" y="694.5388">1</text></g><!--link OperationType to EstimatedDuration--><g id="link_OperationType_EstimatedDuration"><path codeLine="45" d="M1273.52,453.2045 C1369.1,469.9145 1517.75,502.3845 1551,546.8945 C1584,591.0645 1554.77,655.6845 1529.66,696.2345 " fill="none" id="OperationType-to-EstimatedDuration" style="stroke:#222222;stroke-width:1.0;"/><polygon fill="#222222" points="1526.93,700.5745,1535.1186,695.1021,1529.6005,696.3474,1528.3552,690.8293,1526.93,700.5745" style="stroke:#222222;stroke-width:1.0;"/><text fill="#000000" font-family="sans-serif" font-size="20" lengthAdjust="spacing" textLength="11" x="1518.9825" y="688.5687">1</text></g><!--link OperationRequest to OperationRequestId--><g id="link_OperationRequest_OperationRequestId"><path codeLine="47" d="M598.77,118.7145 C508.03,138.4745 369.25,170.7345 251,206.8945 C246.93,208.1345 242.8,209.4445 238.64,210.7945 " fill="none" id="OperationRequest-to-OperationRequestId" style="stroke:#222222;stroke-width:1.0;"/><polygon fill="#222222" points="233.74,212.3945,243.5378,213.3963,238.4919,210.8391,241.0491,205.7932,233.74,212.3945" style="stroke:#222222;stroke-width:1.0;"/><text fill="#000000" font-family="sans-serif" font-size="20" lengthAdjust="spacing" textLength="11" x="241.5616" y="204.3835">1</text></g><!--link OperationRequest to Priority--><g id="link_OperationRequest_Priority"><path codeLine="48" d="M598.71,139.3145 C551.78,159.3045 494.78,183.9345 444,206.8945 C439.93,208.7345 435.77,210.6345 431.57,212.5645 " fill="none" id="OperationRequest-to-Priority" style="stroke:#222222;stroke-width:1.0;"/><polygon fill="#222222" points="427,214.6745,436.848,214.5427,431.5415,212.5829,433.5013,207.2764,427,214.6745" style="stroke:#222222;stroke-width:1.0;"/><text fill="#000000" font-family="sans-serif" font-size="20" lengthAdjust="spacing" textLength="11" x="435.0539" y="205.5395">1</text></g><!--link OperationRequest to Patient--><g id="link_OperationRequest_Patient"><path codeLine="49" d="M774.88,144.1245 C796.83,160.9445 818.16,182.0545 831,206.8945 C860.17,263.3145 858.7,338.1145 853.28,387.2045 " fill="none" id="OperationRequest-to-Patient" style="stroke:#222222;stroke-width:1.0;"/><polygon fill="#222222" points="852.68,392.4645,857.6816,383.9802,853.251,387.4972,849.7339,383.0666,852.68,392.4645" style="stroke:#222222;stroke-width:1.0;"/><text fill="#000000" font-family="sans-serif" font-size="20" lengthAdjust="spacing" textLength="79" x="857" y="261.6563">made for</text><text fill="#000000" font-family="sans-serif" font-size="20" lengthAdjust="spacing" textLength="11" x="841.9593" y="380.5918">1</text></g><!--link OperationRequest to Doctor--><g id="link_OperationRequest_Doctor"><path codeLine="50" d="M793.1,97.3945 C836.19,97.3945 885.32,97.3945 921.96,97.3945 " fill="none" id="OperationRequest-to-Doctor" style="stroke:#222222;stroke-width:1.0;"/><polygon fill="#222222" points="927.27,97.3945,918.27,93.3945,922.27,97.3945,918.27,101.3945,927.27,97.3945" style="stroke:#222222;stroke-width:1.0;"/><text fill="#000000" font-family="sans-serif" font-size="20" lengthAdjust="spacing" textLength="98" x="811.25" y="89.1563">registed by</text><text fill="#000000" font-family="sans-serif" font-size="20" lengthAdjust="spacing" textLength="11" x="908.5033" y="91.3765">1</text></g><!--link OperationRequest to OperationType--><g id="link_OperationRequest_OperationType"><path codeLine="51" d="M793.06,131.6945 C840.82,150.2745 898.06,175.9345 945,206.8945 C1024.21,259.1245 1101.55,337.8045 1147.75,388.6345 " fill="none" id="OperationRequest-to-OperationType" style="stroke:#222222;stroke-width:1.0;"/><polygon fill="#222222" points="1151.3,392.5445,1148.2326,383.1855,1147.9473,388.8352,1142.2976,388.5498,1151.3,392.5445" style="stroke:#222222;stroke-width:1.0;"/><text fill="#000000" font-family="sans-serif" font-size="20" lengthAdjust="spacing" textLength="91" x="1085" y="261.6563">defined by</text><text fill="#000000" font-family="sans-serif" font-size="20" lengthAdjust="spacing" textLength="11" x="1134.5088" y="380.682">1</text></g><!--link OperationRequest to Date--><g id="link_OperationRequest_Date"><path codeLine="52" d="M707.3,144.1845 C712.81,166.5045 719.36,193.0445 724.59,214.2545 " fill="none" id="OperationRequest-to-Date" style="stroke:#222222;stroke-width:1.0;"/><polygon fill="#222222" points="725.82,219.2545,727.5446,209.5578,724.6208,214.4005,719.7781,211.4766,725.82,219.2545" style="stroke:#222222;stroke-width:1.0;"/><text fill="#000000" font-family="sans-serif" font-size="20" lengthAdjust="spacing" textLength="11" x="712.4688" y="206.9866">1</text></g><!--link OperationRequest to Status--><g id="link_OperationRequest_Status"><path codeLine="53" d="M649.91,144.1845 C631.26,162.7145 609.68,184.1545 590.67,203.0445 " fill="none" id="OperationRequest-to-Status" style="stroke:#222222;stroke-width:1.0;"/><polygon fill="#222222" points="586.91,206.7845,596.1166,203.2861,590.4598,203.2633,590.4826,197.6065,586.91,206.7845" style="stroke:#222222;stroke-width:1.0;"/><text fill="#000000" font-family="sans-serif" font-size="20" lengthAdjust="spacing" textLength="11" x="581.3401" y="194.5823">1</text></g><!--link Patient to Name--><g id="link_Patient_Name"><path codeLine="55" d="M820.7,486.0045 C809,507.9545 795.14,533.9545 784.06,554.7545 " fill="none" id="Patient-to-Name" style="stroke:#222222;stroke-width:1.0;"/><polygon fill="#222222" points="781.59,559.3845,789.3578,553.3296,783.9452,554.974,782.3008,549.5614,781.59,559.3845" style="stroke:#222222;stroke-width:1.0;"/><text fill="#000000" font-family="sans-serif" font-size="20" lengthAdjust="spacing" textLength="11" x="772.668" y="547.1389">1</text></g><!--SRC=[fLLDRvmm4BtxLup8fPKQQHlrKAqGKj8jKgIgZPggToyCn5t0r1uIfL7-UyU06s2N_KXzicRUUnw_OOpTgAgMHfQ5JZQOGegPR0gATKMtwW_2nK9O3u6aaDPU4XcrRWYl4rsrc8MuKoa2bZKzWlHfEoLUoMIJ6zrKwITTQ0DhL3aEG9V6w8SkTNRHBY5gviWS8GX3cUS6SqaOHN0ZIM550Jm9uCLRnKVtKGZ3Bi30C3HQ4s-UdbjaMmXybILowitFTsTn_F7gm-BjlImQ1Bt-XSaMEbR6qccKB_9KHjmKnJ6CPx7R55ZfXBI9eeadNNXWYNUaqzefzQr6mrRgwZl-Rj0oE1XfJlE73PyohjEzzmn3_fvOCLDefb8tHcdZgdYjm2r9QkohwIldqE4cxJVsnsEDiwwwv0cMElX_-3dIEVW5ZhckcyfWofPcsL6yIhCD1MQq18Ft2X-0xfGTI7wsf4hsAbqrNLa7PTr4YBRmy_FePLXVGduO1w1-s8GOc-vomVjWwkqng5PkYkk18vlcG5iN7nJdvsphv7_ZD8_ryx8BuI7zkxc4Kl8xdccp0zn1- -V4TIzNbgk5zJxbyLsNxk-YgbbIVmIRC9_jfbS8NxEFT-ty2m00]--></g></svg>