<?xml version="1.0" encoding="us-ascii" standalone="no"?><svg xmlns="http://www.w3.org/2000/svg" xmlns:xlink="http://www.w3.org/1999/xlink" contentStyleType="text/css" height="734px" preserveAspectRatio="none" style="width:369px;height:734px;background:#FFFFFF;" version="1.1" viewBox="0 0 369 734" width="369px" zoomAndPan="magnify"><defs/><g><text fill="#000000" font-family="sans-serif" font-size="14" font-weight="bold" lengthAdjust="spacing" textLength="262" x="55.25" y="30.1074">US 5.1.23 - System Sequence Diagram</text><rect fill="#FFFFFF" height="574.9668" style="stroke:#181818;stroke-width:1.0;" width="10" x="51.5" y="111.5332"/><rect fill="#FFFFFF" height="574.9668" style="stroke:#181818;stroke-width:1.0;" width="10" x="308.5" y="111.5332"/><rect fill="none" height="115.1641" style="stroke:#000000;stroke-width:1.5;" width="353.5" x="10" y="157.8242"/><rect fill="none" height="81.873" style="stroke:#000000;stroke-width:1.5;" width="333.5" x="20" y="184.1152"/><rect fill="none" height="392.5117" style="stroke:#000000;stroke-width:1.5;" width="353.5" x="10" y="286.9883"/><rect fill="none" height="282.377" style="stroke:#000000;stroke-width:1.5;" width="333.5" x="20" y="390.123"/><line style="stroke:#181818;stroke-width:0.5;stroke-dasharray:5.0,5.0;" x1="56" x2="56" y1="78.2422" y2="696.5"/><line style="stroke:#181818;stroke-width:0.5;stroke-dasharray:5.0,5.0;" x1="313.5" x2="313.5" y1="78.2422" y2="696.5"/><rect fill="#E2E2F0" height="32.6211" rx="2.5" ry="2.5" style="stroke:#181818;stroke-width:0.5;" width="53" x="30" y="44.6211"/><text fill="#000000" font-family="sans-serif" font-size="14" lengthAdjust="spacing" textLength="39" x="37" y="66.7285">Admin</text><rect fill="#E2E2F0" height="32.6211" rx="2.5" ry="2.5" style="stroke:#181818;stroke-width:0.5;" width="53" x="30" y="695.5"/><text fill="#000000" font-family="sans-serif" font-size="14" lengthAdjust="spacing" textLength="39" x="37" y="717.6074">Admin</text><rect fill="#E2E2F0" height="32.6211" rx="2.5" ry="2.5" style="stroke:#181818;stroke-width:0.5;" width="60" x="283.5" y="44.6211"/><text fill="#000000" font-family="sans-serif" font-size="14" lengthAdjust="spacing" textLength="46" x="290.5" y="66.7285">System</text><rect fill="#E2E2F0" height="32.6211" rx="2.5" ry="2.5" style="stroke:#181818;stroke-width:0.5;" width="60" x="283.5" y="695.5"/><text fill="#000000" font-family="sans-serif" font-size="14" lengthAdjust="spacing" textLength="46" x="290.5" y="717.6074">System</text><rect fill="#FFFFFF" height="574.9668" style="stroke:#181818;stroke-width:1.0;" width="10" x="51.5" y="111.5332"/><rect fill="#FFFFFF" height="574.9668" style="stroke:#181818;stroke-width:1.0;" width="10" x="308.5" y="111.5332"/><polygon fill="#181818" points="296.5,107.5332,306.5,111.5332,296.5,115.5332,300.5,111.5332" style="stroke:#181818;stroke-width:1.0;"/><line style="stroke:#181818;stroke-width:1.0;" x1="61.5" x2="302.5" y1="111.5332" y2="111.5332"/><text fill="#000000" font-family="sans-serif" font-size="13" font-weight="bold" lengthAdjust="spacing" textLength="7" x="68.5" y="106.2705">1</text><text fill="#000000" font-family="sans-serif" font-size="13" lengthAdjust="spacing" textLength="222" x="79.5" y="106.2705">requests the list of the operation types</text><polygon fill="#181818" points="72.5,138.8242,62.5,142.8242,72.5,146.8242,68.5,142.8242" style="stroke:#181818;stroke-width:1.0;"/><line style="stroke:#181818;stroke-width:1.0;stroke-dasharray:2.0,2.0;" x1="66.5" x2="307.5" y1="142.8242" y2="142.8242"/><text fill="#000000" font-family="sans-serif" font-size="13" font-weight="bold" lengthAdjust="spacing" textLength="7" x="78.5" y="137.5615">2</text><text fill="#000000" font-family="sans-serif" font-size="13" lengthAdjust="spacing" textLength="139" x="89.5" y="137.5615">lists the operation types</text><path d="M10,157.8242 L83,157.8242 L83,167.1152 L73,177.1152 L10,177.1152 L10,157.8242 " fill="#EEEEEE" style="stroke:#000000;stroke-width:1.5;"/><rect fill="none" height="115.1641" style="stroke:#000000;stroke-width:1.5;" width="353.5" x="10" y="157.8242"/><text fill="#000000" font-family="sans-serif" font-size="13" font-weight="bold" lengthAdjust="spacing" textLength="28" x="25" y="172.8525">loop</text><text fill="#000000" font-family="sans-serif" font-size="11" font-weight="bold" lengthAdjust="spacing" textLength="138" x="98" y="171.6943">[until the Admin desires]</text><path d="M20,184.1152 L85,184.1152 L85,193.4063 L75,203.4063 L20,203.4063 L20,184.1152 " fill="#EEEEEE" style="stroke:#000000;stroke-width:1.5;"/><rect fill="none" height="81.873" style="stroke:#000000;stroke-width:1.5;" width="333.5" x="20" y="184.1152"/><text fill="#000000" font-family="sans-serif" font-size="13" font-weight="bold" lengthAdjust="spacing" textLength="20" x="35" y="199.1436">opt</text><text fill="#000000" font-family="sans-serif" font-size="11" font-weight="bold" lengthAdjust="spacing" textLength="137" x="100" y="197.9854">[search filters appliance]</text><polygon fill="#181818" points="296.5,222.6973,306.5,226.6973,296.5,230.6973,300.5,226.6973" style="stroke:#181818;stroke-width:1.0;"/><line style="stroke:#181818;stroke-width:1.0;" x1="61.5" x2="302.5" y1="226.6973" y2="226.6973"/><text fill="#000000" font-family="sans-serif" font-size="13" font-weight="bold" lengthAdjust="spacing" textLength="7" x="68.5" y="221.4346">3</text><text fill="#000000" font-family="sans-serif" font-size="13" lengthAdjust="spacing" textLength="119" x="79.5" y="221.4346">applies search filters</text><polygon fill="#181818" points="72.5,253.9883,62.5,257.9883,72.5,261.9883,68.5,257.9883" style="stroke:#181818;stroke-width:1.0;"/><line style="stroke:#181818;stroke-width:1.0;stroke-dasharray:2.0,2.0;" x1="66.5" x2="307.5" y1="257.9883" y2="257.9883"/><text fill="#000000" font-family="sans-serif" font-size="13" font-weight="bold" lengthAdjust="spacing" textLength="7" x="78.5" y="252.7256">4</text><text fill="#000000" font-family="sans-serif" font-size="13" lengthAdjust="spacing" textLength="100" x="89.5" y="252.7256">shows filtered list</text><path d="M10,286.9883 L75,286.9883 L75,296.2793 L65,306.2793 L10,306.2793 L10,286.9883 " fill="#EEEEEE" style="stroke:#000000;stroke-width:1.5;"/><rect fill="none" height="392.5117" style="stroke:#000000;stroke-width:1.5;" width="353.5" x="10" y="286.9883"/><text fill="#000000" font-family="sans-serif" font-size="13" font-weight="bold" lengthAdjust="spacing" textLength="20" x="25" y="302.0166">opt</text><text fill="#000000" font-family="sans-serif" font-size="11" font-weight="bold" lengthAdjust="spacing" textLength="144" x="90" y="300.8584">[Admin wants to select an</text><text fill="#000000" font-family="sans-serif" font-size="11" font-weight="bold" lengthAdjust="spacing" textLength="84" x="93" y="315.4893">operation type]</text><polygon fill="#181818" points="296.5,339.832,306.5,343.832,296.5,347.832,300.5,343.832" style="stroke:#181818;stroke-width:1.0;"/><line style="stroke:#181818;stroke-width:1.0;" x1="61.5" x2="302.5" y1="343.832" y2="343.832"/><text fill="#000000" font-family="sans-serif" font-size="13" font-weight="bold" lengthAdjust="spacing" textLength="7" x="68.5" y="338.5693">5</text><text fill="#000000" font-family="sans-serif" font-size="13" lengthAdjust="spacing" textLength="146" x="79.5" y="338.5693">selects an operation type</text><polygon fill="#181818" points="72.5,371.123,62.5,375.123,72.5,379.123,68.5,375.123" style="stroke:#181818;stroke-width:1.0;"/><line style="stroke:#181818;stroke-width:1.0;stroke-dasharray:2.0,2.0;" x1="66.5" x2="307.5" y1="375.123" y2="375.123"/><text fill="#000000" font-family="sans-serif" font-size="13" font-weight="bold" lengthAdjust="spacing" textLength="7" x="78.5" y="369.8604">6</text><text fill="#000000" font-family="sans-serif" font-size="13" lengthAdjust="spacing" textLength="123" x="89.5" y="369.8604">shows operation type</text><path d="M20,390.123 L81,390.123 L81,399.4141 L71,409.4141 L20,409.4141 L20,390.123 " fill="#EEEEEE" style="stroke:#000000;stroke-width:1.5;"/><rect fill="none" height="282.377" style="stroke:#000000;stroke-width:1.5;" width="333.5" x="20" y="390.123"/><text fill="#000000" font-family="sans-serif" font-size="13" font-weight="bold" lengthAdjust="spacing" textLength="16" x="35" y="405.1514">alt</text><text fill="#000000" font-family="sans-serif" font-size="11" font-weight="bold" lengthAdjust="spacing" textLength="212" x="96" y="403.9932">[view, edit or remove operation types]</text><polygon fill="#181818" points="296.5,453.7051,306.5,457.7051,296.5,461.7051,300.5,457.7051" style="stroke:#181818;stroke-width:1.0;"/><line style="stroke:#181818;stroke-width:1.0;" x1="61.5" x2="302.5" y1="457.7051" y2="457.7051"/><text fill="#000000" font-family="sans-serif" font-size="13" font-weight="bold" lengthAdjust="spacing" textLength="7" x="68.5" y="452.4424">7</text><text fill="#000000" font-family="sans-serif" font-size="13" lengthAdjust="spacing" textLength="196" x="79.5" y="452.4424">asks to see operation type details</text><polygon fill="#181818" points="72.5,484.9961,62.5,488.9961,72.5,492.9961,68.5,488.9961" style="stroke:#181818;stroke-width:1.0;"/><line style="stroke:#181818;stroke-width:1.0;stroke-dasharray:2.0,2.0;" x1="66.5" x2="307.5" y1="488.9961" y2="488.9961"/><text fill="#000000" font-family="sans-serif" font-size="13" font-weight="bold" lengthAdjust="spacing" textLength="7" x="78.5" y="483.7334">8</text><text fill="#000000" font-family="sans-serif" font-size="13" lengthAdjust="spacing" textLength="158" x="89.5" y="483.7334">show operation type details</text><line style="stroke:#000000;stroke-width:1.0;stroke-dasharray:2.0,2.0;" x1="20" x2="353.5" y1="497.9961" y2="497.9961"/><rect fill="none" height="43.252" style="stroke:#000000;stroke-width:1.5;" width="319.5" x="27" y="523.9961"/><path d="M27,523.9961 L89,523.9961 L89,532.9961 L79,542.9961 L27,542.9961 L27,523.9961 " fill="#EEEEEE" style="stroke:#000000;stroke-width:2.0;"/><text fill="#000000" font-family="sans-serif" font-size="13" font-weight="bold" lengthAdjust="spacing" textLength="17" x="40" y="540.0244">ref</text><text fill="#000000" font-family="sans-serif" font-size="12" lengthAdjust="spacing" textLength="165" x="104.25" y="559.9453">US 5.1.21 (edit operation type)</text><line style="stroke:#000000;stroke-width:1.0;stroke-dasharray:2.0,2.0;" x1="20" x2="353.5" y1="598.248" y2="598.248"/><rect fill="none" height="43.252" style="stroke:#000000;stroke-width:1.5;" width="319.5" x="27" y="624.248"/><path d="M27,624.248 L89,624.248 L89,633.248 L79,643.248 L27,643.248 L27,624.248 " fill="#EEEEEE" style="stroke:#000000;stroke-width:2.0;"/><text fill="#000000" font-family="sans-serif" font-size="13" font-weight="bold" lengthAdjust="spacing" textLength="17" x="40" y="640.2764">ref</text><text fill="#000000" font-family="sans-serif" font-size="12" lengthAdjust="spacing" textLength="200" x="86.75" y="660.1973">US 5.1.22 (deactivate operation type)</text><!--SRC=[XPF1Ri8m38RlUGfhbp69Wc3QXSCa9AuxLJjCsYLhpHejJRBO1I7ny4kQKb6W8oT7jZ__jfF7YjdHQZvtMXfkQZqhR3qd_6tG59YLIdvxMGl1YZN2mtiEBxF5RFaC6UG7OgmXxs9Xas8VX90DMzFKN-Y5SDApAfGBT5YNjJ8W2TQRju6ZGmLF_f4B4ToGlKORLk0ZdvY0AmIjYC5kMziwz9ALDS07XoHamMed6LjwVsc1aPG5OWIlMWZTH0ZGrZfe32lT1YJ59PBoqMqT0w7qHGLRfHazWNHEAndw5z2TWVhMZNIH9VhWeJAgx9ww82nReNqacZBeJVTeHwM94rKbeVimpD2P3UKq5WpIV9gB9bFAG6CA3grSnOufl8MCHsg6dSBz5B1KOL4-RA-sk-j1dnAEnwCO6HpzT9rSPeTri5IQ_fdXlGpKX0CD9zlZ5e9U7rdJJidfpIzWaheQi9zkSaOBt2koX4c9_UCTAnNt7sOjpj-5ECkBF-3islw1Fm00]--></g></svg>