<?xml version="1.0" encoding="us-ascii" standalone="no"?><svg xmlns="http://www.w3.org/2000/svg" xmlns:xlink="http://www.w3.org/1999/xlink" contentStyleType="text/css" height="3554px" preserveAspectRatio="none" style="width:697px;height:3554px;background:#FFFFFF;" version="1.1" viewBox="0 0 697 3554" width="697px" zoomAndPan="magnify"><defs/><g><!--entity Admin--><g id="elem_Admin"><ellipse cx="72.5" cy="2583.5" fill="#F1F1F1" rx="8" ry="8" style="stroke:#181818;stroke-width:0.5;"/><path d="M72.5,2591.5 L72.5,2618.5 M59.5,2599.5 L85.5,2599.5 M72.5,2618.5 L59.5,2633.5 M72.5,2618.5 L85.5,2633.5 " fill="none" style="stroke:#181818;stroke-width:0.5;"/><text fill="#000000" font-family="sans-serif" font-size="14" lengthAdjust="spacing" textLength="39" x="53" y="2650.1074">Admin</text></g><!--entity Backoffice--><g id="elem_Backoffice"><ellipse cx="72.5" cy="1737.5" fill="#F1F1F1" rx="8" ry="8" style="stroke:#181818;stroke-width:0.5;"/><path d="M72.5,1745.5 L72.5,1772.5 M59.5,1753.5 L85.5,1753.5 M72.5,1772.5 L59.5,1787.5 M72.5,1772.5 L85.5,1787.5 " fill="none" style="stroke:#181818;stroke-width:0.5;"/><text fill="#000000" font-family="sans-serif" font-size="14" lengthAdjust="spacing" textLength="101" x="22" y="1804.1074">BackOffice User</text></g><!--entity Doctor--><g id="elem_Doctor"><ellipse cx="72.5" cy="1221.5" fill="#F1F1F1" rx="8" ry="8" style="stroke:#181818;stroke-width:0.5;"/><path d="M72.5,1229.5 L72.5,1256.5 M59.5,1237.5 L85.5,1237.5 M72.5,1256.5 L59.5,1271.5 M72.5,1256.5 L85.5,1271.5 " fill="none" style="stroke:#181818;stroke-width:0.5;"/><text fill="#000000" font-family="sans-serif" font-size="14" lengthAdjust="spacing" textLength="42" x="51.5" y="1288.1074">Doctor</text></g><!--entity Patient--><g id="elem_Patient"><ellipse cx="72.5" cy="734.5" fill="#F1F1F1" rx="8" ry="8" style="stroke:#181818;stroke-width:0.5;"/><path d="M72.5,742.5 L72.5,769.5 M59.5,750.5 L85.5,750.5 M72.5,769.5 L59.5,784.5 M72.5,769.5 L85.5,784.5 " fill="none" style="stroke:#181818;stroke-width:0.5;"/><text fill="#000000" font-family="sans-serif" font-size="14" lengthAdjust="spacing" textLength="44" x="50.5" y="801.1074">Patient</text></g><!--entity System--><g id="elem_System"><ellipse cx="72.5" cy="267.5" fill="#F1F1F1" rx="8" ry="8" style="stroke:#181818;stroke-width:0.5;"/><path d="M72.5,275.5 L72.5,302.5 M59.5,283.5 L85.5,283.5 M72.5,302.5 L59.5,317.5 M72.5,302.5 L85.5,317.5 " fill="none" style="stroke:#181818;stroke-width:0.5;"/><text fill="#000000" font-family="sans-serif" font-size="14" lengthAdjust="spacing" textLength="133" x="6" y="334.1074">System Administrator</text></g><g id="elem_register new backoffice users via an out-of-band process"><ellipse cx="444.7673" cy="1876.6535" fill="#F1F1F1" rx="193.7673" ry="41.1535" style="stroke:#181818;stroke-width:0.5;"/><text fill="#000000" font-family="sans-serif" font-size="14" lengthAdjust="spacing" textLength="358" x="265.7673" y="1880.4503">register new backoffice users via an out-of-band process</text></g><g id="elem_create a new patient profile"><ellipse cx="445.1616" cy="1976.5323" fill="#F1F1F1" rx="105.6616" ry="23.5323" style="stroke:#181818;stroke-width:0.5;"/><text fill="#000000" font-family="sans-serif" font-size="14" lengthAdjust="spacing" textLength="171" x="359.6616" y="1980.3292">create a new patient profile</text></g><g id="elem_edit an existing patient profile"><ellipse cx="444.995" cy="2059.699" fill="#F1F1F1" rx="111.495" ry="24.699" style="stroke:#181818;stroke-width:0.5;"/><text fill="#000000" font-family="sans-serif" font-size="14" lengthAdjust="spacing" textLength="184" x="352.995" y="2063.4959">edit an existing patient profile</text></g><g id="elem_delete a patient profile"><ellipse cx="444.7968" cy="2140.4594" fill="#F1F1F1" rx="92.7968" ry="20.9594" style="stroke:#181818;stroke-width:0.5;"/><text fill="#000000" font-family="sans-serif" font-size="14" lengthAdjust="spacing" textLength="141" x="371.2968" y="2145.2631">delete a patient profile</text></g><g id="elem_list/search patient profiles to view the details, edit, and remove them"><ellipse cx="444.8932" cy="2244.2786" fill="#F1F1F1" rx="226.8932" ry="47.7786" style="stroke:#181818;stroke-width:0.5;"/><text fill="#000000" font-family="sans-serif" font-size="14" lengthAdjust="spacing" textLength="426" x="231.8932" y="2248.0755">list/search patient profiles to view the details, edit, and remove them</text></g><g id="elem_I want to create a new staff profile"><ellipse cx="444.828" cy="2354.6656" fill="#F1F1F1" rx="123.828" ry="27.1656" style="stroke:#181818;stroke-width:0.5;"/><text fill="#000000" font-family="sans-serif" font-size="14" lengthAdjust="spacing" textLength="211" x="339.328" y="2358.4625">I want to create a new staff profile</text></g><g id="elem_edit a staff&#8217;s profile"><ellipse cx="445.0399" cy="2435.708" fill="#F1F1F1" rx="84.0399" ry="19.208" style="stroke:#181818;stroke-width:0.5;"/><text fill="#000000" font-family="sans-serif" font-size="14" lengthAdjust="spacing" textLength="119" x="382.5399" y="2440.5117">edit a staff&#8217;s profile</text></g><g id="elem_deactivate a staff profile"><ellipse cx="444.9493" cy="2511.2899" fill="#F1F1F1" rx="96.9493" ry="21.7899" style="stroke:#181818;stroke-width:0.5;"/><text fill="#000000" font-family="sans-serif" font-size="14" lengthAdjust="spacing" textLength="151" x="367.4009" y="2515.8039">deactivate a staff profile</text></g><g id="elem_list/search staff profiles to see the details, edit, and remove them"><ellipse cx="445.1218" cy="2614.3244" fill="#F1F1F1" rx="217.1218" ry="45.8244" style="stroke:#181818;stroke-width:0.5;"/><text fill="#000000" font-family="sans-serif" font-size="14" lengthAdjust="spacing" textLength="406" x="242.1218" y="2618.1212">list/search staff profiles to see the details, edit, and remove them</text></g><g id="elem_add new types of operations"><ellipse cx="444.793" cy="2719.6586" fill="#F1F1F1" rx="108.793" ry="24.1586" style="stroke:#181818;stroke-width:0.5;"/><text fill="#000000" font-family="sans-serif" font-size="14" lengthAdjust="spacing" textLength="178" x="355.793" y="2723.4555">add new types of operations</text></g><g id="elem_edit existing operation types"><ellipse cx="444.8959" cy="2802.4792" fill="#F1F1F1" rx="107.8959" ry="23.9792" style="stroke:#181818;stroke-width:0.5;"/><text fill="#000000" font-family="sans-serif" font-size="14" lengthAdjust="spacing" textLength="176" x="356.8959" y="2806.2761">edit existing operation types</text></g><g id="elem_remove obsolete or no longer performed operation types"><ellipse cx="444.7824" cy="2902.5565" fill="#F1F1F1" rx="193.2824" ry="41.0565" style="stroke:#181818;stroke-width:0.5;"/><text fill="#000000" font-family="sans-serif" font-size="14" lengthAdjust="spacing" textLength="357" x="266.2824" y="2906.3534">remove obsolete or no longer performed operation types</text></g><g id="elem_list/search operation types to see the details, edit, and remove them"><ellipse cx="444.8823" cy="3026.3765" fill="#F1F1F1" rx="227.3823" ry="47.8765" style="stroke:#181818;stroke-width:0.5;"/><text fill="#000000" font-family="sans-serif" font-size="14" lengthAdjust="spacing" textLength="427" x="231.3823" y="3030.1733">list/search operation types to see the details, edit, and remove them</text></g><g id="elem_synchronization between the planning module and backoffice\n regarding staff, operation types, and operation requests"><ellipse cx="444.8458" cy="3156.6692" fill="#F1F1F1" rx="221.3458" ry="46.6692" style="stroke:#181818;stroke-width:0.5;"/><text fill="#000000" font-family="sans-serif" font-size="14" lengthAdjust="spacing" textLength="383" x="253.3458" y="3151.1555">synchronization between the planning module and backoffice</text><text fill="#000000" font-family="sans-serif" font-size="14" lengthAdjust="spacing" textLength="353" x="270.3458" y="3169.7766">regarding staff, operation types, and operation requests</text></g><g id="elem_synchronization with planing module's plan of staff&#8217;s\n availability and operation schedule"><ellipse cx="445.0745" cy="3279.4149" fill="#F1F1F1" rx="195.0745" ry="41.4149" style="stroke:#181818;stroke-width:0.5;"/><text fill="#000000" font-family="sans-serif" font-size="14" lengthAdjust="spacing" textLength="324" x="283.0745" y="3273.9012">synchronization with planing module's plan of staff&#8217;s</text><text fill="#000000" font-family="sans-serif" font-size="14" lengthAdjust="spacing" textLength="218" x="338.0745" y="3292.5223">availability and operation schedule</text></g><g id="elem_obtain the better scheduling of a set of\n operations in a certain operation room in a specific day"><ellipse cx="445.0427" cy="3399.7085" fill="#F1F1F1" rx="206.5427" ry="43.7085" style="stroke:#181818;stroke-width:0.5;"/><text fill="#000000" font-family="sans-serif" font-size="14" lengthAdjust="spacing" textLength="243" x="323.5427" y="3394.1949">obtain the better scheduling of a set of</text><text fill="#000000" font-family="sans-serif" font-size="14" lengthAdjust="spacing" textLength="346" x="274.0427" y="3412.816">operations in a certain operation room in a specific day</text></g><g id="elem_obtain a good schedule, not necessarily\n the better, in useful time to be adopted"><ellipse cx="445.19" cy="3513.338" fill="#F1F1F1" rx="164.69" ry="35.338" style="stroke:#181818;stroke-width:0.5;"/><text fill="#000000" font-family="sans-serif" font-size="14" lengthAdjust="spacing" textLength="251" x="316.69" y="3508.8312">obtain a good schedule, not necessarily</text><text fill="#000000" font-family="sans-serif" font-size="14" lengthAdjust="spacing" textLength="244" x="322.19" y="3527.4522">the better, in useful time to be adopted</text></g><g id="elem_update my user profile"><ellipse cx="444.7968" cy="630.4594" fill="#F1F1F1" rx="92.7968" ry="20.9594" style="stroke:#181818;stroke-width:0.5;"/><text fill="#000000" font-family="sans-serif" font-size="14" lengthAdjust="spacing" textLength="141" x="371.2968" y="635.2631">update my user profile</text></g><g id="elem_register for the healthcare application"><ellipse cx="444.9506" cy="716.4901" fill="#F1F1F1" rx="135.4506" ry="29.4901" style="stroke:#181818;stroke-width:0.5;"/><text fill="#000000" font-family="sans-serif" font-size="14" lengthAdjust="spacing" textLength="236" x="326.9506" y="720.287">register for the healthcare application</text></g><g id="elem_delete my account and all associated data"><ellipse cx="445.1144" cy="813.7229" fill="#F1F1F1" rx="149.1144" ry="32.2229" style="stroke:#181818;stroke-width:0.5;"/><text fill="#000000" font-family="sans-serif" font-size="14" lengthAdjust="spacing" textLength="265" x="312.6144" y="817.5197">delete my account and all associated data</text></g><g id="elem_log in to the healthcare system using my external IAM credentials"><ellipse cx="445.1099" cy="926.422" fill="#F1F1F1" rx="217.6099" ry="45.922" style="stroke:#181818;stroke-width:0.5;"/><text fill="#000000" font-family="sans-serif" font-size="14" lengthAdjust="spacing" textLength="407" x="241.6099" y="930.2189">log in to the healthcare system using my external IAM credentials</text></g><g id="elem_reset my password if I forget it"><ellipse cx="444.8048" cy="1676.561" fill="#F1F1F1" rx="113.3048" ry="25.061" style="stroke:#181818;stroke-width:0.5;"/><text fill="#000000" font-family="sans-serif" font-size="14" lengthAdjust="spacing" textLength="188" x="350.8048" y="1680.3578">reset my password if I forget it</text></g><g id="elem_log in to the system using my credentials"><ellipse cx="444.8839" cy="1768.2768" fill="#F1F1F1" rx="144.3839" ry="31.2768" style="stroke:#181818;stroke-width:0.5;"/><text fill="#000000" font-family="sans-serif" font-size="14" lengthAdjust="spacing" textLength="255" x="317.3839" y="1772.0737">log in to the system using my credentials</text></g><g id="elem_request an operation"><ellipse cx="445.1522" cy="1027.7304" fill="#F1F1F1" rx="89.1522" ry="20.2304" style="stroke:#181818;stroke-width:0.5;"/><text fill="#000000" font-family="sans-serif" font-size="14" lengthAdjust="spacing" textLength="132" x="376.1522" y="1032.5342">request an operation</text></g><g id="elem_update an operation requisition"><ellipse cx="444.9002" cy="1108.38" fill="#F1F1F1" rx="117.4002" ry="25.88" style="stroke:#181818;stroke-width:0.5;"/><text fill="#000000" font-family="sans-serif" font-size="14" lengthAdjust="spacing" textLength="197" x="346.4002" y="1112.1769">update an operation requisition</text></g><g id="elem_remove an operation requisition"><ellipse cx="444.772" cy="1195.6544" fill="#F1F1F1" rx="118.772" ry="26.1544" style="stroke:#181818;stroke-width:0.5;"/><text fill="#000000" font-family="sans-serif" font-size="14" lengthAdjust="spacing" textLength="200" x="344.772" y="1199.4513">remove an operation requisition</text></g><g id="elem_list/search operation requisitions to see the details, edit, and remove them"><ellipse cx="445.0008" cy="1308.6002" fill="#F1F1F1" rx="246.0008" ry="51.6002" style="stroke:#181818;stroke-width:0.5;"/><text fill="#000000" font-family="sans-serif" font-size="14" lengthAdjust="spacing" textLength="465" x="212.5008" y="1312.397">list/search operation requisitions to see the details, edit, and remove them</text></g><g id="elem_consult a 3D hospital floor simulation with in sync operation scheduling"><ellipse cx="445.2141" cy="1444.4428" fill="#F1F1F1" rx="235.2141" ry="49.4428" style="stroke:#181818;stroke-width:0.5;"/><text fill="#000000" font-family="sans-serif" font-size="14" lengthAdjust="spacing" textLength="443" x="223.7141" y="1448.2397">consult a 3D hospital floor simulation with in sync operation scheduling</text></g><g id="elem_synchronization between planing module and\n the 3D visualization module regarding room availability"><ellipse cx="444.7663" cy="1572.3533" fill="#F1F1F1" rx="204.7663" ry="43.3533" style="stroke:#181818;stroke-width:0.5;"/><text fill="#000000" font-family="sans-serif" font-size="14" lengthAdjust="spacing" textLength="283" x="303.2663" y="1566.8396">synchronization between planing module and</text><text fill="#000000" font-family="sans-serif" font-size="14" lengthAdjust="spacing" textLength="342" x="275.7663" y="1585.4607">the 3D visualization module regarding room availability</text></g><g id="elem_deployment of a RFP modules in a\n DEI VM to be systematic, validating it on a scheduled\n basis with the test plan"><ellipse cx="445.1152" cy="53.623" fill="#F1F1F1" rx="226.1152" ry="47.623" style="stroke:#181818;stroke-width:0.5;"/><text fill="#000000" font-family="sans-serif" font-size="14" lengthAdjust="spacing" textLength="217" x="336.6152" y="38.7988">deployment of a RFP modules in a</text><text fill="#000000" font-family="sans-serif" font-size="14" lengthAdjust="spacing" textLength="332" x="281.1152" y="57.4199">DEI VM to be systematic, validating it on a scheduled</text><text fill="#000000" font-family="sans-serif" font-size="14" lengthAdjust="spacing" textLength="143" x="375.6152" y="76.041">basis with the test plan</text></g><g id="elem_restriction of access to the VM -  only DEI's internal network"><ellipse cx="445.049" cy="178.6098" fill="#F1F1F1" rx="201.049" ry="42.6098" style="stroke:#181818;stroke-width:0.5;"/><text fill="#000000" font-family="sans-serif" font-size="14" lengthAdjust="spacing" textLength="373" x="258.549" y="182.4067">restriction of access to the VM -  only DEI's internal network</text></g><g id="elem_define a public folder for all users registered on the system"><ellipse cx="445.0913" cy="298.3183" fill="#F1F1F1" rx="199.5913" ry="42.3183" style="stroke:#181818;stroke-width:0.5;"/><text fill="#000000" font-family="sans-serif" font-size="14" lengthAdjust="spacing" textLength="370" x="260.0913" y="302.1151">define a public folder for all users registered on the system</text></g><g id="elem_log users with more than 3 incorrect access attempts"><ellipse cx="445.206" cy="414.5412" fill="#F1F1F1" rx="180.706" ry="38.5412" style="stroke:#181818;stroke-width:0.5;"/><text fill="#000000" font-family="sans-serif" font-size="14" lengthAdjust="spacing" textLength="331" x="279.706" y="418.3381">log users with more than 3 incorrect access attempts</text></g><g id="elem_notify both users and the responsible\n authority in case of a data breach - GDPR compliance"><ellipse cx="444.8796" cy="531.6759" fill="#F1F1F1" rx="203.8796" ry="43.1759" style="stroke:#181818;stroke-width:0.5;"/><text fill="#000000" font-family="sans-serif" font-size="14" lengthAdjust="spacing" textLength="234" x="327.8796" y="526.1623">notify both users and the responsible</text><text fill="#000000" font-family="sans-serif" font-size="14" lengthAdjust="spacing" textLength="340" x="276.8796" y="544.7833">authority in case of a data breach - GDPR compliance</text></g><!--link Admin to register new backoffice users via an out-of-band process--><g id="link_Admin_register new backoffice users via an out-of-band process"><path d="M75.33,2574.57 C82.15,2443.42 110.45,2028.92 199,1935.5 C217.58,1915.89 235.8238,1904.3675 261.3538,1895.0475 " fill="none" id="Admin-to-register new backoffice users via an out-of-band process" style="stroke:#181818;stroke-width:1.0;"/><polygon fill="#181818" points="266.99,1892.99,257.164,1892.3189,262.2932,1894.7046,259.9074,1899.8338,266.99,1892.99" style="stroke:#181818;stroke-width:1.0;"/></g><!--link Admin to create a new patient profile--><g id="link_Admin_create a new patient profile"><path d="M76.14,2574.97 C85.01,2454.48 117.89,2095.32 199,2017.5 C237.35,1980.7 289.5723,1969.9954 339.6223,1968.6154 " fill="none" id="Admin-to-create a new patient profile" style="stroke:#181818;stroke-width:1.0;"/><polygon fill="#181818" points="345.62,1968.45,336.5132,1964.6996,340.6219,1968.5878,336.7337,1972.6965,345.62,1968.45" style="stroke:#181818;stroke-width:1.0;"/></g><!--link Admin to edit an existing patient profile--><g id="link_Admin_edit an existing patient profile"><path d="M77.66,2574.89 C89.9,2466.31 129.33,2167.68 199,2102.5 C235.5,2068.35 283.0915,2056.6611 330.8515,2053.7011 " fill="none" id="Admin-to-edit an existing patient profile" style="stroke:#181818;stroke-width:1.0;"/><polygon fill="#181818" points="336.84,2053.33,327.6098,2049.8944,331.8496,2053.6393,328.1047,2057.8791,336.84,2053.33" style="stroke:#181818;stroke-width:1.0;"/></g><!--link Admin to delete a patient profile--><g id="link_Admin_delete a patient profile"><path d="M79.44,2574.88 C94.8,2477.9 138.86,2232.66 199,2179.5 C242,2141.49 300.61,2132.4685 352.69,2132.5685 " fill="none" id="Admin-to-delete a patient profile" style="stroke:#181818;stroke-width:1.0;"/><polygon fill="#181818" points="358.69,2132.58,349.6977,2128.5627,353.69,2132.5704,349.6823,2136.5627,358.69,2132.58" style="stroke:#181818;stroke-width:1.0;"/></g><!--link Admin to list/search patient profiles to view the details, edit, and remove them--><g id="link_Admin_list/search patient profiles to view the details, edit, and remove them"><path d="M78.54,2575 C88.97,2510.02 119.03,2380.81 199,2310.5 C217.28,2294.43 233.5159,2284.4651 256.4659,2275.2051 " fill="none" id="Admin-to-list/search patient profiles to view the details, edit, and remove them" style="stroke:#181818;stroke-width:1.0;"/><polygon fill="#181818" points="262.03,2272.96,252.1871,2272.6182,257.3932,2274.8309,255.1805,2280.037,262.03,2272.96" style="stroke:#181818;stroke-width:1.0;"/></g><!--link Admin to I want to create a new staff profile--><g id="link_Admin_I want to create a new staff profile"><path d="M85.22,2574.9 C102,2525.54 137.8,2442.46 199,2399.5 C234.31,2374.72 273.3567,2363.2326 315.1167,2357.4526 " fill="none" id="Admin-to-I want to create a new staff profile" style="stroke:#181818;stroke-width:1.0;"/><polygon fill="#181818" points="321.06,2356.63,311.5966,2353.9017,316.1072,2357.3155,312.6934,2361.8262,321.06,2356.63" style="stroke:#181818;stroke-width:1.0;"/></g><!--link Admin to edit a staff?s profile--><g id="link_Admin_edit a staff&#8217;s profile"><path d="M92.11,2582.66 C113.43,2549.32 151.61,2498.3 199,2472.5 C248.5,2445.56 305.4971,2436.7917 355.2171,2434.3717 " fill="none" id="Admin-to-edit a staff&#8217;s profile" style="stroke:#181818;stroke-width:1.0;"/><polygon fill="#181818" points="361.21,2434.08,352.0262,2430.5223,356.2159,2434.3231,352.4151,2438.5128,361.21,2434.08" style="stroke:#181818;stroke-width:1.0;"/></g><!--link Admin to deactivate a staff profile--><g id="link_Admin_deactivate a staff profile"><path d="M92.29,2602.78 C116.17,2588.43 159.11,2564.43 199,2551.5 C249.22,2535.22 301.5259,2526.1008 348.6259,2520.2408 " fill="none" id="Admin-to-deactivate a staff profile" style="stroke:#181818;stroke-width:1.0;"/><polygon fill="#181818" points="354.58,2519.5,345.155,2516.6418,349.6183,2520.1173,346.1427,2524.5806,354.58,2519.5" style="stroke:#181818;stroke-width:1.0;"/></g><!--link Admin to list/search staff profiles to see the details, edit, and remove them--><g id="link_Admin_list/search staff profiles to see the details, edit, and remove them"><path d="M92.13,2614.5 C118.91,2614.5 165.3,2614.5 221.65,2614.5 " fill="none" id="Admin-to-list/search staff profiles to see the details, edit, and remove them" style="stroke:#181818;stroke-width:1.0;"/><polygon fill="#181818" points="227.65,2614.5,218.65,2610.5,222.65,2614.5,218.65,2618.5,227.65,2614.5" style="stroke:#181818;stroke-width:1.0;"/></g><!--link Admin to add new types of operations--><g id="link_Admin_add new types of operations"><path d="M92.27,2626.39 C116.13,2640.96 159.05,2665.32 199,2678.5 C245.79,2693.94 293.6646,2702.9521 338.9246,2709.1021 " fill="none" id="Admin-to-add new types of operations" style="stroke:#181818;stroke-width:1.0;"/><polygon fill="#181818" points="344.87,2709.91,336.4905,2704.7346,339.9155,2709.2368,335.4134,2712.6618,344.87,2709.91" style="stroke:#181818;stroke-width:1.0;"/></g><!--link Admin to edit existing operation types--><g id="link_Admin_edit existing operation types"><path d="M92.11,2647.62 C113.3,2682.01 151.25,2734.48 199,2761.5 C240.57,2785.02 286.0529,2795.2429 331.0629,2799.9729 " fill="none" id="Admin-to-edit existing operation types" style="stroke:#181818;stroke-width:1.0;"/><polygon fill="#181818" points="337.03,2800.6,328.4973,2795.6813,332.0574,2800.0774,327.6612,2803.6375,337.03,2800.6" style="stroke:#181818;stroke-width:1.0;"/></g><!--link Admin to remove obsolete or no longer performed operation types--><g id="link_Admin_remove obsolete or no longer performed operation types"><path d="M84.1,2654.06 C100.11,2705.95 135.54,2796.07 199,2844.5 C221.5,2861.67 242.5658,2872.0717 270.0358,2880.7017 " fill="none" id="Admin-to-remove obsolete or no longer performed operation types" style="stroke:#181818;stroke-width:1.0;"/><polygon fill="#181818" points="275.76,2882.5,268.3726,2875.9864,270.9899,2881.0014,265.9749,2883.6186,275.76,2882.5" style="stroke:#181818;stroke-width:1.0;"/></g><!--link Admin to list/search operation types to see the details, edit, and remove them--><g id="link_Admin_list/search operation types to see the details, edit, and remove them"><path d="M76.21,2654.27 C83.32,2726.37 108.77,2878.86 199,2961.5 C216.36,2977.4 231.6309,2987.1939 253.6809,2996.3739 " fill="none" id="Admin-to-list/search operation types to see the details, edit, and remove them" style="stroke:#181818;stroke-width:1.0;"/><polygon fill="#181818" points="259.22,2998.68,252.4487,2991.5281,254.6041,2996.7583,249.3739,2998.9136,259.22,2998.68" style="stroke:#181818;stroke-width:1.0;"/></g><!--link Admin to synchronization between the planning module and backoffice\n regarding staff, operation types, and operation requests--><g id="link_Admin_synchronization between the planning module and backoffice\n regarding staff, operation types, and operation requests"><path d="M78.73,2654.18 C93.1,2757.27 136.32,3029.9 199,3092.5 C215.87,3109.35 231.0726,3119.606 253.2626,3128.976 " fill="none" id="Admin-to-synchronization between the planning module and backoffice\n regarding staff, operation types, and operation requests" style="stroke:#181818;stroke-width:1.0;"/><polygon fill="#181818" points="258.79,3131.31,252.0549,3124.124,254.1838,3129.365,248.9429,3131.4939,258.79,3131.31" style="stroke:#181818;stroke-width:1.0;"/></g><!--link Admin to synchronization with planing module's plan of staff?s\n availability and operation schedule--><g id="link_Admin_synchronization with planing module's plan of staff&#8217;s\n availability and operation schedule"><path d="M76.29,2654.37 C85.62,2775.93 119.68,3138.59 199,3220.5 C217.64,3239.75 235.7552,3251.1087 261.0952,3260.3787 " fill="none" id="Admin-to-synchronization with planing module's plan of staff&#8217;s\n availability and operation schedule" style="stroke:#181818;stroke-width:1.0;"/><polygon fill="#181818" points="266.73,3262.44,259.652,3255.5915,262.0343,3260.7222,256.9036,3263.1045,266.73,3262.44" style="stroke:#181818;stroke-width:1.0;"/></g><!--link Admin to obtain the better scheduling of a set of\n operations in a certain operation room in a specific day--><g id="link_Admin_obtain the better scheduling of a set of\n operations in a certain operation room in a specific day"><path d="M74.84,2654.14 C80.27,2790.52 105.06,3237.5 199,3338.5 C216.09,3356.87 232.2252,3367.8365 255.6152,3377.2665 " fill="none" id="Admin-to-obtain the better scheduling of a set of\n operations in a certain operation room in a specific day" style="stroke:#181818;stroke-width:1.0;"/><polygon fill="#181818" points="261.18,3379.51,254.3285,3372.4349,256.5427,3377.6404,251.3372,3379.8546,261.18,3379.51" style="stroke:#181818;stroke-width:1.0;"/></g><!--link Admin to obtain a good schedule, not necessarily\n the better, in useful time to be adopted--><g id="link_Admin_obtain a good schedule, not necessarily\n the better, in useful time to be adopted"><path d="M73.64,2654.19 C74.99,2805.23 87.68,3341.61 199,3460.5 C221.23,3484.25 245.5764,3497.08 277.1064,3505.57 " fill="none" id="Admin-to-obtain a good schedule, not necessarily\n the better, in useful time to be adopted" style="stroke:#181818;stroke-width:1.0;"/><polygon fill="#181818" points="282.9,3507.13,275.2496,3500.9275,278.072,3505.83,273.1695,3508.6524,282.9,3507.13" style="stroke:#181818;stroke-width:1.0;"/></g><!--link Patient to update my user profile--><g id="link_Patient_update my user profile"><path d="M94.89,743.68 C118.27,721.23 157.91,687.14 199,669.5 C247.58,648.65 299.9276,639.4051 347.4876,634.8251 " fill="none" id="Patient-to-update my user profile" style="stroke:#181818;stroke-width:1.0;"/><polygon fill="#181818" points="353.46,634.25,344.118,631.1311,348.483,634.7293,344.8849,639.0943,353.46,634.25" style="stroke:#181818;stroke-width:1.0;"/></g><!--link Patient to register for the healthcare application--><g id="link_Patient_register for the healthcare application"><path d="M94.75,762.69 C139.26,756.8 239.1519,743.5971 322.7319,732.5371 " fill="none" id="Patient-to-register for the healthcare application" style="stroke:#181818;stroke-width:1.0;"/><polygon fill="#181818" points="328.68,731.75,319.233,728.9652,323.7232,732.4059,320.2825,736.8961,328.68,731.75" style="stroke:#181818;stroke-width:1.0;"/></g><!--link Patient to delete my account and all associated data--><g id="link_Patient_delete my account and all associated data"><path d="M94.75,768.25 C137.19,773.75 229.4098,785.6989 310.8998,796.2589 " fill="none" id="Patient-to-delete my account and all associated data" style="stroke:#181818;stroke-width:1.0;"/><polygon fill="#181818" points="316.85,797.03,308.4387,791.9066,311.8915,796.3874,307.4106,799.8402,316.85,797.03" style="stroke:#181818;stroke-width:1.0;"/></g><!--link Patient to log in to the healthcare system using my external IAM credentials--><g id="link_Patient_log in to the healthcare system using my external IAM credentials"><path d="M94.71,786.62 C118.26,808.89 158.32,843.48 199,863.5 C225.5,876.54 249.2183,885.4058 278.2983,893.8558 " fill="none" id="Patient-to-log in to the healthcare system using my external IAM credentials" style="stroke:#181818;stroke-width:1.0;"/><polygon fill="#181818" points="284.06,895.53,276.5336,889.1776,279.2586,894.1348,274.3013,896.8598,284.06,895.53" style="stroke:#181818;stroke-width:1.0;"/></g><!--link Backoffice to reset my password if I forget it--><g id="link_Backoffice_reset my password if I forget it"><path d="M123.1,1746.51 C145.87,1737.1 173.44,1726.66 199,1719.5 C246.93,1706.08 295.4302,1696.9451 340.7902,1689.9451 " fill="none" id="Backoffice-to-reset my password if I forget it" style="stroke:#181818;stroke-width:1.0;"/><polygon fill="#181818" points="346.72,1689.03,337.2152,1686.4494,341.7785,1689.7926,338.4354,1694.3558,346.72,1689.03" style="stroke:#181818;stroke-width:1.0;"/></g><!--link Backoffice to log in to the system using my credentials--><g id="link_Backoffice_log in to the system using my credentials"><path d="M123.08,1777.52 C171.2,1780.9 240.331,1782.0909 305.811,1780.8809 " fill="none" id="Backoffice-to-log in to the system using my credentials" style="stroke:#181818;stroke-width:1.0;"/><polygon fill="#181818" points="311.81,1780.77,302.7376,1776.937,306.8109,1780.8624,302.8854,1784.9356,311.81,1780.77" style="stroke:#181818;stroke-width:1.0;"/></g><!--link Backoffice to log in to the system using my credentials--><g id="link_Backoffice_log in to the system using my credentials"><path d="M123.08,1758.95 C171.49,1755.35 241.2612,1754.0896 307.0212,1755.4096 " fill="none" id="Backoffice-to-log in to the system using my credentials-1" style="stroke:#181818;stroke-width:1.0;"/><polygon fill="#181818" points="313.02,1755.53,304.1021,1751.3502,308.021,1755.4297,303.9415,1759.3486,313.02,1755.53" style="stroke:#181818;stroke-width:1.0;"/></g><!--link Doctor to request an operation--><g id="link_Doctor_request an operation"><path d="M88.65,1212.73 C107.51,1169.04 144.08,1100.45 199,1065.5 C245.66,1035.8 301.2151,1026.5871 350.9451,1024.5371 " fill="none" id="Doctor-to-request an operation" style="stroke:#181818;stroke-width:1.0;"/><polygon fill="#181818" points="356.94,1024.29,347.7829,1020.6641,351.9442,1024.4959,348.1124,1028.6573,356.94,1024.29" style="stroke:#181818;stroke-width:1.0;"/></g><!--link Doctor to update an operation requisition--><g id="link_Doctor_update an operation requisition"><path d="M93.51,1231.19 C116.61,1207.96 156.87,1171.58 199,1152.5 C240.73,1133.6 283.9698,1123.6551 327.2698,1117.4951 " fill="none" id="Doctor-to-update an operation requisition" style="stroke:#181818;stroke-width:1.0;"/><polygon fill="#181818" points="333.21,1116.65,323.7363,1113.9575,328.2598,1117.3542,324.8631,1121.8777,333.21,1116.65" style="stroke:#181818;stroke-width:1.0;"/></g><!--link Doctor to remove an operation requisition--><g id="link_Doctor_remove an operation requisition"><path d="M93.68,1249.39 C140.8,1242.15 254.6498,1224.6323 341.0398,1211.3423 " fill="none" id="Doctor-to-remove an operation requisition" style="stroke:#181818;stroke-width:1.0;"/><polygon fill="#181818" points="346.97,1210.43,337.4664,1207.8449,342.0281,1211.1902,338.6828,1215.7519,346.97,1210.43" style="stroke:#181818;stroke-width:1.0;"/></g><!--link Doctor to list/search operation requisitions to see the details, edit, and remove them--><g id="link_Doctor_list/search operation requisitions to see the details, edit, and remove them"><path d="M93.68,1255.55 C123.73,1260.09 177.4074,1268.2033 239.0674,1277.5233 " fill="none" id="Doctor-to-list/search operation requisitions to see the details, edit, and remove them" style="stroke:#181818;stroke-width:1.0;"/><polygon fill="#181818" points="245,1278.42,236.6989,1273.1198,240.0562,1277.6727,235.5033,1281.03,245,1278.42" style="stroke:#181818;stroke-width:1.0;"/></g><!--link Doctor to consult a 3D hospital floor simulation with in sync operation scheduling--><g id="link_Doctor_consult a 3D hospital floor simulation with in sync operation scheduling"><path d="M93.57,1279.53 C116.13,1308.03 155.36,1352.21 199,1377.5 C222.18,1390.93 242.4577,1399.8633 268.5977,1408.5733 " fill="none" id="Doctor-to-consult a 3D hospital floor simulation with in sync operation scheduling" style="stroke:#181818;stroke-width:1.0;"/><polygon fill="#181818" points="274.29,1410.47,267.016,1403.8301,269.5464,1408.8894,264.487,1411.4198,274.29,1410.47" style="stroke:#181818;stroke-width:1.0;"/></g><!--link Doctor to synchronization between planing module and\n the 3D visualization module regarding room availability--><g id="link_Doctor_synchronization between planing module and\n the 3D visualization module regarding room availability"><path d="M81.65,1292.44 C95.49,1349.8 129.17,1454.82 199,1511.5 C219.76,1528.35 238.8731,1538.6587 264.5731,1547.5987 " fill="none" id="Doctor-to-synchronization between planing module and\n the 3D visualization module regarding room availability" style="stroke:#181818;stroke-width:1.0;"/><polygon fill="#181818" points="270.24,1549.57,263.0538,1542.8351,265.5176,1547.9273,260.4254,1550.391,270.24,1549.57" style="stroke:#181818;stroke-width:1.0;"/></g><!--link System to deployment of a RFP modules in a\n DEI VM to be systematic, validating it on a scheduled\n basis with the test plan--><g id="link_System_deployment of a RFP modules in a\n DEI VM to be systematic, validating it on a scheduled\n basis with the test plan"><path d="M90.83,258.97 C110.93,217.73 147.97,154.21 199,118.5 C220.09,103.74 238.6856,94.3369 263.5356,85.5169 " fill="none" id="System-to-deployment of a RFP modules in a\n DEI VM to be systematic, validating it on a scheduled\n basis with the test plan" style="stroke:#181818;stroke-width:1.0;"/><polygon fill="#181818" points="269.19,83.51,259.3704,82.7508,264.478,85.1824,262.0463,90.29,269.19,83.51" style="stroke:#181818;stroke-width:1.0;"/></g><!--link System to restriction of access to the VM -  only DEI's internal network--><g id="link_System_restriction of access to the VM -  only DEI's internal network"><path d="M139.17,263.98 C158.14,254.87 179.1,245.61 199,238.5 C231.48,226.9 261.34,218.2185 295.18,209.7385 " fill="none" id="System-to-restriction of access to the VM -  only DEI's internal network" style="stroke:#181818;stroke-width:1.0;"/><polygon fill="#181818" points="301,208.28,291.2976,206.5876,296.15,209.4954,293.2422,214.3477,301,208.28" style="stroke:#181818;stroke-width:1.0;"/></g><!--link System to define a public folder for all users registered on the system--><g id="link_System_define a public folder for all users registered on the system"><path d="M139.31,298.5 C169.46,298.5 200.97,298.5 239.26,298.5 " fill="none" id="System-to-define a public folder for all users registered on the system" style="stroke:#181818;stroke-width:1.0;"/><polygon fill="#181818" points="245.26,298.5,236.26,294.5,240.26,298.5,236.26,302.5,245.26,298.5" style="stroke:#181818;stroke-width:1.0;"/></g><!--link System to log users with more than 3 incorrect access attempts--><g id="link_System_log users with more than 3 incorrect access attempts"><path d="M139.1,333.22 C158.07,342.34 179.05,351.55 199,358.5 C233.92,370.67 266.7217,379.5795 302.8017,387.8495 " fill="none" id="System-to-log users with more than 3 incorrect access attempts" style="stroke:#181818;stroke-width:1.0;"/><polygon fill="#181818" points="308.65,389.19,300.7712,383.2803,303.7764,388.0729,298.9838,391.0781,308.65,389.19" style="stroke:#181818;stroke-width:1.0;"/></g><!--link System to notify both users and the responsible\n authority in case of a data breach - GDPR compliance--><g id="link_System_notify both users and the responsible\n authority in case of a data breach - GDPR compliance"><path d="M92.12,338.25 C112.71,377.81 149.62,437.28 199,470.5 C222.55,486.34 244.1359,496.2716 271.7959,504.9616 " fill="none" id="System-to-notify both users and the responsible\n authority in case of a data breach - GDPR compliance" style="stroke:#181818;stroke-width:1.0;"/><polygon fill="#181818" points="277.52,506.76,270.1327,500.2463,272.7499,505.2614,267.7349,507.8785,277.52,506.76" style="stroke:#181818;stroke-width:1.0;"/></g><!--SRC=[fLR1Zjms3BtxAuXSjWFCT0-vzL0WnJR17e8kKhIdN6I97WkHHLUIP-gU-XlzlNv9IScUiRtPGPFai1bOv7jy8ldikpQbFlvmVzyxvTFGkUyrTVT3n8DM_CTOTGoggog7JO944EonJM1iG9qi-QfIEb60LszCP_qhK17oh_dnJqf_-gLfh4RuBMB80VACyhCvwe7a_tnOViu7JofPz2cVJB_der_7cB0hR3Qce6Q4Sb1L-GGEXn_Xku173i407izGN-Y1POO89wj0UQ0X7QWvrCeRw0DfZ76t1D41LK9G6QGlnKXWOnsk0j7O983u9vDQVxmPRD1XHhqLv1ZeFg8Akjt6HMdAoN99gKKmc9HrSGzImnv4Ii2EJYYdtGhp4SxSSCbU2Oj9DSqDMINWtx__YI_8uVROKy5x6MifQ1MLvKJ4BrMZZCdbfx5d36g0UkIHu0cDpqLS6dC9AdcxzSna9geZvGxnp7a2H_x8SyHv3OKEpKs8fSfDt5VAZAFNRI1l_ofODQOpeiymii1UL7La1eSPvphh7ps37bKm4f6lVB-jgL1V7mRyOy2OuiqApZQrcVhAV1Vp0-d2PLYONfrOfQgjisdSC4NTecIkcAZcQodIMAPixnIMEzV8V67Y7mnzRJPmXWAD8USkj11rvIpsg2tV21WrVevFmP78N4hQSzSJZvROWGhMZH-N9Uq5arsa6Hmasw6qjUQhDzGdDBkA_qssLJY6tiXgT6Esdkjgh88kRiKZbhbQL2wrMWL6xdjdTTQqoPgCXA6LrZJubEzOESUU64bRvZMiEQbDdgEZYE32DrIn6EmGSsT7tXgkoIi7Zs_UYsSOXh3AHL5vjVHPWlI6atecFrCmO1ju5457VcxJxbd6kemjzuhk6rAhghnVvYhpW6VpdoTbjugO-gNyPYrijC-3fwNzVy6VzuP5-1TPn19PS-xWnAfVFq1BiRU9czOuue1eky4j5fUlJHRw-IhovQrHNtAUzUfBPTE2CFd9na6vEMEAkBfGticbAqX_fjVwDDAzex6JKStx_k7jquHIzfoP7dv-XD_VJsjNMiziUWyd9kRU2GyxFkNDdrPQAgnLjB7SWHIRP0n4ocvL08zn2ZP_wEGAjBZ0F6XCUm16TgDKSISbJGlY-MueVDfjn3JMvnVzKFCAyouuC-suB6dv59bNNruiVZ7EQoWP-1AV1NGKP0vuxbvp3Pg2V9lDnIgsgQuN4ryYiAVPPeIQEBqWoKW97qlkUO1ixUILeORKKX33vlkM3yBI2B4HgFcpWOVt0EyUdZu0VpMoCoclsSsg_m00]--></g></svg>