<?xml version="1.0" encoding="UTF-8" standalone="no"?><svg xmlns="http://www.w3.org/2000/svg" xmlns:xlink="http://www.w3.org/1999/xlink" contentStyleType="text/css" height="636px" preserveAspectRatio="none" style="width:1352px;height:636px;background:#FFFFFF;" version="1.1" viewBox="0 0 1352 636" width="1352px" zoomAndPan="magnify"><defs/><g><!--cluster <<aggregate Staff>>--><g id="cluster_&lt;&lt;aggregate Staff&gt;&gt;"><path d="M8.5,6.8945 L177.5,6.8945 A3.75,3.75 0 0 1 180,9.3945 L187,38.0508 L1014.5,38.0508 A2.5,2.5 0 0 1 1017,40.5508 L1017,627.3945 A2.5,2.5 0 0 1 1014.5,629.8945 L8.5,629.8945 A2.5,2.5 0 0 1 6,627.3945 L6,9.3945 A2.5,2.5 0 0 1 8.5,6.8945 " fill="none" style="stroke:#000000;stroke-width:1.5;"/><line style="stroke:#000000;stroke-width:1.5;" x1="6" x2="187" y1="38.0508" y2="38.0508"/><text fill="#000000" font-family="sans-serif" font-size="20" font-weight="bold" lengthAdjust="spacing" textLength="168" x="10" y="29.6563">«aggregate Staff»</text></g><!--cluster <<aggregate Specialization>>--><g id="cluster_&lt;&lt;aggregate Specialization&gt;&gt;"><path d="M1043.5,216.8945 L1297.5,216.8945 A3.75,3.75 0 0 1 1300,219.3945 L1307,248.0508 L1342.5,248.0508 A2.5,2.5 0 0 1 1345,250.5508 L1345,496.3945 A2.5,2.5 0 0 1 1342.5,498.8945 L1043.5,498.8945 A2.5,2.5 0 0 1 1041,496.3945 L1041,219.3945 A2.5,2.5 0 0 1 1043.5,216.8945 " fill="none" style="stroke:#000000;stroke-width:1.5;"/><line style="stroke:#000000;stroke-width:1.5;" x1="1041" x2="1307" y1="248.0508" y2="248.0508"/><text fill="#000000" font-family="sans-serif" font-size="20" font-weight="bold" lengthAdjust="spacing" textLength="253" x="1045" y="239.6563">«aggregate Specialization»</text></g><!--class Staff--><g id="elem_Staff"><rect codeLine="9" fill="#F5F5DC" height="93.4688" id="Staff" rx="2.5" ry="2.5" style="stroke:#181818;stroke-width:0.5;" width="99" x="679.5" y="50.8945"/><ellipse cx="695.5" cy="93.6289" fill="#ADD1B2" rx="12" ry="12" style="stroke:#181818;stroke-width:1.0;"/><path d="M693.4531,94.6914 L693.4531,97.6289 L698.5469,97.6289 L698.5469,96.5352 Q698.5469,95.8164 698.8281,95.5195 Q699.1094,95.207 699.5625,95.207 Q700,95.207 700.2813,95.5195 Q700.5625,95.8164 700.5625,96.5352 L700.5625,99.6289 L691.125,99.6289 Q690.4063,99.6289 690.0938,99.3477 Q689.7969,99.0664 689.7969,98.6289 Q689.7969,98.1758 690.1094,97.9102 Q690.4219,97.6289 691.125,97.6289 L691.4375,97.6289 L691.4375,89.8008 L691.125,89.8008 Q690.4063,89.8008 690.0938,89.5195 Q689.7969,89.2383 689.7969,88.7852 Q689.7969,88.332 690.0938,88.0664 Q690.4063,87.7852 691.125,87.7852 L700.1094,87.7852 L700.1094,90.832 Q700.1094,91.5508 699.8281,91.8633 Q699.5625,92.1602 699.125,92.1602 Q698.6719,92.1602 698.3906,91.8633 Q698.1094,91.5664 698.1094,90.832 L698.1094,89.8008 L693.4531,89.8008 L693.4531,92.6914 L695.2031,92.6914 Q695.2031,91.9102 695.3438,91.6758 Q695.6563,91.207 696.2031,91.207 Q696.6563,91.207 696.9219,91.5195 Q697.2031,91.8164 697.2031,92.5352 L697.2031,94.8477 Q697.2031,95.5039 697.0469,95.7227 Q696.7344,96.1758 696.2031,96.1758 Q695.6563,96.1758 695.3438,95.707 Q695.2031,95.4727 695.2031,94.6914 L693.4531,94.6914 Z " fill="#000000"/><text fill="#000000" font-family="sans-serif" font-size="20" font-style="italic" lengthAdjust="spacing" textLength="69" x="708.5" y="76.6563">«entity»</text><text fill="#000000" font-family="sans-serif" font-size="20" font-style="italic" lengthAdjust="spacing" textLength="56" x="715" y="101.8125">«root»</text><text fill="#000000" font-family="sans-serif" font-size="20" lengthAdjust="spacing" textLength="42" x="722" y="126.9688">Staff</text><line style="stroke:#181818;stroke-width:0.5;" x1="680.5" x2="777.5" y1="136.3633" y2="136.3633"/></g><!--class StaffId--><g id="elem_StaffId"><rect codeLine="10" fill="#F5F5DC" height="93.4688" id="StaffId" rx="2.5" ry="2.5" style="stroke:#181818;stroke-width:0.5;" width="158" x="814" y="50.8945"/><ellipse cx="830" cy="93.6289" fill="#FF8B40" rx="12" ry="12" style="stroke:#181818;stroke-width:1.0;"/><path d="M830.5,97.707 L833.3906,90.8008 L832.9375,90.8008 Q832.2188,90.8008 831.9063,90.5195 Q831.5938,90.2383 831.5938,89.7852 Q831.5938,89.332 831.9063,89.0664 Q832.2188,88.7852 832.9375,88.7852 L835.625,88.7852 Q836.3438,88.7852 836.6563,89.0664 Q836.9688,89.332 836.9688,89.7852 Q836.9688,90.332 836.5,90.6445 Q836.2656,90.8008 835.5781,90.8008 L831.4688,100.6289 L829.5469,100.6289 L825.4375,90.8008 Q824.7344,90.8008 824.5156,90.6445 Q824.0469,90.332 824.0469,89.7852 Q824.0469,89.332 824.3594,89.0664 Q824.6563,88.7852 825.375,88.7852 L828.0781,88.7852 Q828.7969,88.7852 829.0938,89.0664 Q829.4063,89.332 829.4063,89.7852 Q829.4063,90.2383 829.1094,90.5195 Q828.8125,90.8008 828.0781,90.8008 L827.6094,90.8008 L830.5,97.707 Z " fill="#000000"/><text fill="#000000" font-family="sans-serif" font-size="20" font-style="italic" lengthAdjust="spacing" textLength="128" x="843" y="76.6563">«value object»</text><text fill="#000000" font-family="sans-serif" font-size="20" font-style="italic" lengthAdjust="spacing" textLength="99" x="857.5" y="101.8125">«identifier»</text><text fill="#000000" font-family="sans-serif" font-size="20" lengthAdjust="spacing" textLength="59" x="877.5" y="126.9688">StaffId</text><line style="stroke:#181818;stroke-width:0.5;" x1="815" x2="971" y1="136.3633" y2="136.3633"/></g><!--class LicenseNumber--><g id="elem_LicenseNumber"><rect codeLine="11" fill="#F5F5DC" height="93.4688" id="LicenseNumber" rx="2.5" ry="2.5" style="stroke:#181818;stroke-width:0.5;" width="169" x="408.5" y="260.8945"/><ellipse cx="424.5" cy="303.6289" fill="#FF8B40" rx="12" ry="12" style="stroke:#181818;stroke-width:1.0;"/><path d="M425,307.707 L427.8906,300.8008 L427.4375,300.8008 Q426.7188,300.8008 426.4063,300.5195 Q426.0938,300.2383 426.0938,299.7852 Q426.0938,299.332 426.4063,299.0664 Q426.7188,298.7852 427.4375,298.7852 L430.125,298.7852 Q430.8438,298.7852 431.1563,299.0664 Q431.4688,299.332 431.4688,299.7852 Q431.4688,300.332 431,300.6445 Q430.7656,300.8008 430.0781,300.8008 L425.9688,310.6289 L424.0469,310.6289 L419.9375,300.8008 Q419.2344,300.8008 419.0156,300.6445 Q418.5469,300.332 418.5469,299.7852 Q418.5469,299.332 418.8594,299.0664 Q419.1563,298.7852 419.875,298.7852 L422.5781,298.7852 Q423.2969,298.7852 423.5938,299.0664 Q423.9063,299.332 423.9063,299.7852 Q423.9063,300.2383 423.6094,300.5195 Q423.3125,300.8008 422.5781,300.8008 L422.1094,300.8008 L425,307.707 Z " fill="#000000"/><text fill="#000000" font-family="sans-serif" font-size="20" font-style="italic" lengthAdjust="spacing" textLength="128" x="443" y="286.6563">«value object»</text><text fill="#000000" font-family="sans-serif" font-size="20" font-style="italic" lengthAdjust="spacing" textLength="99" x="457.5" y="311.8125">«identifier»</text><text fill="#000000" font-family="sans-serif" font-size="20" lengthAdjust="spacing" textLength="135" x="439.5" y="336.9688">LicenseNumber</text><line style="stroke:#181818;stroke-width:0.5;" x1="409.5" x2="576.5" y1="346.3633" y2="346.3633"/></g><!--class Name--><g id="elem_Name"><rect codeLine="12" fill="#F5F5DC" height="68.3125" id="Name" rx="2.5" ry="2.5" style="stroke:#181818;stroke-width:0.5;" width="158" x="22" y="273.3945"/><ellipse cx="38" cy="303.5508" fill="#FF8B40" rx="12" ry="12" style="stroke:#181818;stroke-width:1.0;"/><path d="M38.5,307.6289 L41.3906,300.7227 L40.9375,300.7227 Q40.2188,300.7227 39.9063,300.4414 Q39.5938,300.1602 39.5938,299.707 Q39.5938,299.2539 39.9063,298.9883 Q40.2188,298.707 40.9375,298.707 L43.625,298.707 Q44.3438,298.707 44.6563,298.9883 Q44.9688,299.2539 44.9688,299.707 Q44.9688,300.2539 44.5,300.5664 Q44.2656,300.7227 43.5781,300.7227 L39.4688,310.5508 L37.5469,310.5508 L33.4375,300.7227 Q32.7344,300.7227 32.5156,300.5664 Q32.0469,300.2539 32.0469,299.707 Q32.0469,299.2539 32.3594,298.9883 Q32.6563,298.707 33.375,298.707 L36.0781,298.707 Q36.7969,298.707 37.0938,298.9883 Q37.4063,299.2539 37.4063,299.707 Q37.4063,300.1602 37.1094,300.4414 Q36.8125,300.7227 36.0781,300.7227 L35.6094,300.7227 L38.5,307.6289 Z " fill="#000000"/><text fill="#000000" font-family="sans-serif" font-size="20" font-style="italic" lengthAdjust="spacing" textLength="128" x="51" y="299.1563">«value object»</text><text fill="#000000" font-family="sans-serif" font-size="20" lengthAdjust="spacing" textLength="51" x="89.5" y="324.3125">Name</text><line style="stroke:#181818;stroke-width:0.5;" x1="23" x2="179" y1="333.707" y2="333.707"/></g><!--class Function--><g id="elem_Function"><rect codeLine="13" fill="#F5F5DC" height="68.3125" id="Function" rx="2.5" ry="2.5" style="stroke:#181818;stroke-width:0.5;" width="158" x="486" y="63.3945"/><ellipse cx="502" cy="93.5508" fill="#FF8B40" rx="12" ry="12" style="stroke:#181818;stroke-width:1.0;"/><path d="M502.5,97.6289 L505.3906,90.7227 L504.9375,90.7227 Q504.2188,90.7227 503.9063,90.4414 Q503.5938,90.1602 503.5938,89.707 Q503.5938,89.2539 503.9063,88.9883 Q504.2188,88.707 504.9375,88.707 L507.625,88.707 Q508.3438,88.707 508.6563,88.9883 Q508.9688,89.2539 508.9688,89.707 Q508.9688,90.2539 508.5,90.5664 Q508.2656,90.7227 507.5781,90.7227 L503.4688,100.5508 L501.5469,100.5508 L497.4375,90.7227 Q496.7344,90.7227 496.5156,90.5664 Q496.0469,90.2539 496.0469,89.707 Q496.0469,89.2539 496.3594,88.9883 Q496.6563,88.707 497.375,88.707 L500.0781,88.707 Q500.7969,88.707 501.0938,88.9883 Q501.4063,89.2539 501.4063,89.707 Q501.4063,90.1602 501.1094,90.4414 Q500.8125,90.7227 500.0781,90.7227 L499.6094,90.7227 L502.5,97.6289 Z " fill="#000000"/><text fill="#000000" font-family="sans-serif" font-size="20" font-style="italic" lengthAdjust="spacing" textLength="128" x="515" y="89.1563">«value object»</text><text fill="#000000" font-family="sans-serif" font-size="20" lengthAdjust="spacing" textLength="73" x="542.5" y="114.3125">Function</text><line style="stroke:#181818;stroke-width:0.5;" x1="487" x2="643" y1="123.707" y2="123.707"/></g><!--class FirstName--><g id="elem_FirstName"><rect codeLine="14" fill="#F5F5DC" height="68.3125" id="FirstName" rx="2.5" ry="2.5" style="stroke:#181818;stroke-width:0.5;" width="158" x="22" y="414.8945"/><ellipse cx="38" cy="445.0508" fill="#FF8B40" rx="12" ry="12" style="stroke:#181818;stroke-width:1.0;"/><path d="M38.5,449.1289 L41.3906,442.2227 L40.9375,442.2227 Q40.2188,442.2227 39.9063,441.9414 Q39.5938,441.6602 39.5938,441.207 Q39.5938,440.7539 39.9063,440.4883 Q40.2188,440.207 40.9375,440.207 L43.625,440.207 Q44.3438,440.207 44.6563,440.4883 Q44.9688,440.7539 44.9688,441.207 Q44.9688,441.7539 44.5,442.0664 Q44.2656,442.2227 43.5781,442.2227 L39.4688,452.0508 L37.5469,452.0508 L33.4375,442.2227 Q32.7344,442.2227 32.5156,442.0664 Q32.0469,441.7539 32.0469,441.207 Q32.0469,440.7539 32.3594,440.4883 Q32.6563,440.207 33.375,440.207 L36.0781,440.207 Q36.7969,440.207 37.0938,440.4883 Q37.4063,440.7539 37.4063,441.207 Q37.4063,441.6602 37.1094,441.9414 Q36.8125,442.2227 36.0781,442.2227 L35.6094,442.2227 L38.5,449.1289 Z " fill="#000000"/><text fill="#000000" font-family="sans-serif" font-size="20" font-style="italic" lengthAdjust="spacing" textLength="128" x="51" y="440.6563">«value object»</text><text fill="#000000" font-family="sans-serif" font-size="20" lengthAdjust="spacing" textLength="90" x="70" y="465.8125">FirstName</text><line style="stroke:#181818;stroke-width:0.5;" x1="23" x2="179" y1="475.207" y2="475.207"/></g><!--class LastName--><g id="elem_LastName"><rect codeLine="15" fill="#F5F5DC" height="68.3125" id="LastName" rx="2.5" ry="2.5" style="stroke:#181818;stroke-width:0.5;" width="158" x="215" y="273.3945"/><ellipse cx="231" cy="303.5508" fill="#FF8B40" rx="12" ry="12" style="stroke:#181818;stroke-width:1.0;"/><path d="M231.5,307.6289 L234.3906,300.7227 L233.9375,300.7227 Q233.2188,300.7227 232.9063,300.4414 Q232.5938,300.1602 232.5938,299.707 Q232.5938,299.2539 232.9063,298.9883 Q233.2188,298.707 233.9375,298.707 L236.625,298.707 Q237.3438,298.707 237.6563,298.9883 Q237.9688,299.2539 237.9688,299.707 Q237.9688,300.2539 237.5,300.5664 Q237.2656,300.7227 236.5781,300.7227 L232.4688,310.5508 L230.5469,310.5508 L226.4375,300.7227 Q225.7344,300.7227 225.5156,300.5664 Q225.0469,300.2539 225.0469,299.707 Q225.0469,299.2539 225.3594,298.9883 Q225.6563,298.707 226.375,298.707 L229.0781,298.707 Q229.7969,298.707 230.0938,298.9883 Q230.4063,299.2539 230.4063,299.707 Q230.4063,300.1602 230.1094,300.4414 Q229.8125,300.7227 229.0781,300.7227 L228.6094,300.7227 L231.5,307.6289 Z " fill="#000000"/><text fill="#000000" font-family="sans-serif" font-size="20" font-style="italic" lengthAdjust="spacing" textLength="128" x="244" y="299.1563">«value object»</text><text fill="#000000" font-family="sans-serif" font-size="20" lengthAdjust="spacing" textLength="89" x="263.5" y="324.3125">LastName</text><line style="stroke:#181818;stroke-width:0.5;" x1="216" x2="372" y1="333.707" y2="333.707"/></g><!--class FullName--><g id="elem_FullName"><rect codeLine="16" fill="#F5F5DC" height="68.3125" id="FullName" rx="2.5" ry="2.5" style="stroke:#181818;stroke-width:0.5;" width="158" x="215" y="414.8945"/><ellipse cx="231" cy="445.0508" fill="#FF8B40" rx="12" ry="12" style="stroke:#181818;stroke-width:1.0;"/><path d="M231.5,449.1289 L234.3906,442.2227 L233.9375,442.2227 Q233.2188,442.2227 232.9063,441.9414 Q232.5938,441.6602 232.5938,441.207 Q232.5938,440.7539 232.9063,440.4883 Q233.2188,440.207 233.9375,440.207 L236.625,440.207 Q237.3438,440.207 237.6563,440.4883 Q237.9688,440.7539 237.9688,441.207 Q237.9688,441.7539 237.5,442.0664 Q237.2656,442.2227 236.5781,442.2227 L232.4688,452.0508 L230.5469,452.0508 L226.4375,442.2227 Q225.7344,442.2227 225.5156,442.0664 Q225.0469,441.7539 225.0469,441.207 Q225.0469,440.7539 225.3594,440.4883 Q225.6563,440.207 226.375,440.207 L229.0781,440.207 Q229.7969,440.207 230.0938,440.4883 Q230.4063,440.7539 230.4063,441.207 Q230.4063,441.6602 230.1094,441.9414 Q229.8125,442.2227 229.0781,442.2227 L228.6094,442.2227 L231.5,449.1289 Z " fill="#000000"/><text fill="#000000" font-family="sans-serif" font-size="20" font-style="italic" lengthAdjust="spacing" textLength="128" x="244" y="440.6563">«value object»</text><text fill="#000000" font-family="sans-serif" font-size="20" lengthAdjust="spacing" textLength="81" x="267.5" y="465.8125">FullName</text><line style="stroke:#181818;stroke-width:0.5;" x1="216" x2="372" y1="475.207" y2="475.207"/></g><!--class Phone--><g id="elem_Phone"><rect codeLine="17" fill="#F5F5DC" height="68.3125" id="Phone" rx="2.5" ry="2.5" style="stroke:#181818;stroke-width:0.5;" width="158" x="613" y="273.3945"/><ellipse cx="629" cy="303.5508" fill="#FF8B40" rx="12" ry="12" style="stroke:#181818;stroke-width:1.0;"/><path d="M629.5,307.6289 L632.3906,300.7227 L631.9375,300.7227 Q631.2188,300.7227 630.9063,300.4414 Q630.5938,300.1602 630.5938,299.707 Q630.5938,299.2539 630.9063,298.9883 Q631.2188,298.707 631.9375,298.707 L634.625,298.707 Q635.3438,298.707 635.6563,298.9883 Q635.9688,299.2539 635.9688,299.707 Q635.9688,300.2539 635.5,300.5664 Q635.2656,300.7227 634.5781,300.7227 L630.4688,310.5508 L628.5469,310.5508 L624.4375,300.7227 Q623.7344,300.7227 623.5156,300.5664 Q623.0469,300.2539 623.0469,299.707 Q623.0469,299.2539 623.3594,298.9883 Q623.6563,298.707 624.375,298.707 L627.0781,298.707 Q627.7969,298.707 628.0938,298.9883 Q628.4063,299.2539 628.4063,299.707 Q628.4063,300.1602 628.1094,300.4414 Q627.8125,300.7227 627.0781,300.7227 L626.6094,300.7227 L629.5,307.6289 Z " fill="#000000"/><text fill="#000000" font-family="sans-serif" font-size="20" font-style="italic" lengthAdjust="spacing" textLength="128" x="642" y="299.1563">«value object»</text><text fill="#000000" font-family="sans-serif" font-size="20" lengthAdjust="spacing" textLength="55" x="678.5" y="324.3125">Phone</text><line style="stroke:#181818;stroke-width:0.5;" x1="614" x2="770" y1="333.707" y2="333.707"/></g><!--class Email--><g id="elem_Email"><rect codeLine="18" fill="#F5F5DC" height="68.3125" id="Email" rx="2.5" ry="2.5" style="stroke:#181818;stroke-width:0.5;" width="158" x="806" y="273.3945"/><ellipse cx="822" cy="303.5508" fill="#FF8B40" rx="12" ry="12" style="stroke:#181818;stroke-width:1.0;"/><path d="M822.5,307.6289 L825.3906,300.7227 L824.9375,300.7227 Q824.2188,300.7227 823.9063,300.4414 Q823.5938,300.1602 823.5938,299.707 Q823.5938,299.2539 823.9063,298.9883 Q824.2188,298.707 824.9375,298.707 L827.625,298.707 Q828.3438,298.707 828.6563,298.9883 Q828.9688,299.2539 828.9688,299.707 Q828.9688,300.2539 828.5,300.5664 Q828.2656,300.7227 827.5781,300.7227 L823.4688,310.5508 L821.5469,310.5508 L817.4375,300.7227 Q816.7344,300.7227 816.5156,300.5664 Q816.0469,300.2539 816.0469,299.707 Q816.0469,299.2539 816.3594,298.9883 Q816.6563,298.707 817.375,298.707 L820.0781,298.707 Q820.7969,298.707 821.0938,298.9883 Q821.4063,299.2539 821.4063,299.707 Q821.4063,300.1602 821.1094,300.4414 Q820.8125,300.7227 820.0781,300.7227 L819.6094,300.7227 L822.5,307.6289 Z " fill="#000000"/><text fill="#000000" font-family="sans-serif" font-size="20" font-style="italic" lengthAdjust="spacing" textLength="128" x="835" y="299.1563">«value object»</text><text fill="#000000" font-family="sans-serif" font-size="20" lengthAdjust="spacing" textLength="48" x="875" y="324.3125">Email</text><line style="stroke:#181818;stroke-width:0.5;" x1="807" x2="963" y1="333.707" y2="333.707"/></g><!--class Slot--><g id="elem_Slot"><rect codeLine="19" fill="#F5F5DC" height="68.3125" id="Slot" rx="2.5" ry="2.5" style="stroke:#181818;stroke-width:0.5;" width="158" x="843" y="414.8945"/><ellipse cx="859" cy="445.0508" fill="#FF8B40" rx="12" ry="12" style="stroke:#181818;stroke-width:1.0;"/><path d="M859.5,449.1289 L862.3906,442.2227 L861.9375,442.2227 Q861.2188,442.2227 860.9063,441.9414 Q860.5938,441.6602 860.5938,441.207 Q860.5938,440.7539 860.9063,440.4883 Q861.2188,440.207 861.9375,440.207 L864.625,440.207 Q865.3438,440.207 865.6563,440.4883 Q865.9688,440.7539 865.9688,441.207 Q865.9688,441.7539 865.5,442.0664 Q865.2656,442.2227 864.5781,442.2227 L860.4688,452.0508 L858.5469,452.0508 L854.4375,442.2227 Q853.7344,442.2227 853.5156,442.0664 Q853.0469,441.7539 853.0469,441.207 Q853.0469,440.7539 853.3594,440.4883 Q853.6563,440.207 854.375,440.207 L857.0781,440.207 Q857.7969,440.207 858.0938,440.4883 Q858.4063,440.7539 858.4063,441.207 Q858.4063,441.6602 858.1094,441.9414 Q857.8125,442.2227 857.0781,442.2227 L856.6094,442.2227 L859.5,449.1289 Z " fill="#000000"/><text fill="#000000" font-family="sans-serif" font-size="20" font-style="italic" lengthAdjust="spacing" textLength="128" x="872" y="440.6563">«value object»</text><text fill="#000000" font-family="sans-serif" font-size="20" lengthAdjust="spacing" textLength="34" x="919" y="465.8125">Slot</text><line style="stroke:#181818;stroke-width:0.5;" x1="844" x2="1000" y1="475.207" y2="475.207"/></g><!--class Date--><g id="elem_Date"><rect codeLine="20" fill="#F5F5DC" height="68.3125" id="Date" rx="2.5" ry="2.5" style="stroke:#181818;stroke-width:0.5;" width="158" x="650" y="545.8945"/><ellipse cx="666" cy="576.0508" fill="#FF8B40" rx="12" ry="12" style="stroke:#181818;stroke-width:1.0;"/><path d="M666.5,580.1289 L669.3906,573.2227 L668.9375,573.2227 Q668.2188,573.2227 667.9063,572.9414 Q667.5938,572.6602 667.5938,572.207 Q667.5938,571.7539 667.9063,571.4883 Q668.2188,571.207 668.9375,571.207 L671.625,571.207 Q672.3438,571.207 672.6563,571.4883 Q672.9688,571.7539 672.9688,572.207 Q672.9688,572.7539 672.5,573.0664 Q672.2656,573.2227 671.5781,573.2227 L667.4688,583.0508 L665.5469,583.0508 L661.4375,573.2227 Q660.7344,573.2227 660.5156,573.0664 Q660.0469,572.7539 660.0469,572.207 Q660.0469,571.7539 660.3594,571.4883 Q660.6563,571.207 661.375,571.207 L664.0781,571.207 Q664.7969,571.207 665.0938,571.4883 Q665.4063,571.7539 665.4063,572.207 Q665.4063,572.6602 665.1094,572.9414 Q664.8125,573.2227 664.0781,573.2227 L663.6094,573.2227 L666.5,580.1289 Z " fill="#000000"/><text fill="#000000" font-family="sans-serif" font-size="20" font-style="italic" lengthAdjust="spacing" textLength="128" x="679" y="571.6563">«value object»</text><text fill="#000000" font-family="sans-serif" font-size="20" lengthAdjust="spacing" textLength="42" x="722" y="596.8125">Date</text><line style="stroke:#181818;stroke-width:0.5;" x1="651" x2="807" y1="606.207" y2="606.207"/></g><!--class TimeInterval--><g id="elem_TimeInterval"><rect codeLine="21" fill="#F5F5DC" height="68.3125" id="TimeInterval" rx="2.5" ry="2.5" style="stroke:#181818;stroke-width:0.5;" width="158" x="843" y="545.8945"/><ellipse cx="859" cy="576.0508" fill="#FF8B40" rx="12" ry="12" style="stroke:#181818;stroke-width:1.0;"/><path d="M859.5,580.1289 L862.3906,573.2227 L861.9375,573.2227 Q861.2188,573.2227 860.9063,572.9414 Q860.5938,572.6602 860.5938,572.207 Q860.5938,571.7539 860.9063,571.4883 Q861.2188,571.207 861.9375,571.207 L864.625,571.207 Q865.3438,571.207 865.6563,571.4883 Q865.9688,571.7539 865.9688,572.207 Q865.9688,572.7539 865.5,573.0664 Q865.2656,573.2227 864.5781,573.2227 L860.4688,583.0508 L858.5469,583.0508 L854.4375,573.2227 Q853.7344,573.2227 853.5156,573.0664 Q853.0469,572.7539 853.0469,572.207 Q853.0469,571.7539 853.3594,571.4883 Q853.6563,571.207 854.375,571.207 L857.0781,571.207 Q857.7969,571.207 858.0938,571.4883 Q858.4063,571.7539 858.4063,572.207 Q858.4063,572.6602 858.1094,572.9414 Q857.8125,573.2227 857.0781,573.2227 L856.6094,573.2227 L859.5,580.1289 Z " fill="#000000"/><text fill="#000000" font-family="sans-serif" font-size="20" font-style="italic" lengthAdjust="spacing" textLength="128" x="872" y="571.6563">«value object»</text><text fill="#000000" font-family="sans-serif" font-size="20" lengthAdjust="spacing" textLength="107" x="882.5" y="596.8125">TimeInterval</text><line style="stroke:#181818;stroke-width:0.5;" x1="844" x2="1000" y1="606.207" y2="606.207"/></g><!--class Specialization--><g id="elem_Specialization"><rect codeLine="26" fill="#F5F5DC" height="93.4688" id="Specialization" rx="2.5" ry="2.5" style="stroke:#181818;stroke-width:0.5;" width="153" x="1086.5" y="260.8945"/><ellipse cx="1102.5" cy="303.6289" fill="#ADD1B2" rx="12" ry="12" style="stroke:#181818;stroke-width:1.0;"/><path d="M1100.4531,304.6914 L1100.4531,307.6289 L1105.5469,307.6289 L1105.5469,306.5352 Q1105.5469,305.8164 1105.8281,305.5195 Q1106.1094,305.207 1106.5625,305.207 Q1107,305.207 1107.2813,305.5195 Q1107.5625,305.8164 1107.5625,306.5352 L1107.5625,309.6289 L1098.125,309.6289 Q1097.4063,309.6289 1097.0938,309.3477 Q1096.7969,309.0664 1096.7969,308.6289 Q1096.7969,308.1758 1097.1094,307.9102 Q1097.4219,307.6289 1098.125,307.6289 L1098.4375,307.6289 L1098.4375,299.8008 L1098.125,299.8008 Q1097.4063,299.8008 1097.0938,299.5195 Q1096.7969,299.2383 1096.7969,298.7852 Q1096.7969,298.332 1097.0938,298.0664 Q1097.4063,297.7852 1098.125,297.7852 L1107.1094,297.7852 L1107.1094,300.832 Q1107.1094,301.5508 1106.8281,301.8633 Q1106.5625,302.1602 1106.125,302.1602 Q1105.6719,302.1602 1105.3906,301.8633 Q1105.1094,301.5664 1105.1094,300.832 L1105.1094,299.8008 L1100.4531,299.8008 L1100.4531,302.6914 L1102.2031,302.6914 Q1102.2031,301.9102 1102.3438,301.6758 Q1102.6563,301.207 1103.2031,301.207 Q1103.6563,301.207 1103.9219,301.5195 Q1104.2031,301.8164 1104.2031,302.5352 L1104.2031,304.8477 Q1104.2031,305.5039 1104.0469,305.7227 Q1103.7344,306.1758 1103.2031,306.1758 Q1102.6563,306.1758 1102.3438,305.707 Q1102.2031,305.4727 1102.2031,304.6914 L1100.4531,304.6914 Z " fill="#000000"/><text fill="#000000" font-family="sans-serif" font-size="20" font-style="italic" lengthAdjust="spacing" textLength="69" x="1142.5" y="286.6563">«entity»</text><text fill="#000000" font-family="sans-serif" font-size="20" font-style="italic" lengthAdjust="spacing" textLength="56" x="1149" y="311.8125">«root»</text><text fill="#000000" font-family="sans-serif" font-size="20" lengthAdjust="spacing" textLength="119" x="1117.5" y="336.9688">Specialization</text><line style="stroke:#181818;stroke-width:0.5;" x1="1087.5" x2="1238.5" y1="346.3633" y2="346.3633"/></g><!--class SpecializationDenomination--><g id="elem_SpecializationDenomination"><rect codeLine="27" fill="#F5F5DC" height="68.3125" id="SpecializationDenomination" rx="2.5" ry="2.5" style="stroke:#181818;stroke-width:0.5;" width="271" x="1057.5" y="414.8945"/><ellipse cx="1073.5" cy="445.0508" fill="#FF8B40" rx="12" ry="12" style="stroke:#181818;stroke-width:1.0;"/><path d="M1074,449.1289 L1076.8906,442.2227 L1076.4375,442.2227 Q1075.7188,442.2227 1075.4063,441.9414 Q1075.0938,441.6602 1075.0938,441.207 Q1075.0938,440.7539 1075.4063,440.4883 Q1075.7188,440.207 1076.4375,440.207 L1079.125,440.207 Q1079.8438,440.207 1080.1563,440.4883 Q1080.4688,440.7539 1080.4688,441.207 Q1080.4688,441.7539 1080,442.0664 Q1079.7656,442.2227 1079.0781,442.2227 L1074.9688,452.0508 L1073.0469,452.0508 L1068.9375,442.2227 Q1068.2344,442.2227 1068.0156,442.0664 Q1067.5469,441.7539 1067.5469,441.207 Q1067.5469,440.7539 1067.8594,440.4883 Q1068.1563,440.207 1068.875,440.207 L1071.5781,440.207 Q1072.2969,440.207 1072.5938,440.4883 Q1072.9063,440.7539 1072.9063,441.207 Q1072.9063,441.6602 1072.6094,441.9414 Q1072.3125,442.2227 1071.5781,442.2227 L1071.1094,442.2227 L1074,449.1289 Z " fill="#000000"/><text fill="#000000" font-family="sans-serif" font-size="20" font-style="italic" lengthAdjust="spacing" textLength="128" x="1143" y="440.6563">«value object»</text><text fill="#000000" font-family="sans-serif" font-size="20" lengthAdjust="spacing" textLength="237" x="1088.5" y="465.8125">SpecializationDenomination</text><line style="stroke:#181818;stroke-width:0.5;" x1="1058.5" x2="1327.5" y1="475.207" y2="475.207"/></g><!--link Name to FirstName--><g id="link_Name_FirstName"><path codeLine="32" d="M101,341.4545 C101,361.8945 101,388.2045 101,409.5545 " fill="none" id="Name-to-FirstName" style="stroke:#222222;stroke-width:1.0;"/><polygon fill="#222222" points="101,414.5845,105,405.5845,101,409.5845,97,405.5845,101,414.5845" style="stroke:#222222;stroke-width:1.0;"/></g><!--link Name to LastName--><g id="link_Name_LastName"><path codeLine="33" d="M180.16,307.3945 C190.01,307.3945 199.85,307.3945 209.7,307.3945 " fill="none" id="Name-to-LastName" style="stroke:#222222;stroke-width:1.0;"/><polygon fill="#222222" points="214.85,307.3945,205.85,303.3945,209.85,307.3945,205.85,311.3945,214.85,307.3945" style="stroke:#222222;stroke-width:1.0;"/></g><!--link Name to FullName--><g id="link_Name_FullName"><path codeLine="34" d="M146.74,341.4545 C175.96,362.5745 213.85,389.9645 243.88,411.6745 " fill="none" id="Name-to-FullName" style="stroke:#222222;stroke-width:1.0;"/><polygon fill="#222222" points="248.26,414.8345,243.3037,406.3237,244.2059,411.9081,238.6214,412.8103,248.26,414.8345" style="stroke:#222222;stroke-width:1.0;"/></g><!--link Staff to Email--><g id="link_Staff_Email"><path codeLine="35" d="M763.23,144.0445 C791.33,181.5045 830.63,233.9045 856.9,268.9345 " fill="none" id="Staff-to-Email" style="stroke:#222222;stroke-width:1.0;"/><polygon fill="#222222" points="860.04,273.1145,857.84,263.5145,857.04,269.1145,851.44,268.3145,860.04,273.1145" style="stroke:#222222;stroke-width:1.0;"/><text fill="#000000" font-family="sans-serif" font-size="20" lengthAdjust="spacing" textLength="11" x="843.9951" y="261.1154">1</text></g><!--link Staff to Phone--><g id="link_Staff_Phone"><path codeLine="36" d="M720.88,144.0445 C714.27,181.1945 705.05,233.0545 698.82,268.0745 " fill="none" id="Staff-to-Phone" style="stroke:#222222;stroke-width:1.0;"/><polygon fill="#222222" points="697.92,273.1145,703.4488,264.9639,698.8044,268.1934,695.575,263.5489,697.92,273.1145" style="stroke:#222222;stroke-width:1.0;"/><text fill="#000000" font-family="sans-serif" font-size="20" lengthAdjust="spacing" textLength="11" x="686.9896" y="261.1154">1</text></g><!--link Staff to Name--><g id="link_Staff_Name"><path codeLine="37" d="M679.13,135.7445 C673.54,138.8645 667.77,141.6745 662,143.8945 C467.7,218.7845 384.26,115.7845 198,208.8945 C170.05,222.8645 145.33,248.0245 127.84,269.2945 " fill="none" id="Staff-to-Name" style="stroke:#222222;stroke-width:1.0;"/><polygon fill="#222222" points="124.66,273.2145,133.4398,268.7519,127.813,269.334,127.2309,263.7071,124.66,273.2145" style="stroke:#222222;stroke-width:1.0;"/><text fill="#000000" font-family="sans-serif" font-size="20" lengthAdjust="spacing" textLength="11" x="116.7813" y="260.9397">1</text></g><!--link Staff to StaffId--><g id="link_Staff_StaffId"><path codeLine="38" d="M778.65,97.3945 C788.67,97.3945 798.68,97.3945 808.7,97.3945 " fill="none" id="Staff-to-StaffId" style="stroke:#222222;stroke-width:1.0;"/><polygon fill="#222222" points="813.94,97.3945,804.94,93.3945,808.94,97.3945,804.94,101.3945,813.94,97.3945" style="stroke:#222222;stroke-width:1.0;"/><text fill="#000000" font-family="sans-serif" font-size="20" lengthAdjust="spacing" textLength="11" x="794.8804" y="91.95">1</text></g><!--reverse link Function to Staff--><g id="link_Function_Staff"><path codeLine="39" d="M649.33,97.3945 C659.31,97.3945 669.29,97.3945 679.26,97.3945 " fill="none" id="Function-backto-Staff" style="stroke:#222222;stroke-width:1.0;"/><polygon fill="#222222" points="644.12,97.3945,653.12,101.3945,649.12,97.3945,653.12,93.3945,644.12,97.3945" style="stroke:#222222;stroke-width:1.0;"/><text fill="#000000" font-family="sans-serif" font-size="20" lengthAdjust="spacing" textLength="11" x="651.9209" y="91.9967">1</text></g><!--link Staff to LicenseNumber--><g id="link_Staff_LicenseNumber"><path codeLine="40" d="M679.41,138.3245 C654.11,159.0045 623.06,184.8945 596,208.8945 C578.62,224.3145 560.06,241.6145 543.54,257.3145 " fill="none" id="Staff-to-LicenseNumber" style="stroke:#222222;stroke-width:1.0;"/><polygon fill="#222222" points="539.84,260.8445,549.122,257.5515,543.4671,257.403,543.6156,251.7481,539.84,260.8445" style="stroke:#222222;stroke-width:1.0;"/><text fill="#000000" font-family="sans-serif" font-size="20" lengthAdjust="spacing" textLength="11" x="534.3951" y="248.6504">1</text></g><!--link Staff to Slot--><g id="link_Staff_Slot"><path codeLine="41" d="M778.65,133.6545 C784.7,137.3345 790.9,140.8445 797,143.8945 C874.94,182.8845 931.61,137.7845 982,208.8945 C1019.26,261.4745 1000.06,292.0345 982,353.8945 C976.1,374.1145 964.38,394.1245 952.85,410.4445 " fill="none" id="Staff-to-Slot" style="stroke:#222222;stroke-width:1.0;"/><polygon fill="#222222" points="949.93,414.5145,958.421,409.5243,952.8402,410.4488,951.9158,404.8679,949.93,414.5145" style="stroke:#222222;stroke-width:1.0;"/><text fill="#000000" font-family="sans-serif" font-size="20" lengthAdjust="spacing" textLength="31" x="920.9887" y="402.4988">0..*</text></g><!--link Staff to Specialization--><g id="link_Staff_Specialization"><path codeLine="42" d="M778.88,135.3045 C784.79,138.5945 790.9,141.5645 797,143.8945 C885.89,177.8745 922.33,134.6145 1009,173.8945 C1051.43,193.1245 1091.07,227.7745 1119.5,256.8245 " fill="none" id="Staff-to-Specialization" style="stroke:#222222;stroke-width:1.0;"/><polygon fill="#222222" points="1123.26,260.6945,1119.8922,251.4394,1119.7893,257.0953,1114.1334,256.9925,1123.26,260.6945" style="stroke:#222222;stroke-width:1.0;"/><text fill="#000000" font-family="sans-serif" font-size="20" lengthAdjust="spacing" textLength="116" x="1053" y="195.6563">specialized in</text><text fill="#000000" font-family="sans-serif" font-size="20" lengthAdjust="spacing" textLength="11" x="1106.1809" y="248.4803">1</text></g><!--link Specialization to SpecializationDenomination--><g id="link_Specialization_SpecializationDenomination"><path codeLine="43" d="M1172.82,354.0745 C1176.66,371.9345 1181.02,392.1945 1184.7,409.3045 " fill="none" id="Specialization-to-SpecializationDenomination" style="stroke:#222222;stroke-width:1.0;"/><polygon fill="#222222" points="1185.82,414.5045,1187.8262,404.8622,1184.7626,409.6176,1180.0071,406.554,1185.82,414.5045" style="stroke:#222222;stroke-width:1.0;"/><text fill="#000000" font-family="sans-serif" font-size="20" lengthAdjust="spacing" textLength="11" x="1172.7199" y="402.4872">1</text></g><!--link Slot to Date--><g id="link_Slot_Date"><path codeLine="44" d="M872.55,482.9445 C845.2,501.2245 811.17,523.9745 783.11,542.7245 " fill="none" id="Slot-to-Date" style="stroke:#222222;stroke-width:1.0;"/><polygon fill="#222222" points="778.66,545.7045,788.3633,544.0174,782.8137,542.9212,783.9099,537.3715,778.66,545.7045" style="stroke:#222222;stroke-width:1.0;"/><text fill="#000000" font-family="sans-serif" font-size="20" lengthAdjust="spacing" textLength="11" x="775.25" y="533.428">1</text></g><!--link Slot to TimeInterval--><g id="link_Slot_TimeInterval"><path codeLine="45" d="M922,483.1145 C922,500.7245 922,522.4245 922,540.7245 " fill="none" id="Slot-to-TimeInterval" style="stroke:#222222;stroke-width:1.0;"/><polygon fill="#222222" points="922,545.7845,926,536.7845,922,540.7845,918,536.7845,922,545.7845" style="stroke:#222222;stroke-width:1.0;"/><text fill="#000000" font-family="sans-serif" font-size="20" lengthAdjust="spacing" textLength="11" x="910.0547" y="533.5217">1</text></g><!--SRC=[dLHTJuCm57tdLpJiHOrRSF7164AoEKcMB8l9ZEyNkB2wqf9IDCxilriAJ23gXdth-RYNzfwIxoZFG4BAHBZ3Y4GOGy6KBxZQq3sIgMFbZOI43F9yffIaGQ5m6GfkD8wrfH4IJ3FrGQ2Xyxvn3k4kaQBWqODWGf80QO8jqKnAyLvHewbPbbwPTa62n7PTI1A92IWa6mLnx7as-RI8NiWLrQqDIbotsdgUwqeXbETz7epAV4GbMaPQTl5oFVBzk_cjS_a6h40YWbSCjLvp-ZowI4nHwct7lw8XyXpNHHgW_7ULDQJufxcZzWiUAYhu00ULkHhMP0L37Nx1s337qrRm0VB752WxNxvXGfslNfH1EblzJ5DSSeLIYqwvhCDliSqmfC3e7iffwlnsuzjXMpacJP1xn-te5yX5IZcSp4bPv52-B3EwyTZx3aiDUSSij3JrhAtgaPMGVMDN4-fXPiWzpDHfi0gg7s83CenLpJHnxzNelhmZMRBEP79bL_FlcNgNUa_o1j0_EwfRTFcVRUsxjKoNHbU6g8kqWs9z0G00]--></g></svg>