<?xml version="1.0" encoding="UTF-8" standalone="no"?><svg xmlns="http://www.w3.org/2000/svg" xmlns:xlink="http://www.w3.org/1999/xlink" contentStyleType="text/css" height="636px" preserveAspectRatio="none" style="width:1110px;height:636px;background:#FFFFFF;" version="1.1" viewBox="0 0 1110 636" width="1110px" zoomAndPan="magnify"><defs/><g><!--cluster <<aggregate Staff>>--><g id="cluster_&lt;&lt;aggregate Staff&gt;&gt;"><path d="M8.5,6.8945 L177.5,6.8945 A3.75,3.75 0 0 1 180,9.3945 L187,38.0508 L772.5,38.0508 A2.5,2.5 0 0 1 775,40.5508 L775,627.3945 A2.5,2.5 0 0 1 772.5,629.8945 L8.5,629.8945 A2.5,2.5 0 0 1 6,627.3945 L6,9.3945 A2.5,2.5 0 0 1 8.5,6.8945 " fill="none" style="stroke:#000000;stroke-width:1.5;"/><line style="stroke:#000000;stroke-width:1.5;" x1="6" x2="187" y1="38.0508" y2="38.0508"/><text fill="#000000" font-family="sans-serif" font-size="20" font-weight="bold" lengthAdjust="spacing" textLength="168" x="10" y="29.6563">«aggregate Staff»</text></g><!--cluster <<aggregate Specialization>>--><g id="cluster_&lt;&lt;aggregate Specialization&gt;&gt;"><path d="M801.5,216.8945 L1055.5,216.8945 A3.75,3.75 0 0 1 1058,219.3945 L1065,248.0508 L1100.5,248.0508 A2.5,2.5 0 0 1 1103,250.5508 L1103,496.3945 A2.5,2.5 0 0 1 1100.5,498.8945 L801.5,498.8945 A2.5,2.5 0 0 1 799,496.3945 L799,219.3945 A2.5,2.5 0 0 1 801.5,216.8945 " fill="none" style="stroke:#000000;stroke-width:1.5;"/><line style="stroke:#000000;stroke-width:1.5;" x1="799" x2="1065" y1="248.0508" y2="248.0508"/><text fill="#000000" font-family="sans-serif" font-size="20" font-weight="bold" lengthAdjust="spacing" textLength="253" x="803" y="239.6563">«aggregate Specialization»</text></g><!--class Staff--><g id="elem_Staff"><rect codeLine="9" fill="#F5F5DC" height="93.4688" id="Staff" rx="2.5" ry="2.5" style="stroke:#181818;stroke-width:0.5;" width="99" x="466.5" y="50.8945"/><ellipse cx="482.5" cy="93.6289" fill="#ADD1B2" rx="12" ry="12" style="stroke:#181818;stroke-width:1.0;"/><path d="M480.4531,94.6914 L480.4531,97.6289 L485.5469,97.6289 L485.5469,96.5352 Q485.5469,95.8164 485.8281,95.5195 Q486.1094,95.207 486.5625,95.207 Q487,95.207 487.2813,95.5195 Q487.5625,95.8164 487.5625,96.5352 L487.5625,99.6289 L478.125,99.6289 Q477.4063,99.6289 477.0938,99.3477 Q476.7969,99.0664 476.7969,98.6289 Q476.7969,98.1758 477.1094,97.9102 Q477.4219,97.6289 478.125,97.6289 L478.4375,97.6289 L478.4375,89.8008 L478.125,89.8008 Q477.4063,89.8008 477.0938,89.5195 Q476.7969,89.2383 476.7969,88.7852 Q476.7969,88.332 477.0938,88.0664 Q477.4063,87.7852 478.125,87.7852 L487.1094,87.7852 L487.1094,90.832 Q487.1094,91.5508 486.8281,91.8633 Q486.5625,92.1602 486.125,92.1602 Q485.6719,92.1602 485.3906,91.8633 Q485.1094,91.5664 485.1094,90.832 L485.1094,89.8008 L480.4531,89.8008 L480.4531,92.6914 L482.2031,92.6914 Q482.2031,91.9102 482.3438,91.6758 Q482.6563,91.207 483.2031,91.207 Q483.6563,91.207 483.9219,91.5195 Q484.2031,91.8164 484.2031,92.5352 L484.2031,94.8477 Q484.2031,95.5039 484.0469,95.7227 Q483.7344,96.1758 483.2031,96.1758 Q482.6563,96.1758 482.3438,95.707 Q482.2031,95.4727 482.2031,94.6914 L480.4531,94.6914 Z " fill="#000000"/><text fill="#000000" font-family="sans-serif" font-size="20" font-style="italic" lengthAdjust="spacing" textLength="69" x="495.5" y="76.6563">«entity»</text><text fill="#000000" font-family="sans-serif" font-size="20" font-style="italic" lengthAdjust="spacing" textLength="56" x="502" y="101.8125">«root»</text><text fill="#000000" font-family="sans-serif" font-size="20" lengthAdjust="spacing" textLength="42" x="509" y="126.9688">Staff</text><line style="stroke:#181818;stroke-width:0.5;" x1="467.5" x2="564.5" y1="136.3633" y2="136.3633"/></g><!--class StaffId--><g id="elem_StaffId"><rect codeLine="10" fill="#F5F5DC" height="93.4688" id="StaffId" rx="2.5" ry="2.5" style="stroke:#181818;stroke-width:0.5;" width="158" x="601" y="50.8945"/><ellipse cx="617" cy="93.6289" fill="#FF8B40" rx="12" ry="12" style="stroke:#181818;stroke-width:1.0;"/><path d="M617.5,97.707 L620.3906,90.8008 L619.9375,90.8008 Q619.2188,90.8008 618.9063,90.5195 Q618.5938,90.2383 618.5938,89.7852 Q618.5938,89.332 618.9063,89.0664 Q619.2188,88.7852 619.9375,88.7852 L622.625,88.7852 Q623.3438,88.7852 623.6563,89.0664 Q623.9688,89.332 623.9688,89.7852 Q623.9688,90.332 623.5,90.6445 Q623.2656,90.8008 622.5781,90.8008 L618.4688,100.6289 L616.5469,100.6289 L612.4375,90.8008 Q611.7344,90.8008 611.5156,90.6445 Q611.0469,90.332 611.0469,89.7852 Q611.0469,89.332 611.3594,89.0664 Q611.6563,88.7852 612.375,88.7852 L615.0781,88.7852 Q615.7969,88.7852 616.0938,89.0664 Q616.4063,89.332 616.4063,89.7852 Q616.4063,90.2383 616.1094,90.5195 Q615.8125,90.8008 615.0781,90.8008 L614.6094,90.8008 L617.5,97.707 Z " fill="#000000"/><text fill="#000000" font-family="sans-serif" font-size="20" font-style="italic" lengthAdjust="spacing" textLength="128" x="630" y="76.6563">«value object»</text><text fill="#000000" font-family="sans-serif" font-size="20" font-style="italic" lengthAdjust="spacing" textLength="99" x="644.5" y="101.8125">«identifier»</text><text fill="#000000" font-family="sans-serif" font-size="20" lengthAdjust="spacing" textLength="59" x="664.5" y="126.9688">StaffId</text><line style="stroke:#181818;stroke-width:0.5;" x1="602" x2="758" y1="136.3633" y2="136.3633"/></g><!--class LicenseNumber--><g id="elem_LicenseNumber"><rect codeLine="11" fill="#F5F5DC" height="93.4688" id="LicenseNumber" rx="2.5" ry="2.5" style="stroke:#181818;stroke-width:0.5;" width="169" x="419.5" y="260.8945"/><ellipse cx="435.5" cy="303.6289" fill="#FF8B40" rx="12" ry="12" style="stroke:#181818;stroke-width:1.0;"/><path d="M436,307.707 L438.8906,300.8008 L438.4375,300.8008 Q437.7188,300.8008 437.4063,300.5195 Q437.0938,300.2383 437.0938,299.7852 Q437.0938,299.332 437.4063,299.0664 Q437.7188,298.7852 438.4375,298.7852 L441.125,298.7852 Q441.8438,298.7852 442.1563,299.0664 Q442.4688,299.332 442.4688,299.7852 Q442.4688,300.332 442,300.6445 Q441.7656,300.8008 441.0781,300.8008 L436.9688,310.6289 L435.0469,310.6289 L430.9375,300.8008 Q430.2344,300.8008 430.0156,300.6445 Q429.5469,300.332 429.5469,299.7852 Q429.5469,299.332 429.8594,299.0664 Q430.1563,298.7852 430.875,298.7852 L433.5781,298.7852 Q434.2969,298.7852 434.5938,299.0664 Q434.9063,299.332 434.9063,299.7852 Q434.9063,300.2383 434.6094,300.5195 Q434.3125,300.8008 433.5781,300.8008 L433.1094,300.8008 L436,307.707 Z " fill="#000000"/><text fill="#000000" font-family="sans-serif" font-size="20" font-style="italic" lengthAdjust="spacing" textLength="128" x="454" y="286.6563">«value object»</text><text fill="#000000" font-family="sans-serif" font-size="20" font-style="italic" lengthAdjust="spacing" textLength="99" x="468.5" y="311.8125">«identifier»</text><text fill="#000000" font-family="sans-serif" font-size="20" lengthAdjust="spacing" textLength="135" x="450.5" y="336.9688">LicenseNumber</text><line style="stroke:#181818;stroke-width:0.5;" x1="420.5" x2="587.5" y1="346.3633" y2="346.3633"/></g><!--class Name--><g id="elem_Name"><rect codeLine="12" fill="#F5F5DC" height="68.3125" id="Name" rx="2.5" ry="2.5" style="stroke:#181818;stroke-width:0.5;" width="158" x="33" y="273.3945"/><ellipse cx="49" cy="303.5508" fill="#FF8B40" rx="12" ry="12" style="stroke:#181818;stroke-width:1.0;"/><path d="M49.5,307.6289 L52.3906,300.7227 L51.9375,300.7227 Q51.2188,300.7227 50.9063,300.4414 Q50.5938,300.1602 50.5938,299.707 Q50.5938,299.2539 50.9063,298.9883 Q51.2188,298.707 51.9375,298.707 L54.625,298.707 Q55.3438,298.707 55.6563,298.9883 Q55.9688,299.2539 55.9688,299.707 Q55.9688,300.2539 55.5,300.5664 Q55.2656,300.7227 54.5781,300.7227 L50.4688,310.5508 L48.5469,310.5508 L44.4375,300.7227 Q43.7344,300.7227 43.5156,300.5664 Q43.0469,300.2539 43.0469,299.707 Q43.0469,299.2539 43.3594,298.9883 Q43.6563,298.707 44.375,298.707 L47.0781,298.707 Q47.7969,298.707 48.0938,298.9883 Q48.4063,299.2539 48.4063,299.707 Q48.4063,300.1602 48.1094,300.4414 Q47.8125,300.7227 47.0781,300.7227 L46.6094,300.7227 L49.5,307.6289 Z " fill="#000000"/><text fill="#000000" font-family="sans-serif" font-size="20" font-style="italic" lengthAdjust="spacing" textLength="128" x="62" y="299.1563">«value object»</text><text fill="#000000" font-family="sans-serif" font-size="20" lengthAdjust="spacing" textLength="51" x="100.5" y="324.3125">Name</text><line style="stroke:#181818;stroke-width:0.5;" x1="34" x2="190" y1="333.707" y2="333.707"/></g><!--class Function--><g id="elem_Function"><rect codeLine="13" fill="#F5F5DC" height="68.3125" id="Function" rx="2.5" ry="2.5" style="stroke:#181818;stroke-width:0.5;" width="158" x="273" y="63.3945"/><ellipse cx="289" cy="93.5508" fill="#FF8B40" rx="12" ry="12" style="stroke:#181818;stroke-width:1.0;"/><path d="M289.5,97.6289 L292.3906,90.7227 L291.9375,90.7227 Q291.2188,90.7227 290.9063,90.4414 Q290.5938,90.1602 290.5938,89.707 Q290.5938,89.2539 290.9063,88.9883 Q291.2188,88.707 291.9375,88.707 L294.625,88.707 Q295.3438,88.707 295.6563,88.9883 Q295.9688,89.2539 295.9688,89.707 Q295.9688,90.2539 295.5,90.5664 Q295.2656,90.7227 294.5781,90.7227 L290.4688,100.5508 L288.5469,100.5508 L284.4375,90.7227 Q283.7344,90.7227 283.5156,90.5664 Q283.0469,90.2539 283.0469,89.707 Q283.0469,89.2539 283.3594,88.9883 Q283.6563,88.707 284.375,88.707 L287.0781,88.707 Q287.7969,88.707 288.0938,88.9883 Q288.4063,89.2539 288.4063,89.707 Q288.4063,90.1602 288.1094,90.4414 Q287.8125,90.7227 287.0781,90.7227 L286.6094,90.7227 L289.5,97.6289 Z " fill="#000000"/><text fill="#000000" font-family="sans-serif" font-size="20" font-style="italic" lengthAdjust="spacing" textLength="128" x="302" y="89.1563">«value object»</text><text fill="#000000" font-family="sans-serif" font-size="20" lengthAdjust="spacing" textLength="73" x="329.5" y="114.3125">Function</text><line style="stroke:#181818;stroke-width:0.5;" x1="274" x2="430" y1="123.707" y2="123.707"/></g><!--class FirstName--><g id="elem_FirstName"><rect codeLine="14" fill="#F5F5DC" height="68.3125" id="FirstName" rx="2.5" ry="2.5" style="stroke:#181818;stroke-width:0.5;" width="158" x="22" y="414.8945"/><ellipse cx="38" cy="445.0508" fill="#FF8B40" rx="12" ry="12" style="stroke:#181818;stroke-width:1.0;"/><path d="M38.5,449.1289 L41.3906,442.2227 L40.9375,442.2227 Q40.2188,442.2227 39.9063,441.9414 Q39.5938,441.6602 39.5938,441.207 Q39.5938,440.7539 39.9063,440.4883 Q40.2188,440.207 40.9375,440.207 L43.625,440.207 Q44.3438,440.207 44.6563,440.4883 Q44.9688,440.7539 44.9688,441.207 Q44.9688,441.7539 44.5,442.0664 Q44.2656,442.2227 43.5781,442.2227 L39.4688,452.0508 L37.5469,452.0508 L33.4375,442.2227 Q32.7344,442.2227 32.5156,442.0664 Q32.0469,441.7539 32.0469,441.207 Q32.0469,440.7539 32.3594,440.4883 Q32.6563,440.207 33.375,440.207 L36.0781,440.207 Q36.7969,440.207 37.0938,440.4883 Q37.4063,440.7539 37.4063,441.207 Q37.4063,441.6602 37.1094,441.9414 Q36.8125,442.2227 36.0781,442.2227 L35.6094,442.2227 L38.5,449.1289 Z " fill="#000000"/><text fill="#000000" font-family="sans-serif" font-size="20" font-style="italic" lengthAdjust="spacing" textLength="128" x="51" y="440.6563">«value object»</text><text fill="#000000" font-family="sans-serif" font-size="20" lengthAdjust="spacing" textLength="90" x="70" y="465.8125">FirstName</text><line style="stroke:#181818;stroke-width:0.5;" x1="23" x2="179" y1="475.207" y2="475.207"/></g><!--class LastName--><g id="elem_LastName"><rect codeLine="15" fill="#F5F5DC" height="68.3125" id="LastName" rx="2.5" ry="2.5" style="stroke:#181818;stroke-width:0.5;" width="158" x="226" y="273.3945"/><ellipse cx="242" cy="303.5508" fill="#FF8B40" rx="12" ry="12" style="stroke:#181818;stroke-width:1.0;"/><path d="M242.5,307.6289 L245.3906,300.7227 L244.9375,300.7227 Q244.2188,300.7227 243.9063,300.4414 Q243.5938,300.1602 243.5938,299.707 Q243.5938,299.2539 243.9063,298.9883 Q244.2188,298.707 244.9375,298.707 L247.625,298.707 Q248.3438,298.707 248.6563,298.9883 Q248.9688,299.2539 248.9688,299.707 Q248.9688,300.2539 248.5,300.5664 Q248.2656,300.7227 247.5781,300.7227 L243.4688,310.5508 L241.5469,310.5508 L237.4375,300.7227 Q236.7344,300.7227 236.5156,300.5664 Q236.0469,300.2539 236.0469,299.707 Q236.0469,299.2539 236.3594,298.9883 Q236.6563,298.707 237.375,298.707 L240.0781,298.707 Q240.7969,298.707 241.0938,298.9883 Q241.4063,299.2539 241.4063,299.707 Q241.4063,300.1602 241.1094,300.4414 Q240.8125,300.7227 240.0781,300.7227 L239.6094,300.7227 L242.5,307.6289 Z " fill="#000000"/><text fill="#000000" font-family="sans-serif" font-size="20" font-style="italic" lengthAdjust="spacing" textLength="128" x="255" y="299.1563">«value object»</text><text fill="#000000" font-family="sans-serif" font-size="20" lengthAdjust="spacing" textLength="89" x="274.5" y="324.3125">LastName</text><line style="stroke:#181818;stroke-width:0.5;" x1="227" x2="383" y1="333.707" y2="333.707"/></g><!--class FullName--><g id="elem_FullName"><rect codeLine="16" fill="#F5F5DC" height="68.3125" id="FullName" rx="2.5" ry="2.5" style="stroke:#181818;stroke-width:0.5;" width="158" x="215" y="414.8945"/><ellipse cx="231" cy="445.0508" fill="#FF8B40" rx="12" ry="12" style="stroke:#181818;stroke-width:1.0;"/><path d="M231.5,449.1289 L234.3906,442.2227 L233.9375,442.2227 Q233.2188,442.2227 232.9063,441.9414 Q232.5938,441.6602 232.5938,441.207 Q232.5938,440.7539 232.9063,440.4883 Q233.2188,440.207 233.9375,440.207 L236.625,440.207 Q237.3438,440.207 237.6563,440.4883 Q237.9688,440.7539 237.9688,441.207 Q237.9688,441.7539 237.5,442.0664 Q237.2656,442.2227 236.5781,442.2227 L232.4688,452.0508 L230.5469,452.0508 L226.4375,442.2227 Q225.7344,442.2227 225.5156,442.0664 Q225.0469,441.7539 225.0469,441.207 Q225.0469,440.7539 225.3594,440.4883 Q225.6563,440.207 226.375,440.207 L229.0781,440.207 Q229.7969,440.207 230.0938,440.4883 Q230.4063,440.7539 230.4063,441.207 Q230.4063,441.6602 230.1094,441.9414 Q229.8125,442.2227 229.0781,442.2227 L228.6094,442.2227 L231.5,449.1289 Z " fill="#000000"/><text fill="#000000" font-family="sans-serif" font-size="20" font-style="italic" lengthAdjust="spacing" textLength="128" x="244" y="440.6563">«value object»</text><text fill="#000000" font-family="sans-serif" font-size="20" lengthAdjust="spacing" textLength="81" x="267.5" y="465.8125">FullName</text><line style="stroke:#181818;stroke-width:0.5;" x1="216" x2="372" y1="475.207" y2="475.207"/></g><!--class ContactInfo--><g id="elem_ContactInfo"><rect codeLine="17" fill="#F5F5DC" height="68.3125" id="ContactInfo" rx="2.5" ry="2.5" style="stroke:#181818;stroke-width:0.5;" width="158" x="408" y="414.8945"/><ellipse cx="424" cy="445.0508" fill="#FF8B40" rx="12" ry="12" style="stroke:#181818;stroke-width:1.0;"/><path d="M424.5,449.1289 L427.3906,442.2227 L426.9375,442.2227 Q426.2188,442.2227 425.9063,441.9414 Q425.5938,441.6602 425.5938,441.207 Q425.5938,440.7539 425.9063,440.4883 Q426.2188,440.207 426.9375,440.207 L429.625,440.207 Q430.3438,440.207 430.6563,440.4883 Q430.9688,440.7539 430.9688,441.207 Q430.9688,441.7539 430.5,442.0664 Q430.2656,442.2227 429.5781,442.2227 L425.4688,452.0508 L423.5469,452.0508 L419.4375,442.2227 Q418.7344,442.2227 418.5156,442.0664 Q418.0469,441.7539 418.0469,441.207 Q418.0469,440.7539 418.3594,440.4883 Q418.6563,440.207 419.375,440.207 L422.0781,440.207 Q422.7969,440.207 423.0938,440.4883 Q423.4063,440.7539 423.4063,441.207 Q423.4063,441.6602 423.1094,441.9414 Q422.8125,442.2227 422.0781,442.2227 L421.6094,442.2227 L424.5,449.1289 Z " fill="#000000"/><text fill="#000000" font-family="sans-serif" font-size="20" font-style="italic" lengthAdjust="spacing" textLength="128" x="437" y="440.6563">«value object»</text><text fill="#000000" font-family="sans-serif" font-size="20" lengthAdjust="spacing" textLength="101" x="450.5" y="465.8125">ContactInfo</text><line style="stroke:#181818;stroke-width:0.5;" x1="409" x2="565" y1="475.207" y2="475.207"/></g><!--class Phone--><g id="elem_Phone"><rect codeLine="18" fill="#F5F5DC" height="68.3125" id="Phone" rx="2.5" ry="2.5" style="stroke:#181818;stroke-width:0.5;" width="158" x="22" y="545.8945"/><ellipse cx="38" cy="576.0508" fill="#FF8B40" rx="12" ry="12" style="stroke:#181818;stroke-width:1.0;"/><path d="M38.5,580.1289 L41.3906,573.2227 L40.9375,573.2227 Q40.2188,573.2227 39.9063,572.9414 Q39.5938,572.6602 39.5938,572.207 Q39.5938,571.7539 39.9063,571.4883 Q40.2188,571.207 40.9375,571.207 L43.625,571.207 Q44.3438,571.207 44.6563,571.4883 Q44.9688,571.7539 44.9688,572.207 Q44.9688,572.7539 44.5,573.0664 Q44.2656,573.2227 43.5781,573.2227 L39.4688,583.0508 L37.5469,583.0508 L33.4375,573.2227 Q32.7344,573.2227 32.5156,573.0664 Q32.0469,572.7539 32.0469,572.207 Q32.0469,571.7539 32.3594,571.4883 Q32.6563,571.207 33.375,571.207 L36.0781,571.207 Q36.7969,571.207 37.0938,571.4883 Q37.4063,571.7539 37.4063,572.207 Q37.4063,572.6602 37.1094,572.9414 Q36.8125,573.2227 36.0781,573.2227 L35.6094,573.2227 L38.5,580.1289 Z " fill="#000000"/><text fill="#000000" font-family="sans-serif" font-size="20" font-style="italic" lengthAdjust="spacing" textLength="128" x="51" y="571.6563">«value object»</text><text fill="#000000" font-family="sans-serif" font-size="20" lengthAdjust="spacing" textLength="55" x="87.5" y="596.8125">Phone</text><line style="stroke:#181818;stroke-width:0.5;" x1="23" x2="179" y1="606.207" y2="606.207"/></g><!--class Email--><g id="elem_Email"><rect codeLine="19" fill="#F5F5DC" height="68.3125" id="Email" rx="2.5" ry="2.5" style="stroke:#181818;stroke-width:0.5;" width="158" x="215" y="545.8945"/><ellipse cx="231" cy="576.0508" fill="#FF8B40" rx="12" ry="12" style="stroke:#181818;stroke-width:1.0;"/><path d="M231.5,580.1289 L234.3906,573.2227 L233.9375,573.2227 Q233.2188,573.2227 232.9063,572.9414 Q232.5938,572.6602 232.5938,572.207 Q232.5938,571.7539 232.9063,571.4883 Q233.2188,571.207 233.9375,571.207 L236.625,571.207 Q237.3438,571.207 237.6563,571.4883 Q237.9688,571.7539 237.9688,572.207 Q237.9688,572.7539 237.5,573.0664 Q237.2656,573.2227 236.5781,573.2227 L232.4688,583.0508 L230.5469,583.0508 L226.4375,573.2227 Q225.7344,573.2227 225.5156,573.0664 Q225.0469,572.7539 225.0469,572.207 Q225.0469,571.7539 225.3594,571.4883 Q225.6563,571.207 226.375,571.207 L229.0781,571.207 Q229.7969,571.207 230.0938,571.4883 Q230.4063,571.7539 230.4063,572.207 Q230.4063,572.6602 230.1094,572.9414 Q229.8125,573.2227 229.0781,573.2227 L228.6094,573.2227 L231.5,580.1289 Z " fill="#000000"/><text fill="#000000" font-family="sans-serif" font-size="20" font-style="italic" lengthAdjust="spacing" textLength="128" x="244" y="571.6563">«value object»</text><text fill="#000000" font-family="sans-serif" font-size="20" lengthAdjust="spacing" textLength="48" x="284" y="596.8125">Email</text><line style="stroke:#181818;stroke-width:0.5;" x1="216" x2="372" y1="606.207" y2="606.207"/></g><!--class Slot--><g id="elem_Slot"><rect codeLine="20" fill="#F5F5DC" height="68.3125" id="Slot" rx="2.5" ry="2.5" style="stroke:#181818;stroke-width:0.5;" width="158" x="601" y="414.8945"/><ellipse cx="617" cy="445.0508" fill="#FF8B40" rx="12" ry="12" style="stroke:#181818;stroke-width:1.0;"/><path d="M617.5,449.1289 L620.3906,442.2227 L619.9375,442.2227 Q619.2188,442.2227 618.9063,441.9414 Q618.5938,441.6602 618.5938,441.207 Q618.5938,440.7539 618.9063,440.4883 Q619.2188,440.207 619.9375,440.207 L622.625,440.207 Q623.3438,440.207 623.6563,440.4883 Q623.9688,440.7539 623.9688,441.207 Q623.9688,441.7539 623.5,442.0664 Q623.2656,442.2227 622.5781,442.2227 L618.4688,452.0508 L616.5469,452.0508 L612.4375,442.2227 Q611.7344,442.2227 611.5156,442.0664 Q611.0469,441.7539 611.0469,441.207 Q611.0469,440.7539 611.3594,440.4883 Q611.6563,440.207 612.375,440.207 L615.0781,440.207 Q615.7969,440.207 616.0938,440.4883 Q616.4063,440.7539 616.4063,441.207 Q616.4063,441.6602 616.1094,441.9414 Q615.8125,442.2227 615.0781,442.2227 L614.6094,442.2227 L617.5,449.1289 Z " fill="#000000"/><text fill="#000000" font-family="sans-serif" font-size="20" font-style="italic" lengthAdjust="spacing" textLength="128" x="630" y="440.6563">«value object»</text><text fill="#000000" font-family="sans-serif" font-size="20" lengthAdjust="spacing" textLength="34" x="677" y="465.8125">Slot</text><line style="stroke:#181818;stroke-width:0.5;" x1="602" x2="758" y1="475.207" y2="475.207"/></g><!--class Date--><g id="elem_Date"><rect codeLine="21" fill="#F5F5DC" height="68.3125" id="Date" rx="2.5" ry="2.5" style="stroke:#181818;stroke-width:0.5;" width="158" x="408" y="545.8945"/><ellipse cx="424" cy="576.0508" fill="#FF8B40" rx="12" ry="12" style="stroke:#181818;stroke-width:1.0;"/><path d="M424.5,580.1289 L427.3906,573.2227 L426.9375,573.2227 Q426.2188,573.2227 425.9063,572.9414 Q425.5938,572.6602 425.5938,572.207 Q425.5938,571.7539 425.9063,571.4883 Q426.2188,571.207 426.9375,571.207 L429.625,571.207 Q430.3438,571.207 430.6563,571.4883 Q430.9688,571.7539 430.9688,572.207 Q430.9688,572.7539 430.5,573.0664 Q430.2656,573.2227 429.5781,573.2227 L425.4688,583.0508 L423.5469,583.0508 L419.4375,573.2227 Q418.7344,573.2227 418.5156,573.0664 Q418.0469,572.7539 418.0469,572.207 Q418.0469,571.7539 418.3594,571.4883 Q418.6563,571.207 419.375,571.207 L422.0781,571.207 Q422.7969,571.207 423.0938,571.4883 Q423.4063,571.7539 423.4063,572.207 Q423.4063,572.6602 423.1094,572.9414 Q422.8125,573.2227 422.0781,573.2227 L421.6094,573.2227 L424.5,580.1289 Z " fill="#000000"/><text fill="#000000" font-family="sans-serif" font-size="20" font-style="italic" lengthAdjust="spacing" textLength="128" x="437" y="571.6563">«value object»</text><text fill="#000000" font-family="sans-serif" font-size="20" lengthAdjust="spacing" textLength="42" x="480" y="596.8125">Date</text><line style="stroke:#181818;stroke-width:0.5;" x1="409" x2="565" y1="606.207" y2="606.207"/></g><!--class TimeInterval--><g id="elem_TimeInterval"><rect codeLine="22" fill="#F5F5DC" height="68.3125" id="TimeInterval" rx="2.5" ry="2.5" style="stroke:#181818;stroke-width:0.5;" width="158" x="601" y="545.8945"/><ellipse cx="617" cy="576.0508" fill="#FF8B40" rx="12" ry="12" style="stroke:#181818;stroke-width:1.0;"/><path d="M617.5,580.1289 L620.3906,573.2227 L619.9375,573.2227 Q619.2188,573.2227 618.9063,572.9414 Q618.5938,572.6602 618.5938,572.207 Q618.5938,571.7539 618.9063,571.4883 Q619.2188,571.207 619.9375,571.207 L622.625,571.207 Q623.3438,571.207 623.6563,571.4883 Q623.9688,571.7539 623.9688,572.207 Q623.9688,572.7539 623.5,573.0664 Q623.2656,573.2227 622.5781,573.2227 L618.4688,583.0508 L616.5469,583.0508 L612.4375,573.2227 Q611.7344,573.2227 611.5156,573.0664 Q611.0469,572.7539 611.0469,572.207 Q611.0469,571.7539 611.3594,571.4883 Q611.6563,571.207 612.375,571.207 L615.0781,571.207 Q615.7969,571.207 616.0938,571.4883 Q616.4063,571.7539 616.4063,572.207 Q616.4063,572.6602 616.1094,572.9414 Q615.8125,573.2227 615.0781,573.2227 L614.6094,573.2227 L617.5,580.1289 Z " fill="#000000"/><text fill="#000000" font-family="sans-serif" font-size="20" font-style="italic" lengthAdjust="spacing" textLength="128" x="630" y="571.6563">«value object»</text><text fill="#000000" font-family="sans-serif" font-size="20" lengthAdjust="spacing" textLength="107" x="640.5" y="596.8125">TimeInterval</text><line style="stroke:#181818;stroke-width:0.5;" x1="602" x2="758" y1="606.207" y2="606.207"/></g><!--class Specialization--><g id="elem_Specialization"><rect codeLine="27" fill="#F5F5DC" height="93.4688" id="Specialization" rx="2.5" ry="2.5" style="stroke:#181818;stroke-width:0.5;" width="153" x="844.5" y="260.8945"/><ellipse cx="860.5" cy="303.6289" fill="#ADD1B2" rx="12" ry="12" style="stroke:#181818;stroke-width:1.0;"/><path d="M858.4531,304.6914 L858.4531,307.6289 L863.5469,307.6289 L863.5469,306.5352 Q863.5469,305.8164 863.8281,305.5195 Q864.1094,305.207 864.5625,305.207 Q865,305.207 865.2813,305.5195 Q865.5625,305.8164 865.5625,306.5352 L865.5625,309.6289 L856.125,309.6289 Q855.4063,309.6289 855.0938,309.3477 Q854.7969,309.0664 854.7969,308.6289 Q854.7969,308.1758 855.1094,307.9102 Q855.4219,307.6289 856.125,307.6289 L856.4375,307.6289 L856.4375,299.8008 L856.125,299.8008 Q855.4063,299.8008 855.0938,299.5195 Q854.7969,299.2383 854.7969,298.7852 Q854.7969,298.332 855.0938,298.0664 Q855.4063,297.7852 856.125,297.7852 L865.1094,297.7852 L865.1094,300.832 Q865.1094,301.5508 864.8281,301.8633 Q864.5625,302.1602 864.125,302.1602 Q863.6719,302.1602 863.3906,301.8633 Q863.1094,301.5664 863.1094,300.832 L863.1094,299.8008 L858.4531,299.8008 L858.4531,302.6914 L860.2031,302.6914 Q860.2031,301.9102 860.3438,301.6758 Q860.6563,301.207 861.2031,301.207 Q861.6563,301.207 861.9219,301.5195 Q862.2031,301.8164 862.2031,302.5352 L862.2031,304.8477 Q862.2031,305.5039 862.0469,305.7227 Q861.7344,306.1758 861.2031,306.1758 Q860.6563,306.1758 860.3438,305.707 Q860.2031,305.4727 860.2031,304.6914 L858.4531,304.6914 Z " fill="#000000"/><text fill="#000000" font-family="sans-serif" font-size="20" font-style="italic" lengthAdjust="spacing" textLength="69" x="900.5" y="286.6563">«entity»</text><text fill="#000000" font-family="sans-serif" font-size="20" font-style="italic" lengthAdjust="spacing" textLength="56" x="907" y="311.8125">«root»</text><text fill="#000000" font-family="sans-serif" font-size="20" lengthAdjust="spacing" textLength="119" x="875.5" y="336.9688">Specialization</text><line style="stroke:#181818;stroke-width:0.5;" x1="845.5" x2="996.5" y1="346.3633" y2="346.3633"/></g><!--class SpecializationDenomination--><g id="elem_SpecializationDenomination"><rect codeLine="28" fill="#F5F5DC" height="68.3125" id="SpecializationDenomination" rx="2.5" ry="2.5" style="stroke:#181818;stroke-width:0.5;" width="271" x="815.5" y="414.8945"/><ellipse cx="831.5" cy="445.0508" fill="#FF8B40" rx="12" ry="12" style="stroke:#181818;stroke-width:1.0;"/><path d="M832,449.1289 L834.8906,442.2227 L834.4375,442.2227 Q833.7188,442.2227 833.4063,441.9414 Q833.0938,441.6602 833.0938,441.207 Q833.0938,440.7539 833.4063,440.4883 Q833.7188,440.207 834.4375,440.207 L837.125,440.207 Q837.8438,440.207 838.1563,440.4883 Q838.4688,440.7539 838.4688,441.207 Q838.4688,441.7539 838,442.0664 Q837.7656,442.2227 837.0781,442.2227 L832.9688,452.0508 L831.0469,452.0508 L826.9375,442.2227 Q826.2344,442.2227 826.0156,442.0664 Q825.5469,441.7539 825.5469,441.207 Q825.5469,440.7539 825.8594,440.4883 Q826.1563,440.207 826.875,440.207 L829.5781,440.207 Q830.2969,440.207 830.5938,440.4883 Q830.9063,440.7539 830.9063,441.207 Q830.9063,441.6602 830.6094,441.9414 Q830.3125,442.2227 829.5781,442.2227 L829.1094,442.2227 L832,449.1289 Z " fill="#000000"/><text fill="#000000" font-family="sans-serif" font-size="20" font-style="italic" lengthAdjust="spacing" textLength="128" x="901" y="440.6563">«value object»</text><text fill="#000000" font-family="sans-serif" font-size="20" lengthAdjust="spacing" textLength="237" x="846.5" y="465.8125">SpecializationDenomination</text><line style="stroke:#181818;stroke-width:0.5;" x1="816.5" x2="1085.5" y1="475.207" y2="475.207"/></g><!--link Name to FirstName--><g id="link_Name_FirstName"><path codeLine="33" d="M109.39,341.4545 C107.78,361.8945 105.71,388.2045 104.02,409.5545 " fill="none" id="Name-to-FirstName" style="stroke:#222222;stroke-width:1.0;"/><polygon fill="#222222" points="103.63,414.5845,108.3369,405.9332,104.0299,409.6005,100.3626,405.2935,103.63,414.5845" style="stroke:#222222;stroke-width:1.0;"/></g><!--link Name to LastName--><g id="link_Name_LastName"><path codeLine="34" d="M191.16,307.3945 C201.01,307.3945 210.85,307.3945 220.7,307.3945 " fill="none" id="Name-to-LastName" style="stroke:#222222;stroke-width:1.0;"/><polygon fill="#222222" points="225.85,307.3945,216.85,303.3945,220.85,307.3945,216.85,311.3945,225.85,307.3945" style="stroke:#222222;stroke-width:1.0;"/></g><!--link Name to FullName--><g id="link_Name_FullName"><path codeLine="35" d="M155.13,341.4545 C182.68,362.5745 218.42,389.9645 246.74,411.6745 " fill="none" id="Name-to-FullName" style="stroke:#222222;stroke-width:1.0;"/><polygon fill="#222222" points="250.86,414.8345,246.1637,406.1775,246.8963,411.7867,241.2871,412.5193,250.86,414.8345" style="stroke:#222222;stroke-width:1.0;"/></g><!--link ContactInfo to Email--><g id="link_ContactInfo_Email"><path codeLine="36" d="M437.55,482.9445 C410.2,501.2245 376.17,523.9745 348.11,542.7245 " fill="none" id="ContactInfo-to-Email" style="stroke:#222222;stroke-width:1.0;"/><polygon fill="#222222" points="343.66,545.7045,353.3633,544.0174,347.8137,542.9212,348.9099,537.3715,343.66,545.7045" style="stroke:#222222;stroke-width:1.0;"/><text fill="#000000" font-family="sans-serif" font-size="20" lengthAdjust="spacing" textLength="11" x="340.25" y="533.428">1</text></g><!--link ContactInfo to Phone--><g id="link_ContactInfo_Phone"><path codeLine="37" d="M438.29,483.1045 C423.61,491.9145 407.1,500.6945 391,506.8945 C309.33,538.3445 282.49,523.0845 198,545.8945 C193.8,547.0245 189.52,548.2445 185.22,549.5245 " fill="none" id="ContactInfo-to-Phone" style="stroke:#222222;stroke-width:1.0;"/><polygon fill="#222222" points="180.15,551.0445,189.9205,552.2844,184.9383,549.6052,187.6175,544.623,180.15,551.0445" style="stroke:#222222;stroke-width:1.0;"/><text fill="#000000" font-family="sans-serif" font-size="20" lengthAdjust="spacing" textLength="11" x="187.9537" y="542.9871">1</text></g><!--link Staff to Name--><g id="link_Staff_Name"><path codeLine="38" d="M466.2,134.7845 C460.55,138.1345 454.75,141.2545 449,143.8945 C348.57,190.0145 304.56,153.3845 209,208.8945 C182.68,224.1845 158.51,248.4345 140.89,268.9145 " fill="none" id="Staff-to-Name" style="stroke:#222222;stroke-width:1.0;"/><polygon fill="#222222" points="137.45,272.9645,146.3271,268.6986,140.6887,269.1552,140.2321,263.5168,137.45,272.9645" style="stroke:#222222;stroke-width:1.0;"/><text fill="#000000" font-family="sans-serif" font-size="20" lengthAdjust="spacing" textLength="11" x="129.7542" y="260.9405">1</text></g><!--link Staff to StaffId--><g id="link_Staff_StaffId"><path codeLine="39" d="M565.65,97.3945 C575.67,97.3945 585.68,97.3945 595.7,97.3945 " fill="none" id="Staff-to-StaffId" style="stroke:#222222;stroke-width:1.0;"/><polygon fill="#222222" points="600.94,97.3945,591.94,93.3945,595.94,97.3945,591.94,101.3945,600.94,97.3945" style="stroke:#222222;stroke-width:1.0;"/><text fill="#000000" font-family="sans-serif" font-size="20" lengthAdjust="spacing" textLength="11" x="581.8804" y="91.95">1</text></g><!--reverse link Function to Staff--><g id="link_Function_Staff"><path codeLine="40" d="M436.33,97.3945 C446.31,97.3945 456.29,97.3945 466.26,97.3945 " fill="none" id="Function-backto-Staff" style="stroke:#222222;stroke-width:1.0;"/><polygon fill="#222222" points="431.12,97.3945,440.12,101.3945,436.12,97.3945,440.12,93.3945,431.12,97.3945" style="stroke:#222222;stroke-width:1.0;"/><text fill="#000000" font-family="sans-serif" font-size="20" lengthAdjust="spacing" textLength="11" x="438.9209" y="91.9967">1</text></g><!--link Staff to ContactInfo--><g id="link_Staff_ContactInfo"><path codeLine="41" d="M564.86,143.8945 C581.22,162.3045 597.46,184.8845 606,208.8945 C627.6,269.6145 634.1,295.8945 606,353.8945 C594.59,377.4445 574.11,396.8745 553.32,411.8345 " fill="none" id="Staff-to-ContactInfo" style="stroke:#222222;stroke-width:1.0;"/><polygon fill="#222222" points="549.16,414.7645,558.8234,412.8622,553.2508,411.8895,554.2234,406.3169,549.16,414.7645" style="stroke:#222222;stroke-width:1.0;"/><text fill="#000000" font-family="sans-serif" font-size="20" lengthAdjust="spacing" textLength="11" x="547.8984" y="402.4983">1</text></g><!--link Staff to LicenseNumber--><g id="link_Staff_LicenseNumber"><path codeLine="42" d="M513.37,144.0445 C511.47,176.9645 508.9,221.4145 506.94,255.4745 " fill="none" id="Staff-to-LicenseNumber" style="stroke:#222222;stroke-width:1.0;"/><polygon fill="#222222" points="506.63,260.8545,511.1384,252.0981,506.9161,255.8627,503.1515,251.6404,506.63,260.8545" style="stroke:#222222;stroke-width:1.0;"/><text fill="#000000" font-family="sans-serif" font-size="20" lengthAdjust="spacing" textLength="11" x="495.2443" y="248.6618">1</text></g><!--link Staff to Slot--><g id="link_Staff_Slot"><path codeLine="43" d="M565.84,136.0045 C579.11,147.3445 592.85,160.3945 604,173.8945 C661.22,243.1645 675.49,352.4345 678.96,409.8145 " fill="none" id="Staff-to-Slot" style="stroke:#222222;stroke-width:1.0;"/><polygon fill="#222222" points="679.25,414.8645,682.7285,405.6504,678.9639,409.8727,674.7416,406.1081,679.25,414.8645" style="stroke:#222222;stroke-width:1.0;"/><text fill="#000000" font-family="sans-serif" font-size="20" lengthAdjust="spacing" textLength="31" x="645.457" y="402.6155">1..*</text></g><!--link Staff to Specialization--><g id="link_Staff_Specialization"><path codeLine="44" d="M565.5,133.9545 C571.58,137.5845 577.83,140.9945 584,143.8945 C626.38,163.8045 640.7,158.7245 685,173.8945 C725.61,187.7945 736.93,189.0845 775,208.8945 C802.22,223.0645 830.61,241.1645 855.04,257.9145 " fill="none" id="Staff-to-Specialization" style="stroke:#222222;stroke-width:1.0;"/><polygon fill="#222222" points="859.24,260.8045,854.1095,252.3975,855.1265,257.9622,849.5618,258.9792,859.24,260.8045" style="stroke:#222222;stroke-width:1.0;"/><text fill="#000000" font-family="sans-serif" font-size="20" lengthAdjust="spacing" textLength="116" x="759" y="195.6563">specialized in</text><text fill="#000000" font-family="sans-serif" font-size="20" lengthAdjust="spacing" textLength="11" x="839.2019" y="248.605">1</text></g><!--link Specialization to SpecializationDenomination--><g id="link_Specialization_SpecializationDenomination"><path codeLine="45" d="M930.82,354.0745 C934.66,371.9345 939.02,392.1945 942.7,409.3045 " fill="none" id="Specialization-to-SpecializationDenomination" style="stroke:#222222;stroke-width:1.0;"/><polygon fill="#222222" points="943.82,414.5045,945.8262,404.8622,942.7626,409.6176,938.0071,406.554,943.82,414.5045" style="stroke:#222222;stroke-width:1.0;"/><text fill="#000000" font-family="sans-serif" font-size="20" lengthAdjust="spacing" textLength="11" x="930.7199" y="402.4872">1</text></g><!--link Slot to Date--><g id="link_Slot_Date"><path codeLine="46" d="M630.55,482.9445 C603.2,501.2245 569.17,523.9745 541.11,542.7245 " fill="none" id="Slot-to-Date" style="stroke:#222222;stroke-width:1.0;"/><polygon fill="#222222" points="536.66,545.7045,546.3633,544.0174,540.8137,542.9212,541.9099,537.3715,536.66,545.7045" style="stroke:#222222;stroke-width:1.0;"/><text fill="#000000" font-family="sans-serif" font-size="20" lengthAdjust="spacing" textLength="11" x="533.25" y="533.428">1</text></g><!--link Slot to TimeInterval--><g id="link_Slot_TimeInterval"><path codeLine="47" d="M680,483.1145 C680,500.7245 680,522.4245 680,540.7245 " fill="none" id="Slot-to-TimeInterval" style="stroke:#222222;stroke-width:1.0;"/><polygon fill="#222222" points="680,545.7845,684,536.7845,680,540.7845,676,536.7845,680,545.7845" style="stroke:#222222;stroke-width:1.0;"/><text fill="#000000" font-family="sans-serif" font-size="20" lengthAdjust="spacing" textLength="11" x="668.0547" y="533.5217">1</text></g><!--SRC=[dLHBIyGm4BxdLuJkHKLb5GyYfR0-2WiYmehtsNHQuwR9agQAolvtqxHPc-9ZQsxz7ZDDvvjMAoxNeA4KYgqmendcK0kJAcaM_1tfwPHKNaAPWAgQ6QFviZOuPqewpPGyyGmfbclpHi7JrT1u2MnLQ5NBx4e9fUaIUO4zqKnhzTfIarDtY3rhwu82QHJ7K1GQ2p185mRoF4aY-a6eFIWDjwqTIkEuVKoIEDPAcIJvs3YLUubMDC-iRE_nS9AcvvTdq_qN43LIjNn6PlMMi_UnHNAEsZu6_blEK5PuLvTBrF-kSWSb_ceEr6ajcU5AZd1mNPbnJMvXh2EjXHZdkBAn0cRcCbUxc-wVb1pHuwO4BdQNBuGokwklc_Jjh7xW9SwbGMr5Vxd8vgUihv5n4FmTcWZOq8UP3zXU-AbF_-2wWVuQfIgvX3_3rHJPDElevdrqb7mbh8EIRO1wcYuWf3_tXeXEedPEtp9kuAJTPe-vcXvheMwJFIWmDntZzsLReyDxpGRbmwqEVSV71r4Rau5fyEqlQEK1-oFbjdl8Vs_hZu2uBbxNP2r4-daYdm00]--></g></svg>