<?xml version="1.0" encoding="UTF-8" standalone="no"?><svg xmlns="http://www.w3.org/2000/svg" xmlns:xlink="http://www.w3.org/1999/xlink" contentStyleType="text/css" height="1167px" preserveAspectRatio="none" style="width:1681px;height:1167px;background:#FFFFFF;" version="1.1" viewBox="0 0 1681 1167" width="1681px" zoomAndPan="magnify"><defs/><g><text fill="#000000" font-family="sans-serif" font-size="14" font-weight="bold" lengthAdjust="spacing" textLength="239" x="722.5" y="29.5332">US 5.1.12. - Process View [Level 3]</text><rect fill="#FFFFFF" height="938.5938" style="stroke:#181818;stroke-width:1.0;" width="10" x="206" y="150.0781"/><rect fill="#FFFFFF" height="694.6563" style="stroke:#181818;stroke-width:1.0;" width="10" x="522.5" y="264.5469"/><rect fill="#FFFFFF" height="616.3438" style="stroke:#181818;stroke-width:1.0;" width="10" x="804.5" y="303.7031"/><rect fill="#FFFFFF" height="119.3125" style="stroke:#181818;stroke-width:1.0;" width="10" x="809.5" y="596.1094"/><rect fill="#FFFFFF" height="39.1563" style="stroke:#181818;stroke-width:1.0;" width="10" x="1224.5" y="342.8594"/><rect fill="#FFFFFF" height="30" style="stroke:#181818;stroke-width:1.0;" width="10" x="1224.5" y="640.2656"/><rect fill="#FFFFFF" height="30" style="stroke:#181818;stroke-width:1.0;" width="10" x="1224.5" y="836.8906"/><rect fill="#FFFFFF" height="39.1563" style="stroke:#181818;stroke-width:1.0;" width="10" x="1424" y="465.4844"/><rect fill="none" height="484.875" style="stroke:#000000;stroke-width:1.5;" width="946" x="729" y="397.0156"/><rect fill="none" height="355.25" style="stroke:#000000;stroke-width:1.5;" width="926" x="739" y="519.6406"/><rect fill="none" height="107.4688" style="stroke:#000000;stroke-width:1.5;" width="264" x="11" y="974.2031"/><line style="stroke:#181818;stroke-width:0.5;stroke-dasharray:5.0,5.0;" x1="211" x2="211" y1="108.9219" y2="1098.6719"/><line style="stroke:#181818;stroke-width:0.5;stroke-dasharray:5.0,5.0;" x1="403" x2="403" y1="205.7344" y2="1098.6719"/><line style="stroke:#181818;stroke-width:0.5;stroke-dasharray:5.0,5.0;" x1="527" x2="527" y1="108.9219" y2="1098.6719"/><line style="stroke:#181818;stroke-width:0.5;stroke-dasharray:5.0,5.0;" x1="809" x2="809" y1="108.9219" y2="1098.6719"/><line style="stroke:#181818;stroke-width:0.5;stroke-dasharray:5.0,5.0;" x1="1229" x2="1229" y1="108.9219" y2="1098.6719"/><line style="stroke:#181818;stroke-width:0.5;stroke-dasharray:5.0,5.0;" x1="1429" x2="1429" y1="108.9219" y2="1098.6719"/><line style="stroke:#181818;stroke-width:0.5;stroke-dasharray:5.0,5.0;" x1="1604" x2="1604" y1="778.0781" y2="1098.6719"/><rect fill="#E2E2F0" height="64.3125" rx="2.5" ry="2.5" style="stroke:#181818;stroke-width:0.5;" width="108" x="157" y="43.6094"/><text fill="#000000" font-family="sans-serif" font-size="20" font-style="italic" lengthAdjust="spacing" textLength="67" x="177.5" y="71.3711">«route»</text><text fill="#000000" font-family="sans-serif" font-size="20" lengthAdjust="spacing" textLength="94" x="164" y="96.5273">StaffRoute</text><rect fill="#E2E2F0" height="64.3125" rx="2.5" ry="2.5" style="stroke:#181818;stroke-width:0.5;" width="108" x="157" y="1097.6719"/><text fill="#000000" font-family="sans-serif" font-size="20" font-style="italic" lengthAdjust="spacing" textLength="67" x="177.5" y="1125.4336">«route»</text><text fill="#000000" font-family="sans-serif" font-size="20" lengthAdjust="spacing" textLength="94" x="164" y="1150.5898">StaffRoute</text><rect fill="#E2E2F0" height="64.3125" rx="2.5" ry="2.5" style="stroke:#181818;stroke-width:0.5;" width="87" x="360" y="1097.6719"/><text fill="#000000" font-family="sans-serif" font-size="20" font-style="italic" lengthAdjust="spacing" textLength="49" x="379" y="1125.4336">«dto»</text><text fill="#000000" font-family="sans-serif" font-size="20" lengthAdjust="spacing" textLength="73" x="367" y="1150.5898">StaffDto</text><rect fill="#E2E2F0" height="64.3125" rx="2.5" ry="2.5" style="stroke:#181818;stroke-width:0.5;" width="141" x="457" y="43.6094"/><text fill="#000000" font-family="sans-serif" font-size="20" font-style="italic" lengthAdjust="spacing" textLength="105" x="475" y="71.3711">«controller»</text><text fill="#000000" font-family="sans-serif" font-size="20" lengthAdjust="spacing" textLength="127" x="464" y="96.5273">StaffController</text><rect fill="#E2E2F0" height="64.3125" rx="2.5" ry="2.5" style="stroke:#181818;stroke-width:0.5;" width="141" x="457" y="1097.6719"/><text fill="#000000" font-family="sans-serif" font-size="20" font-style="italic" lengthAdjust="spacing" textLength="105" x="475" y="1125.4336">«controller»</text><text fill="#000000" font-family="sans-serif" font-size="20" lengthAdjust="spacing" textLength="127" x="464" y="1150.5898">StaffController</text><rect fill="#E2E2F0" height="64.3125" rx="2.5" ry="2.5" style="stroke:#181818;stroke-width:0.5;" width="121" x="749" y="43.6094"/><text fill="#000000" font-family="sans-serif" font-size="20" font-style="italic" lengthAdjust="spacing" textLength="86" x="766.5" y="71.3711">«service»</text><text fill="#000000" font-family="sans-serif" font-size="20" lengthAdjust="spacing" textLength="107" x="756" y="96.5273">StaffService</text><rect fill="#E2E2F0" height="64.3125" rx="2.5" ry="2.5" style="stroke:#181818;stroke-width:0.5;" width="121" x="749" y="1097.6719"/><text fill="#000000" font-family="sans-serif" font-size="20" font-style="italic" lengthAdjust="spacing" textLength="86" x="766.5" y="1125.4336">«service»</text><text fill="#000000" font-family="sans-serif" font-size="20" lengthAdjust="spacing" textLength="107" x="756" y="1150.5898">StaffService</text><rect fill="#E2E2F0" height="64.3125" rx="2.5" ry="2.5" style="stroke:#181818;stroke-width:0.5;" width="151" x="1154" y="43.6094"/><text fill="#000000" font-family="sans-serif" font-size="20" font-style="italic" lengthAdjust="spacing" textLength="110" x="1174.5" y="71.3711">«repository»</text><text fill="#000000" font-family="sans-serif" font-size="20" lengthAdjust="spacing" textLength="137" x="1161" y="96.5273">StaffRepository</text><rect fill="#E2E2F0" height="64.3125" rx="2.5" ry="2.5" style="stroke:#181818;stroke-width:0.5;" width="151" x="1154" y="1097.6719"/><text fill="#000000" font-family="sans-serif" font-size="20" font-style="italic" lengthAdjust="spacing" textLength="110" x="1174.5" y="1125.4336">«repository»</text><text fill="#000000" font-family="sans-serif" font-size="20" lengthAdjust="spacing" textLength="137" x="1161" y="1150.5898">StaffRepository</text><rect fill="#E2E2F0" height="64.3125" rx="2.5" ry="2.5" style="stroke:#181818;stroke-width:0.5;" width="228" x="1315" y="43.6094"/><text fill="#000000" font-family="sans-serif" font-size="20" font-style="italic" lengthAdjust="spacing" textLength="110" x="1374" y="71.3711">«repository»</text><text fill="#000000" font-family="sans-serif" font-size="20" lengthAdjust="spacing" textLength="214" x="1322" y="96.5273">SpecializationRepository</text><rect fill="#E2E2F0" height="64.3125" rx="2.5" ry="2.5" style="stroke:#181818;stroke-width:0.5;" width="228" x="1315" y="1097.6719"/><text fill="#000000" font-family="sans-serif" font-size="20" font-style="italic" lengthAdjust="spacing" textLength="110" x="1374" y="1125.4336">«repository»</text><text fill="#000000" font-family="sans-serif" font-size="20" lengthAdjust="spacing" textLength="214" x="1322" y="1150.5898">SpecializationRepository</text><rect fill="#E2E2F0" height="64.3125" rx="2.5" ry="2.5" style="stroke:#181818;stroke-width:0.5;" width="102" x="1553" y="1097.6719"/><text fill="#000000" font-family="sans-serif" font-size="20" font-style="italic" lengthAdjust="spacing" textLength="88" x="1560" y="1125.4336">«domain»</text><text fill="#000000" font-family="sans-serif" font-size="20" lengthAdjust="spacing" textLength="42" x="1583" y="1150.5898">Staff</text><rect fill="#FFFFFF" height="938.5938" style="stroke:#181818;stroke-width:1.0;" width="10" x="206" y="150.0781"/><rect fill="#FFFFFF" height="694.6563" style="stroke:#181818;stroke-width:1.0;" width="10" x="522.5" y="264.5469"/><rect fill="#FFFFFF" height="616.3438" style="stroke:#181818;stroke-width:1.0;" width="10" x="804.5" y="303.7031"/><rect fill="#FFFFFF" height="119.3125" style="stroke:#181818;stroke-width:1.0;" width="10" x="809.5" y="596.1094"/><rect fill="#FFFFFF" height="39.1563" style="stroke:#181818;stroke-width:1.0;" width="10" x="1224.5" y="342.8594"/><rect fill="#FFFFFF" height="30" style="stroke:#181818;stroke-width:1.0;" width="10" x="1224.5" y="640.2656"/><rect fill="#FFFFFF" height="30" style="stroke:#181818;stroke-width:1.0;" width="10" x="1224.5" y="836.8906"/><rect fill="#FFFFFF" height="39.1563" style="stroke:#181818;stroke-width:1.0;" width="10" x="1424" y="465.4844"/><ellipse cx="7.5" cy="149.3281" fill="none" rx="4" ry="4" style="stroke:#181818;stroke-width:1.5;"/><polygon fill="#181818" points="194,146.0781,204,150.0781,194,154.0781,198,150.0781" style="stroke:#181818;stroke-width:1.0;"/><line style="stroke:#181818;stroke-width:1.0;" x1="12" x2="200" y1="150.0781" y2="150.0781"/><text fill="#000000" font-family="sans-serif" font-size="20" font-weight="bold" lengthAdjust="spacing" textLength="11" x="15" y="143.6836">1</text><text fill="#000000" font-family="sans-serif" font-size="20" lengthAdjust="spacing" textLength="103" x="30" y="143.6836">POST(json)</text><polygon fill="#181818" points="348,185.2344,358,189.2344,348,193.2344,352,189.2344" style="stroke:#181818;stroke-width:1.0;"/><line style="stroke:#181818;stroke-width:1.0;" x1="216" x2="354" y1="189.2344" y2="189.2344"/><text fill="#000000" font-family="sans-serif" font-size="20" font-weight="bold" lengthAdjust="spacing" textLength="11" x="223" y="182.8398">2</text><text fill="#000000" font-family="sans-serif" font-size="20" lengthAdjust="spacing" textLength="105" x="238" y="182.8398">create(json)</text><rect fill="#E2E2F0" height="64.3125" rx="2.5" ry="2.5" style="stroke:#181818;stroke-width:0.5;" width="87" x="360" y="158.0781"/><text fill="#000000" font-family="sans-serif" font-size="20" font-style="italic" lengthAdjust="spacing" textLength="49" x="379" y="185.8398">«dto»</text><text fill="#000000" font-family="sans-serif" font-size="20" lengthAdjust="spacing" textLength="73" x="367" y="210.9961">StaffDto</text><polygon fill="#181818" points="510.5,260.5469,520.5,264.5469,510.5,268.5469,514.5,264.5469" style="stroke:#181818;stroke-width:1.0;"/><line style="stroke:#181818;stroke-width:1.0;" x1="216" x2="516.5" y1="264.5469" y2="264.5469"/><text fill="#000000" font-family="sans-serif" font-size="20" font-weight="bold" lengthAdjust="spacing" textLength="11" x="223" y="258.1523">3</text><text fill="#000000" font-family="sans-serif" font-size="20" lengthAdjust="spacing" textLength="238" x="238" y="258.1523">createStaffProfile(staffDto)</text><polygon fill="#181818" points="792.5,299.7031,802.5,303.7031,792.5,307.7031,796.5,303.7031" style="stroke:#181818;stroke-width:1.0;"/><line style="stroke:#181818;stroke-width:1.0;" x1="532.5" x2="798.5" y1="303.7031" y2="303.7031"/><text fill="#000000" font-family="sans-serif" font-size="20" font-weight="bold" lengthAdjust="spacing" textLength="11" x="539.5" y="297.3086">4</text><text fill="#000000" font-family="sans-serif" font-size="20" lengthAdjust="spacing" textLength="238" x="554.5" y="297.3086">createStaffProfile(staffDto)</text><polygon fill="#181818" points="1212.5,338.8594,1222.5,342.8594,1212.5,346.8594,1216.5,342.8594" style="stroke:#181818;stroke-width:1.0;"/><line style="stroke:#181818;stroke-width:1.0;" x1="814.5" x2="1218.5" y1="342.8594" y2="342.8594"/><text fill="#000000" font-family="sans-serif" font-size="20" font-weight="bold" lengthAdjust="spacing" textLength="11" x="821.5" y="336.4648">5</text><text fill="#000000" font-family="sans-serif" font-size="20" lengthAdjust="spacing" textLength="376" x="836.5" y="336.4648">existsStaffWithEmailOrPhone(email,phone)</text><polygon fill="#181818" points="825.5,378.0156,815.5,382.0156,825.5,386.0156,821.5,382.0156" style="stroke:#181818;stroke-width:1.0;"/><line style="stroke:#181818;stroke-width:1.0;stroke-dasharray:2.0,2.0;" x1="819.5" x2="1228.5" y1="382.0156" y2="382.0156"/><text fill="#000000" font-family="sans-serif" font-size="20" font-weight="bold" lengthAdjust="spacing" textLength="11" x="831.5" y="375.6211">6</text><text fill="#000000" font-family="sans-serif" font-size="20" lengthAdjust="spacing" textLength="69" x="846.5" y="375.6211">boolean</text><path d="M729,397.0156 L797,397.0156 L797,414.1719 L787,424.1719 L729,424.1719 L729,397.0156 " fill="#EEEEEE" style="stroke:#000000;stroke-width:1.5;"/><rect fill="none" height="484.875" style="stroke:#000000;stroke-width:1.5;" width="946" x="729" y="397.0156"/><text fill="#000000" font-family="sans-serif" font-size="20" font-weight="bold" lengthAdjust="spacing" textLength="23" x="744" y="418.7773">alt</text><text fill="#000000" font-family="sans-serif" font-size="20" font-weight="bold" lengthAdjust="spacing" textLength="59" x="812" y="419.7773">[false]</text><polygon fill="#181818" points="1412,461.4844,1422,465.4844,1412,469.4844,1416,465.4844" style="stroke:#181818;stroke-width:1.0;"/><line style="stroke:#181818;stroke-width:1.0;" x1="814.5" x2="1418" y1="465.4844" y2="465.4844"/><text fill="#000000" font-family="sans-serif" font-size="20" font-weight="bold" lengthAdjust="spacing" textLength="11" x="821.5" y="459.0898">7</text><text fill="#000000" font-family="sans-serif" font-size="20" lengthAdjust="spacing" textLength="353" x="836.5" y="459.0898">findByName(specializationDenomination)</text><polygon fill="#181818" points="825.5,500.6406,815.5,504.6406,825.5,508.6406,821.5,504.6406" style="stroke:#181818;stroke-width:1.0;"/><line style="stroke:#181818;stroke-width:1.0;stroke-dasharray:2.0,2.0;" x1="819.5" x2="1428" y1="504.6406" y2="504.6406"/><text fill="#000000" font-family="sans-serif" font-size="20" font-weight="bold" lengthAdjust="spacing" textLength="11" x="831.5" y="498.2461">8</text><text fill="#000000" font-family="sans-serif" font-size="20" lengthAdjust="spacing" textLength="116" x="846.5" y="498.2461">specialization</text><path d="M739,519.6406 L807,519.6406 L807,536.7969 L797,546.7969 L739,546.7969 L739,519.6406 " fill="#EEEEEE" style="stroke:#000000;stroke-width:1.5;"/><rect fill="none" height="355.25" style="stroke:#000000;stroke-width:1.5;" width="926" x="739" y="519.6406"/><text fill="#000000" font-family="sans-serif" font-size="20" font-weight="bold" lengthAdjust="spacing" textLength="23" x="754" y="541.4023">alt</text><text fill="#000000" font-family="sans-serif" font-size="20" font-weight="bold" lengthAdjust="spacing" textLength="193" x="822" y="542.4023">[specialization exits]</text><line style="stroke:#181818;stroke-width:1.0;" x1="814.5" x2="861.5" y1="583.1094" y2="583.1094"/><line style="stroke:#181818;stroke-width:1.0;" x1="861.5" x2="861.5" y1="583.1094" y2="596.1094"/><line style="stroke:#181818;stroke-width:1.0;" x1="820.5" x2="861.5" y1="596.1094" y2="596.1094"/><polygon fill="#181818" points="830.5,592.1094,820.5,596.1094,830.5,600.1094,826.5,596.1094" style="stroke:#181818;stroke-width:1.0;"/><text fill="#000000" font-family="sans-serif" font-size="20" font-weight="bold" lengthAdjust="spacing" textLength="11" x="826.5" y="576.7148">9</text><text fill="#000000" font-family="sans-serif" font-size="20" lengthAdjust="spacing" textLength="218" x="841.5" y="576.7148">generateStaffId(function)</text><polygon fill="#181818" points="1212.5,636.2656,1222.5,640.2656,1212.5,644.2656,1216.5,640.2656" style="stroke:#181818;stroke-width:1.0;"/><line style="stroke:#181818;stroke-width:1.0;" x1="819.5" x2="1218.5" y1="640.2656" y2="640.2656"/><text fill="#000000" font-family="sans-serif" font-size="20" font-weight="bold" lengthAdjust="spacing" textLength="22" x="826.5" y="633.8711">10</text><text fill="#000000" font-family="sans-serif" font-size="20" lengthAdjust="spacing" textLength="263" x="852.5" y="633.8711">lastStaffIdSequentialNumber()</text><line style="stroke:#181818;stroke-width:1.0;stroke-dasharray:2.0,2.0;" x1="819.5" x2="861.5" y1="714.4219" y2="714.4219"/><line style="stroke:#181818;stroke-width:1.0;stroke-dasharray:2.0,2.0;" x1="861.5" x2="861.5" y1="714.4219" y2="727.4219"/><line style="stroke:#181818;stroke-width:1.0;stroke-dasharray:2.0,2.0;" x1="814.5" x2="861.5" y1="727.4219" y2="727.4219"/><polygon fill="#181818" points="824.5,723.4219,814.5,727.4219,824.5,731.4219,820.5,727.4219" style="stroke:#181818;stroke-width:1.0;"/><text fill="#000000" font-family="sans-serif" font-size="20" font-weight="bold" lengthAdjust="spacing" textLength="22" x="826.5" y="708.0273">11</text><text fill="#000000" font-family="sans-serif" font-size="20" lengthAdjust="spacing" textLength="56" x="852.5" y="708.0273">staffId</text><polygon fill="#181818" points="1541,782.7344,1551,786.7344,1541,790.7344,1545,786.7344" style="stroke:#181818;stroke-width:1.0;"/><line style="stroke:#181818;stroke-width:1.0;" x1="814.5" x2="1547" y1="786.7344" y2="786.7344"/><text fill="#000000" font-family="sans-serif" font-size="20" font-weight="bold" lengthAdjust="spacing" textLength="22" x="821.5" y="767.7617">12</text><text fill="#000000" font-family="sans-serif" font-size="20" lengthAdjust="spacing" textLength="414" x="847.5" y="755.1836">create(staffId,firstName,lastName,email,phone,</text><text fill="#000000" font-family="sans-serif" font-size="20" lengthAdjust="spacing" textLength="330" x="847.5" y="780.3398">specialization,licenseNumber,function)</text><rect fill="#E2E2F0" height="64.3125" rx="2.5" ry="2.5" style="stroke:#181818;stroke-width:0.5;" width="102" x="1553" y="730.4219"/><text fill="#000000" font-family="sans-serif" font-size="20" font-style="italic" lengthAdjust="spacing" textLength="88" x="1560" y="758.1836">«domain»</text><text fill="#000000" font-family="sans-serif" font-size="20" lengthAdjust="spacing" textLength="42" x="1583" y="783.3398">Staff</text><polygon fill="#181818" points="1212.5,832.8906,1222.5,836.8906,1212.5,840.8906,1216.5,836.8906" style="stroke:#181818;stroke-width:1.0;"/><line style="stroke:#181818;stroke-width:1.0;" x1="814.5" x2="1218.5" y1="836.8906" y2="836.8906"/><text fill="#000000" font-family="sans-serif" font-size="20" font-weight="bold" lengthAdjust="spacing" textLength="22" x="821.5" y="830.4961">13</text><text fill="#000000" font-family="sans-serif" font-size="20" lengthAdjust="spacing" textLength="94" x="847.5" y="830.4961">save(staff)</text><polygon fill="#181818" points="543.5,916.0469,533.5,920.0469,543.5,924.0469,539.5,920.0469" style="stroke:#181818;stroke-width:1.0;"/><line style="stroke:#181818;stroke-width:1.0;stroke-dasharray:2.0,2.0;" x1="537.5" x2="808.5" y1="920.0469" y2="920.0469"/><text fill="#000000" font-family="sans-serif" font-size="20" font-weight="bold" lengthAdjust="spacing" textLength="22" x="549.5" y="913.6523">14</text><text fill="#000000" font-family="sans-serif" font-size="20" lengthAdjust="spacing" textLength="71" x="575.5" y="913.6523">success</text><polygon fill="#181818" points="227,955.2031,217,959.2031,227,963.2031,223,959.2031" style="stroke:#181818;stroke-width:1.0;"/><line style="stroke:#181818;stroke-width:1.0;stroke-dasharray:2.0,2.0;" x1="221" x2="526.5" y1="959.2031" y2="959.2031"/><text fill="#000000" font-family="sans-serif" font-size="20" font-weight="bold" lengthAdjust="spacing" textLength="22" x="233" y="952.8086">15</text><text fill="#000000" font-family="sans-serif" font-size="20" lengthAdjust="spacing" textLength="71" x="259" y="952.8086">success</text><path d="M11,974.2031 L79,974.2031 L79,991.3594 L69,1001.3594 L11,1001.3594 L11,974.2031 " fill="#EEEEEE" style="stroke:#000000;stroke-width:1.5;"/><rect fill="none" height="107.4688" style="stroke:#000000;stroke-width:1.5;" width="264" x="11" y="974.2031"/><text fill="#000000" font-family="sans-serif" font-size="20" font-weight="bold" lengthAdjust="spacing" textLength="23" x="26" y="995.9648">alt</text><ellipse cx="7.5" cy="1031.7656" fill="none" rx="4" ry="4" style="stroke:#181818;stroke-width:1.5;"/><polygon fill="#181818" points="24.5,1028.5156,14.5,1032.5156,24.5,1036.5156,20.5,1032.5156" style="stroke:#181818;stroke-width:1.0;"/><line style="stroke:#181818;stroke-width:1.0;stroke-dasharray:2.0,2.0;" x1="22.5" x2="205" y1="1032.5156" y2="1032.5156"/><text fill="#000000" font-family="sans-serif" font-size="20" font-weight="bold" lengthAdjust="spacing" textLength="22" x="25" y="1026.1211">16</text><text fill="#000000" font-family="sans-serif" font-size="20" lengthAdjust="spacing" textLength="110" x="51" y="1026.1211">201 Created</text><line style="stroke:#000000;stroke-width:1.0;stroke-dasharray:2.0,2.0;" x1="11" x2="275" y1="1041.5156" y2="1041.5156"/><ellipse cx="7.5" cy="1072.9219" fill="none" rx="4" ry="4" style="stroke:#181818;stroke-width:1.5;"/><polygon fill="#181818" points="24.5,1069.6719,14.5,1073.6719,24.5,1077.6719,20.5,1073.6719" style="stroke:#181818;stroke-width:1.0;"/><line style="stroke:#181818;stroke-width:1.0;stroke-dasharray:2.0,2.0;" x1="22.5" x2="205" y1="1073.6719" y2="1073.6719"/><text fill="#000000" font-family="sans-serif" font-size="20" font-weight="bold" lengthAdjust="spacing" textLength="22" x="25" y="1067.2773">17</text><text fill="#000000" font-family="sans-serif" font-size="20" lengthAdjust="spacing" textLength="153" x="51" y="1067.2773">400 Bad Request</text><!--SRC=[ZLHDRzf04BtlhnXnef51GDiBGXn2g5Gf2WYJz91MqSOUDziikwvtJ9ly-ku7nX-nsbx0hD-Rz-RDBEPPg9mN_21ryemff9ZnKj8dhIWMhmYp2MCaI28CRcFuE9wEfxCnZ61Rw0IDWJk1l-3-6eyeuVst0MEy9AtAmoCMpDObaOYSAu91J3pBThea700tiDlSxjUmM1JkPBdimLwHziYSqqDAscBjPozoPSqMMaeiF66rtrrRT78-xIN5M1n54ip4TojBCE6a5xt3N1j1kdW9xjVRZJD_Fdr3oZ4HN8fNJaAh7lP3l5sl_bx2wLO9kExrWGjbKOpTwz4o93Y7xIRU3tyOhTundf0uSiBmYh6GiOLM4LvSp24fq49EZ1hYGgjUUcKxu4n879hJB1hb7POn7xDbsl3-bsYXZBcmdNqNuHpmjp1aFF6BeAUrxL5kYksJLZX4zoFAtNEpEKjadZqAwhRAezOIkM8fjc6CIuACIuCjtH3-73AXqikN6twmRbi3kqAb3qBvvuwqvxAwIcsYNQBh9V2yeJRGHK3cxC_7-HqL5bMWdzDXLggauwMRvHmaDtGYnFYpH4LMvCPVnM4tlpT1-KgLl0bLcgYcdDl7nYgTq54c2aCkpCWvyG-D2KPVLRllIDhBfWm6Xr7TOcT333-UDFxP1AeKRC3dxtDNORjDcRZ_h6vROP7h6zK32nllPkSkts8qgh2poHHMFeRKojizwm8-J2PmoLFOkOaOgZsst3li7m00]--></g></svg>