<?xml version="1.0" encoding="us-ascii" standalone="no"?><svg xmlns="http://www.w3.org/2000/svg" xmlns:xlink="http://www.w3.org/1999/xlink" contentStyleType="text/css" height="1028px" preserveAspectRatio="none" style="width:1830px;height:1028px;background:#FFFFFF;" version="1.1" viewBox="0 0 1830 1028" width="1830px" zoomAndPan="magnify"><defs/><g><text fill="#000000" font-family="sans-serif" font-size="14" font-weight="bold" lengthAdjust="spacing" textLength="606" x="613.5" y="30.1074">US 6.2.11. Process View - Confirm Contact Information Change (Level 3 | MDBackoffice)</text><rect fill="#FFFFFF" height="823.6934" style="stroke:#181818;stroke-width:1.0;" width="10" x="188" y="130.1543"/><rect fill="#FFFFFF" height="761.1113" style="stroke:#181818;stroke-width:1.0;" width="10" x="497" y="161.4453"/><rect fill="#FFFFFF" height="681.2383" style="stroke:#181818;stroke-width:1.0;" width="10" x="765" y="192.7363"/><rect fill="#FFFFFF" height="31.291" style="stroke:#181818;stroke-width:1.0;" width="10" x="907" y="224.0273"/><rect fill="#FFFFFF" height="556.0742" style="stroke:#181818;stroke-width:1.0;" width="10" x="1093" y="286.6094"/><rect fill="#FFFFFF" height="255.3281" style="stroke:#181818;stroke-width:1.0;" width="10" x="1098" y="325.9004"/><rect fill="#FFFFFF" height="28" style="stroke:#181818;stroke-width:1.0;" width="10" x="1098" y="681.8105"/><rect fill="#FFFFFF" height="30" style="stroke:#181818;stroke-width:1.0;" width="10" x="1359" y="612.5195"/><rect fill="#FFFFFF" height="156.4551" style="stroke:#181818;stroke-width:1.0;" width="10" x="1451.5" y="424.7734"/><rect fill="#FFFFFF" height="31.291" style="stroke:#181818;stroke-width:1.0;" width="10" x="1685.5" y="362.1914"/><rect fill="#FFFFFF" height="31.291" style="stroke:#181818;stroke-width:1.0;" width="10" x="1685.5" y="456.0645"/><rect fill="#FFFFFF" height="31.291" style="stroke:#181818;stroke-width:1.0;" width="10" x="1685.5" y="518.6465"/><rect fill="#FFFFFF" height="30" style="stroke:#181818;stroke-width:1.0;" width="10" x="1777" y="774.3926"/><rect fill="none" height="80.582" style="stroke:#000000;stroke-width:1.5;" width="781" x="1043" y="731.8105"/><line style="stroke:#181818;stroke-width:0.5;stroke-dasharray:5.0,5.0;" x1="192.5" x2="192.5" y1="96.8633" y2="971.8477"/><line style="stroke:#181818;stroke-width:0.5;stroke-dasharray:5.0,5.0;" x1="501.5" x2="501.5" y1="96.8633" y2="971.8477"/><line style="stroke:#181818;stroke-width:0.5;stroke-dasharray:5.0,5.0;" x1="770" x2="770" y1="96.8633" y2="971.8477"/><line style="stroke:#181818;stroke-width:0.5;stroke-dasharray:5.0,5.0;" x1="911.5" x2="911.5" y1="96.8633" y2="971.8477"/><line style="stroke:#181818;stroke-width:0.5;stroke-dasharray:5.0,5.0;" x1="1098" x2="1098" y1="96.8633" y2="971.8477"/><line style="stroke:#181818;stroke-width:0.5;stroke-dasharray:5.0,5.0;" x1="1364" x2="1364" y1="96.8633" y2="971.8477"/><line style="stroke:#181818;stroke-width:0.5;stroke-dasharray:5.0,5.0;" x1="1456" x2="1456" y1="96.8633" y2="971.8477"/><line style="stroke:#181818;stroke-width:0.5;stroke-dasharray:5.0,5.0;" x1="1690" x2="1690" y1="96.8633" y2="971.8477"/><line style="stroke:#181818;stroke-width:0.5;stroke-dasharray:5.0,5.0;" x1="1782" x2="1782" y1="96.8633" y2="971.8477"/><rect fill="#E2E2F0" height="51.2422" rx="2.5" ry="2.5" style="stroke:#181818;stroke-width:0.5;" width="105" x="140.5" y="44.6211"/><text fill="#000000" font-family="sans-serif" font-size="14" lengthAdjust="spacing" textLength="37" x="174.5" y="66.7285">route:</text><text fill="#000000" font-family="sans-serif" font-size="14" lengthAdjust="spacing" textLength="91" x="147.5" y="85.3496">EditStaffRoute</text><rect fill="#E2E2F0" height="51.2422" rx="2.5" ry="2.5" style="stroke:#181818;stroke-width:0.5;" width="105" x="140.5" y="970.8477"/><text fill="#000000" font-family="sans-serif" font-size="14" lengthAdjust="spacing" textLength="37" x="174.5" y="992.9551">route:</text><text fill="#000000" font-family="sans-serif" font-size="14" lengthAdjust="spacing" textLength="91" x="147.5" y="1011.5762">EditStaffRoute</text><rect fill="#E2E2F0" height="51.2422" rx="2.5" ry="2.5" style="stroke:#181818;stroke-width:0.5;" width="105" x="449.5" y="44.6211"/><text fill="#000000" font-family="sans-serif" font-size="14" lengthAdjust="spacing" textLength="63" x="470.5" y="66.7285">controller:</text><text fill="#000000" font-family="sans-serif" font-size="14" lengthAdjust="spacing" textLength="91" x="456.5" y="85.3496">StaffController</text><rect fill="#E2E2F0" height="51.2422" rx="2.5" ry="2.5" style="stroke:#181818;stroke-width:0.5;" width="105" x="449.5" y="970.8477"/><text fill="#000000" font-family="sans-serif" font-size="14" lengthAdjust="spacing" textLength="63" x="470.5" y="992.9551">controller:</text><text fill="#000000" font-family="sans-serif" font-size="14" lengthAdjust="spacing" textLength="91" x="456.5" y="1011.5762">StaffController</text><rect fill="#E2E2F0" height="51.2422" rx="2.5" ry="2.5" style="stroke:#181818;stroke-width:0.5;" width="90" x="725" y="44.6211"/><text fill="#000000" font-family="sans-serif" font-size="14" lengthAdjust="spacing" textLength="49" x="745.5" y="66.7285">service:</text><text fill="#000000" font-family="sans-serif" font-size="14" lengthAdjust="spacing" textLength="76" x="732" y="85.3496">StaffService</text><rect fill="#E2E2F0" height="51.2422" rx="2.5" ry="2.5" style="stroke:#181818;stroke-width:0.5;" width="90" x="725" y="970.8477"/><text fill="#000000" font-family="sans-serif" font-size="14" lengthAdjust="spacing" textLength="49" x="745.5" y="992.9551">service:</text><text fill="#000000" font-family="sans-serif" font-size="14" lengthAdjust="spacing" textLength="76" x="732" y="1011.5762">StaffService</text><rect fill="#E2E2F0" height="51.2422" rx="2.5" ry="2.5" style="stroke:#181818;stroke-width:0.5;" width="81" x="871.5" y="44.6211"/><text fill="#000000" font-family="sans-serif" font-size="14" lengthAdjust="spacing" textLength="67" x="878.5" y="66.7285">repository:</text><text fill="#000000" font-family="sans-serif" font-size="14" lengthAdjust="spacing" textLength="63" x="880.5" y="85.3496">StaffRepo</text><rect fill="#E2E2F0" height="51.2422" rx="2.5" ry="2.5" style="stroke:#181818;stroke-width:0.5;" width="81" x="871.5" y="970.8477"/><text fill="#000000" font-family="sans-serif" font-size="14" lengthAdjust="spacing" textLength="67" x="878.5" y="992.9551">repository:</text><text fill="#000000" font-family="sans-serif" font-size="14" lengthAdjust="spacing" textLength="63" x="880.5" y="1011.5762">StaffRepo</text><rect fill="#E2E2F0" height="51.2422" rx="2.5" ry="2.5" style="stroke:#181818;stroke-width:0.5;" width="90" x="1053" y="44.6211"/><text fill="#000000" font-family="sans-serif" font-size="14" lengthAdjust="spacing" textLength="49" x="1073.5" y="66.7285">service:</text><text fill="#000000" font-family="sans-serif" font-size="14" lengthAdjust="spacing" textLength="76" x="1060" y="85.3496">UserService</text><rect fill="#E2E2F0" height="51.2422" rx="2.5" ry="2.5" style="stroke:#181818;stroke-width:0.5;" width="90" x="1053" y="970.8477"/><text fill="#000000" font-family="sans-serif" font-size="14" lengthAdjust="spacing" textLength="49" x="1073.5" y="992.9551">service:</text><text fill="#000000" font-family="sans-serif" font-size="14" lengthAdjust="spacing" textLength="76" x="1060" y="1011.5762">UserService</text><rect fill="#E2E2F0" height="51.2422" rx="2.5" ry="2.5" style="stroke:#181818;stroke-width:0.5;" width="64" x="1332" y="44.6211"/><text fill="#000000" font-family="sans-serif" font-size="14" lengthAdjust="spacing" textLength="50" x="1339" y="66.7285">domain:</text><text fill="#000000" font-family="sans-serif" font-size="14" lengthAdjust="spacing" textLength="29" x="1349.5" y="85.3496">User</text><rect fill="#E2E2F0" height="51.2422" rx="2.5" ry="2.5" style="stroke:#181818;stroke-width:0.5;" width="64" x="1332" y="970.8477"/><text fill="#000000" font-family="sans-serif" font-size="14" lengthAdjust="spacing" textLength="50" x="1339" y="992.9551">domain:</text><text fill="#000000" font-family="sans-serif" font-size="14" lengthAdjust="spacing" textLength="29" x="1349.5" y="1011.5762">User</text><rect fill="#E2E2F0" height="51.2422" rx="2.5" ry="2.5" style="stroke:#181818;stroke-width:0.5;" width="101" x="1406" y="44.6211"/><text fill="#000000" font-family="sans-serif" font-size="14" lengthAdjust="spacing" textLength="49" x="1432" y="66.7285">service:</text><text fill="#000000" font-family="sans-serif" font-size="14" lengthAdjust="spacing" textLength="87" x="1413" y="85.3496">TokenService</text><rect fill="#E2E2F0" height="51.2422" rx="2.5" ry="2.5" style="stroke:#181818;stroke-width:0.5;" width="101" x="1406" y="970.8477"/><text fill="#000000" font-family="sans-serif" font-size="14" lengthAdjust="spacing" textLength="49" x="1432" y="992.9551">service:</text><text fill="#000000" font-family="sans-serif" font-size="14" lengthAdjust="spacing" textLength="87" x="1413" y="1011.5762">TokenService</text><rect fill="#E2E2F0" height="51.2422" rx="2.5" ry="2.5" style="stroke:#181818;stroke-width:0.5;" width="99" x="1641" y="44.6211"/><text fill="#000000" font-family="sans-serif" font-size="14" lengthAdjust="spacing" textLength="49" x="1666" y="66.7285">service:</text><text fill="#000000" font-family="sans-serif" font-size="14" lengthAdjust="spacing" textLength="85" x="1648" y="85.3496">UserManager</text><rect fill="#E2E2F0" height="51.2422" rx="2.5" ry="2.5" style="stroke:#181818;stroke-width:0.5;" width="99" x="1641" y="970.8477"/><text fill="#000000" font-family="sans-serif" font-size="14" lengthAdjust="spacing" textLength="49" x="1666" y="992.9551">service:</text><text fill="#000000" font-family="sans-serif" font-size="14" lengthAdjust="spacing" textLength="85" x="1648" y="1011.5762">UserManager</text><rect fill="#E2E2F0" height="51.2422" rx="2.5" ry="2.5" style="stroke:#181818;stroke-width:0.5;" width="64" x="1750" y="44.6211"/><text fill="#000000" font-family="sans-serif" font-size="14" lengthAdjust="spacing" textLength="50" x="1757" y="66.7285">domain:</text><text fill="#000000" font-family="sans-serif" font-size="14" lengthAdjust="spacing" textLength="29" x="1767.5" y="85.3496">Staff</text><rect fill="#E2E2F0" height="51.2422" rx="2.5" ry="2.5" style="stroke:#181818;stroke-width:0.5;" width="64" x="1750" y="970.8477"/><text fill="#000000" font-family="sans-serif" font-size="14" lengthAdjust="spacing" textLength="50" x="1757" y="992.9551">domain:</text><text fill="#000000" font-family="sans-serif" font-size="14" lengthAdjust="spacing" textLength="29" x="1767.5" y="1011.5762">Staff</text><rect fill="#FFFFFF" height="823.6934" style="stroke:#181818;stroke-width:1.0;" width="10" x="188" y="130.1543"/><rect fill="#FFFFFF" height="761.1113" style="stroke:#181818;stroke-width:1.0;" width="10" x="497" y="161.4453"/><rect fill="#FFFFFF" height="681.2383" style="stroke:#181818;stroke-width:1.0;" width="10" x="765" y="192.7363"/><rect fill="#FFFFFF" height="31.291" style="stroke:#181818;stroke-width:1.0;" width="10" x="907" y="224.0273"/><rect fill="#FFFFFF" height="556.0742" style="stroke:#181818;stroke-width:1.0;" width="10" x="1093" y="286.6094"/><rect fill="#FFFFFF" height="255.3281" style="stroke:#181818;stroke-width:1.0;" width="10" x="1098" y="325.9004"/><rect fill="#FFFFFF" height="28" style="stroke:#181818;stroke-width:1.0;" width="10" x="1098" y="681.8105"/><rect fill="#FFFFFF" height="30" style="stroke:#181818;stroke-width:1.0;" width="10" x="1359" y="612.5195"/><rect fill="#FFFFFF" height="156.4551" style="stroke:#181818;stroke-width:1.0;" width="10" x="1451.5" y="424.7734"/><rect fill="#FFFFFF" height="31.291" style="stroke:#181818;stroke-width:1.0;" width="10" x="1685.5" y="362.1914"/><rect fill="#FFFFFF" height="31.291" style="stroke:#181818;stroke-width:1.0;" width="10" x="1685.5" y="456.0645"/><rect fill="#FFFFFF" height="31.291" style="stroke:#181818;stroke-width:1.0;" width="10" x="1685.5" y="518.6465"/><rect fill="#FFFFFF" height="30" style="stroke:#181818;stroke-width:1.0;" width="10" x="1777" y="774.3926"/><ellipse cx="7.5" cy="129.4043" fill="none" rx="4" ry="4" style="stroke:#181818;stroke-width:1.5;"/><polygon fill="#181818" points="176,126.1543,186,130.1543,176,134.1543,180,130.1543" style="stroke:#181818;stroke-width:1.0;"/><line style="stroke:#181818;stroke-width:1.0;" x1="12" x2="182" y1="130.1543" y2="130.1543"/><text fill="#000000" font-family="sans-serif" font-size="13" font-weight="bold" lengthAdjust="spacing" textLength="7" x="15" y="124.8916">1</text><text fill="#000000" font-family="sans-serif" font-size="13" lengthAdjust="spacing" textLength="150" x="26" y="124.8916">PUT(userId, staffId, token)</text><polygon fill="#181818" points="485,157.4453,495,161.4453,485,165.4453,489,161.4453" style="stroke:#181818;stroke-width:1.0;"/><line style="stroke:#181818;stroke-width:1.0;" x1="198" x2="491" y1="161.4453" y2="161.4453"/><text fill="#000000" font-family="sans-serif" font-size="13" font-weight="bold" lengthAdjust="spacing" textLength="7" x="205" y="156.1826">2</text><text fill="#000000" font-family="sans-serif" font-size="13" lengthAdjust="spacing" textLength="228" x="216" y="156.1826">ConfirmEmailStaff(userId, staffId, token)</text><polygon fill="#181818" points="753,188.7363,763,192.7363,753,196.7363,757,192.7363" style="stroke:#181818;stroke-width:1.0;"/><line style="stroke:#181818;stroke-width:1.0;" x1="507" x2="759" y1="192.7363" y2="192.7363"/><text fill="#000000" font-family="sans-serif" font-size="13" font-weight="bold" lengthAdjust="spacing" textLength="7" x="514" y="187.4736">3</text><text fill="#000000" font-family="sans-serif" font-size="13" lengthAdjust="spacing" textLength="228" x="525" y="187.4736">ConfirmEmailStaff(userId, staffId, token)</text><polygon fill="#181818" points="895,220.0273,905,224.0273,895,228.0273,899,224.0273" style="stroke:#181818;stroke-width:1.0;"/><line style="stroke:#181818;stroke-width:1.0;" x1="775" x2="901" y1="224.0273" y2="224.0273"/><text fill="#000000" font-family="sans-serif" font-size="13" font-weight="bold" lengthAdjust="spacing" textLength="7" x="782" y="218.7646">4</text><text fill="#000000" font-family="sans-serif" font-size="13" lengthAdjust="spacing" textLength="102" x="793" y="218.7646">GetByIdAsync(id)</text><polygon fill="#181818" points="786,251.3184,776,255.3184,786,259.3184,782,255.3184" style="stroke:#181818;stroke-width:1.0;"/><line style="stroke:#181818;stroke-width:1.0;stroke-dasharray:2.0,2.0;" x1="780" x2="911" y1="255.3184" y2="255.3184"/><text fill="#000000" font-family="sans-serif" font-size="13" font-weight="bold" lengthAdjust="spacing" textLength="7" x="792" y="250.0557">5</text><text fill="#000000" font-family="sans-serif" font-size="13" lengthAdjust="spacing" textLength="24" x="803" y="250.0557">staff</text><polygon fill="#181818" points="1081,282.6094,1091,286.6094,1081,290.6094,1085,286.6094" style="stroke:#181818;stroke-width:1.0;"/><line style="stroke:#181818;stroke-width:1.0;" x1="775" x2="1087" y1="286.6094" y2="286.6094"/><text fill="#000000" font-family="sans-serif" font-size="13" font-weight="bold" lengthAdjust="spacing" textLength="7" x="782" y="281.3467">6</text><text fill="#000000" font-family="sans-serif" font-size="13" lengthAdjust="spacing" textLength="288" x="793" y="281.3467">ConfirmEmailStaffWithoutPassword(userId, token)</text><line style="stroke:#181818;stroke-width:1.0;" x1="1103" x2="1150" y1="312.9004" y2="312.9004"/><line style="stroke:#181818;stroke-width:1.0;" x1="1150" x2="1150" y1="312.9004" y2="325.9004"/><line style="stroke:#181818;stroke-width:1.0;" x1="1109" x2="1150" y1="325.9004" y2="325.9004"/><polygon fill="#181818" points="1119,321.9004,1109,325.9004,1119,329.9004,1115,325.9004" style="stroke:#181818;stroke-width:1.0;"/><text fill="#000000" font-family="sans-serif" font-size="13" font-weight="bold" lengthAdjust="spacing" textLength="7" x="1115" y="307.6377">7</text><text fill="#000000" font-family="sans-serif" font-size="13" lengthAdjust="spacing" textLength="231" x="1126" y="307.6377">ConfirmEmailVerifications(userId, token)</text><polygon fill="#181818" points="1673.5,358.1914,1683.5,362.1914,1673.5,366.1914,1677.5,362.1914" style="stroke:#181818;stroke-width:1.0;"/><line style="stroke:#181818;stroke-width:1.0;" x1="1108" x2="1679.5" y1="362.1914" y2="362.1914"/><text fill="#000000" font-family="sans-serif" font-size="13" font-weight="bold" lengthAdjust="spacing" textLength="7" x="1115" y="356.9287">8</text><text fill="#000000" font-family="sans-serif" font-size="13" lengthAdjust="spacing" textLength="126" x="1126" y="356.9287">findByIdAsync(userId)</text><polygon fill="#181818" points="1119,389.4824,1109,393.4824,1119,397.4824,1115,393.4824" style="stroke:#181818;stroke-width:1.0;"/><line style="stroke:#181818;stroke-width:1.0;stroke-dasharray:2.0,2.0;" x1="1113" x2="1689.5" y1="393.4824" y2="393.4824"/><text fill="#000000" font-family="sans-serif" font-size="13" font-weight="bold" lengthAdjust="spacing" textLength="7" x="1125" y="388.2197">9</text><text fill="#000000" font-family="sans-serif" font-size="13" lengthAdjust="spacing" textLength="25" x="1136" y="388.2197">user</text><polygon fill="#181818" points="1439.5,420.7734,1449.5,424.7734,1439.5,428.7734,1443.5,424.7734" style="stroke:#181818;stroke-width:1.0;"/><line style="stroke:#181818;stroke-width:1.0;" x1="1108" x2="1445.5" y1="424.7734" y2="424.7734"/><text fill="#000000" font-family="sans-serif" font-size="13" font-weight="bold" lengthAdjust="spacing" textLength="14" x="1115" y="419.5107">10</text><text fill="#000000" font-family="sans-serif" font-size="13" lengthAdjust="spacing" textLength="195" x="1133" y="419.5107">ConfirmEmailToken(userId, token)</text><polygon fill="#181818" points="1673.5,452.0645,1683.5,456.0645,1673.5,460.0645,1677.5,456.0645" style="stroke:#181818;stroke-width:1.0;"/><line style="stroke:#181818;stroke-width:1.0;" x1="1461.5" x2="1679.5" y1="456.0645" y2="456.0645"/><text fill="#000000" font-family="sans-serif" font-size="13" font-weight="bold" lengthAdjust="spacing" textLength="14" x="1468.5" y="450.8018">11</text><text fill="#000000" font-family="sans-serif" font-size="13" lengthAdjust="spacing" textLength="126" x="1486.5" y="450.8018">findByIdAsync(userId)</text><polygon fill="#181818" points="1472.5,483.3555,1462.5,487.3555,1472.5,491.3555,1468.5,487.3555" style="stroke:#181818;stroke-width:1.0;"/><line style="stroke:#181818;stroke-width:1.0;stroke-dasharray:2.0,2.0;" x1="1466.5" x2="1689.5" y1="487.3555" y2="487.3555"/><text fill="#000000" font-family="sans-serif" font-size="13" font-weight="bold" lengthAdjust="spacing" textLength="14" x="1478.5" y="482.0928">12</text><text fill="#000000" font-family="sans-serif" font-size="13" lengthAdjust="spacing" textLength="25" x="1496.5" y="482.0928">user</text><polygon fill="#181818" points="1673.5,514.6465,1683.5,518.6465,1673.5,522.6465,1677.5,518.6465" style="stroke:#181818;stroke-width:1.0;"/><line style="stroke:#181818;stroke-width:1.0;" x1="1461.5" x2="1679.5" y1="518.6465" y2="518.6465"/><text fill="#000000" font-family="sans-serif" font-size="13" font-weight="bold" lengthAdjust="spacing" textLength="14" x="1468.5" y="513.3838">13</text><text fill="#000000" font-family="sans-serif" font-size="13" lengthAdjust="spacing" textLength="187" x="1486.5" y="513.3838">ConfirmEmailAsync(user, token)</text><polygon fill="#181818" points="1472.5,545.9375,1462.5,549.9375,1472.5,553.9375,1468.5,549.9375" style="stroke:#181818;stroke-width:1.0;"/><line style="stroke:#181818;stroke-width:1.0;stroke-dasharray:2.0,2.0;" x1="1466.5" x2="1689.5" y1="549.9375" y2="549.9375"/><text fill="#000000" font-family="sans-serif" font-size="13" font-weight="bold" lengthAdjust="spacing" textLength="14" x="1478.5" y="544.6748">14</text><text fill="#000000" font-family="sans-serif" font-size="13" lengthAdjust="spacing" textLength="32" x="1496.5" y="544.6748">result</text><polygon fill="#181818" points="1114,577.2285,1104,581.2285,1114,585.2285,1110,581.2285" style="stroke:#181818;stroke-width:1.0;"/><line style="stroke:#181818;stroke-width:1.0;stroke-dasharray:2.0,2.0;" x1="1108" x2="1455.5" y1="581.2285" y2="581.2285"/><text fill="#000000" font-family="sans-serif" font-size="13" font-weight="bold" lengthAdjust="spacing" textLength="14" x="1120" y="575.9658">15</text><text fill="#000000" font-family="sans-serif" font-size="13" lengthAdjust="spacing" textLength="32" x="1138" y="575.9658">result</text><polygon fill="#181818" points="1347,608.5195,1357,612.5195,1347,616.5195,1351,612.5195" style="stroke:#181818;stroke-width:1.0;"/><line style="stroke:#181818;stroke-width:1.0;" x1="1103" x2="1353" y1="612.5195" y2="612.5195"/><text fill="#000000" font-family="sans-serif" font-size="13" font-weight="bold" lengthAdjust="spacing" textLength="14" x="1110" y="607.2568">16</text><text fill="#000000" font-family="sans-serif" font-size="13" lengthAdjust="spacing" textLength="110" x="1128" y="607.2568">changeStatus(true)</text><line style="stroke:#181818;stroke-width:1.0;" x1="1108" x2="1150" y1="673.8105" y2="673.8105"/><line style="stroke:#181818;stroke-width:1.0;" x1="1150" x2="1150" y1="673.8105" y2="686.8105"/><line style="stroke:#181818;stroke-width:1.0;" x1="1109" x2="1150" y1="686.8105" y2="686.8105"/><polygon fill="#181818" points="1119,682.8105,1109,686.8105,1119,690.8105,1115,686.8105" style="stroke:#181818;stroke-width:1.0;"/><text fill="#000000" font-family="sans-serif" font-size="13" font-weight="bold" lengthAdjust="spacing" textLength="14" x="1115" y="668.5479">17</text><text fill="#000000" font-family="sans-serif" font-size="13" lengthAdjust="spacing" textLength="111" x="1133" y="668.5479">UpdateAsync(user)</text><path d="M1043,731.8105 L1108,731.8105 L1108,741.1016 L1098,751.1016 L1043,751.1016 L1043,731.8105 " fill="#EEEEEE" style="stroke:#000000;stroke-width:1.5;"/><rect fill="none" height="80.582" style="stroke:#000000;stroke-width:1.5;" width="781" x="1043" y="731.8105"/><text fill="#000000" font-family="sans-serif" font-size="13" font-weight="bold" lengthAdjust="spacing" textLength="20" x="1058" y="746.8389">opt</text><text fill="#000000" font-family="sans-serif" font-size="11" font-weight="bold" lengthAdjust="spacing" textLength="80" x="1123" y="745.6807">[result is true]</text><polygon fill="#181818" points="1765,770.3926,1775,774.3926,1765,778.3926,1769,774.3926" style="stroke:#181818;stroke-width:1.0;"/><line style="stroke:#181818;stroke-width:1.0;" x1="1103" x2="1771" y1="774.3926" y2="774.3926"/><text fill="#000000" font-family="sans-serif" font-size="13" font-weight="bold" lengthAdjust="spacing" textLength="14" x="1110" y="769.1299">18</text><text fill="#000000" font-family="sans-serif" font-size="13" lengthAdjust="spacing" textLength="90" x="1128" y="769.1299">ActivateProfile()</text><polygon fill="#181818" points="786,838.6836,776,842.6836,786,846.6836,782,842.6836" style="stroke:#181818;stroke-width:1.0;"/><line style="stroke:#181818;stroke-width:1.0;stroke-dasharray:2.0,2.0;" x1="780" x2="1097" y1="842.6836" y2="842.6836"/><text fill="#000000" font-family="sans-serif" font-size="13" font-weight="bold" lengthAdjust="spacing" textLength="14" x="792" y="837.4209">19</text><text fill="#000000" font-family="sans-serif" font-size="13" lengthAdjust="spacing" textLength="87" x="810" y="837.4209">success/failure</text><polygon fill="#181818" points="518,869.9746,508,873.9746,518,877.9746,514,873.9746" style="stroke:#181818;stroke-width:1.0;"/><line style="stroke:#181818;stroke-width:1.0;stroke-dasharray:2.0,2.0;" x1="512" x2="769" y1="873.9746" y2="873.9746"/><text fill="#000000" font-family="sans-serif" font-size="13" font-weight="bold" lengthAdjust="spacing" textLength="14" x="524" y="868.7119">20</text><text fill="#000000" font-family="sans-serif" font-size="13" lengthAdjust="spacing" textLength="87" x="542" y="868.7119">success/failure</text><polygon fill="#181818" points="209,918.5566,199,922.5566,209,926.5566,205,922.5566" style="stroke:#181818;stroke-width:1.0;"/><line style="stroke:#181818;stroke-width:1.0;stroke-dasharray:2.0,2.0;" x1="203" x2="501" y1="922.5566" y2="922.5566"/><text fill="#000000" font-family="sans-serif" font-size="13" font-weight="bold" lengthAdjust="spacing" textLength="14" x="215" y="908.6484">21</text><text fill="#000000" font-family="sans-serif" font-size="13" lengthAdjust="spacing" textLength="257" x="233" y="900.0029">return Ok("Email confirmed successfully and</text><text fill="#000000" font-family="sans-serif" font-size="13" lengthAdjust="spacing" textLength="176" x="237" y="917.2939">contact information changed.")</text><polygon fill="#181818" points="11,949.8477,1,953.8477,11,957.8477,7,953.8477" style="stroke:#181818;stroke-width:1.0;"/><line style="stroke:#181818;stroke-width:1.0;stroke-dasharray:2.0,2.0;" x1="5" x2="192" y1="953.8477" y2="953.8477"/><text fill="#000000" font-family="sans-serif" font-size="13" font-weight="bold" lengthAdjust="spacing" textLength="14" x="17" y="948.585">22</text><text fill="#000000" font-family="sans-serif" font-size="13" lengthAdjust="spacing" textLength="53" x="35" y="948.585">message</text><!--SRC=[fLLDRzim3BthLmYvB0Nc1Ds07OfXG9i5Gx5s2VBH7TQBPj6D45lo9Bb5WFtuKL9iosxS0jqfjiFt-4G-KkzsrfRcOZejSoPjLUIJL1LJ0tyga2aaNB07pGf2hB0vqD5sJJzDFapEpoTqgLKAnj0x0KyqeJCbCw4BzsjPQkcrp9Gkc1LAqjcEoGUWunjuX9n-f7_fxTShbkvLbeaKpaQ4iCegMHM_GHDICcr5AahKGqTQLHOkxkMS2xksBCjMxiE8CaDNY-rcterECRbMUGuQ8JvyrdpncDbcTTFBO40_eeeQi0wlFdezN_NKGAcCi4eVwl0LVWbgvil54F4M7sFU-hqRprN1X3o6XxXd0bhEZTg3Z4atY-_p7yzPkofkcMGFDNju9sH0XZzVg8DxmhXVAlaIoaulw7Ax6LT8SStVK-C2t8Drgiu86a0yCWl77f60GR2hFsAFPfbZfjoJlyuKEkVno8E5UHkDgoXnQ7SIR1coV0DxTRZcb-OWqx7WiNhNK-B3aYQffoOSUb4rQTtRK_9-2hj3-owPCKzAyqPjNsJZ3zAm3JFVWHOuHdxIp1ieqGB8c0d9soe4bXxSUwL695r13X3Nf1DVPsiSsZk1j_AWyjRNf2NuR-snba7n0_bYxMtEqpL_CR46K-NsjTJTIZ_7j0Ng4PteTx1mwlSnMj9MPcnr1R5eDo4naP-O0HzkIuunRGrE6UwaA5NQuqceCDH9wAJmquBybqSatZMPo64S3t9_38zB2YIdo1vBRaUtIjsLDSsmSPM6qzBy7BUhwWMChqpOID5Ur60hBUbYFnvvXz0qs0LupPLLUNwWJF9xwVxqrwM8hilG7ZuPdSNPmWByd2HDfWAvS9jtTb7Oj-GV]--></g></svg>