<?xml version="1.0" encoding="us-ascii" standalone="no"?><svg xmlns="http://www.w3.org/2000/svg" xmlns:xlink="http://www.w3.org/1999/xlink" contentStyleType="text/css" height="532px" preserveAspectRatio="none" style="width:709px;height:531px;background:#FFFFFF;" version="1.1" viewBox="0 0 709 531" width="709.1px" zoomAndPan="magnify"><defs/><g><text fill="#000000" font-family="sans-serif" font-size="9.8" font-weight="bold" lengthAdjust="spacing" textLength="158.9" x="274.4" y="21.0752">US 5.1.7 - Process View [Level 3]</text><rect fill="#FFFFFF" height="384.3178" style="stroke:#181818;stroke-width:0.6999999999999998;" width="7" x="115.5" y="91.108"/><rect fill="#FFFFFF" height="255.2334" style="stroke:#181818;stroke-width:0.6999999999999998;" width="7" x="304.85" y="156.5812"/><rect fill="#FFFFFF" height="211.426" style="stroke:#181818;stroke-width:0.6999999999999998;" width="7" x="411.95" y="178.485"/><rect fill="#FFFFFF" height="29.6037" style="stroke:#181818;stroke-width:0.6999999999999998;" width="7" x="415.45" y="311.1035"/><rect fill="#FFFFFF" height="21.9037" style="stroke:#181818;stroke-width:0.6999999999999998;" width="7" x="598.85" y="200.3887"/><rect fill="#FFFFFF" height="21" style="stroke:#181818;stroke-width:0.6999999999999998;" width="7" x="598.85" y="262.5998"/><rect fill="none" height="135.9148" style="stroke:#000000;stroke-width:1.0499999999999998;" width="267.05" x="376.95" y="232.7924"/><rect fill="none" height="58.7111" style="stroke:#000000;stroke-width:1.0499999999999998;" width="146.65" x="7.7" y="422.3146"/><line style="stroke:#181818;stroke-width:0.3499999999999999;stroke-dasharray:5.0,5.0;" x1="118.65" x2="118.65" y1="67.8043" y2="492.9258"/><line style="stroke:#181818;stroke-width:0.3499999999999999;stroke-dasharray:5.0,5.0;" x1="229.6" x2="229.6" y1="125.4928" y2="492.9258"/><line style="stroke:#181818;stroke-width:0.3499999999999999;stroke-dasharray:5.0,5.0;" x1="308" x2="308" y1="67.8043" y2="492.9258"/><line style="stroke:#181818;stroke-width:0.3499999999999999;stroke-dasharray:5.0,5.0;" x1="415.45" x2="415.45" y1="67.8043" y2="492.9258"/><line style="stroke:#181818;stroke-width:0.3499999999999999;stroke-dasharray:5.0,5.0;" x1="602" x2="602" y1="67.8043" y2="492.9258"/><line style="stroke:#181818;stroke-width:0.3499999999999999;stroke-dasharray:5.0,5.0;" x1="674.1" x2="674.1" y1="67.8043" y2="492.9258"/><rect fill="#E2E2F0" height="35.8695" rx="1.75" ry="1.75" style="stroke:#181818;stroke-width:0.3499999999999999;" width="56.7" x="90.65" y="31.2348"/><text fill="#000000" font-family="sans-serif" font-size="9.8" font-style="italic" lengthAdjust="spacing" textLength="34.3" x="101.85" y="46.71">&#171;route&#187;</text><text fill="#000000" font-family="sans-serif" font-size="9.8" lengthAdjust="spacing" textLength="46.9" x="95.55" y="59.7447">UserRoute</text><rect fill="#E2E2F0" height="35.8695" rx="1.75" ry="1.75" style="stroke:#181818;stroke-width:0.3499999999999999;" width="56.7" x="90.65" y="492.2258"/><text fill="#000000" font-family="sans-serif" font-size="9.8" font-style="italic" lengthAdjust="spacing" textLength="34.3" x="101.85" y="507.701">&#171;route&#187;</text><text fill="#000000" font-family="sans-serif" font-size="9.8" lengthAdjust="spacing" textLength="46.9" x="95.55" y="520.7357">UserRoute</text><rect fill="#E2E2F0" height="35.8695" rx="1.75" ry="1.75" style="stroke:#181818;stroke-width:0.3499999999999999;" width="70" x="194.6" y="492.2258"/><text fill="#000000" font-family="sans-serif" font-size="9.8" font-style="italic" lengthAdjust="spacing" textLength="25.2" x="217" y="507.701">&#171;dto&#187;</text><text fill="#000000" font-family="sans-serif" font-size="9.8" lengthAdjust="spacing" textLength="60.2" x="199.5" y="520.7357">LoginUserDto</text><rect fill="#E2E2F0" height="35.8695" rx="1.75" ry="1.75" style="stroke:#181818;stroke-width:0.3499999999999999;" width="73.5" x="271.6" y="31.2348"/><text fill="#000000" font-family="sans-serif" font-size="9.8" font-style="italic" lengthAdjust="spacing" textLength="52.5" x="282.1" y="46.71">&#171;controller&#187;</text><text fill="#000000" font-family="sans-serif" font-size="9.8" lengthAdjust="spacing" textLength="63.7" x="276.5" y="59.7447">UserController</text><rect fill="#E2E2F0" height="35.8695" rx="1.75" ry="1.75" style="stroke:#181818;stroke-width:0.3499999999999999;" width="73.5" x="271.6" y="492.2258"/><text fill="#000000" font-family="sans-serif" font-size="9.8" font-style="italic" lengthAdjust="spacing" textLength="52.5" x="282.1" y="507.701">&#171;controller&#187;</text><text fill="#000000" font-family="sans-serif" font-size="9.8" lengthAdjust="spacing" textLength="63.7" x="276.5" y="520.7357">UserController</text><rect fill="#E2E2F0" height="35.8695" rx="1.75" ry="1.75" style="stroke:#181818;stroke-width:0.3499999999999999;" width="63" x="383.95" y="31.2348"/><text fill="#000000" font-family="sans-serif" font-size="9.8" font-style="italic" lengthAdjust="spacing" textLength="42" x="394.45" y="46.71">&#171;service&#187;</text><text fill="#000000" font-family="sans-serif" font-size="9.8" lengthAdjust="spacing" textLength="53.2" x="388.85" y="59.7447">UserService</text><rect fill="#E2E2F0" height="35.8695" rx="1.75" ry="1.75" style="stroke:#181818;stroke-width:0.3499999999999999;" width="63" x="383.95" y="492.2258"/><text fill="#000000" font-family="sans-serif" font-size="9.8" font-style="italic" lengthAdjust="spacing" textLength="42" x="394.45" y="507.701">&#171;service&#187;</text><text fill="#000000" font-family="sans-serif" font-size="9.8" lengthAdjust="spacing" textLength="53.2" x="388.85" y="520.7357">UserService</text><rect fill="#E2E2F0" height="35.8695" rx="1.75" ry="1.75" style="stroke:#181818;stroke-width:0.3499999999999999;" width="69.3" x="567.7" y="31.2348"/><text fill="#000000" font-family="sans-serif" font-size="9.8" font-style="italic" lengthAdjust="spacing" textLength="42" x="581.35" y="46.71">&#171;service&#187;</text><text fill="#000000" font-family="sans-serif" font-size="9.8" lengthAdjust="spacing" textLength="59.5" x="572.6" y="59.7447">UserManager</text><rect fill="#E2E2F0" height="35.8695" rx="1.75" ry="1.75" style="stroke:#181818;stroke-width:0.3499999999999999;" width="69.3" x="567.7" y="492.2258"/><text fill="#000000" font-family="sans-serif" font-size="9.8" font-style="italic" lengthAdjust="spacing" textLength="42" x="581.35" y="507.701">&#171;service&#187;</text><text fill="#000000" font-family="sans-serif" font-size="9.8" lengthAdjust="spacing" textLength="59.5" x="572.6" y="520.7357">UserManager</text><rect fill="#E2E2F0" height="22.8348" rx="1.75" ry="1.75" style="stroke:#181818;stroke-width:0.3499999999999999;" width="60.9" x="644" y="44.2695"/><text fill="#000000" font-family="sans-serif" font-size="9.8" lengthAdjust="spacing" textLength="51.1" x="648.9" y="59.7447">HttpContext</text><rect fill="#E2E2F0" height="22.8348" rx="1.75" ry="1.75" style="stroke:#181818;stroke-width:0.3499999999999999;" width="60.9" x="644" y="492.2258"/><text fill="#000000" font-family="sans-serif" font-size="9.8" lengthAdjust="spacing" textLength="51.1" x="648.9" y="507.701">HttpContext</text><rect fill="#FFFFFF" height="384.3178" style="stroke:#181818;stroke-width:0.6999999999999998;" width="7" x="115.5" y="91.108"/><rect fill="#FFFFFF" height="255.2334" style="stroke:#181818;stroke-width:0.6999999999999998;" width="7" x="304.85" y="156.5812"/><rect fill="#FFFFFF" height="211.426" style="stroke:#181818;stroke-width:0.6999999999999998;" width="7" x="411.95" y="178.485"/><rect fill="#FFFFFF" height="29.6037" style="stroke:#181818;stroke-width:0.6999999999999998;" width="7" x="415.45" y="311.1035"/><rect fill="#FFFFFF" height="21.9037" style="stroke:#181818;stroke-width:0.6999999999999998;" width="7" x="598.85" y="200.3887"/><rect fill="#FFFFFF" height="21" style="stroke:#181818;stroke-width:0.6999999999999998;" width="7" x="598.85" y="262.5998"/><ellipse cx="5.25" cy="90.583" fill="none" rx="2.8" ry="2.8" style="stroke:#181818;stroke-width:1.0499999999999998;"/><polygon fill="#181818" points="107.1,88.308,114.1,91.108,107.1,93.908,109.9,91.108" style="stroke:#181818;stroke-width:0.6999999999999998;"/><line style="stroke:#181818;stroke-width:0.6999999999999998;" x1="8.4" x2="111.3" y1="91.108" y2="91.108"/><text fill="#000000" font-family="sans-serif" font-size="9.1" font-weight="bold" lengthAdjust="spacing" textLength="4.9" x="10.5" y="87.4241">1</text><text fill="#000000" font-family="sans-serif" font-size="9.1" lengthAdjust="spacing" textLength="88.9" x="18.2" y="87.4241">POST(json) /api/Login</text><polygon fill="#181818" points="186.2,110.2117,193.2,113.0117,186.2,115.8117,189,113.0117" style="stroke:#181818;stroke-width:0.6999999999999998;"/><line style="stroke:#181818;stroke-width:0.6999999999999998;" x1="122.5" x2="190.4" y1="113.0117" y2="113.0117"/><text fill="#000000" font-family="sans-serif" font-size="9.1" font-weight="bold" lengthAdjust="spacing" textLength="4.9" x="127.4" y="109.3278">2</text><text fill="#000000" font-family="sans-serif" font-size="9.1" lengthAdjust="spacing" textLength="47.6" x="135.1" y="109.3278">create(json)</text><rect fill="#E2E2F0" height="35.8695" rx="1.75" ry="1.75" style="stroke:#181818;stroke-width:0.3499999999999999;" width="70" x="194.6" y="96.708"/><text fill="#000000" font-family="sans-serif" font-size="9.8" font-style="italic" lengthAdjust="spacing" textLength="25.2" x="217" y="112.1832">&#171;dto&#187;</text><text fill="#000000" font-family="sans-serif" font-size="9.8" lengthAdjust="spacing" textLength="60.2" x="199.5" y="125.218">LoginUserDto</text><polygon fill="#181818" points="296.45,153.7812,303.45,156.5812,296.45,159.3812,299.25,156.5812" style="stroke:#181818;stroke-width:0.6999999999999998;"/><line style="stroke:#181818;stroke-width:0.6999999999999998;" x1="122.5" x2="300.65" y1="156.5812" y2="156.5812"/><text fill="#000000" font-family="sans-serif" font-size="9.1" font-weight="bold" lengthAdjust="spacing" textLength="4.9" x="127.4" y="152.8974">3</text><text fill="#000000" font-family="sans-serif" font-size="9.1" lengthAdjust="spacing" textLength="79.1" x="135.1" y="152.8974">Login(loginUserDto)</text><polygon fill="#181818" points="403.55,175.685,410.55,178.485,403.55,181.285,406.35,178.485" style="stroke:#181818;stroke-width:0.6999999999999998;"/><line style="stroke:#181818;stroke-width:0.6999999999999998;" x1="311.85" x2="407.75" y1="178.485" y2="178.485"/><text fill="#000000" font-family="sans-serif" font-size="9.1" font-weight="bold" lengthAdjust="spacing" textLength="4.9" x="316.75" y="174.8011">4</text><text fill="#000000" font-family="sans-serif" font-size="9.1" lengthAdjust="spacing" textLength="79.1" x="324.45" y="174.8011">Login(loginUserDto)</text><polygon fill="#181818" points="590.45,197.5887,597.45,200.3887,590.45,203.1887,593.25,200.3887" style="stroke:#181818;stroke-width:0.6999999999999998;"/><line style="stroke:#181818;stroke-width:0.6999999999999998;" x1="418.95" x2="594.65" y1="200.3887" y2="200.3887"/><text fill="#000000" font-family="sans-serif" font-size="9.1" font-weight="bold" lengthAdjust="spacing" textLength="4.9" x="423.85" y="196.7048">5</text><text fill="#000000" font-family="sans-serif" font-size="9.1" lengthAdjust="spacing" textLength="105" x="431.55" y="196.7048">FindByEmailAsync(email)</text><polygon fill="#181818" points="426.65,219.4924,419.65,222.2924,426.65,225.0924,423.85,222.2924" style="stroke:#181818;stroke-width:0.6999999999999998;"/><line style="stroke:#181818;stroke-width:0.6999999999999998;stroke-dasharray:2.0,2.0;" x1="422.45" x2="601.65" y1="222.2924" y2="222.2924"/><text fill="#000000" font-family="sans-serif" font-size="9.1" font-weight="bold" lengthAdjust="spacing" textLength="4.9" x="430.85" y="218.6085">6</text><text fill="#000000" font-family="sans-serif" font-size="9.1" lengthAdjust="spacing" textLength="17.5" x="438.55" y="218.6085">user</text><path d="M376.95,232.7924 L419.65,232.7924 L419.65,239.2961 L412.65,246.2961 L376.95,246.2961 L376.95,232.7924 " fill="#EEEEEE" style="stroke:#000000;stroke-width:1.0499999999999998;"/><rect fill="none" height="135.9148" style="stroke:#000000;stroke-width:1.0499999999999998;" width="267.05" x="376.95" y="232.7924"/><text fill="#000000" font-family="sans-serif" font-size="9.1" font-weight="bold" lengthAdjust="spacing" textLength="11.2" x="387.45" y="243.3122">alt</text><text fill="#000000" font-family="sans-serif" font-size="7.7" font-weight="bold" lengthAdjust="spacing" textLength="77" x="430.15" y="242.5015">[userStatus == true]</text><polygon fill="#181818" points="590.45,259.7998,597.45,262.5998,590.45,265.3998,593.25,262.5998" style="stroke:#181818;stroke-width:0.6999999999999998;"/><line style="stroke:#181818;stroke-width:0.6999999999999998;" x1="418.95" x2="594.65" y1="262.5998" y2="262.5998"/><text fill="#000000" font-family="sans-serif" font-size="9.1" font-weight="bold" lengthAdjust="spacing" textLength="4.9" x="423.85" y="258.9159">7</text><text fill="#000000" font-family="sans-serif" font-size="9.1" lengthAdjust="spacing" textLength="158.9" x="431.55" y="258.9159">CheckPasswordAsync(user, password)</text><line style="stroke:#181818;stroke-width:0.6999999999999998;" x1="418.95" x2="451.85" y1="302.0035" y2="302.0035"/><line style="stroke:#181818;stroke-width:0.6999999999999998;" x1="451.85" x2="451.85" y1="302.0035" y2="311.1035"/><line style="stroke:#181818;stroke-width:0.6999999999999998;" x1="423.15" x2="451.85" y1="311.1035" y2="311.1035"/><polygon fill="#181818" points="430.15,308.3035,423.15,311.1035,430.15,313.9035,427.35,311.1035" style="stroke:#181818;stroke-width:0.6999999999999998;"/><text fill="#000000" font-family="sans-serif" font-size="9.1" font-weight="bold" lengthAdjust="spacing" textLength="4.9" x="427.35" y="298.3196">8</text><text fill="#000000" font-family="sans-serif" font-size="9.1" lengthAdjust="spacing" textLength="98" x="435.05" y="298.3196">GenerateJwtToken(user)</text><line style="stroke:#181818;stroke-width:0.6999999999999998;stroke-dasharray:2.0,2.0;" x1="422.45" x2="451.85" y1="340.0072" y2="340.0072"/><line style="stroke:#181818;stroke-width:0.6999999999999998;stroke-dasharray:2.0,2.0;" x1="451.85" x2="451.85" y1="340.0072" y2="349.1072"/><line style="stroke:#181818;stroke-width:0.6999999999999998;stroke-dasharray:2.0,2.0;" x1="418.95" x2="451.85" y1="349.1072" y2="349.1072"/><polygon fill="#181818" points="425.95,346.3072,418.95,349.1072,425.95,351.9072,423.15,349.1072" style="stroke:#181818;stroke-width:0.6999999999999998;"/><text fill="#000000" font-family="sans-serif" font-size="9.1" font-weight="bold" lengthAdjust="spacing" textLength="4.9" x="427.35" y="336.3233">9</text><text fill="#000000" font-family="sans-serif" font-size="9.1" lengthAdjust="spacing" textLength="22.4" x="435.05" y="336.3233">token</text><polygon fill="#181818" points="319.55,387.1109,312.55,389.9109,319.55,392.7109,316.75,389.9109" style="stroke:#181818;stroke-width:0.6999999999999998;"/><line style="stroke:#181818;stroke-width:0.6999999999999998;stroke-dasharray:2.0,2.0;" x1="315.35" x2="414.75" y1="389.9109" y2="389.9109"/><text fill="#000000" font-family="sans-serif" font-size="9.1" font-weight="bold" lengthAdjust="spacing" textLength="9.8" x="323.75" y="386.2271">10</text><text fill="#000000" font-family="sans-serif" font-size="9.1" lengthAdjust="spacing" textLength="22.4" x="336.35" y="386.2271">token</text><polygon fill="#181818" points="130.2,409.0146,123.2,411.8146,130.2,414.6146,127.4,411.8146" style="stroke:#181818;stroke-width:0.6999999999999998;"/><line style="stroke:#181818;stroke-width:0.6999999999999998;stroke-dasharray:2.0,2.0;" x1="126" x2="307.65" y1="411.8146" y2="411.8146"/><text fill="#000000" font-family="sans-serif" font-size="9.1" font-weight="bold" lengthAdjust="spacing" textLength="9.8" x="134.4" y="408.1308">11</text><text fill="#000000" font-family="sans-serif" font-size="9.1" lengthAdjust="spacing" textLength="22.4" x="147" y="408.1308">token</text><path d="M7.7,422.3146 L50.4,422.3146 L50.4,428.8184 L43.4,435.8184 L7.7,435.8184 L7.7,422.3146 " fill="#EEEEEE" style="stroke:#000000;stroke-width:1.0499999999999998;"/><rect fill="none" height="58.7111" style="stroke:#000000;stroke-width:1.0499999999999998;" width="146.65" x="7.7" y="422.3146"/><text fill="#000000" font-family="sans-serif" font-size="9.1" font-weight="bold" lengthAdjust="spacing" textLength="11.2" x="18.2" y="432.8345">alt</text><ellipse cx="5.25" cy="451.5971" fill="none" rx="2.8" ry="2.8" style="stroke:#181818;stroke-width:1.0499999999999998;"/><polygon fill="#181818" points="17.15,449.3221,10.15,452.1221,17.15,454.9221,14.35,452.1221" style="stroke:#181818;stroke-width:0.6999999999999998;"/><line style="stroke:#181818;stroke-width:0.6999999999999998;stroke-dasharray:2.0,2.0;" x1="15.75" x2="114.8" y1="452.1221" y2="452.1221"/><text fill="#000000" font-family="sans-serif" font-size="9.1" font-weight="bold" lengthAdjust="spacing" textLength="9.8" x="17.5" y="448.4382">12</text><text fill="#000000" font-family="sans-serif" font-size="9.1" lengthAdjust="spacing" textLength="56" x="30.1" y="448.4382">202 Accepted</text><line style="stroke:#000000;stroke-width:0.6999999999999998;stroke-dasharray:2.0,2.0;" x1="7.7" x2="154.35" y1="458.4221" y2="458.4221"/><ellipse cx="5.25" cy="474.9008" fill="none" rx="2.8" ry="2.8" style="stroke:#181818;stroke-width:1.0499999999999998;"/><polygon fill="#181818" points="17.15,472.6258,10.15,475.4258,17.15,478.2258,14.35,475.4258" style="stroke:#181818;stroke-width:0.6999999999999998;"/><line style="stroke:#181818;stroke-width:0.6999999999999998;stroke-dasharray:2.0,2.0;" x1="15.75" x2="118.3" y1="475.4258" y2="475.4258"/><text fill="#000000" font-family="sans-serif" font-size="9.1" font-weight="bold" lengthAdjust="spacing" textLength="9.8" x="17.5" y="471.7419">13</text><text fill="#000000" font-family="sans-serif" font-size="9.1" lengthAdjust="spacing" textLength="70.7" x="30.1" y="471.7419">401 Unauthorized</text><!--SRC=[XPDFRzim3CNl_1H4JacnzDys333I09sRhHio98YTNeeTD9bejRgI8T59E-J3JvAzrF4wx6QGl_V4Hycik2GSh3DyVtns_077kBH6adDuesYBjtFQK8bllmy0HCr6ruy_o48bB2kfAg7PQntPbQcP1YWShXRhV8QJYGsLwVGGdPixfGD_nIRIL_d2imMRFXcWr6YsfYp9HZRDLtCFottrDKr6TgDaCqfsathUDPNNu6z2YxlM_Sji_c_uchaAqz0JH_Ww1RWruscJDi7b8ik7FvtH8pmHbJg9EK58LXl1r500pMgyAgG-EafGMlBjHjXfXw09HezXsTdOwCKn801n8ruGalv7u0c0i12FXwW9VbAw-FWyUnIgl7JFMWufV7Oa7WC8xDXhWZJ1slj2GOU8A3asCXPSExouGBOr0MASgpqmmVIUvCDIEBSrjcXE3AetMBMrKPGSU8T2_xYERupzcJHPt_swvTmya8wkFQ-OVY_ye-I0zyy8Q2ZjTZiWNQ1F1-tczbVJ27kYzZPU7iLVL7DfOLt-yKp6u_PVIV3yz1mlfQIAgG2WqX7qY7UdPxZM_W-yDrRzybJ7jdbT-rb_0m00]--></g></svg>