<?xml version="1.0" encoding="UTF-8" standalone="no"?><svg xmlns="http://www.w3.org/2000/svg" xmlns:xlink="http://www.w3.org/1999/xlink" contentStyleType="text/css" height="918px" preserveAspectRatio="none" style="width:1378px;height:918px;background:#FFFFFF;" version="1.1" viewBox="0 0 1378 918" width="1378px" zoomAndPan="magnify"><defs/><g><text fill="#000000" font-family="sans-serif" font-size="14" font-weight="bold" lengthAdjust="spacing" textLength="227" x="574.75" y="29.5332">US 5.1.7 - Process View [Level 3]</text><rect fill="#FFFFFF" height="674.5" style="stroke:#181818;stroke-width:1.0;" width="10" x="205" y="150.0781"/><rect fill="#FFFFFF" height="445.5625" style="stroke:#181818;stroke-width:1.0;" width="10" x="567" y="264.5469"/><rect fill="#FFFFFF" height="367.25" style="stroke:#181818;stroke-width:1.0;" width="10" x="784" y="303.7031"/><rect fill="#FFFFFF" height="50.1563" style="stroke:#181818;stroke-width:1.0;" width="10" x="789" y="542.6406"/><rect fill="#FFFFFF" height="39.1563" style="stroke:#181818;stroke-width:1.0;" width="10" x="1174" y="342.8594"/><rect fill="#FFFFFF" height="30" style="stroke:#181818;stroke-width:1.0;" width="10" x="1174" y="465.4844"/><rect fill="none" height="235.7813" style="stroke:#000000;stroke-width:1.5;" width="536.5" x="719" y="397.0156"/><rect fill="none" height="107.4688" style="stroke:#000000;stroke-width:1.5;" width="262.5" x="11" y="725.1094"/><line style="stroke:#181818;stroke-width:0.5;stroke-dasharray:5.0,5.0;" x1="209.5" x2="209.5" y1="108.9219" y2="849.5781"/><line style="stroke:#181818;stroke-width:0.5;stroke-dasharray:5.0,5.0;" x1="425" x2="425" y1="205.7344" y2="849.5781"/><line style="stroke:#181818;stroke-width:0.5;stroke-dasharray:5.0,5.0;" x1="572" x2="572" y1="108.9219" y2="849.5781"/><line style="stroke:#181818;stroke-width:0.5;stroke-dasharray:5.0,5.0;" x1="789" x2="789" y1="108.9219" y2="849.5781"/><line style="stroke:#181818;stroke-width:0.5;stroke-dasharray:5.0,5.0;" x1="1178.5" x2="1178.5" y1="108.9219" y2="849.5781"/><line style="stroke:#181818;stroke-width:0.5;stroke-dasharray:5.0,5.0;" x1="1313.5" x2="1313.5" y1="108.9219" y2="849.5781"/><rect fill="#E2E2F0" height="64.3125" rx="2.5" ry="2.5" style="stroke:#181818;stroke-width:0.5;" width="107" x="156.5" y="43.6094"/><text fill="#000000" font-family="sans-serif" font-size="20" font-style="italic" lengthAdjust="spacing" textLength="67" x="176.5" y="71.3711">«route»</text><text fill="#000000" font-family="sans-serif" font-size="20" lengthAdjust="spacing" textLength="93" x="163.5" y="96.5273">UserRoute</text><rect fill="#E2E2F0" height="64.3125" rx="2.5" ry="2.5" style="stroke:#181818;stroke-width:0.5;" width="107" x="156.5" y="848.5781"/><text fill="#000000" font-family="sans-serif" font-size="20" font-style="italic" lengthAdjust="spacing" textLength="67" x="176.5" y="876.3398">«route»</text><text fill="#000000" font-family="sans-serif" font-size="20" lengthAdjust="spacing" textLength="93" x="163.5" y="901.4961">UserRoute</text><rect fill="#E2E2F0" height="64.3125" rx="2.5" ry="2.5" style="stroke:#181818;stroke-width:0.5;" width="133" x="359" y="848.5781"/><text fill="#000000" font-family="sans-serif" font-size="20" font-style="italic" lengthAdjust="spacing" textLength="49" x="401" y="876.3398">«dto»</text><text fill="#000000" font-family="sans-serif" font-size="20" lengthAdjust="spacing" textLength="119" x="366" y="901.4961">LoginUserDto</text><rect fill="#E2E2F0" height="64.3125" rx="2.5" ry="2.5" style="stroke:#181818;stroke-width:0.5;" width="140" x="502" y="43.6094"/><text fill="#000000" font-family="sans-serif" font-size="20" font-style="italic" lengthAdjust="spacing" textLength="105" x="519.5" y="71.3711">«controller»</text><text fill="#000000" font-family="sans-serif" font-size="20" lengthAdjust="spacing" textLength="126" x="509" y="96.5273">UserController</text><rect fill="#E2E2F0" height="64.3125" rx="2.5" ry="2.5" style="stroke:#181818;stroke-width:0.5;" width="140" x="502" y="848.5781"/><text fill="#000000" font-family="sans-serif" font-size="20" font-style="italic" lengthAdjust="spacing" textLength="105" x="519.5" y="876.3398">«controller»</text><text fill="#000000" font-family="sans-serif" font-size="20" lengthAdjust="spacing" textLength="126" x="509" y="901.4961">UserController</text><rect fill="#E2E2F0" height="64.3125" rx="2.5" ry="2.5" style="stroke:#181818;stroke-width:0.5;" width="120" x="729" y="43.6094"/><text fill="#000000" font-family="sans-serif" font-size="20" font-style="italic" lengthAdjust="spacing" textLength="86" x="746" y="71.3711">«service»</text><text fill="#000000" font-family="sans-serif" font-size="20" lengthAdjust="spacing" textLength="106" x="736" y="96.5273">UserService</text><rect fill="#E2E2F0" height="64.3125" rx="2.5" ry="2.5" style="stroke:#181818;stroke-width:0.5;" width="120" x="729" y="848.5781"/><text fill="#000000" font-family="sans-serif" font-size="20" font-style="italic" lengthAdjust="spacing" textLength="86" x="746" y="876.3398">«service»</text><text fill="#000000" font-family="sans-serif" font-size="20" lengthAdjust="spacing" textLength="106" x="736" y="901.4961">UserService</text><rect fill="#E2E2F0" height="64.3125" rx="2.5" ry="2.5" style="stroke:#181818;stroke-width:0.5;" width="133" x="1112.5" y="43.6094"/><text fill="#000000" font-family="sans-serif" font-size="20" font-style="italic" lengthAdjust="spacing" textLength="86" x="1136" y="71.3711">«service»</text><text fill="#000000" font-family="sans-serif" font-size="20" lengthAdjust="spacing" textLength="119" x="1119.5" y="96.5273">UserManager</text><rect fill="#E2E2F0" height="64.3125" rx="2.5" ry="2.5" style="stroke:#181818;stroke-width:0.5;" width="133" x="1112.5" y="848.5781"/><text fill="#000000" font-family="sans-serif" font-size="20" font-style="italic" lengthAdjust="spacing" textLength="86" x="1136" y="876.3398">«service»</text><text fill="#000000" font-family="sans-serif" font-size="20" lengthAdjust="spacing" textLength="119" x="1119.5" y="901.4961">UserManager</text><rect fill="#E2E2F0" height="39.1563" rx="2.5" ry="2.5" style="stroke:#181818;stroke-width:0.5;" width="117" x="1255.5" y="68.7656"/><text fill="#000000" font-family="sans-serif" font-size="20" lengthAdjust="spacing" textLength="103" x="1262.5" y="96.5273">HttpContext</text><rect fill="#E2E2F0" height="39.1563" rx="2.5" ry="2.5" style="stroke:#181818;stroke-width:0.5;" width="117" x="1255.5" y="848.5781"/><text fill="#000000" font-family="sans-serif" font-size="20" lengthAdjust="spacing" textLength="103" x="1262.5" y="876.3398">HttpContext</text><rect fill="#FFFFFF" height="674.5" style="stroke:#181818;stroke-width:1.0;" width="10" x="205" y="150.0781"/><rect fill="#FFFFFF" height="445.5625" style="stroke:#181818;stroke-width:1.0;" width="10" x="567" y="264.5469"/><rect fill="#FFFFFF" height="367.25" style="stroke:#181818;stroke-width:1.0;" width="10" x="784" y="303.7031"/><rect fill="#FFFFFF" height="50.1563" style="stroke:#181818;stroke-width:1.0;" width="10" x="789" y="542.6406"/><rect fill="#FFFFFF" height="39.1563" style="stroke:#181818;stroke-width:1.0;" width="10" x="1174" y="342.8594"/><rect fill="#FFFFFF" height="30" style="stroke:#181818;stroke-width:1.0;" width="10" x="1174" y="465.4844"/><ellipse cx="7.5" cy="149.3281" fill="none" rx="4" ry="4" style="stroke:#181818;stroke-width:1.5;"/><polygon fill="#181818" points="193,146.0781,203,150.0781,193,154.0781,197,150.0781" style="stroke:#181818;stroke-width:1.0;"/><line style="stroke:#181818;stroke-width:1.0;" x1="12" x2="199" y1="150.0781" y2="150.0781"/><text fill="#000000" font-family="sans-serif" font-size="20" font-weight="bold" lengthAdjust="spacing" textLength="11" x="15" y="143.6836">1</text><text fill="#000000" font-family="sans-serif" font-size="20" lengthAdjust="spacing" textLength="125" x="30" y="143.6836">GET /api/login</text><polygon fill="#181818" points="347,185.2344,357,189.2344,347,193.2344,351,189.2344" style="stroke:#181818;stroke-width:1.0;"/><line style="stroke:#181818;stroke-width:1.0;" x1="215" x2="353" y1="189.2344" y2="189.2344"/><text fill="#000000" font-family="sans-serif" font-size="20" font-weight="bold" lengthAdjust="spacing" textLength="11" x="222" y="182.8398">2</text><text fill="#000000" font-family="sans-serif" font-size="20" lengthAdjust="spacing" textLength="105" x="237" y="182.8398">create(json)</text><rect fill="#E2E2F0" height="64.3125" rx="2.5" ry="2.5" style="stroke:#181818;stroke-width:0.5;" width="133" x="359" y="158.0781"/><text fill="#000000" font-family="sans-serif" font-size="20" font-style="italic" lengthAdjust="spacing" textLength="49" x="401" y="185.8398">«dto»</text><text fill="#000000" font-family="sans-serif" font-size="20" lengthAdjust="spacing" textLength="119" x="366" y="210.9961">LoginUserDto</text><polygon fill="#181818" points="555,260.5469,565,264.5469,555,268.5469,559,264.5469" style="stroke:#181818;stroke-width:1.0;"/><line style="stroke:#181818;stroke-width:1.0;" x1="215" x2="561" y1="264.5469" y2="264.5469"/><text fill="#000000" font-family="sans-serif" font-size="20" font-weight="bold" lengthAdjust="spacing" textLength="11" x="222" y="258.1523">3</text><text fill="#000000" font-family="sans-serif" font-size="20" lengthAdjust="spacing" textLength="173" x="237" y="258.1523">Login(loginUserDto)</text><polygon fill="#181818" points="772,299.7031,782,303.7031,772,307.7031,776,303.7031" style="stroke:#181818;stroke-width:1.0;"/><line style="stroke:#181818;stroke-width:1.0;" x1="577" x2="778" y1="303.7031" y2="303.7031"/><text fill="#000000" font-family="sans-serif" font-size="20" font-weight="bold" lengthAdjust="spacing" textLength="11" x="584" y="297.3086">4</text><text fill="#000000" font-family="sans-serif" font-size="20" lengthAdjust="spacing" textLength="173" x="599" y="297.3086">Login(loginUserDto)</text><polygon fill="#181818" points="1162,338.8594,1172,342.8594,1162,346.8594,1166,342.8594" style="stroke:#181818;stroke-width:1.0;"/><line style="stroke:#181818;stroke-width:1.0;" x1="794" x2="1168" y1="342.8594" y2="342.8594"/><text fill="#000000" font-family="sans-serif" font-size="20" font-weight="bold" lengthAdjust="spacing" textLength="11" x="801" y="336.4648">5</text><text fill="#000000" font-family="sans-serif" font-size="20" lengthAdjust="spacing" textLength="221" x="816" y="336.4648">FindByEmailAsync(email)</text><polygon fill="#181818" points="805,378.0156,795,382.0156,805,386.0156,801,382.0156" style="stroke:#181818;stroke-width:1.0;"/><line style="stroke:#181818;stroke-width:1.0;stroke-dasharray:2.0,2.0;" x1="799" x2="1178" y1="382.0156" y2="382.0156"/><text fill="#000000" font-family="sans-serif" font-size="20" font-weight="bold" lengthAdjust="spacing" textLength="11" x="811" y="375.6211">6</text><text fill="#000000" font-family="sans-serif" font-size="20" lengthAdjust="spacing" textLength="38" x="826" y="375.6211">user</text><path d="M719,397.0156 L787,397.0156 L787,414.1719 L777,424.1719 L719,424.1719 L719,397.0156 " fill="#EEEEEE" style="stroke:#000000;stroke-width:1.5;"/><rect fill="none" height="235.7813" style="stroke:#000000;stroke-width:1.5;" width="536.5" x="719" y="397.0156"/><text fill="#000000" font-family="sans-serif" font-size="20" font-weight="bold" lengthAdjust="spacing" textLength="23" x="734" y="418.7773">alt</text><text fill="#000000" font-family="sans-serif" font-size="20" font-weight="bold" lengthAdjust="spacing" textLength="191" x="802" y="419.7773">[userStatus == true]</text><polygon fill="#181818" points="1162,461.4844,1172,465.4844,1162,469.4844,1166,465.4844" style="stroke:#181818;stroke-width:1.0;"/><line style="stroke:#181818;stroke-width:1.0;" x1="794" x2="1168" y1="465.4844" y2="465.4844"/><text fill="#000000" font-family="sans-serif" font-size="20" font-weight="bold" lengthAdjust="spacing" textLength="11" x="801" y="459.0898">7</text><text fill="#000000" font-family="sans-serif" font-size="20" lengthAdjust="spacing" textLength="346" x="816" y="459.0898">CheckPasswordAsync(user, password)</text><line style="stroke:#181818;stroke-width:1.0;" x1="794" x2="841" y1="529.6406" y2="529.6406"/><line style="stroke:#181818;stroke-width:1.0;" x1="841" x2="841" y1="529.6406" y2="542.6406"/><line style="stroke:#181818;stroke-width:1.0;" x1="800" x2="841" y1="542.6406" y2="542.6406"/><polygon fill="#181818" points="810,538.6406,800,542.6406,810,546.6406,806,542.6406" style="stroke:#181818;stroke-width:1.0;"/><text fill="#000000" font-family="sans-serif" font-size="20" font-weight="bold" lengthAdjust="spacing" textLength="11" x="806" y="523.2461">8</text><text fill="#000000" font-family="sans-serif" font-size="20" lengthAdjust="spacing" textLength="220" x="821" y="523.2461">GenerateJwtToken(user)</text><line style="stroke:#181818;stroke-width:1.0;stroke-dasharray:2.0,2.0;" x1="799" x2="841" y1="591.7969" y2="591.7969"/><line style="stroke:#181818;stroke-width:1.0;stroke-dasharray:2.0,2.0;" x1="841" x2="841" y1="591.7969" y2="604.7969"/><line style="stroke:#181818;stroke-width:1.0;stroke-dasharray:2.0,2.0;" x1="794" x2="841" y1="604.7969" y2="604.7969"/><polygon fill="#181818" points="804,600.7969,794,604.7969,804,608.7969,800,604.7969" style="stroke:#181818;stroke-width:1.0;"/><text fill="#000000" font-family="sans-serif" font-size="20" font-weight="bold" lengthAdjust="spacing" textLength="11" x="806" y="585.4023">9</text><text fill="#000000" font-family="sans-serif" font-size="20" lengthAdjust="spacing" textLength="48" x="821" y="585.4023">token</text><polygon fill="#181818" points="588,666.9531,578,670.9531,588,674.9531,584,670.9531" style="stroke:#181818;stroke-width:1.0;"/><line style="stroke:#181818;stroke-width:1.0;stroke-dasharray:2.0,2.0;" x1="582" x2="788" y1="670.9531" y2="670.9531"/><text fill="#000000" font-family="sans-serif" font-size="20" font-weight="bold" lengthAdjust="spacing" textLength="22" x="594" y="664.5586">10</text><text fill="#000000" font-family="sans-serif" font-size="20" lengthAdjust="spacing" textLength="48" x="620" y="664.5586">token</text><polygon fill="#181818" points="226,706.1094,216,710.1094,226,714.1094,222,710.1094" style="stroke:#181818;stroke-width:1.0;"/><line style="stroke:#181818;stroke-width:1.0;stroke-dasharray:2.0,2.0;" x1="220" x2="571" y1="710.1094" y2="710.1094"/><text fill="#000000" font-family="sans-serif" font-size="20" font-weight="bold" lengthAdjust="spacing" textLength="22" x="232" y="703.7148">11</text><text fill="#000000" font-family="sans-serif" font-size="20" lengthAdjust="spacing" textLength="48" x="258" y="703.7148">token</text><path d="M11,725.1094 L79,725.1094 L79,742.2656 L69,752.2656 L11,752.2656 L11,725.1094 " fill="#EEEEEE" style="stroke:#000000;stroke-width:1.5;"/><rect fill="none" height="107.4688" style="stroke:#000000;stroke-width:1.5;" width="262.5" x="11" y="725.1094"/><text fill="#000000" font-family="sans-serif" font-size="20" font-weight="bold" lengthAdjust="spacing" textLength="23" x="26" y="746.8711">alt</text><ellipse cx="7.5" cy="782.6719" fill="none" rx="4" ry="4" style="stroke:#181818;stroke-width:1.5;"/><polygon fill="#181818" points="24.5,779.4219,14.5,783.4219,24.5,787.4219,20.5,783.4219" style="stroke:#181818;stroke-width:1.0;"/><line style="stroke:#181818;stroke-width:1.0;stroke-dasharray:2.0,2.0;" x1="22.5" x2="204" y1="783.4219" y2="783.4219"/><text fill="#000000" font-family="sans-serif" font-size="20" font-weight="bold" lengthAdjust="spacing" textLength="22" x="25" y="777.0273">12</text><text fill="#000000" font-family="sans-serif" font-size="20" lengthAdjust="spacing" textLength="122" x="51" y="777.0273">202 Accepted</text><line style="stroke:#000000;stroke-width:1.0;stroke-dasharray:2.0,2.0;" x1="11" x2="273.5" y1="792.4219" y2="792.4219"/><ellipse cx="7.5" cy="823.8281" fill="none" rx="4" ry="4" style="stroke:#181818;stroke-width:1.5;"/><polygon fill="#181818" points="24.5,820.5781,14.5,824.5781,24.5,828.5781,20.5,824.5781" style="stroke:#181818;stroke-width:1.0;"/><line style="stroke:#181818;stroke-width:1.0;stroke-dasharray:2.0,2.0;" x1="22.5" x2="209" y1="824.5781" y2="824.5781"/><text fill="#000000" font-family="sans-serif" font-size="20" font-weight="bold" lengthAdjust="spacing" textLength="22" x="25" y="818.1836">13</text><text fill="#000000" font-family="sans-serif" font-size="20" lengthAdjust="spacing" textLength="152" x="51" y="818.1836">401 Unauthorized</text><!--SRC=[XPDRJnin48NVvrUCyfIWXbjR8Qr291e2j4e5oeKNr0VNEmKtZhsoPvDIvSTZUxTXiwNgsshcEyTpnck_LAOGJgoqbKlACQSVejHyPGtFr6_2qsC0Lgm9EuiPVZmyEJp3FjuvAybxl5UqmOS9hKdZ-syT056oDUNgEpa8hgoaAeJXeFNafhPawg3mEBrTpCSu6BXO6GxtqObzL2RobsmJVJc_3MpEjar6Q1G6TLPhSeaTpQUJ0CjTzItDZDnQoMgKsVqeyBwgl0L_5KOyrkwVnvD_mpVCHPo6Vd62RqO03xO_hD9cU3sUuv4er96E0K58Lcl1LBK1gfq4FCOzECXGEWhjxazlJQ_HZWapJ4lgwiQgUg-E4G58gmY26F4_Wa00n4q4F6RCy4gP_DFpU2MKll3FHdOfVZOa0GE8R3zeeZJ3ClX2Jlk8q9mQCnPSUZm_HtOb0MAQgpummz4JoUMTy7vZNLwT65NliAXhlIJPyuw5zd4DtnJxcWovqFsouRbTaackBQ-KVYVye-I8jy-8Q2njjriWasD81_NcTbTJ2LkY-ZPU_uQ_gEhIuhh2NpFez-j7aeKNU8eNKbB1b0EGzWGjuiFn2IvCU7fFreKtcpTjgxzhD-iB]--></g></svg>