<?xml version="1.0" encoding="UTF-8" standalone="no"?><svg xmlns="http://www.w3.org/2000/svg" xmlns:xlink="http://www.w3.org/1999/xlink" contentStyleType="text/css" height="697px" preserveAspectRatio="none" style="width:1328px;height:697px;background:#FFFFFF;" version="1.1" viewBox="0 0 1328 697" width="1328px" zoomAndPan="magnify"><defs/><g><text fill="#000000" font-family="sans-serif" font-size="14" font-weight="bold" lengthAdjust="spacing" textLength="231" x="547.75" y="29.5332">US 5.1.7. - Process View [Level 3]</text><rect fill="#FFFFFF" height="452.7188" style="stroke:#181818;stroke-width:1.0;" width="10" x="274" y="150.0781"/><rect fill="#FFFFFF" height="299.0938" style="stroke:#181818;stroke-width:1.0;" width="10" x="479" y="189.2344"/><rect fill="#FFFFFF" height="220.7813" style="stroke:#181818;stroke-width:1.0;" width="10" x="689" y="228.3906"/><rect fill="#FFFFFF" height="142.4688" style="stroke:#181818;stroke-width:1.0;" width="10" x="899" y="267.5469"/><rect fill="#FFFFFF" height="39.1563" style="stroke:#181818;stroke-width:1.0;" width="10" x="1259" y="306.7031"/><rect fill="none" height="107.4688" style="stroke:#000000;stroke-width:1.5;" width="339.5" x="3" y="503.3281"/><line style="stroke:#181818;stroke-width:0.5;stroke-dasharray:5.0,5.0;" x1="278.5" x2="278.5" y1="108.9219" y2="627.7969"/><line style="stroke:#181818;stroke-width:0.5;stroke-dasharray:5.0,5.0;" x1="484" x2="484" y1="108.9219" y2="627.7969"/><line style="stroke:#181818;stroke-width:0.5;stroke-dasharray:5.0,5.0;" x1="694" x2="694" y1="108.9219" y2="627.7969"/><line style="stroke:#181818;stroke-width:0.5;stroke-dasharray:5.0,5.0;" x1="904" x2="904" y1="108.9219" y2="627.7969"/><line style="stroke:#181818;stroke-width:0.5;stroke-dasharray:5.0,5.0;" x1="1263.5" x2="1263.5" y1="108.9219" y2="627.7969"/><rect fill="#E2E2F0" height="64.3125" rx="2.5" ry="2.5" style="stroke:#181818;stroke-width:0.5;" width="107" x="225.5" y="43.6094"/><text fill="#000000" font-family="sans-serif" font-size="20" font-style="italic" lengthAdjust="spacing" textLength="67" x="245.5" y="71.3711">«route»</text><text fill="#000000" font-family="sans-serif" font-size="20" lengthAdjust="spacing" textLength="93" x="232.5" y="96.5273">UserRoute</text><rect fill="#E2E2F0" height="64.3125" rx="2.5" ry="2.5" style="stroke:#181818;stroke-width:0.5;" width="107" x="225.5" y="626.7969"/><text fill="#000000" font-family="sans-serif" font-size="20" font-style="italic" lengthAdjust="spacing" textLength="67" x="245.5" y="654.5586">«route»</text><text fill="#000000" font-family="sans-serif" font-size="20" lengthAdjust="spacing" textLength="93" x="232.5" y="679.7148">UserRoute</text><rect fill="#E2E2F0" height="64.3125" rx="2.5" ry="2.5" style="stroke:#181818;stroke-width:0.5;" width="140" x="414" y="43.6094"/><text fill="#000000" font-family="sans-serif" font-size="20" font-style="italic" lengthAdjust="spacing" textLength="105" x="431.5" y="71.3711">«controller»</text><text fill="#000000" font-family="sans-serif" font-size="20" lengthAdjust="spacing" textLength="126" x="421" y="96.5273">UserController</text><rect fill="#E2E2F0" height="64.3125" rx="2.5" ry="2.5" style="stroke:#181818;stroke-width:0.5;" width="140" x="414" y="626.7969"/><text fill="#000000" font-family="sans-serif" font-size="20" font-style="italic" lengthAdjust="spacing" textLength="105" x="431.5" y="654.5586">«controller»</text><text fill="#000000" font-family="sans-serif" font-size="20" lengthAdjust="spacing" textLength="126" x="421" y="679.7148">UserController</text><rect fill="#E2E2F0" height="64.3125" rx="2.5" ry="2.5" style="stroke:#181818;stroke-width:0.5;" width="120" x="634" y="43.6094"/><text fill="#000000" font-family="sans-serif" font-size="20" font-style="italic" lengthAdjust="spacing" textLength="86" x="651" y="71.3711">«service»</text><text fill="#000000" font-family="sans-serif" font-size="20" lengthAdjust="spacing" textLength="106" x="641" y="96.5273">UserService</text><rect fill="#E2E2F0" height="64.3125" rx="2.5" ry="2.5" style="stroke:#181818;stroke-width:0.5;" width="120" x="634" y="626.7969"/><text fill="#000000" font-family="sans-serif" font-size="20" font-style="italic" lengthAdjust="spacing" textLength="86" x="651" y="654.5586">«service»</text><text fill="#000000" font-family="sans-serif" font-size="20" lengthAdjust="spacing" textLength="106" x="641" y="679.7148">UserService</text><rect fill="#E2E2F0" height="64.3125" rx="2.5" ry="2.5" style="stroke:#181818;stroke-width:0.5;" width="266" x="771" y="43.6094"/><text fill="#000000" font-family="sans-serif" font-size="20" font-style="italic" lengthAdjust="spacing" textLength="89" x="859.5" y="71.3711">«adapter»</text><text fill="#000000" font-family="sans-serif" font-size="20" lengthAdjust="spacing" textLength="252" x="778" y="96.5273">ExternalGoogleLoginAdapter</text><rect fill="#E2E2F0" height="64.3125" rx="2.5" ry="2.5" style="stroke:#181818;stroke-width:0.5;" width="266" x="771" y="626.7969"/><text fill="#000000" font-family="sans-serif" font-size="20" font-style="italic" lengthAdjust="spacing" textLength="89" x="859.5" y="654.5586">«adapter»</text><text fill="#000000" font-family="sans-serif" font-size="20" lengthAdjust="spacing" textLength="252" x="778" y="679.7148">ExternalGoogleLoginAdapter</text><rect fill="#E2E2F0" height="39.1563" rx="2.5" ry="2.5" style="stroke:#181818;stroke-width:0.5;" width="117" x="1205.5" y="68.7656"/><text fill="#000000" font-family="sans-serif" font-size="20" lengthAdjust="spacing" textLength="103" x="1212.5" y="96.5273">HttpContext</text><rect fill="#E2E2F0" height="39.1563" rx="2.5" ry="2.5" style="stroke:#181818;stroke-width:0.5;" width="117" x="1205.5" y="626.7969"/><text fill="#000000" font-family="sans-serif" font-size="20" lengthAdjust="spacing" textLength="103" x="1212.5" y="654.5586">HttpContext</text><rect fill="#FFFFFF" height="452.7188" style="stroke:#181818;stroke-width:1.0;" width="10" x="274" y="150.0781"/><rect fill="#FFFFFF" height="299.0938" style="stroke:#181818;stroke-width:1.0;" width="10" x="479" y="189.2344"/><rect fill="#FFFFFF" height="220.7813" style="stroke:#181818;stroke-width:1.0;" width="10" x="689" y="228.3906"/><rect fill="#FFFFFF" height="142.4688" style="stroke:#181818;stroke-width:1.0;" width="10" x="899" y="267.5469"/><rect fill="#FFFFFF" height="39.1563" style="stroke:#181818;stroke-width:1.0;" width="10" x="1259" y="306.7031"/><ellipse cx="7.5" cy="149.3281" fill="none" rx="4" ry="4" style="stroke:#181818;stroke-width:1.5;"/><polygon fill="#181818" points="262,146.0781,272,150.0781,262,154.0781,266,150.0781" style="stroke:#181818;stroke-width:1.0;"/><line style="stroke:#181818;stroke-width:1.0;" x1="12" x2="268" y1="150.0781" y2="150.0781"/><text fill="#000000" font-family="sans-serif" font-size="20" font-weight="bold" lengthAdjust="spacing" textLength="11" x="15" y="143.6836">1</text><text fill="#000000" font-family="sans-serif" font-size="20" lengthAdjust="spacing" textLength="225" x="30" y="143.6836">GET /api/googleresponse</text><polygon fill="#181818" points="467,185.2344,477,189.2344,467,193.2344,471,189.2344" style="stroke:#181818;stroke-width:1.0;"/><line style="stroke:#181818;stroke-width:1.0;" x1="284" x2="473" y1="189.2344" y2="189.2344"/><text fill="#000000" font-family="sans-serif" font-size="20" font-weight="bold" lengthAdjust="spacing" textLength="11" x="291" y="182.8398">2</text><text fill="#000000" font-family="sans-serif" font-size="20" lengthAdjust="spacing" textLength="161" x="306" y="182.8398">googleResponse()</text><polygon fill="#181818" points="677,224.3906,687,228.3906,677,232.3906,681,228.3906" style="stroke:#181818;stroke-width:1.0;"/><line style="stroke:#181818;stroke-width:1.0;" x1="489" x2="683" y1="228.3906" y2="228.3906"/><text fill="#000000" font-family="sans-serif" font-size="20" font-weight="bold" lengthAdjust="spacing" textLength="11" x="496" y="221.9961">3</text><text fill="#000000" font-family="sans-serif" font-size="20" lengthAdjust="spacing" textLength="161" x="511" y="221.9961">googleResponse()</text><polygon fill="#181818" points="887,263.5469,897,267.5469,887,271.5469,891,267.5469" style="stroke:#181818;stroke-width:1.0;"/><line style="stroke:#181818;stroke-width:1.0;" x1="699" x2="893" y1="267.5469" y2="267.5469"/><text fill="#000000" font-family="sans-serif" font-size="20" font-weight="bold" lengthAdjust="spacing" textLength="11" x="706" y="261.1523">4</text><text fill="#000000" font-family="sans-serif" font-size="20" lengthAdjust="spacing" textLength="161" x="721" y="261.1523">googleResponse()</text><polygon fill="#181818" points="1247,302.7031,1257,306.7031,1247,310.7031,1251,306.7031" style="stroke:#181818;stroke-width:1.0;"/><line style="stroke:#181818;stroke-width:1.0;" x1="909" x2="1253" y1="306.7031" y2="306.7031"/><text fill="#000000" font-family="sans-serif" font-size="20" font-weight="bold" lengthAdjust="spacing" textLength="11" x="916" y="300.3086">5</text><text fill="#000000" font-family="sans-serif" font-size="20" lengthAdjust="spacing" textLength="316" x="931" y="300.3086">authenticateAsync(context, scheme)</text><polygon fill="#181818" points="920,341.8594,910,345.8594,920,349.8594,916,345.8594" style="stroke:#181818;stroke-width:1.0;"/><line style="stroke:#181818;stroke-width:1.0;stroke-dasharray:2.0,2.0;" x1="914" x2="1263" y1="345.8594" y2="345.8594"/><text fill="#000000" font-family="sans-serif" font-size="20" font-weight="bold" lengthAdjust="spacing" textLength="11" x="926" y="339.4648">6</text><text fill="#000000" font-family="sans-serif" font-size="20" lengthAdjust="spacing" textLength="161" x="941" y="339.4648">authenticateResult</text><polygon fill="#181818" points="710,406.0156,700,410.0156,710,414.0156,706,410.0156" style="stroke:#181818;stroke-width:1.0;"/><line style="stroke:#181818;stroke-width:1.0;stroke-dasharray:2.0,2.0;" x1="704" x2="903" y1="410.0156" y2="410.0156"/><text fill="#000000" font-family="sans-serif" font-size="20" font-weight="bold" lengthAdjust="spacing" textLength="11" x="716" y="403.6211">7</text><text fill="#000000" font-family="sans-serif" font-size="20" lengthAdjust="spacing" textLength="161" x="731" y="403.6211">authenticateResult</text><polygon fill="#181818" points="500,445.1719,490,449.1719,500,453.1719,496,449.1719" style="stroke:#181818;stroke-width:1.0;"/><line style="stroke:#181818;stroke-width:1.0;stroke-dasharray:2.0,2.0;" x1="494" x2="693" y1="449.1719" y2="449.1719"/><text fill="#000000" font-family="sans-serif" font-size="20" font-weight="bold" lengthAdjust="spacing" textLength="11" x="506" y="442.7773">8</text><text fill="#000000" font-family="sans-serif" font-size="20" lengthAdjust="spacing" textLength="161" x="521" y="442.7773">authenticateResult</text><polygon fill="#181818" points="295,484.3281,285,488.3281,295,492.3281,291,488.3281" style="stroke:#181818;stroke-width:1.0;"/><line style="stroke:#181818;stroke-width:1.0;stroke-dasharray:2.0,2.0;" x1="289" x2="483" y1="488.3281" y2="488.3281"/><text fill="#000000" font-family="sans-serif" font-size="20" font-weight="bold" lengthAdjust="spacing" textLength="11" x="301" y="481.9336">9</text><text fill="#000000" font-family="sans-serif" font-size="20" lengthAdjust="spacing" textLength="71" x="316" y="481.9336">success</text><path d="M3,503.3281 L71,503.3281 L71,520.4844 L61,530.4844 L3,530.4844 L3,503.3281 " fill="#EEEEEE" style="stroke:#000000;stroke-width:1.5;"/><rect fill="none" height="107.4688" style="stroke:#000000;stroke-width:1.5;" width="339.5" x="3" y="503.3281"/><text fill="#000000" font-family="sans-serif" font-size="20" font-weight="bold" lengthAdjust="spacing" textLength="23" x="18" y="525.0898">alt</text><polygon fill="#181818" points="11,557.6406,1,561.6406,11,565.6406,7,561.6406" style="stroke:#181818;stroke-width:1.0;"/><line style="stroke:#181818;stroke-width:1.0;stroke-dasharray:2.0,2.0;" x1="5" x2="273" y1="561.6406" y2="561.6406"/><text fill="#000000" font-family="sans-serif" font-size="20" font-weight="bold" lengthAdjust="spacing" textLength="22" x="17" y="555.2461">10</text><text fill="#000000" font-family="sans-serif" font-size="20" lengthAdjust="spacing" textLength="65" x="43" y="555.2461">200 Ok</text><line style="stroke:#000000;stroke-width:1.0;stroke-dasharray:2.0,2.0;" x1="3" x2="342.5" y1="570.6406" y2="570.6406"/><polygon fill="#181818" points="11,598.7969,1,602.7969,11,606.7969,7,602.7969" style="stroke:#181818;stroke-width:1.0;"/><line style="stroke:#181818;stroke-width:1.0;stroke-dasharray:2.0,2.0;" x1="5" x2="278" y1="602.7969" y2="602.7969"/><text fill="#000000" font-family="sans-serif" font-size="20" font-weight="bold" lengthAdjust="spacing" textLength="22" x="17" y="596.4023">11</text><text fill="#000000" font-family="sans-serif" font-size="20" lengthAdjust="spacing" textLength="152" x="43" y="596.4023">401 Unauthorized</text><!--SRC=[VPDRJm8n48NVvrTCUDB4HV0I4qD8p0R1X0J3nHVZG-sEs53QJTj5DFnufrj4l8JNcU_CsJFJzGjbIk74Kbkve08BUX6L3hVMX8dw83nh0GGLD65ZDi7BPhjvrSGCxvsLv3q-A7h3no6jIEFvKmD0LC6QQlbC3dXiK5ALmWGMUt9ZMmLgeF0u7iscFUnqNAnqkt_HdFsTrPfSpUVJyP1nkQl-fvcGMocP32OFEVC-LNx3lNKWPuJkMplNDBHpPMuAKOQjsLqlUebK-QqTX536ZwDrgE513l1eiswAT8tztXHFHQbEv_LmHxwqnXC86THA14eSGDe0wsAqQqpqU4iV7N_piGzGBu3f6EmGpMs069xPcECGots0234xo1dbsxsIuQpSlV7lHXx9bFG4lNob9Us9OsuMPSddfvRD-0b1GVlqPhFPkh6aJd5OKdzTdMItfCE2EdhQqzSvE9ElP7oe-s3QgD01ePDbNuSxQxLmj03IddxKBrfjd9beRHt_4CN-f7HBCWNoD81F]--></g></svg>