<?xml version="1.0" encoding="us-ascii" standalone="no"?><svg xmlns="http://www.w3.org/2000/svg" xmlns:xlink="http://www.w3.org/1999/xlink" contentStyleType="text/css" height="713px" preserveAspectRatio="none" style="width:2011px;height:713px;background:#FFFFFF;" version="1.1" viewBox="0 0 2011 713" width="2011px" zoomAndPan="magnify"><defs/><g><!--cluster <<aggregate>> Patient--><g id="cluster_&lt;&lt;aggregate&gt;&gt; Patient"><path d="M8.5,196.0137 L150.5,196.0137 A3.75,3.75 0 0 1 153,198.5137 L160,220.6348 L1274.5,220.6348 A2.5,2.5 0 0 1 1277,223.1348 L1277,703.5137 A2.5,2.5 0 0 1 1274.5,706.0137 L8.5,706.0137 A2.5,2.5 0 0 1 6,703.5137 L6,198.5137 A2.5,2.5 0 0 1 8.5,196.0137 " fill="none" style="stroke:#000000;stroke-width:1.5;"/><line style="stroke:#000000;stroke-width:1.5;" x1="6" x2="160" y1="220.6348" y2="220.6348"/><text fill="#000000" font-family="sans-serif" font-size="14" font-weight="bold" lengthAdjust="spacing" textLength="141" x="10" y="213.1211">&#171;aggregate&#187; Patient</text></g><!--cluster <<aggregate MedicalRecord>>--><g id="cluster_&lt;&lt;aggregate MedicalRecord&gt;&gt;"><path d="M1303.5,196.0137 L1502.5,196.0137 A3.75,3.75 0 0 1 1505,198.5137 L1512,220.6348 L1689.5,220.6348 A2.5,2.5 0 0 1 1692,223.1348 L1692,315.5137 A2.5,2.5 0 0 1 1689.5,318.0137 L1303.5,318.0137 A2.5,2.5 0 0 1 1301,315.5137 L1301,198.5137 A2.5,2.5 0 0 1 1303.5,196.0137 " fill="none" style="stroke:#000000;stroke-width:1.5;"/><line style="stroke:#000000;stroke-width:1.5;" x1="1301" x2="1512" y1="220.6348" y2="220.6348"/><text fill="#000000" font-family="sans-serif" font-size="14" font-weight="bold" lengthAdjust="spacing" textLength="198" x="1305" y="213.1211">&#171;aggregate MedicalRecord&#187;</text></g><!--cluster <<aggregate MedicalCondition>>--><g id="cluster_&lt;&lt;aggregate MedicalCondition&gt;&gt;"><path d="M1303.5,342.0137 L1519.5,342.0137 A3.75,3.75 0 0 1 1522,344.5137 L1529,366.6348 L2001.5,366.6348 A2.5,2.5 0 0 1 2004,369.1348 L2004,590.5137 A2.5,2.5 0 0 1 2001.5,593.0137 L1303.5,593.0137 A2.5,2.5 0 0 1 1301,590.5137 L1301,344.5137 A2.5,2.5 0 0 1 1303.5,342.0137 " fill="none" style="stroke:#000000;stroke-width:1.5;"/><line style="stroke:#000000;stroke-width:1.5;" x1="1301" x2="1529" y1="366.6348" y2="366.6348"/><text fill="#000000" font-family="sans-serif" font-size="14" font-weight="bold" lengthAdjust="spacing" textLength="215" x="1305" y="359.1211">&#171;aggregate MedicalCondition&#187;</text></g><!--cluster <<aggregate Doctor>>--><g id="cluster_&lt;&lt;aggregate Doctor&gt;&gt;"><path d="M1305.5,6.0137 L1445.5,6.0137 A3.75,3.75 0 0 1 1448,8.5137 L1455,30.6348 L1455.5,30.6348 A2.5,2.5 0 0 1 1458,33.1348 L1458,125.5137 A2.5,2.5 0 0 1 1455.5,128.0137 L1305.5,128.0137 A2.5,2.5 0 0 1 1303,125.5137 L1303,8.5137 A2.5,2.5 0 0 1 1305.5,6.0137 " fill="none" style="stroke:#000000;stroke-width:1.5;"/><line style="stroke:#000000;stroke-width:1.5;" x1="1303" x2="1455" y1="30.6348" y2="30.6348"/><text fill="#000000" font-family="sans-serif" font-size="14" font-weight="bold" lengthAdjust="spacing" textLength="139" x="1307" y="23.1211">&#171;aggregate Doctor&#187;</text></g><!--class Patient--><g id="elem_Patient"><rect codeLine="7" fill="#F5F5DC" height="68.543" id="Patient" rx="2.5" ry="2.5" style="stroke:#181818;stroke-width:0.5;" width="76" x="581" y="233.0137"/><ellipse cx="596" cy="263.2852" fill="#ADD1B2" rx="11" ry="11" style="stroke:#181818;stroke-width:1.0;"/><path d="M594.8594,264.082 L594.8594,266.582 L599.1875,266.582 L599.1875,265.6602 Q599.1875,265.0508 599.4219,264.7852 Q599.6719,264.5195 600.0469,264.5195 Q600.4219,264.5195 600.6563,264.7852 Q600.8906,265.0508 600.8906,265.6602 L600.8906,268.2852 L592.8906,268.2852 Q592.2656,268.2852 592,268.0508 Q591.75,267.8164 591.75,267.4258 Q591.75,267.0508 592.0156,266.8164 Q592.2813,266.582 592.8906,266.582 L593.1563,266.582 L593.1563,259.9258 L592.8906,259.9258 Q592.2656,259.9258 592,259.6914 Q591.75,259.457 591.75,259.0664 Q591.75,258.6914 592,258.457 Q592.2656,258.2227 592.8906,258.2227 L600.5156,258.2227 L600.5156,260.8164 Q600.5156,261.4258 600.2813,261.6914 Q600.0625,261.9414 599.6719,261.9414 Q599.2969,261.9414 599.0625,261.6914 Q598.8281,261.4258 598.8281,260.8164 L598.8281,259.9258 L594.8594,259.9258 L594.8594,262.3789 L596.3438,262.3789 Q596.3438,261.7227 596.4688,261.5352 Q596.7344,261.1289 597.2031,261.1289 Q597.5781,261.1289 597.8125,261.3945 Q598.0469,261.6445 598.0469,262.2539 L598.0469,264.2227 Q598.0469,264.7695 597.9219,264.957 Q597.6563,265.3477 597.2031,265.3477 Q596.7344,265.3477 596.4688,264.9414 Q596.3438,264.7539 596.3438,264.082 L594.8594,264.082 Z " fill="#000000"/><text fill="#000000" font-family="sans-serif" font-size="12" font-style="italic" lengthAdjust="spacing" textLength="43" x="610.5" y="250.9629">&#171;entity&#187;</text><text fill="#000000" font-family="sans-serif" font-size="12" font-style="italic" lengthAdjust="spacing" textLength="35" x="614.5" y="266.9238">&#171;root&#187;</text><text fill="#000000" font-family="sans-serif" font-size="14" lengthAdjust="spacing" textLength="44" x="610" y="285.043">Patient</text><line style="stroke:#181818;stroke-width:0.5;" x1="582" x2="656" y1="293.5566" y2="293.5566"/></g><!--class DateBirth--><g id="elem_DateBirth"><rect codeLine="8" fill="#F5F5DC" height="52.582" id="DateBirth" rx="2.5" ry="2.5" style="stroke:#181818;stroke-width:0.5;" width="109" x="166.5" y="387.0137"/><ellipse cx="181.5" cy="409.3047" fill="#FF8B40" rx="11" ry="11" style="stroke:#181818;stroke-width:1.0;"/><path d="M182.0938,412.5703 L184.5625,406.6953 L184.1719,406.6953 Q183.5625,406.6953 183.2969,406.4609 Q183.0313,406.2266 183.0313,405.8359 Q183.0313,405.4609 183.2969,405.2266 Q183.5625,404.9922 184.1719,404.9922 L186.4531,404.9922 Q187.0625,404.9922 187.3281,405.2266 Q187.5938,405.4609 187.5938,405.8359 Q187.5938,406.3047 187.1875,406.5703 Q187,406.6953 186.4063,406.6953 L182.9219,415.0547 L181.2813,415.0547 L177.7969,406.6953 Q177.2031,406.6953 177.0156,406.5703 Q176.6094,406.3047 176.6094,405.8359 Q176.6094,405.4609 176.875,405.2266 Q177.1406,404.9922 177.75,404.9922 L180.0469,404.9922 Q180.6563,404.9922 180.9063,405.2266 Q181.1719,405.4609 181.1719,405.8359 Q181.1719,406.2266 180.9063,406.4609 Q180.6563,406.6953 180.0469,406.6953 L179.6406,406.6953 L182.0938,412.5703 Z " fill="#000000"/><text fill="#000000" font-family="sans-serif" font-size="12" font-style="italic" lengthAdjust="spacing" textLength="81" x="193.5" y="404.9629">&#171;value object&#187;</text><text fill="#000000" font-family="sans-serif" font-size="14" lengthAdjust="spacing" textLength="59" x="204.5" y="423.082">DateBirth</text><line style="stroke:#181818;stroke-width:0.5;" x1="167.5" x2="274.5" y1="431.5957" y2="431.5957"/></g><!--class Gender--><g id="elem_Gender"><rect codeLine="9" fill="#F5F5DC" height="52.582" id="Gender" rx="2.5" ry="2.5" style="stroke:#181818;stroke-width:0.5;" width="109" x="636.5" y="387.0137"/><ellipse cx="651.5" cy="409.3047" fill="#FF8B40" rx="11" ry="11" style="stroke:#181818;stroke-width:1.0;"/><path d="M652.0938,412.5703 L654.5625,406.6953 L654.1719,406.6953 Q653.5625,406.6953 653.2969,406.4609 Q653.0313,406.2266 653.0313,405.8359 Q653.0313,405.4609 653.2969,405.2266 Q653.5625,404.9922 654.1719,404.9922 L656.4531,404.9922 Q657.0625,404.9922 657.3281,405.2266 Q657.5938,405.4609 657.5938,405.8359 Q657.5938,406.3047 657.1875,406.5703 Q657,406.6953 656.4063,406.6953 L652.9219,415.0547 L651.2813,415.0547 L647.7969,406.6953 Q647.2031,406.6953 647.0156,406.5703 Q646.6094,406.3047 646.6094,405.8359 Q646.6094,405.4609 646.875,405.2266 Q647.1406,404.9922 647.75,404.9922 L650.0469,404.9922 Q650.6563,404.9922 650.9063,405.2266 Q651.1719,405.4609 651.1719,405.8359 Q651.1719,406.2266 650.9063,406.4609 Q650.6563,406.6953 650.0469,406.6953 L649.6406,406.6953 L652.0938,412.5703 Z " fill="#000000"/><text fill="#000000" font-family="sans-serif" font-size="12" font-style="italic" lengthAdjust="spacing" textLength="81" x="663.5" y="404.9629">&#171;value object&#187;</text><text fill="#000000" font-family="sans-serif" font-size="14" lengthAdjust="spacing" textLength="48" x="680" y="423.082">Gender</text><line style="stroke:#181818;stroke-width:0.5;" x1="637.5" x2="744.5" y1="431.5957" y2="431.5957"/></g><!--class EmergencyContact--><g id="elem_EmergencyContact"><rect codeLine="10" fill="#F5F5DC" height="52.582" id="EmergencyContact" rx="2.5" ry="2.5" style="stroke:#181818;stroke-width:0.5;" width="152" x="390" y="516.0137"/><ellipse cx="405" cy="538.3047" fill="#FF8B40" rx="11" ry="11" style="stroke:#181818;stroke-width:1.0;"/><path d="M405.5938,541.5703 L408.0625,535.6953 L407.6719,535.6953 Q407.0625,535.6953 406.7969,535.4609 Q406.5313,535.2266 406.5313,534.8359 Q406.5313,534.4609 406.7969,534.2266 Q407.0625,533.9922 407.6719,533.9922 L409.9531,533.9922 Q410.5625,533.9922 410.8281,534.2266 Q411.0938,534.4609 411.0938,534.8359 Q411.0938,535.3047 410.6875,535.5703 Q410.5,535.6953 409.9063,535.6953 L406.4219,544.0547 L404.7813,544.0547 L401.2969,535.6953 Q400.7031,535.6953 400.5156,535.5703 Q400.1094,535.3047 400.1094,534.8359 Q400.1094,534.4609 400.375,534.2266 Q400.6406,533.9922 401.25,533.9922 L403.5469,533.9922 Q404.1563,533.9922 404.4063,534.2266 Q404.6719,534.4609 404.6719,534.8359 Q404.6719,535.2266 404.4063,535.4609 Q404.1563,535.6953 403.5469,535.6953 L403.1406,535.6953 L405.5938,541.5703 Z " fill="#000000"/><text fill="#000000" font-family="sans-serif" font-size="12" font-style="italic" lengthAdjust="spacing" textLength="81" x="438.5" y="533.9629">&#171;value object&#187;</text><text fill="#000000" font-family="sans-serif" font-size="14" lengthAdjust="spacing" textLength="120" x="419" y="552.082">EmergencyContact</text><line style="stroke:#181818;stroke-width:0.5;" x1="391" x2="541" y1="560.5957" y2="560.5957"/></g><!--class MRN--><g id="elem_MRN"><rect codeLine="11" fill="#F5F5DC" height="68.543" id="MRN" rx="2.5" ry="2.5" style="stroke:#181818;stroke-width:0.5;" width="109" x="22.5" y="379.0137"/><ellipse cx="37.5" cy="409.2852" fill="#FF8B40" rx="11" ry="11" style="stroke:#181818;stroke-width:1.0;"/><path d="M38.0938,412.5508 L40.5625,406.6758 L40.1719,406.6758 Q39.5625,406.6758 39.2969,406.4414 Q39.0313,406.207 39.0313,405.8164 Q39.0313,405.4414 39.2969,405.207 Q39.5625,404.9727 40.1719,404.9727 L42.4531,404.9727 Q43.0625,404.9727 43.3281,405.207 Q43.5938,405.4414 43.5938,405.8164 Q43.5938,406.2852 43.1875,406.5508 Q43,406.6758 42.4063,406.6758 L38.9219,415.0352 L37.2813,415.0352 L33.7969,406.6758 Q33.2031,406.6758 33.0156,406.5508 Q32.6094,406.2852 32.6094,405.8164 Q32.6094,405.4414 32.875,405.207 Q33.1406,404.9727 33.75,404.9727 L36.0469,404.9727 Q36.6563,404.9727 36.9063,405.207 Q37.1719,405.4414 37.1719,405.8164 Q37.1719,406.207 36.9063,406.4414 Q36.6563,406.6758 36.0469,406.6758 L35.6406,406.6758 L38.0938,412.5508 Z " fill="#000000"/><text fill="#000000" font-family="sans-serif" font-size="12" font-style="italic" lengthAdjust="spacing" textLength="81" x="49.5" y="396.9629">&#171;value object&#187;</text><text fill="#000000" font-family="sans-serif" font-size="12" font-style="italic" lengthAdjust="spacing" textLength="61" x="59.5" y="412.9238">&#171;identifier&#187;</text><text fill="#000000" font-family="sans-serif" font-size="14" lengthAdjust="spacing" textLength="30" x="75" y="431.043">MRN</text><line style="stroke:#181818;stroke-width:0.5;" x1="23.5" x2="130.5" y1="439.5566" y2="439.5566"/></g><!--class AppointmentHistory--><g id="elem_AppointmentHistory"><rect codeLine="12" fill="#F5F5DC" height="52.582" id="AppointmentHistory" rx="2.5" ry="2.5" style="stroke:#181818;stroke-width:0.5;" width="154" x="818" y="387.0137"/><ellipse cx="833" cy="409.3047" fill="#FF8B40" rx="11" ry="11" style="stroke:#181818;stroke-width:1.0;"/><path d="M833.5938,412.5703 L836.0625,406.6953 L835.6719,406.6953 Q835.0625,406.6953 834.7969,406.4609 Q834.5313,406.2266 834.5313,405.8359 Q834.5313,405.4609 834.7969,405.2266 Q835.0625,404.9922 835.6719,404.9922 L837.9531,404.9922 Q838.5625,404.9922 838.8281,405.2266 Q839.0938,405.4609 839.0938,405.8359 Q839.0938,406.3047 838.6875,406.5703 Q838.5,406.6953 837.9063,406.6953 L834.4219,415.0547 L832.7813,415.0547 L829.2969,406.6953 Q828.7031,406.6953 828.5156,406.5703 Q828.1094,406.3047 828.1094,405.8359 Q828.1094,405.4609 828.375,405.2266 Q828.6406,404.9922 829.25,404.9922 L831.5469,404.9922 Q832.1563,404.9922 832.4063,405.2266 Q832.6719,405.4609 832.6719,405.8359 Q832.6719,406.2266 832.4063,406.4609 Q832.1563,406.6953 831.5469,406.6953 L831.1406,406.6953 L833.5938,412.5703 Z " fill="#000000"/><text fill="#000000" font-family="sans-serif" font-size="12" font-style="italic" lengthAdjust="spacing" textLength="81" x="867.5" y="404.9629">&#171;value object&#187;</text><text fill="#000000" font-family="sans-serif" font-size="14" lengthAdjust="spacing" textLength="122" x="847" y="423.082">AppointmentHistory</text><line style="stroke:#181818;stroke-width:0.5;" x1="819" x2="971" y1="431.5957" y2="431.5957"/></g><!--class AppointmentHistoryStatus--><g id="elem_AppointmentHistoryStatus"><rect codeLine="13" fill="#F5F5DC" height="52.582" id="AppointmentHistoryStatus" rx="2.5" ry="2.5" style="stroke:#181818;stroke-width:0.5;" width="194" x="985" y="516.0137"/><ellipse cx="1000" cy="538.3047" fill="#FF8B40" rx="11" ry="11" style="stroke:#181818;stroke-width:1.0;"/><path d="M1000.5938,541.5703 L1003.0625,535.6953 L1002.6719,535.6953 Q1002.0625,535.6953 1001.7969,535.4609 Q1001.5313,535.2266 1001.5313,534.8359 Q1001.5313,534.4609 1001.7969,534.2266 Q1002.0625,533.9922 1002.6719,533.9922 L1004.9531,533.9922 Q1005.5625,533.9922 1005.8281,534.2266 Q1006.0938,534.4609 1006.0938,534.8359 Q1006.0938,535.3047 1005.6875,535.5703 Q1005.5,535.6953 1004.9063,535.6953 L1001.4219,544.0547 L999.7813,544.0547 L996.2969,535.6953 Q995.7031,535.6953 995.5156,535.5703 Q995.1094,535.3047 995.1094,534.8359 Q995.1094,534.4609 995.375,534.2266 Q995.6406,533.9922 996.25,533.9922 L998.5469,533.9922 Q999.1563,533.9922 999.4063,534.2266 Q999.6719,534.4609 999.6719,534.8359 Q999.6719,535.2266 999.4063,535.4609 Q999.1563,535.6953 998.5469,535.6953 L998.1406,535.6953 L1000.5938,541.5703 Z " fill="#000000"/><text fill="#000000" font-family="sans-serif" font-size="12" font-style="italic" lengthAdjust="spacing" textLength="81" x="1054.5" y="533.9629">&#171;value object&#187;</text><text fill="#000000" font-family="sans-serif" font-size="14" lengthAdjust="spacing" textLength="162" x="1014" y="552.082">AppointmentHistoryStatus</text><line style="stroke:#181818;stroke-width:0.5;" x1="986" x2="1178" y1="560.5957" y2="560.5957"/></g><!--class AppointmentHistoryType--><g id="elem_AppointmentHistoryType"><rect codeLine="14" fill="#F5F5DC" height="52.582" id="AppointmentHistoryType" rx="2.5" ry="2.5" style="stroke:#181818;stroke-width:0.5;" width="186" x="619" y="516.0137"/><ellipse cx="634" cy="538.3047" fill="#FF8B40" rx="11" ry="11" style="stroke:#181818;stroke-width:1.0;"/><path d="M634.5938,541.5703 L637.0625,535.6953 L636.6719,535.6953 Q636.0625,535.6953 635.7969,535.4609 Q635.5313,535.2266 635.5313,534.8359 Q635.5313,534.4609 635.7969,534.2266 Q636.0625,533.9922 636.6719,533.9922 L638.9531,533.9922 Q639.5625,533.9922 639.8281,534.2266 Q640.0938,534.4609 640.0938,534.8359 Q640.0938,535.3047 639.6875,535.5703 Q639.5,535.6953 638.9063,535.6953 L635.4219,544.0547 L633.7813,544.0547 L630.2969,535.6953 Q629.7031,535.6953 629.5156,535.5703 Q629.1094,535.3047 629.1094,534.8359 Q629.1094,534.4609 629.375,534.2266 Q629.6406,533.9922 630.25,533.9922 L632.5469,533.9922 Q633.1563,533.9922 633.4063,534.2266 Q633.6719,534.4609 633.6719,534.8359 Q633.6719,535.2266 633.4063,535.4609 Q633.1563,535.6953 632.5469,535.6953 L632.1406,535.6953 L634.5938,541.5703 Z " fill="#000000"/><text fill="#000000" font-family="sans-serif" font-size="12" font-style="italic" lengthAdjust="spacing" textLength="81" x="684.5" y="533.9629">&#171;value object&#187;</text><text fill="#000000" font-family="sans-serif" font-size="14" lengthAdjust="spacing" textLength="154" x="648" y="552.082">AppointmentHistoryType</text><line style="stroke:#181818;stroke-width:0.5;" x1="620" x2="804" y1="560.5957" y2="560.5957"/></g><!--class CreatedAt--><g id="elem_CreatedAt"><rect codeLine="15" fill="#F5F5DC" height="52.582" id="CreatedAt" rx="2.5" ry="2.5" style="stroke:#181818;stroke-width:0.5;" width="109" x="840.5" y="516.0137"/><ellipse cx="855.5" cy="538.3047" fill="#FF8B40" rx="11" ry="11" style="stroke:#181818;stroke-width:1.0;"/><path d="M856.0938,541.5703 L858.5625,535.6953 L858.1719,535.6953 Q857.5625,535.6953 857.2969,535.4609 Q857.0313,535.2266 857.0313,534.8359 Q857.0313,534.4609 857.2969,534.2266 Q857.5625,533.9922 858.1719,533.9922 L860.4531,533.9922 Q861.0625,533.9922 861.3281,534.2266 Q861.5938,534.4609 861.5938,534.8359 Q861.5938,535.3047 861.1875,535.5703 Q861,535.6953 860.4063,535.6953 L856.9219,544.0547 L855.2813,544.0547 L851.7969,535.6953 Q851.2031,535.6953 851.0156,535.5703 Q850.6094,535.3047 850.6094,534.8359 Q850.6094,534.4609 850.875,534.2266 Q851.1406,533.9922 851.75,533.9922 L854.0469,533.9922 Q854.6563,533.9922 854.9063,534.2266 Q855.1719,534.4609 855.1719,534.8359 Q855.1719,535.2266 854.9063,535.4609 Q854.6563,535.6953 854.0469,535.6953 L853.6406,535.6953 L856.0938,541.5703 Z " fill="#000000"/><text fill="#000000" font-family="sans-serif" font-size="12" font-style="italic" lengthAdjust="spacing" textLength="81" x="867.5" y="533.9629">&#171;value object&#187;</text><text fill="#000000" font-family="sans-serif" font-size="14" lengthAdjust="spacing" textLength="64" x="876" y="552.082">CreatedAt</text><line style="stroke:#181818;stroke-width:0.5;" x1="841.5" x2="948.5" y1="560.5957" y2="560.5957"/></g><!--class Name--><g id="elem_Name"><rect codeLine="16" fill="#F5F5DC" height="52.582" id="Name" rx="2.5" ry="2.5" style="stroke:#181818;stroke-width:0.5;" width="109" x="1007.5" y="241.0137"/><ellipse cx="1022.5" cy="263.3047" fill="#FF8B40" rx="11" ry="11" style="stroke:#181818;stroke-width:1.0;"/><path d="M1023.0938,266.5703 L1025.5625,260.6953 L1025.1719,260.6953 Q1024.5625,260.6953 1024.2969,260.4609 Q1024.0313,260.2266 1024.0313,259.8359 Q1024.0313,259.4609 1024.2969,259.2266 Q1024.5625,258.9922 1025.1719,258.9922 L1027.4531,258.9922 Q1028.0625,258.9922 1028.3281,259.2266 Q1028.5938,259.4609 1028.5938,259.8359 Q1028.5938,260.3047 1028.1875,260.5703 Q1028,260.6953 1027.4063,260.6953 L1023.9219,269.0547 L1022.2813,269.0547 L1018.7969,260.6953 Q1018.2031,260.6953 1018.0156,260.5703 Q1017.6094,260.3047 1017.6094,259.8359 Q1017.6094,259.4609 1017.875,259.2266 Q1018.1406,258.9922 1018.75,258.9922 L1021.0469,258.9922 Q1021.6563,258.9922 1021.9063,259.2266 Q1022.1719,259.4609 1022.1719,259.8359 Q1022.1719,260.2266 1021.9063,260.4609 Q1021.6563,260.6953 1021.0469,260.6953 L1020.6406,260.6953 L1023.0938,266.5703 Z " fill="#000000"/><text fill="#000000" font-family="sans-serif" font-size="12" font-style="italic" lengthAdjust="spacing" textLength="81" x="1034.5" y="258.9629">&#171;value object&#187;</text><text fill="#000000" font-family="sans-serif" font-size="14" lengthAdjust="spacing" textLength="36" x="1057" y="277.082">Name</text><line style="stroke:#181818;stroke-width:0.5;" x1="1008.5" x2="1115.5" y1="285.5957" y2="285.5957"/></g><!--class FirstName--><g id="elem_FirstName"><rect codeLine="17" fill="#F5F5DC" height="52.582" id="FirstName" rx="2.5" ry="2.5" style="stroke:#181818;stroke-width:0.5;" width="109" x="1151.5" y="387.0137"/><ellipse cx="1166.5" cy="409.3047" fill="#FF8B40" rx="11" ry="11" style="stroke:#181818;stroke-width:1.0;"/><path d="M1167.0938,412.5703 L1169.5625,406.6953 L1169.1719,406.6953 Q1168.5625,406.6953 1168.2969,406.4609 Q1168.0313,406.2266 1168.0313,405.8359 Q1168.0313,405.4609 1168.2969,405.2266 Q1168.5625,404.9922 1169.1719,404.9922 L1171.4531,404.9922 Q1172.0625,404.9922 1172.3281,405.2266 Q1172.5938,405.4609 1172.5938,405.8359 Q1172.5938,406.3047 1172.1875,406.5703 Q1172,406.6953 1171.4063,406.6953 L1167.9219,415.0547 L1166.2813,415.0547 L1162.7969,406.6953 Q1162.2031,406.6953 1162.0156,406.5703 Q1161.6094,406.3047 1161.6094,405.8359 Q1161.6094,405.4609 1161.875,405.2266 Q1162.1406,404.9922 1162.75,404.9922 L1165.0469,404.9922 Q1165.6563,404.9922 1165.9063,405.2266 Q1166.1719,405.4609 1166.1719,405.8359 Q1166.1719,406.2266 1165.9063,406.4609 Q1165.6563,406.6953 1165.0469,406.6953 L1164.6406,406.6953 L1167.0938,412.5703 Z " fill="#000000"/><text fill="#000000" font-family="sans-serif" font-size="12" font-style="italic" lengthAdjust="spacing" textLength="81" x="1178.5" y="404.9629">&#171;value object&#187;</text><text fill="#000000" font-family="sans-serif" font-size="14" lengthAdjust="spacing" textLength="64" x="1187" y="423.082">FirstName</text><line style="stroke:#181818;stroke-width:0.5;" x1="1152.5" x2="1259.5" y1="431.5957" y2="431.5957"/></g><!--class LastName--><g id="elem_LastName"><rect codeLine="18" fill="#F5F5DC" height="52.582" id="LastName" rx="2.5" ry="2.5" style="stroke:#181818;stroke-width:0.5;" width="109" x="1151.5" y="241.0137"/><ellipse cx="1166.5" cy="263.3047" fill="#FF8B40" rx="11" ry="11" style="stroke:#181818;stroke-width:1.0;"/><path d="M1167.0938,266.5703 L1169.5625,260.6953 L1169.1719,260.6953 Q1168.5625,260.6953 1168.2969,260.4609 Q1168.0313,260.2266 1168.0313,259.8359 Q1168.0313,259.4609 1168.2969,259.2266 Q1168.5625,258.9922 1169.1719,258.9922 L1171.4531,258.9922 Q1172.0625,258.9922 1172.3281,259.2266 Q1172.5938,259.4609 1172.5938,259.8359 Q1172.5938,260.3047 1172.1875,260.5703 Q1172,260.6953 1171.4063,260.6953 L1167.9219,269.0547 L1166.2813,269.0547 L1162.7969,260.6953 Q1162.2031,260.6953 1162.0156,260.5703 Q1161.6094,260.3047 1161.6094,259.8359 Q1161.6094,259.4609 1161.875,259.2266 Q1162.1406,258.9922 1162.75,258.9922 L1165.0469,258.9922 Q1165.6563,258.9922 1165.9063,259.2266 Q1166.1719,259.4609 1166.1719,259.8359 Q1166.1719,260.2266 1165.9063,260.4609 Q1165.6563,260.6953 1165.0469,260.6953 L1164.6406,260.6953 L1167.0938,266.5703 Z " fill="#000000"/><text fill="#000000" font-family="sans-serif" font-size="12" font-style="italic" lengthAdjust="spacing" textLength="81" x="1178.5" y="258.9629">&#171;value object&#187;</text><text fill="#000000" font-family="sans-serif" font-size="14" lengthAdjust="spacing" textLength="63" x="1187.5" y="277.082">LastName</text><line style="stroke:#181818;stroke-width:0.5;" x1="1152.5" x2="1259.5" y1="285.5957" y2="285.5957"/></g><!--class FullName--><g id="elem_FullName"><rect codeLine="19" fill="#F5F5DC" height="52.582" id="FullName" rx="2.5" ry="2.5" style="stroke:#181818;stroke-width:0.5;" width="109" x="1007.5" y="387.0137"/><ellipse cx="1022.5" cy="409.3047" fill="#FF8B40" rx="11" ry="11" style="stroke:#181818;stroke-width:1.0;"/><path d="M1023.0938,412.5703 L1025.5625,406.6953 L1025.1719,406.6953 Q1024.5625,406.6953 1024.2969,406.4609 Q1024.0313,406.2266 1024.0313,405.8359 Q1024.0313,405.4609 1024.2969,405.2266 Q1024.5625,404.9922 1025.1719,404.9922 L1027.4531,404.9922 Q1028.0625,404.9922 1028.3281,405.2266 Q1028.5938,405.4609 1028.5938,405.8359 Q1028.5938,406.3047 1028.1875,406.5703 Q1028,406.6953 1027.4063,406.6953 L1023.9219,415.0547 L1022.2813,415.0547 L1018.7969,406.6953 Q1018.2031,406.6953 1018.0156,406.5703 Q1017.6094,406.3047 1017.6094,405.8359 Q1017.6094,405.4609 1017.875,405.2266 Q1018.1406,404.9922 1018.75,404.9922 L1021.0469,404.9922 Q1021.6563,404.9922 1021.9063,405.2266 Q1022.1719,405.4609 1022.1719,405.8359 Q1022.1719,406.2266 1021.9063,406.4609 Q1021.6563,406.6953 1021.0469,406.6953 L1020.6406,406.6953 L1023.0938,412.5703 Z " fill="#000000"/><text fill="#000000" font-family="sans-serif" font-size="12" font-style="italic" lengthAdjust="spacing" textLength="81" x="1034.5" y="404.9629">&#171;value object&#187;</text><text fill="#000000" font-family="sans-serif" font-size="14" lengthAdjust="spacing" textLength="59" x="1045.5" y="423.082">FullName</text><line style="stroke:#181818;stroke-width:0.5;" x1="1008.5" x2="1115.5" y1="431.5957" y2="431.5957"/></g><!--class Phone--><g id="elem_Phone"><rect codeLine="20" fill="#F5F5DC" height="52.582" id="Phone" rx="2.5" ry="2.5" style="stroke:#181818;stroke-width:0.5;" width="109" x="355.5" y="637.0137"/><ellipse cx="370.5" cy="659.3047" fill="#FF8B40" rx="11" ry="11" style="stroke:#181818;stroke-width:1.0;"/><path d="M371.0938,662.5703 L373.5625,656.6953 L373.1719,656.6953 Q372.5625,656.6953 372.2969,656.4609 Q372.0313,656.2266 372.0313,655.8359 Q372.0313,655.4609 372.2969,655.2266 Q372.5625,654.9922 373.1719,654.9922 L375.4531,654.9922 Q376.0625,654.9922 376.3281,655.2266 Q376.5938,655.4609 376.5938,655.8359 Q376.5938,656.3047 376.1875,656.5703 Q376,656.6953 375.4063,656.6953 L371.9219,665.0547 L370.2813,665.0547 L366.7969,656.6953 Q366.2031,656.6953 366.0156,656.5703 Q365.6094,656.3047 365.6094,655.8359 Q365.6094,655.4609 365.875,655.2266 Q366.1406,654.9922 366.75,654.9922 L369.0469,654.9922 Q369.6563,654.9922 369.9063,655.2266 Q370.1719,655.4609 370.1719,655.8359 Q370.1719,656.2266 369.9063,656.4609 Q369.6563,656.6953 369.0469,656.6953 L368.6406,656.6953 L371.0938,662.5703 Z " fill="#000000"/><text fill="#000000" font-family="sans-serif" font-size="12" font-style="italic" lengthAdjust="spacing" textLength="81" x="382.5" y="654.9629">&#171;value object&#187;</text><text fill="#000000" font-family="sans-serif" font-size="14" lengthAdjust="spacing" textLength="41" x="402.5" y="673.082">Phone</text><line style="stroke:#181818;stroke-width:0.5;" x1="356.5" x2="463.5" y1="681.5957" y2="681.5957"/></g><!--class Email--><g id="elem_Email"><rect codeLine="21" fill="#F5F5DC" height="52.582" id="Email" rx="2.5" ry="2.5" style="stroke:#181818;stroke-width:0.5;" width="109" x="348.5" y="387.0137"/><ellipse cx="363.5" cy="409.3047" fill="#FF8B40" rx="11" ry="11" style="stroke:#181818;stroke-width:1.0;"/><path d="M364.0938,412.5703 L366.5625,406.6953 L366.1719,406.6953 Q365.5625,406.6953 365.2969,406.4609 Q365.0313,406.2266 365.0313,405.8359 Q365.0313,405.4609 365.2969,405.2266 Q365.5625,404.9922 366.1719,404.9922 L368.4531,404.9922 Q369.0625,404.9922 369.3281,405.2266 Q369.5938,405.4609 369.5938,405.8359 Q369.5938,406.3047 369.1875,406.5703 Q369,406.6953 368.4063,406.6953 L364.9219,415.0547 L363.2813,415.0547 L359.7969,406.6953 Q359.2031,406.6953 359.0156,406.5703 Q358.6094,406.3047 358.6094,405.8359 Q358.6094,405.4609 358.875,405.2266 Q359.1406,404.9922 359.75,404.9922 L362.0469,404.9922 Q362.6563,404.9922 362.9063,405.2266 Q363.1719,405.4609 363.1719,405.8359 Q363.1719,406.2266 362.9063,406.4609 Q362.6563,406.6953 362.0469,406.6953 L361.6406,406.6953 L364.0938,412.5703 Z " fill="#000000"/><text fill="#000000" font-family="sans-serif" font-size="12" font-style="italic" lengthAdjust="spacing" textLength="81" x="375.5" y="404.9629">&#171;value object&#187;</text><text fill="#000000" font-family="sans-serif" font-size="14" lengthAdjust="spacing" textLength="34" x="399" y="423.082">Email</text><line style="stroke:#181818;stroke-width:0.5;" x1="349.5" x2="456.5" y1="431.5957" y2="431.5957"/></g><!--class Address--><g id="elem_Address"><rect codeLine="22" fill="#F5F5DC" height="52.582" id="Address" rx="2.5" ry="2.5" style="stroke:#181818;stroke-width:0.5;" width="109" x="492.5" y="387.0137"/><ellipse cx="507.5" cy="409.3047" fill="#FF8B40" rx="11" ry="11" style="stroke:#181818;stroke-width:1.0;"/><path d="M508.0938,412.5703 L510.5625,406.6953 L510.1719,406.6953 Q509.5625,406.6953 509.2969,406.4609 Q509.0313,406.2266 509.0313,405.8359 Q509.0313,405.4609 509.2969,405.2266 Q509.5625,404.9922 510.1719,404.9922 L512.4531,404.9922 Q513.0625,404.9922 513.3281,405.2266 Q513.5938,405.4609 513.5938,405.8359 Q513.5938,406.3047 513.1875,406.5703 Q513,406.6953 512.4063,406.6953 L508.9219,415.0547 L507.2813,415.0547 L503.7969,406.6953 Q503.2031,406.6953 503.0156,406.5703 Q502.6094,406.3047 502.6094,405.8359 Q502.6094,405.4609 502.875,405.2266 Q503.1406,404.9922 503.75,404.9922 L506.0469,404.9922 Q506.6563,404.9922 506.9063,405.2266 Q507.1719,405.4609 507.1719,405.8359 Q507.1719,406.2266 506.9063,406.4609 Q506.6563,406.6953 506.0469,406.6953 L505.6406,406.6953 L508.0938,412.5703 Z " fill="#000000"/><text fill="#000000" font-family="sans-serif" font-size="12" font-style="italic" lengthAdjust="spacing" textLength="81" x="519.5" y="404.9629">&#171;value object&#187;</text><text fill="#000000" font-family="sans-serif" font-size="14" lengthAdjust="spacing" textLength="52" x="534" y="423.082">Address</text><line style="stroke:#181818;stroke-width:0.5;" x1="493.5" x2="600.5" y1="431.5957" y2="431.5957"/></g><!--class Status--><g id="elem_Status"><rect codeLine="23" fill="#F5F5DC" height="52.582" id="Status" rx="2.5" ry="2.5" style="stroke:#181818;stroke-width:0.5;" width="109" x="692.5" y="241.0137"/><ellipse cx="707.5" cy="263.3047" fill="#FF8B40" rx="11" ry="11" style="stroke:#181818;stroke-width:1.0;"/><path d="M708.0938,266.5703 L710.5625,260.6953 L710.1719,260.6953 Q709.5625,260.6953 709.2969,260.4609 Q709.0313,260.2266 709.0313,259.8359 Q709.0313,259.4609 709.2969,259.2266 Q709.5625,258.9922 710.1719,258.9922 L712.4531,258.9922 Q713.0625,258.9922 713.3281,259.2266 Q713.5938,259.4609 713.5938,259.8359 Q713.5938,260.3047 713.1875,260.5703 Q713,260.6953 712.4063,260.6953 L708.9219,269.0547 L707.2813,269.0547 L703.7969,260.6953 Q703.2031,260.6953 703.0156,260.5703 Q702.6094,260.3047 702.6094,259.8359 Q702.6094,259.4609 702.875,259.2266 Q703.1406,258.9922 703.75,258.9922 L706.0469,258.9922 Q706.6563,258.9922 706.9063,259.2266 Q707.1719,259.4609 707.1719,259.8359 Q707.1719,260.2266 706.9063,260.4609 Q706.6563,260.6953 706.0469,260.6953 L705.6406,260.6953 L708.0938,266.5703 Z " fill="#000000"/><text fill="#000000" font-family="sans-serif" font-size="12" font-style="italic" lengthAdjust="spacing" textLength="81" x="719.5" y="258.9629">&#171;value object&#187;</text><text fill="#000000" font-family="sans-serif" font-size="14" lengthAdjust="spacing" textLength="40" x="740" y="277.082">Status</text><line style="stroke:#181818;stroke-width:0.5;" x1="693.5" x2="800.5" y1="285.5957" y2="285.5957"/></g><!--class MedicalRecord--><g id="elem_MedicalRecord"><rect codeLine="27" fill="#F5F5DC" height="68.543" id="MedicalRecord" rx="2.5" ry="2.5" style="stroke:#181818;stroke-width:0.5;" width="126" x="1317" y="233.0137"/><ellipse cx="1332" cy="263.2852" fill="#ADD1B2" rx="11" ry="11" style="stroke:#181818;stroke-width:1.0;"/><path d="M1330.8594,264.082 L1330.8594,266.582 L1335.1875,266.582 L1335.1875,265.6602 Q1335.1875,265.0508 1335.4219,264.7852 Q1335.6719,264.5195 1336.0469,264.5195 Q1336.4219,264.5195 1336.6563,264.7852 Q1336.8906,265.0508 1336.8906,265.6602 L1336.8906,268.2852 L1328.8906,268.2852 Q1328.2656,268.2852 1328,268.0508 Q1327.75,267.8164 1327.75,267.4258 Q1327.75,267.0508 1328.0156,266.8164 Q1328.2813,266.582 1328.8906,266.582 L1329.1563,266.582 L1329.1563,259.9258 L1328.8906,259.9258 Q1328.2656,259.9258 1328,259.6914 Q1327.75,259.457 1327.75,259.0664 Q1327.75,258.6914 1328,258.457 Q1328.2656,258.2227 1328.8906,258.2227 L1336.5156,258.2227 L1336.5156,260.8164 Q1336.5156,261.4258 1336.2813,261.6914 Q1336.0625,261.9414 1335.6719,261.9414 Q1335.2969,261.9414 1335.0625,261.6914 Q1334.8281,261.4258 1334.8281,260.8164 L1334.8281,259.9258 L1330.8594,259.9258 L1330.8594,262.3789 L1332.3438,262.3789 Q1332.3438,261.7227 1332.4688,261.5352 Q1332.7344,261.1289 1333.2031,261.1289 Q1333.5781,261.1289 1333.8125,261.3945 Q1334.0469,261.6445 1334.0469,262.2539 L1334.0469,264.2227 Q1334.0469,264.7695 1333.9219,264.957 Q1333.6563,265.3477 1333.2031,265.3477 Q1332.7344,265.3477 1332.4688,264.9414 Q1332.3438,264.7539 1332.3438,264.082 L1330.8594,264.082 Z " fill="#000000"/><text fill="#000000" font-family="sans-serif" font-size="12" font-style="italic" lengthAdjust="spacing" textLength="43" x="1371.5" y="250.9629">&#171;entity&#187;</text><text fill="#000000" font-family="sans-serif" font-size="12" font-style="italic" lengthAdjust="spacing" textLength="35" x="1375.5" y="266.9238">&#171;root&#187;</text><text fill="#000000" font-family="sans-serif" font-size="14" lengthAdjust="spacing" textLength="94" x="1346" y="285.043">MedicalRecord</text><line style="stroke:#181818;stroke-width:0.5;" x1="1318" x2="1442" y1="293.5566" y2="293.5566"/></g><!--class MedicalRecordDescription--><g id="elem_MedicalRecordDescription"><rect codeLine="28" fill="#F5F5DC" height="68.543" id="MedicalRecordDescription" rx="2.5" ry="2.5" style="stroke:#181818;stroke-width:0.5;" width="197" x="1478.5" y="233.0137"/><ellipse cx="1493.5" cy="263.2852" fill="#FF8B40" rx="11" ry="11" style="stroke:#181818;stroke-width:1.0;"/><path d="M1494.0938,266.5508 L1496.5625,260.6758 L1496.1719,260.6758 Q1495.5625,260.6758 1495.2969,260.4414 Q1495.0313,260.207 1495.0313,259.8164 Q1495.0313,259.4414 1495.2969,259.207 Q1495.5625,258.9727 1496.1719,258.9727 L1498.4531,258.9727 Q1499.0625,258.9727 1499.3281,259.207 Q1499.5938,259.4414 1499.5938,259.8164 Q1499.5938,260.2852 1499.1875,260.5508 Q1499,260.6758 1498.4063,260.6758 L1494.9219,269.0352 L1493.2813,269.0352 L1489.7969,260.6758 Q1489.2031,260.6758 1489.0156,260.5508 Q1488.6094,260.2852 1488.6094,259.8164 Q1488.6094,259.4414 1488.875,259.207 Q1489.1406,258.9727 1489.75,258.9727 L1492.0469,258.9727 Q1492.6563,258.9727 1492.9063,259.207 Q1493.1719,259.4414 1493.1719,259.8164 Q1493.1719,260.207 1492.9063,260.4414 Q1492.6563,260.6758 1492.0469,260.6758 L1491.6406,260.6758 L1494.0938,266.5508 Z " fill="#000000"/><text fill="#000000" font-family="sans-serif" font-size="12" font-style="italic" lengthAdjust="spacing" textLength="81" x="1549.5" y="250.9629">&#171;value object&#187;</text><text fill="#000000" font-family="sans-serif" font-size="12" font-style="italic" lengthAdjust="spacing" textLength="61" x="1559.5" y="266.9238">&#171;identifier&#187;</text><text fill="#000000" font-family="sans-serif" font-size="14" lengthAdjust="spacing" textLength="165" x="1507.5" y="285.043">MedicalRecordDescription</text><line style="stroke:#181818;stroke-width:0.5;" x1="1479.5" x2="1674.5" y1="293.5566" y2="293.5566"/></g><!--class MedicalCondition--><g id="elem_MedicalCondition"><rect codeLine="32" fill="#F5F5DC" height="68.543" id="MedicalCondition" rx="2.5" ry="2.5" style="stroke:#181818;stroke-width:0.5;" width="140" x="1448" y="379.0137"/><ellipse cx="1463" cy="409.2852" fill="#ADD1B2" rx="11" ry="11" style="stroke:#181818;stroke-width:1.0;"/><path d="M1461.8594,410.082 L1461.8594,412.582 L1466.1875,412.582 L1466.1875,411.6602 Q1466.1875,411.0508 1466.4219,410.7852 Q1466.6719,410.5195 1467.0469,410.5195 Q1467.4219,410.5195 1467.6563,410.7852 Q1467.8906,411.0508 1467.8906,411.6602 L1467.8906,414.2852 L1459.8906,414.2852 Q1459.2656,414.2852 1459,414.0508 Q1458.75,413.8164 1458.75,413.4258 Q1458.75,413.0508 1459.0156,412.8164 Q1459.2813,412.582 1459.8906,412.582 L1460.1563,412.582 L1460.1563,405.9258 L1459.8906,405.9258 Q1459.2656,405.9258 1459,405.6914 Q1458.75,405.457 1458.75,405.0664 Q1458.75,404.6914 1459,404.457 Q1459.2656,404.2227 1459.8906,404.2227 L1467.5156,404.2227 L1467.5156,406.8164 Q1467.5156,407.4258 1467.2813,407.6914 Q1467.0625,407.9414 1466.6719,407.9414 Q1466.2969,407.9414 1466.0625,407.6914 Q1465.8281,407.4258 1465.8281,406.8164 L1465.8281,405.9258 L1461.8594,405.9258 L1461.8594,408.3789 L1463.3438,408.3789 Q1463.3438,407.7227 1463.4688,407.5352 Q1463.7344,407.1289 1464.2031,407.1289 Q1464.5781,407.1289 1464.8125,407.3945 Q1465.0469,407.6445 1465.0469,408.2539 L1465.0469,410.2227 Q1465.0469,410.7695 1464.9219,410.957 Q1464.6563,411.3477 1464.2031,411.3477 Q1463.7344,411.3477 1463.4688,410.9414 Q1463.3438,410.7539 1463.3438,410.082 L1461.8594,410.082 Z " fill="#000000"/><text fill="#000000" font-family="sans-serif" font-size="12" font-style="italic" lengthAdjust="spacing" textLength="43" x="1509.5" y="396.9629">&#171;entity&#187;</text><text fill="#000000" font-family="sans-serif" font-size="12" font-style="italic" lengthAdjust="spacing" textLength="35" x="1513.5" y="412.9238">&#171;root&#187;</text><text fill="#000000" font-family="sans-serif" font-size="14" lengthAdjust="spacing" textLength="108" x="1477" y="431.043">MedicalCondition</text><line style="stroke:#181818;stroke-width:0.5;" x1="1449" x2="1587" y1="439.5566" y2="439.5566"/></g><!--class MedicalConditionDesignation--><g id="elem_MedicalConditionDesignation"><rect codeLine="33" fill="#F5F5DC" height="52.582" id="MedicalConditionDesignation" rx="2.5" ry="2.5" style="stroke:#181818;stroke-width:0.5;" width="215" x="1772.5" y="516.0137"/><ellipse cx="1787.5" cy="538.3047" fill="#FF8B40" rx="11" ry="11" style="stroke:#181818;stroke-width:1.0;"/><path d="M1788.0938,541.5703 L1790.5625,535.6953 L1790.1719,535.6953 Q1789.5625,535.6953 1789.2969,535.4609 Q1789.0313,535.2266 1789.0313,534.8359 Q1789.0313,534.4609 1789.2969,534.2266 Q1789.5625,533.9922 1790.1719,533.9922 L1792.4531,533.9922 Q1793.0625,533.9922 1793.3281,534.2266 Q1793.5938,534.4609 1793.5938,534.8359 Q1793.5938,535.3047 1793.1875,535.5703 Q1793,535.6953 1792.4063,535.6953 L1788.9219,544.0547 L1787.2813,544.0547 L1783.7969,535.6953 Q1783.2031,535.6953 1783.0156,535.5703 Q1782.6094,535.3047 1782.6094,534.8359 Q1782.6094,534.4609 1782.875,534.2266 Q1783.1406,533.9922 1783.75,533.9922 L1786.0469,533.9922 Q1786.6563,533.9922 1786.9063,534.2266 Q1787.1719,534.4609 1787.1719,534.8359 Q1787.1719,535.2266 1786.9063,535.4609 Q1786.6563,535.6953 1786.0469,535.6953 L1785.6406,535.6953 L1788.0938,541.5703 Z " fill="#000000"/><text fill="#000000" font-family="sans-serif" font-size="12" font-style="italic" lengthAdjust="spacing" textLength="81" x="1852.5" y="533.9629">&#171;value object&#187;</text><text fill="#000000" font-family="sans-serif" font-size="14" lengthAdjust="spacing" textLength="183" x="1801.5" y="552.082">MedicalConditionDesignation</text><line style="stroke:#181818;stroke-width:0.5;" x1="1773.5" x2="1986.5" y1="560.5957" y2="560.5957"/></g><!--class MedicalConditionCode--><g id="elem_MedicalConditionCode"><rect codeLine="34" fill="#F5F5DC" height="68.543" id="MedicalConditionCode" rx="2.5" ry="2.5" style="stroke:#181818;stroke-width:0.5;" width="174" x="1317" y="508.0137"/><ellipse cx="1332" cy="538.2852" fill="#FF8B40" rx="11" ry="11" style="stroke:#181818;stroke-width:1.0;"/><path d="M1332.5938,541.5508 L1335.0625,535.6758 L1334.6719,535.6758 Q1334.0625,535.6758 1333.7969,535.4414 Q1333.5313,535.207 1333.5313,534.8164 Q1333.5313,534.4414 1333.7969,534.207 Q1334.0625,533.9727 1334.6719,533.9727 L1336.9531,533.9727 Q1337.5625,533.9727 1337.8281,534.207 Q1338.0938,534.4414 1338.0938,534.8164 Q1338.0938,535.2852 1337.6875,535.5508 Q1337.5,535.6758 1336.9063,535.6758 L1333.4219,544.0352 L1331.7813,544.0352 L1328.2969,535.6758 Q1327.7031,535.6758 1327.5156,535.5508 Q1327.1094,535.2852 1327.1094,534.8164 Q1327.1094,534.4414 1327.375,534.207 Q1327.6406,533.9727 1328.25,533.9727 L1330.5469,533.9727 Q1331.1563,533.9727 1331.4063,534.207 Q1331.6719,534.4414 1331.6719,534.8164 Q1331.6719,535.207 1331.4063,535.4414 Q1331.1563,535.6758 1330.5469,535.6758 L1330.1406,535.6758 L1332.5938,541.5508 Z " fill="#000000"/><text fill="#000000" font-family="sans-serif" font-size="12" font-style="italic" lengthAdjust="spacing" textLength="81" x="1376.5" y="525.9629">&#171;value object&#187;</text><text fill="#000000" font-family="sans-serif" font-size="12" font-style="italic" lengthAdjust="spacing" textLength="61" x="1386.5" y="541.9238">&#171;identifier&#187;</text><text fill="#000000" font-family="sans-serif" font-size="14" lengthAdjust="spacing" textLength="142" x="1346" y="560.043">MedicalConditionCode</text><line style="stroke:#181818;stroke-width:0.5;" x1="1318" x2="1490" y1="568.5566" y2="568.5566"/></g><!--class MedicalConditionDescription--><g id="elem_MedicalConditionDescription"><rect codeLine="35" fill="#F5F5DC" height="52.582" id="MedicalConditionDescription" rx="2.5" ry="2.5" style="stroke:#181818;stroke-width:0.5;" width="211" x="1526.5" y="516.0137"/><ellipse cx="1541.5" cy="538.3047" fill="#FF8B40" rx="11" ry="11" style="stroke:#181818;stroke-width:1.0;"/><path d="M1542.0938,541.5703 L1544.5625,535.6953 L1544.1719,535.6953 Q1543.5625,535.6953 1543.2969,535.4609 Q1543.0313,535.2266 1543.0313,534.8359 Q1543.0313,534.4609 1543.2969,534.2266 Q1543.5625,533.9922 1544.1719,533.9922 L1546.4531,533.9922 Q1547.0625,533.9922 1547.3281,534.2266 Q1547.5938,534.4609 1547.5938,534.8359 Q1547.5938,535.3047 1547.1875,535.5703 Q1547,535.6953 1546.4063,535.6953 L1542.9219,544.0547 L1541.2813,544.0547 L1537.7969,535.6953 Q1537.2031,535.6953 1537.0156,535.5703 Q1536.6094,535.3047 1536.6094,534.8359 Q1536.6094,534.4609 1536.875,534.2266 Q1537.1406,533.9922 1537.75,533.9922 L1540.0469,533.9922 Q1540.6563,533.9922 1540.9063,534.2266 Q1541.1719,534.4609 1541.1719,534.8359 Q1541.1719,535.2266 1540.9063,535.4609 Q1540.6563,535.6953 1540.0469,535.6953 L1539.6406,535.6953 L1542.0938,541.5703 Z " fill="#000000"/><text fill="#000000" font-family="sans-serif" font-size="12" font-style="italic" lengthAdjust="spacing" textLength="81" x="1604.5" y="533.9629">&#171;value object&#187;</text><text fill="#000000" font-family="sans-serif" font-size="14" lengthAdjust="spacing" textLength="179" x="1555.5" y="552.082">MedicalConditionDescription</text><line style="stroke:#181818;stroke-width:0.5;" x1="1527.5" x2="1736.5" y1="560.5957" y2="560.5957"/></g><!--class Doctor--><g id="elem_Doctor"><rect codeLine="39" fill="#F5F5DC" height="68.543" id="Doctor" rx="2.5" ry="2.5" style="stroke:#181818;stroke-width:0.5;" width="74" x="1343" y="43.0137"/><ellipse cx="1358" cy="73.2852" fill="#ADD1B2" rx="11" ry="11" style="stroke:#181818;stroke-width:1.0;"/><path d="M1356.8594,74.082 L1356.8594,76.582 L1361.1875,76.582 L1361.1875,75.6602 Q1361.1875,75.0508 1361.4219,74.7852 Q1361.6719,74.5195 1362.0469,74.5195 Q1362.4219,74.5195 1362.6563,74.7852 Q1362.8906,75.0508 1362.8906,75.6602 L1362.8906,78.2852 L1354.8906,78.2852 Q1354.2656,78.2852 1354,78.0508 Q1353.75,77.8164 1353.75,77.4258 Q1353.75,77.0508 1354.0156,76.8164 Q1354.2813,76.582 1354.8906,76.582 L1355.1563,76.582 L1355.1563,69.9258 L1354.8906,69.9258 Q1354.2656,69.9258 1354,69.6914 Q1353.75,69.457 1353.75,69.0664 Q1353.75,68.6914 1354,68.457 Q1354.2656,68.2227 1354.8906,68.2227 L1362.5156,68.2227 L1362.5156,70.8164 Q1362.5156,71.4258 1362.2813,71.6914 Q1362.0625,71.9414 1361.6719,71.9414 Q1361.2969,71.9414 1361.0625,71.6914 Q1360.8281,71.4258 1360.8281,70.8164 L1360.8281,69.9258 L1356.8594,69.9258 L1356.8594,72.3789 L1358.3438,72.3789 Q1358.3438,71.7227 1358.4688,71.5352 Q1358.7344,71.1289 1359.2031,71.1289 Q1359.5781,71.1289 1359.8125,71.3945 Q1360.0469,71.6445 1360.0469,72.2539 L1360.0469,74.2227 Q1360.0469,74.7695 1359.9219,74.957 Q1359.6563,75.3477 1359.2031,75.3477 Q1358.7344,75.3477 1358.4688,74.9414 Q1358.3438,74.7539 1358.3438,74.082 L1356.8594,74.082 Z " fill="#000000"/><text fill="#000000" font-family="sans-serif" font-size="12" font-style="italic" lengthAdjust="spacing" textLength="43" x="1371.5" y="60.9629">&#171;entity&#187;</text><text fill="#000000" font-family="sans-serif" font-size="12" font-style="italic" lengthAdjust="spacing" textLength="35" x="1375.5" y="76.9238">&#171;root&#187;</text><text fill="#000000" font-family="sans-serif" font-size="14" lengthAdjust="spacing" textLength="42" x="1372" y="95.043">Doctor</text><line style="stroke:#181818;stroke-width:0.5;" x1="1344" x2="1416" y1="103.5566" y2="103.5566"/></g><!--link Name to FirstName--><g id="link_Name_FirstName"><path codeLine="43" d="M1091.28,294.0637 C1104.58,305.9437 1120.35,320.4237 1134,334.0137 C1151.16,351.1137 1165.6267,366.7856 1179.5467,382.3956 " fill="none" id="Name-to-FirstName" style="stroke:#222222;stroke-width:1.0;"/><polygon fill="#222222" points="1183.54,386.8737,1180.5355,377.4943,1180.2122,383.1419,1174.5646,382.8187,1183.54,386.8737" style="stroke:#222222;stroke-width:1.0;"/></g><!--link Name to LastName--><g id="link_Name_LastName"><path codeLine="44" d="M1116.56,267.5137 C1128.21,267.5137 1133.85,267.5137 1145.5,267.5137 " fill="none" id="Name-to-LastName" style="stroke:#222222;stroke-width:1.0;"/><polygon fill="#222222" points="1151.5,267.5137,1142.5,263.5137,1146.5,267.5137,1142.5,271.5137,1151.5,267.5137" style="stroke:#222222;stroke-width:1.0;"/></g><!--link Name to FullName--><g id="link_Name_FullName"><path codeLine="45" d="M1062,294.2537 C1062,320.4737 1062,354.8637 1062,380.9937 " fill="none" id="Name-to-FullName" style="stroke:#222222;stroke-width:1.0;"/><polygon fill="#222222" points="1062,386.9937,1066,377.9937,1062,381.9937,1058,377.9937,1062,386.9937" style="stroke:#222222;stroke-width:1.0;"/></g><!--link Patient to Status--><g id="link_Patient_Status"><path codeLine="47" d="M657.5,267.5137 C669.15,267.5137 674.81,267.5137 686.46,267.5137 " fill="none" id="Patient-to-Status" style="stroke:#222222;stroke-width:1.0;"/><polygon fill="#222222" points="692.46,267.5137,683.46,263.5137,687.46,267.5137,683.46,271.5137,692.46,267.5137" style="stroke:#222222;stroke-width:1.0;"/><text fill="#000000" font-family="sans-serif" font-size="13" lengthAdjust="spacing" textLength="7" x="677.6609" y="263.4474">1</text></g><!--link Patient to Name--><g id="link_Patient_Name"><path codeLine="48" d="M634.42,232.5937 C646.5,210.8537 665.77,186.0037 692.5,180.5137 C806.61,157.0937 933.8593,204.9327 1005.0693,238.3827 " fill="none" id="Patient-to-Name" style="stroke:#222222;stroke-width:1.0;"/><polygon fill="#222222" points="1010.5,240.9337,1004.0546,233.4867,1005.9744,238.8078,1000.6533,240.7276,1010.5,240.9337" style="stroke:#222222;stroke-width:1.0;"/><text fill="#000000" font-family="sans-serif" font-size="13" lengthAdjust="spacing" textLength="7" x="992.6719" y="231.1254">1</text></g><!--link Patient to DateBirth--><g id="link_Patient_DateBirth"><path codeLine="49" d="M580.73,269.7037 C518.92,273.0537 394.75,285.7837 303,334.0137 C278.58,346.8537 260.2577,364.5793 245.1277,382.1293 " fill="none" id="Patient-to-DateBirth" style="stroke:#222222;stroke-width:1.0;"/><polygon fill="#222222" points="241.21,386.6737,250.1162,382.4689,244.4748,382.8867,244.057,377.2453,241.21,386.6737" style="stroke:#222222;stroke-width:1.0;"/><text fill="#000000" font-family="sans-serif" font-size="13" lengthAdjust="spacing" textLength="7" x="238.0742" y="375.6116">1</text></g><!--link Patient to Gender--><g id="link_Patient_Gender"><path codeLine="50" d="M635.88,302.2737 C648.77,328.0437 663.5658,357.6576 675.3658,381.2476 " fill="none" id="Patient-to-Gender" style="stroke:#222222;stroke-width:1.0;"/><polygon fill="#222222" points="678.05,386.6137,677.6011,376.775,675.8132,382.1419,670.4463,380.354,678.05,386.6137" style="stroke:#222222;stroke-width:1.0;"/><text fill="#000000" font-family="sans-serif" font-size="13" lengthAdjust="spacing" textLength="7" x="667.2459" y="375.5377">1</text></g><!--link Patient to EmergencyContact--><g id="link_Patient_EmergencyContact"><path codeLine="51" d="M644.25,302.2837 C652.94,311.5237 663.43,320.5037 675,326.0137 C692.73,334.4637 749.76,319.5137 763,334.0137 C797.17,371.4237 792.97,407.1637 763,448.0137 C749.55,466.3437 631.299,499.4718 547.829,521.0518 " fill="none" id="Patient-to-EmergencyContact" style="stroke:#222222;stroke-width:1.0;"/><polygon fill="#222222" points="542.02,522.5537,551.7347,524.1736,546.8608,521.3021,549.7323,516.4283,542.02,522.5537" style="stroke:#222222;stroke-width:1.0;"/><text fill="#000000" font-family="sans-serif" font-size="13" lengthAdjust="spacing" textLength="7" x="550.2205" y="516.6836">1</text></g><!--link Patient to MRN--><g id="link_Patient_MRN"><path codeLine="52" d="M580.81,270.5237 C482.68,276.1937 224.13,294.5637 149,334.0137 C129.19,344.4137 115.7036,357.7876 103.1036,373.9876 " fill="none" id="Patient-to-MRN" style="stroke:#222222;stroke-width:1.0;"/><polygon fill="#222222" points="99.42,378.7237,108.1029,374.0753,102.4897,374.7769,101.7881,369.1637,99.42,378.7237" style="stroke:#222222;stroke-width:1.0;"/><text fill="#000000" font-family="sans-serif" font-size="13" lengthAdjust="spacing" textLength="7" x="95.9084" y="367.8394">1</text></g><!--link Patient to MedicalRecord--><g id="link_Patient_MedicalRecord"><path codeLine="53" d="M634.42,232.5937 C646.5,210.8537 665.77,186.0037 692.5,180.5137 C723.36,174.1837 1228.64,174.1837 1259.5,180.5137 C1293.88,187.5737 1321.3759,207.5661 1343.6859,228.6161 " fill="none" id="Patient-to-MedicalRecord" style="stroke:#222222;stroke-width:1.0;"/><polygon fill="#222222" points="1348.05,232.7337,1344.2489,223.6479,1344.4133,229.3023,1338.7588,229.4666,1348.05,232.7337" style="stroke:#222222;stroke-width:1.0;"/><text fill="#000000" font-family="sans-serif" font-size="13" lengthAdjust="spacing" textLength="7" x="1334.5139" y="221.8512">1</text></g><!--link MedicalRecord to AppointmentHistory--><g id="link_MedicalRecord_AppointmentHistory"><path codeLine="54" d="M1331.02,302.1637 C1314.58,311.7037 1295.66,320.8837 1277,326.0137 C1246.24,334.4737 1019.87,322.8037 990,334.0137 C961.16,344.8437 938.8404,363.9812 921.2204,382.4612 " fill="none" id="MedicalRecord-to-AppointmentHistory" style="stroke:#222222;stroke-width:1.0;"/><polygon fill="#222222" points="917.08,386.8037,926.1856,383.0502,920.5303,383.1849,920.3956,377.5297,917.08,386.8037" style="stroke:#222222;stroke-width:1.0;"/><text fill="#000000" font-family="sans-serif" font-size="13" lengthAdjust="spacing" textLength="7" x="914.3766" y="375.7717">1</text></g><!--link Patient to AppointmentHistory--><g id="link_Patient_AppointmentHistory"><path codeLine="55" d="M643.9,302.1337 C652.63,311.4937 663.24,320.5637 675,326.0137 C721.89,347.7337 742.59,315.9237 791,334.0137 C821.3,345.3437 845.8078,364.4161 865.4178,382.6661 " fill="none" id="Patient-to-AppointmentHistory" style="stroke:#222222;stroke-width:1.0;"/><polygon fill="#222222" points="869.81,386.7537,865.9468,377.6941,866.1498,383.3473,860.4966,383.5504,869.81,386.7537" style="stroke:#222222;stroke-width:1.0;"/><text fill="#000000" font-family="sans-serif" font-size="13" lengthAdjust="spacing" textLength="20" x="841.6723" y="375.7101">0..*</text></g><!--link Patient to Email--><g id="link_Patient_Email"><path codeLine="56" d="M580.99,281.0137 C550.6,292.1037 507.79,310.2237 475,334.0137 C454.64,348.7837 439.3588,365.337 425.9688,381.997 " fill="none" id="Patient-to-Email" style="stroke:#222222;stroke-width:1.0;"/><polygon fill="#222222" points="422.21,386.6737,430.966,382.1645,425.3423,382.7764,424.7304,377.1528,422.21,386.6737" style="stroke:#222222;stroke-width:1.0;"/><text fill="#000000" font-family="sans-serif" font-size="13" lengthAdjust="spacing" textLength="7" x="418.8429" y="375.6116">1</text></g><!--link Patient to Phone--><g id="link_Patient_Phone"><path codeLine="57" d="M580.87,271.4337 C509.88,277.7537 361.87,295.3437 331,334.0137 C257.27,426.3937 345.0931,571.9596 387.3031,631.8396 " fill="none" id="Patient-to-Phone" style="stroke:#222222;stroke-width:1.0;"/><polygon fill="#222222" points="390.76,636.7437,388.844,627.083,387.8792,632.657,382.3053,631.6922,390.76,636.7437" style="stroke:#222222;stroke-width:1.0;"/><text fill="#000000" font-family="sans-serif" font-size="13" lengthAdjust="spacing" textLength="7" x="378.5014" y="625.6978">1</text></g><!--link Patient to Address--><g id="link_Patient_Address"><path codeLine="58" d="M602.12,302.2737 C589.23,328.0437 574.4342,357.6576 562.6342,381.2476 " fill="none" id="Patient-to-Address" style="stroke:#222222;stroke-width:1.0;"/><polygon fill="#222222" points="559.95,386.6137,567.5537,380.354,562.1868,382.1419,560.3989,376.775,559.95,386.6137" style="stroke:#222222;stroke-width:1.0;"/><text fill="#000000" font-family="sans-serif" font-size="13" lengthAdjust="spacing" textLength="7" x="555.1353" y="375.5377">1</text></g><!--link EmergencyContact to Phone--><g id="link_EmergencyContact_Phone"><path codeLine="59" d="M453.99,569.0437 C444.6,588.9837 434.1757,611.1552 424.7457,631.1852 " fill="none" id="EmergencyContact-to-Phone" style="stroke:#222222;stroke-width:1.0;"/><polygon fill="#222222" points="422.19,636.6137,429.6425,630.1747,424.3197,632.0899,422.4046,626.7672,422.19,636.6137" style="stroke:#222222;stroke-width:1.0;"/><text fill="#000000" font-family="sans-serif" font-size="13" lengthAdjust="spacing" textLength="7" x="417.1996" y="625.5377">1</text></g><!--link AppointmentHistory to AppointmentHistoryStatus--><g id="link_AppointmentHistory_AppointmentHistoryStatus"><path codeLine="61" d="M932.84,440.2137 C965.29,462.2437 1006.8273,490.4514 1039.2473,512.4814 " fill="none" id="AppointmentHistory-to-AppointmentHistoryStatus" style="stroke:#222222;stroke-width:1.0;"/><polygon fill="#222222" points="1044.21,515.8537,1039.0141,507.4869,1040.0744,513.0435,1034.5178,514.1038,1044.21,515.8537" style="stroke:#222222;stroke-width:1.0;"/><text fill="#000000" font-family="sans-serif" font-size="13" lengthAdjust="spacing" textLength="7" x="1027.6617" y="504.8332">1</text></g><!--link AppointmentHistory to AppointmentHistoryType--><g id="link_AppointmentHistory_AppointmentHistoryType"><path codeLine="62" d="M857.97,440.2137 C826.22,462.2437 785.6386,490.4018 753.9086,512.4318 " fill="none" id="AppointmentHistory-to-AppointmentHistoryType" style="stroke:#222222;stroke-width:1.0;"/><polygon fill="#222222" points="748.98,515.8537,758.6541,514.0066,753.0871,513.0021,754.0916,507.4351,748.98,515.8537" style="stroke:#222222;stroke-width:1.0;"/><text fill="#000000" font-family="sans-serif" font-size="13" lengthAdjust="spacing" textLength="7" x="749.7223" y="504.8332">1</text></g><!--link AppointmentHistory to CreatedAt--><g id="link_AppointmentHistory_CreatedAt"><path codeLine="63" d="M895,440.2137 C895,462.2437 895,487.8237 895,509.8537 " fill="none" id="AppointmentHistory-to-CreatedAt" style="stroke:#222222;stroke-width:1.0;"/><polygon fill="#222222" points="895,515.8537,899,506.8537,895,510.8537,891,506.8537,895,515.8537" style="stroke:#222222;stroke-width:1.0;"/><text fill="#000000" font-family="sans-serif" font-size="13" lengthAdjust="spacing" textLength="7" x="887.1906" y="504.8332">1</text></g><!--link MedicalRecord to MedicalCondition--><g id="link_MedicalRecord_MedicalCondition"><path codeLine="65" d="M1412.35,302.2737 C1434.5,325.3837 1459.5875,351.5728 1481.6975,374.6328 " fill="none" id="MedicalRecord-to-MedicalCondition" style="stroke:#222222;stroke-width:1.0;"/><polygon fill="#222222" points="1485.85,378.9637,1482.5085,369.699,1482.3896,375.3546,1476.734,375.2356,1485.85,378.9637" style="stroke:#222222;stroke-width:1.0;"/><text fill="#000000" font-family="sans-serif" font-size="13" lengthAdjust="spacing" textLength="20" x="1457.8152" y="367.8569">0..*</text></g><!--link MedicalRecord to MedicalRecordDescription--><g id="link_MedicalRecord_MedicalRecordDescription"><path codeLine="66" d="M1443.1,267.5137 C1454.87,267.5137 1460.64,267.5137 1472.41,267.5137 " fill="none" id="MedicalRecord-to-MedicalRecordDescription" style="stroke:#222222;stroke-width:1.0;"/><polygon fill="#222222" points="1478.41,267.5137,1469.41,263.5137,1473.41,267.5137,1469.41,271.5137,1478.41,267.5137" style="stroke:#222222;stroke-width:1.0;"/></g><!--link Doctor to MedicalRecord--><g id="link_Doctor_MedicalRecord"><path codeLine="67" d="M1380,112.1237 C1380,146.2337 1380,192.7537 1380,226.8737 " fill="none" id="Doctor-to-MedicalRecord" style="stroke:#222222;stroke-width:1.0;"/><polygon fill="#222222" points="1380,232.8737,1384,223.8737,1380,227.8737,1376,223.8737,1380,232.8737" style="stroke:#222222;stroke-width:1.0;"/><text fill="#000000" font-family="sans-serif" font-size="13" lengthAdjust="spacing" textLength="20" x="1358.0938" y="221.7497">0..*</text></g><!--link MedicalCondition to MedicalConditionCode--><g id="link_MedicalCondition_MedicalConditionCode"><path codeLine="69" d="M1487.75,448.2137 C1471.26,466.5837 1454.9083,484.799 1438.3983,503.189 " fill="none" id="MedicalCondition-to-MedicalConditionCode" style="stroke:#222222;stroke-width:1.0;"/><polygon fill="#222222" points="1434.39,507.6537,1443.3789,503.6288,1437.7302,503.9331,1437.426,498.2844,1434.39,507.6537" style="stroke:#222222;stroke-width:1.0;"/><text fill="#000000" font-family="sans-serif" font-size="13" lengthAdjust="spacing" textLength="7" x="1432.3478" y="496.7565">1</text></g><!--link MedicalCondition to MedicalConditionDescription--><g id="link_MedicalCondition_MedicalConditionDescription"><path codeLine="70" d="M1548.25,448.2137 C1567.25,469.3737 1587.3618,491.7889 1604.8318,511.2489 " fill="none" id="MedicalCondition-to-MedicalConditionDescription" style="stroke:#222222;stroke-width:1.0;"/><polygon fill="#222222" points="1608.84,515.7137,1605.8042,506.3444,1605.4998,511.993,1599.8512,511.6886,1608.84,515.7137" style="stroke:#222222;stroke-width:1.0;"/><text fill="#000000" font-family="sans-serif" font-size="13" lengthAdjust="spacing" textLength="22" x="1578.9405" y="504.6608">0..1</text></g><!--link MedicalCondition to MedicalConditionDesignation--><g id="link_MedicalCondition_MedicalConditionDesignation"><path codeLine="71" d="M1588.23,439.1537 C1651.25,461.2637 1737.7081,491.5979 1801.5181,513.9779 " fill="none" id="MedicalCondition-to-MedicalConditionDesignation" style="stroke:#222222;stroke-width:1.0;"/><polygon fill="#222222" points="1807.18,515.9637,1800.0111,509.2104,1802.4618,514.3089,1797.3634,516.7596,1807.18,515.9637" style="stroke:#222222;stroke-width:1.0;"/><text fill="#000000" font-family="sans-serif" font-size="13" lengthAdjust="spacing" textLength="7" x="1781.577" y="504.535">1</text></g><!--SRC=[fLLDZzCm4BtxLrZT2o2wAeW3XoXIFoWWiQlLBkBksaDgDh4ZsmMLrVvtPXCt977QnhivHM_U6qzc_2RsNggI6LPGdZDhvyuPkTav-CgrkfD_WSx8LWgWK9HkJzaXR8dj2XUCtsT6xvHOwbmRkW6PGOiqDqR_gKCNxwk7a18rB0CwIHAMPGOovY1DwGrp4fIRq0T2yS5NYKTxb2P93I0nIOpM3byU7YjcLGXTOPQ5D6wByLS_tbwirnyN7sQlVxDy1rHlVW4F99z12J3Z-PyAC1aelbzgvHXtuvLNjzSdoKc2pSRl-od1zBNpijHIkGBZNwHrskp7dnjgxnnpE_kI3D_t9OpNBmtWOCGyebdNh8WuO2sDTN6IRonMiTxbUPpYPgiLn5mj9lE8gGXXm4QCSTpO7uVDIQz0ICxoM-3QY3JjMRGJRHdruDEk4zha5LXkPEcaLf7sE5Cf6bJ8fxJ7Ycq88-jj-5Yop1GxMp8zcMMf1Jnx8GoKDAgBf_gsqXoz7NIhXeTxXAb8vOdfDFtlGW-bZSbQ76yYGWvB7S79kuc_d7sqeZQO1vij7qJgPTw2FTvVse4GTtF_wCub9TtxVP25Yx6RUNPv-UOygoeGhH-WrVu8KEzx4lo9kZ8oyCyuNhTlVvJcwITmIj6iVJBKlhet_NlSPwP7bmNnzt8QPlCp8u7FfztPTgnuX8s91mJjEaQVqbeRv1y0]--></g></svg>