<?xml version="1.0" encoding="us-ascii" standalone="no"?><svg xmlns="http://www.w3.org/2000/svg" xmlns:xlink="http://www.w3.org/1999/xlink" contentStyleType="text/css" height="502px" preserveAspectRatio="none" style="width:475px;height:502px;background:#FFFFFF;" version="1.1" viewBox="0 0 475 502" width="475px" zoomAndPan="magnify"><defs/><g><text fill="#000000" font-family="sans-serif" font-size="14" font-weight="bold" lengthAdjust="spacing" textLength="262" x="108.25" y="30.1074">US 5.1.15 - System Sequence Diagram</text><rect fill="#FFFFFF" height="343.541" style="stroke:#181818;stroke-width:1.0;" width="10" x="51.5" y="111.5332"/><rect fill="#FFFFFF" height="343.541" style="stroke:#181818;stroke-width:1.0;" width="10" x="414.5" y="111.5332"/><rect fill="none" height="81.873" style="stroke:#000000;stroke-width:1.5;" width="439.5" x="20" y="157.8242"/><rect fill="none" height="194.377" style="stroke:#000000;stroke-width:1.5;" width="459.5" x="10" y="253.6973"/><rect fill="none" height="98.5039" style="stroke:#000000;stroke-width:1.5;" width="439.5" x="20" y="342.5703"/><line style="stroke:#181818;stroke-width:0.5;stroke-dasharray:5.0,5.0;" x1="56" x2="56" y1="78.2422" y2="465.0742"/><line style="stroke:#181818;stroke-width:0.5;stroke-dasharray:5.0,5.0;" x1="419.5" x2="419.5" y1="78.2422" y2="465.0742"/><rect fill="#E2E2F0" height="32.6211" rx="2.5" ry="2.5" style="stroke:#181818;stroke-width:0.5;" width="53" x="30" y="44.6211"/><text fill="#000000" font-family="sans-serif" font-size="14" lengthAdjust="spacing" textLength="39" x="37" y="66.7285">Admin</text><rect fill="#E2E2F0" height="32.6211" rx="2.5" ry="2.5" style="stroke:#181818;stroke-width:0.5;" width="53" x="30" y="464.0742"/><text fill="#000000" font-family="sans-serif" font-size="14" lengthAdjust="spacing" textLength="39" x="37" y="486.1816">Admin</text><rect fill="#E2E2F0" height="32.6211" rx="2.5" ry="2.5" style="stroke:#181818;stroke-width:0.5;" width="60" x="389.5" y="44.6211"/><text fill="#000000" font-family="sans-serif" font-size="14" lengthAdjust="spacing" textLength="46" x="396.5" y="66.7285">System</text><rect fill="#E2E2F0" height="32.6211" rx="2.5" ry="2.5" style="stroke:#181818;stroke-width:0.5;" width="60" x="389.5" y="464.0742"/><text fill="#000000" font-family="sans-serif" font-size="14" lengthAdjust="spacing" textLength="46" x="396.5" y="486.1816">System</text><rect fill="#FFFFFF" height="343.541" style="stroke:#181818;stroke-width:1.0;" width="10" x="51.5" y="111.5332"/><rect fill="#FFFFFF" height="343.541" style="stroke:#181818;stroke-width:1.0;" width="10" x="414.5" y="111.5332"/><polygon fill="#181818" points="402.5,107.5332,412.5,111.5332,402.5,115.5332,406.5,111.5332" style="stroke:#181818;stroke-width:1.0;"/><line style="stroke:#181818;stroke-width:1.0;" x1="61.5" x2="408.5" y1="111.5332" y2="111.5332"/><text fill="#000000" font-family="sans-serif" font-size="13" font-weight="bold" lengthAdjust="spacing" textLength="7" x="68.5" y="106.2705">1</text><text fill="#000000" font-family="sans-serif" font-size="13" lengthAdjust="spacing" textLength="202" x="79.5" y="106.2705">requests the list of the staff profiles</text><polygon fill="#181818" points="72.5,138.8242,62.5,142.8242,72.5,146.8242,68.5,142.8242" style="stroke:#181818;stroke-width:1.0;"/><line style="stroke:#181818;stroke-width:1.0;stroke-dasharray:2.0,2.0;" x1="66.5" x2="413.5" y1="142.8242" y2="142.8242"/><text fill="#000000" font-family="sans-serif" font-size="13" font-weight="bold" lengthAdjust="spacing" textLength="7" x="78.5" y="137.5615">2</text><text fill="#000000" font-family="sans-serif" font-size="13" lengthAdjust="spacing" textLength="119" x="89.5" y="137.5615">lists the staff profiles</text><path d="M20,157.8242 L93,157.8242 L93,167.1152 L83,177.1152 L20,177.1152 L20,157.8242 " fill="#EEEEEE" style="stroke:#000000;stroke-width:1.5;"/><rect fill="none" height="81.873" style="stroke:#000000;stroke-width:1.5;" width="439.5" x="20" y="157.8242"/><text fill="#000000" font-family="sans-serif" font-size="13" font-weight="bold" lengthAdjust="spacing" textLength="28" x="35" y="172.8525">loop</text><text fill="#000000" font-family="sans-serif" font-size="11" font-weight="bold" lengthAdjust="spacing" textLength="138" x="108" y="171.6943">[until the Admin desires]</text><polygon fill="#181818" points="402.5,196.4063,412.5,200.4063,402.5,204.4063,406.5,200.4063" style="stroke:#181818;stroke-width:1.0;"/><line style="stroke:#181818;stroke-width:1.0;" x1="61.5" x2="408.5" y1="200.4063" y2="200.4063"/><text fill="#000000" font-family="sans-serif" font-size="13" font-weight="bold" lengthAdjust="spacing" textLength="7" x="68.5" y="195.1436">3</text><text fill="#000000" font-family="sans-serif" font-size="13" lengthAdjust="spacing" textLength="318" x="79.5" y="195.1436">applies search filters (by name, email or specialization)</text><polygon fill="#181818" points="72.5,227.6973,62.5,231.6973,72.5,235.6973,68.5,231.6973" style="stroke:#181818;stroke-width:1.0;"/><line style="stroke:#181818;stroke-width:1.0;stroke-dasharray:2.0,2.0;" x1="66.5" x2="413.5" y1="231.6973" y2="231.6973"/><text fill="#000000" font-family="sans-serif" font-size="13" font-weight="bold" lengthAdjust="spacing" textLength="7" x="78.5" y="226.4346">4</text><text fill="#000000" font-family="sans-serif" font-size="13" lengthAdjust="spacing" textLength="158" x="89.5" y="226.4346">presents the search results</text><path d="M10,253.6973 L75,253.6973 L75,262.9883 L65,272.9883 L10,272.9883 L10,253.6973 " fill="#EEEEEE" style="stroke:#000000;stroke-width:1.5;"/><rect fill="none" height="194.377" style="stroke:#000000;stroke-width:1.5;" width="459.5" x="10" y="253.6973"/><text fill="#000000" font-family="sans-serif" font-size="13" font-weight="bold" lengthAdjust="spacing" textLength="20" x="25" y="268.7256">opt</text><text fill="#000000" font-family="sans-serif" font-size="11" font-weight="bold" lengthAdjust="spacing" textLength="180" x="90" y="267.5674">[Admin wants to select a profile]</text><polygon fill="#181818" points="402.5,292.2793,412.5,296.2793,402.5,300.2793,406.5,296.2793" style="stroke:#181818;stroke-width:1.0;"/><line style="stroke:#181818;stroke-width:1.0;" x1="61.5" x2="408.5" y1="296.2793" y2="296.2793"/><text fill="#000000" font-family="sans-serif" font-size="13" font-weight="bold" lengthAdjust="spacing" textLength="7" x="68.5" y="291.0166">5</text><text fill="#000000" font-family="sans-serif" font-size="13" lengthAdjust="spacing" textLength="91" x="79.5" y="291.0166">selects a profile</text><polygon fill="#181818" points="72.5,323.5703,62.5,327.5703,72.5,331.5703,68.5,327.5703" style="stroke:#181818;stroke-width:1.0;"/><line style="stroke:#181818;stroke-width:1.0;stroke-dasharray:2.0,2.0;" x1="66.5" x2="413.5" y1="327.5703" y2="327.5703"/><text fill="#000000" font-family="sans-serif" font-size="13" font-weight="bold" lengthAdjust="spacing" textLength="7" x="78.5" y="322.3076">6</text><text fill="#000000" font-family="sans-serif" font-size="13" lengthAdjust="spacing" textLength="75" x="89.5" y="322.3076">shows profile</text><path d="M20,342.5703 L81,342.5703 L81,351.8613 L71,361.8613 L20,361.8613 L20,342.5703 " fill="#EEEEEE" style="stroke:#000000;stroke-width:1.5;"/><rect fill="none" height="98.5039" style="stroke:#000000;stroke-width:1.5;" width="439.5" x="20" y="342.5703"/><text fill="#000000" font-family="sans-serif" font-size="13" font-weight="bold" lengthAdjust="spacing" textLength="16" x="35" y="357.5986">alt</text><text fill="#000000" font-family="sans-serif" font-size="11" font-weight="bold" lengthAdjust="spacing" textLength="68" x="96" y="356.4404">[edit profile]</text><polygon fill="#181818" points="402.5,381.1523,412.5,385.1523,402.5,389.1523,406.5,385.1523" style="stroke:#181818;stroke-width:1.0;"/><line style="stroke:#181818;stroke-width:1.0;stroke-dasharray:2.0,2.0;" x1="61.5" x2="408.5" y1="385.1523" y2="385.1523"/><text fill="#000000" font-family="sans-serif" font-size="13" lengthAdjust="spacing" textLength="58" x="68.5" y="379.8896">US 5.1.13</text><line style="stroke:#000000;stroke-width:1.0;stroke-dasharray:2.0,2.0;" x1="20" x2="459.5" y1="394.1523" y2="394.1523"/><text fill="#000000" font-family="sans-serif" font-size="11" font-weight="bold" lengthAdjust="spacing" textLength="103" x="25" y="406.0225">[deactivate profile]</text><polygon fill="#181818" points="402.5,429.0742,412.5,433.0742,402.5,437.0742,406.5,433.0742" style="stroke:#181818;stroke-width:1.0;"/><line style="stroke:#181818;stroke-width:1.0;stroke-dasharray:2.0,2.0;" x1="61.5" x2="408.5" y1="433.0742" y2="433.0742"/><text fill="#000000" font-family="sans-serif" font-size="13" lengthAdjust="spacing" textLength="58" x="68.5" y="427.8115">US 5.1.14</text><!--SRC=[TP8_Ry8m4CLtVueJIrkf0Q6MXQ4I4ckdg4F78xaKI_vNtwM8Vlew3Wc9e9xitFFllPpluIWIUBjQ1ODEMckMbRShfk-MN4L5hV4hebLAj1Y2nKS9c-LwkTv00UMPXIoK5otiU-r2AMp5kzOUA2eLC8gkT4XqsDLMEq26tVvzLhYWKgNyB9LAPIZUkZri8NPy5WOv4XZD0hx9UnPi6WZHDzeGAwn4_w1GXe-7pEj0HG9st6rcy3s2WhICzm5Q9zfaIH-v9jPnKCpIOGX64mCJnke82IGK6HuFPt1ewHd8OaBv21oeqcZqBuhsxgbdpPE5v45k2DSJqwVM26SrkJhdw-_wC7JqXFcIJtSCLG8u_DETmBs49vhR77pq9xuohi-PEfRSuRBG252jPUusEewMmz2yN0Lac59NnsUw8VnFUPrGKZzI23Ks9xNaDgwQ-7IpCJbsq_47]--></g></svg>