<?xml version="1.0" encoding="us-ascii" standalone="no"?><svg xmlns="http://www.w3.org/2000/svg" xmlns:xlink="http://www.w3.org/1999/xlink" contentStyleType="text/css" height="518px" preserveAspectRatio="none" style="width:899px;height:518px;background:#FFFFFF;" version="1.1" viewBox="0 0 899 518" width="899px" zoomAndPan="magnify"><defs/><g><text fill="#000000" font-family="sans-serif" font-size="14" font-weight="bold" lengthAdjust="spacing" textLength="328" x="284.5" y="30.1074">US 7.1.3 - Process View MDBackoffice [Level 3]</text><rect fill="#FFFFFF" height="313.6191" style="stroke:#181818;stroke-width:1.0;" width="10" x="236" y="130.1543"/><rect fill="#FFFFFF" height="251.0371" style="stroke:#181818;stroke-width:1.0;" width="10" x="381" y="161.4453"/><rect fill="#FFFFFF" height="188.4551" style="stroke:#181818;stroke-width:1.0;" width="10" x="526" y="192.7363"/><rect fill="#FFFFFF" height="30" style="stroke:#181818;stroke-width:1.0;" width="10" x="651" y="312.9004"/><rect fill="#FFFFFF" height="31.291" style="stroke:#181818;stroke-width:1.0;" width="10" x="807.5" y="224.0273"/><rect fill="none" height="80.582" style="stroke:#000000;stroke-width:1.5;" width="260" x="472" y="270.3184"/><line style="stroke:#181818;stroke-width:0.5;stroke-dasharray:5.0,5.0;" x1="240.5" x2="240.5" y1="96.8633" y2="461.7734"/><line style="stroke:#181818;stroke-width:0.5;stroke-dasharray:5.0,5.0;" x1="385.5" x2="385.5" y1="96.8633" y2="461.7734"/><line style="stroke:#181818;stroke-width:0.5;stroke-dasharray:5.0,5.0;" x1="531" x2="531" y1="96.8633" y2="461.7734"/><line style="stroke:#181818;stroke-width:0.5;stroke-dasharray:5.0,5.0;" x1="656" x2="656" y1="96.8633" y2="461.7734"/><line style="stroke:#181818;stroke-width:0.5;stroke-dasharray:5.0,5.0;" x1="812" x2="812" y1="96.8633" y2="461.7734"/><rect fill="#E2E2F0" height="51.2422" rx="2.5" ry="2.5" style="stroke:#181818;stroke-width:0.5;" width="63" x="209.5" y="44.6211"/><text fill="#000000" font-family="sans-serif" font-size="14" font-style="italic" lengthAdjust="spacing" textLength="49" x="216.5" y="66.7285">&#171;route&#187;</text><text fill="#000000" font-family="sans-serif" font-size="14" lengthAdjust="spacing" textLength="49" x="216.5" y="85.3496">Routing</text><rect fill="#E2E2F0" height="51.2422" rx="2.5" ry="2.5" style="stroke:#181818;stroke-width:0.5;" width="63" x="209.5" y="460.7734"/><text fill="#000000" font-family="sans-serif" font-size="14" font-style="italic" lengthAdjust="spacing" textLength="49" x="216.5" y="482.8809">&#171;route&#187;</text><text fill="#000000" font-family="sans-serif" font-size="14" lengthAdjust="spacing" textLength="49" x="216.5" y="501.502">Routing</text><rect fill="#E2E2F0" height="51.2422" rx="2.5" ry="2.5" style="stroke:#181818;stroke-width:0.5;" width="113" x="329.5" y="44.6211"/><text fill="#000000" font-family="sans-serif" font-size="14" font-style="italic" lengthAdjust="spacing" textLength="75" x="348.5" y="66.7285">&#171;controller&#187;</text><text fill="#000000" font-family="sans-serif" font-size="14" lengthAdjust="spacing" textLength="99" x="336.5" y="85.3496">RoomController</text><rect fill="#E2E2F0" height="51.2422" rx="2.5" ry="2.5" style="stroke:#181818;stroke-width:0.5;" width="113" x="329.5" y="460.7734"/><text fill="#000000" font-family="sans-serif" font-size="14" font-style="italic" lengthAdjust="spacing" textLength="75" x="348.5" y="482.8809">&#171;controller&#187;</text><text fill="#000000" font-family="sans-serif" font-size="14" lengthAdjust="spacing" textLength="99" x="336.5" y="501.502">RoomController</text><rect fill="#E2E2F0" height="51.2422" rx="2.5" ry="2.5" style="stroke:#181818;stroke-width:0.5;" width="98" x="482" y="44.6211"/><text fill="#000000" font-family="sans-serif" font-size="14" font-style="italic" lengthAdjust="spacing" textLength="60" x="501" y="66.7285">&#171;service&#187;</text><text fill="#000000" font-family="sans-serif" font-size="14" lengthAdjust="spacing" textLength="84" x="489" y="85.3496">RoomService</text><rect fill="#E2E2F0" height="51.2422" rx="2.5" ry="2.5" style="stroke:#181818;stroke-width:0.5;" width="98" x="482" y="460.7734"/><text fill="#000000" font-family="sans-serif" font-size="14" font-style="italic" lengthAdjust="spacing" textLength="60" x="501" y="482.8809">&#171;service&#187;</text><text fill="#000000" font-family="sans-serif" font-size="14" lengthAdjust="spacing" textLength="84" x="489" y="501.502">RoomService</text><rect fill="#E2E2F0" height="51.2422" rx="2.5" ry="2.5" style="stroke:#181818;stroke-width:0.5;" width="132" x="590" y="44.6211"/><text fill="#000000" font-family="sans-serif" font-size="14" font-style="italic" lengthAdjust="spacing" textLength="36" x="638" y="66.7285">&#171;dto&#187;</text><text fill="#000000" font-family="sans-serif" font-size="14" lengthAdjust="spacing" textLength="118" x="597" y="85.3496">RoomScheduleDto</text><rect fill="#E2E2F0" height="51.2422" rx="2.5" ry="2.5" style="stroke:#181818;stroke-width:0.5;" width="132" x="590" y="460.7734"/><text fill="#000000" font-family="sans-serif" font-size="14" font-style="italic" lengthAdjust="spacing" textLength="36" x="638" y="482.8809">&#171;dto&#187;</text><text fill="#000000" font-family="sans-serif" font-size="14" lengthAdjust="spacing" textLength="118" x="597" y="501.502">RoomScheduleDto</text><rect fill="#E2E2F0" height="51.2422" rx="2.5" ry="2.5" style="stroke:#181818;stroke-width:0.5;" width="161" x="732" y="44.6211"/><text fill="#000000" font-family="sans-serif" font-size="14" font-style="italic" lengthAdjust="spacing" textLength="79" x="773" y="66.7285">&#171;repository&#187;</text><text fill="#000000" font-family="sans-serif" font-size="14" lengthAdjust="spacing" textLength="147" x="739" y="85.3496">AppointmentRepository</text><rect fill="#E2E2F0" height="51.2422" rx="2.5" ry="2.5" style="stroke:#181818;stroke-width:0.5;" width="161" x="732" y="460.7734"/><text fill="#000000" font-family="sans-serif" font-size="14" font-style="italic" lengthAdjust="spacing" textLength="79" x="773" y="482.8809">&#171;repository&#187;</text><text fill="#000000" font-family="sans-serif" font-size="14" lengthAdjust="spacing" textLength="147" x="739" y="501.502">AppointmentRepository</text><rect fill="#FFFFFF" height="313.6191" style="stroke:#181818;stroke-width:1.0;" width="10" x="236" y="130.1543"/><rect fill="#FFFFFF" height="251.0371" style="stroke:#181818;stroke-width:1.0;" width="10" x="381" y="161.4453"/><rect fill="#FFFFFF" height="188.4551" style="stroke:#181818;stroke-width:1.0;" width="10" x="526" y="192.7363"/><rect fill="#FFFFFF" height="30" style="stroke:#181818;stroke-width:1.0;" width="10" x="651" y="312.9004"/><rect fill="#FFFFFF" height="31.291" style="stroke:#181818;stroke-width:1.0;" width="10" x="807.5" y="224.0273"/><ellipse cx="7.5" cy="129.4043" fill="none" rx="4" ry="4" style="stroke:#181818;stroke-width:1.5;"/><polygon fill="#181818" points="224,126.1543,234,130.1543,224,134.1543,228,130.1543" style="stroke:#181818;stroke-width:1.0;"/><line style="stroke:#181818;stroke-width:1.0;" x1="12" x2="230" y1="130.1543" y2="130.1543"/><text fill="#000000" font-family="sans-serif" font-size="13" font-weight="bold" lengthAdjust="spacing" textLength="7" x="15" y="124.8916">1</text><text fill="#000000" font-family="sans-serif" font-size="13" lengthAdjust="spacing" textLength="198" x="26" y="124.8916">GET() api/Room/Get-AllSchedules</text><polygon fill="#181818" points="369,157.4453,379,161.4453,369,165.4453,373,161.4453" style="stroke:#181818;stroke-width:1.0;"/><line style="stroke:#181818;stroke-width:1.0;" x1="246" x2="375" y1="161.4453" y2="161.4453"/><text fill="#000000" font-family="sans-serif" font-size="13" font-weight="bold" lengthAdjust="spacing" textLength="7" x="253" y="156.1826">2</text><text fill="#000000" font-family="sans-serif" font-size="13" lengthAdjust="spacing" textLength="105" x="264" y="156.1826">GetAllSchedules()</text><polygon fill="#181818" points="514,188.7363,524,192.7363,514,196.7363,518,192.7363" style="stroke:#181818;stroke-width:1.0;"/><line style="stroke:#181818;stroke-width:1.0;" x1="391" x2="520" y1="192.7363" y2="192.7363"/><text fill="#000000" font-family="sans-serif" font-size="13" font-weight="bold" lengthAdjust="spacing" textLength="7" x="398" y="187.4736">3</text><text fill="#000000" font-family="sans-serif" font-size="13" lengthAdjust="spacing" textLength="105" x="409" y="187.4736">GetAllSchedules()</text><polygon fill="#181818" points="795.5,220.0273,805.5,224.0273,795.5,228.0273,799.5,224.0273" style="stroke:#181818;stroke-width:1.0;"/><line style="stroke:#181818;stroke-width:1.0;" x1="536" x2="801.5" y1="224.0273" y2="224.0273"/><text fill="#000000" font-family="sans-serif" font-size="13" font-weight="bold" lengthAdjust="spacing" textLength="7" x="543" y="218.7646">4</text><text fill="#000000" font-family="sans-serif" font-size="13" lengthAdjust="spacing" textLength="122" x="554" y="218.7646">GetAllRoomsAsync()</text><polygon fill="#181818" points="547,251.3184,537,255.3184,547,259.3184,543,255.3184" style="stroke:#181818;stroke-width:1.0;"/><line style="stroke:#181818;stroke-width:1.0;stroke-dasharray:2.0,2.0;" x1="541" x2="811.5" y1="255.3184" y2="255.3184"/><text fill="#000000" font-family="sans-serif" font-size="13" font-weight="bold" lengthAdjust="spacing" textLength="7" x="553" y="250.0557">5</text><text fill="#000000" font-family="sans-serif" font-size="13" lengthAdjust="spacing" textLength="50" x="564" y="250.0557">roomList</text><path d="M472,270.3184 L545,270.3184 L545,279.6094 L535,289.6094 L472,289.6094 L472,270.3184 " fill="#EEEEEE" style="stroke:#000000;stroke-width:1.5;"/><rect fill="none" height="80.582" style="stroke:#000000;stroke-width:1.5;" width="260" x="472" y="270.3184"/><text fill="#000000" font-family="sans-serif" font-size="13" font-weight="bold" lengthAdjust="spacing" textLength="28" x="487" y="285.3467">loop</text><text fill="#000000" font-family="sans-serif" font-size="11" font-weight="bold" lengthAdjust="spacing" textLength="149" x="560" y="284.1885">[for all elements in the list]</text><polygon fill="#181818" points="639,308.9004,649,312.9004,639,316.9004,643,312.9004" style="stroke:#181818;stroke-width:1.0;"/><line style="stroke:#181818;stroke-width:1.0;" x1="536" x2="645" y1="312.9004" y2="312.9004"/><text fill="#000000" font-family="sans-serif" font-size="13" font-weight="bold" lengthAdjust="spacing" textLength="7" x="543" y="307.6377">6</text><text fill="#000000" font-family="sans-serif" font-size="13" lengthAdjust="spacing" textLength="68" x="554" y="307.6377">toDto(room)</text><polygon fill="#181818" points="402,377.1914,392,381.1914,402,385.1914,398,381.1914" style="stroke:#181818;stroke-width:1.0;"/><line style="stroke:#181818;stroke-width:1.0;stroke-dasharray:2.0,2.0;" x1="396" x2="530" y1="381.1914" y2="381.1914"/><text fill="#000000" font-family="sans-serif" font-size="13" font-weight="bold" lengthAdjust="spacing" textLength="7" x="408" y="375.9287">7</text><text fill="#000000" font-family="sans-serif" font-size="13" lengthAdjust="spacing" textLength="70" x="419" y="375.9287">roomListDto</text><polygon fill="#181818" points="257,408.4824,247,412.4824,257,416.4824,253,412.4824" style="stroke:#181818;stroke-width:1.0;"/><line style="stroke:#181818;stroke-width:1.0;stroke-dasharray:2.0,2.0;" x1="251" x2="385" y1="412.4824" y2="412.4824"/><text fill="#000000" font-family="sans-serif" font-size="13" font-weight="bold" lengthAdjust="spacing" textLength="7" x="263" y="407.2197">8</text><text fill="#000000" font-family="sans-serif" font-size="13" lengthAdjust="spacing" textLength="70" x="274" y="407.2197">roomListDto</text><ellipse cx="7.5" cy="443.0234" fill="none" rx="4" ry="4" style="stroke:#181818;stroke-width:1.5;"/><polygon fill="#181818" points="24.5,439.7734,14.5,443.7734,24.5,447.7734,20.5,443.7734" style="stroke:#181818;stroke-width:1.0;"/><line style="stroke:#181818;stroke-width:1.0;stroke-dasharray:2.0,2.0;" x1="22.5" x2="240" y1="443.7734" y2="443.7734"/><text fill="#000000" font-family="sans-serif" font-size="13" font-weight="bold" lengthAdjust="spacing" textLength="7" x="25" y="438.5107">9</text><text fill="#000000" font-family="sans-serif" font-size="13" lengthAdjust="spacing" textLength="92" x="36" y="438.5107">ok(roomListDto)</text><!--SRC=[VP9DQy9048Rl-oi6Jtg8KZmKH0Ih8WMBnQ-BzB1DnhguxeJTqUA_xspYHogsnqoUPpxUX0rRXDfo3i_DfsOR4dZtb688i3Bu3M_35vtkQBCnAS9wWaUqqFweAQKFJEwm_qIlSktPf2RNZg4semCRzrK37M0sNIv6qErwgM6lTm_IVa2EFLcBlk07Yzb4yFHQVUJCqHzbcKAOhmR2XxBo44wtc1qi3faAORYOYf0ntSFzF2VZU8-EPvXJC4p-L2YlexYJlnR5L6jAUkLr7HYF5lK6wDoqui3M63dfMtiP79HEsHmrOyahLOOYVhnMTEGgNc_SX0WeLOGYU3psNrpUAnKJ4JWkVO7ZMg4VJYwjqa8e5R54y6Xrm0iuCO5LXhynIvJ3XZneQm4jnfG260UyHR3HkCoD-NQ0IVAkntQLWVAgsZW-eiiWzZxhvqmgcqYRgbDSMEPno_yFjWnlJTqaEV-77Q1TlK8tgdZvSNu0]--></g></svg>