<?xml version="1.0" encoding="us-ascii" standalone="no"?><svg xmlns="http://www.w3.org/2000/svg" xmlns:xlink="http://www.w3.org/1999/xlink" contentStyleType="text/css" height="792px" preserveAspectRatio="none" style="width:2548px;height:792px;background:#FFFFFF;" version="1.1" viewBox="0 0 2548 792" width="2548px" zoomAndPan="magnify"><defs/><g><text fill="#000000" font-family="sans-serif" font-size="14" font-weight="bold" lengthAdjust="spacing" textLength="168" x="1183" y="25.1074">US 7.2.6 - Domain Model</text><!--cluster <<aggregate>> Patient--><g id="cluster_&lt;&lt;aggregate&gt;&gt; Patient"><path d="M8.5,243.6348 L150.5,243.6348 A3.75,3.75 0 0 1 153,246.1348 L160,268.2559 L1279.5,268.2559 A2.5,2.5 0 0 1 1282,270.7559 L1282,783.1348 A2.5,2.5 0 0 1 1279.5,785.6348 L8.5,785.6348 A2.5,2.5 0 0 1 6,783.1348 L6,246.1348 A2.5,2.5 0 0 1 8.5,243.6348 " fill="none" style="stroke:#000000;stroke-width:1.5;"/><line style="stroke:#000000;stroke-width:1.5;" x1="6" x2="160" y1="268.2559" y2="268.2559"/><text fill="#000000" font-family="sans-serif" font-size="14" font-weight="bold" lengthAdjust="spacing" textLength="141" x="10" y="260.7422">&#171;aggregate&#187; Patient</text></g><!--cluster <<aggregate MedicalRecord>>--><g id="cluster_&lt;&lt;aggregate MedicalRecord&gt;&gt;"><path d="M1446.5,243.6348 L1645.5,243.6348 A3.75,3.75 0 0 1 1648,246.1348 L1655,268.2559 L1832.5,268.2559 A2.5,2.5 0 0 1 1835,270.7559 L1835,371.1348 A2.5,2.5 0 0 1 1832.5,373.6348 L1446.5,373.6348 A2.5,2.5 0 0 1 1444,371.1348 L1444,246.1348 A2.5,2.5 0 0 1 1446.5,243.6348 " fill="none" style="stroke:#000000;stroke-width:1.5;"/><line style="stroke:#000000;stroke-width:1.5;" x1="1444" x2="1655" y1="268.2559" y2="268.2559"/><text fill="#000000" font-family="sans-serif" font-size="14" font-weight="bold" lengthAdjust="spacing" textLength="198" x="1448" y="260.7422">&#171;aggregate MedicalRecord&#187;</text></g><!--cluster <<aggregate MedicalCondition>>--><g id="cluster_&lt;&lt;aggregate MedicalCondition&gt;&gt;"><path d="M1308.5,397.6348 L1524.5,397.6348 A3.75,3.75 0 0 1 1527,400.1348 L1534,422.2559 L2006.5,422.2559 A2.5,2.5 0 0 1 2009,424.7559 L2009,662.1348 A2.5,2.5 0 0 1 2006.5,664.6348 L1308.5,664.6348 A2.5,2.5 0 0 1 1306,662.1348 L1306,400.1348 A2.5,2.5 0 0 1 1308.5,397.6348 " fill="none" style="stroke:#000000;stroke-width:1.5;"/><line style="stroke:#000000;stroke-width:1.5;" x1="1306" x2="1534" y1="422.2559" y2="422.2559"/><text fill="#000000" font-family="sans-serif" font-size="14" font-weight="bold" lengthAdjust="spacing" textLength="215" x="1310" y="414.7422">&#171;aggregate MedicalCondition&#187;</text></g><!--cluster <<aggregate Allergy>>--><g id="cluster_&lt;&lt;aggregate Allergy&gt;&gt;"><path d="M2035.5,397.6348 L2176.5,397.6348 A3.75,3.75 0 0 1 2179,400.1348 L2186,422.2559 L2538.5,422.2559 A2.5,2.5 0 0 1 2541,424.7559 L2541,662.1348 A2.5,2.5 0 0 1 2538.5,664.6348 L2035.5,664.6348 A2.5,2.5 0 0 1 2033,662.1348 L2033,400.1348 A2.5,2.5 0 0 1 2035.5,397.6348 " fill="none" style="stroke:#000000;stroke-width:1.5;"/><line style="stroke:#000000;stroke-width:1.5;" x1="2033" x2="2186" y1="422.2559" y2="422.2559"/><text fill="#000000" font-family="sans-serif" font-size="14" font-weight="bold" lengthAdjust="spacing" textLength="140" x="2037" y="414.7422">&#171;aggregate Allergy&#187;</text></g><!--cluster <<aggregate Doctor>>--><g id="cluster_&lt;&lt;aggregate Doctor&gt;&gt;"><path d="M1448.5,45.6348 L1588.5,45.6348 A3.75,3.75 0 0 1 1591,48.1348 L1598,70.2559 L1598.5,70.2559 A2.5,2.5 0 0 1 1601,72.7559 L1601,173.1348 A2.5,2.5 0 0 1 1598.5,175.6348 L1448.5,175.6348 A2.5,2.5 0 0 1 1446,173.1348 L1446,48.1348 A2.5,2.5 0 0 1 1448.5,45.6348 " fill="none" style="stroke:#000000;stroke-width:1.5;"/><line style="stroke:#000000;stroke-width:1.5;" x1="1446" x2="1598" y1="70.2559" y2="70.2559"/><text fill="#000000" font-family="sans-serif" font-size="14" font-weight="bold" lengthAdjust="spacing" textLength="139" x="1450" y="62.7422">&#171;aggregate Doctor&#187;</text></g><!--class Patient--><g id="elem_Patient"><rect codeLine="6" fill="#F1F1F1" height="76.543" id="Patient" rx="2.5" ry="2.5" style="stroke:#181818;stroke-width:0.5;" width="76" x="749" y="280.6348"/><ellipse cx="764" cy="310.9063" fill="#ADD1B2" rx="11" ry="11" style="stroke:#181818;stroke-width:1.0;"/><path d="M762.8594,311.7031 L762.8594,314.2031 L767.1875,314.2031 L767.1875,313.2813 Q767.1875,312.6719 767.4219,312.4063 Q767.6719,312.1406 768.0469,312.1406 Q768.4219,312.1406 768.6563,312.4063 Q768.8906,312.6719 768.8906,313.2813 L768.8906,315.9063 L760.8906,315.9063 Q760.2656,315.9063 760,315.6719 Q759.75,315.4375 759.75,315.0469 Q759.75,314.6719 760.0156,314.4375 Q760.2813,314.2031 760.8906,314.2031 L761.1563,314.2031 L761.1563,307.5469 L760.8906,307.5469 Q760.2656,307.5469 760,307.3125 Q759.75,307.0781 759.75,306.6875 Q759.75,306.3125 760,306.0781 Q760.2656,305.8438 760.8906,305.8438 L768.5156,305.8438 L768.5156,308.4375 Q768.5156,309.0469 768.2813,309.3125 Q768.0625,309.5625 767.6719,309.5625 Q767.2969,309.5625 767.0625,309.3125 Q766.8281,309.0469 766.8281,308.4375 L766.8281,307.5469 L762.8594,307.5469 L762.8594,310 L764.3438,310 Q764.3438,309.3438 764.4688,309.1563 Q764.7344,308.75 765.2031,308.75 Q765.5781,308.75 765.8125,309.0156 Q766.0469,309.2656 766.0469,309.875 L766.0469,311.8438 Q766.0469,312.3906 765.9219,312.5781 Q765.6563,312.9688 765.2031,312.9688 Q764.7344,312.9688 764.4688,312.5625 Q764.3438,312.375 764.3438,311.7031 L762.8594,311.7031 Z " fill="#000000"/><text fill="#000000" font-family="sans-serif" font-size="12" font-style="italic" lengthAdjust="spacing" textLength="43" x="778.5" y="298.584">&#171;entity&#187;</text><text fill="#000000" font-family="sans-serif" font-size="12" font-style="italic" lengthAdjust="spacing" textLength="35" x="782.5" y="314.5449">&#171;root&#187;</text><text fill="#000000" font-family="sans-serif" font-size="14" lengthAdjust="spacing" textLength="44" x="778" y="332.6641">Patient</text><line style="stroke:#181818;stroke-width:0.5;" x1="750" x2="824" y1="341.1777" y2="341.1777"/><line style="stroke:#181818;stroke-width:0.5;" x1="750" x2="824" y1="349.1777" y2="349.1777"/></g><!--class DateBirth--><g id="elem_DateBirth"><rect codeLine="7" fill="#F1F1F1" height="60.582" id="DateBirth" rx="2.5" ry="2.5" style="stroke:#181818;stroke-width:0.5;" width="109" x="353.5" y="442.6348"/><ellipse cx="368.5" cy="464.9258" fill="#FF8B40" rx="11" ry="11" style="stroke:#181818;stroke-width:1.0;"/><path d="M369.0938,468.1914 L371.5625,462.3164 L371.1719,462.3164 Q370.5625,462.3164 370.2969,462.082 Q370.0313,461.8477 370.0313,461.457 Q370.0313,461.082 370.2969,460.8477 Q370.5625,460.6133 371.1719,460.6133 L373.4531,460.6133 Q374.0625,460.6133 374.3281,460.8477 Q374.5938,461.082 374.5938,461.457 Q374.5938,461.9258 374.1875,462.1914 Q374,462.3164 373.4063,462.3164 L369.9219,470.6758 L368.2813,470.6758 L364.7969,462.3164 Q364.2031,462.3164 364.0156,462.1914 Q363.6094,461.9258 363.6094,461.457 Q363.6094,461.082 363.875,460.8477 Q364.1406,460.6133 364.75,460.6133 L367.0469,460.6133 Q367.6563,460.6133 367.9063,460.8477 Q368.1719,461.082 368.1719,461.457 Q368.1719,461.8477 367.9063,462.082 Q367.6563,462.3164 367.0469,462.3164 L366.6406,462.3164 L369.0938,468.1914 Z " fill="#000000"/><text fill="#000000" font-family="sans-serif" font-size="12" font-style="italic" lengthAdjust="spacing" textLength="81" x="380.5" y="460.584">&#171;value object&#187;</text><text fill="#000000" font-family="sans-serif" font-size="14" lengthAdjust="spacing" textLength="59" x="391.5" y="478.7031">DateBirth</text><line style="stroke:#181818;stroke-width:0.5;" x1="354.5" x2="461.5" y1="487.2168" y2="487.2168"/><line style="stroke:#181818;stroke-width:0.5;" x1="354.5" x2="461.5" y1="495.2168" y2="495.2168"/></g><!--class Gender--><g id="elem_Gender"><rect codeLine="8" fill="#F1F1F1" height="60.582" id="Gender" rx="2.5" ry="2.5" style="stroke:#181818;stroke-width:0.5;" width="109" x="497.5" y="442.6348"/><ellipse cx="512.5" cy="464.9258" fill="#FF8B40" rx="11" ry="11" style="stroke:#181818;stroke-width:1.0;"/><path d="M513.0938,468.1914 L515.5625,462.3164 L515.1719,462.3164 Q514.5625,462.3164 514.2969,462.082 Q514.0313,461.8477 514.0313,461.457 Q514.0313,461.082 514.2969,460.8477 Q514.5625,460.6133 515.1719,460.6133 L517.4531,460.6133 Q518.0625,460.6133 518.3281,460.8477 Q518.5938,461.082 518.5938,461.457 Q518.5938,461.9258 518.1875,462.1914 Q518,462.3164 517.4063,462.3164 L513.9219,470.6758 L512.2813,470.6758 L508.7969,462.3164 Q508.2031,462.3164 508.0156,462.1914 Q507.6094,461.9258 507.6094,461.457 Q507.6094,461.082 507.875,460.8477 Q508.1406,460.6133 508.75,460.6133 L511.0469,460.6133 Q511.6563,460.6133 511.9063,460.8477 Q512.1719,461.082 512.1719,461.457 Q512.1719,461.8477 511.9063,462.082 Q511.6563,462.3164 511.0469,462.3164 L510.6406,462.3164 L513.0938,468.1914 Z " fill="#000000"/><text fill="#000000" font-family="sans-serif" font-size="12" font-style="italic" lengthAdjust="spacing" textLength="81" x="524.5" y="460.584">&#171;value object&#187;</text><text fill="#000000" font-family="sans-serif" font-size="14" lengthAdjust="spacing" textLength="48" x="541" y="478.7031">Gender</text><line style="stroke:#181818;stroke-width:0.5;" x1="498.5" x2="605.5" y1="487.2168" y2="487.2168"/><line style="stroke:#181818;stroke-width:0.5;" x1="498.5" x2="605.5" y1="495.2168" y2="495.2168"/></g><!--class EmergencyContact--><g id="elem_EmergencyContact"><rect codeLine="9" fill="#F1F1F1" height="60.582" id="EmergencyContact" rx="2.5" ry="2.5" style="stroke:#181818;stroke-width:0.5;" width="152" x="22" y="442.6348"/><ellipse cx="37" cy="464.9258" fill="#FF8B40" rx="11" ry="11" style="stroke:#181818;stroke-width:1.0;"/><path d="M37.5938,468.1914 L40.0625,462.3164 L39.6719,462.3164 Q39.0625,462.3164 38.7969,462.082 Q38.5313,461.8477 38.5313,461.457 Q38.5313,461.082 38.7969,460.8477 Q39.0625,460.6133 39.6719,460.6133 L41.9531,460.6133 Q42.5625,460.6133 42.8281,460.8477 Q43.0938,461.082 43.0938,461.457 Q43.0938,461.9258 42.6875,462.1914 Q42.5,462.3164 41.9063,462.3164 L38.4219,470.6758 L36.7813,470.6758 L33.2969,462.3164 Q32.7031,462.3164 32.5156,462.1914 Q32.1094,461.9258 32.1094,461.457 Q32.1094,461.082 32.375,460.8477 Q32.6406,460.6133 33.25,460.6133 L35.5469,460.6133 Q36.1563,460.6133 36.4063,460.8477 Q36.6719,461.082 36.6719,461.457 Q36.6719,461.8477 36.4063,462.082 Q36.1563,462.3164 35.5469,462.3164 L35.1406,462.3164 L37.5938,468.1914 Z " fill="#000000"/><text fill="#000000" font-family="sans-serif" font-size="12" font-style="italic" lengthAdjust="spacing" textLength="81" x="70.5" y="460.584">&#171;value object&#187;</text><text fill="#000000" font-family="sans-serif" font-size="14" lengthAdjust="spacing" textLength="120" x="51" y="478.7031">EmergencyContact</text><line style="stroke:#181818;stroke-width:0.5;" x1="23" x2="173" y1="487.2168" y2="487.2168"/><line style="stroke:#181818;stroke-width:0.5;" x1="23" x2="173" y1="495.2168" y2="495.2168"/></g><!--class MRN--><g id="elem_MRN"><rect codeLine="10" fill="#F1F1F1" height="76.543" id="MRN" rx="2.5" ry="2.5" style="stroke:#181818;stroke-width:0.5;" width="109" x="641.5" y="434.6348"/><ellipse cx="656.5" cy="464.9063" fill="#FF8B40" rx="11" ry="11" style="stroke:#181818;stroke-width:1.0;"/><path d="M657.0938,468.1719 L659.5625,462.2969 L659.1719,462.2969 Q658.5625,462.2969 658.2969,462.0625 Q658.0313,461.8281 658.0313,461.4375 Q658.0313,461.0625 658.2969,460.8281 Q658.5625,460.5938 659.1719,460.5938 L661.4531,460.5938 Q662.0625,460.5938 662.3281,460.8281 Q662.5938,461.0625 662.5938,461.4375 Q662.5938,461.9063 662.1875,462.1719 Q662,462.2969 661.4063,462.2969 L657.9219,470.6563 L656.2813,470.6563 L652.7969,462.2969 Q652.2031,462.2969 652.0156,462.1719 Q651.6094,461.9063 651.6094,461.4375 Q651.6094,461.0625 651.875,460.8281 Q652.1406,460.5938 652.75,460.5938 L655.0469,460.5938 Q655.6563,460.5938 655.9063,460.8281 Q656.1719,461.0625 656.1719,461.4375 Q656.1719,461.8281 655.9063,462.0625 Q655.6563,462.2969 655.0469,462.2969 L654.6406,462.2969 L657.0938,468.1719 Z " fill="#000000"/><text fill="#000000" font-family="sans-serif" font-size="12" font-style="italic" lengthAdjust="spacing" textLength="81" x="668.5" y="452.584">&#171;value object&#187;</text><text fill="#000000" font-family="sans-serif" font-size="12" font-style="italic" lengthAdjust="spacing" textLength="61" x="678.5" y="468.5449">&#171;identifier&#187;</text><text fill="#000000" font-family="sans-serif" font-size="14" lengthAdjust="spacing" textLength="30" x="694" y="486.6641">MRN</text><line style="stroke:#181818;stroke-width:0.5;" x1="642.5" x2="749.5" y1="495.1777" y2="495.1777"/><line style="stroke:#181818;stroke-width:0.5;" x1="642.5" x2="749.5" y1="503.1777" y2="503.1777"/></g><!--class AppointmentHistory--><g id="elem_AppointmentHistory"><rect codeLine="11" fill="#F1F1F1" height="60.582" id="AppointmentHistory" rx="2.5" ry="2.5" style="stroke:#181818;stroke-width:0.5;" width="154" x="1112" y="442.6348"/><ellipse cx="1127" cy="464.9258" fill="#FF8B40" rx="11" ry="11" style="stroke:#181818;stroke-width:1.0;"/><path d="M1127.5938,468.1914 L1130.0625,462.3164 L1129.6719,462.3164 Q1129.0625,462.3164 1128.7969,462.082 Q1128.5313,461.8477 1128.5313,461.457 Q1128.5313,461.082 1128.7969,460.8477 Q1129.0625,460.6133 1129.6719,460.6133 L1131.9531,460.6133 Q1132.5625,460.6133 1132.8281,460.8477 Q1133.0938,461.082 1133.0938,461.457 Q1133.0938,461.9258 1132.6875,462.1914 Q1132.5,462.3164 1131.9063,462.3164 L1128.4219,470.6758 L1126.7813,470.6758 L1123.2969,462.3164 Q1122.7031,462.3164 1122.5156,462.1914 Q1122.1094,461.9258 1122.1094,461.457 Q1122.1094,461.082 1122.375,460.8477 Q1122.6406,460.6133 1123.25,460.6133 L1125.5469,460.6133 Q1126.1563,460.6133 1126.4063,460.8477 Q1126.6719,461.082 1126.6719,461.457 Q1126.6719,461.8477 1126.4063,462.082 Q1126.1563,462.3164 1125.5469,462.3164 L1125.1406,462.3164 L1127.5938,468.1914 Z " fill="#000000"/><text fill="#000000" font-family="sans-serif" font-size="12" font-style="italic" lengthAdjust="spacing" textLength="81" x="1161.5" y="460.584">&#171;value object&#187;</text><text fill="#000000" font-family="sans-serif" font-size="14" lengthAdjust="spacing" textLength="122" x="1141" y="478.7031">AppointmentHistory</text><line style="stroke:#181818;stroke-width:0.5;" x1="1113" x2="1265" y1="487.2168" y2="487.2168"/><line style="stroke:#181818;stroke-width:0.5;" x1="1113" x2="1265" y1="495.2168" y2="495.2168"/></g><!--class AppointmentHistoryStatus--><g id="elem_AppointmentHistoryStatus"><rect codeLine="12" fill="#F1F1F1" height="60.582" id="AppointmentHistoryStatus" rx="2.5" ry="2.5" style="stroke:#181818;stroke-width:0.5;" width="194" x="1072" y="579.6348"/><ellipse cx="1087" cy="601.9258" fill="#FF8B40" rx="11" ry="11" style="stroke:#181818;stroke-width:1.0;"/><path d="M1087.5938,605.1914 L1090.0625,599.3164 L1089.6719,599.3164 Q1089.0625,599.3164 1088.7969,599.082 Q1088.5313,598.8477 1088.5313,598.457 Q1088.5313,598.082 1088.7969,597.8477 Q1089.0625,597.6133 1089.6719,597.6133 L1091.9531,597.6133 Q1092.5625,597.6133 1092.8281,597.8477 Q1093.0938,598.082 1093.0938,598.457 Q1093.0938,598.9258 1092.6875,599.1914 Q1092.5,599.3164 1091.9063,599.3164 L1088.4219,607.6758 L1086.7813,607.6758 L1083.2969,599.3164 Q1082.7031,599.3164 1082.5156,599.1914 Q1082.1094,598.9258 1082.1094,598.457 Q1082.1094,598.082 1082.375,597.8477 Q1082.6406,597.6133 1083.25,597.6133 L1085.5469,597.6133 Q1086.1563,597.6133 1086.4063,597.8477 Q1086.6719,598.082 1086.6719,598.457 Q1086.6719,598.8477 1086.4063,599.082 Q1086.1563,599.3164 1085.5469,599.3164 L1085.1406,599.3164 L1087.5938,605.1914 Z " fill="#000000"/><text fill="#000000" font-family="sans-serif" font-size="12" font-style="italic" lengthAdjust="spacing" textLength="81" x="1141.5" y="597.584">&#171;value object&#187;</text><text fill="#000000" font-family="sans-serif" font-size="14" lengthAdjust="spacing" textLength="162" x="1101" y="615.7031">AppointmentHistoryStatus</text><line style="stroke:#181818;stroke-width:0.5;" x1="1073" x2="1265" y1="624.2168" y2="624.2168"/><line style="stroke:#181818;stroke-width:0.5;" x1="1073" x2="1265" y1="632.2168" y2="632.2168"/></g><!--class AppointmentHistoryType--><g id="elem_AppointmentHistoryType"><rect codeLine="13" fill="#F1F1F1" height="60.582" id="AppointmentHistoryType" rx="2.5" ry="2.5" style="stroke:#181818;stroke-width:0.5;" width="186" x="706" y="579.6348"/><ellipse cx="721" cy="601.9258" fill="#FF8B40" rx="11" ry="11" style="stroke:#181818;stroke-width:1.0;"/><path d="M721.5938,605.1914 L724.0625,599.3164 L723.6719,599.3164 Q723.0625,599.3164 722.7969,599.082 Q722.5313,598.8477 722.5313,598.457 Q722.5313,598.082 722.7969,597.8477 Q723.0625,597.6133 723.6719,597.6133 L725.9531,597.6133 Q726.5625,597.6133 726.8281,597.8477 Q727.0938,598.082 727.0938,598.457 Q727.0938,598.9258 726.6875,599.1914 Q726.5,599.3164 725.9063,599.3164 L722.4219,607.6758 L720.7813,607.6758 L717.2969,599.3164 Q716.7031,599.3164 716.5156,599.1914 Q716.1094,598.9258 716.1094,598.457 Q716.1094,598.082 716.375,597.8477 Q716.6406,597.6133 717.25,597.6133 L719.5469,597.6133 Q720.1563,597.6133 720.4063,597.8477 Q720.6719,598.082 720.6719,598.457 Q720.6719,598.8477 720.4063,599.082 Q720.1563,599.3164 719.5469,599.3164 L719.1406,599.3164 L721.5938,605.1914 Z " fill="#000000"/><text fill="#000000" font-family="sans-serif" font-size="12" font-style="italic" lengthAdjust="spacing" textLength="81" x="771.5" y="597.584">&#171;value object&#187;</text><text fill="#000000" font-family="sans-serif" font-size="14" lengthAdjust="spacing" textLength="154" x="735" y="615.7031">AppointmentHistoryType</text><line style="stroke:#181818;stroke-width:0.5;" x1="707" x2="891" y1="624.2168" y2="624.2168"/><line style="stroke:#181818;stroke-width:0.5;" x1="707" x2="891" y1="632.2168" y2="632.2168"/></g><!--class CreatedAt--><g id="elem_CreatedAt"><rect codeLine="14" fill="#F1F1F1" height="60.582" id="CreatedAt" rx="2.5" ry="2.5" style="stroke:#181818;stroke-width:0.5;" width="109" x="927.5" y="579.6348"/><ellipse cx="942.5" cy="601.9258" fill="#FF8B40" rx="11" ry="11" style="stroke:#181818;stroke-width:1.0;"/><path d="M943.0938,605.1914 L945.5625,599.3164 L945.1719,599.3164 Q944.5625,599.3164 944.2969,599.082 Q944.0313,598.8477 944.0313,598.457 Q944.0313,598.082 944.2969,597.8477 Q944.5625,597.6133 945.1719,597.6133 L947.4531,597.6133 Q948.0625,597.6133 948.3281,597.8477 Q948.5938,598.082 948.5938,598.457 Q948.5938,598.9258 948.1875,599.1914 Q948,599.3164 947.4063,599.3164 L943.9219,607.6758 L942.2813,607.6758 L938.7969,599.3164 Q938.2031,599.3164 938.0156,599.1914 Q937.6094,598.9258 937.6094,598.457 Q937.6094,598.082 937.875,597.8477 Q938.1406,597.6133 938.75,597.6133 L941.0469,597.6133 Q941.6563,597.6133 941.9063,597.8477 Q942.1719,598.082 942.1719,598.457 Q942.1719,598.8477 941.9063,599.082 Q941.6563,599.3164 941.0469,599.3164 L940.6406,599.3164 L943.0938,605.1914 Z " fill="#000000"/><text fill="#000000" font-family="sans-serif" font-size="12" font-style="italic" lengthAdjust="spacing" textLength="81" x="954.5" y="597.584">&#171;value object&#187;</text><text fill="#000000" font-family="sans-serif" font-size="14" lengthAdjust="spacing" textLength="64" x="963" y="615.7031">CreatedAt</text><line style="stroke:#181818;stroke-width:0.5;" x1="928.5" x2="1035.5" y1="624.2168" y2="624.2168"/><line style="stroke:#181818;stroke-width:0.5;" x1="928.5" x2="1035.5" y1="632.2168" y2="632.2168"/></g><!--class Name--><g id="elem_Name"><rect codeLine="15" fill="#F1F1F1" height="60.582" id="Name" rx="2.5" ry="2.5" style="stroke:#181818;stroke-width:0.5;" width="109" x="417.5" y="579.6348"/><ellipse cx="432.5" cy="601.9258" fill="#FF8B40" rx="11" ry="11" style="stroke:#181818;stroke-width:1.0;"/><path d="M433.0938,605.1914 L435.5625,599.3164 L435.1719,599.3164 Q434.5625,599.3164 434.2969,599.082 Q434.0313,598.8477 434.0313,598.457 Q434.0313,598.082 434.2969,597.8477 Q434.5625,597.6133 435.1719,597.6133 L437.4531,597.6133 Q438.0625,597.6133 438.3281,597.8477 Q438.5938,598.082 438.5938,598.457 Q438.5938,598.9258 438.1875,599.1914 Q438,599.3164 437.4063,599.3164 L433.9219,607.6758 L432.2813,607.6758 L428.7969,599.3164 Q428.2031,599.3164 428.0156,599.1914 Q427.6094,598.9258 427.6094,598.457 Q427.6094,598.082 427.875,597.8477 Q428.1406,597.6133 428.75,597.6133 L431.0469,597.6133 Q431.6563,597.6133 431.9063,597.8477 Q432.1719,598.082 432.1719,598.457 Q432.1719,598.8477 431.9063,599.082 Q431.6563,599.3164 431.0469,599.3164 L430.6406,599.3164 L433.0938,605.1914 Z " fill="#000000"/><text fill="#000000" font-family="sans-serif" font-size="12" font-style="italic" lengthAdjust="spacing" textLength="81" x="444.5" y="597.584">&#171;value object&#187;</text><text fill="#000000" font-family="sans-serif" font-size="14" lengthAdjust="spacing" textLength="36" x="467" y="615.7031">Name</text><line style="stroke:#181818;stroke-width:0.5;" x1="418.5" x2="525.5" y1="624.2168" y2="624.2168"/><line style="stroke:#181818;stroke-width:0.5;" x1="418.5" x2="525.5" y1="632.2168" y2="632.2168"/></g><!--class FirstName--><g id="elem_FirstName"><rect codeLine="16" fill="#F1F1F1" height="60.582" id="FirstName" rx="2.5" ry="2.5" style="stroke:#181818;stroke-width:0.5;" width="109" x="345.5" y="708.6348"/><ellipse cx="360.5" cy="730.9258" fill="#FF8B40" rx="11" ry="11" style="stroke:#181818;stroke-width:1.0;"/><path d="M361.0938,734.1914 L363.5625,728.3164 L363.1719,728.3164 Q362.5625,728.3164 362.2969,728.082 Q362.0313,727.8477 362.0313,727.457 Q362.0313,727.082 362.2969,726.8477 Q362.5625,726.6133 363.1719,726.6133 L365.4531,726.6133 Q366.0625,726.6133 366.3281,726.8477 Q366.5938,727.082 366.5938,727.457 Q366.5938,727.9258 366.1875,728.1914 Q366,728.3164 365.4063,728.3164 L361.9219,736.6758 L360.2813,736.6758 L356.7969,728.3164 Q356.2031,728.3164 356.0156,728.1914 Q355.6094,727.9258 355.6094,727.457 Q355.6094,727.082 355.875,726.8477 Q356.1406,726.6133 356.75,726.6133 L359.0469,726.6133 Q359.6563,726.6133 359.9063,726.8477 Q360.1719,727.082 360.1719,727.457 Q360.1719,727.8477 359.9063,728.082 Q359.6563,728.3164 359.0469,728.3164 L358.6406,728.3164 L361.0938,734.1914 Z " fill="#000000"/><text fill="#000000" font-family="sans-serif" font-size="12" font-style="italic" lengthAdjust="spacing" textLength="81" x="372.5" y="726.584">&#171;value object&#187;</text><text fill="#000000" font-family="sans-serif" font-size="14" lengthAdjust="spacing" textLength="64" x="381" y="744.7031">FirstName</text><line style="stroke:#181818;stroke-width:0.5;" x1="346.5" x2="453.5" y1="753.2168" y2="753.2168"/><line style="stroke:#181818;stroke-width:0.5;" x1="346.5" x2="453.5" y1="761.2168" y2="761.2168"/></g><!--class LastName--><g id="elem_LastName"><rect codeLine="17" fill="#F1F1F1" height="60.582" id="LastName" rx="2.5" ry="2.5" style="stroke:#181818;stroke-width:0.5;" width="109" x="561.5" y="579.6348"/><ellipse cx="576.5" cy="601.9258" fill="#FF8B40" rx="11" ry="11" style="stroke:#181818;stroke-width:1.0;"/><path d="M577.0938,605.1914 L579.5625,599.3164 L579.1719,599.3164 Q578.5625,599.3164 578.2969,599.082 Q578.0313,598.8477 578.0313,598.457 Q578.0313,598.082 578.2969,597.8477 Q578.5625,597.6133 579.1719,597.6133 L581.4531,597.6133 Q582.0625,597.6133 582.3281,597.8477 Q582.5938,598.082 582.5938,598.457 Q582.5938,598.9258 582.1875,599.1914 Q582,599.3164 581.4063,599.3164 L577.9219,607.6758 L576.2813,607.6758 L572.7969,599.3164 Q572.2031,599.3164 572.0156,599.1914 Q571.6094,598.9258 571.6094,598.457 Q571.6094,598.082 571.875,597.8477 Q572.1406,597.6133 572.75,597.6133 L575.0469,597.6133 Q575.6563,597.6133 575.9063,597.8477 Q576.1719,598.082 576.1719,598.457 Q576.1719,598.8477 575.9063,599.082 Q575.6563,599.3164 575.0469,599.3164 L574.6406,599.3164 L577.0938,605.1914 Z " fill="#000000"/><text fill="#000000" font-family="sans-serif" font-size="12" font-style="italic" lengthAdjust="spacing" textLength="81" x="588.5" y="597.584">&#171;value object&#187;</text><text fill="#000000" font-family="sans-serif" font-size="14" lengthAdjust="spacing" textLength="63" x="597.5" y="615.7031">LastName</text><line style="stroke:#181818;stroke-width:0.5;" x1="562.5" x2="669.5" y1="624.2168" y2="624.2168"/><line style="stroke:#181818;stroke-width:0.5;" x1="562.5" x2="669.5" y1="632.2168" y2="632.2168"/></g><!--class FullName--><g id="elem_FullName"><rect codeLine="18" fill="#F1F1F1" height="60.582" id="FullName" rx="2.5" ry="2.5" style="stroke:#181818;stroke-width:0.5;" width="109" x="489.5" y="708.6348"/><ellipse cx="504.5" cy="730.9258" fill="#FF8B40" rx="11" ry="11" style="stroke:#181818;stroke-width:1.0;"/><path d="M505.0938,734.1914 L507.5625,728.3164 L507.1719,728.3164 Q506.5625,728.3164 506.2969,728.082 Q506.0313,727.8477 506.0313,727.457 Q506.0313,727.082 506.2969,726.8477 Q506.5625,726.6133 507.1719,726.6133 L509.4531,726.6133 Q510.0625,726.6133 510.3281,726.8477 Q510.5938,727.082 510.5938,727.457 Q510.5938,727.9258 510.1875,728.1914 Q510,728.3164 509.4063,728.3164 L505.9219,736.6758 L504.2813,736.6758 L500.7969,728.3164 Q500.2031,728.3164 500.0156,728.1914 Q499.6094,727.9258 499.6094,727.457 Q499.6094,727.082 499.875,726.8477 Q500.1406,726.6133 500.75,726.6133 L503.0469,726.6133 Q503.6563,726.6133 503.9063,726.8477 Q504.1719,727.082 504.1719,727.457 Q504.1719,727.8477 503.9063,728.082 Q503.6563,728.3164 503.0469,728.3164 L502.6406,728.3164 L505.0938,734.1914 Z " fill="#000000"/><text fill="#000000" font-family="sans-serif" font-size="12" font-style="italic" lengthAdjust="spacing" textLength="81" x="516.5" y="726.584">&#171;value object&#187;</text><text fill="#000000" font-family="sans-serif" font-size="14" lengthAdjust="spacing" textLength="59" x="527.5" y="744.7031">FullName</text><line style="stroke:#181818;stroke-width:0.5;" x1="490.5" x2="597.5" y1="753.2168" y2="753.2168"/><line style="stroke:#181818;stroke-width:0.5;" x1="490.5" x2="597.5" y1="761.2168" y2="761.2168"/></g><!--class Phone--><g id="elem_Phone"><rect codeLine="19" fill="#F1F1F1" height="60.582" id="Phone" rx="2.5" ry="2.5" style="stroke:#181818;stroke-width:0.5;" width="109" x="209.5" y="442.6348"/><ellipse cx="224.5" cy="464.9258" fill="#FF8B40" rx="11" ry="11" style="stroke:#181818;stroke-width:1.0;"/><path d="M225.0938,468.1914 L227.5625,462.3164 L227.1719,462.3164 Q226.5625,462.3164 226.2969,462.082 Q226.0313,461.8477 226.0313,461.457 Q226.0313,461.082 226.2969,460.8477 Q226.5625,460.6133 227.1719,460.6133 L229.4531,460.6133 Q230.0625,460.6133 230.3281,460.8477 Q230.5938,461.082 230.5938,461.457 Q230.5938,461.9258 230.1875,462.1914 Q230,462.3164 229.4063,462.3164 L225.9219,470.6758 L224.2813,470.6758 L220.7969,462.3164 Q220.2031,462.3164 220.0156,462.1914 Q219.6094,461.9258 219.6094,461.457 Q219.6094,461.082 219.875,460.8477 Q220.1406,460.6133 220.75,460.6133 L223.0469,460.6133 Q223.6563,460.6133 223.9063,460.8477 Q224.1719,461.082 224.1719,461.457 Q224.1719,461.8477 223.9063,462.082 Q223.6563,462.3164 223.0469,462.3164 L222.6406,462.3164 L225.0938,468.1914 Z " fill="#000000"/><text fill="#000000" font-family="sans-serif" font-size="12" font-style="italic" lengthAdjust="spacing" textLength="81" x="236.5" y="460.584">&#171;value object&#187;</text><text fill="#000000" font-family="sans-serif" font-size="14" lengthAdjust="spacing" textLength="41" x="256.5" y="478.7031">Phone</text><line style="stroke:#181818;stroke-width:0.5;" x1="210.5" x2="317.5" y1="487.2168" y2="487.2168"/><line style="stroke:#181818;stroke-width:0.5;" x1="210.5" x2="317.5" y1="495.2168" y2="495.2168"/></g><!--class Email--><g id="elem_Email"><rect codeLine="20" fill="#F1F1F1" height="60.582" id="Email" rx="2.5" ry="2.5" style="stroke:#181818;stroke-width:0.5;" width="109" x="823.5" y="442.6348"/><ellipse cx="838.5" cy="464.9258" fill="#FF8B40" rx="11" ry="11" style="stroke:#181818;stroke-width:1.0;"/><path d="M839.0938,468.1914 L841.5625,462.3164 L841.1719,462.3164 Q840.5625,462.3164 840.2969,462.082 Q840.0313,461.8477 840.0313,461.457 Q840.0313,461.082 840.2969,460.8477 Q840.5625,460.6133 841.1719,460.6133 L843.4531,460.6133 Q844.0625,460.6133 844.3281,460.8477 Q844.5938,461.082 844.5938,461.457 Q844.5938,461.9258 844.1875,462.1914 Q844,462.3164 843.4063,462.3164 L839.9219,470.6758 L838.2813,470.6758 L834.7969,462.3164 Q834.2031,462.3164 834.0156,462.1914 Q833.6094,461.9258 833.6094,461.457 Q833.6094,461.082 833.875,460.8477 Q834.1406,460.6133 834.75,460.6133 L837.0469,460.6133 Q837.6563,460.6133 837.9063,460.8477 Q838.1719,461.082 838.1719,461.457 Q838.1719,461.8477 837.9063,462.082 Q837.6563,462.3164 837.0469,462.3164 L836.6406,462.3164 L839.0938,468.1914 Z " fill="#000000"/><text fill="#000000" font-family="sans-serif" font-size="12" font-style="italic" lengthAdjust="spacing" textLength="81" x="850.5" y="460.584">&#171;value object&#187;</text><text fill="#000000" font-family="sans-serif" font-size="14" lengthAdjust="spacing" textLength="34" x="874" y="478.7031">Email</text><line style="stroke:#181818;stroke-width:0.5;" x1="824.5" x2="931.5" y1="487.2168" y2="487.2168"/><line style="stroke:#181818;stroke-width:0.5;" x1="824.5" x2="931.5" y1="495.2168" y2="495.2168"/></g><!--class Address--><g id="elem_Address"><rect codeLine="21" fill="#F1F1F1" height="60.582" id="Address" rx="2.5" ry="2.5" style="stroke:#181818;stroke-width:0.5;" width="109" x="967.5" y="442.6348"/><ellipse cx="982.5" cy="464.9258" fill="#FF8B40" rx="11" ry="11" style="stroke:#181818;stroke-width:1.0;"/><path d="M983.0938,468.1914 L985.5625,462.3164 L985.1719,462.3164 Q984.5625,462.3164 984.2969,462.082 Q984.0313,461.8477 984.0313,461.457 Q984.0313,461.082 984.2969,460.8477 Q984.5625,460.6133 985.1719,460.6133 L987.4531,460.6133 Q988.0625,460.6133 988.3281,460.8477 Q988.5938,461.082 988.5938,461.457 Q988.5938,461.9258 988.1875,462.1914 Q988,462.3164 987.4063,462.3164 L983.9219,470.6758 L982.2813,470.6758 L978.7969,462.3164 Q978.2031,462.3164 978.0156,462.1914 Q977.6094,461.9258 977.6094,461.457 Q977.6094,461.082 977.875,460.8477 Q978.1406,460.6133 978.75,460.6133 L981.0469,460.6133 Q981.6563,460.6133 981.9063,460.8477 Q982.1719,461.082 982.1719,461.457 Q982.1719,461.8477 981.9063,462.082 Q981.6563,462.3164 981.0469,462.3164 L980.6406,462.3164 L983.0938,468.1914 Z " fill="#000000"/><text fill="#000000" font-family="sans-serif" font-size="12" font-style="italic" lengthAdjust="spacing" textLength="81" x="994.5" y="460.584">&#171;value object&#187;</text><text fill="#000000" font-family="sans-serif" font-size="14" lengthAdjust="spacing" textLength="52" x="1009" y="478.7031">Address</text><line style="stroke:#181818;stroke-width:0.5;" x1="968.5" x2="1075.5" y1="487.2168" y2="487.2168"/><line style="stroke:#181818;stroke-width:0.5;" x1="968.5" x2="1075.5" y1="495.2168" y2="495.2168"/></g><!--class Status--><g id="elem_Status"><rect codeLine="22" fill="#F1F1F1" height="60.582" id="Status" rx="2.5" ry="2.5" style="stroke:#181818;stroke-width:0.5;" width="109" x="860.5" y="288.6348"/><ellipse cx="875.5" cy="310.9258" fill="#FF8B40" rx="11" ry="11" style="stroke:#181818;stroke-width:1.0;"/><path d="M876.0938,314.1914 L878.5625,308.3164 L878.1719,308.3164 Q877.5625,308.3164 877.2969,308.082 Q877.0313,307.8477 877.0313,307.457 Q877.0313,307.082 877.2969,306.8477 Q877.5625,306.6133 878.1719,306.6133 L880.4531,306.6133 Q881.0625,306.6133 881.3281,306.8477 Q881.5938,307.082 881.5938,307.457 Q881.5938,307.9258 881.1875,308.1914 Q881,308.3164 880.4063,308.3164 L876.9219,316.6758 L875.2813,316.6758 L871.7969,308.3164 Q871.2031,308.3164 871.0156,308.1914 Q870.6094,307.9258 870.6094,307.457 Q870.6094,307.082 870.875,306.8477 Q871.1406,306.6133 871.75,306.6133 L874.0469,306.6133 Q874.6563,306.6133 874.9063,306.8477 Q875.1719,307.082 875.1719,307.457 Q875.1719,307.8477 874.9063,308.082 Q874.6563,308.3164 874.0469,308.3164 L873.6406,308.3164 L876.0938,314.1914 Z " fill="#000000"/><text fill="#000000" font-family="sans-serif" font-size="12" font-style="italic" lengthAdjust="spacing" textLength="81" x="887.5" y="306.584">&#171;value object&#187;</text><text fill="#000000" font-family="sans-serif" font-size="14" lengthAdjust="spacing" textLength="40" x="908" y="324.7031">Status</text><line style="stroke:#181818;stroke-width:0.5;" x1="861.5" x2="968.5" y1="333.2168" y2="333.2168"/><line style="stroke:#181818;stroke-width:0.5;" x1="861.5" x2="968.5" y1="341.2168" y2="341.2168"/></g><!--class MedicalRecord--><g id="elem_MedicalRecord"><rect codeLine="26" fill="#F1F1F1" height="76.543" id="MedicalRecord" rx="2.5" ry="2.5" style="stroke:#181818;stroke-width:0.5;" width="126" x="1460" y="280.6348"/><ellipse cx="1475" cy="310.9063" fill="#ADD1B2" rx="11" ry="11" style="stroke:#181818;stroke-width:1.0;"/><path d="M1473.8594,311.7031 L1473.8594,314.2031 L1478.1875,314.2031 L1478.1875,313.2813 Q1478.1875,312.6719 1478.4219,312.4063 Q1478.6719,312.1406 1479.0469,312.1406 Q1479.4219,312.1406 1479.6563,312.4063 Q1479.8906,312.6719 1479.8906,313.2813 L1479.8906,315.9063 L1471.8906,315.9063 Q1471.2656,315.9063 1471,315.6719 Q1470.75,315.4375 1470.75,315.0469 Q1470.75,314.6719 1471.0156,314.4375 Q1471.2813,314.2031 1471.8906,314.2031 L1472.1563,314.2031 L1472.1563,307.5469 L1471.8906,307.5469 Q1471.2656,307.5469 1471,307.3125 Q1470.75,307.0781 1470.75,306.6875 Q1470.75,306.3125 1471,306.0781 Q1471.2656,305.8438 1471.8906,305.8438 L1479.5156,305.8438 L1479.5156,308.4375 Q1479.5156,309.0469 1479.2813,309.3125 Q1479.0625,309.5625 1478.6719,309.5625 Q1478.2969,309.5625 1478.0625,309.3125 Q1477.8281,309.0469 1477.8281,308.4375 L1477.8281,307.5469 L1473.8594,307.5469 L1473.8594,310 L1475.3438,310 Q1475.3438,309.3438 1475.4688,309.1563 Q1475.7344,308.75 1476.2031,308.75 Q1476.5781,308.75 1476.8125,309.0156 Q1477.0469,309.2656 1477.0469,309.875 L1477.0469,311.8438 Q1477.0469,312.3906 1476.9219,312.5781 Q1476.6563,312.9688 1476.2031,312.9688 Q1475.7344,312.9688 1475.4688,312.5625 Q1475.3438,312.375 1475.3438,311.7031 L1473.8594,311.7031 Z " fill="#000000"/><text fill="#000000" font-family="sans-serif" font-size="12" font-style="italic" lengthAdjust="spacing" textLength="43" x="1514.5" y="298.584">&#171;entity&#187;</text><text fill="#000000" font-family="sans-serif" font-size="12" font-style="italic" lengthAdjust="spacing" textLength="35" x="1518.5" y="314.5449">&#171;root&#187;</text><text fill="#000000" font-family="sans-serif" font-size="14" lengthAdjust="spacing" textLength="94" x="1489" y="332.6641">MedicalRecord</text><line style="stroke:#181818;stroke-width:0.5;" x1="1461" x2="1585" y1="341.1777" y2="341.1777"/><line style="stroke:#181818;stroke-width:0.5;" x1="1461" x2="1585" y1="349.1777" y2="349.1777"/></g><!--class MedicalRecordDescription--><g id="elem_MedicalRecordDescription"><rect codeLine="27" fill="#F1F1F1" height="76.543" id="MedicalRecordDescription" rx="2.5" ry="2.5" style="stroke:#181818;stroke-width:0.5;" width="197" x="1621.5" y="280.6348"/><ellipse cx="1636.5" cy="310.9063" fill="#FF8B40" rx="11" ry="11" style="stroke:#181818;stroke-width:1.0;"/><path d="M1637.0938,314.1719 L1639.5625,308.2969 L1639.1719,308.2969 Q1638.5625,308.2969 1638.2969,308.0625 Q1638.0313,307.8281 1638.0313,307.4375 Q1638.0313,307.0625 1638.2969,306.8281 Q1638.5625,306.5938 1639.1719,306.5938 L1641.4531,306.5938 Q1642.0625,306.5938 1642.3281,306.8281 Q1642.5938,307.0625 1642.5938,307.4375 Q1642.5938,307.9063 1642.1875,308.1719 Q1642,308.2969 1641.4063,308.2969 L1637.9219,316.6563 L1636.2813,316.6563 L1632.7969,308.2969 Q1632.2031,308.2969 1632.0156,308.1719 Q1631.6094,307.9063 1631.6094,307.4375 Q1631.6094,307.0625 1631.875,306.8281 Q1632.1406,306.5938 1632.75,306.5938 L1635.0469,306.5938 Q1635.6563,306.5938 1635.9063,306.8281 Q1636.1719,307.0625 1636.1719,307.4375 Q1636.1719,307.8281 1635.9063,308.0625 Q1635.6563,308.2969 1635.0469,308.2969 L1634.6406,308.2969 L1637.0938,314.1719 Z " fill="#000000"/><text fill="#000000" font-family="sans-serif" font-size="12" font-style="italic" lengthAdjust="spacing" textLength="81" x="1692.5" y="298.584">&#171;value object&#187;</text><text fill="#000000" font-family="sans-serif" font-size="12" font-style="italic" lengthAdjust="spacing" textLength="61" x="1702.5" y="314.5449">&#171;identifier&#187;</text><text fill="#000000" font-family="sans-serif" font-size="14" lengthAdjust="spacing" textLength="165" x="1650.5" y="332.6641">MedicalRecordDescription</text><line style="stroke:#181818;stroke-width:0.5;" x1="1622.5" x2="1817.5" y1="341.1777" y2="341.1777"/><line style="stroke:#181818;stroke-width:0.5;" x1="1622.5" x2="1817.5" y1="349.1777" y2="349.1777"/></g><!--class MedicalCondition--><g id="elem_MedicalCondition"><rect codeLine="33" fill="#F1F1F1" height="76.543" id="MedicalCondition" rx="2.5" ry="2.5" style="stroke:#181818;stroke-width:0.5;" width="140" x="1453" y="434.6348"/><ellipse cx="1468" cy="464.9063" fill="#ADD1B2" rx="11" ry="11" style="stroke:#181818;stroke-width:1.0;"/><path d="M1466.8594,465.7031 L1466.8594,468.2031 L1471.1875,468.2031 L1471.1875,467.2813 Q1471.1875,466.6719 1471.4219,466.4063 Q1471.6719,466.1406 1472.0469,466.1406 Q1472.4219,466.1406 1472.6563,466.4063 Q1472.8906,466.6719 1472.8906,467.2813 L1472.8906,469.9063 L1464.8906,469.9063 Q1464.2656,469.9063 1464,469.6719 Q1463.75,469.4375 1463.75,469.0469 Q1463.75,468.6719 1464.0156,468.4375 Q1464.2813,468.2031 1464.8906,468.2031 L1465.1563,468.2031 L1465.1563,461.5469 L1464.8906,461.5469 Q1464.2656,461.5469 1464,461.3125 Q1463.75,461.0781 1463.75,460.6875 Q1463.75,460.3125 1464,460.0781 Q1464.2656,459.8438 1464.8906,459.8438 L1472.5156,459.8438 L1472.5156,462.4375 Q1472.5156,463.0469 1472.2813,463.3125 Q1472.0625,463.5625 1471.6719,463.5625 Q1471.2969,463.5625 1471.0625,463.3125 Q1470.8281,463.0469 1470.8281,462.4375 L1470.8281,461.5469 L1466.8594,461.5469 L1466.8594,464 L1468.3438,464 Q1468.3438,463.3438 1468.4688,463.1563 Q1468.7344,462.75 1469.2031,462.75 Q1469.5781,462.75 1469.8125,463.0156 Q1470.0469,463.2656 1470.0469,463.875 L1470.0469,465.8438 Q1470.0469,466.3906 1469.9219,466.5781 Q1469.6563,466.9688 1469.2031,466.9688 Q1468.7344,466.9688 1468.4688,466.5625 Q1468.3438,466.375 1468.3438,465.7031 L1466.8594,465.7031 Z " fill="#000000"/><text fill="#000000" font-family="sans-serif" font-size="12" font-style="italic" lengthAdjust="spacing" textLength="43" x="1514.5" y="452.584">&#171;entity&#187;</text><text fill="#000000" font-family="sans-serif" font-size="12" font-style="italic" lengthAdjust="spacing" textLength="35" x="1518.5" y="468.5449">&#171;root&#187;</text><text fill="#000000" font-family="sans-serif" font-size="14" lengthAdjust="spacing" textLength="108" x="1482" y="486.6641">MedicalCondition</text><line style="stroke:#181818;stroke-width:0.5;" x1="1454" x2="1592" y1="495.1777" y2="495.1777"/><line style="stroke:#181818;stroke-width:0.5;" x1="1454" x2="1592" y1="503.1777" y2="503.1777"/></g><!--class MedicalConditionDesignation--><g id="elem_MedicalConditionDesignation"><rect codeLine="34" fill="#F1F1F1" height="76.543" id="MedicalConditionDesignation" rx="2.5" ry="2.5" style="stroke:#181818;stroke-width:0.5;" width="215" x="1777.5" y="571.6348"/><ellipse cx="1792.5" cy="601.9063" fill="#FF8B40" rx="11" ry="11" style="stroke:#181818;stroke-width:1.0;"/><path d="M1793.0938,605.1719 L1795.5625,599.2969 L1795.1719,599.2969 Q1794.5625,599.2969 1794.2969,599.0625 Q1794.0313,598.8281 1794.0313,598.4375 Q1794.0313,598.0625 1794.2969,597.8281 Q1794.5625,597.5938 1795.1719,597.5938 L1797.4531,597.5938 Q1798.0625,597.5938 1798.3281,597.8281 Q1798.5938,598.0625 1798.5938,598.4375 Q1798.5938,598.9063 1798.1875,599.1719 Q1798,599.2969 1797.4063,599.2969 L1793.9219,607.6563 L1792.2813,607.6563 L1788.7969,599.2969 Q1788.2031,599.2969 1788.0156,599.1719 Q1787.6094,598.9063 1787.6094,598.4375 Q1787.6094,598.0625 1787.875,597.8281 Q1788.1406,597.5938 1788.75,597.5938 L1791.0469,597.5938 Q1791.6563,597.5938 1791.9063,597.8281 Q1792.1719,598.0625 1792.1719,598.4375 Q1792.1719,598.8281 1791.9063,599.0625 Q1791.6563,599.2969 1791.0469,599.2969 L1790.6406,599.2969 L1793.0938,605.1719 Z " fill="#000000"/><text fill="#000000" font-family="sans-serif" font-size="12" font-style="italic" lengthAdjust="spacing" textLength="81" x="1857.5" y="589.584">&#171;value object&#187;</text><text fill="#000000" font-family="sans-serif" font-size="12" font-style="italic" lengthAdjust="spacing" textLength="61" x="1867.5" y="605.5449">&#171;identifier&#187;</text><text fill="#000000" font-family="sans-serif" font-size="14" lengthAdjust="spacing" textLength="183" x="1806.5" y="623.6641">MedicalConditionDesignation</text><line style="stroke:#181818;stroke-width:0.5;" x1="1778.5" x2="1991.5" y1="632.1777" y2="632.1777"/><line style="stroke:#181818;stroke-width:0.5;" x1="1778.5" x2="1991.5" y1="640.1777" y2="640.1777"/></g><!--class MedicalConditionCode--><g id="elem_MedicalConditionCode"><rect codeLine="35" fill="#F1F1F1" height="76.543" id="MedicalConditionCode" rx="2.5" ry="2.5" style="stroke:#181818;stroke-width:0.5;" width="174" x="1322" y="571.6348"/><ellipse cx="1337" cy="601.9063" fill="#FF8B40" rx="11" ry="11" style="stroke:#181818;stroke-width:1.0;"/><path d="M1337.5938,605.1719 L1340.0625,599.2969 L1339.6719,599.2969 Q1339.0625,599.2969 1338.7969,599.0625 Q1338.5313,598.8281 1338.5313,598.4375 Q1338.5313,598.0625 1338.7969,597.8281 Q1339.0625,597.5938 1339.6719,597.5938 L1341.9531,597.5938 Q1342.5625,597.5938 1342.8281,597.8281 Q1343.0938,598.0625 1343.0938,598.4375 Q1343.0938,598.9063 1342.6875,599.1719 Q1342.5,599.2969 1341.9063,599.2969 L1338.4219,607.6563 L1336.7813,607.6563 L1333.2969,599.2969 Q1332.7031,599.2969 1332.5156,599.1719 Q1332.1094,598.9063 1332.1094,598.4375 Q1332.1094,598.0625 1332.375,597.8281 Q1332.6406,597.5938 1333.25,597.5938 L1335.5469,597.5938 Q1336.1563,597.5938 1336.4063,597.8281 Q1336.6719,598.0625 1336.6719,598.4375 Q1336.6719,598.8281 1336.4063,599.0625 Q1336.1563,599.2969 1335.5469,599.2969 L1335.1406,599.2969 L1337.5938,605.1719 Z " fill="#000000"/><text fill="#000000" font-family="sans-serif" font-size="12" font-style="italic" lengthAdjust="spacing" textLength="81" x="1381.5" y="589.584">&#171;value object&#187;</text><text fill="#000000" font-family="sans-serif" font-size="12" font-style="italic" lengthAdjust="spacing" textLength="61" x="1391.5" y="605.5449">&#171;identifier&#187;</text><text fill="#000000" font-family="sans-serif" font-size="14" lengthAdjust="spacing" textLength="142" x="1351" y="623.6641">MedicalConditionCode</text><line style="stroke:#181818;stroke-width:0.5;" x1="1323" x2="1495" y1="632.1777" y2="632.1777"/><line style="stroke:#181818;stroke-width:0.5;" x1="1323" x2="1495" y1="640.1777" y2="640.1777"/></g><!--class MedicalConditionDescription--><g id="elem_MedicalConditionDescription"><rect codeLine="36" fill="#F1F1F1" height="76.543" id="MedicalConditionDescription" rx="2.5" ry="2.5" style="stroke:#181818;stroke-width:0.5;" width="211" x="1531.5" y="571.6348"/><ellipse cx="1546.5" cy="601.9063" fill="#FF8B40" rx="11" ry="11" style="stroke:#181818;stroke-width:1.0;"/><path d="M1547.0938,605.1719 L1549.5625,599.2969 L1549.1719,599.2969 Q1548.5625,599.2969 1548.2969,599.0625 Q1548.0313,598.8281 1548.0313,598.4375 Q1548.0313,598.0625 1548.2969,597.8281 Q1548.5625,597.5938 1549.1719,597.5938 L1551.4531,597.5938 Q1552.0625,597.5938 1552.3281,597.8281 Q1552.5938,598.0625 1552.5938,598.4375 Q1552.5938,598.9063 1552.1875,599.1719 Q1552,599.2969 1551.4063,599.2969 L1547.9219,607.6563 L1546.2813,607.6563 L1542.7969,599.2969 Q1542.2031,599.2969 1542.0156,599.1719 Q1541.6094,598.9063 1541.6094,598.4375 Q1541.6094,598.0625 1541.875,597.8281 Q1542.1406,597.5938 1542.75,597.5938 L1545.0469,597.5938 Q1545.6563,597.5938 1545.9063,597.8281 Q1546.1719,598.0625 1546.1719,598.4375 Q1546.1719,598.8281 1545.9063,599.0625 Q1545.6563,599.2969 1545.0469,599.2969 L1544.6406,599.2969 L1547.0938,605.1719 Z " fill="#000000"/><text fill="#000000" font-family="sans-serif" font-size="12" font-style="italic" lengthAdjust="spacing" textLength="81" x="1609.5" y="589.584">&#171;value object&#187;</text><text fill="#000000" font-family="sans-serif" font-size="12" font-style="italic" lengthAdjust="spacing" textLength="61" x="1619.5" y="605.5449">&#171;identifier&#187;</text><text fill="#000000" font-family="sans-serif" font-size="14" lengthAdjust="spacing" textLength="179" x="1560.5" y="623.6641">MedicalConditionDescription</text><line style="stroke:#181818;stroke-width:0.5;" x1="1532.5" x2="1741.5" y1="632.1777" y2="632.1777"/><line style="stroke:#181818;stroke-width:0.5;" x1="1532.5" x2="1741.5" y1="640.1777" y2="640.1777"/></g><!--class Allergy--><g id="elem_Allergy"><rect codeLine="40" fill="#F1F1F1" height="76.543" id="Allergy" rx="2.5" ry="2.5" style="stroke:#181818;stroke-width:0.5;" width="75" x="2066.5" y="434.6348"/><ellipse cx="2081.5" cy="464.9063" fill="#ADD1B2" rx="11" ry="11" style="stroke:#181818;stroke-width:1.0;"/><path d="M2080.3594,465.7031 L2080.3594,468.2031 L2084.6875,468.2031 L2084.6875,467.2813 Q2084.6875,466.6719 2084.9219,466.4063 Q2085.1719,466.1406 2085.5469,466.1406 Q2085.9219,466.1406 2086.1563,466.4063 Q2086.3906,466.6719 2086.3906,467.2813 L2086.3906,469.9063 L2078.3906,469.9063 Q2077.7656,469.9063 2077.5,469.6719 Q2077.25,469.4375 2077.25,469.0469 Q2077.25,468.6719 2077.5156,468.4375 Q2077.7813,468.2031 2078.3906,468.2031 L2078.6563,468.2031 L2078.6563,461.5469 L2078.3906,461.5469 Q2077.7656,461.5469 2077.5,461.3125 Q2077.25,461.0781 2077.25,460.6875 Q2077.25,460.3125 2077.5,460.0781 Q2077.7656,459.8438 2078.3906,459.8438 L2086.0156,459.8438 L2086.0156,462.4375 Q2086.0156,463.0469 2085.7813,463.3125 Q2085.5625,463.5625 2085.1719,463.5625 Q2084.7969,463.5625 2084.5625,463.3125 Q2084.3281,463.0469 2084.3281,462.4375 L2084.3281,461.5469 L2080.3594,461.5469 L2080.3594,464 L2081.8438,464 Q2081.8438,463.3438 2081.9688,463.1563 Q2082.2344,462.75 2082.7031,462.75 Q2083.0781,462.75 2083.3125,463.0156 Q2083.5469,463.2656 2083.5469,463.875 L2083.5469,465.8438 Q2083.5469,466.3906 2083.4219,466.5781 Q2083.1563,466.9688 2082.7031,466.9688 Q2082.2344,466.9688 2081.9688,466.5625 Q2081.8438,466.375 2081.8438,465.7031 L2080.3594,465.7031 Z " fill="#000000"/><text fill="#000000" font-family="sans-serif" font-size="12" font-style="italic" lengthAdjust="spacing" textLength="43" x="2095.5" y="452.584">&#171;entity&#187;</text><text fill="#000000" font-family="sans-serif" font-size="12" font-style="italic" lengthAdjust="spacing" textLength="35" x="2099.5" y="468.5449">&#171;root&#187;</text><text fill="#000000" font-family="sans-serif" font-size="14" lengthAdjust="spacing" textLength="43" x="2095.5" y="486.6641">Allergy</text><line style="stroke:#181818;stroke-width:0.5;" x1="2067.5" x2="2140.5" y1="495.1777" y2="495.1777"/><line style="stroke:#181818;stroke-width:0.5;" x1="2067.5" x2="2140.5" y1="503.1777" y2="503.1777"/></g><!--class AllergyDesignation--><g id="elem_AllergyDesignation"><rect codeLine="41" fill="#F1F1F1" height="76.543" id="AllergyDesignation" rx="2.5" ry="2.5" style="stroke:#181818;stroke-width:0.5;" width="150" x="2375" y="571.6348"/><ellipse cx="2390" cy="601.9063" fill="#FF8B40" rx="11" ry="11" style="stroke:#181818;stroke-width:1.0;"/><path d="M2390.5938,605.1719 L2393.0625,599.2969 L2392.6719,599.2969 Q2392.0625,599.2969 2391.7969,599.0625 Q2391.5313,598.8281 2391.5313,598.4375 Q2391.5313,598.0625 2391.7969,597.8281 Q2392.0625,597.5938 2392.6719,597.5938 L2394.9531,597.5938 Q2395.5625,597.5938 2395.8281,597.8281 Q2396.0938,598.0625 2396.0938,598.4375 Q2396.0938,598.9063 2395.6875,599.1719 Q2395.5,599.2969 2394.9063,599.2969 L2391.4219,607.6563 L2389.7813,607.6563 L2386.2969,599.2969 Q2385.7031,599.2969 2385.5156,599.1719 Q2385.1094,598.9063 2385.1094,598.4375 Q2385.1094,598.0625 2385.375,597.8281 Q2385.6406,597.5938 2386.25,597.5938 L2388.5469,597.5938 Q2389.1563,597.5938 2389.4063,597.8281 Q2389.6719,598.0625 2389.6719,598.4375 Q2389.6719,598.8281 2389.4063,599.0625 Q2389.1563,599.2969 2388.5469,599.2969 L2388.1406,599.2969 L2390.5938,605.1719 Z " fill="#000000"/><text fill="#000000" font-family="sans-serif" font-size="12" font-style="italic" lengthAdjust="spacing" textLength="81" x="2422.5" y="589.584">&#171;value object&#187;</text><text fill="#000000" font-family="sans-serif" font-size="12" font-style="italic" lengthAdjust="spacing" textLength="61" x="2432.5" y="605.5449">&#171;identifier&#187;</text><text fill="#000000" font-family="sans-serif" font-size="14" lengthAdjust="spacing" textLength="118" x="2404" y="623.6641">AllergyDesignation</text><line style="stroke:#181818;stroke-width:0.5;" x1="2376" x2="2524" y1="632.1777" y2="632.1777"/><line style="stroke:#181818;stroke-width:0.5;" x1="2376" x2="2524" y1="640.1777" y2="640.1777"/></g><!--class AllergyCode--><g id="elem_AllergyCode"><rect codeLine="42" fill="#F1F1F1" height="76.543" id="AllergyCode" rx="2.5" ry="2.5" style="stroke:#181818;stroke-width:0.5;" width="109" x="2049.5" y="571.6348"/><ellipse cx="2064.5" cy="601.9063" fill="#FF8B40" rx="11" ry="11" style="stroke:#181818;stroke-width:1.0;"/><path d="M2065.0938,605.1719 L2067.5625,599.2969 L2067.1719,599.2969 Q2066.5625,599.2969 2066.2969,599.0625 Q2066.0313,598.8281 2066.0313,598.4375 Q2066.0313,598.0625 2066.2969,597.8281 Q2066.5625,597.5938 2067.1719,597.5938 L2069.4531,597.5938 Q2070.0625,597.5938 2070.3281,597.8281 Q2070.5938,598.0625 2070.5938,598.4375 Q2070.5938,598.9063 2070.1875,599.1719 Q2070,599.2969 2069.4063,599.2969 L2065.9219,607.6563 L2064.2813,607.6563 L2060.7969,599.2969 Q2060.2031,599.2969 2060.0156,599.1719 Q2059.6094,598.9063 2059.6094,598.4375 Q2059.6094,598.0625 2059.875,597.8281 Q2060.1406,597.5938 2060.75,597.5938 L2063.0469,597.5938 Q2063.6563,597.5938 2063.9063,597.8281 Q2064.1719,598.0625 2064.1719,598.4375 Q2064.1719,598.8281 2063.9063,599.0625 Q2063.6563,599.2969 2063.0469,599.2969 L2062.6406,599.2969 L2065.0938,605.1719 Z " fill="#000000"/><text fill="#000000" font-family="sans-serif" font-size="12" font-style="italic" lengthAdjust="spacing" textLength="81" x="2076.5" y="589.584">&#171;value object&#187;</text><text fill="#000000" font-family="sans-serif" font-size="12" font-style="italic" lengthAdjust="spacing" textLength="61" x="2086.5" y="605.5449">&#171;identifier&#187;</text><text fill="#000000" font-family="sans-serif" font-size="14" lengthAdjust="spacing" textLength="77" x="2078.5" y="623.6641">AllergyCode</text><line style="stroke:#181818;stroke-width:0.5;" x1="2050.5" x2="2157.5" y1="632.1777" y2="632.1777"/><line style="stroke:#181818;stroke-width:0.5;" x1="2050.5" x2="2157.5" y1="640.1777" y2="640.1777"/></g><!--class AllergyDescription--><g id="elem_AllergyDescription"><rect codeLine="43" fill="#F1F1F1" height="76.543" id="AllergyDescription" rx="2.5" ry="2.5" style="stroke:#181818;stroke-width:0.5;" width="146" x="2194" y="571.6348"/><ellipse cx="2209" cy="601.9063" fill="#FF8B40" rx="11" ry="11" style="stroke:#181818;stroke-width:1.0;"/><path d="M2209.5938,605.1719 L2212.0625,599.2969 L2211.6719,599.2969 Q2211.0625,599.2969 2210.7969,599.0625 Q2210.5313,598.8281 2210.5313,598.4375 Q2210.5313,598.0625 2210.7969,597.8281 Q2211.0625,597.5938 2211.6719,597.5938 L2213.9531,597.5938 Q2214.5625,597.5938 2214.8281,597.8281 Q2215.0938,598.0625 2215.0938,598.4375 Q2215.0938,598.9063 2214.6875,599.1719 Q2214.5,599.2969 2213.9063,599.2969 L2210.4219,607.6563 L2208.7813,607.6563 L2205.2969,599.2969 Q2204.7031,599.2969 2204.5156,599.1719 Q2204.1094,598.9063 2204.1094,598.4375 Q2204.1094,598.0625 2204.375,597.8281 Q2204.6406,597.5938 2205.25,597.5938 L2207.5469,597.5938 Q2208.1563,597.5938 2208.4063,597.8281 Q2208.6719,598.0625 2208.6719,598.4375 Q2208.6719,598.8281 2208.4063,599.0625 Q2208.1563,599.2969 2207.5469,599.2969 L2207.1406,599.2969 L2209.5938,605.1719 Z " fill="#000000"/><text fill="#000000" font-family="sans-serif" font-size="12" font-style="italic" lengthAdjust="spacing" textLength="81" x="2239.5" y="589.584">&#171;value object&#187;</text><text fill="#000000" font-family="sans-serif" font-size="12" font-style="italic" lengthAdjust="spacing" textLength="61" x="2249.5" y="605.5449">&#171;identifier&#187;</text><text fill="#000000" font-family="sans-serif" font-size="14" lengthAdjust="spacing" textLength="114" x="2223" y="623.6641">AllergyDescription</text><line style="stroke:#181818;stroke-width:0.5;" x1="2195" x2="2339" y1="632.1777" y2="632.1777"/><line style="stroke:#181818;stroke-width:0.5;" x1="2195" x2="2339" y1="640.1777" y2="640.1777"/></g><!--class Doctor--><g id="elem_Doctor"><rect codeLine="47" fill="#F1F1F1" height="76.543" id="Doctor" rx="2.5" ry="2.5" style="stroke:#181818;stroke-width:0.5;" width="74" x="1486" y="82.6348"/><ellipse cx="1501" cy="112.9063" fill="#ADD1B2" rx="11" ry="11" style="stroke:#181818;stroke-width:1.0;"/><path d="M1499.8594,113.7031 L1499.8594,116.2031 L1504.1875,116.2031 L1504.1875,115.2813 Q1504.1875,114.6719 1504.4219,114.4063 Q1504.6719,114.1406 1505.0469,114.1406 Q1505.4219,114.1406 1505.6563,114.4063 Q1505.8906,114.6719 1505.8906,115.2813 L1505.8906,117.9063 L1497.8906,117.9063 Q1497.2656,117.9063 1497,117.6719 Q1496.75,117.4375 1496.75,117.0469 Q1496.75,116.6719 1497.0156,116.4375 Q1497.2813,116.2031 1497.8906,116.2031 L1498.1563,116.2031 L1498.1563,109.5469 L1497.8906,109.5469 Q1497.2656,109.5469 1497,109.3125 Q1496.75,109.0781 1496.75,108.6875 Q1496.75,108.3125 1497,108.0781 Q1497.2656,107.8438 1497.8906,107.8438 L1505.5156,107.8438 L1505.5156,110.4375 Q1505.5156,111.0469 1505.2813,111.3125 Q1505.0625,111.5625 1504.6719,111.5625 Q1504.2969,111.5625 1504.0625,111.3125 Q1503.8281,111.0469 1503.8281,110.4375 L1503.8281,109.5469 L1499.8594,109.5469 L1499.8594,112 L1501.3438,112 Q1501.3438,111.3438 1501.4688,111.1563 Q1501.7344,110.75 1502.2031,110.75 Q1502.5781,110.75 1502.8125,111.0156 Q1503.0469,111.2656 1503.0469,111.875 L1503.0469,113.8438 Q1503.0469,114.3906 1502.9219,114.5781 Q1502.6563,114.9688 1502.2031,114.9688 Q1501.7344,114.9688 1501.4688,114.5625 Q1501.3438,114.375 1501.3438,113.7031 L1499.8594,113.7031 Z " fill="#000000"/><text fill="#000000" font-family="sans-serif" font-size="12" font-style="italic" lengthAdjust="spacing" textLength="43" x="1514.5" y="100.584">&#171;entity&#187;</text><text fill="#000000" font-family="sans-serif" font-size="12" font-style="italic" lengthAdjust="spacing" textLength="35" x="1518.5" y="116.5449">&#171;root&#187;</text><text fill="#000000" font-family="sans-serif" font-size="14" lengthAdjust="spacing" textLength="42" x="1515" y="134.6641">Doctor</text><line style="stroke:#181818;stroke-width:0.5;" x1="1487" x2="1559" y1="143.1777" y2="143.1777"/><line style="stroke:#181818;stroke-width:0.5;" x1="1487" x2="1559" y1="151.1777" y2="151.1777"/></g><!--link Name to FirstName--><g id="link_Name_FirstName"><path codeLine="51" d="M455.12,640.9148 C443.56,661.2948 431.2689,682.9851 419.7389,703.3251 " fill="none" id="Name-to-FirstName" style="stroke:#181818;stroke-width:1.0;"/><polygon fill="#181818" points="416.78,708.5448,424.6981,702.6878,419.2457,704.195,417.7385,698.7427,416.78,708.5448" style="stroke:#181818;stroke-width:1.0;"/></g><!--link Name to LastName--><g id="link_Name_LastName"><path codeLine="52" d="M526.56,610.1348 C538.21,610.1348 543.85,610.1348 555.5,610.1348 " fill="none" id="Name-to-LastName" style="stroke:#181818;stroke-width:1.0;"/><polygon fill="#181818" points="561.5,610.1348,552.5,606.1348,556.5,610.1348,552.5,614.1348,561.5,610.1348" style="stroke:#181818;stroke-width:1.0;"/></g><!--link Name to FullName--><g id="link_Name_FullName"><path codeLine="53" d="M488.88,640.9148 C500.44,661.2948 512.7311,682.9851 524.2611,703.3251 " fill="none" id="Name-to-FullName" style="stroke:#181818;stroke-width:1.0;"/><polygon fill="#181818" points="527.22,708.5448,526.2615,698.7427,524.7543,704.195,519.3019,702.6878,527.22,708.5448" style="stroke:#181818;stroke-width:1.0;"/></g><!--link Patient to Status--><g id="link_Patient_Status"><path codeLine="55" d="M825.5,319.1348 C837.15,319.1348 842.81,319.1348 854.46,319.1348 " fill="none" id="Patient-to-Status" style="stroke:#181818;stroke-width:1.0;"/><polygon fill="#181818" points="860.46,319.1348,851.46,315.1348,855.46,319.1348,851.46,323.1348,860.46,319.1348" style="stroke:#181818;stroke-width:1.0;"/><text fill="#000000" font-family="sans-serif" font-size="13" lengthAdjust="spacing" textLength="7" x="845.6609" y="315.0685">1</text></g><!--link Patient to Name--><g id="link_Patient_Name"><path codeLine="56" d="M794.74,357.6748 C801.18,400.1548 804.22,468.9748 768,511.6348 C701.29,590.1948 640.06,534.2748 544,571.6348 C537.96,573.9848 537.1891,574.1504 531.0891,577.0204 " fill="none" id="Patient-to-Name" style="stroke:#181818;stroke-width:1.0;"/><polygon fill="#181818" points="525.66,579.5748,535.5066,579.3626,530.1843,577.4461,532.1008,572.1238,525.66,579.5748" style="stroke:#181818;stroke-width:1.0;"/><text fill="#000000" font-family="sans-serif" font-size="13" lengthAdjust="spacing" textLength="7" x="529.6325" y="568.1363">1</text></g><!--link Patient to DateBirth--><g id="link_Patient_DateBirth"><path codeLine="57" d="M748.8,321.2848 C687.83,324.6748 566.58,337.9748 480,389.6348 C458.29,402.5848 443.1964,419.4788 430.3464,437.3988 " fill="none" id="Patient-to-DateBirth" style="stroke:#181818;stroke-width:1.0;"/><polygon fill="#181818" points="426.85,442.2748,435.3453,437.2918,429.7637,438.2115,428.844,432.6299,426.85,442.2748" style="stroke:#181818;stroke-width:1.0;"/><text fill="#000000" font-family="sans-serif" font-size="13" lengthAdjust="spacing" textLength="7" x="423.0159" y="431.2582">1</text></g><!--link Patient to Gender--><g id="link_Patient_Gender"><path codeLine="58" d="M748.92,330.9648 C714.2,342.0448 662.58,361.6148 624,389.6348 C604,404.1548 589.3907,420.4356 576.2607,437.6356 " fill="none" id="Patient-to-Gender" style="stroke:#181818;stroke-width:1.0;"/><polygon fill="#181818" points="572.62,442.4048,581.2605,437.6781,575.6539,438.4304,574.9016,432.8238,572.62,442.4048" style="stroke:#181818;stroke-width:1.0;"/><text fill="#000000" font-family="sans-serif" font-size="13" lengthAdjust="spacing" textLength="7" x="569.151" y="431.415">1</text></g><!--link Patient to EmergencyContact--><g id="link_Patient_EmergencyContact"><path codeLine="59" d="M748.83,321.6348 C633.87,326.6248 292.62,344.9048 192,389.6348 C165.21,401.5448 144.6538,419.4671 127.3138,437.8771 " fill="none" id="Patient-to-EmergencyContact" style="stroke:#181818;stroke-width:1.0;"/><polygon fill="#181818" points="123.2,442.2448,132.2825,438.4358,126.6282,438.605,126.4589,432.9507,123.2,442.2448" style="stroke:#181818;stroke-width:1.0;"/><text fill="#000000" font-family="sans-serif" font-size="13" lengthAdjust="spacing" textLength="7" x="120.6756" y="431.222">1</text></g><!--link Patient to MRN--><g id="link_Patient_MRN"><path codeLine="60" d="M764.51,357.7048 C750.51,381.0948 735.6421,405.9169 721.6321,429.3169 " fill="none" id="Patient-to-MRN" style="stroke:#181818;stroke-width:1.0;"/><polygon fill="#181818" points="718.55,434.4648,726.6051,428.7977,721.1184,430.1749,719.7413,424.6882,718.55,434.4648" style="stroke:#181818;stroke-width:1.0;"/><text fill="#000000" font-family="sans-serif" font-size="13" lengthAdjust="spacing" textLength="7" x="714.8242" y="423.45">1</text></g><!--link Patient to MedicalRecord--><g id="link_Patient_MedicalRecord"><path codeLine="61" d="M803.01,280.5548 C814.95,258.2848 833.84,233.6048 860.5,228.1348 C904.47,219.1048 1220.25,220.5748 1264.5,228.1348 C1333.44,239.9148 1402.9214,265.8199 1454.2914,287.7399 " fill="none" id="Patient-to-MedicalRecord" style="stroke:#181818;stroke-width:1.0;"/><polygon fill="#181818" points="1459.81,290.0948,1453.102,282.8835,1455.2112,288.1324,1449.9622,290.2416,1459.81,290.0948" style="stroke:#181818;stroke-width:1.0;"/><text fill="#000000" font-family="sans-serif" font-size="13" lengthAdjust="spacing" textLength="7" x="1445.099" y="282.8258">1</text></g><!--link MedicalRecord to MedicalCondition--><g id="link_MedicalRecord_MedicalCondition"><path codeLine="62" d="M1511.83,357.7048 C1509.73,381.0948 1509.1837,405.0888 1511.2837,428.4888 " fill="none" id="MedicalRecord-to-MedicalCondition" style="stroke:#181818;stroke-width:1.0;"/><polygon fill="#181818" points="1511.82,434.4648,1514.9995,425.1433,1511.3731,429.4848,1507.0316,425.8583,1511.82,434.4648" style="stroke:#181818;stroke-width:1.0;"/><text fill="#000000" font-family="sans-serif" font-size="13" lengthAdjust="spacing" textLength="20" x="1488.1797" y="423.45">0..*</text></g><!--link MedicalRecord to MedicalCondition--><g id="link_MedicalRecord_MedicalCondition"><path codeLine="76" d="M1534.83,357.7048 C1537.05,381.0948 1537.6267,405.0916 1535.4067,428.4916 " fill="none" id="MedicalRecord-to-MedicalCondition-1" style="stroke:#181818;stroke-width:1.0;"/><polygon fill="#181818" points="1534.84,434.4648,1539.6721,425.8828,1535.3122,429.4871,1531.7079,425.1272,1534.84,434.4648" style="stroke:#181818;stroke-width:1.0;"/><text fill="#000000" font-family="sans-serif" font-size="13" lengthAdjust="spacing" textLength="20" x="1515.1563" y="423.45">0..*</text></g><!--link MedicalRecord to Allergy--><g id="link_MedicalRecord_Allergy"><path codeLine="63" d="M1546.2,357.9148 C1557.84,367.4648 1572.16,376.4748 1587,381.6348 C1629.51,396.4148 1950,373.4648 1992,389.6348 C2020.34,400.5448 2041.5524,419.8003 2061.7324,438.9003 " fill="none" id="MedicalRecord-to-Allergy" style="stroke:#181818;stroke-width:1.0;"/><polygon fill="#181818" points="2066.09,443.0248,2062.3032,433.933,2062.4586,439.5877,2056.8039,439.7432,2066.09,443.0248" style="stroke:#181818;stroke-width:1.0;"/><text fill="#000000" font-family="sans-serif" font-size="13" lengthAdjust="spacing" textLength="20" x="2038.4543" y="433.9592">0..*</text></g><!--link MedicalRecord to Allergy--><g id="link_MedicalRecord_Allergy"><path codeLine="77" d="M1579.73,357.9148 C1592.84,367.4648 1607.16,376.4748 1622,381.6348 C1664.51,396.4148 1985,373.4648 2027,389.6348 C2051.26,398.9748 2069.5287,412.9483 2084.5687,430.0583 " fill="none" id="MedicalRecord-to-Allergy-1" style="stroke:#181818;stroke-width:1.0;"/><polygon fill="#181818" points="2088.53,434.5648,2085.5924,425.1642,2085.2289,430.8094,2079.5838,430.4459,2088.53,434.5648" style="stroke:#181818;stroke-width:1.0;"/><text fill="#000000" font-family="sans-serif" font-size="13" lengthAdjust="spacing" textLength="20" x="2063.9932" y="423.2754">0..*</text></g><!--link MedicalRecord to AppointmentHistory--><g id="link_MedicalRecord_AppointmentHistory"><path codeLine="64" d="M1459.77,334.9348 C1415.4,346.6048 1355.4,365.0348 1306,389.6348 C1276.97,404.0948 1251.8732,421.5803 1229.5932,438.8403 " fill="none" id="MedicalRecord-to-AppointmentHistory" style="stroke:#181818;stroke-width:1.0;"/><polygon fill="#181818" points="1224.85,442.5148,1234.4145,440.1652,1228.8027,439.4527,1229.5152,433.8409,1224.85,442.5148" style="stroke:#181818;stroke-width:1.0;"/><text fill="#000000" font-family="sans-serif" font-size="13" lengthAdjust="spacing" textLength="7" x="1224.5222" y="431.5477">1</text></g><!--link Patient to AppointmentHistory--><g id="link_Patient_AppointmentHistory"><path codeLine="65" d="M812.79,357.9548 C821.24,367.3848 831.46,376.3148 843,381.6348 C868.34,393.3148 1068.02,379.4548 1094,389.6348 C1121.86,400.5548 1143.0387,419.0075 1160.4887,437.8975 " fill="none" id="Patient-to-AppointmentHistory" style="stroke:#181818;stroke-width:1.0;"/><polygon fill="#181818" points="1164.56,442.3048,1161.3912,432.9796,1161.1672,438.632,1155.5148,438.408,1164.56,442.3048" style="stroke:#181818;stroke-width:1.0;"/><text fill="#000000" font-family="sans-serif" font-size="13" lengthAdjust="spacing" textLength="20" x="1137.4567" y="431.2944">0..*</text></g><!--link Patient to MedicalCondition--><g id="link_Patient_MedicalCondition"><path codeLine="66" d="M812.45,357.7348 C820.96,367.2848 831.29,376.3348 843,381.6348 C865.22,391.6948 1257.98,385.4148 1282,389.6348 C1341.24,400.0448 1399.9799,420.4546 1447.2599,439.3846 " fill="none" id="Patient-to-MedicalCondition" style="stroke:#181818;stroke-width:1.0;"/><polygon fill="#181818" points="1452.83,441.6148,1445.9616,434.5561,1448.1882,439.7563,1442.988,441.9829,1452.83,441.6148" style="stroke:#181818;stroke-width:1.0;"/><text fill="#000000" font-family="sans-serif" font-size="13" lengthAdjust="spacing" textLength="22" x="1423.0935" y="434.8643">0..1</text></g><!--link Patient to Email--><g id="link_Patient_Email"><path codeLine="67" d="M809.49,357.7048 C825.18,383.9048 842.7274,413.2272 857.2374,437.4572 " fill="none" id="Patient-to-Email" style="stroke:#181818;stroke-width:1.0;"/><polygon fill="#181818" points="860.32,442.6048,859.1278,432.8283,857.7512,438.3151,852.2644,436.9385,860.32,442.6048" style="stroke:#181818;stroke-width:1.0;"/><text fill="#000000" font-family="sans-serif" font-size="13" lengthAdjust="spacing" textLength="7" x="848.6869" y="431.1728">1</text></g><!--link Patient to Phone--><g id="link_Patient_Phone"><path codeLine="68" d="M748.9,322.6448 C653.55,329.4648 407.14,350.4848 336,389.6348 C313.52,402.0048 298.1506,419.3523 285.4106,437.6323 " fill="none" id="Patient-to-Phone" style="stroke:#181818;stroke-width:1.0;"/><polygon fill="#181818" points="281.98,442.5548,290.4076,437.4582,284.8389,438.4527,283.8443,432.884,281.98,442.5548" style="stroke:#181818;stroke-width:1.0;"/><text fill="#000000" font-family="sans-serif" font-size="13" lengthAdjust="spacing" textLength="7" x="277.9665" y="431.5959">1</text></g><!--link Patient to Address--><g id="link_Patient_Address"><path codeLine="69" d="M812.94,357.6348 C821.39,367.0648 831.58,376.0648 843,381.6348 C885.87,402.5248 907.35,368.2948 950,389.6348 C973.12,401.2048 988.6343,418.7977 1001.2443,437.4077 " fill="none" id="Patient-to-Address" style="stroke:#181818;stroke-width:1.0;"/><polygon fill="#181818" points="1004.61,442.3748,1002.8729,432.6803,1001.8053,438.2355,996.2501,437.1679,1004.61,442.3748" style="stroke:#181818;stroke-width:1.0;"/><text fill="#000000" font-family="sans-serif" font-size="13" lengthAdjust="spacing" textLength="7" x="993.3014" y="431.3788">1</text></g><!--link EmergencyContact to Phone--><g id="link_EmergencyContact_Phone"><path codeLine="70" d="M174.19,473.1348 C185.89,473.1348 191.58,473.1348 203.27,473.1348 " fill="none" id="EmergencyContact-to-Phone" style="stroke:#181818;stroke-width:1.0;"/><polygon fill="#181818" points="209.27,473.1348,200.27,469.1348,204.27,473.1348,200.27,477.1348,209.27,473.1348" style="stroke:#181818;stroke-width:1.0;"/><text fill="#000000" font-family="sans-serif" font-size="13" lengthAdjust="spacing" textLength="7" x="194.4453" y="469.0685">1</text></g><!--link AppointmentHistory to AppointmentHistoryStatus--><g id="link_AppointmentHistory_AppointmentHistoryStatus"><path codeLine="72" d="M1184.61,503.7648 C1181.28,526.2748 1177.5888,551.1495 1174.2588,573.6395 " fill="none" id="AppointmentHistory-to-AppointmentHistoryStatus" style="stroke:#181818;stroke-width:1.0;"/><polygon fill="#181818" points="1173.38,579.5748,1178.6551,571.2577,1174.1123,574.6287,1170.7414,570.086,1173.38,579.5748" style="stroke:#181818;stroke-width:1.0;"/><text fill="#000000" font-family="sans-serif" font-size="13" lengthAdjust="spacing" textLength="7" x="1166.5725" y="568.1363">1</text></g><!--link AppointmentHistory to AppointmentHistoryType--><g id="link_AppointmentHistory_AppointmentHistoryType"><path codeLine="73" d="M1115.52,503.6448 C1108.27,506.4048 1101.01,509.1148 1094,511.6348 C1013.07,540.7748 991.64,544.5348 910,571.6348 C902.28,574.1948 899.9478,574.9647 891.9078,577.6647 " fill="none" id="AppointmentHistory-to-AppointmentHistoryType" style="stroke:#181818;stroke-width:1.0;"/><polygon fill="#181818" points="886.22,579.5748,896.0252,580.5015,890.9599,577.983,893.4784,572.9177,886.22,579.5748" style="stroke:#181818;stroke-width:1.0;"/><text fill="#000000" font-family="sans-serif" font-size="13" lengthAdjust="spacing" textLength="7" x="897.5338" y="568.1363">1</text></g><!--link AppointmentHistory to CreatedAt--><g id="link_AppointmentHistory_CreatedAt"><path codeLine="74" d="M1143.57,503.7648 C1109.06,526.2748 1066.8359,553.8075 1032.3459,576.2975 " fill="none" id="AppointmentHistory-to-CreatedAt" style="stroke:#181818;stroke-width:1.0;"/><polygon fill="#181818" points="1027.32,579.5748,1037.0437,578.0095,1031.5082,576.8437,1032.674,571.3083,1027.32,579.5748" style="stroke:#181818;stroke-width:1.0;"/><text fill="#000000" font-family="sans-serif" font-size="13" lengthAdjust="spacing" textLength="7" x="1029.4681" y="568.1363">1</text></g><!--link MedicalRecord to MedicalRecordDescription--><g id="link_MedicalRecord_MedicalRecordDescription"><path codeLine="78" d="M1586.1,319.1348 C1597.87,319.1348 1603.64,319.1348 1615.41,319.1348 " fill="none" id="MedicalRecord-to-MedicalRecordDescription" style="stroke:#181818;stroke-width:1.0;"/><polygon fill="#181818" points="1621.41,319.1348,1612.41,315.1348,1616.41,319.1348,1612.41,323.1348,1621.41,319.1348" style="stroke:#181818;stroke-width:1.0;"/></g><!--link Doctor to MedicalRecord--><g id="link_Doctor_MedicalRecord"><path codeLine="79" d="M1523,159.9248 C1523,194.6348 1523,239.7848 1523,274.4648 " fill="none" id="Doctor-to-MedicalRecord" style="stroke:#181818;stroke-width:1.0;"/><polygon fill="#181818" points="1523,280.4648,1527,271.4648,1523,275.4648,1519,271.4648,1523,280.4648" style="stroke:#181818;stroke-width:1.0;"/><text fill="#000000" font-family="sans-serif" font-size="13" lengthAdjust="spacing" textLength="20" x="1501.2813" y="269.45">0..*</text></g><!--link Allergy to AllergyCode--><g id="link_Allergy_AllergyCode"><path codeLine="81" d="M2104,511.7448 C2104,530.3048 2104,546.6548 2104,565.2648 " fill="none" id="Allergy-to-AllergyCode" style="stroke:#181818;stroke-width:1.0;"/><polygon fill="#181818" points="2104,571.2648,2108,562.2648,2104,566.2648,2100,562.2648,2104,571.2648" style="stroke:#181818;stroke-width:1.0;"/><text fill="#000000" font-family="sans-serif" font-size="13" lengthAdjust="spacing" textLength="7" x="2096.4203" y="560.5094">1</text></g><!--link Allergy to AllergyDescription--><g id="link_Allergy_AllergyDescription"><path codeLine="82" d="M2141.81,505.4448 C2165.6,525.1548 2191.8286,546.8782 2216.9486,567.6782 " fill="none" id="Allergy-to-AllergyDescription" style="stroke:#181818;stroke-width:1.0;"/><polygon fill="#181818" points="2221.57,571.5048,2217.189,562.6839,2217.7189,568.3159,2212.0869,568.8458,2221.57,571.5048" style="stroke:#181818;stroke-width:1.0;"/><text fill="#000000" font-family="sans-serif" font-size="13" lengthAdjust="spacing" textLength="22" x="2189.8711" y="560.4969">0..1</text></g><!--link Allergy to AllergyDesignation--><g id="link_Allergy_AllergyDesignation"><path codeLine="83" d="M2141.54,488.2648 C2191.18,507.0248 2281.36,541.3048 2358,571.6348 C2363.45,573.7948 2363.5146,573.7929 2369.1746,576.0729 " fill="none" id="Allergy-to-AllergyDesignation" style="stroke:#181818;stroke-width:1.0;"/><polygon fill="#181818" points="2374.74,578.3148,2367.8865,571.2416,2370.1022,576.4465,2364.8973,578.6622,2374.74,578.3148" style="stroke:#181818;stroke-width:1.0;"/><text fill="#000000" font-family="sans-serif" font-size="13" lengthAdjust="spacing" textLength="7" x="2359.9871" y="571.4109">1</text></g><!--link MedicalCondition to MedicalConditionCode--><g id="link_MedicalCondition_MedicalConditionCode"><path codeLine="85" d="M1491.24,511.7448 C1475.56,530.3048 1460.5603,548.07 1444.8503,566.68 " fill="none" id="MedicalCondition-to-MedicalConditionCode" style="stroke:#181818;stroke-width:1.0;"/><polygon fill="#181818" points="1440.98,571.2648,1449.8421,566.9678,1444.2053,567.4441,1443.729,561.8073,1440.98,571.2648" style="stroke:#181818;stroke-width:1.0;"/><text fill="#000000" font-family="sans-serif" font-size="13" lengthAdjust="spacing" textLength="7" x="1438.697" y="560.5094">1</text></g><!--link MedicalCondition to MedicalConditionDescription--><g id="link_MedicalCondition_MedicalConditionDescription"><path codeLine="86" d="M1554.76,511.7448 C1570.44,530.3048 1585.4397,548.07 1601.1497,566.68 " fill="none" id="MedicalCondition-to-MedicalConditionDescription" style="stroke:#181818;stroke-width:1.0;"/><polygon fill="#181818" points="1605.02,571.2648,1602.271,561.8073,1601.7947,567.4441,1596.1579,566.9678,1605.02,571.2648" style="stroke:#181818;stroke-width:1.0;"/><text fill="#000000" font-family="sans-serif" font-size="13" lengthAdjust="spacing" textLength="22" x="1575.9014" y="560.5094">0..1</text></g><!--link MedicalCondition to MedicalConditionDesignation--><g id="link_MedicalCondition_MedicalConditionDesignation"><path codeLine="87" d="M1593.23,500.3248 C1647.51,520.5648 1717.758,546.7688 1778.538,569.4288 " fill="none" id="MedicalCondition-to-MedicalConditionDesignation" style="stroke:#181818;stroke-width:1.0;"/><polygon fill="#181818" points="1784.16,571.5248,1777.1243,564.6328,1779.475,569.7781,1774.3297,572.1288,1784.16,571.5248" style="stroke:#181818;stroke-width:1.0;"/><text fill="#000000" font-family="sans-serif" font-size="13" lengthAdjust="spacing" textLength="7" x="1762.4872" y="561.9808">1</text></g><!--SRC=[jLPRRzCm57xthx320nUHT4C848eYTIs51pfD6_1kR9CQ73joNAHesd-VcxgvEUbYMleKVVxEnUVuVAVFDrhdnSVPBET8w6t68oop6UQeA4B2KAfG1e1ccbCOVB-3xwCtqJiOmgNC41DmBGdb0G0vmdzGQYXnZD9KqHHfcYJm1cb6XGxWFO3cPpwPBWyeZECzO8XnhAJKvkF-eM9MyU7IUBbYIc_C-OiVhv-jLX-ktbwy_8lubaBvypV5ZibdAWXLq_cVCgfIAd2va48ZhATRhc-lZvBZc97T_NunglgsypoNJEZCd7zXXPQgd1xNjRtJI6-BKpnyAtCwtNwXg6aCcNiKwnfb7W5MJ1NQp-GhyhLORJdtixZPI45zdXPYtAChX2XQUBHnMjiVXeSJhYbX6F5RYgKYIT8RqSvfQr0FSzgTX3PvIGkiMAwP59xZOJ8zdgiPKS9sZiVIhGaJCwxv9ccM2lGFIO_xN1XfF9kpawewMDCvvqRvIgUK5d-gWfPsZi9PLoVLgqddp6LQIcm4qgdI7XukqkuTLy8IXaaZPHPAQgLgSQmI0N3OZ0OCBWCxuGqQMhmYD-WUh9UbSxBVYGxSNtqEmMmu5slFEkZAHCMvYA9NWVD-nvcsSqC44yvTLTsCh8-dMPS3ERa5COBTxq4b-WxLYZLm_ZvqhC30dX-_cUssbyrkSH-pg5Sr-8-zIaOt0B1p4hhXx0i21xsfxzYeGVTitqHtqCSyjAIfldop87hlkQFQ8-pXLzJEP7AKTcwF]--></g></svg>