<?xml version="1.0" encoding="UTF-8" standalone="no"?><svg xmlns="http://www.w3.org/2000/svg" xmlns:xlink="http://www.w3.org/1999/xlink" contentStyleType="text/css" height="575px" preserveAspectRatio="none" style="width:1497px;height:575px;background:#FFFFFF;" version="1.1" viewBox="0 0 1497 575" width="1497px" zoomAndPan="magnify"><defs/><g><!--cluster <<aggregate>> Patient--><g id="cluster_&lt;&lt;aggregate&gt;&gt; Patient"><path d="M8.5,6.8945 L198.5,6.8945 A3.75,3.75 0 0 1 201,9.3945 L208,38.0508 L1487.5,38.0508 A2.5,2.5 0 0 1 1490,40.5508 L1490,566.3945 A2.5,2.5 0 0 1 1487.5,568.8945 L8.5,568.8945 A2.5,2.5 0 0 1 6,566.3945 L6,9.3945 A2.5,2.5 0 0 1 8.5,6.8945 " fill="none" style="stroke:#000000;stroke-width:1.5;"/><line style="stroke:#000000;stroke-width:1.5;" x1="6" x2="208" y1="38.0508" y2="38.0508"/><text fill="#000000" font-family="sans-serif" font-size="20" font-weight="bold" lengthAdjust="spacing" textLength="189" x="10" y="29.6563">«aggregate» Patient</text></g><!--class Patient--><g id="elem_Patient"><rect codeLine="10" fill="#F5F5DC" height="93.4688" id="Patient" rx="2.5" ry="2.5" style="stroke:#181818;stroke-width:0.5;" width="99" x="577.5" y="50.8945"/><ellipse cx="593.5" cy="93.6289" fill="#ADD1B2" rx="12" ry="12" style="stroke:#181818;stroke-width:1.0;"/><path d="M591.4531,94.6914 L591.4531,97.6289 L596.5469,97.6289 L596.5469,96.5352 Q596.5469,95.8164 596.8281,95.5195 Q597.1094,95.207 597.5625,95.207 Q598,95.207 598.2813,95.5195 Q598.5625,95.8164 598.5625,96.5352 L598.5625,99.6289 L589.125,99.6289 Q588.4063,99.6289 588.0938,99.3477 Q587.7969,99.0664 587.7969,98.6289 Q587.7969,98.1758 588.1094,97.9102 Q588.4219,97.6289 589.125,97.6289 L589.4375,97.6289 L589.4375,89.8008 L589.125,89.8008 Q588.4063,89.8008 588.0938,89.5195 Q587.7969,89.2383 587.7969,88.7852 Q587.7969,88.332 588.0938,88.0664 Q588.4063,87.7852 589.125,87.7852 L598.1094,87.7852 L598.1094,90.832 Q598.1094,91.5508 597.8281,91.8633 Q597.5625,92.1602 597.125,92.1602 Q596.6719,92.1602 596.3906,91.8633 Q596.1094,91.5664 596.1094,90.832 L596.1094,89.8008 L591.4531,89.8008 L591.4531,92.6914 L593.2031,92.6914 Q593.2031,91.9102 593.3438,91.6758 Q593.6563,91.207 594.2031,91.207 Q594.6563,91.207 594.9219,91.5195 Q595.2031,91.8164 595.2031,92.5352 L595.2031,94.8477 Q595.2031,95.5039 595.0469,95.7227 Q594.7344,96.1758 594.2031,96.1758 Q593.6563,96.1758 593.3438,95.707 Q593.2031,95.4727 593.2031,94.6914 L591.4531,94.6914 Z " fill="#000000"/><text fill="#000000" font-family="sans-serif" font-size="20" font-style="italic" lengthAdjust="spacing" textLength="69" x="606.5" y="76.6563">«entity»</text><text fill="#000000" font-family="sans-serif" font-size="20" font-style="italic" lengthAdjust="spacing" textLength="56" x="613" y="101.8125">«root»</text><text fill="#000000" font-family="sans-serif" font-size="20" lengthAdjust="spacing" textLength="61" x="610.5" y="126.9688">Patient</text><line style="stroke:#181818;stroke-width:0.5;" x1="578.5" x2="675.5" y1="136.3633" y2="136.3633"/></g><!--class DateBirth--><g id="elem_DateBirth"><rect codeLine="11" fill="#F5F5DC" height="68.3125" id="DateBirth" rx="2.5" ry="2.5" style="stroke:#181818;stroke-width:0.5;" width="158" x="22" y="216.3945"/><ellipse cx="38" cy="246.5508" fill="#FF8B40" rx="12" ry="12" style="stroke:#181818;stroke-width:1.0;"/><path d="M38.5,250.6289 L41.3906,243.7227 L40.9375,243.7227 Q40.2188,243.7227 39.9063,243.4414 Q39.5938,243.1602 39.5938,242.707 Q39.5938,242.2539 39.9063,241.9883 Q40.2188,241.707 40.9375,241.707 L43.625,241.707 Q44.3438,241.707 44.6563,241.9883 Q44.9688,242.2539 44.9688,242.707 Q44.9688,243.2539 44.5,243.5664 Q44.2656,243.7227 43.5781,243.7227 L39.4688,253.5508 L37.5469,253.5508 L33.4375,243.7227 Q32.7344,243.7227 32.5156,243.5664 Q32.0469,243.2539 32.0469,242.707 Q32.0469,242.2539 32.3594,241.9883 Q32.6563,241.707 33.375,241.707 L36.0781,241.707 Q36.7969,241.707 37.0938,241.9883 Q37.4063,242.2539 37.4063,242.707 Q37.4063,243.1602 37.1094,243.4414 Q36.8125,243.7227 36.0781,243.7227 L35.6094,243.7227 L38.5,250.6289 Z " fill="#000000"/><text fill="#000000" font-family="sans-serif" font-size="20" font-style="italic" lengthAdjust="spacing" textLength="128" x="51" y="242.1563">«value object»</text><text fill="#000000" font-family="sans-serif" font-size="20" lengthAdjust="spacing" textLength="82" x="74" y="267.3125">DateBirth</text><line style="stroke:#181818;stroke-width:0.5;" x1="23" x2="179" y1="276.707" y2="276.707"/></g><!--class Gender--><g id="elem_Gender"><rect codeLine="12" fill="#F5F5DC" height="68.3125" id="Gender" rx="2.5" ry="2.5" style="stroke:#181818;stroke-width:0.5;" width="158" x="215" y="216.3945"/><ellipse cx="231" cy="246.5508" fill="#FF8B40" rx="12" ry="12" style="stroke:#181818;stroke-width:1.0;"/><path d="M231.5,250.6289 L234.3906,243.7227 L233.9375,243.7227 Q233.2188,243.7227 232.9063,243.4414 Q232.5938,243.1602 232.5938,242.707 Q232.5938,242.2539 232.9063,241.9883 Q233.2188,241.707 233.9375,241.707 L236.625,241.707 Q237.3438,241.707 237.6563,241.9883 Q237.9688,242.2539 237.9688,242.707 Q237.9688,243.2539 237.5,243.5664 Q237.2656,243.7227 236.5781,243.7227 L232.4688,253.5508 L230.5469,253.5508 L226.4375,243.7227 Q225.7344,243.7227 225.5156,243.5664 Q225.0469,243.2539 225.0469,242.707 Q225.0469,242.2539 225.3594,241.9883 Q225.6563,241.707 226.375,241.707 L229.0781,241.707 Q229.7969,241.707 230.0938,241.9883 Q230.4063,242.2539 230.4063,242.707 Q230.4063,243.1602 230.1094,243.4414 Q229.8125,243.7227 229.0781,243.7227 L228.6094,243.7227 L231.5,250.6289 Z " fill="#000000"/><text fill="#000000" font-family="sans-serif" font-size="20" font-style="italic" lengthAdjust="spacing" textLength="128" x="244" y="242.1563">«value object»</text><text fill="#000000" font-family="sans-serif" font-size="20" lengthAdjust="spacing" textLength="66" x="275" y="267.3125">Gender</text><line style="stroke:#181818;stroke-width:0.5;" x1="216" x2="372" y1="276.707" y2="276.707"/></g><!--class EmergencyContact--><g id="elem_EmergencyContact"><rect codeLine="13" fill="#F5F5DC" height="68.3125" id="EmergencyContact" rx="2.5" ry="2.5" style="stroke:#181818;stroke-width:0.5;" width="201" x="424.5" y="356.8945"/><ellipse cx="440.5" cy="387.0508" fill="#FF8B40" rx="12" ry="12" style="stroke:#181818;stroke-width:1.0;"/><path d="M441,391.1289 L443.8906,384.2227 L443.4375,384.2227 Q442.7188,384.2227 442.4063,383.9414 Q442.0938,383.6602 442.0938,383.207 Q442.0938,382.7539 442.4063,382.4883 Q442.7188,382.207 443.4375,382.207 L446.125,382.207 Q446.8438,382.207 447.1563,382.4883 Q447.4688,382.7539 447.4688,383.207 Q447.4688,383.7539 447,384.0664 Q446.7656,384.2227 446.0781,384.2227 L441.9688,394.0508 L440.0469,394.0508 L435.9375,384.2227 Q435.2344,384.2227 435.0156,384.0664 Q434.5469,383.7539 434.5469,383.207 Q434.5469,382.7539 434.8594,382.4883 Q435.1563,382.207 435.875,382.207 L438.5781,382.207 Q439.2969,382.207 439.5938,382.4883 Q439.9063,382.7539 439.9063,383.207 Q439.9063,383.6602 439.6094,383.9414 Q439.3125,384.2227 438.5781,384.2227 L438.1094,384.2227 L441,391.1289 Z " fill="#000000"/><text fill="#000000" font-family="sans-serif" font-size="20" font-style="italic" lengthAdjust="spacing" textLength="128" x="475" y="382.6563">«value object»</text><text fill="#000000" font-family="sans-serif" font-size="20" lengthAdjust="spacing" textLength="167" x="455.5" y="407.8125">EmergencyContact</text><line style="stroke:#181818;stroke-width:0.5;" x1="425.5" x2="624.5" y1="417.207" y2="417.207"/></g><!--class MRN--><g id="elem_MRN"><rect codeLine="14" fill="#F5F5DC" height="93.4688" id="MRN" rx="2.5" ry="2.5" style="stroke:#181818;stroke-width:0.5;" width="158" x="445" y="203.8945"/><ellipse cx="461" cy="246.6289" fill="#FF8B40" rx="12" ry="12" style="stroke:#181818;stroke-width:1.0;"/><path d="M461.5,250.707 L464.3906,243.8008 L463.9375,243.8008 Q463.2188,243.8008 462.9063,243.5195 Q462.5938,243.2383 462.5938,242.7852 Q462.5938,242.332 462.9063,242.0664 Q463.2188,241.7852 463.9375,241.7852 L466.625,241.7852 Q467.3438,241.7852 467.6563,242.0664 Q467.9688,242.332 467.9688,242.7852 Q467.9688,243.332 467.5,243.6445 Q467.2656,243.8008 466.5781,243.8008 L462.4688,253.6289 L460.5469,253.6289 L456.4375,243.8008 Q455.7344,243.8008 455.5156,243.6445 Q455.0469,243.332 455.0469,242.7852 Q455.0469,242.332 455.3594,242.0664 Q455.6563,241.7852 456.375,241.7852 L459.0781,241.7852 Q459.7969,241.7852 460.0938,242.0664 Q460.4063,242.332 460.4063,242.7852 Q460.4063,243.2383 460.1094,243.5195 Q459.8125,243.8008 459.0781,243.8008 L458.6094,243.8008 L461.5,250.707 Z " fill="#000000"/><text fill="#000000" font-family="sans-serif" font-size="20" font-style="italic" lengthAdjust="spacing" textLength="128" x="474" y="229.6563">«value object»</text><text fill="#000000" font-family="sans-serif" font-size="20" font-style="italic" lengthAdjust="spacing" textLength="99" x="488.5" y="254.8125">«identifier»</text><text fill="#000000" font-family="sans-serif" font-size="20" lengthAdjust="spacing" textLength="44" x="516" y="279.9688">MRN</text><line style="stroke:#181818;stroke-width:0.5;" x1="446" x2="602" y1="289.3633" y2="289.3633"/></g><!--class MedicalCondition--><g id="elem_MedicalCondition"><rect codeLine="15" fill="#F5F5DC" height="68.3125" id="MedicalCondition" rx="2.5" ry="2.5" style="stroke:#181818;stroke-width:0.5;" width="183" x="638.5" y="216.3945"/><ellipse cx="654.5" cy="246.5508" fill="#FF8B40" rx="12" ry="12" style="stroke:#181818;stroke-width:1.0;"/><path d="M655,250.6289 L657.8906,243.7227 L657.4375,243.7227 Q656.7188,243.7227 656.4063,243.4414 Q656.0938,243.1602 656.0938,242.707 Q656.0938,242.2539 656.4063,241.9883 Q656.7188,241.707 657.4375,241.707 L660.125,241.707 Q660.8438,241.707 661.1563,241.9883 Q661.4688,242.2539 661.4688,242.707 Q661.4688,243.2539 661,243.5664 Q660.7656,243.7227 660.0781,243.7227 L655.9688,253.5508 L654.0469,253.5508 L649.9375,243.7227 Q649.2344,243.7227 649.0156,243.5664 Q648.5469,243.2539 648.5469,242.707 Q648.5469,242.2539 648.8594,241.9883 Q649.1563,241.707 649.875,241.707 L652.5781,241.707 Q653.2969,241.707 653.5938,241.9883 Q653.9063,242.2539 653.9063,242.707 Q653.9063,243.1602 653.6094,243.4414 Q653.3125,243.7227 652.5781,243.7227 L652.1094,243.7227 L655,250.6289 Z " fill="#000000"/><text fill="#000000" font-family="sans-serif" font-size="20" font-style="italic" lengthAdjust="spacing" textLength="128" x="680" y="242.1563">«value object»</text><text fill="#000000" font-family="sans-serif" font-size="20" lengthAdjust="spacing" textLength="149" x="669.5" y="267.3125">MedicalCondition</text><line style="stroke:#181818;stroke-width:0.5;" x1="639.5" x2="820.5" y1="276.707" y2="276.707"/></g><!--class AppoitmentHistory--><g id="elem_AppoitmentHistory"><rect codeLine="16" fill="#F5F5DC" height="68.3125" id="AppoitmentHistory" rx="2.5" ry="2.5" style="stroke:#181818;stroke-width:0.5;" width="194" x="857" y="216.3945"/><ellipse cx="873" cy="246.5508" fill="#FF8B40" rx="12" ry="12" style="stroke:#181818;stroke-width:1.0;"/><path d="M873.5,250.6289 L876.3906,243.7227 L875.9375,243.7227 Q875.2188,243.7227 874.9063,243.4414 Q874.5938,243.1602 874.5938,242.707 Q874.5938,242.2539 874.9063,241.9883 Q875.2188,241.707 875.9375,241.707 L878.625,241.707 Q879.3438,241.707 879.6563,241.9883 Q879.9688,242.2539 879.9688,242.707 Q879.9688,243.2539 879.5,243.5664 Q879.2656,243.7227 878.5781,243.7227 L874.4688,253.5508 L872.5469,253.5508 L868.4375,243.7227 Q867.7344,243.7227 867.5156,243.5664 Q867.0469,243.2539 867.0469,242.707 Q867.0469,242.2539 867.3594,241.9883 Q867.6563,241.707 868.375,241.707 L871.0781,241.707 Q871.7969,241.707 872.0938,241.9883 Q872.4063,242.2539 872.4063,242.707 Q872.4063,243.1602 872.1094,243.4414 Q871.8125,243.7227 871.0781,243.7227 L870.6094,243.7227 L873.5,250.6289 Z " fill="#000000"/><text fill="#000000" font-family="sans-serif" font-size="20" font-style="italic" lengthAdjust="spacing" textLength="128" x="904" y="242.1563">«value object»</text><text fill="#000000" font-family="sans-serif" font-size="20" lengthAdjust="spacing" textLength="160" x="888" y="267.3125">AppoitmentHistory</text><line style="stroke:#181818;stroke-width:0.5;" x1="858" x2="1050" y1="276.707" y2="276.707"/></g><!--class Name--><g id="elem_Name"><rect codeLine="17" fill="#F5F5DC" height="68.3125" id="Name" rx="2.5" ry="2.5" style="stroke:#181818;stroke-width:0.5;" width="158" x="1123" y="63.3945"/><ellipse cx="1139" cy="93.5508" fill="#FF8B40" rx="12" ry="12" style="stroke:#181818;stroke-width:1.0;"/><path d="M1139.5,97.6289 L1142.3906,90.7227 L1141.9375,90.7227 Q1141.2188,90.7227 1140.9063,90.4414 Q1140.5938,90.1602 1140.5938,89.707 Q1140.5938,89.2539 1140.9063,88.9883 Q1141.2188,88.707 1141.9375,88.707 L1144.625,88.707 Q1145.3438,88.707 1145.6563,88.9883 Q1145.9688,89.2539 1145.9688,89.707 Q1145.9688,90.2539 1145.5,90.5664 Q1145.2656,90.7227 1144.5781,90.7227 L1140.4688,100.5508 L1138.5469,100.5508 L1134.4375,90.7227 Q1133.7344,90.7227 1133.5156,90.5664 Q1133.0469,90.2539 1133.0469,89.707 Q1133.0469,89.2539 1133.3594,88.9883 Q1133.6563,88.707 1134.375,88.707 L1137.0781,88.707 Q1137.7969,88.707 1138.0938,88.9883 Q1138.4063,89.2539 1138.4063,89.707 Q1138.4063,90.1602 1138.1094,90.4414 Q1137.8125,90.7227 1137.0781,90.7227 L1136.6094,90.7227 L1139.5,97.6289 Z " fill="#000000"/><text fill="#000000" font-family="sans-serif" font-size="20" font-style="italic" lengthAdjust="spacing" textLength="128" x="1152" y="89.1563">«value object»</text><text fill="#000000" font-family="sans-serif" font-size="20" lengthAdjust="spacing" textLength="51" x="1190.5" y="114.3125">Name</text><line style="stroke:#181818;stroke-width:0.5;" x1="1124" x2="1280" y1="123.707" y2="123.707"/></g><!--class FirstName--><g id="elem_FirstName"><rect codeLine="18" fill="#F5F5DC" height="68.3125" id="FirstName" rx="2.5" ry="2.5" style="stroke:#181818;stroke-width:0.5;" width="158" x="1123" y="216.3945"/><ellipse cx="1139" cy="246.5508" fill="#FF8B40" rx="12" ry="12" style="stroke:#181818;stroke-width:1.0;"/><path d="M1139.5,250.6289 L1142.3906,243.7227 L1141.9375,243.7227 Q1141.2188,243.7227 1140.9063,243.4414 Q1140.5938,243.1602 1140.5938,242.707 Q1140.5938,242.2539 1140.9063,241.9883 Q1141.2188,241.707 1141.9375,241.707 L1144.625,241.707 Q1145.3438,241.707 1145.6563,241.9883 Q1145.9688,242.2539 1145.9688,242.707 Q1145.9688,243.2539 1145.5,243.5664 Q1145.2656,243.7227 1144.5781,243.7227 L1140.4688,253.5508 L1138.5469,253.5508 L1134.4375,243.7227 Q1133.7344,243.7227 1133.5156,243.5664 Q1133.0469,243.2539 1133.0469,242.707 Q1133.0469,242.2539 1133.3594,241.9883 Q1133.6563,241.707 1134.375,241.707 L1137.0781,241.707 Q1137.7969,241.707 1138.0938,241.9883 Q1138.4063,242.2539 1138.4063,242.707 Q1138.4063,243.1602 1138.1094,243.4414 Q1137.8125,243.7227 1137.0781,243.7227 L1136.6094,243.7227 L1139.5,250.6289 Z " fill="#000000"/><text fill="#000000" font-family="sans-serif" font-size="20" font-style="italic" lengthAdjust="spacing" textLength="128" x="1152" y="242.1563">«value object»</text><text fill="#000000" font-family="sans-serif" font-size="20" lengthAdjust="spacing" textLength="90" x="1171" y="267.3125">FirstName</text><line style="stroke:#181818;stroke-width:0.5;" x1="1124" x2="1280" y1="276.707" y2="276.707"/></g><!--class LastName--><g id="elem_LastName"><rect codeLine="19" fill="#F5F5DC" height="68.3125" id="LastName" rx="2.5" ry="2.5" style="stroke:#181818;stroke-width:0.5;" width="158" x="1316" y="63.3945"/><ellipse cx="1332" cy="93.5508" fill="#FF8B40" rx="12" ry="12" style="stroke:#181818;stroke-width:1.0;"/><path d="M1332.5,97.6289 L1335.3906,90.7227 L1334.9375,90.7227 Q1334.2188,90.7227 1333.9063,90.4414 Q1333.5938,90.1602 1333.5938,89.707 Q1333.5938,89.2539 1333.9063,88.9883 Q1334.2188,88.707 1334.9375,88.707 L1337.625,88.707 Q1338.3438,88.707 1338.6563,88.9883 Q1338.9688,89.2539 1338.9688,89.707 Q1338.9688,90.2539 1338.5,90.5664 Q1338.2656,90.7227 1337.5781,90.7227 L1333.4688,100.5508 L1331.5469,100.5508 L1327.4375,90.7227 Q1326.7344,90.7227 1326.5156,90.5664 Q1326.0469,90.2539 1326.0469,89.707 Q1326.0469,89.2539 1326.3594,88.9883 Q1326.6563,88.707 1327.375,88.707 L1330.0781,88.707 Q1330.7969,88.707 1331.0938,88.9883 Q1331.4063,89.2539 1331.4063,89.707 Q1331.4063,90.1602 1331.1094,90.4414 Q1330.8125,90.7227 1330.0781,90.7227 L1329.6094,90.7227 L1332.5,97.6289 Z " fill="#000000"/><text fill="#000000" font-family="sans-serif" font-size="20" font-style="italic" lengthAdjust="spacing" textLength="128" x="1345" y="89.1563">«value object»</text><text fill="#000000" font-family="sans-serif" font-size="20" lengthAdjust="spacing" textLength="89" x="1364.5" y="114.3125">LastName</text><line style="stroke:#181818;stroke-width:0.5;" x1="1317" x2="1473" y1="123.707" y2="123.707"/></g><!--class FullName--><g id="elem_FullName"><rect codeLine="20" fill="#F5F5DC" height="68.3125" id="FullName" rx="2.5" ry="2.5" style="stroke:#181818;stroke-width:0.5;" width="158" x="1316" y="216.3945"/><ellipse cx="1332" cy="246.5508" fill="#FF8B40" rx="12" ry="12" style="stroke:#181818;stroke-width:1.0;"/><path d="M1332.5,250.6289 L1335.3906,243.7227 L1334.9375,243.7227 Q1334.2188,243.7227 1333.9063,243.4414 Q1333.5938,243.1602 1333.5938,242.707 Q1333.5938,242.2539 1333.9063,241.9883 Q1334.2188,241.707 1334.9375,241.707 L1337.625,241.707 Q1338.3438,241.707 1338.6563,241.9883 Q1338.9688,242.2539 1338.9688,242.707 Q1338.9688,243.2539 1338.5,243.5664 Q1338.2656,243.7227 1337.5781,243.7227 L1333.4688,253.5508 L1331.5469,253.5508 L1327.4375,243.7227 Q1326.7344,243.7227 1326.5156,243.5664 Q1326.0469,243.2539 1326.0469,242.707 Q1326.0469,242.2539 1326.3594,241.9883 Q1326.6563,241.707 1327.375,241.707 L1330.0781,241.707 Q1330.7969,241.707 1331.0938,241.9883 Q1331.4063,242.2539 1331.4063,242.707 Q1331.4063,243.1602 1331.1094,243.4414 Q1330.8125,243.7227 1330.0781,243.7227 L1329.6094,243.7227 L1332.5,250.6289 Z " fill="#000000"/><text fill="#000000" font-family="sans-serif" font-size="20" font-style="italic" lengthAdjust="spacing" textLength="128" x="1345" y="242.1563">«value object»</text><text fill="#000000" font-family="sans-serif" font-size="20" lengthAdjust="spacing" textLength="81" x="1368.5" y="267.3125">FullName</text><line style="stroke:#181818;stroke-width:0.5;" x1="1317" x2="1473" y1="276.707" y2="276.707"/></g><!--class ContactInfo--><g id="elem_ContactInfo"><rect codeLine="21" fill="#F5F5DC" height="68.3125" id="ContactInfo" rx="2.5" ry="2.5" style="stroke:#181818;stroke-width:0.5;" width="158" x="892" y="356.8945"/><ellipse cx="908" cy="387.0508" fill="#FF8B40" rx="12" ry="12" style="stroke:#181818;stroke-width:1.0;"/><path d="M908.5,391.1289 L911.3906,384.2227 L910.9375,384.2227 Q910.2188,384.2227 909.9063,383.9414 Q909.5938,383.6602 909.5938,383.207 Q909.5938,382.7539 909.9063,382.4883 Q910.2188,382.207 910.9375,382.207 L913.625,382.207 Q914.3438,382.207 914.6563,382.4883 Q914.9688,382.7539 914.9688,383.207 Q914.9688,383.7539 914.5,384.0664 Q914.2656,384.2227 913.5781,384.2227 L909.4688,394.0508 L907.5469,394.0508 L903.4375,384.2227 Q902.7344,384.2227 902.5156,384.0664 Q902.0469,383.7539 902.0469,383.207 Q902.0469,382.7539 902.3594,382.4883 Q902.6563,382.207 903.375,382.207 L906.0781,382.207 Q906.7969,382.207 907.0938,382.4883 Q907.4063,382.7539 907.4063,383.207 Q907.4063,383.6602 907.1094,383.9414 Q906.8125,384.2227 906.0781,384.2227 L905.6094,384.2227 L908.5,391.1289 Z " fill="#000000"/><text fill="#000000" font-family="sans-serif" font-size="20" font-style="italic" lengthAdjust="spacing" textLength="128" x="921" y="382.6563">«value object»</text><text fill="#000000" font-family="sans-serif" font-size="20" lengthAdjust="spacing" textLength="101" x="934.5" y="407.8125">ContactInfo</text><line style="stroke:#181818;stroke-width:0.5;" x1="893" x2="1049" y1="417.207" y2="417.207"/></g><!--class Phone--><g id="elem_Phone"><rect codeLine="22" fill="#F5F5DC" height="68.3125" id="Phone" rx="2.5" ry="2.5" style="stroke:#181818;stroke-width:0.5;" width="158" x="572" y="484.8945"/><ellipse cx="588" cy="515.0508" fill="#FF8B40" rx="12" ry="12" style="stroke:#181818;stroke-width:1.0;"/><path d="M588.5,519.1289 L591.3906,512.2227 L590.9375,512.2227 Q590.2188,512.2227 589.9063,511.9414 Q589.5938,511.6602 589.5938,511.207 Q589.5938,510.7539 589.9063,510.4883 Q590.2188,510.207 590.9375,510.207 L593.625,510.207 Q594.3438,510.207 594.6563,510.4883 Q594.9688,510.7539 594.9688,511.207 Q594.9688,511.7539 594.5,512.0664 Q594.2656,512.2227 593.5781,512.2227 L589.4688,522.0508 L587.5469,522.0508 L583.4375,512.2227 Q582.7344,512.2227 582.5156,512.0664 Q582.0469,511.7539 582.0469,511.207 Q582.0469,510.7539 582.3594,510.4883 Q582.6563,510.207 583.375,510.207 L586.0781,510.207 Q586.7969,510.207 587.0938,510.4883 Q587.4063,510.7539 587.4063,511.207 Q587.4063,511.6602 587.1094,511.9414 Q586.8125,512.2227 586.0781,512.2227 L585.6094,512.2227 L588.5,519.1289 Z " fill="#000000"/><text fill="#000000" font-family="sans-serif" font-size="20" font-style="italic" lengthAdjust="spacing" textLength="128" x="601" y="510.6563">«value object»</text><text fill="#000000" font-family="sans-serif" font-size="20" lengthAdjust="spacing" textLength="55" x="637.5" y="535.8125">Phone</text><line style="stroke:#181818;stroke-width:0.5;" x1="573" x2="729" y1="545.207" y2="545.207"/></g><!--class Email--><g id="elem_Email"><rect codeLine="23" fill="#F5F5DC" height="68.3125" id="Email" rx="2.5" ry="2.5" style="stroke:#181818;stroke-width:0.5;" width="158" x="892" y="484.8945"/><ellipse cx="908" cy="515.0508" fill="#FF8B40" rx="12" ry="12" style="stroke:#181818;stroke-width:1.0;"/><path d="M908.5,519.1289 L911.3906,512.2227 L910.9375,512.2227 Q910.2188,512.2227 909.9063,511.9414 Q909.5938,511.6602 909.5938,511.207 Q909.5938,510.7539 909.9063,510.4883 Q910.2188,510.207 910.9375,510.207 L913.625,510.207 Q914.3438,510.207 914.6563,510.4883 Q914.9688,510.7539 914.9688,511.207 Q914.9688,511.7539 914.5,512.0664 Q914.2656,512.2227 913.5781,512.2227 L909.4688,522.0508 L907.5469,522.0508 L903.4375,512.2227 Q902.7344,512.2227 902.5156,512.0664 Q902.0469,511.7539 902.0469,511.207 Q902.0469,510.7539 902.3594,510.4883 Q902.6563,510.207 903.375,510.207 L906.0781,510.207 Q906.7969,510.207 907.0938,510.4883 Q907.4063,510.7539 907.4063,511.207 Q907.4063,511.6602 907.1094,511.9414 Q906.8125,512.2227 906.0781,512.2227 L905.6094,512.2227 L908.5,519.1289 Z " fill="#000000"/><text fill="#000000" font-family="sans-serif" font-size="20" font-style="italic" lengthAdjust="spacing" textLength="128" x="921" y="510.6563">«value object»</text><text fill="#000000" font-family="sans-serif" font-size="20" lengthAdjust="spacing" textLength="48" x="961" y="535.8125">Email</text><line style="stroke:#181818;stroke-width:0.5;" x1="893" x2="1049" y1="545.207" y2="545.207"/></g><!--link Name to FirstName--><g id="link_Name_FirstName"><path codeLine="27" d="M1202,131.5345 C1202,155.0345 1202,186.6445 1202,211.2045 " fill="none" id="Name-to-FirstName" style="stroke:#222222;stroke-width:1.0;"/><polygon fill="#222222" points="1202,216.3345,1206,207.3345,1202,211.3345,1198,207.3345,1202,216.3345" style="stroke:#222222;stroke-width:1.0;"/></g><!--link Name to LastName--><g id="link_Name_LastName"><path codeLine="28" d="M1281.16,97.3945 C1291.01,97.3945 1300.85,97.3945 1310.7,97.3945 " fill="none" id="Name-to-LastName" style="stroke:#222222;stroke-width:1.0;"/><polygon fill="#222222" points="1315.85,97.3945,1306.85,93.3945,1310.85,97.3945,1306.85,101.3945,1315.85,97.3945" style="stroke:#222222;stroke-width:1.0;"/></g><!--link Name to FullName--><g id="link_Name_FullName"><path codeLine="29" d="M1244.35,131.5345 C1275.15,155.6245 1316.83,188.2345 1348.54,213.0445 " fill="none" id="Name-to-FullName" style="stroke:#222222;stroke-width:1.0;"/><polygon fill="#222222" points="1352.74,216.3345,1348.0981,207.6482,1348.7955,213.2619,1343.1819,213.9593,1352.74,216.3345" style="stroke:#222222;stroke-width:1.0;"/></g><!--link Patient to Name--><g id="link_Patient_Name"><path codeLine="30" d="M676.69,97.3945 C823.72,97.3945 970.74,97.3945 1117.77,97.3945 " fill="none" id="Patient-to-Name" style="stroke:#222222;stroke-width:1.0;"/><polygon fill="#222222" points="1123,97.3945,1114,93.3945,1118,97.3945,1114,101.3945,1123,97.3945" style="stroke:#222222;stroke-width:1.0;"/><text fill="#000000" font-family="sans-serif" font-size="20" lengthAdjust="spacing" textLength="11" x="1103.9461" y="91.9574">1</text></g><!--link Patient to DateBirth--><g id="link_Patient_DateBirth"><path codeLine="31" d="M577.18,107.3245 C496.24,122.5645 331.78,156.5945 198,203.8945 C189.42,206.9245 180.57,210.4645 171.88,214.2045 " fill="none" id="Patient-to-DateBirth" style="stroke:#222222;stroke-width:1.0;"/><polygon fill="#222222" points="167.07,216.2945,176.9186,216.3631,171.6531,214.2957,173.7205,209.0301,167.07,216.2945" style="stroke:#222222;stroke-width:1.0;"/><text fill="#000000" font-family="sans-serif" font-size="20" lengthAdjust="spacing" textLength="11" x="166.4805" y="204.0334">1</text></g><!--link Patient to Gender--><g id="link_Patient_Gender"><path codeLine="32" d="M577.15,121.0045 C522.86,145.6145 435.33,185.3145 371.94,214.0545 " fill="none" id="Patient-to-Gender" style="stroke:#222222;stroke-width:1.0;"/><polygon fill="#222222" points="367.04,216.2745,376.8887,216.2174,371.5972,214.2174,373.5972,208.9259,367.04,216.2745" style="stroke:#222222;stroke-width:1.0;"/><text fill="#000000" font-family="sans-serif" font-size="20" lengthAdjust="spacing" textLength="11" x="367.6484" y="204.01">1</text></g><!--link Patient to ContactInfo--><g id="link_Patient_ContactInfo"><path codeLine="33" d="M676.54,102.6645 C781.46,112.8545 1020.48,142.4345 1069,203.8945 C1094.61,236.3345 1085.32,258.9145 1069,296.8945 C1059.53,318.9345 1041.99,338.2045 1024.33,353.4045 " fill="none" id="Patient-to-ContactInfo" style="stroke:#222222;stroke-width:1.0;"/><polygon fill="#222222" points="1020.33,356.7845,1029.7838,354.023,1024.1464,353.5542,1024.6152,347.9168,1020.33,356.7845" style="stroke:#222222;stroke-width:1.0;"/><text fill="#000000" font-family="sans-serif" font-size="20" lengthAdjust="spacing" textLength="11" x="1016.8633" y="344.5217">1</text></g><!--link Patient to EmergencyContact--><g id="link_Patient_EmergencyContact"><path codeLine="34" d="M577.2,109.2845 C529.49,122.6545 460.16,150.4545 428,203.8945 C406.69,239.3145 411.78,258.8745 428,296.8945 C437.36,318.8445 454.72,338.0945 472.2,353.3045 " fill="none" id="Patient-to-EmergencyContact" style="stroke:#222222;stroke-width:1.0;"/><polygon fill="#222222" points="476.16,356.6845,471.8941,347.8075,472.3507,353.4459,466.7123,353.9024,476.16,356.6845" style="stroke:#222222;stroke-width:1.0;"/><text fill="#000000" font-family="sans-serif" font-size="20" lengthAdjust="spacing" textLength="11" x="455.8203" y="344.4045">1</text></g><!--link Patient to MRN--><g id="link_Patient_MRN"><path codeLine="35" d="M595.82,144.1045 C583.92,161.5545 570.29,181.5245 558.13,199.3545 " fill="none" id="Patient-to-MRN" style="stroke:#222222;stroke-width:1.0;"/><polygon fill="#222222" points="555.08,203.8345,563.4666,198.6707,557.906,199.7097,556.8669,194.1491,555.08,203.8345" style="stroke:#222222;stroke-width:1.0;"/><text fill="#000000" font-family="sans-serif" font-size="20" lengthAdjust="spacing" textLength="11" x="547.5173" y="191.6391">1</text></g><!--link Patient to MedicalCondition--><g id="link_Patient_MedicalCondition"><path codeLine="36" d="M658.18,144.1045 C673,165.8245 690.48,191.4645 704.49,211.9945 " fill="none" id="Patient-to-MedicalCondition" style="stroke:#222222;stroke-width:1.0;"/><polygon fill="#222222" points="707.43,216.3045,705.6659,206.6149,704.6138,212.1731,699.0556,211.1209,707.43,216.3045" style="stroke:#222222;stroke-width:1.0;"/><text fill="#000000" font-family="sans-serif" font-size="20" lengthAdjust="spacing" textLength="34" x="666.6289" y="204.0452">0..1</text></g><!--link Patient to AppoitmentHistory--><g id="link_Patient_AppoitmentHistory"><path codeLine="37" d="M676.66,121.3245 C730.04,145.9745 815.53,185.4545 877.5,214.0745 " fill="none" id="Patient-to-AppoitmentHistory" style="stroke:#222222;stroke-width:1.0;"/><polygon fill="#222222" points="882.3,216.2845,875.809,208.8773,877.7615,214.1865,872.4522,216.139,882.3,216.2845" style="stroke:#222222;stroke-width:1.0;"/><text fill="#000000" font-family="sans-serif" font-size="20" lengthAdjust="spacing" textLength="11" x="858.0313" y="204.0217">1</text></g><!--link ContactInfo to Email--><g id="link_ContactInfo_Email"><path codeLine="38" d="M971,425.0045 C971,441.6545 971,461.9345 971,479.2845 " fill="none" id="ContactInfo-to-Email" style="stroke:#222222;stroke-width:1.0;"/><polygon fill="#222222" points="971,484.5745,975,475.5745,971,479.5745,967,475.5745,971,484.5745" style="stroke:#222222;stroke-width:1.0;"/><text fill="#000000" font-family="sans-serif" font-size="20" lengthAdjust="spacing" textLength="11" x="959.0891" y="472.5687">1</text></g><!--link ContactInfo to Phone--><g id="link_ContactInfo_Phone"><path codeLine="39" d="M891.9,423.0445 C844.12,441.8545 783.27,465.8145 734.69,484.9445 " fill="none" id="ContactInfo-to-Phone" style="stroke:#222222;stroke-width:1.0;"/><polygon fill="#222222" points="730.02,486.7745,739.8604,487.1824,734.6692,484.9348,736.9168,479.7436,730.02,486.7745" style="stroke:#222222;stroke-width:1.0;"/><text fill="#000000" font-family="sans-serif" font-size="20" lengthAdjust="spacing" textLength="11" x="738.0758" y="478.276">1</text></g><!--link EmergencyContact to Phone--><g id="link_EmergencyContact_Phone"><path codeLine="40" d="M558.11,425.0045 C575.19,442.0845 596.09,462.9845 613.73,480.6245 " fill="none" id="EmergencyContact-to-Phone" style="stroke:#222222;stroke-width:1.0;"/><polygon fill="#222222" points="617.68,484.5745,614.1445,475.3821,614.1445,481.039,608.4876,481.039,617.68,484.5745" style="stroke:#222222;stroke-width:1.0;"/><text fill="#000000" font-family="sans-serif" font-size="20" lengthAdjust="spacing" textLength="11" x="600.2504" y="472.5687">1</text></g><!--SRC=[bLFFJy8m5BxthsZWeecGIJnuQ9O0EYLHGZJnNhh7g7JjqdKQ9FplFiU0GOrkFJNVZxxslQ_vIkgCMvug8rOGqnWMl50kCjgzoY-WWu3aUmaLYkVvq3ahvuM3YJ2wr0HaAMEWa6PkJVcUpi-D8ovMYJM5ZiT66Kld81EeYORMciyTrHsKY_oi36qy0TfXZ2U9XOGx24Cwuqw2TXsw8HGNRYLMhr3As0v08MFM68URpRPKbdUXTtZAI5gtHFxYxQeRHRUZc-3oWwi2g9c_W_0i3w1ZiCtrzodO1BHOZx6PNBZcpkUNwPzYnh3V-Bw51Ejv8PQ2AwmPIoUDRbvrc6L6kXGFVfIvCtRTt3hbAJHNHzBchftbYRTrH8LIxHpLc2PwOPgRPakZeKqck5J_oRUO-lBglLvuR5O5XOTUr3JLMya-_eXrhZlq5Al0G_8zPXVm6bpXjSRuv7dAlLCnpATOqE__m6SvzNnU74bzGCVosD1VcN8onFk4fpGXtm00]--></g></svg>