<svg xmlns="http://www.w3.org/2000/svg" xmlns:xlink="http://www.w3.org/1999/xlink" contentStyleType="text/css" height="2223px" preserveAspectRatio="none" style="width:2659px;height:2223px;background:#FFFFFF;" version="1.1" viewBox="0 0 2659 2223" width="2659px" zoomAndPan="magnify"><title>US 5.1.21. Process View (Level 3)</title><defs/><g><text fill="#000000" font-family="sans-serif" font-size="14" font-weight="bold" lengthAdjust="spacing" textLength="264.4209" x="1196.4658" y="27.9951">US 5.1.21. Process View (Level 3)</text><rect fill="#FFFFFF" height="480.0195" style="stroke:#181818;stroke-width:1.0;" width="10" x="97.9858" y="139.1563"/><rect fill="#FFFFFF" height="1484.9258" style="stroke:#181818;stroke-width:1.0;" width="10" x="97.9858" y="669.4414"/><rect fill="#FFFFFF" height="393.0547" style="stroke:#181818;stroke-width:1.0;" width="10" x="285.6655" y="186.4219"/><rect fill="#FFFFFF" height="1416.0938" style="stroke:#181818;stroke-width:1.0;" width="10" x="285.6655" y="709.1406"/><rect fill="#FFFFFF" height="292.6563" style="stroke:#181818;stroke-width:1.0;" width="10" x="544.9521" y="215.5547"/><rect fill="#FFFFFF" height="1258.1016" style="stroke:#181818;stroke-width:1.0;" width="10" x="544.9521" y="795.8672"/><rect fill="#FFFFFF" height="29.1328" style="stroke:#181818;stroke-width:1.0;" width="10" x="936.5664" y="244.6875"/><rect fill="#FFFFFF" height="29.1328" style="stroke:#181818;stroke-width:1.0;" width="10" x="936.5664" y="825"/><rect fill="#FFFFFF" height="29.1328" style="stroke:#181818;stroke-width:1.0;" width="10" x="1133.9736" y="442.9453"/><rect fill="#FFFFFF" height="29.1328" style="stroke:#181818;stroke-width:1.0;" width="10" x="1293.8447" y="384.6797"/><rect fill="#FFFFFF" height="806.6484" style="stroke:#181818;stroke-width:1.0;" width="10" x="1611.437" y="1218.1875"/><rect fill="#FFFFFF" height="29.1328" style="stroke:#181818;stroke-width:1.0;" width="10" x="2195.29" y="1247.3203"/><rect fill="#FFFFFF" height="29.1328" style="stroke:#181818;stroke-width:1.0;" width="10" x="2195.29" y="1720.0469"/><rect fill="#FFFFFF" height="144.9922" style="stroke:#181818;stroke-width:1.0;" width="10" x="2376.4004" y="1044.0625"/><rect fill="#FFFFFF" height="144.9922" style="stroke:#181818;stroke-width:1.0;" width="10" x="2376.4004" y="1850.7109"/><rect fill="#FFFFFF" height="29.1328" style="stroke:#181818;stroke-width:1.0;" width="10" x="2588.9653" y="1130.7891"/><rect fill="#FFFFFF" height="29.1328" style="stroke:#181818;stroke-width:1.0;" width="10" x="2588.9653" y="1937.4375"/><rect fill="none" height="133.6641" style="stroke:#000000;stroke-width:1.5;" width="917.2222" x="452.8521" y="346.4141"/><rect fill="none" height="59.2656" style="stroke:#000000;stroke-width:1.5;" width="488.7144" x="452.8521" y="869.1328"/><rect fill="none" height="343.1953" style="stroke:#000000;stroke-width:1.5;" width="705.5762" x="1494.7139" y="1348.7188"/><line style="stroke:#181818;stroke-width:0.5;stroke-dasharray:5.0,5.0;" x1="102.1221" x2="102.1221" y1="89.8906" y2="2172.3672"/><line style="stroke:#181818;stroke-width:0.5;stroke-dasharray:5.0,5.0;" x1="289.8496" x2="289.8496" y1="89.8906" y2="2172.3672"/><line style="stroke:#181818;stroke-width:0.5;stroke-dasharray:5.0,5.0;" x1="549.8521" x2="549.8521" y1="89.8906" y2="2172.3672"/><line style="stroke:#181818;stroke-width:0.5;stroke-dasharray:5.0,5.0;" x1="940.8008" x2="940.8008" y1="89.8906" y2="2172.3672"/><line style="stroke:#181818;stroke-width:0.5;stroke-dasharray:5.0,5.0;" x1="1138.332" x2="1138.332" y1="320.6172" y2="2172.3672"/><line style="stroke:#181818;stroke-width:0.5;stroke-dasharray:5.0,5.0;" x1="1298.6152" x2="1298.6152" y1="89.8906" y2="2172.3672"/><line style="stroke:#181818;stroke-width:0.5;stroke-dasharray:5.0,5.0;" x1="1432.0742" x2="1432.0742" y1="755.9375" y2="2172.3672"/><line style="stroke:#181818;stroke-width:0.5;stroke-dasharray:5.0,5.0;" x1="1615.7139" x2="1615.7139" y1="89.8906" y2="2172.3672"/><line style="stroke:#181818;stroke-width:0.5;stroke-dasharray:5.0,5.0;" x1="2199.9014" x2="2199.9014" y1="89.8906" y2="2172.3672"/><line style="stroke:#181818;stroke-width:0.5;stroke-dasharray:5.0,5.0;" x1="2380.6787" x2="2380.6787" y1="89.8906" y2="2172.3672"/><line style="stroke:#181818;stroke-width:0.5;stroke-dasharray:5.0,5.0;" x1="2481.1221" x2="2481.1221" y1="1897.5078" y2="2172.3672"/><line style="stroke:#181818;stroke-width:0.5;stroke-dasharray:5.0,5.0;" x1="2593.5781" x2="2593.5781" y1="89.8906" y2="2172.3672"/><rect fill="#E2E2F0" height="46.5938" rx="2.5" ry="2.5" style="stroke:#181818;stroke-width:0.5;" width="163.7275" x="21.1221" y="42.2969"/><text fill="#000000" font-family="sans-serif" font-size="14" lengthAdjust="spacing" textLength="58.3994" x="73.7861" y="62.292">&#171;Route&#187;</text><text fill="#000000" font-family="sans-serif" font-size="14" lengthAdjust="spacing" textLength="145.2773" x="32.5723" y="78.5889">OperationTypeRoute</text><rect fill="#E2E2F0" height="46.5938" rx="2.5" ry="2.5" style="stroke:#181818;stroke-width:0.5;" width="163.7275" x="21.1221" y="2171.3672"/><text fill="#000000" font-family="sans-serif" font-size="14" lengthAdjust="spacing" textLength="58.3994" x="73.7861" y="2191.3623">&#171;Route&#187;</text><text fill="#000000" font-family="sans-serif" font-size="14" lengthAdjust="spacing" textLength="145.2773" x="32.5723" y="2207.6592">OperationTypeRoute</text><rect fill="#E2E2F0" height="46.5938" rx="2.5" ry="2.5" style="stroke:#181818;stroke-width:0.5;" width="191.6318" x="194.8496" y="42.2969"/><text fill="#000000" font-family="sans-serif" font-size="14" lengthAdjust="spacing" textLength="86.3037" x="247.5137" y="62.292">&#171;Controller&#187;</text><text fill="#000000" font-family="sans-serif" font-size="14" lengthAdjust="spacing" textLength="173.1816" x="206.2998" y="78.5889">OperationTypeController</text><rect fill="#E2E2F0" height="46.5938" rx="2.5" ry="2.5" style="stroke:#181818;stroke-width:0.5;" width="191.6318" x="194.8496" y="2171.3672"/><text fill="#000000" font-family="sans-serif" font-size="14" lengthAdjust="spacing" textLength="86.3037" x="247.5137" y="2191.3623">&#171;Controller&#187;</text><text fill="#000000" font-family="sans-serif" font-size="14" lengthAdjust="spacing" textLength="173.1816" x="206.2998" y="2207.6592">OperationTypeController</text><rect fill="#E2E2F0" height="46.5938" rx="2.5" ry="2.5" style="stroke:#181818;stroke-width:0.5;" width="174.2002" x="462.8521" y="42.2969"/><text fill="#000000" font-family="sans-serif" font-size="14" lengthAdjust="spacing" textLength="68.8721" x="515.5161" y="62.292">&#171;Service&#187;</text><text fill="#000000" font-family="sans-serif" font-size="14" lengthAdjust="spacing" textLength="155.75" x="474.3022" y="78.5889">OperationTypeService</text><rect fill="#E2E2F0" height="46.5938" rx="2.5" ry="2.5" style="stroke:#181818;stroke-width:0.5;" width="174.2002" x="462.8521" y="2171.3672"/><text fill="#000000" font-family="sans-serif" font-size="14" lengthAdjust="spacing" textLength="68.8721" x="515.5161" y="2191.3623">&#171;Service&#187;</text><text fill="#000000" font-family="sans-serif" font-size="14" lengthAdjust="spacing" textLength="155.75" x="474.3022" y="2207.6592">OperationTypeService</text><rect fill="#E2E2F0" height="46.5938" rx="2.5" ry="2.5" style="stroke:#181818;stroke-width:0.5;" width="197.5313" x="842.8008" y="42.2969"/><text fill="#000000" font-family="sans-serif" font-size="14" lengthAdjust="spacing" textLength="92.2031" x="895.4648" y="62.292">&#171;Repository&#187;</text><text fill="#000000" font-family="sans-serif" font-size="14" lengthAdjust="spacing" textLength="179.0811" x="854.251" y="78.5889">OperationTypeRepository</text><rect fill="#E2E2F0" height="46.5938" rx="2.5" ry="2.5" style="stroke:#181818;stroke-width:0.5;" width="197.5313" x="842.8008" y="2171.3672"/><text fill="#000000" font-family="sans-serif" font-size="14" lengthAdjust="spacing" textLength="92.2031" x="895.4648" y="2191.3623">&#171;Repository&#187;</text><text fill="#000000" font-family="sans-serif" font-size="14" lengthAdjust="spacing" textLength="179.0811" x="854.251" y="2207.6592">OperationTypeRepository</text><rect fill="#E2E2F0" height="46.5938" rx="2.5" ry="2.5" style="stroke:#181818;stroke-width:0.5;" width="177.2832" x="1050.332" y="2171.3672"/><text fill="#000000" font-family="sans-serif" font-size="14" lengthAdjust="spacing" textLength="47.4824" x="1115.2324" y="2191.3623">&#171;DTO&#187;</text><text fill="#000000" font-family="sans-serif" font-size="14" lengthAdjust="spacing" textLength="158.833" x="1061.7822" y="2207.6592">OperationTypeListDTO</text><rect fill="#E2E2F0" height="46.5938" rx="2.5" ry="2.5" style="stroke:#181818;stroke-width:0.5;" width="122.459" x="1237.6152" y="42.2969"/><text fill="#000000" font-family="sans-serif" font-size="14" lengthAdjust="spacing" textLength="71.4561" x="1263.1167" y="62.292">&#171;Domain&#187;</text><text fill="#000000" font-family="sans-serif" font-size="14" lengthAdjust="spacing" textLength="104.0088" x="1249.0654" y="78.5889">OperationType</text><rect fill="#E2E2F0" height="46.5938" rx="2.5" ry="2.5" style="stroke:#181818;stroke-width:0.5;" width="122.459" x="1237.6152" y="2171.3672"/><text fill="#000000" font-family="sans-serif" font-size="14" lengthAdjust="spacing" textLength="71.4561" x="1263.1167" y="2191.3623">&#171;Domain&#187;</text><text fill="#000000" font-family="sans-serif" font-size="14" lengthAdjust="spacing" textLength="104.0088" x="1249.0654" y="2207.6592">OperationType</text><rect fill="#E2E2F0" height="46.5938" rx="2.5" ry="2.5" style="stroke:#181818;stroke-width:0.5;" width="124.6396" x="1370.0742" y="2171.3672"/><text fill="#000000" font-family="sans-serif" font-size="14" lengthAdjust="spacing" textLength="47.4824" x="1408.6528" y="2191.3623">&#171;DTO&#187;</text><text fill="#000000" font-family="sans-serif" font-size="14" lengthAdjust="spacing" textLength="106.1895" x="1381.5244" y="2207.6592">EditOpTypeDto</text><rect fill="#E2E2F0" height="46.5938" rx="2.5" ry="2.5" style="stroke:#181818;stroke-width:0.5;" width="223.4463" x="1504.7139" y="42.2969"/><text fill="#000000" font-family="sans-serif" font-size="14" lengthAdjust="spacing" textLength="68.8721" x="1582.001" y="62.292">&#171;Service&#187;</text><text fill="#000000" font-family="sans-serif" font-size="14" lengthAdjust="spacing" textLength="204.9961" x="1516.1641" y="78.5889">OperationTypeRecordService</text><rect fill="#E2E2F0" height="46.5938" rx="2.5" ry="2.5" style="stroke:#181818;stroke-width:0.5;" width="223.4463" x="1504.7139" y="2171.3672"/><text fill="#000000" font-family="sans-serif" font-size="14" lengthAdjust="spacing" textLength="68.8721" x="1582.001" y="2191.3623">&#171;Service&#187;</text><text fill="#000000" font-family="sans-serif" font-size="14" lengthAdjust="spacing" textLength="204.9961" x="1516.1641" y="2207.6592">OperationTypeRecordService</text><rect fill="#E2E2F0" height="46.5938" rx="2.5" ry="2.5" style="stroke:#181818;stroke-width:0.5;" width="246.7773" x="2076.9014" y="42.2969"/><text fill="#000000" font-family="sans-serif" font-size="14" lengthAdjust="spacing" textLength="92.2031" x="2154.1885" y="62.292">&#171;Repository&#187;</text><text fill="#000000" font-family="sans-serif" font-size="14" lengthAdjust="spacing" textLength="228.3271" x="2088.3516" y="78.5889">OperationTypeRecordRepository</text><rect fill="#E2E2F0" height="46.5938" rx="2.5" ry="2.5" style="stroke:#181818;stroke-width:0.5;" width="246.7773" x="2076.9014" y="2171.3672"/><text fill="#000000" font-family="sans-serif" font-size="14" lengthAdjust="spacing" textLength="92.2031" x="2154.1885" y="2191.3623">&#171;Repository&#187;</text><text fill="#000000" font-family="sans-serif" font-size="14" lengthAdjust="spacing" textLength="228.3271" x="2088.3516" y="2207.6592">OperationTypeRecordRepository</text><rect fill="#E2E2F0" height="46.5938" rx="2.5" ry="2.5" style="stroke:#181818;stroke-width:0.5;" width="95.4434" x="2333.6787" y="42.2969"/><text fill="#000000" font-family="sans-serif" font-size="14" lengthAdjust="spacing" textLength="68.8721" x="2346.9644" y="62.292">&#171;Service&#187;</text><text fill="#000000" font-family="sans-serif" font-size="14" lengthAdjust="spacing" textLength="76.9932" x="2345.1289" y="78.5889">LogService</text><rect fill="#E2E2F0" height="46.5938" rx="2.5" ry="2.5" style="stroke:#181818;stroke-width:0.5;" width="95.4434" x="2333.6787" y="2171.3672"/><text fill="#000000" font-family="sans-serif" font-size="14" lengthAdjust="spacing" textLength="68.8721" x="2346.9644" y="2191.3623">&#171;Service&#187;</text><text fill="#000000" font-family="sans-serif" font-size="14" lengthAdjust="spacing" textLength="76.9932" x="2345.1289" y="2207.6592">LogService</text><rect fill="#E2E2F0" height="46.5938" rx="2.5" ry="2.5" style="stroke:#181818;stroke-width:0.5;" width="85.4561" x="2439.1221" y="2171.3672"/><text fill="#000000" font-family="sans-serif" font-size="14" lengthAdjust="spacing" textLength="71.4561" x="2446.1221" y="2191.3623">&#171;Domain&#187;</text><text fill="#000000" font-family="sans-serif" font-size="14" lengthAdjust="spacing" textLength="25.252" x="2471.4492" y="2207.6592">Log</text><rect fill="#E2E2F0" height="46.5938" rx="2.5" ry="2.5" style="stroke:#181818;stroke-width:0.5;" width="118.7744" x="2534.5781" y="42.2969"/><text fill="#000000" font-family="sans-serif" font-size="14" lengthAdjust="spacing" textLength="92.2031" x="2547.8638" y="62.292">&#171;Repository&#187;</text><text fill="#000000" font-family="sans-serif" font-size="14" lengthAdjust="spacing" textLength="100.3242" x="2546.0283" y="78.5889">LogRepository</text><rect fill="#E2E2F0" height="46.5938" rx="2.5" ry="2.5" style="stroke:#181818;stroke-width:0.5;" width="118.7744" x="2534.5781" y="2171.3672"/><text fill="#000000" font-family="sans-serif" font-size="14" lengthAdjust="spacing" textLength="92.2031" x="2547.8638" y="2191.3623">&#171;Repository&#187;</text><text fill="#000000" font-family="sans-serif" font-size="14" lengthAdjust="spacing" textLength="100.3242" x="2546.0283" y="2207.6592">LogRepository</text><rect fill="#FFFFFF" height="480.0195" style="stroke:#181818;stroke-width:1.0;" width="10" x="97.9858" y="139.1563"/><rect fill="#FFFFFF" height="1484.9258" style="stroke:#181818;stroke-width:1.0;" width="10" x="97.9858" y="669.4414"/><rect fill="#FFFFFF" height="393.0547" style="stroke:#181818;stroke-width:1.0;" width="10" x="285.6655" y="186.4219"/><rect fill="#FFFFFF" height="1416.0938" style="stroke:#181818;stroke-width:1.0;" width="10" x="285.6655" y="709.1406"/><rect fill="#FFFFFF" height="292.6563" style="stroke:#181818;stroke-width:1.0;" width="10" x="544.9521" y="215.5547"/><rect fill="#FFFFFF" height="1258.1016" style="stroke:#181818;stroke-width:1.0;" width="10" x="544.9521" y="795.8672"/><rect fill="#FFFFFF" height="29.1328" style="stroke:#181818;stroke-width:1.0;" width="10" x="936.5664" y="244.6875"/><rect fill="#FFFFFF" height="29.1328" style="stroke:#181818;stroke-width:1.0;" width="10" x="936.5664" y="825"/><rect fill="#FFFFFF" height="29.1328" style="stroke:#181818;stroke-width:1.0;" width="10" x="1133.9736" y="442.9453"/><rect fill="#FFFFFF" height="29.1328" style="stroke:#181818;stroke-width:1.0;" width="10" x="1293.8447" y="384.6797"/><rect fill="#FFFFFF" height="806.6484" style="stroke:#181818;stroke-width:1.0;" width="10" x="1611.437" y="1218.1875"/><rect fill="#FFFFFF" height="29.1328" style="stroke:#181818;stroke-width:1.0;" width="10" x="2195.29" y="1247.3203"/><rect fill="#FFFFFF" height="29.1328" style="stroke:#181818;stroke-width:1.0;" width="10" x="2195.29" y="1720.0469"/><rect fill="#FFFFFF" height="144.9922" style="stroke:#181818;stroke-width:1.0;" width="10" x="2376.4004" y="1044.0625"/><rect fill="#FFFFFF" height="144.9922" style="stroke:#181818;stroke-width:1.0;" width="10" x="2376.4004" y="1850.7109"/><rect fill="#FFFFFF" height="29.1328" style="stroke:#181818;stroke-width:1.0;" width="10" x="2588.9653" y="1130.7891"/><rect fill="#FFFFFF" height="29.1328" style="stroke:#181818;stroke-width:1.0;" width="10" x="2588.9653" y="1937.4375"/><ellipse cx="7.5" cy="138.4063" fill="#000000" rx="4" ry="4" style="stroke:#181818;stroke-width:1.5;"/><polygon fill="#181818" points="85.9858,135.1563,95.9858,139.1563,85.9858,143.1563,89.9858,139.1563" style="stroke:#181818;stroke-width:1.0;"/><line style="stroke:#181818;stroke-width:1.0;" x1="12" x2="91.9858" y1="139.1563" y2="139.1563"/><text fill="#000000" font-family="sans-serif" font-size="13" lengthAdjust="spacing" textLength="62.9497" x="15" y="134.0903">GET(json)</text><path d="M112,104.8906 L112,159.8906 L209,159.8906 L209,114.8906 L199,104.8906 L112,104.8906 " fill="#FEFFDD" style="stroke:#181818;stroke-width:0.5;"/><path d="M199,104.8906 L199,114.8906 L209,114.8906 L199,104.8906 " fill="#FEFFDD" style="stroke:#181818;stroke-width:0.5;"/><text fill="#000000" font-family="sans-serif" font-size="13" lengthAdjust="spacing" textLength="72.0142" x="118" y="121.9575">getting the</text><text fill="#000000" font-family="sans-serif" font-size="13" lengthAdjust="spacing" textLength="35.7563" x="118" y="137.0903">list of</text><text fill="#000000" font-family="sans-serif" font-size="13" lengthAdjust="spacing" textLength="55.1357" x="118" y="152.2231">all types</text><polygon fill="#181818" points="273.6655,182.4219,283.6655,186.4219,273.6655,190.4219,277.6655,186.4219" style="stroke:#181818;stroke-width:1.0;"/><line style="stroke:#181818;stroke-width:1.0;" x1="107.9858" x2="279.6655" y1="186.4219" y2="186.4219"/><text fill="#000000" font-family="sans-serif" font-size="13" lengthAdjust="spacing" textLength="152.7437" x="114.9858" y="181.356">getListOfOpTypes(json)</text><polygon fill="#181818" points="532.9521,211.5547,542.9521,215.5547,532.9521,219.5547,536.9521,215.5547" style="stroke:#181818;stroke-width:1.0;"/><line style="stroke:#181818;stroke-width:1.0;" x1="295.6655" x2="538.9521" y1="215.5547" y2="215.5547"/><text fill="#000000" font-family="sans-serif" font-size="13" lengthAdjust="spacing" textLength="126.166" x="302.6655" y="210.4888">getListOfOpTypes()</text><polygon fill="#181818" points="924.5664,240.6875,934.5664,244.6875,924.5664,248.6875,928.5664,244.6875" style="stroke:#181818;stroke-width:1.0;"/><line style="stroke:#181818;stroke-width:1.0;" x1="554.9521" x2="930.5664" y1="244.6875" y2="244.6875"/><text fill="#000000" font-family="sans-serif" font-size="13" lengthAdjust="spacing" textLength="50.9399" x="561.9521" y="239.6216">findAll()</text><polygon fill="#181818" points="565.9521,269.8203,555.9521,273.8203,565.9521,277.8203,561.9521,273.8203" style="stroke:#181818;stroke-width:1.0;"/><line style="stroke:#181818;stroke-width:1.0;stroke-dasharray:2.0,2.0;" x1="559.9521" x2="940.5664" y1="273.8203" y2="273.8203"/><text fill="#000000" font-family="sans-serif" font-size="13" lengthAdjust="spacing" textLength="91.0444" x="571.9521" y="268.7544">listOfOpTypes</text><polygon fill="#181818" points="1038.332,283.8203,1048.332,287.8203,1038.332,291.8203,1042.332,287.8203" style="stroke:#181818;stroke-width:1.0;"/><line style="stroke:#181818;stroke-width:1.0;" x1="554.9521" x2="1044.332" y1="287.8203" y2="287.8203"/><rect fill="#E2E2F0" height="46.5938" rx="2.5" ry="2.5" style="stroke:#181818;stroke-width:0.5;" width="177.2832" x="1050.332" y="281.8203"/><text fill="#000000" font-family="sans-serif" font-size="14" lengthAdjust="spacing" textLength="47.4824" x="1115.2324" y="301.8154">&#171;DTO&#187;</text><text fill="#000000" font-family="sans-serif" font-size="14" lengthAdjust="spacing" textLength="158.833" x="1061.7822" y="318.1123">OperationTypeListDTO</text><path d="M452.8521,346.4141 L529.4761,346.4141 L529.4761,353.5469 L519.4761,363.5469 L452.8521,363.5469 L452.8521,346.4141 " fill="#EEEEEE" style="stroke:#000000;stroke-width:1.5;"/><rect fill="none" height="133.6641" style="stroke:#000000;stroke-width:1.5;" width="917.2222" x="452.8521" y="346.4141"/><text fill="#000000" font-family="sans-serif" font-size="13" font-weight="bold" lengthAdjust="spacing" textLength="31.624" x="467.8521" y="359.481">loop</text><text fill="#000000" font-family="sans-serif" font-size="11" font-weight="bold" lengthAdjust="spacing" textLength="217.3359" x="544.4761" y="358.6245">[for every profile in listOfOpTypes]</text><polygon fill="#181818" points="1281.8447,380.6797,1291.8447,384.6797,1281.8447,388.6797,1285.8447,384.6797" style="stroke:#181818;stroke-width:1.0;"/><line style="stroke:#181818;stroke-width:1.0;" x1="554.9521" x2="1287.8447" y1="384.6797" y2="384.6797"/><text fill="#000000" font-family="sans-serif" font-size="13" lengthAdjust="spacing" textLength="51.3779" x="561.9521" y="379.6138">toDTO()</text><polygon fill="#181818" points="565.9521,409.8125,555.9521,413.8125,565.9521,417.8125,561.9521,413.8125" style="stroke:#181818;stroke-width:1.0;"/><line style="stroke:#181818;stroke-width:1.0;stroke-dasharray:2.0,2.0;" x1="559.9521" x2="1297.8447" y1="413.8125" y2="413.8125"/><text fill="#000000" font-family="sans-serif" font-size="13" lengthAdjust="spacing" textLength="83.0464" x="571.9521" y="408.7466">opTypesDTO</text><polygon fill="#181818" points="1121.9736,438.9453,1131.9736,442.9453,1121.9736,446.9453,1125.9736,442.9453" style="stroke:#181818;stroke-width:1.0;"/><line style="stroke:#181818;stroke-width:1.0;" x1="554.9521" x2="1127.9736" y1="442.9453" y2="442.9453"/><text fill="#000000" font-family="sans-serif" font-size="13" lengthAdjust="spacing" textLength="137.6807" x="561.9521" y="437.8794">listAdd(opTypesDTO)</text><polygon fill="#181818" points="565.9521,468.0781,555.9521,472.0781,565.9521,476.0781,561.9521,472.0781" style="stroke:#181818;stroke-width:1.0;"/><line style="stroke:#181818;stroke-width:1.0;stroke-dasharray:2.0,2.0;" x1="559.9521" x2="1137.9736" y1="472.0781" y2="472.0781"/><text fill="#000000" font-family="sans-serif" font-size="13" lengthAdjust="spacing" textLength="40.2632" x="571.9521" y="467.0122">return</text><polygon fill="#181818" points="306.6655,504.2109,296.6655,508.2109,306.6655,512.2109,302.6655,508.2109" style="stroke:#181818;stroke-width:1.0;"/><line style="stroke:#181818;stroke-width:1.0;stroke-dasharray:2.0,2.0;" x1="300.6655" x2="548.9521" y1="508.2109" y2="508.2109"/><text fill="#000000" font-family="sans-serif" font-size="13" lengthAdjust="spacing" textLength="105.771" x="312.6655" y="503.145">opTypesListDTO</text><line style="stroke:#181818;stroke-width:1.0;" x1="295.6655" x2="337.6655" y1="537.3438" y2="537.3438"/><line style="stroke:#181818;stroke-width:1.0;" x1="337.6655" x2="337.6655" y1="537.3438" y2="550.3438"/><line style="stroke:#181818;stroke-width:1.0;" x1="296.6655" x2="337.6655" y1="550.3438" y2="550.3438"/><polygon fill="#181818" points="306.6655,546.3438,296.6655,550.3438,306.6655,554.3438,302.6655,550.3438" style="stroke:#181818;stroke-width:1.0;"/><text fill="#000000" font-family="sans-serif" font-size="13" lengthAdjust="spacing" textLength="131.3965" x="302.6655" y="532.2778">ok(opTypesListDTO)</text><polygon fill="#181818" points="118.9858,575.4766,108.9858,579.4766,118.9858,583.4766,114.9858,579.4766" style="stroke:#181818;stroke-width:1.0;"/><line style="stroke:#181818;stroke-width:1.0;stroke-dasharray:2.0,2.0;" x1="112.9858" x2="289.6655" y1="579.4766" y2="579.4766"/><text fill="#000000" font-family="sans-serif" font-size="13" lengthAdjust="spacing" textLength="26.5776" x="124.9858" y="574.4106">json</text><polygon fill="#181818" points="11,615.1758,1,619.1758,11,623.1758,7,619.1758" style="stroke:#181818;stroke-width:1.0;"/><line style="stroke:#181818;stroke-width:1.0;stroke-dasharray:2.0,2.0;" x1="5" x2="101.9858" y1="619.1758" y2="619.1758"/><text fill="#000000" font-family="sans-serif" font-size="13" lengthAdjust="spacing" textLength="26.5776" x="17" y="614.1099">json</text><path d="M112,592.4766 L112,632.4766 L226,632.4766 L226,602.4766 L216,592.4766 L112,592.4766 " fill="#FEFFDD" style="stroke:#181818;stroke-width:0.5;"/><path d="M216,592.4766 L216,602.4766 L226,602.4766 L216,592.4766 " fill="#FEFFDD" style="stroke:#181818;stroke-width:0.5;"/><text fill="#000000" font-family="sans-serif" font-size="13" lengthAdjust="spacing" textLength="93.2852" x="118" y="609.5435">after choosing</text><text fill="#000000" font-family="sans-serif" font-size="13" lengthAdjust="spacing" textLength="61.8008" x="122.1323" y="624.6763">a request</text><ellipse cx="7.5" cy="668.6914" fill="#000000" rx="4" ry="4" style="stroke:#181818;stroke-width:1.5;"/><polygon fill="#181818" points="85.9858,665.4414,95.9858,669.4414,85.9858,673.4414,89.9858,669.4414" style="stroke:#181818;stroke-width:1.0;"/><line style="stroke:#181818;stroke-width:1.0;" x1="12" x2="91.9858" y1="669.4414" y2="669.4414"/><text fill="#000000" font-family="sans-serif" font-size="13" lengthAdjust="spacing" textLength="70.9858" x="15" y="664.3755">POST(json)</text><path d="M112,642.7422 L112,682.7422 L245,682.7422 L245,652.7422 L235,642.7422 L112,642.7422 " fill="#FEFFDD" style="stroke:#181818;stroke-width:0.5;"/><path d="M235,642.7422 L235,652.7422 L245,652.7422 L235,642.7422 " fill="#FEFFDD" style="stroke:#181818;stroke-width:0.5;"/><text fill="#000000" font-family="sans-serif" font-size="13" lengthAdjust="spacing" textLength="81.6626" x="118" y="659.8091">after getting</text><text fill="#000000" font-family="sans-serif" font-size="13" lengthAdjust="spacing" textLength="107.8721" x="122.1323" y="674.9419">the confirmation</text><polygon fill="#181818" points="273.6655,705.1406,283.6655,709.1406,273.6655,713.1406,277.6655,709.1406" style="stroke:#181818;stroke-width:1.0;"/><line style="stroke:#181818;stroke-width:1.0;" x1="107.9858" x2="279.6655" y1="709.1406" y2="709.1406"/><text fill="#000000" font-family="sans-serif" font-size="13" lengthAdjust="spacing" textLength="158.4756" x="114.9858" y="704.0747">EditOperationType(json)</text><polygon fill="#181818" points="1358.0742,734.2734,1368.0742,738.2734,1358.0742,742.2734,1362.0742,738.2734" style="stroke:#181818;stroke-width:1.0;"/><line style="stroke:#181818;stroke-width:1.0;" x1="295.6655" x2="1364.0742" y1="738.2734" y2="738.2734"/><text fill="#000000" font-family="sans-serif" font-size="13" lengthAdjust="spacing" textLength="77.9556" x="302.6655" y="733.2075">toDTO(json)</text><rect fill="#E2E2F0" height="46.5938" rx="2.5" ry="2.5" style="stroke:#181818;stroke-width:0.5;" width="124.6396" x="1370.0742" y="717.1406"/><text fill="#000000" font-family="sans-serif" font-size="14" lengthAdjust="spacing" textLength="47.4824" x="1408.6528" y="737.1357">&#171;DTO&#187;</text><text fill="#000000" font-family="sans-serif" font-size="14" lengthAdjust="spacing" textLength="106.1895" x="1381.5244" y="753.4326">EditOpTypeDto</text><polygon fill="#181818" points="532.9521,791.8672,542.9521,795.8672,532.9521,799.8672,536.9521,795.8672" style="stroke:#181818;stroke-width:1.0;"/><line style="stroke:#181818;stroke-width:1.0;" x1="295.6655" x2="538.9521" y1="795.8672" y2="795.8672"/><text fill="#000000" font-family="sans-serif" font-size="13" lengthAdjust="spacing" textLength="230.2866" x="302.6655" y="790.8013">EditOperationType(editOpTypeDto)</text><polygon fill="#181818" points="924.5664,821,934.5664,825,924.5664,829,928.5664,825" style="stroke:#181818;stroke-width:1.0;"/><line style="stroke:#181818;stroke-width:1.0;" x1="554.9521" x2="930.5664" y1="825" y2="825"/><text fill="#000000" font-family="sans-serif" font-size="13" lengthAdjust="spacing" textLength="127.2134" x="561.9521" y="819.9341">findByID(opTypeID)</text><polygon fill="#181818" points="565.9521,850.1328,555.9521,854.1328,565.9521,858.1328,561.9521,854.1328" style="stroke:#181818;stroke-width:1.0;"/><line style="stroke:#181818;stroke-width:1.0;stroke-dasharray:2.0,2.0;" x1="559.9521" x2="940.5664" y1="854.1328" y2="854.1328"/><text fill="#000000" font-family="sans-serif" font-size="13" lengthAdjust="spacing" textLength="94.3008" x="571.9521" y="849.0669">operationType</text><path d="M452.8521,869.1328 L529.4761,869.1328 L529.4761,876.2656 L519.4761,886.2656 L452.8521,886.2656 L452.8521,869.1328 " fill="#EEEEEE" style="stroke:#000000;stroke-width:1.5;"/><rect fill="none" height="59.2656" style="stroke:#000000;stroke-width:1.5;" width="488.7144" x="452.8521" y="869.1328"/><text fill="#000000" font-family="sans-serif" font-size="13" font-weight="bold" lengthAdjust="spacing" textLength="31.624" x="467.8521" y="882.1997">loop</text><text fill="#000000" font-family="sans-serif" font-size="11" font-weight="bold" lengthAdjust="spacing" textLength="261.1372" x="544.4761" y="881.3433">[for every attribute in operationTypeDTO]</text><line style="stroke:#181818;stroke-width:1.0;" x1="554.9521" x2="596.9521" y1="907.3984" y2="907.3984"/><line style="stroke:#181818;stroke-width:1.0;" x1="596.9521" x2="596.9521" y1="907.3984" y2="920.3984"/><line style="stroke:#181818;stroke-width:1.0;" x1="555.9521" x2="596.9521" y1="920.3984" y2="920.3984"/><polygon fill="#181818" points="565.9521,916.3984,555.9521,920.3984,565.9521,924.3984,561.9521,920.3984" style="stroke:#181818;stroke-width:1.0;"/><text fill="#000000" font-family="sans-serif" font-size="13" lengthAdjust="spacing" textLength="357.6143" x="561.9521" y="902.3325">operationType.attribute = operationTypeDTO.attribute</text><line style="stroke:#181818;stroke-width:1.0;" x1="554.9521" x2="596.9521" y1="956.5313" y2="956.5313"/><line style="stroke:#181818;stroke-width:1.0;" x1="596.9521" x2="596.9521" y1="956.5313" y2="969.5313"/><line style="stroke:#181818;stroke-width:1.0;" x1="555.9521" x2="596.9521" y1="969.5313" y2="969.5313"/><polygon fill="#181818" points="565.9521,965.5313,555.9521,969.5313,565.9521,973.5313,561.9521,969.5313" style="stroke:#181818;stroke-width:1.0;"/><text fill="#000000" font-family="sans-serif" font-size="13" lengthAdjust="spacing" textLength="99.9565" x="561.9521" y="951.4653">CommitAsync()</text><polygon fill="#181818" points="2364.4004,1040.0625,2374.4004,1044.0625,2364.4004,1048.0625,2368.4004,1044.0625" style="stroke:#181818;stroke-width:1.0;"/><line style="stroke:#181818;stroke-width:1.0;" x1="554.9521" x2="2370.4004" y1="1044.0625" y2="1044.0625"/><text fill="#000000" font-family="sans-serif" font-size="13" lengthAdjust="spacing" textLength="252.6685" x="561.9521" y="993.5981">CreateEditLog(operationType.Id.Value,</text><text fill="#000000" font-family="sans-serif" font-size="13" lengthAdjust="spacing" textLength="210.2471" x="561.9521" y="1008.731">operationType.GetType().Name,</text><text fill="#000000" font-family="sans-serif" font-size="13" lengthAdjust="spacing" textLength="163.6807" x="561.9521" y="1023.8638">"Operation type edited: "</text><text fill="#000000" font-family="sans-serif" font-size="13" lengthAdjust="spacing" textLength="264.0625" x="561.9521" y="1038.9966">+ operationType.Name.OperationName)</text><polygon fill="#181818" points="2427.1221,1054.0625,2437.1221,1058.0625,2427.1221,1062.0625,2431.1221,1058.0625" style="stroke:#181818;stroke-width:1.0;"/><line style="stroke:#181818;stroke-width:1.0;" x1="2386.4004" x2="2433.1221" y1="1058.0625" y2="1058.0625"/><rect fill="#E2E2F0" height="46.5938" rx="2.5" ry="2.5" style="stroke:#181818;stroke-width:0.5;" width="85.4561" x="2439.1221" y="1052.0625"/><text fill="#000000" font-family="sans-serif" font-size="14" lengthAdjust="spacing" textLength="71.4561" x="2446.1221" y="1072.0576">&#171;Domain&#187;</text><text fill="#000000" font-family="sans-serif" font-size="14" lengthAdjust="spacing" textLength="25.252" x="2471.4492" y="1088.3545">Log</text><polygon fill="#181818" points="2576.9653,1126.7891,2586.9653,1130.7891,2576.9653,1134.7891,2580.9653,1130.7891" style="stroke:#181818;stroke-width:1.0;"/><line style="stroke:#181818;stroke-width:1.0;" x1="2386.4004" x2="2582.9653" y1="1130.7891" y2="1130.7891"/><text fill="#000000" font-family="sans-serif" font-size="13" lengthAdjust="spacing" textLength="94.104" x="2393.4004" y="1125.7231">AddAsync(log)</text><polygon fill="#181818" points="2397.4004,1155.9219,2387.4004,1159.9219,2397.4004,1163.9219,2393.4004,1159.9219" style="stroke:#181818;stroke-width:1.0;"/><line style="stroke:#181818;stroke-width:1.0;stroke-dasharray:2.0,2.0;" x1="2391.4004" x2="2592.9653" y1="1159.9219" y2="1159.9219"/><text fill="#000000" font-family="sans-serif" font-size="13" lengthAdjust="spacing" textLength="26.6792" x="2403.4004" y="1154.856">true</text><polygon fill="#181818" points="565.9521,1185.0547,555.9521,1189.0547,565.9521,1193.0547,561.9521,1189.0547" style="stroke:#181818;stroke-width:1.0;"/><line style="stroke:#181818;stroke-width:1.0;stroke-dasharray:2.0,2.0;" x1="559.9521" x2="2380.4004" y1="1189.0547" y2="1189.0547"/><text fill="#000000" font-family="sans-serif" font-size="13" lengthAdjust="spacing" textLength="26.6792" x="571.9521" y="1183.9888">true</text><polygon fill="#181818" points="1599.437,1214.1875,1609.437,1218.1875,1599.437,1222.1875,1603.437,1218.1875" style="stroke:#181818;stroke-width:1.0;"/><line style="stroke:#181818;stroke-width:1.0;" x1="554.9521" x2="1605.437" y1="1218.1875" y2="1218.1875"/><text fill="#000000" font-family="sans-serif" font-size="13" lengthAdjust="spacing" textLength="168.5874" x="561.9521" y="1213.1216">AddAsync(operationType)</text><polygon fill="#181818" points="2183.29,1243.3203,2193.29,1247.3203,2183.29,1251.3203,2187.29,1247.3203" style="stroke:#181818;stroke-width:1.0;"/><line style="stroke:#181818;stroke-width:1.0;" x1="1621.437" x2="2189.29" y1="1247.3203" y2="1247.3203"/><text fill="#000000" font-family="sans-serif" font-size="13" lengthAdjust="spacing" textLength="254.7188" x="1628.437" y="1242.2544">GetLastFromOpType(operationType.Id)</text><polygon fill="#181818" points="1632.437,1272.4531,1622.437,1276.4531,1632.437,1280.4531,1628.437,1276.4531" style="stroke:#181818;stroke-width:1.0;"/><line style="stroke:#181818;stroke-width:1.0;stroke-dasharray:2.0,2.0;" x1="1626.437" x2="2199.29" y1="1276.4531" y2="1276.4531"/><text fill="#000000" font-family="sans-serif" font-size="13" lengthAdjust="spacing" textLength="133.8721" x="1638.437" y="1271.3872">lastOperationRecord</text><line style="stroke:#181818;stroke-width:1.0;" x1="1621.437" x2="1663.437" y1="1320.7188" y2="1320.7188"/><line style="stroke:#181818;stroke-width:1.0;" x1="1663.437" x2="1663.437" y1="1320.7188" y2="1333.7188"/><line style="stroke:#181818;stroke-width:1.0;" x1="1622.437" x2="1663.437" y1="1333.7188" y2="1333.7188"/><polygon fill="#181818" points="1632.437,1329.7188,1622.437,1333.7188,1632.437,1337.7188,1628.437,1333.7188" style="stroke:#181818;stroke-width:1.0;"/><text fill="#000000" font-family="sans-serif" font-size="13" lengthAdjust="spacing" textLength="179.4736" x="1628.437" y="1300.52">var todayDate = new Date(</text><text fill="#000000" font-family="sans-serif" font-size="13" lengthAdjust="spacing" textLength="265.1987" x="1628.437" y="1315.6528">DateTime.Now.ToString("yyyy-MM-dd"));</text><path d="M1494.7139,1348.7188 L1559.1567,1348.7188 L1559.1567,1355.8516 L1549.1567,1365.8516 L1494.7139,1365.8516 L1494.7139,1348.7188 " fill="#EEEEEE" style="stroke:#000000;stroke-width:1.5;"/><rect fill="none" height="343.1953" style="stroke:#000000;stroke-width:1.5;" width="705.5762" x="1494.7139" y="1348.7188"/><text fill="#000000" font-family="sans-serif" font-size="13" font-weight="bold" lengthAdjust="spacing" textLength="19.4429" x="1509.7139" y="1361.7856">alt</text><text fill="#000000" font-family="sans-serif" font-size="11" font-weight="bold" lengthAdjust="spacing" textLength="129.4219" x="1574.1567" y="1360.9292">[If there's no record]</text><line style="stroke:#181818;stroke-width:1.0;" x1="1621.437" x2="1663.437" y1="1492.9141" y2="1492.9141"/><line style="stroke:#181818;stroke-width:1.0;" x1="1663.437" x2="1663.437" y1="1492.9141" y2="1505.9141"/><line style="stroke:#181818;stroke-width:1.0;" x1="1622.437" x2="1663.437" y1="1505.9141" y2="1505.9141"/><polygon fill="#181818" points="1632.437,1501.9141,1622.437,1505.9141,1632.437,1509.9141,1628.437,1505.9141" style="stroke:#181818;stroke-width:1.0;"/><text fill="#000000" font-family="sans-serif" font-size="13" lengthAdjust="spacing" textLength="549.853" x="1628.437" y="1381.9185">operationRecord = new OperationTypeRecord(new Date(todayDate.Start.ToString(),</text><text fill="#000000" font-family="sans-serif" font-size="13" lengthAdjust="spacing" textLength="191.5786" x="1628.437" y="1397.0513">todayDate.End.ToString()), 0,</text><text fill="#000000" font-family="sans-serif" font-size="13" lengthAdjust="spacing" textLength="114.6514" x="1628.437" y="1412.1841">operationType.Id,</text><text fill="#000000" font-family="sans-serif" font-size="13" lengthAdjust="spacing" textLength="140.918" x="1628.437" y="1427.3169">operationType.Name,</text><text fill="#000000" font-family="sans-serif" font-size="13" lengthAdjust="spacing" textLength="224.7007" x="1628.437" y="1442.4497">operationType.EstimatedDuration,</text><text fill="#000000" font-family="sans-serif" font-size="13" lengthAdjust="spacing" textLength="143.9902" x="1628.437" y="1457.5825">operationType.Status,</text><text fill="#000000" font-family="sans-serif" font-size="13" lengthAdjust="spacing" textLength="191.7627" x="1628.437" y="1472.7153">operationType.RequiredStaff,</text><text fill="#000000" font-family="sans-serif" font-size="13" lengthAdjust="spacing" textLength="149.0938" x="1628.437" y="1487.8481">operationType.Phases)</text><line style="stroke:#000000;stroke-width:1.0;stroke-dasharray:2.0,2.0;" x1="1494.7139" x2="2200.29" y1="1514.9141" y2="1514.9141"/><text fill="#000000" font-family="sans-serif" font-size="11" font-weight="bold" lengthAdjust="spacing" textLength="70.3452" x="1499.7139" y="1525.1245">[If there is]</text><line style="stroke:#181818;stroke-width:1.0;" x1="1621.437" x2="1663.437" y1="1670.9141" y2="1670.9141"/><line style="stroke:#181818;stroke-width:1.0;" x1="1663.437" x2="1663.437" y1="1670.9141" y2="1683.9141"/><line style="stroke:#181818;stroke-width:1.0;" x1="1622.437" x2="1663.437" y1="1683.9141" y2="1683.9141"/><polygon fill="#181818" points="1632.437,1679.9141,1622.437,1683.9141,1632.437,1687.9141,1628.437,1683.9141" style="stroke:#181818;stroke-width:1.0;"/><text fill="#000000" font-family="sans-serif" font-size="13" lengthAdjust="spacing" textLength="549.853" x="1628.437" y="1544.7856">operationRecord = new OperationTypeRecord(new Date(todayDate.Start.ToString(),</text><text fill="#000000" font-family="sans-serif" font-size="13" lengthAdjust="spacing" textLength="175.043" x="1628.437" y="1559.9185">todayDate.End.ToString()),</text><text fill="#000000" font-family="sans-serif" font-size="13" lengthAdjust="spacing" textLength="245.6035" x="1632.5693" y="1575.0513">operationRecord1.Version.Version+1,</text><text fill="#000000" font-family="sans-serif" font-size="13" lengthAdjust="spacing" textLength="114.6514" x="1628.437" y="1590.1841">operationType.Id,</text><text fill="#000000" font-family="sans-serif" font-size="13" lengthAdjust="spacing" textLength="140.918" x="1628.437" y="1605.3169">operationType.Name,</text><text fill="#000000" font-family="sans-serif" font-size="13" lengthAdjust="spacing" textLength="224.7007" x="1628.437" y="1620.4497">operationType.EstimatedDuration,</text><text fill="#000000" font-family="sans-serif" font-size="13" lengthAdjust="spacing" textLength="143.9902" x="1628.437" y="1635.5825">operationType.Status,</text><text fill="#000000" font-family="sans-serif" font-size="13" lengthAdjust="spacing" textLength="191.7627" x="1628.437" y="1650.7153">operationType.RequiredStaff,</text><text fill="#000000" font-family="sans-serif" font-size="13" lengthAdjust="spacing" textLength="149.0938" x="1628.437" y="1665.8481">operationType.Phases)</text><polygon fill="#181818" points="2183.29,1716.0469,2193.29,1720.0469,2183.29,1724.0469,2187.29,1720.0469" style="stroke:#181818;stroke-width:1.0;"/><line style="stroke:#181818;stroke-width:1.0;" x1="1621.437" x2="2189.29" y1="1720.0469" y2="1720.0469"/><text fill="#000000" font-family="sans-serif" font-size="13" lengthAdjust="spacing" textLength="182.4316" x="1628.437" y="1714.981">AddAsync(operationRecord)</text><polygon fill="#181818" points="1632.437,1745.1797,1622.437,1749.1797,1632.437,1753.1797,1628.437,1749.1797" style="stroke:#181818;stroke-width:1.0;"/><line style="stroke:#181818;stroke-width:1.0;stroke-dasharray:2.0,2.0;" x1="1626.437" x2="2199.29" y1="1749.1797" y2="1749.1797"/><text fill="#000000" font-family="sans-serif" font-size="13" lengthAdjust="spacing" textLength="26.6792" x="1638.437" y="1744.1138">true</text><line style="stroke:#181818;stroke-width:1.0;" x1="1621.437" x2="1663.437" y1="1778.3125" y2="1778.3125"/><line style="stroke:#181818;stroke-width:1.0;" x1="1663.437" x2="1663.437" y1="1778.3125" y2="1791.3125"/><line style="stroke:#181818;stroke-width:1.0;" x1="1622.437" x2="1663.437" y1="1791.3125" y2="1791.3125"/><polygon fill="#181818" points="1632.437,1787.3125,1622.437,1791.3125,1632.437,1795.3125,1628.437,1791.3125" style="stroke:#181818;stroke-width:1.0;"/><text fill="#000000" font-family="sans-serif" font-size="13" lengthAdjust="spacing" textLength="99.9565" x="1628.437" y="1773.2466">CommitAsync()</text><polygon fill="#181818" points="2364.4004,1846.7109,2374.4004,1850.7109,2364.4004,1854.7109,2368.4004,1850.7109" style="stroke:#181818;stroke-width:1.0;"/><line style="stroke:#181818;stroke-width:1.0;" x1="1621.437" x2="2370.4004" y1="1850.7109" y2="1850.7109"/><text fill="#000000" font-family="sans-serif" font-size="13" lengthAdjust="spacing" textLength="296.626" x="1628.437" y="1815.3794">CreateCreationLog(operationRecord.Id.Value,</text><text fill="#000000" font-family="sans-serif" font-size="13" lengthAdjust="spacing" textLength="224.0913" x="1628.437" y="1830.5122">operationRecord.GetType().Name,</text><text fill="#000000" font-family="sans-serif" font-size="13" lengthAdjust="spacing" textLength="301.0947" x="1628.437" y="1845.645">"New operation type version record created.")</text><polygon fill="#181818" points="2427.1221,1860.7109,2437.1221,1864.7109,2427.1221,1868.7109,2431.1221,1864.7109" style="stroke:#181818;stroke-width:1.0;"/><line style="stroke:#181818;stroke-width:1.0;" x1="2386.4004" x2="2433.1221" y1="1864.7109" y2="1864.7109"/><rect fill="#E2E2F0" height="46.5938" rx="2.5" ry="2.5" style="stroke:#181818;stroke-width:0.5;" width="85.4561" x="2439.1221" y="1858.7109"/><text fill="#000000" font-family="sans-serif" font-size="14" lengthAdjust="spacing" textLength="71.4561" x="2446.1221" y="1878.7061">&#171;Domain&#187;</text><text fill="#000000" font-family="sans-serif" font-size="14" lengthAdjust="spacing" textLength="25.252" x="2471.4492" y="1895.0029">Log</text><polygon fill="#181818" points="2576.9653,1933.4375,2586.9653,1937.4375,2576.9653,1941.4375,2580.9653,1937.4375" style="stroke:#181818;stroke-width:1.0;"/><line style="stroke:#181818;stroke-width:1.0;" x1="2386.4004" x2="2582.9653" y1="1937.4375" y2="1937.4375"/><text fill="#000000" font-family="sans-serif" font-size="13" lengthAdjust="spacing" textLength="94.104" x="2393.4004" y="1932.3716">AddAsync(log)</text><polygon fill="#181818" points="2397.4004,1962.5703,2387.4004,1966.5703,2397.4004,1970.5703,2393.4004,1966.5703" style="stroke:#181818;stroke-width:1.0;"/><line style="stroke:#181818;stroke-width:1.0;stroke-dasharray:2.0,2.0;" x1="2391.4004" x2="2592.9653" y1="1966.5703" y2="1966.5703"/><text fill="#000000" font-family="sans-serif" font-size="13" lengthAdjust="spacing" textLength="26.6792" x="2403.4004" y="1961.5044">true</text><polygon fill="#181818" points="1632.437,1991.7031,1622.437,1995.7031,1632.437,1999.7031,1628.437,1995.7031" style="stroke:#181818;stroke-width:1.0;"/><line style="stroke:#181818;stroke-width:1.0;stroke-dasharray:2.0,2.0;" x1="1626.437" x2="2380.4004" y1="1995.7031" y2="1995.7031"/><text fill="#000000" font-family="sans-serif" font-size="13" lengthAdjust="spacing" textLength="26.6792" x="1638.437" y="1990.6372">true</text><polygon fill="#181818" points="565.9521,2020.8359,555.9521,2024.8359,565.9521,2028.8359,561.9521,2024.8359" style="stroke:#181818;stroke-width:1.0;"/><line style="stroke:#181818;stroke-width:1.0;stroke-dasharray:2.0,2.0;" x1="559.9521" x2="1615.437" y1="2024.8359" y2="2024.8359"/><text fill="#000000" font-family="sans-serif" font-size="13" lengthAdjust="spacing" textLength="26.6792" x="571.9521" y="2019.77">true</text><polygon fill="#181818" points="306.6655,2049.9688,296.6655,2053.9688,306.6655,2057.9688,302.6655,2053.9688" style="stroke:#181818;stroke-width:1.0;"/><line style="stroke:#181818;stroke-width:1.0;stroke-dasharray:2.0,2.0;" x1="300.6655" x2="548.9521" y1="2053.9688" y2="2053.9688"/><text fill="#000000" font-family="sans-serif" font-size="13" lengthAdjust="spacing" textLength="40.2632" x="312.6655" y="2048.9028">return</text><line style="stroke:#181818;stroke-width:1.0;stroke-dasharray:2.0,2.0;" x1="295.6655" x2="337.6655" y1="2083.1016" y2="2083.1016"/><line style="stroke:#181818;stroke-width:1.0;stroke-dasharray:2.0,2.0;" x1="337.6655" x2="337.6655" y1="2083.1016" y2="2096.1016"/><line style="stroke:#181818;stroke-width:1.0;stroke-dasharray:2.0,2.0;" x1="296.6655" x2="337.6655" y1="2096.1016" y2="2096.1016"/><polygon fill="#181818" points="306.6655,2092.1016,296.6655,2096.1016,306.6655,2100.1016,302.6655,2096.1016" style="stroke:#181818;stroke-width:1.0;"/><text fill="#000000" font-family="sans-serif" font-size="13" lengthAdjust="spacing" textLength="69.3291" x="302.6655" y="2078.0356">ok(sucess)</text><polygon fill="#181818" points="118.9858,2121.2344,108.9858,2125.2344,118.9858,2129.2344,114.9858,2125.2344" style="stroke:#181818;stroke-width:1.0;"/><line style="stroke:#181818;stroke-width:1.0;stroke-dasharray:2.0,2.0;" x1="112.9858" x2="289.6655" y1="2125.2344" y2="2125.2344"/><text fill="#000000" font-family="sans-serif" font-size="13" lengthAdjust="spacing" textLength="26.5776" x="124.9858" y="2120.1685">json</text><polygon fill="#181818" points="11,2150.3672,1,2154.3672,11,2158.3672,7,2154.3672" style="stroke:#181818;stroke-width:1.0;"/><line style="stroke:#181818;stroke-width:1.0;stroke-dasharray:2.0,2.0;" x1="5" x2="101.9858" y1="2154.3672" y2="2154.3672"/><text fill="#000000" font-family="sans-serif" font-size="13" lengthAdjust="spacing" textLength="26.5776" x="17" y="2149.3013">json</text><!--SRC=[pLTDR-Cs4BthLn2-rCgkXQP5BziqG1gxWG5lPDZU04LzOKtAOIkJBabxuN-_Gr8V_53Ix2qvn39dtipZyCs8rapN58s-hD4lnNNnqtM1bbBig5BeYT6lQBoWPrgZd_DHbXsnr6p7ZfXhDBgvMOcJfhUtMuxA8vLOCy4tboErooE45LgLNpQp67Klk9QYhgbCeRtDuk_BnysgNCGHrbIUsMuWSsEmsFLizPGGfaUXc1RoCi2wipdgisKPmwURCiKjcD9WiA35VBs1vmGd3fZn56envNBpv_AbJ3F2T7aqlbCj6lVLR3sGuyMQhEXEIE9NPZMxBrTJi_9zzJ5naYgPK6RnDJuBiVVpByg7eUHUbG3GUluFHV2CA076yid-4fDRfq3q2JtCDkD_bE1vneMcIBBziuRbFTMQyJtIpnHjUGr7YKG5JxYkaOPDgooxssbsne1nOivSH0ZTYDD5CIeeAtTKgidKGriTPoq6u4QVGzYyXra9PzRHR0KK2O2ASN9Nr-CSUTICM3FhCEb3rtxSR4fnwDx6RKHxTPNLGXnH9II2ZfSNT9IYOZ0Q68z2jKWhNKYa1U21U9V0QTgPFKB2uOrw2OsS8pOD_Jj2nZtAoz1sMklkPP5KdoJtCxJEb9Dssy7vDHcQJlOhvKx0EpKFzEyunEMUewSyemK_PAk5cyaaz0bEo6ajq2gkD9Lezon0xNmFsiUmrVzELEb8wyjoFIXs5w2HFE2Dw7U2LqmUR9U_IUjk8dbpuKrYRwVMrLKdbmQMTaIQWVfJy2tzyVjbFcrEPpxrL6E57xU9y7Fvid5j4ZK5rbgol-45PzeYW1hfj5o6GXSzzBS4sHjzbNQ1xiNXmFITkl0Tz5dVB6wI6WT9WR8f7Kp4SPXtJeedN9_enoqF3GzKs_hcnIC-6FEegxkTViWKdf9FQBJb7wBD64JHkPjlVdSslBBsmN654HCkc44DvA7BtTPgiG-Zs4dUEaw27Mjv2axBytOP-keDkDeNa2UTzeteimas7AYeUtzc7hABq-mAghl0IlyXnS69DpcM9ARTW1Ta4dEh8M1NTFT63XNRHHbaraGvOmbDIF1bYgqOELpppEDuoyt7Xi7HFeglnKQiGPHyFnvTu6_o-VE4a56U_vfbkDPeNfa98kaF2d41eyYIUIsj28atYGSk6UEEKCUoM6ku1_ICSb1hRvnnufdoZ-Z7HEjpaYnPqQDuTQOqWtb8oVJaLXCSKD4dbIolO1WpIGcOgognBf-neWfwbzQAThL3JBsJacrvdEowUA9ImTVsyyFrEwug9wysOzhKRfFVtuBnC7bZpqKJFFICvxZz3no3MUu83qxpnfJEyqTGXGXd-jaTPjEmQ6SJacBq3iVtgtNlXhXVofTdlZ-q1ww0wQKnklh5TpzrCZ-HyvUlV2IzygLtFX9T-Ru1]--></g></svg>