<?xml version="1.0" encoding="UTF-8" standalone="no"?><svg xmlns="http://www.w3.org/2000/svg" xmlns:xlink="http://www.w3.org/1999/xlink" contentStyleType="text/css" height="902px" preserveAspectRatio="none" style="width:2117px;height:902px;background:#FFFFFF;" version="1.1" viewBox="0 0 2117 902" width="2117px" zoomAndPan="magnify"><defs/><g><text fill="#000000" font-family="sans-serif" font-size="14" font-weight="bold" lengthAdjust="spacing" textLength="239" x="940.5" y="29.5332">US 5.1.19. - Process View [Level 3]</text><rect fill="#FFFFFF" height="664.6563" style="stroke:#181818;stroke-width:1.0;" width="10" x="280" y="150.0781"/><rect fill="#FFFFFF" height="530.0313" style="stroke:#181818;stroke-width:1.0;" width="10" x="747.5" y="284.7031"/><rect fill="#FFFFFF" height="451.7188" style="stroke:#181818;stroke-width:1.0;" width="10" x="1150.5" y="323.8594"/><rect fill="#FFFFFF" height="50.1563" style="stroke:#181818;stroke-width:1.0;" width="10" x="1155.5" y="371.0156"/><rect fill="#FFFFFF" height="39.1563" style="stroke:#181818;stroke-width:1.0;" width="10" x="1483.5" y="492.3281"/><rect fill="#FFFFFF" height="114.4688" style="stroke:#181818;stroke-width:1.0;" width="10" x="1749" y="614.9531"/><rect fill="none" height="190.9375" style="stroke:#000000;stroke-width:1.5;" width="1085" x="1026" y="546.4844"/><line style="stroke:#181818;stroke-width:0.5;stroke-dasharray:5.0,5.0;" x1="285" x2="285" y1="108.9219" y2="832.7344"/><line style="stroke:#181818;stroke-width:0.5;stroke-dasharray:5.0,5.0;" x1="510" x2="510" y1="108.9219" y2="832.7344"/><line style="stroke:#181818;stroke-width:0.5;stroke-dasharray:5.0,5.0;" x1="752" x2="752" y1="108.9219" y2="832.7344"/><line style="stroke:#181818;stroke-width:0.5;stroke-dasharray:5.0,5.0;" x1="1155" x2="1155" y1="108.9219" y2="832.7344"/><line style="stroke:#181818;stroke-width:0.5;stroke-dasharray:5.0,5.0;" x1="1488" x2="1488" y1="108.9219" y2="832.7344"/><line style="stroke:#181818;stroke-width:0.5;stroke-dasharray:5.0,5.0;" x1="1754" x2="1754" y1="108.9219" y2="832.7344"/><line style="stroke:#181818;stroke-width:0.5;stroke-dasharray:5.0,5.0;" x1="1993" x2="1993" y1="670.6094" y2="832.7344"/><rect fill="#E2E2F0" height="64.3125" rx="2.5" ry="2.5" style="stroke:#181818;stroke-width:0.5;" width="226" x="172" y="43.6094"/><text fill="#000000" font-family="sans-serif" font-size="20" font-style="italic" lengthAdjust="spacing" textLength="67" x="251.5" y="71.3711">«route»</text><text fill="#000000" font-family="sans-serif" font-size="20" lengthAdjust="spacing" textLength="212" x="179" y="96.5273">OperationRequestRoute</text><rect fill="#E2E2F0" height="64.3125" rx="2.5" ry="2.5" style="stroke:#181818;stroke-width:0.5;" width="226" x="172" y="831.7344"/><text fill="#000000" font-family="sans-serif" font-size="20" font-style="italic" lengthAdjust="spacing" textLength="67" x="251.5" y="859.4961">«route»</text><text fill="#000000" font-family="sans-serif" font-size="20" lengthAdjust="spacing" textLength="212" x="179" y="884.6523">OperationRequestRoute</text><rect fill="#E2E2F0" height="64.3125" rx="2.5" ry="2.5" style="stroke:#181818;stroke-width:0.5;" width="205" x="408" y="43.6094"/><text fill="#000000" font-family="sans-serif" font-size="20" font-style="italic" lengthAdjust="spacing" textLength="49" x="486" y="71.3711">«dto»</text><text fill="#000000" font-family="sans-serif" font-size="20" lengthAdjust="spacing" textLength="191" x="415" y="96.5273">OperationRequestDto</text><rect fill="#E2E2F0" height="64.3125" rx="2.5" ry="2.5" style="stroke:#181818;stroke-width:0.5;" width="205" x="408" y="831.7344"/><text fill="#000000" font-family="sans-serif" font-size="20" font-style="italic" lengthAdjust="spacing" textLength="49" x="486" y="859.4961">«dto»</text><text fill="#000000" font-family="sans-serif" font-size="20" lengthAdjust="spacing" textLength="191" x="415" y="884.6523">OperationRequestDto</text><rect fill="#E2E2F0" height="64.3125" rx="2.5" ry="2.5" style="stroke:#181818;stroke-width:0.5;" width="259" x="623" y="43.6094"/><text fill="#000000" font-family="sans-serif" font-size="20" font-style="italic" lengthAdjust="spacing" textLength="105" x="700" y="71.3711">«controller»</text><text fill="#000000" font-family="sans-serif" font-size="20" lengthAdjust="spacing" textLength="245" x="630" y="96.5273">OperationRequestController</text><rect fill="#E2E2F0" height="64.3125" rx="2.5" ry="2.5" style="stroke:#181818;stroke-width:0.5;" width="259" x="623" y="831.7344"/><text fill="#000000" font-family="sans-serif" font-size="20" font-style="italic" lengthAdjust="spacing" textLength="105" x="700" y="859.4961">«controller»</text><text fill="#000000" font-family="sans-serif" font-size="20" lengthAdjust="spacing" textLength="245" x="630" y="884.6523">OperationRequestController</text><rect fill="#E2E2F0" height="64.3125" rx="2.5" ry="2.5" style="stroke:#181818;stroke-width:0.5;" width="239" x="1036" y="43.6094"/><text fill="#000000" font-family="sans-serif" font-size="20" font-style="italic" lengthAdjust="spacing" textLength="86" x="1112.5" y="71.3711">«service»</text><text fill="#000000" font-family="sans-serif" font-size="20" lengthAdjust="spacing" textLength="225" x="1043" y="96.5273">OperationRequestService</text><rect fill="#E2E2F0" height="64.3125" rx="2.5" ry="2.5" style="stroke:#181818;stroke-width:0.5;" width="239" x="1036" y="831.7344"/><text fill="#000000" font-family="sans-serif" font-size="20" font-style="italic" lengthAdjust="spacing" textLength="86" x="1112.5" y="859.4961">«service»</text><text fill="#000000" font-family="sans-serif" font-size="20" lengthAdjust="spacing" textLength="225" x="1043" y="884.6523">OperationRequestService</text><rect fill="#E2E2F0" height="64.3125" rx="2.5" ry="2.5" style="stroke:#181818;stroke-width:0.5;" width="269" x="1354" y="43.6094"/><text fill="#000000" font-family="sans-serif" font-size="20" font-style="italic" lengthAdjust="spacing" textLength="110" x="1433.5" y="71.3711">«repository»</text><text fill="#000000" font-family="sans-serif" font-size="20" lengthAdjust="spacing" textLength="255" x="1361" y="96.5273">OperationRequestRepository</text><rect fill="#E2E2F0" height="64.3125" rx="2.5" ry="2.5" style="stroke:#181818;stroke-width:0.5;" width="269" x="1354" y="831.7344"/><text fill="#000000" font-family="sans-serif" font-size="20" font-style="italic" lengthAdjust="spacing" textLength="110" x="1433.5" y="859.4961">«repository»</text><text fill="#000000" font-family="sans-serif" font-size="20" lengthAdjust="spacing" textLength="255" x="1361" y="884.6523">OperationRequestRepository</text><rect fill="#E2E2F0" height="64.3125" rx="2.5" ry="2.5" style="stroke:#181818;stroke-width:0.5;" width="242" x="1633" y="43.6094"/><text fill="#000000" font-family="sans-serif" font-size="20" font-style="italic" lengthAdjust="spacing" textLength="90" x="1709" y="71.3711">«mapper»</text><text fill="#000000" font-family="sans-serif" font-size="20" lengthAdjust="spacing" textLength="228" x="1640" y="96.5273">OperationRequestMapper</text><rect fill="#E2E2F0" height="64.3125" rx="2.5" ry="2.5" style="stroke:#181818;stroke-width:0.5;" width="242" x="1633" y="831.7344"/><text fill="#000000" font-family="sans-serif" font-size="20" font-style="italic" lengthAdjust="spacing" textLength="90" x="1709" y="859.4961">«mapper»</text><text fill="#000000" font-family="sans-serif" font-size="20" lengthAdjust="spacing" textLength="228" x="1640" y="884.6523">OperationRequestMapper</text><rect fill="#E2E2F0" height="64.3125" rx="2.5" ry="2.5" style="stroke:#181818;stroke-width:0.5;" width="216" x="1885" y="831.7344"/><text fill="#000000" font-family="sans-serif" font-size="20" font-style="italic" lengthAdjust="spacing" textLength="49" x="1968.5" y="859.4961">«dto»</text><text fill="#000000" font-family="sans-serif" font-size="20" lengthAdjust="spacing" textLength="202" x="1892" y="884.6523">OperationRequestDTO</text><rect fill="#FFFFFF" height="664.6563" style="stroke:#181818;stroke-width:1.0;" width="10" x="280" y="150.0781"/><rect fill="#FFFFFF" height="530.0313" style="stroke:#181818;stroke-width:1.0;" width="10" x="747.5" y="284.7031"/><rect fill="#FFFFFF" height="451.7188" style="stroke:#181818;stroke-width:1.0;" width="10" x="1150.5" y="323.8594"/><rect fill="#FFFFFF" height="50.1563" style="stroke:#181818;stroke-width:1.0;" width="10" x="1155.5" y="371.0156"/><rect fill="#FFFFFF" height="39.1563" style="stroke:#181818;stroke-width:1.0;" width="10" x="1483.5" y="492.3281"/><rect fill="#FFFFFF" height="114.4688" style="stroke:#181818;stroke-width:1.0;" width="10" x="1749" y="614.9531"/><ellipse cx="7.5" cy="149.3281" fill="none" rx="4" ry="4" style="stroke:#181818;stroke-width:1.5;"/><polygon fill="#181818" points="268,146.0781,278,150.0781,268,154.0781,272,150.0781" style="stroke:#181818;stroke-width:1.0;"/><line style="stroke:#181818;stroke-width:1.0;" x1="12" x2="274" y1="150.0781" y2="150.0781"/><text fill="#000000" font-family="sans-serif" font-size="20" font-weight="bold" lengthAdjust="spacing" textLength="11" x="15" y="143.6836">1</text><text fill="#000000" font-family="sans-serif" font-size="20" lengthAdjust="spacing" textLength="238" x="30" y="143.6836">GET /Operationrequisitions</text><path d="M295,163.0781 L295,248.0781 L608,248.0781 L608,173.0781 L598,163.0781 L295,163.0781 " fill="#FEFFDD" style="stroke:#181818;stroke-width:0.5;"/><path d="M598,163.0781 L598,173.0781 L608,173.0781 L598,163.0781 " fill="#FEFFDD" style="stroke:#181818;stroke-width:0.5;"/><text fill="#000000" font-family="sans-serif" font-size="20" font-weight="bold" lengthAdjust="spacing" textLength="71" x="301" y="188.8398">Params</text><text fill="#000000" font-family="sans-serif" font-size="20" lengthAdjust="spacing" textLength="6" x="372" y="188.8398">:</text><text fill="#000000" font-family="sans-serif" font-size="20" font-weight="bold" lengthAdjust="spacing" textLength="90" x="384" y="188.8398">[optional]</text><text fill="#000000" font-family="sans-serif" font-size="20" lengthAdjust="spacing" textLength="113" x="480" y="188.8398">patientname,</text><text fill="#000000" font-family="sans-serif" font-size="20" lengthAdjust="spacing" textLength="263" x="301" y="213.9961">operationtype, priority, status,</text><text fill="#000000" font-family="sans-serif" font-size="20" lengthAdjust="spacing" textLength="229" x="301" y="239.1523">daterequest, deadlinedate</text><polygon fill="#181818" points="735.5,280.7031,745.5,284.7031,735.5,288.7031,739.5,284.7031" style="stroke:#181818;stroke-width:1.0;"/><line style="stroke:#181818;stroke-width:1.0;" x1="290" x2="741.5" y1="284.7031" y2="284.7031"/><text fill="#000000" font-family="sans-serif" font-size="20" font-weight="bold" lengthAdjust="spacing" textLength="11" x="297" y="278.3086">2</text><text fill="#000000" font-family="sans-serif" font-size="20" lengthAdjust="spacing" textLength="359" x="312" y="278.3086">getOperationRequisitionsByFilters(filters)</text><polygon fill="#181818" points="1138.5,319.8594,1148.5,323.8594,1138.5,327.8594,1142.5,323.8594" style="stroke:#181818;stroke-width:1.0;"/><line style="stroke:#181818;stroke-width:1.0;" x1="757.5" x2="1144.5" y1="323.8594" y2="323.8594"/><text fill="#000000" font-family="sans-serif" font-size="20" font-weight="bold" lengthAdjust="spacing" textLength="11" x="764.5" y="317.4648">3</text><text fill="#000000" font-family="sans-serif" font-size="20" lengthAdjust="spacing" textLength="359" x="779.5" y="317.4648">getOperationRequisitionsByFilters(filters)</text><line style="stroke:#181818;stroke-width:1.0;" x1="1160.5" x2="1207.5" y1="358.0156" y2="358.0156"/><line style="stroke:#181818;stroke-width:1.0;" x1="1207.5" x2="1207.5" y1="358.0156" y2="371.0156"/><line style="stroke:#181818;stroke-width:1.0;" x1="1166.5" x2="1207.5" y1="371.0156" y2="371.0156"/><polygon fill="#181818" points="1176.5,367.0156,1166.5,371.0156,1176.5,375.0156,1172.5,371.0156" style="stroke:#181818;stroke-width:1.0;"/><text fill="#000000" font-family="sans-serif" font-size="20" font-weight="bold" lengthAdjust="spacing" textLength="11" x="1172.5" y="351.6211">4</text><text fill="#000000" font-family="sans-serif" font-size="20" lengthAdjust="spacing" textLength="294" x="1187.5" y="351.6211">generateQueryFromFilters(filters)</text><line style="stroke:#181818;stroke-width:1.0;stroke-dasharray:2.0,2.0;" x1="1165.5" x2="1207.5" y1="420.1719" y2="420.1719"/><line style="stroke:#181818;stroke-width:1.0;stroke-dasharray:2.0,2.0;" x1="1207.5" x2="1207.5" y1="420.1719" y2="433.1719"/><line style="stroke:#181818;stroke-width:1.0;stroke-dasharray:2.0,2.0;" x1="1160.5" x2="1207.5" y1="433.1719" y2="433.1719"/><polygon fill="#181818" points="1170.5,429.1719,1160.5,433.1719,1170.5,437.1719,1166.5,433.1719" style="stroke:#181818;stroke-width:1.0;"/><text fill="#000000" font-family="sans-serif" font-size="20" font-weight="bold" lengthAdjust="spacing" textLength="11" x="1172.5" y="413.7773">5</text><text fill="#000000" font-family="sans-serif" font-size="20" lengthAdjust="spacing" textLength="49" x="1187.5" y="413.7773">query</text><polygon fill="#181818" points="1471.5,488.3281,1481.5,492.3281,1471.5,496.3281,1475.5,492.3281" style="stroke:#181818;stroke-width:1.0;"/><line style="stroke:#181818;stroke-width:1.0;" x1="1160.5" x2="1477.5" y1="492.3281" y2="492.3281"/><text fill="#000000" font-family="sans-serif" font-size="20" font-weight="bold" lengthAdjust="spacing" textLength="11" x="1167.5" y="485.9336">6</text><text fill="#000000" font-family="sans-serif" font-size="20" lengthAdjust="spacing" textLength="218" x="1182.5" y="485.9336">findAllConditioned(query)</text><polygon fill="#181818" points="1171.5,527.4844,1161.5,531.4844,1171.5,535.4844,1167.5,531.4844" style="stroke:#181818;stroke-width:1.0;"/><line style="stroke:#181818;stroke-width:1.0;stroke-dasharray:2.0,2.0;" x1="1165.5" x2="1487.5" y1="531.4844" y2="531.4844"/><text fill="#000000" font-family="sans-serif" font-size="20" font-weight="bold" lengthAdjust="spacing" textLength="11" x="1177.5" y="525.0898">7</text><text fill="#000000" font-family="sans-serif" font-size="20" lengthAdjust="spacing" textLength="165" x="1192.5" y="525.0898">operationRequests</text><path d="M1026,546.4844 L1112,546.4844 L1112,563.6406 L1102,573.6406 L1026,573.6406 L1026,546.4844 " fill="#EEEEEE" style="stroke:#000000;stroke-width:1.5;"/><rect fill="none" height="190.9375" style="stroke:#000000;stroke-width:1.5;" width="1085" x="1026" y="546.4844"/><text fill="#000000" font-family="sans-serif" font-size="20" font-weight="bold" lengthAdjust="spacing" textLength="41" x="1041" y="568.2461">loop</text><text fill="#000000" font-family="sans-serif" font-size="20" font-weight="bold" lengthAdjust="spacing" textLength="274" x="1127" y="569.2461">[for all the profiles in the list]</text><polygon fill="#181818" points="1737,610.9531,1747,614.9531,1737,618.9531,1741,614.9531" style="stroke:#181818;stroke-width:1.0;"/><line style="stroke:#181818;stroke-width:1.0;" x1="1160.5" x2="1743" y1="614.9531" y2="614.9531"/><text fill="#000000" font-family="sans-serif" font-size="20" font-weight="bold" lengthAdjust="spacing" textLength="11" x="1167.5" y="608.5586">8</text><text fill="#000000" font-family="sans-serif" font-size="20" lengthAdjust="spacing" textLength="228" x="1182.5" y="608.5586">toDTO(operationRequest)</text><polygon fill="#181818" points="1873,650.1094,1883,654.1094,1873,658.1094,1877,654.1094" style="stroke:#181818;stroke-width:1.0;"/><line style="stroke:#181818;stroke-width:1.0;" x1="1759" x2="1879" y1="654.1094" y2="654.1094"/><text fill="#000000" font-family="sans-serif" font-size="20" font-weight="bold" lengthAdjust="spacing" textLength="11" x="1766" y="647.7148">9</text><text fill="#000000" font-family="sans-serif" font-size="20" lengthAdjust="spacing" textLength="70" x="1781" y="647.7148">create()</text><rect fill="#E2E2F0" height="64.3125" rx="2.5" ry="2.5" style="stroke:#181818;stroke-width:0.5;" width="216" x="1885" y="622.9531"/><text fill="#000000" font-family="sans-serif" font-size="20" font-style="italic" lengthAdjust="spacing" textLength="49" x="1968.5" y="650.7148">«dto»</text><text fill="#000000" font-family="sans-serif" font-size="20" lengthAdjust="spacing" textLength="202" x="1892" y="675.8711">OperationRequestDTO</text><polygon fill="#181818" points="1171.5,725.4219,1161.5,729.4219,1171.5,733.4219,1167.5,729.4219" style="stroke:#181818;stroke-width:1.0;"/><line style="stroke:#181818;stroke-width:1.0;stroke-dasharray:2.0,2.0;" x1="1165.5" x2="1753" y1="729.4219" y2="729.4219"/><text fill="#000000" font-family="sans-serif" font-size="20" font-weight="bold" lengthAdjust="spacing" textLength="22" x="1177.5" y="723.0273">10</text><text fill="#000000" font-family="sans-serif" font-size="20" lengthAdjust="spacing" textLength="197" x="1203.5" y="723.0273">operationRequestDTO</text><polygon fill="#181818" points="768.5,771.5781,758.5,775.5781,768.5,779.5781,764.5,775.5781" style="stroke:#181818;stroke-width:1.0;"/><line style="stroke:#181818;stroke-width:1.0;stroke-dasharray:2.0,2.0;" x1="762.5" x2="1154.5" y1="775.5781" y2="775.5781"/><text fill="#000000" font-family="sans-serif" font-size="20" font-weight="bold" lengthAdjust="spacing" textLength="22" x="774.5" y="769.1836">11</text><text fill="#000000" font-family="sans-serif" font-size="20" lengthAdjust="spacing" textLength="207" x="800.5" y="769.1836">operationRequestDTOs</text><polygon fill="#181818" points="296,810.7344,286,814.7344,296,818.7344,292,814.7344" style="stroke:#181818;stroke-width:1.0;"/><line style="stroke:#181818;stroke-width:1.0;stroke-dasharray:2.0,2.0;" x1="290" x2="751.5" y1="814.7344" y2="814.7344"/><text fill="#000000" font-family="sans-serif" font-size="20" font-weight="bold" lengthAdjust="spacing" textLength="22" x="302" y="808.3398">12</text><text fill="#000000" font-family="sans-serif" font-size="20" lengthAdjust="spacing" textLength="207" x="328" y="808.3398">operationRequestDTOs</text><!--SRC=[dPHjRzem4CVV-rES-WeYO8MkLHjLrLeAdIeGZAUzwAh9JGvgrTYfxJ0nzSFlx9IKegr8omkI7FUx1z__Of-4ohZXIwcJ9qmXnJdFfUjgvSRYDqBha34dd4Guc8xXkD5iDCyQK8UXqGbQ2pE1l-2kXokKS7H_m1ZFdLRvyW4DexXE92BZoi7184F3dT1gXCyvMZVIkSC3u1P6W-ca0-VdnbikBZx6hfqEKCRTpzHfmkXt7zIcReoM4arWsvDHZy2ajExZnsXM8Ycg7S_QnDh2iWySOQQjSDgiYquxmu5ljBJku_iyorwBxbyE2Lq6mzv3cWm2G_VoW1Yxq_MBuh1ZkEbCu5E96S84LKIFbl74YHLtMBWofUdHYCMZ0pr_nQDew2LZeoY6ABhJcIUvl8yYFnU1oYc-nDeFfJSPt3h36cH6Q2FSkWRMSPTRyaWfaocghf7uU2g5GczahD05rUpd5SC2tRi-DmLVhRj2KX1RcHVtwbiBdcGip9lYqEZ-Bmo1T7v-yaKKy66K3uBVSZJhhj7BZ-d0bl2pXnXrk-toyl9IvWX2YM4kL7ef9Sat3KLYMWdeLd3loOBxMtYz8mUxdIe03EYIMcSmrmQubE0UaSQZgNgq85HubyAwuEclrygy36DmcgHLsSrJBPtBREJEIgjdAOHN9IabXiGW-LIgEnx_x8F0qdEh8v_3cr2beIUscLKfdRy4ihl7NuZaRKFsCK5Qxmif5iQNyeLgoPUIiQ6a1PtsUx0YJL0mQ3PQXwsZHhCopXNSSWMjCsYsukFJ-FW4ljDM-h-hh78px87LkKaGKXg34G-vBwRARlcAmoXNJYmn1lzMcVIhCEviZD1HAs6qMj8QijjPlt22hzgDC-s2yydd-fLmu3zhQ63MPzV5Lv_GHAT2BMAOJhhrKzRZQf7p1INA76jhIc3MCGmdVm00]--></g></svg>