<svg xmlns="http://www.w3.org/2000/svg" xmlns:xlink="http://www.w3.org/1999/xlink" contentStyleType="text/css" height="1710px" preserveAspectRatio="none" style="width:1652px;height:1710px;background:#FFFFFF;" version="1.1" viewBox="0 0 1652 1710" width="1652px" zoomAndPan="magnify"><title>US 5.1.10. Process View (Level 3)</title><defs/><g><text fill="#000000" font-family="sans-serif" font-size="14" font-weight="bold" lengthAdjust="spacing" textLength="264.4209" x="690.1724" y="27.9951">US 5.1.10. Process View (Level 3)</text><rect fill="#FFFFFF" height="472.4531" style="stroke:#181818;stroke-width:1.0;" width="10" x="97.9858" y="131.5898"/><rect fill="#FFFFFF" height="306.6563" style="stroke:#181818;stroke-width:1.0;" width="10" x="97.9858" y="646.7422"/><rect fill="#FFFFFF" height="532.3477" style="stroke:#181818;stroke-width:1.0;" width="10" x="97.9858" y="993.0977"/><rect fill="#FFFFFF" height="393.0547" style="stroke:#181818;stroke-width:1.0;" width="10" x="291.4473" y="171.2891"/><rect fill="#FFFFFF" height="245.3906" style="stroke:#181818;stroke-width:1.0;" width="10" x="291.4473" y="678.875"/><rect fill="#FFFFFF" height="463.5156" style="stroke:#181818;stroke-width:1.0;" width="10" x="291.4473" y="1032.7969"/><rect fill="#FFFFFF" height="292.6563" style="stroke:#181818;stroke-width:1.0;" width="10" x="503.0439" y="200.4219"/><rect fill="#FFFFFF" height="87.3984" style="stroke:#181818;stroke-width:1.0;" width="10" x="503.0439" y="765.6016"/><rect fill="#FFFFFF" height="305.5234" style="stroke:#181818;stroke-width:1.0;" width="10" x="503.0439" y="1119.5234"/><rect fill="#FFFFFF" height="29.1328" style="stroke:#181818;stroke-width:1.0;" width="10" x="668.9375" y="229.5547"/><rect fill="#FFFFFF" height="29.1328" style="stroke:#181818;stroke-width:1.0;" width="10" x="668.9375" y="794.7344"/><rect fill="#FFFFFF" height="29.1328" style="stroke:#181818;stroke-width:1.0;" width="10" x="668.9375" y="1148.6563"/><rect fill="#FFFFFF" height="86.2656" style="stroke:#181818;stroke-width:1.0;" width="10" x="668.9375" y="1266.0547"/><rect fill="#FFFFFF" height="43.1328" style="stroke:#181818;stroke-width:1.0;" width="10" x="668.9375" y="1597.7109"/><rect fill="#FFFFFF" height="29.1328" style="stroke:#181818;stroke-width:1.0;" width="10" x="811.7119" y="427.8125"/><rect fill="#FFFFFF" height="29.1328" style="stroke:#181818;stroke-width:1.0;" width="10" x="925.7651" y="369.5469"/><rect fill="#FFFFFF" height="30" style="stroke:#181818;stroke-width:1.0;" width="10" x="925.7651" y="1206.9219"/><rect fill="#FFFFFF" height="14" style="stroke:#181818;stroke-width:1.0;" width="10" x="1195.0513" y="1338.3203"/><rect fill="#FFFFFF" height="278.5234" style="stroke:#181818;stroke-width:1.0;" width="10" x="1414.4326" y="1362.3203"/><rect fill="none" height="133.6641" style="stroke:#000000;stroke-width:1.5;" width="545.2329" x="438.2603" y="331.2813"/><line style="stroke:#181818;stroke-width:0.5;stroke-dasharray:5.0,5.0;" x1="102.4385" x2="102.4385" y1="89.8906" y2="1658.8438"/><line style="stroke:#181818;stroke-width:0.5;stroke-dasharray:5.0,5.0;" x1="295.9478" x2="295.9478" y1="89.8906" y2="1658.8438"/><line style="stroke:#181818;stroke-width:0.5;stroke-dasharray:5.0,5.0;" x1="507.2603" x2="507.2603" y1="89.8906" y2="1658.8438"/><line style="stroke:#181818;stroke-width:0.5;stroke-dasharray:5.0,5.0;" x1="673.4883" x2="673.4883" y1="89.8906" y2="1658.8438"/><line style="stroke:#181818;stroke-width:0.5;stroke-dasharray:5.0,5.0;" x1="816.3867" x2="816.3867" y1="305.4844" y2="1658.8438"/><line style="stroke:#181818;stroke-width:0.5;stroke-dasharray:5.0,5.0;" x1="930.0371" x2="930.0371" y1="89.8906" y2="1658.8438"/><line style="stroke:#181818;stroke-width:0.5;stroke-dasharray:5.0,5.0;" x1="1032.4932" x2="1032.4932" y1="1079.5938" y2="1658.8438"/><line style="stroke:#181818;stroke-width:0.5;stroke-dasharray:5.0,5.0;" x1="1199.6709" x2="1199.6709" y1="89.8906" y2="1658.8438"/><line style="stroke:#181818;stroke-width:0.5;stroke-dasharray:5.0,5.0;" x1="1419.4316" x2="1419.4316" y1="1385.1172" y2="1658.8438"/><line style="stroke:#181818;stroke-width:0.5;stroke-dasharray:5.0,5.0;" x1="1585.4336" x2="1585.4336" y1="89.8906" y2="1658.8438"/><rect fill="#E2E2F0" height="46.5938" rx="2.5" ry="2.5" style="stroke:#181818;stroke-width:0.5;" width="109.0947" x="48.4385" y="42.2969"/><text fill="#000000" font-family="sans-serif" font-size="14" lengthAdjust="spacing" textLength="58.3994" x="73.7861" y="62.292">&#171;Route&#187;</text><text fill="#000000" font-family="sans-serif" font-size="14" lengthAdjust="spacing" textLength="90.6445" x="59.8887" y="78.5889">PatientRoute</text><rect fill="#E2E2F0" height="46.5938" rx="2.5" ry="2.5" style="stroke:#181818;stroke-width:0.5;" width="109.0947" x="48.4385" y="1657.8438"/><text fill="#000000" font-family="sans-serif" font-size="14" lengthAdjust="spacing" textLength="58.3994" x="73.7861" y="1677.8389">&#171;Route&#187;</text><text fill="#000000" font-family="sans-serif" font-size="14" lengthAdjust="spacing" textLength="90.6445" x="59.8887" y="1694.1357">PatientRoute</text><rect fill="#E2E2F0" height="46.5938" rx="2.5" ry="2.5" style="stroke:#181818;stroke-width:0.5;" width="136.999" x="227.9478" y="42.2969"/><text fill="#000000" font-family="sans-serif" font-size="14" lengthAdjust="spacing" textLength="86.3037" x="253.2954" y="62.292">&#171;Controller&#187;</text><text fill="#000000" font-family="sans-serif" font-size="14" lengthAdjust="spacing" textLength="118.5488" x="239.3979" y="78.5889">PatientController</text><rect fill="#E2E2F0" height="46.5938" rx="2.5" ry="2.5" style="stroke:#181818;stroke-width:0.5;" width="136.999" x="227.9478" y="1657.8438"/><text fill="#000000" font-family="sans-serif" font-size="14" lengthAdjust="spacing" textLength="86.3037" x="253.2954" y="1677.8389">&#171;Controller&#187;</text><text fill="#000000" font-family="sans-serif" font-size="14" lengthAdjust="spacing" textLength="118.5488" x="239.3979" y="1694.1357">PatientController</text><rect fill="#E2E2F0" height="46.5938" rx="2.5" ry="2.5" style="stroke:#181818;stroke-width:0.5;" width="119.5674" x="448.2603" y="42.2969"/><text fill="#000000" font-family="sans-serif" font-size="14" lengthAdjust="spacing" textLength="68.8721" x="473.6079" y="62.292">&#171;Service&#187;</text><text fill="#000000" font-family="sans-serif" font-size="14" lengthAdjust="spacing" textLength="101.1172" x="459.7104" y="78.5889">PatientService</text><rect fill="#E2E2F0" height="46.5938" rx="2.5" ry="2.5" style="stroke:#181818;stroke-width:0.5;" width="119.5674" x="448.2603" y="1657.8438"/><text fill="#000000" font-family="sans-serif" font-size="14" lengthAdjust="spacing" textLength="68.8721" x="473.6079" y="1677.8389">&#171;Service&#187;</text><text fill="#000000" font-family="sans-serif" font-size="14" lengthAdjust="spacing" textLength="101.1172" x="459.7104" y="1694.1357">PatientService</text><rect fill="#E2E2F0" height="46.5938" rx="2.5" ry="2.5" style="stroke:#181818;stroke-width:0.5;" width="142.8984" x="602.4883" y="42.2969"/><text fill="#000000" font-family="sans-serif" font-size="14" lengthAdjust="spacing" textLength="92.2031" x="627.8359" y="62.292">&#171;Repository&#187;</text><text fill="#000000" font-family="sans-serif" font-size="14" lengthAdjust="spacing" textLength="124.4482" x="613.9385" y="78.5889">PatientRepository</text><rect fill="#E2E2F0" height="46.5938" rx="2.5" ry="2.5" style="stroke:#181818;stroke-width:0.5;" width="142.8984" x="602.4883" y="1657.8438"/><text fill="#000000" font-family="sans-serif" font-size="14" lengthAdjust="spacing" textLength="92.2031" x="627.8359" y="1677.8389">&#171;Repository&#187;</text><text fill="#000000" font-family="sans-serif" font-size="14" lengthAdjust="spacing" textLength="124.4482" x="613.9385" y="1694.1357">PatientRepository</text><rect fill="#E2E2F0" height="46.5938" rx="2.5" ry="2.5" style="stroke:#181818;stroke-width:0.5;" width="122.6504" x="755.3867" y="1657.8438"/><text fill="#000000" font-family="sans-serif" font-size="14" lengthAdjust="spacing" textLength="47.4824" x="792.9707" y="1677.8389">&#171;DTO&#187;</text><text fill="#000000" font-family="sans-serif" font-size="14" lengthAdjust="spacing" textLength="104.2002" x="766.8369" y="1694.1357">PatientListDTO</text><rect fill="#E2E2F0" height="46.5938" rx="2.5" ry="2.5" style="stroke:#181818;stroke-width:0.5;" width="85.4561" x="888.0371" y="42.2969"/><text fill="#000000" font-family="sans-serif" font-size="14" lengthAdjust="spacing" textLength="71.4561" x="895.0371" y="62.292">&#171;Domain&#187;</text><text fill="#000000" font-family="sans-serif" font-size="14" lengthAdjust="spacing" textLength="49.376" x="908.3022" y="78.5889">Patient</text><rect fill="#E2E2F0" height="46.5938" rx="2.5" ry="2.5" style="stroke:#181818;stroke-width:0.5;" width="85.4561" x="888.0371" y="1657.8438"/><text fill="#000000" font-family="sans-serif" font-size="14" lengthAdjust="spacing" textLength="71.4561" x="895.0371" y="1677.8389">&#171;Domain&#187;</text><text fill="#000000" font-family="sans-serif" font-size="14" lengthAdjust="spacing" textLength="49.376" x="908.3022" y="1694.1357">Patient</text><rect fill="#E2E2F0" height="46.5938" rx="2.5" ry="2.5" style="stroke:#181818;stroke-width:0.5;" width="98.1777" x="983.4932" y="1657.8438"/><text fill="#000000" font-family="sans-serif" font-size="14" lengthAdjust="spacing" textLength="47.4824" x="1008.8408" y="1677.8389">&#171;DTO&#187;</text><text fill="#000000" font-family="sans-serif" font-size="14" lengthAdjust="spacing" textLength="79.7275" x="994.9434" y="1694.1357">PatientDTO</text><rect fill="#E2E2F0" height="46.5938" rx="2.5" ry="2.5" style="stroke:#181818;stroke-width:0.5;" width="216.7607" x="1091.6709" y="42.2969"/><text fill="#000000" font-family="sans-serif" font-size="14" lengthAdjust="spacing" textLength="116.0879" x="1142.0073" y="62.292">&#171;EventWatcher&#187;</text><text fill="#000000" font-family="sans-serif" font-size="14" lengthAdjust="spacing" textLength="198.3105" x="1103.1211" y="78.5889">DeletePatientProfileWatcher</text><rect fill="#E2E2F0" height="46.5938" rx="2.5" ry="2.5" style="stroke:#181818;stroke-width:0.5;" width="216.7607" x="1091.6709" y="1657.8438"/><text fill="#000000" font-family="sans-serif" font-size="14" lengthAdjust="spacing" textLength="116.0879" x="1142.0073" y="1677.8389">&#171;EventWatcher&#187;</text><text fill="#000000" font-family="sans-serif" font-size="14" lengthAdjust="spacing" textLength="198.3105" x="1103.1211" y="1694.1357">DeletePatientProfileWatcher</text><rect fill="#E2E2F0" height="46.5938" rx="2.5" ry="2.5" style="stroke:#181818;stroke-width:0.5;" width="202.002" x="1318.4316" y="1657.8438"/><text fill="#000000" font-family="sans-serif" font-size="14" lengthAdjust="spacing" textLength="61.2227" x="1388.8213" y="1677.8389">&#171;Action&#187;</text><text fill="#000000" font-family="sans-serif" font-size="14" lengthAdjust="spacing" textLength="183.5518" x="1329.8818" y="1694.1357">DeletePatientProfileAction</text><rect fill="#E2E2F0" height="46.5938" rx="2.5" ry="2.5" style="stroke:#181818;stroke-width:0.5;" width="110.332" x="1530.4336" y="42.2969"/><text fill="#000000" font-family="sans-serif" font-size="14" lengthAdjust="spacing" textLength="96.332" x="1537.4336" y="62.292">&#171;component&#187;</text><text fill="#000000" font-family="sans-serif" font-size="14" lengthAdjust="spacing" textLength="80.5752" x="1547.5371" y="78.5889">Persistence</text><rect fill="#E2E2F0" height="46.5938" rx="2.5" ry="2.5" style="stroke:#181818;stroke-width:0.5;" width="110.332" x="1530.4336" y="1657.8438"/><text fill="#000000" font-family="sans-serif" font-size="14" lengthAdjust="spacing" textLength="96.332" x="1537.4336" y="1677.8389">&#171;component&#187;</text><text fill="#000000" font-family="sans-serif" font-size="14" lengthAdjust="spacing" textLength="80.5752" x="1547.5371" y="1694.1357">Persistence</text><rect fill="#FFFFFF" height="472.4531" style="stroke:#181818;stroke-width:1.0;" width="10" x="97.9858" y="131.5898"/><rect fill="#FFFFFF" height="306.6563" style="stroke:#181818;stroke-width:1.0;" width="10" x="97.9858" y="646.7422"/><rect fill="#FFFFFF" height="532.3477" style="stroke:#181818;stroke-width:1.0;" width="10" x="97.9858" y="993.0977"/><rect fill="#FFFFFF" height="393.0547" style="stroke:#181818;stroke-width:1.0;" width="10" x="291.4473" y="171.2891"/><rect fill="#FFFFFF" height="245.3906" style="stroke:#181818;stroke-width:1.0;" width="10" x="291.4473" y="678.875"/><rect fill="#FFFFFF" height="463.5156" style="stroke:#181818;stroke-width:1.0;" width="10" x="291.4473" y="1032.7969"/><rect fill="#FFFFFF" height="292.6563" style="stroke:#181818;stroke-width:1.0;" width="10" x="503.0439" y="200.4219"/><rect fill="#FFFFFF" height="87.3984" style="stroke:#181818;stroke-width:1.0;" width="10" x="503.0439" y="765.6016"/><rect fill="#FFFFFF" height="305.5234" style="stroke:#181818;stroke-width:1.0;" width="10" x="503.0439" y="1119.5234"/><rect fill="#FFFFFF" height="29.1328" style="stroke:#181818;stroke-width:1.0;" width="10" x="668.9375" y="229.5547"/><rect fill="#FFFFFF" height="29.1328" style="stroke:#181818;stroke-width:1.0;" width="10" x="668.9375" y="794.7344"/><rect fill="#FFFFFF" height="29.1328" style="stroke:#181818;stroke-width:1.0;" width="10" x="668.9375" y="1148.6563"/><rect fill="#FFFFFF" height="86.2656" style="stroke:#181818;stroke-width:1.0;" width="10" x="668.9375" y="1266.0547"/><rect fill="#FFFFFF" height="43.1328" style="stroke:#181818;stroke-width:1.0;" width="10" x="668.9375" y="1597.7109"/><rect fill="#FFFFFF" height="29.1328" style="stroke:#181818;stroke-width:1.0;" width="10" x="811.7119" y="427.8125"/><rect fill="#FFFFFF" height="29.1328" style="stroke:#181818;stroke-width:1.0;" width="10" x="925.7651" y="369.5469"/><rect fill="#FFFFFF" height="30" style="stroke:#181818;stroke-width:1.0;" width="10" x="925.7651" y="1206.9219"/><rect fill="#FFFFFF" height="14" style="stroke:#181818;stroke-width:1.0;" width="10" x="1195.0513" y="1338.3203"/><rect fill="#FFFFFF" height="278.5234" style="stroke:#181818;stroke-width:1.0;" width="10" x="1414.4326" y="1362.3203"/><ellipse cx="7.5" cy="130.8398" fill="#000000" rx="4" ry="4" style="stroke:#181818;stroke-width:1.5;"/><polygon fill="#181818" points="85.9858,127.5898,95.9858,131.5898,85.9858,135.5898,89.9858,131.5898" style="stroke:#181818;stroke-width:1.0;"/><line style="stroke:#181818;stroke-width:1.0;" x1="12" x2="91.9858" y1="131.5898" y2="131.5898"/><text fill="#000000" font-family="sans-serif" font-size="13" lengthAdjust="spacing" textLength="62.9497" x="15" y="126.5239">GET(json)</text><path d="M112,104.8906 L112,144.8906 L221,144.8906 L221,114.8906 L211,104.8906 L112,104.8906 " fill="#FEFFDD" style="stroke:#181818;stroke-width:0.5;"/><path d="M211,104.8906 L211,114.8906 L221,114.8906 L211,104.8906 " fill="#FEFFDD" style="stroke:#181818;stroke-width:0.5;"/><text fill="#000000" font-family="sans-serif" font-size="13" lengthAdjust="spacing" textLength="72.0142" x="118" y="121.9575">getting the</text><text fill="#000000" font-family="sans-serif" font-size="13" lengthAdjust="spacing" textLength="88.0103" x="118" y="137.0903">list of profiles</text><polygon fill="#181818" points="279.4473,167.2891,289.4473,171.2891,279.4473,175.2891,283.4473,171.2891" style="stroke:#181818;stroke-width:1.0;"/><line style="stroke:#181818;stroke-width:1.0;" x1="107.9858" x2="285.4473" y1="171.2891" y2="171.2891"/><text fill="#000000" font-family="sans-serif" font-size="13" lengthAdjust="spacing" textLength="143.311" x="114.9858" y="166.2231">getListOfProfiles(json)</text><polygon fill="#181818" points="491.0439,196.4219,501.0439,200.4219,491.0439,204.4219,495.0439,200.4219" style="stroke:#181818;stroke-width:1.0;"/><line style="stroke:#181818;stroke-width:1.0;" x1="301.4473" x2="497.0439" y1="200.4219" y2="200.4219"/><text fill="#000000" font-family="sans-serif" font-size="13" lengthAdjust="spacing" textLength="116.7334" x="308.4473" y="195.356">getListOfProfiles()</text><polygon fill="#181818" points="656.9375,225.5547,666.9375,229.5547,656.9375,233.5547,660.9375,229.5547" style="stroke:#181818;stroke-width:1.0;"/><line style="stroke:#181818;stroke-width:1.0;" x1="513.0439" x2="662.9375" y1="229.5547" y2="229.5547"/><text fill="#000000" font-family="sans-serif" font-size="13" lengthAdjust="spacing" textLength="50.9399" x="520.0439" y="224.4888">findAll()</text><polygon fill="#181818" points="524.0439,254.6875,514.0439,258.6875,524.0439,262.6875,520.0439,258.6875" style="stroke:#181818;stroke-width:1.0;"/><line style="stroke:#181818;stroke-width:1.0;stroke-dasharray:2.0,2.0;" x1="518.0439" x2="672.9375" y1="258.6875" y2="258.6875"/><text fill="#000000" font-family="sans-serif" font-size="13" lengthAdjust="spacing" textLength="81.6118" x="530.0439" y="253.6216">listOfProfiles</text><polygon fill="#181818" points="743.3867,268.6875,753.3867,272.6875,743.3867,276.6875,747.3867,272.6875" style="stroke:#181818;stroke-width:1.0;"/><line style="stroke:#181818;stroke-width:1.0;" x1="513.0439" x2="749.3867" y1="272.6875" y2="272.6875"/><rect fill="#E2E2F0" height="46.5938" rx="2.5" ry="2.5" style="stroke:#181818;stroke-width:0.5;" width="122.6504" x="755.3867" y="266.6875"/><text fill="#000000" font-family="sans-serif" font-size="14" lengthAdjust="spacing" textLength="47.4824" x="792.9707" y="286.6826">&#171;DTO&#187;</text><text fill="#000000" font-family="sans-serif" font-size="14" lengthAdjust="spacing" textLength="104.2002" x="766.8369" y="302.9795">PatientListDTO</text><path d="M438.2603,331.2813 L514.8843,331.2813 L514.8843,338.4141 L504.8843,348.4141 L438.2603,348.4141 L438.2603,331.2813 " fill="#EEEEEE" style="stroke:#000000;stroke-width:1.5;"/><rect fill="none" height="133.6641" style="stroke:#000000;stroke-width:1.5;" width="545.2329" x="438.2603" y="331.2813"/><text fill="#000000" font-family="sans-serif" font-size="13" font-weight="bold" lengthAdjust="spacing" textLength="31.624" x="453.2603" y="344.3481">loop</text><text fill="#000000" font-family="sans-serif" font-size="11" font-weight="bold" lengthAdjust="spacing" textLength="210.9336" x="529.8843" y="343.4917">[for every profile in listOfProfiles]</text><polygon fill="#181818" points="913.7651,365.5469,923.7651,369.5469,913.7651,373.5469,917.7651,369.5469" style="stroke:#181818;stroke-width:1.0;"/><line style="stroke:#181818;stroke-width:1.0;" x1="513.0439" x2="919.7651" y1="369.5469" y2="369.5469"/><text fill="#000000" font-family="sans-serif" font-size="13" lengthAdjust="spacing" textLength="51.3779" x="520.0439" y="364.481">toDTO()</text><polygon fill="#181818" points="524.0439,394.6797,514.0439,398.6797,524.0439,402.6797,520.0439,398.6797" style="stroke:#181818;stroke-width:1.0;"/><line style="stroke:#181818;stroke-width:1.0;stroke-dasharray:2.0,2.0;" x1="518.0439" x2="929.7651" y1="398.6797" y2="398.6797"/><text fill="#000000" font-family="sans-serif" font-size="13" lengthAdjust="spacing" textLength="69.5322" x="530.0439" y="393.6138">profileDTO</text><polygon fill="#181818" points="799.7119,423.8125,809.7119,427.8125,799.7119,431.8125,803.7119,427.8125" style="stroke:#181818;stroke-width:1.0;"/><line style="stroke:#181818;stroke-width:1.0;" x1="513.0439" x2="805.7119" y1="427.8125" y2="427.8125"/><text fill="#000000" font-family="sans-serif" font-size="13" lengthAdjust="spacing" textLength="124.1665" x="520.0439" y="422.7466">listAdd(profileDTO)</text><polygon fill="#181818" points="524.0439,452.9453,514.0439,456.9453,524.0439,460.9453,520.0439,456.9453" style="stroke:#181818;stroke-width:1.0;"/><line style="stroke:#181818;stroke-width:1.0;stroke-dasharray:2.0,2.0;" x1="518.0439" x2="815.7119" y1="456.9453" y2="456.9453"/><text fill="#000000" font-family="sans-serif" font-size="13" lengthAdjust="spacing" textLength="40.2632" x="530.0439" y="451.8794">return</text><polygon fill="#181818" points="312.4473,489.0781,302.4473,493.0781,312.4473,497.0781,308.4473,493.0781" style="stroke:#181818;stroke-width:1.0;"/><line style="stroke:#181818;stroke-width:1.0;stroke-dasharray:2.0,2.0;" x1="306.4473" x2="507.0439" y1="493.0781" y2="493.0781"/><text fill="#000000" font-family="sans-serif" font-size="13" lengthAdjust="spacing" textLength="97.1699" x="318.4473" y="488.0122">patientListDTO</text><line style="stroke:#181818;stroke-width:1.0;" x1="301.4473" x2="343.4473" y1="522.2109" y2="522.2109"/><line style="stroke:#181818;stroke-width:1.0;" x1="343.4473" x2="343.4473" y1="522.2109" y2="535.2109"/><line style="stroke:#181818;stroke-width:1.0;" x1="302.4473" x2="343.4473" y1="535.2109" y2="535.2109"/><polygon fill="#181818" points="312.4473,531.2109,302.4473,535.2109,312.4473,539.2109,308.4473,535.2109" style="stroke:#181818;stroke-width:1.0;"/><text fill="#000000" font-family="sans-serif" font-size="13" lengthAdjust="spacing" textLength="122.7954" x="308.4473" y="517.145">ok(patientListDTO)</text><polygon fill="#181818" points="118.9858,560.3438,108.9858,564.3438,118.9858,568.3438,114.9858,564.3438" style="stroke:#181818;stroke-width:1.0;"/><line style="stroke:#181818;stroke-width:1.0;stroke-dasharray:2.0,2.0;" x1="112.9858" x2="295.4473" y1="564.3438" y2="564.3438"/><text fill="#000000" font-family="sans-serif" font-size="13" lengthAdjust="spacing" textLength="26.5776" x="124.9858" y="559.2778">json</text><polygon fill="#181818" points="11,600.043,1,604.043,11,608.043,7,604.043" style="stroke:#181818;stroke-width:1.0;"/><line style="stroke:#181818;stroke-width:1.0;stroke-dasharray:2.0,2.0;" x1="5" x2="101.9858" y1="604.043" y2="604.043"/><text fill="#000000" font-family="sans-serif" font-size="13" lengthAdjust="spacing" textLength="26.5776" x="17" y="598.9771">json</text><path d="M112,577.3438 L112,617.3438 L226,617.3438 L226,587.3438 L216,577.3438 L112,577.3438 " fill="#FEFFDD" style="stroke:#181818;stroke-width:0.5;"/><path d="M216,577.3438 L216,587.3438 L226,587.3438 L216,577.3438 " fill="#FEFFDD" style="stroke:#181818;stroke-width:0.5;"/><text fill="#000000" font-family="sans-serif" font-size="13" lengthAdjust="spacing" textLength="93.2852" x="118" y="594.4106">after choosing</text><text fill="#000000" font-family="sans-serif" font-size="13" lengthAdjust="spacing" textLength="53.4473" x="122.1323" y="609.5435">a profile</text><ellipse cx="7.5" cy="645.9922" fill="#000000" rx="4" ry="4" style="stroke:#181818;stroke-width:1.5;"/><polygon fill="#181818" points="85.9858,642.7422,95.9858,646.7422,85.9858,650.7422,89.9858,646.7422" style="stroke:#181818;stroke-width:1.0;"/><line style="stroke:#181818;stroke-width:1.0;" x1="12" x2="91.9858" y1="646.7422" y2="646.7422"/><text fill="#000000" font-family="sans-serif" font-size="13" lengthAdjust="spacing" textLength="70.9858" x="15" y="641.6763">POST(json)</text><path d="M112,627.6094 L112,652.6094 L190,652.6094 L190,637.6094 L180,627.6094 L112,627.6094 " fill="#FEFFDD" style="stroke:#181818;stroke-width:0.5;"/><path d="M180,627.6094 L180,637.6094 L190,637.6094 L180,627.6094 " fill="#FEFFDD" style="stroke:#181818;stroke-width:0.5;"/><text fill="#000000" font-family="sans-serif" font-size="13" lengthAdjust="spacing" textLength="57.3447" x="118" y="644.6763">profile id</text><polygon fill="#181818" points="279.4473,674.875,289.4473,678.875,279.4473,682.875,283.4473,678.875" style="stroke:#181818;stroke-width:1.0;"/><line style="stroke:#181818;stroke-width:1.0;" x1="107.9858" x2="285.4473" y1="678.875" y2="678.875"/><text fill="#000000" font-family="sans-serif" font-size="13" lengthAdjust="spacing" textLength="146.1738" x="114.9858" y="673.8091">checkProfileByID(json)</text><polygon fill="#181818" points="971.4932,704.0078,981.4932,708.0078,971.4932,712.0078,975.4932,708.0078" style="stroke:#181818;stroke-width:1.0;"/><line style="stroke:#181818;stroke-width:1.0;" x1="301.4473" x2="977.4932" y1="708.0078" y2="708.0078"/><text fill="#000000" font-family="sans-serif" font-size="13" lengthAdjust="spacing" textLength="77.9556" x="308.4473" y="702.9419">toDTO(json)</text><rect fill="#E2E2F0" height="46.5938" rx="2.5" ry="2.5" style="stroke:#181818;stroke-width:0.5;" width="98.1777" x="983.4932" y="686.875"/><text fill="#000000" font-family="sans-serif" font-size="14" lengthAdjust="spacing" textLength="47.4824" x="1008.8408" y="706.8701">&#171;DTO&#187;</text><text fill="#000000" font-family="sans-serif" font-size="14" lengthAdjust="spacing" textLength="79.7275" x="994.9434" y="723.167">PatientDTO</text><polygon fill="#181818" points="491.0439,761.6016,501.0439,765.6016,491.0439,769.6016,495.0439,765.6016" style="stroke:#181818;stroke-width:1.0;"/><line style="stroke:#181818;stroke-width:1.0;" x1="301.4473" x2="497.0439" y1="765.6016" y2="765.6016"/><text fill="#000000" font-family="sans-serif" font-size="13" lengthAdjust="spacing" textLength="179.7021" x="308.4473" y="760.5356">checkProfileByID(patientID)</text><polygon fill="#181818" points="656.9375,790.7344,666.9375,794.7344,656.9375,798.7344,660.9375,794.7344" style="stroke:#181818;stroke-width:1.0;"/><line style="stroke:#181818;stroke-width:1.0;" x1="513.0439" x2="662.9375" y1="794.7344" y2="794.7344"/><text fill="#000000" font-family="sans-serif" font-size="13" lengthAdjust="spacing" textLength="136.8936" x="520.0439" y="789.6685">existsById(patientID)</text><polygon fill="#181818" points="524.0439,819.8672,514.0439,823.8672,524.0439,827.8672,520.0439,823.8672" style="stroke:#181818;stroke-width:1.0;"/><line style="stroke:#181818;stroke-width:1.0;stroke-dasharray:2.0,2.0;" x1="518.0439" x2="672.9375" y1="823.8672" y2="823.8672"/><text fill="#000000" font-family="sans-serif" font-size="13" lengthAdjust="spacing" textLength="26.6792" x="530.0439" y="818.8013">true</text><polygon fill="#181818" points="312.4473,849,302.4473,853,312.4473,857,308.4473,853" style="stroke:#181818;stroke-width:1.0;"/><line style="stroke:#181818;stroke-width:1.0;stroke-dasharray:2.0,2.0;" x1="306.4473" x2="507.0439" y1="853" y2="853"/><text fill="#000000" font-family="sans-serif" font-size="13" lengthAdjust="spacing" textLength="26.6792" x="318.4473" y="847.9341">true</text><line style="stroke:#181818;stroke-width:1.0;stroke-dasharray:2.0,2.0;" x1="301.4473" x2="343.4473" y1="882.1328" y2="882.1328"/><line style="stroke:#181818;stroke-width:1.0;stroke-dasharray:2.0,2.0;" x1="343.4473" x2="343.4473" y1="882.1328" y2="895.1328"/><line style="stroke:#181818;stroke-width:1.0;stroke-dasharray:2.0,2.0;" x1="302.4473" x2="343.4473" y1="895.1328" y2="895.1328"/><polygon fill="#181818" points="312.4473,891.1328,302.4473,895.1328,312.4473,899.1328,308.4473,895.1328" style="stroke:#181818;stroke-width:1.0;"/><text fill="#000000" font-family="sans-serif" font-size="13" lengthAdjust="spacing" textLength="52.3047" x="308.4473" y="877.0669">ok(true)</text><polygon fill="#181818" points="118.9858,920.2656,108.9858,924.2656,118.9858,928.2656,114.9858,924.2656" style="stroke:#181818;stroke-width:1.0;"/><line style="stroke:#181818;stroke-width:1.0;stroke-dasharray:2.0,2.0;" x1="112.9858" x2="295.4473" y1="924.2656" y2="924.2656"/><text fill="#000000" font-family="sans-serif" font-size="13" lengthAdjust="spacing" textLength="26.5776" x="124.9858" y="919.1997">json</text><polygon fill="#181818" points="11,949.3984,1,953.3984,11,957.3984,7,953.3984" style="stroke:#181818;stroke-width:1.0;"/><line style="stroke:#181818;stroke-width:1.0;stroke-dasharray:2.0,2.0;" x1="5" x2="101.9858" y1="953.3984" y2="953.3984"/><text fill="#000000" font-family="sans-serif" font-size="13" lengthAdjust="spacing" textLength="26.5776" x="17" y="948.3325">json</text><ellipse cx="7.5" cy="992.3477" fill="#000000" rx="4" ry="4" style="stroke:#181818;stroke-width:1.5;"/><polygon fill="#181818" points="85.9858,989.0977,95.9858,993.0977,85.9858,997.0977,89.9858,993.0977" style="stroke:#181818;stroke-width:1.0;"/><line style="stroke:#181818;stroke-width:1.0;" x1="12" x2="91.9858" y1="993.0977" y2="993.0977"/><text fill="#000000" font-family="sans-serif" font-size="13" lengthAdjust="spacing" textLength="70.9858" x="15" y="988.0317">POST(json)</text><path d="M112,966.3984 L112,1006.3984 L245,1006.3984 L245,976.3984 L235,966.3984 L112,966.3984 " fill="#FEFFDD" style="stroke:#181818;stroke-width:0.5;"/><path d="M235,966.3984 L235,976.3984 L245,976.3984 L235,966.3984 " fill="#FEFFDD" style="stroke:#181818;stroke-width:0.5;"/><text fill="#000000" font-family="sans-serif" font-size="13" lengthAdjust="spacing" textLength="81.6626" x="118" y="983.4653">after getting</text><text fill="#000000" font-family="sans-serif" font-size="13" lengthAdjust="spacing" textLength="107.8721" x="122.1323" y="998.5981">the confirmation</text><polygon fill="#181818" points="279.4473,1028.7969,289.4473,1032.7969,279.4473,1036.7969,283.4473,1032.7969" style="stroke:#181818;stroke-width:1.0;"/><line style="stroke:#181818;stroke-width:1.0;" x1="107.9858" x2="285.4473" y1="1032.7969" y2="1032.7969"/><text fill="#000000" font-family="sans-serif" font-size="13" lengthAdjust="spacing" textLength="164.4614" x="114.9858" y="1027.731">deletePatientProfile(json)</text><polygon fill="#181818" points="971.4932,1057.9297,981.4932,1061.9297,971.4932,1065.9297,975.4932,1061.9297" style="stroke:#181818;stroke-width:1.0;"/><line style="stroke:#181818;stroke-width:1.0;" x1="301.4473" x2="977.4932" y1="1061.9297" y2="1061.9297"/><text fill="#000000" font-family="sans-serif" font-size="13" lengthAdjust="spacing" textLength="77.9556" x="308.4473" y="1056.8638">toDTO(json)</text><rect fill="#E2E2F0" height="46.5938" rx="2.5" ry="2.5" style="stroke:#181818;stroke-width:0.5;" width="98.1777" x="983.4932" y="1040.7969"/><text fill="#000000" font-family="sans-serif" font-size="14" lengthAdjust="spacing" textLength="47.4824" x="1008.8408" y="1060.792">&#171;DTO&#187;</text><text fill="#000000" font-family="sans-serif" font-size="14" lengthAdjust="spacing" textLength="79.7275" x="994.9434" y="1077.0889">PatientDTO</text><polygon fill="#181818" points="491.0439,1115.5234,501.0439,1119.5234,491.0439,1123.5234,495.0439,1119.5234" style="stroke:#181818;stroke-width:1.0;"/><line style="stroke:#181818;stroke-width:1.0;" x1="301.4473" x2="497.0439" y1="1119.5234" y2="1119.5234"/><text fill="#000000" font-family="sans-serif" font-size="13" lengthAdjust="spacing" textLength="182.5967" x="308.4473" y="1114.4575">deleteProfileByID(patientID)</text><polygon fill="#181818" points="656.9375,1144.6563,666.9375,1148.6563,656.9375,1152.6563,660.9375,1148.6563" style="stroke:#181818;stroke-width:1.0;"/><line style="stroke:#181818;stroke-width:1.0;" x1="513.0439" x2="662.9375" y1="1148.6563" y2="1148.6563"/><text fill="#000000" font-family="sans-serif" font-size="13" lengthAdjust="spacing" textLength="125.3853" x="520.0439" y="1143.5903">findByID(patientID)</text><polygon fill="#181818" points="524.0439,1173.7891,514.0439,1177.7891,524.0439,1181.7891,520.0439,1177.7891" style="stroke:#181818;stroke-width:1.0;"/><line style="stroke:#181818;stroke-width:1.0;stroke-dasharray:2.0,2.0;" x1="518.0439" x2="672.9375" y1="1177.7891" y2="1177.7891"/><text fill="#000000" font-family="sans-serif" font-size="13" lengthAdjust="spacing" textLength="87.1978" x="530.0439" y="1172.7231">patientProfile</text><polygon fill="#181818" points="913.7651,1202.9219,923.7651,1206.9219,913.7651,1210.9219,917.7651,1206.9219" style="stroke:#181818;stroke-width:1.0;"/><line style="stroke:#181818;stroke-width:1.0;" x1="513.0439" x2="919.7651" y1="1206.9219" y2="1206.9219"/><text fill="#000000" font-family="sans-serif" font-size="13" lengthAdjust="spacing" textLength="174.7065" x="520.0439" y="1201.856">changeStatusForDeletion()</text><polygon fill="#181818" points="656.9375,1262.0547,666.9375,1266.0547,656.9375,1270.0547,660.9375,1266.0547" style="stroke:#181818;stroke-width:1.0;"/><line style="stroke:#181818;stroke-width:1.0;" x1="513.0439" x2="662.9375" y1="1266.0547" y2="1266.0547"/><text fill="#000000" font-family="sans-serif" font-size="13" lengthAdjust="spacing" textLength="86.8359" x="520.0439" y="1260.9888">save(patient)</text><polygon fill="#181818" points="1573.5996,1276.0547,1583.5996,1280.0547,1573.5996,1284.0547,1577.5996,1280.0547" style="stroke:#181818;stroke-width:1.0;"/><line style="stroke:#181818;stroke-width:1.0;" x1="678.9375" x2="1579.5996" y1="1280.0547" y2="1280.0547"/><polygon fill="#181818" points="524.0439,1305.1875,514.0439,1309.1875,524.0439,1313.1875,520.0439,1309.1875" style="stroke:#181818;stroke-width:1.0;"/><line style="stroke:#181818;stroke-width:1.0;stroke-dasharray:2.0,2.0;" x1="518.0439" x2="667.9375" y1="1309.1875" y2="1309.1875"/><text fill="#000000" font-family="sans-serif" font-size="13" lengthAdjust="spacing" textLength="40.2632" x="530.0439" y="1304.1216">return</text><polygon fill="#181818" points="1183.0513,1334.3203,1193.0513,1338.3203,1183.0513,1342.3203,1187.0513,1338.3203" style="stroke:#181818;stroke-width:1.0;"/><line style="stroke:#181818;stroke-width:1.0;" x1="678.9375" x2="1189.0513" y1="1338.3203" y2="1338.3203"/><text fill="#000000" font-family="sans-serif" font-size="13" lengthAdjust="spacing" textLength="129.6636" x="685.9375" y="1333.2544">watcher notification</text><polygon fill="#181818" points="1306.4316,1348.3203,1316.4316,1352.3203,1306.4316,1356.3203,1310.4316,1352.3203" style="stroke:#181818;stroke-width:1.0;"/><line style="stroke:#181818;stroke-width:1.0;" x1="1200.0513" x2="1312.4316" y1="1352.3203" y2="1352.3203"/><rect fill="#E2E2F0" height="46.5938" rx="2.5" ry="2.5" style="stroke:#181818;stroke-width:0.5;" width="202.002" x="1318.4316" y="1346.3203"/><text fill="#000000" font-family="sans-serif" font-size="14" lengthAdjust="spacing" textLength="61.2227" x="1388.8213" y="1366.3154">&#171;Action&#187;</text><text fill="#000000" font-family="sans-serif" font-size="14" lengthAdjust="spacing" textLength="183.5518" x="1329.8818" y="1382.6123">DeletePatientProfileAction</text><polygon fill="#181818" points="312.4473,1421.0469,302.4473,1425.0469,312.4473,1429.0469,308.4473,1425.0469" style="stroke:#181818;stroke-width:1.0;"/><line style="stroke:#181818;stroke-width:1.0;stroke-dasharray:2.0,2.0;" x1="306.4473" x2="507.0439" y1="1425.0469" y2="1425.0469"/><text fill="#000000" font-family="sans-serif" font-size="13" lengthAdjust="spacing" textLength="40.2632" x="318.4473" y="1419.981">return</text><line style="stroke:#181818;stroke-width:1.0;stroke-dasharray:2.0,2.0;" x1="301.4473" x2="343.4473" y1="1454.1797" y2="1454.1797"/><line style="stroke:#181818;stroke-width:1.0;stroke-dasharray:2.0,2.0;" x1="343.4473" x2="343.4473" y1="1454.1797" y2="1467.1797"/><line style="stroke:#181818;stroke-width:1.0;stroke-dasharray:2.0,2.0;" x1="302.4473" x2="343.4473" y1="1467.1797" y2="1467.1797"/><polygon fill="#181818" points="312.4473,1463.1797,302.4473,1467.1797,312.4473,1471.1797,308.4473,1467.1797" style="stroke:#181818;stroke-width:1.0;"/><text fill="#000000" font-family="sans-serif" font-size="13" lengthAdjust="spacing" textLength="65.8887" x="308.4473" y="1449.1138">ok(return)</text><polygon fill="#181818" points="118.9858,1492.3125,108.9858,1496.3125,118.9858,1500.3125,114.9858,1496.3125" style="stroke:#181818;stroke-width:1.0;"/><line style="stroke:#181818;stroke-width:1.0;stroke-dasharray:2.0,2.0;" x1="112.9858" x2="295.4473" y1="1496.3125" y2="1496.3125"/><text fill="#000000" font-family="sans-serif" font-size="13" lengthAdjust="spacing" textLength="26.5776" x="124.9858" y="1491.2466">json</text><polygon fill="#181818" points="11,1521.4453,1,1525.4453,11,1529.4453,7,1525.4453" style="stroke:#181818;stroke-width:1.0;"/><line style="stroke:#181818;stroke-width:1.0;stroke-dasharray:2.0,2.0;" x1="5" x2="101.9858" y1="1525.4453" y2="1525.4453"/><text fill="#000000" font-family="sans-serif" font-size="13" lengthAdjust="spacing" textLength="26.5776" x="17" y="1520.3794">json</text><rect fill="#EEEEEE" height="3" style="stroke:#EEEEEE;stroke-width:1.0;" width="1645.7656" x="0" y="1554.0117"/><line style="stroke:#000000;stroke-width:1.0;" x1="0" x2="1645.7656" y1="1554.0117" y2="1554.0117"/><line style="stroke:#000000;stroke-width:1.0;" x1="0" x2="1645.7656" y1="1557.0117" y2="1557.0117"/><rect fill="#EEEEEE" height="23.1328" style="stroke:#000000;stroke-width:2.0;" width="167.5815" x="739.092" y="1543.4453"/><text fill="#000000" font-family="sans-serif" font-size="13" font-weight="bold" lengthAdjust="spacing" textLength="149.0557" x="745.092" y="1559.5122">After the GDPR time</text><polygon fill="#181818" points="689.9375,1593.7109,679.9375,1597.7109,689.9375,1601.7109,685.9375,1597.7109" style="stroke:#181818;stroke-width:1.0;"/><line style="stroke:#181818;stroke-width:1.0;" x1="683.9375" x2="1413.4326" y1="1597.7109" y2="1597.7109"/><text fill="#000000" font-family="sans-serif" font-size="13" lengthAdjust="spacing" textLength="97.3604" x="695.9375" y="1592.645">delete(patient)</text><polygon fill="#181818" points="1573.5996,1607.7109,1583.5996,1611.7109,1573.5996,1615.7109,1577.5996,1611.7109" style="stroke:#181818;stroke-width:1.0;"/><line style="stroke:#181818;stroke-width:1.0;" x1="678.9375" x2="1579.5996" y1="1611.7109" y2="1611.7109"/><polygon fill="#181818" points="1407.4326,1636.8438,1417.4326,1640.8438,1407.4326,1644.8438,1411.4326,1640.8438" style="stroke:#181818;stroke-width:1.0;"/><line style="stroke:#181818;stroke-width:1.0;stroke-dasharray:2.0,2.0;" x1="673.9375" x2="1413.4326" y1="1640.8438" y2="1640.8438"/><text fill="#000000" font-family="sans-serif" font-size="13" lengthAdjust="spacing" textLength="40.2632" x="680.9375" y="1635.7778">return</text><!--SRC=[jLPTRzem57tFhx1u0YIgLTDUfeAKGTOYLGs2i3wiBrRYWDTWHuwXwx_VJUmGsqbPEdMFN7pE_V0vrv5KPWGDjXlqvUhwwlhJ5Le97fEYG3yeUK73Ut8Y6Vey6dXUZeMaCSqnasXmSxFcHqbcioU6LbXImcGL621Se7MuZGBt_9mpANYM4M62ccY5d8SFqJgyTx4R8auqjhBfK8Nojz5T-RjL8ibvGIKNhrQTvsW5NldHCe2i47NnYoWqWVUqa11IA2lK0l83fip4cgd-aiP9qK4Vd23-Y6MyryDSa8n8eW5mWIdDYFw_edhqe_bTi7Pv_5XIpjvaK7-h2S-ZPVZWucD-o3a3W2gVY0B6GPY-bLMmtYmtKV0m3ppl9v_Cb2xGLtGRHCDV1MSZZt59aA2xlOJmZaX9sGx9FK5FB0Ckn5EKgs8ApolhEM40A7rvYWvujMeKHNabOQfRA7IU1bihpAj1WA_rqqamQh1ddNbd1A0D0G51IbdYPzbmX1gSAJ7FF3wnasTMPcz1S2U3dTqIudZiPPpdAEK2WNF5Qpq-H9bBtz43r20vq43JRkgwRhTcpL-gD6dLUw5ItQwV9CE6manh6ym1EqK88e-2MGNOSC8ISsoMPdBxg37rvhuDiJH0_ZoqiIFZe27tKe8cRIt1cyd4FcCUqXgt389JIGIAznps5zk1vN0zViTWgt3JwR2p699UReBz4JzhlNnxNIvwcQbPM-FnMKyQsEsvLXezrUNYdTuZl-4U2g18J8fE4rrmeHH7qg5bvRqtDEHYEfJZIgU4ZDxMIzBMIrimIKillMIWTAJNBSYeNBWnPoaL1rok_5xYI3fUZFya49tg0nHIRcUNuBtwoAsMUoZ5NA_n7hCTsKWiZyLtBgfd5oRUjN0xrkc5pWfy8dLNVNgQcUypkjIlNgukN7zJm84NzQM1G6CqfR6IqBc2-jl3gm4bU_Kv0OzLOnZrWM7qNEFUwSJsKz33YmhqyMwSJf5VUQrqsErYjKQI7WYQJg7ygk7sFIgj__DDjYzIvUby8mr6SruLuWy0]--></g></svg>