<svg xmlns="http://www.w3.org/2000/svg" xmlns:xlink="http://www.w3.org/1999/xlink" contentStyleType="text/css" height="394px" preserveAspectRatio="none" style="width:358px;height:394px;background:#FFFFFF;" version="1.1" viewBox="0 0 358 394" width="358px" zoomAndPan="magnify"><title>US 5.1.10. Process View (Level 1)</title><defs/><g><text fill="#000000" font-family="sans-serif" font-size="14" font-weight="bold" lengthAdjust="spacing" textLength="264.4209" x="45.9353" y="27.9951">US 5.1.10. Process View (Level 1)</text><rect fill="#FFFFFF" height="29.1328" style="stroke:#181818;stroke-width:1.0;" width="10" x="25.4321" y="178.8594"/><rect fill="#FFFFFF" height="29.1328" style="stroke:#181818;stroke-width:1.0;" width="10" x="25.4321" y="237.125"/><rect fill="#FFFFFF" height="29.1328" style="stroke:#181818;stroke-width:1.0;" width="10" x="271.4297" y="149.7266"/><rect fill="#FFFFFF" height="29.1328" style="stroke:#181818;stroke-width:1.0;" width="10" x="271.4297" y="207.9922"/><rect fill="#FFFFFF" height="29.1328" style="stroke:#181818;stroke-width:1.0;" width="10" x="271.4297" y="266.2578"/><line style="stroke:#181818;stroke-width:0.5;stroke-dasharray:5.0,5.0;" x1="30" x2="30" y1="118.5938" y2="313.3906"/><line style="stroke:#181818;stroke-width:0.5;stroke-dasharray:5.0,5.0;" x1="275.5679" x2="275.5679" y1="118.5938" y2="313.3906"/><text fill="#000000" font-family="sans-serif" font-size="14" lengthAdjust="spacing" textLength="44.8643" x="5" y="115.292">Admin</text><ellipse cx="30.4321" cy="50.7969" fill="#E2E2F0" rx="8" ry="8" style="stroke:#181818;stroke-width:0.5;"/><path d="M30.4321,58.7969 L30.4321,85.7969 M17.4321,66.7969 L43.4321,66.7969 M30.4321,85.7969 L17.4321,100.7969 M30.4321,85.7969 L43.4321,100.7969 " fill="none" style="stroke:#181818;stroke-width:0.5;"/><text fill="#000000" font-family="sans-serif" font-size="14" lengthAdjust="spacing" textLength="44.8643" x="5" y="325.3857">Admin</text><ellipse cx="30.4321" cy="337.1875" fill="#E2E2F0" rx="8" ry="8" style="stroke:#181818;stroke-width:0.5;"/><path d="M30.4321,345.1875 L30.4321,372.1875 M17.4321,353.1875 L43.4321,353.1875 M30.4321,372.1875 L17.4321,387.1875 M30.4321,372.1875 L43.4321,387.1875 " fill="none" style="stroke:#181818;stroke-width:0.5;"/><rect fill="#E2E2F0" height="46.5938" rx="2.5" ry="2.5" style="stroke:#181818;stroke-width:0.5;" width="151.7236" x="200.5679" y="71"/><text fill="#000000" font-family="sans-serif" font-size="14" lengthAdjust="spacing" textLength="101.8008" x="225.5293" y="90.9951">&#171;system (C4)&#187;</text><text fill="#000000" font-family="sans-serif" font-size="14" lengthAdjust="spacing" textLength="133.2734" x="212.0181" y="107.292">Healthcare System</text><rect fill="#E2E2F0" height="46.5938" rx="2.5" ry="2.5" style="stroke:#181818;stroke-width:0.5;" width="151.7236" x="200.5679" y="312.3906"/><text fill="#000000" font-family="sans-serif" font-size="14" lengthAdjust="spacing" textLength="101.8008" x="225.5293" y="332.3857">&#171;system (C4)&#187;</text><text fill="#000000" font-family="sans-serif" font-size="14" lengthAdjust="spacing" textLength="133.2734" x="212.0181" y="348.6826">Healthcare System</text><rect fill="#FFFFFF" height="29.1328" style="stroke:#181818;stroke-width:1.0;" width="10" x="25.4321" y="178.8594"/><rect fill="#FFFFFF" height="29.1328" style="stroke:#181818;stroke-width:1.0;" width="10" x="25.4321" y="237.125"/><rect fill="#FFFFFF" height="29.1328" style="stroke:#181818;stroke-width:1.0;" width="10" x="271.4297" y="149.7266"/><rect fill="#FFFFFF" height="29.1328" style="stroke:#181818;stroke-width:1.0;" width="10" x="271.4297" y="207.9922"/><rect fill="#FFFFFF" height="29.1328" style="stroke:#181818;stroke-width:1.0;" width="10" x="271.4297" y="266.2578"/><polygon fill="#181818" points="259.4297,145.7266,269.4297,149.7266,259.4297,153.7266,263.4297,149.7266" style="stroke:#181818;stroke-width:1.0;"/><line style="stroke:#181818;stroke-width:1.0;" x1="30.4321" x2="265.4297" y1="149.7266" y2="149.7266"/><text fill="#000000" font-family="sans-serif" font-size="13" font-weight="bold" lengthAdjust="spacing" textLength="9.0454" x="37.4321" y="144.6606">1</text><text fill="#000000" font-family="sans-serif" font-size="13" lengthAdjust="spacing" textLength="208.9521" x="50.4775" y="144.6606">wants to delete a patient profile</text><polygon fill="#181818" points="46.4321,174.8594,36.4321,178.8594,46.4321,182.8594,42.4321,178.8594" style="stroke:#181818;stroke-width:1.0;"/><line style="stroke:#181818;stroke-width:1.0;stroke-dasharray:2.0,2.0;" x1="40.4321" x2="275.4297" y1="178.8594" y2="178.8594"/><text fill="#000000" font-family="sans-serif" font-size="13" font-weight="bold" lengthAdjust="spacing" textLength="9.0454" x="52.4321" y="173.7935">2</text><text fill="#000000" font-family="sans-serif" font-size="13" lengthAdjust="spacing" textLength="63.5972" x="65.4775" y="173.7935">shows list</text><polygon fill="#181818" points="259.4297,203.9922,269.4297,207.9922,259.4297,211.9922,263.4297,207.9922" style="stroke:#181818;stroke-width:1.0;"/><line style="stroke:#181818;stroke-width:1.0;" x1="30.4321" x2="265.4297" y1="207.9922" y2="207.9922"/><text fill="#000000" font-family="sans-serif" font-size="13" font-weight="bold" lengthAdjust="spacing" textLength="9.0454" x="37.4321" y="202.9263">3</text><text fill="#000000" font-family="sans-serif" font-size="13" lengthAdjust="spacing" textLength="110.4175" x="50.4775" y="202.9263">chooses a profile</text><polygon fill="#181818" points="46.4321,233.125,36.4321,237.125,46.4321,241.125,42.4321,237.125" style="stroke:#181818;stroke-width:1.0;"/><line style="stroke:#181818;stroke-width:1.0;stroke-dasharray:2.0,2.0;" x1="40.4321" x2="275.4297" y1="237.125" y2="237.125"/><text fill="#000000" font-family="sans-serif" font-size="13" font-weight="bold" lengthAdjust="spacing" textLength="9.0454" x="52.4321" y="232.0591">4</text><text fill="#000000" font-family="sans-serif" font-size="13" lengthAdjust="spacing" textLength="137.5854" x="65.4775" y="232.0591">asks for confirmation</text><polygon fill="#181818" points="259.4297,262.2578,269.4297,266.2578,259.4297,270.2578,263.4297,266.2578" style="stroke:#181818;stroke-width:1.0;"/><line style="stroke:#181818;stroke-width:1.0;" x1="30.4321" x2="265.4297" y1="266.2578" y2="266.2578"/><text fill="#000000" font-family="sans-serif" font-size="13" font-weight="bold" lengthAdjust="spacing" textLength="9.0454" x="37.4321" y="261.1919">5</text><text fill="#000000" font-family="sans-serif" font-size="13" lengthAdjust="spacing" textLength="56.3101" x="50.4775" y="261.1919">confirms</text><polygon fill="#181818" points="41.4321,291.3906,31.4321,295.3906,41.4321,299.3906,37.4321,295.3906" style="stroke:#181818;stroke-width:1.0;"/><line style="stroke:#181818;stroke-width:1.0;stroke-dasharray:2.0,2.0;" x1="35.4321" x2="275.4297" y1="295.3906" y2="295.3906"/><text fill="#000000" font-family="sans-serif" font-size="13" font-weight="bold" lengthAdjust="spacing" textLength="9.0454" x="47.4321" y="290.3247">6</text><text fill="#000000" font-family="sans-serif" font-size="13" lengthAdjust="spacing" textLength="119.1772" x="60.4775" y="290.3247">marks for deletion</text><!--SRC=[bP0zIyH048Rx_HL36k-AImne4uw0s5XO2451i1at4xEu7t5dSi5_xoOvn0yGhzjXzdcVbn4ZbY2xR-0oB_FoF8Ux63GnmuEX2JQtT20BvJPJIftr8WDNHJ5Oz38wc-lW2gQtaRocNMlm9Q9JIlwVYQC4FxfdYkcj9KIuQftnQi0eHfiXUI3Rx_cTXHnihY-sTVtauORGIgyn4ZJBAWDaQ1uRfHOUTlKyGGLJIc2G02rP4WA40SLGYXrYw8obMMiEc5OBFbExHAyn5N0V9WPhM5HBtxv-3clZdsBTXy34i_0e-iAloDzcv5U6Bbr41z-Pw5Bju4yjiQ9ygjjXFCgNi_qMVm00]--></g></svg>