<svg xmlns="http://www.w3.org/2000/svg" xmlns:xlink="http://www.w3.org/1999/xlink" contentStyleType="text/css" height="1784px" preserveAspectRatio="none" style="width:2178px;height:1784px;background:#FFFFFF;" version="1.1" viewBox="0 0 2178 1784" width="2178px" zoomAndPan="magnify"><title>US 5.1.10. Process View (Level 3)</title><defs/><g><text fill="#000000" font-family="sans-serif" font-size="14" font-weight="bold" lengthAdjust="spacing" textLength="264.4209" x="958.385" y="27.9951">US 5.1.10. Process View (Level 3)</text><rect fill="#FFFFFF" height="472.4531" style="stroke:#181818;stroke-width:1.0;" width="10" x="103.4512" y="131.5898"/><rect fill="#FFFFFF" height="1060.4648" style="stroke:#181818;stroke-width:1.0;" width="10" x="103.4512" y="654.3086"/><rect fill="#FFFFFF" height="393.0547" style="stroke:#181818;stroke-width:1.0;" width="10" x="283.957" y="171.2891"/><rect fill="#FFFFFF" height="991.6328" style="stroke:#181818;stroke-width:1.0;" width="10" x="283.957" y="694.0078"/><rect fill="#FFFFFF" height="292.6563" style="stroke:#181818;stroke-width:1.0;" width="10" x="644.2139" y="200.4219"/><rect fill="#FFFFFF" height="833.6406" style="stroke:#181818;stroke-width:1.0;" width="10" x="644.2139" y="780.7344"/><rect fill="#FFFFFF" height="29.1328" style="stroke:#181818;stroke-width:1.0;" width="10" x="974.7339" y="229.5547"/><rect fill="#FFFFFF" height="29.1328" style="stroke:#181818;stroke-width:1.0;" width="10" x="974.7339" y="809.8672"/><rect fill="#FFFFFF" height="29.1328" style="stroke:#181818;stroke-width:1.0;" width="10" x="974.7339" y="868.1328"/><rect fill="#FFFFFF" height="29.1328" style="stroke:#181818;stroke-width:1.0;" width="10" x="1126.4805" y="427.8125"/><rect fill="#FFFFFF" height="29.1328" style="stroke:#181818;stroke-width:1.0;" width="10" x="1249.5059" y="369.5469"/><rect fill="#FFFFFF" height="29.1328" style="stroke:#181818;stroke-width:1.0;" width="10" x="1249.5059" y="968.5313"/><rect fill="#FFFFFF" height="144.9922" style="stroke:#181818;stroke-width:1.0;" width="10" x="1447.8657" y="1081.1953"/><rect fill="#FFFFFF" height="144.9922" style="stroke:#181818;stroke-width:1.0;" width="10" x="1447.8657" y="1426.25"/><rect fill="#FFFFFF" height="29.1328" style="stroke:#181818;stroke-width:1.0;" width="10" x="1660.4307" y="1167.9219"/><rect fill="#FFFFFF" height="29.1328" style="stroke:#181818;stroke-width:1.0;" width="10" x="1660.4307" y="1512.9766"/><rect fill="#FFFFFF" height="87.3984" style="stroke:#181818;stroke-width:1.0;" width="10" x="1780.8687" y="1255.3203"/><rect fill="#FFFFFF" height="29.1328" style="stroke:#181818;stroke-width:1.0;" width="10" x="2101.3276" y="1284.4531"/><rect fill="none" height="133.6641" style="stroke:#000000;stroke-width:1.5;" width="727.8037" x="579.4302" y="331.2813"/><rect fill="none" height="573.5781" style="stroke:#000000;stroke-width:1.5;" width="1602.7607" x="569.4302" y="1012.6641"/><rect fill="none" height="221.5234" style="stroke:#000000;stroke-width:1.5;" width="1155.3877" x="579.4302" y="1357.7188"/><line style="stroke:#181818;stroke-width:0.5;stroke-dasharray:5.0,5.0;" x1="107.9038" x2="107.9038" y1="89.8906" y2="1732.7734"/><line style="stroke:#181818;stroke-width:0.5;stroke-dasharray:5.0,5.0;" x1="288.4575" x2="288.4575" y1="89.8906" y2="1732.7734"/><line style="stroke:#181818;stroke-width:0.5;stroke-dasharray:5.0,5.0;" x1="648.4302" x2="648.4302" y1="89.8906" y2="1732.7734"/><line style="stroke:#181818;stroke-width:0.5;stroke-dasharray:5.0,5.0;" x1="979.2847" x2="979.2847" y1="89.8906" y2="1732.7734"/><line style="stroke:#181818;stroke-width:0.5;stroke-dasharray:5.0,5.0;" x1="1131.1831" x2="1131.1831" y1="305.4844" y2="1732.7734"/><line style="stroke:#181818;stroke-width:0.5;stroke-dasharray:5.0,5.0;" x1="1253.7778" x2="1253.7778" y1="89.8906" y2="1732.7734"/><line style="stroke:#181818;stroke-width:0.5;stroke-dasharray:5.0,5.0;" x1="1350.2339" x2="1350.2339" y1="740.8047" y2="1732.7734"/><line style="stroke:#181818;stroke-width:0.5;stroke-dasharray:5.0,5.0;" x1="1452.144" x2="1452.144" y1="89.8906" y2="1732.7734"/><line style="stroke:#181818;stroke-width:0.5;stroke-dasharray:5.0,5.0;" x1="1552.5874" x2="1552.5874" y1="1473.0469" y2="1732.7734"/><line style="stroke:#181818;stroke-width:0.5;stroke-dasharray:5.0,5.0;" x1="1665.0435" x2="1665.0435" y1="89.8906" y2="1732.7734"/><line style="stroke:#181818;stroke-width:0.5;stroke-dasharray:5.0,5.0;" x1="1785.8179" x2="1785.8179" y1="89.8906" y2="1732.7734"/><line style="stroke:#181818;stroke-width:0.5;stroke-dasharray:5.0,5.0;" x1="2105.4644" x2="2105.4644" y1="89.8906" y2="1732.7734"/><rect fill="#E2E2F0" height="46.5938" rx="2.5" ry="2.5" style="stroke:#181818;stroke-width:0.5;" width="109.0947" x="53.9038" y="42.2969"/><text fill="#000000" font-family="sans-serif" font-size="14" lengthAdjust="spacing" textLength="58.3994" x="79.2515" y="62.292">&#171;Route&#187;</text><text fill="#000000" font-family="sans-serif" font-size="14" lengthAdjust="spacing" textLength="90.6445" x="65.354" y="78.5889">PatientRoute</text><rect fill="#E2E2F0" height="46.5938" rx="2.5" ry="2.5" style="stroke:#181818;stroke-width:0.5;" width="109.0947" x="53.9038" y="1731.7734"/><text fill="#000000" font-family="sans-serif" font-size="14" lengthAdjust="spacing" textLength="58.3994" x="79.2515" y="1751.7686">&#171;Route&#187;</text><text fill="#000000" font-family="sans-serif" font-size="14" lengthAdjust="spacing" textLength="90.6445" x="65.354" y="1768.0654">PatientRoute</text><rect fill="#E2E2F0" height="46.5938" rx="2.5" ry="2.5" style="stroke:#181818;stroke-width:0.5;" width="136.999" x="220.4575" y="42.2969"/><text fill="#000000" font-family="sans-serif" font-size="14" lengthAdjust="spacing" textLength="86.3037" x="245.8052" y="62.292">&#171;Controller&#187;</text><text fill="#000000" font-family="sans-serif" font-size="14" lengthAdjust="spacing" textLength="118.5488" x="231.9077" y="78.5889">PatientController</text><rect fill="#E2E2F0" height="46.5938" rx="2.5" ry="2.5" style="stroke:#181818;stroke-width:0.5;" width="136.999" x="220.4575" y="1731.7734"/><text fill="#000000" font-family="sans-serif" font-size="14" lengthAdjust="spacing" textLength="86.3037" x="245.8052" y="1751.7686">&#171;Controller&#187;</text><text fill="#000000" font-family="sans-serif" font-size="14" lengthAdjust="spacing" textLength="118.5488" x="231.9077" y="1768.0654">PatientController</text><rect fill="#E2E2F0" height="46.5938" rx="2.5" ry="2.5" style="stroke:#181818;stroke-width:0.5;" width="119.5674" x="589.4302" y="42.2969"/><text fill="#000000" font-family="sans-serif" font-size="14" lengthAdjust="spacing" textLength="68.8721" x="614.7778" y="62.292">&#171;Service&#187;</text><text fill="#000000" font-family="sans-serif" font-size="14" lengthAdjust="spacing" textLength="101.1172" x="600.8804" y="78.5889">PatientService</text><rect fill="#E2E2F0" height="46.5938" rx="2.5" ry="2.5" style="stroke:#181818;stroke-width:0.5;" width="119.5674" x="589.4302" y="1731.7734"/><text fill="#000000" font-family="sans-serif" font-size="14" lengthAdjust="spacing" textLength="68.8721" x="614.7778" y="1751.7686">&#171;Service&#187;</text><text fill="#000000" font-family="sans-serif" font-size="14" lengthAdjust="spacing" textLength="101.1172" x="600.8804" y="1768.0654">PatientService</text><rect fill="#E2E2F0" height="46.5938" rx="2.5" ry="2.5" style="stroke:#181818;stroke-width:0.5;" width="142.8984" x="908.2847" y="42.2969"/><text fill="#000000" font-family="sans-serif" font-size="14" lengthAdjust="spacing" textLength="92.2031" x="933.6323" y="62.292">&#171;Repository&#187;</text><text fill="#000000" font-family="sans-serif" font-size="14" lengthAdjust="spacing" textLength="124.4482" x="919.7349" y="78.5889">PatientRepository</text><rect fill="#E2E2F0" height="46.5938" rx="2.5" ry="2.5" style="stroke:#181818;stroke-width:0.5;" width="142.8984" x="908.2847" y="1731.7734"/><text fill="#000000" font-family="sans-serif" font-size="14" lengthAdjust="spacing" textLength="92.2031" x="933.6323" y="1751.7686">&#171;Repository&#187;</text><text fill="#000000" font-family="sans-serif" font-size="14" lengthAdjust="spacing" textLength="124.4482" x="919.7349" y="1768.0654">PatientRepository</text><rect fill="#E2E2F0" height="46.5938" rx="2.5" ry="2.5" style="stroke:#181818;stroke-width:0.5;" width="140.5947" x="1061.1831" y="1731.7734"/><text fill="#000000" font-family="sans-serif" font-size="14" lengthAdjust="spacing" textLength="47.4824" x="1107.7393" y="1751.7686">&#171;DTO&#187;</text><text fill="#000000" font-family="sans-serif" font-size="14" lengthAdjust="spacing" textLength="122.1445" x="1072.6333" y="1768.0654">List&lt;PatientDto&gt;</text><rect fill="#E2E2F0" height="46.5938" rx="2.5" ry="2.5" style="stroke:#181818;stroke-width:0.5;" width="85.4561" x="1211.7778" y="42.2969"/><text fill="#000000" font-family="sans-serif" font-size="14" lengthAdjust="spacing" textLength="71.4561" x="1218.7778" y="62.292">&#171;Domain&#187;</text><text fill="#000000" font-family="sans-serif" font-size="14" lengthAdjust="spacing" textLength="49.376" x="1232.043" y="78.5889">Patient</text><rect fill="#E2E2F0" height="46.5938" rx="2.5" ry="2.5" style="stroke:#181818;stroke-width:0.5;" width="85.4561" x="1211.7778" y="1731.7734"/><text fill="#000000" font-family="sans-serif" font-size="14" lengthAdjust="spacing" textLength="71.4561" x="1218.7778" y="1751.7686">&#171;Domain&#187;</text><text fill="#000000" font-family="sans-serif" font-size="14" lengthAdjust="spacing" textLength="49.376" x="1232.043" y="1768.0654">Patient</text><rect fill="#E2E2F0" height="46.5938" rx="2.5" ry="2.5" style="stroke:#181818;stroke-width:0.5;" width="87.9102" x="1307.2339" y="1731.7734"/><text fill="#000000" font-family="sans-serif" font-size="14" lengthAdjust="spacing" textLength="47.4824" x="1327.4478" y="1751.7686">&#171;DTO&#187;</text><text fill="#000000" font-family="sans-serif" font-size="14" lengthAdjust="spacing" textLength="69.46" x="1318.6841" y="1768.0654">IdPassDto</text><rect fill="#E2E2F0" height="46.5938" rx="2.5" ry="2.5" style="stroke:#181818;stroke-width:0.5;" width="95.4434" x="1405.144" y="42.2969"/><text fill="#000000" font-family="sans-serif" font-size="14" lengthAdjust="spacing" textLength="68.8721" x="1418.4297" y="62.292">&#171;Service&#187;</text><text fill="#000000" font-family="sans-serif" font-size="14" lengthAdjust="spacing" textLength="76.9932" x="1416.5942" y="78.5889">LogService</text><rect fill="#E2E2F0" height="46.5938" rx="2.5" ry="2.5" style="stroke:#181818;stroke-width:0.5;" width="95.4434" x="1405.144" y="1731.7734"/><text fill="#000000" font-family="sans-serif" font-size="14" lengthAdjust="spacing" textLength="68.8721" x="1418.4297" y="1751.7686">&#171;Service&#187;</text><text fill="#000000" font-family="sans-serif" font-size="14" lengthAdjust="spacing" textLength="76.9932" x="1416.5942" y="1768.0654">LogService</text><rect fill="#E2E2F0" height="46.5938" rx="2.5" ry="2.5" style="stroke:#181818;stroke-width:0.5;" width="85.4561" x="1510.5874" y="1731.7734"/><text fill="#000000" font-family="sans-serif" font-size="14" lengthAdjust="spacing" textLength="71.4561" x="1517.5874" y="1751.7686">&#171;Domain&#187;</text><text fill="#000000" font-family="sans-serif" font-size="14" lengthAdjust="spacing" textLength="25.252" x="1542.9146" y="1768.0654">Log</text><rect fill="#E2E2F0" height="46.5938" rx="2.5" ry="2.5" style="stroke:#181818;stroke-width:0.5;" width="118.7744" x="1606.0435" y="42.2969"/><text fill="#000000" font-family="sans-serif" font-size="14" lengthAdjust="spacing" textLength="92.2031" x="1619.3291" y="62.292">&#171;Repository&#187;</text><text fill="#000000" font-family="sans-serif" font-size="14" lengthAdjust="spacing" textLength="100.3242" x="1617.4937" y="78.5889">LogRepository</text><rect fill="#E2E2F0" height="46.5938" rx="2.5" ry="2.5" style="stroke:#181818;stroke-width:0.5;" width="118.7744" x="1606.0435" y="1731.7734"/><text fill="#000000" font-family="sans-serif" font-size="14" lengthAdjust="spacing" textLength="92.2031" x="1619.3291" y="1751.7686">&#171;Repository&#187;</text><text fill="#000000" font-family="sans-serif" font-size="14" lengthAdjust="spacing" textLength="100.3242" x="1617.4937" y="1768.0654">LogRepository</text><rect fill="#E2E2F0" height="46.5938" rx="2.5" ry="2.5" style="stroke:#181818;stroke-width:0.5;" width="102.1016" x="1734.8179" y="42.2969"/><text fill="#000000" font-family="sans-serif" font-size="14" lengthAdjust="spacing" textLength="68.8721" x="1751.4326" y="62.292">&#171;Service&#187;</text><text fill="#000000" font-family="sans-serif" font-size="14" lengthAdjust="spacing" textLength="83.6514" x="1746.2681" y="78.5889">UserService</text><rect fill="#E2E2F0" height="46.5938" rx="2.5" ry="2.5" style="stroke:#181818;stroke-width:0.5;" width="102.1016" x="1734.8179" y="1731.7734"/><text fill="#000000" font-family="sans-serif" font-size="14" lengthAdjust="spacing" textLength="68.8721" x="1751.4326" y="1751.7686">&#171;Service&#187;</text><text fill="#000000" font-family="sans-serif" font-size="14" lengthAdjust="spacing" textLength="83.6514" x="1746.2681" y="1768.0654">UserService</text><rect fill="#E2E2F0" height="46.5938" rx="2.5" ry="2.5" style="stroke:#181818;stroke-width:0.5;" width="111.7266" x="2050.4644" y="42.2969"/><text fill="#000000" font-family="sans-serif" font-size="14" lengthAdjust="spacing" textLength="58.3105" x="2077.1724" y="62.292">&#171;Utility&#187;</text><text fill="#000000" font-family="sans-serif" font-size="14" lengthAdjust="spacing" textLength="93.2764" x="2061.9146" y="78.5889">UserManager</text><rect fill="#E2E2F0" height="46.5938" rx="2.5" ry="2.5" style="stroke:#181818;stroke-width:0.5;" width="111.7266" x="2050.4644" y="1731.7734"/><text fill="#000000" font-family="sans-serif" font-size="14" lengthAdjust="spacing" textLength="58.3105" x="2077.1724" y="1751.7686">&#171;Utility&#187;</text><text fill="#000000" font-family="sans-serif" font-size="14" lengthAdjust="spacing" textLength="93.2764" x="2061.9146" y="1768.0654">UserManager</text><rect fill="#FFFFFF" height="472.4531" style="stroke:#181818;stroke-width:1.0;" width="10" x="103.4512" y="131.5898"/><rect fill="#FFFFFF" height="1060.4648" style="stroke:#181818;stroke-width:1.0;" width="10" x="103.4512" y="654.3086"/><rect fill="#FFFFFF" height="393.0547" style="stroke:#181818;stroke-width:1.0;" width="10" x="283.957" y="171.2891"/><rect fill="#FFFFFF" height="991.6328" style="stroke:#181818;stroke-width:1.0;" width="10" x="283.957" y="694.0078"/><rect fill="#FFFFFF" height="292.6563" style="stroke:#181818;stroke-width:1.0;" width="10" x="644.2139" y="200.4219"/><rect fill="#FFFFFF" height="833.6406" style="stroke:#181818;stroke-width:1.0;" width="10" x="644.2139" y="780.7344"/><rect fill="#FFFFFF" height="29.1328" style="stroke:#181818;stroke-width:1.0;" width="10" x="974.7339" y="229.5547"/><rect fill="#FFFFFF" height="29.1328" style="stroke:#181818;stroke-width:1.0;" width="10" x="974.7339" y="809.8672"/><rect fill="#FFFFFF" height="29.1328" style="stroke:#181818;stroke-width:1.0;" width="10" x="974.7339" y="868.1328"/><rect fill="#FFFFFF" height="29.1328" style="stroke:#181818;stroke-width:1.0;" width="10" x="1126.4805" y="427.8125"/><rect fill="#FFFFFF" height="29.1328" style="stroke:#181818;stroke-width:1.0;" width="10" x="1249.5059" y="369.5469"/><rect fill="#FFFFFF" height="29.1328" style="stroke:#181818;stroke-width:1.0;" width="10" x="1249.5059" y="968.5313"/><rect fill="#FFFFFF" height="144.9922" style="stroke:#181818;stroke-width:1.0;" width="10" x="1447.8657" y="1081.1953"/><rect fill="#FFFFFF" height="144.9922" style="stroke:#181818;stroke-width:1.0;" width="10" x="1447.8657" y="1426.25"/><rect fill="#FFFFFF" height="29.1328" style="stroke:#181818;stroke-width:1.0;" width="10" x="1660.4307" y="1167.9219"/><rect fill="#FFFFFF" height="29.1328" style="stroke:#181818;stroke-width:1.0;" width="10" x="1660.4307" y="1512.9766"/><rect fill="#FFFFFF" height="87.3984" style="stroke:#181818;stroke-width:1.0;" width="10" x="1780.8687" y="1255.3203"/><rect fill="#FFFFFF" height="29.1328" style="stroke:#181818;stroke-width:1.0;" width="10" x="2101.3276" y="1284.4531"/><ellipse cx="7.5" cy="130.8398" fill="#000000" rx="4" ry="4" style="stroke:#181818;stroke-width:1.5;"/><polygon fill="#181818" points="91.4512,127.5898,101.4512,131.5898,91.4512,135.5898,95.4512,131.5898" style="stroke:#181818;stroke-width:1.0;"/><line style="stroke:#181818;stroke-width:1.0;" x1="12" x2="97.4512" y1="131.5898" y2="131.5898"/><text fill="#000000" font-family="sans-serif" font-size="13" lengthAdjust="spacing" textLength="36.3721" x="15" y="126.5239">GET()</text><path d="M118,104.8906 L118,144.8906 L227,144.8906 L227,114.8906 L217,104.8906 L118,104.8906 " fill="#FEFFDD" style="stroke:#181818;stroke-width:0.5;"/><path d="M217,104.8906 L217,114.8906 L227,114.8906 L217,104.8906 " fill="#FEFFDD" style="stroke:#181818;stroke-width:0.5;"/><text fill="#000000" font-family="sans-serif" font-size="13" lengthAdjust="spacing" textLength="72.0142" x="124" y="121.9575">getting the</text><text fill="#000000" font-family="sans-serif" font-size="13" lengthAdjust="spacing" textLength="88.0103" x="124" y="137.0903">list of profiles</text><polygon fill="#181818" points="271.957,167.2891,281.957,171.2891,271.957,175.2891,275.957,171.2891" style="stroke:#181818;stroke-width:1.0;"/><line style="stroke:#181818;stroke-width:1.0;" x1="113.4512" x2="277.957" y1="171.2891" y2="171.2891"/><text fill="#000000" font-family="sans-serif" font-size="13" lengthAdjust="spacing" textLength="126.8706" x="120.4512" y="166.2231">GetPatientProfiles()</text><polygon fill="#181818" points="632.2139,196.4219,642.2139,200.4219,632.2139,204.4219,636.2139,200.4219" style="stroke:#181818;stroke-width:1.0;"/><line style="stroke:#181818;stroke-width:1.0;" x1="293.957" x2="638.2139" y1="200.4219" y2="200.4219"/><text fill="#000000" font-family="sans-serif" font-size="13" lengthAdjust="spacing" textLength="80.7612" x="300.957" y="195.356">GetAllSync()</text><polygon fill="#181818" points="962.7339,225.5547,972.7339,229.5547,962.7339,233.5547,966.7339,229.5547" style="stroke:#181818;stroke-width:1.0;"/><line style="stroke:#181818;stroke-width:1.0;" x1="654.2139" x2="968.7339" y1="229.5547" y2="229.5547"/><text fill="#000000" font-family="sans-serif" font-size="13" lengthAdjust="spacing" textLength="80.7612" x="661.2139" y="224.4888">GetAllSync()</text><polygon fill="#181818" points="665.2139,254.6875,655.2139,258.6875,665.2139,262.6875,661.2139,258.6875" style="stroke:#181818;stroke-width:1.0;"/><line style="stroke:#181818;stroke-width:1.0;stroke-dasharray:2.0,2.0;" x1="659.2139" x2="978.7339" y1="258.6875" y2="258.6875"/><text fill="#000000" font-family="sans-serif" font-size="13" lengthAdjust="spacing" textLength="153.7466" x="671.2139" y="253.6216">var list = List&lt;Patient&gt;</text><polygon fill="#181818" points="1049.1831,268.6875,1059.1831,272.6875,1049.1831,276.6875,1053.1831,272.6875" style="stroke:#181818;stroke-width:1.0;"/><line style="stroke:#181818;stroke-width:1.0;" x1="654.2139" x2="1055.1831" y1="272.6875" y2="272.6875"/><rect fill="#E2E2F0" height="46.5938" rx="2.5" ry="2.5" style="stroke:#181818;stroke-width:0.5;" width="140.5947" x="1061.1831" y="266.6875"/><text fill="#000000" font-family="sans-serif" font-size="14" lengthAdjust="spacing" textLength="47.4824" x="1107.7393" y="286.6826">&#171;DTO&#187;</text><text fill="#000000" font-family="sans-serif" font-size="14" lengthAdjust="spacing" textLength="122.1445" x="1072.6333" y="302.9795">List&lt;PatientDto&gt;</text><path d="M579.4302,331.2813 L656.0542,331.2813 L656.0542,338.4141 L646.0542,348.4141 L579.4302,348.4141 L579.4302,331.2813 " fill="#EEEEEE" style="stroke:#000000;stroke-width:1.5;"/><rect fill="none" height="133.6641" style="stroke:#000000;stroke-width:1.5;" width="727.8037" x="579.4302" y="331.2813"/><text fill="#000000" font-family="sans-serif" font-size="13" font-weight="bold" lengthAdjust="spacing" textLength="31.624" x="594.4302" y="344.3481">loop</text><text fill="#000000" font-family="sans-serif" font-size="11" font-weight="bold" lengthAdjust="spacing" textLength="210.9336" x="671.0542" y="343.4917">[for every profile in listOfProfiles]</text><polygon fill="#181818" points="1237.5059,365.5469,1247.5059,369.5469,1237.5059,373.5469,1241.5059,369.5469" style="stroke:#181818;stroke-width:1.0;"/><line style="stroke:#181818;stroke-width:1.0;" x1="654.2139" x2="1243.5059" y1="369.5469" y2="369.5469"/><text fill="#000000" font-family="sans-serif" font-size="13" lengthAdjust="spacing" textLength="51.3779" x="661.2139" y="364.481">toDTO()</text><polygon fill="#181818" points="665.2139,394.6797,655.2139,398.6797,665.2139,402.6797,661.2139,398.6797" style="stroke:#181818;stroke-width:1.0;"/><line style="stroke:#181818;stroke-width:1.0;stroke-dasharray:2.0,2.0;" x1="659.2139" x2="1253.5059" y1="398.6797" y2="398.6797"/><text fill="#000000" font-family="sans-serif" font-size="13" lengthAdjust="spacing" textLength="69.5322" x="671.2139" y="393.6138">profileDTO</text><polygon fill="#181818" points="1114.4805,423.8125,1124.4805,427.8125,1114.4805,431.8125,1118.4805,427.8125" style="stroke:#181818;stroke-width:1.0;"/><line style="stroke:#181818;stroke-width:1.0;" x1="654.2139" x2="1120.4805" y1="427.8125" y2="427.8125"/><text fill="#000000" font-family="sans-serif" font-size="13" lengthAdjust="spacing" textLength="124.1665" x="661.2139" y="422.7466">listAdd(profileDTO)</text><polygon fill="#181818" points="665.2139,452.9453,655.2139,456.9453,665.2139,460.9453,661.2139,456.9453" style="stroke:#181818;stroke-width:1.0;"/><line style="stroke:#181818;stroke-width:1.0;stroke-dasharray:2.0,2.0;" x1="659.2139" x2="1130.4805" y1="456.9453" y2="456.9453"/><text fill="#000000" font-family="sans-serif" font-size="13" lengthAdjust="spacing" textLength="40.2632" x="671.2139" y="451.8794">return</text><polygon fill="#181818" points="304.957,489.0781,294.957,493.0781,304.957,497.0781,300.957,493.0781" style="stroke:#181818;stroke-width:1.0;"/><line style="stroke:#181818;stroke-width:1.0;stroke-dasharray:2.0,2.0;" x1="298.957" x2="648.2139" y1="493.0781" y2="493.0781"/><text fill="#000000" font-family="sans-serif" font-size="13" lengthAdjust="spacing" textLength="97.1699" x="310.957" y="488.0122">patientListDTO</text><line style="stroke:#181818;stroke-width:1.0;" x1="293.957" x2="335.957" y1="522.2109" y2="522.2109"/><line style="stroke:#181818;stroke-width:1.0;" x1="335.957" x2="335.957" y1="522.2109" y2="535.2109"/><line style="stroke:#181818;stroke-width:1.0;" x1="294.957" x2="335.957" y1="535.2109" y2="535.2109"/><polygon fill="#181818" points="304.957,531.2109,294.957,535.2109,304.957,539.2109,300.957,535.2109" style="stroke:#181818;stroke-width:1.0;"/><text fill="#000000" font-family="sans-serif" font-size="13" lengthAdjust="spacing" textLength="122.7954" x="300.957" y="517.145">ok(patientListDTO)</text><polygon fill="#181818" points="124.4512,560.3438,114.4512,564.3438,124.4512,568.3438,120.4512,564.3438" style="stroke:#181818;stroke-width:1.0;"/><line style="stroke:#181818;stroke-width:1.0;stroke-dasharray:2.0,2.0;" x1="118.4512" x2="287.957" y1="564.3438" y2="564.3438"/><text fill="#000000" font-family="sans-serif" font-size="13" lengthAdjust="spacing" textLength="26.5776" x="130.4512" y="559.2778">json</text><polygon fill="#181818" points="11,600.043,1,604.043,11,608.043,7,604.043" style="stroke:#181818;stroke-width:1.0;"/><line style="stroke:#181818;stroke-width:1.0;stroke-dasharray:2.0,2.0;" x1="5" x2="107.4512" y1="604.043" y2="604.043"/><text fill="#000000" font-family="sans-serif" font-size="13" lengthAdjust="spacing" textLength="26.5776" x="17" y="598.9771">json</text><path d="M118,577.3438 L118,617.3438 L232,617.3438 L232,587.3438 L222,577.3438 L118,577.3438 " fill="#FEFFDD" style="stroke:#181818;stroke-width:0.5;"/><path d="M222,577.3438 L222,587.3438 L232,587.3438 L222,577.3438 " fill="#FEFFDD" style="stroke:#181818;stroke-width:0.5;"/><text fill="#000000" font-family="sans-serif" font-size="13" lengthAdjust="spacing" textLength="93.2852" x="124" y="594.4106">after choosing</text><text fill="#000000" font-family="sans-serif" font-size="13" lengthAdjust="spacing" textLength="53.4473" x="128.1323" y="609.5435">a profile</text><ellipse cx="7.5" cy="653.5586" fill="#000000" rx="4" ry="4" style="stroke:#181818;stroke-width:1.5;"/><polygon fill="#181818" points="91.4512,650.3086,101.4512,654.3086,91.4512,658.3086,95.4512,654.3086" style="stroke:#181818;stroke-width:1.0;"/><line style="stroke:#181818;stroke-width:1.0;" x1="12" x2="97.4512" y1="654.3086" y2="654.3086"/><text fill="#000000" font-family="sans-serif" font-size="13" lengthAdjust="spacing" textLength="76.4512" x="15" y="649.2427">POST(JSON)</text><path d="M118,627.6094 L118,667.6094 L251,667.6094 L251,637.6094 L241,627.6094 L118,627.6094 " fill="#FEFFDD" style="stroke:#181818;stroke-width:0.5;"/><path d="M241,627.6094 L241,637.6094 L251,637.6094 L241,627.6094 " fill="#FEFFDD" style="stroke:#181818;stroke-width:0.5;"/><text fill="#000000" font-family="sans-serif" font-size="13" lengthAdjust="spacing" textLength="81.6626" x="124" y="644.6763">after getting</text><text fill="#000000" font-family="sans-serif" font-size="13" lengthAdjust="spacing" textLength="107.8721" x="128.1323" y="659.8091">the confirmation</text><polygon fill="#181818" points="271.957,690.0078,281.957,694.0078,271.957,698.0078,275.957,694.0078" style="stroke:#181818;stroke-width:1.0;"/><line style="stroke:#181818;stroke-width:1.0;" x1="113.4512" x2="277.957" y1="694.0078" y2="694.0078"/><text fill="#000000" font-family="sans-serif" font-size="13" lengthAdjust="spacing" textLength="151.5059" x="120.4512" y="688.9419">DeletePatientProfile(id)</text><polygon fill="#181818" points="1295.2339,719.1406,1305.2339,723.1406,1295.2339,727.1406,1299.2339,723.1406" style="stroke:#181818;stroke-width:1.0;"/><line style="stroke:#181818;stroke-width:1.0;" x1="293.957" x2="1301.2339" y1="723.1406" y2="723.1406"/><text fill="#000000" font-family="sans-serif" font-size="13" lengthAdjust="spacing" textLength="63.2417" x="300.957" y="718.0747">toDTO(id)</text><rect fill="#E2E2F0" height="46.5938" rx="2.5" ry="2.5" style="stroke:#181818;stroke-width:0.5;" width="87.9102" x="1307.2339" y="702.0078"/><text fill="#000000" font-family="sans-serif" font-size="14" lengthAdjust="spacing" textLength="47.4824" x="1327.4478" y="722.0029">&#171;DTO&#187;</text><text fill="#000000" font-family="sans-serif" font-size="14" lengthAdjust="spacing" textLength="69.46" x="1318.6841" y="738.2998">IdPassDto</text><polygon fill="#181818" points="632.2139,776.7344,642.2139,780.7344,632.2139,784.7344,636.2139,780.7344" style="stroke:#181818;stroke-width:1.0;"/><line style="stroke:#181818;stroke-width:1.0;" x1="293.957" x2="638.2139" y1="780.7344" y2="780.7344"/><text fill="#000000" font-family="sans-serif" font-size="13" lengthAdjust="spacing" textLength="220.1367" x="300.957" y="775.6685">DeletePatientProfile(idPassDto.Id)</text><polygon fill="#181818" points="962.7339,805.8672,972.7339,809.8672,962.7339,813.8672,966.7339,809.8672" style="stroke:#181818;stroke-width:1.0;"/><line style="stroke:#181818;stroke-width:1.0;" x1="654.2139" x2="968.7339" y1="809.8672" y2="809.8672"/><text fill="#000000" font-family="sans-serif" font-size="13" lengthAdjust="spacing" textLength="147.9067" x="661.2139" y="804.8013">ExistsPatientWithId(id)</text><polygon fill="#181818" points="665.2139,835,655.2139,839,665.2139,843,661.2139,839" style="stroke:#181818;stroke-width:1.0;"/><line style="stroke:#181818;stroke-width:1.0;stroke-dasharray:2.0,2.0;" x1="659.2139" x2="978.7339" y1="839" y2="839"/><text fill="#000000" font-family="sans-serif" font-size="13" lengthAdjust="spacing" textLength="26.6792" x="671.2139" y="833.9341">true</text><polygon fill="#181818" points="962.7339,864.1328,972.7339,868.1328,962.7339,872.1328,966.7339,868.1328" style="stroke:#181818;stroke-width:1.0;"/><line style="stroke:#181818;stroke-width:1.0;" x1="654.2139" x2="968.7339" y1="868.1328" y2="868.1328"/><text fill="#000000" font-family="sans-serif" font-size="13" lengthAdjust="spacing" textLength="301.52" x="661.2139" y="863.0669">GetByIdAsync(new MedicalRecordNumber(id))</text><polygon fill="#181818" points="665.2139,893.2656,655.2139,897.2656,665.2139,901.2656,661.2139,897.2656" style="stroke:#181818;stroke-width:1.0;"/><line style="stroke:#181818;stroke-width:1.0;stroke-dasharray:2.0,2.0;" x1="659.2139" x2="978.7339" y1="897.2656" y2="897.2656"/><text fill="#000000" font-family="sans-serif" font-size="13" lengthAdjust="spacing" textLength="46.2617" x="671.2139" y="892.1997">patient</text><line style="stroke:#181818;stroke-width:1.0;" x1="654.2139" x2="696.2139" y1="926.3984" y2="926.3984"/><line style="stroke:#181818;stroke-width:1.0;" x1="696.2139" x2="696.2139" y1="926.3984" y2="939.3984"/><line style="stroke:#181818;stroke-width:1.0;" x1="655.2139" x2="696.2139" y1="939.3984" y2="939.3984"/><polygon fill="#181818" points="665.2139,935.3984,655.2139,939.3984,665.2139,943.3984,661.2139,939.3984" style="stroke:#181818;stroke-width:1.0;"/><text fill="#000000" font-family="sans-serif" font-size="13" lengthAdjust="spacing" textLength="215.4775" x="661.2139" y="921.3325">userRef = patient.UserReference</text><polygon fill="#181818" points="1237.5059,964.5313,1247.5059,968.5313,1237.5059,972.5313,1241.5059,968.5313" style="stroke:#181818;stroke-width:1.0;"/><line style="stroke:#181818;stroke-width:1.0;" x1="654.2139" x2="1243.5059" y1="968.5313" y2="968.5313"/><text fill="#000000" font-family="sans-serif" font-size="13" lengthAdjust="spacing" textLength="82.2593" x="661.2139" y="963.4653">Anonymize()</text><polygon fill="#181818" points="665.2139,993.6641,655.2139,997.6641,665.2139,1001.6641,661.2139,997.6641" style="stroke:#181818;stroke-width:1.0;"/><line style="stroke:#181818;stroke-width:1.0;stroke-dasharray:2.0,2.0;" x1="659.2139" x2="1253.5059" y1="997.6641" y2="997.6641"/><text fill="#000000" font-family="sans-serif" font-size="13" lengthAdjust="spacing" textLength="26.6792" x="671.2139" y="992.5981">true</text><path d="M569.4302,1012.6641 L633.873,1012.6641 L633.873,1019.7969 L623.873,1029.7969 L569.4302,1029.7969 L569.4302,1012.6641 " fill="#EEEEEE" style="stroke:#000000;stroke-width:1.5;"/><rect fill="none" height="573.5781" style="stroke:#000000;stroke-width:1.5;" width="1602.7607" x="569.4302" y="1012.6641"/><text fill="#000000" font-family="sans-serif" font-size="13" font-weight="bold" lengthAdjust="spacing" textLength="19.4429" x="584.4302" y="1025.731">alt</text><text fill="#000000" font-family="sans-serif" font-size="11" font-weight="bold" lengthAdjust="spacing" textLength="170.1724" x="648.873" y="1024.8745">[If Anonymize returns true]</text><polygon fill="#181818" points="1435.8657,1077.1953,1445.8657,1081.1953,1435.8657,1085.1953,1439.8657,1081.1953" style="stroke:#181818;stroke-width:1.0;"/><line style="stroke:#181818;stroke-width:1.0;" x1="654.2139" x2="1441.8657" y1="1081.1953" y2="1081.1953"/><text fill="#000000" font-family="sans-serif" font-size="13" lengthAdjust="spacing" textLength="233.9746" x="661.2139" y="1045.8638">CreateDeletionLog(patient.Id.Value,</text><text fill="#000000" font-family="sans-serif" font-size="13" lengthAdjust="spacing" textLength="188.6904" x="661.2139" y="1060.9966">patient.GetType().ToString(),</text><text fill="#000000" font-family="sans-serif" font-size="13" lengthAdjust="spacing" textLength="241.0332" x="661.2139" y="1076.1294">"Anonymization of patient's profile.")</text><polygon fill="#181818" points="1498.5874,1091.1953,1508.5874,1095.1953,1498.5874,1099.1953,1502.5874,1095.1953" style="stroke:#181818;stroke-width:1.0;"/><line style="stroke:#181818;stroke-width:1.0;" x1="1457.8657" x2="1504.5874" y1="1095.1953" y2="1095.1953"/><rect fill="#E2E2F0" height="46.5938" rx="2.5" ry="2.5" style="stroke:#181818;stroke-width:0.5;" width="85.4561" x="1510.5874" y="1089.1953"/><text fill="#000000" font-family="sans-serif" font-size="14" lengthAdjust="spacing" textLength="71.4561" x="1517.5874" y="1109.1904">&#171;Domain&#187;</text><text fill="#000000" font-family="sans-serif" font-size="14" lengthAdjust="spacing" textLength="25.252" x="1542.9146" y="1125.4873">Log</text><polygon fill="#181818" points="1648.4307,1163.9219,1658.4307,1167.9219,1648.4307,1171.9219,1652.4307,1167.9219" style="stroke:#181818;stroke-width:1.0;"/><line style="stroke:#181818;stroke-width:1.0;" x1="1457.8657" x2="1654.4307" y1="1167.9219" y2="1167.9219"/><text fill="#000000" font-family="sans-serif" font-size="13" lengthAdjust="spacing" textLength="94.104" x="1464.8657" y="1162.856">AddAsync(log)</text><polygon fill="#181818" points="1468.8657,1193.0547,1458.8657,1197.0547,1468.8657,1201.0547,1464.8657,1197.0547" style="stroke:#181818;stroke-width:1.0;"/><line style="stroke:#181818;stroke-width:1.0;stroke-dasharray:2.0,2.0;" x1="1462.8657" x2="1664.4307" y1="1197.0547" y2="1197.0547"/><text fill="#000000" font-family="sans-serif" font-size="13" lengthAdjust="spacing" textLength="26.6792" x="1474.8657" y="1191.9888">true</text><polygon fill="#181818" points="665.2139,1222.1875,655.2139,1226.1875,665.2139,1230.1875,661.2139,1226.1875" style="stroke:#181818;stroke-width:1.0;"/><line style="stroke:#181818;stroke-width:1.0;stroke-dasharray:2.0,2.0;" x1="659.2139" x2="1451.8657" y1="1226.1875" y2="1226.1875"/><text fill="#000000" font-family="sans-serif" font-size="13" lengthAdjust="spacing" textLength="26.6792" x="671.2139" y="1221.1216">true</text><polygon fill="#181818" points="1768.8687,1251.3203,1778.8687,1255.3203,1768.8687,1259.3203,1772.8687,1255.3203" style="stroke:#181818;stroke-width:1.0;"/><line style="stroke:#181818;stroke-width:1.0;" x1="654.2139" x2="1774.8687" y1="1255.3203" y2="1255.3203"/><text fill="#000000" font-family="sans-serif" font-size="13" lengthAdjust="spacing" textLength="266.6587" x="661.2139" y="1250.2544">DeleteByIdAsync(patient.UserReference)</text><polygon fill="#181818" points="2089.3276,1280.4531,2099.3276,1284.4531,2089.3276,1288.4531,2093.3276,1284.4531" style="stroke:#181818;stroke-width:1.0;"/><line style="stroke:#181818;stroke-width:1.0;" x1="1790.8687" x2="2095.3276" y1="1284.4531" y2="1284.4531"/><text fill="#000000" font-family="sans-serif" font-size="13" lengthAdjust="spacing" textLength="291.459" x="1797.8687" y="1279.3872">DeleteAsync(FindByIdAsync(userReference))</text><polygon fill="#181818" points="1801.8687,1309.5859,1791.8687,1313.5859,1801.8687,1317.5859,1797.8687,1313.5859" style="stroke:#181818;stroke-width:1.0;"/><line style="stroke:#181818;stroke-width:1.0;stroke-dasharray:2.0,2.0;" x1="1795.8687" x2="2105.3276" y1="1313.5859" y2="1313.5859"/><text fill="#000000" font-family="sans-serif" font-size="13" lengthAdjust="spacing" textLength="26.6792" x="1807.8687" y="1308.52">true</text><polygon fill="#181818" points="665.2139,1338.7188,655.2139,1342.7188,665.2139,1346.7188,661.2139,1342.7188" style="stroke:#181818;stroke-width:1.0;"/><line style="stroke:#181818;stroke-width:1.0;stroke-dasharray:2.0,2.0;" x1="659.2139" x2="1784.8687" y1="1342.7188" y2="1342.7188"/><text fill="#000000" font-family="sans-serif" font-size="13" lengthAdjust="spacing" textLength="26.6792" x="671.2139" y="1337.6528">true</text><path d="M579.4302,1357.7188 L643.873,1357.7188 L643.873,1364.8516 L633.873,1374.8516 L579.4302,1374.8516 L579.4302,1357.7188 " fill="#EEEEEE" style="stroke:#000000;stroke-width:1.5;"/><rect fill="none" height="221.5234" style="stroke:#000000;stroke-width:1.5;" width="1155.3877" x="579.4302" y="1357.7188"/><text fill="#000000" font-family="sans-serif" font-size="13" font-weight="bold" lengthAdjust="spacing" textLength="19.4429" x="594.4302" y="1370.7856">alt</text><text fill="#000000" font-family="sans-serif" font-size="11" font-weight="bold" lengthAdjust="spacing" textLength="111.2031" x="658.873" y="1369.9292">[If it returns true]</text><polygon fill="#181818" points="1435.8657,1422.25,1445.8657,1426.25,1435.8657,1430.25,1439.8657,1426.25" style="stroke:#181818;stroke-width:1.0;"/><line style="stroke:#181818;stroke-width:1.0;" x1="654.2139" x2="1441.8657" y1="1426.25" y2="1426.25"/><text fill="#000000" font-family="sans-serif" font-size="13" lengthAdjust="spacing" textLength="180.6162" x="661.2139" y="1390.9185">CreateDeletionLog(userRef,</text><text fill="#000000" font-family="sans-serif" font-size="13" lengthAdjust="spacing" textLength="194.4287" x="661.2139" y="1406.0513">"MDBackoffice.Domain.Users",</text><text fill="#000000" font-family="sans-serif" font-size="13" lengthAdjust="spacing" textLength="209.0093" x="661.2139" y="1421.1841">"Deletion of patient's account.")</text><polygon fill="#181818" points="1498.5874,1436.25,1508.5874,1440.25,1498.5874,1444.25,1502.5874,1440.25" style="stroke:#181818;stroke-width:1.0;"/><line style="stroke:#181818;stroke-width:1.0;" x1="1457.8657" x2="1504.5874" y1="1440.25" y2="1440.25"/><rect fill="#E2E2F0" height="46.5938" rx="2.5" ry="2.5" style="stroke:#181818;stroke-width:0.5;" width="85.4561" x="1510.5874" y="1434.25"/><text fill="#000000" font-family="sans-serif" font-size="14" lengthAdjust="spacing" textLength="71.4561" x="1517.5874" y="1454.2451">&#171;Domain&#187;</text><text fill="#000000" font-family="sans-serif" font-size="14" lengthAdjust="spacing" textLength="25.252" x="1542.9146" y="1470.542">Log</text><polygon fill="#181818" points="1648.4307,1508.9766,1658.4307,1512.9766,1648.4307,1516.9766,1652.4307,1512.9766" style="stroke:#181818;stroke-width:1.0;"/><line style="stroke:#181818;stroke-width:1.0;" x1="1457.8657" x2="1654.4307" y1="1512.9766" y2="1512.9766"/><text fill="#000000" font-family="sans-serif" font-size="13" lengthAdjust="spacing" textLength="94.104" x="1464.8657" y="1507.9106">AddAsync(log)</text><polygon fill="#181818" points="1468.8657,1538.1094,1458.8657,1542.1094,1468.8657,1546.1094,1464.8657,1542.1094" style="stroke:#181818;stroke-width:1.0;"/><line style="stroke:#181818;stroke-width:1.0;stroke-dasharray:2.0,2.0;" x1="1462.8657" x2="1664.4307" y1="1542.1094" y2="1542.1094"/><text fill="#000000" font-family="sans-serif" font-size="13" lengthAdjust="spacing" textLength="26.6792" x="1474.8657" y="1537.0435">true</text><polygon fill="#181818" points="665.2139,1567.2422,655.2139,1571.2422,665.2139,1575.2422,661.2139,1571.2422" style="stroke:#181818;stroke-width:1.0;"/><line style="stroke:#181818;stroke-width:1.0;stroke-dasharray:2.0,2.0;" x1="659.2139" x2="1451.8657" y1="1571.2422" y2="1571.2422"/><text fill="#000000" font-family="sans-serif" font-size="13" lengthAdjust="spacing" textLength="26.6792" x="671.2139" y="1566.1763">true</text><polygon fill="#181818" points="304.957,1610.375,294.957,1614.375,304.957,1618.375,300.957,1614.375" style="stroke:#181818;stroke-width:1.0;"/><line style="stroke:#181818;stroke-width:1.0;stroke-dasharray:2.0,2.0;" x1="298.957" x2="648.2139" y1="1614.375" y2="1614.375"/><text fill="#000000" font-family="sans-serif" font-size="13" lengthAdjust="spacing" textLength="40.2632" x="310.957" y="1609.3091">return</text><line style="stroke:#181818;stroke-width:1.0;stroke-dasharray:2.0,2.0;" x1="293.957" x2="335.957" y1="1643.5078" y2="1643.5078"/><line style="stroke:#181818;stroke-width:1.0;stroke-dasharray:2.0,2.0;" x1="335.957" x2="335.957" y1="1643.5078" y2="1656.5078"/><line style="stroke:#181818;stroke-width:1.0;stroke-dasharray:2.0,2.0;" x1="294.957" x2="335.957" y1="1656.5078" y2="1656.5078"/><polygon fill="#181818" points="304.957,1652.5078,294.957,1656.5078,304.957,1660.5078,300.957,1656.5078" style="stroke:#181818;stroke-width:1.0;"/><text fill="#000000" font-family="sans-serif" font-size="13" lengthAdjust="spacing" textLength="326.2568" x="300.957" y="1638.4419">Ok(Patient profile and account succefully deleted)</text><polygon fill="#181818" points="124.4512,1681.6406,114.4512,1685.6406,124.4512,1689.6406,120.4512,1685.6406" style="stroke:#181818;stroke-width:1.0;"/><line style="stroke:#181818;stroke-width:1.0;stroke-dasharray:2.0,2.0;" x1="118.4512" x2="287.957" y1="1685.6406" y2="1685.6406"/><text fill="#000000" font-family="sans-serif" font-size="13" lengthAdjust="spacing" textLength="26.5776" x="130.4512" y="1680.5747">json</text><polygon fill="#181818" points="11,1710.7734,1,1714.7734,11,1718.7734,7,1714.7734" style="stroke:#181818;stroke-width:1.0;"/><line style="stroke:#181818;stroke-width:1.0;stroke-dasharray:2.0,2.0;" x1="5" x2="107.4512" y1="1714.7734" y2="1714.7734"/><text fill="#000000" font-family="sans-serif" font-size="13" lengthAdjust="spacing" textLength="26.5776" x="17" y="1709.7075">json</text><!--SRC=[rLR1Rjiu4BtpAmXVQWUriCLYBulKW1jxkrwuaM7BxQ6vSAMHmor36XILhVlr7KcaHCfoclJMcqtnlNaSlfcXuKO07Urtz8_eJVJcjuXkj4gXAEX73l_JyHeUGT3V9oD2ZamRdl8ZauQEhg-tgZGmczr9kc66WpJrmeYoWcxZVRBixxzHqcWb16WVrAtMo9luDjd6wpvs1_gHfq4qkrIZvllax-h_cKGuge8RfK-1pdQr1c_coMg9KN6rZryaSGrSyy9SM_J2g5c3Q_vNtt3V6LGzC2xzi7wmIu5MsOOL1ORm8mom-_bOguEVYtNyVYWLdXu4k9q_I1Zkx2KBCKE9ylNi2z2-eFrkkHrIj3TSS7DgCH-OP0ThWmg3_mdvhAQpnaxqJ_f-cOmdH2e3LFF3lS6b0nZ3vO6QUw1tKk1TK9NJerOv5r0GCayDVsG8Q2n96Yhaj4QhMC7OH6yi38DqGET8uX08Tdvhq7CXTYUP8ge5jOOaxLQ4UKxh8Ma7zUr8VCGq3Fp8DAtF-pQmvumiW0ro1Ke2xrvT4IAKEj9SQOhrhaykWvJBEaYSkzmC7GZL68Kyc85-Q7U2ldhBNraxEzFxX5I4LdhcMJRkAFomOL7sm3qH6aofPI0WX8FC_Bm5jZc6MxsiTvVlMQO3gY_Z43lnDdfk_wzGqgTrHhoUJiCz_YPhyw16M6v0q_HUOI7B0rORS-dlrTSctYNZVtRnxMI8m9OQugjYIvNCkNx0WrGAdb5c2n1W8AoqCSz-L6fT3xowQdrMmuRhyK8OsrQZLVR2Abr-nKigBDydRkvNMHr-iCQUA5UZInYm-a1fzfl4kzCgcnTLcv0ua3z0nbCcjf0gdTsM3_-2hlIyN93ruBCqUR0IE_KMSkmwbY3QDokWGQP0BlI7kLJozC2_mGjwn8MK4SA4eQkyuxI5N3I8G86TXiXsem59QdkWPN6okIf4JqGVcIZXzPrqIvZsv7H4iL6YTaQZxSSJ_3no8MlRrvEc0RmgN4b58- -0BZfnFnf5s6_31NlPsDMQYnRg4BBKL-8sJeDpzRFaxMwxrXD9TS-586jkPBVrr7bmyDOziUsqRpai7uxpbgwX-elBh2Ck0y8UO_KMS2JJK61r8EgVoD__d0oqYfslkFb9GzaZL4PPB1QtW8zR3L7pygeJLepgRnOI-eUbgIeniR-gVwfP-TIyF1-s0tCoGCHVnhRljiyH9ZENA5gKQGfvASI9PhMhi2jVdAFP-Hmz7wHPRuv-1m00]--></g></svg>