<svg xmlns="http://www.w3.org/2000/svg" xmlns:xlink="http://www.w3.org/1999/xlink" xmlns:lucid="lucid" width="1412" height="456"><g transform="translate(-1531 957)" lucid:page-tab-id="0_0"><path d="M-500-1500h3500v2500H-500z" fill="#fff"/><path d="M1562.3-914a6 6 0 0 1 6-6H2914a6 6 0 0 1 6 6v368a6 6 0 0 1-6 6H1568.3a6 6 0 0 1-6-6z" stroke="#1071e5" stroke-width="3" fill="#cfe4ff"/><path d="M2525.4-894a6 6 0 0 1 6-6H2894a6 6 0 0 1 6 6v333.6a6 6 0 0 1-6 6h-362.6a6 6 0 0 1-6-6z" stroke="#ba23f6" stroke-width="3" fill="#f4d9ff"/><path d="M1583.96-859a6 6 0 0 1 6-6h168a6 6 0 0 1 6 6v288a6 6 0 0 1-6 6h-168a6 6 0 0 1-6-6z" stroke="#cc4e00" stroke-width="3" fill="#ffdda6"/><path d="M2330-829a6 6 0 0 1 6-6h258a6 6 0 0 0 6-6v-1.48a2.58 2.58 0 0 1 4.35-1.87l21.3 20.22a5.7 5.7 0 0 1 0 8.26l-21.3 20.22a2.58 2.58 0 0 1-4.35-1.87V-799a6 6 0 0 0-6-6h-258a6 6 0 0 1-6-6z" stroke="#008a0e" stroke-width="3" fill="#54c45e"/><use xlink:href="#a" transform="matrix(1,0,0,1,2335,-843.4831511159008) translate(93.18148148148148 28.81666666666667)"/><path d="M2330.08-764a6 6 0 0 1 6.03-5.96l204 1.23a5 5 0 0 0 5.04-4.97 2.38 2.38 0 0 1 3.9-1.82l26.33 21.7a4.88 4.88 0 0 1-.05 7.58l-26.6 21.38a2.38 2.38 0 0 1-3.86-1.87 5 5 0 0 0-4.97-5.03l-204-1.24a6 6 0 0 1-5.98-6.03z" stroke="#008a0e" stroke-width="3" fill="#54c45e"/><use xlink:href="#a" transform="matrix(0.9999815938638937,0.006067283859087971,-0.006067283859087971,0.9999815938638937,2335.142386913046,-774.9692313466287) translate(66.68148148148148 28.81666666666667)"/><path d="M2330-679.76a6 6 0 0 1 6-6h243.3a6 6 0 0 0 6-6v-1.48a2.85 2.85 0 0 1 4.64-2.2l25.7 20.9a4.88 4.88 0 0 1 0 7.57l-25.7 20.9a2.85 2.85 0 0 1-4.65-2.2v-1.5a6 6 0 0 0-6-6H2336a6 6 0 0 1-6-6z" stroke="#008a0e" stroke-width="3" fill="#54c45e"/><use xlink:href="#a" transform="matrix(1,0,0,1,2335,-694.2411571493565) translate(87.18148148148148 28.81666666666667)"/><path d="M2330.28-614.45a6 6 0 0 1 6.04-5.96l189.4 1.23a4.4 4.4 0 0 0 4.43-4.36 1.9 1.9 0 0 1 3.2-1.36l22.5 21.5a5.66 5.66 0 0 1-.05 8.25l-22.78 21.2a1.9 1.9 0 0 1-3.2-1.4 4.4 4.4 0 0 0-4.36-4.42l-189.4-1.25a6 6 0 0 1-5.96-6.04z" stroke="#008a0e" stroke-width="3" fill="#54c45e"/><use xlink:href="#a" transform="matrix(0.9999782537288683,0.006594851731705222,-0.006594851731705222,0.9999782537288683,2335.342601326908,-624.2080906283207) translate(58.18148148148148 28.81666666666667)"/><path d="M2140-854a6 6 0 0 1 6-6h188a6 6 0 0 1 6 6v288a6 6 0 0 1-6 6h-188a6 6 0 0 1-6-6z" stroke="#d916a8" stroke-width="3" fill="#ffd6f5"/><path d="M1775.36-710.84a6 6 0 0 1 5.95-6.05l53.8-.46a5.85 5.85 0 0 0 5.78-5.9 2.24 2.24 0 0 1 3.9-1.54l13.26 14.47a6.67 6.67 0 0 1 .08 8.92l-13 14.7a2.24 2.24 0 0 1-3.93-1.47 5.85 5.85 0 0 0-5.9-5.8l-53.8.48a6 6 0 0 1-6.04-5.94z" stroke="#008a0e" stroke-width="3" fill="#54c45e"/><path d="M2675.76-845.76a6 6 0 0 1 8.48 0l31.52 31.52a6 6 0 0 1 0 8.48l-31.52 31.52a6 6 0 0 1-8.48 0l-31.52-31.52a6 6 0 0 1 0-8.48z" stroke="#635dff" stroke-width="3" fill="#9391ff"/><use xlink:href="#b" transform="matrix(1,0,0,1,2645,-845) translate(15.381543209876542 39.24305555555556)"/><path d="M2615.76-779.4a6 6 0 0 1 8.48 0l31.52 31.52a6 6 0 0 1 0 8.5l-31.52 31.5a6 6 0 0 1-8.48 0l-31.52-31.5a6 6 0 0 1 0-8.5z" stroke="#635dff" stroke-width="3" fill="#9391ff"/><use xlink:href="#c" transform="matrix(1,0,0,1,2585,-778.6376366630744) translate(15.381543209876542 39.24305555555556)"/><path d="M2661.16-709.4a6 6 0 0 1 8.48 0l31.52 31.52a6 6 0 0 1 0 8.5l-31.52 31.5a6 6 0 0 1-8.48 0l-31.52-31.5a6 6 0 0 1 0-8.5z" stroke="#635dff" stroke-width="3" fill="#9391ff"/><use xlink:href="#d" transform="matrix(1,0,0,1,2630.4000000000005,-708.6376366630744) translate(15.381543209876542 39.24305555555556)"/><path d="M2601.16-635.76a6 6 0 0 1 8.48 0l31.52 31.52a6 6 0 0 1 0 8.48l-31.52 31.52a6 6 0 0 1-8.48 0l-31.52-31.52a6 6 0 0 1 0-8.48z" stroke="#635dff" stroke-width="3" fill="#9391ff"/><use xlink:href="#e" transform="matrix(1,0,0,1,2570.4000000000005,-635.0000000000001) translate(15.381543209876542 39.24305555555556)"/><path d="M2147.7-747.03a6 6 0 0 1 6-6h172.6a6 6 0 0 1 6 6v98a6 6 0 0 1-6 6h-172.6a6 6 0 0 1-6-6z" fill="none"/><use xlink:href="#f" transform="matrix(1,0,0,1,2147.7,-753.0336977681984) translate(-2.0864197530864175 42.55555555555555)"/><use xlink:href="#g" transform="matrix(1,0,0,1,2147.7,-753.0336977681984) translate(38.22839506172839 79.88888888888889)"/><path d="M1583.96-755.28a6 6 0 0 1 6-6h170.3a6 6 0 0 1 6 6v98a6 6 0 0 1-6 6h-170.3a6 6 0 0 1-6-6z" fill="none"/><use xlink:href="#h" transform="matrix(1,0,0,1,1583.9615400077064,-761.2838429130829) translate(25.993827160493822 42.55555555555555)"/><use xlink:href="#i" transform="matrix(1,0,0,1,1583.9615400077064,-761.2838429130829) translate(37.22839506172839 79.88888888888889)"/><path d="M2720-789a6 6 0 0 1 6-6h148a6 6 0 0 1 6 6v148a6 6 0 0 1-6 6h-148a6 6 0 0 1-6-6z" fill="none"/><use xlink:href="#j" transform="matrix(1,0,0,1,2720,-795.0000000000002) translate(27.481481481481488 21.333333333333336)"/><use xlink:href="#k" transform="matrix(1,0,0,1,2720,-795.0000000000002) translate(34.925925925925924 53.333333333333336)"/><use xlink:href="#l" transform="matrix(1,0,0,1,2720,-795.0000000000002) translate(53.407407407407405 85.33333333333334)"/><use xlink:href="#m" transform="matrix(1,0,0,1,2720,-795.0000000000002) translate(26.851851851851848 117.33333333333334)"/><use xlink:href="#n" transform="matrix(1,0,0,1,2720,-795.0000000000002) translate(20.851851851851848 149.33333333333334)"/><path d="M2012.26-667c0 6.63-31.05 12-69.36 12-38.3 0-69.36-5.37-69.36-12v-96c0-6.63 31.06-12 69.36-12s69.36 5.37 69.36 12z" stroke="#00c2a8" stroke-width="3" fill="#b8f5ed"/><path d="M2012.26-763c0 6.63-31.05 12-69.36 12-38.3 0-69.36-5.37-69.36-12" stroke="#00c2a8" stroke-width="3" fill="none"/><g><use xlink:href="#o" transform="matrix(1,0,0,1,1878.5418178887564,-746.0000000000002) translate(17.181481481481484 46.97291666666667)"/></g><g><path d="M2130-700.2a6 6 0 0 1-6 6h-67.1a5.85 5.85 0 0 0-5.85 5.84 2.24 2.24 0 0 1-3.9 1.5L2034-701.44a6.67 6.67 0 0 1 0-8.92l13.14-14.6a2.24 2.24 0 0 1 3.9 1.5 5.85 5.85 0 0 0 5.86 5.86h67.1a6 6 0 0 1 6 6z" stroke="#008a0e" stroke-width="3" fill="#54c45e"/></g><path d="M2525.4-894a6 6 0 0 1 6-6H2874a6 6 0 0 1 6 6v48a6 6 0 0 1-6 6h-342.6a6 6 0 0 1-6-6z" fill="none"/><g><use xlink:href="#p" transform="matrix(1,0,0,1,2525.4000000000005,-900) translate(9.444444444444457 34.44444444444444)"/><use xlink:href="#q" transform="matrix(1,0,0,1,2525.4000000000005,-900) translate(103.0246913580247 34.44444444444444)"/><use xlink:href="#r" transform="matrix(1,0,0,1,2525.4000000000005,-900) translate(222.53086419753086 34.44444444444444)"/></g><defs><path fill="#f8f8f2" d="M169-182c-1-43-94-46-97-3 18 66 151 10 154 114 3 95-165 93-204 36-6-8-10-19-12-30l50-8c3 46 112 56 116 5-17-69-150-10-154-114-4-87 153-88 188-35 5 8 8 18 10 28" id="s"/><path fill="#f8f8f2" d="M190-63c-7 42-38 67-86 67-59 0-84-38-90-98-12-110 154-137 174-36l-49 2c-2-19-15-32-35-32-30 0-35 28-38 64-6 74 65 87 74 30" id="t"/><path fill="#f8f8f2" d="M114-157C55-157 80-60 75 0H25v-261h50l-1 109c12-26 28-41 61-42 86-1 58 113 63 194h-50c-7-57 23-157-34-157" id="u"/><path fill="#f8f8f2" d="M185-48c-13 30-37 53-82 52C43 2 14-33 14-96s30-98 90-98c62 0 83 45 84 108H66c0 31 8 55 39 56 18 0 30-7 34-22zm-45-69c5-46-57-63-70-21-2 6-4 13-4 21h74" id="v"/><path fill="#f8f8f2" d="M88-194c31-1 46 15 58 34l-1-101h50l1 261h-48c-2-10 0-23-3-31C134-8 116 4 84 4 32 4 16-41 15-95c0-56 19-97 73-99zm17 164c33 0 40-30 41-66 1-37-9-64-41-64s-38 30-39 65c0 43 13 65 39 65" id="w"/><path fill="#f8f8f2" d="M85 4C-2 5 27-109 22-190h50c7 57-23 150 33 157 60-5 35-97 40-157h50l1 190h-47c-2-12 1-28-3-38-12 25-28 42-61 42" id="x"/><path fill="#f8f8f2" d="M25 0v-261h50V0H25" id="y"/><g id="a"><use transform="matrix(0.05925925925925927,0,0,0.05925925925925927,0,0)" xlink:href="#s"/><use transform="matrix(0.05925925925925927,0,0,0.05925925925925927,14.222222222222225,0)" xlink:href="#t"/><use transform="matrix(0.05925925925925927,0,0,0.05925925925925927,26.074074074074076,0)" xlink:href="#u"/><use transform="matrix(0.05925925925925927,0,0,0.05925925925925927,39.05185185185186,0)" xlink:href="#v"/><use transform="matrix(0.05925925925925927,0,0,0.05925925925925927,50.90370370370371,0)" xlink:href="#w"/><use transform="matrix(0.05925925925925927,0,0,0.05925925925925927,63.881481481481494,0)" xlink:href="#x"/><use transform="matrix(0.05925925925925927,0,0,0.05925925925925927,76.85925925925928,0)" xlink:href="#y"/><use transform="matrix(0.05925925925925927,0,0,0.05925925925925927,82.7851851851852,0)" xlink:href="#v"/></g><path fill="#f8f8f2" d="M240-174c0 40-23 61-54 70L253 0h-59l-57-94H76V0H24v-248c93 4 217-23 216 74zM76-134c48-2 112 12 112-38 0-48-66-32-112-35v73" id="z"/><path fill="#f8f8f2" d="M14-72v-43h91v43H14" id="A"/><path fill="#f8f8f2" d="M23 0v-37h61v-169l-59 37v-38l62-41h46v211h57V0H23" id="B"/><g id="b"><use transform="matrix(0.06790123456790124,0,0,0.06790123456790124,0,0)" xlink:href="#z"/><use transform="matrix(0.06790123456790124,0,0,0.06790123456790124,17.58641975308642,0)" xlink:href="#A"/><use transform="matrix(0.06790123456790124,0,0,0.06790123456790124,25.66666666666667,0)" xlink:href="#B"/></g><path fill="#f8f8f2" d="M182-182c0 78-84 86-111 141h115V0H12c-6-101 99-100 120-180 1-22-12-31-33-32-23 0-32 14-35 34l-49-3c5-45 32-70 84-70 51 0 83 22 83 69" id="C"/><g id="c"><use transform="matrix(0.06790123456790124,0,0,0.06790123456790124,0,0)" xlink:href="#z"/><use transform="matrix(0.06790123456790124,0,0,0.06790123456790124,17.58641975308642,0)" xlink:href="#A"/><use transform="matrix(0.06790123456790124,0,0,0.06790123456790124,25.66666666666667,0)" xlink:href="#C"/></g><path fill="#f8f8f2" d="M128-127c34 4 56 21 59 58 7 91-148 94-172 28-4-9-6-17-7-26l51-5c1 24 16 35 40 36 23 0 39-12 38-36-1-31-31-36-65-34v-40c32 2 59-3 59-33 0-20-13-33-34-33s-33 13-35 32l-50-3c6-44 37-68 86-68 50 0 83 20 83 66 0 35-22 52-53 58" id="D"/><g id="d"><use transform="matrix(0.06790123456790124,0,0,0.06790123456790124,0,0)" xlink:href="#z"/><use transform="matrix(0.06790123456790124,0,0,0.06790123456790124,17.58641975308642,0)" xlink:href="#A"/><use transform="matrix(0.06790123456790124,0,0,0.06790123456790124,25.66666666666667,0)" xlink:href="#D"/></g><path fill="#f8f8f2" d="M165-50V0h-47v-50H5v-38l105-160h55v161h33v37h-33zm-47-37l2-116L46-87h72" id="E"/><g id="e"><use transform="matrix(0.06790123456790124,0,0,0.06790123456790124,0,0)" xlink:href="#z"/><use transform="matrix(0.06790123456790124,0,0,0.06790123456790124,17.58641975308642,0)" xlink:href="#A"/><use transform="matrix(0.06790123456790124,0,0,0.06790123456790124,25.66666666666667,0)" xlink:href="#E"/></g><path fill="#d916a8" d="M147 0H94L2-248h55l64 206c17-72 42-137 63-206h54" id="F"/><path fill="#d916a8" d="M25-224v-37h50v37H25zM25 0v-190h50V0H25" id="G"/><path fill="#d916a8" d="M137-138c1-29-70-34-71-4 15 46 118 7 119 86 1 83-164 76-172 9l43-7c4 19 20 25 44 25 33 8 57-30 24-41C81-84 22-81 20-136c-2-80 154-74 161-7" id="H"/><path fill="#d916a8" d="M85 4C-2 5 27-109 22-190h50c7 57-23 150 33 157 60-5 35-97 40-157h50l1 190h-47c-2-12 1-28-3-38-12 25-28 42-61 42" id="I"/><path fill="#d916a8" d="M133-34C117-15 103 5 69 4 32 3 11-16 11-54c-1-60 55-63 116-61 1-26-3-47-28-47-18 1-26 9-28 27l-52-2c7-38 36-58 82-57s74 22 75 68l1 82c-1 14 12 18 25 15v27c-30 8-71 5-69-32zm-48 3c29 0 43-24 42-57-32 0-66-3-65 30 0 17 8 27 23 27" id="J"/><path fill="#d916a8" d="M25 0v-261h50V0H25" id="K"/><path fill="#d916a8" d="M12 0v-35l95-120H19v-35h142v35L67-36h103V0H12" id="L"/><path fill="#d916a8" d="M115-3C79 11 28 4 28-45v-112H4v-33h27l15-45h31v45h36v33H77v99c-1 23 16 31 38 25v30" id="M"/><path fill="#d916a8" d="M110-194c64 0 96 36 96 99 0 64-35 99-97 99-61 0-95-36-95-99 0-62 34-99 96-99zm-1 164c35 0 45-28 45-65 0-40-10-65-43-65-34 0-45 26-45 65 0 36 10 65 43 65" id="N"/><path fill="#d916a8" d="M135-194c87-1 58 113 63 194h-50c-7-57 23-157-34-157-59 0-34 97-39 157H25l-1-190h47c2 12-1 28 3 38 12-26 28-41 61-42" id="O"/><g id="f"><use transform="matrix(0.08641975308641976,0,0,0.08641975308641976,0,0)" xlink:href="#F"/><use transform="matrix(0.08641975308641976,0,0,0.08641975308641976,20.135802469135804,0)" xlink:href="#G"/><use transform="matrix(0.08641975308641976,0,0,0.08641975308641976,28.777777777777782,0)" xlink:href="#H"/><use transform="matrix(0.08641975308641976,0,0,0.08641975308641976,46.061728395061735,0)" xlink:href="#I"/><use transform="matrix(0.08641975308641976,0,0,0.08641975308641976,64.98765432098766,0)" xlink:href="#J"/><use transform="matrix(0.08641975308641976,0,0,0.08641975308641976,82.27160493827161,0)" xlink:href="#K"/><use transform="matrix(0.08641975308641976,0,0,0.08641975308641976,90.9135802469136,0)" xlink:href="#G"/><use transform="matrix(0.08641975308641976,0,0,0.08641975308641976,99.55555555555557,0)" xlink:href="#L"/><use transform="matrix(0.08641975308641976,0,0,0.08641975308641976,115.11111111111113,0)" xlink:href="#J"/><use transform="matrix(0.08641975308641976,0,0,0.08641975308641976,132.39506172839506,0)" xlink:href="#M"/><use transform="matrix(0.08641975308641976,0,0,0.08641975308641976,142.679012345679,0)" xlink:href="#G"/><use transform="matrix(0.08641975308641976,0,0,0.08641975308641976,151.320987654321,0)" xlink:href="#N"/><use transform="matrix(0.08641975308641976,0,0,0.08641975308641976,170.2469135802469,0)" xlink:href="#O"/></g><path fill="#d916a8" d="M230 0l2-204L168 0h-37L68-204 70 0H24v-248h70l56 185 57-185h69V0h-46" id="P"/><path fill="#d916a8" d="M88-194c31-1 46 15 58 34l-1-101h50l1 261h-48c-2-10 0-23-3-31C134-8 116 4 84 4 32 4 16-41 15-95c0-56 19-97 73-99zm17 164c33 0 40-30 41-66 1-37-9-64-41-64s-38 30-39 65c0 43 13 65 39 65" id="Q"/><path fill="#d916a8" d="M185-48c-13 30-37 53-82 52C43 2 14-33 14-96s30-98 90-98c62 0 83 45 84 108H66c0 31 8 55 39 56 18 0 30-7 34-22zm-45-69c5-46-57-63-70-21-2 6-4 13-4 21h74" id="R"/><g id="g"><use transform="matrix(0.08641975308641976,0,0,0.08641975308641976,0,0)" xlink:href="#P"/><use transform="matrix(0.08641975308641976,0,0,0.08641975308641976,25.83950617283951,0)" xlink:href="#N"/><use transform="matrix(0.08641975308641976,0,0,0.08641975308641976,44.76543209876544,0)" xlink:href="#Q"/><use transform="matrix(0.08641975308641976,0,0,0.08641975308641976,63.69135802469137,0)" xlink:href="#I"/><use transform="matrix(0.08641975308641976,0,0,0.08641975308641976,82.61728395061729,0)" xlink:href="#K"/><use transform="matrix(0.08641975308641976,0,0,0.08641975308641976,91.25925925925927,0)" xlink:href="#R"/></g><path fill="#cc4e00" d="M24-248c93 1 206-16 204 79-1 75-69 88-152 82V0H24v-248zm52 121c47 0 100 7 100-41 0-47-54-39-100-39v80" id="S"/><path fill="#cc4e00" d="M25 0v-261h50V0H25" id="T"/><path fill="#cc4e00" d="M133-34C117-15 103 5 69 4 32 3 11-16 11-54c-1-60 55-63 116-61 1-26-3-47-28-47-18 1-26 9-28 27l-52-2c7-38 36-58 82-57s74 22 75 68l1 82c-1 14 12 18 25 15v27c-30 8-71 5-69-32zm-48 3c29 0 43-24 42-57-32 0-66-3-65 30 0 17 8 27 23 27" id="U"/><path fill="#cc4e00" d="M135-194c87-1 58 113 63 194h-50c-7-57 23-157-34-157-59 0-34 97-39 157H25l-1-190h47c2 12-1 28 3 38 12-26 28-41 61-42" id="V"/><path fill="#cc4e00" d="M25-224v-37h50v37H25zM25 0v-190h50V0H25" id="W"/><path fill="#cc4e00" d="M195-6C206 82 75 100 31 46c-4-6-6-13-8-21l49-6c3 16 16 24 34 25 40 0 42-37 40-79-11 22-30 35-61 35-53 0-70-43-70-97 0-56 18-96 73-97 30 0 46 14 59 34l2-30h47zm-90-29c32 0 41-27 41-63 0-35-9-62-40-62-32 0-39 29-40 63 0 36 9 62 39 62" id="X"/><g id="h"><use transform="matrix(0.08641975308641976,0,0,0.08641975308641976,0,0)" xlink:href="#S"/><use transform="matrix(0.08641975308641976,0,0,0.08641975308641976,20.740740740740744,0)" xlink:href="#T"/><use transform="matrix(0.08641975308641976,0,0,0.08641975308641976,29.382716049382726,0)" xlink:href="#U"/><use transform="matrix(0.08641975308641976,0,0,0.08641975308641976,46.66666666666667,0)" xlink:href="#V"/><use transform="matrix(0.08641975308641976,0,0,0.08641975308641976,65.5925925925926,0)" xlink:href="#V"/><use transform="matrix(0.08641975308641976,0,0,0.08641975308641976,84.51851851851852,0)" xlink:href="#W"/><use transform="matrix(0.08641975308641976,0,0,0.08641975308641976,93.16049382716048,0)" xlink:href="#V"/><use transform="matrix(0.08641975308641976,0,0,0.08641975308641976,112.08641975308642,0)" xlink:href="#X"/></g><path fill="#cc4e00" d="M230 0l2-204L168 0h-37L68-204 70 0H24v-248h70l56 185 57-185h69V0h-46" id="Y"/><path fill="#cc4e00" d="M110-194c64 0 96 36 96 99 0 64-35 99-97 99-61 0-95-36-95-99 0-62 34-99 96-99zm-1 164c35 0 45-28 45-65 0-40-10-65-43-65-34 0-45 26-45 65 0 36 10 65 43 65" id="Z"/><path fill="#cc4e00" d="M88-194c31-1 46 15 58 34l-1-101h50l1 261h-48c-2-10 0-23-3-31C134-8 116 4 84 4 32 4 16-41 15-95c0-56 19-97 73-99zm17 164c33 0 40-30 41-66 1-37-9-64-41-64s-38 30-39 65c0 43 13 65 39 65" id="aa"/><path fill="#cc4e00" d="M85 4C-2 5 27-109 22-190h50c7 57-23 150 33 157 60-5 35-97 40-157h50l1 190h-47c-2-12 1-28-3-38-12 25-28 42-61 42" id="ab"/><path fill="#cc4e00" d="M185-48c-13 30-37 53-82 52C43 2 14-33 14-96s30-98 90-98c62 0 83 45 84 108H66c0 31 8 55 39 56 18 0 30-7 34-22zm-45-69c5-46-57-63-70-21-2 6-4 13-4 21h74" id="ac"/><g id="i"><use transform="matrix(0.08641975308641976,0,0,0.08641975308641976,0,0)" xlink:href="#Y"/><use transform="matrix(0.08641975308641976,0,0,0.08641975308641976,25.83950617283951,0)" xlink:href="#Z"/><use transform="matrix(0.08641975308641976,0,0,0.08641975308641976,44.76543209876544,0)" xlink:href="#aa"/><use transform="matrix(0.08641975308641976,0,0,0.08641975308641976,63.69135802469137,0)" xlink:href="#ab"/><use transform="matrix(0.08641975308641976,0,0,0.08641975308641976,82.61728395061729,0)" xlink:href="#T"/><use transform="matrix(0.08641975308641976,0,0,0.08641975308641976,91.25925925925927,0)" xlink:href="#ac"/></g><path fill="#635dff" d="M169-182c-1-43-94-46-97-3 18 66 151 10 154 114 3 95-165 93-204 36-6-8-10-19-12-30l50-8c3 46 112 56 116 5-17-69-150-10-154-114-4-87 153-88 188-35 5 8 8 18 10 28" id="ad"/><path fill="#635dff" d="M85 4C-2 5 27-109 22-190h50c7 57-23 150 33 157 60-5 35-97 40-157h50l1 190h-47c-2-12 1-28-3-38-12 25-28 42-61 42" id="ae"/><path fill="#635dff" d="M135-150c-39-12-60 13-60 57V0H25l-1-190h47c2 13-1 29 3 40 6-28 27-53 61-41v41" id="af"/><path fill="#635dff" d="M195-6C206 82 75 100 31 46c-4-6-6-13-8-21l49-6c3 16 16 24 34 25 40 0 42-37 40-79-11 22-30 35-61 35-53 0-70-43-70-97 0-56 18-96 73-97 30 0 46 14 59 34l2-30h47zm-90-29c32 0 41-27 41-63 0-35-9-62-40-62-32 0-39 29-40 63 0 36 9 62 39 62" id="ag"/><path fill="#635dff" d="M25-224v-37h50v37H25zM25 0v-190h50V0H25" id="ah"/><path fill="#635dff" d="M190-63c-7 42-38 67-86 67-59 0-84-38-90-98-12-110 154-137 174-36l-49 2c-2-19-15-32-35-32-30 0-35 28-38 64-6 74 65 87 74 30" id="ai"/><path fill="#635dff" d="M133-34C117-15 103 5 69 4 32 3 11-16 11-54c-1-60 55-63 116-61 1-26-3-47-28-47-18 1-26 9-28 27l-52-2c7-38 36-58 82-57s74 22 75 68l1 82c-1 14 12 18 25 15v27c-30 8-71 5-69-32zm-48 3c29 0 43-24 42-57-32 0-66-3-65 30 0 17 8 27 23 27" id="aj"/><path fill="#635dff" d="M25 0v-261h50V0H25" id="ak"/><g id="j"><use transform="matrix(0.07407407407407408,0,0,0.07407407407407408,0,0)" xlink:href="#ad"/><use transform="matrix(0.07407407407407408,0,0,0.07407407407407408,17.77777777777778,0)" xlink:href="#ae"/><use transform="matrix(0.07407407407407408,0,0,0.07407407407407408,34,0)" xlink:href="#af"/><use transform="matrix(0.07407407407407408,0,0,0.07407407407407408,44.370370370370374,0)" xlink:href="#ag"/><use transform="matrix(0.07407407407407408,0,0,0.07407407407407408,60.592592592592595,0)" xlink:href="#ah"/><use transform="matrix(0.07407407407407408,0,0,0.07407407407407408,68,0)" xlink:href="#ai"/><use transform="matrix(0.07407407407407408,0,0,0.07407407407407408,82.81481481481481,0)" xlink:href="#aj"/><use transform="matrix(0.07407407407407408,0,0,0.07407407407407408,97.62962962962962,0)" xlink:href="#ak"/></g><path fill="#635dff" d="M240-174c0 40-23 61-54 70L253 0h-59l-57-94H76V0H24v-248c93 4 217-23 216 74zM76-134c48-2 112 12 112-38 0-48-66-32-112-35v73" id="al"/><path fill="#635dff" d="M110-194c64 0 96 36 96 99 0 64-35 99-97 99-61 0-95-36-95-99 0-62 34-99 96-99zm-1 164c35 0 45-28 45-65 0-40-10-65-43-65-34 0-45 26-45 65 0 36 10 65 43 65" id="am"/><path fill="#635dff" d="M220-157c-53 9-28 100-34 157h-49v-107c1-27-5-49-29-50C55-147 81-57 75 0H25l-1-190h47c2 12-1 28 3 38 10-53 101-56 108 0 13-22 24-43 59-42 82 1 51 116 57 194h-49v-107c-1-25-5-48-29-50" id="an"/><path fill="#635dff" d="M137-138c1-29-70-34-71-4 15 46 118 7 119 86 1 83-164 76-172 9l43-7c4 19 20 25 44 25 33 8 57-30 24-41C81-84 22-81 20-136c-2-80 154-74 161-7" id="ao"/><g id="k"><use transform="matrix(0.07407407407407408,0,0,0.07407407407407408,0,0)" xlink:href="#al"/><use transform="matrix(0.07407407407407408,0,0,0.07407407407407408,19.185185185185187,0)" xlink:href="#am"/><use transform="matrix(0.07407407407407408,0,0,0.07407407407407408,35.40740740740741,0)" xlink:href="#am"/><use transform="matrix(0.07407407407407408,0,0,0.07407407407407408,51.62962962962963,0)" xlink:href="#an"/><use transform="matrix(0.07407407407407408,0,0,0.07407407407407408,75.33333333333334,0)" xlink:href="#ao"/></g><path fill="#635dff" d="M231 0h-52l-39-155L100 0H48L-1-190h46L77-45c9-52 24-97 36-145h53l37 145 32-145h46" id="ap"/><path fill="#635dff" d="M115-3C79 11 28 4 28-45v-112H4v-33h27l15-45h31v45h36v33H77v99c-1 23 16 31 38 25v30" id="aq"/><path fill="#635dff" d="M114-157C55-157 80-60 75 0H25v-261h50l-1 109c12-26 28-41 61-42 86-1 58 113 63 194h-50c-7-57 23-157-34-157" id="ar"/><g id="l"><use transform="matrix(0.07407407407407408,0,0,0.07407407407407408,0,0)" xlink:href="#ap"/><use transform="matrix(0.07407407407407408,0,0,0.07407407407407408,20.740740740740744,0)" xlink:href="#ah"/><use transform="matrix(0.07407407407407408,0,0,0.07407407407407408,28.148148148148152,0)" xlink:href="#aq"/><use transform="matrix(0.07407407407407408,0,0,0.07407407407407408,36.96296296296297,0)" xlink:href="#ar"/></g><path fill="#635dff" d="M238-95c0 69-44 99-111 99C63 4 22-25 22-93v-155h51v151c-1 38 19 59 55 60 90 1 49-130 58-211h52v153" id="as"/><path fill="#635dff" d="M135-194c53 0 70 44 70 98 0 56-19 98-73 100-31 1-45-17-59-34 3 33 2 69 2 105H25l-1-265h48c2 10 0 23 3 31 11-24 29-35 60-35zM114-30c33 0 39-31 40-66 0-38-9-64-40-64-56 0-55 130 0 130" id="at"/><path fill="#635dff" d="M88-194c31-1 46 15 58 34l-1-101h50l1 261h-48c-2-10 0-23-3-31C134-8 116 4 84 4 32 4 16-41 15-95c0-56 19-97 73-99zm17 164c33 0 40-30 41-66 1-37-9-64-41-64s-38 30-39 65c0 43 13 65 39 65" id="au"/><path fill="#635dff" d="M185-48c-13 30-37 53-82 52C43 2 14-33 14-96s30-98 90-98c62 0 83 45 84 108H66c0 31 8 55 39 56 18 0 30-7 34-22zm-45-69c5-46-57-63-70-21-2 6-4 13-4 21h74" id="av"/><g id="m"><use transform="matrix(0.07407407407407408,0,0,0.07407407407407408,0,0)" xlink:href="#as"/><use transform="matrix(0.07407407407407408,0,0,0.07407407407407408,19.185185185185187,0)" xlink:href="#at"/><use transform="matrix(0.07407407407407408,0,0,0.07407407407407408,35.40740740740741,0)" xlink:href="#au"/><use transform="matrix(0.07407407407407408,0,0,0.07407407407407408,51.62962962962963,0)" xlink:href="#aj"/><use transform="matrix(0.07407407407407408,0,0,0.07407407407407408,66.44444444444446,0)" xlink:href="#aq"/><use transform="matrix(0.07407407407407408,0,0,0.07407407407407408,75.25925925925927,0)" xlink:href="#av"/><use transform="matrix(0.07407407407407408,0,0,0.07407407407407408,90.07407407407408,0)" xlink:href="#au"/></g><g id="n"><use transform="matrix(0.07407407407407408,0,0,0.07407407407407408,0,0)" xlink:href="#ad"/><use transform="matrix(0.07407407407407408,0,0,0.07407407407407408,17.77777777777778,0)" xlink:href="#ai"/><use transform="matrix(0.07407407407407408,0,0,0.07407407407407408,32.592592592592595,0)" xlink:href="#ar"/><use transform="matrix(0.07407407407407408,0,0,0.07407407407407408,48.814814814814824,0)" xlink:href="#av"/><use transform="matrix(0.07407407407407408,0,0,0.07407407407407408,63.62962962962964,0)" xlink:href="#au"/><use transform="matrix(0.07407407407407408,0,0,0.07407407407407408,79.85185185185186,0)" xlink:href="#ae"/><use transform="matrix(0.07407407407407408,0,0,0.07407407407407408,96.07407407407409,0)" xlink:href="#ak"/><use transform="matrix(0.07407407407407408,0,0,0.07407407407407408,103.4814814814815,0)" xlink:href="#av"/></g><path fill="#008573" d="M24-248c120-7 223 5 221 122C244-46 201 0 124 0H24v-248zM76-40c74 7 117-18 117-86 0-67-45-88-117-82v168" id="aw"/><path fill="#008573" d="M133-34C117-15 103 5 69 4 32 3 11-16 11-54c-1-60 55-63 116-61 1-26-3-47-28-47-18 1-26 9-28 27l-52-2c7-38 36-58 82-57s74 22 75 68l1 82c-1 14 12 18 25 15v27c-30 8-71 5-69-32zm-48 3c29 0 43-24 42-57-32 0-66-3-65 30 0 17 8 27 23 27" id="ax"/><path fill="#008573" d="M115-3C79 11 28 4 28-45v-112H4v-33h27l15-45h31v45h36v33H77v99c-1 23 16 31 38 25v30" id="ay"/><path fill="#008573" d="M135-194c52 0 70 43 70 98 0 56-19 99-73 100-30 1-46-15-58-35L72 0H24l1-261h50v104c11-23 29-37 60-37zM114-30c31 0 40-27 40-66 0-37-7-63-39-63s-41 28-41 65c0 36 8 64 40 64" id="az"/><path fill="#008573" d="M137-138c1-29-70-34-71-4 15 46 118 7 119 86 1 83-164 76-172 9l43-7c4 19 20 25 44 25 33 8 57-30 24-41C81-84 22-81 20-136c-2-80 154-74 161-7" id="aA"/><path fill="#008573" d="M185-48c-13 30-37 53-82 52C43 2 14-33 14-96s30-98 90-98c62 0 83 45 84 108H66c0 31 8 55 39 56 18 0 30-7 34-22zm-45-69c5-46-57-63-70-21-2 6-4 13-4 21h74" id="aB"/><g id="o"><use transform="matrix(0.05925925925925927,0,0,0.05925925925925927,0,0)" xlink:href="#aw"/><use transform="matrix(0.05925925925925927,0,0,0.05925925925925927,15.34814814814815,0)" xlink:href="#ax"/><use transform="matrix(0.05925925925925927,0,0,0.05925925925925927,27.200000000000003,0)" xlink:href="#ay"/><use transform="matrix(0.05925925925925927,0,0,0.05925925925925927,34.25185185185185,0)" xlink:href="#ax"/><use transform="matrix(0.05925925925925927,0,0,0.05925925925925927,46.10370370370371,0)" xlink:href="#az"/><use transform="matrix(0.05925925925925927,0,0,0.05925925925925927,59.08148148148149,0)" xlink:href="#ax"/><use transform="matrix(0.05925925925925927,0,0,0.05925925925925927,70.93333333333334,0)" xlink:href="#aA"/><use transform="matrix(0.05925925925925927,0,0,0.05925925925925927,82.78518518518518,0)" xlink:href="#aB"/></g><path fill="#ba23f6" d="M186 0v-106H76V0H24v-248h52v99h110v-99h50V0h-50" id="aC"/><path fill="#ba23f6" d="M110-194c64 0 96 36 96 99 0 64-35 99-97 99-61 0-95-36-95-99 0-62 34-99 96-99zm-1 164c35 0 45-28 45-65 0-40-10-65-43-65-34 0-45 26-45 65 0 36 10 65 43 65" id="aD"/><path fill="#ba23f6" d="M137-138c1-29-70-34-71-4 15 46 118 7 119 86 1 83-164 76-172 9l43-7c4 19 20 25 44 25 33 8 57-30 24-41C81-84 22-81 20-136c-2-80 154-74 161-7" id="aE"/><path fill="#ba23f6" d="M135-194c53 0 70 44 70 98 0 56-19 98-73 100-31 1-45-17-59-34 3 33 2 69 2 105H25l-1-265h48c2 10 0 23 3 31 11-24 29-35 60-35zM114-30c33 0 39-31 40-66 0-38-9-64-40-64-56 0-55 130 0 130" id="aF"/><path fill="#ba23f6" d="M25-224v-37h50v37H25zM25 0v-190h50V0H25" id="aG"/><path fill="#ba23f6" d="M115-3C79 11 28 4 28-45v-112H4v-33h27l15-45h31v45h36v33H77v99c-1 23 16 31 38 25v30" id="aH"/><path fill="#ba23f6" d="M133-34C117-15 103 5 69 4 32 3 11-16 11-54c-1-60 55-63 116-61 1-26-3-47-28-47-18 1-26 9-28 27l-52-2c7-38 36-58 82-57s74 22 75 68l1 82c-1 14 12 18 25 15v27c-30 8-71 5-69-32zm-48 3c29 0 43-24 42-57-32 0-66-3-65 30 0 17 8 27 23 27" id="aI"/><path fill="#ba23f6" d="M25 0v-261h50V0H25" id="aJ"/><g id="p"><use transform="matrix(0.06172839506172839,0,0,0.06172839506172839,0,0)" xlink:href="#aC"/><use transform="matrix(0.06172839506172839,0,0,0.06172839506172839,15.987654320987653,0)" xlink:href="#aD"/><use transform="matrix(0.06172839506172839,0,0,0.06172839506172839,29.50617283950617,0)" xlink:href="#aE"/><use transform="matrix(0.06172839506172839,0,0,0.06172839506172839,41.85185185185185,0)" xlink:href="#aF"/><use transform="matrix(0.06172839506172839,0,0,0.06172839506172839,55.37037037037037,0)" xlink:href="#aG"/><use transform="matrix(0.06172839506172839,0,0,0.06172839506172839,61.54320987654321,0)" xlink:href="#aH"/><use transform="matrix(0.06172839506172839,0,0,0.06172839506172839,68.88888888888889,0)" xlink:href="#aI"/><use transform="matrix(0.06172839506172839,0,0,0.06172839506172839,81.23456790123457,0)" xlink:href="#aJ"/></g><path fill="#ba23f6" d="M169-182c-1-43-94-46-97-3 18 66 151 10 154 114 3 95-165 93-204 36-6-8-10-19-12-30l50-8c3 46 112 56 116 5-17-69-150-10-154-114-4-87 153-88 188-35 5 8 8 18 10 28" id="aK"/><path fill="#ba23f6" d="M220-157c-53 9-28 100-34 157h-49v-107c1-27-5-49-29-50C55-147 81-57 75 0H25l-1-190h47c2 12-1 28 3 38 10-53 101-56 108 0 13-22 24-43 59-42 82 1 51 116 57 194h-49v-107c-1-25-5-48-29-50" id="aL"/><path fill="#ba23f6" d="M85 4C-2 5 27-109 22-190h50c7 57-23 150 33 157 60-5 35-97 40-157h50l1 190h-47c-2-12 1-28-3-38-12 25-28 42-61 42" id="aM"/><path fill="#ba23f6" d="M135-194c87-1 58 113 63 194h-50c-7-57 23-157-34-157-59 0-34 97-39 157H25l-1-190h47c2 12-1 28 3 38 12-26 28-41 61-42" id="aN"/><g id="q"><use transform="matrix(0.06172839506172839,0,0,0.06172839506172839,0,0)" xlink:href="#aK"/><use transform="matrix(0.06172839506172839,0,0,0.06172839506172839,14.814814814814813,0)" xlink:href="#aG"/><use transform="matrix(0.06172839506172839,0,0,0.06172839506172839,20.98765432098765,0)" xlink:href="#aL"/><use transform="matrix(0.06172839506172839,0,0,0.06172839506172839,40.74074074074073,0)" xlink:href="#aM"/><use transform="matrix(0.06172839506172839,0,0,0.06172839506172839,54.25925925925925,0)" xlink:href="#aJ"/><use transform="matrix(0.06172839506172839,0,0,0.06172839506172839,60.432098765432094,0)" xlink:href="#aI"/><use transform="matrix(0.06172839506172839,0,0,0.06172839506172839,72.77777777777777,0)" xlink:href="#aH"/><use transform="matrix(0.06172839506172839,0,0,0.06172839506172839,80.12345679012346,0)" xlink:href="#aG"/><use transform="matrix(0.06172839506172839,0,0,0.06172839506172839,86.29629629629629,0)" xlink:href="#aD"/><use transform="matrix(0.06172839506172839,0,0,0.06172839506172839,99.81481481481481,0)" xlink:href="#aN"/></g><path fill="#ba23f6" d="M67-125c0 53 21 87 73 88 37 1 54-22 65-47l45 17C233-25 199 4 140 4 58 4 20-42 15-125 8-235 124-281 211-232c18 10 29 29 36 50l-46 12c-8-25-30-41-62-41-52 0-71 34-72 86" id="aO"/><path fill="#ba23f6" d="M185-48c-13 30-37 53-82 52C43 2 14-33 14-96s30-98 90-98c62 0 83 45 84 108H66c0 31 8 55 39 56 18 0 30-7 34-22zm-45-69c5-46-57-63-70-21-2 6-4 13-4 21h74" id="aP"/><g id="r"><use transform="matrix(0.06172839506172839,0,0,0.06172839506172839,0,0)" xlink:href="#aO"/><use transform="matrix(0.06172839506172839,0,0,0.06172839506172839,15.987654320987653,0)" xlink:href="#aD"/><use transform="matrix(0.06172839506172839,0,0,0.06172839506172839,29.50617283950617,0)" xlink:href="#aL"/><use transform="matrix(0.06172839506172839,0,0,0.06172839506172839,49.25925925925925,0)" xlink:href="#aF"/><use transform="matrix(0.06172839506172839,0,0,0.06172839506172839,62.77777777777777,0)" xlink:href="#aD"/><use transform="matrix(0.06172839506172839,0,0,0.06172839506172839,76.29629629629629,0)" xlink:href="#aN"/><use transform="matrix(0.06172839506172839,0,0,0.06172839506172839,89.81481481481481,0)" xlink:href="#aP"/><use transform="matrix(0.06172839506172839,0,0,0.06172839506172839,102.1604938271605,0)" xlink:href="#aN"/><use transform="matrix(0.06172839506172839,0,0,0.06172839506172839,115.67901234567901,0)" xlink:href="#aH"/></g></defs></g></svg>