<?xml version="1.0" encoding="UTF-8" standalone="no"?><svg xmlns="http://www.w3.org/2000/svg" xmlns:xlink="http://www.w3.org/1999/xlink" contentStyleType="text/css" height="615px" preserveAspectRatio="none" style="width:919px;height:615px;background:#FFFFFF;" version="1.1" viewBox="0 0 919 615" width="919px" zoomAndPan="magnify"><defs/><g><text fill="#000000" font-family="sans-serif" font-size="14" font-weight="bold" lengthAdjust="spacing" textLength="386" x="265.5" y="29.5332">US 5.1.12. - Process View [Level 3] - Get Specializations</text><rect fill="#FFFFFF" height="378.4063" style="stroke:#181818;stroke-width:1.0;" width="10" x="132" y="150.0781"/><rect fill="#FFFFFF" height="300.0938" style="stroke:#181818;stroke-width:1.0;" width="10" x="349" y="189.2344"/><rect fill="#FFFFFF" height="221.7813" style="stroke:#181818;stroke-width:1.0;" width="10" x="567" y="228.3906"/><rect fill="#FFFFFF" height="50.1563" style="stroke:#181818;stroke-width:1.0;" width="10" x="572" y="353.8594"/><rect fill="#FFFFFF" height="39.1563" style="stroke:#181818;stroke-width:1.0;" width="10" x="794" y="267.5469"/><line style="stroke:#181818;stroke-width:0.5;stroke-dasharray:5.0,5.0;" x1="136.5" x2="136.5" y1="108.9219" y2="546.4844"/><line style="stroke:#181818;stroke-width:0.5;stroke-dasharray:5.0,5.0;" x1="354" x2="354" y1="108.9219" y2="546.4844"/><line style="stroke:#181818;stroke-width:0.5;stroke-dasharray:5.0,5.0;" x1="572" x2="572" y1="108.9219" y2="546.4844"/><line style="stroke:#181818;stroke-width:0.5;stroke-dasharray:5.0,5.0;" x1="799" x2="799" y1="108.9219" y2="546.4844"/><rect fill="#E2E2F0" height="64.3125" rx="2.5" ry="2.5" style="stroke:#181818;stroke-width:0.5;" width="185" x="44.5" y="43.6094"/><text fill="#000000" font-family="sans-serif" font-size="20" font-style="italic" lengthAdjust="spacing" textLength="67" x="103.5" y="71.3711">«route»</text><text fill="#000000" font-family="sans-serif" font-size="20" lengthAdjust="spacing" textLength="171" x="51.5" y="96.5273">SpecializationRoute</text><rect fill="#E2E2F0" height="64.3125" rx="2.5" ry="2.5" style="stroke:#181818;stroke-width:0.5;" width="185" x="44.5" y="545.4844"/><text fill="#000000" font-family="sans-serif" font-size="20" font-style="italic" lengthAdjust="spacing" textLength="67" x="103.5" y="573.2461">«route»</text><text fill="#000000" font-family="sans-serif" font-size="20" lengthAdjust="spacing" textLength="171" x="51.5" y="598.4023">SpecializationRoute</text><rect fill="#E2E2F0" height="64.3125" rx="2.5" ry="2.5" style="stroke:#181818;stroke-width:0.5;" width="218" x="245" y="43.6094"/><text fill="#000000" font-family="sans-serif" font-size="20" font-style="italic" lengthAdjust="spacing" textLength="105" x="301.5" y="71.3711">«controller»</text><text fill="#000000" font-family="sans-serif" font-size="20" lengthAdjust="spacing" textLength="204" x="252" y="96.5273">SpecializationController</text><rect fill="#E2E2F0" height="64.3125" rx="2.5" ry="2.5" style="stroke:#181818;stroke-width:0.5;" width="218" x="245" y="545.4844"/><text fill="#000000" font-family="sans-serif" font-size="20" font-style="italic" lengthAdjust="spacing" textLength="105" x="301.5" y="573.2461">«controller»</text><text fill="#000000" font-family="sans-serif" font-size="20" lengthAdjust="spacing" textLength="204" x="252" y="598.4023">SpecializationController</text><rect fill="#E2E2F0" height="64.3125" rx="2.5" ry="2.5" style="stroke:#181818;stroke-width:0.5;" width="198" x="473" y="43.6094"/><text fill="#000000" font-family="sans-serif" font-size="20" font-style="italic" lengthAdjust="spacing" textLength="86" x="529" y="71.3711">«service»</text><text fill="#000000" font-family="sans-serif" font-size="20" lengthAdjust="spacing" textLength="184" x="480" y="96.5273">SpecializationService</text><rect fill="#E2E2F0" height="64.3125" rx="2.5" ry="2.5" style="stroke:#181818;stroke-width:0.5;" width="198" x="473" y="545.4844"/><text fill="#000000" font-family="sans-serif" font-size="20" font-style="italic" lengthAdjust="spacing" textLength="86" x="529" y="573.2461">«service»</text><text fill="#000000" font-family="sans-serif" font-size="20" lengthAdjust="spacing" textLength="184" x="480" y="598.4023">SpecializationService</text><rect fill="#E2E2F0" height="64.3125" rx="2.5" ry="2.5" style="stroke:#181818;stroke-width:0.5;" width="228" x="685" y="43.6094"/><text fill="#000000" font-family="sans-serif" font-size="20" font-style="italic" lengthAdjust="spacing" textLength="110" x="744" y="71.3711">«repository»</text><text fill="#000000" font-family="sans-serif" font-size="20" lengthAdjust="spacing" textLength="214" x="692" y="96.5273">SpecializationRepository</text><rect fill="#E2E2F0" height="64.3125" rx="2.5" ry="2.5" style="stroke:#181818;stroke-width:0.5;" width="228" x="685" y="545.4844"/><text fill="#000000" font-family="sans-serif" font-size="20" font-style="italic" lengthAdjust="spacing" textLength="110" x="744" y="573.2461">«repository»</text><text fill="#000000" font-family="sans-serif" font-size="20" lengthAdjust="spacing" textLength="214" x="692" y="598.4023">SpecializationRepository</text><rect fill="#FFFFFF" height="378.4063" style="stroke:#181818;stroke-width:1.0;" width="10" x="132" y="150.0781"/><rect fill="#FFFFFF" height="300.0938" style="stroke:#181818;stroke-width:1.0;" width="10" x="349" y="189.2344"/><rect fill="#FFFFFF" height="221.7813" style="stroke:#181818;stroke-width:1.0;" width="10" x="567" y="228.3906"/><rect fill="#FFFFFF" height="50.1563" style="stroke:#181818;stroke-width:1.0;" width="10" x="572" y="353.8594"/><rect fill="#FFFFFF" height="39.1563" style="stroke:#181818;stroke-width:1.0;" width="10" x="794" y="267.5469"/><ellipse cx="7.5" cy="149.3281" fill="none" rx="4" ry="4" style="stroke:#181818;stroke-width:1.5;"/><polygon fill="#181818" points="120,146.0781,130,150.0781,120,154.0781,124,150.0781" style="stroke:#181818;stroke-width:1.0;"/><line style="stroke:#181818;stroke-width:1.0;" x1="12" x2="126" y1="150.0781" y2="150.0781"/><text fill="#000000" font-family="sans-serif" font-size="20" font-weight="bold" lengthAdjust="spacing" textLength="11" x="15" y="143.6836">1</text><text fill="#000000" font-family="sans-serif" font-size="20" lengthAdjust="spacing" textLength="90" x="30" y="143.6836">GET(json)</text><polygon fill="#181818" points="337,185.2344,347,189.2344,337,193.2344,341,189.2344" style="stroke:#181818;stroke-width:1.0;"/><line style="stroke:#181818;stroke-width:1.0;" x1="142" x2="343" y1="189.2344" y2="189.2344"/><text fill="#000000" font-family="sans-serif" font-size="20" font-weight="bold" lengthAdjust="spacing" textLength="11" x="149" y="182.8398">2</text><text fill="#000000" font-family="sans-serif" font-size="20" lengthAdjust="spacing" textLength="66" x="164" y="182.8398">findAll()</text><polygon fill="#181818" points="555,224.3906,565,228.3906,555,232.3906,559,228.3906" style="stroke:#181818;stroke-width:1.0;"/><line style="stroke:#181818;stroke-width:1.0;" x1="359" x2="561" y1="228.3906" y2="228.3906"/><text fill="#000000" font-family="sans-serif" font-size="20" font-weight="bold" lengthAdjust="spacing" textLength="11" x="366" y="221.9961">3</text><text fill="#000000" font-family="sans-serif" font-size="20" lengthAdjust="spacing" textLength="66" x="381" y="221.9961">findAll()</text><polygon fill="#181818" points="782,263.5469,792,267.5469,782,271.5469,786,267.5469" style="stroke:#181818;stroke-width:1.0;"/><line style="stroke:#181818;stroke-width:1.0;" x1="577" x2="788" y1="267.5469" y2="267.5469"/><text fill="#000000" font-family="sans-serif" font-size="20" font-weight="bold" lengthAdjust="spacing" textLength="11" x="584" y="261.1523">4</text><text fill="#000000" font-family="sans-serif" font-size="20" lengthAdjust="spacing" textLength="66" x="599" y="261.1523">findAll()</text><polygon fill="#181818" points="588,302.7031,578,306.7031,588,310.7031,584,306.7031" style="stroke:#181818;stroke-width:1.0;"/><line style="stroke:#181818;stroke-width:1.0;stroke-dasharray:2.0,2.0;" x1="582" x2="798" y1="306.7031" y2="306.7031"/><text fill="#000000" font-family="sans-serif" font-size="20" font-weight="bold" lengthAdjust="spacing" textLength="11" x="594" y="300.3086">5</text><text fill="#000000" font-family="sans-serif" font-size="20" lengthAdjust="spacing" textLength="126" x="609" y="300.3086">specializations</text><line style="stroke:#181818;stroke-width:1.0;" x1="577" x2="624" y1="340.8594" y2="340.8594"/><line style="stroke:#181818;stroke-width:1.0;" x1="624" x2="624" y1="340.8594" y2="353.8594"/><line style="stroke:#181818;stroke-width:1.0;" x1="583" x2="624" y1="353.8594" y2="353.8594"/><polygon fill="#181818" points="593,349.8594,583,353.8594,593,357.8594,589,353.8594" style="stroke:#181818;stroke-width:1.0;"/><text fill="#000000" font-family="sans-serif" font-size="20" font-weight="bold" lengthAdjust="spacing" textLength="11" x="589" y="334.4648">6</text><text fill="#000000" font-family="sans-serif" font-size="20" lengthAdjust="spacing" textLength="188" x="604" y="334.4648">toDto(specializations)</text><line style="stroke:#181818;stroke-width:1.0;stroke-dasharray:2.0,2.0;" x1="582" x2="624" y1="403.0156" y2="403.0156"/><line style="stroke:#181818;stroke-width:1.0;stroke-dasharray:2.0,2.0;" x1="624" x2="624" y1="403.0156" y2="416.0156"/><line style="stroke:#181818;stroke-width:1.0;stroke-dasharray:2.0,2.0;" x1="577" x2="624" y1="416.0156" y2="416.0156"/><polygon fill="#181818" points="587,412.0156,577,416.0156,587,420.0156,583,416.0156" style="stroke:#181818;stroke-width:1.0;"/><text fill="#000000" font-family="sans-serif" font-size="20" font-weight="bold" lengthAdjust="spacing" textLength="11" x="589" y="396.6211">7</text><text fill="#000000" font-family="sans-serif" font-size="20" lengthAdjust="spacing" textLength="168" x="604" y="396.6211">specializationDTOs</text><polygon fill="#181818" points="370,446.1719,360,450.1719,370,454.1719,366,450.1719" style="stroke:#181818;stroke-width:1.0;"/><line style="stroke:#181818;stroke-width:1.0;stroke-dasharray:2.0,2.0;" x1="364" x2="571" y1="450.1719" y2="450.1719"/><text fill="#000000" font-family="sans-serif" font-size="20" font-weight="bold" lengthAdjust="spacing" textLength="11" x="376" y="443.7773">8</text><text fill="#000000" font-family="sans-serif" font-size="20" lengthAdjust="spacing" textLength="168" x="391" y="443.7773">specializationDTOs</text><polygon fill="#181818" points="153,485.3281,143,489.3281,153,493.3281,149,489.3281" style="stroke:#181818;stroke-width:1.0;"/><line style="stroke:#181818;stroke-width:1.0;stroke-dasharray:2.0,2.0;" x1="147" x2="353" y1="489.3281" y2="489.3281"/><text fill="#000000" font-family="sans-serif" font-size="20" font-weight="bold" lengthAdjust="spacing" textLength="11" x="159" y="482.9336">9</text><text fill="#000000" font-family="sans-serif" font-size="20" lengthAdjust="spacing" textLength="168" x="174" y="482.9336">specializationDTOs</text><ellipse cx="7.5" cy="527.7344" fill="none" rx="4" ry="4" style="stroke:#181818;stroke-width:1.5;"/><polygon fill="#181818" points="24.5,524.4844,14.5,528.4844,24.5,532.4844,20.5,528.4844" style="stroke:#181818;stroke-width:1.0;"/><line style="stroke:#181818;stroke-width:1.0;stroke-dasharray:2.0,2.0;" x1="22.5" x2="136" y1="528.4844" y2="528.4844"/><text fill="#000000" font-family="sans-serif" font-size="20" font-weight="bold" lengthAdjust="spacing" textLength="22" x="25" y="522.0898">10</text><text fill="#000000" font-family="sans-serif" font-size="20" lengthAdjust="spacing" textLength="65" x="51" y="522.0898">200 Ok</text><!--SRC=[XP7DRi8m48JlVefLJlGG15Iz88HK0UM259G4BgW7rraa5nD7zeQgF7tjMFm4eVIwCvztTcmFigouuKUbnG4BA73FQqKVkgHCdX560yP8aaA8DXcyzOVzuQWFCQoD5cWjR2N-m6w59rJm-kc49H9a5Gh9bJnpahgq4MEy9btMnoyqp6qZAMJ5IuAexKnrJHW1jv0cctm1audna-cq2vgvg4OhXQOXPtcwSg2uJhlf3Cr9Yh0qsyuSQSEa6vldoHrIaEwsfrXfAqcRtt3TOftuuwvJHxETZgVXxZ4i5tdls-hoXN51yiG9Wy9OACOv_PrZsCkoU5UgTsVq0cDD3Sxc0ZvrkJbZFhrVwkCyTNc5DN8Std8ss_vSLc3RVdcrsKnwJhhtW3p4QFmNm3xMt5fmItrju7yWL74hjvjewjlfIHnV_AF10993wqul_040]--></g></svg>