<?xml version="1.0" encoding="us-ascii" standalone="no"?><svg xmlns="http://www.w3.org/2000/svg" xmlns:xlink="http://www.w3.org/1999/xlink" contentStyleType="text/css" height="1604px" preserveAspectRatio="none" style="width:1421px;height:1604px;background:#FFFFFF;" version="1.1" viewBox="0 0 1421 1604" width="1421px" zoomAndPan="magnify"><defs/><g><text fill="#000000" font-family="sans-serif" font-size="14" font-weight="bold" lengthAdjust="spacing" textLength="230" x="597.25" y="30.1074">US 5.1.23. Process View (Level 3)</text><rect fill="#FFFFFF" height="388.8613" style="stroke:#181818;stroke-width:1.0;" width="10" x="145" y="130.1543"/><rect fill="#FFFFFF" height="451.1035" style="stroke:#181818;stroke-width:1.0;" width="10" x="145" y="575.3066"/><rect fill="#FFFFFF" height="414.0156" style="stroke:#181818;stroke-width:1.0;" width="10" x="145" y="1108.9922"/><rect fill="#FFFFFF" height="326.2793" style="stroke:#181818;stroke-width:1.0;" width="10" x="414" y="161.4453"/><rect fill="#FFFFFF" height="28" style="stroke:#181818;stroke-width:1.0;" width="10" x="419" y="421.4336"/><rect fill="#FFFFFF" height="388.5215" style="stroke:#181818;stroke-width:1.0;" width="10" x="414" y="606.5977"/><rect fill="#FFFFFF" height="28" style="stroke:#181818;stroke-width:1.0;" width="10" x="419" y="928.8281"/><rect fill="#FFFFFF" height="95.5039" style="stroke:#181818;stroke-width:1.0;" width="10" x="414" y="1140.2832"/><rect fill="#FFFFFF" height="95.5039" style="stroke:#181818;stroke-width:1.0;" width="10" x="414" y="1315"/><rect fill="#FFFFFF" height="189.4063" style="stroke:#181818;stroke-width:1.0;" width="10" x="863" y="192.7363"/><rect fill="#FFFFFF" height="189.4063" style="stroke:#181818;stroke-width:1.0;" width="10" x="863" y="700.1309"/><rect fill="#FFFFFF" height="31.291" style="stroke:#181818;stroke-width:1.0;" width="10" x="1163" y="224.0273"/><rect fill="#FFFFFF" height="31.291" style="stroke:#181818;stroke-width:1.0;" width="10" x="1163" y="731.4219"/><rect fill="none" height="81.5332" style="stroke:#000000;stroke-width:1.5;" width="637.5" x="778" y="270.3184"/><rect fill="none" height="81.5332" style="stroke:#000000;stroke-width:1.5;" width="637.5" x="778" y="777.7129"/><rect fill="none" height="352.0938" style="stroke:#000000;stroke-width:1.5;" width="503.5" x="11" y="1066.4102"/><rect fill="none" height="98.5039" style="stroke:#000000;stroke-width:1.5;" width="222.5" x="11" y="1432.5039"/><line style="stroke:#181818;stroke-width:0.5;stroke-dasharray:5.0,5.0;" x1="149.5" x2="149.5" y1="96.8633" y2="1548.0078"/><line style="stroke:#181818;stroke-width:0.5;stroke-dasharray:5.0,5.0;" x1="418.5" x2="418.5" y1="96.8633" y2="1548.0078"/><line style="stroke:#181818;stroke-width:0.5;stroke-dasharray:5.0,5.0;" x1="656" x2="656" y1="655.7188" y2="1548.0078"/><line style="stroke:#181818;stroke-width:0.5;stroke-dasharray:5.0,5.0;" x1="868" x2="868" y1="96.8633" y2="1548.0078"/><line style="stroke:#181818;stroke-width:0.5;stroke-dasharray:5.0,5.0;" x1="1167.5" x2="1167.5" y1="96.8633" y2="1548.0078"/><line style="stroke:#181818;stroke-width:0.5;stroke-dasharray:5.0,5.0;" x1="1335.5" x2="1335.5" y1="838.125" y2="1548.0078"/><rect fill="#E2E2F0" height="51.2422" rx="2.5" ry="2.5" style="stroke:#181818;stroke-width:0.5;" width="147" x="76.5" y="44.6211"/><text fill="#000000" font-family="sans-serif" font-size="14" lengthAdjust="spacing" textLength="37" x="131.5" y="66.7285">route:</text><text fill="#000000" font-family="sans-serif" font-size="14" lengthAdjust="spacing" textLength="133" x="83.5" y="85.3496">OperationTypeRoute</text><rect fill="#E2E2F0" height="51.2422" rx="2.5" ry="2.5" style="stroke:#181818;stroke-width:0.5;" width="147" x="76.5" y="1547.0078"/><text fill="#000000" font-family="sans-serif" font-size="14" lengthAdjust="spacing" textLength="37" x="131.5" y="1569.1152">route:</text><text fill="#000000" font-family="sans-serif" font-size="14" lengthAdjust="spacing" textLength="133" x="83.5" y="1587.7363">OperationTypeRoute</text><rect fill="#E2E2F0" height="51.2422" rx="2.5" ry="2.5" style="stroke:#181818;stroke-width:0.5;" width="171" x="333.5" y="44.6211"/><text fill="#000000" font-family="sans-serif" font-size="14" lengthAdjust="spacing" textLength="63" x="387.5" y="66.7285">controller:</text><text fill="#000000" font-family="sans-serif" font-size="14" lengthAdjust="spacing" textLength="157" x="340.5" y="85.3496">OperationTypeController</text><rect fill="#E2E2F0" height="51.2422" rx="2.5" ry="2.5" style="stroke:#181818;stroke-width:0.5;" width="171" x="333.5" y="1547.0078"/><text fill="#000000" font-family="sans-serif" font-size="14" lengthAdjust="spacing" textLength="63" x="387.5" y="1569.1152">controller:</text><text fill="#000000" font-family="sans-serif" font-size="14" lengthAdjust="spacing" textLength="157" x="340.5" y="1587.7363">OperationTypeController</text><rect fill="#E2E2F0" height="51.2422" rx="2.5" ry="2.5" style="stroke:#181818;stroke-width:0.5;" width="243" x="535" y="1547.0078"/><text fill="#000000" font-family="sans-serif" font-size="14" lengthAdjust="spacing" textLength="40" x="636.5" y="1569.1152">query:</text><text fill="#000000" font-family="sans-serif" font-size="14" lengthAdjust="spacing" textLength="229" x="542" y="1587.7363">OperationTypeQueryParametersDto</text><rect fill="#E2E2F0" height="51.2422" rx="2.5" ry="2.5" style="stroke:#181818;stroke-width:0.5;" width="160" x="788" y="44.6211"/><text fill="#000000" font-family="sans-serif" font-size="14" lengthAdjust="spacing" textLength="49" x="843.5" y="66.7285">service:</text><text fill="#000000" font-family="sans-serif" font-size="14" lengthAdjust="spacing" textLength="142" x="799" y="85.3496">OperationTypeService</text><rect fill="#E2E2F0" height="51.2422" rx="2.5" ry="2.5" style="stroke:#181818;stroke-width:0.5;" width="160" x="788" y="1547.0078"/><text fill="#000000" font-family="sans-serif" font-size="14" lengthAdjust="spacing" textLength="49" x="843.5" y="1569.1152">service:</text><text fill="#000000" font-family="sans-serif" font-size="14" lengthAdjust="spacing" textLength="142" x="799" y="1587.7363">OperationTypeService</text><rect fill="#E2E2F0" height="51.2422" rx="2.5" ry="2.5" style="stroke:#181818;stroke-width:0.5;" width="177" x="1079.5" y="44.6211"/><text fill="#000000" font-family="sans-serif" font-size="14" lengthAdjust="spacing" textLength="67" x="1134.5" y="66.7285">repository:</text><text fill="#000000" font-family="sans-serif" font-size="14" lengthAdjust="spacing" textLength="163" x="1086.5" y="85.3496">OperationTypeRepository</text><rect fill="#E2E2F0" height="51.2422" rx="2.5" ry="2.5" style="stroke:#181818;stroke-width:0.5;" width="177" x="1079.5" y="1547.0078"/><text fill="#000000" font-family="sans-serif" font-size="14" lengthAdjust="spacing" textLength="67" x="1134.5" y="1569.1152">repository:</text><text fill="#000000" font-family="sans-serif" font-size="14" lengthAdjust="spacing" textLength="163" x="1086.5" y="1587.7363">OperationTypeRepository</text><rect fill="#E2E2F0" height="51.2422" rx="2.5" ry="2.5" style="stroke:#181818;stroke-width:0.5;" width="139" x="1266.5" y="1547.0078"/><text fill="#000000" font-family="sans-serif" font-size="14" lengthAdjust="spacing" textLength="24" x="1324" y="1569.1152">dto:</text><text fill="#000000" font-family="sans-serif" font-size="14" lengthAdjust="spacing" textLength="125" x="1273.5" y="1587.7363">OperationTypeDTO</text><rect fill="#FFFFFF" height="388.8613" style="stroke:#181818;stroke-width:1.0;" width="10" x="145" y="130.1543"/><rect fill="#FFFFFF" height="451.1035" style="stroke:#181818;stroke-width:1.0;" width="10" x="145" y="575.3066"/><rect fill="#FFFFFF" height="414.0156" style="stroke:#181818;stroke-width:1.0;" width="10" x="145" y="1108.9922"/><rect fill="#FFFFFF" height="326.2793" style="stroke:#181818;stroke-width:1.0;" width="10" x="414" y="161.4453"/><rect fill="#FFFFFF" height="28" style="stroke:#181818;stroke-width:1.0;" width="10" x="419" y="421.4336"/><rect fill="#FFFFFF" height="388.5215" style="stroke:#181818;stroke-width:1.0;" width="10" x="414" y="606.5977"/><rect fill="#FFFFFF" height="28" style="stroke:#181818;stroke-width:1.0;" width="10" x="419" y="928.8281"/><rect fill="#FFFFFF" height="95.5039" style="stroke:#181818;stroke-width:1.0;" width="10" x="414" y="1140.2832"/><rect fill="#FFFFFF" height="95.5039" style="stroke:#181818;stroke-width:1.0;" width="10" x="414" y="1315"/><rect fill="#FFFFFF" height="189.4063" style="stroke:#181818;stroke-width:1.0;" width="10" x="863" y="192.7363"/><rect fill="#FFFFFF" height="189.4063" style="stroke:#181818;stroke-width:1.0;" width="10" x="863" y="700.1309"/><rect fill="#FFFFFF" height="31.291" style="stroke:#181818;stroke-width:1.0;" width="10" x="1163" y="224.0273"/><rect fill="#FFFFFF" height="31.291" style="stroke:#181818;stroke-width:1.0;" width="10" x="1163" y="731.4219"/><ellipse cx="7.5" cy="129.4043" fill="none" rx="4" ry="4" style="stroke:#181818;stroke-width:1.5;"/><polygon fill="#181818" points="133,126.1543,143,130.1543,133,134.1543,137,130.1543" style="stroke:#181818;stroke-width:1.0;"/><line style="stroke:#181818;stroke-width:1.0;" x1="12" x2="139" y1="130.1543" y2="130.1543"/><text fill="#000000" font-family="sans-serif" font-size="13" font-weight="bold" lengthAdjust="spacing" textLength="7" x="15" y="124.8916">1</text><text fill="#000000" font-family="sans-serif" font-size="13" lengthAdjust="spacing" textLength="77" x="26" y="124.8916">GET() /api/Xs</text><polygon fill="#181818" points="402,157.4453,412,161.4453,402,165.4453,406,161.4453" style="stroke:#181818;stroke-width:1.0;"/><line style="stroke:#181818;stroke-width:1.0;" x1="155" x2="408" y1="161.4453" y2="161.4453"/><text fill="#000000" font-family="sans-serif" font-size="13" font-weight="bold" lengthAdjust="spacing" textLength="7" x="162" y="156.1826">2</text><text fill="#000000" font-family="sans-serif" font-size="13" lengthAdjust="spacing" textLength="132" x="173" y="156.1826">getAllOperationTypes()</text><polygon fill="#181818" points="851,188.7363,861,192.7363,851,196.7363,855,192.7363" style="stroke:#181818;stroke-width:1.0;"/><line style="stroke:#181818;stroke-width:1.0;" x1="424" x2="857" y1="192.7363" y2="192.7363"/><text fill="#000000" font-family="sans-serif" font-size="13" font-weight="bold" lengthAdjust="spacing" textLength="7" x="431" y="187.4736">3</text><text fill="#000000" font-family="sans-serif" font-size="13" lengthAdjust="spacing" textLength="132" x="442" y="187.4736">getAllOperationTypes()</text><polygon fill="#181818" points="1151,220.0273,1161,224.0273,1151,228.0273,1155,224.0273" style="stroke:#181818;stroke-width:1.0;"/><line style="stroke:#181818;stroke-width:1.0;" x1="873" x2="1157" y1="224.0273" y2="224.0273"/><text fill="#000000" font-family="sans-serif" font-size="13" font-weight="bold" lengthAdjust="spacing" textLength="7" x="880" y="218.7646">4</text><text fill="#000000" font-family="sans-serif" font-size="13" lengthAdjust="spacing" textLength="43" x="891" y="218.7646">findAll()</text><polygon fill="#181818" points="884,251.3184,874,255.3184,884,259.3184,880,255.3184" style="stroke:#181818;stroke-width:1.0;"/><line style="stroke:#181818;stroke-width:1.0;stroke-dasharray:2.0,2.0;" x1="878" x2="1167" y1="255.3184" y2="255.3184"/><text fill="#000000" font-family="sans-serif" font-size="13" font-weight="bold" lengthAdjust="spacing" textLength="7" x="890" y="250.0557">5</text><text fill="#000000" font-family="sans-serif" font-size="13" lengthAdjust="spacing" textLength="102" x="901" y="250.0557">operationTypeList</text><path d="M778,270.3184 L851,270.3184 L851,279.6094 L841,289.6094 L778,289.6094 L778,270.3184 " fill="#EEEEEE" style="stroke:#000000;stroke-width:1.5;"/><rect fill="none" height="81.5332" style="stroke:#000000;stroke-width:1.5;" width="637.5" x="778" y="270.3184"/><text fill="#000000" font-family="sans-serif" font-size="13" font-weight="bold" lengthAdjust="spacing" textLength="28" x="793" y="285.3467">loop</text><text fill="#000000" font-family="sans-serif" font-size="11" font-weight="bold" lengthAdjust="spacing" textLength="204" x="866" y="284.1885">[for all the operation types in the list]</text><polygon fill="#181818" points="1254.5,308.9004,1264.5,312.9004,1254.5,316.9004,1258.5,312.9004" style="stroke:#181818;stroke-width:1.0;"/><line style="stroke:#181818;stroke-width:1.0;" x1="873" x2="1260.5" y1="312.9004" y2="312.9004"/><text fill="#000000" font-family="sans-serif" font-size="13" font-weight="bold" lengthAdjust="spacing" textLength="7" x="880" y="307.6377">6</text><text fill="#000000" font-family="sans-serif" font-size="13" lengthAdjust="spacing" textLength="126" x="891" y="307.6377">toDTO(operationType)</text><rect fill="#E2E2F0" height="51.2422" rx="2.5" ry="2.5" style="stroke:#181818;stroke-width:0.5;" width="139" x="1266.5" y="289.6094"/><text fill="#000000" font-family="sans-serif" font-size="14" lengthAdjust="spacing" textLength="24" x="1324" y="311.7168">dto:</text><text fill="#000000" font-family="sans-serif" font-size="14" lengthAdjust="spacing" textLength="125" x="1273.5" y="330.3379">OperationTypeDTO</text><polygon fill="#181818" points="435,378.1426,425,382.1426,435,386.1426,431,382.1426" style="stroke:#181818;stroke-width:1.0;"/><line style="stroke:#181818;stroke-width:1.0;stroke-dasharray:2.0,2.0;" x1="429" x2="867" y1="382.1426" y2="382.1426"/><text fill="#000000" font-family="sans-serif" font-size="13" font-weight="bold" lengthAdjust="spacing" textLength="7" x="441" y="376.8799">7</text><text fill="#000000" font-family="sans-serif" font-size="13" lengthAdjust="spacing" textLength="128" x="452" y="376.8799">operationTypeDTOList</text><line style="stroke:#181818;stroke-width:1.0;" x1="429" x2="471" y1="413.4336" y2="413.4336"/><line style="stroke:#181818;stroke-width:1.0;" x1="471" x2="471" y1="413.4336" y2="426.4336"/><line style="stroke:#181818;stroke-width:1.0;" x1="430" x2="471" y1="426.4336" y2="426.4336"/><polygon fill="#181818" points="440,422.4336,430,426.4336,440,430.4336,436,426.4336" style="stroke:#181818;stroke-width:1.0;"/><text fill="#000000" font-family="sans-serif" font-size="13" font-weight="bold" lengthAdjust="spacing" textLength="7" x="436" y="408.1709">8</text><text fill="#000000" font-family="sans-serif" font-size="13" lengthAdjust="spacing" textLength="160" x="447" y="408.1709">json(operationTypeDTOList)</text><polygon fill="#181818" points="166,483.7246,156,487.7246,166,491.7246,162,487.7246" style="stroke:#181818;stroke-width:1.0;"/><line style="stroke:#181818;stroke-width:1.0;stroke-dasharray:2.0,2.0;" x1="160" x2="418" y1="487.7246" y2="487.7246"/><text fill="#000000" font-family="sans-serif" font-size="13" font-weight="bold" lengthAdjust="spacing" textLength="7" x="172" y="482.4619">9</text><text fill="#000000" font-family="sans-serif" font-size="13" lengthAdjust="spacing" textLength="24" x="183" y="482.4619">json</text><ellipse cx="7.5" cy="518.2656" fill="none" rx="4" ry="4" style="stroke:#181818;stroke-width:1.5;"/><polygon fill="#181818" points="24.5,515.0156,14.5,519.0156,24.5,523.0156,20.5,519.0156" style="stroke:#181818;stroke-width:1.0;"/><line style="stroke:#181818;stroke-width:1.0;stroke-dasharray:2.0,2.0;" x1="22.5" x2="149" y1="519.0156" y2="519.0156"/><text fill="#000000" font-family="sans-serif" font-size="13" font-weight="bold" lengthAdjust="spacing" textLength="14" x="25" y="513.7529">10</text><text fill="#000000" font-family="sans-serif" font-size="13" lengthAdjust="spacing" textLength="46" x="43" y="513.7529">ok(json)</text><ellipse cx="7.5" cy="574.5566" fill="none" rx="4" ry="4" style="stroke:#181818;stroke-width:1.5;"/><polygon fill="#181818" points="133,571.3066,143,575.3066,133,579.3066,137,575.3066" style="stroke:#181818;stroke-width:1.0;"/><line style="stroke:#181818;stroke-width:1.0;" x1="12" x2="139" y1="575.3066" y2="575.3066"/><text fill="#000000" font-family="sans-serif" font-size="13" font-weight="bold" lengthAdjust="spacing" textLength="14" x="15" y="570.0439">11</text><text fill="#000000" font-family="sans-serif" font-size="13" lengthAdjust="spacing" textLength="67" x="33" y="570.0439">POST(json)</text><polygon fill="#181818" points="402,602.5977,412,606.5977,402,610.5977,406,606.5977" style="stroke:#181818;stroke-width:1.0;"/><line style="stroke:#181818;stroke-width:1.0;" x1="155" x2="408" y1="606.5977" y2="606.5977"/><text fill="#000000" font-family="sans-serif" font-size="13" font-weight="bold" lengthAdjust="spacing" textLength="14" x="162" y="601.335">12</text><text fill="#000000" font-family="sans-serif" font-size="13" lengthAdjust="spacing" textLength="187" x="180" y="601.335">GetFilteredOperationTypes(json)</text><polygon fill="#181818" points="523,633.8887,533,637.8887,523,641.8887,527,637.8887" style="stroke:#181818;stroke-width:1.0;"/><line style="stroke:#181818;stroke-width:1.0;" x1="424" x2="529" y1="637.8887" y2="637.8887"/><text fill="#000000" font-family="sans-serif" font-size="13" font-weight="bold" lengthAdjust="spacing" textLength="14" x="431" y="632.626">13</text><text fill="#000000" font-family="sans-serif" font-size="13" lengthAdjust="spacing" textLength="69" x="449" y="632.626">toDTO(json)</text><rect fill="#E2E2F0" height="51.2422" rx="2.5" ry="2.5" style="stroke:#181818;stroke-width:0.5;" width="243" x="535" y="614.5977"/><text fill="#000000" font-family="sans-serif" font-size="14" lengthAdjust="spacing" textLength="40" x="636.5" y="636.7051">query:</text><text fill="#000000" font-family="sans-serif" font-size="14" lengthAdjust="spacing" textLength="229" x="542" y="655.3262">OperationTypeQueryParametersDto</text><polygon fill="#181818" points="851,696.1309,861,700.1309,851,704.1309,855,700.1309" style="stroke:#181818;stroke-width:1.0;"/><line style="stroke:#181818;stroke-width:1.0;" x1="424" x2="857" y1="700.1309" y2="700.1309"/><text fill="#000000" font-family="sans-serif" font-size="13" font-weight="bold" lengthAdjust="spacing" textLength="14" x="431" y="694.8682">14</text><text fill="#000000" font-family="sans-serif" font-size="13" lengthAdjust="spacing" textLength="253" x="449" y="694.8682">FilterOperationTypes(queryParametersDTO)</text><polygon fill="#181818" points="1151,727.4219,1161,731.4219,1151,735.4219,1155,731.4219" style="stroke:#181818;stroke-width:1.0;"/><line style="stroke:#181818;stroke-width:1.0;" x1="873" x2="1157" y1="731.4219" y2="731.4219"/><text fill="#000000" font-family="sans-serif" font-size="13" font-weight="bold" lengthAdjust="spacing" textLength="14" x="880" y="726.1592">15</text><text fill="#000000" font-family="sans-serif" font-size="13" lengthAdjust="spacing" textLength="253" x="898" y="726.1592">FilterOperationTypes(queryParametersDTO)</text><polygon fill="#181818" points="884,758.7129,874,762.7129,884,766.7129,880,762.7129" style="stroke:#181818;stroke-width:1.0;"/><line style="stroke:#181818;stroke-width:1.0;stroke-dasharray:2.0,2.0;" x1="878" x2="1167" y1="762.7129" y2="762.7129"/><text fill="#000000" font-family="sans-serif" font-size="13" font-weight="bold" lengthAdjust="spacing" textLength="14" x="890" y="757.4502">16</text><text fill="#000000" font-family="sans-serif" font-size="13" lengthAdjust="spacing" textLength="109" x="908" y="757.4502">operationTypesList</text><path d="M778,777.7129 L851,777.7129 L851,787.0039 L841,797.0039 L778,797.0039 L778,777.7129 " fill="#EEEEEE" style="stroke:#000000;stroke-width:1.5;"/><rect fill="none" height="81.5332" style="stroke:#000000;stroke-width:1.5;" width="637.5" x="778" y="777.7129"/><text fill="#000000" font-family="sans-serif" font-size="13" font-weight="bold" lengthAdjust="spacing" textLength="28" x="793" y="792.7412">loop</text><text fill="#000000" font-family="sans-serif" font-size="11" font-weight="bold" lengthAdjust="spacing" textLength="204" x="866" y="791.583">[for all the operation types in the list]</text><polygon fill="#181818" points="1254.5,816.2949,1264.5,820.2949,1254.5,824.2949,1258.5,820.2949" style="stroke:#181818;stroke-width:1.0;"/><line style="stroke:#181818;stroke-width:1.0;" x1="873" x2="1260.5" y1="820.2949" y2="820.2949"/><text fill="#000000" font-family="sans-serif" font-size="13" font-weight="bold" lengthAdjust="spacing" textLength="14" x="880" y="815.0322">17</text><text fill="#000000" font-family="sans-serif" font-size="13" lengthAdjust="spacing" textLength="126" x="898" y="815.0322">toDTO(operationType)</text><rect fill="#E2E2F0" height="51.2422" rx="2.5" ry="2.5" style="stroke:#181818;stroke-width:0.5;" width="139" x="1266.5" y="797.0039"/><text fill="#000000" font-family="sans-serif" font-size="14" lengthAdjust="spacing" textLength="24" x="1324" y="819.1113">dto:</text><text fill="#000000" font-family="sans-serif" font-size="14" lengthAdjust="spacing" textLength="125" x="1273.5" y="837.7324">OperationTypeDTO</text><polygon fill="#181818" points="435,885.5371,425,889.5371,435,893.5371,431,889.5371" style="stroke:#181818;stroke-width:1.0;"/><line style="stroke:#181818;stroke-width:1.0;stroke-dasharray:2.0,2.0;" x1="429" x2="867" y1="889.5371" y2="889.5371"/><text fill="#000000" font-family="sans-serif" font-size="13" font-weight="bold" lengthAdjust="spacing" textLength="14" x="441" y="884.2744">18</text><text fill="#000000" font-family="sans-serif" font-size="13" lengthAdjust="spacing" textLength="162" x="459" y="884.2744">filterOperationTypesDTOList</text><line style="stroke:#181818;stroke-width:1.0;" x1="429" x2="471" y1="920.8281" y2="920.8281"/><line style="stroke:#181818;stroke-width:1.0;" x1="471" x2="471" y1="920.8281" y2="933.8281"/><line style="stroke:#181818;stroke-width:1.0;" x1="430" x2="471" y1="933.8281" y2="933.8281"/><polygon fill="#181818" points="440,929.8281,430,933.8281,440,937.8281,436,933.8281" style="stroke:#181818;stroke-width:1.0;"/><text fill="#000000" font-family="sans-serif" font-size="13" font-weight="bold" lengthAdjust="spacing" textLength="14" x="436" y="915.5654">19</text><text fill="#000000" font-family="sans-serif" font-size="13" lengthAdjust="spacing" textLength="163" x="454" y="915.5654">json(OperationTypeDTOList)</text><polygon fill="#181818" points="166,991.1191,156,995.1191,166,999.1191,162,995.1191" style="stroke:#181818;stroke-width:1.0;"/><line style="stroke:#181818;stroke-width:1.0;stroke-dasharray:2.0,2.0;" x1="160" x2="418" y1="995.1191" y2="995.1191"/><text fill="#000000" font-family="sans-serif" font-size="13" font-weight="bold" lengthAdjust="spacing" textLength="14" x="172" y="989.8564">20</text><text fill="#000000" font-family="sans-serif" font-size="13" lengthAdjust="spacing" textLength="24" x="190" y="989.8564">json</text><polygon fill="#181818" points="11,1022.4102,1,1026.4102,11,1030.4102,7,1026.4102" style="stroke:#181818;stroke-width:1.0;"/><line style="stroke:#181818;stroke-width:1.0;stroke-dasharray:2.0,2.0;" x1="5" x2="149" y1="1026.4102" y2="1026.4102"/><text fill="#000000" font-family="sans-serif" font-size="13" font-weight="bold" lengthAdjust="spacing" textLength="14" x="17" y="1021.1475">21</text><text fill="#000000" font-family="sans-serif" font-size="13" lengthAdjust="spacing" textLength="46" x="35" y="1021.1475">ok(json)</text><path d="M11,1066.4102 L72,1066.4102 L72,1075.7012 L62,1085.7012 L11,1085.7012 L11,1066.4102 " fill="#EEEEEE" style="stroke:#000000;stroke-width:1.5;"/><rect fill="none" height="352.0938" style="stroke:#000000;stroke-width:1.5;" width="503.5" x="11" y="1066.4102"/><text fill="#000000" font-family="sans-serif" font-size="13" font-weight="bold" lengthAdjust="spacing" textLength="16" x="26" y="1081.4385">alt</text><text fill="#000000" font-family="sans-serif" font-size="11" font-weight="bold" lengthAdjust="spacing" textLength="112" x="87" y="1080.2803">[edit operation type]</text><ellipse cx="7.5" cy="1108.2422" fill="none" rx="4" ry="4" style="stroke:#181818;stroke-width:1.5;"/><polygon fill="#181818" points="133,1104.9922,143,1108.9922,133,1112.9922,137,1108.9922" style="stroke:#181818;stroke-width:1.0;"/><line style="stroke:#181818;stroke-width:1.0;" x1="12" x2="139" y1="1108.9922" y2="1108.9922"/><text fill="#000000" font-family="sans-serif" font-size="13" font-weight="bold" lengthAdjust="spacing" textLength="14" x="15" y="1103.7295">22</text><text fill="#000000" font-family="sans-serif" font-size="13" lengthAdjust="spacing" textLength="57" x="33" y="1103.7295">PUT(json)</text><polygon fill="#181818" points="402,1136.2832,412,1140.2832,402,1144.2832,406,1140.2832" style="stroke:#181818;stroke-width:1.0;"/><line style="stroke:#181818;stroke-width:1.0;" x1="155" x2="408" y1="1140.2832" y2="1140.2832"/><text fill="#000000" font-family="sans-serif" font-size="13" font-weight="bold" lengthAdjust="spacing" textLength="14" x="162" y="1135.0205">23</text><text fill="#000000" font-family="sans-serif" font-size="13" lengthAdjust="spacing" textLength="222" x="180" y="1135.0205">editOperationType(updatedProfileData)</text><rect fill="none" height="59.2129" style="stroke:#000000;stroke-width:1.5;" width="177" x="330.5" y="1148.2832"/><path d="M330.5,1148.2832 L392.5,1148.2832 L392.5,1157.2832 L382.5,1167.2832 L330.5,1167.2832 L330.5,1148.2832 " fill="#EEEEEE" style="stroke:#000000;stroke-width:2.0;"/><text fill="#000000" font-family="sans-serif" font-size="13" font-weight="bold" lengthAdjust="spacing" textLength="17" x="343.5" y="1164.3115">ref</text><text fill="#000000" font-family="sans-serif" font-size="12" lengthAdjust="spacing" textLength="3" x="417.5" y="1184.2324">&#160;</text><text fill="#000000" font-family="sans-serif" font-size="12" font-weight="bold" lengthAdjust="spacing" textLength="56" x="391" y="1200.1934">US 5.1.21.</text><polygon fill="#181818" points="166,1231.7871,156,1235.7871,166,1239.7871,162,1235.7871" style="stroke:#181818;stroke-width:1.0;"/><line style="stroke:#181818;stroke-width:1.0;stroke-dasharray:2.0,2.0;" x1="160" x2="418" y1="1235.7871" y2="1235.7871"/><text fill="#000000" font-family="sans-serif" font-size="13" font-weight="bold" lengthAdjust="spacing" textLength="14" x="172" y="1230.5244">24</text><text fill="#000000" font-family="sans-serif" font-size="13" lengthAdjust="spacing" textLength="41" x="190" y="1230.5244">answer</text><line style="stroke:#000000;stroke-width:1.0;stroke-dasharray:2.0,2.0;" x1="11" x2="514.5" y1="1244.7871" y2="1244.7871"/><text fill="#000000" font-family="sans-serif" font-size="11" font-weight="bold" lengthAdjust="spacing" textLength="126" x="16" y="1256.6572">[delete operation type]</text><ellipse cx="7.5" cy="1282.959" fill="none" rx="4" ry="4" style="stroke:#181818;stroke-width:1.5;"/><polygon fill="#181818" points="133,1279.709,143,1283.709,133,1287.709,137,1283.709" style="stroke:#181818;stroke-width:1.0;"/><line style="stroke:#181818;stroke-width:1.0;" x1="12" x2="139" y1="1283.709" y2="1283.709"/><text fill="#000000" font-family="sans-serif" font-size="13" font-weight="bold" lengthAdjust="spacing" textLength="14" x="15" y="1278.4463">25</text><text fill="#000000" font-family="sans-serif" font-size="13" lengthAdjust="spacing" textLength="82" x="33" y="1278.4463">DELETE(json)</text><polygon fill="#181818" points="402,1311,412,1315,402,1319,406,1315" style="stroke:#181818;stroke-width:1.0;"/><line style="stroke:#181818;stroke-width:1.0;" x1="155" x2="408" y1="1315" y2="1315"/><text fill="#000000" font-family="sans-serif" font-size="13" font-weight="bold" lengthAdjust="spacing" textLength="14" x="162" y="1309.7373">26</text><text fill="#000000" font-family="sans-serif" font-size="13" lengthAdjust="spacing" textLength="208" x="180" y="1309.7373">deleteOperationType(operationType)</text><rect fill="none" height="59.2129" style="stroke:#000000;stroke-width:1.5;" width="177" x="330.5" y="1323"/><path d="M330.5,1323 L392.5,1323 L392.5,1332 L382.5,1342 L330.5,1342 L330.5,1323 " fill="#EEEEEE" style="stroke:#000000;stroke-width:2.0;"/><text fill="#000000" font-family="sans-serif" font-size="13" font-weight="bold" lengthAdjust="spacing" textLength="17" x="343.5" y="1339.0283">ref</text><text fill="#000000" font-family="sans-serif" font-size="12" lengthAdjust="spacing" textLength="3" x="417.5" y="1358.9492">&#160;</text><text fill="#000000" font-family="sans-serif" font-size="12" font-weight="bold" lengthAdjust="spacing" textLength="56" x="391" y="1374.9102">US 5.1.22.</text><polygon fill="#181818" points="166,1406.5039,156,1410.5039,166,1414.5039,162,1410.5039" style="stroke:#181818;stroke-width:1.0;"/><line style="stroke:#181818;stroke-width:1.0;stroke-dasharray:2.0,2.0;" x1="160" x2="418" y1="1410.5039" y2="1410.5039"/><text fill="#000000" font-family="sans-serif" font-size="13" font-weight="bold" lengthAdjust="spacing" textLength="14" x="172" y="1405.2412">27</text><text fill="#000000" font-family="sans-serif" font-size="13" lengthAdjust="spacing" textLength="41" x="190" y="1405.2412">answer</text><path d="M11,1432.5039 L72,1432.5039 L72,1441.7949 L62,1451.7949 L11,1451.7949 L11,1432.5039 " fill="#EEEEEE" style="stroke:#000000;stroke-width:1.5;"/><rect fill="none" height="98.5039" style="stroke:#000000;stroke-width:1.5;" width="222.5" x="11" y="1432.5039"/><text fill="#000000" font-family="sans-serif" font-size="13" font-weight="bold" lengthAdjust="spacing" textLength="16" x="26" y="1447.5322">alt</text><text fill="#000000" font-family="sans-serif" font-size="11" font-weight="bold" lengthAdjust="spacing" textLength="55" x="87" y="1446.374">[success]</text><ellipse cx="7.5" cy="1474.3359" fill="none" rx="4" ry="4" style="stroke:#181818;stroke-width:1.5;"/><polygon fill="#181818" points="24.5,1471.0859,14.5,1475.0859,24.5,1479.0859,20.5,1475.0859" style="stroke:#181818;stroke-width:1.0;"/><line style="stroke:#181818;stroke-width:1.0;stroke-dasharray:2.0,2.0;" x1="22.5" x2="144" y1="1475.0859" y2="1475.0859"/><text fill="#000000" font-family="sans-serif" font-size="13" font-weight="bold" lengthAdjust="spacing" textLength="14" x="25" y="1469.8232">28</text><text fill="#000000" font-family="sans-serif" font-size="13" lengthAdjust="spacing" textLength="44" x="43" y="1469.8232">200 OK</text><line style="stroke:#000000;stroke-width:1.0;stroke-dasharray:2.0,2.0;" x1="11" x2="233.5" y1="1484.0859" y2="1484.0859"/><text fill="#000000" font-family="sans-serif" font-size="11" font-weight="bold" lengthAdjust="spacing" textLength="43" x="16" y="1495.9561">[failure]</text><ellipse cx="7.5" cy="1522.2578" fill="none" rx="4" ry="4" style="stroke:#181818;stroke-width:1.5;"/><polygon fill="#181818" points="24.5,1519.0078,14.5,1523.0078,24.5,1527.0078,20.5,1523.0078" style="stroke:#181818;stroke-width:1.0;"/><line style="stroke:#181818;stroke-width:1.0;stroke-dasharray:2.0,2.0;" x1="22.5" x2="149" y1="1523.0078" y2="1523.0078"/><text fill="#000000" font-family="sans-serif" font-size="13" font-weight="bold" lengthAdjust="spacing" textLength="14" x="25" y="1517.7451">29</text><text fill="#000000" font-family="sans-serif" font-size="13" lengthAdjust="spacing" textLength="100" x="43" y="1517.7451">400 Bad Request</text><!--SRC=[nLPTRzCm57tFhx3wGbgfxJxWPK98i8OzK2cbpH3IU379xMPmuyo-wJHfFtxNTfebRc5C0f6dwlgUutkEZvkyka6ipDbqMabUOhsHarnjfWPkQoXp61U2Nsk-YI8KA84DBbVipUHuSd8wOGkjSZ26VH5mn-8vR46oq-4WuZMgijvy1nr55TSeSb4HDHjeLIESVIlJ2ZH7eShileAbBGuODsoPNcP97v6h4hMI4dG8EszN7FOyMyxxK9fVtuUepxQuu2G84BIPeN9eLvvbQP_1WDwAt0xCUYGhNtV8LR8CD4AbZ42rl_UoNV5gaqMmNu4gnD1ChjdE5bsfyJjl4ZjZ5qaM3zcKLsBwrKGyHx7b28s7aU-YTkiBTLy3lfUoHstYuHFCsHUvPWAHg3_0MEcHRRLJaHY2h4LP4ARRvMH6RdtSKgikwLmOZ0e848mUgLJ5raepBYN36tZ2CRJJC56wihGCh7cQYSWnDXhHNgZePzpRSUZfeIpS5esA9xTKS0JXX4vvwrO3-c5K6Hz2XZPtYBgsTyxMKkstNQctut7Retx6jctOSyuV_iF3Gn2MHRhAclRdad81-558kXnG14SVuFkHsTsWhkSU4AJAamVKjy6rpD8mPq7GNixoV0xD_mZYRtEuFg3oLt4ybCRq7wRn9Lda4XaK0WFRlBVze5xkScgNGZ9R2_DgUNiwuxeg25FGsudyWnb77h1v0RQaOStK5dIdD1hjtd37az6eFH_gzEjxzl3ItD6RpgxjcGJI05KbvV5vxRDadcJ9xjOSqkgP-ceFvEcbGa_-Wb12qYdxepPrRhyBWZ-iawCZbdvgF5bp8MiDuP_QQ-hvm0ksj5yVmMLq4MZtUGG0]--></g></svg>