<?xml version="1.0" encoding="UTF-8" standalone="no"?><svg xmlns="http://www.w3.org/2000/svg" xmlns:xlink="http://www.w3.org/1999/xlink" contentStyleType="text/css" height="1099px" preserveAspectRatio="none" style="width:1315px;height:1099px;background:#FFFFFF;" version="1.1" viewBox="0 0 1315 1099" width="1315px" zoomAndPan="magnify"><defs/><g><text fill="#000000" font-family="sans-serif" font-size="14" font-weight="bold" lengthAdjust="spacing" textLength="327" x="493" y="29.5332">US 6.3.X - Process View [Level 3 | Visualization]</text><rect fill="#FFFFFF" height="853.4375" style="stroke:#181818;stroke-width:1.0;" width="10" x="30" y="138.7656"/><rect fill="#FFFFFF" height="352.4063" style="stroke:#181818;stroke-width:1.0;" width="10" x="421" y="169.9219"/><rect fill="#FFFFFF" height="195.7813" style="stroke:#181818;stroke-width:1.0;" width="10" x="421" y="561.4844"/><rect fill="#FFFFFF" height="195.7813" style="stroke:#181818;stroke-width:1.0;" width="10" x="421" y="796.4219"/><rect fill="#FFFFFF" height="117.4688" style="stroke:#181818;stroke-width:1.0;" width="10" x="835" y="209.0781"/><rect fill="#FFFFFF" height="117.4688" style="stroke:#181818;stroke-width:1.0;" width="10" x="835" y="365.7031"/><rect fill="#FFFFFF" height="117.4688" style="stroke:#181818;stroke-width:1.0;" width="10" x="835" y="600.6406"/><rect fill="#FFFFFF" height="117.4688" style="stroke:#181818;stroke-width:1.0;" width="10" x="835" y="835.5781"/><line style="stroke:#181818;stroke-width:0.5;stroke-dasharray:5.0,5.0;" x1="35" x2="35" y1="128.7656" y2="1010.2031"/><line style="stroke:#181818;stroke-width:0.5;stroke-dasharray:5.0,5.0;" x1="425.5" x2="425.5" y1="128.7656" y2="1010.2031"/><line style="stroke:#181818;stroke-width:0.5;stroke-dasharray:5.0,5.0;" x1="839.5" x2="839.5" y1="128.7656" y2="1010.2031"/><text fill="#000000" font-family="sans-serif" font-size="20" lengthAdjust="spacing" textLength="54" x="5" y="124.3711">Admin</text><ellipse cx="35" cy="52.1094" fill="#E2E2F0" rx="8" ry="8" style="stroke:#181818;stroke-width:0.5;"/><path d="M35,60.1094 L35,87.1094 M22,68.1094 L48,68.1094 M35,87.1094 L22,102.1094 M35,87.1094 L48,102.1094 " fill="none" style="stroke:#181818;stroke-width:0.5;"/><text fill="#000000" font-family="sans-serif" font-size="20" lengthAdjust="spacing" textLength="54" x="5" y="1029.9648">Admin</text><ellipse cx="35" cy="1042.8594" fill="#E2E2F0" rx="8" ry="8" style="stroke:#181818;stroke-width:0.5;"/><path d="M35,1050.8594 L35,1077.8594 M22,1058.8594 L48,1058.8594 M35,1077.8594 L22,1092.8594 M35,1077.8594 L48,1092.8594 " fill="none" style="stroke:#181818;stroke-width:0.5;"/><rect fill="#E2E2F0" height="64.3125" rx="2.5" ry="2.5" style="stroke:#181818;stroke-width:0.5;" width="181" x="335.5" y="63.4531"/><text fill="#000000" font-family="sans-serif" font-size="20" font-style="italic" lengthAdjust="spacing" textLength="120" x="366" y="91.2148">«component»</text><text fill="#000000" font-family="sans-serif" font-size="20" lengthAdjust="spacing" textLength="167" x="342.5" y="116.3711">ScheduleOperation</text><rect fill="#E2E2F0" height="64.3125" rx="2.5" ry="2.5" style="stroke:#181818;stroke-width:0.5;" width="181" x="335.5" y="1009.2031"/><text fill="#000000" font-family="sans-serif" font-size="20" font-style="italic" lengthAdjust="spacing" textLength="120" x="366" y="1036.9648">«component»</text><text fill="#000000" font-family="sans-serif" font-size="20" lengthAdjust="spacing" textLength="167" x="342.5" y="1062.1211">ScheduleOperation</text><rect fill="#E2E2F0" height="64.3125" rx="2.5" ry="2.5" style="stroke:#181818;stroke-width:0.5;" width="239" x="720.5" y="63.4531"/><text fill="#000000" font-family="sans-serif" font-size="20" font-style="italic" lengthAdjust="spacing" textLength="86" x="797" y="91.2148">«service»</text><text fill="#000000" font-family="sans-serif" font-size="20" lengthAdjust="spacing" textLength="225" x="727.5" y="116.3711">OperationRequestService</text><rect fill="#E2E2F0" height="64.3125" rx="2.5" ry="2.5" style="stroke:#181818;stroke-width:0.5;" width="239" x="720.5" y="1009.2031"/><text fill="#000000" font-family="sans-serif" font-size="20" font-style="italic" lengthAdjust="spacing" textLength="86" x="797" y="1036.9648">«service»</text><text fill="#000000" font-family="sans-serif" font-size="20" lengthAdjust="spacing" textLength="225" x="727.5" y="1062.1211">OperationRequestService</text><rect fill="#FFFFFF" height="853.4375" style="stroke:#181818;stroke-width:1.0;" width="10" x="30" y="138.7656"/><rect fill="#FFFFFF" height="352.4063" style="stroke:#181818;stroke-width:1.0;" width="10" x="421" y="169.9219"/><rect fill="#FFFFFF" height="195.7813" style="stroke:#181818;stroke-width:1.0;" width="10" x="421" y="561.4844"/><rect fill="#FFFFFF" height="195.7813" style="stroke:#181818;stroke-width:1.0;" width="10" x="421" y="796.4219"/><rect fill="#FFFFFF" height="117.4688" style="stroke:#181818;stroke-width:1.0;" width="10" x="835" y="209.0781"/><rect fill="#FFFFFF" height="117.4688" style="stroke:#181818;stroke-width:1.0;" width="10" x="835" y="365.7031"/><rect fill="#FFFFFF" height="117.4688" style="stroke:#181818;stroke-width:1.0;" width="10" x="835" y="600.6406"/><rect fill="#FFFFFF" height="117.4688" style="stroke:#181818;stroke-width:1.0;" width="10" x="835" y="835.5781"/><polygon fill="#181818" points="409,165.9219,419,169.9219,409,173.9219,413,169.9219" style="stroke:#181818;stroke-width:1.0;"/><line style="stroke:#181818;stroke-width:1.0;" x1="40" x2="415" y1="169.9219" y2="169.9219"/><text fill="#000000" font-family="sans-serif" font-size="20" font-weight="bold" lengthAdjust="spacing" textLength="11" x="47" y="163.5273">1</text><text fill="#000000" font-family="sans-serif" font-size="20" lengthAdjust="spacing" textLength="175" x="62" y="163.5273">schedule operations</text><polygon fill="#181818" points="823,205.0781,833,209.0781,823,213.0781,827,209.0781" style="stroke:#181818;stroke-width:1.0;"/><line style="stroke:#181818;stroke-width:1.0;" x1="431" x2="829" y1="209.0781" y2="209.0781"/><text fill="#000000" font-family="sans-serif" font-size="20" font-weight="bold" lengthAdjust="spacing" textLength="11" x="438" y="202.6836">2</text><text fill="#000000" font-family="sans-serif" font-size="20" lengthAdjust="spacing" textLength="217" x="453" y="202.6836">GetOperationRequests()</text><ellipse cx="1305.5" cy="247.4844" fill="none" rx="4" ry="4" style="stroke:#181818;stroke-width:1.5;"/><polygon fill="#181818" points="1288.5,244.2344,1298.5,248.2344,1288.5,252.2344,1292.5,248.2344" style="stroke:#181818;stroke-width:1.0;"/><line style="stroke:#181818;stroke-width:1.0;" x1="845" x2="1294.5" y1="248.2344" y2="248.2344"/><text fill="#000000" font-family="sans-serif" font-size="20" font-weight="bold" lengthAdjust="spacing" textLength="11" x="852" y="241.8398">3</text><text fill="#000000" font-family="sans-serif" font-size="20" lengthAdjust="spacing" textLength="422" x="867" y="241.8398">GET: api/OperationRequest/Get-AllOpRequests</text><polygon fill="#181818" points="856,283.3906,846,287.3906,856,291.3906,852,287.3906" style="stroke:#181818;stroke-width:1.0;"/><ellipse cx="1305.5" cy="286.6406" fill="none" rx="4" ry="4" style="stroke:#181818;stroke-width:1.5;"/><line style="stroke:#181818;stroke-width:1.0;stroke-dasharray:2.0,2.0;" x1="850" x2="1301" y1="287.3906" y2="287.3906"/><text fill="#000000" font-family="sans-serif" font-size="20" font-weight="bold" lengthAdjust="spacing" textLength="11" x="862" y="280.9961">4</text><text fill="#000000" font-family="sans-serif" font-size="20" lengthAdjust="spacing" textLength="205" x="877" y="280.9961">Ok(operationRequests)</text><polygon fill="#181818" points="442,322.5469,432,326.5469,442,330.5469,438,326.5469" style="stroke:#181818;stroke-width:1.0;"/><line style="stroke:#181818;stroke-width:1.0;stroke-dasharray:2.0,2.0;" x1="436" x2="839" y1="326.5469" y2="326.5469"/><text fill="#000000" font-family="sans-serif" font-size="20" font-weight="bold" lengthAdjust="spacing" textLength="11" x="448" y="320.1523">5</text><text fill="#000000" font-family="sans-serif" font-size="20" lengthAdjust="spacing" textLength="165" x="463" y="320.1523">operationRequests</text><polygon fill="#181818" points="823,361.7031,833,365.7031,823,369.7031,827,365.7031" style="stroke:#181818;stroke-width:1.0;"/><line style="stroke:#181818;stroke-width:1.0;" x1="431" x2="829" y1="365.7031" y2="365.7031"/><text fill="#000000" font-family="sans-serif" font-size="20" font-weight="bold" lengthAdjust="spacing" textLength="11" x="438" y="359.3086">6</text><text fill="#000000" font-family="sans-serif" font-size="20" lengthAdjust="spacing" textLength="196" x="453" y="359.3086">GetOperatingRooms()</text><ellipse cx="1305.5" cy="404.1094" fill="none" rx="4" ry="4" style="stroke:#181818;stroke-width:1.5;"/><polygon fill="#181818" points="1288.5,400.8594,1298.5,404.8594,1288.5,408.8594,1292.5,404.8594" style="stroke:#181818;stroke-width:1.0;"/><line style="stroke:#181818;stroke-width:1.0;" x1="845" x2="1294.5" y1="404.8594" y2="404.8594"/><text fill="#000000" font-family="sans-serif" font-size="20" font-weight="bold" lengthAdjust="spacing" textLength="11" x="852" y="398.4648">7</text><text fill="#000000" font-family="sans-serif" font-size="20" lengthAdjust="spacing" textLength="137" x="867" y="398.4648">GET: api/Room</text><polygon fill="#181818" points="856,440.0156,846,444.0156,856,448.0156,852,444.0156" style="stroke:#181818;stroke-width:1.0;"/><ellipse cx="1305.5" cy="443.2656" fill="none" rx="4" ry="4" style="stroke:#181818;stroke-width:1.5;"/><line style="stroke:#181818;stroke-width:1.0;stroke-dasharray:2.0,2.0;" x1="850" x2="1301" y1="444.0156" y2="444.0156"/><text fill="#000000" font-family="sans-serif" font-size="20" font-weight="bold" lengthAdjust="spacing" textLength="11" x="862" y="437.6211">8</text><text fill="#000000" font-family="sans-serif" font-size="20" lengthAdjust="spacing" textLength="95" x="877" y="437.6211">Ok(rooms)</text><polygon fill="#181818" points="442,479.1719,432,483.1719,442,487.1719,438,483.1719" style="stroke:#181818;stroke-width:1.0;"/><line style="stroke:#181818;stroke-width:1.0;stroke-dasharray:2.0,2.0;" x1="436" x2="839" y1="483.1719" y2="483.1719"/><text fill="#000000" font-family="sans-serif" font-size="20" font-weight="bold" lengthAdjust="spacing" textLength="11" x="448" y="476.7773">9</text><text fill="#000000" font-family="sans-serif" font-size="20" lengthAdjust="spacing" textLength="55" x="463" y="476.7773">rooms</text><polygon fill="#181818" points="51,518.3281,41,522.3281,51,526.3281,47,522.3281" style="stroke:#181818;stroke-width:1.0;"/><line style="stroke:#181818;stroke-width:1.0;stroke-dasharray:2.0,2.0;" x1="45" x2="425" y1="522.3281" y2="522.3281"/><text fill="#000000" font-family="sans-serif" font-size="20" font-weight="bold" lengthAdjust="spacing" textLength="22" x="57" y="515.9336">10</text><text fill="#000000" font-family="sans-serif" font-size="20" lengthAdjust="spacing" textLength="331" x="83" y="515.9336">select needed information to schedule</text><polygon fill="#181818" points="409,557.4844,419,561.4844,409,565.4844,413,561.4844" style="stroke:#181818;stroke-width:1.0;"/><line style="stroke:#181818;stroke-width:1.0;" x1="40" x2="415" y1="561.4844" y2="561.4844"/><text fill="#000000" font-family="sans-serif" font-size="20" font-weight="bold" lengthAdjust="spacing" textLength="22" x="47" y="555.0898">11</text><text fill="#000000" font-family="sans-serif" font-size="20" lengthAdjust="spacing" textLength="164" x="73" y="555.0898">selects information</text><polygon fill="#181818" points="823,596.6406,833,600.6406,823,604.6406,827,600.6406" style="stroke:#181818;stroke-width:1.0;"/><line style="stroke:#181818;stroke-width:1.0;" x1="431" x2="829" y1="600.6406" y2="600.6406"/><text fill="#000000" font-family="sans-serif" font-size="20" font-weight="bold" lengthAdjust="spacing" textLength="22" x="438" y="594.2461">12</text><text fill="#000000" font-family="sans-serif" font-size="20" lengthAdjust="spacing" textLength="110" x="464" y="594.2461">GetAllStaff()</text><ellipse cx="1305.5" cy="639.0469" fill="none" rx="4" ry="4" style="stroke:#181818;stroke-width:1.5;"/><polygon fill="#181818" points="1288.5,635.7969,1298.5,639.7969,1288.5,643.7969,1292.5,639.7969" style="stroke:#181818;stroke-width:1.0;"/><line style="stroke:#181818;stroke-width:1.0;" x1="845" x2="1294.5" y1="639.7969" y2="639.7969"/><text fill="#000000" font-family="sans-serif" font-size="20" font-weight="bold" lengthAdjust="spacing" textLength="22" x="852" y="633.4023">13</text><text fill="#000000" font-family="sans-serif" font-size="20" lengthAdjust="spacing" textLength="127" x="878" y="633.4023">GET: api/Staff</text><polygon fill="#181818" points="856,674.9531,846,678.9531,856,682.9531,852,678.9531" style="stroke:#181818;stroke-width:1.0;"/><ellipse cx="1305.5" cy="678.2031" fill="none" rx="4" ry="4" style="stroke:#181818;stroke-width:1.5;"/><line style="stroke:#181818;stroke-width:1.0;stroke-dasharray:2.0,2.0;" x1="850" x2="1301" y1="678.9531" y2="678.9531"/><text fill="#000000" font-family="sans-serif" font-size="20" font-weight="bold" lengthAdjust="spacing" textLength="22" x="862" y="672.5586">14</text><text fill="#000000" font-family="sans-serif" font-size="20" lengthAdjust="spacing" textLength="79" x="888" y="672.5586">Ok(staff)</text><polygon fill="#181818" points="442,714.1094,432,718.1094,442,722.1094,438,718.1094" style="stroke:#181818;stroke-width:1.0;"/><line style="stroke:#181818;stroke-width:1.0;stroke-dasharray:2.0,2.0;" x1="436" x2="839" y1="718.1094" y2="718.1094"/><text fill="#000000" font-family="sans-serif" font-size="20" font-weight="bold" lengthAdjust="spacing" textLength="22" x="448" y="711.7148">15</text><text fill="#000000" font-family="sans-serif" font-size="20" lengthAdjust="spacing" textLength="39" x="474" y="711.7148">staff</text><polygon fill="#181818" points="51,753.2656,41,757.2656,51,761.2656,47,757.2656" style="stroke:#181818;stroke-width:1.0;"/><line style="stroke:#181818;stroke-width:1.0;stroke-dasharray:2.0,2.0;" x1="45" x2="425" y1="757.2656" y2="757.2656"/><text fill="#000000" font-family="sans-serif" font-size="20" font-weight="bold" lengthAdjust="spacing" textLength="22" x="57" y="750.8711">16</text><text fill="#000000" font-family="sans-serif" font-size="20" lengthAdjust="spacing" textLength="263" x="83" y="750.8711">select staff for each operation</text><polygon fill="#181818" points="409,792.4219,419,796.4219,409,800.4219,413,796.4219" style="stroke:#181818;stroke-width:1.0;"/><line style="stroke:#181818;stroke-width:1.0;" x1="40" x2="415" y1="796.4219" y2="796.4219"/><text fill="#000000" font-family="sans-serif" font-size="20" font-weight="bold" lengthAdjust="spacing" textLength="22" x="47" y="790.0273">17</text><text fill="#000000" font-family="sans-serif" font-size="20" lengthAdjust="spacing" textLength="273" x="73" y="790.0273">selects staff for each operation</text><polygon fill="#181818" points="823,831.5781,833,835.5781,823,839.5781,827,835.5781" style="stroke:#181818;stroke-width:1.0;"/><line style="stroke:#181818;stroke-width:1.0;" x1="431" x2="829" y1="835.5781" y2="835.5781"/><text fill="#000000" font-family="sans-serif" font-size="20" font-weight="bold" lengthAdjust="spacing" textLength="22" x="438" y="829.1836">18</text><text fill="#000000" font-family="sans-serif" font-size="20" lengthAdjust="spacing" textLength="359" x="464" y="829.1836">ScheduleOperation(ScheduleInformation)</text><ellipse cx="1305.5" cy="873.9844" fill="none" rx="4" ry="4" style="stroke:#181818;stroke-width:1.5;"/><polygon fill="#181818" points="1288.5,870.7344,1298.5,874.7344,1288.5,878.7344,1292.5,874.7344" style="stroke:#181818;stroke-width:1.0;"/><line style="stroke:#181818;stroke-width:1.0;" x1="845" x2="1294.5" y1="874.7344" y2="874.7344"/><text fill="#000000" font-family="sans-serif" font-size="20" font-weight="bold" lengthAdjust="spacing" textLength="22" x="852" y="868.3398">19</text><text fill="#000000" font-family="sans-serif" font-size="20" lengthAdjust="spacing" textLength="350" x="878" y="868.3398">POST: /api/OperationRequest/Schedule</text><polygon fill="#181818" points="856,909.8906,846,913.8906,856,917.8906,852,913.8906" style="stroke:#181818;stroke-width:1.0;"/><ellipse cx="1305.5" cy="913.1406" fill="none" rx="4" ry="4" style="stroke:#181818;stroke-width:1.5;"/><line style="stroke:#181818;stroke-width:1.0;stroke-dasharray:2.0,2.0;" x1="850" x2="1301" y1="913.8906" y2="913.8906"/><text fill="#000000" font-family="sans-serif" font-size="20" font-weight="bold" lengthAdjust="spacing" textLength="22" x="862" y="907.4961">20</text><text fill="#000000" font-family="sans-serif" font-size="20" lengthAdjust="spacing" textLength="40" x="888" y="907.4961">Ok()</text><polygon fill="#181818" points="442,949.0469,432,953.0469,442,957.0469,438,953.0469" style="stroke:#181818;stroke-width:1.0;"/><line style="stroke:#181818;stroke-width:1.0;stroke-dasharray:2.0,2.0;" x1="436" x2="839" y1="953.0469" y2="953.0469"/><text fill="#000000" font-family="sans-serif" font-size="20" font-weight="bold" lengthAdjust="spacing" textLength="22" x="448" y="946.6523">21</text><text fill="#000000" font-family="sans-serif" font-size="20" lengthAdjust="spacing" textLength="71" x="474" y="946.6523">success</text><polygon fill="#181818" points="46,988.2031,36,992.2031,46,996.2031,42,992.2031" style="stroke:#181818;stroke-width:1.0;"/><line style="stroke:#181818;stroke-width:1.0;stroke-dasharray:2.0,2.0;" x1="40" x2="425" y1="992.2031" y2="992.2031"/><text fill="#000000" font-family="sans-serif" font-size="20" font-weight="bold" lengthAdjust="spacing" textLength="22" x="52" y="985.8086">22</text><text fill="#000000" font-family="sans-serif" font-size="20" lengthAdjust="spacing" textLength="71" x="78" y="985.8086">success</text><!--SRC=[ZLJFIyCm5BxdhtZqD0zrui3368KTL0HXOL4Hn4DCtrnOcjGcdI3-yIQfTJFRTCU-Vh_UbxHs9NND6ruf8rPOGeaBtYftPRHZyWFX_8mG9vr2oEuPN9oEJXyX1zeOWTR2WyHtUBh5DIeOmQT_jYrNyeCxQVHpHWXldT5jzO8DuSAP1h9fMKcT0RTmpoxdGBovaqBMN3l8c5XYsIgSrTX4ZGv8AKmcmbIrqQXTKIIi7_GStrgqZc6pbW8Zbp9FjTsWA4X88TVSONGdCK9UH8Sns6ztCBsWtS9JIaZ0UJXbOxX6b_hQmSa6JnaXtZmlpBENlhwy6mElvJ3b3BrEFbLgLlSYaJR9yyYRhGOcTJdfXBlOOzXvJqhybM9lQFqwDwOw9d70fPcQm4ronDbUxu3mHVk2KQ5me15BVzMaNfYcYj71cP_sjoMwqZU7r4lORVAVP-IhPOul5aSi6d7ffZOCaqtZxAXD8n9yKl3WvUQeZjln8FlWmZlVpw2Vt6pwEjW4dJ5VnN3lDUrrqdxIQbeHVWp_bBCB2ejiFuQFav0l]--></g></svg>