<?xml version="1.0" encoding="us-ascii" standalone="no"?><svg xmlns="http://www.w3.org/2000/svg" xmlns:xlink="http://www.w3.org/1999/xlink" contentStyleType="text/css" height="561px" preserveAspectRatio="none" style="width:1271px;height:561px;background:#FFFFFF;" version="1.1" viewBox="0 0 1271 561" width="1271px" zoomAndPan="magnify"><defs/><g><text fill="#000000" font-family="sans-serif" font-size="14" font-weight="bold" lengthAdjust="spacing" textLength="176" x="540.5" y="25.1074">US 5.1.13 - Domain Model</text><!--cluster <<aggregate Staff>>--><g id="cluster_&lt;&lt;aggregate Staff&gt;&gt;"><path d="M8.5,45.6348 L133.5,45.6348 A3.75,3.75 0 0 1 136,48.1348 L143,70.2559 L999.5,70.2559 A2.5,2.5 0 0 1 1002,72.7559 L1002,552.1348 A2.5,2.5 0 0 1 999.5,554.6348 L8.5,554.6348 A2.5,2.5 0 0 1 6,552.1348 L6,48.1348 A2.5,2.5 0 0 1 8.5,45.6348 " fill="none" style="stroke:#000000;stroke-width:1.5;"/><line style="stroke:#000000;stroke-width:1.5;" x1="6" x2="143" y1="70.2559" y2="70.2559"/><text fill="#000000" font-family="sans-serif" font-size="14" font-weight="bold" lengthAdjust="spacing" textLength="124" x="10" y="62.7422">&#171;aggregate Staff&#187;</text></g><!--cluster <<aggregate Specialization>>--><g id="cluster_&lt;&lt;aggregate Specialization&gt;&gt;"><path d="M1028.5,182.6348 L1218.5,182.6348 A3.75,3.75 0 0 1 1221,185.1348 L1228,207.2559 L1261.5,207.2559 A2.5,2.5 0 0 1 1264,209.7559 L1264,431.1348 A2.5,2.5 0 0 1 1261.5,433.6348 L1028.5,433.6348 A2.5,2.5 0 0 1 1026,431.1348 L1026,185.1348 A2.5,2.5 0 0 1 1028.5,182.6348 " fill="none" style="stroke:#000000;stroke-width:1.5;"/><line style="stroke:#000000;stroke-width:1.5;" x1="1026" x2="1228" y1="207.2559" y2="207.2559"/><text fill="#000000" font-family="sans-serif" font-size="14" font-weight="bold" lengthAdjust="spacing" textLength="189" x="1030" y="199.7422">&#171;aggregate Specialization&#187;</text></g><!--class Staff--><g id="elem_Staff"><rect codeLine="6" fill="#F1F1F1" height="76.543" id="Staff" rx="2.5" ry="2.5" style="stroke:#181818;stroke-width:0.5;" width="71" x="569.5" y="82.6348"/><ellipse cx="584.5" cy="112.9063" fill="#ADD1B2" rx="11" ry="11" style="stroke:#181818;stroke-width:1.0;"/><path d="M583.3594,113.7031 L583.3594,116.2031 L587.6875,116.2031 L587.6875,115.2813 Q587.6875,114.6719 587.9219,114.4063 Q588.1719,114.1406 588.5469,114.1406 Q588.9219,114.1406 589.1563,114.4063 Q589.3906,114.6719 589.3906,115.2813 L589.3906,117.9063 L581.3906,117.9063 Q580.7656,117.9063 580.5,117.6719 Q580.25,117.4375 580.25,117.0469 Q580.25,116.6719 580.5156,116.4375 Q580.7813,116.2031 581.3906,116.2031 L581.6563,116.2031 L581.6563,109.5469 L581.3906,109.5469 Q580.7656,109.5469 580.5,109.3125 Q580.25,109.0781 580.25,108.6875 Q580.25,108.3125 580.5,108.0781 Q580.7656,107.8438 581.3906,107.8438 L589.0156,107.8438 L589.0156,110.4375 Q589.0156,111.0469 588.7813,111.3125 Q588.5625,111.5625 588.1719,111.5625 Q587.7969,111.5625 587.5625,111.3125 Q587.3281,111.0469 587.3281,110.4375 L587.3281,109.5469 L583.3594,109.5469 L583.3594,112 L584.8438,112 Q584.8438,111.3438 584.9688,111.1563 Q585.2344,110.75 585.7031,110.75 Q586.0781,110.75 586.3125,111.0156 Q586.5469,111.2656 586.5469,111.875 L586.5469,113.8438 Q586.5469,114.3906 586.4219,114.5781 Q586.1563,114.9688 585.7031,114.9688 Q585.2344,114.9688 584.9688,114.5625 Q584.8438,114.375 584.8438,113.7031 L583.3594,113.7031 Z " fill="#000000"/><text fill="#000000" font-family="sans-serif" font-size="12" font-style="italic" lengthAdjust="spacing" textLength="43" x="596.5" y="100.584">&#171;entity&#187;</text><text fill="#000000" font-family="sans-serif" font-size="12" font-style="italic" lengthAdjust="spacing" textLength="35" x="600.5" y="116.5449">&#171;root&#187;</text><text fill="#000000" font-family="sans-serif" font-size="14" lengthAdjust="spacing" textLength="29" x="603.5" y="134.6641">Staff</text><line style="stroke:#181818;stroke-width:0.5;" x1="570.5" x2="639.5" y1="143.1777" y2="143.1777"/><line style="stroke:#181818;stroke-width:0.5;" x1="570.5" x2="639.5" y1="151.1777" y2="151.1777"/></g><!--class LicenseNumber--><g id="elem_LicenseNumber"><rect codeLine="7" fill="#F1F1F1" height="76.543" id="LicenseNumber" rx="2.5" ry="2.5" style="stroke:#181818;stroke-width:0.5;" width="130" x="311" y="219.6348"/><ellipse cx="326" cy="249.9063" fill="#FF8B40" rx="11" ry="11" style="stroke:#181818;stroke-width:1.0;"/><path d="M326.5938,253.1719 L329.0625,247.2969 L328.6719,247.2969 Q328.0625,247.2969 327.7969,247.0625 Q327.5313,246.8281 327.5313,246.4375 Q327.5313,246.0625 327.7969,245.8281 Q328.0625,245.5938 328.6719,245.5938 L330.9531,245.5938 Q331.5625,245.5938 331.8281,245.8281 Q332.0938,246.0625 332.0938,246.4375 Q332.0938,246.9063 331.6875,247.1719 Q331.5,247.2969 330.9063,247.2969 L327.4219,255.6563 L325.7813,255.6563 L322.2969,247.2969 Q321.7031,247.2969 321.5156,247.1719 Q321.1094,246.9063 321.1094,246.4375 Q321.1094,246.0625 321.375,245.8281 Q321.6406,245.5938 322.25,245.5938 L324.5469,245.5938 Q325.1563,245.5938 325.4063,245.8281 Q325.6719,246.0625 325.6719,246.4375 Q325.6719,246.8281 325.4063,247.0625 Q325.1563,247.2969 324.5469,247.2969 L324.1406,247.2969 L326.5938,253.1719 Z " fill="#000000"/><text fill="#000000" font-family="sans-serif" font-size="12" font-style="italic" lengthAdjust="spacing" textLength="81" x="348.5" y="237.584">&#171;value object&#187;</text><text fill="#000000" font-family="sans-serif" font-size="12" font-style="italic" lengthAdjust="spacing" textLength="61" x="358.5" y="253.5449">&#171;identifier&#187;</text><text fill="#000000" font-family="sans-serif" font-size="14" lengthAdjust="spacing" textLength="98" x="340" y="271.6641">LicenseNumber</text><line style="stroke:#181818;stroke-width:0.5;" x1="312" x2="440" y1="280.1777" y2="280.1777"/><line style="stroke:#181818;stroke-width:0.5;" x1="312" x2="440" y1="288.1777" y2="288.1777"/></g><!--class Name--><g id="elem_Name"><rect codeLine="8" fill="#F1F1F1" height="60.582" id="Name" rx="2.5" ry="2.5" style="stroke:#181818;stroke-width:0.5;" width="109" x="22.5" y="227.6348"/><ellipse cx="37.5" cy="249.9258" fill="#FF8B40" rx="11" ry="11" style="stroke:#181818;stroke-width:1.0;"/><path d="M38.0938,253.1914 L40.5625,247.3164 L40.1719,247.3164 Q39.5625,247.3164 39.2969,247.082 Q39.0313,246.8477 39.0313,246.457 Q39.0313,246.082 39.2969,245.8477 Q39.5625,245.6133 40.1719,245.6133 L42.4531,245.6133 Q43.0625,245.6133 43.3281,245.8477 Q43.5938,246.082 43.5938,246.457 Q43.5938,246.9258 43.1875,247.1914 Q43,247.3164 42.4063,247.3164 L38.9219,255.6758 L37.2813,255.6758 L33.7969,247.3164 Q33.2031,247.3164 33.0156,247.1914 Q32.6094,246.9258 32.6094,246.457 Q32.6094,246.082 32.875,245.8477 Q33.1406,245.6133 33.75,245.6133 L36.0469,245.6133 Q36.6563,245.6133 36.9063,245.8477 Q37.1719,246.082 37.1719,246.457 Q37.1719,246.8477 36.9063,247.082 Q36.6563,247.3164 36.0469,247.3164 L35.6406,247.3164 L38.0938,253.1914 Z " fill="#000000"/><text fill="#000000" font-family="sans-serif" font-size="12" font-style="italic" lengthAdjust="spacing" textLength="81" x="49.5" y="245.584">&#171;value object&#187;</text><text fill="#000000" font-family="sans-serif" font-size="14" lengthAdjust="spacing" textLength="36" x="72" y="263.7031">Name</text><line style="stroke:#181818;stroke-width:0.5;" x1="23.5" x2="130.5" y1="272.2168" y2="272.2168"/><line style="stroke:#181818;stroke-width:0.5;" x1="23.5" x2="130.5" y1="280.2168" y2="280.2168"/></g><!--class FirstName--><g id="elem_FirstName"><rect codeLine="9" fill="#F1F1F1" height="60.582" id="FirstName" rx="2.5" ry="2.5" style="stroke:#181818;stroke-width:0.5;" width="109" x="22.5" y="356.6348"/><ellipse cx="37.5" cy="378.9258" fill="#FF8B40" rx="11" ry="11" style="stroke:#181818;stroke-width:1.0;"/><path d="M38.0938,382.1914 L40.5625,376.3164 L40.1719,376.3164 Q39.5625,376.3164 39.2969,376.082 Q39.0313,375.8477 39.0313,375.457 Q39.0313,375.082 39.2969,374.8477 Q39.5625,374.6133 40.1719,374.6133 L42.4531,374.6133 Q43.0625,374.6133 43.3281,374.8477 Q43.5938,375.082 43.5938,375.457 Q43.5938,375.9258 43.1875,376.1914 Q43,376.3164 42.4063,376.3164 L38.9219,384.6758 L37.2813,384.6758 L33.7969,376.3164 Q33.2031,376.3164 33.0156,376.1914 Q32.6094,375.9258 32.6094,375.457 Q32.6094,375.082 32.875,374.8477 Q33.1406,374.6133 33.75,374.6133 L36.0469,374.6133 Q36.6563,374.6133 36.9063,374.8477 Q37.1719,375.082 37.1719,375.457 Q37.1719,375.8477 36.9063,376.082 Q36.6563,376.3164 36.0469,376.3164 L35.6406,376.3164 L38.0938,382.1914 Z " fill="#000000"/><text fill="#000000" font-family="sans-serif" font-size="12" font-style="italic" lengthAdjust="spacing" textLength="81" x="49.5" y="374.584">&#171;value object&#187;</text><text fill="#000000" font-family="sans-serif" font-size="14" lengthAdjust="spacing" textLength="64" x="58" y="392.7031">FirstName</text><line style="stroke:#181818;stroke-width:0.5;" x1="23.5" x2="130.5" y1="401.2168" y2="401.2168"/><line style="stroke:#181818;stroke-width:0.5;" x1="23.5" x2="130.5" y1="409.2168" y2="409.2168"/></g><!--class LastName--><g id="elem_LastName"><rect codeLine="10" fill="#F1F1F1" height="60.582" id="LastName" rx="2.5" ry="2.5" style="stroke:#181818;stroke-width:0.5;" width="109" x="166.5" y="227.6348"/><ellipse cx="181.5" cy="249.9258" fill="#FF8B40" rx="11" ry="11" style="stroke:#181818;stroke-width:1.0;"/><path d="M182.0938,253.1914 L184.5625,247.3164 L184.1719,247.3164 Q183.5625,247.3164 183.2969,247.082 Q183.0313,246.8477 183.0313,246.457 Q183.0313,246.082 183.2969,245.8477 Q183.5625,245.6133 184.1719,245.6133 L186.4531,245.6133 Q187.0625,245.6133 187.3281,245.8477 Q187.5938,246.082 187.5938,246.457 Q187.5938,246.9258 187.1875,247.1914 Q187,247.3164 186.4063,247.3164 L182.9219,255.6758 L181.2813,255.6758 L177.7969,247.3164 Q177.2031,247.3164 177.0156,247.1914 Q176.6094,246.9258 176.6094,246.457 Q176.6094,246.082 176.875,245.8477 Q177.1406,245.6133 177.75,245.6133 L180.0469,245.6133 Q180.6563,245.6133 180.9063,245.8477 Q181.1719,246.082 181.1719,246.457 Q181.1719,246.8477 180.9063,247.082 Q180.6563,247.3164 180.0469,247.3164 L179.6406,247.3164 L182.0938,253.1914 Z " fill="#000000"/><text fill="#000000" font-family="sans-serif" font-size="12" font-style="italic" lengthAdjust="spacing" textLength="81" x="193.5" y="245.584">&#171;value object&#187;</text><text fill="#000000" font-family="sans-serif" font-size="14" lengthAdjust="spacing" textLength="63" x="202.5" y="263.7031">LastName</text><line style="stroke:#181818;stroke-width:0.5;" x1="167.5" x2="274.5" y1="272.2168" y2="272.2168"/><line style="stroke:#181818;stroke-width:0.5;" x1="167.5" x2="274.5" y1="280.2168" y2="280.2168"/></g><!--class FullName--><g id="elem_FullName"><rect codeLine="11" fill="#F1F1F1" height="60.582" id="FullName" rx="2.5" ry="2.5" style="stroke:#181818;stroke-width:0.5;" width="109" x="166.5" y="356.6348"/><ellipse cx="181.5" cy="378.9258" fill="#FF8B40" rx="11" ry="11" style="stroke:#181818;stroke-width:1.0;"/><path d="M182.0938,382.1914 L184.5625,376.3164 L184.1719,376.3164 Q183.5625,376.3164 183.2969,376.082 Q183.0313,375.8477 183.0313,375.457 Q183.0313,375.082 183.2969,374.8477 Q183.5625,374.6133 184.1719,374.6133 L186.4531,374.6133 Q187.0625,374.6133 187.3281,374.8477 Q187.5938,375.082 187.5938,375.457 Q187.5938,375.9258 187.1875,376.1914 Q187,376.3164 186.4063,376.3164 L182.9219,384.6758 L181.2813,384.6758 L177.7969,376.3164 Q177.2031,376.3164 177.0156,376.1914 Q176.6094,375.9258 176.6094,375.457 Q176.6094,375.082 176.875,374.8477 Q177.1406,374.6133 177.75,374.6133 L180.0469,374.6133 Q180.6563,374.6133 180.9063,374.8477 Q181.1719,375.082 181.1719,375.457 Q181.1719,375.8477 180.9063,376.082 Q180.6563,376.3164 180.0469,376.3164 L179.6406,376.3164 L182.0938,382.1914 Z " fill="#000000"/><text fill="#000000" font-family="sans-serif" font-size="12" font-style="italic" lengthAdjust="spacing" textLength="81" x="193.5" y="374.584">&#171;value object&#187;</text><text fill="#000000" font-family="sans-serif" font-size="14" lengthAdjust="spacing" textLength="59" x="204.5" y="392.7031">FullName</text><line style="stroke:#181818;stroke-width:0.5;" x1="167.5" x2="274.5" y1="401.2168" y2="401.2168"/><line style="stroke:#181818;stroke-width:0.5;" x1="167.5" x2="274.5" y1="409.2168" y2="409.2168"/></g><!--class Phone--><g id="elem_Phone"><rect codeLine="12" fill="#F1F1F1" height="60.582" id="Phone" rx="2.5" ry="2.5" style="stroke:#181818;stroke-width:0.5;" width="109" x="334.5" y="356.6348"/><ellipse cx="349.5" cy="378.9258" fill="#FF8B40" rx="11" ry="11" style="stroke:#181818;stroke-width:1.0;"/><path d="M350.0938,382.1914 L352.5625,376.3164 L352.1719,376.3164 Q351.5625,376.3164 351.2969,376.082 Q351.0313,375.8477 351.0313,375.457 Q351.0313,375.082 351.2969,374.8477 Q351.5625,374.6133 352.1719,374.6133 L354.4531,374.6133 Q355.0625,374.6133 355.3281,374.8477 Q355.5938,375.082 355.5938,375.457 Q355.5938,375.9258 355.1875,376.1914 Q355,376.3164 354.4063,376.3164 L350.9219,384.6758 L349.2813,384.6758 L345.7969,376.3164 Q345.2031,376.3164 345.0156,376.1914 Q344.6094,375.9258 344.6094,375.457 Q344.6094,375.082 344.875,374.8477 Q345.1406,374.6133 345.75,374.6133 L348.0469,374.6133 Q348.6563,374.6133 348.9063,374.8477 Q349.1719,375.082 349.1719,375.457 Q349.1719,375.8477 348.9063,376.082 Q348.6563,376.3164 348.0469,376.3164 L347.6406,376.3164 L350.0938,382.1914 Z " fill="#000000"/><text fill="#000000" font-family="sans-serif" font-size="12" font-style="italic" lengthAdjust="spacing" textLength="81" x="361.5" y="374.584">&#171;value object&#187;</text><text fill="#000000" font-family="sans-serif" font-size="14" lengthAdjust="spacing" textLength="41" x="381.5" y="392.7031">Phone</text><line style="stroke:#181818;stroke-width:0.5;" x1="335.5" x2="442.5" y1="401.2168" y2="401.2168"/><line style="stroke:#181818;stroke-width:0.5;" x1="335.5" x2="442.5" y1="409.2168" y2="409.2168"/></g><!--class Email--><g id="elem_Email"><rect codeLine="13" fill="#F1F1F1" height="60.582" id="Email" rx="2.5" ry="2.5" style="stroke:#181818;stroke-width:0.5;" width="109" x="478.5" y="356.6348"/><ellipse cx="493.5" cy="378.9258" fill="#FF8B40" rx="11" ry="11" style="stroke:#181818;stroke-width:1.0;"/><path d="M494.0938,382.1914 L496.5625,376.3164 L496.1719,376.3164 Q495.5625,376.3164 495.2969,376.082 Q495.0313,375.8477 495.0313,375.457 Q495.0313,375.082 495.2969,374.8477 Q495.5625,374.6133 496.1719,374.6133 L498.4531,374.6133 Q499.0625,374.6133 499.3281,374.8477 Q499.5938,375.082 499.5938,375.457 Q499.5938,375.9258 499.1875,376.1914 Q499,376.3164 498.4063,376.3164 L494.9219,384.6758 L493.2813,384.6758 L489.7969,376.3164 Q489.2031,376.3164 489.0156,376.1914 Q488.6094,375.9258 488.6094,375.457 Q488.6094,375.082 488.875,374.8477 Q489.1406,374.6133 489.75,374.6133 L492.0469,374.6133 Q492.6563,374.6133 492.9063,374.8477 Q493.1719,375.082 493.1719,375.457 Q493.1719,375.8477 492.9063,376.082 Q492.6563,376.3164 492.0469,376.3164 L491.6406,376.3164 L494.0938,382.1914 Z " fill="#000000"/><text fill="#000000" font-family="sans-serif" font-size="12" font-style="italic" lengthAdjust="spacing" textLength="81" x="505.5" y="374.584">&#171;value object&#187;</text><text fill="#000000" font-family="sans-serif" font-size="14" lengthAdjust="spacing" textLength="34" x="529" y="392.7031">Email</text><line style="stroke:#181818;stroke-width:0.5;" x1="479.5" x2="586.5" y1="401.2168" y2="401.2168"/><line style="stroke:#181818;stroke-width:0.5;" x1="479.5" x2="586.5" y1="409.2168" y2="409.2168"/></g><!--class Address--><g id="elem_Address"><rect codeLine="14" fill="#F1F1F1" height="60.582" id="Address" rx="2.5" ry="2.5" style="stroke:#181818;stroke-width:0.5;" width="109" x="550.5" y="227.6348"/><ellipse cx="565.5" cy="249.9258" fill="#FF8B40" rx="11" ry="11" style="stroke:#181818;stroke-width:1.0;"/><path d="M566.0938,253.1914 L568.5625,247.3164 L568.1719,247.3164 Q567.5625,247.3164 567.2969,247.082 Q567.0313,246.8477 567.0313,246.457 Q567.0313,246.082 567.2969,245.8477 Q567.5625,245.6133 568.1719,245.6133 L570.4531,245.6133 Q571.0625,245.6133 571.3281,245.8477 Q571.5938,246.082 571.5938,246.457 Q571.5938,246.9258 571.1875,247.1914 Q571,247.3164 570.4063,247.3164 L566.9219,255.6758 L565.2813,255.6758 L561.7969,247.3164 Q561.2031,247.3164 561.0156,247.1914 Q560.6094,246.9258 560.6094,246.457 Q560.6094,246.082 560.875,245.8477 Q561.1406,245.6133 561.75,245.6133 L564.0469,245.6133 Q564.6563,245.6133 564.9063,245.8477 Q565.1719,246.082 565.1719,246.457 Q565.1719,246.8477 564.9063,247.082 Q564.6563,247.3164 564.0469,247.3164 L563.6406,247.3164 L566.0938,253.1914 Z " fill="#000000"/><text fill="#000000" font-family="sans-serif" font-size="12" font-style="italic" lengthAdjust="spacing" textLength="81" x="577.5" y="245.584">&#171;value object&#187;</text><text fill="#000000" font-family="sans-serif" font-size="14" lengthAdjust="spacing" textLength="52" x="592" y="263.7031">Address</text><line style="stroke:#181818;stroke-width:0.5;" x1="551.5" x2="658.5" y1="272.2168" y2="272.2168"/><line style="stroke:#181818;stroke-width:0.5;" x1="551.5" x2="658.5" y1="280.2168" y2="280.2168"/></g><!--class Slot--><g id="elem_Slot"><rect codeLine="15" fill="#F1F1F1" height="60.582" id="Slot" rx="2.5" ry="2.5" style="stroke:#181818;stroke-width:0.5;" width="109" x="641.5" y="356.6348"/><ellipse cx="656.5" cy="378.9258" fill="#FF8B40" rx="11" ry="11" style="stroke:#181818;stroke-width:1.0;"/><path d="M657.0938,382.1914 L659.5625,376.3164 L659.1719,376.3164 Q658.5625,376.3164 658.2969,376.082 Q658.0313,375.8477 658.0313,375.457 Q658.0313,375.082 658.2969,374.8477 Q658.5625,374.6133 659.1719,374.6133 L661.4531,374.6133 Q662.0625,374.6133 662.3281,374.8477 Q662.5938,375.082 662.5938,375.457 Q662.5938,375.9258 662.1875,376.1914 Q662,376.3164 661.4063,376.3164 L657.9219,384.6758 L656.2813,384.6758 L652.7969,376.3164 Q652.2031,376.3164 652.0156,376.1914 Q651.6094,375.9258 651.6094,375.457 Q651.6094,375.082 651.875,374.8477 Q652.1406,374.6133 652.75,374.6133 L655.0469,374.6133 Q655.6563,374.6133 655.9063,374.8477 Q656.1719,375.082 656.1719,375.457 Q656.1719,375.8477 655.9063,376.082 Q655.6563,376.3164 655.0469,376.3164 L654.6406,376.3164 L657.0938,382.1914 Z " fill="#000000"/><text fill="#000000" font-family="sans-serif" font-size="12" font-style="italic" lengthAdjust="spacing" textLength="81" x="668.5" y="374.584">&#171;value object&#187;</text><text fill="#000000" font-family="sans-serif" font-size="14" lengthAdjust="spacing" textLength="24" x="697" y="392.7031">Slot</text><line style="stroke:#181818;stroke-width:0.5;" x1="642.5" x2="749.5" y1="401.2168" y2="401.2168"/><line style="stroke:#181818;stroke-width:0.5;" x1="642.5" x2="749.5" y1="409.2168" y2="409.2168"/></g><!--class Date--><g id="elem_Date"><rect codeLine="16" fill="#F1F1F1" height="60.582" id="Date" rx="2.5" ry="2.5" style="stroke:#181818;stroke-width:0.5;" width="109" x="569.5" y="477.6348"/><ellipse cx="584.5" cy="499.9258" fill="#FF8B40" rx="11" ry="11" style="stroke:#181818;stroke-width:1.0;"/><path d="M585.0938,503.1914 L587.5625,497.3164 L587.1719,497.3164 Q586.5625,497.3164 586.2969,497.082 Q586.0313,496.8477 586.0313,496.457 Q586.0313,496.082 586.2969,495.8477 Q586.5625,495.6133 587.1719,495.6133 L589.4531,495.6133 Q590.0625,495.6133 590.3281,495.8477 Q590.5938,496.082 590.5938,496.457 Q590.5938,496.9258 590.1875,497.1914 Q590,497.3164 589.4063,497.3164 L585.9219,505.6758 L584.2813,505.6758 L580.7969,497.3164 Q580.2031,497.3164 580.0156,497.1914 Q579.6094,496.9258 579.6094,496.457 Q579.6094,496.082 579.875,495.8477 Q580.1406,495.6133 580.75,495.6133 L583.0469,495.6133 Q583.6563,495.6133 583.9063,495.8477 Q584.1719,496.082 584.1719,496.457 Q584.1719,496.8477 583.9063,497.082 Q583.6563,497.3164 583.0469,497.3164 L582.6406,497.3164 L585.0938,503.1914 Z " fill="#000000"/><text fill="#000000" font-family="sans-serif" font-size="12" font-style="italic" lengthAdjust="spacing" textLength="81" x="596.5" y="495.584">&#171;value object&#187;</text><text fill="#000000" font-family="sans-serif" font-size="14" lengthAdjust="spacing" textLength="30" x="622" y="513.7031">Date</text><line style="stroke:#181818;stroke-width:0.5;" x1="570.5" x2="677.5" y1="522.2168" y2="522.2168"/><line style="stroke:#181818;stroke-width:0.5;" x1="570.5" x2="677.5" y1="530.2168" y2="530.2168"/></g><!--class TimeInterval--><g id="elem_TimeInterval"><rect codeLine="17" fill="#F1F1F1" height="60.582" id="TimeInterval" rx="2.5" ry="2.5" style="stroke:#181818;stroke-width:0.5;" width="109" x="713.5" y="477.6348"/><ellipse cx="728.5" cy="499.9258" fill="#FF8B40" rx="11" ry="11" style="stroke:#181818;stroke-width:1.0;"/><path d="M729.0938,503.1914 L731.5625,497.3164 L731.1719,497.3164 Q730.5625,497.3164 730.2969,497.082 Q730.0313,496.8477 730.0313,496.457 Q730.0313,496.082 730.2969,495.8477 Q730.5625,495.6133 731.1719,495.6133 L733.4531,495.6133 Q734.0625,495.6133 734.3281,495.8477 Q734.5938,496.082 734.5938,496.457 Q734.5938,496.9258 734.1875,497.1914 Q734,497.3164 733.4063,497.3164 L729.9219,505.6758 L728.2813,505.6758 L724.7969,497.3164 Q724.2031,497.3164 724.0156,497.1914 Q723.6094,496.9258 723.6094,496.457 Q723.6094,496.082 723.875,495.8477 Q724.1406,495.6133 724.75,495.6133 L727.0469,495.6133 Q727.6563,495.6133 727.9063,495.8477 Q728.1719,496.082 728.1719,496.457 Q728.1719,496.8477 727.9063,497.082 Q727.6563,497.3164 727.0469,497.3164 L726.6406,497.3164 L729.0938,503.1914 Z " fill="#000000"/><text fill="#000000" font-family="sans-serif" font-size="12" font-style="italic" lengthAdjust="spacing" textLength="81" x="740.5" y="495.584">&#171;value object&#187;</text><text fill="#000000" font-family="sans-serif" font-size="14" lengthAdjust="spacing" textLength="77" x="742.5" y="513.7031">TimeInterval</text><line style="stroke:#181818;stroke-width:0.5;" x1="714.5" x2="821.5" y1="522.2168" y2="522.2168"/><line style="stroke:#181818;stroke-width:0.5;" x1="714.5" x2="821.5" y1="530.2168" y2="530.2168"/></g><!--class Function--><g id="elem_Function"><rect codeLine="18" fill="#F1F1F1" height="60.582" id="Function" rx="2.5" ry="2.5" style="stroke:#181818;stroke-width:0.5;" width="109" x="732.5" y="227.6348"/><ellipse cx="747.5" cy="249.9258" fill="#FF8B40" rx="11" ry="11" style="stroke:#181818;stroke-width:1.0;"/><path d="M748.0938,253.1914 L750.5625,247.3164 L750.1719,247.3164 Q749.5625,247.3164 749.2969,247.082 Q749.0313,246.8477 749.0313,246.457 Q749.0313,246.082 749.2969,245.8477 Q749.5625,245.6133 750.1719,245.6133 L752.4531,245.6133 Q753.0625,245.6133 753.3281,245.8477 Q753.5938,246.082 753.5938,246.457 Q753.5938,246.9258 753.1875,247.1914 Q753,247.3164 752.4063,247.3164 L748.9219,255.6758 L747.2813,255.6758 L743.7969,247.3164 Q743.2031,247.3164 743.0156,247.1914 Q742.6094,246.9258 742.6094,246.457 Q742.6094,246.082 742.875,245.8477 Q743.1406,245.6133 743.75,245.6133 L746.0469,245.6133 Q746.6563,245.6133 746.9063,245.8477 Q747.1719,246.082 747.1719,246.457 Q747.1719,246.8477 746.9063,247.082 Q746.6563,247.3164 746.0469,247.3164 L745.6406,247.3164 L748.0938,253.1914 Z " fill="#000000"/><text fill="#000000" font-family="sans-serif" font-size="12" font-style="italic" lengthAdjust="spacing" textLength="81" x="759.5" y="245.584">&#171;value object&#187;</text><text fill="#000000" font-family="sans-serif" font-size="14" lengthAdjust="spacing" textLength="55" x="772.5" y="263.7031">Function</text><line style="stroke:#181818;stroke-width:0.5;" x1="733.5" x2="840.5" y1="272.2168" y2="272.2168"/><line style="stroke:#181818;stroke-width:0.5;" x1="733.5" x2="840.5" y1="280.2168" y2="280.2168"/></g><!--class Status--><g id="elem_Status"><rect codeLine="19" fill="#F1F1F1" height="60.582" id="Status" rx="2.5" ry="2.5" style="stroke:#181818;stroke-width:0.5;" width="109" x="876.5" y="227.6348"/><ellipse cx="891.5" cy="249.9258" fill="#FF8B40" rx="11" ry="11" style="stroke:#181818;stroke-width:1.0;"/><path d="M892.0938,253.1914 L894.5625,247.3164 L894.1719,247.3164 Q893.5625,247.3164 893.2969,247.082 Q893.0313,246.8477 893.0313,246.457 Q893.0313,246.082 893.2969,245.8477 Q893.5625,245.6133 894.1719,245.6133 L896.4531,245.6133 Q897.0625,245.6133 897.3281,245.8477 Q897.5938,246.082 897.5938,246.457 Q897.5938,246.9258 897.1875,247.1914 Q897,247.3164 896.4063,247.3164 L892.9219,255.6758 L891.2813,255.6758 L887.7969,247.3164 Q887.2031,247.3164 887.0156,247.1914 Q886.6094,246.9258 886.6094,246.457 Q886.6094,246.082 886.875,245.8477 Q887.1406,245.6133 887.75,245.6133 L890.0469,245.6133 Q890.6563,245.6133 890.9063,245.8477 Q891.1719,246.082 891.1719,246.457 Q891.1719,246.8477 890.9063,247.082 Q890.6563,247.3164 890.0469,247.3164 L889.6406,247.3164 L892.0938,253.1914 Z " fill="#000000"/><text fill="#000000" font-family="sans-serif" font-size="12" font-style="italic" lengthAdjust="spacing" textLength="81" x="903.5" y="245.584">&#171;value object&#187;</text><text fill="#000000" font-family="sans-serif" font-size="14" lengthAdjust="spacing" textLength="40" x="924" y="263.7031">Status</text><line style="stroke:#181818;stroke-width:0.5;" x1="877.5" x2="984.5" y1="272.2168" y2="272.2168"/><line style="stroke:#181818;stroke-width:0.5;" x1="877.5" x2="984.5" y1="280.2168" y2="280.2168"/></g><!--class Specialization--><g id="elem_Specialization"><rect codeLine="24" fill="#F1F1F1" height="76.543" id="Specialization" rx="2.5" ry="2.5" style="stroke:#181818;stroke-width:0.5;" width="118" x="1064" y="219.6348"/><ellipse cx="1079" cy="249.9063" fill="#ADD1B2" rx="11" ry="11" style="stroke:#181818;stroke-width:1.0;"/><path d="M1077.8594,250.7031 L1077.8594,253.2031 L1082.1875,253.2031 L1082.1875,252.2813 Q1082.1875,251.6719 1082.4219,251.4063 Q1082.6719,251.1406 1083.0469,251.1406 Q1083.4219,251.1406 1083.6563,251.4063 Q1083.8906,251.6719 1083.8906,252.2813 L1083.8906,254.9063 L1075.8906,254.9063 Q1075.2656,254.9063 1075,254.6719 Q1074.75,254.4375 1074.75,254.0469 Q1074.75,253.6719 1075.0156,253.4375 Q1075.2813,253.2031 1075.8906,253.2031 L1076.1563,253.2031 L1076.1563,246.5469 L1075.8906,246.5469 Q1075.2656,246.5469 1075,246.3125 Q1074.75,246.0781 1074.75,245.6875 Q1074.75,245.3125 1075,245.0781 Q1075.2656,244.8438 1075.8906,244.8438 L1083.5156,244.8438 L1083.5156,247.4375 Q1083.5156,248.0469 1083.2813,248.3125 Q1083.0625,248.5625 1082.6719,248.5625 Q1082.2969,248.5625 1082.0625,248.3125 Q1081.8281,248.0469 1081.8281,247.4375 L1081.8281,246.5469 L1077.8594,246.5469 L1077.8594,249 L1079.3438,249 Q1079.3438,248.3438 1079.4688,248.1563 Q1079.7344,247.75 1080.2031,247.75 Q1080.5781,247.75 1080.8125,248.0156 Q1081.0469,248.2656 1081.0469,248.875 L1081.0469,250.8438 Q1081.0469,251.3906 1080.9219,251.5781 Q1080.6563,251.9688 1080.2031,251.9688 Q1079.7344,251.9688 1079.4688,251.5625 Q1079.3438,251.375 1079.3438,250.7031 L1077.8594,250.7031 Z " fill="#000000"/><text fill="#000000" font-family="sans-serif" font-size="12" font-style="italic" lengthAdjust="spacing" textLength="43" x="1114.5" y="237.584">&#171;entity&#187;</text><text fill="#000000" font-family="sans-serif" font-size="12" font-style="italic" lengthAdjust="spacing" textLength="35" x="1118.5" y="253.5449">&#171;root&#187;</text><text fill="#000000" font-family="sans-serif" font-size="14" lengthAdjust="spacing" textLength="86" x="1093" y="271.6641">Specialization</text><line style="stroke:#181818;stroke-width:0.5;" x1="1065" x2="1181" y1="280.1777" y2="280.1777"/><line style="stroke:#181818;stroke-width:0.5;" x1="1065" x2="1181" y1="288.1777" y2="288.1777"/></g><!--class SpecializationDenomination--><g id="elem_SpecializationDenomination"><rect codeLine="25" fill="#F1F1F1" height="60.582" id="SpecializationDenomination" rx="2.5" ry="2.5" style="stroke:#181818;stroke-width:0.5;" width="205" x="1042.5" y="356.6348"/><ellipse cx="1057.5" cy="378.9258" fill="#FF8B40" rx="11" ry="11" style="stroke:#181818;stroke-width:1.0;"/><path d="M1058.0938,382.1914 L1060.5625,376.3164 L1060.1719,376.3164 Q1059.5625,376.3164 1059.2969,376.082 Q1059.0313,375.8477 1059.0313,375.457 Q1059.0313,375.082 1059.2969,374.8477 Q1059.5625,374.6133 1060.1719,374.6133 L1062.4531,374.6133 Q1063.0625,374.6133 1063.3281,374.8477 Q1063.5938,375.082 1063.5938,375.457 Q1063.5938,375.9258 1063.1875,376.1914 Q1063,376.3164 1062.4063,376.3164 L1058.9219,384.6758 L1057.2813,384.6758 L1053.7969,376.3164 Q1053.2031,376.3164 1053.0156,376.1914 Q1052.6094,375.9258 1052.6094,375.457 Q1052.6094,375.082 1052.875,374.8477 Q1053.1406,374.6133 1053.75,374.6133 L1056.0469,374.6133 Q1056.6563,374.6133 1056.9063,374.8477 Q1057.1719,375.082 1057.1719,375.457 Q1057.1719,375.8477 1056.9063,376.082 Q1056.6563,376.3164 1056.0469,376.3164 L1055.6406,376.3164 L1058.0938,382.1914 Z " fill="#000000"/><text fill="#000000" font-family="sans-serif" font-size="12" font-style="italic" lengthAdjust="spacing" textLength="81" x="1117.5" y="374.584">&#171;value object&#187;</text><text fill="#000000" font-family="sans-serif" font-size="14" lengthAdjust="spacing" textLength="173" x="1071.5" y="392.7031">SpecializationDenomination</text><line style="stroke:#181818;stroke-width:0.5;" x1="1043.5" x2="1246.5" y1="401.2168" y2="401.2168"/><line style="stroke:#181818;stroke-width:0.5;" x1="1043.5" x2="1246.5" y1="409.2168" y2="409.2168"/></g><!--link Name to FirstName--><g id="link_Name_FirstName"><path codeLine="30" d="M77,288.9148 C77,309.2948 77,330.2048 77,350.5448 " fill="none" id="Name-to-FirstName" style="stroke:#181818;stroke-width:1.0;"/><polygon fill="#181818" points="77,356.5448,81,347.5448,77,351.5448,73,347.5448,77,356.5448" style="stroke:#181818;stroke-width:1.0;"/></g><!--link Name to LastName--><g id="link_Name_LastName"><path codeLine="31" d="M131.56,258.1348 C143.21,258.1348 148.85,258.1348 160.5,258.1348 " fill="none" id="Name-to-LastName" style="stroke:#181818;stroke-width:1.0;"/><polygon fill="#181818" points="166.5,258.1348,157.5,254.1348,161.5,258.1348,157.5,262.1348,166.5,258.1348" style="stroke:#181818;stroke-width:1.0;"/></g><!--link Name to FullName--><g id="link_Name_FullName"><path codeLine="32" d="M110.76,288.9148 C133.87,309.2948 159.8903,332.2358 182.9503,352.5758 " fill="none" id="Name-to-FullName" style="stroke:#181818;stroke-width:1.0;"/><polygon fill="#181818" points="187.45,356.5448,183.3464,347.5915,183.7002,353.2373,178.0545,353.5911,187.45,356.5448" style="stroke:#181818;stroke-width:1.0;"/></g><!--link Staff to Status--><g id="link_Staff_Status"><path codeLine="34" d="M640.79,122.4748 C692.41,124.4648 789.2,133.8748 859,174.6348 C881,187.4848 896.2139,204.5943 909.0439,222.6443 " fill="none" id="Staff-to-Status" style="stroke:#181818;stroke-width:1.0;"/><polygon fill="#181818" points="912.52,227.5348,910.5661,217.8817,909.6232,223.4594,904.0455,222.5165,912.52,227.5348" style="stroke:#181818;stroke-width:1.0;"/><text fill="#000000" font-family="sans-serif" font-size="13" lengthAdjust="spacing" textLength="7" x="900.9866" y="216.5718">1</text></g><!--link Staff to Name--><g id="link_Staff_Name"><path codeLine="35" d="M569.3,122.9548 C475.09,125.6148 222.01,136.2648 149,174.6348 C126.28,186.5748 110.9046,203.9243 98.2246,222.3243 " fill="none" id="Staff-to-Name" style="stroke:#181818;stroke-width:1.0;"/><polygon fill="#181818" points="94.82,227.2648,103.2206,222.1238,97.6572,223.1477,96.6333,217.5843,94.82,227.2648" style="stroke:#181818;stroke-width:1.0;"/><text fill="#000000" font-family="sans-serif" font-size="13" lengthAdjust="spacing" textLength="7" x="90.7735" y="216.2461">1</text></g><!--link Staff to Function--><g id="link_Staff_Function"><path codeLine="36" d="M640.79,137.6448 C660.59,147.0148 685.12,159.9648 705,174.6348 C725.8,189.9848 742.2574,206.1811 757.5574,222.9611 " fill="none" id="Staff-to-Function" style="stroke:#181818;stroke-width:1.0;"/><polygon fill="#181818" points="761.6,227.3948,758.4919,218.0492,758.2312,223.7001,752.5803,223.4394,761.6,227.3948" style="stroke:#181818;stroke-width:1.0;"/><text fill="#000000" font-family="sans-serif" font-size="13" lengthAdjust="spacing" textLength="7" x="748.6394" y="216.4029">1</text></g><!--link Staff to Email--><g id="link_Staff_Email"><path codeLine="37" d="M569.36,138.8548 C555.35,147.4248 540.78,159.3248 533,174.6348 C503.13,233.3848 513.8034,307.8878 523.6534,350.6578 " fill="none" id="Staff-to-Email" style="stroke:#181818;stroke-width:1.0;"/><polygon fill="#181818" points="525,356.5048,526.8781,346.8366,523.8779,351.6323,519.0822,348.6321,525,356.5048" style="stroke:#181818;stroke-width:1.0;"/><text fill="#000000" font-family="sans-serif" font-size="13" lengthAdjust="spacing" textLength="7" x="515.6281" y="345.5356">1</text></g><!--link Staff to Phone--><g id="link_Staff_Phone"><path codeLine="38" d="M569.32,134.1848 C548.75,142.6948 523.74,155.9448 507,174.6348 C468.01,218.1548 487,245.9048 458,296.6348 C445.83,317.9248 432.9254,335.1507 418.9854,351.9207 " fill="none" id="Staff-to-Phone" style="stroke:#181818;stroke-width:1.0;"/><polygon fill="#181818" points="415.15,356.5348,423.9792,352.1706,418.3462,352.6897,417.8271,347.0567,415.15,356.5348" style="stroke:#181818;stroke-width:1.0;"/><text fill="#000000" font-family="sans-serif" font-size="13" lengthAdjust="spacing" textLength="7" x="412.8216" y="345.5718">1</text></g><!--link Staff to Address--><g id="link_Staff_Address"><path codeLine="39" d="M605,159.7448 C605,181.1148 605,201.5048 605,221.4248 " fill="none" id="Staff-to-Address" style="stroke:#181818;stroke-width:1.0;"/><polygon fill="#181818" points="605,227.4248,609,218.4248,605,222.4248,601,218.4248,605,227.4248" style="stroke:#181818;stroke-width:1.0;"/><text fill="#000000" font-family="sans-serif" font-size="13" lengthAdjust="spacing" textLength="7" x="597.2781" y="216.4391">1</text></g><!--link Staff to LicenseNumber--><g id="link_Staff_LicenseNumber"><path codeLine="40" d="M569.31,131.8748 C540.66,140.6048 500.06,155.0448 468,174.6348 C447.86,186.9348 432.3775,199.7591 416.3275,215.0991 " fill="none" id="Staff-to-LicenseNumber" style="stroke:#181818;stroke-width:1.0;"/><polygon fill="#181818" points="411.99,219.2448,421.26,215.918,415.6046,215.7901,415.7325,210.1347,411.99,219.2448" style="stroke:#181818;stroke-width:1.0;"/><text fill="#000000" font-family="sans-serif" font-size="13" lengthAdjust="spacing" textLength="7" x="410.3712" y="208.4861">1</text></g><!--link Staff to Slot--><g id="link_Staff_Slot"><path codeLine="41" d="M640.74,139.6748 C654.41,148.2648 668.69,159.9648 677,174.6348 C709.69,232.3848 706.528,307.5279 701.338,350.5879 " fill="none" id="Staff-to-Slot" style="stroke:#181818;stroke-width:1.0;"/><polygon fill="#181818" points="700.62,356.5448,705.6682,348.0881,701.2183,351.5807,697.7257,347.1308,700.62,356.5448" style="stroke:#181818;stroke-width:1.0;"/><text fill="#000000" font-family="sans-serif" font-size="13" lengthAdjust="spacing" textLength="20" x="679.5104" y="345.5839">0..*</text></g><!--link Staff to Specialization--><g id="link_Staff_Specialization"><path codeLine="42" d="M640.58,121.4148 C711.72,121.1248 875.52,126.3148 1002,174.6348 C1029.55,185.1648 1052.1948,199.4651 1073.9548,215.9251 " fill="none" id="Staff-to-Specialization" style="stroke:#181818;stroke-width:1.0;"/><polygon fill="#181818" points="1078.74,219.5448,1073.9753,210.9251,1074.7523,216.5284,1069.1491,217.3054,1078.74,219.5448" style="stroke:#181818;stroke-width:1.0;"/><text fill="#000000" font-family="sans-serif" font-size="13" lengthAdjust="spacing" textLength="7" x="1063.2328" y="208.2518">1</text></g><!--link Specialization to SpecializationDenomination--><g id="link_Specialization_SpecializationDenomination"><path codeLine="43" d="M1129.54,296.8948 C1132.83,315.9048 1135.7442,332.7131 1138.8242,350.4631 " fill="none" id="Specialization-to-SpecializationDenomination" style="stroke:#181818;stroke-width:1.0;"/><polygon fill="#181818" points="1139.85,356.3748,1142.2524,346.8234,1138.9952,351.4484,1134.3702,348.1911,1139.85,356.3748" style="stroke:#181818;stroke-width:1.0;"/><text fill="#000000" font-family="sans-serif" font-size="13" lengthAdjust="spacing" textLength="7" x="1131.0659" y="345.3788">1</text></g><!--link Slot to Date--><g id="link_Slot_Date"><path codeLine="44" d="M678.02,417.8548 C667.02,436.0348 656.1061,454.0613 645.1061,472.2413 " fill="none" id="Slot-to-Date" style="stroke:#181818;stroke-width:1.0;"/><polygon fill="#181818" points="642,477.3748,650.0814,471.7453,644.5884,473.0969,643.2368,467.6039,642,477.3748" style="stroke:#181818;stroke-width:1.0;"/><text fill="#000000" font-family="sans-serif" font-size="13" lengthAdjust="spacing" textLength="7" x="637.9906" y="466.3788">1</text></g><!--link Slot to TimeInterval--><g id="link_Slot_TimeInterval"><path codeLine="45" d="M713.98,417.8548 C724.98,436.0348 735.8939,454.0613 746.8939,472.2413 " fill="none" id="Slot-to-TimeInterval" style="stroke:#181818;stroke-width:1.0;"/><polygon fill="#181818" points="750,477.3748,748.7632,467.6039,747.4116,473.0969,741.9186,471.7453,750,477.3748" style="stroke:#181818;stroke-width:1.0;"/><text fill="#000000" font-family="sans-serif" font-size="13" lengthAdjust="spacing" textLength="7" x="738.5656" y="466.3788">1</text></g><!--SRC=[bPDTIyCm58Rlyoj2lV03ssse858AoXm8SmXJxy_QiowQZzAcWexzTzEicqtHsVOcvCtxdYIdJuvNMcV5pM2GSP2w53o8bHZ478h2JnYaEGX2DDCSgVSofrV1A1XTK9-EbG0cwQDAa7k4P12_GseyOGXfccCA6kbSmt8PHHvT4se-bAREvrQbORYTHb4OvahfA5flhCjkJQSiHbdWh1GBp8tvvFNyQ3AvlhiSddu0Bv6gnHl69cNMM5ALMZBCpTIfCWE11yEEUyBoGlUBJA5lOb9otY_nj5AoX_tU_1VUtNwR93cQiNDWpfNkxXvN77HsFpE13r9ZRanzMYfZpPGyc6XTGeCk_xtqXlm5TeOn0yw-eDhN4Eu2xgmsIASxr5k7SVnZb4em2PrkL9sGM9nyF_e1k9QYFPyDJyqV8TjtM6dUoAixqXAjqPLspTxBjMwnQuiMtLQ16hYMwhntfymm2CuyIrtxn4xRIAlhlxkQpIMMv9sl0jLLcZ2IRm00]--></g></svg>