<?xml version="1.0" encoding="us-ascii" standalone="no"?><svg xmlns="http://www.w3.org/2000/svg" xmlns:xlink="http://www.w3.org/1999/xlink" contentStyleType="text/css" height="465px" preserveAspectRatio="none" style="width:588px;height:465px;background:#FFFFFF;" version="1.1" viewBox="0 0 588 465" width="588px" zoomAndPan="magnify"><defs/><g><text fill="#000000" font-family="sans-serif" font-size="14" font-weight="bold" lengthAdjust="spacing" textLength="325" x="130.25" y="30.1074">US 7.2.17 Process View (Level 3) | Visualization</text><rect fill="#FFFFFF" height="231.6191" style="stroke:#181818;stroke-width:1.0;" width="10" x="22.5" y="133.2422"/><rect fill="#FFFFFF" height="208.3281" style="stroke:#181818;stroke-width:1.0;" width="10" x="184.5" y="156.5332"/><rect fill="#FFFFFF" height="93.873" style="stroke:#181818;stroke-width:1.0;" width="10" x="328.5" y="239.6973"/><line style="stroke:#181818;stroke-width:0.5;stroke-dasharray:5.0,5.0;" x1="27" x2="27" y1="123.2422" y2="382.8613"/><line style="stroke:#181818;stroke-width:0.5;stroke-dasharray:5.0,5.0;" x1="189" x2="189" y1="123.2422" y2="382.8613"/><line style="stroke:#181818;stroke-width:0.5;stroke-dasharray:5.0,5.0;" x1="333.5" x2="333.5" y1="123.2422" y2="382.8613"/><text fill="#000000" font-family="sans-serif" font-size="14" lengthAdjust="spacing" textLength="39" x="5" y="119.7285">Admin</text><ellipse cx="27.5" cy="53.1211" fill="#E2E2F0" rx="8" ry="8" style="stroke:#181818;stroke-width:0.5;"/><path d="M27.5,61.1211 L27.5,88.1211 M14.5,69.1211 L40.5,69.1211 M27.5,88.1211 L14.5,103.1211 M27.5,88.1211 L40.5,103.1211 " fill="none" style="stroke:#181818;stroke-width:0.5;"/><text fill="#000000" font-family="sans-serif" font-size="14" lengthAdjust="spacing" textLength="39" x="5" y="396.9688">Admin</text><ellipse cx="27.5" cy="408.9824" fill="#E2E2F0" rx="8" ry="8" style="stroke:#181818;stroke-width:0.5;"/><path d="M27.5,416.9824 L27.5,443.9824 M14.5,424.9824 L40.5,424.9824 M27.5,443.9824 L14.5,458.9824 M27.5,443.9824 L40.5,458.9824 " fill="none" style="stroke:#181818;stroke-width:0.5;"/><rect fill="#E2E2F0" height="51.2422" rx="2.5" ry="2.5" style="stroke:#181818;stroke-width:0.5;" width="103" x="138" y="71"/><text fill="#000000" font-family="sans-serif" font-size="14" lengthAdjust="spacing" textLength="89" x="145" y="93.1074">&#171;Component&#187;</text><text fill="#000000" font-family="sans-serif" font-size="14" lengthAdjust="spacing" textLength="85" x="149" y="111.7285">Create-Room</text><rect fill="#E2E2F0" height="51.2422" rx="2.5" ry="2.5" style="stroke:#181818;stroke-width:0.5;" width="103" x="138" y="381.8613"/><text fill="#000000" font-family="sans-serif" font-size="14" lengthAdjust="spacing" textLength="89" x="145" y="403.9688">&#171;Component&#187;</text><text fill="#000000" font-family="sans-serif" font-size="14" lengthAdjust="spacing" textLength="85" x="149" y="422.5898">Create-Room</text><rect fill="#E2E2F0" height="51.2422" rx="2.5" ry="2.5" style="stroke:#181818;stroke-width:0.5;" width="102" x="282.5" y="71"/><text fill="#000000" font-family="sans-serif" font-size="14" lengthAdjust="spacing" textLength="63" x="302" y="93.1074">&#171;Service&#187;</text><text fill="#000000" font-family="sans-serif" font-size="14" lengthAdjust="spacing" textLength="84" x="293.5" y="111.7285">RoomService</text><rect fill="#E2E2F0" height="51.2422" rx="2.5" ry="2.5" style="stroke:#181818;stroke-width:0.5;" width="102" x="282.5" y="381.8613"/><text fill="#000000" font-family="sans-serif" font-size="14" lengthAdjust="spacing" textLength="63" x="302" y="403.9688">&#171;Service&#187;</text><text fill="#000000" font-family="sans-serif" font-size="14" lengthAdjust="spacing" textLength="84" x="293.5" y="422.5898">RoomService</text><rect fill="#FFFFFF" height="231.6191" style="stroke:#181818;stroke-width:1.0;" width="10" x="22.5" y="133.2422"/><rect fill="#FFFFFF" height="208.3281" style="stroke:#181818;stroke-width:1.0;" width="10" x="184.5" y="156.5332"/><rect fill="#FFFFFF" height="93.873" style="stroke:#181818;stroke-width:1.0;" width="10" x="328.5" y="239.6973"/><polygon fill="#181818" points="172.5,152.5332,182.5,156.5332,172.5,160.5332,176.5,156.5332" style="stroke:#181818;stroke-width:1.0;"/><line style="stroke:#181818;stroke-width:1.0;" x1="32.5" x2="178.5" y1="156.5332" y2="156.5332"/><text fill="#000000" font-family="sans-serif" font-size="13" lengthAdjust="spacing" textLength="133" x="39.5" y="151.2705">Asks to create a room.</text><polygon fill="#181818" points="316.5,235.6973,326.5,239.6973,316.5,243.6973,320.5,239.6973" style="stroke:#181818;stroke-width:1.0;"/><line style="stroke:#181818;stroke-width:1.0;" x1="194.5" x2="322.5" y1="239.6973" y2="239.6973"/><text fill="#000000" font-family="sans-serif" font-size="13" lengthAdjust="spacing" textLength="88" x="201.5" y="182.5615">createRoom(id,</text><text fill="#000000" font-family="sans-serif" font-size="13" lengthAdjust="spacing" textLength="108" x="201.5" y="199.8525">maintenanceSlots,</text><text fill="#000000" font-family="sans-serif" font-size="13" lengthAdjust="spacing" textLength="115" x="201.5" y="217.1436">availableEquipment,</text><text fill="#000000" font-family="sans-serif" font-size="13" lengthAdjust="spacing" textLength="86" x="201.5" y="234.4346">capacity, type)</text><ellipse cx="578" cy="270.2383" fill="none" rx="4" ry="4" style="stroke:#181818;stroke-width:1.5;"/><polygon fill="#181818" points="561,266.9883,571,270.9883,561,274.9883,565,270.9883" style="stroke:#181818;stroke-width:1.0;"/><line style="stroke:#181818;stroke-width:1.0;" x1="338.5" x2="567" y1="270.9883" y2="270.9883"/><text fill="#000000" font-family="sans-serif" font-size="13" lengthAdjust="spacing" textLength="216" x="345.5" y="265.7256">POST: api/Room/create(createRoom)</text><polygon fill="#181818" points="349.5,298.2793,339.5,302.2793,349.5,306.2793,345.5,302.2793" style="stroke:#181818;stroke-width:1.0;"/><ellipse cx="578" cy="301.5293" fill="none" rx="4" ry="4" style="stroke:#181818;stroke-width:1.5;"/><line style="stroke:#181818;stroke-width:1.0;stroke-dasharray:2.0,2.0;" x1="343.5" x2="573.5" y1="302.2793" y2="302.2793"/><text fill="#000000" font-family="sans-serif" font-size="13" lengthAdjust="spacing" textLength="54" x="355.5" y="297.0166">Ok(room)</text><polygon fill="#181818" points="205.5,329.5703,195.5,333.5703,205.5,337.5703,201.5,333.5703" style="stroke:#181818;stroke-width:1.0;"/><line style="stroke:#181818;stroke-width:1.0;stroke-dasharray:2.0,2.0;" x1="199.5" x2="332.5" y1="333.5703" y2="333.5703"/><text fill="#000000" font-family="sans-serif" font-size="13" lengthAdjust="spacing" textLength="29" x="211.5" y="328.3076">room</text><polygon fill="#181818" points="38.5,360.8613,28.5,364.8613,38.5,368.8613,34.5,364.8613" style="stroke:#181818;stroke-width:1.0;"/><line style="stroke:#181818;stroke-width:1.0;stroke-dasharray:2.0,2.0;" x1="32.5" x2="188.5" y1="364.8613" y2="364.8613"/><text fill="#000000" font-family="sans-serif" font-size="13" lengthAdjust="spacing" textLength="29" x="44.5" y="359.5986">room</text><!--SRC=[RP31Ri8m38RlF8NLKv4eQDi12Q5A276R1AA34pjugGyMRP8beHFJ7dwfYqgraLDY_Py_nu53HP0S2fXFdwTFSzWveyXxE39zGVfA3LNmCeQVMF0NhFWR0nkTZ4QeWd6mAclM8uiki6ABEa2oNAvDROqc7VByf67j20DbUsFg1D33eTZi_n85kOOLIRuDtjwIZ_6ZwBY9VMv6Y4TkaENI4HQmycSFmO0I8I2us6agqPuMEToES95l3P7lk5QVSZavwHfP1zAe5HML2JwMi46kyAEYpUU5RHs_68iABIeErmc4gwLntxwNoWzWS4IOvUOzMdVRucq1Q7dMccVT4Ebzbl5_SfbbWcxFgNkSoEvRQHDzeAJ7GtMRY52tqm4r86HtWxTaVm40]--></g></svg>