<?xml version="1.0" encoding="UTF-8" standalone="no"?><svg xmlns="http://www.w3.org/2000/svg" xmlns:xlink="http://www.w3.org/1999/xlink" contentStyleType="text/css" height="2715px" preserveAspectRatio="none" style="width:891px;height:2715px;background:#FFFFFF;" version="1.1" viewBox="0 0 891 2715" width="891px" zoomAndPan="magnify"><defs/><g><!--entity Admin--><g id="elem_Admin"><ellipse cx="78" cy="1885.5" fill="#F1F1F1" rx="8" ry="8" style="stroke:#181818;stroke-width:0.5;"/><path d="M78,1893.5 L78,1920.5 M65,1901.5 L91,1901.5 M78,1920.5 L65,1935.5 M78,1920.5 L91,1935.5 " fill="none" style="stroke:#181818;stroke-width:0.5;"/><text fill="#000000" font-family="sans-serif" font-size="20" lengthAdjust="spacing" textLength="54" x="51" y="1957.7617">Admin</text></g><!--entity Backoffice--><g id="elem_Backoffice"><ellipse cx="78" cy="1018.5" fill="#F1F1F1" rx="8" ry="8" style="stroke:#181818;stroke-width:0.5;"/><path d="M78,1026.5 L78,1053.5 M65,1034.5 L91,1034.5 M78,1053.5 L65,1068.5 M78,1053.5 L91,1068.5 " fill="none" style="stroke:#181818;stroke-width:0.5;"/><text fill="#000000" font-family="sans-serif" font-size="20" lengthAdjust="spacing" textLength="144" x="6" y="1090.7617">BackOffice User</text></g><!--entity Doctor--><g id="elem_Doctor"><ellipse cx="78" cy="631.5" fill="#F1F1F1" rx="8" ry="8" style="stroke:#181818;stroke-width:0.5;"/><path d="M78,639.5 L78,666.5 M65,647.5 L91,647.5 M78,666.5 L65,681.5 M78,666.5 L91,681.5 " fill="none" style="stroke:#181818;stroke-width:0.5;"/><text fill="#000000" font-family="sans-serif" font-size="20" lengthAdjust="spacing" textLength="59" x="48.5" y="703.7617">Doctor</text></g><!--entity Patient--><g id="elem_Patient"><ellipse cx="78" cy="160.5" fill="#F1F1F1" rx="8" ry="8" style="stroke:#181818;stroke-width:0.5;"/><path d="M78,168.5 L78,195.5 M65,176.5 L91,176.5 M78,195.5 L65,210.5 M78,195.5 L91,210.5 " fill="none" style="stroke:#181818;stroke-width:0.5;"/><text fill="#000000" font-family="sans-serif" font-size="20" lengthAdjust="spacing" textLength="61" x="47.5" y="232.7617">Patient</text></g><g id="elem_register new backoffice users via an out-of-band process"><ellipse cx="548.1264" cy="1240.6253" fill="#F1F1F1" rx="266.1264" ry="55.6253" style="stroke:#181818;stroke-width:0.5;"/><text fill="#000000" font-family="sans-serif" font-size="20" lengthAdjust="spacing" textLength="499" x="298.6264" y="1246.8089">register new backoffice users via an out-of-band process</text></g><g id="elem_create a new patient profile"><ellipse cx="548.0867" cy="1362.3173" fill="#F1F1F1" rx="144.5867" ry="31.3173" style="stroke:#181818;stroke-width:0.5;"/><text fill="#000000" font-family="sans-serif" font-size="20" lengthAdjust="spacing" textLength="240" x="425.0867" y="1369.9482">create a new patient profile</text></g><g id="elem_edit an existing patient profile"><ellipse cx="548.1487" cy="1461.6297" fill="#F1F1F1" rx="151.1487" ry="32.6297" style="stroke:#181818;stroke-width:0.5;"/><text fill="#000000" font-family="sans-serif" font-size="20" lengthAdjust="spacing" textLength="255" x="417.6487" y="1469.2606">edit an existing patient profile</text></g><g id="elem_delete a patient profile"><ellipse cx="547.9585" cy="1556.5917" fill="#F1F1F1" rx="125.9585" ry="27.5917" style="stroke:#181818;stroke-width:0.5;"/><text fill="#000000" font-family="sans-serif" font-size="20" lengthAdjust="spacing" textLength="196" x="446.9585" y="1564.2226">delete a patient profile</text></g><g id="elem_list/search patient profiles to view the details, edit, and remove them"><ellipse cx="547.9372" cy="1684.5874" fill="#F1F1F1" rx="313.4372" ry="65.0874" style="stroke:#181818;stroke-width:0.5;"/><text fill="#000000" font-family="sans-serif" font-size="20" lengthAdjust="spacing" textLength="596" x="249.9372" y="1690.771">list/search patient profiles to view the details, edit, and remove them</text></g><g id="elem_I want to create a new staff profile"><ellipse cx="548.1849" cy="1821.437" fill="#F1F1F1" rx="172.6849" ry="36.937" style="stroke:#181818;stroke-width:0.5;"/><text fill="#000000" font-family="sans-serif" font-size="20" lengthAdjust="spacing" textLength="303" x="394.6037" y="1828.663">I want to create a new staff profile</text></g><g id="elem_edit a staff’s profile"><ellipse cx="548.2443" cy="1919.3489" fill="#F1F1F1" rx="114.7443" ry="25.3489" style="stroke:#181818;stroke-width:0.5;"/><text fill="#000000" font-family="sans-serif" font-size="20" lengthAdjust="spacing" textLength="168" x="461.2443" y="1926.9797">edit a staff’s profile</text></g><g id="elem_deactivate a staff profile"><ellipse cx="548.1101" cy="2009.422" fill="#F1F1F1" rx="132.6101" ry="28.922" style="stroke:#181818;stroke-width:0.5;"/><text fill="#000000" font-family="sans-serif" font-size="20" lengthAdjust="spacing" textLength="212" x="439.1101" y="2017.0529">deactivate a staff profile</text></g><g id="elem_list/search staff profiles to see the details, edit, and remove them"><ellipse cx="548.2297" cy="2136.4459" fill="#F1F1F1" rx="300.2297" ry="62.4459" style="stroke:#181818;stroke-width:0.5;"/><text fill="#000000" font-family="sans-serif" font-size="20" lengthAdjust="spacing" textLength="569" x="263.7297" y="2142.6295">list/search staff profiles to see the details, edit, and remove them</text></g><g id="elem_add new types of operations"><ellipse cx="547.9513" cy="2266.6903" fill="#F1F1F1" rx="148.9513" ry="32.1903" style="stroke:#181818;stroke-width:0.5;"/><text fill="#000000" font-family="sans-serif" font-size="20" lengthAdjust="spacing" textLength="250" x="419.9513" y="2274.3211">add new types of operations</text></g><g id="elem_edit existing operation types"><ellipse cx="547.7638" cy="2365.2528" fill="#F1F1F1" rx="146.7638" ry="31.7528" style="stroke:#181818;stroke-width:0.5;"/><text fill="#000000" font-family="sans-serif" font-size="20" lengthAdjust="spacing" textLength="245" x="422.2638" y="2372.8836">edit existing operation types</text></g><g id="elem_remove obsolete or no longer performed operation types"><ellipse cx="548.1701" cy="2488.334" fill="#F1F1F1" rx="264.6701" ry="55.334" style="stroke:#181818;stroke-width:0.5;"/><text fill="#000000" font-family="sans-serif" font-size="20" lengthAdjust="spacing" textLength="496" x="300.1701" y="2494.5176">remove obsolete or no longer performed operation types</text></g><g id="elem_list/search operation types to see the details, edit, and remove them"><ellipse cx="547.9372" cy="2644.5874" fill="#F1F1F1" rx="313.4372" ry="65.0874" style="stroke:#181818;stroke-width:0.5;"/><text fill="#000000" font-family="sans-serif" font-size="20" lengthAdjust="spacing" textLength="596" x="249.9372" y="2650.771">list/search operation types to see the details, edit, and remove them</text></g><g id="elem_update my user profile"><ellipse cx="547.9585" cy="33.5917" fill="#F1F1F1" rx="125.9585" ry="27.5917" style="stroke:#181818;stroke-width:0.5;"/><text fill="#000000" font-family="sans-serif" font-size="20" lengthAdjust="spacing" textLength="196" x="446.9585" y="41.2226">update my user profile</text></g><g id="elem_register for the healthcare application"><ellipse cx="547.8266" cy="135.5653" fill="#F1F1F1" rx="183.3266" ry="39.0653" style="stroke:#181818;stroke-width:0.5;"/><text fill="#000000" font-family="sans-serif" font-size="20" lengthAdjust="spacing" textLength="326" x="384.4051" y="141.9755">register for the healthcare application</text></g><g id="elem_delete my account and all associated data"><ellipse cx="548.1128" cy="252.6226" fill="#F1F1F1" rx="203.6128" ry="43.1226" style="stroke:#181818;stroke-width:0.5;"/><text fill="#000000" font-family="sans-serif" font-size="20" lengthAdjust="spacing" textLength="369" x="363.6128" y="258.8061">delete my account and all associated data</text></g><g id="elem_log in to the healthcare system using my external IAM credentials"><ellipse cx="548.2297" cy="393.4459" fill="#F1F1F1" rx="300.2297" ry="62.4459" style="stroke:#181818;stroke-width:0.5;"/><text fill="#000000" font-family="sans-serif" font-size="20" lengthAdjust="spacing" textLength="569" x="263.7297" y="399.6295">log in to the healthcare system using my external IAM credentials</text></g><g id="elem_reset my password if I forget it"><ellipse cx="548.2419" cy="996.5484" fill="#F1F1F1" rx="158.2419" ry="34.0484" style="stroke:#181818;stroke-width:0.5;"/><text fill="#000000" font-family="sans-serif" font-size="20" lengthAdjust="spacing" textLength="271" x="409.7419" y="1004.1792">reset my password if I forget it</text></g><g id="elem_log in to the system using my credentials"><ellipse cx="547.978" cy="1107.2956" fill="#F1F1F1" rx="196.978" ry="41.7956" style="stroke:#181818;stroke-width:0.5;"/><text fill="#000000" font-family="sans-serif" font-size="20" lengthAdjust="spacing" textLength="355" x="370.478" y="1113.4792">log in to the system using my credentials</text></g><g id="elem_request an operation"><ellipse cx="547.8762" cy="517.3752" fill="#F1F1F1" rx="119.8762" ry="26.3752" style="stroke:#181818;stroke-width:0.5;"/><text fill="#000000" font-family="sans-serif" font-size="20" lengthAdjust="spacing" textLength="181" x="454.3762" y="525.0061">request an operation</text></g><g id="elem_update an operation requisition"><ellipse cx="547.8504" cy="613.3701" fill="#F1F1F1" rx="157.3504" ry="33.8701" style="stroke:#181818;stroke-width:0.5;"/><text fill="#000000" font-family="sans-serif" font-size="20" lengthAdjust="spacing" textLength="269" x="410.3504" y="621.0009">update an operation requisition</text></g><g id="elem_remove an operation requisition"><ellipse cx="548.0816" cy="717.3163" fill="#F1F1F1" rx="159.5816" ry="34.3163" style="stroke:#181818;stroke-width:0.5;"/><text fill="#000000" font-family="sans-serif" font-size="20" lengthAdjust="spacing" textLength="274" x="408.0816" y="724.9472">remove an operation requisition</text></g><g id="elem_list/search operation requisitions to see the details, edit, and remove them"><ellipse cx="547.9571" cy="857.4914" fill="#F1F1F1" rx="337.9571" ry="69.9914" style="stroke:#181818;stroke-width:0.5;"/><text fill="#000000" font-family="sans-serif" font-size="20" lengthAdjust="spacing" textLength="646" x="224.9571" y="863.675">list/search operation requisitions to see the details, edit, and remove them</text></g><!--link Admin to register new backoffice users via an out-of-band process--><g id="link_Admin_register new backoffice users via an out-of-band process"><path d="M82.32,1876.91 C92.87,1752.56 129.81,1393.72 210,1313.5 C233.3,1290.19 262.16,1273.53 293.12,1261.74 " fill="none" id="Admin-to-register new backoffice users via an out-of-band process" style="stroke:#181818;stroke-width:1.0;"/><polygon fill="#181818" points="298.11,1259.89,288.2801,1259.2785,293.4237,1261.6331,291.0691,1266.7766,298.11,1259.89" style="stroke:#181818;stroke-width:1.0;"/></g><!--link Admin to create a new patient profile--><g id="link_Admin_create a new patient profile"><path d="M83.95,1876.91 C97.7,1766.33 140.01,1474.31 210,1411.5 C263.93,1363.1 343.46,1349.82 411.72,1349.11 " fill="none" id="Admin-to-create a new patient profile" style="stroke:#181818;stroke-width:1.0;"/><polygon fill="#181818" points="417.03,1349.08,408.0073,1345.1315,412.0301,1349.1086,408.053,1353.1314,417.03,1349.08" style="stroke:#181818;stroke-width:1.0;"/></g><!--link Admin to edit an existing patient profile--><g id="link_Admin_edit an existing patient profile"><path d="M78.94,1876.71 C81.33,1792.48 99.53,1605.25 210,1511.5 C262.19,1467.21 336.07,1452.74 401.36,1450.19 " fill="none" id="Admin-to-edit an existing patient profile" style="stroke:#181818;stroke-width:1.0;"/><polygon fill="#181818" points="406.45,1450.02,397.3182,1446.3307,401.4529,1450.1913,397.5923,1454.326,406.45,1450.02" style="stroke:#181818;stroke-width:1.0;"/></g><!--link Admin to delete a patient profile--><g id="link_Admin_delete a patient profile"><path d="M83.32,1876.82 C92.81,1807.22 122.2,1670.26 210,1602.5 C271.29,1555.2 358.19,1544.28 428.39,1544.89 " fill="none" id="Admin-to-delete a patient profile" style="stroke:#181818;stroke-width:1.0;"/><polygon fill="#181818" points="433.42,1544.95,424.4781,1540.8218,428.4205,1544.8786,424.3638,1548.821,433.42,1544.95" style="stroke:#181818;stroke-width:1.0;"/></g><!--link Admin to list/search patient profiles to view the details, edit, and remove them--><g id="link_Admin_list/search patient profiles to view the details, edit, and remove them"><path d="M104.87,1876.96 C128.14,1842.32 165.46,1794.83 210,1767.5 C237.05,1750.9 267.25,1737.61 298.14,1726.98 " fill="none" id="Admin-to-list/search patient profiles to view the details, edit, and remove them" style="stroke:#181818;stroke-width:1.0;"/><polygon fill="#181818" points="303.1,1725.3,293.2903,1724.4222,298.3681,1726.9154,295.875,1731.9932,303.1,1725.3" style="stroke:#181818;stroke-width:1.0;"/></g><!--link Admin to I want to create a new staff profile--><g id="link_Admin_I want to create a new staff profile"><path d="M105.25,1909.55 C131.45,1899.93 173.03,1885.53 210,1876.5 C269.68,1861.93 336.26,1850.14 394.37,1841.27 " fill="none" id="Admin-to-I want to create a new staff profile" style="stroke:#181818;stroke-width:1.0;"/><polygon fill="#181818" points="399.61,1840.48,390.1155,1837.862,394.6655,1841.2231,391.3044,1845.7732,399.61,1840.48" style="stroke:#181818;stroke-width:1.0;"/></g><!--link Admin to edit a staff’s profile--><g id="link_Admin_edit a staff’s profile"><path d="M105.16,1919.5 C165.85,1919.5 319.31,1919.5 428.29,1919.5 " fill="none" id="Admin-to-edit a staff’s profile" style="stroke:#181818;stroke-width:1.0;"/><polygon fill="#181818" points="433.44,1919.5,424.44,1915.5,428.44,1919.5,424.44,1923.5,433.44,1919.5" style="stroke:#181818;stroke-width:1.0;"/></g><!--link Admin to deactivate a staff profile--><g id="link_Admin_deactivate a staff profile"><path d="M105.2,1929.64 C131.37,1939.4 172.92,1953.9 210,1962.5 C278.99,1978.5 357.26,1989.82 421,1997.34 " fill="none" id="Admin-to-deactivate a staff profile" style="stroke:#181818;stroke-width:1.0;"/><polygon fill="#181818" points="426.34,1997.96,417.8698,1992.9344,421.3743,1997.375,416.9338,2000.8795,426.34,1997.96" style="stroke:#181818;stroke-width:1.0;"/></g><!--link Admin to list/search staff profiles to see the details, edit, and remove them--><g id="link_Admin_list/search staff profiles to see the details, edit, and remove them"><path d="M105.04,1956.95 C128.81,1988.28 166.74,2031.71 210,2056.5 C239.21,2073.24 271.77,2086.49 304.81,2096.97 " fill="none" id="Admin-to-list/search staff profiles to see the details, edit, and remove them" style="stroke:#181818;stroke-width:1.0;"/><polygon fill="#181818" points="309.69,2098.49,302.2861,2091.9952,304.9161,2097.0035,299.9077,2099.6335,309.69,2098.49" style="stroke:#181818;stroke-width:1.0;"/></g><!--link Admin to add new types of operations--><g id="link_Admin_add new types of operations"><path d="M84.73,1962.12 C96.02,2028.05 127.65,2153.72 210,2216.5 C263.3,2257.13 335.44,2271.59 399.3,2275.08 " fill="none" id="Admin-to-add new types of operations" style="stroke:#181818;stroke-width:1.0;"/><polygon fill="#181818" points="404.67,2275.35,395.8753,2270.9169,399.6759,2275.1067,395.486,2278.9074,404.67,2275.35" style="stroke:#181818;stroke-width:1.0;"/></g><!--link Admin to edit existing operation types--><g id="link_Admin_edit existing operation types"><path d="M79.35,1962.15 C82.53,2044.67 102.15,2225.98 210,2316.5 C263.63,2361.51 339.75,2375.36 406.08,2377.25 " fill="none" id="Admin-to-edit existing operation types" style="stroke:#181818;stroke-width:1.0;"/><polygon fill="#181818" points="411.24,2377.38,402.3338,2373.1754,406.2413,2377.2657,402.1509,2381.1733,411.24,2377.38" style="stroke:#181818;stroke-width:1.0;"/></g><!--link Admin to remove obsolete or no longer performed operation types--><g id="link_Admin_remove obsolete or no longer performed operation types"><path d="M84.51,1962.01 C99.38,2070.25 143.77,2352.18 210,2415.5 C234.33,2438.76 264.24,2455.33 296.09,2467.02 " fill="none" id="Admin-to-remove obsolete or no longer performed operation types" style="stroke:#181818;stroke-width:1.0;"/><polygon fill="#181818" points="300.8,2468.71,293.6723,2461.9133,296.0919,2467.0265,290.9787,2469.4462,300.8,2468.71" style="stroke:#181818;stroke-width:1.0;"/></g><!--link Admin to list/search operation types to see the details, edit, and remove them--><g id="link_Admin_list/search operation types to see the details, edit, and remove them"><path d="M81.88,1962.17 C91.45,2091.33 126.47,2474.54 210,2561.5 C228.86,2581.14 251.57,2596.43 276.17,2608.29 " fill="none" id="Admin-to-list/search operation types to see the details, edit, and remove them" style="stroke:#181818;stroke-width:1.0;"/><polygon fill="#181818" points="280.78,2610.47,274.3557,2603.0049,276.2604,2608.3314,270.9339,2610.2362,280.78,2610.47" style="stroke:#181818;stroke-width:1.0;"/></g><!--link Patient to update my user profile--><g id="link_Patient_update my user profile"><path d="M108.68,158.59 C132.98,131.83 169.8,96.88 210,78.5 C274.22,49.14 352.02,37.4 416.67,33.21 " fill="none" id="Patient-to-update my user profile" style="stroke:#181818;stroke-width:1.0;"/><polygon fill="#181818" points="421.7,32.9,412.4668,29.4725,416.7098,33.2137,412.9687,37.4567,421.7,32.9" style="stroke:#181818;stroke-width:1.0;"/></g><!--link Patient to register for the healthcare application--><g id="link_Patient_register for the healthcare application"><path d="M108.63,190.76 C163.36,183.86 283.94,168.66 384.81,155.95 " fill="none" id="Patient-to-register for the healthcare application" style="stroke:#181818;stroke-width:1.0;"/><polygon fill="#181818" points="389.9,155.31,380.4693,152.4705,384.9395,155.9372,381.4728,160.4073,389.9,155.31" style="stroke:#181818;stroke-width:1.0;"/></g><!--link Patient to delete my account and all associated data--><g id="link_Patient_delete my account and all associated data"><path d="M108.63,198.17 C160.15,204.56 270.01,218.17 366.86,230.18 " fill="none" id="Patient-to-delete my account and all associated data" style="stroke:#181818;stroke-width:1.0;"/><polygon fill="#181818" points="372.05,230.82,363.6102,225.7436,367.088,230.2051,362.6264,233.6828,372.05,230.82" style="stroke:#181818;stroke-width:1.0;"/></g><!--link Patient to log in to the healthcare system using my external IAM credentials--><g id="link_Patient_log in to the healthcare system using my external IAM credentials"><path d="M108.62,229.33 C133.15,255.99 170.32,291.61 210,312.5 C241.08,328.86 275.52,341.98 310.15,352.47 " fill="none" id="Patient-to-log in to the healthcare system using my external IAM credentials" style="stroke:#181818;stroke-width:1.0;"/><polygon fill="#181818" points="315.27,354,307.8077,347.5723,310.4828,352.5567,305.4985,355.2318,315.27,354" style="stroke:#181818;stroke-width:1.0;"/></g><!--link Backoffice to reset my password if I forget it--><g id="link_Backoffice_reset my password if I forget it"><path d="M150.08,1043.99 C217.4,1035.94 320.42,1023.61 404.64,1013.53 " fill="none" id="Backoffice-to-reset my password if I forget it" style="stroke:#181818;stroke-width:1.0;"/><polygon fill="#181818" points="409.65,1012.93,400.2438,1010.0105,404.6843,1013.515,401.1798,1017.9556,409.65,1012.93" style="stroke:#181818;stroke-width:1.0;"/></g><!--link Backoffice to log in to the system using my credentials--><g id="link_Backoffice_log in to the system using my credentials"><path d="M150.08,1060.85 C208.44,1067.71 293.65,1077.73 370.16,1086.72 " fill="none" id="Backoffice-to-log in to the system using my credentials" style="stroke:#181818;stroke-width:1.0;"/><polygon fill="#181818" points="375.19,1087.31,366.7215,1082.2816,370.2245,1086.7233,365.7828,1090.2263,375.19,1087.31" style="stroke:#181818;stroke-width:1.0;"/></g><!--link Doctor to request an operation--><g id="link_Doctor_request an operation"><path d="M107.71,635.35 C132.43,611.41 170.29,579.27 210,562.5 C276.91,534.25 357.35,522.76 422.86,518.45 " fill="none" id="Doctor-to-request an operation" style="stroke:#181818;stroke-width:1.0;"/><polygon fill="#181818" points="427.95,518.12,418.7168,514.6925,422.9598,518.4337,419.2187,522.6767,427.95,518.12" style="stroke:#181818;stroke-width:1.0;"/></g><!--link Doctor to update an operation requisition--><g id="link_Doctor_update an operation requisition"><path d="M107.57,662.33 C164.95,655.95 297.65,641.21 402.3,629.58 " fill="none" id="Doctor-to-update an operation requisition" style="stroke:#181818;stroke-width:1.0;"/><polygon fill="#181818" points="407.58,628.99,398.199,625.9906,402.6095,629.5328,399.0674,633.9433,407.58,628.99" style="stroke:#181818;stroke-width:1.0;"/></g><!--link Doctor to remove an operation requisition--><g id="link_Doctor_remove an operation requisition"><path d="M107.57,668.67 C164.61,675.01 296.07,689.62 400.43,701.21 " fill="none" id="Doctor-to-remove an operation requisition" style="stroke:#181818;stroke-width:1.0;"/><polygon fill="#181818" points="405.69,701.8,397.1915,696.8225,400.7211,701.2431,396.3005,704.7728,405.69,701.8" style="stroke:#181818;stroke-width:1.0;"/></g><!--link Doctor to list/search operation requisitions to see the details, edit, and remove them--><g id="link_Doctor_list/search operation requisitions to see the details, edit, and remove them"><path d="M107.74,694.22 C132.75,717.68 171.03,750.04 210,769.5 C238.88,783.93 270.38,796.16 302.14,806.5 " fill="none" id="Doctor-to-list/search operation requisitions to see the details, edit, and remove them" style="stroke:#181818;stroke-width:1.0;"/><polygon fill="#181818" points="307.24,808.14,299.913,801.5586,302.4839,806.5975,297.445,809.1683,307.24,808.14" style="stroke:#181818;stroke-width:1.0;"/></g><!--SRC=[bLH1ZXCn4BpFArfxWKWRWZXoG5g4a790824UqB5x9gruxC7kIJQS-0RVuoMqFKasCzcDo2MnxEggBdTvqePzXn5R5yo6B5YgiNVoENZvphy8thsjNgr5klH-iUWSUkbRzyQ4Tj4dcXlK7ylOQ7rLEQe5943aPYrWEP8H3hwgq4Y8SFTWM_PtW0dAwhZz4StcQrsp8VYHA1P0tWjbxuZw5F9_EHoMnuDlA4nUoibXNLLLKO3v_0EyZjHm4ehWQGUh4p6eWPXWomZe8VGo3_LyXTv25uEXb6Rd92OI2W4MacwGoS2Q7Os0P5ao8JsgAFlcAjYIey9w3UIKQ948erbFSIbVzvQr9LcJZawGNRg7tCCzP2kHsh2bVDgEE9Umqr7cwf6n95ZNLsmDWB-__wGNxEXCU3lmlSnrRcY4AdOIqQrkqDhIlkmxvGWrX8uYvkobInEdmPn0Gzrid9cY55Ofb0bfq7m05toZETAwEiHM7yirYdEN4zmjDglg4Eg1jUziljvsN-BxTBqZq2dnscOHMHCwMHkCEfYkSsnACvEgGnYL6eq9lPVI33gdBoi5mwghdmSKdDIvq82QLayJgRJN9bfjDD-sqjAZzkJHmVBXIywTLGf6bxB9fmT_j918Sb6duhiGBN0DosoeqNsMsKN5k8sfzaHk-8GSfNxsbCgZFSrfDa8SBlqS0BcA4r-23zFxF_3p8Jc3tvILVm00]--></g></svg>