<svg xmlns="http://www.w3.org/2000/svg" xmlns:xlink="http://www.w3.org/1999/xlink" contentStyleType="text/css" height="420px" preserveAspectRatio="none" style="width:578px;height:420px;background:#FFFFFF;" version="1.1" viewBox="0 0 578 420" width="578px" zoomAndPan="magnify"><title>US 5.1.14. Process View (Level 2)</title><defs/><g><text fill="#000000" font-family="sans-serif" font-size="14" font-weight="bold" lengthAdjust="spacing" textLength="264.4209" x="163.9387" y="27.9951">US 5.1.14. Process View (Level 2)</text><rect fill="#FFFFFF" height="29.1328" style="stroke:#181818;stroke-width:1.0;" width="10" x="181.9326" y="121.0234"/><rect fill="#FFFFFF" height="171.6641" style="stroke:#181818;stroke-width:1.0;" width="10" x="181.9326" y="179.2891"/><rect fill="#FFFFFF" height="71.2656" style="stroke:#181818;stroke-width:1.0;" width="10" x="418.7939" y="250.5547"/><line style="stroke:#181818;stroke-width:0.5;stroke-dasharray:5.0,5.0;" x1="186.7666" x2="186.7666" y1="89.8906" y2="368.9531"/><line style="stroke:#181818;stroke-width:0.5;stroke-dasharray:5.0,5.0;" x1="423.6279" x2="423.6279" y1="89.8906" y2="368.9531"/><rect fill="#E2E2F0" height="46.5938" rx="2.5" ry="2.5" style="stroke:#181818;stroke-width:0.5;" width="110.332" x="131.7666" y="42.2969"/><text fill="#000000" font-family="sans-serif" font-size="14" lengthAdjust="spacing" textLength="96.332" x="138.7666" y="62.292">&#171;component&#187;</text><text fill="#000000" font-family="sans-serif" font-size="14" lengthAdjust="spacing" textLength="72.6113" x="152.8521" y="78.5889">Backoffice</text><rect fill="#E2E2F0" height="46.5938" rx="2.5" ry="2.5" style="stroke:#181818;stroke-width:0.5;" width="110.332" x="131.7666" y="367.9531"/><text fill="#000000" font-family="sans-serif" font-size="14" lengthAdjust="spacing" textLength="96.332" x="138.7666" y="387.9482">&#171;component&#187;</text><text fill="#000000" font-family="sans-serif" font-size="14" lengthAdjust="spacing" textLength="72.6113" x="152.8521" y="404.2451">Backoffice</text><rect fill="#E2E2F0" height="46.5938" rx="2.5" ry="2.5" style="stroke:#181818;stroke-width:0.5;" width="110.332" x="368.6279" y="42.2969"/><text fill="#000000" font-family="sans-serif" font-size="14" lengthAdjust="spacing" textLength="96.332" x="375.6279" y="62.292">&#171;component&#187;</text><text fill="#000000" font-family="sans-serif" font-size="14" lengthAdjust="spacing" textLength="60.3066" x="395.8657" y="78.5889">Planning</text><rect fill="#E2E2F0" height="46.5938" rx="2.5" ry="2.5" style="stroke:#181818;stroke-width:0.5;" width="110.332" x="368.6279" y="367.9531"/><text fill="#000000" font-family="sans-serif" font-size="14" lengthAdjust="spacing" textLength="96.332" x="375.6279" y="387.9482">&#171;component&#187;</text><text fill="#000000" font-family="sans-serif" font-size="14" lengthAdjust="spacing" textLength="60.3066" x="395.8657" y="404.2451">Planning</text><rect fill="#FFFFFF" height="29.1328" style="stroke:#181818;stroke-width:1.0;" width="10" x="181.9326" y="121.0234"/><rect fill="#FFFFFF" height="171.6641" style="stroke:#181818;stroke-width:1.0;" width="10" x="181.9326" y="179.2891"/><rect fill="#FFFFFF" height="71.2656" style="stroke:#181818;stroke-width:1.0;" width="10" x="418.7939" y="250.5547"/><ellipse cx="7.5" cy="120.2734" fill="#000000" rx="4" ry="4" style="stroke:#181818;stroke-width:1.5;"/><polygon fill="#181818" points="169.9326,117.0234,179.9326,121.0234,169.9326,125.0234,173.9326,121.0234" style="stroke:#181818;stroke-width:1.0;"/><line style="stroke:#181818;stroke-width:1.0;" x1="12" x2="175.9326" y1="121.0234" y2="121.0234"/><text fill="#000000" font-family="sans-serif" font-size="13" font-weight="bold" lengthAdjust="spacing" textLength="9.0454" x="15" y="115.9575">1</text><text fill="#000000" font-family="sans-serif" font-size="13" lengthAdjust="spacing" textLength="114.1309" x="28.0454" y="115.9575">getActiveRoster()</text><polygon fill="#181818" points="11,146.1563,1,150.1563,11,154.1563,7,150.1563" style="stroke:#181818;stroke-width:1.0;"/><line style="stroke:#181818;stroke-width:1.0;stroke-dasharray:2.0,2.0;" x1="5" x2="185.9326" y1="150.1563" y2="150.1563"/><text fill="#000000" font-family="sans-serif" font-size="13" font-weight="bold" lengthAdjust="spacing" textLength="9.0454" x="17" y="145.0903">2</text><text fill="#000000" font-family="sans-serif" font-size="13" lengthAdjust="spacing" textLength="149.8872" x="30.0454" y="145.0903">shows active roster list</text><ellipse cx="7.5" cy="178.5391" fill="#000000" rx="4" ry="4" style="stroke:#181818;stroke-width:1.5;"/><polygon fill="#181818" points="169.9326,175.2891,179.9326,179.2891,169.9326,183.2891,173.9326,179.2891" style="stroke:#181818;stroke-width:1.0;"/><line style="stroke:#181818;stroke-width:1.0;" x1="12" x2="175.9326" y1="179.2891" y2="179.2891"/><text fill="#000000" font-family="sans-serif" font-size="13" font-weight="bold" lengthAdjust="spacing" textLength="9.0454" x="15" y="174.2231">3</text><text fill="#000000" font-family="sans-serif" font-size="13" lengthAdjust="spacing" textLength="110.4175" x="28.0454" y="174.2231">chooses a profile</text><line style="stroke:#181818;stroke-width:1.0;" x1="191.9326" x2="233.9326" y1="208.4219" y2="208.4219"/><line style="stroke:#181818;stroke-width:1.0;" x1="233.9326" x2="233.9326" y1="208.4219" y2="221.4219"/><line style="stroke:#181818;stroke-width:1.0;" x1="192.9326" x2="233.9326" y1="221.4219" y2="221.4219"/><polygon fill="#181818" points="202.9326,217.4219,192.9326,221.4219,202.9326,225.4219,198.9326,221.4219" style="stroke:#181818;stroke-width:1.0;"/><text fill="#000000" font-family="sans-serif" font-size="13" font-weight="bold" lengthAdjust="spacing" textLength="9.0454" x="198.9326" y="203.356">4</text><text fill="#000000" font-family="sans-serif" font-size="13" lengthAdjust="spacing" textLength="114.3086" x="211.978" y="203.356">deactivate profile</text><polygon fill="#181818" points="406.7939,246.5547,416.7939,250.5547,406.7939,254.5547,410.7939,250.5547" style="stroke:#181818;stroke-width:1.0;"/><line style="stroke:#181818;stroke-width:1.0;" x1="191.9326" x2="412.7939" y1="250.5547" y2="250.5547"/><text fill="#000000" font-family="sans-serif" font-size="13" font-weight="bold" lengthAdjust="spacing" textLength="9.0454" x="198.9326" y="245.4888">5</text><text fill="#000000" font-family="sans-serif" font-size="13" lengthAdjust="spacing" textLength="194.8159" x="211.978" y="245.4888">updateWithNewRoster(roster)</text><line style="stroke:#181818;stroke-width:1.0;" x1="428.7939" x2="470.7939" y1="279.6875" y2="279.6875"/><line style="stroke:#181818;stroke-width:1.0;" x1="470.7939" x2="470.7939" y1="279.6875" y2="292.6875"/><line style="stroke:#181818;stroke-width:1.0;" x1="429.7939" x2="470.7939" y1="292.6875" y2="292.6875"/><polygon fill="#181818" points="439.7939,288.6875,429.7939,292.6875,439.7939,296.6875,435.7939,292.6875" style="stroke:#181818;stroke-width:1.0;"/><text fill="#000000" font-family="sans-serif" font-size="13" font-weight="bold" lengthAdjust="spacing" textLength="9.0454" x="435.7939" y="274.6216">6</text><text fill="#000000" font-family="sans-serif" font-size="13" lengthAdjust="spacing" textLength="122.459" x="448.8394" y="274.6216">updateSchedules()</text><polygon fill="#181818" points="202.9326,317.8203,192.9326,321.8203,202.9326,325.8203,198.9326,321.8203" style="stroke:#181818;stroke-width:1.0;"/><line style="stroke:#181818;stroke-width:1.0;stroke-dasharray:2.0,2.0;" x1="196.9326" x2="422.7939" y1="321.8203" y2="321.8203"/><text fill="#000000" font-family="sans-serif" font-size="13" font-weight="bold" lengthAdjust="spacing" textLength="9.0454" x="208.9326" y="316.7544">7</text><text fill="#000000" font-family="sans-serif" font-size="13" lengthAdjust="spacing" textLength="40.2632" x="221.978" y="316.7544">return</text><polygon fill="#181818" points="11,346.9531,1,350.9531,11,354.9531,7,350.9531" style="stroke:#181818;stroke-width:1.0;"/><line style="stroke:#181818;stroke-width:1.0;stroke-dasharray:2.0,2.0;" x1="5" x2="185.9326" y1="350.9531" y2="350.9531"/><text fill="#000000" font-family="sans-serif" font-size="13" font-weight="bold" lengthAdjust="spacing" textLength="9.0454" x="17" y="345.8872">8</text><text fill="#000000" font-family="sans-serif" font-size="13" lengthAdjust="spacing" textLength="43.7036" x="30.0454" y="345.8872">sucess</text><!--SRC=[VP4nJyCm48Lt_ufJ5jeXYOfWgQf8BIDLLL410op6kIOMZctiS_FtSHsYHXaOhVlUk_VETosHzUkoj8fh2fqgXEbAZpy1jS2ybhnnl6EC92c4xFK4ZyMgM3qKS7H6eFVm9h67nHulgE1-cJ760naTkYzqZ5dkI0ffepTacqtqjaQZfghwrB3ZujkSpr9W1jp3Rllq_B_W63DggPk47_VR0sCV9g-I4jRG86q5oGk-64_e5al6hqzEE7YpJPwFh6zDxo7D4LpYGKbFhCQPQBf1jCPuZ3gmpfobmjc6XDtmYTV8ZyGrVII2hUFqNL9xmFulzf1c4dvecXHpvKcqM0U5FfOTWDjsXnISdXOQZAPN2DSld7V-1G00]--></g></svg>