<svg xmlns="http://www.w3.org/2000/svg" xmlns:xlink="http://www.w3.org/1999/xlink" contentStyleType="text/css" height="1328px" preserveAspectRatio="none" style="width:1679px;height:1328px;background:#FFFFFF;" version="1.1" viewBox="0 0 1679 1328" width="1679px" zoomAndPan="magnify"><title>US 5.1.14. Process View (Level 3)</title><defs/><g><text fill="#000000" font-family="sans-serif" font-size="14" font-weight="bold" lengthAdjust="spacing" textLength="264.4209" x="706.3455" y="27.9951">US 5.1.14. Process View (Level 3)</text><rect fill="#FFFFFF" height="461.8867" style="stroke:#181818;stroke-width:1.0;" width="10" x="94.4819" y="131.5898"/><rect fill="#FFFFFF" height="634.8789" style="stroke:#181818;stroke-width:1.0;" width="10" x="94.4819" y="633.1758"/><rect fill="#FFFFFF" height="393.0547" style="stroke:#181818;stroke-width:1.0;" width="10" x="307.6592" y="171.2891"/><rect fill="#FFFFFF" height="520.7813" style="stroke:#181818;stroke-width:1.0;" width="10" x="307.6592" y="672.875"/><rect fill="#FFFFFF" height="292.6563" style="stroke:#181818;stroke-width:1.0;" width="10" x="580.0518" y="200.4219"/><rect fill="#FFFFFF" height="362.7891" style="stroke:#181818;stroke-width:1.0;" width="10" x="580.0518" y="759.6016"/><rect fill="#FFFFFF" height="29.1328" style="stroke:#181818;stroke-width:1.0;" width="10" x="805.3721" y="229.5547"/><rect fill="#FFFFFF" height="29.1328" style="stroke:#181818;stroke-width:1.0;" width="10" x="805.3721" y="788.7344"/><rect fill="#FFFFFF" height="29.1328" style="stroke:#181818;stroke-width:1.0;" width="10" x="950.6006" y="427.8125"/><rect fill="#FFFFFF" height="29.1328" style="stroke:#181818;stroke-width:1.0;" width="10" x="1075.3896" y="369.5469"/><rect fill="#FFFFFF" height="30" style="stroke:#181818;stroke-width:1.0;" width="10" x="1075.3896" y="847"/><rect fill="#FFFFFF" height="144.9922" style="stroke:#181818;stroke-width:1.0;" width="10" x="1396.1597" y="906.1328"/><rect fill="#FFFFFF" height="29.1328" style="stroke:#181818;stroke-width:1.0;" width="10" x="1608.7246" y="992.8594"/><rect fill="none" height="133.6641" style="stroke:#000000;stroke-width:1.5;" width="609.5679" x="523.5498" y="331.2813"/><line style="stroke:#181818;stroke-width:0.5;stroke-dasharray:5.0,5.0;" x1="99.2163" x2="99.2163" y1="89.8906" y2="1277.0547"/><line style="stroke:#181818;stroke-width:0.5;stroke-dasharray:5.0,5.0;" x1="312.4414" x2="312.4414" y1="89.8906" y2="1277.0547"/><line style="stroke:#181818;stroke-width:0.5;stroke-dasharray:5.0,5.0;" x1="584.5498" x2="584.5498" y1="89.8906" y2="1277.0547"/><line style="stroke:#181818;stroke-width:0.5;stroke-dasharray:5.0,5.0;" x1="810.2046" x2="810.2046" y1="89.8906" y2="1277.0547"/><line style="stroke:#181818;stroke-width:0.5;stroke-dasharray:5.0,5.0;" x1="955.5396" x2="955.5396" y1="305.4844" y2="1277.0547"/><line style="stroke:#181818;stroke-width:0.5;stroke-dasharray:5.0,5.0;" x1="1079.6616" x2="1079.6616" y1="89.8906" y2="1277.0547"/><line style="stroke:#181818;stroke-width:0.5;stroke-dasharray:5.0,5.0;" x1="1176.1177" x2="1176.1177" y1="719.6719" y2="1277.0547"/><line style="stroke:#181818;stroke-width:0.5;stroke-dasharray:5.0,5.0;" x1="1287.0278" x2="1287.0278" y1="89.8906" y2="1277.0547"/><line style="stroke:#181818;stroke-width:0.5;stroke-dasharray:5.0,5.0;" x1="1400.438" x2="1400.438" y1="89.8906" y2="1277.0547"/><line style="stroke:#181818;stroke-width:0.5;stroke-dasharray:5.0,5.0;" x1="1500.8813" x2="1500.8813" y1="952.9297" y2="1277.0547"/><line style="stroke:#181818;stroke-width:0.5;stroke-dasharray:5.0,5.0;" x1="1613.3374" x2="1613.3374" y1="89.8906" y2="1277.0547"/><rect fill="#E2E2F0" height="46.5938" rx="2.5" ry="2.5" style="stroke:#181818;stroke-width:0.5;" width="92.5313" x="53.2163" y="42.2969"/><text fill="#000000" font-family="sans-serif" font-size="14" lengthAdjust="spacing" textLength="58.3994" x="70.2822" y="62.292">&#171;Route&#187;</text><text fill="#000000" font-family="sans-serif" font-size="14" lengthAdjust="spacing" textLength="74.0811" x="64.6665" y="78.5889">StaffRoute</text><rect fill="#E2E2F0" height="46.5938" rx="2.5" ry="2.5" style="stroke:#181818;stroke-width:0.5;" width="92.5313" x="53.2163" y="1276.0547"/><text fill="#000000" font-family="sans-serif" font-size="14" lengthAdjust="spacing" textLength="58.3994" x="70.2822" y="1296.0498">&#171;Route&#187;</text><text fill="#000000" font-family="sans-serif" font-size="14" lengthAdjust="spacing" textLength="74.0811" x="64.6665" y="1312.3467">StaffRoute</text><rect fill="#E2E2F0" height="46.5938" rx="2.5" ry="2.5" style="stroke:#181818;stroke-width:0.5;" width="120.4355" x="252.4414" y="42.2969"/><text fill="#000000" font-family="sans-serif" font-size="14" lengthAdjust="spacing" textLength="86.3037" x="269.5073" y="62.292">&#171;Controller&#187;</text><text fill="#000000" font-family="sans-serif" font-size="14" lengthAdjust="spacing" textLength="101.9854" x="263.8916" y="78.5889">StaffController</text><rect fill="#E2E2F0" height="46.5938" rx="2.5" ry="2.5" style="stroke:#181818;stroke-width:0.5;" width="120.4355" x="252.4414" y="1276.0547"/><text fill="#000000" font-family="sans-serif" font-size="14" lengthAdjust="spacing" textLength="86.3037" x="269.5073" y="1296.0498">&#171;Controller&#187;</text><text fill="#000000" font-family="sans-serif" font-size="14" lengthAdjust="spacing" textLength="101.9854" x="263.8916" y="1312.3467">StaffController</text><rect fill="#E2E2F0" height="46.5938" rx="2.5" ry="2.5" style="stroke:#181818;stroke-width:0.5;" width="103.0039" x="533.5498" y="42.2969"/><text fill="#000000" font-family="sans-serif" font-size="14" lengthAdjust="spacing" textLength="68.8721" x="550.6157" y="62.292">&#171;Service&#187;</text><text fill="#000000" font-family="sans-serif" font-size="14" lengthAdjust="spacing" textLength="84.5537" x="545" y="78.5889">StaffService</text><rect fill="#E2E2F0" height="46.5938" rx="2.5" ry="2.5" style="stroke:#181818;stroke-width:0.5;" width="103.0039" x="533.5498" y="1276.0547"/><text fill="#000000" font-family="sans-serif" font-size="14" lengthAdjust="spacing" textLength="68.8721" x="550.6157" y="1296.0498">&#171;Service&#187;</text><text fill="#000000" font-family="sans-serif" font-size="14" lengthAdjust="spacing" textLength="84.5537" x="545" y="1312.3467">StaffService</text><rect fill="#E2E2F0" height="46.5938" rx="2.5" ry="2.5" style="stroke:#181818;stroke-width:0.5;" width="126.335" x="747.2046" y="42.2969"/><text fill="#000000" font-family="sans-serif" font-size="14" lengthAdjust="spacing" textLength="92.2031" x="764.2705" y="62.292">&#171;Repository&#187;</text><text fill="#000000" font-family="sans-serif" font-size="14" lengthAdjust="spacing" textLength="107.8848" x="758.6548" y="78.5889">StaffRepository</text><rect fill="#E2E2F0" height="46.5938" rx="2.5" ry="2.5" style="stroke:#181818;stroke-width:0.5;" width="126.335" x="747.2046" y="1276.0547"/><text fill="#000000" font-family="sans-serif" font-size="14" lengthAdjust="spacing" textLength="92.2031" x="764.2705" y="1296.0498">&#171;Repository&#187;</text><text fill="#000000" font-family="sans-serif" font-size="14" lengthAdjust="spacing" textLength="107.8848" x="758.6548" y="1312.3467">StaffRepository</text><rect fill="#E2E2F0" height="46.5938" rx="2.5" ry="2.5" style="stroke:#181818;stroke-width:0.5;" width="144.1221" x="883.5396" y="1276.0547"/><text fill="#000000" font-family="sans-serif" font-size="14" lengthAdjust="spacing" textLength="47.4824" x="931.8594" y="1296.0498">&#171;DTO&#187;</text><text fill="#000000" font-family="sans-serif" font-size="14" lengthAdjust="spacing" textLength="125.6719" x="894.9897" y="1312.3467">ActiveStaffListDto</text><rect fill="#E2E2F0" height="46.5938" rx="2.5" ry="2.5" style="stroke:#181818;stroke-width:0.5;" width="85.4561" x="1037.6616" y="42.2969"/><text fill="#000000" font-family="sans-serif" font-size="14" lengthAdjust="spacing" textLength="71.4561" x="1044.6616" y="62.292">&#171;Domain&#187;</text><text fill="#000000" font-family="sans-serif" font-size="14" lengthAdjust="spacing" textLength="32.8125" x="1066.2085" y="78.5889">Staff</text><rect fill="#E2E2F0" height="46.5938" rx="2.5" ry="2.5" style="stroke:#181818;stroke-width:0.5;" width="85.4561" x="1037.6616" y="1276.0547"/><text fill="#000000" font-family="sans-serif" font-size="14" lengthAdjust="spacing" textLength="71.4561" x="1044.6616" y="1296.0498">&#171;Domain&#187;</text><text fill="#000000" font-family="sans-serif" font-size="14" lengthAdjust="spacing" textLength="32.8125" x="1066.2085" y="1312.3467">Staff</text><rect fill="#E2E2F0" height="46.5938" rx="2.5" ry="2.5" style="stroke:#181818;stroke-width:0.5;" width="87.9102" x="1133.1177" y="1276.0547"/><text fill="#000000" font-family="sans-serif" font-size="14" lengthAdjust="spacing" textLength="47.4824" x="1153.3315" y="1296.0498">&#171;DTO&#187;</text><text fill="#000000" font-family="sans-serif" font-size="14" lengthAdjust="spacing" textLength="69.46" x="1144.5679" y="1312.3467">IdPassDto</text><rect fill="#E2E2F0" height="46.5938" rx="2.5" ry="2.5" style="stroke:#181818;stroke-width:0.5;" width="112.4102" x="1231.0278" y="42.2969"/><text fill="#000000" font-family="sans-serif" font-size="14" lengthAdjust="spacing" textLength="98.4102" x="1238.0278" y="62.292">&#171;Component&#187;</text><text fill="#000000" font-family="sans-serif" font-size="14" lengthAdjust="spacing" textLength="60.3066" x="1259.3047" y="78.5889">Planning</text><rect fill="#E2E2F0" height="46.5938" rx="2.5" ry="2.5" style="stroke:#181818;stroke-width:0.5;" width="112.4102" x="1231.0278" y="1276.0547"/><text fill="#000000" font-family="sans-serif" font-size="14" lengthAdjust="spacing" textLength="98.4102" x="1238.0278" y="1296.0498">&#171;Component&#187;</text><text fill="#000000" font-family="sans-serif" font-size="14" lengthAdjust="spacing" textLength="60.3066" x="1259.3047" y="1312.3467">Planning</text><rect fill="#E2E2F0" height="46.5938" rx="2.5" ry="2.5" style="stroke:#181818;stroke-width:0.5;" width="95.4434" x="1353.438" y="42.2969"/><text fill="#000000" font-family="sans-serif" font-size="14" lengthAdjust="spacing" textLength="68.8721" x="1366.7236" y="62.292">&#171;Service&#187;</text><text fill="#000000" font-family="sans-serif" font-size="14" lengthAdjust="spacing" textLength="76.9932" x="1364.8882" y="78.5889">LogService</text><rect fill="#E2E2F0" height="46.5938" rx="2.5" ry="2.5" style="stroke:#181818;stroke-width:0.5;" width="95.4434" x="1353.438" y="1276.0547"/><text fill="#000000" font-family="sans-serif" font-size="14" lengthAdjust="spacing" textLength="68.8721" x="1366.7236" y="1296.0498">&#171;Service&#187;</text><text fill="#000000" font-family="sans-serif" font-size="14" lengthAdjust="spacing" textLength="76.9932" x="1364.8882" y="1312.3467">LogService</text><rect fill="#E2E2F0" height="46.5938" rx="2.5" ry="2.5" style="stroke:#181818;stroke-width:0.5;" width="85.4561" x="1458.8813" y="1276.0547"/><text fill="#000000" font-family="sans-serif" font-size="14" lengthAdjust="spacing" textLength="71.4561" x="1465.8813" y="1296.0498">&#171;Domain&#187;</text><text fill="#000000" font-family="sans-serif" font-size="14" lengthAdjust="spacing" textLength="25.252" x="1491.2085" y="1312.3467">Log</text><rect fill="#E2E2F0" height="46.5938" rx="2.5" ry="2.5" style="stroke:#181818;stroke-width:0.5;" width="118.7744" x="1554.3374" y="42.2969"/><text fill="#000000" font-family="sans-serif" font-size="14" lengthAdjust="spacing" textLength="92.2031" x="1567.623" y="62.292">&#171;Repository&#187;</text><text fill="#000000" font-family="sans-serif" font-size="14" lengthAdjust="spacing" textLength="100.3242" x="1565.7876" y="78.5889">LogRepository</text><rect fill="#E2E2F0" height="46.5938" rx="2.5" ry="2.5" style="stroke:#181818;stroke-width:0.5;" width="118.7744" x="1554.3374" y="1276.0547"/><text fill="#000000" font-family="sans-serif" font-size="14" lengthAdjust="spacing" textLength="92.2031" x="1567.623" y="1296.0498">&#171;Repository&#187;</text><text fill="#000000" font-family="sans-serif" font-size="14" lengthAdjust="spacing" textLength="100.3242" x="1565.7876" y="1312.3467">LogRepository</text><rect fill="#FFFFFF" height="461.8867" style="stroke:#181818;stroke-width:1.0;" width="10" x="94.4819" y="131.5898"/><rect fill="#FFFFFF" height="634.8789" style="stroke:#181818;stroke-width:1.0;" width="10" x="94.4819" y="633.1758"/><rect fill="#FFFFFF" height="393.0547" style="stroke:#181818;stroke-width:1.0;" width="10" x="307.6592" y="171.2891"/><rect fill="#FFFFFF" height="520.7813" style="stroke:#181818;stroke-width:1.0;" width="10" x="307.6592" y="672.875"/><rect fill="#FFFFFF" height="292.6563" style="stroke:#181818;stroke-width:1.0;" width="10" x="580.0518" y="200.4219"/><rect fill="#FFFFFF" height="362.7891" style="stroke:#181818;stroke-width:1.0;" width="10" x="580.0518" y="759.6016"/><rect fill="#FFFFFF" height="29.1328" style="stroke:#181818;stroke-width:1.0;" width="10" x="805.3721" y="229.5547"/><rect fill="#FFFFFF" height="29.1328" style="stroke:#181818;stroke-width:1.0;" width="10" x="805.3721" y="788.7344"/><rect fill="#FFFFFF" height="29.1328" style="stroke:#181818;stroke-width:1.0;" width="10" x="950.6006" y="427.8125"/><rect fill="#FFFFFF" height="29.1328" style="stroke:#181818;stroke-width:1.0;" width="10" x="1075.3896" y="369.5469"/><rect fill="#FFFFFF" height="30" style="stroke:#181818;stroke-width:1.0;" width="10" x="1075.3896" y="847"/><rect fill="#FFFFFF" height="144.9922" style="stroke:#181818;stroke-width:1.0;" width="10" x="1396.1597" y="906.1328"/><rect fill="#FFFFFF" height="29.1328" style="stroke:#181818;stroke-width:1.0;" width="10" x="1608.7246" y="992.8594"/><ellipse cx="7.5" cy="130.8398" fill="#000000" rx="4" ry="4" style="stroke:#181818;stroke-width:1.5;"/><polygon fill="#181818" points="82.4819,127.5898,92.4819,131.5898,82.4819,135.5898,86.4819,131.5898" style="stroke:#181818;stroke-width:1.0;"/><line style="stroke:#181818;stroke-width:1.0;" x1="12" x2="88.4819" y1="131.5898" y2="131.5898"/><text fill="#000000" font-family="sans-serif" font-size="13" lengthAdjust="spacing" textLength="36.3721" x="15" y="126.5239">GET()</text><path d="M109,104.8906 L109,144.8906 L218,144.8906 L218,114.8906 L208,104.8906 L109,104.8906 " fill="#FEFFDD" style="stroke:#181818;stroke-width:0.5;"/><path d="M208,104.8906 L208,114.8906 L218,114.8906 L208,104.8906 " fill="#FEFFDD" style="stroke:#181818;stroke-width:0.5;"/><text fill="#000000" font-family="sans-serif" font-size="13" lengthAdjust="spacing" textLength="72.0142" x="115" y="121.9575">getting the</text><text fill="#000000" font-family="sans-serif" font-size="13" lengthAdjust="spacing" textLength="88.0103" x="115" y="137.0903">list of profiles</text><polygon fill="#181818" points="295.6592,167.2891,305.6592,171.2891,295.6592,175.2891,299.6592,171.2891" style="stroke:#181818;stroke-width:1.0;"/><line style="stroke:#181818;stroke-width:1.0;" x1="104.4819" x2="301.6592" y1="171.2891" y2="171.2891"/><text fill="#000000" font-family="sans-serif" font-size="13" lengthAdjust="spacing" textLength="151.9312" x="111.4819" y="166.2231">GetActiveStaffProfiles()</text><polygon fill="#181818" points="568.0518,196.4219,578.0518,200.4219,568.0518,204.4219,572.0518,200.4219" style="stroke:#181818;stroke-width:1.0;"/><line style="stroke:#181818;stroke-width:1.0;" x1="317.6592" x2="574.0518" y1="200.4219" y2="200.4219"/><text fill="#000000" font-family="sans-serif" font-size="13" lengthAdjust="spacing" textLength="80.7612" x="324.6592" y="195.356">GetAllSync()</text><polygon fill="#181818" points="793.3721,225.5547,803.3721,229.5547,793.3721,233.5547,797.3721,229.5547" style="stroke:#181818;stroke-width:1.0;"/><line style="stroke:#181818;stroke-width:1.0;" x1="590.0518" x2="799.3721" y1="229.5547" y2="229.5547"/><text fill="#000000" font-family="sans-serif" font-size="13" lengthAdjust="spacing" textLength="80.7612" x="597.0518" y="224.4888">GetAllSync()</text><polygon fill="#181818" points="601.0518,254.6875,591.0518,258.6875,601.0518,262.6875,597.0518,258.6875" style="stroke:#181818;stroke-width:1.0;"/><line style="stroke:#181818;stroke-width:1.0;stroke-dasharray:2.0,2.0;" x1="595.0518" x2="809.3721" y1="258.6875" y2="258.6875"/><text fill="#000000" font-family="sans-serif" font-size="13" lengthAdjust="spacing" textLength="138.3662" x="607.0518" y="253.6216">var list = List&lt;Staff&gt;</text><polygon fill="#181818" points="871.5396,268.6875,881.5396,272.6875,871.5396,276.6875,875.5396,272.6875" style="stroke:#181818;stroke-width:1.0;"/><line style="stroke:#181818;stroke-width:1.0;" x1="590.0518" x2="877.5396" y1="272.6875" y2="272.6875"/><rect fill="#E2E2F0" height="46.5938" rx="2.5" ry="2.5" style="stroke:#181818;stroke-width:0.5;" width="144.1221" x="883.5396" y="266.6875"/><text fill="#000000" font-family="sans-serif" font-size="14" lengthAdjust="spacing" textLength="47.4824" x="931.8594" y="286.6826">&#171;DTO&#187;</text><text fill="#000000" font-family="sans-serif" font-size="14" lengthAdjust="spacing" textLength="125.6719" x="894.9897" y="302.9795">ActiveStaffListDto</text><path d="M523.5498,331.2813 L600.1738,331.2813 L600.1738,338.4141 L590.1738,348.4141 L523.5498,348.4141 L523.5498,331.2813 " fill="#EEEEEE" style="stroke:#000000;stroke-width:1.5;"/><rect fill="none" height="133.6641" style="stroke:#000000;stroke-width:1.5;" width="609.5679" x="523.5498" y="331.2813"/><text fill="#000000" font-family="sans-serif" font-size="13" font-weight="bold" lengthAdjust="spacing" textLength="31.624" x="538.5498" y="344.3481">loop</text><text fill="#000000" font-family="sans-serif" font-size="11" font-weight="bold" lengthAdjust="spacing" textLength="210.9336" x="615.1738" y="343.4917">[for every profile in listOfProfiles]</text><polygon fill="#181818" points="1063.3896,365.5469,1073.3896,369.5469,1063.3896,373.5469,1067.3896,369.5469" style="stroke:#181818;stroke-width:1.0;"/><line style="stroke:#181818;stroke-width:1.0;" x1="590.0518" x2="1069.3896" y1="369.5469" y2="369.5469"/><text fill="#000000" font-family="sans-serif" font-size="13" lengthAdjust="spacing" textLength="51.3779" x="597.0518" y="364.481">toDTO()</text><polygon fill="#181818" points="601.0518,394.6797,591.0518,398.6797,601.0518,402.6797,597.0518,398.6797" style="stroke:#181818;stroke-width:1.0;"/><line style="stroke:#181818;stroke-width:1.0;stroke-dasharray:2.0,2.0;" x1="595.0518" x2="1079.3896" y1="398.6797" y2="398.6797"/><text fill="#000000" font-family="sans-serif" font-size="13" lengthAdjust="spacing" textLength="69.5322" x="607.0518" y="393.6138">profileDTO</text><polygon fill="#181818" points="938.6006,423.8125,948.6006,427.8125,938.6006,431.8125,942.6006,427.8125" style="stroke:#181818;stroke-width:1.0;"/><line style="stroke:#181818;stroke-width:1.0;" x1="590.0518" x2="944.6006" y1="427.8125" y2="427.8125"/><text fill="#000000" font-family="sans-serif" font-size="13" lengthAdjust="spacing" textLength="124.1665" x="597.0518" y="422.7466">listAdd(profileDTO)</text><polygon fill="#181818" points="601.0518,452.9453,591.0518,456.9453,601.0518,460.9453,597.0518,456.9453" style="stroke:#181818;stroke-width:1.0;"/><line style="stroke:#181818;stroke-width:1.0;stroke-dasharray:2.0,2.0;" x1="595.0518" x2="954.6006" y1="456.9453" y2="456.9453"/><text fill="#000000" font-family="sans-serif" font-size="13" lengthAdjust="spacing" textLength="40.2632" x="607.0518" y="451.8794">return</text><polygon fill="#181818" points="328.6592,489.0781,318.6592,493.0781,328.6592,497.0781,324.6592,493.0781" style="stroke:#181818;stroke-width:1.0;"/><line style="stroke:#181818;stroke-width:1.0;stroke-dasharray:2.0,2.0;" x1="322.6592" x2="584.0518" y1="493.0781" y2="493.0781"/><text fill="#000000" font-family="sans-serif" font-size="13" lengthAdjust="spacing" textLength="115.7686" x="334.6592" y="488.0122">activeStaffListDto</text><line style="stroke:#181818;stroke-width:1.0;" x1="317.6592" x2="359.6592" y1="522.2109" y2="522.2109"/><line style="stroke:#181818;stroke-width:1.0;" x1="359.6592" x2="359.6592" y1="522.2109" y2="535.2109"/><line style="stroke:#181818;stroke-width:1.0;" x1="318.6592" x2="359.6592" y1="535.2109" y2="535.2109"/><polygon fill="#181818" points="328.6592,531.2109,318.6592,535.2109,328.6592,539.2109,324.6592,535.2109" style="stroke:#181818;stroke-width:1.0;"/><text fill="#000000" font-family="sans-serif" font-size="13" lengthAdjust="spacing" textLength="143.6729" x="324.6592" y="517.145">Ok(activeStaffListDto)</text><polygon fill="#181818" points="115.4819,560.3438,105.4819,564.3438,115.4819,568.3438,111.4819,564.3438" style="stroke:#181818;stroke-width:1.0;"/><line style="stroke:#181818;stroke-width:1.0;stroke-dasharray:2.0,2.0;" x1="109.4819" x2="311.6592" y1="564.3438" y2="564.3438"/><text fill="#000000" font-family="sans-serif" font-size="13" lengthAdjust="spacing" textLength="26.5776" x="121.4819" y="559.2778">json</text><polygon fill="#181818" points="11,589.4766,1,593.4766,11,597.4766,7,593.4766" style="stroke:#181818;stroke-width:1.0;"/><line style="stroke:#181818;stroke-width:1.0;stroke-dasharray:2.0,2.0;" x1="5" x2="98.4819" y1="593.4766" y2="593.4766"/><text fill="#000000" font-family="sans-serif" font-size="13" lengthAdjust="spacing" textLength="26.5776" x="17" y="588.4106">json</text><ellipse cx="7.5" cy="632.4258" fill="#000000" rx="4" ry="4" style="stroke:#181818;stroke-width:1.5;"/><polygon fill="#181818" points="82.4819,629.1758,92.4819,633.1758,82.4819,637.1758,86.4819,633.1758" style="stroke:#181818;stroke-width:1.0;"/><line style="stroke:#181818;stroke-width:1.0;" x1="12" x2="88.4819" y1="633.1758" y2="633.1758"/><text fill="#000000" font-family="sans-serif" font-size="13" lengthAdjust="spacing" textLength="67.4819" x="15" y="628.1099">PUT(JSON)</text><path d="M109,606.4766 L109,646.4766 L223,646.4766 L223,616.4766 L213,606.4766 L109,606.4766 " fill="#FEFFDD" style="stroke:#181818;stroke-width:0.5;"/><path d="M213,606.4766 L213,616.4766 L223,616.4766 L213,606.4766 " fill="#FEFFDD" style="stroke:#181818;stroke-width:0.5;"/><text fill="#000000" font-family="sans-serif" font-size="13" lengthAdjust="spacing" textLength="93.2852" x="115" y="623.5435">after choosing</text><text fill="#000000" font-family="sans-serif" font-size="13" lengthAdjust="spacing" textLength="53.4473" x="119.1323" y="638.6763">a profile</text><polygon fill="#181818" points="295.6592,668.875,305.6592,672.875,295.6592,676.875,299.6592,672.875" style="stroke:#181818;stroke-width:1.0;"/><line style="stroke:#181818;stroke-width:1.0;" x1="104.4819" x2="301.6592" y1="672.875" y2="672.875"/><text fill="#000000" font-family="sans-serif" font-size="13" lengthAdjust="spacing" textLength="184.1772" x="111.4819" y="667.8091">DeactivateStaffProfile(JSON)</text><polygon fill="#181818" points="1121.1177,698.0078,1131.1177,702.0078,1121.1177,706.0078,1125.1177,702.0078" style="stroke:#181818;stroke-width:1.0;"/><line style="stroke:#181818;stroke-width:1.0;" x1="317.6592" x2="1127.1177" y1="702.0078" y2="702.0078"/><text fill="#000000" font-family="sans-serif" font-size="13" lengthAdjust="spacing" textLength="83.4209" x="324.6592" y="696.9419">toDTO(JSON)</text><rect fill="#E2E2F0" height="46.5938" rx="2.5" ry="2.5" style="stroke:#181818;stroke-width:0.5;" width="87.9102" x="1133.1177" y="680.875"/><text fill="#000000" font-family="sans-serif" font-size="14" lengthAdjust="spacing" textLength="47.4824" x="1153.3315" y="700.8701">&#171;DTO&#187;</text><text fill="#000000" font-family="sans-serif" font-size="14" lengthAdjust="spacing" textLength="69.46" x="1144.5679" y="717.167">IdPassDto</text><polygon fill="#181818" points="568.0518,755.6016,578.0518,759.6016,568.0518,763.6016,572.0518,759.6016" style="stroke:#181818;stroke-width:1.0;"/><line style="stroke:#181818;stroke-width:1.0;" x1="317.6592" x2="574.0518" y1="759.6016" y2="759.6016"/><text fill="#000000" font-family="sans-serif" font-size="13" lengthAdjust="spacing" textLength="232.6289" x="324.6592" y="754.5356">DeactivateStaffProfile(idPassDto.Id)</text><polygon fill="#181818" points="793.3721,784.7344,803.3721,788.7344,793.3721,792.7344,797.3721,788.7344" style="stroke:#181818;stroke-width:1.0;"/><line style="stroke:#181818;stroke-width:1.0;" x1="590.0518" x2="799.3721" y1="788.7344" y2="788.7344"/><text fill="#000000" font-family="sans-serif" font-size="13" lengthAdjust="spacing" textLength="196.3203" x="597.0518" y="783.6685">GetByIdAsync(new StaffId(id))</text><polygon fill="#181818" points="601.0518,813.8672,591.0518,817.8672,601.0518,821.8672,597.0518,817.8672" style="stroke:#181818;stroke-width:1.0;"/><line style="stroke:#181818;stroke-width:1.0;stroke-dasharray:2.0,2.0;" x1="595.0518" x2="809.3721" y1="817.8672" y2="817.8672"/><text fill="#000000" font-family="sans-serif" font-size="13" lengthAdjust="spacing" textLength="69.9258" x="607.0518" y="812.8013">staffProfile</text><polygon fill="#181818" points="1063.3896,843,1073.3896,847,1063.3896,851,1067.3896,847" style="stroke:#181818;stroke-width:1.0;"/><line style="stroke:#181818;stroke-width:1.0;" x1="590.0518" x2="1069.3896" y1="847" y2="847"/><text fill="#000000" font-family="sans-serif" font-size="13" lengthAdjust="spacing" textLength="121.6655" x="597.0518" y="841.9341">DeactivateProfile()</text><polygon fill="#181818" points="1384.1597,902.1328,1394.1597,906.1328,1384.1597,910.1328,1388.1597,906.1328" style="stroke:#181818;stroke-width:1.0;"/><line style="stroke:#181818;stroke-width:1.0;" x1="590.0518" x2="1390.1597" y1="906.1328" y2="906.1328"/><text fill="#000000" font-family="sans-serif" font-size="13" lengthAdjust="spacing" textLength="502.0234" x="597.0518" y="901.0669">CreateEditLog(id, staff.GetType().ToString(), "Deactivation of staff's profile.")</text><polygon fill="#181818" points="1446.8813,916.1328,1456.8813,920.1328,1446.8813,924.1328,1450.8813,920.1328" style="stroke:#181818;stroke-width:1.0;"/><line style="stroke:#181818;stroke-width:1.0;" x1="1406.1597" x2="1452.8813" y1="920.1328" y2="920.1328"/><rect fill="#E2E2F0" height="46.5938" rx="2.5" ry="2.5" style="stroke:#181818;stroke-width:0.5;" width="85.4561" x="1458.8813" y="914.1328"/><text fill="#000000" font-family="sans-serif" font-size="14" lengthAdjust="spacing" textLength="71.4561" x="1465.8813" y="934.1279">&#171;Domain&#187;</text><text fill="#000000" font-family="sans-serif" font-size="14" lengthAdjust="spacing" textLength="25.252" x="1491.2085" y="950.4248">Log</text><polygon fill="#181818" points="1596.7246,988.8594,1606.7246,992.8594,1596.7246,996.8594,1600.7246,992.8594" style="stroke:#181818;stroke-width:1.0;"/><line style="stroke:#181818;stroke-width:1.0;" x1="1406.1597" x2="1602.7246" y1="992.8594" y2="992.8594"/><text fill="#000000" font-family="sans-serif" font-size="13" lengthAdjust="spacing" textLength="94.104" x="1413.1597" y="987.7935">AddAsync(log)</text><polygon fill="#181818" points="1417.1597,1017.9922,1407.1597,1021.9922,1417.1597,1025.9922,1413.1597,1021.9922" style="stroke:#181818;stroke-width:1.0;"/><line style="stroke:#181818;stroke-width:1.0;stroke-dasharray:2.0,2.0;" x1="1411.1597" x2="1612.7246" y1="1021.9922" y2="1021.9922"/><text fill="#000000" font-family="sans-serif" font-size="13" lengthAdjust="spacing" textLength="26.6792" x="1423.1597" y="1016.9263">true</text><polygon fill="#181818" points="601.0518,1047.125,591.0518,1051.125,601.0518,1055.125,597.0518,1051.125" style="stroke:#181818;stroke-width:1.0;"/><line style="stroke:#181818;stroke-width:1.0;stroke-dasharray:2.0,2.0;" x1="595.0518" x2="1400.1597" y1="1051.125" y2="1051.125"/><text fill="#000000" font-family="sans-serif" font-size="13" lengthAdjust="spacing" textLength="26.6792" x="607.0518" y="1046.0591">true</text><line style="stroke:#181818;stroke-width:1.0;" x1="590.0518" x2="632.0518" y1="1080.2578" y2="1080.2578"/><line style="stroke:#181818;stroke-width:1.0;" x1="632.0518" x2="632.0518" y1="1080.2578" y2="1093.2578"/><line style="stroke:#181818;stroke-width:1.0;" x1="591.0518" x2="632.0518" y1="1093.2578" y2="1093.2578"/><polygon fill="#181818" points="601.0518,1089.2578,591.0518,1093.2578,601.0518,1097.2578,597.0518,1093.2578" style="stroke:#181818;stroke-width:1.0;"/><text fill="#000000" font-family="sans-serif" font-size="13" lengthAdjust="spacing" textLength="99.9565" x="597.0518" y="1075.1919">CommitAsync()</text><polygon fill="#181818" points="328.6592,1118.3906,318.6592,1122.3906,328.6592,1126.3906,324.6592,1122.3906" style="stroke:#181818;stroke-width:1.0;"/><line style="stroke:#181818;stroke-width:1.0;stroke-dasharray:2.0,2.0;" x1="322.6592" x2="584.0518" y1="1122.3906" y2="1122.3906"/><text fill="#000000" font-family="sans-serif" font-size="13" lengthAdjust="spacing" textLength="40.2632" x="334.6592" y="1117.3247">return</text><line style="stroke:#181818;stroke-width:1.0;" x1="317.6592" x2="359.6592" y1="1151.5234" y2="1151.5234"/><line style="stroke:#181818;stroke-width:1.0;" x1="359.6592" x2="359.6592" y1="1151.5234" y2="1164.5234"/><line style="stroke:#181818;stroke-width:1.0;" x1="318.6592" x2="359.6592" y1="1164.5234" y2="1164.5234"/><polygon fill="#181818" points="328.6592,1160.5234,318.6592,1164.5234,328.6592,1168.5234,324.6592,1164.5234" style="stroke:#181818;stroke-width:1.0;"/><text fill="#000000" font-family="sans-serif" font-size="13" lengthAdjust="spacing" textLength="238.3926" x="324.6592" y="1146.4575">Ok("Staff deactivated successfully.")</text><polygon fill="#181818" points="115.4819,1189.6563,105.4819,1193.6563,115.4819,1197.6563,111.4819,1193.6563" style="stroke:#181818;stroke-width:1.0;"/><line style="stroke:#181818;stroke-width:1.0;stroke-dasharray:2.0,2.0;" x1="109.4819" x2="311.6592" y1="1193.6563" y2="1193.6563"/><text fill="#000000" font-family="sans-serif" font-size="13" lengthAdjust="spacing" textLength="32.043" x="121.4819" y="1188.5903">JSON</text><polygon fill="#181818" points="11,1236.9219,1,1240.9219,11,1244.9219,7,1240.9219" style="stroke:#181818;stroke-width:1.0;"/><line style="stroke:#181818;stroke-width:1.0;stroke-dasharray:2.0,2.0;" x1="5" x2="93.4819" y1="1240.9219" y2="1240.9219"/><text fill="#000000" font-family="sans-serif" font-size="13" lengthAdjust="spacing" textLength="32.043" x="17" y="1235.856">JSON</text><path d="M109,1206.6563 L109,1261.6563 L282,1261.6563 L282,1216.6563 L272,1206.6563 L109,1206.6563 " fill="#FEFFDD" style="stroke:#181818;stroke-width:0.5;"/><path d="M272,1206.6563 L272,1216.6563 L282,1216.6563 L272,1206.6563 " fill="#FEFFDD" style="stroke:#181818;stroke-width:0.5;"/><text fill="#000000" font-family="sans-serif" font-size="13" lengthAdjust="spacing" textLength="137.1602" x="115" y="1223.7231">The Planning module</text><text fill="#000000" font-family="sans-serif" font-size="13" lengthAdjust="spacing" textLength="148.478" x="119.1323" y="1238.856">update will be handled</text><text fill="#000000" font-family="sans-serif" font-size="13" lengthAdjust="spacing" textLength="111.9282" x="119.1323" y="1253.9888">in the next sprint</text><!--SRC=[ZLPTRzem57tthxZYPL0Lf6hRoyIG6D2A2JM8f7rPNp9Ym9kn8yUquz_lseaJvwlR6vXxphc-FiT6Cyqf39v2-3ovcznzci1MoJtDCdXcz0s66_fAENmS3GX9OwNPdgMnq32OJdVoekbizY8WrF7XOByE8CvW5pn5gsRrGWgj9ETKLP1gpU8MmMEq2pPDP4ZLAzjxIiM2nOJH_Fu-NEsUMztHL6PCItNrMYpNAknkjGsQs6KKMD1yhzahjT0Do_HIIukRBwBryygYD-immkeMWJp7J5J2bLoVr3hPnbdc56nf1-z2dbCfgD0Mi-Mn44mSBMIxcJ- -DxcDFFfpsmGFvkixZIF0LVvZjbZPc2nYp0eXF-Hubli1li33AXgEY92QWcB7ayQb8zKQTm3wHE55S1moo0EaIXuOfnaXzWHY1EIU8ZaLSXPUCQnKU-UqBQ0eL86TiOX38K5fd8A2y_0gzWWhKPMrI5NiaCOs3IGqeDPPfAeUDrHVOmLsnr_1k6jg-v-H9OtxQ5m7RGFUt132fKpX81LWOjNL3H6Oi2f1EPgEtM0tMY8DRhykdjUsMY-uZKCJseNexnJHffrvaWmh5a-s8rmT9Cs65DKN9VncEdYeI6g3hDaeRcMzTHAv5pmFLUZWzx1DCFAAlHZyogJmkPqxf-DnlSRRJM7_MfosJz7mUnWyDY8L7pHLi3z93AGuOZnZTrpv8ES8xazJrPSVfqAdnFS6obgnT5EEwajTZnHpD-5adNYI_vd6RzTrCizC7WM-NfPudI3dg4bbOzKVpinhYInN7TZk65MRSljf2hVO6ap5pOnS2qMHPvKmZJSixk4sxsg2suokAJ9F8XbgXQSy7Dt2e9HcKfXRr1P_oDpfJmPUofm8SHzoORn6wWlc5iTECAtvKBayrbdiDUyAnxNsjRfGtyDUTQxG67b7lNsYEWPT8F0vF3ETTpRgZtPnEJJd_dwS1zOxKFMJG7RPcpz6XmldLpFDhd0Ro_jAPLByTDkYMcWZVF_SSmvdcLmunUHUqiGCuern3Zyfd6AHS9hW3tYdcnTJq3yQiXGTeFy2]--></g></svg>