<?xml version="1.0" encoding="UTF-8" standalone="no"?><svg xmlns="http://www.w3.org/2000/svg" xmlns:xlink="http://www.w3.org/1999/xlink" contentStyleType="text/css" height="298px" preserveAspectRatio="none" style="width:567px;height:298px;background:#FFFFFF;" version="1.1" viewBox="0 0 567 298" width="567px" zoomAndPan="magnify"><defs/><g><!--entity User--><g id="elem_User"><rect fill="#F1F1F1" height="55.1563" rx="2.5" ry="2.5" style="stroke:#181818;stroke-width:0.5;" width="81" x="52" y="7"/><rect fill="#F1F1F1" height="10" style="stroke:#181818;stroke-width:0.5;" width="15" x="113" y="12"/><rect fill="#F1F1F1" height="2" style="stroke:#181818;stroke-width:0.5;" width="4" x="111" y="14"/><rect fill="#F1F1F1" height="2" style="stroke:#181818;stroke-width:0.5;" width="4" x="111" y="18"/><text fill="#000000" font-family="sans-serif" font-size="20" lengthAdjust="spacing" textLength="41" x="67" y="47.7617">User</text></g><!--entity Staff--><g id="elem_Staff"><rect fill="#F1F1F1" height="55.1563" rx="2.5" ry="2.5" style="stroke:#181818;stroke-width:0.5;" width="82" x="168.5" y="7"/><rect fill="#F1F1F1" height="10" style="stroke:#181818;stroke-width:0.5;" width="15" x="230.5" y="12"/><rect fill="#F1F1F1" height="2" style="stroke:#181818;stroke-width:0.5;" width="4" x="228.5" y="14"/><rect fill="#F1F1F1" height="2" style="stroke:#181818;stroke-width:0.5;" width="4" x="228.5" y="18"/><text fill="#000000" font-family="sans-serif" font-size="20" lengthAdjust="spacing" textLength="42" x="183.5" y="47.7617">Staff</text></g><!--entity Patient--><g id="elem_Patient"><rect fill="#F1F1F1" height="55.1563" rx="2.5" ry="2.5" style="stroke:#181818;stroke-width:0.5;" width="101" x="286" y="7"/><rect fill="#F1F1F1" height="10" style="stroke:#181818;stroke-width:0.5;" width="15" x="367" y="12"/><rect fill="#F1F1F1" height="2" style="stroke:#181818;stroke-width:0.5;" width="4" x="365" y="14"/><rect fill="#F1F1F1" height="2" style="stroke:#181818;stroke-width:0.5;" width="4" x="365" y="18"/><text fill="#000000" font-family="sans-serif" font-size="20" lengthAdjust="spacing" textLength="61" x="301" y="47.7617">Patient</text></g><!--entity Doctor--><g id="elem_Doctor"><rect fill="#F1F1F1" height="55.1563" rx="2.5" ry="2.5" style="stroke:#181818;stroke-width:0.5;" width="99" x="43" y="122"/><rect fill="#F1F1F1" height="10" style="stroke:#181818;stroke-width:0.5;" width="15" x="122" y="127"/><rect fill="#F1F1F1" height="2" style="stroke:#181818;stroke-width:0.5;" width="4" x="120" y="129"/><rect fill="#F1F1F1" height="2" style="stroke:#181818;stroke-width:0.5;" width="4" x="120" y="133"/><text fill="#000000" font-family="sans-serif" font-size="20" lengthAdjust="spacing" textLength="59" x="58" y="162.7617">Doctor</text></g><!--entity Appointment--><g id="elem_Appointment"><rect fill="#F1F1F1" height="55.1563" rx="2.5" ry="2.5" style="stroke:#181818;stroke-width:0.5;" width="149" x="177" y="122"/><rect fill="#F1F1F1" height="10" style="stroke:#181818;stroke-width:0.5;" width="15" x="306" y="127"/><rect fill="#F1F1F1" height="2" style="stroke:#181818;stroke-width:0.5;" width="4" x="304" y="129"/><rect fill="#F1F1F1" height="2" style="stroke:#181818;stroke-width:0.5;" width="4" x="304" y="133"/><text fill="#000000" font-family="sans-serif" font-size="20" lengthAdjust="spacing" textLength="109" x="192" y="162.7617">Appointment</text></g><!--entity OperationRequest--><g id="elem_OperationRequest"><rect fill="#F1F1F1" height="55.1563" rx="2.5" ry="2.5" style="stroke:#181818;stroke-width:0.5;" width="200" x="361.5" y="122"/><rect fill="#F1F1F1" height="10" style="stroke:#181818;stroke-width:0.5;" width="15" x="541.5" y="127"/><rect fill="#F1F1F1" height="2" style="stroke:#181818;stroke-width:0.5;" width="4" x="539.5" y="129"/><rect fill="#F1F1F1" height="2" style="stroke:#181818;stroke-width:0.5;" width="4" x="539.5" y="133"/><text fill="#000000" font-family="sans-serif" font-size="20" lengthAdjust="spacing" textLength="160" x="376.5" y="162.7617">OperationRequest</text></g><!--entity OperationType--><g id="elem_OperationType"><rect fill="#F1F1F1" height="55.1563" rx="2.5" ry="2.5" style="stroke:#181818;stroke-width:0.5;" width="171" x="7" y="237"/><rect fill="#F1F1F1" height="10" style="stroke:#181818;stroke-width:0.5;" width="15" x="158" y="242"/><rect fill="#F1F1F1" height="2" style="stroke:#181818;stroke-width:0.5;" width="4" x="156" y="244"/><rect fill="#F1F1F1" height="2" style="stroke:#181818;stroke-width:0.5;" width="4" x="156" y="248"/><text fill="#000000" font-family="sans-serif" font-size="20" lengthAdjust="spacing" textLength="131" x="22" y="277.7617">OperationType</text></g><!--entity Room--><g id="elem_Room"><rect fill="#F1F1F1" height="55.1563" rx="2.5" ry="2.5" style="stroke:#181818;stroke-width:0.5;" width="92" x="213.5" y="237"/><rect fill="#F1F1F1" height="10" style="stroke:#181818;stroke-width:0.5;" width="15" x="285.5" y="242"/><rect fill="#F1F1F1" height="2" style="stroke:#181818;stroke-width:0.5;" width="4" x="283.5" y="244"/><rect fill="#F1F1F1" height="2" style="stroke:#181818;stroke-width:0.5;" width="4" x="283.5" y="248"/><text fill="#000000" font-family="sans-serif" font-size="20" lengthAdjust="spacing" textLength="52" x="228.5" y="277.7617">Room</text></g><!--entity Specialization--><g id="elem_Specialization"><rect fill="#F1F1F1" height="55.1563" rx="2.5" ry="2.5" style="stroke:#181818;stroke-width:0.5;" width="159" x="341" y="237"/><rect fill="#F1F1F1" height="10" style="stroke:#181818;stroke-width:0.5;" width="15" x="480" y="242"/><rect fill="#F1F1F1" height="2" style="stroke:#181818;stroke-width:0.5;" width="4" x="478" y="244"/><rect fill="#F1F1F1" height="2" style="stroke:#181818;stroke-width:0.5;" width="4" x="478" y="248"/><text fill="#000000" font-family="sans-serif" font-size="20" lengthAdjust="spacing" textLength="119" x="356" y="277.7617">Specialization</text></g><!--SRC=[ROun3i8m34Ntd297GBq14cAbQk40Lkf8LXFR9Ev0Jq_fv04lzd_-N_fz9LPeK8ka5PUuO8Qjs5tOPjen3fSGabGLHhRuwjYYqxD1pawFOFJR3jqacJG7hgf2RFMu7NqejYCiFE5xm_xtzVmeEZw9LDz5CH4KsazlEESB]--></g></svg>