<?xml version="1.0" encoding="UTF-8" standalone="no"?><svg xmlns="http://www.w3.org/2000/svg" xmlns:xlink="http://www.w3.org/1999/xlink" contentStyleType="text/css" height="1435px" preserveAspectRatio="none" style="width:2946px;height:1435px;background:#FFFFFF;" version="1.1" viewBox="0 0 2946 1435" width="2946px" zoomAndPan="magnify"><defs/><g><text fill="#000000" font-family="sans-serif" font-size="14" font-weight="bold" lengthAdjust="spacing" textLength="237" x="1347.5" y="24.5332">BackOffice Module Domain Model</text><!--cluster <<aggregate>> User--><g id="cluster_&lt;&lt;aggregate&gt;&gt; User"><path d="M2365.5,45.5039 L2533.5,45.5039 A3.75,3.75 0 0 1 2536,48.0039 L2543,76.6602 L2936.5,76.6602 A2.5,2.5 0 0 1 2939,79.1602 L2939,604.5039 A2.5,2.5 0 0 1 2936.5,607.0039 L2365.5,607.0039 A2.5,2.5 0 0 1 2363,604.5039 L2363,48.0039 A2.5,2.5 0 0 1 2365.5,45.5039 " fill="none" style="stroke:#000000;stroke-width:1.5;"/><line style="stroke:#000000;stroke-width:1.5;" x1="2363" x2="2543" y1="76.6602" y2="76.6602"/><text fill="#000000" font-family="sans-serif" font-size="20" font-weight="bold" lengthAdjust="spacing" textLength="167" x="2367" y="68.2656">«aggregate» User</text></g><!--cluster <<aggregate>> User Profile--><g id="cluster_&lt;&lt;aggregate&gt;&gt; User Profile"><path d="M2091.5,263.5039 L2326.5,263.5039 A3.75,3.75 0 0 1 2329,266.0039 L2336,294.6602 L2336.5,294.6602 A2.5,2.5 0 0 1 2339,297.1602 L2339,422.0039 A2.5,2.5 0 0 1 2336.5,424.5039 L2091.5,424.5039 A2.5,2.5 0 0 1 2089,422.0039 L2089,266.0039 A2.5,2.5 0 0 1 2091.5,263.5039 " fill="none" style="stroke:#000000;stroke-width:1.5;"/><line style="stroke:#000000;stroke-width:1.5;" x1="2089" x2="2336" y1="294.6602" y2="294.6602"/><text fill="#000000" font-family="sans-serif" font-size="20" font-weight="bold" lengthAdjust="spacing" textLength="234" x="2093" y="286.2656">«aggregate» User Profile</text></g><!--cluster <<aggregate>> Staff--><g id="cluster_&lt;&lt;aggregate&gt;&gt; Staff"><path d="M402.5,483.5039 L571.5,483.5039 A3.75,3.75 0 0 1 574,486.0039 L581,514.6602 L881.5,514.6602 A2.5,2.5 0 0 1 884,517.1602 L884,812.0039 A2.5,2.5 0 0 1 881.5,814.5039 L402.5,814.5039 A2.5,2.5 0 0 1 400,812.0039 L400,486.0039 A2.5,2.5 0 0 1 402.5,483.5039 " fill="none" style="stroke:#000000;stroke-width:1.5;"/><line style="stroke:#000000;stroke-width:1.5;" x1="400" x2="581" y1="514.6602" y2="514.6602"/><text fill="#000000" font-family="sans-serif" font-size="20" font-weight="bold" lengthAdjust="spacing" textLength="168" x="404" y="506.2656">«aggregate» Staff</text></g><!--cluster <<aggregate>> Patient--><g id="cluster_&lt;&lt;aggregate&gt;&gt; Patient"><path d="M1918.5,911.0039 L2108.5,911.0039 A3.75,3.75 0 0 1 2111,913.5039 L2118,942.1602 L2409.5,942.1602 A2.5,2.5 0 0 1 2412,944.6602 L2412,1425.5039 A2.5,2.5 0 0 1 2409.5,1428.0039 L1918.5,1428.0039 A2.5,2.5 0 0 1 1916,1425.5039 L1916,913.5039 A2.5,2.5 0 0 1 1918.5,911.0039 " fill="none" style="stroke:#000000;stroke-width:1.5;"/><line style="stroke:#000000;stroke-width:1.5;" x1="1916" x2="2118" y1="942.1602" y2="942.1602"/><text fill="#000000" font-family="sans-serif" font-size="20" font-weight="bold" lengthAdjust="spacing" textLength="189" x="1920" y="933.7656">«aggregate» Patient</text></g><!--cluster <<aggregate>> Operation Room--><g id="cluster_&lt;&lt;aggregate&gt;&gt; Operation Room"><path d="M8.5,886.0039 L287.5,886.0039 A3.75,3.75 0 0 1 290,888.5039 L297,917.1602 L728.5,917.1602 A2.5,2.5 0 0 1 731,919.6602 L731,1425.5039 A2.5,2.5 0 0 1 728.5,1428.0039 L8.5,1428.0039 A2.5,2.5 0 0 1 6,1425.5039 L6,888.5039 A2.5,2.5 0 0 1 8.5,886.0039 " fill="none" style="stroke:#000000;stroke-width:1.5;"/><line style="stroke:#000000;stroke-width:1.5;" x1="6" x2="297" y1="917.1602" y2="917.1602"/><text fill="#000000" font-family="sans-serif" font-size="20" font-weight="bold" lengthAdjust="spacing" textLength="278" x="10" y="908.7656">«aggregate» Operation Room</text></g><!--cluster <<aggregate>> Equipment--><g id="cluster_&lt;&lt;aggregate&gt;&gt; Equipment"><path d="M757.5,1104.0039 L982.5,1104.0039 A3.75,3.75 0 0 1 985,1106.5039 L992,1135.1602 L1048.5,1135.1602 A2.5,2.5 0 0 1 1051,1137.6602 L1051,1425.5039 A2.5,2.5 0 0 1 1048.5,1428.0039 L757.5,1428.0039 A2.5,2.5 0 0 1 755,1425.5039 L755,1106.5039 A2.5,2.5 0 0 1 757.5,1104.0039 " fill="none" style="stroke:#000000;stroke-width:1.5;"/><line style="stroke:#000000;stroke-width:1.5;" x1="755" x2="992" y1="1135.1602" y2="1135.1602"/><text fill="#000000" font-family="sans-serif" font-size="20" font-weight="bold" lengthAdjust="spacing" textLength="224" x="759" y="1126.7656">«aggregate» Equipment</text></g><!--cluster <<aggregate>> Operation / Appointment--><g id="cluster_&lt;&lt;aggregate&gt;&gt; Operation / Appointment"><path d="M1085.5,666.0039 L1441.5,666.0039 A3.75,3.75 0 0 1 1444,668.5039 L1451,697.1602 L1695.5,697.1602 A2.5,2.5 0 0 1 1698,699.6602 L1698,1032.0039 A2.5,2.5 0 0 1 1695.5,1034.5039 L1085.5,1034.5039 A2.5,2.5 0 0 1 1083,1032.0039 L1083,668.5039 A2.5,2.5 0 0 1 1085.5,666.0039 " fill="none" style="stroke:#000000;stroke-width:1.5;"/><line style="stroke:#000000;stroke-width:1.5;" x1="1083" x2="1451" y1="697.1602" y2="697.1602"/><text fill="#000000" font-family="sans-serif" font-size="20" font-weight="bold" lengthAdjust="spacing" textLength="355" x="1087" y="688.7656">«aggregate» Operation / Appointment</text></g><!--cluster <<aggregate>> Operation Requisition--><g id="cluster_&lt;&lt;aggregate&gt;&gt; Operation Requisition"><path d="M1738.5,666.0039 L2068.5,666.0039 A3.75,3.75 0 0 1 2071,668.5039 L2078,697.1602 L2078.5,697.1602 A2.5,2.5 0 0 1 2081,699.6602 L2081,824.5039 A2.5,2.5 0 0 1 2078.5,827.0039 L1738.5,827.0039 A2.5,2.5 0 0 1 1736,824.5039 L1736,668.5039 A2.5,2.5 0 0 1 1738.5,666.0039 " fill="none" style="stroke:#000000;stroke-width:1.5;"/><line style="stroke:#000000;stroke-width:1.5;" x1="1736" x2="2078" y1="697.1602" y2="697.1602"/><text fill="#000000" font-family="sans-serif" font-size="20" font-weight="bold" lengthAdjust="spacing" textLength="329" x="1740" y="688.7656">«aggregate» Operation Requisition</text></g><!--class User--><g id="elem_User"><rect codeLine="6" fill="#F1F1F1" height="101.4688" id="User" rx="2.5" ry="2.5" style="stroke:#181818;stroke-width:0.5;" width="99" x="2496.5" y="89.5039"/><ellipse cx="2512.5" cy="132.2383" fill="#ADD1B2" rx="12" ry="12" style="stroke:#181818;stroke-width:1.0;"/><path d="M2510.4531,133.3008 L2510.4531,136.2383 L2515.5469,136.2383 L2515.5469,135.1445 Q2515.5469,134.4258 2515.8281,134.1289 Q2516.1094,133.8164 2516.5625,133.8164 Q2517,133.8164 2517.2813,134.1289 Q2517.5625,134.4258 2517.5625,135.1445 L2517.5625,138.2383 L2508.125,138.2383 Q2507.4063,138.2383 2507.0938,137.957 Q2506.7969,137.6758 2506.7969,137.2383 Q2506.7969,136.7852 2507.1094,136.5195 Q2507.4219,136.2383 2508.125,136.2383 L2508.4375,136.2383 L2508.4375,128.4102 L2508.125,128.4102 Q2507.4063,128.4102 2507.0938,128.1289 Q2506.7969,127.8477 2506.7969,127.3945 Q2506.7969,126.9414 2507.0938,126.6758 Q2507.4063,126.3945 2508.125,126.3945 L2517.1094,126.3945 L2517.1094,129.4414 Q2517.1094,130.1602 2516.8281,130.4727 Q2516.5625,130.7695 2516.125,130.7695 Q2515.6719,130.7695 2515.3906,130.4727 Q2515.1094,130.1758 2515.1094,129.4414 L2515.1094,128.4102 L2510.4531,128.4102 L2510.4531,131.3008 L2512.2031,131.3008 Q2512.2031,130.5195 2512.3438,130.2852 Q2512.6563,129.8164 2513.2031,129.8164 Q2513.6563,129.8164 2513.9219,130.1289 Q2514.2031,130.4258 2514.2031,131.1445 L2514.2031,133.457 Q2514.2031,134.1133 2514.0469,134.332 Q2513.7344,134.7852 2513.2031,134.7852 Q2512.6563,134.7852 2512.3438,134.3164 Q2512.2031,134.082 2512.2031,133.3008 L2510.4531,133.3008 Z " fill="#000000"/><text fill="#000000" font-family="sans-serif" font-size="20" font-style="italic" lengthAdjust="spacing" textLength="69" x="2525.5" y="115.2656">«entity»</text><text fill="#000000" font-family="sans-serif" font-size="20" font-style="italic" lengthAdjust="spacing" textLength="56" x="2532" y="140.4219">«root»</text><text fill="#000000" font-family="sans-serif" font-size="20" lengthAdjust="spacing" textLength="41" x="2539.5" y="165.5781">User</text><line style="stroke:#181818;stroke-width:0.5;" x1="2497.5" x2="2594.5" y1="174.9727" y2="174.9727"/><line style="stroke:#181818;stroke-width:0.5;" x1="2497.5" x2="2594.5" y1="182.9727" y2="182.9727"/></g><!--class Credentials--><g id="elem_Credentials"><rect codeLine="8" fill="#F1F1F1" height="76.3125" id="Credentials" rx="2.5" ry="2.5" style="stroke:#181818;stroke-width:0.5;" width="158" x="2572" y="320.0039"/><ellipse cx="2588" cy="350.1602" fill="#FF8B40" rx="12" ry="12" style="stroke:#181818;stroke-width:1.0;"/><path d="M2588.5,354.2383 L2591.3906,347.332 L2590.9375,347.332 Q2590.2188,347.332 2589.9063,347.0508 Q2589.5938,346.7695 2589.5938,346.3164 Q2589.5938,345.8633 2589.9063,345.5977 Q2590.2188,345.3164 2590.9375,345.3164 L2593.625,345.3164 Q2594.3438,345.3164 2594.6563,345.5977 Q2594.9688,345.8633 2594.9688,346.3164 Q2594.9688,346.8633 2594.5,347.1758 Q2594.2656,347.332 2593.5781,347.332 L2589.4688,357.1602 L2587.5469,357.1602 L2583.4375,347.332 Q2582.7344,347.332 2582.5156,347.1758 Q2582.0469,346.8633 2582.0469,346.3164 Q2582.0469,345.8633 2582.3594,345.5977 Q2582.6563,345.3164 2583.375,345.3164 L2586.0781,345.3164 Q2586.7969,345.3164 2587.0938,345.5977 Q2587.4063,345.8633 2587.4063,346.3164 Q2587.4063,346.7695 2587.1094,347.0508 Q2586.8125,347.332 2586.0781,347.332 L2585.6094,347.332 L2588.5,354.2383 Z " fill="#000000"/><text fill="#000000" font-family="sans-serif" font-size="20" font-style="italic" lengthAdjust="spacing" textLength="128" x="2601" y="345.7656">«value object»</text><text fill="#000000" font-family="sans-serif" font-size="20" lengthAdjust="spacing" textLength="99" x="2615.5" y="370.9219">Credentials</text><line style="stroke:#181818;stroke-width:0.5;" x1="2573" x2="2729" y1="380.3164" y2="380.3164"/><line style="stroke:#181818;stroke-width:0.5;" x1="2573" x2="2729" y1="388.3164" y2="388.3164"/></g><!--class Password--><g id="elem_Password"><rect codeLine="10" fill="#F1F1F1" height="76.3125" id="Password" rx="2.5" ry="2.5" style="stroke:#181818;stroke-width:0.5;" width="158" x="2475" y="515.0039"/><ellipse cx="2491" cy="545.1602" fill="#FF8B40" rx="12" ry="12" style="stroke:#181818;stroke-width:1.0;"/><path d="M2491.5,549.2383 L2494.3906,542.332 L2493.9375,542.332 Q2493.2188,542.332 2492.9063,542.0508 Q2492.5938,541.7695 2492.5938,541.3164 Q2492.5938,540.8633 2492.9063,540.5977 Q2493.2188,540.3164 2493.9375,540.3164 L2496.625,540.3164 Q2497.3438,540.3164 2497.6563,540.5977 Q2497.9688,540.8633 2497.9688,541.3164 Q2497.9688,541.8633 2497.5,542.1758 Q2497.2656,542.332 2496.5781,542.332 L2492.4688,552.1602 L2490.5469,552.1602 L2486.4375,542.332 Q2485.7344,542.332 2485.5156,542.1758 Q2485.0469,541.8633 2485.0469,541.3164 Q2485.0469,540.8633 2485.3594,540.5977 Q2485.6563,540.3164 2486.375,540.3164 L2489.0781,540.3164 Q2489.7969,540.3164 2490.0938,540.5977 Q2490.4063,540.8633 2490.4063,541.3164 Q2490.4063,541.7695 2490.1094,542.0508 Q2489.8125,542.332 2489.0781,542.332 L2488.6094,542.332 L2491.5,549.2383 Z " fill="#000000"/><text fill="#000000" font-family="sans-serif" font-size="20" font-style="italic" lengthAdjust="spacing" textLength="128" x="2504" y="540.7656">«value object»</text><text fill="#000000" font-family="sans-serif" font-size="20" lengthAdjust="spacing" textLength="88" x="2524" y="565.9219">Password</text><line style="stroke:#181818;stroke-width:0.5;" x1="2476" x2="2632" y1="575.3164" y2="575.3164"/><line style="stroke:#181818;stroke-width:0.5;" x1="2476" x2="2632" y1="583.3164" y2="583.3164"/></g><!--class Username--><g id="elem_Username"><rect codeLine="12" fill="#F1F1F1" height="76.3125" id="Username" rx="2.5" ry="2.5" style="stroke:#181818;stroke-width:0.5;" width="158" x="2668" y="515.0039"/><ellipse cx="2684" cy="545.1602" fill="#FF8B40" rx="12" ry="12" style="stroke:#181818;stroke-width:1.0;"/><path d="M2684.5,549.2383 L2687.3906,542.332 L2686.9375,542.332 Q2686.2188,542.332 2685.9063,542.0508 Q2685.5938,541.7695 2685.5938,541.3164 Q2685.5938,540.8633 2685.9063,540.5977 Q2686.2188,540.3164 2686.9375,540.3164 L2689.625,540.3164 Q2690.3438,540.3164 2690.6563,540.5977 Q2690.9688,540.8633 2690.9688,541.3164 Q2690.9688,541.8633 2690.5,542.1758 Q2690.2656,542.332 2689.5781,542.332 L2685.4688,552.1602 L2683.5469,552.1602 L2679.4375,542.332 Q2678.7344,542.332 2678.5156,542.1758 Q2678.0469,541.8633 2678.0469,541.3164 Q2678.0469,540.8633 2678.3594,540.5977 Q2678.6563,540.3164 2679.375,540.3164 L2682.0781,540.3164 Q2682.7969,540.3164 2683.0938,540.5977 Q2683.4063,540.8633 2683.4063,541.3164 Q2683.4063,541.7695 2683.1094,542.0508 Q2682.8125,542.332 2682.0781,542.332 L2681.6094,542.332 L2684.5,549.2383 Z " fill="#000000"/><text fill="#000000" font-family="sans-serif" font-size="20" font-style="italic" lengthAdjust="spacing" textLength="128" x="2697" y="540.7656">«value object»</text><text fill="#000000" font-family="sans-serif" font-size="20" lengthAdjust="spacing" textLength="89" x="2716.5" y="565.9219">Username</text><line style="stroke:#181818;stroke-width:0.5;" x1="2669" x2="2825" y1="575.3164" y2="575.3164"/><line style="stroke:#181818;stroke-width:0.5;" x1="2669" x2="2825" y1="583.3164" y2="583.3164"/></g><!--class Email--><g id="elem_Email"><rect codeLine="14" fill="#F1F1F1" height="76.3125" id="Email" rx="2.5" ry="2.5" style="stroke:#181818;stroke-width:0.5;" width="158" x="2765" y="320.0039"/><ellipse cx="2781" cy="350.1602" fill="#FF8B40" rx="12" ry="12" style="stroke:#181818;stroke-width:1.0;"/><path d="M2781.5,354.2383 L2784.3906,347.332 L2783.9375,347.332 Q2783.2188,347.332 2782.9063,347.0508 Q2782.5938,346.7695 2782.5938,346.3164 Q2782.5938,345.8633 2782.9063,345.5977 Q2783.2188,345.3164 2783.9375,345.3164 L2786.625,345.3164 Q2787.3438,345.3164 2787.6563,345.5977 Q2787.9688,345.8633 2787.9688,346.3164 Q2787.9688,346.8633 2787.5,347.1758 Q2787.2656,347.332 2786.5781,347.332 L2782.4688,357.1602 L2780.5469,357.1602 L2776.4375,347.332 Q2775.7344,347.332 2775.5156,347.1758 Q2775.0469,346.8633 2775.0469,346.3164 Q2775.0469,345.8633 2775.3594,345.5977 Q2775.6563,345.3164 2776.375,345.3164 L2779.0781,345.3164 Q2779.7969,345.3164 2780.0938,345.5977 Q2780.4063,345.8633 2780.4063,346.3164 Q2780.4063,346.7695 2780.1094,347.0508 Q2779.8125,347.332 2779.0781,347.332 L2778.6094,347.332 L2781.5,354.2383 Z " fill="#000000"/><text fill="#000000" font-family="sans-serif" font-size="20" font-style="italic" lengthAdjust="spacing" textLength="128" x="2794" y="345.7656">«value object»</text><text fill="#000000" font-family="sans-serif" font-size="20" lengthAdjust="spacing" textLength="48" x="2834" y="370.9219">Email</text><line style="stroke:#181818;stroke-width:0.5;" x1="2766" x2="2922" y1="380.3164" y2="380.3164"/><line style="stroke:#181818;stroke-width:0.5;" x1="2766" x2="2922" y1="388.3164" y2="388.3164"/></g><!--class Role--><g id="elem_Role"><rect codeLine="16" fill="#F1F1F1" height="76.3125" id="Role" rx="2.5" ry="2.5" style="stroke:#181818;stroke-width:0.5;" width="158" x="2379" y="320.0039"/><ellipse cx="2395" cy="350.1602" fill="#FF8B40" rx="12" ry="12" style="stroke:#181818;stroke-width:1.0;"/><path d="M2395.5,354.2383 L2398.3906,347.332 L2397.9375,347.332 Q2397.2188,347.332 2396.9063,347.0508 Q2396.5938,346.7695 2396.5938,346.3164 Q2396.5938,345.8633 2396.9063,345.5977 Q2397.2188,345.3164 2397.9375,345.3164 L2400.625,345.3164 Q2401.3438,345.3164 2401.6563,345.5977 Q2401.9688,345.8633 2401.9688,346.3164 Q2401.9688,346.8633 2401.5,347.1758 Q2401.2656,347.332 2400.5781,347.332 L2396.4688,357.1602 L2394.5469,357.1602 L2390.4375,347.332 Q2389.7344,347.332 2389.5156,347.1758 Q2389.0469,346.8633 2389.0469,346.3164 Q2389.0469,345.8633 2389.3594,345.5977 Q2389.6563,345.3164 2390.375,345.3164 L2393.0781,345.3164 Q2393.7969,345.3164 2394.0938,345.5977 Q2394.4063,345.8633 2394.4063,346.3164 Q2394.4063,346.7695 2394.1094,347.0508 Q2393.8125,347.332 2393.0781,347.332 L2392.6094,347.332 L2395.5,354.2383 Z " fill="#000000"/><text fill="#000000" font-family="sans-serif" font-size="20" font-style="italic" lengthAdjust="spacing" textLength="128" x="2408" y="345.7656">«value object»</text><text fill="#000000" font-family="sans-serif" font-size="20" lengthAdjust="spacing" textLength="40" x="2452" y="370.9219">Role</text><line style="stroke:#181818;stroke-width:0.5;" x1="2380" x2="2536" y1="380.3164" y2="380.3164"/><line style="stroke:#181818;stroke-width:0.5;" x1="2380" x2="2536" y1="388.3164" y2="388.3164"/></g><!--class Profile--><g id="elem_Profile"><rect codeLine="22" fill="#F1F1F1" height="101.4688" id="Profile" rx="2.5" ry="2.5" style="stroke:#181818;stroke-width:0.5;" width="99" x="2223.5" y="307.5039"/><ellipse cx="2239.5" cy="350.2383" fill="#ADD1B2" rx="12" ry="12" style="stroke:#181818;stroke-width:1.0;"/><path d="M2237.4531,351.3008 L2237.4531,354.2383 L2242.5469,354.2383 L2242.5469,353.1445 Q2242.5469,352.4258 2242.8281,352.1289 Q2243.1094,351.8164 2243.5625,351.8164 Q2244,351.8164 2244.2813,352.1289 Q2244.5625,352.4258 2244.5625,353.1445 L2244.5625,356.2383 L2235.125,356.2383 Q2234.4063,356.2383 2234.0938,355.957 Q2233.7969,355.6758 2233.7969,355.2383 Q2233.7969,354.7852 2234.1094,354.5195 Q2234.4219,354.2383 2235.125,354.2383 L2235.4375,354.2383 L2235.4375,346.4102 L2235.125,346.4102 Q2234.4063,346.4102 2234.0938,346.1289 Q2233.7969,345.8477 2233.7969,345.3945 Q2233.7969,344.9414 2234.0938,344.6758 Q2234.4063,344.3945 2235.125,344.3945 L2244.1094,344.3945 L2244.1094,347.4414 Q2244.1094,348.1602 2243.8281,348.4727 Q2243.5625,348.7695 2243.125,348.7695 Q2242.6719,348.7695 2242.3906,348.4727 Q2242.1094,348.1758 2242.1094,347.4414 L2242.1094,346.4102 L2237.4531,346.4102 L2237.4531,349.3008 L2239.2031,349.3008 Q2239.2031,348.5195 2239.3438,348.2852 Q2239.6563,347.8164 2240.2031,347.8164 Q2240.6563,347.8164 2240.9219,348.1289 Q2241.2031,348.4258 2241.2031,349.1445 L2241.2031,351.457 Q2241.2031,352.1133 2241.0469,352.332 Q2240.7344,352.7852 2240.2031,352.7852 Q2239.6563,352.7852 2239.3438,352.3164 Q2239.2031,352.082 2239.2031,351.3008 L2237.4531,351.3008 Z " fill="#000000"/><text fill="#000000" font-family="sans-serif" font-size="20" font-style="italic" lengthAdjust="spacing" textLength="69" x="2252.5" y="333.2656">«entity»</text><text fill="#000000" font-family="sans-serif" font-size="20" font-style="italic" lengthAdjust="spacing" textLength="56" x="2259" y="358.4219">«root»</text><text fill="#000000" font-family="sans-serif" font-size="20" lengthAdjust="spacing" textLength="56" x="2259" y="383.5781">Profile</text><line style="stroke:#181818;stroke-width:0.5;" x1="2224.5" x2="2321.5" y1="392.9727" y2="392.9727"/><line style="stroke:#181818;stroke-width:0.5;" x1="2224.5" x2="2321.5" y1="400.9727" y2="400.9727"/></g><!--class Staff--><g id="elem_Staff"><rect codeLine="28" fill="#F1F1F1" height="51.1563" id="Staff" rx="2.5" ry="2.5" style="stroke:#181818;stroke-width:0.5;" width="76" x="792" y="527.5039"/><ellipse cx="808" cy="545.082" fill="#ADD1B2" rx="12" ry="12" style="stroke:#181818;stroke-width:1.0;"/><path d="M805.9531,546.1445 L805.9531,549.082 L811.0469,549.082 L811.0469,547.9883 Q811.0469,547.2695 811.3281,546.9727 Q811.6094,546.6602 812.0625,546.6602 Q812.5,546.6602 812.7813,546.9727 Q813.0625,547.2695 813.0625,547.9883 L813.0625,551.082 L803.625,551.082 Q802.9063,551.082 802.5938,550.8008 Q802.2969,550.5195 802.2969,550.082 Q802.2969,549.6289 802.6094,549.3633 Q802.9219,549.082 803.625,549.082 L803.9375,549.082 L803.9375,541.2539 L803.625,541.2539 Q802.9063,541.2539 802.5938,540.9727 Q802.2969,540.6914 802.2969,540.2383 Q802.2969,539.7852 802.5938,539.5195 Q802.9063,539.2383 803.625,539.2383 L812.6094,539.2383 L812.6094,542.2852 Q812.6094,543.0039 812.3281,543.3164 Q812.0625,543.6133 811.625,543.6133 Q811.1719,543.6133 810.8906,543.3164 Q810.6094,543.0195 810.6094,542.2852 L810.6094,541.2539 L805.9531,541.2539 L805.9531,544.1445 L807.7031,544.1445 Q807.7031,543.3633 807.8438,543.1289 Q808.1563,542.6602 808.7031,542.6602 Q809.1563,542.6602 809.4219,542.9727 Q809.7031,543.2695 809.7031,543.9883 L809.7031,546.3008 Q809.7031,546.957 809.5469,547.1758 Q809.2344,547.6289 808.7031,547.6289 Q808.1563,547.6289 807.8438,547.1602 Q807.7031,546.9258 807.7031,546.1445 L805.9531,546.1445 Z " fill="#000000"/><text fill="#000000" font-family="sans-serif" font-size="20" lengthAdjust="spacing" textLength="42" x="823" y="553.2656">Staff</text><line style="stroke:#181818;stroke-width:0.5;" x1="793" x2="867" y1="562.6602" y2="562.6602"/><line style="stroke:#181818;stroke-width:0.5;" x1="793" x2="867" y1="570.6602" y2="570.6602"/></g><!--class staff_avail_slot--><g id="elem_staff_avail_slot"><rect codeLine="30" fill="#F1F1F1" height="76.3125" id="staff_avail_slot" rx="2.5" ry="2.5" style="stroke:#181818;stroke-width:0.5;" width="213" x="416.5" y="722.5039"/><ellipse cx="432.5" cy="752.6602" fill="#FF8B40" rx="12" ry="12" style="stroke:#181818;stroke-width:1.0;"/><path d="M433,756.7383 L435.8906,749.832 L435.4375,749.832 Q434.7188,749.832 434.4063,749.5508 Q434.0938,749.2695 434.0938,748.8164 Q434.0938,748.3633 434.4063,748.0977 Q434.7188,747.8164 435.4375,747.8164 L438.125,747.8164 Q438.8438,747.8164 439.1563,748.0977 Q439.4688,748.3633 439.4688,748.8164 Q439.4688,749.3633 439,749.6758 Q438.7656,749.832 438.0781,749.832 L433.9688,759.6602 L432.0469,759.6602 L427.9375,749.832 Q427.2344,749.832 427.0156,749.6758 Q426.5469,749.3633 426.5469,748.8164 Q426.5469,748.3633 426.8594,748.0977 Q427.1563,747.8164 427.875,747.8164 L430.5781,747.8164 Q431.2969,747.8164 431.5938,748.0977 Q431.9063,748.3633 431.9063,748.8164 Q431.9063,749.2695 431.6094,749.5508 Q431.3125,749.832 430.5781,749.832 L430.1094,749.832 L433,756.7383 Z " fill="#000000"/><text fill="#000000" font-family="sans-serif" font-size="20" font-style="italic" lengthAdjust="spacing" textLength="128" x="473" y="748.2656">«value object»</text><text fill="#000000" font-family="sans-serif" font-size="20" lengthAdjust="spacing" textLength="179" x="447.5" y="773.4219">Staff Availability Slot</text><line style="stroke:#181818;stroke-width:0.5;" x1="417.5" x2="628.5" y1="782.8164" y2="782.8164"/><line style="stroke:#181818;stroke-width:0.5;" x1="417.5" x2="628.5" y1="790.8164" y2="790.8164"/></g><!--class Spec_Type--><g id="elem_Spec_Type"><rect codeLine="32" fill="#F1F1F1" height="76.3125" id="Spec_Type" rx="2.5" ry="2.5" style="stroke:#181818;stroke-width:0.5;" width="203" x="664.5" y="722.5039"/><ellipse cx="680.5" cy="752.6602" fill="#FF8B40" rx="12" ry="12" style="stroke:#181818;stroke-width:1.0;"/><path d="M681,756.7383 L683.8906,749.832 L683.4375,749.832 Q682.7188,749.832 682.4063,749.5508 Q682.0938,749.2695 682.0938,748.8164 Q682.0938,748.3633 682.4063,748.0977 Q682.7188,747.8164 683.4375,747.8164 L686.125,747.8164 Q686.8438,747.8164 687.1563,748.0977 Q687.4688,748.3633 687.4688,748.8164 Q687.4688,749.3633 687,749.6758 Q686.7656,749.832 686.0781,749.832 L681.9688,759.6602 L680.0469,759.6602 L675.9375,749.832 Q675.2344,749.832 675.0156,749.6758 Q674.5469,749.3633 674.5469,748.8164 Q674.5469,748.3633 674.8594,748.0977 Q675.1563,747.8164 675.875,747.8164 L678.5781,747.8164 Q679.2969,747.8164 679.5938,748.0977 Q679.9063,748.3633 679.9063,748.8164 Q679.9063,749.2695 679.6094,749.5508 Q679.3125,749.832 678.5781,749.832 L678.1094,749.832 L681,756.7383 Z " fill="#000000"/><text fill="#000000" font-family="sans-serif" font-size="20" font-style="italic" lengthAdjust="spacing" textLength="128" x="716" y="748.2656">«value object»</text><text fill="#000000" font-family="sans-serif" font-size="20" lengthAdjust="spacing" textLength="169" x="695.5" y="773.4219">Specialization Type</text><line style="stroke:#181818;stroke-width:0.5;" x1="665.5" x2="866.5" y1="782.8164" y2="782.8164"/><line style="stroke:#181818;stroke-width:0.5;" x1="665.5" x2="866.5" y1="790.8164" y2="790.8164"/></g><!--class Patient--><g id="elem_Patient"><rect codeLine="38" fill="#F1F1F1" height="51.1563" id="Patient" rx="2.5" ry="2.5" style="stroke:#181818;stroke-width:0.5;" width="95" x="2093.5" y="955.0039"/><ellipse cx="2109.5" cy="972.582" fill="#ADD1B2" rx="12" ry="12" style="stroke:#181818;stroke-width:1.0;"/><path d="M2107.4531,973.6445 L2107.4531,976.582 L2112.5469,976.582 L2112.5469,975.4883 Q2112.5469,974.7695 2112.8281,974.4727 Q2113.1094,974.1602 2113.5625,974.1602 Q2114,974.1602 2114.2813,974.4727 Q2114.5625,974.7695 2114.5625,975.4883 L2114.5625,978.582 L2105.125,978.582 Q2104.4063,978.582 2104.0938,978.3008 Q2103.7969,978.0195 2103.7969,977.582 Q2103.7969,977.1289 2104.1094,976.8633 Q2104.4219,976.582 2105.125,976.582 L2105.4375,976.582 L2105.4375,968.7539 L2105.125,968.7539 Q2104.4063,968.7539 2104.0938,968.4727 Q2103.7969,968.1914 2103.7969,967.7383 Q2103.7969,967.2852 2104.0938,967.0195 Q2104.4063,966.7383 2105.125,966.7383 L2114.1094,966.7383 L2114.1094,969.7852 Q2114.1094,970.5039 2113.8281,970.8164 Q2113.5625,971.1133 2113.125,971.1133 Q2112.6719,971.1133 2112.3906,970.8164 Q2112.1094,970.5195 2112.1094,969.7852 L2112.1094,968.7539 L2107.4531,968.7539 L2107.4531,971.6445 L2109.2031,971.6445 Q2109.2031,970.8633 2109.3438,970.6289 Q2109.6563,970.1602 2110.2031,970.1602 Q2110.6563,970.1602 2110.9219,970.4727 Q2111.2031,970.7695 2111.2031,971.4883 L2111.2031,973.8008 Q2111.2031,974.457 2111.0469,974.6758 Q2110.7344,975.1289 2110.2031,975.1289 Q2109.6563,975.1289 2109.3438,974.6602 Q2109.2031,974.4258 2109.2031,973.6445 L2107.4531,973.6445 Z " fill="#000000"/><text fill="#000000" font-family="sans-serif" font-size="20" lengthAdjust="spacing" textLength="61" x="2124.5" y="980.7656">Patient</text><line style="stroke:#181818;stroke-width:0.5;" x1="2094.5" x2="2187.5" y1="990.1602" y2="990.1602"/><line style="stroke:#181818;stroke-width:0.5;" x1="2094.5" x2="2187.5" y1="998.1602" y2="998.1602"/></g><!--class M_Record--><g id="elem_M_Record"><rect codeLine="40" fill="#F1F1F1" height="76.3125" id="M_Record" rx="2.5" ry="2.5" style="stroke:#181818;stroke-width:0.5;" width="172" x="2078" y="1160.5039"/><ellipse cx="2094" cy="1190.6602" fill="#FF8B40" rx="12" ry="12" style="stroke:#181818;stroke-width:1.0;"/><path d="M2094.5,1194.7383 L2097.3906,1187.832 L2096.9375,1187.832 Q2096.2188,1187.832 2095.9063,1187.5508 Q2095.5938,1187.2695 2095.5938,1186.8164 Q2095.5938,1186.3633 2095.9063,1186.0977 Q2096.2188,1185.8164 2096.9375,1185.8164 L2099.625,1185.8164 Q2100.3438,1185.8164 2100.6563,1186.0977 Q2100.9688,1186.3633 2100.9688,1186.8164 Q2100.9688,1187.3633 2100.5,1187.6758 Q2100.2656,1187.832 2099.5781,1187.832 L2095.4688,1197.6602 L2093.5469,1197.6602 L2089.4375,1187.832 Q2088.7344,1187.832 2088.5156,1187.6758 Q2088.0469,1187.3633 2088.0469,1186.8164 Q2088.0469,1186.3633 2088.3594,1186.0977 Q2088.6563,1185.8164 2089.375,1185.8164 L2092.0781,1185.8164 Q2092.7969,1185.8164 2093.0938,1186.0977 Q2093.4063,1186.3633 2093.4063,1186.8164 Q2093.4063,1187.2695 2093.1094,1187.5508 Q2092.8125,1187.832 2092.0781,1187.832 L2091.6094,1187.832 L2094.5,1194.7383 Z " fill="#000000"/><text fill="#000000" font-family="sans-serif" font-size="20" font-style="italic" lengthAdjust="spacing" textLength="128" x="2114" y="1186.2656">«value object»</text><text fill="#000000" font-family="sans-serif" font-size="20" lengthAdjust="spacing" textLength="138" x="2109" y="1211.4219">Medical Record</text><line style="stroke:#181818;stroke-width:0.5;" x1="2079" x2="2249" y1="1220.8164" y2="1220.8164"/><line style="stroke:#181818;stroke-width:0.5;" x1="2079" x2="2249" y1="1228.8164" y2="1228.8164"/></g><!--class Allergies--><g id="elem_Allergies"><rect codeLine="42" fill="#F1F1F1" height="76.3125" id="Allergies" rx="2.5" ry="2.5" style="stroke:#181818;stroke-width:0.5;" width="158" x="2238" y="1336.0039"/><ellipse cx="2254" cy="1366.1602" fill="#FF8B40" rx="12" ry="12" style="stroke:#181818;stroke-width:1.0;"/><path d="M2254.5,1370.2383 L2257.3906,1363.332 L2256.9375,1363.332 Q2256.2188,1363.332 2255.9063,1363.0508 Q2255.5938,1362.7695 2255.5938,1362.3164 Q2255.5938,1361.8633 2255.9063,1361.5977 Q2256.2188,1361.3164 2256.9375,1361.3164 L2259.625,1361.3164 Q2260.3438,1361.3164 2260.6563,1361.5977 Q2260.9688,1361.8633 2260.9688,1362.3164 Q2260.9688,1362.8633 2260.5,1363.1758 Q2260.2656,1363.332 2259.5781,1363.332 L2255.4688,1373.1602 L2253.5469,1373.1602 L2249.4375,1363.332 Q2248.7344,1363.332 2248.5156,1363.1758 Q2248.0469,1362.8633 2248.0469,1362.3164 Q2248.0469,1361.8633 2248.3594,1361.5977 Q2248.6563,1361.3164 2249.375,1361.3164 L2252.0781,1361.3164 Q2252.7969,1361.3164 2253.0938,1361.5977 Q2253.4063,1361.8633 2253.4063,1362.3164 Q2253.4063,1362.7695 2253.1094,1363.0508 Q2252.8125,1363.332 2252.0781,1363.332 L2251.6094,1363.332 L2254.5,1370.2383 Z " fill="#000000"/><text fill="#000000" font-family="sans-serif" font-size="20" font-style="italic" lengthAdjust="spacing" textLength="128" x="2267" y="1361.7656">«value object»</text><text fill="#000000" font-family="sans-serif" font-size="20" lengthAdjust="spacing" textLength="75" x="2293.5" y="1386.9219">Allergies</text><line style="stroke:#181818;stroke-width:0.5;" x1="2239" x2="2395" y1="1396.3164" y2="1396.3164"/><line style="stroke:#181818;stroke-width:0.5;" x1="2239" x2="2395" y1="1404.3164" y2="1404.3164"/></g><!--class Med_Cond--><g id="elem_Med_Cond"><rect codeLine="44" fill="#F1F1F1" height="76.3125" id="Med_Cond" rx="2.5" ry="2.5" style="stroke:#181818;stroke-width:0.5;" width="189" x="1932.5" y="1336.0039"/><ellipse cx="1948.5" cy="1366.1602" fill="#FF8B40" rx="12" ry="12" style="stroke:#181818;stroke-width:1.0;"/><path d="M1949,1370.2383 L1951.8906,1363.332 L1951.4375,1363.332 Q1950.7188,1363.332 1950.4063,1363.0508 Q1950.0938,1362.7695 1950.0938,1362.3164 Q1950.0938,1361.8633 1950.4063,1361.5977 Q1950.7188,1361.3164 1951.4375,1361.3164 L1954.125,1361.3164 Q1954.8438,1361.3164 1955.1563,1361.5977 Q1955.4688,1361.8633 1955.4688,1362.3164 Q1955.4688,1362.8633 1955,1363.1758 Q1954.7656,1363.332 1954.0781,1363.332 L1949.9688,1373.1602 L1948.0469,1373.1602 L1943.9375,1363.332 Q1943.2344,1363.332 1943.0156,1363.1758 Q1942.5469,1362.8633 1942.5469,1362.3164 Q1942.5469,1361.8633 1942.8594,1361.5977 Q1943.1563,1361.3164 1943.875,1361.3164 L1946.5781,1361.3164 Q1947.2969,1361.3164 1947.5938,1361.5977 Q1947.9063,1361.8633 1947.9063,1362.3164 Q1947.9063,1362.7695 1947.6094,1363.0508 Q1947.3125,1363.332 1946.5781,1363.332 L1946.1094,1363.332 L1949,1370.2383 Z " fill="#000000"/><text fill="#000000" font-family="sans-serif" font-size="20" font-style="italic" lengthAdjust="spacing" textLength="128" x="1977" y="1361.7656">«value object»</text><text fill="#000000" font-family="sans-serif" font-size="20" lengthAdjust="spacing" textLength="155" x="1963.5" y="1386.9219">Medical Condition</text><line style="stroke:#181818;stroke-width:0.5;" x1="1933.5" x2="2120.5" y1="1396.3164" y2="1396.3164"/><line style="stroke:#181818;stroke-width:0.5;" x1="1933.5" x2="2120.5" y1="1404.3164" y2="1404.3164"/></g><!--class Room--><g id="elem_Room"><rect codeLine="50" fill="#F1F1F1" height="101.4688" id="Room" rx="2.5" ry="2.5" style="stroke:#181818;stroke-width:0.5;" width="99" x="484.5" y="930.0039"/><ellipse cx="500.5" cy="972.7383" fill="#ADD1B2" rx="12" ry="12" style="stroke:#181818;stroke-width:1.0;"/><path d="M498.4531,973.8008 L498.4531,976.7383 L503.5469,976.7383 L503.5469,975.6445 Q503.5469,974.9258 503.8281,974.6289 Q504.1094,974.3164 504.5625,974.3164 Q505,974.3164 505.2813,974.6289 Q505.5625,974.9258 505.5625,975.6445 L505.5625,978.7383 L496.125,978.7383 Q495.4063,978.7383 495.0938,978.457 Q494.7969,978.1758 494.7969,977.7383 Q494.7969,977.2852 495.1094,977.0195 Q495.4219,976.7383 496.125,976.7383 L496.4375,976.7383 L496.4375,968.9102 L496.125,968.9102 Q495.4063,968.9102 495.0938,968.6289 Q494.7969,968.3477 494.7969,967.8945 Q494.7969,967.4414 495.0938,967.1758 Q495.4063,966.8945 496.125,966.8945 L505.1094,966.8945 L505.1094,969.9414 Q505.1094,970.6602 504.8281,970.9727 Q504.5625,971.2695 504.125,971.2695 Q503.6719,971.2695 503.3906,970.9727 Q503.1094,970.6758 503.1094,969.9414 L503.1094,968.9102 L498.4531,968.9102 L498.4531,971.8008 L500.2031,971.8008 Q500.2031,971.0195 500.3438,970.7852 Q500.6563,970.3164 501.2031,970.3164 Q501.6563,970.3164 501.9219,970.6289 Q502.2031,970.9258 502.2031,971.6445 L502.2031,973.957 Q502.2031,974.6133 502.0469,974.832 Q501.7344,975.2852 501.2031,975.2852 Q500.6563,975.2852 500.3438,974.8164 Q500.2031,974.582 500.2031,973.8008 L498.4531,973.8008 Z " fill="#000000"/><text fill="#000000" font-family="sans-serif" font-size="20" font-style="italic" lengthAdjust="spacing" textLength="69" x="513.5" y="955.7656">«entity»</text><text fill="#000000" font-family="sans-serif" font-size="20" font-style="italic" lengthAdjust="spacing" textLength="56" x="520" y="980.9219">«root»</text><text fill="#000000" font-family="sans-serif" font-size="20" lengthAdjust="spacing" textLength="52" x="522" y="1006.0781">Room</text><line style="stroke:#181818;stroke-width:0.5;" x1="485.5" x2="582.5" y1="1015.4727" y2="1015.4727"/><line style="stroke:#181818;stroke-width:0.5;" x1="485.5" x2="582.5" y1="1023.4727" y2="1023.4727"/></g><!--class room_stats--><g id="elem_room_stats"><rect codeLine="52" fill="#F1F1F1" height="76.3125" id="room_stats" rx="2.5" ry="2.5" style="stroke:#181818;stroke-width:0.5;" width="158" x="22" y="1160.5039"/><ellipse cx="38" cy="1190.6602" fill="#FF8B40" rx="12" ry="12" style="stroke:#181818;stroke-width:1.0;"/><path d="M38.5,1194.7383 L41.3906,1187.832 L40.9375,1187.832 Q40.2188,1187.832 39.9063,1187.5508 Q39.5938,1187.2695 39.5938,1186.8164 Q39.5938,1186.3633 39.9063,1186.0977 Q40.2188,1185.8164 40.9375,1185.8164 L43.625,1185.8164 Q44.3438,1185.8164 44.6563,1186.0977 Q44.9688,1186.3633 44.9688,1186.8164 Q44.9688,1187.3633 44.5,1187.6758 Q44.2656,1187.832 43.5781,1187.832 L39.4688,1197.6602 L37.5469,1197.6602 L33.4375,1187.832 Q32.7344,1187.832 32.5156,1187.6758 Q32.0469,1187.3633 32.0469,1186.8164 Q32.0469,1186.3633 32.3594,1186.0977 Q32.6563,1185.8164 33.375,1185.8164 L36.0781,1185.8164 Q36.7969,1185.8164 37.0938,1186.0977 Q37.4063,1186.3633 37.4063,1186.8164 Q37.4063,1187.2695 37.1094,1187.5508 Q36.8125,1187.832 36.0781,1187.832 L35.6094,1187.832 L38.5,1194.7383 Z " fill="#000000"/><text fill="#000000" font-family="sans-serif" font-size="20" font-style="italic" lengthAdjust="spacing" textLength="128" x="51" y="1186.2656">«value object»</text><text fill="#000000" font-family="sans-serif" font-size="20" lengthAdjust="spacing" textLength="114" x="58" y="1211.4219">Room Status</text><line style="stroke:#181818;stroke-width:0.5;" x1="23" x2="179" y1="1220.8164" y2="1220.8164"/><line style="stroke:#181818;stroke-width:0.5;" x1="23" x2="179" y1="1228.8164" y2="1228.8164"/></g><!--class Room_Avail--><g id="elem_Room_Avail"><rect codeLine="54" fill="#F1F1F1" height="76.3125" id="Room_Avail" rx="2.5" ry="2.5" style="stroke:#181818;stroke-width:0.5;" width="223" x="174.5" y="1336.0039"/><ellipse cx="190.5" cy="1366.1602" fill="#FF8B40" rx="12" ry="12" style="stroke:#181818;stroke-width:1.0;"/><path d="M191,1370.2383 L193.8906,1363.332 L193.4375,1363.332 Q192.7188,1363.332 192.4063,1363.0508 Q192.0938,1362.7695 192.0938,1362.3164 Q192.0938,1361.8633 192.4063,1361.5977 Q192.7188,1361.3164 193.4375,1361.3164 L196.125,1361.3164 Q196.8438,1361.3164 197.1563,1361.5977 Q197.4688,1361.8633 197.4688,1362.3164 Q197.4688,1362.8633 197,1363.1758 Q196.7656,1363.332 196.0781,1363.332 L191.9688,1373.1602 L190.0469,1373.1602 L185.9375,1363.332 Q185.2344,1363.332 185.0156,1363.1758 Q184.5469,1362.8633 184.5469,1362.3164 Q184.5469,1361.8633 184.8594,1361.5977 Q185.1563,1361.3164 185.875,1361.3164 L188.5781,1361.3164 Q189.2969,1361.3164 189.5938,1361.5977 Q189.9063,1361.8633 189.9063,1362.3164 Q189.9063,1362.7695 189.6094,1363.0508 Q189.3125,1363.332 188.5781,1363.332 L188.1094,1363.332 L191,1370.2383 Z " fill="#000000"/><text fill="#000000" font-family="sans-serif" font-size="20" font-style="italic" lengthAdjust="spacing" textLength="128" x="236" y="1361.7656">«value object»</text><text fill="#000000" font-family="sans-serif" font-size="20" lengthAdjust="spacing" textLength="189" x="205.5" y="1386.9219">Room Availability Slot</text><line style="stroke:#181818;stroke-width:0.5;" x1="175.5" x2="396.5" y1="1396.3164" y2="1396.3164"/><line style="stroke:#181818;stroke-width:0.5;" x1="175.5" x2="396.5" y1="1404.3164" y2="1404.3164"/></g><!--class Room_Main--><g id="elem_Room_Main"><rect codeLine="56" fill="#F1F1F1" height="76.3125" id="Room_Main" rx="2.5" ry="2.5" style="stroke:#181818;stroke-width:0.5;" width="243" x="432.5" y="1336.0039"/><ellipse cx="448.5" cy="1366.1602" fill="#FF8B40" rx="12" ry="12" style="stroke:#181818;stroke-width:1.0;"/><path d="M449,1370.2383 L451.8906,1363.332 L451.4375,1363.332 Q450.7188,1363.332 450.4063,1363.0508 Q450.0938,1362.7695 450.0938,1362.3164 Q450.0938,1361.8633 450.4063,1361.5977 Q450.7188,1361.3164 451.4375,1361.3164 L454.125,1361.3164 Q454.8438,1361.3164 455.1563,1361.5977 Q455.4688,1361.8633 455.4688,1362.3164 Q455.4688,1362.8633 455,1363.1758 Q454.7656,1363.332 454.0781,1363.332 L449.9688,1373.1602 L448.0469,1373.1602 L443.9375,1363.332 Q443.2344,1363.332 443.0156,1363.1758 Q442.5469,1362.8633 442.5469,1362.3164 Q442.5469,1361.8633 442.8594,1361.5977 Q443.1563,1361.3164 443.875,1361.3164 L446.5781,1361.3164 Q447.2969,1361.3164 447.5938,1361.5977 Q447.9063,1361.8633 447.9063,1362.3164 Q447.9063,1362.7695 447.6094,1363.0508 Q447.3125,1363.332 446.5781,1363.332 L446.1094,1363.332 L449,1370.2383 Z " fill="#000000"/><text fill="#000000" font-family="sans-serif" font-size="20" font-style="italic" lengthAdjust="spacing" textLength="128" x="504" y="1361.7656">«value object»</text><text fill="#000000" font-family="sans-serif" font-size="20" lengthAdjust="spacing" textLength="209" x="463.5" y="1386.9219">Room Maintenance Slot</text><line style="stroke:#181818;stroke-width:0.5;" x1="433.5" x2="674.5" y1="1396.3164" y2="1396.3164"/><line style="stroke:#181818;stroke-width:0.5;" x1="433.5" x2="674.5" y1="1404.3164" y2="1404.3164"/></g><!--class Room_Type--><g id="elem_Room_Type"><rect codeLine="58" fill="#F1F1F1" height="76.3125" id="Room_Type" rx="2.5" ry="2.5" style="stroke:#181818;stroke-width:0.5;" width="158" x="215" y="1160.5039"/><ellipse cx="231" cy="1190.6602" fill="#FF8B40" rx="12" ry="12" style="stroke:#181818;stroke-width:1.0;"/><path d="M231.5,1194.7383 L234.3906,1187.832 L233.9375,1187.832 Q233.2188,1187.832 232.9063,1187.5508 Q232.5938,1187.2695 232.5938,1186.8164 Q232.5938,1186.3633 232.9063,1186.0977 Q233.2188,1185.8164 233.9375,1185.8164 L236.625,1185.8164 Q237.3438,1185.8164 237.6563,1186.0977 Q237.9688,1186.3633 237.9688,1186.8164 Q237.9688,1187.3633 237.5,1187.6758 Q237.2656,1187.832 236.5781,1187.832 L232.4688,1197.6602 L230.5469,1197.6602 L226.4375,1187.832 Q225.7344,1187.832 225.5156,1187.6758 Q225.0469,1187.3633 225.0469,1186.8164 Q225.0469,1186.3633 225.3594,1186.0977 Q225.6563,1185.8164 226.375,1185.8164 L229.0781,1185.8164 Q229.7969,1185.8164 230.0938,1186.0977 Q230.4063,1186.3633 230.4063,1186.8164 Q230.4063,1187.2695 230.1094,1187.5508 Q229.8125,1187.832 229.0781,1187.832 L228.6094,1187.832 L231.5,1194.7383 Z " fill="#000000"/><text fill="#000000" font-family="sans-serif" font-size="20" font-style="italic" lengthAdjust="spacing" textLength="128" x="244" y="1186.2656">«value object»</text><text fill="#000000" font-family="sans-serif" font-size="20" lengthAdjust="spacing" textLength="102" x="257" y="1211.4219">Room Type</text><line style="stroke:#181818;stroke-width:0.5;" x1="216" x2="372" y1="1220.8164" y2="1220.8164"/><line style="stroke:#181818;stroke-width:0.5;" x1="216" x2="372" y1="1228.8164" y2="1228.8164"/></g><!--class Schedule--><g id="elem_Schedule"><rect codeLine="60" fill="#F1F1F1" height="51.1563" id="Schedule" rx="2.5" ry="2.5" style="stroke:#181818;stroke-width:0.5;" width="114" x="408" y="1173.0039"/><ellipse cx="424" cy="1190.582" fill="#ADD1B2" rx="12" ry="12" style="stroke:#181818;stroke-width:1.0;"/><path d="M421.9531,1191.6445 L421.9531,1194.582 L427.0469,1194.582 L427.0469,1193.4883 Q427.0469,1192.7695 427.3281,1192.4727 Q427.6094,1192.1602 428.0625,1192.1602 Q428.5,1192.1602 428.7813,1192.4727 Q429.0625,1192.7695 429.0625,1193.4883 L429.0625,1196.582 L419.625,1196.582 Q418.9063,1196.582 418.5938,1196.3008 Q418.2969,1196.0195 418.2969,1195.582 Q418.2969,1195.1289 418.6094,1194.8633 Q418.9219,1194.582 419.625,1194.582 L419.9375,1194.582 L419.9375,1186.7539 L419.625,1186.7539 Q418.9063,1186.7539 418.5938,1186.4727 Q418.2969,1186.1914 418.2969,1185.7383 Q418.2969,1185.2852 418.5938,1185.0195 Q418.9063,1184.7383 419.625,1184.7383 L428.6094,1184.7383 L428.6094,1187.7852 Q428.6094,1188.5039 428.3281,1188.8164 Q428.0625,1189.1133 427.625,1189.1133 Q427.1719,1189.1133 426.8906,1188.8164 Q426.6094,1188.5195 426.6094,1187.7852 L426.6094,1186.7539 L421.9531,1186.7539 L421.9531,1189.6445 L423.7031,1189.6445 Q423.7031,1188.8633 423.8438,1188.6289 Q424.1563,1188.1602 424.7031,1188.1602 Q425.1563,1188.1602 425.4219,1188.4727 Q425.7031,1188.7695 425.7031,1189.4883 L425.7031,1191.8008 Q425.7031,1192.457 425.5469,1192.6758 Q425.2344,1193.1289 424.7031,1193.1289 Q424.1563,1193.1289 423.8438,1192.6602 Q423.7031,1192.4258 423.7031,1191.6445 L421.9531,1191.6445 Z " fill="#000000"/><text fill="#000000" font-family="sans-serif" font-size="20" lengthAdjust="spacing" textLength="80" x="439" y="1198.7656">Schedule</text><line style="stroke:#181818;stroke-width:0.5;" x1="409" x2="521" y1="1208.1602" y2="1208.1602"/><line style="stroke:#181818;stroke-width:0.5;" x1="409" x2="521" y1="1216.1602" y2="1216.1602"/></g><!--class Capacity--><g id="elem_Capacity"><rect codeLine="62" fill="#F1F1F1" height="76.3125" id="Capacity" rx="2.5" ry="2.5" style="stroke:#181818;stroke-width:0.5;" width="158" x="557" y="1160.5039"/><ellipse cx="573" cy="1190.6602" fill="#FF8B40" rx="12" ry="12" style="stroke:#181818;stroke-width:1.0;"/><path d="M573.5,1194.7383 L576.3906,1187.832 L575.9375,1187.832 Q575.2188,1187.832 574.9063,1187.5508 Q574.5938,1187.2695 574.5938,1186.8164 Q574.5938,1186.3633 574.9063,1186.0977 Q575.2188,1185.8164 575.9375,1185.8164 L578.625,1185.8164 Q579.3438,1185.8164 579.6563,1186.0977 Q579.9688,1186.3633 579.9688,1186.8164 Q579.9688,1187.3633 579.5,1187.6758 Q579.2656,1187.832 578.5781,1187.832 L574.4688,1197.6602 L572.5469,1197.6602 L568.4375,1187.832 Q567.7344,1187.832 567.5156,1187.6758 Q567.0469,1187.3633 567.0469,1186.8164 Q567.0469,1186.3633 567.3594,1186.0977 Q567.6563,1185.8164 568.375,1185.8164 L571.0781,1185.8164 Q571.7969,1185.8164 572.0938,1186.0977 Q572.4063,1186.3633 572.4063,1186.8164 Q572.4063,1187.2695 572.1094,1187.5508 Q571.8125,1187.832 571.0781,1187.832 L570.6094,1187.832 L573.5,1194.7383 Z " fill="#000000"/><text fill="#000000" font-family="sans-serif" font-size="20" font-style="italic" lengthAdjust="spacing" textLength="128" x="586" y="1186.2656">«value object»</text><text fill="#000000" font-family="sans-serif" font-size="20" lengthAdjust="spacing" textLength="77" x="611.5" y="1211.4219">Capacity</text><line style="stroke:#181818;stroke-width:0.5;" x1="558" x2="714" y1="1220.8164" y2="1220.8164"/><line style="stroke:#181818;stroke-width:0.5;" x1="558" x2="714" y1="1228.8164" y2="1228.8164"/></g><!--class Equipment--><g id="elem_Equipment"><rect codeLine="68" fill="#F1F1F1" height="101.4688" id="Equipment" rx="2.5" ry="2.5" style="stroke:#181818;stroke-width:0.5;" width="126" x="776" y="1148.0039"/><ellipse cx="792" cy="1190.7383" fill="#ADD1B2" rx="12" ry="12" style="stroke:#181818;stroke-width:1.0;"/><path d="M789.9531,1191.8008 L789.9531,1194.7383 L795.0469,1194.7383 L795.0469,1193.6445 Q795.0469,1192.9258 795.3281,1192.6289 Q795.6094,1192.3164 796.0625,1192.3164 Q796.5,1192.3164 796.7813,1192.6289 Q797.0625,1192.9258 797.0625,1193.6445 L797.0625,1196.7383 L787.625,1196.7383 Q786.9063,1196.7383 786.5938,1196.457 Q786.2969,1196.1758 786.2969,1195.7383 Q786.2969,1195.2852 786.6094,1195.0195 Q786.9219,1194.7383 787.625,1194.7383 L787.9375,1194.7383 L787.9375,1186.9102 L787.625,1186.9102 Q786.9063,1186.9102 786.5938,1186.6289 Q786.2969,1186.3477 786.2969,1185.8945 Q786.2969,1185.4414 786.5938,1185.1758 Q786.9063,1184.8945 787.625,1184.8945 L796.6094,1184.8945 L796.6094,1187.9414 Q796.6094,1188.6602 796.3281,1188.9727 Q796.0625,1189.2695 795.625,1189.2695 Q795.1719,1189.2695 794.8906,1188.9727 Q794.6094,1188.6758 794.6094,1187.9414 L794.6094,1186.9102 L789.9531,1186.9102 L789.9531,1189.8008 L791.7031,1189.8008 Q791.7031,1189.0195 791.8438,1188.7852 Q792.1563,1188.3164 792.7031,1188.3164 Q793.1563,1188.3164 793.4219,1188.6289 Q793.7031,1188.9258 793.7031,1189.6445 L793.7031,1191.957 Q793.7031,1192.6133 793.5469,1192.832 Q793.2344,1193.2852 792.7031,1193.2852 Q792.1563,1193.2852 791.8438,1192.8164 Q791.7031,1192.582 791.7031,1191.8008 L789.9531,1191.8008 Z " fill="#000000"/><text fill="#000000" font-family="sans-serif" font-size="20" font-style="italic" lengthAdjust="spacing" textLength="69" x="818.5" y="1173.7656">«entity»</text><text fill="#000000" font-family="sans-serif" font-size="20" font-style="italic" lengthAdjust="spacing" textLength="56" x="825" y="1198.9219">«root»</text><text fill="#000000" font-family="sans-serif" font-size="20" lengthAdjust="spacing" textLength="92" x="807" y="1224.0781">Equipment</text><line style="stroke:#181818;stroke-width:0.5;" x1="777" x2="901" y1="1233.4727" y2="1233.4727"/><line style="stroke:#181818;stroke-width:0.5;" x1="777" x2="901" y1="1241.4727" y2="1241.4727"/></g><!--class Equip_Avail--><g id="elem_Equip_Avail"><rect codeLine="70" fill="#F1F1F1" height="76.3125" id="Equip_Avail" rx="2.5" ry="2.5" style="stroke:#181818;stroke-width:0.5;" width="263" x="771.5" y="1336.0039"/><ellipse cx="787.5" cy="1366.1602" fill="#FF8B40" rx="12" ry="12" style="stroke:#181818;stroke-width:1.0;"/><path d="M788,1370.2383 L790.8906,1363.332 L790.4375,1363.332 Q789.7188,1363.332 789.4063,1363.0508 Q789.0938,1362.7695 789.0938,1362.3164 Q789.0938,1361.8633 789.4063,1361.5977 Q789.7188,1361.3164 790.4375,1361.3164 L793.125,1361.3164 Q793.8438,1361.3164 794.1563,1361.5977 Q794.4688,1361.8633 794.4688,1362.3164 Q794.4688,1362.8633 794,1363.1758 Q793.7656,1363.332 793.0781,1363.332 L788.9688,1373.1602 L787.0469,1373.1602 L782.9375,1363.332 Q782.2344,1363.332 782.0156,1363.1758 Q781.5469,1362.8633 781.5469,1362.3164 Q781.5469,1361.8633 781.8594,1361.5977 Q782.1563,1361.3164 782.875,1361.3164 L785.5781,1361.3164 Q786.2969,1361.3164 786.5938,1361.5977 Q786.9063,1361.8633 786.9063,1362.3164 Q786.9063,1362.7695 786.6094,1363.0508 Q786.3125,1363.332 785.5781,1363.332 L785.1094,1363.332 L788,1370.2383 Z " fill="#000000"/><text fill="#000000" font-family="sans-serif" font-size="20" font-style="italic" lengthAdjust="spacing" textLength="128" x="853" y="1361.7656">«value object»</text><text fill="#000000" font-family="sans-serif" font-size="20" lengthAdjust="spacing" textLength="229" x="802.5" y="1386.9219">Equipment Availability Slot</text><line style="stroke:#181818;stroke-width:0.5;" x1="772.5" x2="1033.5" y1="1396.3164" y2="1396.3164"/><line style="stroke:#181818;stroke-width:0.5;" x1="772.5" x2="1033.5" y1="1404.3164" y2="1404.3164"/></g><!--class Oper_Type--><g id="elem_Oper_Type"><rect codeLine="76" fill="#F1F1F1" height="76.3125" id="Oper_Type" rx="2.5" ry="2.5" style="stroke:#181818;stroke-width:0.5;" width="171" x="1292.5" y="942.5039"/><ellipse cx="1308.5" cy="972.6602" fill="#FF8B40" rx="12" ry="12" style="stroke:#181818;stroke-width:1.0;"/><path d="M1309,976.7383 L1311.8906,969.832 L1311.4375,969.832 Q1310.7188,969.832 1310.4063,969.5508 Q1310.0938,969.2695 1310.0938,968.8164 Q1310.0938,968.3633 1310.4063,968.0977 Q1310.7188,967.8164 1311.4375,967.8164 L1314.125,967.8164 Q1314.8438,967.8164 1315.1563,968.0977 Q1315.4688,968.3633 1315.4688,968.8164 Q1315.4688,969.3633 1315,969.6758 Q1314.7656,969.832 1314.0781,969.832 L1309.9688,979.6602 L1308.0469,979.6602 L1303.9375,969.832 Q1303.2344,969.832 1303.0156,969.6758 Q1302.5469,969.3633 1302.5469,968.8164 Q1302.5469,968.3633 1302.8594,968.0977 Q1303.1563,967.8164 1303.875,967.8164 L1306.5781,967.8164 Q1307.2969,967.8164 1307.5938,968.0977 Q1307.9063,968.3633 1307.9063,968.8164 Q1307.9063,969.2695 1307.6094,969.5508 Q1307.3125,969.832 1306.5781,969.832 L1306.1094,969.832 L1309,976.7383 Z " fill="#000000"/><text fill="#000000" font-family="sans-serif" font-size="20" font-style="italic" lengthAdjust="spacing" textLength="128" x="1328" y="968.2656">«value object»</text><text fill="#000000" font-family="sans-serif" font-size="20" lengthAdjust="spacing" textLength="137" x="1323.5" y="993.4219">Operation Type</text><line style="stroke:#181818;stroke-width:0.5;" x1="1293.5" x2="1462.5" y1="1002.8164" y2="1002.8164"/><line style="stroke:#181818;stroke-width:0.5;" x1="1293.5" x2="1462.5" y1="1010.8164" y2="1010.8164"/></g><!--class Oper_Status--><g id="elem_Oper_Status"><rect codeLine="78" fill="#F1F1F1" height="76.3125" id="Oper_Status" rx="2.5" ry="2.5" style="stroke:#181818;stroke-width:0.5;" width="183" x="1498.5" y="942.5039"/><ellipse cx="1514.5" cy="972.6602" fill="#FF8B40" rx="12" ry="12" style="stroke:#181818;stroke-width:1.0;"/><path d="M1515,976.7383 L1517.8906,969.832 L1517.4375,969.832 Q1516.7188,969.832 1516.4063,969.5508 Q1516.0938,969.2695 1516.0938,968.8164 Q1516.0938,968.3633 1516.4063,968.0977 Q1516.7188,967.8164 1517.4375,967.8164 L1520.125,967.8164 Q1520.8438,967.8164 1521.1563,968.0977 Q1521.4688,968.3633 1521.4688,968.8164 Q1521.4688,969.3633 1521,969.6758 Q1520.7656,969.832 1520.0781,969.832 L1515.9688,979.6602 L1514.0469,979.6602 L1509.9375,969.832 Q1509.2344,969.832 1509.0156,969.6758 Q1508.5469,969.3633 1508.5469,968.8164 Q1508.5469,968.3633 1508.8594,968.0977 Q1509.1563,967.8164 1509.875,967.8164 L1512.5781,967.8164 Q1513.2969,967.8164 1513.5938,968.0977 Q1513.9063,968.3633 1513.9063,968.8164 Q1513.9063,969.2695 1513.6094,969.5508 Q1513.3125,969.832 1512.5781,969.832 L1512.1094,969.832 L1515,976.7383 Z " fill="#000000"/><text fill="#000000" font-family="sans-serif" font-size="20" font-style="italic" lengthAdjust="spacing" textLength="128" x="1540" y="968.2656">«value object»</text><text fill="#000000" font-family="sans-serif" font-size="20" lengthAdjust="spacing" textLength="149" x="1529.5" y="993.4219">Operation Status</text><line style="stroke:#181818;stroke-width:0.5;" x1="1499.5" x2="1680.5" y1="1002.8164" y2="1002.8164"/><line style="stroke:#181818;stroke-width:0.5;" x1="1499.5" x2="1680.5" y1="1010.8164" y2="1010.8164"/></g><!--class Priority--><g id="elem_Priority"><rect codeLine="80" fill="#F1F1F1" height="76.3125" id="Priority" rx="2.5" ry="2.5" style="stroke:#181818;stroke-width:0.5;" width="158" x="1099" y="942.5039"/><ellipse cx="1115" cy="972.6602" fill="#FF8B40" rx="12" ry="12" style="stroke:#181818;stroke-width:1.0;"/><path d="M1115.5,976.7383 L1118.3906,969.832 L1117.9375,969.832 Q1117.2188,969.832 1116.9063,969.5508 Q1116.5938,969.2695 1116.5938,968.8164 Q1116.5938,968.3633 1116.9063,968.0977 Q1117.2188,967.8164 1117.9375,967.8164 L1120.625,967.8164 Q1121.3438,967.8164 1121.6563,968.0977 Q1121.9688,968.3633 1121.9688,968.8164 Q1121.9688,969.3633 1121.5,969.6758 Q1121.2656,969.832 1120.5781,969.832 L1116.4688,979.6602 L1114.5469,979.6602 L1110.4375,969.832 Q1109.7344,969.832 1109.5156,969.6758 Q1109.0469,969.3633 1109.0469,968.8164 Q1109.0469,968.3633 1109.3594,968.0977 Q1109.6563,967.8164 1110.375,967.8164 L1113.0781,967.8164 Q1113.7969,967.8164 1114.0938,968.0977 Q1114.4063,968.3633 1114.4063,968.8164 Q1114.4063,969.2695 1114.1094,969.5508 Q1113.8125,969.832 1113.0781,969.832 L1112.6094,969.832 L1115.5,976.7383 Z " fill="#000000"/><text fill="#000000" font-family="sans-serif" font-size="20" font-style="italic" lengthAdjust="spacing" textLength="128" x="1128" y="968.2656">«value object»</text><text fill="#000000" font-family="sans-serif" font-size="20" lengthAdjust="spacing" textLength="62" x="1161" y="993.4219">Priority</text><line style="stroke:#181818;stroke-width:0.5;" x1="1100" x2="1256" y1="1002.8164" y2="1002.8164"/><line style="stroke:#181818;stroke-width:0.5;" x1="1100" x2="1256" y1="1010.8164" y2="1010.8164"/></g><!--class Appoint--><g id="elem_Appoint"><rect codeLine="82" fill="#F1F1F1" height="101.4688" id="Appoint" rx="2.5" ry="2.5" style="stroke:#181818;stroke-width:0.5;" width="143" x="1380.5" y="710.0039"/><ellipse cx="1396.5" cy="752.7383" fill="#ADD1B2" rx="12" ry="12" style="stroke:#181818;stroke-width:1.0;"/><path d="M1394.4531,753.8008 L1394.4531,756.7383 L1399.5469,756.7383 L1399.5469,755.6445 Q1399.5469,754.9258 1399.8281,754.6289 Q1400.1094,754.3164 1400.5625,754.3164 Q1401,754.3164 1401.2813,754.6289 Q1401.5625,754.9258 1401.5625,755.6445 L1401.5625,758.7383 L1392.125,758.7383 Q1391.4063,758.7383 1391.0938,758.457 Q1390.7969,758.1758 1390.7969,757.7383 Q1390.7969,757.2852 1391.1094,757.0195 Q1391.4219,756.7383 1392.125,756.7383 L1392.4375,756.7383 L1392.4375,748.9102 L1392.125,748.9102 Q1391.4063,748.9102 1391.0938,748.6289 Q1390.7969,748.3477 1390.7969,747.8945 Q1390.7969,747.4414 1391.0938,747.1758 Q1391.4063,746.8945 1392.125,746.8945 L1401.1094,746.8945 L1401.1094,749.9414 Q1401.1094,750.6602 1400.8281,750.9727 Q1400.5625,751.2695 1400.125,751.2695 Q1399.6719,751.2695 1399.3906,750.9727 Q1399.1094,750.6758 1399.1094,749.9414 L1399.1094,748.9102 L1394.4531,748.9102 L1394.4531,751.8008 L1396.2031,751.8008 Q1396.2031,751.0195 1396.3438,750.7852 Q1396.6563,750.3164 1397.2031,750.3164 Q1397.6563,750.3164 1397.9219,750.6289 Q1398.2031,750.9258 1398.2031,751.6445 L1398.2031,753.957 Q1398.2031,754.6133 1398.0469,754.832 Q1397.7344,755.2852 1397.2031,755.2852 Q1396.6563,755.2852 1396.3438,754.8164 Q1396.2031,754.582 1396.2031,753.8008 L1394.4531,753.8008 Z " fill="#000000"/><text fill="#000000" font-family="sans-serif" font-size="20" font-style="italic" lengthAdjust="spacing" textLength="69" x="1431.5" y="735.7656">«entity»</text><text fill="#000000" font-family="sans-serif" font-size="20" font-style="italic" lengthAdjust="spacing" textLength="56" x="1438" y="760.9219">«root»</text><text fill="#000000" font-family="sans-serif" font-size="20" lengthAdjust="spacing" textLength="109" x="1411.5" y="786.0781">Appointment</text><line style="stroke:#181818;stroke-width:0.5;" x1="1381.5" x2="1522.5" y1="795.4727" y2="795.4727"/><line style="stroke:#181818;stroke-width:0.5;" x1="1381.5" x2="1522.5" y1="803.4727" y2="803.4727"/></g><!--class Operation_Request--><g id="elem_Operation_Request"><rect codeLine="88" fill="#F1F1F1" height="101.4688" id="Operation_Request" rx="2.5" ry="2.5" style="stroke:#181818;stroke-width:0.5;" width="222" x="1788" y="710.0039"/><ellipse cx="1804" cy="752.7383" fill="#ADD1B2" rx="12" ry="12" style="stroke:#181818;stroke-width:1.0;"/><path d="M1801.9531,753.8008 L1801.9531,756.7383 L1807.0469,756.7383 L1807.0469,755.6445 Q1807.0469,754.9258 1807.3281,754.6289 Q1807.6094,754.3164 1808.0625,754.3164 Q1808.5,754.3164 1808.7813,754.6289 Q1809.0625,754.9258 1809.0625,755.6445 L1809.0625,758.7383 L1799.625,758.7383 Q1798.9063,758.7383 1798.5938,758.457 Q1798.2969,758.1758 1798.2969,757.7383 Q1798.2969,757.2852 1798.6094,757.0195 Q1798.9219,756.7383 1799.625,756.7383 L1799.9375,756.7383 L1799.9375,748.9102 L1799.625,748.9102 Q1798.9063,748.9102 1798.5938,748.6289 Q1798.2969,748.3477 1798.2969,747.8945 Q1798.2969,747.4414 1798.5938,747.1758 Q1798.9063,746.8945 1799.625,746.8945 L1808.6094,746.8945 L1808.6094,749.9414 Q1808.6094,750.6602 1808.3281,750.9727 Q1808.0625,751.2695 1807.625,751.2695 Q1807.1719,751.2695 1806.8906,750.9727 Q1806.6094,750.6758 1806.6094,749.9414 L1806.6094,748.9102 L1801.9531,748.9102 L1801.9531,751.8008 L1803.7031,751.8008 Q1803.7031,751.0195 1803.8438,750.7852 Q1804.1563,750.3164 1804.7031,750.3164 Q1805.1563,750.3164 1805.4219,750.6289 Q1805.7031,750.9258 1805.7031,751.6445 L1805.7031,753.957 Q1805.7031,754.6133 1805.5469,754.832 Q1805.2344,755.2852 1804.7031,755.2852 Q1804.1563,755.2852 1803.8438,754.8164 Q1803.7031,754.582 1803.7031,753.8008 L1801.9531,753.8008 Z " fill="#000000"/><text fill="#000000" font-family="sans-serif" font-size="20" font-style="italic" lengthAdjust="spacing" textLength="69" x="1878.5" y="735.7656">«entity»</text><text fill="#000000" font-family="sans-serif" font-size="20" font-style="italic" lengthAdjust="spacing" textLength="56" x="1885" y="760.9219">«root»</text><text fill="#000000" font-family="sans-serif" font-size="20" lengthAdjust="spacing" textLength="188" x="1819" y="786.0781">Operation Requisition</text><line style="stroke:#181818;stroke-width:0.5;" x1="1789" x2="2009" y1="795.4727" y2="795.4727"/><line style="stroke:#181818;stroke-width:0.5;" x1="1789" x2="2009" y1="803.4727" y2="803.4727"/></g><!--class Appointment_History--><g id="elem_Appointment_History"><rect codeLine="94" fill="#F1F1F1" height="76.3125" id="Appointment_History" rx="2.5" ry="2.5" style="stroke:#181818;stroke-width:0.5;" width="210" x="1365" y="1160.5039"/><ellipse cx="1381" cy="1190.6602" fill="#FF8B40" rx="12" ry="12" style="stroke:#181818;stroke-width:1.0;"/><path d="M1381.5,1194.7383 L1384.3906,1187.832 L1383.9375,1187.832 Q1383.2188,1187.832 1382.9063,1187.5508 Q1382.5938,1187.2695 1382.5938,1186.8164 Q1382.5938,1186.3633 1382.9063,1186.0977 Q1383.2188,1185.8164 1383.9375,1185.8164 L1386.625,1185.8164 Q1387.3438,1185.8164 1387.6563,1186.0977 Q1387.9688,1186.3633 1387.9688,1186.8164 Q1387.9688,1187.3633 1387.5,1187.6758 Q1387.2656,1187.832 1386.5781,1187.832 L1382.4688,1197.6602 L1380.5469,1197.6602 L1376.4375,1187.832 Q1375.7344,1187.832 1375.5156,1187.6758 Q1375.0469,1187.3633 1375.0469,1186.8164 Q1375.0469,1186.3633 1375.3594,1186.0977 Q1375.6563,1185.8164 1376.375,1185.8164 L1379.0781,1185.8164 Q1379.7969,1185.8164 1380.0938,1186.0977 Q1380.4063,1186.3633 1380.4063,1186.8164 Q1380.4063,1187.2695 1380.1094,1187.5508 Q1379.8125,1187.832 1379.0781,1187.832 L1378.6094,1187.832 L1381.5,1194.7383 Z " fill="#000000"/><text fill="#000000" font-family="sans-serif" font-size="20" font-style="italic" lengthAdjust="spacing" textLength="128" x="1420" y="1186.2656">«value object»</text><text fill="#000000" font-family="sans-serif" font-size="20" lengthAdjust="spacing" textLength="176" x="1396" y="1211.4219">Appointment History</text><line style="stroke:#181818;stroke-width:0.5;" x1="1366" x2="1574" y1="1220.8164" y2="1220.8164"/><line style="stroke:#181818;stroke-width:0.5;" x1="1366" x2="1574" y1="1228.8164" y2="1228.8164"/></g><!--class appoint_slot--><g id="elem_appoint_slot"><rect codeLine="96" fill="#F1F1F1" height="76.3125" id="appoint_slot" rx="2.5" ry="2.5" style="stroke:#181818;stroke-width:0.5;" width="183" x="1716.5" y="942.5039"/><ellipse cx="1732.5" cy="972.6602" fill="#FF8B40" rx="12" ry="12" style="stroke:#181818;stroke-width:1.0;"/><path d="M1733,976.7383 L1735.8906,969.832 L1735.4375,969.832 Q1734.7188,969.832 1734.4063,969.5508 Q1734.0938,969.2695 1734.0938,968.8164 Q1734.0938,968.3633 1734.4063,968.0977 Q1734.7188,967.8164 1735.4375,967.8164 L1738.125,967.8164 Q1738.8438,967.8164 1739.1563,968.0977 Q1739.4688,968.3633 1739.4688,968.8164 Q1739.4688,969.3633 1739,969.6758 Q1738.7656,969.832 1738.0781,969.832 L1733.9688,979.6602 L1732.0469,979.6602 L1727.9375,969.832 Q1727.2344,969.832 1727.0156,969.6758 Q1726.5469,969.3633 1726.5469,968.8164 Q1726.5469,968.3633 1726.8594,968.0977 Q1727.1563,967.8164 1727.875,967.8164 L1730.5781,967.8164 Q1731.2969,967.8164 1731.5938,968.0977 Q1731.9063,968.3633 1731.9063,968.8164 Q1731.9063,969.2695 1731.6094,969.5508 Q1731.3125,969.832 1730.5781,969.832 L1730.1094,969.832 L1733,976.7383 Z " fill="#000000"/><text fill="#000000" font-family="sans-serif" font-size="20" font-style="italic" lengthAdjust="spacing" textLength="128" x="1758" y="968.2656">«value object»</text><text fill="#000000" font-family="sans-serif" font-size="20" lengthAdjust="spacing" textLength="149" x="1747.5" y="993.4219">Appointment Slot</text><line style="stroke:#181818;stroke-width:0.5;" x1="1717.5" x2="1898.5" y1="1002.8164" y2="1002.8164"/><line style="stroke:#181818;stroke-width:0.5;" x1="1717.5" x2="1898.5" y1="1010.8164" y2="1010.8164"/></g><!--reverse link Credentials to Username--><g id="link_Credentials_Username"><path codeLine="100" d="M2675.36,407.9739 C2691.89,441.2139 2713.42,484.5039 2728.55,514.9039 " fill="none" id="Credentials-backto-Username" style="stroke:#181818;stroke-width:1.0;"/><polygon fill="#181818" points="2669.51,396.2139,2668.6015,403.3676,2674.8554,406.9576,2675.7639,399.8039,2669.51,396.2139" style="stroke:#181818;stroke-width:1.0;"/><polygon fill="#000000" points="2715.563,461.2448,2713.3277,446.193,2704.9073,450.3815,2715.563,461.2448" style="stroke:#000000;stroke-width:1.0;"/><text fill="#000000" font-family="sans-serif" font-size="20" lengthAdjust="spacing" textLength="72" x="2725" y="462.2656">contains</text><text fill="#000000" font-family="sans-serif" font-size="20" lengthAdjust="spacing" textLength="11" x="2713.733" y="502.5888">1</text></g><!--reverse link Credentials to Password--><g id="link_Credentials_Password"><path codeLine="102" d="M2611.81,407.0539 C2604.25,417.6739 2596.87,429.1539 2591,440.5039 C2578.77,464.1439 2569.39,492.6539 2563.14,514.9339 " fill="none" id="Credentials-backto-Password" style="stroke:#181818;stroke-width:1.0;"/><polygon fill="#181818" points="2619.69,396.3439,2612.9108,398.8021,2612.5725,406.0052,2619.3517,403.5471,2619.69,396.3439" style="stroke:#181818;stroke-width:1.0;"/><polygon fill="#000000" points="2595.7101,461.3743,2605.9478,450.1162,2597.3753,446.2487,2595.7101,461.3743" style="stroke:#000000;stroke-width:1.0;"/><text fill="#000000" font-family="sans-serif" font-size="20" lengthAdjust="spacing" textLength="72" x="2612" y="462.2656">contains</text><text fill="#000000" font-family="sans-serif" font-size="20" lengthAdjust="spacing" textLength="11" x="2552.7201" y="502.6236">1</text></g><!--reverse link User to Email--><g id="link_User_Email"><path codeLine="104" d="M2607.49,169.1239 C2649.34,189.8239 2704.75,220.3939 2748,255.5039 C2771.73,274.7639 2795.35,299.6539 2813.23,319.9639 " fill="none" id="User-backto-Email" style="stroke:#181818;stroke-width:1.0;"/><polygon fill="#181818" points="2595.8,163.4239,2599.4391,169.6494,2606.5853,168.6847,2602.9463,162.4592,2595.8,163.4239" style="stroke:#181818;stroke-width:1.0;"/><polygon fill="#000000" points="2747.4518,238.8122,2738.5607,226.463,2733.0001,234.0475,2747.4518,238.8122" style="stroke:#000000;stroke-width:1.0;"/><text fill="#000000" font-family="sans-serif" font-size="20" lengthAdjust="spacing" textLength="31" x="2754" y="242.2656">has</text><text fill="#000000" font-family="sans-serif" font-size="20" lengthAdjust="spacing" textLength="11" x="2796.4495" y="307.6584">1</text></g><!--reverse link User to Profile--><g id="link_User_Profile"><path codeLine="106" d="M2484.51,166.2239 C2454.96,179.9239 2419.99,198.5539 2392,220.5039 C2360.34,245.3439 2330.59,279.4639 2308.75,307.3839 " fill="none" id="User-backto-Profile" style="stroke:#181818;stroke-width:1.0;"/><polygon fill="#181818" points="2496.38,160.8539,2489.2647,159.6823,2485.4466,165.7997,2492.5619,166.9713,2496.38,160.8539" style="stroke:#181818;stroke-width:1.0;"/><polygon fill="#000000" points="2393.7626,239.0915,2407.9907,233.6955,2402.1016,226.363,2393.7626,239.0915" style="stroke:#000000;stroke-width:1.0;"/><text fill="#000000" font-family="sans-serif" font-size="20" lengthAdjust="spacing" textLength="46" x="2413" y="242.2656">owns</text><text fill="#000000" font-family="sans-serif" font-size="20" lengthAdjust="spacing" textLength="11" x="2477.6288" y="157.7679">1</text><text fill="#000000" font-family="sans-serif" font-size="20" lengthAdjust="spacing" textLength="11" x="2301.6258" y="295.0384">1</text></g><!--reverse link User to Role--><g id="link_User_Role"><path codeLine="108" d="M2488.51,200.3039 C2484.1,206.7939 2480.15,213.5739 2477,220.5039 C2462.7,251.9839 2458.49,291.4139 2457.53,319.7939 " fill="none" id="User-backto-Role" style="stroke:#181818;stroke-width:1.0;"/><polygon fill="none" points="2496.29,189.6739,2489.519,192.1545,2489.2045,199.3587,2495.9755,196.8781,2496.29,189.6739" style="stroke:#181818;stroke-width:1.0;"/><polygon fill="#000000" points="2482.9922,241.826,2491.1761,228.9972,2482.0725,226.6369,2482.9922,241.826" style="stroke:#000000;stroke-width:1.0;"/><text fill="#000000" font-family="sans-serif" font-size="20" lengthAdjust="spacing" textLength="101" x="2498" y="242.2656">assigned to</text><text fill="#000000" font-family="sans-serif" font-size="20" lengthAdjust="spacing" textLength="11" x="2477.5261" y="190.6407">1</text><text fill="#000000" font-family="sans-serif" font-size="20" lengthAdjust="spacing" textLength="11" x="2445.5785" y="307.4613">1</text></g><!--reverse link User to Credentials--><g id="link_User_Credentials"><path codeLine="110" d="M2593.08,201.7839 C2597.02,207.9539 2600.74,214.2539 2604,220.5039 C2620.7,252.5039 2633.48,291.6939 2641.47,319.8539 " fill="none" id="User-backto-Credentials" style="stroke:#181818;stroke-width:1.0;"/><polygon fill="#181818" points="2585.8,190.8539,2585.7912,198.065,2592.4442,200.8466,2592.453,193.6355,2585.8,190.8539" style="stroke:#181818;stroke-width:1.0;"/><polygon fill="#000000" points="2626.0338,241.4845,2624.8966,226.3101,2616.1945,229.8766,2626.0338,241.4845" style="stroke:#000000;stroke-width:1.0;"/><text fill="#000000" font-family="sans-serif" font-size="20" lengthAdjust="spacing" textLength="46" x="2636" y="242.2656">holds</text><text fill="#000000" font-family="sans-serif" font-size="20" lengthAdjust="spacing" textLength="11" x="2628.0746" y="307.5308">1</text></g><!--reverse link Patient to Appointment_History--><g id="link_Patient_Appointment_History"><path codeLine="112" d="M2080.69,1000.9139 C1966.52,1037.6739 1717.49,1117.8339 1575.22,1163.6339 " fill="none" id="Patient-backto-Appointment_History" style="stroke:#181818;stroke-width:1.0;"/><polygon fill="#181818" points="2093.28,996.8639,2086.3431,994.8942,2081.8569,1000.5399,2088.7938,1002.5096,2093.28,996.8639" style="stroke:#181818;stroke-width:1.0;"/><polygon fill="#000000" points="1885.3849,1077.0335,1900.6017,1077.0748,1897.7199,1068.1227,1885.3849,1077.0335" style="stroke:#000000;stroke-width:1.0;"/><text fill="#000000" font-family="sans-serif" font-size="20" lengthAdjust="spacing" textLength="31" x="1906" y="1082.7656">has</text><text fill="#000000" font-family="sans-serif" font-size="20" lengthAdjust="spacing" textLength="11" x="1583.005" y="1156.0594">1</text></g><!--link Patient to M_Record--><g id="link_Patient_M_Record"><path codeLine="114" d="M2143.64,1006.2839 C2147.66,1044.0739 2155.36,1116.3439 2160.05,1160.4039 " fill="none" id="Patient-M_Record" style="stroke:#181818;stroke-width:1.0;"/><polygon fill="#000000" points="2159.847,1082.5371,2162.9906,1067.6484,2153.6389,1068.6441,2159.847,1082.5371" style="stroke:#000000;stroke-width:1.0;"/><text fill="#000000" font-family="sans-serif" font-size="20" lengthAdjust="spacing" textLength="55" x="2172" y="1082.7656">stores</text></g><!--reverse link Profile to Patient--><g id="link_Profile_Patient"><path codeLine="116" d="M2281.04,413.7339 C2292.78,510.2739 2306.67,715.2539 2241,870.0039 C2226.42,904.3639 2196.27,934.9339 2172.87,954.9739 " fill="none" id="Profile-backto-Patient" style="stroke:#181818;stroke-width:1.0;"/><polygon fill="#181818" points="2280.41,408.6539,2277.5439,418.0765,2281.0232,413.6162,2285.4835,417.0955,2280.41,408.6539" style="stroke:#181818;stroke-width:1.0;"/><polygon fill="#000000" points="2295.4322,644.4269,2302.8795,631.157,2293.6573,629.3138,2295.4322,644.4269" style="stroke:#000000;stroke-width:1.0;"/><text fill="#000000" font-family="sans-serif" font-size="20" lengthAdjust="spacing" textLength="136" x="2310" y="644.7656">associated with</text><text fill="#000000" font-family="sans-serif" font-size="20" lengthAdjust="spacing" textLength="11" x="2167.6384" y="942.4166">1</text></g><!--link Patient to Med_Cond--><g id="link_Patient_Med_Cond"><path codeLine="118" d="M2093.13,1001.7639 C2056.1,1020.3039 2007.47,1051.6439 1985,1096.0039 C1945.22,1174.5439 1982.69,1280.4939 2008.05,1335.8339 " fill="none" id="Patient-Med_Cond" style="stroke:#181818;stroke-width:1.0;"/><polygon fill="#000000" points="1991.0256,1206.3346,1999.1541,1193.4706,1990.0405,1191.1496,1991.0256,1206.3346" style="stroke:#000000;stroke-width:1.0;"/><text fill="#000000" font-family="sans-serif" font-size="20" lengthAdjust="spacing" textLength="54" x="2006" y="1206.7656">tracks</text><text fill="#000000" font-family="sans-serif" font-size="20" lengthAdjust="spacing" textLength="11" x="1993.1533" y="1323.5076">1</text></g><!--link Patient to Allergies--><g id="link_Patient_Allergies"><path codeLine="120" d="M2181.81,1006.0539 C2211.28,1026.2239 2249.1,1057.6539 2268,1096.0039 C2306.97,1175.0739 2315.34,1280.3539 2316.9,1335.5639 " fill="none" id="Patient-Allergies" style="stroke:#181818;stroke-width:1.0;"/><polygon fill="#000000" points="2320.0347,1205.9841,2318.8958,1190.8099,2310.1941,1194.3773,2320.0347,1205.9841" style="stroke:#000000;stroke-width:1.0;"/><text fill="#000000" font-family="sans-serif" font-size="20" lengthAdjust="spacing" textLength="54" x="2330" y="1206.7656">tracks</text><text fill="#000000" font-family="sans-serif" font-size="20" lengthAdjust="spacing" textLength="11" x="2305.0425" y="1323.5135">1</text></g><!--reverse link Profile to Staff--><g id="link_Profile_Staff"><path codeLine="122" d="M2218.25,366.3239 C1983.78,397.6839 1067.22,520.2739 868.25,546.8839 " fill="none" id="Profile-backto-Staff" style="stroke:#181818;stroke-width:1.0;"/><polygon fill="#181818" points="2223.33,365.6439,2213.8824,362.8613,2218.3734,366.301,2214.9337,370.792,2223.33,365.6439" style="stroke:#181818;stroke-width:1.0;"/><polygon fill="#000000" points="1637.0706,455.1426,1652.0384,457.8848,1650.7916,448.5633,1637.0706,455.1426" style="stroke:#000000;stroke-width:1.0;"/><text fill="#000000" font-family="sans-serif" font-size="20" lengthAdjust="spacing" textLength="73" x="1658" y="462.2656">linked to</text><text fill="#000000" font-family="sans-serif" font-size="20" lengthAdjust="spacing" textLength="11" x="876.043" y="539.3289">1</text></g><!--reverse link Staff to Spec_Type--><g id="link_Staff_Spec_Type"><path codeLine="124" d="M783.98,587.3939 C773.47,597.5339 763.72,609.5939 758,623.0039 C744.54,654.5539 748.82,693.9739 755.11,722.3339 " fill="none" id="Staff-backto-Spec_Type" style="stroke:#181818;stroke-width:1.0;"/><polygon fill="none" points="793.75,578.6439,786.6133,579.6769,784.822,586.662,791.9587,585.629,793.75,578.6439" style="stroke:#181818;stroke-width:1.0;"/><polygon fill="#000000" points="764.3263,644.405,771.9523,631.2369,762.7558,629.2693,764.3263,644.405" style="stroke:#000000;stroke-width:1.0;"/><text fill="#000000" font-family="sans-serif" font-size="20" lengthAdjust="spacing" textLength="115" x="779" y="644.7656">specializes in</text><text fill="#000000" font-family="sans-serif" font-size="20" lengthAdjust="spacing" textLength="11" x="741.4978" y="710.0076">1</text></g><!--link Staff to Operation_Request--><g id="link_Staff_Operation_Request"><path codeLine="126" d="M868.18,553.9039 C991.29,554.5539 1387.82,564.2839 1698,658.0039 C1737.22,669.8539 1778.01,689.0139 1812.51,707.5039 " fill="none" id="Staff-to-Operation_Request" style="stroke:#181818;stroke-width:1.0;"/><polygon fill="#181818" points="1817.12,709.9939,1811.0952,702.2028,1812.7186,707.6217,1807.2996,709.2451,1817.12,709.9939" style="stroke:#181818;stroke-width:1.0;"/><polygon fill="#000000" points="1667.8962,637.8664,1654.3667,630.9017,1652.8569,640.1842,1667.8962,637.8664" style="stroke:#000000;stroke-width:1.0;"/><text fill="#000000" font-family="sans-serif" font-size="20" lengthAdjust="spacing" textLength="199" x="1673" y="644.7656">(Doctor only) performs</text><text fill="#000000" font-family="sans-serif" font-size="20" lengthAdjust="spacing" textLength="11" x="875.9605" y="577.0525">1</text><text fill="#000000" font-family="sans-serif" font-size="20" lengthAdjust="spacing" textLength="8" x="1798.1166" y="697.6624">*</text></g><!--link Staff to staff_avail_slot--><g id="link_Staff_staff_avail_slot"><path codeLine="128" d="M791.76,553.0739 C734.95,553.8239 628.29,563.7339 566,623.0039 C538.91,648.7839 528.81,691.4239 525.09,722.1939 " fill="none" id="Staff-staff_avail_slot" style="stroke:#181818;stroke-width:1.0;"/><polygon fill="#000000" points="567.2441,640.8666,581.9841,637.0868,576.9473,629.1447,567.2441,640.8666" style="stroke:#000000;stroke-width:1.0;"/><text fill="#000000" font-family="sans-serif" font-size="20" lengthAdjust="spacing" textLength="156" x="587" y="644.7656">has availability for</text><text fill="#000000" font-family="sans-serif" font-size="20" lengthAdjust="spacing" textLength="11" x="513.5678" y="710.1634">1</text></g><!--link Staff to Appoint--><g id="link_Staff_Appoint"><path codeLine="130" d="M868.44,566.7039 C970.28,600.3539 1248.27,692.1939 1380.41,735.8539 " fill="none" id="Staff-Appoint" style="stroke:#181818;stroke-width:1.0;stroke-dasharray:7.0,7.0;"/><polygon fill="#000000" points="1119.5961,639.0917,1107.3297,630.0867,1104.3794,639.0165,1119.5961,639.0917" style="stroke:#000000;stroke-width:1.0;"/><text fill="#000000" font-family="sans-serif" font-size="20" lengthAdjust="spacing" textLength="89" x="1125" y="644.7656">involved in</text></g><!--reverse link Staff to Appointment_History--><g id="link_Staff_Appointment_History"><path codeLine="132" d="M870.01,587.7439 C880.56,598.1839 891.17,610.3139 899,623.0039 C1005.93,796.2539 928.46,909.9739 1083,1042.5039 C1164.31,1112.2339 1280.95,1153.1439 1364.9,1175.2539 " fill="none" id="Staff-backto-Appointment_History" style="stroke:#181818;stroke-width:1.0;"/><polygon fill="none" points="860.43,578.6539,862.0359,585.6839,869.1428,586.9054,867.5369,579.8754,860.43,578.6539" style="stroke:#181818;stroke-width:1.0;"/><polygon fill="#000000" points="991.154,862.7006,985.4267,848.6026,978.234,854.6614,991.154,862.7006" style="stroke:#000000;stroke-width:1.0;"/><text fill="#000000" font-family="sans-serif" font-size="20" lengthAdjust="spacing" textLength="80" x="999" y="864.7656">manages</text><text fill="#000000" font-family="sans-serif" font-size="20" lengthAdjust="spacing" textLength="11" x="1346.1234" y="1168.4965">1</text></g><!--link Operation_Request to Patient--><g id="link_Operation_Request_Patient"><path codeLine="134" d="M2010.4,798.4739 C2034.06,810.0339 2057.46,824.7039 2076,843.0039 C2107.94,874.5339 2126.21,924.8439 2134.83,954.7839 " fill="none" id="Operation_Request-Patient" style="stroke:#181818;stroke-width:1.0;stroke-dasharray:7.0,7.0;"/><polygon fill="#000000" points="2108.9825,862.841,2103.6481,848.5898,2096.2902,854.447,2108.9825,862.841" style="stroke:#000000;stroke-width:1.0;"/><text fill="#000000" font-family="sans-serif" font-size="20" lengthAdjust="spacing" textLength="115" x="2117" y="864.7656">requested by</text></g><!--reverse link Operation_Request to appoint_slot--><g id="link_Operation_Request_appoint_slot"><path codeLine="136" d="M1935.44,823.5539 C1940.13,839.4039 1940.7,855.9339 1932,870.0039 C1927.82,876.7639 1922.52,873.4539 1916,878.0039 C1889.2,896.6939 1862.41,921.8239 1842.22,942.4039 " fill="none" id="Operation_Request-backto-appoint_slot" style="stroke:#181818;stroke-width:1.0;"/><polygon fill="#181818" points="1930.9,811.0439,1929.1847,818.048,1934.9903,822.3253,1936.7056,815.3212,1930.9,811.0439" style="stroke:#181818;stroke-width:1.0;"/><polygon fill="#000000" points="1941.0627,862.8767,1953.6943,854.3915,1946.2944,848.5874,1941.0627,862.8767" style="stroke:#000000;stroke-width:1.0;"/><text fill="#000000" font-family="sans-serif" font-size="20" lengthAdjust="spacing" textLength="108" x="1959" y="864.7656">scheduled in</text><text fill="#000000" font-family="sans-serif" font-size="20" lengthAdjust="spacing" textLength="11" x="1923.4475" y="840.2556">1</text><text fill="#000000" font-family="sans-serif" font-size="20" lengthAdjust="spacing" textLength="11" x="1835.7973" y="930.0888">1</text></g><!--reverse link Appoint to Patient--><g id="link_Appoint_Patient"><path codeLine="138" d="M1528.46,777.7639 C1621.85,797.9239 1770.38,831.0839 1794,843.0039 C1810.61,851.3839 1808.82,862.8539 1826,870.0039 C1863.49,885.6039 1877.73,867.7039 1917,878.0039 C1983.28,895.3939 2054.5,930.8739 2098.41,954.9239 " fill="none" id="Appoint-backto-Patient" style="stroke:#181818;stroke-width:1.0;"/><polygon fill="#181818" points="1523.51,776.6939,1531.4605,782.5068,1528.3969,777.7513,1533.1524,774.6877,1523.51,776.6939" style="stroke:#181818;stroke-width:1.0;"/><polygon fill="#000000" points="1841.6395,858.9566,1829.2153,850.1706,1826.4238,859.1513,1841.6395,858.9566" style="stroke:#000000;stroke-width:1.0;"/><text fill="#000000" font-family="sans-serif" font-size="20" lengthAdjust="spacing" textLength="76" x="1847" y="864.7656">made by</text><text fill="#000000" font-family="sans-serif" font-size="20" lengthAdjust="spacing" textLength="8" x="1531.297" y="800.3982">*</text><text fill="#000000" font-family="sans-serif" font-size="20" lengthAdjust="spacing" textLength="11" x="2077.4914" y="942.8316">1</text></g><!--reverse link Appoint to Operation_Request--><g id="link_Appoint_Operation_Request"><path codeLine="140" d="M1528.89,760.5039 C1600.16,760.5039 1707.04,760.5039 1787.64,760.5039 " fill="none" id="Appoint-backto-Operation_Request" style="stroke:#181818;stroke-width:1.0;"/><polygon fill="#181818" points="1523.82,760.5039,1532.82,764.5039,1528.82,760.5039,1532.82,756.5039,1523.82,760.5039" style="stroke:#181818;stroke-width:1.0;"/><polygon fill="#000000" points="1606.75,744.082,1592.2779,739.3797,1592.2779,748.7843,1606.75,744.082" style="stroke:#000000;stroke-width:1.0;"/><text fill="#000000" font-family="sans-serif" font-size="20" lengthAdjust="spacing" textLength="108" x="1611.75" y="752.2656">requested in</text><text fill="#000000" font-family="sans-serif" font-size="20" lengthAdjust="spacing" textLength="11" x="1531.4312" y="755.0198">1</text><text fill="#000000" font-family="sans-serif" font-size="20" lengthAdjust="spacing" textLength="11" x="1769.1537" y="755.4548">1</text></g><!--reverse link Appoint to Oper_Type--><g id="link_Appoint_Oper_Type"><path codeLine="142" d="M1393.75,822.0939 C1389.5,828.7939 1385.79,835.8039 1383,843.0039 C1370.67,874.8439 1370.63,914.0539 1372.95,942.2639 " fill="none" id="Appoint-backto-Oper_Type" style="stroke:#181818;stroke-width:1.0;"/><polygon fill="none" points="1401.36,811.1439,1394.6532,813.7932,1394.5192,821.0031,1401.226,818.3538,1401.36,811.1439" style="stroke:#181818;stroke-width:1.0;"/><polygon fill="#000000" points="1389.6356,864.4648,1396.7372,851.0067,1387.4704,849.4027,1389.6356,864.4648" style="stroke:#000000;stroke-width:1.0;"/><text fill="#000000" font-family="sans-serif" font-size="20" lengthAdjust="spacing" textLength="70" x="1404" y="864.7656">includes</text><text fill="#000000" font-family="sans-serif" font-size="20" lengthAdjust="spacing" textLength="11" x="1360.3345" y="930.2441">1</text></g><!--reverse link Appoint to appoint_slot--><g id="link_Appoint_appoint_slot"><path codeLine="144" d="M1535.91,789.1639 C1573.24,803.0139 1617.01,821.4439 1654,843.0039 C1675.59,855.5839 1679.03,861.7439 1698,878.0039 C1722.17,898.7239 1748.4,922.8539 1769.18,942.3839 " fill="none" id="Appoint-backto-appoint_slot" style="stroke:#181818;stroke-width:1.0;"/><polygon fill="#181818" points="1523.52,784.6439,1527.7852,790.4583,1534.7929,788.7575,1530.5277,782.9431,1523.52,784.6439" style="stroke:#181818;stroke-width:1.0;"/><polygon fill="#000000" points="1702.6866,860.974,1693.172,849.0986,1688.0089,856.9591,1702.6866,860.974" style="stroke:#000000;stroke-width:1.0;"/><text fill="#000000" font-family="sans-serif" font-size="20" lengthAdjust="spacing" textLength="78" x="1709" y="864.7656">occurs in</text><text fill="#000000" font-family="sans-serif" font-size="20" lengthAdjust="spacing" textLength="11" x="1751.1165" y="930.0656">1</text></g><!--reverse link Appoint to Oper_Status--><g id="link_Appoint_Oper_Status"><path codeLine="146" d="M1486.51,822.7639 C1495.55,838.3139 1505.45,854.8839 1515,870.0039 C1530.5,894.5539 1548.91,921.4639 1563.61,942.4639 " fill="none" id="Appoint-backto-Oper_Status" style="stroke:#181818;stroke-width:1.0;"/><polygon fill="none" points="1479.77,811.1139,1479.3131,818.3105,1485.7804,821.5002,1486.2373,814.3036,1479.77,811.1139" style="stroke:#181818;stroke-width:1.0;"/><polygon fill="#000000" points="1527.332,863.3076,1523.4485,848.5946,1515.5421,853.6872,1527.332,863.3076" style="stroke:#000000;stroke-width:1.0;"/><text fill="#000000" font-family="sans-serif" font-size="20" lengthAdjust="spacing" textLength="113" x="1536" y="864.7656">has status of</text><text fill="#000000" font-family="sans-serif" font-size="20" lengthAdjust="spacing" textLength="11" x="1547.5275" y="930.1584">1</text></g><!--reverse link Appoint to Priority--><g id="link_Appoint_Priority"><path codeLine="148" d="M1368.1,787.0439 C1334.5,800.0939 1296.98,818.4739 1268,843.0039 C1235.72,870.3339 1210.53,912.0839 1195.11,942.2239 " fill="none" id="Appoint-backto-Priority" style="stroke:#181818;stroke-width:1.0;"/><polygon fill="none" points="1380.28,782.4839,1373.2584,780.8417,1369.0419,786.6916,1376.0635,788.3338,1380.28,782.4839" style="stroke:#181818;stroke-width:1.0;"/><polygon fill="#000000" points="1270.0449,861.924,1283.9577,855.7606,1277.6778,848.76,1270.0449,861.924" style="stroke:#000000;stroke-width:1.0;"/><text fill="#000000" font-family="sans-serif" font-size="20" lengthAdjust="spacing" textLength="78" x="1289" y="864.7656">assigned</text><text fill="#000000" font-family="sans-serif" font-size="20" lengthAdjust="spacing" textLength="11" x="1185.8878" y="930.198">1</text></g><!--reverse link Appoint to Room--><g id="link_Appoint_Room"><path codeLine="150" d="M1367.51,776.9639 C1294.16,791.2739 1185.5,814.5839 1093,843.0039 C1061.52,852.6739 1055.49,860.3839 1024,870.0039 C865.81,918.3139 672.92,955.1639 583.68,971.0039 " fill="none" id="Appoint-backto-Room" style="stroke:#181818;stroke-width:1.0;"/><polygon fill="none" points="1380.33,774.4839,1373.6787,771.6981,1368.549,776.7662,1375.2003,779.5521,1380.33,774.4839" style="stroke:#181818;stroke-width:1.0;"/><polygon fill="#000000" points="1093.2344,858.5044,1108.4125,859.5913,1106.1525,850.4623,1093.2344,858.5044" style="stroke:#000000;stroke-width:1.0;"/><text fill="#000000" font-family="sans-serif" font-size="20" lengthAdjust="spacing" textLength="121" x="1114" y="864.7656">takes place in</text><text fill="#000000" font-family="sans-serif" font-size="20" lengthAdjust="spacing" textLength="11" x="591.4397" y="963.6499">1</text></g><!--reverse link Room to room_stats--><g id="link_Room_room_stats"><path codeLine="152" d="M471.47,987.6739 C377.3,998.1239 205.06,1022.0239 158,1061.0039 C128.04,1085.8239 113.58,1129.0739 106.76,1160.2439 " fill="none" id="Room-backto-room_stats" style="stroke:#181818;stroke-width:1.0;"/><polygon fill="none" points="484.5,986.2639,478.1006,982.9401,472.5712,987.5688,478.9706,990.8926,484.5,986.2639" style="stroke:#181818;stroke-width:1.0;"/><polygon fill="#000000" points="158.7687,1078.0037,173.8615,1076.0643,169.8391,1067.5634,158.7687,1078.0037" style="stroke:#000000;stroke-width:1.0;"/><text fill="#000000" font-family="sans-serif" font-size="20" lengthAdjust="spacing" textLength="90" x="179" y="1082.7656">has status</text><text fill="#000000" font-family="sans-serif" font-size="20" lengthAdjust="spacing" textLength="11" x="95.7998" y="1148.221">1</text></g><!--reverse link Room to Capacity--><g id="link_Room_Capacity"><path codeLine="154" d="M563.03,1042.9839 C580.9,1080.8239 603.22,1128.0839 618.43,1160.3039 " fill="none" id="Room-backto-Capacity" style="stroke:#181818;stroke-width:1.0;"/><polygon fill="#181818" points="557.4,1031.0539,556.3405,1038.1868,562.5172,1041.9081,563.5767,1034.7753,557.4,1031.0539" style="stroke:#181818;stroke-width:1.0;"/><polygon fill="#000000" points="593.416,1081.816,591.4885,1066.7217,582.9844,1070.7375,593.416,1081.816" style="stroke:#000000;stroke-width:1.0;"/><text fill="#000000" font-family="sans-serif" font-size="20" lengthAdjust="spacing" textLength="83" x="603" y="1082.7656">limited by</text><text fill="#000000" font-family="sans-serif" font-size="20" lengthAdjust="spacing" textLength="11" x="603.7532" y="1147.9729">1</text></g><!--reverse link Room to Room_Type--><g id="link_Room_Room_Type"><path codeLine="156" d="M471.22,982.4739 C413.34,987.1239 330.34,1004.1239 289,1061.0039 C268.37,1089.3939 273.26,1130.5839 281.06,1160.2739 " fill="none" id="Room-backto-Room_Type" style="stroke:#181818;stroke-width:1.0;"/><polygon fill="none" points="484.25,981.6039,477.9954,978.0151,472.277,982.4083,478.5316,985.9971,484.25,981.6039" style="stroke:#181818;stroke-width:1.0;"/><polygon fill="#000000" points="291.1564,1080.0458,304.9391,1073.5965,298.516,1066.727,291.1564,1080.0458" style="stroke:#000000;stroke-width:1.0;"/><text fill="#000000" font-family="sans-serif" font-size="20" lengthAdjust="spacing" textLength="129" x="310" y="1082.7656">categorized by</text><text fill="#000000" font-family="sans-serif" font-size="20" lengthAdjust="spacing" textLength="11" x="267.2364" y="1148.2556">1</text></g><!--reverse link Room to Equipment--><g id="link_Room_Equipment"><path codeLine="158" d="M595.66,1006.6939 C626.7,1020.6539 664.18,1039.5239 695,1061.0039 C731.03,1086.1139 766.89,1120.0739 793.81,1147.8339 " fill="none" id="Room-backto-Equipment" style="stroke:#181818;stroke-width:1.0;"/><polygon fill="none" points="583.67,1001.3939,587.548,1007.4735,594.6514,1006.2321,590.7734,1000.1525,583.67,1001.3939" style="stroke:#181818;stroke-width:1.0;"/><polygon fill="#000000" points="744.516,1079.2233,735.4565,1066.9971,730.0004,1074.6572,744.516,1079.2233" style="stroke:#000000;stroke-width:1.0;"/><text fill="#000000" font-family="sans-serif" font-size="20" lengthAdjust="spacing" textLength="121" x="751" y="1082.7656">equipped with</text><text fill="#000000" font-family="sans-serif" font-size="20" lengthAdjust="spacing" textLength="11" x="591.4283" y="998.3135">1</text><text fill="#000000" font-family="sans-serif" font-size="20" lengthAdjust="spacing" textLength="8" x="779.5075" y="1135.4819">*</text></g><!--link Equipment to Equip_Avail--><g id="link_Equipment_Equip_Avail"><path codeLine="160" d="M857.34,1249.2239 C867.53,1276.8639 880.01,1310.6739 889.34,1335.9639 " fill="none" id="Equipment-Equip_Avail" style="stroke:#181818;stroke-width:1.0;"/><polygon fill="#000000" points="887.7689,1300.0876,887.1715,1284.8824,878.3482,1288.1375,887.7689,1300.0876" style="stroke:#000000;stroke-width:1.0;"/><text fill="#000000" font-family="sans-serif" font-size="20" lengthAdjust="spacing" textLength="168" x="898" y="1300.7656">availability checked</text><text fill="#000000" font-family="sans-serif" font-size="20" lengthAdjust="spacing" textLength="11" x="875.2864" y="1323.6584">1</text></g><!--reverse link Room to Schedule--><g id="link_Room_Schedule"><path codeLine="162" d="M480.7,1022.4539 C469.85,1033.6639 459.95,1046.7139 454,1061.0039 C438.75,1097.6639 448.08,1144.5839 456.41,1172.7739 " fill="none" id="Room-backto-Schedule" style="stroke:#181818;stroke-width:1.0;"/><polygon fill="#181818" points="484.41,1018.7239,475.2319,1022.2965,480.8888,1022.2737,480.9116,1027.9305,484.41,1018.7239" style="stroke:#181818;stroke-width:1.0;"/><polygon fill="#000000" points="460.7238,1082.4796,467.6745,1068.9429,458.3904,1067.4427,460.7238,1082.4796" style="stroke:#000000;stroke-width:1.0;"/><text fill="#000000" font-family="sans-serif" font-size="20" lengthAdjust="spacing" textLength="91" x="475" y="1082.7656">included in</text></g><!--link Schedule to Room_Avail--><g id="link_Schedule_Room_Avail"><path codeLine="164" d="M433.61,1224.2839 C414.9,1239.4839 390.97,1259.6839 371,1279.0039 C352.5,1296.9039 333.15,1318.0739 317.6,1335.7939 " fill="none" id="Schedule-Room_Avail" style="stroke:#181818;stroke-width:1.0;"/><polygon fill="#000000" points="373.2324,1298.1259,386.9247,1291.487,380.4075,1284.7068,373.2324,1298.1259" style="stroke:#000000;stroke-width:1.0;"/><text fill="#000000" font-family="sans-serif" font-size="20" lengthAdjust="spacing" textLength="106" x="392" y="1300.7656">available for</text><text fill="#000000" font-family="sans-serif" font-size="20" lengthAdjust="spacing" textLength="11" x="310.7597" y="1323.4613">1</text></g><!--link Schedule to Room_Main--><g id="link_Schedule_Room_Main"><path codeLine="166" d="M477.75,1224.3639 C492.7,1253.5039 517.62,1302.0839 534.88,1335.7339 " fill="none" id="Schedule-Room_Main" style="stroke:#181818;stroke-width:1.0;"/><polygon fill="#000000" points="529.6514,1299.7001,527.2299,1284.6771,518.862,1288.9696,529.6514,1299.7001" style="stroke:#000000;stroke-width:1.0;"/><text fill="#000000" font-family="sans-serif" font-size="20" lengthAdjust="spacing" textLength="121" x="539" y="1300.7656">maintained by</text><text fill="#000000" font-family="sans-serif" font-size="20" lengthAdjust="spacing" textLength="11" x="520.1101" y="1323.7095">1</text></g><!--SRC=[dLTBRzim3BxdLn3UOLknx8KT1iC8q7OhTWbQD5klXcehYHRPyYIbHJhilu-IB5bEtCPj3mL4Vlxu5Ace3QiR8ad5HR6X9PHqIRPSNuXQBzW3XSyV9nFDDATmHehDvNB92WfpKMvHyarKXDNcHFbaqg2Uh2WaMKPMAqbNHDFP37ufAXFuEva0_j4QkNPM1bdcJeZ9CYc4diqSgE14AJYNj3G0mXNgtzoyUtLnyVNioyUtS4VubeAu_KsBlM-kyD-zaENe3umZDQdew0- -OyHyDFfQy6FK_vvC75n9iMISxYUm5G_dy77AXIRBvJwN5SPU9rO2ftSOAhbbt8Auq0aG1SheSc9qkKBXw5maYuOMM4tsG3GJDVpSDTGo6dbkJY_Er1KoOZ07INBYdXDpMhA2SBYc1VQ9jJ_FtM5q9AUSKxbYT7nV1hFdeYwP2TzPfcLk92yE_BAXqcNpMeXgFtuZEtRB4Wl2WkkjiZuXfCgnoFePqLcEuNOngjogdaatnycYQKrg73TzDgDv9bdeDKimejVYwr6igPbslTb4i216-TB2VV-pPKqrqBD1SRHm7N8uyrO_AlLZ-ki3d3QDm9Bqd6vTwM0XqKOqDj47B54xMXvt7hy591FoU7MYh2UzuD1iUtxkV8tk8yNqg_QgzqkSF89gexMQt6YeUjo1ruirmGK9DpQeInkKcapQL4RXm0-cj92xE2mZprlvaIGD48OE8quuPWsylgRS1eO-nelzP3g5v5FIxU4K2dnvu0rNC1k6XXtVXzfjwJ5kIwUm9ftEo0D7kpvJ4FTr7o9QY5tTAOQfsAh6H6jnO2Ns3cq9NbggTkq4s53IWsiUZDXk4QLWKBG7C4pJRJETHSwZSm9NgaRtxfbUGnRpEUDXnQIW9JRjdj7Mmx3GOfHx1GpPvQpUk9Ha7kRJrYrp3C8lV2J6aTsdHCBa91de-1JUV1C5nW-YvhktW82ba5NaKclgu2NYaahYQOXVTj-zVn_kTOeEtGb-Xr74deadIrQH6k-yTUJGRIJtQKr1EY6ot-w6uN4tzkuHfgrTEDurxxD9LnOkWJTLaPAsLWBmam5AjbfhXnvASkTYtufFGJV0JQuAlYrTv1xtYFEYABPIFSNP3dDNBEKEOZa43tCykeO3CBlXiN791ZriEC47WpDl5HuLlMjwfZqkN6g_sasRLwohOO-jUqVW5C8Bk4977_hGC4omRDskJi6C_ARnLnRHdT9FhsXpf_r-njQmlzAy4TCF_e7I5IeqjTV4Nk_nejPVaY6qVMoPBcDsrFeG_mC0]--></g></svg>