<?xml version="1.0" encoding="us-ascii" standalone="no"?><svg xmlns="http://www.w3.org/2000/svg" xmlns:xlink="http://www.w3.org/1999/xlink" contentStyleType="text/css" height="473px" preserveAspectRatio="none" style="width:1206px;height:473px;background:#FFFFFF;" version="1.1" viewBox="0 0 1206 473" width="1206px" zoomAndPan="magnify"><defs/><g><text fill="#000000" font-family="sans-serif" font-size="14" font-weight="bold" lengthAdjust="spacing" textLength="319" x="445.5" y="30.1074">US 5.1.6. Process View | Failed Login (Level 3)</text><rect fill="#FFFFFF" height="265.9883" style="stroke:#181818;stroke-width:1.0;" width="10" x="171" y="133.1543"/><rect fill="#FFFFFF" height="200.4063" style="stroke:#181818;stroke-width:1.0;" width="10" x="494" y="167.4453"/><rect fill="#FFFFFF" height="75.582" style="stroke:#181818;stroke-width:1.0;" width="10" x="829" y="260.9785"/><line style="stroke:#181818;stroke-width:0.5;stroke-dasharray:5.0,5.0;" x1="176" x2="176" y1="96.8633" y2="417.1426"/><line style="stroke:#181818;stroke-width:0.5;stroke-dasharray:5.0,5.0;" x1="499" x2="499" y1="96.8633" y2="417.1426"/><line style="stroke:#181818;stroke-width:0.5;stroke-dasharray:5.0,5.0;" x1="724" x2="724" y1="216.5664" y2="417.1426"/><line style="stroke:#181818;stroke-width:0.5;stroke-dasharray:5.0,5.0;" x1="834" x2="834" y1="96.8633" y2="417.1426"/><rect fill="#E2E2F0" height="51.2422" rx="2.5" ry="2.5" style="stroke:#181818;stroke-width:0.5;" width="100" x="126" y="44.6211"/><text fill="#000000" font-family="sans-serif" font-size="14" lengthAdjust="spacing" textLength="86" x="133" y="66.7285">&#171;component&#187;</text><text fill="#000000" font-family="sans-serif" font-size="14" lengthAdjust="spacing" textLength="49" x="153.5" y="85.3496">Routing</text><rect fill="#E2E2F0" height="51.2422" rx="2.5" ry="2.5" style="stroke:#181818;stroke-width:0.5;" width="100" x="126" y="416.1426"/><text fill="#000000" font-family="sans-serif" font-size="14" lengthAdjust="spacing" textLength="86" x="133" y="438.25">&#171;component&#187;</text><text fill="#000000" font-family="sans-serif" font-size="14" lengthAdjust="spacing" textLength="49" x="153.5" y="456.8711">Routing</text><rect fill="#E2E2F0" height="51.2422" rx="2.5" ry="2.5" style="stroke:#181818;stroke-width:0.5;" width="100" x="449" y="44.6211"/><text fill="#000000" font-family="sans-serif" font-size="14" lengthAdjust="spacing" textLength="86" x="456" y="66.7285">&#171;component&#187;</text><text fill="#000000" font-family="sans-serif" font-size="14" lengthAdjust="spacing" textLength="62" x="470" y="85.3496">Controller</text><rect fill="#E2E2F0" height="51.2422" rx="2.5" ry="2.5" style="stroke:#181818;stroke-width:0.5;" width="100" x="449" y="416.1426"/><text fill="#000000" font-family="sans-serif" font-size="14" lengthAdjust="spacing" textLength="86" x="456" y="438.25">&#171;component&#187;</text><text fill="#000000" font-family="sans-serif" font-size="14" lengthAdjust="spacing" textLength="62" x="470" y="456.8711">Controller</text><rect fill="#E2E2F0" height="51.2422" rx="2.5" ry="2.5" style="stroke:#181818;stroke-width:0.5;" width="100" x="674" y="416.1426"/><text fill="#000000" font-family="sans-serif" font-size="14" lengthAdjust="spacing" textLength="86" x="681" y="438.25">&#171;component&#187;</text><text fill="#000000" font-family="sans-serif" font-size="14" lengthAdjust="spacing" textLength="59" x="696.5" y="456.8711">UserDTO</text><rect fill="#E2E2F0" height="51.2422" rx="2.5" ry="2.5" style="stroke:#181818;stroke-width:0.5;" width="100" x="784" y="44.6211"/><text fill="#000000" font-family="sans-serif" font-size="14" lengthAdjust="spacing" textLength="86" x="791" y="66.7285">&#171;component&#187;</text><text fill="#000000" font-family="sans-serif" font-size="14" lengthAdjust="spacing" textLength="81" x="795.5" y="85.3496">EmailService</text><rect fill="#E2E2F0" height="51.2422" rx="2.5" ry="2.5" style="stroke:#181818;stroke-width:0.5;" width="100" x="784" y="416.1426"/><text fill="#000000" font-family="sans-serif" font-size="14" lengthAdjust="spacing" textLength="86" x="791" y="438.25">&#171;component&#187;</text><text fill="#000000" font-family="sans-serif" font-size="14" lengthAdjust="spacing" textLength="81" x="795.5" y="456.8711">EmailService</text><rect fill="#FFFFFF" height="265.9883" style="stroke:#181818;stroke-width:1.0;" width="10" x="171" y="133.1543"/><rect fill="#FFFFFF" height="200.4063" style="stroke:#181818;stroke-width:1.0;" width="10" x="494" y="167.4453"/><rect fill="#FFFFFF" height="75.582" style="stroke:#181818;stroke-width:1.0;" width="10" x="829" y="260.9785"/><ellipse cx="7.5" cy="132.4043" fill="none" rx="4" ry="4" style="stroke:#181818;stroke-width:1.5;"/><polygon fill="#181818" points="159,129.1543,169,133.1543,159,137.1543,163,133.1543" style="stroke:#181818;stroke-width:1.0;"/><line style="stroke:#181818;stroke-width:1.0;" x1="12" x2="165" y1="133.1543" y2="133.1543"/><text fill="#000000" font-family="sans-serif" font-size="13" font-weight="bold" lengthAdjust="spacing" textLength="7" x="15" y="127.8916">1</text><text fill="#000000" font-family="sans-serif" font-size="13" lengthAdjust="spacing" textLength="133" x="26" y="127.8916">POST(credentialsData)</text><path d="M186,111.8633 L186,138.8633 L536,138.8633 L536,121.8633 L526,111.8633 L186,111.8633 " fill="#FEFFDD" style="stroke:#181818;stroke-width:0.5;"/><path d="M526,111.8633 L526,121.8633 L536,121.8633 L526,111.8633 " fill="#FEFFDD" style="stroke:#181818;stroke-width:0.5;"/><text fill="#000000" font-family="sans-serif" font-size="13" lengthAdjust="spacing" textLength="329" x="192" y="130.8916">After 5 failed attempts at logging in this process happens</text><polygon fill="#181818" points="482,163.4453,492,167.4453,482,171.4453,486,167.4453" style="stroke:#181818;stroke-width:1.0;"/><line style="stroke:#181818;stroke-width:1.0;" x1="181" x2="488" y1="167.4453" y2="167.4453"/><text fill="#000000" font-family="sans-serif" font-size="13" font-weight="bold" lengthAdjust="spacing" textLength="7" x="188" y="162.1826">2</text><text fill="#000000" font-family="sans-serif" font-size="13" lengthAdjust="spacing" textLength="283" x="199" y="162.1826">notifyAdminLoginTriesExceeded(credentialsData)</text><polygon fill="#181818" points="662,194.7363,672,198.7363,662,202.7363,666,198.7363" style="stroke:#181818;stroke-width:1.0;"/><line style="stroke:#181818;stroke-width:1.0;" x1="504" x2="668" y1="198.7363" y2="198.7363"/><text fill="#000000" font-family="sans-serif" font-size="13" font-weight="bold" lengthAdjust="spacing" textLength="7" x="511" y="193.4736">3</text><text fill="#000000" font-family="sans-serif" font-size="13" lengthAdjust="spacing" textLength="135" x="522" y="193.4736">toDTO(credentialsData)</text><rect fill="#E2E2F0" height="51.2422" rx="2.5" ry="2.5" style="stroke:#181818;stroke-width:0.5;" width="100" x="674" y="175.4453"/><text fill="#000000" font-family="sans-serif" font-size="14" lengthAdjust="spacing" textLength="86" x="681" y="197.5527">&#171;component&#187;</text><text fill="#000000" font-family="sans-serif" font-size="14" lengthAdjust="spacing" textLength="59" x="696.5" y="216.1738">UserDTO</text><polygon fill="#181818" points="817,256.9785,827,260.9785,817,264.9785,821,260.9785" style="stroke:#181818;stroke-width:1.0;"/><line style="stroke:#181818;stroke-width:1.0;" x1="504" x2="823" y1="260.9785" y2="260.9785"/><text fill="#000000" font-family="sans-serif" font-size="13" font-weight="bold" lengthAdjust="spacing" textLength="7" x="511" y="255.7158">4</text><text fill="#000000" font-family="sans-serif" font-size="13" lengthAdjust="spacing" textLength="294" x="522" y="255.7158">notifyAdminAboutLockedAccount(noAuthUserDTO)</text><line style="stroke:#181818;stroke-width:1.0;" x1="839" x2="881" y1="292.2695" y2="292.2695"/><line style="stroke:#181818;stroke-width:1.0;" x1="881" x2="881" y1="292.2695" y2="305.2695"/><line style="stroke:#181818;stroke-width:1.0;" x1="840" x2="881" y1="305.2695" y2="305.2695"/><polygon fill="#181818" points="850,301.2695,840,305.2695,850,309.2695,846,305.2695" style="stroke:#181818;stroke-width:1.0;"/><text fill="#000000" font-family="sans-serif" font-size="13" font-weight="bold" lengthAdjust="spacing" textLength="7" x="846" y="287.0068">5</text><text fill="#000000" font-family="sans-serif" font-size="13" lengthAdjust="spacing" textLength="342" x="857" y="287.0068">sendEmail(adminEmail, emailString, emailTitle, emailBody)</text><polygon fill="#181818" points="515,332.5605,505,336.5605,515,340.5605,511,336.5605" style="stroke:#181818;stroke-width:1.0;"/><line style="stroke:#181818;stroke-width:1.0;stroke-dasharray:2.0,2.0;" x1="509" x2="833" y1="336.5605" y2="336.5605"/><text fill="#000000" font-family="sans-serif" font-size="13" font-weight="bold" lengthAdjust="spacing" textLength="7" x="521" y="331.2979">6</text><text fill="#000000" font-family="sans-serif" font-size="13" lengthAdjust="spacing" textLength="33" x="532" y="331.2979">return</text><polygon fill="#181818" points="192,363.8516,182,367.8516,192,371.8516,188,367.8516" style="stroke:#181818;stroke-width:1.0;"/><line style="stroke:#181818;stroke-width:1.0;stroke-dasharray:2.0,2.0;" x1="186" x2="498" y1="367.8516" y2="367.8516"/><text fill="#000000" font-family="sans-serif" font-size="13" font-weight="bold" lengthAdjust="spacing" textLength="7" x="198" y="362.5889">7</text><text fill="#000000" font-family="sans-serif" font-size="13" lengthAdjust="spacing" textLength="33" x="209" y="362.5889">return</text><polygon fill="#181818" points="11,395.1426,1,399.1426,11,403.1426,7,399.1426" style="stroke:#181818;stroke-width:1.0;"/><line style="stroke:#181818;stroke-width:1.0;" x1="5" x2="175" y1="399.1426" y2="399.1426"/><text fill="#000000" font-family="sans-serif" font-size="13" font-weight="bold" lengthAdjust="spacing" textLength="7" x="17" y="393.8799">8</text><text fill="#000000" font-family="sans-serif" font-size="13" lengthAdjust="spacing" textLength="33" x="28" y="393.8799">return</text><!--SRC=[XP91Rzim38Nl-XL4BakA9S4mT8SY2E2rAL30cul4wMMxg19Z2vCbJwAp5TYF7sExRh8CxOqo-1uVF_fTILJ7g_cyjj9HKzcPyjKyuiy6dSAfDh88iXA235c4qNO3bxCFiqypk0zUOOpmOF0N_85RQIngI7rX78nJtAE5ZvEH4B8Xxvhg4OCGjGnabAbv4emM2vvKUuUEbill3jQ-8UEA4SW8wsoRhrvll_QEWhSMGwkuphxcwonzOyOsOhZ9irRHrsyeLXKlji6mDmfRsUfBSfSUFWZnpK-NNLIuWljiauzLGCrA8ssyaIGdmdb22AOeIIGxmW2NiEj8IIAiQefSWFK5Ook0qL5f8jGzsrBMDReeq6auE0cfoEmbMtQ0H3USK_JhSmxkCxkdH5V6jSV8Wy6u-gsGa-dpW8FZ0F3PYbrxH1SNx4kUgtFzSVk0vZH6yiYNJRtwWJfHoZUEniud3PMz_L688xWlPlyuHwRHNcKi3-vj-HwmlHC5njW_yiCVszUVlNwQd7YUC0j8JN12u_-230iU7VjSCE1RJ5_fwixs5m00]--></g></svg>