<?xml version="1.0" encoding="us-ascii" standalone="no"?><svg xmlns="http://www.w3.org/2000/svg" xmlns:xlink="http://www.w3.org/1999/xlink" contentStyleType="text/css" height="559px" preserveAspectRatio="none" style="width:1185px;height:559px;background:#FFFFFF;" version="1.1" viewBox="0 0 1185 559" width="1185px" zoomAndPan="magnify"><defs/><g><text fill="#000000" font-family="sans-serif" font-size="14" font-weight="bold" lengthAdjust="spacing" textLength="400" x="391.5" y="30.1074">US 5.1.6. Process View | Failed Login, 5 attempts (Level 3)</text><rect fill="#FFFFFF" height="355.2305" style="stroke:#181818;stroke-width:1.0;" width="10" x="105" y="130.1543"/><rect fill="#FFFFFF" height="292.6484" style="stroke:#181818;stroke-width:1.0;" width="10" x="362" y="161.4453"/><rect fill="#FFFFFF" height="167.8242" style="stroke:#181818;stroke-width:1.0;" width="10" x="697" y="254.9785"/><rect fill="#FFFFFF" height="28" style="stroke:#181818;stroke-width:1.0;" width="10" x="702" y="356.5117"/><line style="stroke:#181818;stroke-width:0.5;stroke-dasharray:5.0,5.0;" x1="110" x2="110" y1="96.8633" y2="503.3848"/><line style="stroke:#181818;stroke-width:0.5;stroke-dasharray:5.0,5.0;" x1="366.5" x2="366.5" y1="96.8633" y2="503.3848"/><line style="stroke:#181818;stroke-width:0.5;stroke-dasharray:5.0,5.0;" x1="592" x2="592" y1="210.5664" y2="503.3848"/><line style="stroke:#181818;stroke-width:0.5;stroke-dasharray:5.0,5.0;" x1="702" x2="702" y1="96.8633" y2="503.3848"/><line style="stroke:#181818;stroke-width:0.5;stroke-dasharray:5.0,5.0;" x1="1129" x2="1129" y1="304.0996" y2="503.3848"/><rect fill="#E2E2F0" height="51.2422" rx="2.5" ry="2.5" style="stroke:#181818;stroke-width:0.5;" width="100" x="60" y="44.6211"/><text fill="#000000" font-family="sans-serif" font-size="14" lengthAdjust="spacing" textLength="86" x="67" y="66.7285">&#171;component&#187;</text><text fill="#000000" font-family="sans-serif" font-size="14" lengthAdjust="spacing" textLength="49" x="87.5" y="85.3496">Routing</text><rect fill="#E2E2F0" height="51.2422" rx="2.5" ry="2.5" style="stroke:#181818;stroke-width:0.5;" width="100" x="60" y="502.3848"/><text fill="#000000" font-family="sans-serif" font-size="14" lengthAdjust="spacing" textLength="86" x="67" y="524.4922">&#171;component&#187;</text><text fill="#000000" font-family="sans-serif" font-size="14" lengthAdjust="spacing" textLength="49" x="87.5" y="543.1133">Routing</text><rect fill="#E2E2F0" height="51.2422" rx="2.5" ry="2.5" style="stroke:#181818;stroke-width:0.5;" width="177" x="278.5" y="44.6211"/><text fill="#000000" font-family="sans-serif" font-size="14" lengthAdjust="spacing" textLength="86" x="324" y="66.7285">&#171;component&#187;</text><text fill="#000000" font-family="sans-serif" font-size="14" lengthAdjust="spacing" textLength="159" x="289.5" y="85.3496">BackOfficeUserController</text><rect fill="#E2E2F0" height="51.2422" rx="2.5" ry="2.5" style="stroke:#181818;stroke-width:0.5;" width="177" x="278.5" y="502.3848"/><text fill="#000000" font-family="sans-serif" font-size="14" lengthAdjust="spacing" textLength="86" x="324" y="524.4922">&#171;component&#187;</text><text fill="#000000" font-family="sans-serif" font-size="14" lengthAdjust="spacing" textLength="159" x="289.5" y="543.1133">BackOfficeUserController</text><rect fill="#E2E2F0" height="51.2422" rx="2.5" ry="2.5" style="stroke:#181818;stroke-width:0.5;" width="100" x="542" y="502.3848"/><text fill="#000000" font-family="sans-serif" font-size="14" lengthAdjust="spacing" textLength="86" x="549" y="524.4922">&#171;component&#187;</text><text fill="#000000" font-family="sans-serif" font-size="14" lengthAdjust="spacing" textLength="59" x="564.5" y="543.1133">UserDTO</text><rect fill="#E2E2F0" height="51.2422" rx="2.5" ry="2.5" style="stroke:#181818;stroke-width:0.5;" width="100" x="652" y="44.6211"/><text fill="#000000" font-family="sans-serif" font-size="14" lengthAdjust="spacing" textLength="86" x="659" y="66.7285">&#171;component&#187;</text><text fill="#000000" font-family="sans-serif" font-size="14" lengthAdjust="spacing" textLength="81" x="663.5" y="85.3496">EmailService</text><rect fill="#E2E2F0" height="51.2422" rx="2.5" ry="2.5" style="stroke:#181818;stroke-width:0.5;" width="100" x="652" y="502.3848"/><text fill="#000000" font-family="sans-serif" font-size="14" lengthAdjust="spacing" textLength="86" x="659" y="524.4922">&#171;component&#187;</text><text fill="#000000" font-family="sans-serif" font-size="14" lengthAdjust="spacing" textLength="81" x="663.5" y="543.1133">EmailService</text><rect fill="#E2E2F0" height="51.2422" rx="2.5" ry="2.5" style="stroke:#181818;stroke-width:0.5;" width="100" x="1079" y="502.3848"/><text fill="#000000" font-family="sans-serif" font-size="14" lengthAdjust="spacing" textLength="86" x="1086" y="524.4922">&#171;component&#187;</text><text fill="#000000" font-family="sans-serif" font-size="14" lengthAdjust="spacing" textLength="64" x="1099" y="543.1133">EmailDTO</text><rect fill="#FFFFFF" height="355.2305" style="stroke:#181818;stroke-width:1.0;" width="10" x="105" y="130.1543"/><rect fill="#FFFFFF" height="292.6484" style="stroke:#181818;stroke-width:1.0;" width="10" x="362" y="161.4453"/><rect fill="#FFFFFF" height="167.8242" style="stroke:#181818;stroke-width:1.0;" width="10" x="697" y="254.9785"/><rect fill="#FFFFFF" height="28" style="stroke:#181818;stroke-width:1.0;" width="10" x="702" y="356.5117"/><ellipse cx="7.5" cy="129.4043" fill="none" rx="4" ry="4" style="stroke:#181818;stroke-width:1.5;"/><polygon fill="#181818" points="93,126.1543,103,130.1543,93,134.1543,97,130.1543" style="stroke:#181818;stroke-width:1.0;"/><line style="stroke:#181818;stroke-width:1.0;" x1="12" x2="99" y1="130.1543" y2="130.1543"/><text fill="#000000" font-family="sans-serif" font-size="13" font-weight="bold" lengthAdjust="spacing" textLength="7" x="15" y="124.8916">1</text><text fill="#000000" font-family="sans-serif" font-size="13" lengthAdjust="spacing" textLength="67" x="26" y="124.8916">POST(json)</text><polygon fill="#181818" points="350,157.4453,360,161.4453,350,165.4453,354,161.4453" style="stroke:#181818;stroke-width:1.0;"/><line style="stroke:#181818;stroke-width:1.0;" x1="115" x2="356" y1="161.4453" y2="161.4453"/><text fill="#000000" font-family="sans-serif" font-size="13" font-weight="bold" lengthAdjust="spacing" textLength="7" x="122" y="156.1826">2</text><text fill="#000000" font-family="sans-serif" font-size="13" lengthAdjust="spacing" textLength="217" x="133" y="156.1826">notifyAdminLoginTriesExceeded(json)</text><polygon fill="#181818" points="530,188.7363,540,192.7363,530,196.7363,534,192.7363" style="stroke:#181818;stroke-width:1.0;"/><line style="stroke:#181818;stroke-width:1.0;" x1="372" x2="536" y1="192.7363" y2="192.7363"/><text fill="#000000" font-family="sans-serif" font-size="13" font-weight="bold" lengthAdjust="spacing" textLength="7" x="379" y="187.4736">3</text><text fill="#000000" font-family="sans-serif" font-size="13" lengthAdjust="spacing" textLength="135" x="390" y="187.4736">toDTO(credentialsData)</text><rect fill="#E2E2F0" height="51.2422" rx="2.5" ry="2.5" style="stroke:#181818;stroke-width:0.5;" width="100" x="542" y="169.4453"/><text fill="#000000" font-family="sans-serif" font-size="14" lengthAdjust="spacing" textLength="86" x="549" y="191.5527">&#171;component&#187;</text><text fill="#000000" font-family="sans-serif" font-size="14" lengthAdjust="spacing" textLength="59" x="564.5" y="210.1738">UserDTO</text><polygon fill="#181818" points="685,250.9785,695,254.9785,685,258.9785,689,254.9785" style="stroke:#181818;stroke-width:1.0;"/><line style="stroke:#181818;stroke-width:1.0;" x1="372" x2="691" y1="254.9785" y2="254.9785"/><text fill="#000000" font-family="sans-serif" font-size="13" font-weight="bold" lengthAdjust="spacing" textLength="7" x="379" y="249.7158">4</text><text fill="#000000" font-family="sans-serif" font-size="13" lengthAdjust="spacing" textLength="294" x="390" y="249.7158">notifyAdminAboutLockedAccount(noAuthUserDTO)</text><polygon fill="#181818" points="1067,282.2695,1077,286.2695,1067,290.2695,1071,286.2695" style="stroke:#181818;stroke-width:1.0;"/><line style="stroke:#181818;stroke-width:1.0;" x1="707" x2="1073" y1="286.2695" y2="286.2695"/><text fill="#000000" font-family="sans-serif" font-size="13" font-weight="bold" lengthAdjust="spacing" textLength="7" x="714" y="281.0068">5</text><text fill="#000000" font-family="sans-serif" font-size="13" lengthAdjust="spacing" textLength="337" x="725" y="281.0068">toDTO(ADMIN_EMAIL, emailString, emailTitle, emailBody)</text><rect fill="#E2E2F0" height="51.2422" rx="2.5" ry="2.5" style="stroke:#181818;stroke-width:0.5;" width="100" x="1079" y="262.9785"/><text fill="#000000" font-family="sans-serif" font-size="14" lengthAdjust="spacing" textLength="86" x="1086" y="285.0859">&#171;component&#187;</text><text fill="#000000" font-family="sans-serif" font-size="14" lengthAdjust="spacing" textLength="64" x="1099" y="303.707">EmailDTO</text><line style="stroke:#181818;stroke-width:1.0;" x1="712" x2="754" y1="348.5117" y2="348.5117"/><line style="stroke:#181818;stroke-width:1.0;" x1="754" x2="754" y1="348.5117" y2="361.5117"/><line style="stroke:#181818;stroke-width:1.0;" x1="713" x2="754" y1="361.5117" y2="361.5117"/><polygon fill="#181818" points="723,357.5117,713,361.5117,723,365.5117,719,361.5117" style="stroke:#181818;stroke-width:1.0;"/><text fill="#000000" font-family="sans-serif" font-size="13" font-weight="bold" lengthAdjust="spacing" textLength="7" x="719" y="343.249">6</text><text fill="#000000" font-family="sans-serif" font-size="13" lengthAdjust="spacing" textLength="126" x="730" y="343.249">sendEmail(emailDTO)</text><polygon fill="#181818" points="383,418.8027,373,422.8027,383,426.8027,379,422.8027" style="stroke:#181818;stroke-width:1.0;"/><line style="stroke:#181818;stroke-width:1.0;stroke-dasharray:2.0,2.0;" x1="377" x2="701" y1="422.8027" y2="422.8027"/><text fill="#000000" font-family="sans-serif" font-size="13" font-weight="bold" lengthAdjust="spacing" textLength="7" x="389" y="417.54">7</text><text fill="#000000" font-family="sans-serif" font-size="13" lengthAdjust="spacing" textLength="33" x="400" y="417.54">return</text><polygon fill="#181818" points="126,450.0938,116,454.0938,126,458.0938,122,454.0938" style="stroke:#181818;stroke-width:1.0;"/><line style="stroke:#181818;stroke-width:1.0;stroke-dasharray:2.0,2.0;" x1="120" x2="366" y1="454.0938" y2="454.0938"/><text fill="#000000" font-family="sans-serif" font-size="13" font-weight="bold" lengthAdjust="spacing" textLength="7" x="132" y="448.8311">8</text><text fill="#000000" font-family="sans-serif" font-size="13" lengthAdjust="spacing" textLength="33" x="143" y="448.8311">return</text><ellipse cx="7.5" cy="484.6348" fill="none" rx="4" ry="4" style="stroke:#181818;stroke-width:1.5;"/><polygon fill="#181818" points="24.5,481.3848,14.5,485.3848,24.5,489.3848,20.5,485.3848" style="stroke:#181818;stroke-width:1.0;"/><line style="stroke:#181818;stroke-width:1.0;" x1="22.5" x2="109" y1="485.3848" y2="485.3848"/><text fill="#000000" font-family="sans-serif" font-size="13" font-weight="bold" lengthAdjust="spacing" textLength="7" x="25" y="480.1221">9</text><text fill="#000000" font-family="sans-serif" font-size="13" lengthAdjust="spacing" textLength="44" x="36" y="480.1221">200 OK</text><!--SRC=[ZLBVJzim47xtNt7g2ocYBTl47b1LAT1EGWi4jIalJ4B6lXP3OcVsfGnfV_pSr0qfsoXlP-lxSVVT7JmGbUvqC2XphgagyhumnS3Xpmgrm9vKV6bvmHWfoX4wyncSz3_rl_RXsXg1pi6DmcVu3T-uob52OfPA7y49S28iId8G9RZ27BvqEupnYeokYdkqZ9NSaXAgzAxG6GwzQsaqQXgDVcYOcegKNdQ0EvYcyspoFloCYwTqiL02vmxjkT5aJPwZhVddwLKsJPCzZclYE4jhHgZtC2Q57tc6TkLjQzhaChv8rXyVu6sjjW_6Rarlj9aLJk4wdMNHepEwoxWWjUA48GUsWNXicCkZjI6rU8bbeNITVsOLkialWIXHlfLfujZolLGO-F3GYv7nLIIivsfIF7TZJhox0sy6tVMEx_tM4YEUKCP2c4fJf4rSqKEGRpNn6XLx5LihXpYWrKeylhoukgjXHu1rw6JzSOH7jZxCK9yP-T9zAzbgrg6MjKM4mUYVFKdSq-XE-XQfile_f2QrrdB_9ZGxkJN3NeFxV7mCwVSsRdC2Vm00]--></g></svg>