<?xml version="1.0" encoding="us-ascii" standalone="no"?><svg xmlns="http://www.w3.org/2000/svg" xmlns:xlink="http://www.w3.org/1999/xlink" contentStyleType="text/css" height="715px" preserveAspectRatio="none" style="width:1056px;height:715px;background:#FFFFFF;" version="1.1" viewBox="0 0 1056 715" width="1056px" zoomAndPan="magnify"><defs/><g><text fill="#000000" font-family="sans-serif" font-size="14" font-weight="bold" lengthAdjust="spacing" textLength="222" x="416.25" y="30.1074">US 5.1.6. Process View (Level 3)</text><rect fill="#FFFFFF" height="504.0742" style="stroke:#181818;stroke-width:1.0;" width="10" x="145" y="130.1543"/><rect fill="#FFFFFF" height="367.2793" style="stroke:#181818;stroke-width:1.0;" width="10" x="293.5" y="161.4453"/><rect fill="#FFFFFF" height="242.4551" style="stroke:#181818;stroke-width:1.0;" width="10" x="656" y="254.9785"/><rect fill="#FFFFFF" height="28" style="stroke:#181818;stroke-width:1.0;" width="10" x="661" y="356.8516"/><rect fill="#FFFFFF" height="28" style="stroke:#181818;stroke-width:1.0;" width="10" x="661" y="431.1426"/><rect fill="#FFFFFF" height="31.291" style="stroke:#181818;stroke-width:1.0;" width="10" x="988" y="286.2695"/><rect fill="none" height="98.5039" style="stroke:#000000;stroke-width:1.5;" width="199" x="11" y="543.7246"/><line style="stroke:#181818;stroke-width:0.5;stroke-dasharray:5.0,5.0;" x1="150" x2="150" y1="96.8633" y2="659.2285"/><line style="stroke:#181818;stroke-width:0.5;stroke-dasharray:5.0,5.0;" x1="298" x2="298" y1="96.8633" y2="659.2285"/><line style="stroke:#181818;stroke-width:0.5;stroke-dasharray:5.0,5.0;" x1="523.5" x2="523.5" y1="210.5664" y2="659.2285"/><line style="stroke:#181818;stroke-width:0.5;stroke-dasharray:5.0,5.0;" x1="660.5" x2="660.5" y1="96.8633" y2="659.2285"/><line style="stroke:#181818;stroke-width:0.5;stroke-dasharray:5.0,5.0;" x1="992.5" x2="992.5" y1="96.8633" y2="659.2285"/><rect fill="#E2E2F0" height="51.2422" rx="2.5" ry="2.5" style="stroke:#181818;stroke-width:0.5;" width="100" x="100" y="44.6211"/><text fill="#000000" font-family="sans-serif" font-size="14" lengthAdjust="spacing" textLength="86" x="107" y="66.7285">&#171;component&#187;</text><text fill="#000000" font-family="sans-serif" font-size="14" lengthAdjust="spacing" textLength="49" x="127.5" y="85.3496">Routing</text><rect fill="#E2E2F0" height="51.2422" rx="2.5" ry="2.5" style="stroke:#181818;stroke-width:0.5;" width="100" x="100" y="658.2285"/><text fill="#000000" font-family="sans-serif" font-size="14" lengthAdjust="spacing" textLength="86" x="107" y="680.3359">&#171;component&#187;</text><text fill="#000000" font-family="sans-serif" font-size="14" lengthAdjust="spacing" textLength="49" x="127.5" y="698.957">Routing</text><rect fill="#E2E2F0" height="51.2422" rx="2.5" ry="2.5" style="stroke:#181818;stroke-width:0.5;" width="177" x="210" y="44.6211"/><text fill="#000000" font-family="sans-serif" font-size="14" lengthAdjust="spacing" textLength="86" x="255.5" y="66.7285">&#171;component&#187;</text><text fill="#000000" font-family="sans-serif" font-size="14" lengthAdjust="spacing" textLength="159" x="221" y="85.3496">BackOfficeUserController</text><rect fill="#E2E2F0" height="51.2422" rx="2.5" ry="2.5" style="stroke:#181818;stroke-width:0.5;" width="177" x="210" y="658.2285"/><text fill="#000000" font-family="sans-serif" font-size="14" lengthAdjust="spacing" textLength="86" x="255.5" y="680.3359">&#171;component&#187;</text><text fill="#000000" font-family="sans-serif" font-size="14" lengthAdjust="spacing" textLength="159" x="221" y="698.957">BackOfficeUserController</text><rect fill="#E2E2F0" height="51.2422" rx="2.5" ry="2.5" style="stroke:#181818;stroke-width:0.5;" width="100" x="473.5" y="658.2285"/><text fill="#000000" font-family="sans-serif" font-size="14" lengthAdjust="spacing" textLength="86" x="480.5" y="680.3359">&#171;component&#187;</text><text fill="#000000" font-family="sans-serif" font-size="14" lengthAdjust="spacing" textLength="59" x="496" y="698.957">UserDTO</text><rect fill="#E2E2F0" height="51.2422" rx="2.5" ry="2.5" style="stroke:#181818;stroke-width:0.5;" width="155" x="583.5" y="44.6211"/><text fill="#000000" font-family="sans-serif" font-size="14" lengthAdjust="spacing" textLength="86" x="618" y="66.7285">&#171;component&#187;</text><text fill="#000000" font-family="sans-serif" font-size="14" lengthAdjust="spacing" textLength="137" x="594.5" y="85.3496">AuthenticationService</text><rect fill="#E2E2F0" height="51.2422" rx="2.5" ry="2.5" style="stroke:#181818;stroke-width:0.5;" width="155" x="583.5" y="658.2285"/><text fill="#000000" font-family="sans-serif" font-size="14" lengthAdjust="spacing" textLength="86" x="618" y="680.3359">&#171;component&#187;</text><text fill="#000000" font-family="sans-serif" font-size="14" lengthAdjust="spacing" textLength="137" x="594.5" y="698.957">AuthenticationService</text><rect fill="#E2E2F0" height="51.2422" rx="2.5" ry="2.5" style="stroke:#181818;stroke-width:0.5;" width="115" x="935.5" y="44.6211"/><text fill="#000000" font-family="sans-serif" font-size="14" lengthAdjust="spacing" textLength="86" x="950" y="66.7285">&#171;component&#187;</text><text fill="#000000" font-family="sans-serif" font-size="14" lengthAdjust="spacing" textLength="97" x="946.5" y="85.3496">UserRepository</text><rect fill="#E2E2F0" height="51.2422" rx="2.5" ry="2.5" style="stroke:#181818;stroke-width:0.5;" width="115" x="935.5" y="658.2285"/><text fill="#000000" font-family="sans-serif" font-size="14" lengthAdjust="spacing" textLength="86" x="950" y="680.3359">&#171;component&#187;</text><text fill="#000000" font-family="sans-serif" font-size="14" lengthAdjust="spacing" textLength="97" x="946.5" y="698.957">UserRepository</text><rect fill="#FFFFFF" height="504.0742" style="stroke:#181818;stroke-width:1.0;" width="10" x="145" y="130.1543"/><rect fill="#FFFFFF" height="367.2793" style="stroke:#181818;stroke-width:1.0;" width="10" x="293.5" y="161.4453"/><rect fill="#FFFFFF" height="242.4551" style="stroke:#181818;stroke-width:1.0;" width="10" x="656" y="254.9785"/><rect fill="#FFFFFF" height="28" style="stroke:#181818;stroke-width:1.0;" width="10" x="661" y="356.8516"/><rect fill="#FFFFFF" height="28" style="stroke:#181818;stroke-width:1.0;" width="10" x="661" y="431.1426"/><rect fill="#FFFFFF" height="31.291" style="stroke:#181818;stroke-width:1.0;" width="10" x="988" y="286.2695"/><ellipse cx="7.5" cy="129.4043" fill="none" rx="4" ry="4" style="stroke:#181818;stroke-width:1.5;"/><polygon fill="#181818" points="133,126.1543,143,130.1543,133,134.1543,137,130.1543" style="stroke:#181818;stroke-width:1.0;"/><line style="stroke:#181818;stroke-width:1.0;" x1="12" x2="139" y1="130.1543" y2="130.1543"/><text fill="#000000" font-family="sans-serif" font-size="13" font-weight="bold" lengthAdjust="spacing" textLength="7" x="15" y="124.8916">1</text><text fill="#000000" font-family="sans-serif" font-size="13" lengthAdjust="spacing" textLength="67" x="26" y="124.8916">POST(json)</text><polygon fill="#181818" points="281.5,157.4453,291.5,161.4453,281.5,165.4453,285.5,161.4453" style="stroke:#181818;stroke-width:1.0;"/><line style="stroke:#181818;stroke-width:1.0;" x1="155" x2="287.5" y1="161.4453" y2="161.4453"/><text fill="#000000" font-family="sans-serif" font-size="13" font-weight="bold" lengthAdjust="spacing" textLength="7" x="162" y="156.1826">2</text><text fill="#000000" font-family="sans-serif" font-size="13" lengthAdjust="spacing" textLength="85" x="173" y="156.1826">loginStaff(json)</text><polygon fill="#181818" points="461.5,188.7363,471.5,192.7363,461.5,196.7363,465.5,192.7363" style="stroke:#181818;stroke-width:1.0;"/><line style="stroke:#181818;stroke-width:1.0;" x1="303.5" x2="467.5" y1="192.7363" y2="192.7363"/><text fill="#000000" font-family="sans-serif" font-size="13" font-weight="bold" lengthAdjust="spacing" textLength="7" x="310.5" y="187.4736">3</text><text fill="#000000" font-family="sans-serif" font-size="13" lengthAdjust="spacing" textLength="135" x="321.5" y="187.4736">toDTO(credentialsData)</text><rect fill="#E2E2F0" height="51.2422" rx="2.5" ry="2.5" style="stroke:#181818;stroke-width:0.5;" width="100" x="473.5" y="169.4453"/><text fill="#000000" font-family="sans-serif" font-size="14" lengthAdjust="spacing" textLength="86" x="480.5" y="191.5527">&#171;component&#187;</text><text fill="#000000" font-family="sans-serif" font-size="14" lengthAdjust="spacing" textLength="59" x="496" y="210.1738">UserDTO</text><polygon fill="#181818" points="644,250.9785,654,254.9785,644,258.9785,648,254.9785" style="stroke:#181818;stroke-width:1.0;"/><line style="stroke:#181818;stroke-width:1.0;" x1="303.5" x2="650" y1="254.9785" y2="254.9785"/><text fill="#000000" font-family="sans-serif" font-size="13" font-weight="bold" lengthAdjust="spacing" textLength="7" x="310.5" y="249.7158">4</text><text fill="#000000" font-family="sans-serif" font-size="13" lengthAdjust="spacing" textLength="200" x="321.5" y="249.7158">authenticateUser(noAuthUserDTO)</text><polygon fill="#181818" points="976,282.2695,986,286.2695,976,290.2695,980,286.2695" style="stroke:#181818;stroke-width:1.0;"/><line style="stroke:#181818;stroke-width:1.0;" x1="666" x2="982" y1="286.2695" y2="286.2695"/><text fill="#000000" font-family="sans-serif" font-size="13" font-weight="bold" lengthAdjust="spacing" textLength="7" x="673" y="281.0068">5</text><text fill="#000000" font-family="sans-serif" font-size="13" lengthAdjust="spacing" textLength="121" x="684" y="281.0068">findByID(emailString)</text><polygon fill="#181818" points="677,313.5605,667,317.5605,677,321.5605,673,317.5605" style="stroke:#181818;stroke-width:1.0;"/><line style="stroke:#181818;stroke-width:1.0;stroke-dasharray:2.0,2.0;" x1="671" x2="992" y1="317.5605" y2="317.5605"/><text fill="#000000" font-family="sans-serif" font-size="13" font-weight="bold" lengthAdjust="spacing" textLength="7" x="683" y="312.2979">6</text><text fill="#000000" font-family="sans-serif" font-size="13" lengthAdjust="spacing" textLength="25" x="694" y="312.2979">user</text><line style="stroke:#181818;stroke-width:1.0;" x1="671" x2="713" y1="348.8516" y2="348.8516"/><line style="stroke:#181818;stroke-width:1.0;" x1="713" x2="713" y1="348.8516" y2="361.8516"/><line style="stroke:#181818;stroke-width:1.0;" x1="672" x2="713" y1="361.8516" y2="361.8516"/><polygon fill="#181818" points="682,357.8516,672,361.8516,682,365.8516,678,361.8516" style="stroke:#181818;stroke-width:1.0;"/><text fill="#000000" font-family="sans-serif" font-size="13" font-weight="bold" lengthAdjust="spacing" textLength="7" x="678" y="343.5889">7</text><text fill="#000000" font-family="sans-serif" font-size="13" lengthAdjust="spacing" textLength="182" x="689" y="343.5889">hashPassword(passwordString)</text><line style="stroke:#181818;stroke-width:1.0;" x1="671" x2="713" y1="423.1426" y2="423.1426"/><line style="stroke:#181818;stroke-width:1.0;" x1="713" x2="713" y1="423.1426" y2="436.1426"/><line style="stroke:#181818;stroke-width:1.0;" x1="672" x2="713" y1="436.1426" y2="436.1426"/><polygon fill="#181818" points="682,432.1426,672,436.1426,682,440.1426,678,436.1426" style="stroke:#181818;stroke-width:1.0;"/><text fill="#000000" font-family="sans-serif" font-size="13" font-weight="bold" lengthAdjust="spacing" textLength="7" x="678" y="417.8799">8</text><text fill="#000000" font-family="sans-serif" font-size="13" lengthAdjust="spacing" textLength="297" x="689" y="417.8799">matchPassword(passwordStringHashed, password)</text><polygon fill="#181818" points="314.5,493.4336,304.5,497.4336,314.5,501.4336,310.5,497.4336" style="stroke:#181818;stroke-width:1.0;"/><line style="stroke:#181818;stroke-width:1.0;stroke-dasharray:2.0,2.0;" x1="308.5" x2="660" y1="497.4336" y2="497.4336"/><text fill="#000000" font-family="sans-serif" font-size="13" font-weight="bold" lengthAdjust="spacing" textLength="7" x="320.5" y="492.1709">9</text><text fill="#000000" font-family="sans-serif" font-size="13" lengthAdjust="spacing" textLength="33" x="331.5" y="492.1709">return</text><polygon fill="#181818" points="166,524.7246,156,528.7246,166,532.7246,162,528.7246" style="stroke:#181818;stroke-width:1.0;"/><line style="stroke:#181818;stroke-width:1.0;stroke-dasharray:2.0,2.0;" x1="160" x2="297.5" y1="528.7246" y2="528.7246"/><text fill="#000000" font-family="sans-serif" font-size="13" font-weight="bold" lengthAdjust="spacing" textLength="14" x="172" y="523.4619">10</text><text fill="#000000" font-family="sans-serif" font-size="13" lengthAdjust="spacing" textLength="33" x="190" y="523.4619">return</text><path d="M11,543.7246 L72,543.7246 L72,553.0156 L62,563.0156 L11,563.0156 L11,543.7246 " fill="#EEEEEE" style="stroke:#000000;stroke-width:1.5;"/><rect fill="none" height="98.5039" style="stroke:#000000;stroke-width:1.5;" width="199" x="11" y="543.7246"/><text fill="#000000" font-family="sans-serif" font-size="13" font-weight="bold" lengthAdjust="spacing" textLength="16" x="26" y="558.7529">alt</text><text fill="#000000" font-family="sans-serif" font-size="11" font-weight="bold" lengthAdjust="spacing" textLength="55" x="87" y="557.5947">[success]</text><ellipse cx="7.5" cy="585.5566" fill="none" rx="4" ry="4" style="stroke:#181818;stroke-width:1.5;"/><polygon fill="#181818" points="24.5,582.3066,14.5,586.3066,24.5,590.3066,20.5,586.3066" style="stroke:#181818;stroke-width:1.0;"/><line style="stroke:#181818;stroke-width:1.0;stroke-dasharray:2.0,2.0;" x1="22.5" x2="144" y1="586.3066" y2="586.3066"/><text fill="#000000" font-family="sans-serif" font-size="13" font-weight="bold" lengthAdjust="spacing" textLength="14" x="25" y="581.0439">11</text><text fill="#000000" font-family="sans-serif" font-size="13" lengthAdjust="spacing" textLength="44" x="43" y="581.0439">200 OK</text><line style="stroke:#000000;stroke-width:1.0;stroke-dasharray:2.0,2.0;" x1="11" x2="210" y1="595.3066" y2="595.3066"/><text fill="#000000" font-family="sans-serif" font-size="11" font-weight="bold" lengthAdjust="spacing" textLength="43" x="16" y="607.1768">[failure]</text><ellipse cx="7.5" cy="633.4785" fill="none" rx="4" ry="4" style="stroke:#181818;stroke-width:1.5;"/><polygon fill="#181818" points="24.5,630.2285,14.5,634.2285,24.5,638.2285,20.5,634.2285" style="stroke:#181818;stroke-width:1.0;"/><line style="stroke:#181818;stroke-width:1.0;stroke-dasharray:2.0,2.0;" x1="22.5" x2="149" y1="634.2285" y2="634.2285"/><text fill="#000000" font-family="sans-serif" font-size="13" font-weight="bold" lengthAdjust="spacing" textLength="14" x="25" y="628.9658">12</text><text fill="#000000" font-family="sans-serif" font-size="13" lengthAdjust="spacing" textLength="100" x="43" y="628.9658">400 Bad Request</text><!--SRC=[dPHBZzem58Nt_XKMcuPH0zFdOeIGXg7IL1qrA0dTj9jRvmRSEdPgNpEQVpzE22caj4ZTET7vpl5z92-sHBMxcKvh1PfyfIR2L5E7lpngWN4XOMEXOemaAUIZTSRVJLvDta_uoXg1pl4l4Xzvz80xLFpDUCGOU3BQLz_HCbQ39Iba7QpvQ3OBrhNHg6a-_wPvQZn9lHbnS3nDrlc7VyiN87ucPIa5hXtQEwF96gNGjlnTyZbFauSBYGsup9EMwCuNY5jFst2M0aWQdQ7TXVoMlrtdzytpvSGKQ-Ca6VlKWyqhnjXN4y_tfVCRlagoFFhXZ1up42HtGDYrXUqbGTkL6TJARAJE2CfooFIjE8W3rnLxTHL8Ck4K2Oj5KnWejmI2yOdyK5jGm-y6j7sFj6bwqXaUnVRzO3tTEJN51gTIwcBnz74POGLIPMJ3x0TyrvOUYa_luaCeA_0CCepiW2suxGgSUpIsYEhkS3QvlVd0-dmrdNK59FxcVHzYiNZ93s__8-jarXR9MtqUwQTsj4b_wlkT04NSUT5ykM7xPd7SGw-lhtdoYJ5K3daP9kGjie7cRT0ieE1fytjmT9omtrJK1GyHx1a0]--></g></svg>