<?xml version="1.0" encoding="us-ascii" standalone="no"?><svg xmlns="http://www.w3.org/2000/svg" xmlns:xlink="http://www.w3.org/1999/xlink" contentStyleType="text/css" height="705px" preserveAspectRatio="none" style="width:1454px;height:705px;background:#FFFFFF;" version="1.1" viewBox="0 0 1454 705" width="1454px" zoomAndPan="magnify"><defs/><g><text fill="#000000" font-family="sans-serif" font-size="14" font-weight="bold" lengthAdjust="spacing" textLength="222" x="615" y="30.1074">US 5.1.6. Process View (Level 3)</text><rect fill="#FFFFFF" height="498.0254" style="stroke:#181818;stroke-width:1.0;" width="10" x="171" y="130.1543"/><rect fill="#FFFFFF" height="432.4434" style="stroke:#181818;stroke-width:1.0;" width="10" x="362" y="161.4453"/><rect fill="#FFFFFF" height="307.6191" style="stroke:#181818;stroke-width:1.0;" width="10" x="724.5" y="254.9785"/><rect fill="#FFFFFF" height="31.291" style="stroke:#181818;stroke-width:1.0;" width="10" x="1056.5" y="286.2695"/><rect fill="#FFFFFF" height="93.873" style="stroke:#181818;stroke-width:1.0;" width="10" x="1197.5" y="437.4336"/><rect fill="#FFFFFF" height="31.291" style="stroke:#181818;stroke-width:1.0;" width="10" x="1365.5" y="468.7246"/><line style="stroke:#181818;stroke-width:0.5;stroke-dasharray:5.0,5.0;" x1="176" x2="176" y1="96.8633" y2="649.1797"/><line style="stroke:#181818;stroke-width:0.5;stroke-dasharray:5.0,5.0;" x1="367" x2="367" y1="96.8633" y2="649.1797"/><line style="stroke:#181818;stroke-width:0.5;stroke-dasharray:5.0,5.0;" x1="592" x2="592" y1="210.5664" y2="649.1797"/><line style="stroke:#181818;stroke-width:0.5;stroke-dasharray:5.0,5.0;" x1="729" x2="729" y1="96.8633" y2="649.1797"/><line style="stroke:#181818;stroke-width:0.5;stroke-dasharray:5.0,5.0;" x1="1061" x2="1061" y1="96.8633" y2="649.1797"/><line style="stroke:#181818;stroke-width:0.5;stroke-dasharray:5.0,5.0;" x1="1202" x2="1202" y1="96.8633" y2="649.1797"/><line style="stroke:#181818;stroke-width:0.5;stroke-dasharray:5.0,5.0;" x1="1370" x2="1370" y1="96.8633" y2="649.1797"/><rect fill="#E2E2F0" height="51.2422" rx="2.5" ry="2.5" style="stroke:#181818;stroke-width:0.5;" width="100" x="126" y="44.6211"/><text fill="#000000" font-family="sans-serif" font-size="14" lengthAdjust="spacing" textLength="86" x="133" y="66.7285">&#171;component&#187;</text><text fill="#000000" font-family="sans-serif" font-size="14" lengthAdjust="spacing" textLength="49" x="153.5" y="85.3496">Routing</text><rect fill="#E2E2F0" height="51.2422" rx="2.5" ry="2.5" style="stroke:#181818;stroke-width:0.5;" width="100" x="126" y="648.1797"/><text fill="#000000" font-family="sans-serif" font-size="14" lengthAdjust="spacing" textLength="86" x="133" y="670.2871">&#171;component&#187;</text><text fill="#000000" font-family="sans-serif" font-size="14" lengthAdjust="spacing" textLength="49" x="153.5" y="688.9082">Routing</text><rect fill="#E2E2F0" height="51.2422" rx="2.5" ry="2.5" style="stroke:#181818;stroke-width:0.5;" width="100" x="317" y="44.6211"/><text fill="#000000" font-family="sans-serif" font-size="14" lengthAdjust="spacing" textLength="86" x="324" y="66.7285">&#171;component&#187;</text><text fill="#000000" font-family="sans-serif" font-size="14" lengthAdjust="spacing" textLength="62" x="338" y="85.3496">Controller</text><rect fill="#E2E2F0" height="51.2422" rx="2.5" ry="2.5" style="stroke:#181818;stroke-width:0.5;" width="100" x="317" y="648.1797"/><text fill="#000000" font-family="sans-serif" font-size="14" lengthAdjust="spacing" textLength="86" x="324" y="670.2871">&#171;component&#187;</text><text fill="#000000" font-family="sans-serif" font-size="14" lengthAdjust="spacing" textLength="62" x="338" y="688.9082">Controller</text><rect fill="#E2E2F0" height="51.2422" rx="2.5" ry="2.5" style="stroke:#181818;stroke-width:0.5;" width="100" x="542" y="648.1797"/><text fill="#000000" font-family="sans-serif" font-size="14" lengthAdjust="spacing" textLength="86" x="549" y="670.2871">&#171;component&#187;</text><text fill="#000000" font-family="sans-serif" font-size="14" lengthAdjust="spacing" textLength="59" x="564.5" y="688.9082">UserDTO</text><rect fill="#E2E2F0" height="51.2422" rx="2.5" ry="2.5" style="stroke:#181818;stroke-width:0.5;" width="155" x="652" y="44.6211"/><text fill="#000000" font-family="sans-serif" font-size="14" lengthAdjust="spacing" textLength="86" x="686.5" y="66.7285">&#171;component&#187;</text><text fill="#000000" font-family="sans-serif" font-size="14" lengthAdjust="spacing" textLength="137" x="663" y="85.3496">AuthenticationService</text><rect fill="#E2E2F0" height="51.2422" rx="2.5" ry="2.5" style="stroke:#181818;stroke-width:0.5;" width="155" x="652" y="648.1797"/><text fill="#000000" font-family="sans-serif" font-size="14" lengthAdjust="spacing" textLength="86" x="686.5" y="670.2871">&#171;component&#187;</text><text fill="#000000" font-family="sans-serif" font-size="14" lengthAdjust="spacing" textLength="137" x="663" y="688.9082">AuthenticationService</text><rect fill="#E2E2F0" height="51.2422" rx="2.5" ry="2.5" style="stroke:#181818;stroke-width:0.5;" width="115" x="1004" y="44.6211"/><text fill="#000000" font-family="sans-serif" font-size="14" lengthAdjust="spacing" textLength="86" x="1018.5" y="66.7285">&#171;component&#187;</text><text fill="#000000" font-family="sans-serif" font-size="14" lengthAdjust="spacing" textLength="97" x="1015" y="85.3496">UserRepository</text><rect fill="#E2E2F0" height="51.2422" rx="2.5" ry="2.5" style="stroke:#181818;stroke-width:0.5;" width="115" x="1004" y="648.1797"/><text fill="#000000" font-family="sans-serif" font-size="14" lengthAdjust="spacing" textLength="86" x="1018.5" y="670.2871">&#171;component&#187;</text><text fill="#000000" font-family="sans-serif" font-size="14" lengthAdjust="spacing" textLength="97" x="1015" y="688.9082">UserRepository</text><rect fill="#E2E2F0" height="51.2422" rx="2.5" ry="2.5" style="stroke:#181818;stroke-width:0.5;" width="147" x="1129" y="44.6211"/><text fill="#000000" font-family="sans-serif" font-size="14" lengthAdjust="spacing" textLength="86" x="1159.5" y="66.7285">&#171;component&#187;</text><text fill="#000000" font-family="sans-serif" font-size="14" lengthAdjust="spacing" textLength="129" x="1140" y="85.3496">AuthorizationService</text><rect fill="#E2E2F0" height="51.2422" rx="2.5" ry="2.5" style="stroke:#181818;stroke-width:0.5;" width="147" x="1129" y="648.1797"/><text fill="#000000" font-family="sans-serif" font-size="14" lengthAdjust="spacing" textLength="86" x="1159.5" y="670.2871">&#171;component&#187;</text><text fill="#000000" font-family="sans-serif" font-size="14" lengthAdjust="spacing" textLength="129" x="1140" y="688.9082">AuthorizationService</text><rect fill="#E2E2F0" height="51.2422" rx="2.5" ry="2.5" style="stroke:#181818;stroke-width:0.5;" width="155" x="1293" y="44.6211"/><text fill="#000000" font-family="sans-serif" font-size="14" lengthAdjust="spacing" textLength="86" x="1327.5" y="66.7285">&#171;component&#187;</text><text fill="#000000" font-family="sans-serif" font-size="14" lengthAdjust="spacing" textLength="137" x="1304" y="85.3496">PermissionRepository</text><rect fill="#E2E2F0" height="51.2422" rx="2.5" ry="2.5" style="stroke:#181818;stroke-width:0.5;" width="155" x="1293" y="648.1797"/><text fill="#000000" font-family="sans-serif" font-size="14" lengthAdjust="spacing" textLength="86" x="1327.5" y="670.2871">&#171;component&#187;</text><text fill="#000000" font-family="sans-serif" font-size="14" lengthAdjust="spacing" textLength="137" x="1304" y="688.9082">PermissionRepository</text><rect fill="#FFFFFF" height="498.0254" style="stroke:#181818;stroke-width:1.0;" width="10" x="171" y="130.1543"/><rect fill="#FFFFFF" height="432.4434" style="stroke:#181818;stroke-width:1.0;" width="10" x="362" y="161.4453"/><rect fill="#FFFFFF" height="307.6191" style="stroke:#181818;stroke-width:1.0;" width="10" x="724.5" y="254.9785"/><rect fill="#FFFFFF" height="31.291" style="stroke:#181818;stroke-width:1.0;" width="10" x="1056.5" y="286.2695"/><rect fill="#FFFFFF" height="93.873" style="stroke:#181818;stroke-width:1.0;" width="10" x="1197.5" y="437.4336"/><rect fill="#FFFFFF" height="31.291" style="stroke:#181818;stroke-width:1.0;" width="10" x="1365.5" y="468.7246"/><ellipse cx="7.5" cy="129.4043" fill="none" rx="4" ry="4" style="stroke:#181818;stroke-width:1.5;"/><polygon fill="#181818" points="159,126.1543,169,130.1543,159,134.1543,163,130.1543" style="stroke:#181818;stroke-width:1.0;"/><line style="stroke:#181818;stroke-width:1.0;" x1="12" x2="165" y1="130.1543" y2="130.1543"/><text fill="#000000" font-family="sans-serif" font-size="13" font-weight="bold" lengthAdjust="spacing" textLength="7" x="15" y="124.8916">1</text><text fill="#000000" font-family="sans-serif" font-size="13" lengthAdjust="spacing" textLength="133" x="26" y="124.8916">POST(credentialsData)</text><polygon fill="#181818" points="350,157.4453,360,161.4453,350,165.4453,354,161.4453" style="stroke:#181818;stroke-width:1.0;"/><line style="stroke:#181818;stroke-width:1.0;" x1="181" x2="356" y1="161.4453" y2="161.4453"/><text fill="#000000" font-family="sans-serif" font-size="13" font-weight="bold" lengthAdjust="spacing" textLength="7" x="188" y="156.1826">2</text><text fill="#000000" font-family="sans-serif" font-size="13" lengthAdjust="spacing" textLength="151" x="199" y="156.1826">loginStaff(credentialsData)</text><polygon fill="#181818" points="530,188.7363,540,192.7363,530,196.7363,534,192.7363" style="stroke:#181818;stroke-width:1.0;"/><line style="stroke:#181818;stroke-width:1.0;" x1="372" x2="536" y1="192.7363" y2="192.7363"/><text fill="#000000" font-family="sans-serif" font-size="13" font-weight="bold" lengthAdjust="spacing" textLength="7" x="379" y="187.4736">3</text><text fill="#000000" font-family="sans-serif" font-size="13" lengthAdjust="spacing" textLength="135" x="390" y="187.4736">toDTO(credentialsData)</text><rect fill="#E2E2F0" height="51.2422" rx="2.5" ry="2.5" style="stroke:#181818;stroke-width:0.5;" width="100" x="542" y="169.4453"/><text fill="#000000" font-family="sans-serif" font-size="14" lengthAdjust="spacing" textLength="86" x="549" y="191.5527">&#171;component&#187;</text><text fill="#000000" font-family="sans-serif" font-size="14" lengthAdjust="spacing" textLength="59" x="564.5" y="210.1738">UserDTO</text><polygon fill="#181818" points="712.5,250.9785,722.5,254.9785,712.5,258.9785,716.5,254.9785" style="stroke:#181818;stroke-width:1.0;"/><line style="stroke:#181818;stroke-width:1.0;" x1="372" x2="718.5" y1="254.9785" y2="254.9785"/><text fill="#000000" font-family="sans-serif" font-size="13" font-weight="bold" lengthAdjust="spacing" textLength="7" x="379" y="249.7158">4</text><text fill="#000000" font-family="sans-serif" font-size="13" lengthAdjust="spacing" textLength="200" x="390" y="249.7158">authenticateUser(noAuthUserDTO)</text><polygon fill="#181818" points="1044.5,282.2695,1054.5,286.2695,1044.5,290.2695,1048.5,286.2695" style="stroke:#181818;stroke-width:1.0;"/><line style="stroke:#181818;stroke-width:1.0;" x1="734.5" x2="1050.5" y1="286.2695" y2="286.2695"/><text fill="#000000" font-family="sans-serif" font-size="13" font-weight="bold" lengthAdjust="spacing" textLength="7" x="741.5" y="281.0068">5</text><text fill="#000000" font-family="sans-serif" font-size="13" lengthAdjust="spacing" textLength="121" x="752.5" y="281.0068">findByID(emailString)</text><polygon fill="#181818" points="745.5,313.5605,735.5,317.5605,745.5,321.5605,741.5,317.5605" style="stroke:#181818;stroke-width:1.0;"/><line style="stroke:#181818;stroke-width:1.0;stroke-dasharray:2.0,2.0;" x1="739.5" x2="1060.5" y1="317.5605" y2="317.5605"/><text fill="#000000" font-family="sans-serif" font-size="13" font-weight="bold" lengthAdjust="spacing" textLength="7" x="751.5" y="312.2979">6</text><text fill="#000000" font-family="sans-serif" font-size="13" lengthAdjust="spacing" textLength="25" x="762.5" y="312.2979">user</text><line style="stroke:#181818;stroke-width:1.0;" x1="734.5" x2="776.5" y1="348.8516" y2="348.8516"/><line style="stroke:#181818;stroke-width:1.0;" x1="776.5" x2="776.5" y1="348.8516" y2="361.8516"/><line style="stroke:#181818;stroke-width:1.0;" x1="735.5" x2="776.5" y1="361.8516" y2="361.8516"/><polygon fill="#181818" points="745.5,357.8516,735.5,361.8516,745.5,365.8516,741.5,361.8516" style="stroke:#181818;stroke-width:1.0;"/><text fill="#000000" font-family="sans-serif" font-size="13" font-weight="bold" lengthAdjust="spacing" textLength="7" x="741.5" y="343.5889">7</text><text fill="#000000" font-family="sans-serif" font-size="13" lengthAdjust="spacing" textLength="182" x="752.5" y="343.5889">hashPassword(passwordString)</text><line style="stroke:#181818;stroke-width:1.0;" x1="734.5" x2="776.5" y1="393.1426" y2="393.1426"/><line style="stroke:#181818;stroke-width:1.0;" x1="776.5" x2="776.5" y1="393.1426" y2="406.1426"/><line style="stroke:#181818;stroke-width:1.0;" x1="735.5" x2="776.5" y1="406.1426" y2="406.1426"/><polygon fill="#181818" points="745.5,402.1426,735.5,406.1426,745.5,410.1426,741.5,406.1426" style="stroke:#181818;stroke-width:1.0;"/><text fill="#000000" font-family="sans-serif" font-size="13" font-weight="bold" lengthAdjust="spacing" textLength="7" x="741.5" y="387.8799">8</text><text fill="#000000" font-family="sans-serif" font-size="13" lengthAdjust="spacing" textLength="297" x="752.5" y="387.8799">matchPassword(passwordStringHashed, password)</text><polygon fill="#181818" points="1185.5,433.4336,1195.5,437.4336,1185.5,441.4336,1189.5,437.4336" style="stroke:#181818;stroke-width:1.0;"/><line style="stroke:#181818;stroke-width:1.0;" x1="734.5" x2="1191.5" y1="437.4336" y2="437.4336"/><text fill="#000000" font-family="sans-serif" font-size="13" font-weight="bold" lengthAdjust="spacing" textLength="7" x="741.5" y="432.1709">9</text><text fill="#000000" font-family="sans-serif" font-size="13" lengthAdjust="spacing" textLength="217" x="752.5" y="432.1709">validatePermissions(noAuthUserDTO)</text><polygon fill="#181818" points="1353.5,464.7246,1363.5,468.7246,1353.5,472.7246,1357.5,468.7246" style="stroke:#181818;stroke-width:1.0;"/><line style="stroke:#181818;stroke-width:1.0;" x1="1207.5" x2="1359.5" y1="468.7246" y2="468.7246"/><text fill="#000000" font-family="sans-serif" font-size="13" font-weight="bold" lengthAdjust="spacing" textLength="14" x="1214.5" y="463.4619">10</text><text fill="#000000" font-family="sans-serif" font-size="13" lengthAdjust="spacing" textLength="121" x="1232.5" y="463.4619">findByID(emailString)</text><polygon fill="#181818" points="1218.5,496.0156,1208.5,500.0156,1218.5,504.0156,1214.5,500.0156" style="stroke:#181818;stroke-width:1.0;"/><line style="stroke:#181818;stroke-width:1.0;stroke-dasharray:2.0,2.0;" x1="1212.5" x2="1369.5" y1="500.0156" y2="500.0156"/><text fill="#000000" font-family="sans-serif" font-size="13" font-weight="bold" lengthAdjust="spacing" textLength="14" x="1224.5" y="494.7529">11</text><text fill="#000000" font-family="sans-serif" font-size="13" lengthAdjust="spacing" textLength="33" x="1242.5" y="494.7529">return</text><polygon fill="#181818" points="745.5,527.3066,735.5,531.3066,745.5,535.3066,741.5,531.3066" style="stroke:#181818;stroke-width:1.0;"/><line style="stroke:#181818;stroke-width:1.0;stroke-dasharray:2.0,2.0;" x1="739.5" x2="1201.5" y1="531.3066" y2="531.3066"/><text fill="#000000" font-family="sans-serif" font-size="13" font-weight="bold" lengthAdjust="spacing" textLength="14" x="751.5" y="526.0439">12</text><text fill="#000000" font-family="sans-serif" font-size="13" lengthAdjust="spacing" textLength="33" x="769.5" y="526.0439">return</text><polygon fill="#181818" points="383,558.5977,373,562.5977,383,566.5977,379,562.5977" style="stroke:#181818;stroke-width:1.0;"/><line style="stroke:#181818;stroke-width:1.0;stroke-dasharray:2.0,2.0;" x1="377" x2="728.5" y1="562.5977" y2="562.5977"/><text fill="#000000" font-family="sans-serif" font-size="13" font-weight="bold" lengthAdjust="spacing" textLength="14" x="389" y="557.335">13</text><text fill="#000000" font-family="sans-serif" font-size="13" lengthAdjust="spacing" textLength="33" x="407" y="557.335">return</text><polygon fill="#181818" points="192,589.8887,182,593.8887,192,597.8887,188,593.8887" style="stroke:#181818;stroke-width:1.0;"/><line style="stroke:#181818;stroke-width:1.0;stroke-dasharray:2.0,2.0;" x1="186" x2="366" y1="593.8887" y2="593.8887"/><text fill="#000000" font-family="sans-serif" font-size="13" font-weight="bold" lengthAdjust="spacing" textLength="14" x="198" y="588.626">14</text><text fill="#000000" font-family="sans-serif" font-size="13" lengthAdjust="spacing" textLength="33" x="216" y="588.626">return</text><polygon fill="#181818" points="11,624.1797,1,628.1797,11,632.1797,7,628.1797" style="stroke:#181818;stroke-width:1.0;"/><line style="stroke:#181818;stroke-width:1.0;stroke-dasharray:2.0,2.0;" x1="5" x2="175" y1="628.1797" y2="628.1797"/><text fill="#000000" font-family="sans-serif" font-size="13" font-weight="bold" lengthAdjust="spacing" textLength="14" x="17" y="622.917">15</text><text fill="#000000" font-family="sans-serif" font-size="13" lengthAdjust="spacing" textLength="79" x="35" y="622.917">success/error</text><path d="M186,606.8887 L186,633.8887 L415,633.8887 L415,616.8887 L405,606.8887 L186,606.8887 " fill="#FEFFDD" style="stroke:#181818;stroke-width:0.5;"/><path d="M405,606.8887 L405,616.8887 L415,616.8887 L405,606.8887 " fill="#FEFFDD" style="stroke:#181818;stroke-width:0.5;"/><text fill="#000000" font-family="sans-serif" font-size="13" lengthAdjust="spacing" textLength="208" x="192" y="625.917">VER A SITUA&#199;AO DAS SESSOES</text><!--SRC=[ZPJTZfim48Nl_HHMRafM9L5LjHUhA1BTHDgLLYN2i1UqDovCWYMmgJrajNs1FbXVh2Ry9EHtxmoQxvpXp9WF6M9fxgVJCkSIgoAV9AgO6lXTWKp0JGNVQ5uGWW9peAE8qI-JJvEl4xhIAW5Zw8k0L-eymnPo-day8eHNg6HL_09DICarYaIKLfgEPZChNIe94kVpdv86ga8XDoFA3GtyA5nUBtzG4hNASz0xui7_7WR-ymsFo81UXFwEQCyt2A_2p9v5mb4eoK1lHG8xtel2n_hvjcC0fJ82bNxhmVhLEvoL5d_E6iUtdLUW2s6CXS_unqq3v8TovqtQz9wkV1OwYOQq_c2UcmL7FYOyGR7b2ErGI5DjiJPo2-Pg8oH3lbvVmVi9TPoLQ6TmTsT5KDdJANzOtaLkg_b-Bb2hE5BLWRM21xRzc4XFjqfr15PfBMJwxUrfuK31HSvGsoKyujkmUiWTzb9PKvB26UJOiWKoRh8LD-PLwTGfsqFdV0agE2QNg4Sh2Eb7shqTarEPkDNPyboajitzVfYhuSNxzEA1tllpY_Tfn8C0kvuqOANbSOQ7MECyJEG2TJpjmQgUPngatxI3Et5Qt-_np7NxCbCbzUzl2behJQIoTLfiCYGlou1wb3s5aVVlh-VJXSSeMpBcBna1cTAwb1pADxViFm00]--></g></svg>