<?xml version="1.0" encoding="UTF-8" standalone="no"?><svg xmlns="http://www.w3.org/2000/svg" xmlns:xlink="http://www.w3.org/1999/xlink" contentStyleType="text/css" height="665px" preserveAspectRatio="none" style="width:1705px;height:665px;background:#FFFFFF;" version="1.1" viewBox="0 0 1705 665" width="1705px" zoomAndPan="magnify"><defs/><g><text fill="#000000" font-family="sans-serif" font-size="14" font-weight="bold" lengthAdjust="spacing" textLength="400" x="651.5" y="29.5332">US 5.1.6. Process View | Failed Login, 5 attempts (Level 3)</text><rect fill="#FFFFFF" height="428.5625" style="stroke:#181818;stroke-width:1.0;" width="10" x="145" y="150.0781"/><rect fill="#FFFFFF" height="350.25" style="stroke:#181818;stroke-width:1.0;" width="10" x="517" y="189.2344"/><rect fill="#FFFFFF" height="196.625" style="stroke:#181818;stroke-width:1.0;" width="10" x="1004" y="303.7031"/><rect fill="#FFFFFF" height="28" style="stroke:#181818;stroke-width:1.0;" width="10" x="1009" y="426.1719"/><line style="stroke:#181818;stroke-width:0.5;stroke-dasharray:5.0,5.0;" x1="150" x2="150" y1="108.9219" y2="596.6406"/><line style="stroke:#181818;stroke-width:0.5;stroke-dasharray:5.0,5.0;" x1="521.5" x2="521.5" y1="108.9219" y2="596.6406"/><line style="stroke:#181818;stroke-width:0.5;stroke-dasharray:5.0,5.0;" x1="842" x2="842" y1="244.8906" y2="596.6406"/><line style="stroke:#181818;stroke-width:0.5;stroke-dasharray:5.0,5.0;" x1="1008.5" x2="1008.5" y1="108.9219" y2="596.6406"/><line style="stroke:#181818;stroke-width:0.5;stroke-dasharray:5.0,5.0;" x1="1633" x2="1633" y1="359.3594" y2="596.6406"/><rect fill="#E2E2F0" height="64.3125" rx="2.5" ry="2.5" style="stroke:#181818;stroke-width:0.5;" width="132" x="84" y="43.6094"/><text fill="#000000" font-family="sans-serif" font-size="20" lengthAdjust="spacing" textLength="118" x="91" y="71.3711">«component»</text><text fill="#000000" font-family="sans-serif" font-size="20" lengthAdjust="spacing" textLength="66" x="120" y="96.5273">Routing</text><rect fill="#E2E2F0" height="64.3125" rx="2.5" ry="2.5" style="stroke:#181818;stroke-width:0.5;" width="132" x="84" y="595.6406"/><text fill="#000000" font-family="sans-serif" font-size="20" lengthAdjust="spacing" textLength="118" x="91" y="623.4023">«component»</text><text fill="#000000" font-family="sans-serif" font-size="20" lengthAdjust="spacing" textLength="66" x="120" y="648.5586">Routing</text><rect fill="#E2E2F0" height="64.3125" rx="2.5" ry="2.5" style="stroke:#181818;stroke-width:0.5;" width="243" x="400.5" y="43.6094"/><text fill="#000000" font-family="sans-serif" font-size="20" lengthAdjust="spacing" textLength="118" x="463" y="71.3711">«component»</text><text fill="#000000" font-family="sans-serif" font-size="20" lengthAdjust="spacing" textLength="223" x="413.5" y="96.5273">BackOfficeUserController</text><rect fill="#E2E2F0" height="64.3125" rx="2.5" ry="2.5" style="stroke:#181818;stroke-width:0.5;" width="243" x="400.5" y="595.6406"/><text fill="#000000" font-family="sans-serif" font-size="20" lengthAdjust="spacing" textLength="118" x="463" y="623.4023">«component»</text><text fill="#000000" font-family="sans-serif" font-size="20" lengthAdjust="spacing" textLength="223" x="413.5" y="648.5586">BackOfficeUserController</text><rect fill="#E2E2F0" height="64.3125" rx="2.5" ry="2.5" style="stroke:#181818;stroke-width:0.5;" width="132" x="776" y="595.6406"/><text fill="#000000" font-family="sans-serif" font-size="20" lengthAdjust="spacing" textLength="118" x="783" y="623.4023">«component»</text><text fill="#000000" font-family="sans-serif" font-size="20" lengthAdjust="spacing" textLength="83" x="803.5" y="648.5586">UserDTO</text><rect fill="#E2E2F0" height="64.3125" rx="2.5" ry="2.5" style="stroke:#181818;stroke-width:0.5;" width="133" x="942.5" y="43.6094"/><text fill="#000000" font-family="sans-serif" font-size="20" lengthAdjust="spacing" textLength="118" x="950" y="71.3711">«component»</text><text fill="#000000" font-family="sans-serif" font-size="20" lengthAdjust="spacing" textLength="113" x="955.5" y="96.5273">EmailService</text><rect fill="#E2E2F0" height="64.3125" rx="2.5" ry="2.5" style="stroke:#181818;stroke-width:0.5;" width="133" x="942.5" y="595.6406"/><text fill="#000000" font-family="sans-serif" font-size="20" lengthAdjust="spacing" textLength="118" x="950" y="623.4023">«component»</text><text fill="#000000" font-family="sans-serif" font-size="20" lengthAdjust="spacing" textLength="113" x="955.5" y="648.5586">EmailService</text><rect fill="#E2E2F0" height="64.3125" rx="2.5" ry="2.5" style="stroke:#181818;stroke-width:0.5;" width="132" x="1567" y="595.6406"/><text fill="#000000" font-family="sans-serif" font-size="20" lengthAdjust="spacing" textLength="118" x="1574" y="623.4023">«component»</text><text fill="#000000" font-family="sans-serif" font-size="20" lengthAdjust="spacing" textLength="90" x="1591" y="648.5586">EmailDTO</text><rect fill="#FFFFFF" height="428.5625" style="stroke:#181818;stroke-width:1.0;" width="10" x="145" y="150.0781"/><rect fill="#FFFFFF" height="350.25" style="stroke:#181818;stroke-width:1.0;" width="10" x="517" y="189.2344"/><rect fill="#FFFFFF" height="196.625" style="stroke:#181818;stroke-width:1.0;" width="10" x="1004" y="303.7031"/><rect fill="#FFFFFF" height="28" style="stroke:#181818;stroke-width:1.0;" width="10" x="1009" y="426.1719"/><ellipse cx="7.5" cy="149.3281" fill="none" rx="4" ry="4" style="stroke:#181818;stroke-width:1.5;"/><polygon fill="#181818" points="133,146.0781,143,150.0781,133,154.0781,137,150.0781" style="stroke:#181818;stroke-width:1.0;"/><line style="stroke:#181818;stroke-width:1.0;" x1="12" x2="139" y1="150.0781" y2="150.0781"/><text fill="#000000" font-family="sans-serif" font-size="20" font-weight="bold" lengthAdjust="spacing" textLength="11" x="15" y="143.6836">1</text><text fill="#000000" font-family="sans-serif" font-size="20" lengthAdjust="spacing" textLength="103" x="30" y="143.6836">POST(json)</text><polygon fill="#181818" points="505,185.2344,515,189.2344,505,193.2344,509,189.2344" style="stroke:#181818;stroke-width:1.0;"/><line style="stroke:#181818;stroke-width:1.0;" x1="155" x2="511" y1="189.2344" y2="189.2344"/><text fill="#000000" font-family="sans-serif" font-size="20" font-weight="bold" lengthAdjust="spacing" textLength="11" x="162" y="182.8398">2</text><text fill="#000000" font-family="sans-serif" font-size="20" lengthAdjust="spacing" textLength="328" x="177" y="182.8398">notifyAdminLoginTriesExceeded(json)</text><polygon fill="#181818" points="764,224.3906,774,228.3906,764,232.3906,768,228.3906" style="stroke:#181818;stroke-width:1.0;"/><line style="stroke:#181818;stroke-width:1.0;" x1="527" x2="770" y1="228.3906" y2="228.3906"/><text fill="#000000" font-family="sans-serif" font-size="20" font-weight="bold" lengthAdjust="spacing" textLength="11" x="534" y="221.9961">3</text><text fill="#000000" font-family="sans-serif" font-size="20" lengthAdjust="spacing" textLength="210" x="549" y="221.9961">toDTO(credentialsData)</text><rect fill="#E2E2F0" height="64.3125" rx="2.5" ry="2.5" style="stroke:#181818;stroke-width:0.5;" width="132" x="776" y="197.2344"/><text fill="#000000" font-family="sans-serif" font-size="20" lengthAdjust="spacing" textLength="118" x="783" y="224.9961">«component»</text><text fill="#000000" font-family="sans-serif" font-size="20" lengthAdjust="spacing" textLength="83" x="803.5" y="250.1523">UserDTO</text><polygon fill="#181818" points="992,299.7031,1002,303.7031,992,307.7031,996,303.7031" style="stroke:#181818;stroke-width:1.0;"/><line style="stroke:#181818;stroke-width:1.0;" x1="527" x2="998" y1="303.7031" y2="303.7031"/><text fill="#000000" font-family="sans-serif" font-size="20" font-weight="bold" lengthAdjust="spacing" textLength="11" x="534" y="297.3086">4</text><text fill="#000000" font-family="sans-serif" font-size="20" lengthAdjust="spacing" textLength="443" x="549" y="297.3086">notifyAdminAboutLockedAccount(noAuthUserDTO)</text><polygon fill="#181818" points="1555,338.8594,1565,342.8594,1555,346.8594,1559,342.8594" style="stroke:#181818;stroke-width:1.0;"/><line style="stroke:#181818;stroke-width:1.0;" x1="1014" x2="1561" y1="342.8594" y2="342.8594"/><text fill="#000000" font-family="sans-serif" font-size="20" font-weight="bold" lengthAdjust="spacing" textLength="11" x="1021" y="336.4648">5</text><text fill="#000000" font-family="sans-serif" font-size="20" lengthAdjust="spacing" textLength="514" x="1036" y="336.4648">toDTO(ADMIN_EMAIL, emailString, emailTitle, emailBody)</text><rect fill="#E2E2F0" height="64.3125" rx="2.5" ry="2.5" style="stroke:#181818;stroke-width:0.5;" width="132" x="1567" y="311.7031"/><text fill="#000000" font-family="sans-serif" font-size="20" lengthAdjust="spacing" textLength="118" x="1574" y="339.4648">«component»</text><text fill="#000000" font-family="sans-serif" font-size="20" lengthAdjust="spacing" textLength="90" x="1591" y="364.6211">EmailDTO</text><line style="stroke:#181818;stroke-width:1.0;" x1="1019" x2="1061" y1="418.1719" y2="418.1719"/><line style="stroke:#181818;stroke-width:1.0;" x1="1061" x2="1061" y1="418.1719" y2="431.1719"/><line style="stroke:#181818;stroke-width:1.0;" x1="1020" x2="1061" y1="431.1719" y2="431.1719"/><polygon fill="#181818" points="1030,427.1719,1020,431.1719,1030,435.1719,1026,431.1719" style="stroke:#181818;stroke-width:1.0;"/><text fill="#000000" font-family="sans-serif" font-size="20" font-weight="bold" lengthAdjust="spacing" textLength="11" x="1026" y="411.7773">6</text><text fill="#000000" font-family="sans-serif" font-size="20" lengthAdjust="spacing" textLength="192" x="1041" y="411.7773">sendEmail(emailDTO)</text><polygon fill="#181818" points="538,496.3281,528,500.3281,538,504.3281,534,500.3281" style="stroke:#181818;stroke-width:1.0;"/><line style="stroke:#181818;stroke-width:1.0;stroke-dasharray:2.0,2.0;" x1="532" x2="1008" y1="500.3281" y2="500.3281"/><text fill="#000000" font-family="sans-serif" font-size="20" font-weight="bold" lengthAdjust="spacing" textLength="11" x="544" y="493.9336">7</text><text fill="#000000" font-family="sans-serif" font-size="20" lengthAdjust="spacing" textLength="51" x="559" y="493.9336">return</text><polygon fill="#181818" points="166,535.4844,156,539.4844,166,543.4844,162,539.4844" style="stroke:#181818;stroke-width:1.0;"/><line style="stroke:#181818;stroke-width:1.0;stroke-dasharray:2.0,2.0;" x1="160" x2="521" y1="539.4844" y2="539.4844"/><text fill="#000000" font-family="sans-serif" font-size="20" font-weight="bold" lengthAdjust="spacing" textLength="11" x="172" y="533.0898">8</text><text fill="#000000" font-family="sans-serif" font-size="20" lengthAdjust="spacing" textLength="51" x="187" y="533.0898">return</text><ellipse cx="7.5" cy="577.8906" fill="none" rx="4" ry="4" style="stroke:#181818;stroke-width:1.5;"/><polygon fill="#181818" points="24.5,574.6406,14.5,578.6406,24.5,582.6406,20.5,578.6406" style="stroke:#181818;stroke-width:1.0;"/><line style="stroke:#181818;stroke-width:1.0;" x1="22.5" x2="149" y1="578.6406" y2="578.6406"/><text fill="#000000" font-family="sans-serif" font-size="20" font-weight="bold" lengthAdjust="spacing" textLength="11" x="25" y="572.2461">9</text><text fill="#000000" font-family="sans-serif" font-size="20" lengthAdjust="spacing" textLength="68" x="40" y="572.2461">200 OK</text><!--SRC=[ZL9BRzim3BxhLn2vp2cQnpfqXo88u3OfKCojYyJPfGC6LMPIBRBaILIs3llnKnp7TRf7TgE4xq5-f5jBNNBB2sN46dF8SSczeckZQIv_89mDsPidej9T30QbuffyeVh250E7NprgWRrSybNWCqQI549dCOVp_jl- -pxSMoFGEVWeyHlyX6ikLN18p4hgKpW7JeH5IGwY13Ueu5stmnZtPBGl7j4o5leYAMGPNA4p6WNNqcZKD1v_qZ0pdgHUTO0xcAMBRFfl-2KNwtIvb08N3krL6CyQfT1M_AlqBfkboH77BN6IfHMZheymfaKOUOvs4smhslGslacs7__1srlj7umzcDvuDojSm7qwpw8lpkWkuuBaXXFMER0T963hkG9Q6vBBvpWlfAxopwn4D_qk47FCNyiqSUpvGQeU-EGaY949LIHiu6gINBa99zuzW3U37dh7Zs5hINLfiH36QugqYJqzrVAj9bwYOYzYM-Kw3cYr4azkR-u-Lx1Jm2fqik4uwaUsFSowlZJvS_UrPAjPXpglB2AiZVxOKuv76Zr8to9vg_z2Qb9hBVTtGhEJ1pFgDRYpuH3I3stSxWH-0G00]--></g></svg>