<?xml version="1.0" encoding="us-ascii" standalone="no"?><svg xmlns="http://www.w3.org/2000/svg" xmlns:xlink="http://www.w3.org/1999/xlink" contentStyleType="text/css" height="467px" preserveAspectRatio="none" style="width:1074px;height:467px;background:#FFFFFF;" version="1.1" viewBox="0 0 1074 467" width="1074px" zoomAndPan="magnify"><defs/><g><text fill="#000000" font-family="sans-serif" font-size="14" font-weight="bold" lengthAdjust="spacing" textLength="400" x="339" y="30.1074">US 5.1.6. Process View | Failed Login, 5 attempts (Level 3)</text><rect fill="#FFFFFF" height="262.9883" style="stroke:#181818;stroke-width:1.0;" width="10" x="105" y="130.1543"/><rect fill="#FFFFFF" height="200.4063" style="stroke:#181818;stroke-width:1.0;" width="10" x="362" y="161.4453"/><rect fill="#FFFFFF" height="75.582" style="stroke:#181818;stroke-width:1.0;" width="10" x="697" y="254.9785"/><line style="stroke:#181818;stroke-width:0.5;stroke-dasharray:5.0,5.0;" x1="110" x2="110" y1="96.8633" y2="411.1426"/><line style="stroke:#181818;stroke-width:0.5;stroke-dasharray:5.0,5.0;" x1="366.5" x2="366.5" y1="96.8633" y2="411.1426"/><line style="stroke:#181818;stroke-width:0.5;stroke-dasharray:5.0,5.0;" x1="592" x2="592" y1="210.5664" y2="411.1426"/><line style="stroke:#181818;stroke-width:0.5;stroke-dasharray:5.0,5.0;" x1="702" x2="702" y1="96.8633" y2="411.1426"/><rect fill="#E2E2F0" height="51.2422" rx="2.5" ry="2.5" style="stroke:#181818;stroke-width:0.5;" width="100" x="60" y="44.6211"/><text fill="#000000" font-family="sans-serif" font-size="14" lengthAdjust="spacing" textLength="86" x="67" y="66.7285">&#171;component&#187;</text><text fill="#000000" font-family="sans-serif" font-size="14" lengthAdjust="spacing" textLength="49" x="87.5" y="85.3496">Routing</text><rect fill="#E2E2F0" height="51.2422" rx="2.5" ry="2.5" style="stroke:#181818;stroke-width:0.5;" width="100" x="60" y="410.1426"/><text fill="#000000" font-family="sans-serif" font-size="14" lengthAdjust="spacing" textLength="86" x="67" y="432.25">&#171;component&#187;</text><text fill="#000000" font-family="sans-serif" font-size="14" lengthAdjust="spacing" textLength="49" x="87.5" y="450.8711">Routing</text><rect fill="#E2E2F0" height="51.2422" rx="2.5" ry="2.5" style="stroke:#181818;stroke-width:0.5;" width="177" x="278.5" y="44.6211"/><text fill="#000000" font-family="sans-serif" font-size="14" lengthAdjust="spacing" textLength="86" x="324" y="66.7285">&#171;component&#187;</text><text fill="#000000" font-family="sans-serif" font-size="14" lengthAdjust="spacing" textLength="159" x="289.5" y="85.3496">BackOfficeUserController</text><rect fill="#E2E2F0" height="51.2422" rx="2.5" ry="2.5" style="stroke:#181818;stroke-width:0.5;" width="177" x="278.5" y="410.1426"/><text fill="#000000" font-family="sans-serif" font-size="14" lengthAdjust="spacing" textLength="86" x="324" y="432.25">&#171;component&#187;</text><text fill="#000000" font-family="sans-serif" font-size="14" lengthAdjust="spacing" textLength="159" x="289.5" y="450.8711">BackOfficeUserController</text><rect fill="#E2E2F0" height="51.2422" rx="2.5" ry="2.5" style="stroke:#181818;stroke-width:0.5;" width="100" x="542" y="410.1426"/><text fill="#000000" font-family="sans-serif" font-size="14" lengthAdjust="spacing" textLength="86" x="549" y="432.25">&#171;component&#187;</text><text fill="#000000" font-family="sans-serif" font-size="14" lengthAdjust="spacing" textLength="59" x="564.5" y="450.8711">UserDTO</text><rect fill="#E2E2F0" height="51.2422" rx="2.5" ry="2.5" style="stroke:#181818;stroke-width:0.5;" width="100" x="652" y="44.6211"/><text fill="#000000" font-family="sans-serif" font-size="14" lengthAdjust="spacing" textLength="86" x="659" y="66.7285">&#171;component&#187;</text><text fill="#000000" font-family="sans-serif" font-size="14" lengthAdjust="spacing" textLength="81" x="663.5" y="85.3496">EmailService</text><rect fill="#E2E2F0" height="51.2422" rx="2.5" ry="2.5" style="stroke:#181818;stroke-width:0.5;" width="100" x="652" y="410.1426"/><text fill="#000000" font-family="sans-serif" font-size="14" lengthAdjust="spacing" textLength="86" x="659" y="432.25">&#171;component&#187;</text><text fill="#000000" font-family="sans-serif" font-size="14" lengthAdjust="spacing" textLength="81" x="663.5" y="450.8711">EmailService</text><rect fill="#FFFFFF" height="262.9883" style="stroke:#181818;stroke-width:1.0;" width="10" x="105" y="130.1543"/><rect fill="#FFFFFF" height="200.4063" style="stroke:#181818;stroke-width:1.0;" width="10" x="362" y="161.4453"/><rect fill="#FFFFFF" height="75.582" style="stroke:#181818;stroke-width:1.0;" width="10" x="697" y="254.9785"/><ellipse cx="7.5" cy="129.4043" fill="none" rx="4" ry="4" style="stroke:#181818;stroke-width:1.5;"/><polygon fill="#181818" points="93,126.1543,103,130.1543,93,134.1543,97,130.1543" style="stroke:#181818;stroke-width:1.0;"/><line style="stroke:#181818;stroke-width:1.0;" x1="12" x2="99" y1="130.1543" y2="130.1543"/><text fill="#000000" font-family="sans-serif" font-size="13" font-weight="bold" lengthAdjust="spacing" textLength="7" x="15" y="124.8916">1</text><text fill="#000000" font-family="sans-serif" font-size="13" lengthAdjust="spacing" textLength="67" x="26" y="124.8916">POST(json)</text><polygon fill="#181818" points="350,157.4453,360,161.4453,350,165.4453,354,161.4453" style="stroke:#181818;stroke-width:1.0;"/><line style="stroke:#181818;stroke-width:1.0;" x1="115" x2="356" y1="161.4453" y2="161.4453"/><text fill="#000000" font-family="sans-serif" font-size="13" font-weight="bold" lengthAdjust="spacing" textLength="7" x="122" y="156.1826">2</text><text fill="#000000" font-family="sans-serif" font-size="13" lengthAdjust="spacing" textLength="217" x="133" y="156.1826">notifyAdminLoginTriesExceeded(json)</text><polygon fill="#181818" points="530,188.7363,540,192.7363,530,196.7363,534,192.7363" style="stroke:#181818;stroke-width:1.0;"/><line style="stroke:#181818;stroke-width:1.0;" x1="372" x2="536" y1="192.7363" y2="192.7363"/><text fill="#000000" font-family="sans-serif" font-size="13" font-weight="bold" lengthAdjust="spacing" textLength="7" x="379" y="187.4736">3</text><text fill="#000000" font-family="sans-serif" font-size="13" lengthAdjust="spacing" textLength="135" x="390" y="187.4736">toDTO(credentialsData)</text><rect fill="#E2E2F0" height="51.2422" rx="2.5" ry="2.5" style="stroke:#181818;stroke-width:0.5;" width="100" x="542" y="169.4453"/><text fill="#000000" font-family="sans-serif" font-size="14" lengthAdjust="spacing" textLength="86" x="549" y="191.5527">&#171;component&#187;</text><text fill="#000000" font-family="sans-serif" font-size="14" lengthAdjust="spacing" textLength="59" x="564.5" y="210.1738">UserDTO</text><polygon fill="#181818" points="685,250.9785,695,254.9785,685,258.9785,689,254.9785" style="stroke:#181818;stroke-width:1.0;"/><line style="stroke:#181818;stroke-width:1.0;" x1="372" x2="691" y1="254.9785" y2="254.9785"/><text fill="#000000" font-family="sans-serif" font-size="13" font-weight="bold" lengthAdjust="spacing" textLength="7" x="379" y="249.7158">4</text><text fill="#000000" font-family="sans-serif" font-size="13" lengthAdjust="spacing" textLength="294" x="390" y="249.7158">notifyAdminAboutLockedAccount(noAuthUserDTO)</text><line style="stroke:#181818;stroke-width:1.0;" x1="707" x2="749" y1="286.2695" y2="286.2695"/><line style="stroke:#181818;stroke-width:1.0;" x1="749" x2="749" y1="286.2695" y2="299.2695"/><line style="stroke:#181818;stroke-width:1.0;" x1="708" x2="749" y1="299.2695" y2="299.2695"/><polygon fill="#181818" points="718,295.2695,708,299.2695,718,303.2695,714,299.2695" style="stroke:#181818;stroke-width:1.0;"/><text fill="#000000" font-family="sans-serif" font-size="13" font-weight="bold" lengthAdjust="spacing" textLength="7" x="714" y="281.0068">5</text><text fill="#000000" font-family="sans-serif" font-size="13" lengthAdjust="spacing" textLength="342" x="725" y="281.0068">sendEmail(adminEmail, emailString, emailTitle, emailBody)</text><polygon fill="#181818" points="383,326.5605,373,330.5605,383,334.5605,379,330.5605" style="stroke:#181818;stroke-width:1.0;"/><line style="stroke:#181818;stroke-width:1.0;stroke-dasharray:2.0,2.0;" x1="377" x2="701" y1="330.5605" y2="330.5605"/><text fill="#000000" font-family="sans-serif" font-size="13" font-weight="bold" lengthAdjust="spacing" textLength="7" x="389" y="325.2979">6</text><text fill="#000000" font-family="sans-serif" font-size="13" lengthAdjust="spacing" textLength="33" x="400" y="325.2979">return</text><polygon fill="#181818" points="126,357.8516,116,361.8516,126,365.8516,122,361.8516" style="stroke:#181818;stroke-width:1.0;"/><line style="stroke:#181818;stroke-width:1.0;stroke-dasharray:2.0,2.0;" x1="120" x2="366" y1="361.8516" y2="361.8516"/><text fill="#000000" font-family="sans-serif" font-size="13" font-weight="bold" lengthAdjust="spacing" textLength="7" x="132" y="356.5889">7</text><text fill="#000000" font-family="sans-serif" font-size="13" lengthAdjust="spacing" textLength="33" x="143" y="356.5889">return</text><polygon fill="#181818" points="11,389.1426,1,393.1426,11,397.1426,7,393.1426" style="stroke:#181818;stroke-width:1.0;"/><line style="stroke:#181818;stroke-width:1.0;" x1="5" x2="109" y1="393.1426" y2="393.1426"/><text fill="#000000" font-family="sans-serif" font-size="13" font-weight="bold" lengthAdjust="spacing" textLength="7" x="17" y="387.8799">8</text><text fill="#000000" font-family="sans-serif" font-size="13" lengthAdjust="spacing" textLength="33" x="28" y="387.8799">return</text><!--SRC=[XLB1Ji904BtlLqouM8n0ZD638IG5CJ6fra3nefTrTy3LThRkJb4JFzwbL0GrUfjjtdlptflkFJ2N_hJNAtD9N1LvLzcYv_6vGbBOqKOkd2o4OCCvGcisXUFkOVUa2zVEAlGURWo-m3kSIvEZXiGk31t0CKXcB4hs42Mun1oEsYqXPCMMgk8UdH2bT6oKASDMQFNxOMjf2Oa7Wpk2YQtOqA85qiCadMNZl-53gPxI-Tmed7bq8qliR9wZg_cZz2gRfCa_6rV4iooj6Sty3sDSXCXJTCkmjgQDB-EBPFL1Y5lR6QoDmobSfzCiUlIMsa8gDal9s8GIQqZ0DYO3cYoR-Lki2qDrcPapwCUl2b6Z_YwpoVR93rAD-_tz8COsJ95oWKjiPExF9Cls3dpZUdTtV1zEa5ZrX3fMobR44TcuueT6Vil4LkuliM_A7adNXKLofLwF1u1rXUp2gPj7jlhDcdbezLjxHtEdA8TSEH8QVpEo2RXrXv-4JNtzpX-ezQq-0000]--></g></svg>