<?xml version="1.0" encoding="us-ascii" standalone="no"?><svg xmlns="http://www.w3.org/2000/svg" xmlns:xlink="http://www.w3.org/1999/xlink" contentStyleType="text/css" height="574px" preserveAspectRatio="none" style="width:1027px;height:574px;background:#FFFFFF;" version="1.1" viewBox="0 0 1027 574" width="1027px" zoomAndPan="magnify"><defs/><g><text fill="#000000" font-family="sans-serif" font-size="14" font-weight="bold" lengthAdjust="spacing" textLength="222" x="401.75" y="30.1074">US 5.1.6. Process View (Level 3)</text><rect fill="#FFFFFF" height="369.8613" style="stroke:#181818;stroke-width:1.0;" width="10" x="116" y="130.1543"/><rect fill="#FFFFFF" height="307.2793" style="stroke:#181818;stroke-width:1.0;" width="10" x="264.5" y="161.4453"/><rect fill="#FFFFFF" height="182.4551" style="stroke:#181818;stroke-width:1.0;" width="10" x="627" y="254.9785"/><rect fill="#FFFFFF" height="31.291" style="stroke:#181818;stroke-width:1.0;" width="10" x="959" y="286.2695"/><line style="stroke:#181818;stroke-width:0.5;stroke-dasharray:5.0,5.0;" x1="121" x2="121" y1="96.8633" y2="518.0156"/><line style="stroke:#181818;stroke-width:0.5;stroke-dasharray:5.0,5.0;" x1="269" x2="269" y1="96.8633" y2="518.0156"/><line style="stroke:#181818;stroke-width:0.5;stroke-dasharray:5.0,5.0;" x1="494.5" x2="494.5" y1="210.5664" y2="518.0156"/><line style="stroke:#181818;stroke-width:0.5;stroke-dasharray:5.0,5.0;" x1="631.5" x2="631.5" y1="96.8633" y2="518.0156"/><line style="stroke:#181818;stroke-width:0.5;stroke-dasharray:5.0,5.0;" x1="963.5" x2="963.5" y1="96.8633" y2="518.0156"/><rect fill="#E2E2F0" height="51.2422" rx="2.5" ry="2.5" style="stroke:#181818;stroke-width:0.5;" width="100" x="71" y="44.6211"/><text fill="#000000" font-family="sans-serif" font-size="14" lengthAdjust="spacing" textLength="86" x="78" y="66.7285">&#171;component&#187;</text><text fill="#000000" font-family="sans-serif" font-size="14" lengthAdjust="spacing" textLength="49" x="98.5" y="85.3496">Routing</text><rect fill="#E2E2F0" height="51.2422" rx="2.5" ry="2.5" style="stroke:#181818;stroke-width:0.5;" width="100" x="71" y="517.0156"/><text fill="#000000" font-family="sans-serif" font-size="14" lengthAdjust="spacing" textLength="86" x="78" y="539.123">&#171;component&#187;</text><text fill="#000000" font-family="sans-serif" font-size="14" lengthAdjust="spacing" textLength="49" x="98.5" y="557.7441">Routing</text><rect fill="#E2E2F0" height="51.2422" rx="2.5" ry="2.5" style="stroke:#181818;stroke-width:0.5;" width="177" x="181" y="44.6211"/><text fill="#000000" font-family="sans-serif" font-size="14" lengthAdjust="spacing" textLength="86" x="226.5" y="66.7285">&#171;component&#187;</text><text fill="#000000" font-family="sans-serif" font-size="14" lengthAdjust="spacing" textLength="159" x="192" y="85.3496">BackOfficeUserController</text><rect fill="#E2E2F0" height="51.2422" rx="2.5" ry="2.5" style="stroke:#181818;stroke-width:0.5;" width="177" x="181" y="517.0156"/><text fill="#000000" font-family="sans-serif" font-size="14" lengthAdjust="spacing" textLength="86" x="226.5" y="539.123">&#171;component&#187;</text><text fill="#000000" font-family="sans-serif" font-size="14" lengthAdjust="spacing" textLength="159" x="192" y="557.7441">BackOfficeUserController</text><rect fill="#E2E2F0" height="51.2422" rx="2.5" ry="2.5" style="stroke:#181818;stroke-width:0.5;" width="100" x="444.5" y="517.0156"/><text fill="#000000" font-family="sans-serif" font-size="14" lengthAdjust="spacing" textLength="86" x="451.5" y="539.123">&#171;component&#187;</text><text fill="#000000" font-family="sans-serif" font-size="14" lengthAdjust="spacing" textLength="59" x="467" y="557.7441">UserDTO</text><rect fill="#E2E2F0" height="51.2422" rx="2.5" ry="2.5" style="stroke:#181818;stroke-width:0.5;" width="155" x="554.5" y="44.6211"/><text fill="#000000" font-family="sans-serif" font-size="14" lengthAdjust="spacing" textLength="86" x="589" y="66.7285">&#171;component&#187;</text><text fill="#000000" font-family="sans-serif" font-size="14" lengthAdjust="spacing" textLength="137" x="565.5" y="85.3496">AuthenticationService</text><rect fill="#E2E2F0" height="51.2422" rx="2.5" ry="2.5" style="stroke:#181818;stroke-width:0.5;" width="155" x="554.5" y="517.0156"/><text fill="#000000" font-family="sans-serif" font-size="14" lengthAdjust="spacing" textLength="86" x="589" y="539.123">&#171;component&#187;</text><text fill="#000000" font-family="sans-serif" font-size="14" lengthAdjust="spacing" textLength="137" x="565.5" y="557.7441">AuthenticationService</text><rect fill="#E2E2F0" height="51.2422" rx="2.5" ry="2.5" style="stroke:#181818;stroke-width:0.5;" width="115" x="906.5" y="44.6211"/><text fill="#000000" font-family="sans-serif" font-size="14" lengthAdjust="spacing" textLength="86" x="921" y="66.7285">&#171;component&#187;</text><text fill="#000000" font-family="sans-serif" font-size="14" lengthAdjust="spacing" textLength="97" x="917.5" y="85.3496">UserRepository</text><rect fill="#E2E2F0" height="51.2422" rx="2.5" ry="2.5" style="stroke:#181818;stroke-width:0.5;" width="115" x="906.5" y="517.0156"/><text fill="#000000" font-family="sans-serif" font-size="14" lengthAdjust="spacing" textLength="86" x="921" y="539.123">&#171;component&#187;</text><text fill="#000000" font-family="sans-serif" font-size="14" lengthAdjust="spacing" textLength="97" x="917.5" y="557.7441">UserRepository</text><rect fill="#FFFFFF" height="369.8613" style="stroke:#181818;stroke-width:1.0;" width="10" x="116" y="130.1543"/><rect fill="#FFFFFF" height="307.2793" style="stroke:#181818;stroke-width:1.0;" width="10" x="264.5" y="161.4453"/><rect fill="#FFFFFF" height="182.4551" style="stroke:#181818;stroke-width:1.0;" width="10" x="627" y="254.9785"/><rect fill="#FFFFFF" height="31.291" style="stroke:#181818;stroke-width:1.0;" width="10" x="959" y="286.2695"/><ellipse cx="7.5" cy="129.4043" fill="none" rx="4" ry="4" style="stroke:#181818;stroke-width:1.5;"/><polygon fill="#181818" points="104,126.1543,114,130.1543,104,134.1543,108,130.1543" style="stroke:#181818;stroke-width:1.0;"/><line style="stroke:#181818;stroke-width:1.0;" x1="12" x2="110" y1="130.1543" y2="130.1543"/><text fill="#000000" font-family="sans-serif" font-size="13" font-weight="bold" lengthAdjust="spacing" textLength="7" x="15" y="124.8916">1</text><text fill="#000000" font-family="sans-serif" font-size="13" lengthAdjust="spacing" textLength="67" x="26" y="124.8916">POST(json)</text><polygon fill="#181818" points="252.5,157.4453,262.5,161.4453,252.5,165.4453,256.5,161.4453" style="stroke:#181818;stroke-width:1.0;"/><line style="stroke:#181818;stroke-width:1.0;" x1="126" x2="258.5" y1="161.4453" y2="161.4453"/><text fill="#000000" font-family="sans-serif" font-size="13" font-weight="bold" lengthAdjust="spacing" textLength="7" x="133" y="156.1826">2</text><text fill="#000000" font-family="sans-serif" font-size="13" lengthAdjust="spacing" textLength="85" x="144" y="156.1826">loginStaff(json)</text><polygon fill="#181818" points="432.5,188.7363,442.5,192.7363,432.5,196.7363,436.5,192.7363" style="stroke:#181818;stroke-width:1.0;"/><line style="stroke:#181818;stroke-width:1.0;" x1="274.5" x2="438.5" y1="192.7363" y2="192.7363"/><text fill="#000000" font-family="sans-serif" font-size="13" font-weight="bold" lengthAdjust="spacing" textLength="7" x="281.5" y="187.4736">3</text><text fill="#000000" font-family="sans-serif" font-size="13" lengthAdjust="spacing" textLength="135" x="292.5" y="187.4736">toDTO(credentialsData)</text><rect fill="#E2E2F0" height="51.2422" rx="2.5" ry="2.5" style="stroke:#181818;stroke-width:0.5;" width="100" x="444.5" y="169.4453"/><text fill="#000000" font-family="sans-serif" font-size="14" lengthAdjust="spacing" textLength="86" x="451.5" y="191.5527">&#171;component&#187;</text><text fill="#000000" font-family="sans-serif" font-size="14" lengthAdjust="spacing" textLength="59" x="467" y="210.1738">UserDTO</text><polygon fill="#181818" points="615,250.9785,625,254.9785,615,258.9785,619,254.9785" style="stroke:#181818;stroke-width:1.0;"/><line style="stroke:#181818;stroke-width:1.0;" x1="274.5" x2="621" y1="254.9785" y2="254.9785"/><text fill="#000000" font-family="sans-serif" font-size="13" font-weight="bold" lengthAdjust="spacing" textLength="7" x="281.5" y="249.7158">4</text><text fill="#000000" font-family="sans-serif" font-size="13" lengthAdjust="spacing" textLength="200" x="292.5" y="249.7158">authenticateUser(noAuthUserDTO)</text><polygon fill="#181818" points="947,282.2695,957,286.2695,947,290.2695,951,286.2695" style="stroke:#181818;stroke-width:1.0;"/><line style="stroke:#181818;stroke-width:1.0;" x1="637" x2="953" y1="286.2695" y2="286.2695"/><text fill="#000000" font-family="sans-serif" font-size="13" font-weight="bold" lengthAdjust="spacing" textLength="7" x="644" y="281.0068">5</text><text fill="#000000" font-family="sans-serif" font-size="13" lengthAdjust="spacing" textLength="121" x="655" y="281.0068">findByID(emailString)</text><polygon fill="#181818" points="648,313.5605,638,317.5605,648,321.5605,644,317.5605" style="stroke:#181818;stroke-width:1.0;"/><line style="stroke:#181818;stroke-width:1.0;stroke-dasharray:2.0,2.0;" x1="642" x2="963" y1="317.5605" y2="317.5605"/><text fill="#000000" font-family="sans-serif" font-size="13" font-weight="bold" lengthAdjust="spacing" textLength="7" x="654" y="312.2979">6</text><text fill="#000000" font-family="sans-serif" font-size="13" lengthAdjust="spacing" textLength="25" x="665" y="312.2979">user</text><line style="stroke:#181818;stroke-width:1.0;" x1="637" x2="679" y1="348.8516" y2="348.8516"/><line style="stroke:#181818;stroke-width:1.0;" x1="679" x2="679" y1="348.8516" y2="361.8516"/><line style="stroke:#181818;stroke-width:1.0;" x1="638" x2="679" y1="361.8516" y2="361.8516"/><polygon fill="#181818" points="648,357.8516,638,361.8516,648,365.8516,644,361.8516" style="stroke:#181818;stroke-width:1.0;"/><text fill="#000000" font-family="sans-serif" font-size="13" font-weight="bold" lengthAdjust="spacing" textLength="7" x="644" y="343.5889">7</text><text fill="#000000" font-family="sans-serif" font-size="13" lengthAdjust="spacing" textLength="182" x="655" y="343.5889">hashPassword(passwordString)</text><line style="stroke:#181818;stroke-width:1.0;" x1="637" x2="679" y1="393.1426" y2="393.1426"/><line style="stroke:#181818;stroke-width:1.0;" x1="679" x2="679" y1="393.1426" y2="406.1426"/><line style="stroke:#181818;stroke-width:1.0;" x1="638" x2="679" y1="406.1426" y2="406.1426"/><polygon fill="#181818" points="648,402.1426,638,406.1426,648,410.1426,644,406.1426" style="stroke:#181818;stroke-width:1.0;"/><text fill="#000000" font-family="sans-serif" font-size="13" font-weight="bold" lengthAdjust="spacing" textLength="7" x="644" y="387.8799">8</text><text fill="#000000" font-family="sans-serif" font-size="13" lengthAdjust="spacing" textLength="297" x="655" y="387.8799">matchPassword(passwordStringHashed, password)</text><polygon fill="#181818" points="285.5,433.4336,275.5,437.4336,285.5,441.4336,281.5,437.4336" style="stroke:#181818;stroke-width:1.0;"/><line style="stroke:#181818;stroke-width:1.0;stroke-dasharray:2.0,2.0;" x1="279.5" x2="631" y1="437.4336" y2="437.4336"/><text fill="#000000" font-family="sans-serif" font-size="13" font-weight="bold" lengthAdjust="spacing" textLength="7" x="291.5" y="432.1709">9</text><text fill="#000000" font-family="sans-serif" font-size="13" lengthAdjust="spacing" textLength="33" x="302.5" y="432.1709">return</text><polygon fill="#181818" points="137,464.7246,127,468.7246,137,472.7246,133,468.7246" style="stroke:#181818;stroke-width:1.0;"/><line style="stroke:#181818;stroke-width:1.0;stroke-dasharray:2.0,2.0;" x1="131" x2="268.5" y1="468.7246" y2="468.7246"/><text fill="#000000" font-family="sans-serif" font-size="13" font-weight="bold" lengthAdjust="spacing" textLength="14" x="143" y="463.4619">10</text><text fill="#000000" font-family="sans-serif" font-size="13" lengthAdjust="spacing" textLength="33" x="161" y="463.4619">return</text><polygon fill="#181818" points="11,496.0156,1,500.0156,11,504.0156,7,500.0156" style="stroke:#181818;stroke-width:1.0;"/><line style="stroke:#181818;stroke-width:1.0;stroke-dasharray:2.0,2.0;" x1="5" x2="120" y1="500.0156" y2="500.0156"/><text fill="#000000" font-family="sans-serif" font-size="13" font-weight="bold" lengthAdjust="spacing" textLength="14" x="17" y="494.7529">11</text><text fill="#000000" font-family="sans-serif" font-size="13" lengthAdjust="spacing" textLength="79" x="35" y="494.7529">success/error</text><!--SRC=[XPDFR-8m4CNl_XGMbuQg0QrMkmU4aDfIgIjL3I9XBzlBr9c0MyTExJ5Ll_qwO5AWVxXDhFTxutaJdws86ZSQ3Xi5cdoj1iBKGuSl7hN0j9Imj50pHf8KyjuYvxy6FmQ_1tncZK3d-5-9hpovmpKg_hFVOmmy6UthHxICDM192ja4QzuRZuDrOpHgcamUD9yRJr8lUnmSdsUBukPx-HM8vwogfC25GtjjD5cZ5DeDVvtT5_FixaJ75fmMsOQ8zGdYqjCgr580IQDpjElGVyDVBehRzljqnpasnaaozgq3soF6s3-JJhQZyn6VPNcHF3cZ-mm4oJKGnbZOLXAqSSoWLcOfTKvGLSTC5yLE7BWuxFbv8Cc4AX4MotOmK6uA1Fq3-Mwse8Rt03Qv9zgqcKJ3lRPT7goZerCxR72gf2wltlvC4wn1gfnisFqH7sFfeFJmBZuqPIL-WXotZC0At6e6phqQMoPDB7QTlu9g8F4LTHiCiRpWkzC3buFzM2HlzV5jjm5rIUzj_wE-s-CuJJkPyw9zTKEqreJtjIVV_Yh_0G00]--></g></svg>