<?xml version="1.0" encoding="us-ascii" standalone="no"?><svg xmlns="http://www.w3.org/2000/svg" xmlns:xlink="http://www.w3.org/1999/xlink" contentStyleType="text/css" height="463px" preserveAspectRatio="none" style="width:518px;height:463px;background:#FFFFFF;" version="1.1" viewBox="0 0 518 463" width="518px" zoomAndPan="magnify"><defs/><g><text fill="#000000" font-family="sans-serif" font-size="14" font-weight="bold" lengthAdjust="spacing" textLength="262" x="130.25" y="30.1074">US 5.1.20 - System Sequence Diagram</text><rect fill="#FFFFFF" height="221.0371" style="stroke:#181818;stroke-width:1.0;" width="10" x="41.5" y="111.5332"/><rect fill="#FFFFFF" height="296.6191" style="stroke:#181818;stroke-width:1.0;" width="10" x="318.5" y="111.5332"/><rect fill="none" height="50.582" style="stroke:#000000;stroke-width:1.5;" width="353.5" x="10" y="220.4063"/><line style="stroke:#181818;stroke-width:0.5;stroke-dasharray:5.0,5.0;" x1="46" x2="46" y1="78.2422" y2="426.1523"/><line style="stroke:#181818;stroke-width:0.5;stroke-dasharray:5.0,5.0;" x1="323.5" x2="323.5" y1="78.2422" y2="426.1523"/><rect fill="#E2E2F0" height="32.6211" rx="2.5" ry="2.5" style="stroke:#181818;stroke-width:0.5;" width="53" x="20" y="44.6211"/><text fill="#000000" font-family="sans-serif" font-size="14" lengthAdjust="spacing" textLength="39" x="27" y="66.7285">Admin</text><rect fill="#E2E2F0" height="32.6211" rx="2.5" ry="2.5" style="stroke:#181818;stroke-width:0.5;" width="53" x="20" y="425.1523"/><text fill="#000000" font-family="sans-serif" font-size="14" lengthAdjust="spacing" textLength="39" x="27" y="447.2598">Admin</text><rect fill="#E2E2F0" height="32.6211" rx="2.5" ry="2.5" style="stroke:#181818;stroke-width:0.5;" width="60" x="293.5" y="44.6211"/><text fill="#000000" font-family="sans-serif" font-size="14" lengthAdjust="spacing" textLength="46" x="300.5" y="66.7285">System</text><rect fill="#E2E2F0" height="32.6211" rx="2.5" ry="2.5" style="stroke:#181818;stroke-width:0.5;" width="60" x="293.5" y="425.1523"/><text fill="#000000" font-family="sans-serif" font-size="14" lengthAdjust="spacing" textLength="46" x="300.5" y="447.2598">System</text><rect fill="#FFFFFF" height="221.0371" style="stroke:#181818;stroke-width:1.0;" width="10" x="41.5" y="111.5332"/><rect fill="#FFFFFF" height="296.6191" style="stroke:#181818;stroke-width:1.0;" width="10" x="318.5" y="111.5332"/><polygon fill="#181818" points="306.5,107.5332,316.5,111.5332,306.5,115.5332,310.5,111.5332" style="stroke:#181818;stroke-width:1.0;"/><line style="stroke:#181818;stroke-width:1.0;" x1="51.5" x2="312.5" y1="111.5332" y2="111.5332"/><text fill="#000000" font-family="sans-serif" font-size="13" font-weight="bold" lengthAdjust="spacing" textLength="7" x="58.5" y="106.2705">1</text><text fill="#000000" font-family="sans-serif" font-size="13" lengthAdjust="spacing" textLength="213" x="69.5" y="106.2705">wants to create a new operation type</text><polygon fill="#181818" points="62.5,138.8242,52.5,142.8242,62.5,146.8242,58.5,142.8242" style="stroke:#181818;stroke-width:1.0;"/><line style="stroke:#181818;stroke-width:1.0;stroke-dasharray:2.0,2.0;" x1="56.5" x2="317.5" y1="142.8242" y2="142.8242"/><text fill="#000000" font-family="sans-serif" font-size="13" font-weight="bold" lengthAdjust="spacing" textLength="7" x="68.5" y="137.5615">2</text><text fill="#000000" font-family="sans-serif" font-size="13" lengthAdjust="spacing" textLength="190" x="79.5" y="137.5615">asks for the operation type name</text><polygon fill="#181818" points="306.5,170.1152,316.5,174.1152,306.5,178.1152,310.5,174.1152" style="stroke:#181818;stroke-width:1.0;"/><line style="stroke:#181818;stroke-width:1.0;" x1="51.5" x2="312.5" y1="174.1152" y2="174.1152"/><text fill="#000000" font-family="sans-serif" font-size="13" font-weight="bold" lengthAdjust="spacing" textLength="7" x="58.5" y="168.8525">3</text><text fill="#000000" font-family="sans-serif" font-size="13" lengthAdjust="spacing" textLength="162" x="69.5" y="168.8525">provides the operation name</text><polygon fill="#181818" points="62.5,201.4063,52.5,205.4063,62.5,209.4063,58.5,205.4063" style="stroke:#181818;stroke-width:1.0;"/><line style="stroke:#181818;stroke-width:1.0;stroke-dasharray:2.0,2.0;" x1="56.5" x2="317.5" y1="205.4063" y2="205.4063"/><text fill="#000000" font-family="sans-serif" font-size="13" font-weight="bold" lengthAdjust="spacing" textLength="7" x="68.5" y="200.1436">4</text><text fill="#000000" font-family="sans-serif" font-size="13" lengthAdjust="spacing" textLength="232" x="79.5" y="200.1436">asks for the list of staff by specialization</text><path d="M10,220.4063 L83,220.4063 L83,229.6973 L73,239.6973 L10,239.6973 L10,220.4063 " fill="#EEEEEE" style="stroke:#000000;stroke-width:1.5;"/><rect fill="none" height="50.582" style="stroke:#000000;stroke-width:1.5;" width="353.5" x="10" y="220.4063"/><text fill="#000000" font-family="sans-serif" font-size="13" font-weight="bold" lengthAdjust="spacing" textLength="28" x="25" y="235.4346">loop</text><text fill="#000000" font-family="sans-serif" font-size="11" font-weight="bold" lengthAdjust="spacing" textLength="203" x="98" y="234.2764">[while there are vacancies in the list]</text><polygon fill="#181818" points="306.5,258.9883,316.5,262.9883,306.5,266.9883,310.5,262.9883" style="stroke:#181818;stroke-width:1.0;"/><line style="stroke:#181818;stroke-width:1.0;" x1="51.5" x2="312.5" y1="262.9883" y2="262.9883"/><text fill="#000000" font-family="sans-serif" font-size="13" font-weight="bold" lengthAdjust="spacing" textLength="7" x="58.5" y="257.7256">5</text><text fill="#000000" font-family="sans-serif" font-size="13" lengthAdjust="spacing" textLength="132" x="69.5" y="257.7256">selects a staff member</text><polygon fill="#181818" points="62.5,297.2793,52.5,301.2793,62.5,305.2793,58.5,301.2793" style="stroke:#181818;stroke-width:1.0;"/><line style="stroke:#181818;stroke-width:1.0;stroke-dasharray:2.0,2.0;" x1="56.5" x2="317.5" y1="301.2793" y2="301.2793"/><text fill="#000000" font-family="sans-serif" font-size="13" font-weight="bold" lengthAdjust="spacing" textLength="7" x="68.5" y="296.0166">6</text><text fill="#000000" font-family="sans-serif" font-size="13" lengthAdjust="spacing" textLength="221" x="79.5" y="296.0166">asks to indicate an estimated duration</text><polygon fill="#181818" points="306.5,328.5703,316.5,332.5703,306.5,336.5703,310.5,332.5703" style="stroke:#181818;stroke-width:1.0;"/><line style="stroke:#181818;stroke-width:1.0;" x1="46.5" x2="312.5" y1="332.5703" y2="332.5703"/><text fill="#000000" font-family="sans-serif" font-size="13" font-weight="bold" lengthAdjust="spacing" textLength="7" x="53.5" y="327.3076">7</text><text fill="#000000" font-family="sans-serif" font-size="13" lengthAdjust="spacing" textLength="176" x="64.5" y="327.3076">provides an estimated duration</text><line style="stroke:#181818;stroke-width:1.0;stroke-dasharray:2.0,2.0;" x1="328.5" x2="370.5" y1="381.1523" y2="381.1523"/><line style="stroke:#181818;stroke-width:1.0;stroke-dasharray:2.0,2.0;" x1="370.5" x2="370.5" y1="381.1523" y2="394.1523"/><line style="stroke:#181818;stroke-width:1.0;stroke-dasharray:2.0,2.0;" x1="329.5" x2="370.5" y1="394.1523" y2="394.1523"/><polygon fill="#181818" points="339.5,390.1523,329.5,394.1523,339.5,398.1523,335.5,394.1523" style="stroke:#181818;stroke-width:1.0;"/><text fill="#000000" font-family="sans-serif" font-size="13" font-weight="bold" lengthAdjust="spacing" textLength="7" x="335.5" y="367.2441">8</text><text fill="#000000" font-family="sans-serif" font-size="13" lengthAdjust="spacing" textLength="154" x="346.5" y="358.5986">registers an operation type</text><text fill="#000000" font-family="sans-serif" font-size="13" lengthAdjust="spacing" textLength="161" x="350.5" y="375.8896">creation on the system logs</text><polygon fill="#FFFFFF" points="57.5,404.1523,47.5,408.1523,57.5,412.1523,53.5,408.1523" style="stroke:#FFFFFF;stroke-width:1.0;"/><line style="stroke:#FFFFFF;stroke-width:1.0;" x1="51.5" x2="322.5" y1="408.1523" y2="408.1523"/><!--SRC=[VP8_JyCm4CLtVueJ34nf0OcbGwLANPaY1WGChdrfBVmF-zAgV7hESQZQg314idNFltVtBdSxefWNytcqqbFlx4m5Dy_urQDNs6WZjqaw8SYGHRXvQU5fzZ1xl8S6scCcTD2EMbXNxOqGigVWUxV194IKYOmoaUcmqivua1bMw-UBmeZYIllQ2i5bQ9Rb30iui2031L099I58y7Y04359Ci437ICAgSZiIxMGJvS1LYWDqmfqmHQV6RgGW7OuWO2N3YVcCOMzqPWdyghyXsnD9WWTP99T1viZv8ZAI6k-1u0GDeG8XvtXK5cVU2p-zb99hmpRSKo_c4b76Iqg3aIER8SrP_GQ2lHgMvoUyTge8JyFcCauFclGVHeRkZxs7sAD5u6VBElhX5lk6zFm_3BZTr_NMEwXpfZhxctOvlC_XyVZOGRmsoq7HVYnh6PdvcN1Fm00]--></g></svg>