<?xml version="1.0" encoding="us-ascii" standalone="no"?><svg xmlns="http://www.w3.org/2000/svg" xmlns:xlink="http://www.w3.org/1999/xlink" contentStyleType="text/css" height="586px" preserveAspectRatio="none" style="width:454px;height:586px;background:#FFFFFF;" version="1.1" viewBox="0 0 454 586" width="454px" zoomAndPan="magnify"><defs/><g><text fill="#000000" font-family="sans-serif" font-size="14" font-weight="bold" lengthAdjust="spacing" textLength="262" x="97.75" y="30.1074">US 5.1.15 - System Sequence Diagram</text><rect fill="#FFFFFF" height="427.4141" style="stroke:#181818;stroke-width:1.0;" width="10" x="51.5" y="111.5332"/><rect fill="#FFFFFF" height="427.4141" style="stroke:#181818;stroke-width:1.0;" width="10" x="393.5" y="111.5332"/><rect fill="none" height="146.4551" style="stroke:#000000;stroke-width:1.5;" width="438.5" x="10" y="157.8242"/><rect fill="none" height="50.582" style="stroke:#000000;stroke-width:1.5;" width="418.5" x="20" y="215.4063"/><rect fill="none" height="213.668" style="stroke:#000000;stroke-width:1.5;" width="438.5" x="10" y="318.2793"/><rect fill="none" height="117.7949" style="stroke:#000000;stroke-width:1.5;" width="418.5" x="20" y="407.1523"/><line style="stroke:#181818;stroke-width:0.5;stroke-dasharray:5.0,5.0;" x1="56" x2="56" y1="78.2422" y2="548.9473"/><line style="stroke:#181818;stroke-width:0.5;stroke-dasharray:5.0,5.0;" x1="398.5" x2="398.5" y1="78.2422" y2="548.9473"/><rect fill="#E2E2F0" height="32.6211" rx="2.5" ry="2.5" style="stroke:#181818;stroke-width:0.5;" width="53" x="30" y="44.6211"/><text fill="#000000" font-family="sans-serif" font-size="14" lengthAdjust="spacing" textLength="39" x="37" y="66.7285">Admin</text><rect fill="#E2E2F0" height="32.6211" rx="2.5" ry="2.5" style="stroke:#181818;stroke-width:0.5;" width="53" x="30" y="547.9473"/><text fill="#000000" font-family="sans-serif" font-size="14" lengthAdjust="spacing" textLength="39" x="37" y="570.0547">Admin</text><rect fill="#E2E2F0" height="32.6211" rx="2.5" ry="2.5" style="stroke:#181818;stroke-width:0.5;" width="60" x="368.5" y="44.6211"/><text fill="#000000" font-family="sans-serif" font-size="14" lengthAdjust="spacing" textLength="46" x="375.5" y="66.7285">System</text><rect fill="#E2E2F0" height="32.6211" rx="2.5" ry="2.5" style="stroke:#181818;stroke-width:0.5;" width="60" x="368.5" y="547.9473"/><text fill="#000000" font-family="sans-serif" font-size="14" lengthAdjust="spacing" textLength="46" x="375.5" y="570.0547">System</text><rect fill="#FFFFFF" height="427.4141" style="stroke:#181818;stroke-width:1.0;" width="10" x="51.5" y="111.5332"/><rect fill="#FFFFFF" height="427.4141" style="stroke:#181818;stroke-width:1.0;" width="10" x="393.5" y="111.5332"/><polygon fill="#181818" points="381.5,107.5332,391.5,111.5332,381.5,115.5332,385.5,111.5332" style="stroke:#181818;stroke-width:1.0;"/><line style="stroke:#181818;stroke-width:1.0;" x1="61.5" x2="387.5" y1="111.5332" y2="111.5332"/><text fill="#000000" font-family="sans-serif" font-size="13" font-weight="bold" lengthAdjust="spacing" textLength="7" x="68.5" y="106.2705">1</text><text fill="#000000" font-family="sans-serif" font-size="13" lengthAdjust="spacing" textLength="202" x="79.5" y="106.2705">requests the list of the staff profiles</text><polygon fill="#181818" points="72.5,138.8242,62.5,142.8242,72.5,146.8242,68.5,142.8242" style="stroke:#181818;stroke-width:1.0;"/><line style="stroke:#181818;stroke-width:1.0;stroke-dasharray:2.0,2.0;" x1="66.5" x2="392.5" y1="142.8242" y2="142.8242"/><text fill="#000000" font-family="sans-serif" font-size="13" font-weight="bold" lengthAdjust="spacing" textLength="7" x="78.5" y="137.5615">2</text><text fill="#000000" font-family="sans-serif" font-size="13" lengthAdjust="spacing" textLength="119" x="89.5" y="137.5615">lists the staff profiles</text><path d="M10,157.8242 L83,157.8242 L83,167.1152 L73,177.1152 L10,177.1152 L10,157.8242 " fill="#EEEEEE" style="stroke:#000000;stroke-width:1.5;"/><rect fill="none" height="146.4551" style="stroke:#000000;stroke-width:1.5;" width="438.5" x="10" y="157.8242"/><text fill="#000000" font-family="sans-serif" font-size="13" font-weight="bold" lengthAdjust="spacing" textLength="28" x="25" y="172.8525">loop</text><text fill="#000000" font-family="sans-serif" font-size="11" font-weight="bold" lengthAdjust="spacing" textLength="138" x="98" y="171.6943">[until the Admin desires]</text><polygon fill="#181818" points="381.5,196.4063,391.5,200.4063,381.5,204.4063,385.5,200.4063" style="stroke:#181818;stroke-width:1.0;"/><line style="stroke:#181818;stroke-width:1.0;" x1="61.5" x2="387.5" y1="200.4063" y2="200.4063"/><text fill="#000000" font-family="sans-serif" font-size="13" font-weight="bold" lengthAdjust="spacing" textLength="7" x="68.5" y="195.1436">3</text><text fill="#000000" font-family="sans-serif" font-size="13" lengthAdjust="spacing" textLength="297" x="79.5" y="195.1436">searches profiles (by name, email or specialization)</text><path d="M20,215.4063 L85,215.4063 L85,224.6973 L75,234.6973 L20,234.6973 L20,215.4063 " fill="#EEEEEE" style="stroke:#000000;stroke-width:1.5;"/><rect fill="none" height="50.582" style="stroke:#000000;stroke-width:1.5;" width="418.5" x="20" y="215.4063"/><text fill="#000000" font-family="sans-serif" font-size="13" font-weight="bold" lengthAdjust="spacing" textLength="20" x="35" y="230.4346">opt</text><text fill="#000000" font-family="sans-serif" font-size="11" font-weight="bold" lengthAdjust="spacing" textLength="137" x="100" y="229.2764">[search filters appliance]</text><polygon fill="#181818" points="381.5,253.9883,391.5,257.9883,381.5,261.9883,385.5,257.9883" style="stroke:#181818;stroke-width:1.0;"/><line style="stroke:#181818;stroke-width:1.0;" x1="61.5" x2="387.5" y1="257.9883" y2="257.9883"/><text fill="#000000" font-family="sans-serif" font-size="13" font-weight="bold" lengthAdjust="spacing" textLength="7" x="68.5" y="252.7256">4</text><text fill="#000000" font-family="sans-serif" font-size="13" lengthAdjust="spacing" textLength="119" x="79.5" y="252.7256">applies search filters</text><polygon fill="#181818" points="72.5,292.2793,62.5,296.2793,72.5,300.2793,68.5,296.2793" style="stroke:#181818;stroke-width:1.0;"/><line style="stroke:#181818;stroke-width:1.0;stroke-dasharray:2.0,2.0;" x1="66.5" x2="392.5" y1="296.2793" y2="296.2793"/><text fill="#000000" font-family="sans-serif" font-size="13" font-weight="bold" lengthAdjust="spacing" textLength="7" x="78.5" y="291.0166">5</text><text fill="#000000" font-family="sans-serif" font-size="13" lengthAdjust="spacing" textLength="158" x="89.5" y="291.0166">presents the search results</text><path d="M10,318.2793 L75,318.2793 L75,327.5703 L65,337.5703 L10,337.5703 L10,318.2793 " fill="#EEEEEE" style="stroke:#000000;stroke-width:1.5;"/><rect fill="none" height="213.668" style="stroke:#000000;stroke-width:1.5;" width="438.5" x="10" y="318.2793"/><text fill="#000000" font-family="sans-serif" font-size="13" font-weight="bold" lengthAdjust="spacing" textLength="20" x="25" y="333.3076">opt</text><text fill="#000000" font-family="sans-serif" font-size="11" font-weight="bold" lengthAdjust="spacing" textLength="180" x="90" y="332.1494">[Admin wants to select a profile]</text><polygon fill="#181818" points="381.5,356.8613,391.5,360.8613,381.5,364.8613,385.5,360.8613" style="stroke:#181818;stroke-width:1.0;"/><line style="stroke:#181818;stroke-width:1.0;" x1="61.5" x2="387.5" y1="360.8613" y2="360.8613"/><text fill="#000000" font-family="sans-serif" font-size="13" font-weight="bold" lengthAdjust="spacing" textLength="7" x="68.5" y="355.5986">6</text><text fill="#000000" font-family="sans-serif" font-size="13" lengthAdjust="spacing" textLength="91" x="79.5" y="355.5986">selects a profile</text><polygon fill="#181818" points="72.5,388.1523,62.5,392.1523,72.5,396.1523,68.5,392.1523" style="stroke:#181818;stroke-width:1.0;"/><line style="stroke:#181818;stroke-width:1.0;stroke-dasharray:2.0,2.0;" x1="66.5" x2="392.5" y1="392.1523" y2="392.1523"/><text fill="#000000" font-family="sans-serif" font-size="13" font-weight="bold" lengthAdjust="spacing" textLength="7" x="78.5" y="386.8896">7</text><text fill="#000000" font-family="sans-serif" font-size="13" lengthAdjust="spacing" textLength="75" x="89.5" y="386.8896">shows profile</text><path d="M20,407.1523 L81,407.1523 L81,416.4434 L71,426.4434 L20,426.4434 L20,407.1523 " fill="#EEEEEE" style="stroke:#000000;stroke-width:1.5;"/><rect fill="none" height="117.7949" style="stroke:#000000;stroke-width:1.5;" width="418.5" x="20" y="407.1523"/><text fill="#000000" font-family="sans-serif" font-size="13" font-weight="bold" lengthAdjust="spacing" textLength="16" x="35" y="422.1807">alt</text><rect fill="none" height="43.252" style="stroke:#000000;stroke-width:1.5;" width="404.5" x="27" y="426.4434"/><path d="M27,426.4434 L89,426.4434 L89,435.4434 L79,445.4434 L27,445.4434 L27,426.4434 " fill="#EEEEEE" style="stroke:#000000;stroke-width:2.0;"/><text fill="#000000" font-family="sans-serif" font-size="13" font-weight="bold" lengthAdjust="spacing" textLength="17" x="40" y="442.4717">ref</text><text fill="#000000" font-family="sans-serif" font-size="12" lengthAdjust="spacing" textLength="122" x="168.25" y="462.3926">US 5.1.13 (edit profile)</text><line style="stroke:#000000;stroke-width:1.0;stroke-dasharray:2.0,2.0;" x1="20" x2="438.5" y1="475.6953" y2="475.6953"/><rect fill="none" height="43.252" style="stroke:#000000;stroke-width:1.5;" width="404.5" x="27" y="476.6953"/><path d="M27,476.6953 L89,476.6953 L89,485.6953 L79,495.6953 L27,495.6953 L27,476.6953 " fill="#EEEEEE" style="stroke:#000000;stroke-width:2.0;"/><text fill="#000000" font-family="sans-serif" font-size="13" font-weight="bold" lengthAdjust="spacing" textLength="17" x="40" y="492.7236">ref</text><text fill="#000000" font-family="sans-serif" font-size="12" lengthAdjust="spacing" textLength="157" x="150.75" y="512.6445">US 5.1.14 (deactivate profile)</text><!--SRC=[XP9DRy8m38Rl-HKMbp5fWD36XSCa9AuxLJliQ5ftH4gJB7P1xDSlRg5hDQJbvDRl-_X3VZYAHDwkLj6XbxPnop8qAwQlbdn9YyhYPyB66B7Y26Rl1MoMw-Lw0mieBYpKG77LmhxNpep1Le9lcmCbOo8ciQMDcGwxgh4Ua66tVviahgYSAJuAOt8Q5gyQmnQIybaOv4ZWB0k4kejPiAuXfb1RHsom57j2eGu-V7Gy1IqoKBdRZi7t20RoSo54QBrOrqdwbYjYcx921PFcc32LH-810lF31Jmsz0JKO8Q411ofjEZiDueD_h6leoz4kH8WcuKI0yReBEPr3g99lIwTgqnTWvPyfT2-mdJgcFidVnkyj-TVhPFUhbQTlVTgP_teP-nC8NiSbG9u6zNSsuPAUAJvsmSVmvcd37teP8Y7854DuKH9hK_N6hSBV8OvLLPkfD5MoV48_1_d1UOL3UToXvRteisPoNv_BpmVaIvjnD3x6ttg1Vu0]--></g></svg>