<?xml version="1.0" encoding="us-ascii" standalone="no"?><svg xmlns="http://www.w3.org/2000/svg" xmlns:xlink="http://www.w3.org/1999/xlink" contentStyleType="text/css" height="607px" preserveAspectRatio="none" style="width:849px;height:607px;background:#FFFFFF;" version="1.1" viewBox="0 0 849 607" width="849px" zoomAndPan="magnify"><defs/><g><text fill="#000000" font-family="sans-serif" font-size="14" font-weight="bold" lengthAdjust="spacing" textLength="176" x="329.5" y="25.1074">US 5.1.13 - Domain Model</text><!--cluster <<aggregate Staff>>--><g id="cluster_&lt;&lt;aggregate Staff&gt;&gt;"><path d="M8.5,45.6348 L133.5,45.6348 A3.75,3.75 0 0 1 136,48.1348 L143,70.2559 L577.5,70.2559 A2.5,2.5 0 0 1 580,72.7559 L580,598.1348 A2.5,2.5 0 0 1 577.5,600.6348 L8.5,600.6348 A2.5,2.5 0 0 1 6,598.1348 L6,48.1348 A2.5,2.5 0 0 1 8.5,45.6348 " fill="none" style="stroke:#000000;stroke-width:1.5;"/><line style="stroke:#000000;stroke-width:1.5;" x1="6" x2="143" y1="70.2559" y2="70.2559"/><text fill="#000000" font-family="sans-serif" font-size="14" font-weight="bold" lengthAdjust="spacing" textLength="124" x="10" y="62.7422">&#171;aggregate Staff&#187;</text></g><!--cluster <<aggregate Specialization>>--><g id="cluster_&lt;&lt;aggregate Specialization&gt;&gt;"><path d="M606.5,224.6348 L796.5,224.6348 A3.75,3.75 0 0 1 799,227.1348 L806,249.2559 L839.5,249.2559 A2.5,2.5 0 0 1 842,251.7559 L842,474.1348 A2.5,2.5 0 0 1 839.5,476.6348 L606.5,476.6348 A2.5,2.5 0 0 1 604,474.1348 L604,227.1348 A2.5,2.5 0 0 1 606.5,224.6348 " fill="none" style="stroke:#000000;stroke-width:1.5;"/><line style="stroke:#000000;stroke-width:1.5;" x1="604" x2="806" y1="249.2559" y2="249.2559"/><text fill="#000000" font-family="sans-serif" font-size="14" font-weight="bold" lengthAdjust="spacing" textLength="189" x="608" y="241.7422">&#171;aggregate Specialization&#187;</text></g><!--class Staff--><g id="elem_Staff"><rect codeLine="6" fill="#F1F1F1" height="76.543" id="Staff" rx="2.5" ry="2.5" style="stroke:#181818;stroke-width:0.5;" width="71" x="441.5" y="82.6348"/><ellipse cx="456.5" cy="112.9063" fill="#ADD1B2" rx="11" ry="11" style="stroke:#181818;stroke-width:1.0;"/><path d="M455.3594,113.7031 L455.3594,116.2031 L459.6875,116.2031 L459.6875,115.2813 Q459.6875,114.6719 459.9219,114.4063 Q460.1719,114.1406 460.5469,114.1406 Q460.9219,114.1406 461.1563,114.4063 Q461.3906,114.6719 461.3906,115.2813 L461.3906,117.9063 L453.3906,117.9063 Q452.7656,117.9063 452.5,117.6719 Q452.25,117.4375 452.25,117.0469 Q452.25,116.6719 452.5156,116.4375 Q452.7813,116.2031 453.3906,116.2031 L453.6563,116.2031 L453.6563,109.5469 L453.3906,109.5469 Q452.7656,109.5469 452.5,109.3125 Q452.25,109.0781 452.25,108.6875 Q452.25,108.3125 452.5,108.0781 Q452.7656,107.8438 453.3906,107.8438 L461.0156,107.8438 L461.0156,110.4375 Q461.0156,111.0469 460.7813,111.3125 Q460.5625,111.5625 460.1719,111.5625 Q459.7969,111.5625 459.5625,111.3125 Q459.3281,111.0469 459.3281,110.4375 L459.3281,109.5469 L455.3594,109.5469 L455.3594,112 L456.8438,112 Q456.8438,111.3438 456.9688,111.1563 Q457.2344,110.75 457.7031,110.75 Q458.0781,110.75 458.3125,111.0156 Q458.5469,111.2656 458.5469,111.875 L458.5469,113.8438 Q458.5469,114.3906 458.4219,114.5781 Q458.1563,114.9688 457.7031,114.9688 Q457.2344,114.9688 456.9688,114.5625 Q456.8438,114.375 456.8438,113.7031 L455.3594,113.7031 Z " fill="#000000"/><text fill="#000000" font-family="sans-serif" font-size="12" font-style="italic" lengthAdjust="spacing" textLength="43" x="468.5" y="100.584">&#171;entity&#187;</text><text fill="#000000" font-family="sans-serif" font-size="12" font-style="italic" lengthAdjust="spacing" textLength="35" x="472.5" y="116.5449">&#171;root&#187;</text><text fill="#000000" font-family="sans-serif" font-size="14" lengthAdjust="spacing" textLength="29" x="475.5" y="134.6641">Staff</text><line style="stroke:#181818;stroke-width:0.5;" x1="442.5" x2="511.5" y1="143.1777" y2="143.1777"/><line style="stroke:#181818;stroke-width:0.5;" x1="442.5" x2="511.5" y1="151.1777" y2="151.1777"/></g><!--class LicenseNumber--><g id="elem_LicenseNumber"><rect codeLine="7" fill="#F1F1F1" height="76.543" id="LicenseNumber" rx="2.5" ry="2.5" style="stroke:#181818;stroke-width:0.5;" width="130" x="311" y="261.6348"/><ellipse cx="326" cy="291.9063" fill="#FF8B40" rx="11" ry="11" style="stroke:#181818;stroke-width:1.0;"/><path d="M326.5938,295.1719 L329.0625,289.2969 L328.6719,289.2969 Q328.0625,289.2969 327.7969,289.0625 Q327.5313,288.8281 327.5313,288.4375 Q327.5313,288.0625 327.7969,287.8281 Q328.0625,287.5938 328.6719,287.5938 L330.9531,287.5938 Q331.5625,287.5938 331.8281,287.8281 Q332.0938,288.0625 332.0938,288.4375 Q332.0938,288.9063 331.6875,289.1719 Q331.5,289.2969 330.9063,289.2969 L327.4219,297.6563 L325.7813,297.6563 L322.2969,289.2969 Q321.7031,289.2969 321.5156,289.1719 Q321.1094,288.9063 321.1094,288.4375 Q321.1094,288.0625 321.375,287.8281 Q321.6406,287.5938 322.25,287.5938 L324.5469,287.5938 Q325.1563,287.5938 325.4063,287.8281 Q325.6719,288.0625 325.6719,288.4375 Q325.6719,288.8281 325.4063,289.0625 Q325.1563,289.2969 324.5469,289.2969 L324.1406,289.2969 L326.5938,295.1719 Z " fill="#000000"/><text fill="#000000" font-family="sans-serif" font-size="12" font-style="italic" lengthAdjust="spacing" textLength="81" x="348.5" y="279.584">&#171;value object&#187;</text><text fill="#000000" font-family="sans-serif" font-size="12" font-style="italic" lengthAdjust="spacing" textLength="61" x="358.5" y="295.5449">&#171;identifier&#187;</text><text fill="#000000" font-family="sans-serif" font-size="14" lengthAdjust="spacing" textLength="98" x="340" y="313.6641">LicenseNumber</text><line style="stroke:#181818;stroke-width:0.5;" x1="312" x2="440" y1="322.1777" y2="322.1777"/><line style="stroke:#181818;stroke-width:0.5;" x1="312" x2="440" y1="330.1777" y2="330.1777"/></g><!--class Name--><g id="elem_Name"><rect codeLine="8" fill="#F1F1F1" height="60.582" id="Name" rx="2.5" ry="2.5" style="stroke:#181818;stroke-width:0.5;" width="109" x="22.5" y="269.6348"/><ellipse cx="37.5" cy="291.9258" fill="#FF8B40" rx="11" ry="11" style="stroke:#181818;stroke-width:1.0;"/><path d="M38.0938,295.1914 L40.5625,289.3164 L40.1719,289.3164 Q39.5625,289.3164 39.2969,289.082 Q39.0313,288.8477 39.0313,288.457 Q39.0313,288.082 39.2969,287.8477 Q39.5625,287.6133 40.1719,287.6133 L42.4531,287.6133 Q43.0625,287.6133 43.3281,287.8477 Q43.5938,288.082 43.5938,288.457 Q43.5938,288.9258 43.1875,289.1914 Q43,289.3164 42.4063,289.3164 L38.9219,297.6758 L37.2813,297.6758 L33.7969,289.3164 Q33.2031,289.3164 33.0156,289.1914 Q32.6094,288.9258 32.6094,288.457 Q32.6094,288.082 32.875,287.8477 Q33.1406,287.6133 33.75,287.6133 L36.0469,287.6133 Q36.6563,287.6133 36.9063,287.8477 Q37.1719,288.082 37.1719,288.457 Q37.1719,288.8477 36.9063,289.082 Q36.6563,289.3164 36.0469,289.3164 L35.6406,289.3164 L38.0938,295.1914 Z " fill="#000000"/><text fill="#000000" font-family="sans-serif" font-size="12" font-style="italic" lengthAdjust="spacing" textLength="81" x="49.5" y="287.584">&#171;value object&#187;</text><text fill="#000000" font-family="sans-serif" font-size="14" lengthAdjust="spacing" textLength="36" x="72" y="305.7031">Name</text><line style="stroke:#181818;stroke-width:0.5;" x1="23.5" x2="130.5" y1="314.2168" y2="314.2168"/><line style="stroke:#181818;stroke-width:0.5;" x1="23.5" x2="130.5" y1="322.2168" y2="322.2168"/></g><!--class FirstName--><g id="elem_FirstName"><rect codeLine="9" fill="#F1F1F1" height="60.582" id="FirstName" rx="2.5" ry="2.5" style="stroke:#181818;stroke-width:0.5;" width="109" x="22.5" y="399.6348"/><ellipse cx="37.5" cy="421.9258" fill="#FF8B40" rx="11" ry="11" style="stroke:#181818;stroke-width:1.0;"/><path d="M38.0938,425.1914 L40.5625,419.3164 L40.1719,419.3164 Q39.5625,419.3164 39.2969,419.082 Q39.0313,418.8477 39.0313,418.457 Q39.0313,418.082 39.2969,417.8477 Q39.5625,417.6133 40.1719,417.6133 L42.4531,417.6133 Q43.0625,417.6133 43.3281,417.8477 Q43.5938,418.082 43.5938,418.457 Q43.5938,418.9258 43.1875,419.1914 Q43,419.3164 42.4063,419.3164 L38.9219,427.6758 L37.2813,427.6758 L33.7969,419.3164 Q33.2031,419.3164 33.0156,419.1914 Q32.6094,418.9258 32.6094,418.457 Q32.6094,418.082 32.875,417.8477 Q33.1406,417.6133 33.75,417.6133 L36.0469,417.6133 Q36.6563,417.6133 36.9063,417.8477 Q37.1719,418.082 37.1719,418.457 Q37.1719,418.8477 36.9063,419.082 Q36.6563,419.3164 36.0469,419.3164 L35.6406,419.3164 L38.0938,425.1914 Z " fill="#000000"/><text fill="#000000" font-family="sans-serif" font-size="12" font-style="italic" lengthAdjust="spacing" textLength="81" x="49.5" y="417.584">&#171;value object&#187;</text><text fill="#000000" font-family="sans-serif" font-size="14" lengthAdjust="spacing" textLength="64" x="58" y="435.7031">FirstName</text><line style="stroke:#181818;stroke-width:0.5;" x1="23.5" x2="130.5" y1="444.2168" y2="444.2168"/><line style="stroke:#181818;stroke-width:0.5;" x1="23.5" x2="130.5" y1="452.2168" y2="452.2168"/></g><!--class LastName--><g id="elem_LastName"><rect codeLine="10" fill="#F1F1F1" height="60.582" id="LastName" rx="2.5" ry="2.5" style="stroke:#181818;stroke-width:0.5;" width="109" x="166.5" y="269.6348"/><ellipse cx="181.5" cy="291.9258" fill="#FF8B40" rx="11" ry="11" style="stroke:#181818;stroke-width:1.0;"/><path d="M182.0938,295.1914 L184.5625,289.3164 L184.1719,289.3164 Q183.5625,289.3164 183.2969,289.082 Q183.0313,288.8477 183.0313,288.457 Q183.0313,288.082 183.2969,287.8477 Q183.5625,287.6133 184.1719,287.6133 L186.4531,287.6133 Q187.0625,287.6133 187.3281,287.8477 Q187.5938,288.082 187.5938,288.457 Q187.5938,288.9258 187.1875,289.1914 Q187,289.3164 186.4063,289.3164 L182.9219,297.6758 L181.2813,297.6758 L177.7969,289.3164 Q177.2031,289.3164 177.0156,289.1914 Q176.6094,288.9258 176.6094,288.457 Q176.6094,288.082 176.875,287.8477 Q177.1406,287.6133 177.75,287.6133 L180.0469,287.6133 Q180.6563,287.6133 180.9063,287.8477 Q181.1719,288.082 181.1719,288.457 Q181.1719,288.8477 180.9063,289.082 Q180.6563,289.3164 180.0469,289.3164 L179.6406,289.3164 L182.0938,295.1914 Z " fill="#000000"/><text fill="#000000" font-family="sans-serif" font-size="12" font-style="italic" lengthAdjust="spacing" textLength="81" x="193.5" y="287.584">&#171;value object&#187;</text><text fill="#000000" font-family="sans-serif" font-size="14" lengthAdjust="spacing" textLength="63" x="202.5" y="305.7031">LastName</text><line style="stroke:#181818;stroke-width:0.5;" x1="167.5" x2="274.5" y1="314.2168" y2="314.2168"/><line style="stroke:#181818;stroke-width:0.5;" x1="167.5" x2="274.5" y1="322.2168" y2="322.2168"/></g><!--class FullName--><g id="elem_FullName"><rect codeLine="11" fill="#F1F1F1" height="60.582" id="FullName" rx="2.5" ry="2.5" style="stroke:#181818;stroke-width:0.5;" width="109" x="166.5" y="399.6348"/><ellipse cx="181.5" cy="421.9258" fill="#FF8B40" rx="11" ry="11" style="stroke:#181818;stroke-width:1.0;"/><path d="M182.0938,425.1914 L184.5625,419.3164 L184.1719,419.3164 Q183.5625,419.3164 183.2969,419.082 Q183.0313,418.8477 183.0313,418.457 Q183.0313,418.082 183.2969,417.8477 Q183.5625,417.6133 184.1719,417.6133 L186.4531,417.6133 Q187.0625,417.6133 187.3281,417.8477 Q187.5938,418.082 187.5938,418.457 Q187.5938,418.9258 187.1875,419.1914 Q187,419.3164 186.4063,419.3164 L182.9219,427.6758 L181.2813,427.6758 L177.7969,419.3164 Q177.2031,419.3164 177.0156,419.1914 Q176.6094,418.9258 176.6094,418.457 Q176.6094,418.082 176.875,417.8477 Q177.1406,417.6133 177.75,417.6133 L180.0469,417.6133 Q180.6563,417.6133 180.9063,417.8477 Q181.1719,418.082 181.1719,418.457 Q181.1719,418.8477 180.9063,419.082 Q180.6563,419.3164 180.0469,419.3164 L179.6406,419.3164 L182.0938,425.1914 Z " fill="#000000"/><text fill="#000000" font-family="sans-serif" font-size="12" font-style="italic" lengthAdjust="spacing" textLength="81" x="193.5" y="417.584">&#171;value object&#187;</text><text fill="#000000" font-family="sans-serif" font-size="14" lengthAdjust="spacing" textLength="59" x="204.5" y="435.7031">FullName</text><line style="stroke:#181818;stroke-width:0.5;" x1="167.5" x2="274.5" y1="444.2168" y2="444.2168"/><line style="stroke:#181818;stroke-width:0.5;" x1="167.5" x2="274.5" y1="452.2168" y2="452.2168"/></g><!--class ContactInfo--><g id="elem_ContactInfo"><rect codeLine="12" fill="#F1F1F1" height="60.582" id="ContactInfo" rx="2.5" ry="2.5" style="stroke:#181818;stroke-width:0.5;" width="109" x="310.5" y="399.6348"/><ellipse cx="325.5" cy="421.9258" fill="#FF8B40" rx="11" ry="11" style="stroke:#181818;stroke-width:1.0;"/><path d="M326.0938,425.1914 L328.5625,419.3164 L328.1719,419.3164 Q327.5625,419.3164 327.2969,419.082 Q327.0313,418.8477 327.0313,418.457 Q327.0313,418.082 327.2969,417.8477 Q327.5625,417.6133 328.1719,417.6133 L330.4531,417.6133 Q331.0625,417.6133 331.3281,417.8477 Q331.5938,418.082 331.5938,418.457 Q331.5938,418.9258 331.1875,419.1914 Q331,419.3164 330.4063,419.3164 L326.9219,427.6758 L325.2813,427.6758 L321.7969,419.3164 Q321.2031,419.3164 321.0156,419.1914 Q320.6094,418.9258 320.6094,418.457 Q320.6094,418.082 320.875,417.8477 Q321.1406,417.6133 321.75,417.6133 L324.0469,417.6133 Q324.6563,417.6133 324.9063,417.8477 Q325.1719,418.082 325.1719,418.457 Q325.1719,418.8477 324.9063,419.082 Q324.6563,419.3164 324.0469,419.3164 L323.6406,419.3164 L326.0938,425.1914 Z " fill="#000000"/><text fill="#000000" font-family="sans-serif" font-size="12" font-style="italic" lengthAdjust="spacing" textLength="81" x="337.5" y="417.584">&#171;value object&#187;</text><text fill="#000000" font-family="sans-serif" font-size="14" lengthAdjust="spacing" textLength="72" x="342" y="435.7031">ContactInfo</text><line style="stroke:#181818;stroke-width:0.5;" x1="311.5" x2="418.5" y1="444.2168" y2="444.2168"/><line style="stroke:#181818;stroke-width:0.5;" x1="311.5" x2="418.5" y1="452.2168" y2="452.2168"/></g><!--class Phone--><g id="elem_Phone"><rect codeLine="13" fill="#F1F1F1" height="60.582" id="Phone" rx="2.5" ry="2.5" style="stroke:#181818;stroke-width:0.5;" width="109" x="22.5" y="523.6348"/><ellipse cx="37.5" cy="545.9258" fill="#FF8B40" rx="11" ry="11" style="stroke:#181818;stroke-width:1.0;"/><path d="M38.0938,549.1914 L40.5625,543.3164 L40.1719,543.3164 Q39.5625,543.3164 39.2969,543.082 Q39.0313,542.8477 39.0313,542.457 Q39.0313,542.082 39.2969,541.8477 Q39.5625,541.6133 40.1719,541.6133 L42.4531,541.6133 Q43.0625,541.6133 43.3281,541.8477 Q43.5938,542.082 43.5938,542.457 Q43.5938,542.9258 43.1875,543.1914 Q43,543.3164 42.4063,543.3164 L38.9219,551.6758 L37.2813,551.6758 L33.7969,543.3164 Q33.2031,543.3164 33.0156,543.1914 Q32.6094,542.9258 32.6094,542.457 Q32.6094,542.082 32.875,541.8477 Q33.1406,541.6133 33.75,541.6133 L36.0469,541.6133 Q36.6563,541.6133 36.9063,541.8477 Q37.1719,542.082 37.1719,542.457 Q37.1719,542.8477 36.9063,543.082 Q36.6563,543.3164 36.0469,543.3164 L35.6406,543.3164 L38.0938,549.1914 Z " fill="#000000"/><text fill="#000000" font-family="sans-serif" font-size="12" font-style="italic" lengthAdjust="spacing" textLength="81" x="49.5" y="541.584">&#171;value object&#187;</text><text fill="#000000" font-family="sans-serif" font-size="14" lengthAdjust="spacing" textLength="41" x="69.5" y="559.7031">Phone</text><line style="stroke:#181818;stroke-width:0.5;" x1="23.5" x2="130.5" y1="568.2168" y2="568.2168"/><line style="stroke:#181818;stroke-width:0.5;" x1="23.5" x2="130.5" y1="576.2168" y2="576.2168"/></g><!--class Email--><g id="elem_Email"><rect codeLine="14" fill="#F1F1F1" height="60.582" id="Email" rx="2.5" ry="2.5" style="stroke:#181818;stroke-width:0.5;" width="109" x="166.5" y="523.6348"/><ellipse cx="181.5" cy="545.9258" fill="#FF8B40" rx="11" ry="11" style="stroke:#181818;stroke-width:1.0;"/><path d="M182.0938,549.1914 L184.5625,543.3164 L184.1719,543.3164 Q183.5625,543.3164 183.2969,543.082 Q183.0313,542.8477 183.0313,542.457 Q183.0313,542.082 183.2969,541.8477 Q183.5625,541.6133 184.1719,541.6133 L186.4531,541.6133 Q187.0625,541.6133 187.3281,541.8477 Q187.5938,542.082 187.5938,542.457 Q187.5938,542.9258 187.1875,543.1914 Q187,543.3164 186.4063,543.3164 L182.9219,551.6758 L181.2813,551.6758 L177.7969,543.3164 Q177.2031,543.3164 177.0156,543.1914 Q176.6094,542.9258 176.6094,542.457 Q176.6094,542.082 176.875,541.8477 Q177.1406,541.6133 177.75,541.6133 L180.0469,541.6133 Q180.6563,541.6133 180.9063,541.8477 Q181.1719,542.082 181.1719,542.457 Q181.1719,542.8477 180.9063,543.082 Q180.6563,543.3164 180.0469,543.3164 L179.6406,543.3164 L182.0938,549.1914 Z " fill="#000000"/><text fill="#000000" font-family="sans-serif" font-size="12" font-style="italic" lengthAdjust="spacing" textLength="81" x="193.5" y="541.584">&#171;value object&#187;</text><text fill="#000000" font-family="sans-serif" font-size="14" lengthAdjust="spacing" textLength="34" x="217" y="559.7031">Email</text><line style="stroke:#181818;stroke-width:0.5;" x1="167.5" x2="274.5" y1="568.2168" y2="568.2168"/><line style="stroke:#181818;stroke-width:0.5;" x1="167.5" x2="274.5" y1="576.2168" y2="576.2168"/></g><!--class Slot--><g id="elem_Slot"><rect codeLine="15" fill="#F1F1F1" height="60.582" id="Slot" rx="2.5" ry="2.5" style="stroke:#181818;stroke-width:0.5;" width="109" x="454.5" y="399.6348"/><ellipse cx="469.5" cy="421.9258" fill="#FF8B40" rx="11" ry="11" style="stroke:#181818;stroke-width:1.0;"/><path d="M470.0938,425.1914 L472.5625,419.3164 L472.1719,419.3164 Q471.5625,419.3164 471.2969,419.082 Q471.0313,418.8477 471.0313,418.457 Q471.0313,418.082 471.2969,417.8477 Q471.5625,417.6133 472.1719,417.6133 L474.4531,417.6133 Q475.0625,417.6133 475.3281,417.8477 Q475.5938,418.082 475.5938,418.457 Q475.5938,418.9258 475.1875,419.1914 Q475,419.3164 474.4063,419.3164 L470.9219,427.6758 L469.2813,427.6758 L465.7969,419.3164 Q465.2031,419.3164 465.0156,419.1914 Q464.6094,418.9258 464.6094,418.457 Q464.6094,418.082 464.875,417.8477 Q465.1406,417.6133 465.75,417.6133 L468.0469,417.6133 Q468.6563,417.6133 468.9063,417.8477 Q469.1719,418.082 469.1719,418.457 Q469.1719,418.8477 468.9063,419.082 Q468.6563,419.3164 468.0469,419.3164 L467.6406,419.3164 L470.0938,425.1914 Z " fill="#000000"/><text fill="#000000" font-family="sans-serif" font-size="12" font-style="italic" lengthAdjust="spacing" textLength="81" x="481.5" y="417.584">&#171;value object&#187;</text><text fill="#000000" font-family="sans-serif" font-size="14" lengthAdjust="spacing" textLength="24" x="510" y="435.7031">Slot</text><line style="stroke:#181818;stroke-width:0.5;" x1="455.5" x2="562.5" y1="444.2168" y2="444.2168"/><line style="stroke:#181818;stroke-width:0.5;" x1="455.5" x2="562.5" y1="452.2168" y2="452.2168"/></g><!--class Date--><g id="elem_Date"><rect codeLine="16" fill="#F1F1F1" height="60.582" id="Date" rx="2.5" ry="2.5" style="stroke:#181818;stroke-width:0.5;" width="109" x="310.5" y="523.6348"/><ellipse cx="325.5" cy="545.9258" fill="#FF8B40" rx="11" ry="11" style="stroke:#181818;stroke-width:1.0;"/><path d="M326.0938,549.1914 L328.5625,543.3164 L328.1719,543.3164 Q327.5625,543.3164 327.2969,543.082 Q327.0313,542.8477 327.0313,542.457 Q327.0313,542.082 327.2969,541.8477 Q327.5625,541.6133 328.1719,541.6133 L330.4531,541.6133 Q331.0625,541.6133 331.3281,541.8477 Q331.5938,542.082 331.5938,542.457 Q331.5938,542.9258 331.1875,543.1914 Q331,543.3164 330.4063,543.3164 L326.9219,551.6758 L325.2813,551.6758 L321.7969,543.3164 Q321.2031,543.3164 321.0156,543.1914 Q320.6094,542.9258 320.6094,542.457 Q320.6094,542.082 320.875,541.8477 Q321.1406,541.6133 321.75,541.6133 L324.0469,541.6133 Q324.6563,541.6133 324.9063,541.8477 Q325.1719,542.082 325.1719,542.457 Q325.1719,542.8477 324.9063,543.082 Q324.6563,543.3164 324.0469,543.3164 L323.6406,543.3164 L326.0938,549.1914 Z " fill="#000000"/><text fill="#000000" font-family="sans-serif" font-size="12" font-style="italic" lengthAdjust="spacing" textLength="81" x="337.5" y="541.584">&#171;value object&#187;</text><text fill="#000000" font-family="sans-serif" font-size="14" lengthAdjust="spacing" textLength="30" x="363" y="559.7031">Date</text><line style="stroke:#181818;stroke-width:0.5;" x1="311.5" x2="418.5" y1="568.2168" y2="568.2168"/><line style="stroke:#181818;stroke-width:0.5;" x1="311.5" x2="418.5" y1="576.2168" y2="576.2168"/></g><!--class TimeInterval--><g id="elem_TimeInterval"><rect codeLine="17" fill="#F1F1F1" height="60.582" id="TimeInterval" rx="2.5" ry="2.5" style="stroke:#181818;stroke-width:0.5;" width="109" x="454.5" y="523.6348"/><ellipse cx="469.5" cy="545.9258" fill="#FF8B40" rx="11" ry="11" style="stroke:#181818;stroke-width:1.0;"/><path d="M470.0938,549.1914 L472.5625,543.3164 L472.1719,543.3164 Q471.5625,543.3164 471.2969,543.082 Q471.0313,542.8477 471.0313,542.457 Q471.0313,542.082 471.2969,541.8477 Q471.5625,541.6133 472.1719,541.6133 L474.4531,541.6133 Q475.0625,541.6133 475.3281,541.8477 Q475.5938,542.082 475.5938,542.457 Q475.5938,542.9258 475.1875,543.1914 Q475,543.3164 474.4063,543.3164 L470.9219,551.6758 L469.2813,551.6758 L465.7969,543.3164 Q465.2031,543.3164 465.0156,543.1914 Q464.6094,542.9258 464.6094,542.457 Q464.6094,542.082 464.875,541.8477 Q465.1406,541.6133 465.75,541.6133 L468.0469,541.6133 Q468.6563,541.6133 468.9063,541.8477 Q469.1719,542.082 469.1719,542.457 Q469.1719,542.8477 468.9063,543.082 Q468.6563,543.3164 468.0469,543.3164 L467.6406,543.3164 L470.0938,549.1914 Z " fill="#000000"/><text fill="#000000" font-family="sans-serif" font-size="12" font-style="italic" lengthAdjust="spacing" textLength="81" x="481.5" y="541.584">&#171;value object&#187;</text><text fill="#000000" font-family="sans-serif" font-size="14" lengthAdjust="spacing" textLength="77" x="483.5" y="559.7031">TimeInterval</text><line style="stroke:#181818;stroke-width:0.5;" x1="455.5" x2="562.5" y1="568.2168" y2="568.2168"/><line style="stroke:#181818;stroke-width:0.5;" x1="455.5" x2="562.5" y1="576.2168" y2="576.2168"/></g><!--class Specialization--><g id="elem_Specialization"><rect codeLine="21" fill="#F1F1F1" height="76.543" id="Specialization" rx="2.5" ry="2.5" style="stroke:#181818;stroke-width:0.5;" width="118" x="642" y="261.6348"/><ellipse cx="657" cy="291.9063" fill="#ADD1B2" rx="11" ry="11" style="stroke:#181818;stroke-width:1.0;"/><path d="M655.8594,292.7031 L655.8594,295.2031 L660.1875,295.2031 L660.1875,294.2813 Q660.1875,293.6719 660.4219,293.4063 Q660.6719,293.1406 661.0469,293.1406 Q661.4219,293.1406 661.6563,293.4063 Q661.8906,293.6719 661.8906,294.2813 L661.8906,296.9063 L653.8906,296.9063 Q653.2656,296.9063 653,296.6719 Q652.75,296.4375 652.75,296.0469 Q652.75,295.6719 653.0156,295.4375 Q653.2813,295.2031 653.8906,295.2031 L654.1563,295.2031 L654.1563,288.5469 L653.8906,288.5469 Q653.2656,288.5469 653,288.3125 Q652.75,288.0781 652.75,287.6875 Q652.75,287.3125 653,287.0781 Q653.2656,286.8438 653.8906,286.8438 L661.5156,286.8438 L661.5156,289.4375 Q661.5156,290.0469 661.2813,290.3125 Q661.0625,290.5625 660.6719,290.5625 Q660.2969,290.5625 660.0625,290.3125 Q659.8281,290.0469 659.8281,289.4375 L659.8281,288.5469 L655.8594,288.5469 L655.8594,291 L657.3438,291 Q657.3438,290.3438 657.4688,290.1563 Q657.7344,289.75 658.2031,289.75 Q658.5781,289.75 658.8125,290.0156 Q659.0469,290.2656 659.0469,290.875 L659.0469,292.8438 Q659.0469,293.3906 658.9219,293.5781 Q658.6563,293.9688 658.2031,293.9688 Q657.7344,293.9688 657.4688,293.5625 Q657.3438,293.375 657.3438,292.7031 L655.8594,292.7031 Z " fill="#000000"/><text fill="#000000" font-family="sans-serif" font-size="12" font-style="italic" lengthAdjust="spacing" textLength="43" x="692.5" y="279.584">&#171;entity&#187;</text><text fill="#000000" font-family="sans-serif" font-size="12" font-style="italic" lengthAdjust="spacing" textLength="35" x="696.5" y="295.5449">&#171;root&#187;</text><text fill="#000000" font-family="sans-serif" font-size="14" lengthAdjust="spacing" textLength="86" x="671" y="313.6641">Specialization</text><line style="stroke:#181818;stroke-width:0.5;" x1="643" x2="759" y1="322.1777" y2="322.1777"/><line style="stroke:#181818;stroke-width:0.5;" x1="643" x2="759" y1="330.1777" y2="330.1777"/></g><!--class SpecializationDenomination--><g id="elem_SpecializationDenomination"><rect codeLine="22" fill="#F1F1F1" height="60.582" id="SpecializationDenomination" rx="2.5" ry="2.5" style="stroke:#181818;stroke-width:0.5;" width="205" x="620.5" y="399.6348"/><ellipse cx="635.5" cy="421.9258" fill="#FF8B40" rx="11" ry="11" style="stroke:#181818;stroke-width:1.0;"/><path d="M636.0938,425.1914 L638.5625,419.3164 L638.1719,419.3164 Q637.5625,419.3164 637.2969,419.082 Q637.0313,418.8477 637.0313,418.457 Q637.0313,418.082 637.2969,417.8477 Q637.5625,417.6133 638.1719,417.6133 L640.4531,417.6133 Q641.0625,417.6133 641.3281,417.8477 Q641.5938,418.082 641.5938,418.457 Q641.5938,418.9258 641.1875,419.1914 Q641,419.3164 640.4063,419.3164 L636.9219,427.6758 L635.2813,427.6758 L631.7969,419.3164 Q631.2031,419.3164 631.0156,419.1914 Q630.6094,418.9258 630.6094,418.457 Q630.6094,418.082 630.875,417.8477 Q631.1406,417.6133 631.75,417.6133 L634.0469,417.6133 Q634.6563,417.6133 634.9063,417.8477 Q635.1719,418.082 635.1719,418.457 Q635.1719,418.8477 634.9063,419.082 Q634.6563,419.3164 634.0469,419.3164 L633.6406,419.3164 L636.0938,425.1914 Z " fill="#000000"/><text fill="#000000" font-family="sans-serif" font-size="12" font-style="italic" lengthAdjust="spacing" textLength="81" x="695.5" y="417.584">&#171;value object&#187;</text><text fill="#000000" font-family="sans-serif" font-size="14" lengthAdjust="spacing" textLength="173" x="649.5" y="435.7031">SpecializationDenomination</text><line style="stroke:#181818;stroke-width:0.5;" x1="621.5" x2="824.5" y1="444.2168" y2="444.2168"/><line style="stroke:#181818;stroke-width:0.5;" x1="621.5" x2="824.5" y1="452.2168" y2="452.2168"/></g><!--link Name to FirstName--><g id="link_Name_FirstName"><path codeLine="27" d="M77,330.8248 C77,351.5048 77,372.9648 77,393.6048 " fill="none" id="Name-to-FirstName" style="stroke:#181818;stroke-width:1.0;"/><polygon fill="#181818" points="77,399.6048,81,390.6048,77,394.6048,73,390.6048,77,399.6048" style="stroke:#181818;stroke-width:1.0;"/></g><!--link Name to LastName--><g id="link_Name_LastName"><path codeLine="28" d="M131.56,300.1348 C143.21,300.1348 148.85,300.1348 160.5,300.1348 " fill="none" id="Name-to-LastName" style="stroke:#181818;stroke-width:1.0;"/><polygon fill="#181818" points="166.5,300.1348,157.5,296.1348,161.5,300.1348,157.5,304.1348,166.5,300.1348" style="stroke:#181818;stroke-width:1.0;"/></g><!--link Name to FullName--><g id="link_Name_FullName"><path codeLine="29" d="M110.4,330.8248 C133.66,351.5048 160.0755,374.9786 183.2955,395.6186 " fill="none" id="Name-to-FullName" style="stroke:#181818;stroke-width:1.0;"/><polygon fill="#181818" points="187.78,399.6048,183.7108,390.6359,184.043,396.2829,178.3959,396.6151,187.78,399.6048" style="stroke:#181818;stroke-width:1.0;"/></g><!--link ContactInfo to Email--><g id="link_ContactInfo_Email"><path codeLine="31" d="M330.14,460.6648 C307.67,479.7048 283.128,500.5064 260.618,519.5764 " fill="none" id="ContactInfo-to-Email" style="stroke:#181818;stroke-width:1.0;"/><polygon fill="#181818" points="256.04,523.4548,265.4926,520.6892,259.855,520.2228,260.3214,514.5852,256.04,523.4548" style="stroke:#181818;stroke-width:1.0;"/><text fill="#000000" font-family="sans-serif" font-size="13" lengthAdjust="spacing" textLength="7" x="255.5451" y="512.4753">1</text></g><!--link ContactInfo to Phone--><g id="link_ContactInfo_Phone"><path codeLine="32" d="M330.45,460.8948 C319.09,469.5248 306.03,478.3148 293,484.6348 C233.35,513.5848 211.8,502.3548 149,523.6348 C143.37,525.5448 143.1543,525.5219 137.3743,527.7319 " fill="none" id="ContactInfo-to-Phone" style="stroke:#181818;stroke-width:1.0;"/><polygon fill="#181818" points="131.77,529.8748,141.605,530.3967,136.4403,528.0891,138.7479,522.9243,131.77,529.8748" style="stroke:#181818;stroke-width:1.0;"/><text fill="#000000" font-family="sans-serif" font-size="13" lengthAdjust="spacing" textLength="7" x="139.6" y="522.5486">1</text></g><!--link Staff to Name--><g id="link_Staff_Name"><path codeLine="34" d="M441.28,125.7448 C377.94,133.5248 243.73,156.3248 149,216.6348 C127.83,230.1148 112.8937,246.783 99.9537,264.463 " fill="none" id="Staff-to-Name" style="stroke:#181818;stroke-width:1.0;"/><polygon fill="#181818" points="96.41,269.3048,104.9533,264.4046,99.3631,265.27,98.4977,259.6797,96.41,269.3048" style="stroke:#181818;stroke-width:1.0;"/><text fill="#000000" font-family="sans-serif" font-size="13" lengthAdjust="spacing" textLength="7" x="92.6914" y="258.2944">1</text></g><!--link Staff to ContactInfo--><g id="link_Staff_ContactInfo"><path codeLine="35" d="M477.04,159.9448 C476.55,213.3948 473.57,307.9748 459,338.6348 C447.62,362.5748 431.6382,379.7164 412.6082,395.4164 " fill="none" id="Staff-to-ContactInfo" style="stroke:#181818;stroke-width:1.0;"/><polygon fill="#181818" points="407.98,399.2348,417.4679,396.5927,411.8368,396.0528,412.3768,390.4218,407.98,399.2348" style="stroke:#181818;stroke-width:1.0;"/><text fill="#000000" font-family="sans-serif" font-size="13" lengthAdjust="spacing" textLength="7" x="409.1228" y="388.2099">1</text></g><!--link Staff to LicenseNumber--><g id="link_Staff_LicenseNumber"><path codeLine="36" d="M455.58,159.6748 C438.5,189.6048 417.6538,226.1336 400.5338,256.1336 " fill="none" id="Staff-to-LicenseNumber" style="stroke:#181818;stroke-width:1.0;"/><polygon fill="#181818" points="397.56,261.3448,405.4949,255.5106,400.0382,257.0021,398.5466,251.5455,397.56,261.3448" style="stroke:#181818;stroke-width:1.0;"/><text fill="#000000" font-family="sans-serif" font-size="13" lengthAdjust="spacing" textLength="7" x="393.6641" y="250.3094">1</text></g><!--link Staff to Slot--><g id="link_Staff_Slot"><path codeLine="37" d="M482.29,159.9448 C483.58,169.6148 484.9,180.0048 486,189.6348 C494.66,265.1648 502.1161,348.3768 506.0061,393.6268 " fill="none" id="Staff-to-Slot" style="stroke:#181818;stroke-width:1.0;"/><polygon fill="#181818" points="506.52,399.6048,509.7344,390.2952,506.0917,394.6231,501.7638,390.9804,506.52,399.6048" style="stroke:#181818;stroke-width:1.0;"/><text fill="#000000" font-family="sans-serif" font-size="13" lengthAdjust="spacing" textLength="20" x="483.79" y="388.1728">1..*</text></g><!--link Staff to Specialization--><g id="link_Staff_Specialization"><path codeLine="38" d="M512.99,150.5748 C551.08,180.6748 606.6725,224.5947 648.6725,257.7847 " fill="none" id="Staff-to-Specialization" style="stroke:#181818;stroke-width:1.0;"/><polygon fill="#181818" points="653.38,261.5048,648.7987,252.7863,649.457,258.4047,643.8386,259.063,653.38,261.5048" style="stroke:#181818;stroke-width:1.0;"/><text fill="#000000" font-family="sans-serif" font-size="13" lengthAdjust="spacing" textLength="79" x="583" y="204.6631">specialized in</text><text fill="#000000" font-family="sans-serif" font-size="13" lengthAdjust="spacing" textLength="7" x="637.5938" y="250.4969">1</text></g><!--link Specialization to SpecializationDenomination--><g id="link_Specialization_SpecializationDenomination"><path codeLine="39" d="M707.48,338.8448 C710.8,358.1648 713.7739,375.4414 716.8739,393.4814 " fill="none" id="Specialization-to-SpecializationDenomination" style="stroke:#181818;stroke-width:1.0;"/><polygon fill="#181818" points="717.89,399.3948,720.308,389.8473,717.0432,394.467,712.4236,391.2022,717.89,399.3948" style="stroke:#181818;stroke-width:1.0;"/><text fill="#000000" font-family="sans-serif" font-size="13" lengthAdjust="spacing" textLength="7" x="709.1142" y="388.4029">1</text></g><!--link Slot to Date--><g id="link_Slot_Date"><path codeLine="40" d="M474.14,460.6648 C451.67,479.7048 427.128,500.5064 404.618,519.5764 " fill="none" id="Slot-to-Date" style="stroke:#181818;stroke-width:1.0;"/><polygon fill="#181818" points="400.04,523.4548,409.4926,520.6892,403.855,520.2228,404.3214,514.5852,400.04,523.4548" style="stroke:#181818;stroke-width:1.0;"/><text fill="#000000" font-family="sans-serif" font-size="13" lengthAdjust="spacing" textLength="7" x="399.5451" y="512.4753">1</text></g><!--link Slot to TimeInterval--><g id="link_Slot_TimeInterval"><path codeLine="41" d="M509,460.6648 C509,479.7048 509,498.3848 509,517.4548 " fill="none" id="Slot-to-TimeInterval" style="stroke:#181818;stroke-width:1.0;"/><polygon fill="#181818" points="509,523.4548,513,514.4548,509,518.4548,505,514.4548,509,523.4548" style="stroke:#181818;stroke-width:1.0;"/><text fill="#000000" font-family="sans-serif" font-size="13" lengthAdjust="spacing" textLength="7" x="501.2781" y="512.4753">1</text></g><!--SRC=[bPDTJuCm58Rl-oiQlF0ZmbpKn2oa5pf9banZClM-WmEhzeD0CT5b_ztofPHi2jprFSzxMdhU7c-qJlFPP99oAdKXk1SgCGavpNCtOZJ9g418Cyq1EoyhVErDlUabTl5S2SeaVb0HS0UXb8RlD36CxzCaoI2X6l1AqpWcnC5RXCq7qlJvh5Ni-_MI4D_FbDA4R7SLLMsDbom4cSDZ8TQG6VZazVme26vkhovEFoWl0Alr6uJ6PMeiAbl533ApjBeyKW5_cYqwO5cknrcMTAmZA3WVvxXJKjDGBsIiXfkUDagEsEFU39CFnrTSwU7qlCp2OFgP2LX83Pc1_dFj3WKlXP1HphwePagQ1De1jAgT9E8sYhs_jVWvI2MORBs7pzSS4A5gtAvBVWFMIEGdFnscoGT2tRcN5MVgr7FQMwa6Zb3zk5gnQjHAZTOnzsZhpTasppjpggdtBBshdE6y5I32JA9UVR-jUwEeYbRBbScnbMuwq3S0]--></g></svg>