<?xml version="1.0" encoding="us-ascii" standalone="no"?><svg xmlns="http://www.w3.org/2000/svg" xmlns:xlink="http://www.w3.org/1999/xlink" contentStyleType="text/css" height="515px" preserveAspectRatio="none" style="width:403px;height:515px;background:#FFFFFF;" version="1.1" viewBox="0 0 403 515" width="403px" zoomAndPan="magnify"><defs/><g><text fill="#000000" font-family="sans-serif" font-size="14" font-weight="bold" lengthAdjust="spacing" textLength="262" x="72.25" y="30.1074">US 5.1.20 - System Sequence Diagram</text><rect fill="#FFFFFF" height="348.2012" style="stroke:#181818;stroke-width:1.0;" width="10" x="41.5" y="111.5332"/><rect fill="#FFFFFF" height="348.2012" style="stroke:#181818;stroke-width:1.0;" width="10" x="352.5" y="111.5332"/><rect fill="none" height="50.582" style="stroke:#000000;stroke-width:1.5;" width="387.5" x="10" y="220.4063"/><rect fill="none" height="81.873" style="stroke:#000000;stroke-width:1.5;" width="387.5" x="10" y="284.9883"/><line style="stroke:#181818;stroke-width:0.5;stroke-dasharray:5.0,5.0;" x1="46" x2="46" y1="78.2422" y2="477.7344"/><line style="stroke:#181818;stroke-width:0.5;stroke-dasharray:5.0,5.0;" x1="357.5" x2="357.5" y1="78.2422" y2="477.7344"/><rect fill="#E2E2F0" height="32.6211" rx="2.5" ry="2.5" style="stroke:#181818;stroke-width:0.5;" width="53" x="20" y="44.6211"/><text fill="#000000" font-family="sans-serif" font-size="14" lengthAdjust="spacing" textLength="39" x="27" y="66.7285">Admin</text><rect fill="#E2E2F0" height="32.6211" rx="2.5" ry="2.5" style="stroke:#181818;stroke-width:0.5;" width="53" x="20" y="476.7344"/><text fill="#000000" font-family="sans-serif" font-size="14" lengthAdjust="spacing" textLength="39" x="27" y="498.8418">Admin</text><rect fill="#E2E2F0" height="32.6211" rx="2.5" ry="2.5" style="stroke:#181818;stroke-width:0.5;" width="60" x="327.5" y="44.6211"/><text fill="#000000" font-family="sans-serif" font-size="14" lengthAdjust="spacing" textLength="46" x="334.5" y="66.7285">System</text><rect fill="#E2E2F0" height="32.6211" rx="2.5" ry="2.5" style="stroke:#181818;stroke-width:0.5;" width="60" x="327.5" y="476.7344"/><text fill="#000000" font-family="sans-serif" font-size="14" lengthAdjust="spacing" textLength="46" x="334.5" y="498.8418">System</text><rect fill="#FFFFFF" height="348.2012" style="stroke:#181818;stroke-width:1.0;" width="10" x="41.5" y="111.5332"/><rect fill="#FFFFFF" height="348.2012" style="stroke:#181818;stroke-width:1.0;" width="10" x="352.5" y="111.5332"/><polygon fill="#181818" points="340.5,107.5332,350.5,111.5332,340.5,115.5332,344.5,111.5332" style="stroke:#181818;stroke-width:1.0;"/><line style="stroke:#181818;stroke-width:1.0;" x1="51.5" x2="346.5" y1="111.5332" y2="111.5332"/><text fill="#000000" font-family="sans-serif" font-size="13" font-weight="bold" lengthAdjust="spacing" textLength="7" x="58.5" y="106.2705">1</text><text fill="#000000" font-family="sans-serif" font-size="13" lengthAdjust="spacing" textLength="213" x="69.5" y="106.2705">wants to create a new operation type</text><polygon fill="#181818" points="62.5,138.8242,52.5,142.8242,62.5,146.8242,58.5,142.8242" style="stroke:#181818;stroke-width:1.0;"/><line style="stroke:#181818;stroke-width:1.0;stroke-dasharray:2.0,2.0;" x1="56.5" x2="351.5" y1="142.8242" y2="142.8242"/><text fill="#000000" font-family="sans-serif" font-size="13" font-weight="bold" lengthAdjust="spacing" textLength="7" x="68.5" y="137.5615">2</text><text fill="#000000" font-family="sans-serif" font-size="13" lengthAdjust="spacing" textLength="190" x="79.5" y="137.5615">asks for the operation type name</text><polygon fill="#181818" points="340.5,170.1152,350.5,174.1152,340.5,178.1152,344.5,174.1152" style="stroke:#181818;stroke-width:1.0;"/><line style="stroke:#181818;stroke-width:1.0;" x1="51.5" x2="346.5" y1="174.1152" y2="174.1152"/><text fill="#000000" font-family="sans-serif" font-size="13" font-weight="bold" lengthAdjust="spacing" textLength="7" x="58.5" y="168.8525">3</text><text fill="#000000" font-family="sans-serif" font-size="13" lengthAdjust="spacing" textLength="162" x="69.5" y="168.8525">provides the operation name</text><polygon fill="#181818" points="62.5,201.4063,52.5,205.4063,62.5,209.4063,58.5,205.4063" style="stroke:#181818;stroke-width:1.0;"/><line style="stroke:#181818;stroke-width:1.0;stroke-dasharray:2.0,2.0;" x1="56.5" x2="351.5" y1="205.4063" y2="205.4063"/><text fill="#000000" font-family="sans-serif" font-size="13" font-weight="bold" lengthAdjust="spacing" textLength="7" x="68.5" y="200.1436">4</text><text fill="#000000" font-family="sans-serif" font-size="13" lengthAdjust="spacing" textLength="232" x="79.5" y="200.1436">asks for the list of staff by specialization</text><path d="M10,220.4063 L83,220.4063 L83,229.6973 L73,239.6973 L10,239.6973 L10,220.4063 " fill="#EEEEEE" style="stroke:#000000;stroke-width:1.5;"/><rect fill="none" height="50.582" style="stroke:#000000;stroke-width:1.5;" width="387.5" x="10" y="220.4063"/><text fill="#000000" font-family="sans-serif" font-size="13" font-weight="bold" lengthAdjust="spacing" textLength="28" x="25" y="235.4346">loop</text><text fill="#000000" font-family="sans-serif" font-size="11" font-weight="bold" lengthAdjust="spacing" textLength="203" x="98" y="234.2764">[while there are vacancies in the list]</text><polygon fill="#181818" points="340.5,258.9883,350.5,262.9883,340.5,266.9883,344.5,262.9883" style="stroke:#181818;stroke-width:1.0;"/><line style="stroke:#181818;stroke-width:1.0;" x1="51.5" x2="346.5" y1="262.9883" y2="262.9883"/><text fill="#000000" font-family="sans-serif" font-size="13" font-weight="bold" lengthAdjust="spacing" textLength="7" x="58.5" y="257.7256">5</text><text fill="#000000" font-family="sans-serif" font-size="13" lengthAdjust="spacing" textLength="132" x="69.5" y="257.7256">selects a staff member</text><path d="M10,284.9883 L83,284.9883 L83,294.2793 L73,304.2793 L10,304.2793 L10,284.9883 " fill="#EEEEEE" style="stroke:#000000;stroke-width:1.5;"/><rect fill="none" height="81.873" style="stroke:#000000;stroke-width:1.5;" width="387.5" x="10" y="284.9883"/><text fill="#000000" font-family="sans-serif" font-size="13" font-weight="bold" lengthAdjust="spacing" textLength="28" x="25" y="300.0166">loop</text><text fill="#000000" font-family="sans-serif" font-size="11" font-weight="bold" lengthAdjust="spacing" textLength="203" x="98" y="298.8584">[for each phase of an operation type]</text><polygon fill="#181818" points="62.5,323.5703,52.5,327.5703,62.5,331.5703,58.5,327.5703" style="stroke:#181818;stroke-width:1.0;"/><line style="stroke:#181818;stroke-width:1.0;stroke-dasharray:2.0,2.0;" x1="56.5" x2="351.5" y1="327.5703" y2="327.5703"/><text fill="#000000" font-family="sans-serif" font-size="13" font-weight="bold" lengthAdjust="spacing" textLength="7" x="68.5" y="322.3076">6</text><text fill="#000000" font-family="sans-serif" font-size="13" lengthAdjust="spacing" textLength="221" x="79.5" y="322.3076">asks to indicate an estimated duration</text><polygon fill="#181818" points="340.5,354.8613,350.5,358.8613,340.5,362.8613,344.5,358.8613" style="stroke:#181818;stroke-width:1.0;"/><line style="stroke:#181818;stroke-width:1.0;" x1="51.5" x2="346.5" y1="358.8613" y2="358.8613"/><text fill="#000000" font-family="sans-serif" font-size="13" font-weight="bold" lengthAdjust="spacing" textLength="7" x="58.5" y="353.5986">7</text><text fill="#000000" font-family="sans-serif" font-size="13" lengthAdjust="spacing" textLength="176" x="69.5" y="353.5986">provides an estimated duration</text><polygon fill="#181818" points="62.5,393.1523,52.5,397.1523,62.5,401.1523,58.5,397.1523" style="stroke:#181818;stroke-width:1.0;"/><line style="stroke:#181818;stroke-width:1.0;stroke-dasharray:2.0,2.0;" x1="56.5" x2="351.5" y1="397.1523" y2="397.1523"/><text fill="#000000" font-family="sans-serif" font-size="13" font-weight="bold" lengthAdjust="spacing" textLength="7" x="68.5" y="391.8896">8</text><text fill="#000000" font-family="sans-serif" font-size="13" lengthAdjust="spacing" textLength="243" x="79.5" y="391.8896">asks to indicate a total estimated duration</text><polygon fill="#181818" points="340.5,424.4434,350.5,428.4434,340.5,432.4434,344.5,428.4434" style="stroke:#181818;stroke-width:1.0;"/><line style="stroke:#181818;stroke-width:1.0;" x1="51.5" x2="346.5" y1="428.4434" y2="428.4434"/><text fill="#000000" font-family="sans-serif" font-size="13" font-weight="bold" lengthAdjust="spacing" textLength="7" x="58.5" y="423.1807">9</text><text fill="#000000" font-family="sans-serif" font-size="13" lengthAdjust="spacing" textLength="198" x="69.5" y="423.1807">provides a total estimated duration</text><polygon fill="#181818" points="57.5,455.7344,47.5,459.7344,57.5,463.7344,53.5,459.7344" style="stroke:#181818;stroke-width:1.0;"/><line style="stroke:#181818;stroke-width:1.0;stroke-dasharray:2.0,2.0;" x1="51.5" x2="356.5" y1="459.7344" y2="459.7344"/><text fill="#000000" font-family="sans-serif" font-size="13" font-weight="bold" lengthAdjust="spacing" textLength="14" x="63.5" y="454.4717">10</text><text fill="#000000" font-family="sans-serif" font-size="13" lengthAdjust="spacing" textLength="259" x="81.5" y="454.4717">confirms the creation of a new operation type</text><!--SRC=[bP8zJyCm48Pt_ufJ5wQqWCJI0QaIArF4m7YrB-I4lx0lhSglnqx3HwDIn139ftlplEVNTzMBnBnUhQ95BuEpIntSAjFRG5vJOnXV4ZgbXCKIB9vQk5lUB6-leO7sa8KSj9CM7exQXL8uIF23sr9IAc8IrXmB7JR6iGVCi7buF6bCgD9fdrkbIXkQ-tg6DUoB88C4q8bG210yxI54IYWSFCWXaa8jlAlTIlugHbYbD8LMeUjYyPgX2mcafna4F3gQcSSKTcmep-H7vGMovImGEiY2NGVR0-H8cj7o-mXGoeOGOTzp2RNeKxbM-NQeqMikTYMcJynieaoMT0a49xQZOyxa3LJeXAw34EeUOe-PwYZevw6Tkq39cRrXFIRjWRAmAsS3PaZJwES3-aNyFTPVPgKIjFznlF37gPaElkFaZgyuhb7De6PoRfUKePDr-b7MXVe0]--></g></svg>