<?xml version="1.0" encoding="UTF-8" standalone="no"?><svg xmlns="http://www.w3.org/2000/svg" xmlns:xlink="http://www.w3.org/1999/xlink" contentStyleType="text/css" height="395px" preserveAspectRatio="none" style="width:371px;height:395px;background:#FFFFFF;" version="1.1" viewBox="0 0 371 395" width="371px" zoomAndPan="magnify"><defs/><g><text fill="#000000" font-family="sans-serif" font-size="14" font-weight="bold" lengthAdjust="spacing" textLength="235" x="67" y="29.5332">US 7.2.15 - Process View [Level 1]</text><rect fill="#FFFFFF" height="148.625" style="stroke:#181818;stroke-width:1.0;" width="10" x="30" y="138.7656"/><rect fill="#FFFFFF" height="39.1563" style="stroke:#181818;stroke-width:1.0;" width="10" x="267" y="169.9219"/><rect fill="#FFFFFF" height="39.1563" style="stroke:#181818;stroke-width:1.0;" width="10" x="267" y="248.2344"/><line style="stroke:#181818;stroke-width:0.5;stroke-dasharray:5.0,5.0;" x1="35" x2="35" y1="128.7656" y2="305.3906"/><line style="stroke:#181818;stroke-width:0.5;stroke-dasharray:5.0,5.0;" x1="272" x2="272" y1="128.7656" y2="305.3906"/><text fill="#000000" font-family="sans-serif" font-size="20" lengthAdjust="spacing" textLength="54" x="5" y="124.3711">Admin</text><ellipse cx="35" cy="52.1094" fill="#E2E2F0" rx="8" ry="8" style="stroke:#181818;stroke-width:0.5;"/><path d="M35,60.1094 L35,87.1094 M22,68.1094 L48,68.1094 M35,87.1094 L22,102.1094 M35,87.1094 L48,102.1094 " fill="none" style="stroke:#181818;stroke-width:0.5;"/><text fill="#000000" font-family="sans-serif" font-size="20" lengthAdjust="spacing" textLength="54" x="5" y="325.1523">Admin</text><ellipse cx="35" cy="338.0469" fill="#E2E2F0" rx="8" ry="8" style="stroke:#181818;stroke-width:0.5;"/><path d="M35,346.0469 L35,373.0469 M22,354.0469 L48,354.0469 M35,373.0469 L22,388.0469 M35,373.0469 L48,388.0469 " fill="none" style="stroke:#181818;stroke-width:0.5;"/><rect fill="#E2E2F0" height="64.3125" rx="2.5" ry="2.5" style="stroke:#181818;stroke-width:0.5;" width="186" x="179" y="63.4531"/><text fill="#000000" font-family="sans-serif" font-size="20" lengthAdjust="spacing" textLength="130" x="207" y="91.2148">«system (C4)»</text><text fill="#000000" font-family="sans-serif" font-size="20" lengthAdjust="spacing" textLength="166" x="192" y="116.3711">Healthcare System</text><rect fill="#E2E2F0" height="64.3125" rx="2.5" ry="2.5" style="stroke:#181818;stroke-width:0.5;" width="186" x="179" y="304.3906"/><text fill="#000000" font-family="sans-serif" font-size="20" lengthAdjust="spacing" textLength="130" x="207" y="332.1523">«system (C4)»</text><text fill="#000000" font-family="sans-serif" font-size="20" lengthAdjust="spacing" textLength="166" x="192" y="357.3086">Healthcare System</text><rect fill="#FFFFFF" height="148.625" style="stroke:#181818;stroke-width:1.0;" width="10" x="30" y="138.7656"/><rect fill="#FFFFFF" height="39.1563" style="stroke:#181818;stroke-width:1.0;" width="10" x="267" y="169.9219"/><rect fill="#FFFFFF" height="39.1563" style="stroke:#181818;stroke-width:1.0;" width="10" x="267" y="248.2344"/><polygon fill="#181818" points="255,165.9219,265,169.9219,255,173.9219,259,169.9219" style="stroke:#181818;stroke-width:1.0;"/><line style="stroke:#181818;stroke-width:1.0;" x1="40" x2="261" y1="169.9219" y2="169.9219"/><text fill="#000000" font-family="sans-serif" font-size="20" font-weight="bold" lengthAdjust="spacing" textLength="11" x="47" y="163.5273">1</text><text fill="#000000" font-family="sans-serif" font-size="20" lengthAdjust="spacing" textLength="156" x="62" y="163.5273">list specializations</text><polygon fill="#181818" points="51,205.0781,41,209.0781,51,213.0781,47,209.0781" style="stroke:#181818;stroke-width:1.0;"/><line style="stroke:#181818;stroke-width:1.0;stroke-dasharray:2.0,2.0;" x1="45" x2="271" y1="209.0781" y2="209.0781"/><text fill="#000000" font-family="sans-serif" font-size="20" font-weight="bold" lengthAdjust="spacing" textLength="11" x="57" y="202.6836">2</text><text fill="#000000" font-family="sans-serif" font-size="20" lengthAdjust="spacing" textLength="106" x="72" y="202.6836">select filters</text><polygon fill="#181818" points="255,244.2344,265,248.2344,255,252.2344,259,248.2344" style="stroke:#181818;stroke-width:1.0;"/><line style="stroke:#181818;stroke-width:1.0;" x1="40" x2="261" y1="248.2344" y2="248.2344"/><text fill="#000000" font-family="sans-serif" font-size="20" font-weight="bold" lengthAdjust="spacing" textLength="11" x="47" y="241.8398">3</text><text fill="#000000" font-family="sans-serif" font-size="20" lengthAdjust="spacing" textLength="116" x="62" y="241.8398">selects filters</text><polygon fill="#181818" points="46,283.3906,36,287.3906,46,291.3906,42,287.3906" style="stroke:#181818;stroke-width:1.0;"/><line style="stroke:#181818;stroke-width:1.0;stroke-dasharray:2.0,2.0;" x1="40" x2="271" y1="287.3906" y2="287.3906"/><text fill="#000000" font-family="sans-serif" font-size="20" font-weight="bold" lengthAdjust="spacing" textLength="11" x="52" y="280.9961">4</text><text fill="#000000" font-family="sans-serif" font-size="20" lengthAdjust="spacing" textLength="188" x="67" y="280.9961">shows specializations</text><!--SRC=[TOvFImCn44Vl-HG_zgI7BROeGYaBHH4F2iAY8EeXPgTqQ3PPChCjzjERNT3wXnu22VFUoyY6GsUJRNrq6shGqChsNczYq9htXDcPCShg2SLZZSl9R3AzG8c751s9u8bfXvSxsfB7zAqmnlOQGz- -Kyftfp5XsRGSO0NBwtkJlr9stDcWA1OB-H2b5YTNvwTLzHfmIzRhsjb4gCTHCOZrSpt6U6kLnam-AAjXW3ayYq8wScmzxwro37B0Hta0oonaRmuXJqwnOg-Kn3Jqcpsqlr3vPezMyngoZZlvjyUV-ezdjZu1]--></g></svg>