<?xml version="1.0" encoding="UTF-8" standalone="no"?><svg xmlns="http://www.w3.org/2000/svg" xmlns:xlink="http://www.w3.org/1999/xlink" contentStyleType="text/css" height="832px" preserveAspectRatio="none" style="width:1904px;height:832px;background:#FFFFFF;" version="1.1" viewBox="0 0 1904 832" width="1904px" zoomAndPan="magnify"><defs/><g><text fill="#000000" font-family="sans-serif" font-size="14" font-weight="bold" lengthAdjust="spacing" textLength="235" x="836.25" y="29.5332">US 7.2.15 - Process View [Level 3]</text><rect fill="#FFFFFF" height="595.3438" style="stroke:#181818;stroke-width:1.0;" width="10" x="391" y="150.0781"/><rect fill="#FFFFFF" height="471.875" style="stroke:#181818;stroke-width:1.0;" width="10" x="776.5" y="234.3906"/><rect fill="#FFFFFF" height="348.4063" style="stroke:#181818;stroke-width:1.0;" width="10" x="1164.5" y="318.7031"/><rect fill="#FFFFFF" height="176.7813" style="stroke:#181818;stroke-width:1.0;" width="10" x="1169.5" y="444.1719"/><rect fill="#FFFFFF" height="39.1563" style="stroke:#181818;stroke-width:1.0;" width="10" x="1584.5" y="357.8594"/><rect fill="none" height="112.625" style="stroke:#000000;stroke-width:1.5;" width="838" x="1060.5" y="464.1719"/><line style="stroke:#181818;stroke-width:0.5;stroke-dasharray:5.0,5.0;" x1="395.5" x2="395.5" y1="108.9219" y2="763.4219"/><line style="stroke:#181818;stroke-width:0.5;stroke-dasharray:5.0,5.0;" x1="580.5" x2="580.5" y1="108.9219" y2="763.4219"/><line style="stroke:#181818;stroke-width:0.5;stroke-dasharray:5.0,5.0;" x1="781.5" x2="781.5" y1="108.9219" y2="763.4219"/><line style="stroke:#181818;stroke-width:0.5;stroke-dasharray:5.0,5.0;" x1="1169.5" x2="1169.5" y1="108.9219" y2="763.4219"/><line style="stroke:#181818;stroke-width:0.5;stroke-dasharray:5.0,5.0;" x1="1589.5" x2="1589.5" y1="108.9219" y2="763.4219"/><line style="stroke:#181818;stroke-width:0.5;stroke-dasharray:5.0,5.0;" x1="1800.5" x2="1800.5" y1="549.1406" y2="763.4219"/><rect fill="#E2E2F0" height="64.3125" rx="2.5" ry="2.5" style="stroke:#181818;stroke-width:0.5;" width="185" x="303.5" y="43.6094"/><text fill="#000000" font-family="sans-serif" font-size="20" font-style="italic" lengthAdjust="spacing" textLength="67" x="362.5" y="71.3711">«route»</text><text fill="#000000" font-family="sans-serif" font-size="20" lengthAdjust="spacing" textLength="171" x="310.5" y="96.5273">SpecializationRoute</text><rect fill="#E2E2F0" height="64.3125" rx="2.5" ry="2.5" style="stroke:#181818;stroke-width:0.5;" width="185" x="303.5" y="762.4219"/><text fill="#000000" font-family="sans-serif" font-size="20" font-style="italic" lengthAdjust="spacing" textLength="67" x="362.5" y="790.1836">«route»</text><text fill="#000000" font-family="sans-serif" font-size="20" lengthAdjust="spacing" textLength="171" x="310.5" y="815.3398">SpecializationRoute</text><rect fill="#E2E2F0" height="64.3125" rx="2.5" ry="2.5" style="stroke:#181818;stroke-width:0.5;" width="164" x="498.5" y="43.6094"/><text fill="#000000" font-family="sans-serif" font-size="20" font-style="italic" lengthAdjust="spacing" textLength="49" x="556" y="71.3711">«dto»</text><text fill="#000000" font-family="sans-serif" font-size="20" lengthAdjust="spacing" textLength="150" x="505.5" y="96.5273">SpecializationDto</text><rect fill="#E2E2F0" height="64.3125" rx="2.5" ry="2.5" style="stroke:#181818;stroke-width:0.5;" width="164" x="498.5" y="762.4219"/><text fill="#000000" font-family="sans-serif" font-size="20" font-style="italic" lengthAdjust="spacing" textLength="49" x="556" y="790.1836">«dto»</text><text fill="#000000" font-family="sans-serif" font-size="20" lengthAdjust="spacing" textLength="150" x="505.5" y="815.3398">SpecializationDto</text><rect fill="#E2E2F0" height="64.3125" rx="2.5" ry="2.5" style="stroke:#181818;stroke-width:0.5;" width="218" x="672.5" y="43.6094"/><text fill="#000000" font-family="sans-serif" font-size="20" font-style="italic" lengthAdjust="spacing" textLength="105" x="729" y="71.3711">«controller»</text><text fill="#000000" font-family="sans-serif" font-size="20" lengthAdjust="spacing" textLength="204" x="679.5" y="96.5273">SpecializationController</text><rect fill="#E2E2F0" height="64.3125" rx="2.5" ry="2.5" style="stroke:#181818;stroke-width:0.5;" width="218" x="672.5" y="762.4219"/><text fill="#000000" font-family="sans-serif" font-size="20" font-style="italic" lengthAdjust="spacing" textLength="105" x="729" y="790.1836">«controller»</text><text fill="#000000" font-family="sans-serif" font-size="20" lengthAdjust="spacing" textLength="204" x="679.5" y="815.3398">SpecializationController</text><rect fill="#E2E2F0" height="64.3125" rx="2.5" ry="2.5" style="stroke:#181818;stroke-width:0.5;" width="198" x="1070.5" y="43.6094"/><text fill="#000000" font-family="sans-serif" font-size="20" font-style="italic" lengthAdjust="spacing" textLength="86" x="1126.5" y="71.3711">«service»</text><text fill="#000000" font-family="sans-serif" font-size="20" lengthAdjust="spacing" textLength="184" x="1077.5" y="96.5273">SpecializationService</text><rect fill="#E2E2F0" height="64.3125" rx="2.5" ry="2.5" style="stroke:#181818;stroke-width:0.5;" width="198" x="1070.5" y="762.4219"/><text fill="#000000" font-family="sans-serif" font-size="20" font-style="italic" lengthAdjust="spacing" textLength="86" x="1126.5" y="790.1836">«service»</text><text fill="#000000" font-family="sans-serif" font-size="20" lengthAdjust="spacing" textLength="184" x="1077.5" y="815.3398">SpecializationService</text><rect fill="#E2E2F0" height="64.3125" rx="2.5" ry="2.5" style="stroke:#181818;stroke-width:0.5;" width="228" x="1475.5" y="43.6094"/><text fill="#000000" font-family="sans-serif" font-size="20" font-style="italic" lengthAdjust="spacing" textLength="110" x="1534.5" y="71.3711">«repository»</text><text fill="#000000" font-family="sans-serif" font-size="20" lengthAdjust="spacing" textLength="214" x="1482.5" y="96.5273">SpecializationRepository</text><rect fill="#E2E2F0" height="64.3125" rx="2.5" ry="2.5" style="stroke:#181818;stroke-width:0.5;" width="228" x="1475.5" y="762.4219"/><text fill="#000000" font-family="sans-serif" font-size="20" font-style="italic" lengthAdjust="spacing" textLength="110" x="1534.5" y="790.1836">«repository»</text><text fill="#000000" font-family="sans-serif" font-size="20" lengthAdjust="spacing" textLength="214" x="1482.5" y="815.3398">SpecializationRepository</text><rect fill="#E2E2F0" height="64.3125" rx="2.5" ry="2.5" style="stroke:#181818;stroke-width:0.5;" width="175" x="1713.5" y="762.4219"/><text fill="#000000" font-family="sans-serif" font-size="20" font-style="italic" lengthAdjust="spacing" textLength="49" x="1776.5" y="790.1836">«dto»</text><text fill="#000000" font-family="sans-serif" font-size="20" lengthAdjust="spacing" textLength="161" x="1720.5" y="815.3398">SpecializationDTO</text><rect fill="#FFFFFF" height="595.3438" style="stroke:#181818;stroke-width:1.0;" width="10" x="391" y="150.0781"/><rect fill="#FFFFFF" height="471.875" style="stroke:#181818;stroke-width:1.0;" width="10" x="776.5" y="234.3906"/><rect fill="#FFFFFF" height="348.4063" style="stroke:#181818;stroke-width:1.0;" width="10" x="1164.5" y="318.7031"/><rect fill="#FFFFFF" height="176.7813" style="stroke:#181818;stroke-width:1.0;" width="10" x="1169.5" y="444.1719"/><rect fill="#FFFFFF" height="39.1563" style="stroke:#181818;stroke-width:1.0;" width="10" x="1584.5" y="357.8594"/><ellipse cx="7.5" cy="149.3281" fill="none" rx="4" ry="4" style="stroke:#181818;stroke-width:1.5;"/><polygon fill="#181818" points="379,146.0781,389,150.0781,379,154.0781,383,150.0781" style="stroke:#181818;stroke-width:1.0;"/><line style="stroke:#181818;stroke-width:1.0;" x1="12" x2="385" y1="150.0781" y2="150.0781"/><text fill="#000000" font-family="sans-serif" font-size="20" font-weight="bold" lengthAdjust="spacing" textLength="11" x="15" y="143.6836">1</text><text fill="#000000" font-family="sans-serif" font-size="20" lengthAdjust="spacing" textLength="349" x="30" y="143.6836">GET  api/Specialization/filtered?Params</text><path d="M406,163.0781 L406,198.0781 L867,198.0781 L867,173.0781 L857,163.0781 L406,163.0781 " fill="#FEFFDD" style="stroke:#181818;stroke-width:0.5;"/><path d="M857,163.0781 L857,173.0781 L867,173.0781 L857,163.0781 " fill="#FEFFDD" style="stroke:#181818;stroke-width:0.5;"/><text fill="#000000" font-family="sans-serif" font-size="20" font-weight="bold" lengthAdjust="spacing" textLength="71" x="412" y="188.8398">Params</text><text fill="#000000" font-family="sans-serif" font-size="20" lengthAdjust="spacing" textLength="6" x="483" y="188.8398">:</text><text fill="#000000" font-family="sans-serif" font-size="20" font-weight="bold" lengthAdjust="spacing" textLength="90" x="495" y="188.8398">[optional]</text><text fill="#000000" font-family="sans-serif" font-size="20" lengthAdjust="spacing" textLength="261" x="591" y="188.8398">code, description, designation</text><polygon fill="#181818" points="764.5,230.3906,774.5,234.3906,764.5,238.3906,768.5,234.3906" style="stroke:#181818;stroke-width:1.0;"/><line style="stroke:#181818;stroke-width:1.0;" x1="401" x2="770.5" y1="234.3906" y2="234.3906"/><text fill="#000000" font-family="sans-serif" font-size="20" font-weight="bold" lengthAdjust="spacing" textLength="11" x="408" y="227.9961">2</text><text fill="#000000" font-family="sans-serif" font-size="20" lengthAdjust="spacing" textLength="301" x="423" y="227.9961">GetSpecializationsByFilters(filters)</text><path d="M791,247.3906 L791,282.3906 L1362,282.3906 L1362,257.3906 L1352,247.3906 L791,247.3906 " fill="#FEFFDD" style="stroke:#181818;stroke-width:0.5;"/><path d="M1352,247.3906 L1352,257.3906 L1362,257.3906 L1352,247.3906 " fill="#FEFFDD" style="stroke:#181818;stroke-width:0.5;"/><text fill="#000000" font-family="sans-serif" font-size="20" font-weight="bold" lengthAdjust="spacing" textLength="54" x="797" y="273.1523">filters</text><text fill="#000000" font-family="sans-serif" font-size="20" lengthAdjust="spacing" textLength="490" x="857" y="273.1523">represent the various variables provided as parameters.</text><polygon fill="#181818" points="1152.5,314.7031,1162.5,318.7031,1152.5,322.7031,1156.5,318.7031" style="stroke:#181818;stroke-width:1.0;"/><line style="stroke:#181818;stroke-width:1.0;" x1="786.5" x2="1158.5" y1="318.7031" y2="318.7031"/><text fill="#000000" font-family="sans-serif" font-size="20" font-weight="bold" lengthAdjust="spacing" textLength="11" x="793.5" y="312.3086">3</text><text fill="#000000" font-family="sans-serif" font-size="20" lengthAdjust="spacing" textLength="344" x="808.5" y="312.3086">GetSpecializationByFiltersAsync(filters)</text><polygon fill="#181818" points="1572.5,353.8594,1582.5,357.8594,1572.5,361.8594,1576.5,357.8594" style="stroke:#181818;stroke-width:1.0;"/><line style="stroke:#181818;stroke-width:1.0;" x1="1174.5" x2="1578.5" y1="357.8594" y2="357.8594"/><text fill="#000000" font-family="sans-serif" font-size="20" font-weight="bold" lengthAdjust="spacing" textLength="11" x="1181.5" y="351.4648">4</text><text fill="#000000" font-family="sans-serif" font-size="20" lengthAdjust="spacing" textLength="223" x="1196.5" y="351.4648">FindAllConditioned(filters)</text><polygon fill="#181818" points="1185.5,393.0156,1175.5,397.0156,1185.5,401.0156,1181.5,397.0156" style="stroke:#181818;stroke-width:1.0;"/><line style="stroke:#181818;stroke-width:1.0;stroke-dasharray:2.0,2.0;" x1="1179.5" x2="1588.5" y1="397.0156" y2="397.0156"/><text fill="#000000" font-family="sans-serif" font-size="20" font-weight="bold" lengthAdjust="spacing" textLength="11" x="1191.5" y="390.6211">5</text><text fill="#000000" font-family="sans-serif" font-size="20" lengthAdjust="spacing" textLength="126" x="1206.5" y="390.6211">specializations</text><line style="stroke:#181818;stroke-width:1.0;" x1="1174.5" x2="1221.5" y1="431.1719" y2="431.1719"/><line style="stroke:#181818;stroke-width:1.0;" x1="1221.5" x2="1221.5" y1="431.1719" y2="444.1719"/><line style="stroke:#181818;stroke-width:1.0;" x1="1180.5" x2="1221.5" y1="444.1719" y2="444.1719"/><polygon fill="#181818" points="1190.5,440.1719,1180.5,444.1719,1190.5,448.1719,1186.5,444.1719" style="stroke:#181818;stroke-width:1.0;"/><text fill="#000000" font-family="sans-serif" font-size="20" font-weight="bold" lengthAdjust="spacing" textLength="11" x="1186.5" y="424.7773">6</text><text fill="#000000" font-family="sans-serif" font-size="20" lengthAdjust="spacing" textLength="381" x="1201.5" y="424.7773">ConvertSpecializationToDto(specializations)</text><path d="M1060.5,464.1719 L1146.5,464.1719 L1146.5,481.3281 L1136.5,491.3281 L1060.5,491.3281 L1060.5,464.1719 " fill="#EEEEEE" style="stroke:#000000;stroke-width:1.5;"/><rect fill="none" height="112.625" style="stroke:#000000;stroke-width:1.5;" width="838" x="1060.5" y="464.1719"/><text fill="#000000" font-family="sans-serif" font-size="20" font-weight="bold" lengthAdjust="spacing" textLength="41" x="1075.5" y="485.9336">loop</text><text fill="#000000" font-family="sans-serif" font-size="20" font-weight="bold" lengthAdjust="spacing" textLength="249" x="1161.5" y="486.9336">[for all the specializations]</text><polygon fill="#181818" points="1701.5,528.6406,1711.5,532.6406,1701.5,536.6406,1705.5,532.6406" style="stroke:#181818;stroke-width:1.0;"/><line style="stroke:#181818;stroke-width:1.0;" x1="1179.5" x2="1707.5" y1="532.6406" y2="532.6406"/><text fill="#000000" font-family="sans-serif" font-size="20" font-weight="bold" lengthAdjust="spacing" textLength="11" x="1186.5" y="526.2461">7</text><text fill="#000000" font-family="sans-serif" font-size="20" lengthAdjust="spacing" textLength="319" x="1201.5" y="526.2461">create(code,designation,description)</text><rect fill="#E2E2F0" height="64.3125" rx="2.5" ry="2.5" style="stroke:#181818;stroke-width:0.5;" width="175" x="1713.5" y="501.4844"/><text fill="#000000" font-family="sans-serif" font-size="20" font-style="italic" lengthAdjust="spacing" textLength="49" x="1776.5" y="529.2461">«dto»</text><text fill="#000000" font-family="sans-serif" font-size="20" lengthAdjust="spacing" textLength="161" x="1720.5" y="554.4023">SpecializationDTO</text><line style="stroke:#181818;stroke-width:1.0;stroke-dasharray:2.0,2.0;" x1="1179.5" x2="1221.5" y1="619.9531" y2="619.9531"/><line style="stroke:#181818;stroke-width:1.0;stroke-dasharray:2.0,2.0;" x1="1221.5" x2="1221.5" y1="619.9531" y2="632.9531"/><line style="stroke:#181818;stroke-width:1.0;stroke-dasharray:2.0,2.0;" x1="1174.5" x2="1221.5" y1="632.9531" y2="632.9531"/><polygon fill="#181818" points="1184.5,628.9531,1174.5,632.9531,1184.5,636.9531,1180.5,632.9531" style="stroke:#181818;stroke-width:1.0;"/><text fill="#000000" font-family="sans-serif" font-size="20" font-weight="bold" lengthAdjust="spacing" textLength="11" x="1186.5" y="613.5586">8</text><text fill="#000000" font-family="sans-serif" font-size="20" lengthAdjust="spacing" textLength="167" x="1201.5" y="613.5586">specializationsDtos</text><polygon fill="#181818" points="797.5,663.1094,787.5,667.1094,797.5,671.1094,793.5,667.1094" style="stroke:#181818;stroke-width:1.0;"/><line style="stroke:#181818;stroke-width:1.0;stroke-dasharray:2.0,2.0;" x1="791.5" x2="1168.5" y1="667.1094" y2="667.1094"/><text fill="#000000" font-family="sans-serif" font-size="20" font-weight="bold" lengthAdjust="spacing" textLength="11" x="803.5" y="660.7148">9</text><text fill="#000000" font-family="sans-serif" font-size="20" lengthAdjust="spacing" textLength="178" x="818.5" y="660.7148">specializationsDTOs</text><polygon fill="#181818" points="412,702.2656,402,706.2656,412,710.2656,408,706.2656" style="stroke:#181818;stroke-width:1.0;"/><line style="stroke:#181818;stroke-width:1.0;stroke-dasharray:2.0,2.0;" x1="406" x2="780.5" y1="706.2656" y2="706.2656"/><text fill="#000000" font-family="sans-serif" font-size="20" font-weight="bold" lengthAdjust="spacing" textLength="22" x="418" y="699.8711">10</text><text fill="#000000" font-family="sans-serif" font-size="20" lengthAdjust="spacing" textLength="178" x="444" y="699.8711">specializationsDTOs</text><ellipse cx="7.5" cy="744.6719" fill="none" rx="4" ry="4" style="stroke:#181818;stroke-width:1.5;"/><polygon fill="#181818" points="24.5,741.4219,14.5,745.4219,24.5,749.4219,20.5,745.4219" style="stroke:#181818;stroke-width:1.0;"/><line style="stroke:#181818;stroke-width:1.0;stroke-dasharray:2.0,2.0;" x1="22.5" x2="395" y1="745.4219" y2="745.4219"/><text fill="#000000" font-family="sans-serif" font-size="20" font-weight="bold" lengthAdjust="spacing" textLength="22" x="25" y="739.0273">11</text><text fill="#000000" font-family="sans-serif" font-size="20" lengthAdjust="spacing" textLength="178" x="51" y="739.0273">specializationsDTOs</text><!--SRC=[ZP9HRnen3CVVyoaidkYfqAtJD0aXfex1NYfHmRKlg9hInBHHq_Cf2JVHJpydOL1kZEuUxi3op_xRV_jdKzNIoHTBwXarQ5p9jGrJgiB2l29SVX0Yc60HEhSB-DA_x7_y33suSQJGUxWp-0kMrzYWXK_t7I7aEb2rVdb09xXiCChKiWhGMTIeZBJcLGP3rPpM0JiWFSndj-K4XaCN8wFHAUXxe8JKClpKWHZYzsbap6CuiXPT8iVb_9enjOkUfXVe6gEopiNTc4cV8wUnETRaJI2toHDERcPnm5tqdIdBMSBukvjGY2NrHdbN0_WnAG5aRIuEmOkLiG4TwgytqKylf0gcaG4p9ohYdyuyFWMWrRPMKUJSeXX0KIofZeMalIyAKAJndC_1AsTIEFqnZrLg9aGsZbN5fR8e38To_BVDD0dotIpCd-qLHKQq5EKwHR7DPWcyCeSUUKVX2Q6Hpj3QfwzyiCY7uAWnceys7GNFWH7i2v5yPcbisX5bEs5NVbEf8-eO4o8Q7dSUtHl0r5Jwobg-9srY3TH7k9Wh4j3BpHdqXqiH6W_J__H9KhbyWwubjoG-_6whJbkj9QfXHGwajMbRxRwmVRRjudNnXWUW77AHRdBxZR_dRum_4rXfY1t4Lkw_fcEX1nFk5xcxapPHplucidtxWt-7oSUqf66lzvz4oleD]--></g></svg>