<?xml version="1.0" encoding="us-ascii" standalone="no"?><svg xmlns="http://www.w3.org/2000/svg" xmlns:xlink="http://www.w3.org/1999/xlink" contentStyleType="text/css" height="414px" preserveAspectRatio="none" style="width:698px;height:414px;background:#FFFFFF;" version="1.1" viewBox="0 0 698 414" width="698px" zoomAndPan="magnify"><defs/><g><text fill="#000000" font-family="sans-serif" font-size="14" font-weight="bold" lengthAdjust="spacing" textLength="670" x="10" y="30.1074">US 5.1.1. Process View (Level 3) | Visualization - Confirming Email and Activating Patient Account</text><rect fill="#FFFFFF" height="179.7461" style="stroke:#181818;stroke-width:1.0;" width="10" x="55.5" y="133.2422"/><rect fill="#FFFFFF" height="156.4551" style="stroke:#181818;stroke-width:1.0;" width="10" x="249.5" y="156.5332"/><rect fill="#FFFFFF" height="93.873" style="stroke:#181818;stroke-width:1.0;" width="10" x="479.5" y="187.8242"/><line style="stroke:#181818;stroke-width:0.5;stroke-dasharray:5.0,5.0;" x1="60.5" x2="60.5" y1="123.2422" y2="330.9883"/><line style="stroke:#181818;stroke-width:0.5;stroke-dasharray:5.0,5.0;" x1="254.5" x2="254.5" y1="123.2422" y2="330.9883"/><line style="stroke:#181818;stroke-width:0.5;stroke-dasharray:5.0,5.0;" x1="484.5" x2="484.5" y1="123.2422" y2="330.9883"/><text fill="#000000" font-family="sans-serif" font-size="14" lengthAdjust="spacing" textLength="44" x="35.5" y="119.7285">Patient</text><ellipse cx="60.5" cy="53.1211" fill="#E2E2F0" rx="8" ry="8" style="stroke:#181818;stroke-width:0.5;"/><path d="M60.5,61.1211 L60.5,88.1211 M47.5,69.1211 L73.5,69.1211 M60.5,88.1211 L47.5,103.1211 M60.5,88.1211 L73.5,103.1211 " fill="none" style="stroke:#181818;stroke-width:0.5;"/><text fill="#000000" font-family="sans-serif" font-size="14" lengthAdjust="spacing" textLength="44" x="35.5" y="345.0957">Patient</text><ellipse cx="60.5" cy="357.1094" fill="#E2E2F0" rx="8" ry="8" style="stroke:#181818;stroke-width:0.5;"/><path d="M60.5,365.1094 L60.5,392.1094 M47.5,373.1094 L73.5,373.1094 M60.5,392.1094 L47.5,407.1094 M60.5,392.1094 L73.5,407.1094 " fill="none" style="stroke:#181818;stroke-width:0.5;"/><rect fill="#E2E2F0" height="51.2422" rx="2.5" ry="2.5" style="stroke:#181818;stroke-width:0.5;" width="118" x="195.5" y="71"/><text fill="#000000" font-family="sans-serif" font-size="14" lengthAdjust="spacing" textLength="89" x="210" y="93.1074">&#171;Component&#187;</text><text fill="#000000" font-family="sans-serif" font-size="14" lengthAdjust="spacing" textLength="100" x="206.5" y="111.7285">ConfirmAccount</text><rect fill="#E2E2F0" height="51.2422" rx="2.5" ry="2.5" style="stroke:#181818;stroke-width:0.5;" width="118" x="195.5" y="329.9883"/><text fill="#000000" font-family="sans-serif" font-size="14" lengthAdjust="spacing" textLength="89" x="210" y="352.0957">&#171;Component&#187;</text><text fill="#000000" font-family="sans-serif" font-size="14" lengthAdjust="spacing" textLength="100" x="206.5" y="370.7168">ConfirmAccount</text><rect fill="#E2E2F0" height="51.2422" rx="2.5" ry="2.5" style="stroke:#181818;stroke-width:0.5;" width="94" x="437.5" y="71"/><text fill="#000000" font-family="sans-serif" font-size="14" lengthAdjust="spacing" textLength="63" x="453" y="93.1074">&#171;Service&#187;</text><text fill="#000000" font-family="sans-serif" font-size="14" lengthAdjust="spacing" textLength="76" x="448.5" y="111.7285">UserService</text><rect fill="#E2E2F0" height="51.2422" rx="2.5" ry="2.5" style="stroke:#181818;stroke-width:0.5;" width="94" x="437.5" y="329.9883"/><text fill="#000000" font-family="sans-serif" font-size="14" lengthAdjust="spacing" textLength="63" x="453" y="352.0957">&#171;Service&#187;</text><text fill="#000000" font-family="sans-serif" font-size="14" lengthAdjust="spacing" textLength="76" x="448.5" y="370.7168">UserService</text><rect fill="#FFFFFF" height="179.7461" style="stroke:#181818;stroke-width:1.0;" width="10" x="55.5" y="133.2422"/><rect fill="#FFFFFF" height="156.4551" style="stroke:#181818;stroke-width:1.0;" width="10" x="249.5" y="156.5332"/><rect fill="#FFFFFF" height="93.873" style="stroke:#181818;stroke-width:1.0;" width="10" x="479.5" y="187.8242"/><polygon fill="#181818" points="237.5,152.5332,247.5,156.5332,237.5,160.5332,241.5,156.5332" style="stroke:#181818;stroke-width:1.0;"/><line style="stroke:#181818;stroke-width:1.0;" x1="65.5" x2="243.5" y1="156.5332" y2="156.5332"/><text fill="#000000" font-family="sans-serif" font-size="13" lengthAdjust="spacing" textLength="165" x="72.5" y="151.2705">confirm and activate account</text><polygon fill="#181818" points="467.5,183.8242,477.5,187.8242,467.5,191.8242,471.5,187.8242" style="stroke:#181818;stroke-width:1.0;"/><line style="stroke:#181818;stroke-width:1.0;" x1="259.5" x2="473.5" y1="187.8242" y2="187.8242"/><text fill="#000000" font-family="sans-serif" font-size="13" lengthAdjust="spacing" textLength="201" x="266.5" y="182.5615">ConfirmEmailPatient(userId, token)</text><ellipse cx="652" cy="218.3652" fill="none" rx="4" ry="4" style="stroke:#181818;stroke-width:1.5;"/><polygon fill="#181818" points="635,215.1152,645,219.1152,635,223.1152,639,219.1152" style="stroke:#181818;stroke-width:1.0;"/><line style="stroke:#181818;stroke-width:1.0;" x1="489.5" x2="641" y1="219.1152" y2="219.1152"/><text fill="#000000" font-family="sans-serif" font-size="13" lengthAdjust="spacing" textLength="139" x="496.5" y="213.8525">PUT: api/confirm-patient</text><polygon fill="#181818" points="500.5,246.4063,490.5,250.4063,500.5,254.4063,496.5,250.4063" style="stroke:#181818;stroke-width:1.0;"/><ellipse cx="652" cy="249.6563" fill="none" rx="4" ry="4" style="stroke:#181818;stroke-width:1.5;"/><line style="stroke:#181818;stroke-width:1.0;stroke-dasharray:2.0,2.0;" x1="494.5" x2="647.5" y1="250.4063" y2="250.4063"/><text fill="#000000" font-family="sans-serif" font-size="13" lengthAdjust="spacing" textLength="49" x="506.5" y="245.1436">success</text><polygon fill="#181818" points="270.5,277.6973,260.5,281.6973,270.5,285.6973,266.5,281.6973" style="stroke:#181818;stroke-width:1.0;"/><line style="stroke:#181818;stroke-width:1.0;stroke-dasharray:2.0,2.0;" x1="264.5" x2="483.5" y1="281.6973" y2="281.6973"/><text fill="#000000" font-family="sans-serif" font-size="13" lengthAdjust="spacing" textLength="49" x="276.5" y="276.4346">success</text><polygon fill="#181818" points="71.5,308.9883,61.5,312.9883,71.5,316.9883,67.5,312.9883" style="stroke:#181818;stroke-width:1.0;"/><line style="stroke:#181818;stroke-width:1.0;stroke-dasharray:2.0,2.0;" x1="65.5" x2="253.5" y1="312.9883" y2="312.9883"/><text fill="#000000" font-family="sans-serif" font-size="13" lengthAdjust="spacing" textLength="49" x="77.5" y="307.7256">success</text><!--SRC=[RP51QuGm48Nl-oi6JxlGj9JIooB28dieb5PgtLDx276s3DL4OhHG-kCxPXDnbuq7oNE-Dsz6Hwv1IAeI7c_l-O726eLz3mV27rW_uuWDF6pWZuL-a0tzIaT6Wu3Sw2FPblGNx5j93KXTmquv6hc2nO9Vg1rBoWpQ9QkLLCxOgAywQHqfwYJN96cQcxOpcZzasOUEvf45sKF- -hBByqkiH3kIGWzLFTfmzqIvVpluhbCad1i3dnXEPC4Njg1EFVqSCoHF2JmqYm7nudJ2dSscbcmLulkzX5RhWTCzrJVWp3VgpSpEfZujB8xt4fdvPCEYUj-2xEWkX1JTOfWp81N24_sWflzunN4vysLLZTVpn0cPZQixXnTWtCv22im_]--></g></svg>