<?xml version="1.0" encoding="us-ascii" standalone="no"?><svg xmlns="http://www.w3.org/2000/svg" xmlns:xlink="http://www.w3.org/1999/xlink" contentStyleType="text/css" height="431px" preserveAspectRatio="none" style="width:834px;height:431px;background:#FFFFFF;" version="1.1" viewBox="0 0 834 431" width="834px" zoomAndPan="magnify"><defs/><g><text fill="#000000" font-family="sans-serif" font-size="14" font-weight="bold" lengthAdjust="spacing" textLength="586" x="122.75" y="30.1074">US 5.1.1. Process View (Level 3) | Visualization - Create Patient User and Associating</text><rect fill="#FFFFFF" height="197.0371" style="stroke:#181818;stroke-width:1.0;" width="10" x="22.5" y="133.2422"/><rect fill="#FFFFFF" height="173.7461" style="stroke:#181818;stroke-width:1.0;" width="10" x="159.5" y="156.5332"/><rect fill="#FFFFFF" height="111.1641" style="stroke:#181818;stroke-width:1.0;" width="10" x="478.5" y="187.8242"/><line style="stroke:#181818;stroke-width:0.5;stroke-dasharray:5.0,5.0;" x1="27" x2="27" y1="123.2422" y2="348.2793"/><line style="stroke:#181818;stroke-width:0.5;stroke-dasharray:5.0,5.0;" x1="164" x2="164" y1="123.2422" y2="348.2793"/><line style="stroke:#181818;stroke-width:0.5;stroke-dasharray:5.0,5.0;" x1="483.5" x2="483.5" y1="123.2422" y2="348.2793"/><text fill="#000000" font-family="sans-serif" font-size="14" lengthAdjust="spacing" textLength="39" x="5" y="119.7285">Admin</text><ellipse cx="27.5" cy="53.1211" fill="#E2E2F0" rx="8" ry="8" style="stroke:#181818;stroke-width:0.5;"/><path d="M27.5,61.1211 L27.5,88.1211 M14.5,69.1211 L40.5,69.1211 M27.5,88.1211 L14.5,103.1211 M27.5,88.1211 L40.5,103.1211 " fill="none" style="stroke:#181818;stroke-width:0.5;"/><text fill="#000000" font-family="sans-serif" font-size="14" lengthAdjust="spacing" textLength="39" x="5" y="362.3867">Admin</text><ellipse cx="27.5" cy="374.4004" fill="#E2E2F0" rx="8" ry="8" style="stroke:#181818;stroke-width:0.5;"/><path d="M27.5,382.4004 L27.5,409.4004 M14.5,390.4004 L40.5,390.4004 M27.5,409.4004 L14.5,424.4004 M27.5,409.4004 L40.5,424.4004 " fill="none" style="stroke:#181818;stroke-width:0.5;"/><rect fill="#E2E2F0" height="51.2422" rx="2.5" ry="2.5" style="stroke:#181818;stroke-width:0.5;" width="103" x="113" y="71"/><text fill="#000000" font-family="sans-serif" font-size="14" lengthAdjust="spacing" textLength="89" x="120" y="93.1074">&#171;Component&#187;</text><text fill="#000000" font-family="sans-serif" font-size="14" lengthAdjust="spacing" textLength="29" x="152" y="111.7285">User</text><rect fill="#E2E2F0" height="51.2422" rx="2.5" ry="2.5" style="stroke:#181818;stroke-width:0.5;" width="103" x="113" y="347.2793"/><text fill="#000000" font-family="sans-serif" font-size="14" lengthAdjust="spacing" textLength="89" x="120" y="369.3867">&#171;Component&#187;</text><text fill="#000000" font-family="sans-serif" font-size="14" lengthAdjust="spacing" textLength="29" x="152" y="388.0078">User</text><rect fill="#E2E2F0" height="51.2422" rx="2.5" ry="2.5" style="stroke:#181818;stroke-width:0.5;" width="94" x="436.5" y="71"/><text fill="#000000" font-family="sans-serif" font-size="14" lengthAdjust="spacing" textLength="63" x="452" y="93.1074">&#171;Service&#187;</text><text fill="#000000" font-family="sans-serif" font-size="14" lengthAdjust="spacing" textLength="76" x="447.5" y="111.7285">UserService</text><rect fill="#E2E2F0" height="51.2422" rx="2.5" ry="2.5" style="stroke:#181818;stroke-width:0.5;" width="94" x="436.5" y="347.2793"/><text fill="#000000" font-family="sans-serif" font-size="14" lengthAdjust="spacing" textLength="63" x="452" y="369.3867">&#171;Service&#187;</text><text fill="#000000" font-family="sans-serif" font-size="14" lengthAdjust="spacing" textLength="76" x="447.5" y="388.0078">UserService</text><rect fill="#FFFFFF" height="197.0371" style="stroke:#181818;stroke-width:1.0;" width="10" x="22.5" y="133.2422"/><rect fill="#FFFFFF" height="173.7461" style="stroke:#181818;stroke-width:1.0;" width="10" x="159.5" y="156.5332"/><rect fill="#FFFFFF" height="111.1641" style="stroke:#181818;stroke-width:1.0;" width="10" x="478.5" y="187.8242"/><polygon fill="#181818" points="147.5,152.5332,157.5,156.5332,147.5,160.5332,151.5,156.5332" style="stroke:#181818;stroke-width:1.0;"/><line style="stroke:#181818;stroke-width:1.0;" x1="32.5" x2="153.5" y1="156.5332" y2="156.5332"/><text fill="#000000" font-family="sans-serif" font-size="13" lengthAdjust="spacing" textLength="108" x="39.5" y="151.2705">create patient user</text><polygon fill="#181818" points="466.5,183.8242,476.5,187.8242,466.5,191.8242,470.5,187.8242" style="stroke:#181818;stroke-width:1.0;"/><line style="stroke:#181818;stroke-width:1.0;" x1="169.5" x2="472.5" y1="187.8242" y2="187.8242"/><text fill="#000000" font-family="sans-serif" font-size="13" lengthAdjust="spacing" textLength="290" x="176.5" y="182.5615">RegisterPatientUser(email, password, role, phone)</text><ellipse cx="824" cy="218.3652" fill="none" rx="4" ry="4" style="stroke:#181818;stroke-width:1.5;"/><polygon fill="#181818" points="807,215.1152,817,219.1152,807,223.1152,811,219.1152" style="stroke:#181818;stroke-width:1.0;"/><line style="stroke:#181818;stroke-width:1.0;" x1="488.5" x2="813" y1="219.1152" y2="219.1152"/><text fill="#000000" font-family="sans-serif" font-size="13" lengthAdjust="spacing" textLength="143" x="495.5" y="213.8525">POST: api/create-patient</text><polygon fill="#181818" points="499.5,263.6973,489.5,267.6973,499.5,271.6973,495.5,267.6973" style="stroke:#181818;stroke-width:1.0;"/><ellipse cx="824" cy="266.9473" fill="none" rx="4" ry="4" style="stroke:#181818;stroke-width:1.5;"/><line style="stroke:#181818;stroke-width:1.0;stroke-dasharray:2.0,2.0;" x1="493.5" x2="819.5" y1="267.6973" y2="267.6973"/><text fill="#000000" font-family="sans-serif" font-size="13" lengthAdjust="spacing" textLength="260" x="505.5" y="245.1436">Ok("The user has been successfully created.</text><text fill="#000000" font-family="sans-serif" font-size="13" lengthAdjust="spacing" textLength="312" x="505.5" y="262.4346">Please verify your email to complete the registration.")</text><polygon fill="#181818" points="180.5,294.9883,170.5,298.9883,180.5,302.9883,176.5,298.9883" style="stroke:#181818;stroke-width:1.0;"/><line style="stroke:#181818;stroke-width:1.0;stroke-dasharray:2.0,2.0;" x1="174.5" x2="482.5" y1="298.9883" y2="298.9883"/><text fill="#000000" font-family="sans-serif" font-size="13" lengthAdjust="spacing" textLength="49" x="186.5" y="293.7256">success</text><polygon fill="#181818" points="38.5,326.2793,28.5,330.2793,38.5,334.2793,34.5,330.2793" style="stroke:#181818;stroke-width:1.0;"/><line style="stroke:#181818;stroke-width:1.0;stroke-dasharray:2.0,2.0;" x1="32.5" x2="163.5" y1="330.2793" y2="330.2793"/><text fill="#000000" font-family="sans-serif" font-size="13" lengthAdjust="spacing" textLength="49" x="44.5" y="325.0166">success</text><!--SRC=[RL71Qi904Btx5KDE2iPIIYyYWaXl1ODHJ_QmtOmwTDqDkvk8fH_VoIIajdLpoGpllNbl9b8q2CasX-V98t-GUQSn1DWHNc3uYZKQU1h15pT2fGnzgaZEGWfBZoeYP5oZZR0Dw47P0XOXE4tSjSTaC50wEW-BuansK2eVILEf69xCPajtBfrbxdo-jy9FG0NOvY_hlz0SVKqQUs1N2vxXEvb3TUEd7GNyv0_IkIZ257HhkEmCLwmZk9ugE6arJofcD_hCNkEHGaJVvMrS3F6io8nPCOIByyKOl3F8zObZZNgXNb-SmiqJwNJktbW_M-MRAQYI7bgVQUVpFs6Mfi9OVGoJpGab29nu4- -85aAbc_iTAcEkNUHYihUPGHKGQlHqkCBLLHx4FKG7cWzXa0r6LlEIqykL9ydeZj-VZNQpUao1zxEsgsHUUvBVn1jIUu2RXk2_0G00]--></g></svg>