<?xml version="1.0" encoding="us-ascii" standalone="no"?><svg xmlns="http://www.w3.org/2000/svg" xmlns:xlink="http://www.w3.org/1999/xlink" contentStyleType="text/css" height="297.5px" preserveAspectRatio="none" style="width:271px;height:297px;background:#FFFFFF;" version="1.1" viewBox="0 0 271 297" width="271.6px" zoomAndPan="magnify"><defs/><g><text fill="#000000" font-family="sans-serif" font-size="9.8" font-weight="bold" lengthAdjust="spacing" textLength="152.6" x="59.15" y="21.0752">US 6.2.4 Process View (Level 1)</text><rect fill="#FFFFFF" height="21.9037" style="stroke:#181818;stroke-width:0.6999999999999998;" width="7" x="36.4" y="131.477"/><rect fill="#FFFFFF" height="21.9037" style="stroke:#181818;stroke-width:0.6999999999999998;" width="7" x="188.3" y="109.5732"/><rect fill="#FFFFFF" height="73.9074" style="stroke:#181818;stroke-width:0.6999999999999998;" width="7" x="188.3" y="153.3807"/><rect fill="#FFFFFF" height="19.6" style="stroke:#181818;stroke-width:0.6999999999999998;" width="7" x="191.8" y="180.8844"/><line style="stroke:#181818;stroke-width:0.3499999999999999;stroke-dasharray:5.0,5.0;" x1="39.9" x2="39.9" y1="86.2695" y2="239.8881"/><line style="stroke:#181818;stroke-width:0.3499999999999999;stroke-dasharray:5.0,5.0;" x1="191.8" x2="191.8" y1="86.2695" y2="239.8881"/><text fill="#000000" font-family="sans-serif" font-size="9.8" lengthAdjust="spacing" textLength="68.6" x="3.5" y="83.81">Backoffice User</text><ellipse cx="39.9" cy="37.1848" fill="#E2E2F0" rx="5.6" ry="5.6" style="stroke:#181818;stroke-width:0.3499999999999999;"/><path d="M39.9,42.7848 L39.9,61.6848 M30.8,48.3848 L49,48.3848 M39.9,61.6848 L30.8,72.1848 M39.9,61.6848 L49,72.1848 " fill="none" style="stroke:#181818;stroke-width:0.3499999999999999;"/><text fill="#000000" font-family="sans-serif" font-size="9.8" lengthAdjust="spacing" textLength="68.6" x="3.5" y="249.7633">Backoffice User</text><ellipse cx="39.9" cy="258.1729" fill="#E2E2F0" rx="5.6" ry="5.6" style="stroke:#181818;stroke-width:0.3499999999999999;"/><path d="M39.9,263.7729 L39.9,282.6729 M30.8,269.3729 L49,269.3729 M39.9,282.6729 L30.8,293.1729 M39.9,282.6729 L49,293.1729 " fill="none" style="stroke:#181818;stroke-width:0.3499999999999999;"/><rect fill="#E2E2F0" height="35.8695" rx="1.75" ry="1.75" style="stroke:#181818;stroke-width:0.3499999999999999;" width="95.2" x="144.2" y="49.7"/><text fill="#000000" font-family="sans-serif" font-size="9.8" lengthAdjust="spacing" textLength="64.4" x="159.6" y="65.1752">&#171;system (C4)&#187;</text><text fill="#000000" font-family="sans-serif" font-size="9.8" lengthAdjust="spacing" textLength="82.6" x="151.9" y="78.21">Healthcare System</text><rect fill="#E2E2F0" height="35.8695" rx="1.75" ry="1.75" style="stroke:#181818;stroke-width:0.3499999999999999;" width="95.2" x="144.2" y="239.1881"/><text fill="#000000" font-family="sans-serif" font-size="9.8" lengthAdjust="spacing" textLength="64.4" x="159.6" y="254.6633">&#171;system (C4)&#187;</text><text fill="#000000" font-family="sans-serif" font-size="9.8" lengthAdjust="spacing" textLength="82.6" x="151.9" y="267.698">Healthcare System</text><rect fill="#FFFFFF" height="21.9037" style="stroke:#181818;stroke-width:0.6999999999999998;" width="7" x="36.4" y="131.477"/><rect fill="#FFFFFF" height="21.9037" style="stroke:#181818;stroke-width:0.6999999999999998;" width="7" x="188.3" y="109.5732"/><rect fill="#FFFFFF" height="73.9074" style="stroke:#181818;stroke-width:0.6999999999999998;" width="7" x="188.3" y="153.3807"/><rect fill="#FFFFFF" height="19.6" style="stroke:#181818;stroke-width:0.6999999999999998;" width="7" x="191.8" y="180.8844"/><polygon fill="#181818" points="179.9,106.7732,186.9,109.5732,179.9,112.3732,182.7,109.5732" style="stroke:#181818;stroke-width:0.6999999999999998;"/><line style="stroke:#181818;stroke-width:0.6999999999999998;" x1="39.9" x2="184.1" y1="109.5732" y2="109.5732"/><text fill="#000000" font-family="sans-serif" font-size="9.1" font-weight="bold" lengthAdjust="spacing" textLength="4.9" x="44.8" y="105.8894">1</text><text fill="#000000" font-family="sans-serif" font-size="9.1" lengthAdjust="spacing" textLength="108.5" x="52.5" y="105.8894">wants to login into account</text><polygon fill="#181818" points="51.1,128.677,44.1,131.477,51.1,134.277,48.3,131.477" style="stroke:#181818;stroke-width:0.6999999999999998;"/><line style="stroke:#181818;stroke-width:0.6999999999999998;stroke-dasharray:2.0,2.0;" x1="46.9" x2="191.1" y1="131.477" y2="131.477"/><text fill="#000000" font-family="sans-serif" font-size="9.1" font-weight="bold" lengthAdjust="spacing" textLength="4.9" x="55.3" y="127.7931">2</text><text fill="#000000" font-family="sans-serif" font-size="9.1" lengthAdjust="spacing" textLength="94.5" x="63" y="127.7931">asks for the credentials</text><polygon fill="#181818" points="179.9,150.5807,186.9,153.3807,179.9,156.1807,182.7,153.3807" style="stroke:#181818;stroke-width:0.6999999999999998;"/><line style="stroke:#181818;stroke-width:0.6999999999999998;" x1="39.9" x2="184.1" y1="153.3807" y2="153.3807"/><text fill="#000000" font-family="sans-serif" font-size="9.1" font-weight="bold" lengthAdjust="spacing" textLength="4.9" x="44.8" y="149.6968">3</text><text fill="#000000" font-family="sans-serif" font-size="9.1" lengthAdjust="spacing" textLength="95.2" x="52.5" y="149.6968">provides the credentials</text><line style="stroke:#181818;stroke-width:0.6999999999999998;" x1="198.8" x2="228.2" y1="175.2844" y2="175.2844"/><line style="stroke:#181818;stroke-width:0.6999999999999998;" x1="228.2" x2="228.2" y1="175.2844" y2="184.3844"/><line style="stroke:#181818;stroke-width:0.6999999999999998;" x1="199.5" x2="228.2" y1="184.3844" y2="184.3844"/><polygon fill="#181818" points="206.5,181.5844,199.5,184.3844,206.5,187.1844,203.7,184.3844" style="stroke:#181818;stroke-width:0.6999999999999998;"/><text fill="#000000" font-family="sans-serif" font-size="9.1" font-weight="bold" lengthAdjust="spacing" textLength="4.9" x="203.7" y="171.6005">4</text><text fill="#000000" font-family="sans-serif" font-size="9.1" lengthAdjust="spacing" textLength="55.3" x="211.4" y="171.6005">validates user</text><polygon fill="#181818" points="47.6,224.4881,40.6,227.2881,47.6,230.0881,44.8,227.2881" style="stroke:#181818;stroke-width:0.6999999999999998;"/><line style="stroke:#181818;stroke-width:0.6999999999999998;stroke-dasharray:2.0,2.0;" x1="43.4" x2="191.1" y1="227.2881" y2="227.2881"/><text fill="#000000" font-family="sans-serif" font-size="9.1" font-weight="bold" lengthAdjust="spacing" textLength="4.9" x="51.8" y="223.6042">5</text><text fill="#000000" font-family="sans-serif" font-size="9.1" lengthAdjust="spacing" textLength="123.9" x="59.5" y="223.6042">provides access to the system</text><!--SRC=[VP6nQiD038RtUmhXfSaGcvRGmGH3agNG3WMJGg6BUfRZ8-SxzoGxzErxTcWWfdIJaBvVlwIxHgJZFCiwYqxwrgRQjndJLqzEqweoU0pOAYL6B45oAE4nVKZNy1gy9cPuCtI6nGiDPE5-cIY5lNZNjvyKOgp51qXsg4- -heqcE325191Xjzq_gmw366swE1cIpOQ_MQY5nNwzB8eF1q-4LXgDWQ2SIXDPlfTAZJYiYZ617CvHW44yM7yq3eoB8MhjUoUZ1pEWq8KR-rUHc_WyofqOwkXH6W8Tg28d1YshYcwuQpBPdatlWXzCHVoVoCJzOULNOq1hgbXYwEE5RZjdNkOxNCV7ZSUFnDr78vTZpk4V]--></g></svg>