<?xml version="1.0" encoding="us-ascii" standalone="no"?><svg xmlns="http://www.w3.org/2000/svg" xmlns:xlink="http://www.w3.org/1999/xlink" contentStyleType="text/css" height="1262px" preserveAspectRatio="none" style="width:1740px;height:1262px;background:#FFFFFF;" version="1.1" viewBox="0 0 1740 1262" width="1740px" zoomAndPan="magnify"><defs/><g><text fill="#000000" font-family="sans-serif" font-size="14" font-weight="bold" lengthAdjust="spacing" textLength="230" x="756.5" y="30.1074">US 5.1.17. Process View (Level 3)</text><rect fill="#FFFFFF" height="638.8496" style="stroke:#181818;stroke-width:1.0;" width="10" x="161" y="130.1543"/><rect fill="#FFFFFF" height="355.4922" style="stroke:#181818;stroke-width:1.0;" width="10" x="161" y="825.2949"/><rect fill="#FFFFFF" height="576.2676" style="stroke:#181818;stroke-width:1.0;" width="10" x="432" y="161.4453"/><rect fill="#FFFFFF" height="28" style="stroke:#181818;stroke-width:1.0;" width="10" x="437" y="671.4219"/><rect fill="#FFFFFF" height="218.6973" style="stroke:#181818;stroke-width:1.0;" width="10" x="432" y="856.5859"/><rect fill="#FFFFFF" height="218.6973" style="stroke:#181818;stroke-width:1.0;" width="10" x="654" y="192.7363"/><rect fill="#FFFFFF" height="31.291" style="stroke:#181818;stroke-width:1.0;" width="10" x="826" y="286.6094"/><rect fill="#FFFFFF" height="31.291" style="stroke:#181818;stroke-width:1.0;" width="10" x="1058" y="224.0273"/><rect fill="#FFFFFF" height="189.4063" style="stroke:#181818;stroke-width:1.0;" width="10" x="1236" y="442.7246"/><rect fill="#FFFFFF" height="93.873" style="stroke:#181818;stroke-width:1.0;" width="10" x="1236" y="950.1191"/><rect fill="#FFFFFF" height="31.291" style="stroke:#181818;stroke-width:1.0;" width="10" x="1444" y="474.0156"/><rect fill="#FFFFFF" height="31.291" style="stroke:#181818;stroke-width:1.0;" width="10" x="1444" y="981.4102"/><rect fill="none" height="81.5332" style="stroke:#000000;stroke-width:1.5;" width="593.5" x="1140.5" y="520.3066"/><rect fill="none" height="98.5039" style="stroke:#000000;stroke-width:1.5;" width="198.5" x="11" y="1090.2832"/><line style="stroke:#181818;stroke-width:0.5;stroke-dasharray:5.0,5.0;" x1="165.5" x2="165.5" y1="96.8633" y2="1205.7871"/><line style="stroke:#181818;stroke-width:0.5;stroke-dasharray:5.0,5.0;" x1="437" x2="437" y1="96.8633" y2="1205.7871"/><line style="stroke:#181818;stroke-width:0.5;stroke-dasharray:5.0,5.0;" x1="659" x2="659" y1="96.8633" y2="1205.7871"/><line style="stroke:#181818;stroke-width:0.5;stroke-dasharray:5.0,5.0;" x1="830.5" x2="830.5" y1="96.8633" y2="1205.7871"/><line style="stroke:#181818;stroke-width:0.5;stroke-dasharray:5.0,5.0;" x1="936.5" x2="936.5" y1="367.0215" y2="1205.7871"/><line style="stroke:#181818;stroke-width:0.5;stroke-dasharray:5.0,5.0;" x1="1062.5" x2="1062.5" y1="96.8633" y2="1205.7871"/><line style="stroke:#181818;stroke-width:0.5;stroke-dasharray:5.0,5.0;" x1="1240.5" x2="1240.5" y1="96.8633" y2="1205.7871"/><line style="stroke:#181818;stroke-width:0.5;stroke-dasharray:5.0,5.0;" x1="1449" x2="1449" y1="96.8633" y2="1205.7871"/><line style="stroke:#181818;stroke-width:0.5;stroke-dasharray:5.0,5.0;" x1="1642" x2="1642" y1="905.707" y2="1205.7871"/><rect fill="#E2E2F0" height="51.2422" rx="2.5" ry="2.5" style="stroke:#181818;stroke-width:0.5;" width="67" x="132.5" y="44.6211"/><text fill="#000000" font-family="sans-serif" font-size="14" lengthAdjust="spacing" textLength="49" x="141.5" y="66.7285">&#171;route&#187;</text><text fill="#000000" font-family="sans-serif" font-size="14" lengthAdjust="spacing" textLength="49" x="143.5" y="85.3496">Routing</text><rect fill="#E2E2F0" height="51.2422" rx="2.5" ry="2.5" style="stroke:#181818;stroke-width:0.5;" width="67" x="132.5" y="1204.7871"/><text fill="#000000" font-family="sans-serif" font-size="14" lengthAdjust="spacing" textLength="49" x="141.5" y="1226.8945">&#171;route&#187;</text><text fill="#000000" font-family="sans-serif" font-size="14" lengthAdjust="spacing" textLength="49" x="143.5" y="1245.5156">Routing</text><rect fill="#E2E2F0" height="51.2422" rx="2.5" ry="2.5" style="stroke:#181818;stroke-width:0.5;" width="196" x="339" y="44.6211"/><text fill="#000000" font-family="sans-serif" font-size="14" lengthAdjust="spacing" textLength="75" x="399.5" y="66.7285">&#171;controller&#187;</text><text fill="#000000" font-family="sans-serif" font-size="14" lengthAdjust="spacing" textLength="178" x="350" y="85.3496">OperationRequestController</text><rect fill="#E2E2F0" height="51.2422" rx="2.5" ry="2.5" style="stroke:#181818;stroke-width:0.5;" width="196" x="339" y="1204.7871"/><text fill="#000000" font-family="sans-serif" font-size="14" lengthAdjust="spacing" textLength="75" x="399.5" y="1226.8945">&#171;controller&#187;</text><text fill="#000000" font-family="sans-serif" font-size="14" lengthAdjust="spacing" textLength="178" x="350" y="1245.5156">OperationRequestController</text><rect fill="#E2E2F0" height="51.2422" rx="2.5" ry="2.5" style="stroke:#181818;stroke-width:0.5;" width="94" x="612" y="44.6211"/><text fill="#000000" font-family="sans-serif" font-size="14" lengthAdjust="spacing" textLength="61" x="628.5" y="66.7285">&#171;service&#187;</text><text fill="#000000" font-family="sans-serif" font-size="14" lengthAdjust="spacing" textLength="76" x="623" y="85.3496">StaffService</text><rect fill="#E2E2F0" height="51.2422" rx="2.5" ry="2.5" style="stroke:#181818;stroke-width:0.5;" width="94" x="612" y="1204.7871"/><text fill="#000000" font-family="sans-serif" font-size="14" lengthAdjust="spacing" textLength="61" x="628.5" y="1226.8945">&#171;service&#187;</text><text fill="#000000" font-family="sans-serif" font-size="14" lengthAdjust="spacing" textLength="76" x="623" y="1245.5156">StaffService</text><rect fill="#E2E2F0" height="51.2422" rx="2.5" ry="2.5" style="stroke:#181818;stroke-width:0.5;" width="115" x="773.5" y="44.6211"/><text fill="#000000" font-family="sans-serif" font-size="14" lengthAdjust="spacing" textLength="79" x="791.5" y="66.7285">&#171;repository&#187;</text><text fill="#000000" font-family="sans-serif" font-size="14" lengthAdjust="spacing" textLength="97" x="784.5" y="85.3496">StaffRepository</text><rect fill="#E2E2F0" height="51.2422" rx="2.5" ry="2.5" style="stroke:#181818;stroke-width:0.5;" width="115" x="773.5" y="1204.7871"/><text fill="#000000" font-family="sans-serif" font-size="14" lengthAdjust="spacing" textLength="79" x="791.5" y="1226.8945">&#171;repository&#187;</text><text fill="#000000" font-family="sans-serif" font-size="14" lengthAdjust="spacing" textLength="97" x="784.5" y="1245.5156">StaffRepository</text><rect fill="#E2E2F0" height="51.2422" rx="2.5" ry="2.5" style="stroke:#181818;stroke-width:0.5;" width="77" x="898.5" y="1204.7871"/><text fill="#000000" font-family="sans-serif" font-size="14" lengthAdjust="spacing" textLength="36" x="919" y="1226.8945">&#171;dto&#187;</text><text fill="#000000" font-family="sans-serif" font-size="14" lengthAdjust="spacing" textLength="59" x="909.5" y="1245.5156">StaffDTO</text><rect fill="#E2E2F0" height="51.2422" rx="2.5" ry="2.5" style="stroke:#181818;stroke-width:0.5;" width="155" x="985.5" y="44.6211"/><text fill="#000000" font-family="sans-serif" font-size="14" lengthAdjust="spacing" textLength="61" x="1032.5" y="66.7285">&#171;service&#187;</text><text fill="#000000" font-family="sans-serif" font-size="14" lengthAdjust="spacing" textLength="137" x="996.5" y="85.3496">AuthenticationService</text><rect fill="#E2E2F0" height="51.2422" rx="2.5" ry="2.5" style="stroke:#181818;stroke-width:0.5;" width="155" x="985.5" y="1204.7871"/><text fill="#000000" font-family="sans-serif" font-size="14" lengthAdjust="spacing" textLength="61" x="1032.5" y="1226.8945">&#171;service&#187;</text><text fill="#000000" font-family="sans-serif" font-size="14" lengthAdjust="spacing" textLength="137" x="996.5" y="1245.5156">AuthenticationService</text><rect fill="#E2E2F0" height="51.2422" rx="2.5" ry="2.5" style="stroke:#181818;stroke-width:0.5;" width="181" x="1150.5" y="44.6211"/><text fill="#000000" font-family="sans-serif" font-size="14" lengthAdjust="spacing" textLength="61" x="1210.5" y="66.7285">&#171;service&#187;</text><text fill="#000000" font-family="sans-serif" font-size="14" lengthAdjust="spacing" textLength="163" x="1161.5" y="85.3496">OperationRequestService</text><rect fill="#E2E2F0" height="51.2422" rx="2.5" ry="2.5" style="stroke:#181818;stroke-width:0.5;" width="181" x="1150.5" y="1204.7871"/><text fill="#000000" font-family="sans-serif" font-size="14" lengthAdjust="spacing" textLength="61" x="1210.5" y="1226.8945">&#171;service&#187;</text><text fill="#000000" font-family="sans-serif" font-size="14" lengthAdjust="spacing" textLength="163" x="1161.5" y="1245.5156">OperationRequestService</text><rect fill="#E2E2F0" height="51.2422" rx="2.5" ry="2.5" style="stroke:#181818;stroke-width:0.5;" width="202" x="1348" y="44.6211"/><text fill="#000000" font-family="sans-serif" font-size="14" lengthAdjust="spacing" textLength="79" x="1409.5" y="66.7285">&#171;repository&#187;</text><text fill="#000000" font-family="sans-serif" font-size="14" lengthAdjust="spacing" textLength="184" x="1359" y="85.3496">OperationRequestRepository</text><rect fill="#E2E2F0" height="51.2422" rx="2.5" ry="2.5" style="stroke:#181818;stroke-width:0.5;" width="202" x="1348" y="1204.7871"/><text fill="#000000" font-family="sans-serif" font-size="14" lengthAdjust="spacing" textLength="79" x="1409.5" y="1226.8945">&#171;repository&#187;</text><text fill="#000000" font-family="sans-serif" font-size="14" lengthAdjust="spacing" textLength="184" x="1359" y="1245.5156">OperationRequestRepository</text><rect fill="#E2E2F0" height="51.2422" rx="2.5" ry="2.5" style="stroke:#181818;stroke-width:0.5;" width="164" x="1560" y="1204.7871"/><text fill="#000000" font-family="sans-serif" font-size="14" lengthAdjust="spacing" textLength="36" x="1624" y="1226.8945">&#171;dto&#187;</text><text fill="#000000" font-family="sans-serif" font-size="14" lengthAdjust="spacing" textLength="146" x="1571" y="1245.5156">OperationRequestDTO</text><rect fill="#FFFFFF" height="638.8496" style="stroke:#181818;stroke-width:1.0;" width="10" x="161" y="130.1543"/><rect fill="#FFFFFF" height="355.4922" style="stroke:#181818;stroke-width:1.0;" width="10" x="161" y="825.2949"/><rect fill="#FFFFFF" height="576.2676" style="stroke:#181818;stroke-width:1.0;" width="10" x="432" y="161.4453"/><rect fill="#FFFFFF" height="28" style="stroke:#181818;stroke-width:1.0;" width="10" x="437" y="671.4219"/><rect fill="#FFFFFF" height="218.6973" style="stroke:#181818;stroke-width:1.0;" width="10" x="432" y="856.5859"/><rect fill="#FFFFFF" height="218.6973" style="stroke:#181818;stroke-width:1.0;" width="10" x="654" y="192.7363"/><rect fill="#FFFFFF" height="31.291" style="stroke:#181818;stroke-width:1.0;" width="10" x="826" y="286.6094"/><rect fill="#FFFFFF" height="31.291" style="stroke:#181818;stroke-width:1.0;" width="10" x="1058" y="224.0273"/><rect fill="#FFFFFF" height="189.4063" style="stroke:#181818;stroke-width:1.0;" width="10" x="1236" y="442.7246"/><rect fill="#FFFFFF" height="93.873" style="stroke:#181818;stroke-width:1.0;" width="10" x="1236" y="950.1191"/><rect fill="#FFFFFF" height="31.291" style="stroke:#181818;stroke-width:1.0;" width="10" x="1444" y="474.0156"/><rect fill="#FFFFFF" height="31.291" style="stroke:#181818;stroke-width:1.0;" width="10" x="1444" y="981.4102"/><ellipse cx="7.5" cy="129.4043" fill="none" rx="4" ry="4" style="stroke:#181818;stroke-width:1.5;"/><polygon fill="#181818" points="149,126.1543,159,130.1543,149,134.1543,153,130.1543" style="stroke:#181818;stroke-width:1.0;"/><line style="stroke:#181818;stroke-width:1.0;" x1="12" x2="155" y1="130.1543" y2="130.1543"/><text fill="#000000" font-family="sans-serif" font-size="13" font-weight="bold" lengthAdjust="spacing" textLength="7" x="15" y="124.8916">1</text><text fill="#000000" font-family="sans-serif" font-size="13" lengthAdjust="spacing" textLength="34" x="26" y="124.8916">GET()</text><polygon fill="#181818" points="420,157.4453,430,161.4453,420,165.4453,424,161.4453" style="stroke:#181818;stroke-width:1.0;"/><line style="stroke:#181818;stroke-width:1.0;" x1="171" x2="426" y1="161.4453" y2="161.4453"/><text fill="#000000" font-family="sans-serif" font-size="13" font-weight="bold" lengthAdjust="spacing" textLength="7" x="178" y="156.1826">2</text><text fill="#000000" font-family="sans-serif" font-size="13" lengthAdjust="spacing" textLength="191" x="189" y="156.1826">getOperationRequestsByDoctor()</text><polygon fill="#181818" points="642,188.7363,652,192.7363,642,196.7363,646,192.7363" style="stroke:#181818;stroke-width:1.0;"/><line style="stroke:#181818;stroke-width:1.0;" x1="442" x2="648" y1="192.7363" y2="192.7363"/><text fill="#000000" font-family="sans-serif" font-size="13" font-weight="bold" lengthAdjust="spacing" textLength="7" x="449" y="187.4736">3</text><text fill="#000000" font-family="sans-serif" font-size="13" lengthAdjust="spacing" textLength="155" x="460" y="187.4736">findCurrentSessionDoctor()</text><polygon fill="#181818" points="1046,220.0273,1056,224.0273,1046,228.0273,1050,224.0273" style="stroke:#181818;stroke-width:1.0;"/><line style="stroke:#181818;stroke-width:1.0;" x1="664" x2="1052" y1="224.0273" y2="224.0273"/><text fill="#000000" font-family="sans-serif" font-size="13" font-weight="bold" lengthAdjust="spacing" textLength="7" x="671" y="218.7646">4</text><text fill="#000000" font-family="sans-serif" font-size="13" lengthAdjust="spacing" textLength="100" x="682" y="218.7646">getSessionUser()</text><polygon fill="#181818" points="675,251.3184,665,255.3184,675,259.3184,671,255.3184" style="stroke:#181818;stroke-width:1.0;"/><line style="stroke:#181818;stroke-width:1.0;stroke-dasharray:2.0,2.0;" x1="669" x2="1062" y1="255.3184" y2="255.3184"/><text fill="#000000" font-family="sans-serif" font-size="13" font-weight="bold" lengthAdjust="spacing" textLength="7" x="681" y="250.0557">5</text><text fill="#000000" font-family="sans-serif" font-size="13" lengthAdjust="spacing" textLength="25" x="692" y="250.0557">user</text><polygon fill="#181818" points="814,282.6094,824,286.6094,814,290.6094,818,286.6094" style="stroke:#181818;stroke-width:1.0;"/><line style="stroke:#181818;stroke-width:1.0;" x1="664" x2="820" y1="286.6094" y2="286.6094"/><text fill="#000000" font-family="sans-serif" font-size="13" font-weight="bold" lengthAdjust="spacing" textLength="7" x="671" y="281.3467">6</text><text fill="#000000" font-family="sans-serif" font-size="13" lengthAdjust="spacing" textLength="132" x="682" y="281.3467">getDoctorByUser(user)</text><polygon fill="#181818" points="675,313.9004,665,317.9004,675,321.9004,671,317.9004" style="stroke:#181818;stroke-width:1.0;"/><line style="stroke:#181818;stroke-width:1.0;stroke-dasharray:2.0,2.0;" x1="669" x2="830" y1="317.9004" y2="317.9004"/><text fill="#000000" font-family="sans-serif" font-size="13" font-weight="bold" lengthAdjust="spacing" textLength="7" x="681" y="312.6377">7</text><text fill="#000000" font-family="sans-serif" font-size="13" lengthAdjust="spacing" textLength="36" x="692" y="312.6377">doctor</text><polygon fill="#181818" points="886.5,345.1914,896.5,349.1914,886.5,353.1914,890.5,349.1914" style="stroke:#181818;stroke-width:1.0;"/><line style="stroke:#181818;stroke-width:1.0;stroke-dasharray:2.0,2.0;" x1="664" x2="892.5" y1="349.1914" y2="349.1914"/><text fill="#000000" font-family="sans-serif" font-size="13" font-weight="bold" lengthAdjust="spacing" textLength="7" x="671" y="343.9287">8</text><text fill="#000000" font-family="sans-serif" font-size="13" lengthAdjust="spacing" textLength="81" x="682" y="343.9287">toDTO(doctor)</text><rect fill="#E2E2F0" height="51.2422" rx="2.5" ry="2.5" style="stroke:#181818;stroke-width:0.5;" width="77" x="898.5" y="325.9004"/><text fill="#000000" font-family="sans-serif" font-size="14" lengthAdjust="spacing" textLength="36" x="919" y="348.0078">&#171;dto&#187;</text><text fill="#000000" font-family="sans-serif" font-size="14" lengthAdjust="spacing" textLength="59" x="909.5" y="366.6289">StaffDTO</text><polygon fill="#181818" points="453,407.4336,443,411.4336,453,415.4336,449,411.4336" style="stroke:#181818;stroke-width:1.0;"/><line style="stroke:#181818;stroke-width:1.0;stroke-dasharray:2.0,2.0;" x1="447" x2="658" y1="411.4336" y2="411.4336"/><text fill="#000000" font-family="sans-serif" font-size="13" font-weight="bold" lengthAdjust="spacing" textLength="7" x="459" y="406.1709">9</text><text fill="#000000" font-family="sans-serif" font-size="13" lengthAdjust="spacing" textLength="62" x="470" y="406.1709">doctorDTO</text><polygon fill="#181818" points="1224,438.7246,1234,442.7246,1224,446.7246,1228,442.7246" style="stroke:#181818;stroke-width:1.0;"/><line style="stroke:#181818;stroke-width:1.0;" x1="442" x2="1230" y1="442.7246" y2="442.7246"/><text fill="#000000" font-family="sans-serif" font-size="13" font-weight="bold" lengthAdjust="spacing" textLength="14" x="449" y="437.4619">10</text><text fill="#000000" font-family="sans-serif" font-size="13" lengthAdjust="spacing" textLength="253" x="467" y="437.4619">getOperationRequestsByDoctor(doctorDTO)</text><polygon fill="#181818" points="1432,470.0156,1442,474.0156,1432,478.0156,1436,474.0156" style="stroke:#181818;stroke-width:1.0;"/><line style="stroke:#181818;stroke-width:1.0;" x1="1246" x2="1438" y1="474.0156" y2="474.0156"/><text fill="#000000" font-family="sans-serif" font-size="13" font-weight="bold" lengthAdjust="spacing" textLength="14" x="1253" y="468.7529">11</text><text fill="#000000" font-family="sans-serif" font-size="13" lengthAdjust="spacing" textLength="159" x="1271" y="468.7529">findAllByDoctor(doctorDTO)</text><polygon fill="#181818" points="1257,501.3066,1247,505.3066,1257,509.3066,1253,505.3066" style="stroke:#181818;stroke-width:1.0;"/><line style="stroke:#181818;stroke-width:1.0;stroke-dasharray:2.0,2.0;" x1="1251" x2="1448" y1="505.3066" y2="505.3066"/><text fill="#000000" font-family="sans-serif" font-size="13" font-weight="bold" lengthAdjust="spacing" textLength="14" x="1263" y="500.0439">12</text><text fill="#000000" font-family="sans-serif" font-size="13" lengthAdjust="spacing" textLength="122" x="1281" y="500.0439">operationRequestList</text><path d="M1140.5,520.3066 L1213.5,520.3066 L1213.5,529.5977 L1203.5,539.5977 L1140.5,539.5977 L1140.5,520.3066 " fill="#EEEEEE" style="stroke:#000000;stroke-width:1.5;"/><rect fill="none" height="81.5332" style="stroke:#000000;stroke-width:1.5;" width="593.5" x="1140.5" y="520.3066"/><text fill="#000000" font-family="sans-serif" font-size="13" font-weight="bold" lengthAdjust="spacing" textLength="28" x="1155.5" y="535.335">loop</text><text fill="#000000" font-family="sans-serif" font-size="11" font-weight="bold" lengthAdjust="spacing" textLength="170" x="1228.5" y="534.1768">[for all the elements in the list]</text><polygon fill="#181818" points="1548,558.8887,1558,562.8887,1548,566.8887,1552,562.8887" style="stroke:#181818;stroke-width:1.0;"/><line style="stroke:#181818;stroke-width:1.0;" x1="1246" x2="1554" y1="562.8887" y2="562.8887"/><text fill="#000000" font-family="sans-serif" font-size="13" font-weight="bold" lengthAdjust="spacing" textLength="14" x="1253" y="557.626">13</text><text fill="#000000" font-family="sans-serif" font-size="13" lengthAdjust="spacing" textLength="146" x="1271" y="557.626">toDTO(operationRequest)</text><rect fill="#E2E2F0" height="51.2422" rx="2.5" ry="2.5" style="stroke:#181818;stroke-width:0.5;" width="164" x="1560" y="539.5977"/><text fill="#000000" font-family="sans-serif" font-size="14" lengthAdjust="spacing" textLength="36" x="1624" y="561.7051">&#171;dto&#187;</text><text fill="#000000" font-family="sans-serif" font-size="14" lengthAdjust="spacing" textLength="146" x="1571" y="580.3262">OperationRequestDTO</text><polygon fill="#181818" points="453,628.1309,443,632.1309,453,636.1309,449,632.1309" style="stroke:#181818;stroke-width:1.0;"/><line style="stroke:#181818;stroke-width:1.0;stroke-dasharray:2.0,2.0;" x1="447" x2="1240" y1="632.1309" y2="632.1309"/><text fill="#000000" font-family="sans-serif" font-size="13" font-weight="bold" lengthAdjust="spacing" textLength="14" x="459" y="626.8682">14</text><text fill="#000000" font-family="sans-serif" font-size="13" lengthAdjust="spacing" textLength="148" x="477" y="626.8682">operationRequestDTOList</text><line style="stroke:#181818;stroke-width:1.0;" x1="447" x2="489" y1="663.4219" y2="663.4219"/><line style="stroke:#181818;stroke-width:1.0;" x1="489" x2="489" y1="663.4219" y2="676.4219"/><line style="stroke:#181818;stroke-width:1.0;" x1="448" x2="489" y1="676.4219" y2="676.4219"/><polygon fill="#181818" points="458,672.4219,448,676.4219,458,680.4219,454,676.4219" style="stroke:#181818;stroke-width:1.0;"/><text fill="#000000" font-family="sans-serif" font-size="13" font-weight="bold" lengthAdjust="spacing" textLength="14" x="454" y="658.1592">15</text><text fill="#000000" font-family="sans-serif" font-size="13" lengthAdjust="spacing" textLength="180" x="472" y="658.1592">json(operationRequestDTOList)</text><polygon fill="#181818" points="182,733.7129,172,737.7129,182,741.7129,178,737.7129" style="stroke:#181818;stroke-width:1.0;"/><line style="stroke:#181818;stroke-width:1.0;stroke-dasharray:2.0,2.0;" x1="176" x2="436" y1="737.7129" y2="737.7129"/><text fill="#000000" font-family="sans-serif" font-size="13" font-weight="bold" lengthAdjust="spacing" textLength="14" x="188" y="732.4502">16</text><text fill="#000000" font-family="sans-serif" font-size="13" lengthAdjust="spacing" textLength="24" x="206" y="732.4502">json</text><ellipse cx="7.5" cy="768.2539" fill="none" rx="4" ry="4" style="stroke:#181818;stroke-width:1.5;"/><polygon fill="#181818" points="24.5,765.0039,14.5,769.0039,24.5,773.0039,20.5,769.0039" style="stroke:#181818;stroke-width:1.0;"/><line style="stroke:#181818;stroke-width:1.0;" x1="22.5" x2="165" y1="769.0039" y2="769.0039"/><text fill="#000000" font-family="sans-serif" font-size="13" font-weight="bold" lengthAdjust="spacing" textLength="14" x="25" y="763.7412">17</text><text fill="#000000" font-family="sans-serif" font-size="13" lengthAdjust="spacing" textLength="46" x="43" y="763.7412">ok(json)</text><ellipse cx="7.5" cy="824.5449" fill="none" rx="4" ry="4" style="stroke:#181818;stroke-width:1.5;"/><polygon fill="#181818" points="149,821.2949,159,825.2949,149,829.2949,153,825.2949" style="stroke:#181818;stroke-width:1.0;"/><line style="stroke:#181818;stroke-width:1.0;" x1="12" x2="155" y1="825.2949" y2="825.2949"/><text fill="#000000" font-family="sans-serif" font-size="13" font-weight="bold" lengthAdjust="spacing" textLength="14" x="15" y="820.0322">18</text><text fill="#000000" font-family="sans-serif" font-size="13" lengthAdjust="spacing" textLength="116" x="33" y="820.0322">POST(updatedData)</text><polygon fill="#181818" points="420,852.5859,430,856.5859,420,860.5859,424,856.5859" style="stroke:#181818;stroke-width:1.0;"/><line style="stroke:#181818;stroke-width:1.0;" x1="171" x2="426" y1="856.5859" y2="856.5859"/><text fill="#000000" font-family="sans-serif" font-size="13" font-weight="bold" lengthAdjust="spacing" textLength="14" x="178" y="851.3232">19</text><text fill="#000000" font-family="sans-serif" font-size="13" lengthAdjust="spacing" textLength="224" x="196" y="851.3232">updateOperationRequest(updatedData)</text><polygon fill="#181818" points="1548,883.877,1558,887.877,1548,891.877,1552,887.877" style="stroke:#181818;stroke-width:1.0;"/><line style="stroke:#181818;stroke-width:1.0;" x1="442" x2="1554" y1="887.877" y2="887.877"/><text fill="#000000" font-family="sans-serif" font-size="13" font-weight="bold" lengthAdjust="spacing" textLength="14" x="449" y="882.6143">20</text><text fill="#000000" font-family="sans-serif" font-size="13" lengthAdjust="spacing" textLength="118" x="467" y="882.6143">toDTO(updatedData)</text><rect fill="#E2E2F0" height="51.2422" rx="2.5" ry="2.5" style="stroke:#181818;stroke-width:0.5;" width="164" x="1560" y="864.5859"/><text fill="#000000" font-family="sans-serif" font-size="14" lengthAdjust="spacing" textLength="36" x="1624" y="886.6934">&#171;dto&#187;</text><text fill="#000000" font-family="sans-serif" font-size="14" lengthAdjust="spacing" textLength="146" x="1571" y="905.3145">OperationRequestDTO</text><polygon fill="#181818" points="1224,946.1191,1234,950.1191,1224,954.1191,1228,950.1191" style="stroke:#181818;stroke-width:1.0;"/><line style="stroke:#181818;stroke-width:1.0;" x1="442" x2="1230" y1="950.1191" y2="950.1191"/><text fill="#000000" font-family="sans-serif" font-size="13" font-weight="bold" lengthAdjust="spacing" textLength="14" x="449" y="944.8564">21</text><text fill="#000000" font-family="sans-serif" font-size="13" lengthAdjust="spacing" textLength="278" x="467" y="944.8564">updateOperationRequest(operationRequestDTO)</text><polygon fill="#181818" points="1432,977.4102,1442,981.4102,1432,985.4102,1436,981.4102" style="stroke:#181818;stroke-width:1.0;"/><line style="stroke:#181818;stroke-width:1.0;" x1="1246" x2="1438" y1="981.4102" y2="981.4102"/><text fill="#000000" font-family="sans-serif" font-size="13" font-weight="bold" lengthAdjust="spacing" textLength="14" x="1253" y="976.1475">22</text><text fill="#000000" font-family="sans-serif" font-size="13" lengthAdjust="spacing" textLength="161" x="1271" y="976.1475">save(operationRequestDTO)</text><polygon fill="#181818" points="1257,1008.7012,1247,1012.7012,1257,1016.7012,1253,1012.7012" style="stroke:#181818;stroke-width:1.0;"/><line style="stroke:#181818;stroke-width:1.0;stroke-dasharray:2.0,2.0;" x1="1251" x2="1448" y1="1012.7012" y2="1012.7012"/><text fill="#000000" font-family="sans-serif" font-size="13" font-weight="bold" lengthAdjust="spacing" textLength="14" x="1263" y="1007.4385">23</text><text fill="#000000" font-family="sans-serif" font-size="13" lengthAdjust="spacing" textLength="33" x="1281" y="1007.4385">return</text><polygon fill="#181818" points="453,1039.9922,443,1043.9922,453,1047.9922,449,1043.9922" style="stroke:#181818;stroke-width:1.0;"/><line style="stroke:#181818;stroke-width:1.0;stroke-dasharray:2.0,2.0;" x1="447" x2="1240" y1="1043.9922" y2="1043.9922"/><text fill="#000000" font-family="sans-serif" font-size="13" font-weight="bold" lengthAdjust="spacing" textLength="14" x="459" y="1038.7295">24</text><text fill="#000000" font-family="sans-serif" font-size="13" lengthAdjust="spacing" textLength="33" x="477" y="1038.7295">return</text><polygon fill="#181818" points="182,1071.2832,172,1075.2832,182,1079.2832,178,1075.2832" style="stroke:#181818;stroke-width:1.0;"/><line style="stroke:#181818;stroke-width:1.0;stroke-dasharray:2.0,2.0;" x1="176" x2="436" y1="1075.2832" y2="1075.2832"/><text fill="#000000" font-family="sans-serif" font-size="13" font-weight="bold" lengthAdjust="spacing" textLength="14" x="188" y="1070.0205">25</text><text fill="#000000" font-family="sans-serif" font-size="13" lengthAdjust="spacing" textLength="33" x="206" y="1070.0205">return</text><path d="M11,1090.2832 L72,1090.2832 L72,1099.5742 L62,1109.5742 L11,1109.5742 L11,1090.2832 " fill="#EEEEEE" style="stroke:#000000;stroke-width:1.5;"/><rect fill="none" height="98.5039" style="stroke:#000000;stroke-width:1.5;" width="198.5" x="11" y="1090.2832"/><text fill="#000000" font-family="sans-serif" font-size="13" font-weight="bold" lengthAdjust="spacing" textLength="16" x="26" y="1105.3115">alt</text><text fill="#000000" font-family="sans-serif" font-size="11" font-weight="bold" lengthAdjust="spacing" textLength="55" x="87" y="1104.1533">[success]</text><ellipse cx="7.5" cy="1132.1152" fill="none" rx="4" ry="4" style="stroke:#181818;stroke-width:1.5;"/><polygon fill="#181818" points="24.5,1128.8652,14.5,1132.8652,24.5,1136.8652,20.5,1132.8652" style="stroke:#181818;stroke-width:1.0;"/><line style="stroke:#181818;stroke-width:1.0;stroke-dasharray:2.0,2.0;" x1="22.5" x2="160" y1="1132.8652" y2="1132.8652"/><text fill="#000000" font-family="sans-serif" font-size="13" font-weight="bold" lengthAdjust="spacing" textLength="14" x="25" y="1127.6025">26</text><text fill="#000000" font-family="sans-serif" font-size="13" lengthAdjust="spacing" textLength="44" x="43" y="1127.6025">200 OK</text><line style="stroke:#000000;stroke-width:1.0;stroke-dasharray:2.0,2.0;" x1="11" x2="209.5" y1="1141.8652" y2="1141.8652"/><text fill="#000000" font-family="sans-serif" font-size="11" font-weight="bold" lengthAdjust="spacing" textLength="43" x="16" y="1153.7354">[failure]</text><ellipse cx="7.5" cy="1180.0371" fill="none" rx="4" ry="4" style="stroke:#181818;stroke-width:1.5;"/><polygon fill="#181818" points="24.5,1176.7871,14.5,1180.7871,24.5,1184.7871,20.5,1180.7871" style="stroke:#181818;stroke-width:1.0;"/><line style="stroke:#181818;stroke-width:1.0;stroke-dasharray:2.0,2.0;" x1="22.5" x2="165" y1="1180.7871" y2="1180.7871"/><text fill="#000000" font-family="sans-serif" font-size="13" font-weight="bold" lengthAdjust="spacing" textLength="14" x="25" y="1175.5244">27</text><text fill="#000000" font-family="sans-serif" font-size="13" lengthAdjust="spacing" textLength="100" x="43" y="1175.5244">400 Bad Request</text><!--SRC=[bLPTRzem57tthx1u6LG2sdreKbLL0jfkqggbWx2NxiLBBjIRiJFROQhK7p_73h5nahPx8yavvvvxxx75cmUj2tK-dHQCS5tks2GJkwc2FoNm3COv9Lj9TWXfgXdWmNg5FqpE9cSV9_XEYWoKmjyf_CN3MzW3m-z60uH8gGKlTpz18bGGgMb62wED1nSNKfGQBYz_SBmqloZV3Z1HU9ciq-iOcWckfM0CfCKd1KYYgU3BofhIY-QpbLWaNzDbSjigg43kQUPAhZJPR5RkXIMjqjdDJVMYPHCAeQWMyj4JbyqxpwtUnTnS2q-wIXE7hX-UzJShzGDmyzNs6HgThTFFrkTpz7X2eK1ojxp-zefEOuseQIlpNDCn_z2_9Th-qRqONxgDutFywJeTZX39DDqJ3NKGaFjgOFLM3N0BEjPMyyShaHbleKAJWmFLg3HhDZeRolD5AQMPyyg4rwYrDNmiaASQdSCMd9sQlZOh2Cb-LGry77ae3GNbq44vAjSapDLpFkUFjc0b4JksUq6U5PVDhK1OEAPvjtLSySc98MfXVWuTVHH3_OeSe5foNC8r5soaYUDBcsqqWsPzbf7NEOZMywhMF6FiPHtNlQUE8tSYidPBbGxx2qIO40NU28a9OzYSP0mCTYPd2bDkdrd5RLkEvXnND1C7dkDA_QZXezcBzhdhTDhQX9VufGGVzkXq7B10kNtcWXDUoNQ2xyN5k469tyCAE0gHzMNmzFGKNHftoIeTbaLkGFaLqUHL5uZ3nqdhaUcwHRfsTSJk2tXFvOvH_sV85Td3QsHUohW4NKhUa-g-nFMGee05MsiJcYaZmZHMPLRzdR2vyC5uUtgAao_c2305U4CeAoMW2FFUOEOan_K4sXcgpeyfWT0_]--></g></svg>