<?xml version="1.0" encoding="us-ascii" standalone="no"?><svg xmlns="http://www.w3.org/2000/svg" xmlns:xlink="http://www.w3.org/1999/xlink" contentStyleType="text/css" height="1199px" preserveAspectRatio="none" style="width:1780px;height:1199px;background:#FFFFFF;" version="1.1" viewBox="0 0 1780 1199" width="1780px" zoomAndPan="magnify"><defs/><g><text fill="#000000" font-family="sans-serif" font-size="14" font-weight="bold" lengthAdjust="spacing" textLength="230" x="776.5" y="30.1074">US 5.1.17. Process View (Level 3)</text><rect fill="#FFFFFF" height="638.8496" style="stroke:#181818;stroke-width:1.0;" width="10" x="220" y="130.1543"/><rect fill="#FFFFFF" height="293.25" style="stroke:#181818;stroke-width:1.0;" width="10" x="220" y="825.2949"/><rect fill="#FFFFFF" height="576.2676" style="stroke:#181818;stroke-width:1.0;" width="10" x="467" y="161.4453"/><rect fill="#FFFFFF" height="28" style="stroke:#181818;stroke-width:1.0;" width="10" x="472" y="671.4219"/><rect fill="#FFFFFF" height="156.4551" style="stroke:#181818;stroke-width:1.0;" width="10" x="467" y="856.5859"/><rect fill="#FFFFFF" height="218.6973" style="stroke:#181818;stroke-width:1.0;" width="10" x="705" y="192.7363"/><rect fill="#FFFFFF" height="31.291" style="stroke:#181818;stroke-width:1.0;" width="10" x="877" y="286.6094"/><rect fill="#FFFFFF" height="31.291" style="stroke:#181818;stroke-width:1.0;" width="10" x="1078.5" y="224.0273"/><rect fill="#FFFFFF" height="189.4063" style="stroke:#181818;stroke-width:1.0;" width="10" x="1234.5" y="442.7246"/><rect fill="#FFFFFF" height="93.873" style="stroke:#181818;stroke-width:1.0;" width="10" x="1234.5" y="887.877"/><rect fill="#FFFFFF" height="31.291" style="stroke:#181818;stroke-width:1.0;" width="10" x="1458.5" y="474.0156"/><rect fill="#FFFFFF" height="31.291" style="stroke:#181818;stroke-width:1.0;" width="10" x="1458.5" y="919.168"/><rect fill="none" height="81.5332" style="stroke:#000000;stroke-width:1.5;" width="643.5" x="1130.5" y="520.3066"/><rect fill="none" height="98.5039" style="stroke:#000000;stroke-width:1.5;" width="257.5" x="11" y="1028.041"/><line style="stroke:#181818;stroke-width:0.5;stroke-dasharray:5.0,5.0;" x1="224.5" x2="224.5" y1="96.8633" y2="1143.5449"/><line style="stroke:#181818;stroke-width:0.5;stroke-dasharray:5.0,5.0;" x1="471.5" x2="471.5" y1="96.8633" y2="1143.5449"/><line style="stroke:#181818;stroke-width:0.5;stroke-dasharray:5.0,5.0;" x1="710" x2="710" y1="96.8633" y2="1143.5449"/><line style="stroke:#181818;stroke-width:0.5;stroke-dasharray:5.0,5.0;" x1="881.5" x2="881.5" y1="96.8633" y2="1143.5449"/><line style="stroke:#181818;stroke-width:0.5;stroke-dasharray:5.0,5.0;" x1="987.5" x2="987.5" y1="367.0215" y2="1143.5449"/><line style="stroke:#181818;stroke-width:0.5;stroke-dasharray:5.0,5.0;" x1="1083.5" x2="1083.5" y1="96.8633" y2="1143.5449"/><line style="stroke:#181818;stroke-width:0.5;stroke-dasharray:5.0,5.0;" x1="1239.5" x2="1239.5" y1="96.8633" y2="1143.5449"/><line style="stroke:#181818;stroke-width:0.5;stroke-dasharray:5.0,5.0;" x1="1463" x2="1463" y1="96.8633" y2="1143.5449"/><line style="stroke:#181818;stroke-width:0.5;stroke-dasharray:5.0,5.0;" x1="1673" x2="1673" y1="580.7188" y2="1143.5449"/><rect fill="#E2E2F0" height="51.2422" rx="2.5" ry="2.5" style="stroke:#181818;stroke-width:0.5;" width="67" x="191.5" y="44.6211"/><text fill="#000000" font-family="sans-serif" font-size="14" lengthAdjust="spacing" textLength="49" x="200.5" y="66.7285">&#171;route&#187;</text><text fill="#000000" font-family="sans-serif" font-size="14" lengthAdjust="spacing" textLength="49" x="202.5" y="85.3496">Routing</text><rect fill="#E2E2F0" height="51.2422" rx="2.5" ry="2.5" style="stroke:#181818;stroke-width:0.5;" width="67" x="191.5" y="1142.5449"/><text fill="#000000" font-family="sans-serif" font-size="14" lengthAdjust="spacing" textLength="49" x="200.5" y="1164.6523">&#171;route&#187;</text><text fill="#000000" font-family="sans-serif" font-size="14" lengthAdjust="spacing" textLength="49" x="202.5" y="1183.2734">Routing</text><rect fill="#E2E2F0" height="51.2422" rx="2.5" ry="2.5" style="stroke:#181818;stroke-width:0.5;" width="213" x="365.5" y="44.6211"/><text fill="#000000" font-family="sans-serif" font-size="14" lengthAdjust="spacing" textLength="75" x="434.5" y="66.7285">&#171;controller&#187;</text><text fill="#000000" font-family="sans-serif" font-size="14" lengthAdjust="spacing" textLength="195" x="376.5" y="85.3496">OperationRequisitionController</text><rect fill="#E2E2F0" height="51.2422" rx="2.5" ry="2.5" style="stroke:#181818;stroke-width:0.5;" width="213" x="365.5" y="1142.5449"/><text fill="#000000" font-family="sans-serif" font-size="14" lengthAdjust="spacing" textLength="75" x="434.5" y="1164.6523">&#171;controller&#187;</text><text fill="#000000" font-family="sans-serif" font-size="14" lengthAdjust="spacing" textLength="195" x="376.5" y="1183.2734">OperationRequisitionController</text><rect fill="#E2E2F0" height="51.2422" rx="2.5" ry="2.5" style="stroke:#181818;stroke-width:0.5;" width="94" x="663" y="44.6211"/><text fill="#000000" font-family="sans-serif" font-size="14" lengthAdjust="spacing" textLength="61" x="679.5" y="66.7285">&#171;service&#187;</text><text fill="#000000" font-family="sans-serif" font-size="14" lengthAdjust="spacing" textLength="76" x="674" y="85.3496">StaffService</text><rect fill="#E2E2F0" height="51.2422" rx="2.5" ry="2.5" style="stroke:#181818;stroke-width:0.5;" width="94" x="663" y="1142.5449"/><text fill="#000000" font-family="sans-serif" font-size="14" lengthAdjust="spacing" textLength="61" x="679.5" y="1164.6523">&#171;service&#187;</text><text fill="#000000" font-family="sans-serif" font-size="14" lengthAdjust="spacing" textLength="76" x="674" y="1183.2734">StaffService</text><rect fill="#E2E2F0" height="51.2422" rx="2.5" ry="2.5" style="stroke:#181818;stroke-width:0.5;" width="115" x="824.5" y="44.6211"/><text fill="#000000" font-family="sans-serif" font-size="14" lengthAdjust="spacing" textLength="79" x="842.5" y="66.7285">&#171;repository&#187;</text><text fill="#000000" font-family="sans-serif" font-size="14" lengthAdjust="spacing" textLength="97" x="835.5" y="85.3496">StaffRepository</text><rect fill="#E2E2F0" height="51.2422" rx="2.5" ry="2.5" style="stroke:#181818;stroke-width:0.5;" width="115" x="824.5" y="1142.5449"/><text fill="#000000" font-family="sans-serif" font-size="14" lengthAdjust="spacing" textLength="79" x="842.5" y="1164.6523">&#171;repository&#187;</text><text fill="#000000" font-family="sans-serif" font-size="14" lengthAdjust="spacing" textLength="97" x="835.5" y="1183.2734">StaffRepository</text><rect fill="#E2E2F0" height="51.2422" rx="2.5" ry="2.5" style="stroke:#181818;stroke-width:0.5;" width="77" x="949.5" y="1142.5449"/><text fill="#000000" font-family="sans-serif" font-size="14" lengthAdjust="spacing" textLength="36" x="970" y="1164.6523">&#171;dto&#187;</text><text fill="#000000" font-family="sans-serif" font-size="14" lengthAdjust="spacing" textLength="59" x="960.5" y="1183.2734">StaffDTO</text><rect fill="#E2E2F0" height="51.2422" rx="2.5" ry="2.5" style="stroke:#181818;stroke-width:0.5;" width="94" x="1036.5" y="44.6211"/><text fill="#000000" font-family="sans-serif" font-size="14" lengthAdjust="spacing" textLength="61" x="1053" y="66.7285">&#171;service&#187;</text><text fill="#000000" font-family="sans-serif" font-size="14" lengthAdjust="spacing" textLength="76" x="1047.5" y="85.3496">UserService</text><rect fill="#E2E2F0" height="51.2422" rx="2.5" ry="2.5" style="stroke:#181818;stroke-width:0.5;" width="94" x="1036.5" y="1142.5449"/><text fill="#000000" font-family="sans-serif" font-size="14" lengthAdjust="spacing" textLength="61" x="1053" y="1164.6523">&#171;service&#187;</text><text fill="#000000" font-family="sans-serif" font-size="14" lengthAdjust="spacing" textLength="76" x="1047.5" y="1183.2734">UserService</text><rect fill="#E2E2F0" height="51.2422" rx="2.5" ry="2.5" style="stroke:#181818;stroke-width:0.5;" width="198" x="1140.5" y="44.6211"/><text fill="#000000" font-family="sans-serif" font-size="14" lengthAdjust="spacing" textLength="61" x="1209" y="66.7285">&#171;service&#187;</text><text fill="#000000" font-family="sans-serif" font-size="14" lengthAdjust="spacing" textLength="180" x="1151.5" y="85.3496">OperationRequisitionService</text><rect fill="#E2E2F0" height="51.2422" rx="2.5" ry="2.5" style="stroke:#181818;stroke-width:0.5;" width="198" x="1140.5" y="1142.5449"/><text fill="#000000" font-family="sans-serif" font-size="14" lengthAdjust="spacing" textLength="61" x="1209" y="1164.6523">&#171;service&#187;</text><text fill="#000000" font-family="sans-serif" font-size="14" lengthAdjust="spacing" textLength="180" x="1151.5" y="1183.2734">OperationRequisitionService</text><rect fill="#E2E2F0" height="51.2422" rx="2.5" ry="2.5" style="stroke:#181818;stroke-width:0.5;" width="219" x="1354" y="44.6211"/><text fill="#000000" font-family="sans-serif" font-size="14" lengthAdjust="spacing" textLength="79" x="1424" y="66.7285">&#171;repository&#187;</text><text fill="#000000" font-family="sans-serif" font-size="14" lengthAdjust="spacing" textLength="201" x="1365" y="85.3496">OperationRequisitionRepository</text><rect fill="#E2E2F0" height="51.2422" rx="2.5" ry="2.5" style="stroke:#181818;stroke-width:0.5;" width="219" x="1354" y="1142.5449"/><text fill="#000000" font-family="sans-serif" font-size="14" lengthAdjust="spacing" textLength="79" x="1424" y="1164.6523">&#171;repository&#187;</text><text fill="#000000" font-family="sans-serif" font-size="14" lengthAdjust="spacing" textLength="201" x="1365" y="1183.2734">OperationRequisitionRepository</text><rect fill="#E2E2F0" height="51.2422" rx="2.5" ry="2.5" style="stroke:#181818;stroke-width:0.5;" width="181" x="1583" y="1142.5449"/><text fill="#000000" font-family="sans-serif" font-size="14" lengthAdjust="spacing" textLength="36" x="1655.5" y="1164.6523">&#171;dto&#187;</text><text fill="#000000" font-family="sans-serif" font-size="14" lengthAdjust="spacing" textLength="163" x="1594" y="1183.2734">OperationRequisitionDTO</text><rect fill="#FFFFFF" height="638.8496" style="stroke:#181818;stroke-width:1.0;" width="10" x="220" y="130.1543"/><rect fill="#FFFFFF" height="293.25" style="stroke:#181818;stroke-width:1.0;" width="10" x="220" y="825.2949"/><rect fill="#FFFFFF" height="576.2676" style="stroke:#181818;stroke-width:1.0;" width="10" x="467" y="161.4453"/><rect fill="#FFFFFF" height="28" style="stroke:#181818;stroke-width:1.0;" width="10" x="472" y="671.4219"/><rect fill="#FFFFFF" height="156.4551" style="stroke:#181818;stroke-width:1.0;" width="10" x="467" y="856.5859"/><rect fill="#FFFFFF" height="218.6973" style="stroke:#181818;stroke-width:1.0;" width="10" x="705" y="192.7363"/><rect fill="#FFFFFF" height="31.291" style="stroke:#181818;stroke-width:1.0;" width="10" x="877" y="286.6094"/><rect fill="#FFFFFF" height="31.291" style="stroke:#181818;stroke-width:1.0;" width="10" x="1078.5" y="224.0273"/><rect fill="#FFFFFF" height="189.4063" style="stroke:#181818;stroke-width:1.0;" width="10" x="1234.5" y="442.7246"/><rect fill="#FFFFFF" height="93.873" style="stroke:#181818;stroke-width:1.0;" width="10" x="1234.5" y="887.877"/><rect fill="#FFFFFF" height="31.291" style="stroke:#181818;stroke-width:1.0;" width="10" x="1458.5" y="474.0156"/><rect fill="#FFFFFF" height="31.291" style="stroke:#181818;stroke-width:1.0;" width="10" x="1458.5" y="919.168"/><ellipse cx="7.5" cy="129.4043" fill="none" rx="4" ry="4" style="stroke:#181818;stroke-width:1.5;"/><polygon fill="#181818" points="208,126.1543,218,130.1543,208,134.1543,212,130.1543" style="stroke:#181818;stroke-width:1.0;"/><line style="stroke:#181818;stroke-width:1.0;" x1="12" x2="214" y1="130.1543" y2="130.1543"/><text fill="#000000" font-family="sans-serif" font-size="13" font-weight="bold" lengthAdjust="spacing" textLength="7" x="15" y="124.8916">1</text><text fill="#000000" font-family="sans-serif" font-size="13" lengthAdjust="spacing" textLength="182" x="26" y="124.8916">GET() /api/operationrequisitions</text><polygon fill="#181818" points="455,157.4453,465,161.4453,455,165.4453,459,161.4453" style="stroke:#181818;stroke-width:1.0;"/><line style="stroke:#181818;stroke-width:1.0;" x1="230" x2="461" y1="161.4453" y2="161.4453"/><text fill="#000000" font-family="sans-serif" font-size="13" font-weight="bold" lengthAdjust="spacing" textLength="7" x="237" y="156.1826">2</text><text fill="#000000" font-family="sans-serif" font-size="13" lengthAdjust="spacing" textLength="207" x="248" y="156.1826">getOperationRequisitionsByDoctor()</text><polygon fill="#181818" points="693,188.7363,703,192.7363,693,196.7363,697,192.7363" style="stroke:#181818;stroke-width:1.0;"/><line style="stroke:#181818;stroke-width:1.0;" x1="477" x2="699" y1="192.7363" y2="192.7363"/><text fill="#000000" font-family="sans-serif" font-size="13" font-weight="bold" lengthAdjust="spacing" textLength="7" x="484" y="187.4736">3</text><text fill="#000000" font-family="sans-serif" font-size="13" lengthAdjust="spacing" textLength="155" x="495" y="187.4736">findCurrentSessionDoctor()</text><polygon fill="#181818" points="1066.5,220.0273,1076.5,224.0273,1066.5,228.0273,1070.5,224.0273" style="stroke:#181818;stroke-width:1.0;"/><line style="stroke:#181818;stroke-width:1.0;" x1="715" x2="1072.5" y1="224.0273" y2="224.0273"/><text fill="#000000" font-family="sans-serif" font-size="13" font-weight="bold" lengthAdjust="spacing" textLength="7" x="722" y="218.7646">4</text><text fill="#000000" font-family="sans-serif" font-size="13" lengthAdjust="spacing" textLength="100" x="733" y="218.7646">getSessionUser()</text><polygon fill="#181818" points="726,251.3184,716,255.3184,726,259.3184,722,255.3184" style="stroke:#181818;stroke-width:1.0;"/><line style="stroke:#181818;stroke-width:1.0;stroke-dasharray:2.0,2.0;" x1="720" x2="1082.5" y1="255.3184" y2="255.3184"/><text fill="#000000" font-family="sans-serif" font-size="13" font-weight="bold" lengthAdjust="spacing" textLength="7" x="732" y="250.0557">5</text><text fill="#000000" font-family="sans-serif" font-size="13" lengthAdjust="spacing" textLength="25" x="743" y="250.0557">user</text><polygon fill="#181818" points="865,282.6094,875,286.6094,865,290.6094,869,286.6094" style="stroke:#181818;stroke-width:1.0;"/><line style="stroke:#181818;stroke-width:1.0;" x1="715" x2="871" y1="286.6094" y2="286.6094"/><text fill="#000000" font-family="sans-serif" font-size="13" font-weight="bold" lengthAdjust="spacing" textLength="7" x="722" y="281.3467">6</text><text fill="#000000" font-family="sans-serif" font-size="13" lengthAdjust="spacing" textLength="132" x="733" y="281.3467">getDoctorByUser(user)</text><polygon fill="#181818" points="726,313.9004,716,317.9004,726,321.9004,722,317.9004" style="stroke:#181818;stroke-width:1.0;"/><line style="stroke:#181818;stroke-width:1.0;stroke-dasharray:2.0,2.0;" x1="720" x2="881" y1="317.9004" y2="317.9004"/><text fill="#000000" font-family="sans-serif" font-size="13" font-weight="bold" lengthAdjust="spacing" textLength="7" x="732" y="312.6377">7</text><text fill="#000000" font-family="sans-serif" font-size="13" lengthAdjust="spacing" textLength="36" x="743" y="312.6377">doctor</text><polygon fill="#181818" points="937.5,345.1914,947.5,349.1914,937.5,353.1914,941.5,349.1914" style="stroke:#181818;stroke-width:1.0;"/><line style="stroke:#181818;stroke-width:1.0;stroke-dasharray:2.0,2.0;" x1="715" x2="943.5" y1="349.1914" y2="349.1914"/><text fill="#000000" font-family="sans-serif" font-size="13" font-weight="bold" lengthAdjust="spacing" textLength="7" x="722" y="343.9287">8</text><text fill="#000000" font-family="sans-serif" font-size="13" lengthAdjust="spacing" textLength="81" x="733" y="343.9287">toDTO(doctor)</text><rect fill="#E2E2F0" height="51.2422" rx="2.5" ry="2.5" style="stroke:#181818;stroke-width:0.5;" width="77" x="949.5" y="325.9004"/><text fill="#000000" font-family="sans-serif" font-size="14" lengthAdjust="spacing" textLength="36" x="970" y="348.0078">&#171;dto&#187;</text><text fill="#000000" font-family="sans-serif" font-size="14" lengthAdjust="spacing" textLength="59" x="960.5" y="366.6289">StaffDTO</text><polygon fill="#181818" points="488,407.4336,478,411.4336,488,415.4336,484,411.4336" style="stroke:#181818;stroke-width:1.0;"/><line style="stroke:#181818;stroke-width:1.0;stroke-dasharray:2.0,2.0;" x1="482" x2="709" y1="411.4336" y2="411.4336"/><text fill="#000000" font-family="sans-serif" font-size="13" font-weight="bold" lengthAdjust="spacing" textLength="7" x="494" y="406.1709">9</text><text fill="#000000" font-family="sans-serif" font-size="13" lengthAdjust="spacing" textLength="62" x="505" y="406.1709">doctorDTO</text><polygon fill="#181818" points="1222.5,438.7246,1232.5,442.7246,1222.5,446.7246,1226.5,442.7246" style="stroke:#181818;stroke-width:1.0;"/><line style="stroke:#181818;stroke-width:1.0;" x1="477" x2="1228.5" y1="442.7246" y2="442.7246"/><text fill="#000000" font-family="sans-serif" font-size="13" font-weight="bold" lengthAdjust="spacing" textLength="14" x="484" y="437.4619">10</text><text fill="#000000" font-family="sans-serif" font-size="13" lengthAdjust="spacing" textLength="269" x="502" y="437.4619">getOperationRequisitionsByDoctor(doctorDTO)</text><polygon fill="#181818" points="1446.5,470.0156,1456.5,474.0156,1446.5,478.0156,1450.5,474.0156" style="stroke:#181818;stroke-width:1.0;"/><line style="stroke:#181818;stroke-width:1.0;" x1="1244.5" x2="1452.5" y1="474.0156" y2="474.0156"/><text fill="#000000" font-family="sans-serif" font-size="13" font-weight="bold" lengthAdjust="spacing" textLength="14" x="1251.5" y="468.7529">11</text><text fill="#000000" font-family="sans-serif" font-size="13" lengthAdjust="spacing" textLength="159" x="1269.5" y="468.7529">findAllByDoctor(doctorDTO)</text><polygon fill="#181818" points="1255.5,501.3066,1245.5,505.3066,1255.5,509.3066,1251.5,505.3066" style="stroke:#181818;stroke-width:1.0;"/><line style="stroke:#181818;stroke-width:1.0;stroke-dasharray:2.0,2.0;" x1="1249.5" x2="1462.5" y1="505.3066" y2="505.3066"/><text fill="#000000" font-family="sans-serif" font-size="13" font-weight="bold" lengthAdjust="spacing" textLength="14" x="1261.5" y="500.0439">12</text><text fill="#000000" font-family="sans-serif" font-size="13" lengthAdjust="spacing" textLength="138" x="1279.5" y="500.0439">operationRequisitionList</text><path d="M1130.5,520.3066 L1203.5,520.3066 L1203.5,529.5977 L1193.5,539.5977 L1130.5,539.5977 L1130.5,520.3066 " fill="#EEEEEE" style="stroke:#000000;stroke-width:1.5;"/><rect fill="none" height="81.5332" style="stroke:#000000;stroke-width:1.5;" width="643.5" x="1130.5" y="520.3066"/><text fill="#000000" font-family="sans-serif" font-size="13" font-weight="bold" lengthAdjust="spacing" textLength="28" x="1145.5" y="535.335">loop</text><text fill="#000000" font-family="sans-serif" font-size="11" font-weight="bold" lengthAdjust="spacing" textLength="170" x="1218.5" y="534.1768">[for all the elements in the list]</text><polygon fill="#181818" points="1571,558.8887,1581,562.8887,1571,566.8887,1575,562.8887" style="stroke:#181818;stroke-width:1.0;"/><line style="stroke:#181818;stroke-width:1.0;" x1="1244.5" x2="1577" y1="562.8887" y2="562.8887"/><text fill="#000000" font-family="sans-serif" font-size="13" font-weight="bold" lengthAdjust="spacing" textLength="14" x="1251.5" y="557.626">13</text><text fill="#000000" font-family="sans-serif" font-size="13" lengthAdjust="spacing" textLength="162" x="1269.5" y="557.626">toDTO(operationRequisition)</text><rect fill="#E2E2F0" height="51.2422" rx="2.5" ry="2.5" style="stroke:#181818;stroke-width:0.5;" width="181" x="1583" y="539.5977"/><text fill="#000000" font-family="sans-serif" font-size="14" lengthAdjust="spacing" textLength="36" x="1655.5" y="561.7051">&#171;dto&#187;</text><text fill="#000000" font-family="sans-serif" font-size="14" lengthAdjust="spacing" textLength="163" x="1594" y="580.3262">OperationRequisitionDTO</text><polygon fill="#181818" points="488,628.1309,478,632.1309,488,636.1309,484,632.1309" style="stroke:#181818;stroke-width:1.0;"/><line style="stroke:#181818;stroke-width:1.0;stroke-dasharray:2.0,2.0;" x1="482" x2="1238.5" y1="632.1309" y2="632.1309"/><text fill="#000000" font-family="sans-serif" font-size="13" font-weight="bold" lengthAdjust="spacing" textLength="14" x="494" y="626.8682">14</text><text fill="#000000" font-family="sans-serif" font-size="13" lengthAdjust="spacing" textLength="164" x="512" y="626.8682">operationRequisitionDTOList</text><line style="stroke:#181818;stroke-width:1.0;" x1="482" x2="524" y1="663.4219" y2="663.4219"/><line style="stroke:#181818;stroke-width:1.0;" x1="524" x2="524" y1="663.4219" y2="676.4219"/><line style="stroke:#181818;stroke-width:1.0;" x1="483" x2="524" y1="676.4219" y2="676.4219"/><polygon fill="#181818" points="493,672.4219,483,676.4219,493,680.4219,489,676.4219" style="stroke:#181818;stroke-width:1.0;"/><text fill="#000000" font-family="sans-serif" font-size="13" font-weight="bold" lengthAdjust="spacing" textLength="14" x="489" y="658.1592">15</text><text fill="#000000" font-family="sans-serif" font-size="13" lengthAdjust="spacing" textLength="196" x="507" y="658.1592">json(operationRequisitionDTOList)</text><polygon fill="#181818" points="241,733.7129,231,737.7129,241,741.7129,237,737.7129" style="stroke:#181818;stroke-width:1.0;"/><line style="stroke:#181818;stroke-width:1.0;stroke-dasharray:2.0,2.0;" x1="235" x2="471" y1="737.7129" y2="737.7129"/><text fill="#000000" font-family="sans-serif" font-size="13" font-weight="bold" lengthAdjust="spacing" textLength="14" x="247" y="732.4502">16</text><text fill="#000000" font-family="sans-serif" font-size="13" lengthAdjust="spacing" textLength="24" x="265" y="732.4502">json</text><ellipse cx="7.5" cy="768.2539" fill="none" rx="4" ry="4" style="stroke:#181818;stroke-width:1.5;"/><polygon fill="#181818" points="24.5,765.0039,14.5,769.0039,24.5,773.0039,20.5,769.0039" style="stroke:#181818;stroke-width:1.0;"/><line style="stroke:#181818;stroke-width:1.0;" x1="22.5" x2="224" y1="769.0039" y2="769.0039"/><text fill="#000000" font-family="sans-serif" font-size="13" font-weight="bold" lengthAdjust="spacing" textLength="14" x="25" y="763.7412">17</text><text fill="#000000" font-family="sans-serif" font-size="13" lengthAdjust="spacing" textLength="46" x="43" y="763.7412">ok(json)</text><ellipse cx="7.5" cy="824.5449" fill="none" rx="4" ry="4" style="stroke:#181818;stroke-width:1.5;"/><polygon fill="#181818" points="208,821.2949,218,825.2949,208,829.2949,212,825.2949" style="stroke:#181818;stroke-width:1.0;"/><line style="stroke:#181818;stroke-width:1.0;" x1="12" x2="214" y1="825.2949" y2="825.2949"/><text fill="#000000" font-family="sans-serif" font-size="13" font-weight="bold" lengthAdjust="spacing" textLength="14" x="15" y="820.0322">18</text><text fill="#000000" font-family="sans-serif" font-size="13" lengthAdjust="spacing" textLength="106" x="33" y="820.0322">PUT(updatedData)</text><polygon fill="#181818" points="455,852.5859,465,856.5859,455,860.5859,459,856.5859" style="stroke:#181818;stroke-width:1.0;"/><line style="stroke:#181818;stroke-width:1.0;" x1="230" x2="461" y1="856.5859" y2="856.5859"/><text fill="#000000" font-family="sans-serif" font-size="13" font-weight="bold" lengthAdjust="spacing" textLength="14" x="237" y="851.3232">19</text><text fill="#000000" font-family="sans-serif" font-size="13" lengthAdjust="spacing" textLength="192" x="255" y="851.3232">Update(operationRequisitionDTO)</text><polygon fill="#181818" points="1222.5,883.877,1232.5,887.877,1222.5,891.877,1226.5,887.877" style="stroke:#181818;stroke-width:1.0;"/><line style="stroke:#181818;stroke-width:1.0;" x1="477" x2="1228.5" y1="887.877" y2="887.877"/><text fill="#000000" font-family="sans-serif" font-size="13" font-weight="bold" lengthAdjust="spacing" textLength="14" x="484" y="882.6143">20</text><text fill="#000000" font-family="sans-serif" font-size="13" lengthAdjust="spacing" textLength="229" x="502" y="882.6143">UpdateAsync(operationRequisitionDTO)</text><polygon fill="#181818" points="1446.5,915.168,1456.5,919.168,1446.5,923.168,1450.5,919.168" style="stroke:#181818;stroke-width:1.0;"/><line style="stroke:#181818;stroke-width:1.0;" x1="1244.5" x2="1452.5" y1="919.168" y2="919.168"/><text fill="#000000" font-family="sans-serif" font-size="13" font-weight="bold" lengthAdjust="spacing" textLength="14" x="1251.5" y="913.9053">21</text><text fill="#000000" font-family="sans-serif" font-size="13" lengthAdjust="spacing" textLength="177" x="1269.5" y="913.9053">save(operationRequisitionDTO)</text><polygon fill="#181818" points="1255.5,946.459,1245.5,950.459,1255.5,954.459,1251.5,950.459" style="stroke:#181818;stroke-width:1.0;"/><line style="stroke:#181818;stroke-width:1.0;stroke-dasharray:2.0,2.0;" x1="1249.5" x2="1462.5" y1="950.459" y2="950.459"/><text fill="#000000" font-family="sans-serif" font-size="13" font-weight="bold" lengthAdjust="spacing" textLength="14" x="1261.5" y="945.1963">22</text><text fill="#000000" font-family="sans-serif" font-size="13" lengthAdjust="spacing" textLength="33" x="1279.5" y="945.1963">return</text><polygon fill="#181818" points="488,977.75,478,981.75,488,985.75,484,981.75" style="stroke:#181818;stroke-width:1.0;"/><line style="stroke:#181818;stroke-width:1.0;stroke-dasharray:2.0,2.0;" x1="482" x2="1238.5" y1="981.75" y2="981.75"/><text fill="#000000" font-family="sans-serif" font-size="13" font-weight="bold" lengthAdjust="spacing" textLength="14" x="494" y="976.4873">23</text><text fill="#000000" font-family="sans-serif" font-size="13" lengthAdjust="spacing" textLength="33" x="512" y="976.4873">return</text><polygon fill="#181818" points="241,1009.041,231,1013.041,241,1017.041,237,1013.041" style="stroke:#181818;stroke-width:1.0;"/><line style="stroke:#181818;stroke-width:1.0;stroke-dasharray:2.0,2.0;" x1="235" x2="471" y1="1013.041" y2="1013.041"/><text fill="#000000" font-family="sans-serif" font-size="13" font-weight="bold" lengthAdjust="spacing" textLength="14" x="247" y="1007.7783">24</text><text fill="#000000" font-family="sans-serif" font-size="13" lengthAdjust="spacing" textLength="33" x="265" y="1007.7783">return</text><path d="M11,1028.041 L72,1028.041 L72,1037.332 L62,1047.332 L11,1047.332 L11,1028.041 " fill="#EEEEEE" style="stroke:#000000;stroke-width:1.5;"/><rect fill="none" height="98.5039" style="stroke:#000000;stroke-width:1.5;" width="257.5" x="11" y="1028.041"/><text fill="#000000" font-family="sans-serif" font-size="13" font-weight="bold" lengthAdjust="spacing" textLength="16" x="26" y="1043.0693">alt</text><text fill="#000000" font-family="sans-serif" font-size="11" font-weight="bold" lengthAdjust="spacing" textLength="55" x="87" y="1041.9111">[success]</text><ellipse cx="7.5" cy="1069.873" fill="none" rx="4" ry="4" style="stroke:#181818;stroke-width:1.5;"/><polygon fill="#181818" points="24.5,1066.623,14.5,1070.623,24.5,1074.623,20.5,1070.623" style="stroke:#181818;stroke-width:1.0;"/><line style="stroke:#181818;stroke-width:1.0;stroke-dasharray:2.0,2.0;" x1="22.5" x2="219" y1="1070.623" y2="1070.623"/><text fill="#000000" font-family="sans-serif" font-size="13" font-weight="bold" lengthAdjust="spacing" textLength="14" x="25" y="1065.3604">25</text><text fill="#000000" font-family="sans-serif" font-size="13" lengthAdjust="spacing" textLength="44" x="43" y="1065.3604">200 OK</text><line style="stroke:#000000;stroke-width:1.0;stroke-dasharray:2.0,2.0;" x1="11" x2="268.5" y1="1079.623" y2="1079.623"/><text fill="#000000" font-family="sans-serif" font-size="11" font-weight="bold" lengthAdjust="spacing" textLength="43" x="16" y="1091.4932">[failure]</text><ellipse cx="7.5" cy="1117.7949" fill="none" rx="4" ry="4" style="stroke:#181818;stroke-width:1.5;"/><polygon fill="#181818" points="24.5,1114.5449,14.5,1118.5449,24.5,1122.5449,20.5,1118.5449" style="stroke:#181818;stroke-width:1.0;"/><line style="stroke:#181818;stroke-width:1.0;stroke-dasharray:2.0,2.0;" x1="22.5" x2="224" y1="1118.5449" y2="1118.5449"/><text fill="#000000" font-family="sans-serif" font-size="13" font-weight="bold" lengthAdjust="spacing" textLength="14" x="25" y="1113.2822">26</text><text fill="#000000" font-family="sans-serif" font-size="13" lengthAdjust="spacing" textLength="100" x="43" y="1113.2822">400 Bad Request</text><!--SRC=[ZLRBRjim4BppAmXVAWUmdVI10a4Gm7crG8CgjULUqWihhHEsDAcIb0C3-VZo8Oio9Jk-ISBExEpEaD2xPwrBTJwPb8nmNQtOE1UhYO9_5V0SHWKbJvAi4D9KCy23nHn_6f-DppwFyOCKEIY5Vr9umSazh87X3yC1GgJIWbUhto0HAedKDAUbuSQ3YmifAWsNbxyudfadofy6c2WyInVPRLoQ2wwbO0oagqzBa4HJmMT66bNKFbut9OxcElsUpTBxJbC5SarpttQkoN8vznySQ9vDx-xiXuvKA8Lf8-Gc06VDju2rts9ieKK0tMIfhwvV3kfRc9UslEaY- -hK7GBrxQPDaZxCRdySCMCVJpIoepeqSX_7TWCEx3Q07iNeqlkEp_6NsomPuWafwKHiuJB05IAvfckYeKuAya33K5jkE9v0zxLMLviRaHlvoJ2mD47PmWrJamF3jQIykAwa1Axd9k5sWWv7o0qAKCEpDSnBgk7MrJOukDgKZo8DbO6W0deWE-sQ2Ff-NkVLnZMq5B5YPnqAgBXjuGZQZMDOK5ld6P-S6A0MvZ7ny65S6cpo1JO3SGi_NCkH9hN7kDlmjWOEiKU1QqjSxynQFMNiRHw_WG0THGf5ZxnxgdHxpXOH4wB4Io4nOGphPy30O6NofZ3bxfrPR5TsjE- -hcRxm0jiE-mClkE3w3-clOexpWIQFqhmv01Npw5hiNVFOUjIiDIznO_YOjHKYR-9BHosA-jBulNrDRfd7XPPKfM5gIbkY2R3O-wLXQlVD-CRbqex89vegZOyFuBjcEmgiePZgTwAhmHTIRudhFj2j0SKvQLbG1VGR0qHfh6gSljBuImE7hy_FSNfDvDgfW0l2MML11JLV3GrLwJ0TWkmcs7lhJqIfWL2_m40]--></g></svg>