<?xml version="1.0" encoding="us-ascii" standalone="no"?><svg xmlns="http://www.w3.org/2000/svg" xmlns:xlink="http://www.w3.org/1999/xlink" contentStyleType="text/css" height="1505px" preserveAspectRatio="none" style="width:2230px;height:1505px;background:#FFFFFF;" version="1.1" viewBox="0 0 2230 1505" width="2230px" zoomAndPan="magnify"><defs/><g><text fill="#000000" font-family="sans-serif" font-size="14" font-weight="bold" lengthAdjust="spacing" textLength="230" x="999.25" y="30.1074">US 5.1.17. Process View (Level 3)</text><rect fill="#FFFFFF" height="701.0918" style="stroke:#181818;stroke-width:1.0;" width="10" x="205" y="130.1543"/><rect fill="#FFFFFF" height="536.9473" style="stroke:#181818;stroke-width:1.0;" width="10" x="205" y="887.5371"/><rect fill="#FFFFFF" height="638.5098" style="stroke:#181818;stroke-width:1.0;" width="10" x="536" y="161.4453"/><rect fill="#FFFFFF" height="28" style="stroke:#181818;stroke-width:1.0;" width="10" x="541" y="733.6641"/><rect fill="#FFFFFF" height="400.1523" style="stroke:#181818;stroke-width:1.0;" width="10" x="536" y="918.8281"/><rect fill="#FFFFFF" height="280.9395" style="stroke:#181818;stroke-width:1.0;" width="10" x="765" y="192.7363"/><rect fill="#FFFFFF" height="31.291" style="stroke:#181818;stroke-width:1.0;" width="10" x="957" y="348.8516"/><rect fill="#FFFFFF" height="93.5332" style="stroke:#181818;stroke-width:1.0;" width="10" x="1158.5" y="224.0273"/><rect fill="#FFFFFF" height="189.4063" style="stroke:#181818;stroke-width:1.0;" width="10" x="1441.5" y="504.9668"/><rect fill="#FFFFFF" height="337.5703" style="stroke:#181818;stroke-width:1.0;" width="10" x="1441.5" y="950.1191"/><rect fill="#FFFFFF" height="31.291" style="stroke:#181818;stroke-width:1.0;" width="10" x="1794" y="536.2578"/><rect fill="#FFFFFF" height="31.291" style="stroke:#181818;stroke-width:1.0;" width="10" x="1794" y="981.4102"/><rect fill="#FFFFFF" height="31.291" style="stroke:#181818;stroke-width:1.0;" width="10" x="1794" y="1162.8652"/><rect fill="none" height="81.5332" style="stroke:#000000;stroke-width:1.5;" width="752" x="1342.5" y="582.5488"/><rect fill="none" height="98.5039" style="stroke:#000000;stroke-width:1.5;" width="242.5" x="11" y="1333.9805"/><line style="stroke:#181818;stroke-width:0.5;stroke-dasharray:5.0,5.0;" x1="209.5" x2="209.5" y1="96.8633" y2="1449.4844"/><line style="stroke:#181818;stroke-width:0.5;stroke-dasharray:5.0,5.0;" x1="540.5" x2="540.5" y1="96.8633" y2="1449.4844"/><line style="stroke:#181818;stroke-width:0.5;stroke-dasharray:5.0,5.0;" x1="770" x2="770" y1="96.8633" y2="1449.4844"/><line style="stroke:#181818;stroke-width:0.5;stroke-dasharray:5.0,5.0;" x1="961.5" x2="961.5" y1="96.8633" y2="1449.4844"/><line style="stroke:#181818;stroke-width:0.5;stroke-dasharray:5.0,5.0;" x1="1067.5" x2="1067.5" y1="429.2637" y2="1449.4844"/><line style="stroke:#181818;stroke-width:0.5;stroke-dasharray:5.0,5.0;" x1="1163.5" x2="1163.5" y1="96.8633" y2="1449.4844"/><line style="stroke:#181818;stroke-width:0.5;stroke-dasharray:5.0,5.0;" x1="1307.5" x2="1307.5" y1="273.1484" y2="1449.4844"/><line style="stroke:#181818;stroke-width:0.5;stroke-dasharray:5.0,5.0;" x1="1446.5" x2="1446.5" y1="96.8633" y2="1449.4844"/><line style="stroke:#181818;stroke-width:0.5;stroke-dasharray:5.0,5.0;" x1="1617.5" x2="1617.5" y1="96.8633" y2="1449.4844"/><line style="stroke:#181818;stroke-width:0.5;stroke-dasharray:5.0,5.0;" x1="1798.5" x2="1798.5" y1="96.8633" y2="1449.4844"/><line style="stroke:#181818;stroke-width:0.5;stroke-dasharray:5.0,5.0;" x1="1998.5" x2="1998.5" y1="1243.2773" y2="1449.4844"/><line style="stroke:#181818;stroke-width:0.5;stroke-dasharray:5.0,5.0;" x1="2159.5" x2="2159.5" y1="96.8633" y2="1449.4844"/><rect fill="#E2E2F0" height="51.2422" rx="2.5" ry="2.5" style="stroke:#181818;stroke-width:0.5;" width="67" x="176.5" y="44.6211"/><text fill="#000000" font-family="sans-serif" font-size="14" lengthAdjust="spacing" textLength="49" x="185.5" y="66.7285">&#171;route&#187;</text><text fill="#000000" font-family="sans-serif" font-size="14" lengthAdjust="spacing" textLength="49" x="187.5" y="85.3496">Routing</text><rect fill="#E2E2F0" height="51.2422" rx="2.5" ry="2.5" style="stroke:#181818;stroke-width:0.5;" width="67" x="176.5" y="1448.4844"/><text fill="#000000" font-family="sans-serif" font-size="14" lengthAdjust="spacing" textLength="49" x="185.5" y="1470.5918">&#171;route&#187;</text><text fill="#000000" font-family="sans-serif" font-size="14" lengthAdjust="spacing" textLength="49" x="187.5" y="1489.2129">Routing</text><rect fill="#E2E2F0" height="51.2422" rx="2.5" ry="2.5" style="stroke:#181818;stroke-width:0.5;" width="203" x="439.5" y="44.6211"/><text fill="#000000" font-family="sans-serif" font-size="14" lengthAdjust="spacing" textLength="75" x="503.5" y="66.7285">&#171;controller&#187;</text><text fill="#000000" font-family="sans-serif" font-size="14" lengthAdjust="spacing" textLength="185" x="450.5" y="85.3496">OperationRequestsController</text><rect fill="#E2E2F0" height="51.2422" rx="2.5" ry="2.5" style="stroke:#181818;stroke-width:0.5;" width="203" x="439.5" y="1448.4844"/><text fill="#000000" font-family="sans-serif" font-size="14" lengthAdjust="spacing" textLength="75" x="503.5" y="1470.5918">&#171;controller&#187;</text><text fill="#000000" font-family="sans-serif" font-size="14" lengthAdjust="spacing" textLength="185" x="450.5" y="1489.2129">OperationRequestsController</text><rect fill="#E2E2F0" height="51.2422" rx="2.5" ry="2.5" style="stroke:#181818;stroke-width:0.5;" width="94" x="723" y="44.6211"/><text fill="#000000" font-family="sans-serif" font-size="14" lengthAdjust="spacing" textLength="61" x="739.5" y="66.7285">&#171;service&#187;</text><text fill="#000000" font-family="sans-serif" font-size="14" lengthAdjust="spacing" textLength="76" x="734" y="85.3496">StaffService</text><rect fill="#E2E2F0" height="51.2422" rx="2.5" ry="2.5" style="stroke:#181818;stroke-width:0.5;" width="94" x="723" y="1448.4844"/><text fill="#000000" font-family="sans-serif" font-size="14" lengthAdjust="spacing" textLength="61" x="739.5" y="1470.5918">&#171;service&#187;</text><text fill="#000000" font-family="sans-serif" font-size="14" lengthAdjust="spacing" textLength="76" x="734" y="1489.2129">StaffService</text><rect fill="#E2E2F0" height="51.2422" rx="2.5" ry="2.5" style="stroke:#181818;stroke-width:0.5;" width="115" x="904.5" y="44.6211"/><text fill="#000000" font-family="sans-serif" font-size="14" lengthAdjust="spacing" textLength="79" x="922.5" y="66.7285">&#171;repository&#187;</text><text fill="#000000" font-family="sans-serif" font-size="14" lengthAdjust="spacing" textLength="97" x="915.5" y="85.3496">StaffRepository</text><rect fill="#E2E2F0" height="51.2422" rx="2.5" ry="2.5" style="stroke:#181818;stroke-width:0.5;" width="115" x="904.5" y="1448.4844"/><text fill="#000000" font-family="sans-serif" font-size="14" lengthAdjust="spacing" textLength="79" x="922.5" y="1470.5918">&#171;repository&#187;</text><text fill="#000000" font-family="sans-serif" font-size="14" lengthAdjust="spacing" textLength="97" x="915.5" y="1489.2129">StaffRepository</text><rect fill="#E2E2F0" height="51.2422" rx="2.5" ry="2.5" style="stroke:#181818;stroke-width:0.5;" width="77" x="1029.5" y="1448.4844"/><text fill="#000000" font-family="sans-serif" font-size="14" lengthAdjust="spacing" textLength="36" x="1050" y="1470.5918">&#171;dto&#187;</text><text fill="#000000" font-family="sans-serif" font-size="14" lengthAdjust="spacing" textLength="59" x="1040.5" y="1489.2129">StaffDTO</text><rect fill="#E2E2F0" height="51.2422" rx="2.5" ry="2.5" style="stroke:#181818;stroke-width:0.5;" width="94" x="1116.5" y="44.6211"/><text fill="#000000" font-family="sans-serif" font-size="14" lengthAdjust="spacing" textLength="61" x="1133" y="66.7285">&#171;service&#187;</text><text fill="#000000" font-family="sans-serif" font-size="14" lengthAdjust="spacing" textLength="76" x="1127.5" y="85.3496">UserService</text><rect fill="#E2E2F0" height="51.2422" rx="2.5" ry="2.5" style="stroke:#181818;stroke-width:0.5;" width="94" x="1116.5" y="1448.4844"/><text fill="#000000" font-family="sans-serif" font-size="14" lengthAdjust="spacing" textLength="61" x="1133" y="1470.5918">&#171;service&#187;</text><text fill="#000000" font-family="sans-serif" font-size="14" lengthAdjust="spacing" textLength="76" x="1127.5" y="1489.2129">UserService</text><rect fill="#E2E2F0" height="51.2422" rx="2.5" ry="2.5" style="stroke:#181818;stroke-width:0.5;" width="69" x="1273.5" y="1448.4844"/><text fill="#000000" font-family="sans-serif" font-size="14" lengthAdjust="spacing" textLength="36" x="1290" y="1470.5918">&#171;dto&#187;</text><text fill="#000000" font-family="sans-serif" font-size="14" lengthAdjust="spacing" textLength="51" x="1284.5" y="1489.2129">UserDto</text><rect fill="#E2E2F0" height="51.2422" rx="2.5" ry="2.5" style="stroke:#181818;stroke-width:0.5;" width="188" x="1352.5" y="44.6211"/><text fill="#000000" font-family="sans-serif" font-size="14" lengthAdjust="spacing" textLength="61" x="1416" y="66.7285">&#171;service&#187;</text><text fill="#000000" font-family="sans-serif" font-size="14" lengthAdjust="spacing" textLength="170" x="1363.5" y="85.3496">OperationRequestsService</text><rect fill="#E2E2F0" height="51.2422" rx="2.5" ry="2.5" style="stroke:#181818;stroke-width:0.5;" width="188" x="1352.5" y="1448.4844"/><text fill="#000000" font-family="sans-serif" font-size="14" lengthAdjust="spacing" textLength="61" x="1416" y="1470.5918">&#171;service&#187;</text><text fill="#000000" font-family="sans-serif" font-size="14" lengthAdjust="spacing" textLength="170" x="1363.5" y="1489.2129">OperationRequestsService</text><rect fill="#E2E2F0" height="51.2422" rx="2.5" ry="2.5" style="stroke:#181818;stroke-width:0.5;" width="134" x="1550.5" y="44.6211"/><text fill="#000000" font-family="sans-serif" font-size="14" lengthAdjust="spacing" textLength="62" x="1586.5" y="66.7285">&#171;domain&#187;</text><text fill="#000000" font-family="sans-serif" font-size="14" lengthAdjust="spacing" textLength="116" x="1561.5" y="85.3496">OperationRequest</text><rect fill="#E2E2F0" height="51.2422" rx="2.5" ry="2.5" style="stroke:#181818;stroke-width:0.5;" width="134" x="1550.5" y="1448.4844"/><text fill="#000000" font-family="sans-serif" font-size="14" lengthAdjust="spacing" textLength="62" x="1586.5" y="1470.5918">&#171;domain&#187;</text><text fill="#000000" font-family="sans-serif" font-size="14" lengthAdjust="spacing" textLength="116" x="1561.5" y="1489.2129">OperationRequest</text><rect fill="#E2E2F0" height="51.2422" rx="2.5" ry="2.5" style="stroke:#181818;stroke-width:0.5;" width="209" x="1694.5" y="44.6211"/><text fill="#000000" font-family="sans-serif" font-size="14" lengthAdjust="spacing" textLength="79" x="1759.5" y="66.7285">&#171;repository&#187;</text><text fill="#000000" font-family="sans-serif" font-size="14" lengthAdjust="spacing" textLength="191" x="1705.5" y="85.3496">OperationRequestsRepository</text><rect fill="#E2E2F0" height="51.2422" rx="2.5" ry="2.5" style="stroke:#181818;stroke-width:0.5;" width="209" x="1694.5" y="1448.4844"/><text fill="#000000" font-family="sans-serif" font-size="14" lengthAdjust="spacing" textLength="79" x="1759.5" y="1470.5918">&#171;repository&#187;</text><text fill="#000000" font-family="sans-serif" font-size="14" lengthAdjust="spacing" textLength="191" x="1705.5" y="1489.2129">OperationRequestsRepository</text><rect fill="#E2E2F0" height="51.2422" rx="2.5" ry="2.5" style="stroke:#181818;stroke-width:0.5;" width="171" x="1913.5" y="1448.4844"/><text fill="#000000" font-family="sans-serif" font-size="14" lengthAdjust="spacing" textLength="36" x="1981" y="1470.5918">&#171;dto&#187;</text><text fill="#000000" font-family="sans-serif" font-size="14" lengthAdjust="spacing" textLength="153" x="1924.5" y="1489.2129">OperationRequestsDTO</text><rect fill="#E2E2F0" height="32.6211" rx="2.5" ry="2.5" style="stroke:#181818;stroke-width:0.5;" width="130" x="2094.5" y="63.2422"/><text fill="#000000" font-family="sans-serif" font-size="14" lengthAdjust="spacing" textLength="116" x="2101.5" y="85.3496">OperationRequest</text><rect fill="#E2E2F0" height="32.6211" rx="2.5" ry="2.5" style="stroke:#181818;stroke-width:0.5;" width="130" x="2094.5" y="1448.4844"/><text fill="#000000" font-family="sans-serif" font-size="14" lengthAdjust="spacing" textLength="116" x="2101.5" y="1470.5918">OperationRequest</text><rect fill="#FFFFFF" height="701.0918" style="stroke:#181818;stroke-width:1.0;" width="10" x="205" y="130.1543"/><rect fill="#FFFFFF" height="536.9473" style="stroke:#181818;stroke-width:1.0;" width="10" x="205" y="887.5371"/><rect fill="#FFFFFF" height="638.5098" style="stroke:#181818;stroke-width:1.0;" width="10" x="536" y="161.4453"/><rect fill="#FFFFFF" height="28" style="stroke:#181818;stroke-width:1.0;" width="10" x="541" y="733.6641"/><rect fill="#FFFFFF" height="400.1523" style="stroke:#181818;stroke-width:1.0;" width="10" x="536" y="918.8281"/><rect fill="#FFFFFF" height="280.9395" style="stroke:#181818;stroke-width:1.0;" width="10" x="765" y="192.7363"/><rect fill="#FFFFFF" height="31.291" style="stroke:#181818;stroke-width:1.0;" width="10" x="957" y="348.8516"/><rect fill="#FFFFFF" height="93.5332" style="stroke:#181818;stroke-width:1.0;" width="10" x="1158.5" y="224.0273"/><rect fill="#FFFFFF" height="189.4063" style="stroke:#181818;stroke-width:1.0;" width="10" x="1441.5" y="504.9668"/><rect fill="#FFFFFF" height="337.5703" style="stroke:#181818;stroke-width:1.0;" width="10" x="1441.5" y="950.1191"/><rect fill="#FFFFFF" height="31.291" style="stroke:#181818;stroke-width:1.0;" width="10" x="1794" y="536.2578"/><rect fill="#FFFFFF" height="31.291" style="stroke:#181818;stroke-width:1.0;" width="10" x="1794" y="981.4102"/><rect fill="#FFFFFF" height="31.291" style="stroke:#181818;stroke-width:1.0;" width="10" x="1794" y="1162.8652"/><ellipse cx="7.5" cy="129.4043" fill="none" rx="4" ry="4" style="stroke:#181818;stroke-width:1.5;"/><polygon fill="#181818" points="193,126.1543,203,130.1543,193,134.1543,197,130.1543" style="stroke:#181818;stroke-width:1.0;"/><line style="stroke:#181818;stroke-width:1.0;" x1="12" x2="199" y1="130.1543" y2="130.1543"/><text fill="#000000" font-family="sans-serif" font-size="13" font-weight="bold" lengthAdjust="spacing" textLength="7" x="15" y="124.8916">1</text><text fill="#000000" font-family="sans-serif" font-size="13" lengthAdjust="spacing" textLength="167" x="26" y="124.8916">GET() /api/OperationRequest</text><polygon fill="#181818" points="524,157.4453,534,161.4453,524,165.4453,528,161.4453" style="stroke:#181818;stroke-width:1.0;"/><line style="stroke:#181818;stroke-width:1.0;" x1="215" x2="530" y1="161.4453" y2="161.4453"/><text fill="#000000" font-family="sans-serif" font-size="13" font-weight="bold" lengthAdjust="spacing" textLength="7" x="222" y="156.1826">2</text><text fill="#000000" font-family="sans-serif" font-size="13" lengthAdjust="spacing" textLength="191" x="233" y="156.1826">getOperationRequestsByDoctor()</text><polygon fill="#181818" points="753,188.7363,763,192.7363,753,196.7363,757,192.7363" style="stroke:#181818;stroke-width:1.0;"/><line style="stroke:#181818;stroke-width:1.0;" x1="546" x2="759" y1="192.7363" y2="192.7363"/><text fill="#000000" font-family="sans-serif" font-size="13" font-weight="bold" lengthAdjust="spacing" textLength="7" x="553" y="187.4736">3</text><text fill="#000000" font-family="sans-serif" font-size="13" lengthAdjust="spacing" textLength="155" x="564" y="187.4736">findCurrentSessionDoctor()</text><polygon fill="#181818" points="1146.5,220.0273,1156.5,224.0273,1146.5,228.0273,1150.5,224.0273" style="stroke:#181818;stroke-width:1.0;"/><line style="stroke:#181818;stroke-width:1.0;" x1="775" x2="1152.5" y1="224.0273" y2="224.0273"/><text fill="#000000" font-family="sans-serif" font-size="13" font-weight="bold" lengthAdjust="spacing" textLength="7" x="782" y="218.7646">4</text><text fill="#000000" font-family="sans-serif" font-size="13" lengthAdjust="spacing" textLength="100" x="793" y="218.7646">getSessionUser()</text><polygon fill="#181818" points="1261.5,251.3184,1271.5,255.3184,1261.5,259.3184,1265.5,255.3184" style="stroke:#181818;stroke-width:1.0;"/><line style="stroke:#181818;stroke-width:1.0;" x1="1168.5" x2="1267.5" y1="255.3184" y2="255.3184"/><text fill="#000000" font-family="sans-serif" font-size="13" font-weight="bold" lengthAdjust="spacing" textLength="7" x="1175.5" y="250.0557">5</text><text fill="#000000" font-family="sans-serif" font-size="13" lengthAdjust="spacing" textLength="70" x="1186.5" y="250.0557">toDTO(user)</text><rect fill="#E2E2F0" height="51.2422" rx="2.5" ry="2.5" style="stroke:#181818;stroke-width:0.5;" width="69" x="1273.5" y="232.0273"/><text fill="#000000" font-family="sans-serif" font-size="14" lengthAdjust="spacing" textLength="36" x="1290" y="254.1348">&#171;dto&#187;</text><text fill="#000000" font-family="sans-serif" font-size="14" lengthAdjust="spacing" textLength="51" x="1284.5" y="272.7559">UserDto</text><polygon fill="#181818" points="786,313.5605,776,317.5605,786,321.5605,782,317.5605" style="stroke:#181818;stroke-width:1.0;"/><line style="stroke:#181818;stroke-width:1.0;stroke-dasharray:2.0,2.0;" x1="780" x2="1162.5" y1="317.5605" y2="317.5605"/><text fill="#000000" font-family="sans-serif" font-size="13" font-weight="bold" lengthAdjust="spacing" textLength="7" x="792" y="312.2979">6</text><text fill="#000000" font-family="sans-serif" font-size="13" lengthAdjust="spacing" textLength="45" x="803" y="312.2979">userDto</text><polygon fill="#181818" points="945,344.8516,955,348.8516,945,352.8516,949,348.8516" style="stroke:#181818;stroke-width:1.0;"/><line style="stroke:#181818;stroke-width:1.0;" x1="775" x2="951" y1="348.8516" y2="348.8516"/><text fill="#000000" font-family="sans-serif" font-size="13" font-weight="bold" lengthAdjust="spacing" textLength="7" x="782" y="343.5889">7</text><text fill="#000000" font-family="sans-serif" font-size="13" lengthAdjust="spacing" textLength="152" x="793" y="343.5889">getDoctorByUser(userDto)</text><polygon fill="#181818" points="786,376.1426,776,380.1426,786,384.1426,782,380.1426" style="stroke:#181818;stroke-width:1.0;"/><line style="stroke:#181818;stroke-width:1.0;stroke-dasharray:2.0,2.0;" x1="780" x2="961" y1="380.1426" y2="380.1426"/><text fill="#000000" font-family="sans-serif" font-size="13" font-weight="bold" lengthAdjust="spacing" textLength="7" x="792" y="374.8799">8</text><text fill="#000000" font-family="sans-serif" font-size="13" lengthAdjust="spacing" textLength="36" x="803" y="374.8799">doctor</text><polygon fill="#181818" points="1017.5,407.4336,1027.5,411.4336,1017.5,415.4336,1021.5,411.4336" style="stroke:#181818;stroke-width:1.0;"/><line style="stroke:#181818;stroke-width:1.0;stroke-dasharray:2.0,2.0;" x1="775" x2="1023.5" y1="411.4336" y2="411.4336"/><text fill="#000000" font-family="sans-serif" font-size="13" font-weight="bold" lengthAdjust="spacing" textLength="7" x="782" y="406.1709">9</text><text fill="#000000" font-family="sans-serif" font-size="13" lengthAdjust="spacing" textLength="81" x="793" y="406.1709">toDTO(doctor)</text><rect fill="#E2E2F0" height="51.2422" rx="2.5" ry="2.5" style="stroke:#181818;stroke-width:0.5;" width="77" x="1029.5" y="388.1426"/><text fill="#000000" font-family="sans-serif" font-size="14" lengthAdjust="spacing" textLength="36" x="1050" y="410.25">&#171;dto&#187;</text><text fill="#000000" font-family="sans-serif" font-size="14" lengthAdjust="spacing" textLength="59" x="1040.5" y="428.8711">StaffDTO</text><polygon fill="#181818" points="557,469.6758,547,473.6758,557,477.6758,553,473.6758" style="stroke:#181818;stroke-width:1.0;"/><line style="stroke:#181818;stroke-width:1.0;stroke-dasharray:2.0,2.0;" x1="551" x2="769" y1="473.6758" y2="473.6758"/><text fill="#000000" font-family="sans-serif" font-size="13" font-weight="bold" lengthAdjust="spacing" textLength="14" x="563" y="468.4131">10</text><text fill="#000000" font-family="sans-serif" font-size="13" lengthAdjust="spacing" textLength="62" x="581" y="468.4131">doctorDTO</text><polygon fill="#181818" points="1429.5,500.9668,1439.5,504.9668,1429.5,508.9668,1433.5,504.9668" style="stroke:#181818;stroke-width:1.0;"/><line style="stroke:#181818;stroke-width:1.0;" x1="546" x2="1435.5" y1="504.9668" y2="504.9668"/><text fill="#000000" font-family="sans-serif" font-size="13" font-weight="bold" lengthAdjust="spacing" textLength="14" x="553" y="499.7041">11</text><text fill="#000000" font-family="sans-serif" font-size="13" lengthAdjust="spacing" textLength="253" x="571" y="499.7041">getOperationRequestsByDoctor(doctorDTO)</text><polygon fill="#181818" points="1782,532.2578,1792,536.2578,1782,540.2578,1786,536.2578" style="stroke:#181818;stroke-width:1.0;"/><line style="stroke:#181818;stroke-width:1.0;" x1="1451.5" x2="1788" y1="536.2578" y2="536.2578"/><text fill="#000000" font-family="sans-serif" font-size="13" font-weight="bold" lengthAdjust="spacing" textLength="14" x="1458.5" y="530.9951">12</text><text fill="#000000" font-family="sans-serif" font-size="13" lengthAdjust="spacing" textLength="159" x="1476.5" y="530.9951">findAllByDoctor(doctorDTO)</text><polygon fill="#181818" points="1462.5,563.5488,1452.5,567.5488,1462.5,571.5488,1458.5,567.5488" style="stroke:#181818;stroke-width:1.0;"/><line style="stroke:#181818;stroke-width:1.0;stroke-dasharray:2.0,2.0;" x1="1456.5" x2="1798" y1="567.5488" y2="567.5488"/><text fill="#000000" font-family="sans-serif" font-size="13" font-weight="bold" lengthAdjust="spacing" textLength="14" x="1468.5" y="562.2861">13</text><text fill="#000000" font-family="sans-serif" font-size="13" lengthAdjust="spacing" textLength="129" x="1486.5" y="562.2861">operationRequestsList</text><path d="M1342.5,582.5488 L1415.5,582.5488 L1415.5,591.8398 L1405.5,601.8398 L1342.5,601.8398 L1342.5,582.5488 " fill="#EEEEEE" style="stroke:#000000;stroke-width:1.5;"/><rect fill="none" height="81.5332" style="stroke:#000000;stroke-width:1.5;" width="752" x="1342.5" y="582.5488"/><text fill="#000000" font-family="sans-serif" font-size="13" font-weight="bold" lengthAdjust="spacing" textLength="28" x="1357.5" y="597.5771">loop</text><text fill="#000000" font-family="sans-serif" font-size="11" font-weight="bold" lengthAdjust="spacing" textLength="170" x="1430.5" y="596.4189">[for all the elements in the list]</text><polygon fill="#181818" points="1901.5,621.1309,1911.5,625.1309,1901.5,629.1309,1905.5,625.1309" style="stroke:#181818;stroke-width:1.0;"/><line style="stroke:#181818;stroke-width:1.0;" x1="1451.5" x2="1907.5" y1="625.1309" y2="625.1309"/><text fill="#000000" font-family="sans-serif" font-size="13" font-weight="bold" lengthAdjust="spacing" textLength="14" x="1458.5" y="619.8682">14</text><text fill="#000000" font-family="sans-serif" font-size="13" lengthAdjust="spacing" textLength="153" x="1476.5" y="619.8682">toDTO(operationRequests)</text><rect fill="#E2E2F0" height="51.2422" rx="2.5" ry="2.5" style="stroke:#181818;stroke-width:0.5;" width="171" x="1913.5" y="601.8398"/><text fill="#000000" font-family="sans-serif" font-size="14" lengthAdjust="spacing" textLength="36" x="1981" y="623.9473">&#171;dto&#187;</text><text fill="#000000" font-family="sans-serif" font-size="14" lengthAdjust="spacing" textLength="153" x="1924.5" y="642.5684">OperationRequestsDTO</text><polygon fill="#181818" points="557,690.373,547,694.373,557,698.373,553,694.373" style="stroke:#181818;stroke-width:1.0;"/><line style="stroke:#181818;stroke-width:1.0;stroke-dasharray:2.0,2.0;" x1="551" x2="1445.5" y1="694.373" y2="694.373"/><text fill="#000000" font-family="sans-serif" font-size="13" font-weight="bold" lengthAdjust="spacing" textLength="14" x="563" y="689.1104">15</text><text fill="#000000" font-family="sans-serif" font-size="13" lengthAdjust="spacing" textLength="155" x="581" y="689.1104">operationRequestsDTOList</text><line style="stroke:#181818;stroke-width:1.0;" x1="551" x2="593" y1="725.6641" y2="725.6641"/><line style="stroke:#181818;stroke-width:1.0;" x1="593" x2="593" y1="725.6641" y2="738.6641"/><line style="stroke:#181818;stroke-width:1.0;" x1="552" x2="593" y1="738.6641" y2="738.6641"/><polygon fill="#181818" points="562,734.6641,552,738.6641,562,742.6641,558,738.6641" style="stroke:#181818;stroke-width:1.0;"/><text fill="#000000" font-family="sans-serif" font-size="13" font-weight="bold" lengthAdjust="spacing" textLength="14" x="558" y="720.4014">16</text><text fill="#000000" font-family="sans-serif" font-size="13" lengthAdjust="spacing" textLength="187" x="576" y="720.4014">json(operationRequestsDTOList)</text><polygon fill="#181818" points="226,795.9551,216,799.9551,226,803.9551,222,799.9551" style="stroke:#181818;stroke-width:1.0;"/><line style="stroke:#181818;stroke-width:1.0;stroke-dasharray:2.0,2.0;" x1="220" x2="540" y1="799.9551" y2="799.9551"/><text fill="#000000" font-family="sans-serif" font-size="13" font-weight="bold" lengthAdjust="spacing" textLength="14" x="232" y="794.6924">17</text><text fill="#000000" font-family="sans-serif" font-size="13" lengthAdjust="spacing" textLength="24" x="250" y="794.6924">json</text><ellipse cx="7.5" cy="830.4961" fill="none" rx="4" ry="4" style="stroke:#181818;stroke-width:1.5;"/><polygon fill="#181818" points="24.5,827.2461,14.5,831.2461,24.5,835.2461,20.5,831.2461" style="stroke:#181818;stroke-width:1.0;"/><line style="stroke:#181818;stroke-width:1.0;" x1="22.5" x2="209" y1="831.2461" y2="831.2461"/><text fill="#000000" font-family="sans-serif" font-size="13" font-weight="bold" lengthAdjust="spacing" textLength="14" x="25" y="825.9834">18</text><text fill="#000000" font-family="sans-serif" font-size="13" lengthAdjust="spacing" textLength="46" x="43" y="825.9834">ok(json)</text><ellipse cx="7.5" cy="886.7871" fill="none" rx="4" ry="4" style="stroke:#181818;stroke-width:1.5;"/><polygon fill="#181818" points="193,883.5371,203,887.5371,193,891.5371,197,887.5371" style="stroke:#181818;stroke-width:1.0;"/><line style="stroke:#181818;stroke-width:1.0;" x1="12" x2="199" y1="887.5371" y2="887.5371"/><text fill="#000000" font-family="sans-serif" font-size="13" font-weight="bold" lengthAdjust="spacing" textLength="14" x="15" y="882.2744">19</text><text fill="#000000" font-family="sans-serif" font-size="13" lengthAdjust="spacing" textLength="57" x="33" y="882.2744">PUT(json)</text><polygon fill="#181818" points="524,914.8281,534,918.8281,524,922.8281,528,918.8281" style="stroke:#181818;stroke-width:1.0;"/><line style="stroke:#181818;stroke-width:1.0;" x1="215" x2="530" y1="918.8281" y2="918.8281"/><text fill="#000000" font-family="sans-serif" font-size="13" font-weight="bold" lengthAdjust="spacing" textLength="14" x="222" y="913.5654">20</text><text fill="#000000" font-family="sans-serif" font-size="13" lengthAdjust="spacing" textLength="284" x="240" y="913.5654">Update(idString, updatedOperationRequestsDTO)</text><polygon fill="#181818" points="1429.5,946.1191,1439.5,950.1191,1429.5,954.1191,1433.5,950.1191" style="stroke:#181818;stroke-width:1.0;"/><line style="stroke:#181818;stroke-width:1.0;" x1="546" x2="1435.5" y1="950.1191" y2="950.1191"/><text fill="#000000" font-family="sans-serif" font-size="13" font-weight="bold" lengthAdjust="spacing" textLength="14" x="553" y="944.8564">21</text><text fill="#000000" font-family="sans-serif" font-size="13" lengthAdjust="spacing" textLength="269" x="571" y="944.8564">UpdateAsync(updatedOperationRequestsDTO)</text><polygon fill="#181818" points="1782,977.4102,1792,981.4102,1782,985.4102,1786,981.4102" style="stroke:#181818;stroke-width:1.0;"/><line style="stroke:#181818;stroke-width:1.0;" x1="1451.5" x2="1788" y1="981.4102" y2="981.4102"/><text fill="#000000" font-family="sans-serif" font-size="13" font-weight="bold" lengthAdjust="spacing" textLength="14" x="1458.5" y="976.1475">22</text><text fill="#000000" font-family="sans-serif" font-size="13" lengthAdjust="spacing" textLength="124" x="1476.5" y="976.1475">GetByIdAsync(dto.Id)</text><polygon fill="#181818" points="1462.5,1008.7012,1452.5,1012.7012,1462.5,1016.7012,1458.5,1012.7012" style="stroke:#181818;stroke-width:1.0;"/><line style="stroke:#181818;stroke-width:1.0;stroke-dasharray:2.0,2.0;" x1="1456.5" x2="1798" y1="1012.7012" y2="1012.7012"/><text fill="#000000" font-family="sans-serif" font-size="13" font-weight="bold" lengthAdjust="spacing" textLength="14" x="1468.5" y="1007.4385">23</text><text fill="#000000" font-family="sans-serif" font-size="13" lengthAdjust="spacing" textLength="101" x="1486.5" y="1007.4385">operationRequest</text><polygon fill="#181818" points="2147.5,1039.9922,2157.5,1043.9922,2147.5,1047.9922,2151.5,1043.9922" style="stroke:#181818;stroke-width:1.0;"/><line style="stroke:#181818;stroke-width:1.0;" x1="1451.5" x2="2153.5" y1="1043.9922" y2="1043.9922"/><text fill="#000000" font-family="sans-serif" font-size="13" font-weight="bold" lengthAdjust="spacing" textLength="14" x="1458.5" y="1038.7295">24</text><text fill="#000000" font-family="sans-serif" font-size="13" lengthAdjust="spacing" textLength="236" x="1476.5" y="1038.7295">ChangeDeadLineDate(dto.DeadLineDate)</text><polygon fill="#181818" points="2147.5,1071.2832,2157.5,1075.2832,2147.5,1079.2832,2151.5,1075.2832" style="stroke:#181818;stroke-width:1.0;"/><line style="stroke:#181818;stroke-width:1.0;" x1="1451.5" x2="2153.5" y1="1075.2832" y2="1075.2832"/><text fill="#000000" font-family="sans-serif" font-size="13" font-weight="bold" lengthAdjust="spacing" textLength="14" x="1458.5" y="1070.0205">25</text><text fill="#000000" font-family="sans-serif" font-size="13" lengthAdjust="spacing" textLength="156" x="1476.5" y="1070.0205">ChangePriority(dto.Priority)</text><polygon fill="#181818" points="2147.5,1102.5742,2157.5,1106.5742,2147.5,1110.5742,2151.5,1106.5742" style="stroke:#181818;stroke-width:1.0;"/><line style="stroke:#181818;stroke-width:1.0;" x1="1451.5" x2="2153.5" y1="1106.5742" y2="1106.5742"/><text fill="#000000" font-family="sans-serif" font-size="13" font-weight="bold" lengthAdjust="spacing" textLength="14" x="1458.5" y="1101.3115">26</text><text fill="#000000" font-family="sans-serif" font-size="13" lengthAdjust="spacing" textLength="274" x="1476.5" y="1101.3115">opRequest.ChangeDescription(dto.Description);</text><polygon fill="#181818" points="1782,1158.8652,1792,1162.8652,1782,1166.8652,1786,1162.8652" style="stroke:#181818;stroke-width:1.0;"/><line style="stroke:#181818;stroke-width:1.0;" x1="1451.5" x2="1788" y1="1162.8652" y2="1162.8652"/><text fill="#000000" font-family="sans-serif" font-size="13" font-weight="bold" lengthAdjust="spacing" textLength="14" x="1458.5" y="1157.6025">27</text><text fill="#000000" font-family="sans-serif" font-size="13" lengthAdjust="spacing" textLength="135" x="1476.5" y="1157.6025">save(operationRequest)</text><polygon fill="#181818" points="1462.5,1190.1563,1452.5,1194.1563,1462.5,1198.1563,1458.5,1194.1563" style="stroke:#181818;stroke-width:1.0;"/><line style="stroke:#181818;stroke-width:1.0;stroke-dasharray:2.0,2.0;" x1="1456.5" x2="1798" y1="1194.1563" y2="1194.1563"/><text fill="#000000" font-family="sans-serif" font-size="13" font-weight="bold" lengthAdjust="spacing" textLength="14" x="1468.5" y="1188.8936">28</text><text fill="#000000" font-family="sans-serif" font-size="13" lengthAdjust="spacing" textLength="33" x="1486.5" y="1188.8936">return</text><polygon fill="#181818" points="1901.5,1221.4473,1911.5,1225.4473,1901.5,1229.4473,1905.5,1225.4473" style="stroke:#181818;stroke-width:1.0;"/><line style="stroke:#181818;stroke-width:1.0;" x1="1451.5" x2="1907.5" y1="1225.4473" y2="1225.4473"/><text fill="#000000" font-family="sans-serif" font-size="13" font-weight="bold" lengthAdjust="spacing" textLength="14" x="1458.5" y="1220.1846">29</text><text fill="#000000" font-family="sans-serif" font-size="13" lengthAdjust="spacing" textLength="146" x="1476.5" y="1220.1846">toDTO(operationRequest)</text><rect fill="#E2E2F0" height="51.2422" rx="2.5" ry="2.5" style="stroke:#181818;stroke-width:0.5;" width="171" x="1913.5" y="1202.1563"/><text fill="#000000" font-family="sans-serif" font-size="14" lengthAdjust="spacing" textLength="36" x="1981" y="1224.2637">&#171;dto&#187;</text><text fill="#000000" font-family="sans-serif" font-size="14" lengthAdjust="spacing" textLength="153" x="1924.5" y="1242.8848">OperationRequestsDTO</text><polygon fill="#181818" points="557,1283.6895,547,1287.6895,557,1291.6895,553,1287.6895" style="stroke:#181818;stroke-width:1.0;"/><line style="stroke:#181818;stroke-width:1.0;stroke-dasharray:2.0,2.0;" x1="551" x2="1445.5" y1="1287.6895" y2="1287.6895"/><text fill="#000000" font-family="sans-serif" font-size="13" font-weight="bold" lengthAdjust="spacing" textLength="14" x="563" y="1282.4268">30</text><text fill="#000000" font-family="sans-serif" font-size="13" lengthAdjust="spacing" textLength="121" x="581" y="1282.4268">operationRequestDto</text><polygon fill="#181818" points="226,1314.9805,216,1318.9805,226,1322.9805,222,1318.9805" style="stroke:#181818;stroke-width:1.0;"/><line style="stroke:#181818;stroke-width:1.0;stroke-dasharray:2.0,2.0;" x1="220" x2="540" y1="1318.9805" y2="1318.9805"/><text fill="#000000" font-family="sans-serif" font-size="13" font-weight="bold" lengthAdjust="spacing" textLength="14" x="232" y="1313.7178">31</text><text fill="#000000" font-family="sans-serif" font-size="13" lengthAdjust="spacing" textLength="121" x="250" y="1313.7178">operationRequestDto</text><path d="M11,1333.9805 L72,1333.9805 L72,1343.2715 L62,1353.2715 L11,1353.2715 L11,1333.9805 " fill="#EEEEEE" style="stroke:#000000;stroke-width:1.5;"/><rect fill="none" height="98.5039" style="stroke:#000000;stroke-width:1.5;" width="242.5" x="11" y="1333.9805"/><text fill="#000000" font-family="sans-serif" font-size="13" font-weight="bold" lengthAdjust="spacing" textLength="16" x="26" y="1349.0088">alt</text><text fill="#000000" font-family="sans-serif" font-size="11" font-weight="bold" lengthAdjust="spacing" textLength="55" x="87" y="1347.8506">[success]</text><ellipse cx="7.5" cy="1375.8125" fill="none" rx="4" ry="4" style="stroke:#181818;stroke-width:1.5;"/><polygon fill="#181818" points="24.5,1372.5625,14.5,1376.5625,24.5,1380.5625,20.5,1376.5625" style="stroke:#181818;stroke-width:1.0;"/><line style="stroke:#181818;stroke-width:1.0;stroke-dasharray:2.0,2.0;" x1="22.5" x2="204" y1="1376.5625" y2="1376.5625"/><text fill="#000000" font-family="sans-serif" font-size="13" font-weight="bold" lengthAdjust="spacing" textLength="14" x="25" y="1371.2998">32</text><text fill="#000000" font-family="sans-serif" font-size="13" lengthAdjust="spacing" textLength="44" x="43" y="1371.2998">200 OK</text><line style="stroke:#000000;stroke-width:1.0;stroke-dasharray:2.0,2.0;" x1="11" x2="253.5" y1="1385.5625" y2="1385.5625"/><text fill="#000000" font-family="sans-serif" font-size="11" font-weight="bold" lengthAdjust="spacing" textLength="43" x="16" y="1397.4326">[failure]</text><ellipse cx="7.5" cy="1423.7344" fill="none" rx="4" ry="4" style="stroke:#181818;stroke-width:1.5;"/><polygon fill="#181818" points="24.5,1420.4844,14.5,1424.4844,24.5,1428.4844,20.5,1424.4844" style="stroke:#181818;stroke-width:1.0;"/><line style="stroke:#181818;stroke-width:1.0;stroke-dasharray:2.0,2.0;" x1="22.5" x2="209" y1="1424.4844" y2="1424.4844"/><text fill="#000000" font-family="sans-serif" font-size="13" font-weight="bold" lengthAdjust="spacing" textLength="14" x="25" y="1419.2217">33</text><text fill="#000000" font-family="sans-serif" font-size="13" lengthAdjust="spacing" textLength="100" x="43" y="1419.2217">400 Bad Request</text><!--SRC=[fLR9Rjim5BppAuXS8WMrdNH1WJG8u2L9YngrwwMNzC9AjCEM9bMISc4W7rykMcXAZbtq9Z8pyuQFy-YSFocLoUjUBwE8gNn3kmdVz2J-dMEMu4vAq5gW3G2AA8hXsN8EttMlkbVlkt0gU8AbXDy8_WEZCTvY2j_4Pm2WN76MRtvW0K26X289oRGsFBkv4JnN-FRsEuCp_KNO-WmY2MUJvU8kX2QSAS4fnSBY9naMI17EPiQQL79O_Trg32TV5hF9k55HOh4bYQivLsYrchiDIvel-lVtPgFX4sTS4iN5hYREghsQQ_P2RgfuJHej9WvTB5xqjzGBtrv_kVZOvgwiOF0ZnIss-7vHlz53lzXaEhlxsbgDRn1XhG8bqQsEDB5HFMYeDV1IGni2PNCjqpONFFBEhSiJl8OFTuieXZsKaLx81IXHP8iKBi8774UJYo1f-XghHid1RiGJRJcAQuKgUYLLgrJ9qZehmj9XBWHcQgu7HgirDUeaWfggTSe8E3i5tTorJwvo0YgufXQ9W1SNcgouxa-KwwtOHmLEyo94AMxHtlDLfTyPSmSQxAopGYKydRrQK1F3ugdLy6k7jDfpCKt-sHmz3g7rTJg0YKbOmftFkxrg5ewbeDBq3biF4gXrIj6YPIOIVKgFwxZJrzHEu8w7riP4XzixeAT2ES_WYWk8A8Ng2KDCyKQ7KaB2x9eQRjDpqEX6ITrpp59evFUElDTztZAyhLuRbr5h_9ISHOU4MWRIasxEgFTE6DrMy2E_wLGe_YiomDX75e_7y_DpyFHCbui2VS93iynI3OX8EbT2_oQ-WhdTIDiUlBPt1vptUkSFM0rsdzA-tB7aO9XT9Ok9JYjoIfhzqf5-hRkVql_DyO48xri8E5fc-8JO6eymIiU4uP7fgl7ZRyGdYam5uOAedHKe5yV9F2k-kwKNcGYI6L1XfLh77rnm3lPLeYrkvFrVEokmoWKxgPyd37jy-eG7FoHjm-qDp15sdNL45PHvOlxrjFDP3-Zhoqiu-QmV8oenN252Su51W7chCGEKmfQOkVaqBvak0S1V]--></g></svg>