<?xml version="1.0" encoding="UTF-8" standalone="no"?><svg xmlns="http://www.w3.org/2000/svg" xmlns:xlink="http://www.w3.org/1999/xlink" contentStyleType="text/css" height="319px" preserveAspectRatio="none" style="width:839px;height:319px;background:#FFFFFF;" version="1.1" viewBox="0 0 839 319" width="839px" zoomAndPan="magnify"><defs/><g><!--cluster <<aggregate Specialization>>--><g id="cluster_&lt;&lt;aggregate Specialization&gt;&gt;"><path d="M8.5,6.8945 L262.5,6.8945 A3.75,3.75 0 0 1 265,9.3945 L272,38.0508 L829.5,38.0508 A2.5,2.5 0 0 1 832,40.5508 L832,310.3945 A2.5,2.5 0 0 1 829.5,312.8945 L8.5,312.8945 A2.5,2.5 0 0 1 6,310.3945 L6,9.3945 A2.5,2.5 0 0 1 8.5,6.8945 " fill="none" style="stroke:#000000;stroke-width:1.5;"/><line style="stroke:#000000;stroke-width:1.5;" x1="6" x2="272" y1="38.0508" y2="38.0508"/><text fill="#000000" font-family="sans-serif" font-size="20" font-weight="bold" lengthAdjust="spacing" textLength="253" x="10" y="29.6563">«aggregate Specialization»</text></g><!--class Specialization--><g id="elem_Specialization"><rect codeLine="8" fill="#F5F5DC" height="93.4688" id="Specialization" rx="2.5" ry="2.5" style="stroke:#181818;stroke-width:0.5;" width="153" x="352.5" y="50.8945"/><ellipse cx="368.5" cy="93.6289" fill="#ADD1B2" rx="12" ry="12" style="stroke:#181818;stroke-width:1.0;"/><path d="M366.4531,94.6914 L366.4531,97.6289 L371.5469,97.6289 L371.5469,96.5352 Q371.5469,95.8164 371.8281,95.5195 Q372.1094,95.207 372.5625,95.207 Q373,95.207 373.2813,95.5195 Q373.5625,95.8164 373.5625,96.5352 L373.5625,99.6289 L364.125,99.6289 Q363.4063,99.6289 363.0938,99.3477 Q362.7969,99.0664 362.7969,98.6289 Q362.7969,98.1758 363.1094,97.9102 Q363.4219,97.6289 364.125,97.6289 L364.4375,97.6289 L364.4375,89.8008 L364.125,89.8008 Q363.4063,89.8008 363.0938,89.5195 Q362.7969,89.2383 362.7969,88.7852 Q362.7969,88.332 363.0938,88.0664 Q363.4063,87.7852 364.125,87.7852 L373.1094,87.7852 L373.1094,90.832 Q373.1094,91.5508 372.8281,91.8633 Q372.5625,92.1602 372.125,92.1602 Q371.6719,92.1602 371.3906,91.8633 Q371.1094,91.5664 371.1094,90.832 L371.1094,89.8008 L366.4531,89.8008 L366.4531,92.6914 L368.2031,92.6914 Q368.2031,91.9102 368.3438,91.6758 Q368.6563,91.207 369.2031,91.207 Q369.6563,91.207 369.9219,91.5195 Q370.2031,91.8164 370.2031,92.5352 L370.2031,94.8477 Q370.2031,95.5039 370.0469,95.7227 Q369.7344,96.1758 369.2031,96.1758 Q368.6563,96.1758 368.3438,95.707 Q368.2031,95.4727 368.2031,94.6914 L366.4531,94.6914 Z " fill="#000000"/><text fill="#000000" font-family="sans-serif" font-size="20" font-style="italic" lengthAdjust="spacing" textLength="69" x="408.5" y="76.6563">«entity»</text><text fill="#000000" font-family="sans-serif" font-size="20" font-style="italic" lengthAdjust="spacing" textLength="56" x="415" y="101.8125">«root»</text><text fill="#000000" font-family="sans-serif" font-size="20" lengthAdjust="spacing" textLength="119" x="383.5" y="126.9688">Specialization</text><line style="stroke:#181818;stroke-width:0.5;" x1="353.5" x2="504.5" y1="136.3633" y2="136.3633"/></g><!--class SpecializationDenomination--><g id="elem_SpecializationDenomination"><rect codeLine="9" fill="#F5F5DC" height="68.3125" id="SpecializationDenomination" rx="2.5" ry="2.5" style="stroke:#181818;stroke-width:0.5;" width="271" x="22.5" y="216.3945"/><ellipse cx="38.5" cy="246.5508" fill="#FF8B40" rx="12" ry="12" style="stroke:#181818;stroke-width:1.0;"/><path d="M39,250.6289 L41.8906,243.7227 L41.4375,243.7227 Q40.7188,243.7227 40.4063,243.4414 Q40.0938,243.1602 40.0938,242.707 Q40.0938,242.2539 40.4063,241.9883 Q40.7188,241.707 41.4375,241.707 L44.125,241.707 Q44.8438,241.707 45.1563,241.9883 Q45.4688,242.2539 45.4688,242.707 Q45.4688,243.2539 45,243.5664 Q44.7656,243.7227 44.0781,243.7227 L39.9688,253.5508 L38.0469,253.5508 L33.9375,243.7227 Q33.2344,243.7227 33.0156,243.5664 Q32.5469,243.2539 32.5469,242.707 Q32.5469,242.2539 32.8594,241.9883 Q33.1563,241.707 33.875,241.707 L36.5781,241.707 Q37.2969,241.707 37.5938,241.9883 Q37.9063,242.2539 37.9063,242.707 Q37.9063,243.1602 37.6094,243.4414 Q37.3125,243.7227 36.5781,243.7227 L36.1094,243.7227 L39,250.6289 Z " fill="#000000"/><text fill="#000000" font-family="sans-serif" font-size="20" font-style="italic" lengthAdjust="spacing" textLength="128" x="108" y="242.1563">«value object»</text><text fill="#000000" font-family="sans-serif" font-size="20" lengthAdjust="spacing" textLength="237" x="53.5" y="267.3125">SpecializationDenomination</text><line style="stroke:#181818;stroke-width:0.5;" x1="23.5" x2="292.5" y1="276.707" y2="276.707"/></g><!--class SpecializationCode--><g id="elem_SpecializationCode"><rect codeLine="10" fill="#F5F5DC" height="93.4688" id="SpecializationCode" rx="2.5" ry="2.5" style="stroke:#181818;stroke-width:0.5;" width="200" x="329" y="203.8945"/><ellipse cx="345" cy="246.6289" fill="#FF8B40" rx="12" ry="12" style="stroke:#181818;stroke-width:1.0;"/><path d="M345.5,250.707 L348.3906,243.8008 L347.9375,243.8008 Q347.2188,243.8008 346.9063,243.5195 Q346.5938,243.2383 346.5938,242.7852 Q346.5938,242.332 346.9063,242.0664 Q347.2188,241.7852 347.9375,241.7852 L350.625,241.7852 Q351.3438,241.7852 351.6563,242.0664 Q351.9688,242.332 351.9688,242.7852 Q351.9688,243.332 351.5,243.6445 Q351.2656,243.8008 350.5781,243.8008 L346.4688,253.6289 L344.5469,253.6289 L340.4375,243.8008 Q339.7344,243.8008 339.5156,243.6445 Q339.0469,243.332 339.0469,242.7852 Q339.0469,242.332 339.3594,242.0664 Q339.6563,241.7852 340.375,241.7852 L343.0781,241.7852 Q343.7969,241.7852 344.0938,242.0664 Q344.4063,242.332 344.4063,242.7852 Q344.4063,243.2383 344.1094,243.5195 Q343.8125,243.8008 343.0781,243.8008 L342.6094,243.8008 L345.5,250.707 Z " fill="#000000"/><text fill="#000000" font-family="sans-serif" font-size="20" font-style="italic" lengthAdjust="spacing" textLength="128" x="379" y="229.6563">«value object»</text><text fill="#000000" font-family="sans-serif" font-size="20" font-style="italic" lengthAdjust="spacing" textLength="99" x="393.5" y="254.8125">«identifier»</text><text fill="#000000" font-family="sans-serif" font-size="20" lengthAdjust="spacing" textLength="166" x="360" y="279.9688">SpecializationCode</text><line style="stroke:#181818;stroke-width:0.5;" x1="330" x2="528" y1="289.3633" y2="289.3633"/></g><!--class SpecializationDescription--><g id="elem_SpecializationDescription"><rect codeLine="11" fill="#F5F5DC" height="68.3125" id="SpecializationDescription" rx="2.5" ry="2.5" style="stroke:#181818;stroke-width:0.5;" width="251" x="564.5" y="216.3945"/><ellipse cx="580.5" cy="246.5508" fill="#FF8B40" rx="12" ry="12" style="stroke:#181818;stroke-width:1.0;"/><path d="M581,250.6289 L583.8906,243.7227 L583.4375,243.7227 Q582.7188,243.7227 582.4063,243.4414 Q582.0938,243.1602 582.0938,242.707 Q582.0938,242.2539 582.4063,241.9883 Q582.7188,241.707 583.4375,241.707 L586.125,241.707 Q586.8438,241.707 587.1563,241.9883 Q587.4688,242.2539 587.4688,242.707 Q587.4688,243.2539 587,243.5664 Q586.7656,243.7227 586.0781,243.7227 L581.9688,253.5508 L580.0469,253.5508 L575.9375,243.7227 Q575.2344,243.7227 575.0156,243.5664 Q574.5469,243.2539 574.5469,242.707 Q574.5469,242.2539 574.8594,241.9883 Q575.1563,241.707 575.875,241.707 L578.5781,241.707 Q579.2969,241.707 579.5938,241.9883 Q579.9063,242.2539 579.9063,242.707 Q579.9063,243.1602 579.6094,243.4414 Q579.3125,243.7227 578.5781,243.7227 L578.1094,243.7227 L581,250.6289 Z " fill="#000000"/><text fill="#000000" font-family="sans-serif" font-size="20" font-style="italic" lengthAdjust="spacing" textLength="128" x="640" y="242.1563">«value object»</text><text fill="#000000" font-family="sans-serif" font-size="20" lengthAdjust="spacing" textLength="217" x="595.5" y="267.3125">SpecializationDescription</text><line style="stroke:#181818;stroke-width:0.5;" x1="565.5" x2="814.5" y1="276.707" y2="276.707"/></g><!--link Specialization to SpecializationDenomination--><g id="link_Specialization_SpecializationDenomination"><path codeLine="14" d="M352.43,141.0645 C311.37,163.9345 261.34,191.8145 222.32,213.5545 " fill="none" id="Specialization-to-SpecializationDenomination" style="stroke:#222222;stroke-width:1.0;"/><polygon fill="#222222" points="217.61,216.1745,227.42,215.3004,221.9808,213.7463,223.5348,208.3071,217.61,216.1745" style="stroke:#222222;stroke-width:1.0;"/><text fill="#000000" font-family="sans-serif" font-size="20" lengthAdjust="spacing" textLength="11" x="215.9102" y="203.8928">1</text></g><!--link Specialization to SpecializationCode--><g id="link_Specialization_SpecializationCode"><path codeLine="15" d="M429,144.1045 C429,161.2545 429,180.8445 429,198.4445 " fill="none" id="Specialization-to-SpecializationCode" style="stroke:#222222;stroke-width:1.0;"/><polygon fill="#222222" points="429,203.8345,433,194.8345,429,198.8345,425,194.8345,429,203.8345" style="stroke:#222222;stroke-width:1.0;"/><text fill="#000000" font-family="sans-serif" font-size="20" lengthAdjust="spacing" textLength="11" x="417.2609" y="191.6391">1</text></g><!--link Specialization to SpecializationDescription--><g id="link_Specialization_SpecializationDescription"><path codeLine="16" d="M505.55,142.6745 C544.57,165.2545 591.41,192.3545 628.12,213.5945 " fill="none" id="Specialization-to-SpecializationDescription" style="stroke:#222222;stroke-width:1.0;"/><polygon fill="#222222" points="632.55,216.1545,626.757,208.1895,628.2203,213.6539,622.7559,215.1171,632.55,216.1545" style="stroke:#222222;stroke-width:1.0;"/><text fill="#000000" font-family="sans-serif" font-size="20" lengthAdjust="spacing" textLength="34" x="585.7539" y="203.8694">0..1</text></g><!--SRC=[ZL1DQyCm3BtxLvZqii5QihB33YRGTWHsBkokEAgdnR62usoifVzzRah65afJdOJU1- -fhSWruA6sh2iiPOaxw6p8sOKjxL4kKz4E5AajjEqg14z55_1Li-ivgNYd4YNMJVYMCC3jMBW6NHdFdIitRDdB0idW7zBAU_uwGxDbFqA89eh0e4oK0cCy6WWejmrg0ajx2CGkovA3a77G1Oe9_gDIgVCzo-BgcKDS3iTUqCSQyL_GSKrkqDwzFSpo_7dzbDv_WkrGSl61Ui9Zm_4TrxHAnOV5L3j2FnMdrPwQoJGdZwCGe-xpUIQJn-HAnTiKfq8NcUbYSS7-DxBu0G00]--></g></svg>