<?xml version="1.0" encoding="UTF-8" standalone="no"?><svg xmlns="http://www.w3.org/2000/svg" xmlns:xlink="http://www.w3.org/1999/xlink" contentStyleType="text/css" height="1030px" preserveAspectRatio="none" style="width:1763px;height:1030px;background:#FFFFFF;" version="1.1" viewBox="0 0 1763 1030" width="1763px" zoomAndPan="magnify"><defs/><g><text fill="#000000" font-family="sans-serif" font-size="14" font-weight="bold" lengthAdjust="spacing" textLength="343" x="711.5" y="29.5332">US 7.2.13 - Process View [Level 3 | MDBackoffice]</text><rect fill="#FFFFFF" height="801.125" style="stroke:#181818;stroke-width:1.0;" width="10" x="289" y="150.0781"/><rect fill="#FFFFFF" height="557.1875" style="stroke:#181818;stroke-width:1.0;" width="10" x="755" y="264.5469"/><rect fill="#FFFFFF" height="478.875" style="stroke:#181818;stroke-width:1.0;" width="10" x="1148" y="303.7031"/><rect fill="#FFFFFF" height="39.1563" style="stroke:#181818;stroke-width:1.0;" width="10" x="1475" y="342.8594"/><rect fill="#FFFFFF" height="30" style="stroke:#181818;stroke-width:1.0;" width="10" x="1475" y="706.4219"/><rect fill="#FFFFFF" height="30" style="stroke:#181818;stroke-width:1.0;" width="10" x="1665.5" y="509.7969"/><rect fill="#FFFFFF" height="30" style="stroke:#181818;stroke-width:1.0;" width="10" x="1665.5" y="630.2656"/><rect fill="none" height="347.4063" style="stroke:#000000;stroke-width:1.5;" width="723" x="1034" y="397.0156"/><rect fill="none" height="106.4688" style="stroke:#000000;stroke-width:1.5;" width="703" x="1044" y="441.3281"/><rect fill="none" height="106.4688" style="stroke:#000000;stroke-width:1.5;" width="703" x="1044" y="561.7969"/><rect fill="none" height="107.4688" style="stroke:#000000;stroke-width:1.5;" width="385.5" x="11" y="836.7344"/><line style="stroke:#181818;stroke-width:0.5;stroke-dasharray:5.0,5.0;" x1="293.5" x2="293.5" y1="108.9219" y2="961.2031"/><line style="stroke:#181818;stroke-width:0.5;stroke-dasharray:5.0,5.0;" x1="542" x2="542" y1="205.7344" y2="961.2031"/><line style="stroke:#181818;stroke-width:0.5;stroke-dasharray:5.0,5.0;" x1="760" x2="760" y1="108.9219" y2="961.2031"/><line style="stroke:#181818;stroke-width:0.5;stroke-dasharray:5.0,5.0;" x1="1153" x2="1153" y1="108.9219" y2="961.2031"/><line style="stroke:#181818;stroke-width:0.5;stroke-dasharray:5.0,5.0;" x1="1480" x2="1480" y1="108.9219" y2="961.2031"/><line style="stroke:#181818;stroke-width:0.5;stroke-dasharray:5.0,5.0;" x1="1670" x2="1670" y1="108.9219" y2="961.2031"/><rect fill="#E2E2F0" height="64.3125" rx="2.5" ry="2.5" style="stroke:#181818;stroke-width:0.5;" width="185" x="201.5" y="43.6094"/><text fill="#000000" font-family="sans-serif" font-size="20" font-style="italic" lengthAdjust="spacing" textLength="67" x="260.5" y="71.3711">«route»</text><text fill="#000000" font-family="sans-serif" font-size="20" lengthAdjust="spacing" textLength="171" x="208.5" y="96.5273">SpecializationRoute</text><rect fill="#E2E2F0" height="64.3125" rx="2.5" ry="2.5" style="stroke:#181818;stroke-width:0.5;" width="185" x="201.5" y="960.2031"/><text fill="#000000" font-family="sans-serif" font-size="20" font-style="italic" lengthAdjust="spacing" textLength="67" x="260.5" y="987.9648">«route»</text><text fill="#000000" font-family="sans-serif" font-size="20" lengthAdjust="spacing" textLength="171" x="208.5" y="1013.1211">SpecializationRoute</text><rect fill="#E2E2F0" height="64.3125" rx="2.5" ry="2.5" style="stroke:#181818;stroke-width:0.5;" width="198" x="443" y="960.2031"/><text fill="#000000" font-family="sans-serif" font-size="20" font-style="italic" lengthAdjust="spacing" textLength="49" x="517.5" y="987.9648">«dto»</text><text fill="#000000" font-family="sans-serif" font-size="20" lengthAdjust="spacing" textLength="184" x="450" y="1013.1211">EditSpecializationDto</text><rect fill="#E2E2F0" height="64.3125" rx="2.5" ry="2.5" style="stroke:#181818;stroke-width:0.5;" width="218" x="651" y="43.6094"/><text fill="#000000" font-family="sans-serif" font-size="20" font-style="italic" lengthAdjust="spacing" textLength="105" x="707.5" y="71.3711">«controller»</text><text fill="#000000" font-family="sans-serif" font-size="20" lengthAdjust="spacing" textLength="204" x="658" y="96.5273">SpecializationController</text><rect fill="#E2E2F0" height="64.3125" rx="2.5" ry="2.5" style="stroke:#181818;stroke-width:0.5;" width="218" x="651" y="960.2031"/><text fill="#000000" font-family="sans-serif" font-size="20" font-style="italic" lengthAdjust="spacing" textLength="105" x="707.5" y="987.9648">«controller»</text><text fill="#000000" font-family="sans-serif" font-size="20" lengthAdjust="spacing" textLength="204" x="658" y="1013.1211">SpecializationController</text><rect fill="#E2E2F0" height="64.3125" rx="2.5" ry="2.5" style="stroke:#181818;stroke-width:0.5;" width="198" x="1054" y="43.6094"/><text fill="#000000" font-family="sans-serif" font-size="20" font-style="italic" lengthAdjust="spacing" textLength="86" x="1110" y="71.3711">«service»</text><text fill="#000000" font-family="sans-serif" font-size="20" lengthAdjust="spacing" textLength="184" x="1061" y="96.5273">SpecializationService</text><rect fill="#E2E2F0" height="64.3125" rx="2.5" ry="2.5" style="stroke:#181818;stroke-width:0.5;" width="198" x="1054" y="960.2031"/><text fill="#000000" font-family="sans-serif" font-size="20" font-style="italic" lengthAdjust="spacing" textLength="86" x="1110" y="987.9648">«service»</text><text fill="#000000" font-family="sans-serif" font-size="20" lengthAdjust="spacing" textLength="184" x="1061" y="1013.1211">SpecializationService</text><rect fill="#E2E2F0" height="64.3125" rx="2.5" ry="2.5" style="stroke:#181818;stroke-width:0.5;" width="228" x="1366" y="43.6094"/><text fill="#000000" font-family="sans-serif" font-size="20" font-style="italic" lengthAdjust="spacing" textLength="110" x="1425" y="71.3711">«repository»</text><text fill="#000000" font-family="sans-serif" font-size="20" lengthAdjust="spacing" textLength="214" x="1373" y="96.5273">SpecializationRepository</text><rect fill="#E2E2F0" height="64.3125" rx="2.5" ry="2.5" style="stroke:#181818;stroke-width:0.5;" width="228" x="1366" y="960.2031"/><text fill="#000000" font-family="sans-serif" font-size="20" font-style="italic" lengthAdjust="spacing" textLength="110" x="1425" y="987.9648">«repository»</text><text fill="#000000" font-family="sans-serif" font-size="20" lengthAdjust="spacing" textLength="214" x="1373" y="1013.1211">SpecializationRepository</text><rect fill="#E2E2F0" height="64.3125" rx="2.5" ry="2.5" style="stroke:#181818;stroke-width:0.5;" width="133" x="1604" y="43.6094"/><text fill="#000000" font-family="sans-serif" font-size="20" font-style="italic" lengthAdjust="spacing" textLength="88" x="1626.5" y="71.3711">«domain»</text><text fill="#000000" font-family="sans-serif" font-size="20" lengthAdjust="spacing" textLength="119" x="1611" y="96.5273">Specialization</text><rect fill="#E2E2F0" height="64.3125" rx="2.5" ry="2.5" style="stroke:#181818;stroke-width:0.5;" width="133" x="1604" y="960.2031"/><text fill="#000000" font-family="sans-serif" font-size="20" font-style="italic" lengthAdjust="spacing" textLength="88" x="1626.5" y="987.9648">«domain»</text><text fill="#000000" font-family="sans-serif" font-size="20" lengthAdjust="spacing" textLength="119" x="1611" y="1013.1211">Specialization</text><rect fill="#FFFFFF" height="801.125" style="stroke:#181818;stroke-width:1.0;" width="10" x="289" y="150.0781"/><rect fill="#FFFFFF" height="557.1875" style="stroke:#181818;stroke-width:1.0;" width="10" x="755" y="264.5469"/><rect fill="#FFFFFF" height="478.875" style="stroke:#181818;stroke-width:1.0;" width="10" x="1148" y="303.7031"/><rect fill="#FFFFFF" height="39.1563" style="stroke:#181818;stroke-width:1.0;" width="10" x="1475" y="342.8594"/><rect fill="#FFFFFF" height="30" style="stroke:#181818;stroke-width:1.0;" width="10" x="1475" y="706.4219"/><rect fill="#FFFFFF" height="30" style="stroke:#181818;stroke-width:1.0;" width="10" x="1665.5" y="509.7969"/><rect fill="#FFFFFF" height="30" style="stroke:#181818;stroke-width:1.0;" width="10" x="1665.5" y="630.2656"/><ellipse cx="7.5" cy="149.3281" fill="none" rx="4" ry="4" style="stroke:#181818;stroke-width:1.5;"/><polygon fill="#181818" points="277,146.0781,287,150.0781,277,154.0781,281,150.0781" style="stroke:#181818;stroke-width:1.0;"/><line style="stroke:#181818;stroke-width:1.0;" x1="12" x2="283" y1="150.0781" y2="150.0781"/><text fill="#000000" font-family="sans-serif" font-size="20" font-weight="bold" lengthAdjust="spacing" textLength="11" x="15" y="143.6836">1</text><text fill="#000000" font-family="sans-serif" font-size="20" lengthAdjust="spacing" textLength="247" x="30" y="143.6836">PUT(json) /api/specialization</text><polygon fill="#181818" points="431,185.2344,441,189.2344,431,193.2344,435,189.2344" style="stroke:#181818;stroke-width:1.0;"/><line style="stroke:#181818;stroke-width:1.0;" x1="299" x2="437" y1="189.2344" y2="189.2344"/><text fill="#000000" font-family="sans-serif" font-size="20" font-weight="bold" lengthAdjust="spacing" textLength="11" x="306" y="182.8398">2</text><text fill="#000000" font-family="sans-serif" font-size="20" lengthAdjust="spacing" textLength="105" x="321" y="182.8398">create(json)</text><rect fill="#E2E2F0" height="64.3125" rx="2.5" ry="2.5" style="stroke:#181818;stroke-width:0.5;" width="198" x="443" y="158.0781"/><text fill="#000000" font-family="sans-serif" font-size="20" font-style="italic" lengthAdjust="spacing" textLength="49" x="517.5" y="185.8398">«dto»</text><text fill="#000000" font-family="sans-serif" font-size="20" lengthAdjust="spacing" textLength="184" x="450" y="210.9961">EditSpecializationDto</text><polygon fill="#181818" points="743,260.5469,753,264.5469,743,268.5469,747,264.5469" style="stroke:#181818;stroke-width:1.0;"/><line style="stroke:#181818;stroke-width:1.0;" x1="299" x2="749" y1="264.5469" y2="264.5469"/><text fill="#000000" font-family="sans-serif" font-size="20" font-weight="bold" lengthAdjust="spacing" textLength="11" x="306" y="258.1523">3</text><text fill="#000000" font-family="sans-serif" font-size="20" lengthAdjust="spacing" textLength="349" x="321" y="258.1523">EditSpecialization(editSpecializationDto)</text><polygon fill="#181818" points="1136,299.7031,1146,303.7031,1136,307.7031,1140,303.7031" style="stroke:#181818;stroke-width:1.0;"/><line style="stroke:#181818;stroke-width:1.0;" x1="765" x2="1142" y1="303.7031" y2="303.7031"/><text fill="#000000" font-family="sans-serif" font-size="20" font-weight="bold" lengthAdjust="spacing" textLength="11" x="772" y="297.3086">4</text><text fill="#000000" font-family="sans-serif" font-size="20" lengthAdjust="spacing" textLength="349" x="787" y="297.3086">EditSpecialization(editSpecializationDto)</text><polygon fill="#181818" points="1463,338.8594,1473,342.8594,1463,346.8594,1467,342.8594" style="stroke:#181818;stroke-width:1.0;"/><line style="stroke:#181818;stroke-width:1.0;" x1="1158" x2="1469" y1="342.8594" y2="342.8594"/><text fill="#000000" font-family="sans-serif" font-size="20" font-weight="bold" lengthAdjust="spacing" textLength="11" x="1165" y="336.4648">5</text><text fill="#000000" font-family="sans-serif" font-size="20" lengthAdjust="spacing" textLength="283" x="1180" y="336.4648">FindSpecializationByCode(code)</text><polygon fill="#181818" points="1169,378.0156,1159,382.0156,1169,386.0156,1165,382.0156" style="stroke:#181818;stroke-width:1.0;"/><line style="stroke:#181818;stroke-width:1.0;stroke-dasharray:2.0,2.0;" x1="1163" x2="1479" y1="382.0156" y2="382.0156"/><text fill="#000000" font-family="sans-serif" font-size="20" font-weight="bold" lengthAdjust="spacing" textLength="11" x="1175" y="375.6211">6</text><text fill="#000000" font-family="sans-serif" font-size="20" lengthAdjust="spacing" textLength="116" x="1190" y="375.6211">specialization</text><path d="M1034,397.0156 L1102,397.0156 L1102,414.1719 L1092,424.1719 L1034,424.1719 L1034,397.0156 " fill="#EEEEEE" style="stroke:#000000;stroke-width:1.5;"/><rect fill="none" height="347.4063" style="stroke:#000000;stroke-width:1.5;" width="723" x="1034" y="397.0156"/><text fill="#000000" font-family="sans-serif" font-size="20" font-weight="bold" lengthAdjust="spacing" textLength="23" x="1049" y="418.7773">alt</text><text fill="#000000" font-family="sans-serif" font-size="20" font-weight="bold" lengthAdjust="spacing" textLength="207" x="1117" y="419.7773">[specialization != null]</text><path d="M1044,441.3281 L1112,441.3281 L1112,458.4844 L1102,468.4844 L1044,468.4844 L1044,441.3281 " fill="#EEEEEE" style="stroke:#000000;stroke-width:1.5;"/><rect fill="none" height="106.4688" style="stroke:#000000;stroke-width:1.5;" width="703" x="1044" y="441.3281"/><text fill="#000000" font-family="sans-serif" font-size="20" font-weight="bold" lengthAdjust="spacing" textLength="23" x="1059" y="463.0898">alt</text><text fill="#000000" font-family="sans-serif" font-size="20" font-weight="bold" lengthAdjust="spacing" textLength="229" x="1127" y="464.0898">[newDesignation != null]</text><polygon fill="#181818" points="1653.5,505.7969,1663.5,509.7969,1653.5,513.7969,1657.5,509.7969" style="stroke:#181818;stroke-width:1.0;"/><line style="stroke:#181818;stroke-width:1.0;" x1="1158" x2="1659.5" y1="509.7969" y2="509.7969"/><text fill="#000000" font-family="sans-serif" font-size="20" font-weight="bold" lengthAdjust="spacing" textLength="11" x="1165" y="503.4023">7</text><text fill="#000000" font-family="sans-serif" font-size="20" lengthAdjust="spacing" textLength="321" x="1180" y="503.4023">ChangeDesignation(newDesignation)</text><path d="M1044,561.7969 L1112,561.7969 L1112,578.9531 L1102,588.9531 L1044,588.9531 L1044,561.7969 " fill="#EEEEEE" style="stroke:#000000;stroke-width:1.5;"/><rect fill="none" height="106.4688" style="stroke:#000000;stroke-width:1.5;" width="703" x="1044" y="561.7969"/><text fill="#000000" font-family="sans-serif" font-size="20" font-weight="bold" lengthAdjust="spacing" textLength="23" x="1059" y="583.5586">alt</text><text fill="#000000" font-family="sans-serif" font-size="20" font-weight="bold" lengthAdjust="spacing" textLength="225" x="1127" y="584.5586">[newDescription != null]</text><polygon fill="#181818" points="1653.5,626.2656,1663.5,630.2656,1653.5,634.2656,1657.5,630.2656" style="stroke:#181818;stroke-width:1.0;"/><line style="stroke:#181818;stroke-width:1.0;" x1="1158" x2="1659.5" y1="630.2656" y2="630.2656"/><text fill="#000000" font-family="sans-serif" font-size="20" font-weight="bold" lengthAdjust="spacing" textLength="11" x="1165" y="623.8711">8</text><text fill="#000000" font-family="sans-serif" font-size="20" lengthAdjust="spacing" textLength="313" x="1180" y="623.8711">ChangeDescription(newDescription)</text><polygon fill="#181818" points="1463,702.4219,1473,706.4219,1463,710.4219,1467,706.4219" style="stroke:#181818;stroke-width:1.0;"/><line style="stroke:#181818;stroke-width:1.0;" x1="1158" x2="1469" y1="706.4219" y2="706.4219"/><text fill="#000000" font-family="sans-serif" font-size="20" font-weight="bold" lengthAdjust="spacing" textLength="11" x="1165" y="700.0273">9</text><text fill="#000000" font-family="sans-serif" font-size="20" lengthAdjust="spacing" textLength="171" x="1180" y="700.0273">save(specialization)</text><polygon fill="#181818" points="776,778.5781,766,782.5781,776,786.5781,772,782.5781" style="stroke:#181818;stroke-width:1.0;"/><line style="stroke:#181818;stroke-width:1.0;stroke-dasharray:2.0,2.0;" x1="770" x2="1152" y1="782.5781" y2="782.5781"/><text fill="#000000" font-family="sans-serif" font-size="20" font-weight="bold" lengthAdjust="spacing" textLength="22" x="782" y="776.1836">10</text><text fill="#000000" font-family="sans-serif" font-size="20" lengthAdjust="spacing" textLength="71" x="808" y="776.1836">success</text><polygon fill="#181818" points="310,817.7344,300,821.7344,310,825.7344,306,821.7344" style="stroke:#181818;stroke-width:1.0;"/><line style="stroke:#181818;stroke-width:1.0;stroke-dasharray:2.0,2.0;" x1="304" x2="759" y1="821.7344" y2="821.7344"/><text fill="#000000" font-family="sans-serif" font-size="20" font-weight="bold" lengthAdjust="spacing" textLength="22" x="316" y="815.3398">11</text><text fill="#000000" font-family="sans-serif" font-size="20" lengthAdjust="spacing" textLength="71" x="342" y="815.3398">success</text><path d="M11,836.7344 L79,836.7344 L79,853.8906 L69,863.8906 L11,863.8906 L11,836.7344 " fill="#EEEEEE" style="stroke:#000000;stroke-width:1.5;"/><rect fill="none" height="107.4688" style="stroke:#000000;stroke-width:1.5;" width="385.5" x="11" y="836.7344"/><text fill="#000000" font-family="sans-serif" font-size="20" font-weight="bold" lengthAdjust="spacing" textLength="23" x="26" y="858.4961">alt</text><ellipse cx="7.5" cy="894.2969" fill="none" rx="4" ry="4" style="stroke:#181818;stroke-width:1.5;"/><polygon fill="#181818" points="24.5,891.0469,14.5,895.0469,24.5,899.0469,20.5,895.0469" style="stroke:#181818;stroke-width:1.0;"/><line style="stroke:#181818;stroke-width:1.0;stroke-dasharray:2.0,2.0;" x1="22.5" x2="288" y1="895.0469" y2="895.0469"/><text fill="#000000" font-family="sans-serif" font-size="20" font-weight="bold" lengthAdjust="spacing" textLength="22" x="25" y="888.6523">12</text><text fill="#000000" font-family="sans-serif" font-size="20" lengthAdjust="spacing" textLength="122" x="51" y="888.6523">202 Accepted</text><line style="stroke:#000000;stroke-width:1.0;stroke-dasharray:2.0,2.0;" x1="11" x2="396.5" y1="904.0469" y2="904.0469"/><ellipse cx="7.5" cy="935.4531" fill="none" rx="4" ry="4" style="stroke:#181818;stroke-width:1.5;"/><polygon fill="#181818" points="24.5,932.2031,14.5,936.2031,24.5,940.2031,20.5,936.2031" style="stroke:#181818;stroke-width:1.0;"/><line style="stroke:#181818;stroke-width:1.0;stroke-dasharray:2.0,2.0;" x1="22.5" x2="288" y1="936.2031" y2="936.2031"/><text fill="#000000" font-family="sans-serif" font-size="20" font-weight="bold" lengthAdjust="spacing" textLength="22" x="25" y="929.8086">13</text><text fill="#000000" font-family="sans-serif" font-size="20" lengthAdjust="spacing" textLength="153" x="51" y="929.8086">400 Bad Request</text><!--SRC=[dPJRJjj048RlzocckNAG778eb5eKjJdG2YKYYftq0bNLOW_f5cVNtLqRWVhmdRL9i0D2AhwmvF7_pU7VWxaLCkEQRr8Lts822TxmFBNdIjfGF23qkunPOLE4rZA43vr-fpS07-PQnMWCh0JUmTKK2qnX07zXDXxo-5RTt8WOVxGOuxbLCjzSesPKnOfOP5nQQ8KPneAdue5ReUH2vHPRm0qiBfVH14vFjOkSdJMXII9i4nnRLM8PjpyJgmYazpxMH4OqcLPfYheaHz5YIbYyYxvEXwWB6gr4mzM8I5D5NiSMc2aZhDBtrPIJ-QKRSXTzdIuPGo4tdzfm8KbFpvNopoh70fWl8- -tKR8DXpmJXwQHWF7OYe9RhDICLJOJlJNku220M2D9gYmrYNCeWEVUU_ZIShIVQZcGiT9WIkFSUbCQ0Xbpj1lM6HV0kP194ndUZrI2Naol6khaD8c3_Ag50FQSIN1FpLExfu5tdq3cQSg07lTRujqOZLZBvx_TyzXhkM01Z7vnkSQQtclYxHstQyIHksYjmLqSPRBNJAn5zZ_DRFLU4tzhCwnMojb8DlC2lQQFLVActNj9orYPi4pskFkeSPF7xhwfBrUvBwhTzNGCNj1Lsv2ighgyKgU-lvNtkttuGaHcaMfYQl05qVjk5uOyWGN-oT4yfg4cOPUpFa5vm5pmCqdoJShOFAKplPnDeK1jt1hrEbHtqEbvOIxXWaleVuHUFpWw2OwEuViaScqDsipxEf-2KRcE4H9Xh1RNUUNZ1IyuB79fnGO3S5zUD6j3EDa6OI8BePNSeBJiOZMhHF1DqKbJjXGVl_U7meAxq533QiR6rSrFA9qY8TS1BADp_uHDQSlaV4s5Cij6YWheUxfledy0]--></g></svg>