<?xml version="1.0" encoding="us-ascii" standalone="no"?><svg xmlns="http://www.w3.org/2000/svg" xmlns:xlink="http://www.w3.org/1999/xlink" contentStyleType="text/css" height="841px" preserveAspectRatio="none" style="width:573px;height:841px;background:#FFFFFF;" version="1.1" viewBox="0 0 573 841" width="573px" zoomAndPan="magnify"><defs/><g><text fill="#000000" font-family="sans-serif" font-size="14" font-weight="bold" lengthAdjust="spacing" textLength="224" x="175.75" y="30.1074">US 6.2.N. Process View (Level 2)</text><rect fill="#FFFFFF" height="57.582" style="stroke:#181818;stroke-width:1.0;" width="10" x="37.5" y="250.4063"/><rect fill="#FFFFFF" height="38.291" style="stroke:#181818;stroke-width:1.0;" width="10" x="37.5" y="401.8613"/><rect fill="#FFFFFF" height="168.0859" style="stroke:#181818;stroke-width:1.0;" width="10" x="37.5" y="471.4434"/><rect fill="#FFFFFF" height="93.873" style="stroke:#181818;stroke-width:1.0;" width="10" x="266.5" y="156.5332"/><rect fill="#FFFFFF" height="93.873" style="stroke:#181818;stroke-width:1.0;" width="10" x="266.5" y="307.9883"/><rect fill="#FFFFFF" height="31.291" style="stroke:#181818;stroke-width:1.0;" width="10" x="266.5" y="440.1523"/><rect fill="#FFFFFF" height="211.377" style="stroke:#181818;stroke-width:1.0;" width="10" x="266.5" y="529.0254"/><rect fill="#FFFFFF" height="31.291" style="stroke:#181818;stroke-width:1.0;" width="10" x="501.5" y="187.8242"/><rect fill="#FFFFFF" height="31.291" style="stroke:#181818;stroke-width:1.0;" width="10" x="501.5" y="339.2793"/><rect fill="#FFFFFF" height="31.291" style="stroke:#181818;stroke-width:1.0;" width="10" x="501.5" y="560.3164"/><rect fill="#FFFFFF" height="31.291" style="stroke:#181818;stroke-width:1.0;" width="10" x="501.5" y="670.8203"/><rect fill="none" height="144.4551" style="stroke:#000000;stroke-width:1.5;" width="556.5" x="10" y="265.4063"/><rect fill="none" height="223.668" style="stroke:#000000;stroke-width:1.5;" width="556.5" x="10" y="486.4434"/><line style="stroke:#181818;stroke-width:0.5;stroke-dasharray:5.0,5.0;" x1="42" x2="42" y1="123.2422" y2="758.4023"/><line style="stroke:#181818;stroke-width:0.5;stroke-dasharray:5.0,5.0;" x1="271.5" x2="271.5" y1="123.2422" y2="758.4023"/><line style="stroke:#181818;stroke-width:0.5;stroke-dasharray:5.0,5.0;" x1="506.5" x2="506.5" y1="123.2422" y2="758.4023"/><text fill="#000000" font-family="sans-serif" font-size="14" lengthAdjust="spacing" textLength="39" x="20" y="119.7285">Admin</text><ellipse cx="42.5" cy="53.1211" fill="#E2E2F0" rx="8" ry="8" style="stroke:#181818;stroke-width:0.5;"/><path d="M42.5,61.1211 L42.5,88.1211 M29.5,69.1211 L55.5,69.1211 M42.5,88.1211 L29.5,103.1211 M42.5,88.1211 L55.5,103.1211 " fill="none" style="stroke:#181818;stroke-width:0.5;"/><text fill="#000000" font-family="sans-serif" font-size="14" lengthAdjust="spacing" textLength="39" x="20" y="772.5098">Admin</text><ellipse cx="42.5" cy="784.5234" fill="#E2E2F0" rx="8" ry="8" style="stroke:#181818;stroke-width:0.5;"/><path d="M42.5,792.5234 L42.5,819.5234 M29.5,800.5234 L55.5,800.5234 M42.5,819.5234 L29.5,834.5234 M42.5,819.5234 L55.5,834.5234 " fill="none" style="stroke:#181818;stroke-width:0.5;"/><rect fill="#E2E2F0" height="51.2422" rx="2.5" ry="2.5" style="stroke:#181818;stroke-width:0.5;" width="122" x="210.5" y="71"/><text fill="#000000" font-family="sans-serif" font-size="14" lengthAdjust="spacing" textLength="86" x="228.5" y="93.1074">&#171;component&#187;</text><text fill="#000000" font-family="sans-serif" font-size="14" lengthAdjust="spacing" textLength="104" x="221.5" y="111.7285">Visualization (UI)</text><rect fill="#E2E2F0" height="51.2422" rx="2.5" ry="2.5" style="stroke:#181818;stroke-width:0.5;" width="122" x="210.5" y="757.4023"/><text fill="#000000" font-family="sans-serif" font-size="14" lengthAdjust="spacing" textLength="86" x="228.5" y="779.5098">&#171;component&#187;</text><text fill="#000000" font-family="sans-serif" font-size="14" lengthAdjust="spacing" textLength="104" x="221.5" y="798.1309">Visualization (UI)</text><rect fill="#E2E2F0" height="51.2422" rx="2.5" ry="2.5" style="stroke:#181818;stroke-width:0.5;" width="100" x="456.5" y="71"/><text fill="#000000" font-family="sans-serif" font-size="14" lengthAdjust="spacing" textLength="86" x="463.5" y="93.1074">&#171;component&#187;</text><text fill="#000000" font-family="sans-serif" font-size="14" lengthAdjust="spacing" textLength="65" x="476" y="111.7285">Backoffice</text><rect fill="#E2E2F0" height="51.2422" rx="2.5" ry="2.5" style="stroke:#181818;stroke-width:0.5;" width="100" x="456.5" y="757.4023"/><text fill="#000000" font-family="sans-serif" font-size="14" lengthAdjust="spacing" textLength="86" x="463.5" y="779.5098">&#171;component&#187;</text><text fill="#000000" font-family="sans-serif" font-size="14" lengthAdjust="spacing" textLength="65" x="476" y="798.1309">Backoffice</text><rect fill="#FFFFFF" height="57.582" style="stroke:#181818;stroke-width:1.0;" width="10" x="37.5" y="250.4063"/><rect fill="#FFFFFF" height="38.291" style="stroke:#181818;stroke-width:1.0;" width="10" x="37.5" y="401.8613"/><rect fill="#FFFFFF" height="168.0859" style="stroke:#181818;stroke-width:1.0;" width="10" x="37.5" y="471.4434"/><rect fill="#FFFFFF" height="93.873" style="stroke:#181818;stroke-width:1.0;" width="10" x="266.5" y="156.5332"/><rect fill="#FFFFFF" height="93.873" style="stroke:#181818;stroke-width:1.0;" width="10" x="266.5" y="307.9883"/><rect fill="#FFFFFF" height="31.291" style="stroke:#181818;stroke-width:1.0;" width="10" x="266.5" y="440.1523"/><rect fill="#FFFFFF" height="211.377" style="stroke:#181818;stroke-width:1.0;" width="10" x="266.5" y="529.0254"/><rect fill="#FFFFFF" height="31.291" style="stroke:#181818;stroke-width:1.0;" width="10" x="501.5" y="187.8242"/><rect fill="#FFFFFF" height="31.291" style="stroke:#181818;stroke-width:1.0;" width="10" x="501.5" y="339.2793"/><rect fill="#FFFFFF" height="31.291" style="stroke:#181818;stroke-width:1.0;" width="10" x="501.5" y="560.3164"/><rect fill="#FFFFFF" height="31.291" style="stroke:#181818;stroke-width:1.0;" width="10" x="501.5" y="670.8203"/><polygon fill="#181818" points="254.5,152.5332,264.5,156.5332,254.5,160.5332,258.5,156.5332" style="stroke:#181818;stroke-width:1.0;"/><line style="stroke:#181818;stroke-width:1.0;" x1="42.5" x2="260.5" y1="156.5332" y2="156.5332"/><text fill="#000000" font-family="sans-serif" font-size="13" font-weight="bold" lengthAdjust="spacing" textLength="7" x="49.5" y="151.2705">1</text><text fill="#000000" font-family="sans-serif" font-size="13" lengthAdjust="spacing" textLength="185" x="60.5" y="151.2705">requests the list of the X profiles</text><polygon fill="#181818" points="489.5,183.8242,499.5,187.8242,489.5,191.8242,493.5,187.8242" style="stroke:#181818;stroke-width:1.0;"/><line style="stroke:#181818;stroke-width:1.0;" x1="276.5" x2="495.5" y1="187.8242" y2="187.8242"/><text fill="#000000" font-family="sans-serif" font-size="13" font-weight="bold" lengthAdjust="spacing" textLength="7" x="283.5" y="182.5615">2</text><text fill="#000000" font-family="sans-serif" font-size="13" lengthAdjust="spacing" textLength="91" x="294.5" y="182.5615">getAllXProfiles()</text><polygon fill="#181818" points="287.5,215.1152,277.5,219.1152,287.5,223.1152,283.5,219.1152" style="stroke:#181818;stroke-width:1.0;"/><line style="stroke:#181818;stroke-width:1.0;stroke-dasharray:2.0,2.0;" x1="281.5" x2="505.5" y1="219.1152" y2="219.1152"/><text fill="#000000" font-family="sans-serif" font-size="13" font-weight="bold" lengthAdjust="spacing" textLength="7" x="293.5" y="213.8525">3</text><text fill="#000000" font-family="sans-serif" font-size="13" lengthAdjust="spacing" textLength="66" x="304.5" y="213.8525">X profile list</text><polygon fill="#181818" points="58.5,246.4063,48.5,250.4063,58.5,254.4063,54.5,250.4063" style="stroke:#181818;stroke-width:1.0;"/><line style="stroke:#181818;stroke-width:1.0;stroke-dasharray:2.0,2.0;" x1="52.5" x2="270.5" y1="250.4063" y2="250.4063"/><text fill="#000000" font-family="sans-serif" font-size="13" font-weight="bold" lengthAdjust="spacing" textLength="7" x="64.5" y="245.1436">4</text><text fill="#000000" font-family="sans-serif" font-size="13" lengthAdjust="spacing" textLength="102" x="75.5" y="245.1436">lists the X profiles</text><path d="M10,265.4063 L75,265.4063 L75,274.6973 L65,284.6973 L10,284.6973 L10,265.4063 " fill="#EEEEEE" style="stroke:#000000;stroke-width:1.5;"/><rect fill="none" height="144.4551" style="stroke:#000000;stroke-width:1.5;" width="556.5" x="10" y="265.4063"/><text fill="#000000" font-family="sans-serif" font-size="13" font-weight="bold" lengthAdjust="spacing" textLength="20" x="25" y="280.4346">opt</text><text fill="#000000" font-family="sans-serif" font-size="11" font-weight="bold" lengthAdjust="spacing" textLength="137" x="90" y="279.2764">[search filters appliance]</text><polygon fill="#181818" points="254.5,303.9883,264.5,307.9883,254.5,311.9883,258.5,307.9883" style="stroke:#181818;stroke-width:1.0;"/><line style="stroke:#181818;stroke-width:1.0;" x1="42.5" x2="260.5" y1="307.9883" y2="307.9883"/><text fill="#000000" font-family="sans-serif" font-size="13" font-weight="bold" lengthAdjust="spacing" textLength="7" x="49.5" y="302.7256">5</text><text fill="#000000" font-family="sans-serif" font-size="13" lengthAdjust="spacing" textLength="189" x="60.5" y="302.7256">applies search filters (filter set F)</text><polygon fill="#181818" points="489.5,335.2793,499.5,339.2793,489.5,343.2793,493.5,339.2793" style="stroke:#181818;stroke-width:1.0;"/><line style="stroke:#181818;stroke-width:1.0;" x1="276.5" x2="495.5" y1="339.2793" y2="339.2793"/><text fill="#000000" font-family="sans-serif" font-size="13" font-weight="bold" lengthAdjust="spacing" textLength="7" x="283.5" y="334.0166">6</text><text fill="#000000" font-family="sans-serif" font-size="13" lengthAdjust="spacing" textLength="195" x="294.5" y="334.0166">filterXProfileList(queryParameters)</text><polygon fill="#181818" points="287.5,366.5703,277.5,370.5703,287.5,374.5703,283.5,370.5703" style="stroke:#181818;stroke-width:1.0;"/><line style="stroke:#181818;stroke-width:1.0;stroke-dasharray:2.0,2.0;" x1="281.5" x2="505.5" y1="370.5703" y2="370.5703"/><text fill="#000000" font-family="sans-serif" font-size="13" font-weight="bold" lengthAdjust="spacing" textLength="7" x="293.5" y="365.3076">7</text><text fill="#000000" font-family="sans-serif" font-size="13" lengthAdjust="spacing" textLength="59" x="304.5" y="365.3076">filtered list</text><polygon fill="#181818" points="58.5,397.8613,48.5,401.8613,58.5,405.8613,54.5,401.8613" style="stroke:#181818;stroke-width:1.0;"/><line style="stroke:#181818;stroke-width:1.0;stroke-dasharray:2.0,2.0;" x1="52.5" x2="270.5" y1="401.8613" y2="401.8613"/><text fill="#000000" font-family="sans-serif" font-size="13" font-weight="bold" lengthAdjust="spacing" textLength="7" x="64.5" y="396.5986">8</text><text fill="#000000" font-family="sans-serif" font-size="13" lengthAdjust="spacing" textLength="158" x="75.5" y="396.5986">presents the search results</text><polygon fill="#181818" points="254.5,436.1523,264.5,440.1523,254.5,444.1523,258.5,440.1523" style="stroke:#181818;stroke-width:1.0;"/><line style="stroke:#181818;stroke-width:1.0;" x1="42.5" x2="260.5" y1="440.1523" y2="440.1523"/><text fill="#000000" font-family="sans-serif" font-size="13" font-weight="bold" lengthAdjust="spacing" textLength="7" x="49.5" y="434.8896">9</text><text fill="#000000" font-family="sans-serif" font-size="13" lengthAdjust="spacing" textLength="91" x="60.5" y="434.8896">selects a profile</text><polygon fill="#181818" points="58.5,467.4434,48.5,471.4434,58.5,475.4434,54.5,471.4434" style="stroke:#181818;stroke-width:1.0;"/><line style="stroke:#181818;stroke-width:1.0;stroke-dasharray:2.0,2.0;" x1="52.5" x2="270.5" y1="471.4434" y2="471.4434"/><text fill="#000000" font-family="sans-serif" font-size="13" font-weight="bold" lengthAdjust="spacing" textLength="14" x="64.5" y="466.1807">10</text><text fill="#000000" font-family="sans-serif" font-size="13" lengthAdjust="spacing" textLength="75" x="82.5" y="466.1807">shows profile</text><path d="M10,486.4434 L71,486.4434 L71,495.7344 L61,505.7344 L10,505.7344 L10,486.4434 " fill="#EEEEEE" style="stroke:#000000;stroke-width:1.5;"/><rect fill="none" height="223.668" style="stroke:#000000;stroke-width:1.5;" width="556.5" x="10" y="486.4434"/><text fill="#000000" font-family="sans-serif" font-size="13" font-weight="bold" lengthAdjust="spacing" textLength="16" x="25" y="501.4717">alt</text><text fill="#000000" font-family="sans-serif" font-size="11" font-weight="bold" lengthAdjust="spacing" textLength="68" x="86" y="500.3135">[edit profile]</text><polygon fill="#181818" points="254.5,525.0254,264.5,529.0254,254.5,533.0254,258.5,529.0254" style="stroke:#181818;stroke-width:1.0;"/><line style="stroke:#181818;stroke-width:1.0;stroke-dasharray:2.0,2.0;" x1="47.5" x2="260.5" y1="529.0254" y2="529.0254"/><text fill="#000000" font-family="sans-serif" font-size="13" font-weight="bold" lengthAdjust="spacing" textLength="14" x="54.5" y="523.7627">11</text><text fill="#000000" font-family="sans-serif" font-size="13" lengthAdjust="spacing" textLength="112" x="72.5" y="523.7627">edit selected profile</text><polygon fill="#181818" points="489.5,556.3164,499.5,560.3164,489.5,564.3164,493.5,560.3164" style="stroke:#181818;stroke-width:1.0;"/><line style="stroke:#181818;stroke-width:1.0;" x1="276.5" x2="495.5" y1="560.3164" y2="560.3164"/><text fill="#000000" font-family="sans-serif" font-size="13" font-weight="bold" lengthAdjust="spacing" textLength="14" x="283.5" y="555.0537">12</text><text fill="#000000" font-family="sans-serif" font-size="13" lengthAdjust="spacing" textLength="53" x="301.5" y="555.0537">US 6.2.Y</text><polygon fill="#181818" points="287.5,587.6074,277.5,591.6074,287.5,595.6074,283.5,591.6074" style="stroke:#181818;stroke-width:1.0;"/><line style="stroke:#181818;stroke-width:1.0;stroke-dasharray:2.0,2.0;" x1="281.5" x2="505.5" y1="591.6074" y2="591.6074"/><text fill="#000000" font-family="sans-serif" font-size="13" font-weight="bold" lengthAdjust="spacing" textLength="14" x="293.5" y="586.3447">13</text><text fill="#000000" font-family="sans-serif" font-size="13" lengthAdjust="spacing" textLength="70" x="311.5" y="586.3447">confirmation</text><line style="stroke:#000000;stroke-width:1.0;stroke-dasharray:2.0,2.0;" x1="10" x2="566.5" y1="600.6074" y2="600.6074"/><text fill="#000000" font-family="sans-serif" font-size="11" font-weight="bold" lengthAdjust="spacing" textLength="103" x="15" y="612.4775">[deactivate profile]</text><polygon fill="#181818" points="254.5,635.5293,264.5,639.5293,254.5,643.5293,258.5,639.5293" style="stroke:#181818;stroke-width:1.0;"/><line style="stroke:#181818;stroke-width:1.0;stroke-dasharray:2.0,2.0;" x1="42.5" x2="260.5" y1="639.5293" y2="639.5293"/><text fill="#000000" font-family="sans-serif" font-size="13" font-weight="bold" lengthAdjust="spacing" textLength="14" x="49.5" y="634.2666">14</text><text fill="#000000" font-family="sans-serif" font-size="13" lengthAdjust="spacing" textLength="126" x="67.5" y="634.2666">delete selected profile</text><polygon fill="#181818" points="489.5,666.8203,499.5,670.8203,489.5,674.8203,493.5,670.8203" style="stroke:#181818;stroke-width:1.0;"/><line style="stroke:#181818;stroke-width:1.0;" x1="276.5" x2="495.5" y1="670.8203" y2="670.8203"/><text fill="#000000" font-family="sans-serif" font-size="13" font-weight="bold" lengthAdjust="spacing" textLength="14" x="283.5" y="665.5576">15</text><text fill="#000000" font-family="sans-serif" font-size="13" lengthAdjust="spacing" textLength="51" x="301.5" y="665.5576">US 6.2.Z</text><polygon fill="#181818" points="287.5,698.1113,277.5,702.1113,287.5,706.1113,283.5,702.1113" style="stroke:#181818;stroke-width:1.0;"/><line style="stroke:#181818;stroke-width:1.0;stroke-dasharray:2.0,2.0;" x1="281.5" x2="505.5" y1="702.1113" y2="702.1113"/><text fill="#000000" font-family="sans-serif" font-size="13" font-weight="bold" lengthAdjust="spacing" textLength="14" x="293.5" y="696.8486">16</text><text fill="#000000" font-family="sans-serif" font-size="13" lengthAdjust="spacing" textLength="70" x="311.5" y="696.8486">confirmation</text><polygon fill="#181818" points="53.5,736.4023,43.5,740.4023,53.5,744.4023,49.5,740.4023" style="stroke:#181818;stroke-width:1.0;"/><line style="stroke:#181818;stroke-width:1.0;stroke-dasharray:2.0,2.0;" x1="47.5" x2="270.5" y1="740.4023" y2="740.4023"/><text fill="#000000" font-family="sans-serif" font-size="13" font-weight="bold" lengthAdjust="spacing" textLength="14" x="59.5" y="735.1396">17</text><text fill="#000000" font-family="sans-serif" font-size="13" lengthAdjust="spacing" textLength="123" x="77.5" y="735.1396">confirmation of action</text><!--SRC=[jLHDRzim3BthLn2vn3ua0NhO8IW2f2q65Ek604M6RjX5a-b6c2nv4jrY-_MZxDYLdRGzJITzy95yxz6U7uZgi5wjQYCjDPLPAbUj0lvkq2fS55e-Uba9GPeCmcn_3n-M5yilIzXvfp04-Ahn6R8xV4835_bC2DcGiqtr4ptl5JaFswBI5cI0xSrdKKjFMkcQgy7iyfAhrSwYfStcX-LaeP56_vMadOLiVvlF8cv_-pRiIgfVhYormZRyQdlzIGZ1rM2nOJ2imKT2WGBG0S7eGE3ATly0jNUbDXXYi_f94iPoWb6CZPaO_OYqDUPXTupCyfVOhbORj-YB3JdRIgB0INJCpR6nltKR4gQj911kPjX7_TAtzWoyN4qGK7fr04v0w0F8kZPQieTTH5of8EqpXYagwpPyJV0n7v2JcltrI358raYzBcMltXtppTWC_sSdUR8mbir7u8bQwTDOvoun5ftCQTo9v6bZW_Irny0ZrAb_58Al6aFX77CcUT9YhmRQ8fem7hg01XMdbxsnK-zE9cveBHpSSpW7Enc7jXr3W8Mc0J1ol6-dZUXwOisceMc5ULCNl3qwbdMdufvaMHxlRYJ9N9or-_YB-2RUyNFifNAsrBvgFtpngesTrYPW-jGpES-wOCA4h_EUM39_EM-LSesbB2Iyt-Ry_NzmxiUBJPuCIOgF_xC8v4pZQVa7]--></g></svg>