<?xml version="1.0" encoding="UTF-8" standalone="no"?><svg xmlns="http://www.w3.org/2000/svg" xmlns:xlink="http://www.w3.org/1999/xlink" contentStyleType="text/css" height="1038px" preserveAspectRatio="none" style="width:1529px;height:1038px;background:#FFFFFF;" version="1.1" viewBox="0 0 1529 1038" width="1529px" zoomAndPan="magnify"><defs/><g><text fill="#000000" font-family="sans-serif" font-size="14" font-weight="bold" lengthAdjust="spacing" textLength="231" x="650.5" y="29.5332">US 5.1.8. - Process View [Level 3]</text><rect fill="#FFFFFF" height="808.9688" style="stroke:#181818;stroke-width:1.0;" width="10" x="206" y="150.0781"/><rect fill="#FFFFFF" height="565.0313" style="stroke:#181818;stroke-width:1.0;" width="10" x="551" y="264.5469"/><rect fill="#FFFFFF" height="486.7188" style="stroke:#181818;stroke-width:1.0;" width="10" x="872" y="303.7031"/><rect fill="#FFFFFF" height="119.3125" style="stroke:#181818;stroke-width:1.0;" width="10" x="877" y="473.4844"/><rect fill="#FFFFFF" height="39.1563" style="stroke:#181818;stroke-width:1.0;" width="10" x="1311" y="342.8594"/><rect fill="#FFFFFF" height="30" style="stroke:#181818;stroke-width:1.0;" width="10" x="1311" y="517.6406"/><rect fill="#FFFFFF" height="30" style="stroke:#181818;stroke-width:1.0;" width="10" x="1311" y="714.2656"/><rect fill="none" height="355.25" style="stroke:#000000;stroke-width:1.5;" width="726" x="797" y="397.0156"/><rect fill="none" height="107.4688" style="stroke:#000000;stroke-width:1.5;" width="273.5" x="11" y="844.5781"/><line style="stroke:#181818;stroke-width:0.5;stroke-dasharray:5.0,5.0;" x1="210.5" x2="210.5" y1="108.9219" y2="969.0469"/><line style="stroke:#181818;stroke-width:0.5;stroke-dasharray:5.0,5.0;" x1="413" x2="413" y1="205.7344" y2="969.0469"/><line style="stroke:#181818;stroke-width:0.5;stroke-dasharray:5.0,5.0;" x1="556" x2="556" y1="108.9219" y2="969.0469"/><line style="stroke:#181818;stroke-width:0.5;stroke-dasharray:5.0,5.0;" x1="877" x2="877" y1="108.9219" y2="969.0469"/><line style="stroke:#181818;stroke-width:0.5;stroke-dasharray:5.0,5.0;" x1="1316" x2="1316" y1="108.9219" y2="969.0469"/><line style="stroke:#181818;stroke-width:0.5;stroke-dasharray:5.0,5.0;" x1="1462" x2="1462" y1="655.4531" y2="969.0469"/><rect fill="#E2E2F0" height="64.3125" rx="2.5" ry="2.5" style="stroke:#181818;stroke-width:0.5;" width="127" x="147.5" y="43.6094"/><text fill="#000000" font-family="sans-serif" font-size="20" font-style="italic" lengthAdjust="spacing" textLength="67" x="177.5" y="71.3711">«route»</text><text fill="#000000" font-family="sans-serif" font-size="20" lengthAdjust="spacing" textLength="113" x="154.5" y="96.5273">PatientRoute</text><rect fill="#E2E2F0" height="64.3125" rx="2.5" ry="2.5" style="stroke:#181818;stroke-width:0.5;" width="127" x="147.5" y="968.0469"/><text fill="#000000" font-family="sans-serif" font-size="20" font-style="italic" lengthAdjust="spacing" textLength="67" x="177.5" y="995.8086">«route»</text><text fill="#000000" font-family="sans-serif" font-size="20" lengthAdjust="spacing" textLength="113" x="154.5" y="1020.9648">PatientRoute</text><rect fill="#E2E2F0" height="64.3125" rx="2.5" ry="2.5" style="stroke:#181818;stroke-width:0.5;" width="106" x="360" y="968.0469"/><text fill="#000000" font-family="sans-serif" font-size="20" font-style="italic" lengthAdjust="spacing" textLength="49" x="388.5" y="995.8086">«dto»</text><text fill="#000000" font-family="sans-serif" font-size="20" lengthAdjust="spacing" textLength="92" x="367" y="1020.9648">PatientDto</text><rect fill="#E2E2F0" height="64.3125" rx="2.5" ry="2.5" style="stroke:#181818;stroke-width:0.5;" width="160" x="476" y="43.6094"/><text fill="#000000" font-family="sans-serif" font-size="20" font-style="italic" lengthAdjust="spacing" textLength="105" x="503.5" y="71.3711">«controller»</text><text fill="#000000" font-family="sans-serif" font-size="20" lengthAdjust="spacing" textLength="146" x="483" y="96.5273">PatientController</text><rect fill="#E2E2F0" height="64.3125" rx="2.5" ry="2.5" style="stroke:#181818;stroke-width:0.5;" width="160" x="476" y="968.0469"/><text fill="#000000" font-family="sans-serif" font-size="20" font-style="italic" lengthAdjust="spacing" textLength="105" x="503.5" y="995.8086">«controller»</text><text fill="#000000" font-family="sans-serif" font-size="20" lengthAdjust="spacing" textLength="146" x="483" y="1020.9648">PatientController</text><rect fill="#E2E2F0" height="64.3125" rx="2.5" ry="2.5" style="stroke:#181818;stroke-width:0.5;" width="140" x="807" y="43.6094"/><text fill="#000000" font-family="sans-serif" font-size="20" font-style="italic" lengthAdjust="spacing" textLength="86" x="834" y="71.3711">«service»</text><text fill="#000000" font-family="sans-serif" font-size="20" lengthAdjust="spacing" textLength="126" x="814" y="96.5273">PatientService</text><rect fill="#E2E2F0" height="64.3125" rx="2.5" ry="2.5" style="stroke:#181818;stroke-width:0.5;" width="140" x="807" y="968.0469"/><text fill="#000000" font-family="sans-serif" font-size="20" font-style="italic" lengthAdjust="spacing" textLength="86" x="834" y="995.8086">«service»</text><text fill="#000000" font-family="sans-serif" font-size="20" lengthAdjust="spacing" textLength="126" x="814" y="1020.9648">PatientService</text><rect fill="#E2E2F0" height="64.3125" rx="2.5" ry="2.5" style="stroke:#181818;stroke-width:0.5;" width="170" x="1231" y="43.6094"/><text fill="#000000" font-family="sans-serif" font-size="20" font-style="italic" lengthAdjust="spacing" textLength="110" x="1261" y="71.3711">«repository»</text><text fill="#000000" font-family="sans-serif" font-size="20" lengthAdjust="spacing" textLength="156" x="1238" y="96.5273">PatientRepository</text><rect fill="#E2E2F0" height="64.3125" rx="2.5" ry="2.5" style="stroke:#181818;stroke-width:0.5;" width="170" x="1231" y="968.0469"/><text fill="#000000" font-family="sans-serif" font-size="20" font-style="italic" lengthAdjust="spacing" textLength="110" x="1261" y="995.8086">«repository»</text><text fill="#000000" font-family="sans-serif" font-size="20" lengthAdjust="spacing" textLength="156" x="1238" y="1020.9648">PatientRepository</text><rect fill="#E2E2F0" height="64.3125" rx="2.5" ry="2.5" style="stroke:#181818;stroke-width:0.5;" width="102" x="1411" y="968.0469"/><text fill="#000000" font-family="sans-serif" font-size="20" font-style="italic" lengthAdjust="spacing" textLength="88" x="1418" y="995.8086">«domain»</text><text fill="#000000" font-family="sans-serif" font-size="20" lengthAdjust="spacing" textLength="61" x="1431.5" y="1020.9648">Patient</text><rect fill="#FFFFFF" height="808.9688" style="stroke:#181818;stroke-width:1.0;" width="10" x="206" y="150.0781"/><rect fill="#FFFFFF" height="565.0313" style="stroke:#181818;stroke-width:1.0;" width="10" x="551" y="264.5469"/><rect fill="#FFFFFF" height="486.7188" style="stroke:#181818;stroke-width:1.0;" width="10" x="872" y="303.7031"/><rect fill="#FFFFFF" height="119.3125" style="stroke:#181818;stroke-width:1.0;" width="10" x="877" y="473.4844"/><rect fill="#FFFFFF" height="39.1563" style="stroke:#181818;stroke-width:1.0;" width="10" x="1311" y="342.8594"/><rect fill="#FFFFFF" height="30" style="stroke:#181818;stroke-width:1.0;" width="10" x="1311" y="517.6406"/><rect fill="#FFFFFF" height="30" style="stroke:#181818;stroke-width:1.0;" width="10" x="1311" y="714.2656"/><ellipse cx="7.5" cy="149.3281" fill="none" rx="4" ry="4" style="stroke:#181818;stroke-width:1.5;"/><polygon fill="#181818" points="194,146.0781,204,150.0781,194,154.0781,198,150.0781" style="stroke:#181818;stroke-width:1.0;"/><line style="stroke:#181818;stroke-width:1.0;" x1="12" x2="200" y1="150.0781" y2="150.0781"/><text fill="#000000" font-family="sans-serif" font-size="20" font-weight="bold" lengthAdjust="spacing" textLength="11" x="15" y="143.6836">1</text><text fill="#000000" font-family="sans-serif" font-size="20" lengthAdjust="spacing" textLength="103" x="30" y="143.6836">POST(json)</text><polygon fill="#181818" points="348,185.2344,358,189.2344,348,193.2344,352,189.2344" style="stroke:#181818;stroke-width:1.0;"/><line style="stroke:#181818;stroke-width:1.0;" x1="216" x2="354" y1="189.2344" y2="189.2344"/><text fill="#000000" font-family="sans-serif" font-size="20" font-weight="bold" lengthAdjust="spacing" textLength="11" x="223" y="182.8398">2</text><text fill="#000000" font-family="sans-serif" font-size="20" lengthAdjust="spacing" textLength="105" x="238" y="182.8398">create(json)</text><rect fill="#E2E2F0" height="64.3125" rx="2.5" ry="2.5" style="stroke:#181818;stroke-width:0.5;" width="106" x="360" y="158.0781"/><text fill="#000000" font-family="sans-serif" font-size="20" font-style="italic" lengthAdjust="spacing" textLength="49" x="388.5" y="185.8398">«dto»</text><text fill="#000000" font-family="sans-serif" font-size="20" lengthAdjust="spacing" textLength="92" x="367" y="210.9961">PatientDto</text><polygon fill="#181818" points="539,260.5469,549,264.5469,539,268.5469,543,264.5469" style="stroke:#181818;stroke-width:1.0;"/><line style="stroke:#181818;stroke-width:1.0;" x1="216" x2="545" y1="264.5469" y2="264.5469"/><text fill="#000000" font-family="sans-serif" font-size="20" font-weight="bold" lengthAdjust="spacing" textLength="11" x="223" y="258.1523">3</text><text fill="#000000" font-family="sans-serif" font-size="20" lengthAdjust="spacing" textLength="277" x="238" y="258.1523">createPatientProfile(patientDto)</text><polygon fill="#181818" points="860,299.7031,870,303.7031,860,307.7031,864,303.7031" style="stroke:#181818;stroke-width:1.0;"/><line style="stroke:#181818;stroke-width:1.0;" x1="561" x2="866" y1="303.7031" y2="303.7031"/><text fill="#000000" font-family="sans-serif" font-size="20" font-weight="bold" lengthAdjust="spacing" textLength="11" x="568" y="297.3086">4</text><text fill="#000000" font-family="sans-serif" font-size="20" lengthAdjust="spacing" textLength="277" x="583" y="297.3086">createPatientProfile(patientDto)</text><polygon fill="#181818" points="1299,338.8594,1309,342.8594,1299,346.8594,1303,342.8594" style="stroke:#181818;stroke-width:1.0;"/><line style="stroke:#181818;stroke-width:1.0;" x1="882" x2="1305" y1="342.8594" y2="342.8594"/><text fill="#000000" font-family="sans-serif" font-size="20" font-weight="bold" lengthAdjust="spacing" textLength="11" x="889" y="336.4648">5</text><text fill="#000000" font-family="sans-serif" font-size="20" lengthAdjust="spacing" textLength="395" x="904" y="336.4648">existsPatientWithEmailOrPhone(email,phone)</text><polygon fill="#181818" points="893,378.0156,883,382.0156,893,386.0156,889,382.0156" style="stroke:#181818;stroke-width:1.0;"/><line style="stroke:#181818;stroke-width:1.0;stroke-dasharray:2.0,2.0;" x1="887" x2="1315" y1="382.0156" y2="382.0156"/><text fill="#000000" font-family="sans-serif" font-size="20" font-weight="bold" lengthAdjust="spacing" textLength="11" x="899" y="375.6211">6</text><text fill="#000000" font-family="sans-serif" font-size="20" lengthAdjust="spacing" textLength="69" x="914" y="375.6211">boolean</text><path d="M797,397.0156 L865,397.0156 L865,414.1719 L855,424.1719 L797,424.1719 L797,397.0156 " fill="#EEEEEE" style="stroke:#000000;stroke-width:1.5;"/><rect fill="none" height="355.25" style="stroke:#000000;stroke-width:1.5;" width="726" x="797" y="397.0156"/><text fill="#000000" font-family="sans-serif" font-size="20" font-weight="bold" lengthAdjust="spacing" textLength="23" x="812" y="418.7773">alt</text><text fill="#000000" font-family="sans-serif" font-size="20" font-weight="bold" lengthAdjust="spacing" textLength="59" x="880" y="419.7773">[false]</text><line style="stroke:#181818;stroke-width:1.0;" x1="882" x2="929" y1="460.4844" y2="460.4844"/><line style="stroke:#181818;stroke-width:1.0;" x1="929" x2="929" y1="460.4844" y2="473.4844"/><line style="stroke:#181818;stroke-width:1.0;" x1="888" x2="929" y1="473.4844" y2="473.4844"/><polygon fill="#181818" points="898,469.4844,888,473.4844,898,477.4844,894,473.4844" style="stroke:#181818;stroke-width:1.0;"/><text fill="#000000" font-family="sans-serif" font-size="20" font-weight="bold" lengthAdjust="spacing" textLength="11" x="894" y="454.0898">7</text><text fill="#000000" font-family="sans-serif" font-size="20" lengthAdjust="spacing" textLength="136" x="909" y="454.0898">generateMRN()</text><polygon fill="#181818" points="1299,513.6406,1309,517.6406,1299,521.6406,1303,517.6406" style="stroke:#181818;stroke-width:1.0;"/><line style="stroke:#181818;stroke-width:1.0;" x1="887" x2="1305" y1="517.6406" y2="517.6406"/><text fill="#000000" font-family="sans-serif" font-size="20" font-weight="bold" lengthAdjust="spacing" textLength="11" x="894" y="511.2461">8</text><text fill="#000000" font-family="sans-serif" font-size="20" lengthAdjust="spacing" textLength="248" x="909" y="511.2461">lastMRNSequentialNumber()</text><line style="stroke:#181818;stroke-width:1.0;stroke-dasharray:2.0,2.0;" x1="887" x2="929" y1="591.7969" y2="591.7969"/><line style="stroke:#181818;stroke-width:1.0;stroke-dasharray:2.0,2.0;" x1="929" x2="929" y1="591.7969" y2="604.7969"/><line style="stroke:#181818;stroke-width:1.0;stroke-dasharray:2.0,2.0;" x1="882" x2="929" y1="604.7969" y2="604.7969"/><polygon fill="#181818" points="892,600.7969,882,604.7969,892,608.7969,888,604.7969" style="stroke:#181818;stroke-width:1.0;"/><text fill="#000000" font-family="sans-serif" font-size="20" font-weight="bold" lengthAdjust="spacing" textLength="11" x="894" y="585.4023">9</text><text fill="#000000" font-family="sans-serif" font-size="20" lengthAdjust="spacing" textLength="199" x="909" y="585.4023">medicalRecordNumber</text><polygon fill="#181818" points="1399,660.1094,1409,664.1094,1399,668.1094,1403,664.1094" style="stroke:#181818;stroke-width:1.0;"/><line style="stroke:#181818;stroke-width:1.0;" x1="882" x2="1405" y1="664.1094" y2="664.1094"/><text fill="#000000" font-family="sans-serif" font-size="20" font-weight="bold" lengthAdjust="spacing" textLength="22" x="889" y="645.1367">10</text><text fill="#000000" font-family="sans-serif" font-size="20" lengthAdjust="spacing" textLength="446" x="915" y="632.5586">create(medicalRecordNumber,firstName,lastName,</text><text fill="#000000" font-family="sans-serif" font-size="20" lengthAdjust="spacing" textLength="435" x="915" y="657.7148">email,phone,emergencyContact,gender,dateBirth)</text><rect fill="#E2E2F0" height="64.3125" rx="2.5" ry="2.5" style="stroke:#181818;stroke-width:0.5;" width="102" x="1411" y="607.7969"/><text fill="#000000" font-family="sans-serif" font-size="20" font-style="italic" lengthAdjust="spacing" textLength="88" x="1418" y="635.5586">«domain»</text><text fill="#000000" font-family="sans-serif" font-size="20" lengthAdjust="spacing" textLength="61" x="1431.5" y="660.7148">Patient</text><polygon fill="#181818" points="1299,710.2656,1309,714.2656,1299,718.2656,1303,714.2656" style="stroke:#181818;stroke-width:1.0;"/><line style="stroke:#181818;stroke-width:1.0;" x1="882" x2="1305" y1="714.2656" y2="714.2656"/><text fill="#000000" font-family="sans-serif" font-size="20" font-weight="bold" lengthAdjust="spacing" textLength="22" x="889" y="707.8711">11</text><text fill="#000000" font-family="sans-serif" font-size="20" lengthAdjust="spacing" textLength="114" x="915" y="707.8711">save(patient)</text><polygon fill="#181818" points="572,786.4219,562,790.4219,572,794.4219,568,790.4219" style="stroke:#181818;stroke-width:1.0;"/><line style="stroke:#181818;stroke-width:1.0;stroke-dasharray:2.0,2.0;" x1="566" x2="876" y1="790.4219" y2="790.4219"/><text fill="#000000" font-family="sans-serif" font-size="20" font-weight="bold" lengthAdjust="spacing" textLength="22" x="578" y="784.0273">12</text><text fill="#000000" font-family="sans-serif" font-size="20" lengthAdjust="spacing" textLength="71" x="604" y="784.0273">success</text><polygon fill="#181818" points="227,825.5781,217,829.5781,227,833.5781,223,829.5781" style="stroke:#181818;stroke-width:1.0;"/><line style="stroke:#181818;stroke-width:1.0;stroke-dasharray:2.0,2.0;" x1="221" x2="555" y1="829.5781" y2="829.5781"/><text fill="#000000" font-family="sans-serif" font-size="20" font-weight="bold" lengthAdjust="spacing" textLength="22" x="233" y="823.1836">13</text><text fill="#000000" font-family="sans-serif" font-size="20" lengthAdjust="spacing" textLength="71" x="259" y="823.1836">success</text><path d="M11,844.5781 L79,844.5781 L79,861.7344 L69,871.7344 L11,871.7344 L11,844.5781 " fill="#EEEEEE" style="stroke:#000000;stroke-width:1.5;"/><rect fill="none" height="107.4688" style="stroke:#000000;stroke-width:1.5;" width="273.5" x="11" y="844.5781"/><text fill="#000000" font-family="sans-serif" font-size="20" font-weight="bold" lengthAdjust="spacing" textLength="23" x="26" y="866.3398">alt</text><ellipse cx="7.5" cy="902.1406" fill="none" rx="4" ry="4" style="stroke:#181818;stroke-width:1.5;"/><polygon fill="#181818" points="24.5,898.8906,14.5,902.8906,24.5,906.8906,20.5,902.8906" style="stroke:#181818;stroke-width:1.0;"/><line style="stroke:#181818;stroke-width:1.0;stroke-dasharray:2.0,2.0;" x1="22.5" x2="205" y1="902.8906" y2="902.8906"/><text fill="#000000" font-family="sans-serif" font-size="20" font-weight="bold" lengthAdjust="spacing" textLength="22" x="25" y="896.4961">14</text><text fill="#000000" font-family="sans-serif" font-size="20" lengthAdjust="spacing" textLength="110" x="51" y="896.4961">201 Created</text><line style="stroke:#000000;stroke-width:1.0;stroke-dasharray:2.0,2.0;" x1="11" x2="284.5" y1="911.8906" y2="911.8906"/><ellipse cx="7.5" cy="943.2969" fill="none" rx="4" ry="4" style="stroke:#181818;stroke-width:1.5;"/><polygon fill="#181818" points="24.5,940.0469,14.5,944.0469,24.5,948.0469,20.5,944.0469" style="stroke:#181818;stroke-width:1.0;"/><line style="stroke:#181818;stroke-width:1.0;stroke-dasharray:2.0,2.0;" x1="22.5" x2="205" y1="944.0469" y2="944.0469"/><text fill="#000000" font-family="sans-serif" font-size="20" font-weight="bold" lengthAdjust="spacing" textLength="22" x="25" y="937.6523">15</text><text fill="#000000" font-family="sans-serif" font-size="20" lengthAdjust="spacing" textLength="153" x="51" y="937.6523">400 Bad Request</text><!--SRC=[bLDDRzD04BtlhnZbb5Pnb1QGK1Jbq11E9Odij1mAGjlrX2nTxvhTSQ3zzSpQ-J0X0N6nxDttPjvxCmvFsfRIoy8uzOGvvBYIbQ7tpbAcNn2k1qAG9eFGkSlWJV-g_xOF2IoyKnW2t6ly0G-tk443hpvtX90LELiLZ-W5boMjT2ajGMSXIQEbr5M47P01qldTSWgZaOydu_59z3joDRQKz2KdnsX-di5EMB5tng2lAPDbUijujJyzGylGRxHg96Nt4wQ4vkGCFiNI1KtEFpSkfejvDB4_FKFRsOWMN26rPPmG3ouPDq4COJ7FbjrlmTaB8HNfZIHiheHeecBeBeVBoo4eZmpPCWwGw7jtkUtDirffWzro7sghHSGBKQV5R4xWVyWC5oAc5ct498Q0FtMWi2L_rBIUibipzukrizZ5-D4hutlR9bD5pKyQ3LpdqJc3qeeSVuS9QGXMqWJSTwv5VqMBdb4VqbdtBmg7O6GW1cNulMA5MffPlQtTOpr_DAwhxDeLc6ibJOhA-Rofq6QqsyQfjmPsWjbRQHze9WliHNNrooVRogg71Nfsg9xZbdEN7d_aJCovuetsjBuudaEGc_tG_ccDYm7dUl3OR56eLFp9ZuqrotBOt1EmPglYgEAIZv9aXxqUNC6a3YBdjZp5Oy3hmG1kP0vfd4-WbhQsweZz1G00]--></g></svg>