<svg xmlns="http://www.w3.org/2000/svg" xmlns:xlink="http://www.w3.org/1999/xlink" contentStyleType="text/css" height="1639px" preserveAspectRatio="none" style="width:1938px;height:1639px;background:#FFFFFF;" version="1.1" viewBox="0 0 1938 1639" width="1938px" zoomAndPan="magnify"><title>US 5.1.18. Process View (Level 3)</title><defs/><g><text fill="#000000" font-family="sans-serif" font-size="14" font-weight="bold" lengthAdjust="spacing" textLength="264.4209" x="835.9744" y="27.9951">US 5.1.18. Process View (Level 3)</text><rect fill="#FFFFFF" height="480.0195" style="stroke:#181818;stroke-width:1.0;" width="10" x="97.9858" y="139.1563"/><rect fill="#FFFFFF" height="306.6563" style="stroke:#181818;stroke-width:1.0;" width="10" x="97.9858" y="661.875"/><rect fill="#FFFFFF" height="562.1523" style="stroke:#181818;stroke-width:1.0;" width="10" x="97.9858" y="1008.2305"/><rect fill="#FFFFFF" height="393.0547" style="stroke:#181818;stroke-width:1.0;" width="10" x="308.8257" y="186.4219"/><rect fill="#FFFFFF" height="245.3906" style="stroke:#181818;stroke-width:1.0;" width="10" x="308.8257" y="694.0078"/><rect fill="#FFFFFF" height="493.3203" style="stroke:#181818;stroke-width:1.0;" width="10" x="308.8257" y="1047.9297"/><rect fill="#FFFFFF" height="292.6563" style="stroke:#181818;stroke-width:1.0;" width="10" x="536.3169" y="215.5547"/><rect fill="#FFFFFF" height="87.3984" style="stroke:#181818;stroke-width:1.0;" width="10" x="536.3169" y="780.7344"/><rect fill="#FFFFFF" height="335.3281" style="stroke:#181818;stroke-width:1.0;" width="10" x="536.3169" y="1134.6563"/><rect fill="#FFFFFF" height="29.1328" style="stroke:#181818;stroke-width:1.0;" width="10" x="755.3428" y="244.6875"/><rect fill="#FFFFFF" height="29.1328" style="stroke:#181818;stroke-width:1.0;" width="10" x="755.3428" y="809.8672"/><rect fill="#FFFFFF" height="29.1328" style="stroke:#181818;stroke-width:1.0;" width="10" x="755.3428" y="1163.7891"/><rect fill="#FFFFFF" height="43.1328" style="stroke:#181818;stroke-width:1.0;" width="10" x="755.3428" y="1222.0547"/><rect fill="#FFFFFF" height="146.5313" style="stroke:#181818;stroke-width:1.0;" width="10" x="935.4722" y="1294.3203"/><rect fill="#FFFFFF" height="29.1328" style="stroke:#181818;stroke-width:1.0;" width="10" x="1088.0991" y="1323.4531"/><rect fill="#FFFFFF" height="29.1328" style="stroke:#181818;stroke-width:1.0;" width="10" x="1269.77" y="442.9453"/><rect fill="#FFFFFF" height="30" style="stroke:#181818;stroke-width:1.0;" width="10" x="1422.7197" y="1381.7188"/><rect fill="#FFFFFF" height="29.1328" style="stroke:#181818;stroke-width:1.0;" width="10" x="1548.2573" y="384.6797"/><rect fill="none" height="133.6641" style="stroke:#000000;stroke-width:1.5;" width="1203.4302" x="432.6367" y="346.4141"/><line style="stroke:#181818;stroke-width:0.5;stroke-dasharray:5.0,5.0;" x1="102.542" x2="102.542" y1="89.8906" y2="1588.3828"/><line style="stroke:#181818;stroke-width:0.5;stroke-dasharray:5.0,5.0;" x1="313.4297" x2="313.4297" y1="89.8906" y2="1588.3828"/><line style="stroke:#181818;stroke-width:0.5;stroke-dasharray:5.0,5.0;" x1="540.6367" x2="540.6367" y1="89.8906" y2="1588.3828"/><line style="stroke:#181818;stroke-width:0.5;stroke-dasharray:5.0,5.0;" x1="759.9971" x2="759.9971" y1="89.8906" y2="1588.3828"/><line style="stroke:#181818;stroke-width:0.5;stroke-dasharray:5.0,5.0;" x1="939.6885" x2="939.6885" y1="89.8906" y2="1588.3828"/><line style="stroke:#181818;stroke-width:0.5;stroke-dasharray:5.0,5.0;" x1="1092.6499" x2="1092.6499" y1="89.8906" y2="1588.3828"/><line style="stroke:#181818;stroke-width:0.5;stroke-dasharray:5.0,5.0;" x1="1274.5483" x2="1274.5483" y1="320.6172" y2="1588.3828"/><line style="stroke:#181818;stroke-width:0.5;stroke-dasharray:5.0,5.0;" x1="1426.9917" x2="1426.9917" y1="89.8906" y2="1588.3828"/><line style="stroke:#181818;stroke-width:0.5;stroke-dasharray:5.0,5.0;" x1="1552.4478" x2="1552.4478" y1="89.8906" y2="1588.3828"/><line style="stroke:#181818;stroke-width:0.5;stroke-dasharray:5.0,5.0;" x1="1723.0669" x2="1723.0669" y1="1094.7266" y2="1588.3828"/><line style="stroke:#181818;stroke-width:0.5;stroke-dasharray:5.0,5.0;" x1="1877.0376" x2="1877.0376" y1="89.8906" y2="1588.3828"/><rect fill="#E2E2F0" height="46.5938" rx="2.5" ry="2.5" style="stroke:#181818;stroke-width:0.5;" width="186.8877" x="9.542" y="42.2969"/><text fill="#000000" font-family="sans-serif" font-size="14" lengthAdjust="spacing" textLength="58.3994" x="73.7861" y="62.292">&#171;Route&#187;</text><text fill="#000000" font-family="sans-serif" font-size="14" lengthAdjust="spacing" textLength="168.4375" x="20.9922" y="78.5889">OperationRequestRoute</text><rect fill="#E2E2F0" height="46.5938" rx="2.5" ry="2.5" style="stroke:#181818;stroke-width:0.5;" width="186.8877" x="9.542" y="1587.3828"/><text fill="#000000" font-family="sans-serif" font-size="14" lengthAdjust="spacing" textLength="58.3994" x="73.7861" y="1607.3779">&#171;Route&#187;</text><text fill="#000000" font-family="sans-serif" font-size="14" lengthAdjust="spacing" textLength="168.4375" x="20.9922" y="1623.6748">OperationRequestRoute</text><rect fill="#E2E2F0" height="46.5938" rx="2.5" ry="2.5" style="stroke:#181818;stroke-width:0.5;" width="214.792" x="206.4297" y="42.2969"/><text fill="#000000" font-family="sans-serif" font-size="14" lengthAdjust="spacing" textLength="86.3037" x="270.6738" y="62.292">&#171;Controller&#187;</text><text fill="#000000" font-family="sans-serif" font-size="14" lengthAdjust="spacing" textLength="196.3418" x="217.8799" y="78.5889">OperationRequestController</text><rect fill="#E2E2F0" height="46.5938" rx="2.5" ry="2.5" style="stroke:#181818;stroke-width:0.5;" width="214.792" x="206.4297" y="1587.3828"/><text fill="#000000" font-family="sans-serif" font-size="14" lengthAdjust="spacing" textLength="86.3037" x="270.6738" y="1607.3779">&#171;Controller&#187;</text><text fill="#000000" font-family="sans-serif" font-size="14" lengthAdjust="spacing" textLength="196.3418" x="217.8799" y="1623.6748">OperationRequestController</text><rect fill="#E2E2F0" height="46.5938" rx="2.5" ry="2.5" style="stroke:#181818;stroke-width:0.5;" width="197.3604" x="442.6367" y="42.2969"/><text fill="#000000" font-family="sans-serif" font-size="14" lengthAdjust="spacing" textLength="68.8721" x="506.8809" y="62.292">&#171;Service&#187;</text><text fill="#000000" font-family="sans-serif" font-size="14" lengthAdjust="spacing" textLength="178.9102" x="454.0869" y="78.5889">OperationRequestService</text><rect fill="#E2E2F0" height="46.5938" rx="2.5" ry="2.5" style="stroke:#181818;stroke-width:0.5;" width="197.3604" x="442.6367" y="1587.3828"/><text fill="#000000" font-family="sans-serif" font-size="14" lengthAdjust="spacing" textLength="68.8721" x="506.8809" y="1607.3779">&#171;Service&#187;</text><text fill="#000000" font-family="sans-serif" font-size="14" lengthAdjust="spacing" textLength="178.9102" x="454.0869" y="1623.6748">OperationRequestService</text><rect fill="#E2E2F0" height="46.5938" rx="2.5" ry="2.5" style="stroke:#181818;stroke-width:0.5;" width="220.6914" x="649.9971" y="42.2969"/><text fill="#000000" font-family="sans-serif" font-size="14" lengthAdjust="spacing" textLength="92.2031" x="714.2412" y="62.292">&#171;Repository&#187;</text><text fill="#000000" font-family="sans-serif" font-size="14" lengthAdjust="spacing" textLength="202.2412" x="661.4473" y="78.5889">OperationRequestRepository</text><rect fill="#E2E2F0" height="46.5938" rx="2.5" ry="2.5" style="stroke:#181818;stroke-width:0.5;" width="220.6914" x="649.9971" y="1587.3828"/><text fill="#000000" font-family="sans-serif" font-size="14" lengthAdjust="spacing" textLength="92.2031" x="714.2412" y="1607.3779">&#171;Repository&#187;</text><text fill="#000000" font-family="sans-serif" font-size="14" lengthAdjust="spacing" textLength="202.2412" x="661.4473" y="1623.6748">OperationRequestRepository</text><rect fill="#E2E2F0" height="46.5938" rx="2.5" ry="2.5" style="stroke:#181818;stroke-width:0.5;" width="119.5674" x="880.6885" y="42.2969"/><text fill="#000000" font-family="sans-serif" font-size="14" lengthAdjust="spacing" textLength="68.8721" x="906.0361" y="62.292">&#171;Service&#187;</text><text fill="#000000" font-family="sans-serif" font-size="14" lengthAdjust="spacing" textLength="101.1172" x="892.1387" y="78.5889">PatientService</text><rect fill="#E2E2F0" height="46.5938" rx="2.5" ry="2.5" style="stroke:#181818;stroke-width:0.5;" width="119.5674" x="880.6885" y="1587.3828"/><text fill="#000000" font-family="sans-serif" font-size="14" lengthAdjust="spacing" textLength="68.8721" x="906.0361" y="1607.3779">&#171;Service&#187;</text><text fill="#000000" font-family="sans-serif" font-size="14" lengthAdjust="spacing" textLength="101.1172" x="892.1387" y="1623.6748">PatientService</text><rect fill="#E2E2F0" height="46.5938" rx="2.5" ry="2.5" style="stroke:#181818;stroke-width:0.5;" width="142.8984" x="1021.6499" y="42.2969"/><text fill="#000000" font-family="sans-serif" font-size="14" lengthAdjust="spacing" textLength="92.2031" x="1046.9976" y="62.292">&#171;Repository&#187;</text><text fill="#000000" font-family="sans-serif" font-size="14" lengthAdjust="spacing" textLength="124.4482" x="1033.1001" y="78.5889">PatientRepository</text><rect fill="#E2E2F0" height="46.5938" rx="2.5" ry="2.5" style="stroke:#181818;stroke-width:0.5;" width="142.8984" x="1021.6499" y="1587.3828"/><text fill="#000000" font-family="sans-serif" font-size="14" lengthAdjust="spacing" textLength="92.2031" x="1046.9976" y="1607.3779">&#171;Repository&#187;</text><text fill="#000000" font-family="sans-serif" font-size="14" lengthAdjust="spacing" textLength="124.4482" x="1033.1001" y="1623.6748">PatientRepository</text><rect fill="#E2E2F0" height="46.5938" rx="2.5" ry="2.5" style="stroke:#181818;stroke-width:0.5;" width="200.4434" x="1174.5483" y="1587.3828"/><text fill="#000000" font-family="sans-serif" font-size="14" lengthAdjust="spacing" textLength="47.4824" x="1251.0288" y="1607.3779">&#171;DTO&#187;</text><text fill="#000000" font-family="sans-serif" font-size="14" lengthAdjust="spacing" textLength="181.9932" x="1185.9985" y="1623.6748">OperationRequestListDTO</text><rect fill="#E2E2F0" height="46.5938" rx="2.5" ry="2.5" style="stroke:#181818;stroke-width:0.5;" width="85.4561" x="1384.9917" y="42.2969"/><text fill="#000000" font-family="sans-serif" font-size="14" lengthAdjust="spacing" textLength="71.4561" x="1391.9917" y="62.292">&#171;Domain&#187;</text><text fill="#000000" font-family="sans-serif" font-size="14" lengthAdjust="spacing" textLength="49.376" x="1405.2568" y="78.5889">Patient</text><rect fill="#E2E2F0" height="46.5938" rx="2.5" ry="2.5" style="stroke:#181818;stroke-width:0.5;" width="85.4561" x="1384.9917" y="1587.3828"/><text fill="#000000" font-family="sans-serif" font-size="14" lengthAdjust="spacing" textLength="71.4561" x="1391.9917" y="1607.3779">&#171;Domain&#187;</text><text fill="#000000" font-family="sans-serif" font-size="14" lengthAdjust="spacing" textLength="49.376" x="1405.2568" y="1623.6748">Patient</text><rect fill="#E2E2F0" height="46.5938" rx="2.5" ry="2.5" style="stroke:#181818;stroke-width:0.5;" width="145.6191" x="1480.4478" y="42.2969"/><text fill="#000000" font-family="sans-serif" font-size="14" lengthAdjust="spacing" textLength="71.4561" x="1517.5293" y="62.292">&#171;Domain&#187;</text><text fill="#000000" font-family="sans-serif" font-size="14" lengthAdjust="spacing" textLength="127.1689" x="1491.8979" y="78.5889">OperationRequest</text><rect fill="#E2E2F0" height="46.5938" rx="2.5" ry="2.5" style="stroke:#181818;stroke-width:0.5;" width="145.6191" x="1480.4478" y="1587.3828"/><text fill="#000000" font-family="sans-serif" font-size="14" lengthAdjust="spacing" textLength="71.4561" x="1517.5293" y="1607.3779">&#171;Domain&#187;</text><text fill="#000000" font-family="sans-serif" font-size="14" lengthAdjust="spacing" textLength="127.1689" x="1491.8979" y="1623.6748">OperationRequest</text><rect fill="#E2E2F0" height="46.5938" rx="2.5" ry="2.5" style="stroke:#181818;stroke-width:0.5;" width="175.9707" x="1636.0669" y="1587.3828"/><text fill="#000000" font-family="sans-serif" font-size="14" lengthAdjust="spacing" textLength="47.4824" x="1700.311" y="1607.3779">&#171;DTO&#187;</text><text fill="#000000" font-family="sans-serif" font-size="14" lengthAdjust="spacing" textLength="157.5205" x="1647.5171" y="1623.6748">OperationRequestDTO</text><rect fill="#E2E2F0" height="46.5938" rx="2.5" ry="2.5" style="stroke:#181818;stroke-width:0.5;" width="110.332" x="1822.0376" y="42.2969"/><text fill="#000000" font-family="sans-serif" font-size="14" lengthAdjust="spacing" textLength="96.332" x="1829.0376" y="62.292">&#171;component&#187;</text><text fill="#000000" font-family="sans-serif" font-size="14" lengthAdjust="spacing" textLength="80.5752" x="1839.1411" y="78.5889">Persistence</text><rect fill="#E2E2F0" height="46.5938" rx="2.5" ry="2.5" style="stroke:#181818;stroke-width:0.5;" width="110.332" x="1822.0376" y="1587.3828"/><text fill="#000000" font-family="sans-serif" font-size="14" lengthAdjust="spacing" textLength="96.332" x="1829.0376" y="1607.3779">&#171;component&#187;</text><text fill="#000000" font-family="sans-serif" font-size="14" lengthAdjust="spacing" textLength="80.5752" x="1839.1411" y="1623.6748">Persistence</text><rect fill="#FFFFFF" height="480.0195" style="stroke:#181818;stroke-width:1.0;" width="10" x="97.9858" y="139.1563"/><rect fill="#FFFFFF" height="306.6563" style="stroke:#181818;stroke-width:1.0;" width="10" x="97.9858" y="661.875"/><rect fill="#FFFFFF" height="562.1523" style="stroke:#181818;stroke-width:1.0;" width="10" x="97.9858" y="1008.2305"/><rect fill="#FFFFFF" height="393.0547" style="stroke:#181818;stroke-width:1.0;" width="10" x="308.8257" y="186.4219"/><rect fill="#FFFFFF" height="245.3906" style="stroke:#181818;stroke-width:1.0;" width="10" x="308.8257" y="694.0078"/><rect fill="#FFFFFF" height="493.3203" style="stroke:#181818;stroke-width:1.0;" width="10" x="308.8257" y="1047.9297"/><rect fill="#FFFFFF" height="292.6563" style="stroke:#181818;stroke-width:1.0;" width="10" x="536.3169" y="215.5547"/><rect fill="#FFFFFF" height="87.3984" style="stroke:#181818;stroke-width:1.0;" width="10" x="536.3169" y="780.7344"/><rect fill="#FFFFFF" height="335.3281" style="stroke:#181818;stroke-width:1.0;" width="10" x="536.3169" y="1134.6563"/><rect fill="#FFFFFF" height="29.1328" style="stroke:#181818;stroke-width:1.0;" width="10" x="755.3428" y="244.6875"/><rect fill="#FFFFFF" height="29.1328" style="stroke:#181818;stroke-width:1.0;" width="10" x="755.3428" y="809.8672"/><rect fill="#FFFFFF" height="29.1328" style="stroke:#181818;stroke-width:1.0;" width="10" x="755.3428" y="1163.7891"/><rect fill="#FFFFFF" height="43.1328" style="stroke:#181818;stroke-width:1.0;" width="10" x="755.3428" y="1222.0547"/><rect fill="#FFFFFF" height="146.5313" style="stroke:#181818;stroke-width:1.0;" width="10" x="935.4722" y="1294.3203"/><rect fill="#FFFFFF" height="29.1328" style="stroke:#181818;stroke-width:1.0;" width="10" x="1088.0991" y="1323.4531"/><rect fill="#FFFFFF" height="29.1328" style="stroke:#181818;stroke-width:1.0;" width="10" x="1269.77" y="442.9453"/><rect fill="#FFFFFF" height="30" style="stroke:#181818;stroke-width:1.0;" width="10" x="1422.7197" y="1381.7188"/><rect fill="#FFFFFF" height="29.1328" style="stroke:#181818;stroke-width:1.0;" width="10" x="1548.2573" y="384.6797"/><ellipse cx="7.5" cy="138.4063" fill="#000000" rx="4" ry="4" style="stroke:#181818;stroke-width:1.5;"/><polygon fill="#181818" points="85.9858,135.1563,95.9858,139.1563,85.9858,143.1563,89.9858,139.1563" style="stroke:#181818;stroke-width:1.0;"/><line style="stroke:#181818;stroke-width:1.0;" x1="12" x2="91.9858" y1="139.1563" y2="139.1563"/><text fill="#000000" font-family="sans-serif" font-size="13" lengthAdjust="spacing" textLength="62.9497" x="15" y="134.0903">GET(json)</text><path d="M112,104.8906 L112,159.8906 L209,159.8906 L209,114.8906 L199,104.8906 L112,104.8906 " fill="#FEFFDD" style="stroke:#181818;stroke-width:0.5;"/><path d="M199,104.8906 L199,114.8906 L209,114.8906 L199,104.8906 " fill="#FEFFDD" style="stroke:#181818;stroke-width:0.5;"/><text fill="#000000" font-family="sans-serif" font-size="13" lengthAdjust="spacing" textLength="72.0142" x="118" y="121.9575">getting the</text><text fill="#000000" font-family="sans-serif" font-size="13" lengthAdjust="spacing" textLength="35.7563" x="118" y="137.0903">list of</text><text fill="#000000" font-family="sans-serif" font-size="13" lengthAdjust="spacing" textLength="75.7974" x="118" y="152.2231">all requests</text><polygon fill="#181818" points="296.8257,182.4219,306.8257,186.4219,296.8257,190.4219,300.8257,186.4219" style="stroke:#181818;stroke-width:1.0;"/><line style="stroke:#181818;stroke-width:1.0;" x1="107.9858" x2="302.8257" y1="186.4219" y2="186.4219"/><text fill="#000000" font-family="sans-serif" font-size="13" lengthAdjust="spacing" textLength="155.7651" x="114.9858" y="181.356">getListOfRequests(json)</text><polygon fill="#181818" points="524.3169,211.5547,534.3169,215.5547,524.3169,219.5547,528.3169,215.5547" style="stroke:#181818;stroke-width:1.0;"/><line style="stroke:#181818;stroke-width:1.0;" x1="318.8257" x2="530.3169" y1="215.5547" y2="215.5547"/><text fill="#000000" font-family="sans-serif" font-size="13" lengthAdjust="spacing" textLength="129.1875" x="325.8257" y="210.4888">getListOfRequests()</text><polygon fill="#181818" points="743.3428,240.6875,753.3428,244.6875,743.3428,248.6875,747.3428,244.6875" style="stroke:#181818;stroke-width:1.0;"/><line style="stroke:#181818;stroke-width:1.0;" x1="546.3169" x2="749.3428" y1="244.6875" y2="244.6875"/><text fill="#000000" font-family="sans-serif" font-size="13" lengthAdjust="spacing" textLength="50.9399" x="553.3169" y="239.6216">findAll()</text><polygon fill="#181818" points="557.3169,269.8203,547.3169,273.8203,557.3169,277.8203,553.3169,273.8203" style="stroke:#181818;stroke-width:1.0;"/><line style="stroke:#181818;stroke-width:1.0;stroke-dasharray:2.0,2.0;" x1="551.3169" x2="759.3428" y1="273.8203" y2="273.8203"/><text fill="#000000" font-family="sans-serif" font-size="13" lengthAdjust="spacing" textLength="81.6118" x="563.3169" y="268.7544">listOfProfiles</text><polygon fill="#181818" points="1162.5483,283.8203,1172.5483,287.8203,1162.5483,291.8203,1166.5483,287.8203" style="stroke:#181818;stroke-width:1.0;"/><line style="stroke:#181818;stroke-width:1.0;" x1="546.3169" x2="1168.5483" y1="287.8203" y2="287.8203"/><rect fill="#E2E2F0" height="46.5938" rx="2.5" ry="2.5" style="stroke:#181818;stroke-width:0.5;" width="200.4434" x="1174.5483" y="281.8203"/><text fill="#000000" font-family="sans-serif" font-size="14" lengthAdjust="spacing" textLength="47.4824" x="1251.0288" y="301.8154">&#171;DTO&#187;</text><text fill="#000000" font-family="sans-serif" font-size="14" lengthAdjust="spacing" textLength="181.9932" x="1185.9985" y="318.1123">OperationRequestListDTO</text><path d="M432.6367,346.4141 L509.2607,346.4141 L509.2607,353.5469 L499.2607,363.5469 L432.6367,363.5469 L432.6367,346.4141 " fill="#EEEEEE" style="stroke:#000000;stroke-width:1.5;"/><rect fill="none" height="133.6641" style="stroke:#000000;stroke-width:1.5;" width="1203.4302" x="432.6367" y="346.4141"/><text fill="#000000" font-family="sans-serif" font-size="13" font-weight="bold" lengthAdjust="spacing" textLength="31.624" x="447.6367" y="359.481">loop</text><text fill="#000000" font-family="sans-serif" font-size="11" font-weight="bold" lengthAdjust="spacing" textLength="210.9336" x="524.2607" y="358.6245">[for every profile in listOfProfiles]</text><polygon fill="#181818" points="1536.2573,380.6797,1546.2573,384.6797,1536.2573,388.6797,1540.2573,384.6797" style="stroke:#181818;stroke-width:1.0;"/><line style="stroke:#181818;stroke-width:1.0;" x1="546.3169" x2="1542.2573" y1="384.6797" y2="384.6797"/><text fill="#000000" font-family="sans-serif" font-size="13" lengthAdjust="spacing" textLength="51.3779" x="553.3169" y="379.6138">toDTO()</text><polygon fill="#181818" points="557.3169,409.8125,547.3169,413.8125,557.3169,417.8125,553.3169,413.8125" style="stroke:#181818;stroke-width:1.0;"/><line style="stroke:#181818;stroke-width:1.0;stroke-dasharray:2.0,2.0;" x1="551.3169" x2="1552.2573" y1="413.8125" y2="413.8125"/><text fill="#000000" font-family="sans-serif" font-size="13" lengthAdjust="spacing" textLength="69.5322" x="563.3169" y="408.7466">profileDTO</text><polygon fill="#181818" points="1257.77,438.9453,1267.77,442.9453,1257.77,446.9453,1261.77,442.9453" style="stroke:#181818;stroke-width:1.0;"/><line style="stroke:#181818;stroke-width:1.0;" x1="546.3169" x2="1263.77" y1="442.9453" y2="442.9453"/><text fill="#000000" font-family="sans-serif" font-size="13" lengthAdjust="spacing" textLength="124.1665" x="553.3169" y="437.8794">listAdd(profileDTO)</text><polygon fill="#181818" points="557.3169,468.0781,547.3169,472.0781,557.3169,476.0781,553.3169,472.0781" style="stroke:#181818;stroke-width:1.0;"/><line style="stroke:#181818;stroke-width:1.0;stroke-dasharray:2.0,2.0;" x1="551.3169" x2="1273.77" y1="472.0781" y2="472.0781"/><text fill="#000000" font-family="sans-serif" font-size="13" lengthAdjust="spacing" textLength="40.2632" x="563.3169" y="467.0122">return</text><polygon fill="#181818" points="329.8257,504.2109,319.8257,508.2109,329.8257,512.2109,325.8257,508.2109" style="stroke:#181818;stroke-width:1.0;"/><line style="stroke:#181818;stroke-width:1.0;stroke-dasharray:2.0,2.0;" x1="323.8257" x2="540.3169" y1="508.2109" y2="508.2109"/><text fill="#000000" font-family="sans-serif" font-size="13" lengthAdjust="spacing" textLength="120.5039" x="335.8257" y="503.145">opRequestListDTO</text><line style="stroke:#181818;stroke-width:1.0;" x1="318.8257" x2="360.8257" y1="537.3438" y2="537.3438"/><line style="stroke:#181818;stroke-width:1.0;" x1="360.8257" x2="360.8257" y1="537.3438" y2="550.3438"/><line style="stroke:#181818;stroke-width:1.0;" x1="319.8257" x2="360.8257" y1="550.3438" y2="550.3438"/><polygon fill="#181818" points="329.8257,546.3438,319.8257,550.3438,329.8257,554.3438,325.8257,550.3438" style="stroke:#181818;stroke-width:1.0;"/><text fill="#000000" font-family="sans-serif" font-size="13" lengthAdjust="spacing" textLength="146.1294" x="325.8257" y="532.2778">ok(opRequestListDTO)</text><polygon fill="#181818" points="118.9858,575.4766,108.9858,579.4766,118.9858,583.4766,114.9858,579.4766" style="stroke:#181818;stroke-width:1.0;"/><line style="stroke:#181818;stroke-width:1.0;stroke-dasharray:2.0,2.0;" x1="112.9858" x2="312.8257" y1="579.4766" y2="579.4766"/><text fill="#000000" font-family="sans-serif" font-size="13" lengthAdjust="spacing" textLength="26.5776" x="124.9858" y="574.4106">json</text><polygon fill="#181818" points="11,615.1758,1,619.1758,11,623.1758,7,619.1758" style="stroke:#181818;stroke-width:1.0;"/><line style="stroke:#181818;stroke-width:1.0;stroke-dasharray:2.0,2.0;" x1="5" x2="101.9858" y1="619.1758" y2="619.1758"/><text fill="#000000" font-family="sans-serif" font-size="13" lengthAdjust="spacing" textLength="26.5776" x="17" y="614.1099">json</text><path d="M112,592.4766 L112,632.4766 L226,632.4766 L226,602.4766 L216,592.4766 L112,592.4766 " fill="#FEFFDD" style="stroke:#181818;stroke-width:0.5;"/><path d="M216,592.4766 L216,602.4766 L226,602.4766 L216,592.4766 " fill="#FEFFDD" style="stroke:#181818;stroke-width:0.5;"/><text fill="#000000" font-family="sans-serif" font-size="13" lengthAdjust="spacing" textLength="93.2852" x="118" y="609.5435">after choosing</text><text fill="#000000" font-family="sans-serif" font-size="13" lengthAdjust="spacing" textLength="61.8008" x="122.1323" y="624.6763">a request</text><ellipse cx="7.5" cy="661.125" fill="#000000" rx="4" ry="4" style="stroke:#181818;stroke-width:1.5;"/><polygon fill="#181818" points="85.9858,657.875,95.9858,661.875,85.9858,665.875,89.9858,661.875" style="stroke:#181818;stroke-width:1.0;"/><line style="stroke:#181818;stroke-width:1.0;" x1="12" x2="91.9858" y1="661.875" y2="661.875"/><text fill="#000000" font-family="sans-serif" font-size="13" lengthAdjust="spacing" textLength="70.9858" x="15" y="656.8091">POST(json)</text><path d="M112,642.7422 L112,667.7422 L223,667.7422 L223,652.7422 L213,642.7422 L112,642.7422 " fill="#FEFFDD" style="stroke:#181818;stroke-width:0.5;"/><path d="M213,642.7422 L213,652.7422 L223,652.7422 L213,642.7422 " fill="#FEFFDD" style="stroke:#181818;stroke-width:0.5;"/><text fill="#000000" font-family="sans-serif" font-size="13" lengthAdjust="spacing" textLength="90.1685" x="118" y="659.8091">op. request id</text><polygon fill="#181818" points="296.8257,690.0078,306.8257,694.0078,296.8257,698.0078,300.8257,694.0078" style="stroke:#181818;stroke-width:1.0;"/><line style="stroke:#181818;stroke-width:1.0;" x1="107.9858" x2="302.8257" y1="694.0078" y2="694.0078"/><text fill="#000000" font-family="sans-serif" font-size="13" lengthAdjust="spacing" textLength="158.6279" x="114.9858" y="688.9419">checkRequestByID(json)</text><polygon fill="#181818" points="1624.0669,719.1406,1634.0669,723.1406,1624.0669,727.1406,1628.0669,723.1406" style="stroke:#181818;stroke-width:1.0;"/><line style="stroke:#181818;stroke-width:1.0;" x1="318.8257" x2="1630.0669" y1="723.1406" y2="723.1406"/><text fill="#000000" font-family="sans-serif" font-size="13" lengthAdjust="spacing" textLength="77.9556" x="325.8257" y="718.0747">toDTO(json)</text><rect fill="#E2E2F0" height="46.5938" rx="2.5" ry="2.5" style="stroke:#181818;stroke-width:0.5;" width="175.9707" x="1636.0669" y="702.0078"/><text fill="#000000" font-family="sans-serif" font-size="14" lengthAdjust="spacing" textLength="47.4824" x="1700.311" y="722.0029">&#171;DTO&#187;</text><text fill="#000000" font-family="sans-serif" font-size="14" lengthAdjust="spacing" textLength="157.5205" x="1647.5171" y="738.2998">OperationRequestDTO</text><polygon fill="#181818" points="524.3169,776.7344,534.3169,780.7344,524.3169,784.7344,528.3169,780.7344" style="stroke:#181818;stroke-width:1.0;"/><line style="stroke:#181818;stroke-width:1.0;" x1="318.8257" x2="530.3169" y1="780.7344" y2="780.7344"/><text fill="#000000" font-family="sans-serif" font-size="13" lengthAdjust="spacing" textLength="195.5967" x="325.8257" y="775.6685">checkRequestByID(requestID)</text><polygon fill="#181818" points="743.3428,805.8672,753.3428,809.8672,743.3428,813.8672,747.3428,809.8672" style="stroke:#181818;stroke-width:1.0;"/><line style="stroke:#181818;stroke-width:1.0;" x1="546.3169" x2="749.3428" y1="809.8672" y2="809.8672"/><text fill="#000000" font-family="sans-serif" font-size="13" lengthAdjust="spacing" textLength="140.334" x="553.3169" y="804.8013">existsById(requestID)</text><polygon fill="#181818" points="557.3169,835,547.3169,839,557.3169,843,553.3169,839" style="stroke:#181818;stroke-width:1.0;"/><line style="stroke:#181818;stroke-width:1.0;stroke-dasharray:2.0,2.0;" x1="551.3169" x2="759.3428" y1="839" y2="839"/><text fill="#000000" font-family="sans-serif" font-size="13" lengthAdjust="spacing" textLength="26.6792" x="563.3169" y="833.9341">true</text><polygon fill="#181818" points="329.8257,864.1328,319.8257,868.1328,329.8257,872.1328,325.8257,868.1328" style="stroke:#181818;stroke-width:1.0;"/><line style="stroke:#181818;stroke-width:1.0;stroke-dasharray:2.0,2.0;" x1="323.8257" x2="540.3169" y1="868.1328" y2="868.1328"/><text fill="#000000" font-family="sans-serif" font-size="13" lengthAdjust="spacing" textLength="26.6792" x="335.8257" y="863.0669">true</text><line style="stroke:#181818;stroke-width:1.0;stroke-dasharray:2.0,2.0;" x1="318.8257" x2="360.8257" y1="897.2656" y2="897.2656"/><line style="stroke:#181818;stroke-width:1.0;stroke-dasharray:2.0,2.0;" x1="360.8257" x2="360.8257" y1="897.2656" y2="910.2656"/><line style="stroke:#181818;stroke-width:1.0;stroke-dasharray:2.0,2.0;" x1="319.8257" x2="360.8257" y1="910.2656" y2="910.2656"/><polygon fill="#181818" points="329.8257,906.2656,319.8257,910.2656,329.8257,914.2656,325.8257,910.2656" style="stroke:#181818;stroke-width:1.0;"/><text fill="#000000" font-family="sans-serif" font-size="13" lengthAdjust="spacing" textLength="52.3047" x="325.8257" y="892.1997">ok(true)</text><polygon fill="#181818" points="118.9858,935.3984,108.9858,939.3984,118.9858,943.3984,114.9858,939.3984" style="stroke:#181818;stroke-width:1.0;"/><line style="stroke:#181818;stroke-width:1.0;stroke-dasharray:2.0,2.0;" x1="112.9858" x2="312.8257" y1="939.3984" y2="939.3984"/><text fill="#000000" font-family="sans-serif" font-size="13" lengthAdjust="spacing" textLength="26.5776" x="124.9858" y="934.3325">json</text><polygon fill="#181818" points="11,964.5313,1,968.5313,11,972.5313,7,968.5313" style="stroke:#181818;stroke-width:1.0;"/><line style="stroke:#181818;stroke-width:1.0;stroke-dasharray:2.0,2.0;" x1="5" x2="101.9858" y1="968.5313" y2="968.5313"/><text fill="#000000" font-family="sans-serif" font-size="13" lengthAdjust="spacing" textLength="26.5776" x="17" y="963.4653">json</text><ellipse cx="7.5" cy="1007.4805" fill="#000000" rx="4" ry="4" style="stroke:#181818;stroke-width:1.5;"/><polygon fill="#181818" points="85.9858,1004.2305,95.9858,1008.2305,85.9858,1012.2305,89.9858,1008.2305" style="stroke:#181818;stroke-width:1.0;"/><line style="stroke:#181818;stroke-width:1.0;" x1="12" x2="91.9858" y1="1008.2305" y2="1008.2305"/><text fill="#000000" font-family="sans-serif" font-size="13" lengthAdjust="spacing" textLength="70.9858" x="15" y="1003.1646">POST(json)</text><path d="M112,981.5313 L112,1021.5313 L245,1021.5313 L245,991.5313 L235,981.5313 L112,981.5313 " fill="#FEFFDD" style="stroke:#181818;stroke-width:0.5;"/><path d="M235,981.5313 L235,991.5313 L245,991.5313 L235,981.5313 " fill="#FEFFDD" style="stroke:#181818;stroke-width:0.5;"/><text fill="#000000" font-family="sans-serif" font-size="13" lengthAdjust="spacing" textLength="81.6626" x="118" y="998.5981">after getting</text><text fill="#000000" font-family="sans-serif" font-size="13" lengthAdjust="spacing" textLength="107.8721" x="122.1323" y="1013.731">the confirmation</text><polygon fill="#181818" points="296.8257,1043.9297,306.8257,1047.9297,296.8257,1051.9297,300.8257,1047.9297" style="stroke:#181818;stroke-width:1.0;"/><line style="stroke:#181818;stroke-width:1.0;" x1="107.9858" x2="302.8257" y1="1047.9297" y2="1047.9297"/><text fill="#000000" font-family="sans-serif" font-size="13" lengthAdjust="spacing" textLength="131.0664" x="114.9858" y="1042.8638">deleteRequest(json)</text><polygon fill="#181818" points="1624.0669,1073.0625,1634.0669,1077.0625,1624.0669,1081.0625,1628.0669,1077.0625" style="stroke:#181818;stroke-width:1.0;"/><line style="stroke:#181818;stroke-width:1.0;" x1="318.8257" x2="1630.0669" y1="1077.0625" y2="1077.0625"/><text fill="#000000" font-family="sans-serif" font-size="13" lengthAdjust="spacing" textLength="77.9556" x="325.8257" y="1071.9966">toDTO(json)</text><rect fill="#E2E2F0" height="46.5938" rx="2.5" ry="2.5" style="stroke:#181818;stroke-width:0.5;" width="175.9707" x="1636.0669" y="1055.9297"/><text fill="#000000" font-family="sans-serif" font-size="14" lengthAdjust="spacing" textLength="47.4824" x="1700.311" y="1075.9248">&#171;DTO&#187;</text><text fill="#000000" font-family="sans-serif" font-size="14" lengthAdjust="spacing" textLength="157.5205" x="1647.5171" y="1092.2217">OperationRequestDTO</text><polygon fill="#181818" points="524.3169,1130.6563,534.3169,1134.6563,524.3169,1138.6563,528.3169,1134.6563" style="stroke:#181818;stroke-width:1.0;"/><line style="stroke:#181818;stroke-width:1.0;" x1="318.8257" x2="530.3169" y1="1134.6563" y2="1134.6563"/><text fill="#000000" font-family="sans-serif" font-size="13" lengthAdjust="spacing" textLength="198.4912" x="325.8257" y="1129.5903">deleteRequestByID(requestID)</text><polygon fill="#181818" points="743.3428,1159.7891,753.3428,1163.7891,743.3428,1167.7891,747.3428,1163.7891" style="stroke:#181818;stroke-width:1.0;"/><line style="stroke:#181818;stroke-width:1.0;" x1="546.3169" x2="749.3428" y1="1163.7891" y2="1163.7891"/><text fill="#000000" font-family="sans-serif" font-size="13" lengthAdjust="spacing" textLength="128.8257" x="553.3169" y="1158.7231">findByID(requestID)</text><polygon fill="#181818" points="557.3169,1188.9219,547.3169,1192.9219,557.3169,1196.9219,553.3169,1192.9219" style="stroke:#181818;stroke-width:1.0;"/><line style="stroke:#181818;stroke-width:1.0;stroke-dasharray:2.0,2.0;" x1="551.3169" x2="759.3428" y1="1192.9219" y2="1192.9219"/><text fill="#000000" font-family="sans-serif" font-size="13" lengthAdjust="spacing" textLength="115.8066" x="563.3169" y="1187.856">operationRequest</text><polygon fill="#181818" points="743.3428,1218.0547,753.3428,1222.0547,743.3428,1226.0547,747.3428,1222.0547" style="stroke:#181818;stroke-width:1.0;"/><line style="stroke:#181818;stroke-width:1.0;" x1="546.3169" x2="749.3428" y1="1222.0547" y2="1222.0547"/><text fill="#000000" font-family="sans-serif" font-size="13" lengthAdjust="spacing" textLength="166.9053" x="553.3169" y="1216.9888">delete(operationRequest)</text><polygon fill="#181818" points="1865.2036,1232.0547,1875.2036,1236.0547,1865.2036,1240.0547,1869.2036,1236.0547" style="stroke:#181818;stroke-width:1.0;"/><line style="stroke:#181818;stroke-width:1.0;" x1="765.3428" x2="1871.2036" y1="1236.0547" y2="1236.0547"/><polygon fill="#181818" points="557.3169,1261.1875,547.3169,1265.1875,557.3169,1269.1875,553.3169,1265.1875" style="stroke:#181818;stroke-width:1.0;"/><line style="stroke:#181818;stroke-width:1.0;stroke-dasharray:2.0,2.0;" x1="551.3169" x2="759.3428" y1="1265.1875" y2="1265.1875"/><text fill="#000000" font-family="sans-serif" font-size="13" lengthAdjust="spacing" textLength="40.2632" x="563.3169" y="1260.1216">return</text><polygon fill="#181818" points="923.4722,1290.3203,933.4722,1294.3203,923.4722,1298.3203,927.4722,1294.3203" style="stroke:#181818;stroke-width:1.0;"/><line style="stroke:#181818;stroke-width:1.0;" x1="546.3169" x2="929.4722" y1="1294.3203" y2="1294.3203"/><text fill="#000000" font-family="sans-serif" font-size="13" lengthAdjust="spacing" textLength="310.7813" x="553.3169" y="1289.2544">deleteRequestFromProfile(patientID, requestID)</text><polygon fill="#181818" points="1076.0991,1319.4531,1086.0991,1323.4531,1076.0991,1327.4531,1080.0991,1323.4531" style="stroke:#181818;stroke-width:1.0;"/><line style="stroke:#181818;stroke-width:1.0;" x1="945.4722" x2="1082.0991" y1="1323.4531" y2="1323.4531"/><text fill="#000000" font-family="sans-serif" font-size="13" lengthAdjust="spacing" textLength="123.627" x="952.4722" y="1318.3872">findById(patientID)</text><polygon fill="#181818" points="956.4722,1348.5859,946.4722,1352.5859,956.4722,1356.5859,952.4722,1352.5859" style="stroke:#181818;stroke-width:1.0;"/><line style="stroke:#181818;stroke-width:1.0;stroke-dasharray:2.0,2.0;" x1="950.4722" x2="1092.0991" y1="1352.5859" y2="1352.5859"/><text fill="#000000" font-family="sans-serif" font-size="13" lengthAdjust="spacing" textLength="87.1978" x="962.4722" y="1347.52">patientProfile</text><polygon fill="#181818" points="1410.7197,1377.7188,1420.7197,1381.7188,1410.7197,1385.7188,1414.7197,1381.7188" style="stroke:#181818;stroke-width:1.0;"/><line style="stroke:#181818;stroke-width:1.0;" x1="945.4722" x2="1416.7197" y1="1381.7188" y2="1381.7188"/><text fill="#000000" font-family="sans-serif" font-size="13" lengthAdjust="spacing" textLength="168.0352" x="952.4722" y="1376.6528">deleteRequest(requestID)</text><polygon fill="#181818" points="557.3169,1436.8516,547.3169,1440.8516,557.3169,1444.8516,553.3169,1440.8516" style="stroke:#181818;stroke-width:1.0;"/><line style="stroke:#181818;stroke-width:1.0;stroke-dasharray:2.0,2.0;" x1="551.3169" x2="939.4722" y1="1440.8516" y2="1440.8516"/><text fill="#000000" font-family="sans-serif" font-size="13" lengthAdjust="spacing" textLength="40.2632" x="563.3169" y="1435.7856">return</text><polygon fill="#181818" points="329.8257,1465.9844,319.8257,1469.9844,329.8257,1473.9844,325.8257,1469.9844" style="stroke:#181818;stroke-width:1.0;"/><line style="stroke:#181818;stroke-width:1.0;stroke-dasharray:2.0,2.0;" x1="323.8257" x2="540.3169" y1="1469.9844" y2="1469.9844"/><text fill="#000000" font-family="sans-serif" font-size="13" lengthAdjust="spacing" textLength="40.2632" x="335.8257" y="1464.9185">return</text><line style="stroke:#181818;stroke-width:1.0;stroke-dasharray:2.0,2.0;" x1="318.8257" x2="360.8257" y1="1499.1172" y2="1499.1172"/><line style="stroke:#181818;stroke-width:1.0;stroke-dasharray:2.0,2.0;" x1="360.8257" x2="360.8257" y1="1499.1172" y2="1512.1172"/><line style="stroke:#181818;stroke-width:1.0;stroke-dasharray:2.0,2.0;" x1="319.8257" x2="360.8257" y1="1512.1172" y2="1512.1172"/><polygon fill="#181818" points="329.8257,1508.1172,319.8257,1512.1172,329.8257,1516.1172,325.8257,1512.1172" style="stroke:#181818;stroke-width:1.0;"/><text fill="#000000" font-family="sans-serif" font-size="13" lengthAdjust="spacing" textLength="69.3291" x="325.8257" y="1494.0513">ok(sucess)</text><polygon fill="#181818" points="118.9858,1537.25,108.9858,1541.25,118.9858,1545.25,114.9858,1541.25" style="stroke:#181818;stroke-width:1.0;"/><line style="stroke:#181818;stroke-width:1.0;stroke-dasharray:2.0,2.0;" x1="112.9858" x2="312.8257" y1="1541.25" y2="1541.25"/><text fill="#000000" font-family="sans-serif" font-size="13" lengthAdjust="spacing" textLength="26.5776" x="124.9858" y="1536.1841">json</text><polygon fill="#181818" points="11,1566.3828,1,1570.3828,11,1574.3828,7,1570.3828" style="stroke:#181818;stroke-width:1.0;"/><line style="stroke:#181818;stroke-width:1.0;stroke-dasharray:2.0,2.0;" x1="5" x2="101.9858" y1="1570.3828" y2="1570.3828"/><text fill="#000000" font-family="sans-serif" font-size="13" lengthAdjust="spacing" textLength="26.5776" x="17" y="1565.3169">json</text><!--SRC=[hLRHRfim57ttLrXv8j4IgPecJLCLAMlO52aQAD2-h2y8BebNOZFZTElVps2R6EEccTGt4jzppx7FkGP1H0LuSf_WJukRnStd1Ouvow5fy0E1FpZOmZDK-EDqWb2TSK5oKcTKuCdjxOwT12oNZnH7DV1C44PtyFi4ZUXM9ZXhy2wwJqCNUCUeuAogW7lHv-MknLtq8zr5MxT90loPv7v-lTR1at3tC58EDMk8OFp5BxzVLdi8u-WIUoonG0UayHMi6kQGnJwsTHfvXMv98-HQ1znkabG-Zw3ic15g4ogQLNgXqkNf896KbbohpAZgG1vPEJlMZ4erIXdmHcu5g3c-S9V8xOG_xaA4VhBvKkK8Vy7VmpJurJ0wHPG9m9pi3qB-lGSX2DrZSG3yI2lP2xDIFcLLXRbIr22qoWLvpYHCfHAffhAxZfXgr1vgLEfzD9hjZ3LnH0OayQtRNl3qZEiIWRhATZ_IPOae2IrMLHLCiIMk3G3g2kRdtbNNM8vcIIfeq1goONtVMUTWDaCLOpKk6SToWlaBhXKM4-esCz3EBCabc6mWjVSKodgrR6dI7Ljx2t2A7Jbw1wkY2CueYy6arvHRB1p4YLERmHG3BSo-1oQoUZWVzcaf6oplBDXJu2AdLgcLmZOJTbEJYTlvV5Wpy4c5Rf3Rh1J0SNvWyWgWUpa9cOcha_iuIhp1P_N2830fhefuVe3yIM_pwyjcVLN2pHpFPdq-D6my1YC2BN2pVciSuAyyzaPY2XipJBex68AVm0w76WTFAjn29mbk5DhowUlk5sFtn_ON8_UlCbMbGjzfCXJjhPOpMX9-xExOgsmke081sePtztZG_VzCRkyy5t7POkQyN5wpkwTGwW8Nv-TPsgyRF28VNpz3ojXt8jyuE-hhDQZLQtUp_e1zErQV2YZk-msFgJZZRL2d8Uwr6X6wLbFReXN2ebcbev1uvSaF1RkD_DbtkNH8QbkUCHoNlZ68pQdz6dtlKVm7]--></g></svg>