<?xml version="1.0" encoding="us-ascii" standalone="no"?><svg xmlns="http://www.w3.org/2000/svg" xmlns:xlink="http://www.w3.org/1999/xlink" contentStyleType="text/css" height="525px" preserveAspectRatio="none" style="width:611px;height:525px;background:#FFFFFF;" version="1.1" viewBox="0 0 611 525" width="611px" zoomAndPan="magnify"><defs/><g><text fill="#000000" font-family="sans-serif" font-size="14" font-weight="bold" lengthAdjust="spacing" textLength="262" x="176" y="30.1074">US 5.1.17 - System Sequence Diagram</text><rect fill="#FFFFFF" height="358.2012" style="stroke:#181818;stroke-width:1.0;" width="10" x="43" y="111.5332"/><rect fill="#FFFFFF" height="358.2012" style="stroke:#181818;stroke-width:1.0;" width="10" x="407" y="111.5332"/><rect fill="none" height="173.7461" style="stroke:#000000;stroke-width:1.5;" width="595" x="10" y="220.4063"/><line style="stroke:#181818;stroke-width:0.5;stroke-dasharray:5.0,5.0;" x1="48" x2="48" y1="78.2422" y2="487.7344"/><line style="stroke:#181818;stroke-width:0.5;stroke-dasharray:5.0,5.0;" x1="412" x2="412" y1="78.2422" y2="487.7344"/><rect fill="#E2E2F0" height="32.6211" rx="2.5" ry="2.5" style="stroke:#181818;stroke-width:0.5;" width="56" x="20" y="44.6211"/><text fill="#000000" font-family="sans-serif" font-size="14" lengthAdjust="spacing" textLength="42" x="27" y="66.7285">Doctor</text><rect fill="#E2E2F0" height="32.6211" rx="2.5" ry="2.5" style="stroke:#181818;stroke-width:0.5;" width="56" x="20" y="486.7344"/><text fill="#000000" font-family="sans-serif" font-size="14" lengthAdjust="spacing" textLength="42" x="27" y="508.8418">Doctor</text><rect fill="#E2E2F0" height="32.6211" rx="2.5" ry="2.5" style="stroke:#181818;stroke-width:0.5;" width="60" x="382" y="44.6211"/><text fill="#000000" font-family="sans-serif" font-size="14" lengthAdjust="spacing" textLength="46" x="389" y="66.7285">System</text><rect fill="#E2E2F0" height="32.6211" rx="2.5" ry="2.5" style="stroke:#181818;stroke-width:0.5;" width="60" x="382" y="486.7344"/><text fill="#000000" font-family="sans-serif" font-size="14" lengthAdjust="spacing" textLength="46" x="389" y="508.8418">System</text><rect fill="#FFFFFF" height="358.2012" style="stroke:#181818;stroke-width:1.0;" width="10" x="43" y="111.5332"/><rect fill="#FFFFFF" height="358.2012" style="stroke:#181818;stroke-width:1.0;" width="10" x="407" y="111.5332"/><polygon fill="#181818" points="395,107.5332,405,111.5332,395,115.5332,399,111.5332" style="stroke:#181818;stroke-width:1.0;"/><line style="stroke:#181818;stroke-width:1.0;" x1="53" x2="401" y1="111.5332" y2="111.5332"/><text fill="#000000" font-family="sans-serif" font-size="13" font-weight="bold" lengthAdjust="spacing" textLength="7" x="60" y="106.2705">1</text><text fill="#000000" font-family="sans-serif" font-size="13" lengthAdjust="spacing" textLength="309" x="71" y="106.2705">requests the edition/update of an operation requisition</text><polygon fill="#181818" points="64,138.8242,54,142.8242,64,146.8242,60,142.8242" style="stroke:#181818;stroke-width:1.0;"/><line style="stroke:#181818;stroke-width:1.0;stroke-dasharray:2.0,2.0;" x1="58" x2="406" y1="142.8242" y2="142.8242"/><text fill="#000000" font-family="sans-serif" font-size="13" font-weight="bold" lengthAdjust="spacing" textLength="7" x="70" y="137.5615">2</text><text fill="#000000" font-family="sans-serif" font-size="13" lengthAdjust="spacing" textLength="300" x="81" y="137.5615">lists the operation requisitions created by the doctor</text><polygon fill="#181818" points="395,170.1152,405,174.1152,395,178.1152,399,174.1152" style="stroke:#181818;stroke-width:1.0;"/><line style="stroke:#181818;stroke-width:1.0;" x1="53" x2="401" y1="174.1152" y2="174.1152"/><text fill="#000000" font-family="sans-serif" font-size="13" font-weight="bold" lengthAdjust="spacing" textLength="7" x="60" y="168.8525">3</text><text fill="#000000" font-family="sans-serif" font-size="13" lengthAdjust="spacing" textLength="173" x="71" y="168.8525">selects the desired requisition</text><polygon fill="#181818" points="64,201.4063,54,205.4063,64,209.4063,60,205.4063" style="stroke:#181818;stroke-width:1.0;"/><line style="stroke:#181818;stroke-width:1.0;stroke-dasharray:2.0,2.0;" x1="58" x2="406" y1="205.4063" y2="205.4063"/><text fill="#000000" font-family="sans-serif" font-size="13" font-weight="bold" lengthAdjust="spacing" textLength="7" x="70" y="200.1436">4</text><text fill="#000000" font-family="sans-serif" font-size="13" lengthAdjust="spacing" textLength="221" x="81" y="200.1436">presents the operation requisition data</text><path d="M10,220.4063 L83,220.4063 L83,229.6973 L73,239.6973 L10,239.6973 L10,220.4063 " fill="#EEEEEE" style="stroke:#000000;stroke-width:1.5;"/><rect fill="none" height="173.7461" style="stroke:#000000;stroke-width:1.5;" width="595" x="10" y="220.4063"/><text fill="#000000" font-family="sans-serif" font-size="13" font-weight="bold" lengthAdjust="spacing" textLength="28" x="25" y="235.4346">loop</text><text fill="#000000" font-family="sans-serif" font-size="11" font-weight="bold" lengthAdjust="spacing" textLength="138" x="98" y="234.2764">[until the Doctor desires]</text><polygon fill="#181818" points="395,258.9883,405,262.9883,395,266.9883,399,262.9883" style="stroke:#181818;stroke-width:1.0;"/><line style="stroke:#181818;stroke-width:1.0;" x1="53" x2="401" y1="262.9883" y2="262.9883"/><text fill="#000000" font-family="sans-serif" font-size="13" font-weight="bold" lengthAdjust="spacing" textLength="7" x="60" y="257.7256">5</text><text fill="#000000" font-family="sans-serif" font-size="13" lengthAdjust="spacing" textLength="319" x="71" y="257.7256">edits/updates an information of the operation requisition</text><line style="stroke:#181818;stroke-width:1.0;stroke-dasharray:2.0,2.0;" x1="417" x2="459" y1="311.5703" y2="311.5703"/><line style="stroke:#181818;stroke-width:1.0;stroke-dasharray:2.0,2.0;" x1="459" x2="459" y1="311.5703" y2="324.5703"/><line style="stroke:#181818;stroke-width:1.0;stroke-dasharray:2.0,2.0;" x1="418" x2="459" y1="324.5703" y2="324.5703"/><polygon fill="#181818" points="428,320.5703,418,324.5703,428,328.5703,424,324.5703" style="stroke:#181818;stroke-width:1.0;"/><text fill="#000000" font-family="sans-serif" font-size="13" font-weight="bold" lengthAdjust="spacing" textLength="7" x="424" y="297.6621">6</text><text fill="#000000" font-family="sans-serif" font-size="13" lengthAdjust="spacing" textLength="101" x="435" y="289.0166">registers the data</text><text fill="#000000" font-family="sans-serif" font-size="13" lengthAdjust="spacing" textLength="147" x="439" y="306.3076">update on the system log</text><line style="stroke:#181818;stroke-width:1.0;stroke-dasharray:2.0,2.0;" x1="417" x2="459" y1="373.1523" y2="373.1523"/><line style="stroke:#181818;stroke-width:1.0;stroke-dasharray:2.0,2.0;" x1="459" x2="459" y1="373.1523" y2="386.1523"/><line style="stroke:#181818;stroke-width:1.0;stroke-dasharray:2.0,2.0;" x1="418" x2="459" y1="386.1523" y2="386.1523"/><polygon fill="#181818" points="428,382.1523,418,386.1523,428,390.1523,424,386.1523" style="stroke:#181818;stroke-width:1.0;"/><text fill="#000000" font-family="sans-serif" font-size="13" font-weight="bold" lengthAdjust="spacing" textLength="7" x="424" y="359.2441">7</text><text fill="#000000" font-family="sans-serif" font-size="13" lengthAdjust="spacing" textLength="158" x="435" y="350.5986">updates data in the system</text><text fill="#000000" font-family="sans-serif" font-size="13" lengthAdjust="spacing" textLength="121" x="439" y="367.8896">and Planning Module</text><polygon fill="#181818" points="395,420.4434,405,424.4434,395,428.4434,399,424.4434" style="stroke:#181818;stroke-width:1.0;"/><line style="stroke:#181818;stroke-width:1.0;" x1="53" x2="401" y1="424.4434" y2="424.4434"/><text fill="#000000" font-family="sans-serif" font-size="13" font-weight="bold" lengthAdjust="spacing" textLength="7" x="60" y="419.1807">8</text><text fill="#000000" font-family="sans-serif" font-size="13" lengthAdjust="spacing" textLength="231" x="71" y="419.1807">confirms the end of the editions/updates</text><polygon fill="#181818" points="64,451.7344,54,455.7344,64,459.7344,60,455.7344" style="stroke:#181818;stroke-width:1.0;"/><line style="stroke:#181818;stroke-width:1.0;stroke-dasharray:2.0,2.0;" x1="58" x2="406" y1="455.7344" y2="455.7344"/><text fill="#000000" font-family="sans-serif" font-size="13" font-weight="bold" lengthAdjust="spacing" textLength="7" x="70" y="450.4717">9</text><text fill="#000000" font-family="sans-serif" font-size="13" lengthAdjust="spacing" textLength="164" x="81" y="450.4717">confirms the data was saved</text><polygon fill="#FFFFFF" points="59,465.7344,49,469.7344,59,473.7344,55,469.7344" style="stroke:#FFFFFF;stroke-width:1.0;"/><line style="stroke:#FFFFFF;stroke-width:1.0;" x1="53" x2="411" y1="469.7344" y2="469.7344"/><!--SRC=[VL8zJyCm4DtzAqvbO6gZ3WYf0mjT4KWH0m86DxwsbXmx-2wj-kyvEqvf8s2BxNVlAtUxP-veLLMTqvxxrYsQq5Q4Nptw1kV6wbtKhL9isI7CNckuMomNotkOGtqYnXRgWeNrW9qffNiElcyt69NgT6JRs4xOOHqQ3X4qmVhvyUgbSCbB_LOh9SymVqZVi8AO18W9U8-0nh8DlkexenaXR45x21r6dQuprbA6ADsmFIHG4ZiVCdyYdej0qbc1ioFxhqG4JKGPDR0vPPJ9CIOk2HqsXSOWsIZuIpSJpIuYeVzF5YIWLig5q47lsReCBHKE2ZJnaCgXKWsbOgpVXjWEr5BLdre_xiRATz89nX97Z7nu62lt-PA6F-R2RZeywgSnSN215XBj3Rp8gddhT_0KJEzGAPJBb7CIfmb-QsDRVhnWIeIo0-UaqswlvhABeomMwGEQozq4Of7Ce-ytnxrb_CmCIXcysfsBOzgURm00]--></g></svg>