<?xml version="1.0" encoding="us-ascii" standalone="no"?><svg xmlns="http://www.w3.org/2000/svg" xmlns:xlink="http://www.w3.org/1999/xlink" contentStyleType="text/css" height="1485px" preserveAspectRatio="none" style="width:1371px;height:1485px;background:#FFFFFF;" version="1.1" viewBox="0 0 1371 1485" width="1371px" zoomAndPan="magnify"><defs/><g><text fill="#000000" font-family="sans-serif" font-size="14" font-weight="bold" lengthAdjust="spacing" textLength="230" x="569.5" y="30.1074">US 5.1.15. Process View (Level 3)</text><rect fill="#FFFFFF" height="377.1523" style="stroke:#181818;stroke-width:1.0;" width="10" x="187" y="130.1543"/><rect fill="#FFFFFF" height="439.7344" style="stroke:#181818;stroke-width:1.0;" width="10" x="187" y="563.5977"/><rect fill="#FFFFFF" height="325.1719" style="stroke:#181818;stroke-width:1.0;" width="10" x="187" y="1085.9141"/><rect fill="#FFFFFF" height="314.5703" style="stroke:#181818;stroke-width:1.0;" width="10" x="433" y="161.4453"/><rect fill="#FFFFFF" height="377.1523" style="stroke:#181818;stroke-width:1.0;" width="10" x="433" y="594.8887"/><rect fill="#FFFFFF" height="95.5039" style="stroke:#181818;stroke-width:1.0;" width="10" x="433" y="1117.2051"/><rect fill="#FFFFFF" height="95.5039" style="stroke:#181818;stroke-width:1.0;" width="10" x="433" y="1277.291"/><rect fill="#FFFFFF" height="251.9883" style="stroke:#181818;stroke-width:1.0;" width="10" x="661" y="192.7363"/><rect fill="#FFFFFF" height="314.5703" style="stroke:#181818;stroke-width:1.0;" width="10" x="661" y="626.1797"/><rect fill="#FFFFFF" height="31.291" style="stroke:#181818;stroke-width:1.0;" width="10" x="851" y="224.0273"/><rect fill="#FFFFFF" height="31.291" style="stroke:#181818;stroke-width:1.0;" width="10" x="851" y="720.0527"/><rect fill="#FFFFFF" height="93.5332" style="stroke:#181818;stroke-width:1.0;" width="10" x="961" y="312.9004"/><rect fill="#FFFFFF" height="93.5332" style="stroke:#181818;stroke-width:1.0;" width="10" x="961" y="808.9258"/><rect fill="#FFFFFF" height="31.291" style="stroke:#181818;stroke-width:1.0;" width="10" x="1245.5" y="657.4707"/><rect fill="none" height="144.1152" style="stroke:#000000;stroke-width:1.5;" width="557.5" x="578.5" y="270.3184"/><rect fill="none" height="144.1152" style="stroke:#000000;stroke-width:1.5;" width="557.5" x="578.5" y="766.3438"/><rect fill="none" height="337.4629" style="stroke:#000000;stroke-width:1.5;" width="487" x="11" y="1043.332"/><line style="stroke:#181818;stroke-width:0.5;stroke-dasharray:5.0,5.0;" x1="192" x2="192" y1="96.8633" y2="1429.0859"/><line style="stroke:#181818;stroke-width:0.5;stroke-dasharray:5.0,5.0;" x1="438" x2="438" y1="96.8633" y2="1429.0859"/><line style="stroke:#181818;stroke-width:0.5;stroke-dasharray:5.0,5.0;" x1="665.5" x2="665.5" y1="96.8633" y2="1429.0859"/><line style="stroke:#181818;stroke-width:0.5;stroke-dasharray:5.0,5.0;" x1="856" x2="856" y1="96.8633" y2="1429.0859"/><line style="stroke:#181818;stroke-width:0.5;stroke-dasharray:5.0,5.0;" x1="966" x2="966" y1="96.8633" y2="1429.0859"/><line style="stroke:#181818;stroke-width:0.5;stroke-dasharray:5.0,5.0;" x1="1076" x2="1076" y1="858.0469" y2="1429.0859"/><line style="stroke:#181818;stroke-width:0.5;stroke-dasharray:5.0,5.0;" x1="1250" x2="1250" y1="96.8633" y2="1429.0859"/><rect fill="#E2E2F0" height="51.2422" rx="2.5" ry="2.5" style="stroke:#181818;stroke-width:0.5;" width="100" x="142" y="44.6211"/><text fill="#000000" font-family="sans-serif" font-size="14" lengthAdjust="spacing" textLength="86" x="149" y="66.7285">&#171;component&#187;</text><text fill="#000000" font-family="sans-serif" font-size="14" lengthAdjust="spacing" textLength="49" x="169.5" y="85.3496">Routing</text><rect fill="#E2E2F0" height="51.2422" rx="2.5" ry="2.5" style="stroke:#181818;stroke-width:0.5;" width="100" x="142" y="1428.0859"/><text fill="#000000" font-family="sans-serif" font-size="14" lengthAdjust="spacing" textLength="86" x="149" y="1450.1934">&#171;component&#187;</text><text fill="#000000" font-family="sans-serif" font-size="14" lengthAdjust="spacing" textLength="49" x="169.5" y="1468.8145">Routing</text><rect fill="#E2E2F0" height="51.2422" rx="2.5" ry="2.5" style="stroke:#181818;stroke-width:0.5;" width="100" x="388" y="44.6211"/><text fill="#000000" font-family="sans-serif" font-size="14" lengthAdjust="spacing" textLength="86" x="395" y="66.7285">&#171;component&#187;</text><text fill="#000000" font-family="sans-serif" font-size="14" lengthAdjust="spacing" textLength="62" x="409" y="85.3496">Controller</text><rect fill="#E2E2F0" height="51.2422" rx="2.5" ry="2.5" style="stroke:#181818;stroke-width:0.5;" width="100" x="388" y="1428.0859"/><text fill="#000000" font-family="sans-serif" font-size="14" lengthAdjust="spacing" textLength="86" x="395" y="1450.1934">&#171;component&#187;</text><text fill="#000000" font-family="sans-serif" font-size="14" lengthAdjust="spacing" textLength="62" x="409" y="1468.8145">Controller</text><rect fill="#E2E2F0" height="51.2422" rx="2.5" ry="2.5" style="stroke:#181818;stroke-width:0.5;" width="155" x="588.5" y="44.6211"/><text fill="#000000" font-family="sans-serif" font-size="14" lengthAdjust="spacing" textLength="86" x="623" y="66.7285">&#171;component&#187;</text><text fill="#000000" font-family="sans-serif" font-size="14" lengthAdjust="spacing" textLength="137" x="599.5" y="85.3496">XManagementService</text><rect fill="#E2E2F0" height="51.2422" rx="2.5" ry="2.5" style="stroke:#181818;stroke-width:0.5;" width="155" x="588.5" y="1428.0859"/><text fill="#000000" font-family="sans-serif" font-size="14" lengthAdjust="spacing" textLength="86" x="623" y="1450.1934">&#171;component&#187;</text><text fill="#000000" font-family="sans-serif" font-size="14" lengthAdjust="spacing" textLength="137" x="599.5" y="1468.8145">XManagementService</text><rect fill="#E2E2F0" height="51.2422" rx="2.5" ry="2.5" style="stroke:#181818;stroke-width:0.5;" width="100" x="806" y="44.6211"/><text fill="#000000" font-family="sans-serif" font-size="14" lengthAdjust="spacing" textLength="86" x="813" y="66.7285">&#171;component&#187;</text><text fill="#000000" font-family="sans-serif" font-size="14" lengthAdjust="spacing" textLength="42" x="837" y="85.3496">XRepo</text><rect fill="#E2E2F0" height="51.2422" rx="2.5" ry="2.5" style="stroke:#181818;stroke-width:0.5;" width="100" x="806" y="1428.0859"/><text fill="#000000" font-family="sans-serif" font-size="14" lengthAdjust="spacing" textLength="86" x="813" y="1450.1934">&#171;component&#187;</text><text fill="#000000" font-family="sans-serif" font-size="14" lengthAdjust="spacing" textLength="42" x="837" y="1468.8145">XRepo</text><rect fill="#E2E2F0" height="51.2422" rx="2.5" ry="2.5" style="stroke:#181818;stroke-width:0.5;" width="100" x="916" y="44.6211"/><text fill="#000000" font-family="sans-serif" font-size="14" lengthAdjust="spacing" textLength="86" x="923" y="66.7285">&#171;component&#187;</text><text fill="#000000" font-family="sans-serif" font-size="14" lengthAdjust="spacing" textLength="56" x="940" y="85.3496">XMapper</text><rect fill="#E2E2F0" height="51.2422" rx="2.5" ry="2.5" style="stroke:#181818;stroke-width:0.5;" width="100" x="916" y="1428.0859"/><text fill="#000000" font-family="sans-serif" font-size="14" lengthAdjust="spacing" textLength="86" x="923" y="1450.1934">&#171;component&#187;</text><text fill="#000000" font-family="sans-serif" font-size="14" lengthAdjust="spacing" textLength="56" x="940" y="1468.8145">XMapper</text><rect fill="#E2E2F0" height="51.2422" rx="2.5" ry="2.5" style="stroke:#181818;stroke-width:0.5;" width="100" x="1026" y="1428.0859"/><text fill="#000000" font-family="sans-serif" font-size="14" lengthAdjust="spacing" textLength="86" x="1033" y="1450.1934">&#171;component&#187;</text><text fill="#000000" font-family="sans-serif" font-size="14" lengthAdjust="spacing" textLength="38" x="1059" y="1468.8145">XDTO</text><rect fill="#E2E2F0" height="51.2422" rx="2.5" ry="2.5" style="stroke:#181818;stroke-width:0.5;" width="229" x="1136" y="44.6211"/><text fill="#000000" font-family="sans-serif" font-size="14" lengthAdjust="spacing" textLength="86" x="1207.5" y="66.7285">&#171;component&#187;</text><text fill="#000000" font-family="sans-serif" font-size="14" lengthAdjust="spacing" textLength="211" x="1147" y="85.3496">DynamicQueryGenerationService</text><rect fill="#E2E2F0" height="51.2422" rx="2.5" ry="2.5" style="stroke:#181818;stroke-width:0.5;" width="229" x="1136" y="1428.0859"/><text fill="#000000" font-family="sans-serif" font-size="14" lengthAdjust="spacing" textLength="86" x="1207.5" y="1450.1934">&#171;component&#187;</text><text fill="#000000" font-family="sans-serif" font-size="14" lengthAdjust="spacing" textLength="211" x="1147" y="1468.8145">DynamicQueryGenerationService</text><rect fill="#FFFFFF" height="377.1523" style="stroke:#181818;stroke-width:1.0;" width="10" x="187" y="130.1543"/><rect fill="#FFFFFF" height="439.7344" style="stroke:#181818;stroke-width:1.0;" width="10" x="187" y="563.5977"/><rect fill="#FFFFFF" height="325.1719" style="stroke:#181818;stroke-width:1.0;" width="10" x="187" y="1085.9141"/><rect fill="#FFFFFF" height="314.5703" style="stroke:#181818;stroke-width:1.0;" width="10" x="433" y="161.4453"/><rect fill="#FFFFFF" height="377.1523" style="stroke:#181818;stroke-width:1.0;" width="10" x="433" y="594.8887"/><rect fill="#FFFFFF" height="95.5039" style="stroke:#181818;stroke-width:1.0;" width="10" x="433" y="1117.2051"/><rect fill="#FFFFFF" height="95.5039" style="stroke:#181818;stroke-width:1.0;" width="10" x="433" y="1277.291"/><rect fill="#FFFFFF" height="251.9883" style="stroke:#181818;stroke-width:1.0;" width="10" x="661" y="192.7363"/><rect fill="#FFFFFF" height="314.5703" style="stroke:#181818;stroke-width:1.0;" width="10" x="661" y="626.1797"/><rect fill="#FFFFFF" height="31.291" style="stroke:#181818;stroke-width:1.0;" width="10" x="851" y="224.0273"/><rect fill="#FFFFFF" height="31.291" style="stroke:#181818;stroke-width:1.0;" width="10" x="851" y="720.0527"/><rect fill="#FFFFFF" height="93.5332" style="stroke:#181818;stroke-width:1.0;" width="10" x="961" y="312.9004"/><rect fill="#FFFFFF" height="93.5332" style="stroke:#181818;stroke-width:1.0;" width="10" x="961" y="808.9258"/><rect fill="#FFFFFF" height="31.291" style="stroke:#181818;stroke-width:1.0;" width="10" x="1245.5" y="657.4707"/><ellipse cx="7.5" cy="129.4043" fill="none" rx="4" ry="4" style="stroke:#181818;stroke-width:1.5;"/><polygon fill="#181818" points="175,126.1543,185,130.1543,175,134.1543,179,130.1543" style="stroke:#181818;stroke-width:1.0;"/><line style="stroke:#181818;stroke-width:1.0;" x1="12" x2="181" y1="130.1543" y2="130.1543"/><text fill="#000000" font-family="sans-serif" font-size="13" font-weight="bold" lengthAdjust="spacing" textLength="7" x="15" y="124.8916">1</text><text fill="#000000" font-family="sans-serif" font-size="13" lengthAdjust="spacing" textLength="34" x="26" y="124.8916">GET()</text><polygon fill="#181818" points="421,157.4453,431,161.4453,421,165.4453,425,161.4453" style="stroke:#181818;stroke-width:1.0;"/><line style="stroke:#181818;stroke-width:1.0;" x1="197" x2="427" y1="161.4453" y2="161.4453"/><text fill="#000000" font-family="sans-serif" font-size="13" font-weight="bold" lengthAdjust="spacing" textLength="7" x="204" y="156.1826">2</text><text fill="#000000" font-family="sans-serif" font-size="13" lengthAdjust="spacing" textLength="91" x="215" y="156.1826">getAllXProfiles()</text><polygon fill="#181818" points="649,188.7363,659,192.7363,649,196.7363,653,192.7363" style="stroke:#181818;stroke-width:1.0;"/><line style="stroke:#181818;stroke-width:1.0;" x1="443" x2="655" y1="192.7363" y2="192.7363"/><text fill="#000000" font-family="sans-serif" font-size="13" font-weight="bold" lengthAdjust="spacing" textLength="7" x="450" y="187.4736">3</text><text fill="#000000" font-family="sans-serif" font-size="13" lengthAdjust="spacing" textLength="84" x="461" y="187.4736">getAllProfiles()</text><polygon fill="#181818" points="839,220.0273,849,224.0273,839,228.0273,843,224.0273" style="stroke:#181818;stroke-width:1.0;"/><line style="stroke:#181818;stroke-width:1.0;" x1="671" x2="845" y1="224.0273" y2="224.0273"/><text fill="#000000" font-family="sans-serif" font-size="13" font-weight="bold" lengthAdjust="spacing" textLength="7" x="678" y="218.7646">4</text><text fill="#000000" font-family="sans-serif" font-size="13" lengthAdjust="spacing" textLength="43" x="689" y="218.7646">findAll()</text><polygon fill="#181818" points="682,251.3184,672,255.3184,682,259.3184,678,255.3184" style="stroke:#181818;stroke-width:1.0;"/><line style="stroke:#181818;stroke-width:1.0;stroke-dasharray:2.0,2.0;" x1="676" x2="855" y1="255.3184" y2="255.3184"/><text fill="#000000" font-family="sans-serif" font-size="13" font-weight="bold" lengthAdjust="spacing" textLength="7" x="688" y="250.0557">5</text><text fill="#000000" font-family="sans-serif" font-size="13" lengthAdjust="spacing" textLength="69" x="699" y="250.0557">XprofilesList</text><path d="M578.5,270.3184 L651.5,270.3184 L651.5,279.6094 L641.5,289.6094 L578.5,289.6094 L578.5,270.3184 " fill="#EEEEEE" style="stroke:#000000;stroke-width:1.5;"/><rect fill="none" height="144.1152" style="stroke:#000000;stroke-width:1.5;" width="557.5" x="578.5" y="270.3184"/><text fill="#000000" font-family="sans-serif" font-size="13" font-weight="bold" lengthAdjust="spacing" textLength="28" x="593.5" y="285.3467">loop</text><text fill="#000000" font-family="sans-serif" font-size="11" font-weight="bold" lengthAdjust="spacing" textLength="160" x="666.5" y="284.1885">[for all the profiles in the list]</text><polygon fill="#181818" points="949,308.9004,959,312.9004,949,316.9004,953,312.9004" style="stroke:#181818;stroke-width:1.0;"/><line style="stroke:#181818;stroke-width:1.0;" x1="671" x2="955" y1="312.9004" y2="312.9004"/><text fill="#000000" font-family="sans-serif" font-size="13" font-weight="bold" lengthAdjust="spacing" textLength="7" x="678" y="307.6377">6</text><text fill="#000000" font-family="sans-serif" font-size="13" lengthAdjust="spacing" textLength="86" x="689" y="307.6377">toDTO(Xprofile)</text><polygon fill="#181818" points="1014,340.1914,1024,344.1914,1014,348.1914,1018,344.1914" style="stroke:#181818;stroke-width:1.0;"/><line style="stroke:#181818;stroke-width:1.0;" x1="971" x2="1020" y1="344.1914" y2="344.1914"/><text fill="#000000" font-family="sans-serif" font-size="13" font-weight="bold" lengthAdjust="spacing" textLength="7" x="978" y="338.9287">7</text><text fill="#000000" font-family="sans-serif" font-size="13" lengthAdjust="spacing" textLength="4" x="989" y="338.9287">&#160;</text><rect fill="#E2E2F0" height="51.2422" rx="2.5" ry="2.5" style="stroke:#181818;stroke-width:0.5;" width="100" x="1026" y="320.9004"/><text fill="#000000" font-family="sans-serif" font-size="14" lengthAdjust="spacing" textLength="86" x="1033" y="343.0078">&#171;component&#187;</text><text fill="#000000" font-family="sans-serif" font-size="14" lengthAdjust="spacing" textLength="38" x="1059" y="361.6289">XDTO</text><polygon fill="#181818" points="682,402.4336,672,406.4336,682,410.4336,678,406.4336" style="stroke:#181818;stroke-width:1.0;"/><line style="stroke:#181818;stroke-width:1.0;stroke-dasharray:2.0,2.0;" x1="676" x2="965" y1="406.4336" y2="406.4336"/><text fill="#000000" font-family="sans-serif" font-size="13" font-weight="bold" lengthAdjust="spacing" textLength="7" x="688" y="401.1709">8</text><text fill="#000000" font-family="sans-serif" font-size="13" lengthAdjust="spacing" textLength="67" x="699" y="401.1709">XprofileDTO</text><polygon fill="#181818" points="454,440.7246,444,444.7246,454,448.7246,450,444.7246" style="stroke:#181818;stroke-width:1.0;"/><line style="stroke:#181818;stroke-width:1.0;stroke-dasharray:2.0,2.0;" x1="448" x2="665" y1="444.7246" y2="444.7246"/><text fill="#000000" font-family="sans-serif" font-size="13" font-weight="bold" lengthAdjust="spacing" textLength="7" x="460" y="439.4619">9</text><text fill="#000000" font-family="sans-serif" font-size="13" lengthAdjust="spacing" textLength="88" x="471" y="439.4619">XprofileDTOList</text><polygon fill="#181818" points="208,472.0156,198,476.0156,208,480.0156,204,476.0156" style="stroke:#181818;stroke-width:1.0;"/><line style="stroke:#181818;stroke-width:1.0;stroke-dasharray:2.0,2.0;" x1="202" x2="437" y1="476.0156" y2="476.0156"/><text fill="#000000" font-family="sans-serif" font-size="13" font-weight="bold" lengthAdjust="spacing" textLength="14" x="214" y="470.7529">10</text><text fill="#000000" font-family="sans-serif" font-size="13" lengthAdjust="spacing" textLength="88" x="232" y="470.7529">XprofileDTOList</text><polygon fill="#181818" points="11,503.3066,1,507.3066,11,511.3066,7,507.3066" style="stroke:#181818;stroke-width:1.0;"/><line style="stroke:#181818;stroke-width:1.0;stroke-dasharray:2.0,2.0;" x1="5" x2="191" y1="507.3066" y2="507.3066"/><text fill="#000000" font-family="sans-serif" font-size="13" font-weight="bold" lengthAdjust="spacing" textLength="14" x="17" y="502.0439">11</text><text fill="#000000" font-family="sans-serif" font-size="13" lengthAdjust="spacing" textLength="88" x="35" y="502.0439">XprofileDTOList</text><ellipse cx="7.5" cy="562.8477" fill="none" rx="4" ry="4" style="stroke:#181818;stroke-width:1.5;"/><polygon fill="#181818" points="175,559.5977,185,563.5977,175,567.5977,179,563.5977" style="stroke:#181818;stroke-width:1.0;"/><line style="stroke:#181818;stroke-width:1.0;" x1="12" x2="181" y1="563.5977" y2="563.5977"/><text fill="#000000" font-family="sans-serif" font-size="13" font-weight="bold" lengthAdjust="spacing" textLength="14" x="15" y="558.335">12</text><text fill="#000000" font-family="sans-serif" font-size="13" lengthAdjust="spacing" textLength="142" x="33" y="558.335">POST(queryParameters)</text><polygon fill="#181818" points="421,590.8887,431,594.8887,421,598.8887,425,594.8887" style="stroke:#181818;stroke-width:1.0;"/><line style="stroke:#181818;stroke-width:1.0;" x1="197" x2="427" y1="594.8887" y2="594.8887"/><text fill="#000000" font-family="sans-serif" font-size="13" font-weight="bold" lengthAdjust="spacing" textLength="14" x="204" y="589.626">13</text><text fill="#000000" font-family="sans-serif" font-size="13" lengthAdjust="spacing" textLength="181" x="222" y="589.626">filterXProfiles(queryParameters)</text><polygon fill="#181818" points="649,622.1797,659,626.1797,649,630.1797,653,626.1797" style="stroke:#181818;stroke-width:1.0;"/><line style="stroke:#181818;stroke-width:1.0;" x1="443" x2="655" y1="626.1797" y2="626.1797"/><text fill="#000000" font-family="sans-serif" font-size="13" font-weight="bold" lengthAdjust="spacing" textLength="14" x="450" y="620.917">14</text><text fill="#000000" font-family="sans-serif" font-size="13" lengthAdjust="spacing" textLength="181" x="468" y="620.917">filterXProfiles(queryParameters)</text><polygon fill="#181818" points="1233.5,653.4707,1243.5,657.4707,1233.5,661.4707,1237.5,657.4707" style="stroke:#181818;stroke-width:1.0;"/><line style="stroke:#181818;stroke-width:1.0;" x1="671" x2="1239.5" y1="657.4707" y2="657.4707"/><text fill="#000000" font-family="sans-serif" font-size="13" font-weight="bold" lengthAdjust="spacing" textLength="14" x="678" y="652.208">15</text><text fill="#000000" font-family="sans-serif" font-size="13" lengthAdjust="spacing" textLength="217" x="696" y="652.208">generateQueryText(queryParameters)</text><polygon fill="#181818" points="682,684.7617,672,688.7617,682,692.7617,678,688.7617" style="stroke:#181818;stroke-width:1.0;"/><line style="stroke:#181818;stroke-width:1.0;stroke-dasharray:2.0,2.0;" x1="676" x2="1249.5" y1="688.7617" y2="688.7617"/><text fill="#000000" font-family="sans-serif" font-size="13" font-weight="bold" lengthAdjust="spacing" textLength="14" x="688" y="683.499">16</text><text fill="#000000" font-family="sans-serif" font-size="13" lengthAdjust="spacing" textLength="32" x="706" y="683.499">query</text><polygon fill="#181818" points="839,716.0527,849,720.0527,839,724.0527,843,720.0527" style="stroke:#181818;stroke-width:1.0;"/><line style="stroke:#181818;stroke-width:1.0;" x1="671" x2="845" y1="720.0527" y2="720.0527"/><text fill="#000000" font-family="sans-serif" font-size="13" font-weight="bold" lengthAdjust="spacing" textLength="14" x="678" y="714.79">17</text><text fill="#000000" font-family="sans-serif" font-size="13" lengthAdjust="spacing" textLength="143" x="696" y="714.79">findAllConditioned(query)</text><polygon fill="#181818" points="682,747.3438,672,751.3438,682,755.3438,678,751.3438" style="stroke:#181818;stroke-width:1.0;"/><line style="stroke:#181818;stroke-width:1.0;stroke-dasharray:2.0,2.0;" x1="676" x2="855" y1="751.3438" y2="751.3438"/><text fill="#000000" font-family="sans-serif" font-size="13" font-weight="bold" lengthAdjust="spacing" textLength="14" x="688" y="746.0811">18</text><text fill="#000000" font-family="sans-serif" font-size="13" lengthAdjust="spacing" textLength="69" x="706" y="746.0811">XprofilesList</text><path d="M578.5,766.3438 L651.5,766.3438 L651.5,775.6348 L641.5,785.6348 L578.5,785.6348 L578.5,766.3438 " fill="#EEEEEE" style="stroke:#000000;stroke-width:1.5;"/><rect fill="none" height="144.1152" style="stroke:#000000;stroke-width:1.5;" width="557.5" x="578.5" y="766.3438"/><text fill="#000000" font-family="sans-serif" font-size="13" font-weight="bold" lengthAdjust="spacing" textLength="28" x="593.5" y="781.3721">loop</text><text fill="#000000" font-family="sans-serif" font-size="11" font-weight="bold" lengthAdjust="spacing" textLength="160" x="666.5" y="780.2139">[for all the profiles in the list]</text><polygon fill="#181818" points="949,804.9258,959,808.9258,949,812.9258,953,808.9258" style="stroke:#181818;stroke-width:1.0;"/><line style="stroke:#181818;stroke-width:1.0;" x1="671" x2="955" y1="808.9258" y2="808.9258"/><text fill="#000000" font-family="sans-serif" font-size="13" font-weight="bold" lengthAdjust="spacing" textLength="14" x="678" y="803.6631">19</text><text fill="#000000" font-family="sans-serif" font-size="13" lengthAdjust="spacing" textLength="86" x="696" y="803.6631">toDTO(Xprofile)</text><polygon fill="#181818" points="1014,836.2168,1024,840.2168,1014,844.2168,1018,840.2168" style="stroke:#181818;stroke-width:1.0;"/><line style="stroke:#181818;stroke-width:1.0;" x1="971" x2="1020" y1="840.2168" y2="840.2168"/><text fill="#000000" font-family="sans-serif" font-size="13" font-weight="bold" lengthAdjust="spacing" textLength="14" x="978" y="834.9541">20</text><text fill="#000000" font-family="sans-serif" font-size="13" lengthAdjust="spacing" textLength="4" x="996" y="834.9541">&#160;</text><rect fill="#E2E2F0" height="51.2422" rx="2.5" ry="2.5" style="stroke:#181818;stroke-width:0.5;" width="100" x="1026" y="816.9258"/><text fill="#000000" font-family="sans-serif" font-size="14" lengthAdjust="spacing" textLength="86" x="1033" y="839.0332">&#171;component&#187;</text><text fill="#000000" font-family="sans-serif" font-size="14" lengthAdjust="spacing" textLength="38" x="1059" y="857.6543">XDTO</text><polygon fill="#181818" points="682,898.459,672,902.459,682,906.459,678,902.459" style="stroke:#181818;stroke-width:1.0;"/><line style="stroke:#181818;stroke-width:1.0;stroke-dasharray:2.0,2.0;" x1="676" x2="965" y1="902.459" y2="902.459"/><text fill="#000000" font-family="sans-serif" font-size="13" font-weight="bold" lengthAdjust="spacing" textLength="14" x="688" y="897.1963">21</text><text fill="#000000" font-family="sans-serif" font-size="13" lengthAdjust="spacing" textLength="67" x="706" y="897.1963">XprofileDTO</text><polygon fill="#181818" points="454,936.75,444,940.75,454,944.75,450,940.75" style="stroke:#181818;stroke-width:1.0;"/><line style="stroke:#181818;stroke-width:1.0;stroke-dasharray:2.0,2.0;" x1="448" x2="665" y1="940.75" y2="940.75"/><text fill="#000000" font-family="sans-serif" font-size="13" font-weight="bold" lengthAdjust="spacing" textLength="14" x="460" y="935.4873">22</text><text fill="#000000" font-family="sans-serif" font-size="13" lengthAdjust="spacing" textLength="121" x="478" y="935.4873">filterXProfilesDTOList</text><polygon fill="#181818" points="208,968.041,198,972.041,208,976.041,204,972.041" style="stroke:#181818;stroke-width:1.0;"/><line style="stroke:#181818;stroke-width:1.0;stroke-dasharray:2.0,2.0;" x1="202" x2="437" y1="972.041" y2="972.041"/><text fill="#000000" font-family="sans-serif" font-size="13" font-weight="bold" lengthAdjust="spacing" textLength="14" x="214" y="966.7783">23</text><text fill="#000000" font-family="sans-serif" font-size="13" lengthAdjust="spacing" textLength="121" x="232" y="966.7783">filterXProfilesDTOList</text><polygon fill="#181818" points="11,999.332,1,1003.332,11,1007.332,7,1003.332" style="stroke:#181818;stroke-width:1.0;"/><line style="stroke:#181818;stroke-width:1.0;stroke-dasharray:2.0,2.0;" x1="5" x2="191" y1="1003.332" y2="1003.332"/><text fill="#000000" font-family="sans-serif" font-size="13" font-weight="bold" lengthAdjust="spacing" textLength="14" x="17" y="998.0693">24</text><text fill="#000000" font-family="sans-serif" font-size="13" lengthAdjust="spacing" textLength="121" x="35" y="998.0693">filterXProfilesDTOList</text><path d="M11,1043.332 L72,1043.332 L72,1052.623 L62,1062.623 L11,1062.623 L11,1043.332 " fill="#EEEEEE" style="stroke:#000000;stroke-width:1.5;"/><rect fill="none" height="337.4629" style="stroke:#000000;stroke-width:1.5;" width="487" x="11" y="1043.332"/><text fill="#000000" font-family="sans-serif" font-size="13" font-weight="bold" lengthAdjust="spacing" textLength="16" x="26" y="1058.3604">alt</text><text fill="#000000" font-family="sans-serif" font-size="11" font-weight="bold" lengthAdjust="spacing" textLength="78" x="87" y="1057.2021">[edit X profile]</text><ellipse cx="7.5" cy="1085.1641" fill="none" rx="4" ry="4" style="stroke:#181818;stroke-width:1.5;"/><polygon fill="#181818" points="175,1081.9141,185,1085.9141,175,1089.9141,179,1085.9141" style="stroke:#181818;stroke-width:1.0;"/><line style="stroke:#181818;stroke-width:1.0;" x1="12" x2="181" y1="1085.9141" y2="1085.9141"/><text fill="#000000" font-family="sans-serif" font-size="13" font-weight="bold" lengthAdjust="spacing" textLength="14" x="15" y="1080.6514">25</text><text fill="#000000" font-family="sans-serif" font-size="13" lengthAdjust="spacing" textLength="142" x="33" y="1080.6514">PUT(updatedProfileData)</text><polygon fill="#181818" points="421,1113.2051,431,1117.2051,421,1121.2051,425,1117.2051" style="stroke:#181818;stroke-width:1.0;"/><line style="stroke:#181818;stroke-width:1.0;" x1="197" x2="427" y1="1117.2051" y2="1117.2051"/><text fill="#000000" font-family="sans-serif" font-size="13" font-weight="bold" lengthAdjust="spacing" textLength="14" x="204" y="1111.9424">26</text><text fill="#000000" font-family="sans-serif" font-size="13" lengthAdjust="spacing" textLength="199" x="222" y="1111.9424">updateXProfile(updatedProfileData)</text><rect fill="none" height="59.2129" style="stroke:#000000;stroke-width:1.5;" width="106" x="385" y="1125.2051"/><path d="M385,1125.2051 L447,1125.2051 L447,1134.2051 L437,1144.2051 L385,1144.2051 L385,1125.2051 " fill="#EEEEEE" style="stroke:#000000;stroke-width:2.0;"/><text fill="#000000" font-family="sans-serif" font-size="13" font-weight="bold" lengthAdjust="spacing" textLength="17" x="398" y="1141.2334">ref</text><text fill="#000000" font-family="sans-serif" font-size="12" lengthAdjust="spacing" textLength="3" x="436.5" y="1161.1543">&#160;</text><text fill="#000000" font-family="sans-serif" font-size="12" font-weight="bold" lengthAdjust="spacing" textLength="49" x="413.5" y="1177.1152">US 5.1.Y.</text><polygon fill="#181818" points="208,1208.709,198,1212.709,208,1216.709,204,1212.709" style="stroke:#181818;stroke-width:1.0;"/><line style="stroke:#181818;stroke-width:1.0;stroke-dasharray:2.0,2.0;" x1="202" x2="437" y1="1212.709" y2="1212.709"/><text fill="#000000" font-family="sans-serif" font-size="13" font-weight="bold" lengthAdjust="spacing" textLength="14" x="214" y="1207.4463">27</text><text fill="#000000" font-family="sans-serif" font-size="13" lengthAdjust="spacing" textLength="33" x="232" y="1207.4463">return</text><line style="stroke:#000000;stroke-width:1.0;stroke-dasharray:2.0,2.0;" x1="11" x2="498" y1="1221.709" y2="1221.709"/><ellipse cx="7.5" cy="1245.25" fill="none" rx="4" ry="4" style="stroke:#181818;stroke-width:1.5;"/><polygon fill="#181818" points="175,1242,185,1246,175,1250,179,1246" style="stroke:#181818;stroke-width:1.0;"/><line style="stroke:#181818;stroke-width:1.0;" x1="12" x2="181" y1="1246" y2="1246"/><text fill="#000000" font-family="sans-serif" font-size="13" font-weight="bold" lengthAdjust="spacing" textLength="14" x="15" y="1240.7373">28</text><text fill="#000000" font-family="sans-serif" font-size="13" lengthAdjust="spacing" textLength="128" x="33" y="1240.7373">DELETE(XProfileData)</text><polygon fill="#181818" points="421,1273.291,431,1277.291,421,1281.291,425,1277.291" style="stroke:#181818;stroke-width:1.0;"/><line style="stroke:#181818;stroke-width:1.0;" x1="197" x2="427" y1="1277.291" y2="1277.291"/><text fill="#000000" font-family="sans-serif" font-size="13" font-weight="bold" lengthAdjust="spacing" textLength="14" x="204" y="1272.0283">29</text><text fill="#000000" font-family="sans-serif" font-size="13" lengthAdjust="spacing" textLength="156" x="222" y="1272.0283">deleteXProfile(XProfileData)</text><rect fill="none" height="59.2129" style="stroke:#000000;stroke-width:1.5;" width="106" x="385" y="1285.291"/><path d="M385,1285.291 L447,1285.291 L447,1294.291 L437,1304.291 L385,1304.291 L385,1285.291 " fill="#EEEEEE" style="stroke:#000000;stroke-width:2.0;"/><text fill="#000000" font-family="sans-serif" font-size="13" font-weight="bold" lengthAdjust="spacing" textLength="17" x="398" y="1301.3193">ref</text><text fill="#000000" font-family="sans-serif" font-size="12" lengthAdjust="spacing" textLength="3" x="436.5" y="1321.2402">&#160;</text><text fill="#000000" font-family="sans-serif" font-size="12" font-weight="bold" lengthAdjust="spacing" textLength="49" x="413.5" y="1337.2012">US 5.1.Z.</text><polygon fill="#181818" points="208,1368.7949,198,1372.7949,208,1376.7949,204,1372.7949" style="stroke:#181818;stroke-width:1.0;"/><line style="stroke:#181818;stroke-width:1.0;stroke-dasharray:2.0,2.0;" x1="202" x2="437" y1="1372.7949" y2="1372.7949"/><text fill="#000000" font-family="sans-serif" font-size="13" font-weight="bold" lengthAdjust="spacing" textLength="14" x="214" y="1367.5322">30</text><text fill="#000000" font-family="sans-serif" font-size="13" lengthAdjust="spacing" textLength="33" x="232" y="1367.5322">return</text><polygon fill="#181818" points="11,1407.0859,1,1411.0859,11,1415.0859,7,1411.0859" style="stroke:#181818;stroke-width:1.0;"/><line style="stroke:#181818;stroke-width:1.0;stroke-dasharray:2.0,2.0;" x1="5" x2="191" y1="1411.0859" y2="1411.0859"/><text fill="#000000" font-family="sans-serif" font-size="13" font-weight="bold" lengthAdjust="spacing" textLength="14" x="17" y="1405.8232">31</text><text fill="#000000" font-family="sans-serif" font-size="13" lengthAdjust="spacing" textLength="79" x="35" y="1405.8232">success/error</text><!--SRC=[xLRHRjem57ttLrYyB201ggQ-L0XfAgWlR508LRhjnKikr99Zfux3LecFttMSXC02eL8VbwV4EUVOzvnxetnwCIP9xuR3H31fibWCGXKFKtZDG8RGZpZRQXOJOhWHG3lh5RqTt0nkRWTqeLK8QKgVEFoctWns8EZdReSGbXabi_WNQ48IfWqFUOBQj3CQeNQY94Wp7l-KTAaom-MsGrbAb_ErFxqClrVIQ2K4w9nnF__cB-UpbZs2hqooBSJul0Azuo7avC0-j32Na2W7jdUjsoH9SR3YleKmyUSEZJSjDKpU98jv-9Y1Vdi02PePhcIzdCVrTFcSbqJ83zKVEplf7NsO-bwNiD3m7JDGk4pSMuGL7Y9m2-QB4066kk42qZgfChf48p7thw8riPp3n04jmvg8Z0sN4LAEeBc_n27wDVKWAOHdF3KaWbC6nKiebT2DqfG9GSqBq993kSoVXUNIuZeSnuM4cnY52NZbLjqAUjYioFCWKd2j379fhzVmhg4CctI9gnTJwDjba55UKMNSKKWreNySSNPN4TLwu0AhYdRKxr-3B_fdlz-VzDbYllAzLzkW2uRV2p2Wqwlw3ZT2xA7lpcjSQiFhLKxRifgSl9dpsO9yq7puOoxer2Rk854FFQVMlQinpWq5Vk4YRcSR8hVr_o5v_v2SzCBxPgMTt3WoxRJwv31XA63GD2XpSDOSJzJQzx8aGcvKo4wOOSxvKrMxrZ1RZbwUgbsjAiskQjXGjSEGZbPxlU8Fu7c0WPPX8DQzRh9KWycq92TvLgeWqgRo9zFPr9zwmT5fpnKQWO1QeS77bFZzmqf4FcP-t39f5jhVfo5ehNH3f_m5]--></g></svg>