<?xml version="1.0" encoding="us-ascii" standalone="no"?><svg xmlns="http://www.w3.org/2000/svg" xmlns:xlink="http://www.w3.org/1999/xlink" contentStyleType="text/css" height="980px" preserveAspectRatio="none" style="width:951px;height:980px;background:#FFFFFF;" version="1.1" viewBox="0 0 951 980" width="951px" zoomAndPan="magnify"><defs/><g><text fill="#000000" font-family="sans-serif" font-size="14" font-weight="bold" lengthAdjust="spacing" textLength="223" x="363.25" y="30.1074">US 5.1.X. Process View (Level 3)</text><rect fill="#FFFFFF" height="377.1523" style="stroke:#181818;stroke-width:1.0;" width="10" x="127" y="130.1543"/><rect fill="#FFFFFF" height="342.5703" style="stroke:#181818;stroke-width:1.0;" width="10" x="127" y="563.5977"/><rect fill="#FFFFFF" height="314.5703" style="stroke:#181818;stroke-width:1.0;" width="10" x="319" y="161.4453"/><rect fill="#FFFFFF" height="279.9883" style="stroke:#181818;stroke-width:1.0;" width="10" x="319" y="594.8887"/><rect fill="#FFFFFF" height="251.9883" style="stroke:#181818;stroke-width:1.0;" width="10" x="507" y="192.7363"/><rect fill="#FFFFFF" height="155.1641" style="stroke:#181818;stroke-width:1.0;" width="10" x="507" y="688.4219"/><rect fill="#FFFFFF" height="31.291" style="stroke:#181818;stroke-width:1.0;" width="10" x="657" y="224.0273"/><rect fill="#FFFFFF" height="92.582" style="stroke:#181818;stroke-width:1.0;" width="10" x="657" y="719.7129"/><rect fill="#FFFFFF" height="93.5332" style="stroke:#181818;stroke-width:1.0;" width="10" x="742.5" y="312.9004"/><rect fill="#FFFFFF" height="30" style="stroke:#181818;stroke-width:1.0;" width="10" x="895" y="751.0039"/><rect fill="none" height="144.1152" style="stroke:#000000;stroke-width:1.5;" width="387" x="467.5" y="270.3184"/><line style="stroke:#181818;stroke-width:0.5;stroke-dasharray:5.0,5.0;" x1="132" x2="132" y1="96.8633" y2="924.168"/><line style="stroke:#181818;stroke-width:0.5;stroke-dasharray:5.0,5.0;" x1="324" x2="324" y1="96.8633" y2="924.168"/><line style="stroke:#181818;stroke-width:0.5;stroke-dasharray:5.0,5.0;" x1="511.5" x2="511.5" y1="96.8633" y2="924.168"/><line style="stroke:#181818;stroke-width:0.5;stroke-dasharray:5.0,5.0;" x1="661.5" x2="661.5" y1="96.8633" y2="924.168"/><line style="stroke:#181818;stroke-width:0.5;stroke-dasharray:5.0,5.0;" x1="747.5" x2="747.5" y1="96.8633" y2="924.168"/><line style="stroke:#181818;stroke-width:0.5;stroke-dasharray:5.0,5.0;" x1="818.5" x2="818.5" y1="644.0098" y2="924.168"/><line style="stroke:#181818;stroke-width:0.5;stroke-dasharray:5.0,5.0;" x1="899.5" x2="899.5" y1="96.8633" y2="924.168"/><rect fill="#E2E2F0" height="51.2422" rx="2.5" ry="2.5" style="stroke:#181818;stroke-width:0.5;" width="84" x="90" y="44.6211"/><text fill="#000000" font-family="sans-serif" font-size="14" lengthAdjust="spacing" textLength="37" x="113.5" y="66.7285">route:</text><text fill="#000000" font-family="sans-serif" font-size="14" lengthAdjust="spacing" textLength="70" x="97" y="85.3496">EditXRoute</text><rect fill="#E2E2F0" height="51.2422" rx="2.5" ry="2.5" style="stroke:#181818;stroke-width:0.5;" width="84" x="90" y="923.168"/><text fill="#000000" font-family="sans-serif" font-size="14" lengthAdjust="spacing" textLength="37" x="113.5" y="945.2754">route:</text><text fill="#000000" font-family="sans-serif" font-size="14" lengthAdjust="spacing" textLength="70" x="97" y="963.8965">EditXRoute</text><rect fill="#E2E2F0" height="51.2422" rx="2.5" ry="2.5" style="stroke:#181818;stroke-width:0.5;" width="108" x="270" y="44.6211"/><text fill="#000000" font-family="sans-serif" font-size="14" lengthAdjust="spacing" textLength="63" x="292.5" y="66.7285">controller:</text><text fill="#000000" font-family="sans-serif" font-size="14" lengthAdjust="spacing" textLength="94" x="277" y="85.3496">EditXController</text><rect fill="#E2E2F0" height="51.2422" rx="2.5" ry="2.5" style="stroke:#181818;stroke-width:0.5;" width="108" x="270" y="923.168"/><text fill="#000000" font-family="sans-serif" font-size="14" lengthAdjust="spacing" textLength="63" x="292.5" y="945.2754">controller:</text><text fill="#000000" font-family="sans-serif" font-size="14" lengthAdjust="spacing" textLength="94" x="277" y="963.8965">EditXController</text><rect fill="#E2E2F0" height="51.2422" rx="2.5" ry="2.5" style="stroke:#181818;stroke-width:0.5;" width="69" x="477.5" y="44.6211"/><text fill="#000000" font-family="sans-serif" font-size="14" lengthAdjust="spacing" textLength="49" x="487.5" y="66.7285">service:</text><text fill="#000000" font-family="sans-serif" font-size="14" lengthAdjust="spacing" textLength="55" x="484.5" y="85.3496">XService</text><rect fill="#E2E2F0" height="51.2422" rx="2.5" ry="2.5" style="stroke:#181818;stroke-width:0.5;" width="69" x="477.5" y="923.168"/><text fill="#000000" font-family="sans-serif" font-size="14" lengthAdjust="spacing" textLength="49" x="487.5" y="945.2754">service:</text><text fill="#000000" font-family="sans-serif" font-size="14" lengthAdjust="spacing" textLength="55" x="484.5" y="963.8965">XService</text><rect fill="#E2E2F0" height="51.2422" rx="2.5" ry="2.5" style="stroke:#181818;stroke-width:0.5;" width="81" x="621.5" y="44.6211"/><text fill="#000000" font-family="sans-serif" font-size="14" lengthAdjust="spacing" textLength="67" x="628.5" y="66.7285">repository:</text><text fill="#000000" font-family="sans-serif" font-size="14" lengthAdjust="spacing" textLength="42" x="641" y="85.3496">XRepo</text><rect fill="#E2E2F0" height="51.2422" rx="2.5" ry="2.5" style="stroke:#181818;stroke-width:0.5;" width="81" x="621.5" y="923.168"/><text fill="#000000" font-family="sans-serif" font-size="14" lengthAdjust="spacing" textLength="67" x="628.5" y="945.2754">repository:</text><text fill="#000000" font-family="sans-serif" font-size="14" lengthAdjust="spacing" textLength="42" x="641" y="963.8965">XRepo</text><rect fill="#E2E2F0" height="51.2422" rx="2.5" ry="2.5" style="stroke:#181818;stroke-width:0.5;" width="70" x="712.5" y="44.6211"/><text fill="#000000" font-family="sans-serif" font-size="14" lengthAdjust="spacing" textLength="52" x="721.5" y="66.7285">mapper:</text><text fill="#000000" font-family="sans-serif" font-size="14" lengthAdjust="spacing" textLength="56" x="719.5" y="85.3496">XMapper</text><rect fill="#E2E2F0" height="51.2422" rx="2.5" ry="2.5" style="stroke:#181818;stroke-width:0.5;" width="70" x="712.5" y="923.168"/><text fill="#000000" font-family="sans-serif" font-size="14" lengthAdjust="spacing" textLength="52" x="721.5" y="945.2754">mapper:</text><text fill="#000000" font-family="sans-serif" font-size="14" lengthAdjust="spacing" textLength="56" x="719.5" y="963.8965">XMapper</text><rect fill="#E2E2F0" height="51.2422" rx="2.5" ry="2.5" style="stroke:#181818;stroke-width:0.5;" width="52" x="792.5" y="923.168"/><text fill="#000000" font-family="sans-serif" font-size="14" lengthAdjust="spacing" textLength="24" x="806.5" y="945.2754">dto:</text><text fill="#000000" font-family="sans-serif" font-size="14" lengthAdjust="spacing" textLength="38" x="799.5" y="963.8965">XDTO</text><rect fill="#E2E2F0" height="51.2422" rx="2.5" ry="2.5" style="stroke:#181818;stroke-width:0.5;" width="91" x="854.5" y="44.6211"/><text fill="#000000" font-family="sans-serif" font-size="14" lengthAdjust="spacing" textLength="77" x="861.5" y="66.7285">persistence:</text><text fill="#000000" font-family="sans-serif" font-size="14" lengthAdjust="spacing" textLength="74" x="863" y="85.3496">Persistence</text><rect fill="#E2E2F0" height="51.2422" rx="2.5" ry="2.5" style="stroke:#181818;stroke-width:0.5;" width="91" x="854.5" y="923.168"/><text fill="#000000" font-family="sans-serif" font-size="14" lengthAdjust="spacing" textLength="77" x="861.5" y="945.2754">persistence:</text><text fill="#000000" font-family="sans-serif" font-size="14" lengthAdjust="spacing" textLength="74" x="863" y="963.8965">Persistence</text><rect fill="#FFFFFF" height="377.1523" style="stroke:#181818;stroke-width:1.0;" width="10" x="127" y="130.1543"/><rect fill="#FFFFFF" height="342.5703" style="stroke:#181818;stroke-width:1.0;" width="10" x="127" y="563.5977"/><rect fill="#FFFFFF" height="314.5703" style="stroke:#181818;stroke-width:1.0;" width="10" x="319" y="161.4453"/><rect fill="#FFFFFF" height="279.9883" style="stroke:#181818;stroke-width:1.0;" width="10" x="319" y="594.8887"/><rect fill="#FFFFFF" height="251.9883" style="stroke:#181818;stroke-width:1.0;" width="10" x="507" y="192.7363"/><rect fill="#FFFFFF" height="155.1641" style="stroke:#181818;stroke-width:1.0;" width="10" x="507" y="688.4219"/><rect fill="#FFFFFF" height="31.291" style="stroke:#181818;stroke-width:1.0;" width="10" x="657" y="224.0273"/><rect fill="#FFFFFF" height="92.582" style="stroke:#181818;stroke-width:1.0;" width="10" x="657" y="719.7129"/><rect fill="#FFFFFF" height="93.5332" style="stroke:#181818;stroke-width:1.0;" width="10" x="742.5" y="312.9004"/><rect fill="#FFFFFF" height="30" style="stroke:#181818;stroke-width:1.0;" width="10" x="895" y="751.0039"/><ellipse cx="7.5" cy="129.4043" fill="none" rx="4" ry="4" style="stroke:#181818;stroke-width:1.5;"/><polygon fill="#181818" points="115,126.1543,125,130.1543,115,134.1543,119,130.1543" style="stroke:#181818;stroke-width:1.0;"/><line style="stroke:#181818;stroke-width:1.0;" x1="12" x2="121" y1="130.1543" y2="130.1543"/><text fill="#000000" font-family="sans-serif" font-size="13" font-weight="bold" lengthAdjust="spacing" textLength="7" x="15" y="124.8916">1</text><text fill="#000000" font-family="sans-serif" font-size="13" lengthAdjust="spacing" textLength="34" x="26" y="124.8916">GET()</text><polygon fill="#181818" points="307,157.4453,317,161.4453,307,165.4453,311,161.4453" style="stroke:#181818;stroke-width:1.0;"/><line style="stroke:#181818;stroke-width:1.0;" x1="137" x2="313" y1="161.4453" y2="161.4453"/><text fill="#000000" font-family="sans-serif" font-size="13" font-weight="bold" lengthAdjust="spacing" textLength="7" x="144" y="156.1826">2</text><text fill="#000000" font-family="sans-serif" font-size="13" lengthAdjust="spacing" textLength="76" x="155" y="156.1826">getXProfiles()</text><polygon fill="#181818" points="495,188.7363,505,192.7363,495,196.7363,499,192.7363" style="stroke:#181818;stroke-width:1.0;"/><line style="stroke:#181818;stroke-width:1.0;" x1="329" x2="501" y1="192.7363" y2="192.7363"/><text fill="#000000" font-family="sans-serif" font-size="13" font-weight="bold" lengthAdjust="spacing" textLength="7" x="336" y="187.4736">3</text><text fill="#000000" font-family="sans-serif" font-size="13" lengthAdjust="spacing" textLength="76" x="347" y="187.4736">getXProfiles()</text><polygon fill="#181818" points="645,220.0273,655,224.0273,645,228.0273,649,224.0273" style="stroke:#181818;stroke-width:1.0;"/><line style="stroke:#181818;stroke-width:1.0;" x1="517" x2="651" y1="224.0273" y2="224.0273"/><text fill="#000000" font-family="sans-serif" font-size="13" font-weight="bold" lengthAdjust="spacing" textLength="7" x="524" y="218.7646">4</text><text fill="#000000" font-family="sans-serif" font-size="13" lengthAdjust="spacing" textLength="43" x="535" y="218.7646">findAll()</text><polygon fill="#181818" points="528,251.3184,518,255.3184,528,259.3184,524,255.3184" style="stroke:#181818;stroke-width:1.0;"/><line style="stroke:#181818;stroke-width:1.0;stroke-dasharray:2.0,2.0;" x1="522" x2="661" y1="255.3184" y2="255.3184"/><text fill="#000000" font-family="sans-serif" font-size="13" font-weight="bold" lengthAdjust="spacing" textLength="7" x="534" y="250.0557">5</text><text fill="#000000" font-family="sans-serif" font-size="13" lengthAdjust="spacing" textLength="71" x="545" y="250.0557">XProfilesList</text><path d="M467.5,270.3184 L540.5,270.3184 L540.5,279.6094 L530.5,289.6094 L467.5,289.6094 L467.5,270.3184 " fill="#EEEEEE" style="stroke:#000000;stroke-width:1.5;"/><rect fill="none" height="144.1152" style="stroke:#000000;stroke-width:1.5;" width="387" x="467.5" y="270.3184"/><text fill="#000000" font-family="sans-serif" font-size="13" font-weight="bold" lengthAdjust="spacing" textLength="28" x="482.5" y="285.3467">loop</text><text fill="#000000" font-family="sans-serif" font-size="11" font-weight="bold" lengthAdjust="spacing" textLength="160" x="555.5" y="284.1885">[for all the profiles in the list]</text><polygon fill="#181818" points="730.5,308.9004,740.5,312.9004,730.5,316.9004,734.5,312.9004" style="stroke:#181818;stroke-width:1.0;"/><line style="stroke:#181818;stroke-width:1.0;" x1="517" x2="736.5" y1="312.9004" y2="312.9004"/><text fill="#000000" font-family="sans-serif" font-size="13" font-weight="bold" lengthAdjust="spacing" textLength="7" x="524" y="307.6377">6</text><text fill="#000000" font-family="sans-serif" font-size="13" lengthAdjust="spacing" textLength="88" x="535" y="307.6377">toDTO(XProfile)</text><polygon fill="#181818" points="780.5,340.1914,790.5,344.1914,780.5,348.1914,784.5,344.1914" style="stroke:#181818;stroke-width:1.0;"/><line style="stroke:#181818;stroke-width:1.0;" x1="752.5" x2="786.5" y1="344.1914" y2="344.1914"/><text fill="#000000" font-family="sans-serif" font-size="13" font-weight="bold" lengthAdjust="spacing" textLength="7" x="759.5" y="338.9287">7</text><text fill="#000000" font-family="sans-serif" font-size="13" lengthAdjust="spacing" textLength="4" x="770.5" y="338.9287">&#160;</text><rect fill="#E2E2F0" height="51.2422" rx="2.5" ry="2.5" style="stroke:#181818;stroke-width:0.5;" width="52" x="792.5" y="320.9004"/><text fill="#000000" font-family="sans-serif" font-size="14" lengthAdjust="spacing" textLength="24" x="806.5" y="343.0078">dto:</text><text fill="#000000" font-family="sans-serif" font-size="14" lengthAdjust="spacing" textLength="38" x="799.5" y="361.6289">XDTO</text><polygon fill="#181818" points="528,402.4336,518,406.4336,528,410.4336,524,406.4336" style="stroke:#181818;stroke-width:1.0;"/><line style="stroke:#181818;stroke-width:1.0;stroke-dasharray:2.0,2.0;" x1="522" x2="746.5" y1="406.4336" y2="406.4336"/><text fill="#000000" font-family="sans-serif" font-size="13" font-weight="bold" lengthAdjust="spacing" textLength="7" x="534" y="401.1709">8</text><text fill="#000000" font-family="sans-serif" font-size="13" lengthAdjust="spacing" textLength="69" x="545" y="401.1709">XProfileDTO</text><polygon fill="#181818" points="340,440.7246,330,444.7246,340,448.7246,336,444.7246" style="stroke:#181818;stroke-width:1.0;"/><line style="stroke:#181818;stroke-width:1.0;stroke-dasharray:2.0,2.0;" x1="334" x2="511" y1="444.7246" y2="444.7246"/><text fill="#000000" font-family="sans-serif" font-size="13" font-weight="bold" lengthAdjust="spacing" textLength="7" x="346" y="439.4619">9</text><text fill="#000000" font-family="sans-serif" font-size="13" lengthAdjust="spacing" textLength="90" x="357" y="439.4619">XProfileDTOList</text><polygon fill="#181818" points="148,472.0156,138,476.0156,148,480.0156,144,476.0156" style="stroke:#181818;stroke-width:1.0;"/><line style="stroke:#181818;stroke-width:1.0;stroke-dasharray:2.0,2.0;" x1="142" x2="323" y1="476.0156" y2="476.0156"/><text fill="#000000" font-family="sans-serif" font-size="13" font-weight="bold" lengthAdjust="spacing" textLength="14" x="154" y="470.7529">10</text><text fill="#000000" font-family="sans-serif" font-size="13" lengthAdjust="spacing" textLength="90" x="172" y="470.7529">XProfileDTOList</text><polygon fill="#181818" points="11,503.3066,1,507.3066,11,511.3066,7,507.3066" style="stroke:#181818;stroke-width:1.0;"/><line style="stroke:#181818;stroke-width:1.0;" x1="5" x2="131" y1="507.3066" y2="507.3066"/><text fill="#000000" font-family="sans-serif" font-size="13" font-weight="bold" lengthAdjust="spacing" textLength="14" x="17" y="502.0439">11</text><text fill="#000000" font-family="sans-serif" font-size="13" lengthAdjust="spacing" textLength="90" x="35" y="502.0439">XProfileDTOList</text><ellipse cx="7.5" cy="562.8477" fill="none" rx="4" ry="4" style="stroke:#181818;stroke-width:1.5;"/><polygon fill="#181818" points="115,559.5977,125,563.5977,115,567.5977,119,563.5977" style="stroke:#181818;stroke-width:1.0;"/><line style="stroke:#181818;stroke-width:1.0;" x1="12" x2="121" y1="563.5977" y2="563.5977"/><text fill="#000000" font-family="sans-serif" font-size="13" font-weight="bold" lengthAdjust="spacing" textLength="14" x="15" y="558.335">12</text><text fill="#000000" font-family="sans-serif" font-size="13" lengthAdjust="spacing" textLength="57" x="33" y="558.335">PUT(json)</text><polygon fill="#181818" points="307,590.8887,317,594.8887,307,598.8887,311,594.8887" style="stroke:#181818;stroke-width:1.0;"/><line style="stroke:#181818;stroke-width:1.0;" x1="137" x2="313" y1="594.8887" y2="594.8887"/><text fill="#000000" font-family="sans-serif" font-size="13" font-weight="bold" lengthAdjust="spacing" textLength="14" x="144" y="589.626">13</text><text fill="#000000" font-family="sans-serif" font-size="13" lengthAdjust="spacing" textLength="145" x="162" y="589.626">editXProfile(updatedData)</text><polygon fill="#181818" points="780.5,622.1797,790.5,626.1797,780.5,630.1797,784.5,626.1797" style="stroke:#181818;stroke-width:1.0;"/><line style="stroke:#181818;stroke-width:1.0;" x1="329" x2="786.5" y1="626.1797" y2="626.1797"/><text fill="#000000" font-family="sans-serif" font-size="13" font-weight="bold" lengthAdjust="spacing" textLength="14" x="336" y="620.917">14</text><text fill="#000000" font-family="sans-serif" font-size="13" lengthAdjust="spacing" textLength="118" x="354" y="620.917">toDTO(updatedData)</text><rect fill="#E2E2F0" height="51.2422" rx="2.5" ry="2.5" style="stroke:#181818;stroke-width:0.5;" width="52" x="792.5" y="602.8887"/><text fill="#000000" font-family="sans-serif" font-size="14" lengthAdjust="spacing" textLength="24" x="806.5" y="624.9961">dto:</text><text fill="#000000" font-family="sans-serif" font-size="14" lengthAdjust="spacing" textLength="38" x="799.5" y="643.6172">XDTO</text><polygon fill="#181818" points="495,684.4219,505,688.4219,495,692.4219,499,688.4219" style="stroke:#181818;stroke-width:1.0;"/><line style="stroke:#181818;stroke-width:1.0;" x1="329" x2="501" y1="688.4219" y2="688.4219"/><text fill="#000000" font-family="sans-serif" font-size="13" font-weight="bold" lengthAdjust="spacing" textLength="14" x="336" y="683.1592">15</text><text fill="#000000" font-family="sans-serif" font-size="13" lengthAdjust="spacing" textLength="141" x="354" y="683.1592">editXProfile(XProfileDTO)</text><polygon fill="#181818" points="645,715.7129,655,719.7129,645,723.7129,649,719.7129" style="stroke:#181818;stroke-width:1.0;"/><line style="stroke:#181818;stroke-width:1.0;" x1="517" x2="651" y1="719.7129" y2="719.7129"/><text fill="#000000" font-family="sans-serif" font-size="13" font-weight="bold" lengthAdjust="spacing" textLength="14" x="524" y="714.4502">16</text><text fill="#000000" font-family="sans-serif" font-size="13" lengthAdjust="spacing" textLength="103" x="542" y="714.4502">save(XProfileDTO)</text><polygon fill="#181818" points="883,747.0039,893,751.0039,883,755.0039,887,751.0039" style="stroke:#181818;stroke-width:1.0;"/><line style="stroke:#181818;stroke-width:1.0;" x1="667" x2="889" y1="751.0039" y2="751.0039"/><text fill="#000000" font-family="sans-serif" font-size="13" font-weight="bold" lengthAdjust="spacing" textLength="14" x="674" y="745.7412">17</text><text fill="#000000" font-family="sans-serif" font-size="13" lengthAdjust="spacing" textLength="103" x="692" y="745.7412">save(XProfileDTO)</text><polygon fill="#181818" points="528,808.2949,518,812.2949,528,816.2949,524,812.2949" style="stroke:#181818;stroke-width:1.0;"/><line style="stroke:#181818;stroke-width:1.0;stroke-dasharray:2.0,2.0;" x1="522" x2="661" y1="812.2949" y2="812.2949"/><text fill="#000000" font-family="sans-serif" font-size="13" font-weight="bold" lengthAdjust="spacing" textLength="14" x="534" y="807.0322">18</text><text fill="#000000" font-family="sans-serif" font-size="13" lengthAdjust="spacing" textLength="41" x="552" y="807.0322">answer</text><polygon fill="#181818" points="340,839.5859,330,843.5859,340,847.5859,336,843.5859" style="stroke:#181818;stroke-width:1.0;"/><line style="stroke:#181818;stroke-width:1.0;stroke-dasharray:2.0,2.0;" x1="334" x2="511" y1="843.5859" y2="843.5859"/><text fill="#000000" font-family="sans-serif" font-size="13" font-weight="bold" lengthAdjust="spacing" textLength="14" x="346" y="838.3232">19</text><text fill="#000000" font-family="sans-serif" font-size="13" lengthAdjust="spacing" textLength="41" x="364" y="838.3232">answer</text><polygon fill="#181818" points="148,870.877,138,874.877,148,878.877,144,874.877" style="stroke:#181818;stroke-width:1.0;"/><line style="stroke:#181818;stroke-width:1.0;stroke-dasharray:2.0,2.0;" x1="142" x2="323" y1="874.877" y2="874.877"/><text fill="#000000" font-family="sans-serif" font-size="13" font-weight="bold" lengthAdjust="spacing" textLength="14" x="154" y="869.6143">20</text><text fill="#000000" font-family="sans-serif" font-size="13" lengthAdjust="spacing" textLength="41" x="172" y="869.6143">answer</text><polygon fill="#181818" points="11,902.168,1,906.168,11,910.168,7,906.168" style="stroke:#181818;stroke-width:1.0;"/><line style="stroke:#181818;stroke-width:1.0;stroke-dasharray:2.0,2.0;" x1="5" x2="131" y1="906.168" y2="906.168"/><text fill="#000000" font-family="sans-serif" font-size="13" font-weight="bold" lengthAdjust="spacing" textLength="14" x="17" y="900.9053">21</text><text fill="#000000" font-family="sans-serif" font-size="13" lengthAdjust="spacing" textLength="48" x="35" y="900.9053">sanswer</text><!--SRC=[ZPHTQzim58RlzIj4RkOMaZ36Ri8ebDICGReOnnc6xKQpJreDMT8aEMMG7xyZsKbafyrs5IbwpeVUzyZldftJTZ6VQy6aQningrGpj_2x1Ld1jERioR264CUT03hPRkZ7sVjPEQEPKHLOIxznUA792lOWw8UR2M6jKx9jVeA9bqGputZ5DHQX4wDQ1uiVCgsvAtE_cL1cQRxU5kcGh9HqHWa1veWlJ_-4c6MHhqRPBPWzhtp-SjCj0xb9yr4Ne9NbJfa_7irnrtMHPkiXs32jGmFbOrW5xF4-6rArKnvvADRX77z7VM6avTPvNH7Cphl0Psc- -R8fqg_Bb13oNKtlEZteWdvEY-I6iChnFNFGoqIwKyIy14WzWIlHb1qNO6EyKoX02ACALrYl4V68huuw8BhZihuNOj20LuY4y-afvIdV2cz5QXZHGYbDTyfG9WHrpq1rZrCkmrxuiBuqQeiPdK8DasFUgBwNddW6KKJexMs_lMZ6cn2ruWD1rjGtqz_ph5yKCxv2aALJCBBbIa2d-QVf_x2zdOV3OMHxjYsINrR9VriF_c7q5P9MruZM3yonDwUWK-sayI1aD2g3tD4rha-DPVktw7XwxkAnlnuMluz8lS6p6Oqaa_O5lpqNipWo_X9xtUzBxcZpsMVxIitWsLy0]--></g></svg>