<svg xmlns="http://www.w3.org/2000/svg" xmlns:xlink="http://www.w3.org/1999/xlink" contentStyleType="text/css" height="604px" preserveAspectRatio="none" style="width:1122px;height:604px;background:#FFFFFF;" version="1.1" viewBox="0 0 1122 604" width="1122px" zoomAndPan="magnify"><title>US 5.1.1. Process View (Level 3) - Creating a Staff Profile</title><defs/><g><text fill="#000000" font-family="sans-serif" font-size="14" font-weight="bold" lengthAdjust="spacing" textLength="452.2793" x="334.0945" y="27.9951">US 5.1.1. Process View (Level 3) - Creating a Staff Profile</text><rect fill="#FFFFFF" height="413.6484" style="stroke:#181818;stroke-width:1.0;" width="10" x="172.374" y="121.0234"/><rect fill="#FFFFFF" height="355.3828" style="stroke:#181818;stroke-width:1.0;" width="10" x="425.4399" y="150.1563"/><rect fill="#FFFFFF" height="239.5234" style="stroke:#181818;stroke-width:1.0;" width="10" x="749.8999" y="236.8828"/><rect fill="#FFFFFF" height="47.2656" style="stroke:#181818;stroke-width:1.0;" width="10" x="952.8447" y="266.0156"/><rect fill="#FFFFFF" height="29.1328" style="stroke:#181818;stroke-width:1.0;" width="10" x="952.8447" y="418.1406"/><line style="stroke:#181818;stroke-width:0.5;stroke-dasharray:5.0,5.0;" x1="177.1084" x2="177.1084" y1="89.8906" y2="552.6719"/><line style="stroke:#181818;stroke-width:0.5;stroke-dasharray:5.0,5.0;" x1="430.2222" x2="430.2222" y1="89.8906" y2="552.6719"/><line style="stroke:#181818;stroke-width:0.5;stroke-dasharray:5.0,5.0;" x1="651.7837" x2="651.7837" y1="196.9531" y2="552.6719"/><line style="stroke:#181818;stroke-width:0.5;stroke-dasharray:5.0,5.0;" x1="754.3979" x2="754.3979" y1="89.8906" y2="552.6719"/><line style="stroke:#181818;stroke-width:0.5;stroke-dasharray:5.0,5.0;" x1="957.6772" x2="957.6772" y1="89.8906" y2="552.6719"/><line style="stroke:#181818;stroke-width:0.5;stroke-dasharray:5.0,5.0;" x1="1073.0122" x2="1073.0122" y1="378.2109" y2="552.6719"/><rect fill="#E2E2F0" height="46.5938" rx="2.5" ry="2.5" style="stroke:#181818;stroke-width:0.5;" width="92.5313" x="131.1084" y="42.2969"/><text fill="#000000" font-family="sans-serif" font-size="14" lengthAdjust="spacing" textLength="58.3994" x="148.1743" y="62.292">&#171;Route&#187;</text><text fill="#000000" font-family="sans-serif" font-size="14" lengthAdjust="spacing" textLength="74.0811" x="142.5586" y="78.5889">StaffRoute</text><rect fill="#E2E2F0" height="46.5938" rx="2.5" ry="2.5" style="stroke:#181818;stroke-width:0.5;" width="92.5313" x="131.1084" y="551.6719"/><text fill="#000000" font-family="sans-serif" font-size="14" lengthAdjust="spacing" textLength="58.3994" x="148.1743" y="571.667">&#171;Route&#187;</text><text fill="#000000" font-family="sans-serif" font-size="14" lengthAdjust="spacing" textLength="74.0811" x="142.5586" y="587.9639">StaffRoute</text><rect fill="#E2E2F0" height="46.5938" rx="2.5" ry="2.5" style="stroke:#181818;stroke-width:0.5;" width="120.4355" x="370.2222" y="42.2969"/><text fill="#000000" font-family="sans-serif" font-size="14" lengthAdjust="spacing" textLength="86.3037" x="387.2881" y="62.292">&#171;Controller&#187;</text><text fill="#000000" font-family="sans-serif" font-size="14" lengthAdjust="spacing" textLength="101.9854" x="381.6724" y="78.5889">StaffController</text><rect fill="#E2E2F0" height="46.5938" rx="2.5" ry="2.5" style="stroke:#181818;stroke-width:0.5;" width="120.4355" x="370.2222" y="551.6719"/><text fill="#000000" font-family="sans-serif" font-size="14" lengthAdjust="spacing" textLength="86.3037" x="387.2881" y="571.667">&#171;Controller&#187;</text><text fill="#000000" font-family="sans-serif" font-size="14" lengthAdjust="spacing" textLength="101.9854" x="381.6724" y="587.9639">StaffController</text><rect fill="#E2E2F0" height="46.5938" rx="2.5" ry="2.5" style="stroke:#181818;stroke-width:0.5;" width="81.6143" x="611.7837" y="551.6719"/><text fill="#000000" font-family="sans-serif" font-size="14" lengthAdjust="spacing" textLength="47.4824" x="628.8496" y="571.667">&#171;DTO&#187;</text><text fill="#000000" font-family="sans-serif" font-size="14" lengthAdjust="spacing" textLength="63.1641" x="623.2339" y="587.9639">StaffDTO</text><rect fill="#E2E2F0" height="46.5938" rx="2.5" ry="2.5" style="stroke:#181818;stroke-width:0.5;" width="103.0039" x="703.3979" y="42.2969"/><text fill="#000000" font-family="sans-serif" font-size="14" lengthAdjust="spacing" textLength="68.8721" x="720.4639" y="62.292">&#171;Service&#187;</text><text fill="#000000" font-family="sans-serif" font-size="14" lengthAdjust="spacing" textLength="84.5537" x="714.8481" y="78.5889">StaffService</text><rect fill="#E2E2F0" height="46.5938" rx="2.5" ry="2.5" style="stroke:#181818;stroke-width:0.5;" width="103.0039" x="703.3979" y="551.6719"/><text fill="#000000" font-family="sans-serif" font-size="14" lengthAdjust="spacing" textLength="68.8721" x="720.4639" y="571.667">&#171;Service&#187;</text><text fill="#000000" font-family="sans-serif" font-size="14" lengthAdjust="spacing" textLength="84.5537" x="714.8481" y="587.9639">StaffService</text><rect fill="#E2E2F0" height="46.5938" rx="2.5" ry="2.5" style="stroke:#181818;stroke-width:0.5;" width="126.335" x="894.6772" y="42.2969"/><text fill="#000000" font-family="sans-serif" font-size="14" lengthAdjust="spacing" textLength="92.2031" x="911.7432" y="62.292">&#171;Repository&#187;</text><text fill="#000000" font-family="sans-serif" font-size="14" lengthAdjust="spacing" textLength="107.8848" x="906.1274" y="78.5889">StaffRepository</text><rect fill="#E2E2F0" height="46.5938" rx="2.5" ry="2.5" style="stroke:#181818;stroke-width:0.5;" width="126.335" x="894.6772" y="551.6719"/><text fill="#000000" font-family="sans-serif" font-size="14" lengthAdjust="spacing" textLength="92.2031" x="911.7432" y="571.667">&#171;Repository&#187;</text><text fill="#000000" font-family="sans-serif" font-size="14" lengthAdjust="spacing" textLength="107.8848" x="906.1274" y="587.9639">StaffRepository</text><rect fill="#E2E2F0" height="46.5938" rx="2.5" ry="2.5" style="stroke:#181818;stroke-width:0.5;" width="85.4561" x="1031.0122" y="551.6719"/><text fill="#000000" font-family="sans-serif" font-size="14" lengthAdjust="spacing" textLength="71.4561" x="1038.0122" y="571.667">&#171;Domain&#187;</text><text fill="#000000" font-family="sans-serif" font-size="14" lengthAdjust="spacing" textLength="32.8125" x="1059.5591" y="587.9639">Staff</text><rect fill="#FFFFFF" height="413.6484" style="stroke:#181818;stroke-width:1.0;" width="10" x="172.374" y="121.0234"/><rect fill="#FFFFFF" height="355.3828" style="stroke:#181818;stroke-width:1.0;" width="10" x="425.4399" y="150.1563"/><rect fill="#FFFFFF" height="239.5234" style="stroke:#181818;stroke-width:1.0;" width="10" x="749.8999" y="236.8828"/><rect fill="#FFFFFF" height="47.2656" style="stroke:#181818;stroke-width:1.0;" width="10" x="952.8447" y="266.0156"/><rect fill="#FFFFFF" height="29.1328" style="stroke:#181818;stroke-width:1.0;" width="10" x="952.8447" y="418.1406"/><ellipse cx="7.5" cy="120.2734" fill="#000000" rx="4" ry="4" style="stroke:#181818;stroke-width:1.5;"/><polygon fill="#181818" points="160.374,117.0234,170.374,121.0234,160.374,125.0234,164.374,121.0234" style="stroke:#181818;stroke-width:1.0;"/><line style="stroke:#181818;stroke-width:1.0;" x1="12" x2="166.374" y1="121.0234" y2="121.0234"/><text fill="#000000" font-family="sans-serif" font-size="13" lengthAdjust="spacing" textLength="145.374" x="15" y="115.9575">POST(staffProfileData)</text><polygon fill="#181818" points="413.4399,146.1563,423.4399,150.1563,413.4399,154.1563,417.4399,150.1563" style="stroke:#181818;stroke-width:1.0;"/><line style="stroke:#181818;stroke-width:1.0;" x1="182.374" x2="419.4399" y1="150.1563" y2="150.1563"/><text fill="#000000" font-family="sans-serif" font-size="13" lengthAdjust="spacing" textLength="224.0659" x="189.374" y="145.0903">createStaffProfile(staffProfileData)</text><polygon fill="#181818" points="599.7837,175.2891,609.7837,179.2891,599.7837,183.2891,603.7837,179.2891" style="stroke:#181818;stroke-width:1.0;"/><line style="stroke:#181818;stroke-width:1.0;" x1="435.4399" x2="605.7837" y1="179.2891" y2="179.2891"/><text fill="#000000" font-family="sans-serif" font-size="13" lengthAdjust="spacing" textLength="152.3438" x="442.4399" y="174.2231">toDTO(staffProfileData)</text><rect fill="#E2E2F0" height="46.5938" rx="2.5" ry="2.5" style="stroke:#181818;stroke-width:0.5;" width="81.6143" x="611.7837" y="158.1563"/><text fill="#000000" font-family="sans-serif" font-size="14" lengthAdjust="spacing" textLength="47.4824" x="628.8496" y="178.1514">&#171;DTO&#187;</text><text fill="#000000" font-family="sans-serif" font-size="14" lengthAdjust="spacing" textLength="63.1641" x="623.2339" y="194.4482">StaffDTO</text><polygon fill="#181818" points="737.8999,232.8828,747.8999,236.8828,737.8999,240.8828,741.8999,236.8828" style="stroke:#181818;stroke-width:1.0;"/><line style="stroke:#181818;stroke-width:1.0;" x1="435.4399" x2="743.8999" y1="236.8828" y2="236.8828"/><text fill="#000000" font-family="sans-serif" font-size="13" lengthAdjust="spacing" textLength="180.2734" x="442.4399" y="231.8169">createStaffProfile(staffDTO)</text><polygon fill="#181818" points="940.8447,262.0156,950.8447,266.0156,940.8447,270.0156,944.8447,266.0156" style="stroke:#181818;stroke-width:1.0;"/><line style="stroke:#181818;stroke-width:1.0;" x1="759.8999" x2="946.8447" y1="266.0156" y2="266.0156"/><text fill="#000000" font-family="sans-serif" font-size="13" lengthAdjust="spacing" textLength="173.9448" x="766.8999" y="260.9497">existsById(staffDTO.email)</text><polygon fill="#181818" points="770.8999,309.2813,760.8999,313.2813,770.8999,317.2813,766.8999,313.2813" style="stroke:#181818;stroke-width:1.0;"/><line style="stroke:#181818;stroke-width:1.0;stroke-dasharray:2.0,2.0;" x1="764.8999" x2="956.8447" y1="313.2813" y2="313.2813"/><text fill="#000000" font-family="sans-serif" font-size="13" lengthAdjust="spacing" textLength="51.9746" x="776.8999" y="308.2153">boolean</text><path d="M967,279.0156 L967,334.0156 L1102,334.0156 L1102,289.0156 L1092,279.0156 L967,279.0156 " fill="#FEFFDD" style="stroke:#181818;stroke-width:0.5;"/><path d="M1092,279.0156 L1092,289.0156 L1102,289.0156 L1092,279.0156 " fill="#FEFFDD" style="stroke:#181818;stroke-width:0.5;"/><text fill="#000000" font-family="sans-serif" font-size="13" lengthAdjust="spacing" textLength="104.3047" x="973" y="296.0825">Checks if a staff</text><text fill="#000000" font-family="sans-serif" font-size="13" lengthAdjust="spacing" textLength="114.9053" x="973" y="311.2153">doesn't exist with</text><text fill="#000000" font-family="sans-serif" font-size="13" lengthAdjust="spacing" textLength="70.5161" x="973" y="326.3481">that email.</text><polygon fill="#181818" points="1019.0122,341.4141,1029.0122,345.4141,1019.0122,349.4141,1023.0122,345.4141" style="stroke:#181818;stroke-width:1.0;"/><line style="stroke:#181818;stroke-width:1.0;" x1="759.8999" x2="1025.0122" y1="345.4141" y2="345.4141"/><rect fill="#E2E2F0" height="46.5938" rx="2.5" ry="2.5" style="stroke:#181818;stroke-width:0.5;" width="85.4561" x="1031.0122" y="339.4141"/><text fill="#000000" font-family="sans-serif" font-size="14" lengthAdjust="spacing" textLength="71.4561" x="1038.0122" y="359.4092">&#171;Domain&#187;</text><text fill="#000000" font-family="sans-serif" font-size="14" lengthAdjust="spacing" textLength="32.8125" x="1059.5591" y="375.7061">Staff</text><polygon fill="#181818" points="940.8447,414.1406,950.8447,418.1406,940.8447,422.1406,944.8447,418.1406" style="stroke:#181818;stroke-width:1.0;"/><line style="stroke:#181818;stroke-width:1.0;" x1="759.8999" x2="946.8447" y1="418.1406" y2="418.1406"/><text fill="#000000" font-family="sans-serif" font-size="13" lengthAdjust="spacing" textLength="69.564" x="766.8999" y="413.0747">save(staff)</text><polygon fill="#181818" points="770.8999,443.2734,760.8999,447.2734,770.8999,451.2734,766.8999,447.2734" style="stroke:#181818;stroke-width:1.0;"/><line style="stroke:#181818;stroke-width:1.0;stroke-dasharray:2.0,2.0;" x1="764.8999" x2="956.8447" y1="447.2734" y2="447.2734"/><text fill="#000000" font-family="sans-serif" font-size="13" lengthAdjust="spacing" textLength="28.9897" x="776.8999" y="442.2075">staff</text><polygon fill="#181818" points="446.4399,472.4063,436.4399,476.4063,446.4399,480.4063,442.4399,476.4063" style="stroke:#181818;stroke-width:1.0;"/><line style="stroke:#181818;stroke-width:1.0;stroke-dasharray:2.0,2.0;" x1="440.4399" x2="753.8999" y1="476.4063" y2="476.4063"/><text fill="#000000" font-family="sans-serif" font-size="13" lengthAdjust="spacing" textLength="40.2632" x="452.4399" y="471.3403">return</text><polygon fill="#181818" points="193.374,501.5391,183.374,505.5391,193.374,509.5391,189.374,505.5391" style="stroke:#181818;stroke-width:1.0;"/><line style="stroke:#181818;stroke-width:1.0;stroke-dasharray:2.0,2.0;" x1="187.374" x2="429.4399" y1="505.5391" y2="505.5391"/><text fill="#000000" font-family="sans-serif" font-size="13" lengthAdjust="spacing" textLength="40.2632" x="199.374" y="500.4731">return</text><polygon fill="#181818" points="11,530.6719,1,534.6719,11,538.6719,7,534.6719" style="stroke:#181818;stroke-width:1.0;"/><line style="stroke:#181818;stroke-width:1.0;stroke-dasharray:2.0,2.0;" x1="5" x2="176.374" y1="534.6719" y2="534.6719"/><text fill="#000000" font-family="sans-serif" font-size="13" lengthAdjust="spacing" textLength="87.2168" x="17" y="529.606">success/error</text><!--SRC=[bPHFQy904CNl-oa6BrKXbb9wAI9OhL2GHapifLwsSTIbwQxiZbg_VJT_DoRLKdB93k_tPkPb2GcA4LgB01vwT_Q1cLOH6WDl0e_Gdk81OxZlW0SZZPo4t027WFXwdIZN8iOMOpkkIKHYnoL1gz-VgptXOB2KcJ0zje0RcFkByBck7Yb9MiKnQeUuMigD_DTmxa_hv3Zq7M8FgROurCK1weE8AcFbXGmAXvD9KcYiWZjb12bzgknJrXoRr1hZgIykfEESch5tvGsoEE0HPduGjaqYoICTS-8TDen873XX7XlBv9RBux1ab7mJ32heDPyYHbOOMAyYhcxNsf6oRxyuLFL5KbUwMvDALvSjSt3XbEHcdV1R639FfvTLwT13crvSzqbpPWxrQYDzA1KZbqmgIsYnsP8jZhOOVHeGQtjrK_kbN2aqyeQond0Kj5rAsd9RIBhss1ZvfRvdytUxbvSo_907yjyjKkZl6SwkWaRQQybMDIWBllo0bLlN1ChxCMxM-fvNacOV9R-8MzHQwJDrglW1]--></g></svg>