<svg xmlns="http://www.w3.org/2000/svg" xmlns:xlink="http://www.w3.org/1999/xlink" contentStyleType="text/css" height="1082px" preserveAspectRatio="none" style="width:1807px;height:1082px;background:#FFFFFF;" version="1.1" viewBox="0 0 1807 1082" width="1807px" zoomAndPan="magnify"><title>US 5.1.1. Process View (Level 3) - Confirming Email and Activating Staff Account</title><defs/><g><text fill="#000000" font-family="sans-serif" font-size="14" font-weight="bold" lengthAdjust="spacing" textLength="637.0273" x="584.116" y="27.9951">US 5.1.1. Process View (Level 3) - Confirming Email and Activating Staff Account</text><rect fill="#FFFFFF" height="890.6133" style="stroke:#181818;stroke-width:1.0;" width="10" x="244.6294" y="131.5898"/><rect fill="#FFFFFF" height="812.7813" style="stroke:#181818;stroke-width:1.0;" width="10" x="582.0366" y="171.2891"/><rect fill="#FFFFFF" height="696.9219" style="stroke:#181818;stroke-width:1.0;" width="10" x="919.4438" y="258.0156"/><rect fill="#FFFFFF" height="238.0625" style="stroke:#181818;stroke-width:1.0;" width="10" x="924.4438" y="295.1484"/><rect fill="#FFFFFF" height="63.2656" style="stroke:#181818;stroke-width:1.0;" width="10" x="924.4438" y="862.5391"/><rect fill="#FFFFFF" height="145.6641" style="stroke:#181818;stroke-width:1.0;" width="10" x="1222.6753" y="387.5469"/><rect fill="#FFFFFF" height="87.3984" style="stroke:#181818;stroke-width:1.0;" width="10" x="1222.6753" y="620.6094"/><rect fill="#FFFFFF" height="29.1328" style="stroke:#181818;stroke-width:1.0;" width="10" x="1525.9067" y="329.2813"/><rect fill="#FFFFFF" height="29.1328" style="stroke:#181818;stroke-width:1.0;" width="10" x="1525.9067" y="416.6797"/><rect fill="#FFFFFF" height="29.1328" style="stroke:#181818;stroke-width:1.0;" width="10" x="1525.9067" y="474.9453"/><rect fill="#FFFFFF" height="29.1328" style="stroke:#181818;stroke-width:1.0;" width="10" x="1525.9067" y="562.3438"/><rect fill="#FFFFFF" height="29.1328" style="stroke:#181818;stroke-width:1.0;" width="10" x="1525.9067" y="649.7422"/><rect fill="#FFFFFF" height="29.1328" style="stroke:#181818;stroke-width:1.0;" width="10" x="1525.9067" y="737.1406"/><rect fill="#FFFFFF" height="29.1328" style="stroke:#181818;stroke-width:1.0;" width="10" x="1525.9067" y="896.6719"/><rect fill="#FFFFFF" height="30" style="stroke:#181818;stroke-width:1.0;" width="10" x="1634.498" y="795.4063"/><line style="stroke:#181818;stroke-width:0.5;stroke-dasharray:5.0,5.0;" x1="249.3638" x2="249.3638" y1="89.8906" y2="1031.2031"/><line style="stroke:#181818;stroke-width:0.5;stroke-dasharray:5.0,5.0;" x1="586.8188" x2="586.8188" y1="89.8906" y2="1031.2031"/><line style="stroke:#181818;stroke-width:0.5;stroke-dasharray:5.0,5.0;" x1="741.2544" x2="741.2544" y1="218.0859" y2="1031.2031"/><line style="stroke:#181818;stroke-width:0.5;stroke-dasharray:5.0,5.0;" x1="924.3931" x2="924.3931" y1="89.8906" y2="1031.2031"/><line style="stroke:#181818;stroke-width:0.5;stroke-dasharray:5.0,5.0;" x1="1227.1123" x2="1227.1123" y1="89.8906" y2="1031.2031"/><line style="stroke:#181818;stroke-width:0.5;stroke-dasharray:5.0,5.0;" x1="1530.0435" x2="1530.0435" y1="89.8906" y2="1031.2031"/><line style="stroke:#181818;stroke-width:0.5;stroke-dasharray:5.0,5.0;" x1="1638.77" x2="1638.77" y1="89.8906" y2="1031.2031"/><line style="stroke:#181818;stroke-width:0.5;stroke-dasharray:5.0,5.0;" x1="1746.2261" x2="1746.2261" y1="89.8906" y2="1031.2031"/><rect fill="#E2E2F0" height="46.5938" rx="2.5" ry="2.5" style="stroke:#181818;stroke-width:0.5;" width="92.5313" x="203.3638" y="42.2969"/><text fill="#000000" font-family="sans-serif" font-size="14" lengthAdjust="spacing" textLength="58.3994" x="220.4297" y="62.292">&#171;Route&#187;</text><text fill="#000000" font-family="sans-serif" font-size="14" lengthAdjust="spacing" textLength="74.0811" x="214.814" y="78.5889">StaffRoute</text><rect fill="#E2E2F0" height="46.5938" rx="2.5" ry="2.5" style="stroke:#181818;stroke-width:0.5;" width="92.5313" x="203.3638" y="1030.2031"/><text fill="#000000" font-family="sans-serif" font-size="14" lengthAdjust="spacing" textLength="58.3994" x="220.4297" y="1050.1982">&#171;Route&#187;</text><text fill="#000000" font-family="sans-serif" font-size="14" lengthAdjust="spacing" textLength="74.0811" x="214.814" y="1066.4951">StaffRoute</text><rect fill="#E2E2F0" height="46.5938" rx="2.5" ry="2.5" style="stroke:#181818;stroke-width:0.5;" width="120.4355" x="526.8188" y="42.2969"/><text fill="#000000" font-family="sans-serif" font-size="14" lengthAdjust="spacing" textLength="86.3037" x="543.8848" y="62.292">&#171;Controller&#187;</text><text fill="#000000" font-family="sans-serif" font-size="14" lengthAdjust="spacing" textLength="101.9854" x="538.269" y="78.5889">StaffController</text><rect fill="#E2E2F0" height="46.5938" rx="2.5" ry="2.5" style="stroke:#181818;stroke-width:0.5;" width="120.4355" x="526.8188" y="1030.2031"/><text fill="#000000" font-family="sans-serif" font-size="14" lengthAdjust="spacing" textLength="86.3037" x="543.8848" y="1050.1982">&#171;Controller&#187;</text><text fill="#000000" font-family="sans-serif" font-size="14" lengthAdjust="spacing" textLength="101.9854" x="538.269" y="1066.4951">StaffController</text><rect fill="#E2E2F0" height="46.5938" rx="2.5" ry="2.5" style="stroke:#181818;stroke-width:0.5;" width="169.4629" x="657.2544" y="1030.2031"/><text fill="#000000" font-family="sans-serif" font-size="14" lengthAdjust="spacing" textLength="47.4824" x="718.2446" y="1050.1982">&#171;DTO&#187;</text><text fill="#000000" font-family="sans-serif" font-size="14" lengthAdjust="spacing" textLength="151.0127" x="668.7046" y="1066.4951">ConfirmEmailUserDto</text><rect fill="#E2E2F0" height="46.5938" rx="2.5" ry="2.5" style="stroke:#181818;stroke-width:0.5;" width="102.1016" x="873.3931" y="42.2969"/><text fill="#000000" font-family="sans-serif" font-size="14" lengthAdjust="spacing" textLength="68.8721" x="890.0078" y="62.292">&#171;Service&#187;</text><text fill="#000000" font-family="sans-serif" font-size="14" lengthAdjust="spacing" textLength="83.6514" x="884.8433" y="78.5889">UserService</text><rect fill="#E2E2F0" height="46.5938" rx="2.5" ry="2.5" style="stroke:#181818;stroke-width:0.5;" width="102.1016" x="873.3931" y="1030.2031"/><text fill="#000000" font-family="sans-serif" font-size="14" lengthAdjust="spacing" textLength="68.8721" x="890.0078" y="1050.1982">&#171;Service&#187;</text><text fill="#000000" font-family="sans-serif" font-size="14" lengthAdjust="spacing" textLength="83.6514" x="884.8433" y="1066.4951">UserService</text><rect fill="#E2E2F0" height="46.5938" rx="2.5" ry="2.5" style="stroke:#181818;stroke-width:0.5;" width="205.126" x="1125.1123" y="42.2969"/><text fill="#000000" font-family="sans-serif" font-size="14" lengthAdjust="spacing" textLength="68.8721" x="1193.2393" y="62.292">&#171;Service&#187;</text><text fill="#000000" font-family="sans-serif" font-size="14" lengthAdjust="spacing" textLength="186.6758" x="1136.5625" y="78.5889">TokenManagementService</text><rect fill="#E2E2F0" height="46.5938" rx="2.5" ry="2.5" style="stroke:#181818;stroke-width:0.5;" width="205.126" x="1125.1123" y="1030.2031"/><text fill="#000000" font-family="sans-serif" font-size="14" lengthAdjust="spacing" textLength="68.8721" x="1193.2393" y="1050.1982">&#171;Service&#187;</text><text fill="#000000" font-family="sans-serif" font-size="14" lengthAdjust="spacing" textLength="186.6758" x="1136.5625" y="1066.4951">TokenManagementService</text><rect fill="#E2E2F0" height="46.5938" rx="2.5" ry="2.5" style="stroke:#181818;stroke-width:0.5;" width="111.7266" x="1475.0435" y="42.2969"/><text fill="#000000" font-family="sans-serif" font-size="14" lengthAdjust="spacing" textLength="58.3105" x="1501.7515" y="62.292">&#171;Utility&#187;</text><text fill="#000000" font-family="sans-serif" font-size="14" lengthAdjust="spacing" textLength="93.2764" x="1486.4937" y="78.5889">UserManager</text><rect fill="#E2E2F0" height="46.5938" rx="2.5" ry="2.5" style="stroke:#181818;stroke-width:0.5;" width="111.7266" x="1475.0435" y="1030.2031"/><text fill="#000000" font-family="sans-serif" font-size="14" lengthAdjust="spacing" textLength="58.3105" x="1501.7515" y="1050.1982">&#171;Utility&#187;</text><text fill="#000000" font-family="sans-serif" font-size="14" lengthAdjust="spacing" textLength="93.2764" x="1486.4937" y="1066.4951">UserManager</text><rect fill="#E2E2F0" height="46.5938" rx="2.5" ry="2.5" style="stroke:#181818;stroke-width:0.5;" width="85.4561" x="1596.77" y="42.2969"/><text fill="#000000" font-family="sans-serif" font-size="14" lengthAdjust="spacing" textLength="71.4561" x="1603.77" y="62.292">&#171;Domain&#187;</text><text fill="#000000" font-family="sans-serif" font-size="14" lengthAdjust="spacing" textLength="31.9102" x="1625.7681" y="78.5889">User</text><rect fill="#E2E2F0" height="46.5938" rx="2.5" ry="2.5" style="stroke:#181818;stroke-width:0.5;" width="85.4561" x="1596.77" y="1030.2031"/><text fill="#000000" font-family="sans-serif" font-size="14" lengthAdjust="spacing" textLength="71.4561" x="1603.77" y="1050.1982">&#171;Domain&#187;</text><text fill="#000000" font-family="sans-serif" font-size="14" lengthAdjust="spacing" textLength="31.9102" x="1625.7681" y="1066.4951">User</text><rect fill="#E2E2F0" height="46.5938" rx="2.5" ry="2.5" style="stroke:#181818;stroke-width:0.5;" width="109.0332" x="1692.2261" y="42.2969"/><text fill="#000000" font-family="sans-serif" font-size="14" lengthAdjust="spacing" textLength="68.8721" x="1712.3066" y="62.292">&#171;Service&#187;</text><text fill="#000000" font-family="sans-serif" font-size="14" lengthAdjust="spacing" textLength="90.583" x="1703.6763" y="78.5889">EmailService</text><rect fill="#E2E2F0" height="46.5938" rx="2.5" ry="2.5" style="stroke:#181818;stroke-width:0.5;" width="109.0332" x="1692.2261" y="1030.2031"/><text fill="#000000" font-family="sans-serif" font-size="14" lengthAdjust="spacing" textLength="68.8721" x="1712.3066" y="1050.1982">&#171;Service&#187;</text><text fill="#000000" font-family="sans-serif" font-size="14" lengthAdjust="spacing" textLength="90.583" x="1703.6763" y="1066.4951">EmailService</text><rect fill="#FFFFFF" height="890.6133" style="stroke:#181818;stroke-width:1.0;" width="10" x="244.6294" y="131.5898"/><rect fill="#FFFFFF" height="812.7813" style="stroke:#181818;stroke-width:1.0;" width="10" x="582.0366" y="171.2891"/><rect fill="#FFFFFF" height="696.9219" style="stroke:#181818;stroke-width:1.0;" width="10" x="919.4438" y="258.0156"/><rect fill="#FFFFFF" height="238.0625" style="stroke:#181818;stroke-width:1.0;" width="10" x="924.4438" y="295.1484"/><rect fill="#FFFFFF" height="63.2656" style="stroke:#181818;stroke-width:1.0;" width="10" x="924.4438" y="862.5391"/><rect fill="#FFFFFF" height="145.6641" style="stroke:#181818;stroke-width:1.0;" width="10" x="1222.6753" y="387.5469"/><rect fill="#FFFFFF" height="87.3984" style="stroke:#181818;stroke-width:1.0;" width="10" x="1222.6753" y="620.6094"/><rect fill="#FFFFFF" height="29.1328" style="stroke:#181818;stroke-width:1.0;" width="10" x="1525.9067" y="329.2813"/><rect fill="#FFFFFF" height="29.1328" style="stroke:#181818;stroke-width:1.0;" width="10" x="1525.9067" y="416.6797"/><rect fill="#FFFFFF" height="29.1328" style="stroke:#181818;stroke-width:1.0;" width="10" x="1525.9067" y="474.9453"/><rect fill="#FFFFFF" height="29.1328" style="stroke:#181818;stroke-width:1.0;" width="10" x="1525.9067" y="562.3438"/><rect fill="#FFFFFF" height="29.1328" style="stroke:#181818;stroke-width:1.0;" width="10" x="1525.9067" y="649.7422"/><rect fill="#FFFFFF" height="29.1328" style="stroke:#181818;stroke-width:1.0;" width="10" x="1525.9067" y="737.1406"/><rect fill="#FFFFFF" height="29.1328" style="stroke:#181818;stroke-width:1.0;" width="10" x="1525.9067" y="896.6719"/><rect fill="#FFFFFF" height="30" style="stroke:#181818;stroke-width:1.0;" width="10" x="1634.498" y="795.4063"/><ellipse cx="7.5" cy="130.8398" fill="#000000" rx="4" ry="4" style="stroke:#181818;stroke-width:1.5;"/><polygon fill="#181818" points="232.6294,127.5898,242.6294,131.5898,232.6294,135.5898,236.6294,131.5898" style="stroke:#181818;stroke-width:1.0;"/><line style="stroke:#181818;stroke-width:1.0;" x1="12" x2="238.6294" y1="131.5898" y2="131.5898"/><text fill="#000000" font-family="sans-serif" font-size="13" lengthAdjust="spacing" textLength="217.6294" x="15" y="126.5239">PUT(userId, token, newPassword)</text><path d="M259,104.8906 L259,144.8906 L410,144.8906 L410,114.8906 L400,104.8906 L259,104.8906 " fill="#FEFFDD" style="stroke:#181818;stroke-width:0.5;"/><path d="M400,104.8906 L400,114.8906 L410,114.8906 L400,104.8906 " fill="#FEFFDD" style="stroke:#181818;stroke-width:0.5;"/><text fill="#000000" font-family="sans-serif" font-size="13" lengthAdjust="spacing" textLength="130.9839" x="265" y="121.9575">After clicking on the</text><text fill="#000000" font-family="sans-serif" font-size="13" lengthAdjust="spacing" textLength="84.8174" x="265" y="137.0903">one time link</text><polygon fill="#181818" points="570.0366,167.2891,580.0366,171.2891,570.0366,175.2891,574.0366,171.2891" style="stroke:#181818;stroke-width:1.0;"/><line style="stroke:#181818;stroke-width:1.0;" x1="254.6294" x2="576.0366" y1="171.2891" y2="171.2891"/><text fill="#000000" font-family="sans-serif" font-size="13" lengthAdjust="spacing" textLength="308.4072" x="261.6294" y="166.2231">confirmEmailStaff(userId, token, newPassword)</text><polygon fill="#181818" points="645.2544,181.2891,655.2544,185.2891,645.2544,189.2891,649.2544,185.2891" style="stroke:#181818;stroke-width:1.0;"/><line style="stroke:#181818;stroke-width:1.0;" x1="592.0366" x2="651.2544" y1="185.2891" y2="185.2891"/><rect fill="#E2E2F0" height="46.5938" rx="2.5" ry="2.5" style="stroke:#181818;stroke-width:0.5;" width="169.4629" x="657.2544" y="179.2891"/><text fill="#000000" font-family="sans-serif" font-size="14" lengthAdjust="spacing" textLength="47.4824" x="718.2446" y="199.2842">&#171;DTO&#187;</text><text fill="#000000" font-family="sans-serif" font-size="14" lengthAdjust="spacing" textLength="151.0127" x="668.7046" y="215.5811">ConfirmEmailUserDto</text><polygon fill="#181818" points="907.4438,254.0156,917.4438,258.0156,907.4438,262.0156,911.4438,258.0156" style="stroke:#181818;stroke-width:1.0;"/><line style="stroke:#181818;stroke-width:1.0;" x1="592.0366" x2="913.4438" y1="258.0156" y2="258.0156"/><text fill="#000000" font-family="sans-serif" font-size="13" lengthAdjust="spacing" textLength="308.4072" x="599.0366" y="252.9497">confirmEmailStaff(userId, token, newPassword)</text><line style="stroke:#181818;stroke-width:1.0;" x1="929.4438" x2="976.4438" y1="282.1484" y2="282.1484"/><line style="stroke:#181818;stroke-width:1.0;" x1="976.4438" x2="976.4438" y1="282.1484" y2="295.1484"/><line style="stroke:#181818;stroke-width:1.0;" x1="935.4438" x2="976.4438" y1="295.1484" y2="295.1484"/><polygon fill="#181818" points="945.4438,291.1484,935.4438,295.1484,945.4438,299.1484,941.4438,295.1484" style="stroke:#181818;stroke-width:1.0;"/><text fill="#000000" font-family="sans-serif" font-size="13" lengthAdjust="spacing" textLength="262.0947" x="941.4438" y="277.0825">confirmEmailVerifications(userId, token)</text><polygon fill="#181818" points="1513.9067,325.2813,1523.9067,329.2813,1513.9067,333.2813,1517.9067,329.2813" style="stroke:#181818;stroke-width:1.0;"/><line style="stroke:#181818;stroke-width:1.0;" x1="934.4438" x2="1519.9067" y1="329.2813" y2="329.2813"/><text fill="#000000" font-family="sans-serif" font-size="13" lengthAdjust="spacing" textLength="145.6089" x="941.4438" y="324.2153">FindByIdAsync(userId)</text><polygon fill="#181818" points="945.4438,354.4141,935.4438,358.4141,945.4438,362.4141,941.4438,358.4141" style="stroke:#181818;stroke-width:1.0;"/><line style="stroke:#181818;stroke-width:1.0;stroke-dasharray:2.0,2.0;" x1="939.4438" x2="1529.9067" y1="358.4141" y2="358.4141"/><text fill="#000000" font-family="sans-serif" font-size="13" lengthAdjust="spacing" textLength="28.355" x="951.4438" y="353.3481">user</text><polygon fill="#181818" points="1210.6753,383.5469,1220.6753,387.5469,1210.6753,391.5469,1214.6753,387.5469" style="stroke:#181818;stroke-width:1.0;"/><line style="stroke:#181818;stroke-width:1.0;" x1="934.4438" x2="1216.6753" y1="387.5469" y2="387.5469"/><text fill="#000000" font-family="sans-serif" font-size="13" lengthAdjust="spacing" textLength="220.9302" x="941.4438" y="382.481">confirmEmailToken(userId, token)</text><polygon fill="#181818" points="1513.9067,412.6797,1523.9067,416.6797,1513.9067,420.6797,1517.9067,416.6797" style="stroke:#181818;stroke-width:1.0;"/><line style="stroke:#181818;stroke-width:1.0;" x1="1232.6753" x2="1519.9067" y1="416.6797" y2="416.6797"/><text fill="#000000" font-family="sans-serif" font-size="13" lengthAdjust="spacing" textLength="145.6089" x="1239.6753" y="411.6138">FindByIdAsync(userId)</text><polygon fill="#181818" points="1243.6753,441.8125,1233.6753,445.8125,1243.6753,449.8125,1239.6753,445.8125" style="stroke:#181818;stroke-width:1.0;"/><line style="stroke:#181818;stroke-width:1.0;stroke-dasharray:2.0,2.0;" x1="1237.6753" x2="1529.9067" y1="445.8125" y2="445.8125"/><text fill="#000000" font-family="sans-serif" font-size="13" lengthAdjust="spacing" textLength="28.355" x="1249.6753" y="440.7466">user</text><polygon fill="#181818" points="1513.9067,470.9453,1523.9067,474.9453,1513.9067,478.9453,1517.9067,474.9453" style="stroke:#181818;stroke-width:1.0;"/><line style="stroke:#181818;stroke-width:1.0;" x1="1232.6753" x2="1519.9067" y1="474.9453" y2="474.9453"/><text fill="#000000" font-family="sans-serif" font-size="13" lengthAdjust="spacing" textLength="220.9302" x="1239.6753" y="469.8794">confirmEmailToken(userId, token)</text><polygon fill="#181818" points="1243.6753,500.0781,1233.6753,504.0781,1243.6753,508.0781,1239.6753,504.0781" style="stroke:#181818;stroke-width:1.0;"/><line style="stroke:#181818;stroke-width:1.0;stroke-dasharray:2.0,2.0;" x1="1237.6753" x2="1529.9067" y1="504.0781" y2="504.0781"/><text fill="#000000" font-family="sans-serif" font-size="13" lengthAdjust="spacing" textLength="26.6792" x="1249.6753" y="499.0122">true</text><polygon fill="#181818" points="940.4438,529.2109,930.4438,533.2109,940.4438,537.2109,936.4438,533.2109" style="stroke:#181818;stroke-width:1.0;"/><line style="stroke:#181818;stroke-width:1.0;stroke-dasharray:2.0,2.0;" x1="934.4438" x2="1226.6753" y1="533.2109" y2="533.2109"/><text fill="#000000" font-family="sans-serif" font-size="13" lengthAdjust="spacing" textLength="26.6792" x="946.4438" y="528.145">true</text><polygon fill="#181818" points="1513.9067,558.3438,1523.9067,562.3438,1513.9067,566.3438,1517.9067,562.3438" style="stroke:#181818;stroke-width:1.0;"/><line style="stroke:#181818;stroke-width:1.0;" x1="929.4438" x2="1519.9067" y1="562.3438" y2="562.3438"/><text fill="#000000" font-family="sans-serif" font-size="13" lengthAdjust="spacing" textLength="145.6089" x="936.4438" y="557.2778">FindByIdAsync(userId)</text><polygon fill="#181818" points="940.4438,587.4766,930.4438,591.4766,940.4438,595.4766,936.4438,591.4766" style="stroke:#181818;stroke-width:1.0;"/><line style="stroke:#181818;stroke-width:1.0;stroke-dasharray:2.0,2.0;" x1="934.4438" x2="1529.9067" y1="591.4766" y2="591.4766"/><text fill="#000000" font-family="sans-serif" font-size="13" lengthAdjust="spacing" textLength="28.355" x="946.4438" y="586.4106">user</text><polygon fill="#181818" points="1210.6753,616.6094,1220.6753,620.6094,1210.6753,624.6094,1214.6753,620.6094" style="stroke:#181818;stroke-width:1.0;"/><line style="stroke:#181818;stroke-width:1.0;" x1="929.4438" x2="1216.6753" y1="620.6094" y2="620.6094"/><text fill="#000000" font-family="sans-serif" font-size="13" lengthAdjust="spacing" textLength="274.2314" x="936.4438" y="615.5435">generatePasswordResetTokenAsync(user)</text><polygon fill="#181818" points="1513.9067,645.7422,1523.9067,649.7422,1513.9067,653.7422,1517.9067,649.7422" style="stroke:#181818;stroke-width:1.0;"/><line style="stroke:#181818;stroke-width:1.0;" x1="1232.6753" x2="1519.9067" y1="649.7422" y2="649.7422"/><text fill="#000000" font-family="sans-serif" font-size="13" lengthAdjust="spacing" textLength="274.2314" x="1239.6753" y="644.6763">generatePasswordResetTokenAsync(user)</text><polygon fill="#181818" points="1243.6753,674.875,1233.6753,678.875,1243.6753,682.875,1239.6753,678.875" style="stroke:#181818;stroke-width:1.0;"/><line style="stroke:#181818;stroke-width:1.0;stroke-dasharray:2.0,2.0;" x1="1237.6753" x2="1529.9067" y1="678.875" y2="678.875"/><text fill="#000000" font-family="sans-serif" font-size="13" lengthAdjust="spacing" textLength="72.8711" x="1249.6753" y="673.8091">resetToken</text><polygon fill="#181818" points="940.4438,704.0078,930.4438,708.0078,940.4438,712.0078,936.4438,708.0078" style="stroke:#181818;stroke-width:1.0;"/><line style="stroke:#181818;stroke-width:1.0;stroke-dasharray:2.0,2.0;" x1="934.4438" x2="1226.6753" y1="708.0078" y2="708.0078"/><text fill="#000000" font-family="sans-serif" font-size="13" lengthAdjust="spacing" textLength="72.8711" x="946.4438" y="702.9419">resetToken</text><polygon fill="#181818" points="1513.9067,733.1406,1523.9067,737.1406,1513.9067,741.1406,1517.9067,737.1406" style="stroke:#181818;stroke-width:1.0;"/><line style="stroke:#181818;stroke-width:1.0;" x1="929.4438" x2="1519.9067" y1="737.1406" y2="737.1406"/><text fill="#000000" font-family="sans-serif" font-size="13" lengthAdjust="spacing" textLength="353.4819" x="936.4438" y="732.0747">ResetPasswordAsync(resetToken, user, newPassword)</text><polygon fill="#181818" points="940.4438,762.2734,930.4438,766.2734,940.4438,770.2734,936.4438,766.2734" style="stroke:#181818;stroke-width:1.0;"/><line style="stroke:#181818;stroke-width:1.0;stroke-dasharray:2.0,2.0;" x1="934.4438" x2="1529.9067" y1="766.2734" y2="766.2734"/><text fill="#000000" font-family="sans-serif" font-size="13" lengthAdjust="spacing" textLength="26.6792" x="946.4438" y="761.2075">true</text><polygon fill="#181818" points="1622.498,791.4063,1632.498,795.4063,1622.498,799.4063,1626.498,795.4063" style="stroke:#181818;stroke-width:1.0;"/><line style="stroke:#181818;stroke-width:1.0;" x1="929.4438" x2="1628.498" y1="795.4063" y2="795.4063"/><text fill="#000000" font-family="sans-serif" font-size="13" lengthAdjust="spacing" textLength="128.0195" x="936.4438" y="790.3403">ChangeStatus(true)</text><line style="stroke:#181818;stroke-width:1.0;" x1="929.4438" x2="976.4438" y1="849.5391" y2="849.5391"/><line style="stroke:#181818;stroke-width:1.0;" x1="976.4438" x2="976.4438" y1="849.5391" y2="862.5391"/><line style="stroke:#181818;stroke-width:1.0;" x1="935.4438" x2="976.4438" y1="862.5391" y2="862.5391"/><polygon fill="#181818" points="945.4438,858.5391,935.4438,862.5391,945.4438,866.5391,941.4438,862.5391" style="stroke:#181818;stroke-width:1.0;"/><text fill="#000000" font-family="sans-serif" font-size="13" lengthAdjust="spacing" textLength="124.3252" x="941.4438" y="844.4731">UpdateAsync(user)</text><polygon fill="#181818" points="1513.9067,892.6719,1523.9067,896.6719,1513.9067,900.6719,1517.9067,896.6719" style="stroke:#181818;stroke-width:1.0;"/><line style="stroke:#181818;stroke-width:1.0;" x1="934.4438" x2="1519.9067" y1="896.6719" y2="896.6719"/><text fill="#000000" font-family="sans-serif" font-size="13" lengthAdjust="spacing" textLength="124.3252" x="941.4438" y="891.606">UpdateAsync(user)</text><polygon fill="#181818" points="940.4438,921.8047,930.4438,925.8047,940.4438,929.8047,936.4438,925.8047" style="stroke:#181818;stroke-width:1.0;"/><line style="stroke:#181818;stroke-width:1.0;stroke-dasharray:2.0,2.0;" x1="934.4438" x2="1529.9067" y1="925.8047" y2="925.8047"/><text fill="#000000" font-family="sans-serif" font-size="13" lengthAdjust="spacing" textLength="26.6792" x="946.4438" y="920.7388">true</text><polygon fill="#181818" points="603.0366,950.9375,593.0366,954.9375,603.0366,958.9375,599.0366,954.9375" style="stroke:#181818;stroke-width:1.0;"/><line style="stroke:#181818;stroke-width:1.0;stroke-dasharray:2.0,2.0;" x1="597.0366" x2="923.4438" y1="954.9375" y2="954.9375"/><text fill="#000000" font-family="sans-serif" font-size="13" lengthAdjust="spacing" textLength="26.6792" x="609.0366" y="949.8716">true</text><polygon fill="#181818" points="265.6294,980.0703,255.6294,984.0703,265.6294,988.0703,261.6294,984.0703" style="stroke:#181818;stroke-width:1.0;"/><line style="stroke:#181818;stroke-width:1.0;stroke-dasharray:2.0,2.0;" x1="259.6294" x2="586.0366" y1="984.0703" y2="984.0703"/><text fill="#000000" font-family="sans-serif" font-size="13" lengthAdjust="spacing" textLength="40.2632" x="271.6294" y="979.0044">return</text><polygon fill="#181818" points="11,1009.2031,1,1013.2031,11,1017.2031,7,1013.2031" style="stroke:#181818;stroke-width:1.0;"/><line style="stroke:#181818;stroke-width:1.0;stroke-dasharray:2.0,2.0;" x1="5" x2="243.6294" y1="1013.2031" y2="1013.2031"/><text fill="#000000" font-family="sans-serif" font-size="13" lengthAdjust="spacing" textLength="87.2168" x="17" y="1008.1372">success/error</text><!--SRC=[jLPBZzem4BxdLumuiIjeLLMzL0WfPQcAocuG97jfBrOoOIs2ZPm9Y7zVnta7GifM5HTipVVmV1Cdn2b267WR-FBXa_x1IaaVunXUEPvWkCGZHl3v0SOmaoBaQi_55kPxnYDW8W3R9tvab6vkY8MXtl1b8cXWMGUcYFlym0J1O39PouHmElqjiaAp702BOUruxhnThSL8oIX2LK6gFOEREI_ksbbU23svZi7aVerNBqRrHDBWp7_NkS1jK1svdrbCQ_ArmTYU-oDTtmIvSeVYcGcsnJqAgkDTv-VynH2qy1xnYDEv5CtWsG6zpNojrvS7bFf8eeIKjJVDcJRKBSsVxSKoEvFrIuwdMGxm5LQUEqmqxo8O0QL76e70quh5yKcguC4IaX0Y3CcoGq85ViJzNJe0KW2zeIK50l6zhk5YPw4UaXHXiMnICC_RokIqRfwZLlPhYPd4R_ee2Sj1A9WqQHxouoCqjeiStozMJKB9rStxYeg7tDVFXnHna_yQPPqn3ryJVkSY-7PU17Py5dvEKaCNKr80naqxQRqLu4LvNQkSpfPzCz2TjgkPhl3_QhpkfCjvXzhV6-yJ9fLWZt2pnsr0rPdQvlN1-TynT-QyHO5ALnOZliOOoVIjCd1Fs7VozMMWIlXTILo7LUOxUc_C5iuplnNJo3ItwpxeoQLhbYwCwDhP6nDRr7SH9V4m1RPasZoTLv1t27JDrRxtt3KtaEyyQCyJqBZ_snmLeBp2Q-yfXPIeXa3v8fYCnsLPdFZfzyn7L4ggFm00]--></g></svg>