<svg xmlns="http://www.w3.org/2000/svg" xmlns:xlink="http://www.w3.org/1999/xlink" contentStyleType="text/css" height="409px" preserveAspectRatio="none" style="width:905px;height:409px;background:#FFFFFF;" version="1.1" viewBox="0 0 905 409" width="905px" zoomAndPan="magnify"><title>US 5.1.1. Process View (Level 3) | Visualization - Create Staff User and Associating</title><defs/><g><text fill="#000000" font-family="sans-serif" font-size="14" font-weight="bold" lengthAdjust="spacing" textLength="653.6387" x="124.5906" y="27.9951">US 5.1.1. Process View (Level 3) | Visualization - Create Staff User and Associating</text><rect fill="#FFFFFF" height="181.9297" style="stroke:#181818;stroke-width:1.0;" width="10" x="25.4321" y="128.5938"/><rect fill="#FFFFFF" height="160.7969" style="stroke:#181818;stroke-width:1.0;" width="10" x="161.5933" y="149.7266"/><rect fill="#FFFFFF" height="102.5313" style="stroke:#181818;stroke-width:1.0;" width="10" x="503.1265" y="178.8594"/><line style="stroke:#181818;stroke-width:0.5;stroke-dasharray:5.0,5.0;" x1="30" x2="30" y1="118.5938" y2="328.5234"/><line style="stroke:#181818;stroke-width:0.5;stroke-dasharray:5.0,5.0;" x1="166.3882" x2="166.3882" y1="118.5938" y2="328.5234"/><line style="stroke:#181818;stroke-width:0.5;stroke-dasharray:5.0,5.0;" x1="508.0757" x2="508.0757" y1="118.5938" y2="328.5234"/><text fill="#000000" font-family="sans-serif" font-size="14" lengthAdjust="spacing" textLength="44.8643" x="5" y="115.292">Admin</text><ellipse cx="30.4321" cy="50.7969" fill="#E2E2F0" rx="8" ry="8" style="stroke:#181818;stroke-width:0.5;"/><path d="M30.4321,58.7969 L30.4321,85.7969 M17.4321,66.7969 L43.4321,66.7969 M30.4321,85.7969 L17.4321,100.7969 M30.4321,85.7969 L43.4321,100.7969 " fill="none" style="stroke:#181818;stroke-width:0.5;"/><text fill="#000000" font-family="sans-serif" font-size="14" lengthAdjust="spacing" textLength="44.8643" x="5" y="340.5186">Admin</text><ellipse cx="30.4321" cy="352.3203" fill="#E2E2F0" rx="8" ry="8" style="stroke:#181818;stroke-width:0.5;"/><path d="M30.4321,360.3203 L30.4321,387.3203 M17.4321,368.3203 L43.4321,368.3203 M30.4321,387.3203 L17.4321,402.3203 M30.4321,387.3203 L43.4321,402.3203 " fill="none" style="stroke:#181818;stroke-width:0.5;"/><rect fill="#E2E2F0" height="46.5938" rx="2.5" ry="2.5" style="stroke:#181818;stroke-width:0.5;" width="112.4102" x="110.3882" y="71"/><text fill="#000000" font-family="sans-serif" font-size="14" lengthAdjust="spacing" textLength="98.4102" x="117.3882" y="90.9951">&#171;Component&#187;</text><text fill="#000000" font-family="sans-serif" font-size="14" lengthAdjust="spacing" textLength="31.9102" x="152.8633" y="107.292">User</text><rect fill="#E2E2F0" height="46.5938" rx="2.5" ry="2.5" style="stroke:#181818;stroke-width:0.5;" width="112.4102" x="110.3882" y="327.5234"/><text fill="#000000" font-family="sans-serif" font-size="14" lengthAdjust="spacing" textLength="98.4102" x="117.3882" y="347.5186">&#171;Component&#187;</text><text fill="#000000" font-family="sans-serif" font-size="14" lengthAdjust="spacing" textLength="31.9102" x="152.8633" y="363.8154">User</text><rect fill="#E2E2F0" height="46.5938" rx="2.5" ry="2.5" style="stroke:#181818;stroke-width:0.5;" width="102.1016" x="457.0757" y="71"/><text fill="#000000" font-family="sans-serif" font-size="14" lengthAdjust="spacing" textLength="68.8721" x="473.6904" y="90.9951">&#171;Service&#187;</text><text fill="#000000" font-family="sans-serif" font-size="14" lengthAdjust="spacing" textLength="83.6514" x="468.5259" y="107.292">UserService</text><rect fill="#E2E2F0" height="46.5938" rx="2.5" ry="2.5" style="stroke:#181818;stroke-width:0.5;" width="102.1016" x="457.0757" y="327.5234"/><text fill="#000000" font-family="sans-serif" font-size="14" lengthAdjust="spacing" textLength="68.8721" x="473.6904" y="347.5186">&#171;Service&#187;</text><text fill="#000000" font-family="sans-serif" font-size="14" lengthAdjust="spacing" textLength="83.6514" x="468.5259" y="363.8154">UserService</text><rect fill="#FFFFFF" height="181.9297" style="stroke:#181818;stroke-width:1.0;" width="10" x="25.4321" y="128.5938"/><rect fill="#FFFFFF" height="160.7969" style="stroke:#181818;stroke-width:1.0;" width="10" x="161.5933" y="149.7266"/><rect fill="#FFFFFF" height="102.5313" style="stroke:#181818;stroke-width:1.0;" width="10" x="503.1265" y="178.8594"/><polygon fill="#181818" points="149.5933,145.7266,159.5933,149.7266,149.5933,153.7266,153.5933,149.7266" style="stroke:#181818;stroke-width:1.0;"/><line style="stroke:#181818;stroke-width:1.0;" x1="35.4321" x2="155.5933" y1="149.7266" y2="149.7266"/><text fill="#000000" font-family="sans-serif" font-size="13" lengthAdjust="spacing" textLength="107.1611" x="42.4321" y="144.6606">create staff user</text><polygon fill="#181818" points="491.1265,174.8594,501.1265,178.8594,491.1265,182.8594,495.1265,178.8594" style="stroke:#181818;stroke-width:1.0;"/><line style="stroke:#181818;stroke-width:1.0;" x1="171.5933" x2="497.1265" y1="178.8594" y2="178.8594"/><text fill="#000000" font-family="sans-serif" font-size="13" lengthAdjust="spacing" textLength="312.5332" x="178.5933" y="173.7935">RegisterStaffUser(email, password, role, phone)</text><ellipse cx="895.3198" cy="207.2422" fill="#000000" rx="4" ry="4" style="stroke:#181818;stroke-width:1.5;"/><polygon fill="#181818" points="878.3198,203.9922,888.3198,207.9922,878.3198,211.9922,882.3198,207.9922" style="stroke:#181818;stroke-width:1.0;"/><line style="stroke:#181818;stroke-width:1.0;" x1="513.1265" x2="884.3198" y1="207.9922" y2="207.9922"/><text fill="#000000" font-family="sans-serif" font-size="13" lengthAdjust="spacing" textLength="142.2192" x="520.1265" y="202.9263">POST: api/create-staff</text><polygon fill="#181818" points="524.1265,248.2578,514.1265,252.2578,524.1265,256.2578,520.1265,252.2578" style="stroke:#181818;stroke-width:1.0;"/><ellipse cx="895.3198" cy="251.5078" fill="#000000" rx="4" ry="4" style="stroke:#181818;stroke-width:1.5;"/><line style="stroke:#181818;stroke-width:1.0;stroke-dasharray:2.0,2.0;" x1="518.1265" x2="890.8198" y1="252.2578" y2="252.2578"/><text fill="#000000" font-family="sans-serif" font-size="13" lengthAdjust="spacing" textLength="289.9927" x="530.1265" y="232.0591">Ok("The user has been successfully created.</text><text fill="#000000" font-family="sans-serif" font-size="13" lengthAdjust="spacing" textLength="358.6934" x="530.1265" y="247.1919">Please verify your email to complete the registration.")</text><polygon fill="#181818" points="182.5933,277.3906,172.5933,281.3906,182.5933,285.3906,178.5933,281.3906" style="stroke:#181818;stroke-width:1.0;"/><line style="stroke:#181818;stroke-width:1.0;stroke-dasharray:2.0,2.0;" x1="176.5933" x2="507.1265" y1="281.3906" y2="281.3906"/><text fill="#000000" font-family="sans-serif" font-size="13" lengthAdjust="spacing" textLength="50.8511" x="188.5933" y="276.3247">success</text><polygon fill="#181818" points="41.4321,306.5234,31.4321,310.5234,41.4321,314.5234,37.4321,310.5234" style="stroke:#181818;stroke-width:1.0;"/><line style="stroke:#181818;stroke-width:1.0;stroke-dasharray:2.0,2.0;" x1="35.4321" x2="165.5933" y1="310.5234" y2="310.5234"/><text fill="#000000" font-family="sans-serif" font-size="13" lengthAdjust="spacing" textLength="50.8511" x="47.4321" y="305.4575">success</text><!--SRC=[RL71Qi904Btx5O-S58obb5v4197U2efHJ_QmJIQwTDqDknl5qe_lP2AfRPszx0pllNap4tKqX6IJuNdqo0zBxt8A0LjDP_HVwKG6JmDySI7KokXF5RMpI37tf28XYweiiGdaeMo1MGWkruon-wJNKtbq7hFYg6slKZxgN5VAHYIJoTmTAsV9nkbqPuMVG0LiifVLNsX6_gHpwe3NNF0CtqeVVMhSjAt08J-aKr7467bhDuZTcbK4rH459QKc96DkeyxS5UrrYDou8JSE-dHKsWnHgH3EpXT3U6U8ymEFDEXaEdLnYPiGuNJgtbXzkSZMOwXAFxGUK_7u7pv9Ky4lFlh9-a0o10wyWtSYYr3dpTtAsfZBTTXYjBDBGoeGJkHrUS75rHxY7T4XvnCOOdkHrRpCwEMwesHmn-tFBg-zEan1zoTjryYyzXY_YJUaTlat1S5_0m00]--></g></svg>