<svg xmlns="http://www.w3.org/2000/svg" xmlns:xlink="http://www.w3.org/1999/xlink" contentStyleType="text/css" height="394px" preserveAspectRatio="none" style="width:781px;height:394px;background:#FFFFFF;" version="1.1" viewBox="0 0 781 394" width="781px" zoomAndPan="magnify"><title>US 5.1.1. Process View (Level 3) | Visualization - Confirming Email and Activating Staff Account</title><defs/><g><text fill="#000000" font-family="sans-serif" font-size="14" font-weight="bold" lengthAdjust="spacing" textLength="753.5391" x="10" y="27.9951">US 5.1.1. Process View (Level 3) | Visualization - Confirming Email and Activating Staff Account</text><rect fill="#FFFFFF" height="166.7969" style="stroke:#181818;stroke-width:1.0;" width="10" x="39.0352" y="128.5938"/><rect fill="#FFFFFF" height="145.6641" style="stroke:#181818;stroke-width:1.0;" width="10" x="258.7949" y="149.7266"/><rect fill="#FFFFFF" height="87.3984" style="stroke:#181818;stroke-width:1.0;" width="10" x="571.6748" y="178.8594"/><line style="stroke:#181818;stroke-width:0.5;stroke-dasharray:5.0,5.0;" x1="43.6289" x2="43.6289" y1="118.5938" y2="313.3906"/><line style="stroke:#181818;stroke-width:0.5;stroke-dasharray:5.0,5.0;" x1="263.4707" x2="263.4707" y1="118.5938" y2="313.3906"/><line style="stroke:#181818;stroke-width:0.5;stroke-dasharray:5.0,5.0;" x1="576.624" x2="576.624" y1="118.5938" y2="313.3906"/><text fill="#000000" font-family="sans-serif" font-size="14" lengthAdjust="spacing" textLength="32.8125" x="24.6289" y="115.292">Staff</text><ellipse cx="44.0352" cy="50.7969" fill="#E2E2F0" rx="8" ry="8" style="stroke:#181818;stroke-width:0.5;"/><path d="M44.0352,58.7969 L44.0352,85.7969 M31.0352,66.7969 L57.0352,66.7969 M44.0352,85.7969 L31.0352,100.7969 M44.0352,85.7969 L57.0352,100.7969 " fill="none" style="stroke:#181818;stroke-width:0.5;"/><text fill="#000000" font-family="sans-serif" font-size="14" lengthAdjust="spacing" textLength="32.8125" x="24.6289" y="325.3857">Staff</text><ellipse cx="44.0352" cy="337.1875" fill="#E2E2F0" rx="8" ry="8" style="stroke:#181818;stroke-width:0.5;"/><path d="M44.0352,345.1875 L44.0352,372.1875 M31.0352,353.1875 L57.0352,353.1875 M44.0352,372.1875 L31.0352,387.1875 M44.0352,372.1875 L57.0352,387.1875 " fill="none" style="stroke:#181818;stroke-width:0.5;"/><rect fill="#E2E2F0" height="46.5938" rx="2.5" ry="2.5" style="stroke:#181818;stroke-width:0.5;" width="130.6484" x="198.4707" y="71"/><text fill="#000000" font-family="sans-serif" font-size="14" lengthAdjust="spacing" textLength="98.4102" x="214.5898" y="90.9951">&#171;Component&#187;</text><text fill="#000000" font-family="sans-serif" font-size="14" lengthAdjust="spacing" textLength="112.1982" x="209.9209" y="107.292">ConfirmAccount</text><rect fill="#E2E2F0" height="46.5938" rx="2.5" ry="2.5" style="stroke:#181818;stroke-width:0.5;" width="130.6484" x="198.4707" y="312.3906"/><text fill="#000000" font-family="sans-serif" font-size="14" lengthAdjust="spacing" textLength="98.4102" x="214.5898" y="332.3857">&#171;Component&#187;</text><text fill="#000000" font-family="sans-serif" font-size="14" lengthAdjust="spacing" textLength="112.1982" x="209.9209" y="348.6826">ConfirmAccount</text><rect fill="#E2E2F0" height="46.5938" rx="2.5" ry="2.5" style="stroke:#181818;stroke-width:0.5;" width="102.1016" x="525.624" y="71"/><text fill="#000000" font-family="sans-serif" font-size="14" lengthAdjust="spacing" textLength="68.8721" x="542.2388" y="90.9951">&#171;Service&#187;</text><text fill="#000000" font-family="sans-serif" font-size="14" lengthAdjust="spacing" textLength="83.6514" x="537.0742" y="107.292">UserService</text><rect fill="#E2E2F0" height="46.5938" rx="2.5" ry="2.5" style="stroke:#181818;stroke-width:0.5;" width="102.1016" x="525.624" y="312.3906"/><text fill="#000000" font-family="sans-serif" font-size="14" lengthAdjust="spacing" textLength="68.8721" x="542.2388" y="332.3857">&#171;Service&#187;</text><text fill="#000000" font-family="sans-serif" font-size="14" lengthAdjust="spacing" textLength="83.6514" x="537.0742" y="348.6826">UserService</text><rect fill="#FFFFFF" height="166.7969" style="stroke:#181818;stroke-width:1.0;" width="10" x="39.0352" y="128.5938"/><rect fill="#FFFFFF" height="145.6641" style="stroke:#181818;stroke-width:1.0;" width="10" x="258.7949" y="149.7266"/><rect fill="#FFFFFF" height="87.3984" style="stroke:#181818;stroke-width:1.0;" width="10" x="571.6748" y="178.8594"/><polygon fill="#181818" points="246.7949,145.7266,256.7949,149.7266,246.7949,153.7266,250.7949,149.7266" style="stroke:#181818;stroke-width:1.0;"/><line style="stroke:#181818;stroke-width:1.0;" x1="49.0352" x2="252.7949" y1="149.7266" y2="149.7266"/><text fill="#000000" font-family="sans-serif" font-size="13" lengthAdjust="spacing" textLength="190.7598" x="56.0352" y="144.6606">confirm and activate account</text><polygon fill="#181818" points="559.6748,174.8594,569.6748,178.8594,559.6748,182.8594,563.6748,178.8594" style="stroke:#181818;stroke-width:1.0;"/><line style="stroke:#181818;stroke-width:1.0;" x1="268.7949" x2="565.6748" y1="178.8594" y2="178.8594"/><text fill="#000000" font-family="sans-serif" font-size="13" lengthAdjust="spacing" textLength="283.8799" x="275.7949" y="173.7935">ConfirmEmailStaff(userId, token, password)</text><ellipse cx="746.4102" cy="207.2422" fill="#000000" rx="4" ry="4" style="stroke:#181818;stroke-width:1.5;"/><polygon fill="#181818" points="729.4102,203.9922,739.4102,207.9922,729.4102,211.9922,733.4102,207.9922" style="stroke:#181818;stroke-width:1.0;"/><line style="stroke:#181818;stroke-width:1.0;" x1="581.6748" x2="735.4102" y1="207.9922" y2="207.9922"/><text fill="#000000" font-family="sans-serif" font-size="13" lengthAdjust="spacing" textLength="141.2354" x="588.6748" y="202.9263">PUT: api/confirm-staff</text><polygon fill="#181818" points="592.6748,233.125,582.6748,237.125,592.6748,241.125,588.6748,237.125" style="stroke:#181818;stroke-width:1.0;"/><ellipse cx="746.4102" cy="236.375" fill="#000000" rx="4" ry="4" style="stroke:#181818;stroke-width:1.5;"/><line style="stroke:#181818;stroke-width:1.0;stroke-dasharray:2.0,2.0;" x1="586.6748" x2="741.9102" y1="237.125" y2="237.125"/><text fill="#000000" font-family="sans-serif" font-size="13" lengthAdjust="spacing" textLength="50.8511" x="598.6748" y="232.0591">success</text><polygon fill="#181818" points="279.7949,262.2578,269.7949,266.2578,279.7949,270.2578,275.7949,266.2578" style="stroke:#181818;stroke-width:1.0;"/><line style="stroke:#181818;stroke-width:1.0;stroke-dasharray:2.0,2.0;" x1="273.7949" x2="575.6748" y1="266.2578" y2="266.2578"/><text fill="#000000" font-family="sans-serif" font-size="13" lengthAdjust="spacing" textLength="50.8511" x="285.7949" y="261.1919">success</text><polygon fill="#181818" points="55.0352,291.3906,45.0352,295.3906,55.0352,299.3906,51.0352,295.3906" style="stroke:#181818;stroke-width:1.0;"/><line style="stroke:#181818;stroke-width:1.0;stroke-dasharray:2.0,2.0;" x1="49.0352" x2="262.7949" y1="295.3906" y2="295.3906"/><text fill="#000000" font-family="sans-serif" font-size="13" lengthAdjust="spacing" textLength="50.8511" x="61.0352" y="290.3247">success</text><!--SRC=[RL5DQyCm3BtdLuYSMcWwnjYbX409FGp6LfQbf-rW76M89NQmdHJ6VlninydIKlcaXzw7P4EcGOZB0Xwtz_R1KKcEMiE9y0ohPnomWOSr_5f0zwoX7sP82aWWbw8crPBuWaFBg04cAjXpGuETi61XM5rRWCjUc3YA63TIZMZKCMM8KyU4WJXDSzbsKg0mMVOX9k692Kn3_lgop_DhMe5g88wUL6fKeVUCul1syfuk3WPRi3N6IhAW2JlWev_FFnFOwEufCnWe7dGLUYlcxAnKYExluOrMlStrL6t0o6yK6-YOrcUfglMiyH_H9OP5USqaavzM-5Y-xu1rT1V29dfUw68yJH8_htlkVl66tdBpwwaARwUPzdIB-lDTKXUqwK9B9SVu0m00]--></g></svg>