<?xml version="1.0" encoding="us-ascii" standalone="no"?><svg xmlns="http://www.w3.org/2000/svg" xmlns:xlink="http://www.w3.org/1999/xlink" contentStyleType="text/css" height="628.8px" preserveAspectRatio="none" style="width:2008px;height:628px;background:#FFFFFF;" version="1.1" viewBox="0 0 2008 628" width="2008.2px" zoomAndPan="magnify"><defs/><g><text fill="#000000" font-family="sans-serif" font-size="8.4" font-weight="bold" lengthAdjust="spacing" textLength="174" x="916.8" y="18.0645">US 6.3.1 Process View (Level 3) | Planning</text><line style="stroke:#181818;stroke-width:0.3;stroke-dasharray:5.0,5.0;" x1="27" x2="27" y1="46.9453" y2="606.6598"/><line style="stroke:#181818;stroke-width:0.3;stroke-dasharray:5.0,5.0;" x1="328.5" x2="328.5" y1="46.9453" y2="606.6598"/><line style="stroke:#181818;stroke-width:0.3;stroke-dasharray:5.0,5.0;" x1="443.7" x2="443.7" y1="46.9453" y2="606.6598"/><line style="stroke:#181818;stroke-width:0.3;stroke-dasharray:5.0,5.0;" x1="500.1" x2="500.1" y1="46.9453" y2="606.6598"/><line style="stroke:#181818;stroke-width:0.3;stroke-dasharray:5.0,5.0;" x1="546.9" x2="546.9" y1="46.9453" y2="606.6598"/><line style="stroke:#181818;stroke-width:0.3;stroke-dasharray:5.0,5.0;" x1="593.1" x2="593.1" y1="46.9453" y2="606.6598"/><line style="stroke:#181818;stroke-width:0.3;stroke-dasharray:5.0,5.0;" x1="669.9" x2="669.9" y1="46.9453" y2="606.6598"/><line style="stroke:#181818;stroke-width:0.3;stroke-dasharray:5.0,5.0;" x1="782.7" x2="782.7" y1="46.9453" y2="606.6598"/><line style="stroke:#181818;stroke-width:0.3;stroke-dasharray:5.0,5.0;" x1="879.9" x2="879.9" y1="46.9453" y2="606.6598"/><line style="stroke:#181818;stroke-width:0.3;stroke-dasharray:5.0,5.0;" x1="968.1" x2="968.1" y1="46.9453" y2="606.6598"/><line style="stroke:#181818;stroke-width:0.3;stroke-dasharray:5.0,5.0;" x1="1066.5" x2="1066.5" y1="46.9453" y2="606.6598"/><line style="stroke:#181818;stroke-width:0.3;stroke-dasharray:5.0,5.0;" x1="1161.3" x2="1161.3" y1="46.9453" y2="606.6598"/><line style="stroke:#181818;stroke-width:0.3;stroke-dasharray:5.0,5.0;" x1="1273.5" x2="1273.5" y1="46.9453" y2="606.6598"/><line style="stroke:#181818;stroke-width:0.3;stroke-dasharray:5.0,5.0;" x1="1404.3" x2="1404.3" y1="46.9453" y2="606.6598"/><line style="stroke:#181818;stroke-width:0.3;stroke-dasharray:5.0,5.0;" x1="1495.5" x2="1495.5" y1="46.9453" y2="606.6598"/><line style="stroke:#181818;stroke-width:0.3;stroke-dasharray:5.0,5.0;" x1="1574.1" x2="1574.1" y1="46.9453" y2="606.6598"/><line style="stroke:#181818;stroke-width:0.3;stroke-dasharray:5.0,5.0;" x1="1679.1" x2="1679.1" y1="46.9453" y2="606.6598"/><line style="stroke:#181818;stroke-width:0.3;stroke-dasharray:5.0,5.0;" x1="1768.5" x2="1768.5" y1="46.9453" y2="606.6598"/><line style="stroke:#181818;stroke-width:0.3;stroke-dasharray:5.0,5.0;" x1="1900.2" x2="1900.2" y1="46.9453" y2="606.6598"/><rect fill="#E2E2F0" height="19.5727" rx="1.5" ry="1.5" style="stroke:#181818;stroke-width:0.3;" width="48" x="3" y="26.7727"/><text fill="#000000" font-family="sans-serif" font-size="8.4" lengthAdjust="spacing" textLength="39.6" x="7.2" y="40.0371">US 6.3.1/3</text><rect fill="#E2E2F0" height="19.5727" rx="1.5" ry="1.5" style="stroke:#181818;stroke-width:0.3;" width="48" x="3" y="606.0598"/><text fill="#000000" font-family="sans-serif" font-size="8.4" lengthAdjust="spacing" textLength="39.6" x="7.2" y="619.3242">US 6.3.1/3</text><rect fill="#E2E2F0" height="19.5727" rx="1.5" ry="1.5" style="stroke:#181818;stroke-width:0.3;" width="95.4" x="281.1" y="26.7727"/><text fill="#000000" font-family="sans-serif" font-size="8.4" lengthAdjust="spacing" textLength="87" x="285.3" y="40.0371">availability_operation/5</text><rect fill="#E2E2F0" height="19.5727" rx="1.5" ry="1.5" style="stroke:#181818;stroke-width:0.3;" width="95.4" x="281.1" y="606.0598"/><text fill="#000000" font-family="sans-serif" font-size="8.4" lengthAdjust="spacing" textLength="87" x="285.3" y="619.3242">availability_operation/5</text><rect fill="#E2E2F0" height="19.5727" rx="1.5" ry="1.5" style="stroke:#181818;stroke-width:0.3;" width="55.8" x="416.1" y="26.7727"/><text fill="#000000" font-family="sans-serif" font-size="8.4" lengthAdjust="spacing" textLength="47.4" x="420.3" y="40.0371">surgery_id/2</text><rect fill="#E2E2F0" height="19.5727" rx="1.5" ry="1.5" style="stroke:#181818;stroke-width:0.3;" width="55.8" x="416.1" y="606.0598"/><text fill="#000000" font-family="sans-serif" font-size="8.4" lengthAdjust="spacing" textLength="47.4" x="420.3" y="619.3242">surgery_id/2</text><rect fill="#E2E2F0" height="19.5727" rx="1.5" ry="1.5" style="stroke:#181818;stroke-width:0.3;" width="44.4" x="477.9" y="26.7727"/><text fill="#000000" font-family="sans-serif" font-size="8.4" lengthAdjust="spacing" textLength="36" x="482.1" y="40.0371">surgery/4</text><rect fill="#E2E2F0" height="19.5727" rx="1.5" ry="1.5" style="stroke:#181818;stroke-width:0.3;" width="44.4" x="477.9" y="606.0598"/><text fill="#000000" font-family="sans-serif" font-size="8.4" lengthAdjust="spacing" textLength="36" x="482.1" y="619.3242">surgery/4</text><rect fill="#E2E2F0" height="19.5727" rx="1.5" ry="1.5" style="stroke:#181818;stroke-width:0.3;" width="37.8" x="528.3" y="26.7727"/><text fill="#000000" font-family="sans-serif" font-size="8.4" lengthAdjust="spacing" textLength="29.4" x="532.5" y="40.0371">findall/3</text><rect fill="#E2E2F0" height="19.5727" rx="1.5" ry="1.5" style="stroke:#181818;stroke-width:0.3;" width="37.8" x="528.3" y="606.0598"/><text fill="#000000" font-family="sans-serif" font-size="8.4" lengthAdjust="spacing" textLength="29.4" x="532.5" y="619.3242">findall/3</text><rect fill="#E2E2F0" height="19.5727" rx="1.5" ry="1.5" style="stroke:#181818;stroke-width:0.3;" width="42.6" x="572.1" y="26.7727"/><text fill="#000000" font-family="sans-serif" font-size="8.4" lengthAdjust="spacing" textLength="34.2" x="576.3" y="40.0371">include/3</text><rect fill="#E2E2F0" height="19.5727" rx="1.5" ry="1.5" style="stroke:#181818;stroke-width:0.3;" width="42.6" x="572.1" y="606.0598"/><text fill="#000000" font-family="sans-serif" font-size="8.4" lengthAdjust="spacing" textLength="34.2" x="576.3" y="619.3242">include/3</text><rect fill="#E2E2F0" height="19.5727" rx="1.5" ry="1.5" style="stroke:#181818;stroke-width:0.3;" width="99" x="620.7" y="26.7727"/><text fill="#000000" font-family="sans-serif" font-size="8.4" lengthAdjust="spacing" textLength="90.6" x="624.9" y="40.0371">intersect_all_agendas/3</text><rect fill="#E2E2F0" height="19.5727" rx="1.5" ry="1.5" style="stroke:#181818;stroke-width:0.3;" width="99" x="620.7" y="606.0598"/><text fill="#000000" font-family="sans-serif" font-size="8.4" lengthAdjust="spacing" textLength="90.6" x="624.9" y="619.3242">intersect_all_agendas/3</text><rect fill="#E2E2F0" height="19.5727" rx="1.5" ry="1.5" style="stroke:#181818;stroke-width:0.3;" width="114" x="725.7" y="26.7727"/><text fill="#000000" font-family="sans-serif" font-size="8.4" lengthAdjust="spacing" textLength="105.6" x="729.9" y="40.0371">agenda_operation_room1/3</text><rect fill="#E2E2F0" height="19.5727" rx="1.5" ry="1.5" style="stroke:#181818;stroke-width:0.3;" width="114" x="725.7" y="606.0598"/><text fill="#000000" font-family="sans-serif" font-size="8.4" lengthAdjust="spacing" textLength="105.6" x="729.9" y="619.3242">agenda_operation_room1/3</text><rect fill="#E2E2F0" height="19.5727" rx="1.5" ry="1.5" style="stroke:#181818;stroke-width:0.3;" width="69" x="845.7" y="26.7727"/><text fill="#000000" font-family="sans-serif" font-size="8.4" lengthAdjust="spacing" textLength="60.6" x="849.9" y="40.0371">free_agenda0/2</text><rect fill="#E2E2F0" height="19.5727" rx="1.5" ry="1.5" style="stroke:#181818;stroke-width:0.3;" width="69" x="845.7" y="606.0598"/><text fill="#000000" font-family="sans-serif" font-size="8.4" lengthAdjust="spacing" textLength="60.6" x="849.9" y="619.3242">free_agenda0/2</text><rect fill="#E2E2F0" height="19.5727" rx="1.5" ry="1.5" style="stroke:#181818;stroke-width:0.3;" width="95.4" x="920.7" y="26.7727"/><text fill="#000000" font-family="sans-serif" font-size="8.4" lengthAdjust="spacing" textLength="87" x="924.9" y="40.0371">intersect_2_agendas/3</text><rect fill="#E2E2F0" height="19.5727" rx="1.5" ry="1.5" style="stroke:#181818;stroke-width:0.3;" width="95.4" x="920.7" y="606.0598"/><text fill="#000000" font-family="sans-serif" font-size="8.4" lengthAdjust="spacing" textLength="87" x="924.9" y="619.3242">intersect_2_agendas/3</text><rect fill="#E2E2F0" height="19.5727" rx="1.5" ry="1.5" style="stroke:#181818;stroke-width:0.3;" width="88.8" x="1022.1" y="26.7727"/><text fill="#000000" font-family="sans-serif" font-size="8.4" lengthAdjust="spacing" textLength="80.4" x="1026.3" y="40.0371">filter_full_intervals1/3</text><rect fill="#E2E2F0" height="19.5727" rx="1.5" ry="1.5" style="stroke:#181818;stroke-width:0.3;" width="88.8" x="1022.1" y="606.0598"/><text fill="#000000" font-family="sans-serif" font-size="8.4" lengthAdjust="spacing" textLength="80.4" x="1026.3" y="619.3242">filter_full_intervals1/3</text><rect fill="#E2E2F0" height="19.5727" rx="1.5" ry="1.5" style="stroke:#181818;stroke-width:0.3;" width="89.4" x="1116.9" y="26.7727"/><text fill="#000000" font-family="sans-serif" font-size="8.4" lengthAdjust="spacing" textLength="81" x="1121.1" y="40.0371">filter_by_availability/4</text><rect fill="#E2E2F0" height="19.5727" rx="1.5" ry="1.5" style="stroke:#181818;stroke-width:0.3;" width="89.4" x="1116.9" y="606.0598"/><text fill="#000000" font-family="sans-serif" font-size="8.4" lengthAdjust="spacing" textLength="81" x="1121.1" y="619.3242">filter_by_availability/4</text><rect fill="#E2E2F0" height="19.5727" rx="1.5" ry="1.5" style="stroke:#181818;stroke-width:0.3;" width="123" x="1212.3" y="26.7727"/><text fill="#000000" font-family="sans-serif" font-size="8.4" lengthAdjust="spacing" textLength="114.6" x="1216.5" y="40.0371">filter_by_surgery_availability/5</text><rect fill="#E2E2F0" height="19.5727" rx="1.5" ry="1.5" style="stroke:#181818;stroke-width:0.3;" width="123" x="1212.3" y="606.0598"/><text fill="#000000" font-family="sans-serif" font-size="8.4" lengthAdjust="spacing" textLength="114.6" x="1216.5" y="619.3242">filter_by_surgery_availability/5</text><rect fill="#E2E2F0" height="19.5727" rx="1.5" ry="1.5" style="stroke:#181818;stroke-width:0.3;" width="126" x="1341.3" y="26.7727"/><text fill="#000000" font-family="sans-serif" font-size="8.4" lengthAdjust="spacing" textLength="117.6" x="1345.5" y="40.0371">filter_by_cleaning_availability/6</text><rect fill="#E2E2F0" height="19.5727" rx="1.5" ry="1.5" style="stroke:#181818;stroke-width:0.3;" width="126" x="1341.3" y="606.0598"/><text fill="#000000" font-family="sans-serif" font-size="8.4" lengthAdjust="spacing" textLength="117.6" x="1345.5" y="619.3242">filter_by_cleaning_availability/6</text><rect fill="#E2E2F0" height="19.5727" rx="1.5" ry="1.5" style="stroke:#181818;stroke-width:0.3;" width="44.4" x="1473.3" y="26.7727"/><text fill="#000000" font-family="sans-serif" font-size="8.4" lengthAdjust="spacing" textLength="36" x="1477.5" y="40.0371">append/3</text><rect fill="#E2E2F0" height="19.5727" rx="1.5" ry="1.5" style="stroke:#181818;stroke-width:0.3;" width="44.4" x="1473.3" y="606.0598"/><text fill="#000000" font-family="sans-serif" font-size="8.4" lengthAdjust="spacing" textLength="36" x="1477.5" y="619.3242">append/3</text><rect fill="#E2E2F0" height="19.5727" rx="1.5" ry="1.5" style="stroke:#181818;stroke-width:0.3;" width="100.8" x="1523.7" y="26.7727"/><text fill="#000000" font-family="sans-serif" font-size="8.4" lengthAdjust="spacing" textLength="92.4" x="1527.9" y="40.0371">schedule_first_interval/5</text><rect fill="#E2E2F0" height="19.5727" rx="1.5" ry="1.5" style="stroke:#181818;stroke-width:0.3;" width="100.8" x="1523.7" y="606.0598"/><text fill="#000000" font-family="sans-serif" font-size="8.4" lengthAdjust="spacing" textLength="92.4" x="1527.9" y="619.3242">schedule_first_interval/5</text><rect fill="#E2E2F0" height="19.5727" rx="1.5" ry="1.5" style="stroke:#181818;stroke-width:0.3;" width="97.2" x="1630.5" y="26.7727"/><text fill="#000000" font-family="sans-serif" font-size="8.4" lengthAdjust="spacing" textLength="88.8" x="1634.7" y="40.0371">remove_unf_intervals/3</text><rect fill="#E2E2F0" height="19.5727" rx="1.5" ry="1.5" style="stroke:#181818;stroke-width:0.3;" width="97.2" x="1630.5" y="606.0598"/><text fill="#000000" font-family="sans-serif" font-size="8.4" lengthAdjust="spacing" textLength="88.8" x="1634.7" y="619.3242">remove_unf_intervals/3</text><rect fill="#E2E2F0" height="19.5727" rx="1.5" ry="1.5" style="stroke:#181818;stroke-width:0.3;" width="70.2" x="1733.7" y="26.7727"/><text fill="#000000" font-family="sans-serif" font-size="8.4" lengthAdjust="spacing" textLength="61.8" x="1737.9" y="40.0371">insert_agenda/3</text><rect fill="#E2E2F0" height="19.5727" rx="1.5" ry="1.5" style="stroke:#181818;stroke-width:0.3;" width="70.2" x="1733.7" y="606.0598"/><text fill="#000000" font-family="sans-serif" font-size="8.4" lengthAdjust="spacing" textLength="61.8" x="1737.9" y="619.3242">insert_agenda/3</text><rect fill="#E2E2F0" height="19.5727" rx="1.5" ry="1.5" style="stroke:#181818;stroke-width:0.3;" width="103.2" x="1848.6" y="26.7727"/><text fill="#000000" font-family="sans-serif" font-size="8.4" lengthAdjust="spacing" textLength="94.8" x="1852.8" y="40.0371">insert_agenda_doctors/3</text><rect fill="#E2E2F0" height="19.5727" rx="1.5" ry="1.5" style="stroke:#181818;stroke-width:0.3;" width="103.2" x="1848.6" y="606.0598"/><text fill="#000000" font-family="sans-serif" font-size="8.4" lengthAdjust="spacing" textLength="94.8" x="1852.8" y="619.3242">insert_agenda_doctors/3</text><ellipse cx="4.5" cy="56.0953" fill="none" rx="2.4" ry="2.4" style="stroke:#181818;stroke-width:0.8999999999999999;"/><polygon fill="#181818" points="19.8,54.1453,25.8,56.5453,19.8,58.9453,22.2,56.5453" style="stroke:#181818;stroke-width:0.6;"/><line style="stroke:#181818;stroke-width:0.6;" x1="7.2" x2="23.4" y1="56.5453" y2="56.5453"/><polygon fill="#181818" points="321.6,72.9199,327.6,75.3199,321.6,77.7199,324,75.3199" style="stroke:#181818;stroke-width:0.6;"/><line style="stroke:#181818;stroke-width:0.6;" x1="27" x2="325.2" y1="75.3199" y2="75.3199"/><text fill="#000000" font-family="sans-serif" font-size="7.8" lengthAdjust="spacing" textLength="287.4" x="31.2" y="72.1623">availability_operation_changed2(OpCode, Room, Day, LPossibilities, LParticipants)</text><polygon fill="#181818" points="436.8,91.6945,442.8,94.0945,436.8,96.4945,439.2,94.0945" style="stroke:#181818;stroke-width:0.6;"/><line style="stroke:#181818;stroke-width:0.6;" x1="328.8" x2="440.4" y1="94.0945" y2="94.0945"/><text fill="#000000" font-family="sans-serif" font-size="7.8" lengthAdjust="spacing" textLength="100.8" x="333" y="90.9369">surgery_id(OpCode, OpType)</text><polygon fill="#181818" points="492.9,110.4691,498.9,112.8691,492.9,115.2691,495.3,112.8691" style="stroke:#181818;stroke-width:0.6;"/><line style="stroke:#181818;stroke-width:0.6;" x1="328.8" x2="496.5" y1="112.8691" y2="112.8691"/><text fill="#000000" font-family="sans-serif" font-size="7.8" lengthAdjust="spacing" textLength="111.6" x="333" y="109.7115">surgery(OpType, _, TSurgery, _)</text><polygon fill="#181818" points="540,129.2438,546,131.6437,540,134.0438,542.4,131.6437" style="stroke:#181818;stroke-width:0.6;"/><line style="stroke:#181818;stroke-width:0.6;" x1="328.8" x2="543.6" y1="131.6437" y2="131.6437"/><text fill="#000000" font-family="sans-serif" font-size="7.8" lengthAdjust="spacing" textLength="197.4" x="333" y="128.4861">findall(Staff,assignment_surgery(OpCode, Staff),LAllStaff)</text><polygon fill="#181818" points="586.2,148.0184,592.2,150.4184,586.2,152.8184,588.6,150.4184" style="stroke:#181818;stroke-width:0.6;"/><line style="stroke:#181818;stroke-width:0.6;" x1="328.8" x2="589.8" y1="150.4184" y2="150.4184"/><text fill="#000000" font-family="sans-serif" font-size="7.8" lengthAdjust="spacing" textLength="136.8" x="333" y="147.2607">include(is_doctor, LAllStaff, LSurgeons)</text><polygon fill="#181818" points="586.2,166.793,592.2,169.193,586.2,171.593,588.6,169.193" style="stroke:#181818;stroke-width:0.6;"/><line style="stroke:#181818;stroke-width:0.6;" x1="328.8" x2="589.8" y1="169.193" y2="169.193"/><text fill="#000000" font-family="sans-serif" font-size="7.8" lengthAdjust="spacing" textLength="149.4" x="333" y="166.0354">include(is_anaesthetist, LAllStaff, LAnesth)</text><polygon fill="#181818" points="586.2,185.5676,592.2,187.9676,586.2,190.3676,588.6,187.9676" style="stroke:#181818;stroke-width:0.6;"/><line style="stroke:#181818;stroke-width:0.6;" x1="328.8" x2="589.8" y1="187.9676" y2="187.9676"/><text fill="#000000" font-family="sans-serif" font-size="7.8" lengthAdjust="spacing" textLength="144.6" x="333" y="184.81">include(is_assistant, LAllStaff, LCleaners)</text><polygon fill="#181818" points="663,204.3422,669,206.7422,663,209.1422,665.4,206.7422" style="stroke:#181818;stroke-width:0.6;"/><line style="stroke:#181818;stroke-width:0.6;" x1="328.8" x2="666.6" y1="206.7422" y2="206.7422"/><text fill="#000000" font-family="sans-serif" font-size="7.8" lengthAdjust="spacing" textLength="193.8" x="333" y="203.5846">intersect_all_agendas(LSurgeons, Day, LFreeSurgeons)</text><polygon fill="#181818" points="663,223.1168,669,225.5168,663,227.9168,665.4,225.5168" style="stroke:#181818;stroke-width:0.6;"/><line style="stroke:#181818;stroke-width:0.6;" x1="328.8" x2="666.6" y1="225.5168" y2="225.5168"/><text fill="#000000" font-family="sans-serif" font-size="7.8" lengthAdjust="spacing" textLength="177" x="333" y="222.3592">intersect_all_agendas(LAnesth, Day, LFreeAnesth)</text><polygon fill="#181818" points="663,241.8914,669,244.2914,663,246.6914,665.4,244.2914" style="stroke:#181818;stroke-width:0.6;"/><line style="stroke:#181818;stroke-width:0.6;" x1="328.8" x2="666.6" y1="244.2914" y2="244.2914"/><text fill="#000000" font-family="sans-serif" font-size="7.8" lengthAdjust="spacing" textLength="189" x="333" y="241.1338">intersect_all_agendas(LCleaners, Day, LFreeCleaners)</text><polygon fill="#181818" points="775.5,260.666,781.5,263.066,775.5,265.466,777.9,263.066" style="stroke:#181818;stroke-width:0.6;"/><line style="stroke:#181818;stroke-width:0.6;" x1="328.8" x2="779.1" y1="263.066" y2="263.066"/><text fill="#000000" font-family="sans-serif" font-size="7.8" lengthAdjust="spacing" textLength="166.2" x="333" y="259.9084">agenda_operation_room1(Room, Day, LAgenda)</text><polygon fill="#181818" points="873,279.4406,879,281.8406,873,284.2406,875.4,281.8406" style="stroke:#181818;stroke-width:0.6;"/><line style="stroke:#181818;stroke-width:0.6;" x1="328.8" x2="876.6" y1="281.8406" y2="281.8406"/><text fill="#000000" font-family="sans-serif" font-size="7.8" lengthAdjust="spacing" textLength="147" x="333" y="278.683">free_agenda0(LRoomAgenda, LFreeRoom)</text><polygon fill="#181818" points="1059.3,298.2152,1065.3,300.6152,1059.3,303.0152,1061.7,300.6152" style="stroke:#181818;stroke-width:0.6;"/><line style="stroke:#181818;stroke-width:0.6;" x1="328.8" x2="1062.9" y1="300.6152" y2="300.6152"/><text fill="#000000" font-family="sans-serif" font-size="7.8" lengthAdjust="spacing" textLength="193.8" x="333" y="297.4576">filter_full_intervals1(LFreeRoom, TotalTime, FullIntervals)</text><polygon fill="#181818" points="1154.4,316.9898,1160.4,319.3898,1154.4,321.7898,1156.8,319.3898" style="stroke:#181818;stroke-width:0.6;"/><line style="stroke:#181818;stroke-width:0.6;" x1="328.8" x2="1158" y1="319.3898" y2="319.3898"/><text fill="#000000" font-family="sans-serif" font-size="7.8" lengthAdjust="spacing" textLength="292.2" x="333" y="316.2322">filter_by_availability(FullIntervals, LFreeAnesth, TimeAnesthSurgery, IntervalsAnesth)</text><polygon fill="#181818" points="1266.6,335.7645,1272.6,338.1645,1266.6,340.5645,1269,338.1645" style="stroke:#181818;stroke-width:0.6;"/><line style="stroke:#181818;stroke-width:0.6;" x1="328.8" x2="1270.2" y1="338.1645" y2="338.1645"/><text fill="#000000" font-family="sans-serif" font-size="7.8" lengthAdjust="spacing" textLength="361.8" x="333" y="335.0068">filter_by_surgery_availability(IntervalsAnesth, LFreeSurgeons, TAnesthesia, TSurgery, IntervalsSurgeons)</text><polygon fill="#181818" points="1397.1,354.5391,1403.1,356.9391,1397.1,359.3391,1399.5,356.9391" style="stroke:#181818;stroke-width:0.6;"/><line style="stroke:#181818;stroke-width:0.6;" x1="328.8" x2="1400.7" y1="356.9391" y2="356.9391"/><text fill="#000000" font-family="sans-serif" font-size="7.8" lengthAdjust="spacing" textLength="394.8" x="333" y="353.7814">filter_by_cleaning_availability(IntervalsSurgeons, LFreeCleaners, TAnesthesia, TSurgery, TCleaning, LPossibilities)</text><polygon fill="#181818" points="1488.3,373.3137,1494.3,375.7137,1488.3,378.1137,1490.7,375.7137" style="stroke:#181818;stroke-width:0.6;"/><line style="stroke:#181818;stroke-width:0.6;" x1="328.8" x2="1491.9" y1="375.7137" y2="375.7137"/><text fill="#000000" font-family="sans-serif" font-size="7.8" lengthAdjust="spacing" textLength="166.2" x="333" y="372.5561">append(LAnesth, LSurgeons, TempParticipants)</text><polygon fill="#181818" points="1488.3,392.0883,1494.3,394.4883,1488.3,396.8883,1490.7,394.4883" style="stroke:#181818;stroke-width:0.6;"/><line style="stroke:#181818;stroke-width:0.6;" x1="328.8" x2="1491.9" y1="394.4883" y2="394.4883"/><text fill="#000000" font-family="sans-serif" font-size="7.8" lengthAdjust="spacing" textLength="180.6" x="333" y="391.3307">append(TempParticipants, LCleaners, LParticipants)</text><polygon fill="#181818" points="1566.9,410.8629,1572.9,413.2629,1566.9,415.6629,1569.3,413.2629" style="stroke:#181818;stroke-width:0.6;"/><line style="stroke:#181818;stroke-width:0.6;" x1="27" x2="1570.5" y1="413.2629" y2="413.2629"/><text fill="#000000" font-family="sans-serif" font-size="7.8" lengthAdjust="spacing" textLength="266.4" x="31.2" y="410.1053">schedule_first_interval(TAnesthesia,TSurgery,TCleaning,[(Tin,_)|_],(Tin,TfinS))</text><polygon fill="#181818" points="33.6,419.2629,27.6,421.6629,33.6,424.0629,31.2,421.6629" style="stroke:#181818;stroke-width:0.6;"/><line style="stroke:#181818;stroke-width:0.6;stroke-dasharray:2.0,2.0;" x1="30" x2="1573.5" y1="421.6629" y2="421.6629"/><polygon fill="#181818" points="1761.6,438.0375,1767.6,440.4375,1761.6,442.8375,1764,440.4375" style="stroke:#181818;stroke-width:0.6;"/><line style="stroke:#181818;stroke-width:0.6;" x1="27" x2="1765.2" y1="440.4375" y2="440.4375"/><text fill="#000000" font-family="sans-serif" font-size="7.8" lengthAdjust="spacing" textLength="195.6" x="31.2" y="437.2799">insert_agenda((TinS, TfinS, OpCode), Agenda, Agenda1)</text><line style="stroke:#181818;stroke-width:0.6;" x1="1768.8" x2="1794" y1="459.2121" y2="459.2121"/><line style="stroke:#181818;stroke-width:0.6;" x1="1794" x2="1794" y1="459.2121" y2="467.0121"/><line style="stroke:#181818;stroke-width:0.6;" x1="1769.4" x2="1794" y1="467.0121" y2="467.0121"/><polygon fill="#181818" points="1775.4,464.6121,1769.4,467.0121,1775.4,469.4121,1773,467.0121" style="stroke:#181818;stroke-width:0.6;"/><text fill="#000000" font-family="sans-serif" font-size="7.8" lengthAdjust="spacing" textLength="121.2" x="1773" y="456.0545">insert operation into room's agenda</text><polygon fill="#181818" points="33.6,483.3867,27.6,485.7867,33.6,488.1867,31.2,485.7867" style="stroke:#181818;stroke-width:0.6;"/><line style="stroke:#181818;stroke-width:0.6;stroke-dasharray:2.0,2.0;" x1="30" x2="1768.2" y1="485.7867" y2="485.7867"/><text fill="#000000" font-family="sans-serif" font-size="7.8" lengthAdjust="spacing" textLength="135" x="37.2" y="482.6291">return updated room agenda (Agenda1)</text><polygon fill="#181818" points="1893,502.1613,1899,504.5613,1893,506.9613,1895.4,504.5613" style="stroke:#181818;stroke-width:0.6;"/><line style="stroke:#181818;stroke-width:0.6;" x1="27" x2="1896.6" y1="504.5613" y2="504.5613"/><text fill="#000000" font-family="sans-serif" font-size="7.8" lengthAdjust="spacing" textLength="213.6" x="31.2" y="501.4037">insert_agenda_doctors((TinS, TfinS, OpCode), Day, LDoctors)</text><line style="stroke:#181818;stroke-width:0.6;" x1="1900.2" x2="1925.4" y1="523.3359" y2="523.3359"/><line style="stroke:#181818;stroke-width:0.6;" x1="1925.4" x2="1925.4" y1="523.3359" y2="531.1359"/><line style="stroke:#181818;stroke-width:0.6;" x1="1900.8" x2="1925.4" y1="531.1359" y2="531.1359"/><polygon fill="#181818" points="1906.8,528.7359,1900.8,531.1359,1906.8,533.5359,1904.4,531.1359" style="stroke:#181818;stroke-width:0.6;"/><text fill="#000000" font-family="sans-serif" font-size="7.8" lengthAdjust="spacing" textLength="99.6" x="1904.4" y="520.1783">update each doctor's agenda</text><polygon fill="#181818" points="1775.4,547.5105,1769.4,549.9105,1775.4,552.3105,1773,549.9105" style="stroke:#181818;stroke-width:0.6;"/><line style="stroke:#181818;stroke-width:0.6;" x1="1771.8" x2="1899.6" y1="549.9105" y2="549.9105"/><text fill="#000000" font-family="sans-serif" font-size="7.8" lengthAdjust="spacing" textLength="117" x="1779" y="546.7529">call insert_agenda for each doctor</text><polygon fill="#181818" points="1893,566.2852,1899,568.6852,1893,571.0852,1895.4,568.6852" style="stroke:#181818;stroke-width:0.6;"/><line style="stroke:#181818;stroke-width:0.6;stroke-dasharray:2.0,2.0;" x1="1768.8" x2="1896.6" y1="568.6852" y2="568.6852"/><text fill="#000000" font-family="sans-serif" font-size="7.8" lengthAdjust="spacing" textLength="112.2" x="1773" y="565.5275">return updated agenda for doctor</text><polygon fill="#181818" points="33.6,585.0598,27.6,587.4598,33.6,589.8598,31.2,587.4598" style="stroke:#181818;stroke-width:0.6;"/><line style="stroke:#181818;stroke-width:0.6;stroke-dasharray:2.0,2.0;" x1="30" x2="1899.6" y1="587.4598" y2="587.4598"/><text fill="#000000" font-family="sans-serif" font-size="7.8" lengthAdjust="spacing" textLength="121.2" x="37.2" y="584.3021">confirm insertion in doctor agendas</text><ellipse cx="4.5" cy="595.4098" fill="none" rx="2.4" ry="2.4" style="stroke:#181818;stroke-width:0.8999999999999999;"/><polygon fill="#181818" points="14.7,593.4598,8.7,595.8598,14.7,598.2598,12.3,595.8598" style="stroke:#181818;stroke-width:0.6;"/><line style="stroke:#181818;stroke-width:0.6;stroke-dasharray:2.0,2.0;" x1="13.5" x2="26.4" y1="595.8598" y2="595.8598"/><!--SRC=[bLPRQzim57xFhn1zcG9kixPh7y8OX9P28T2of7ifmwYsaWWSoLXAHg0_VhfPjyXf-nBRqlc-SpydWeW6WxEN1RYzkBwu1CyTgp3du0_1_m2SuprkmFKOl8Fd1b5AwFfiD6fH9qX5MaI5Hqwkpm3Yu6KHNwCz8Wrw8mqHXvArk4E2C3gvqSApuFAfZO5yrwrnToX9FRdImWjpy7YVbPly28LYaHMXDMeQQ-5yrZGBWLQhM8ZGgjdLs0ezcYyjnrD1WJkEAr5ApXAjiIJd3cRlPkOuYOK-z54eEyQsVU1-otU3IeplCBPQljj8FCYZdAYtxEe3kvIoD4QD52bNE-cJvjcZXlUsFUZB1tcN1RqToZ3DDXK6f5CyXEfp7A5l0hHAvn2uQZ1I1HcZRmFqdP98Kj2sCW3MhPd-CBz9KLKRNEyQNAv8nuKBYBLjOMzZJ8UtR8_B7Ltv0FQvrLSlzAZaEEw4JPNBb3hBPpUGBcjM2TRn3EhUt8n6h-pyb-f7sQ7o9UwrASWtPbbj45tZ-We-jNUineMkomBSeqC1vi-CSw8X17FrxUtZur6iGUbqBJi5lfqTyrExFBJu1CwXe14jG5c0fRsK7pcew-ufi6qFzMU1fEbhkiLKb9xL6A85neM3vdYZWJ05Tbf0mcqc2gzPlceR6ULVOq8KOIusM10kOhuPLHTVP9CESo5J4rFfff3384yMZmd5bnbsqFdN5uQQIATz_YInSJIaFUNw9qbxbqFQKs7merYsINPcmx0hZ6YEo0zgMOt178TphyBQemwo56xqgeBEpMZeyB8vc43DacnbKIl8OoyqpApF7NKooM544YL4wf9gpBlhI2Swd3G_rqEbkKK04xQapAG1vXnpWiAnu62d2Z9O4A4TsPq2ZnYJ6XeqPNbd-TBPcJCft4QoxlJJDqJGSakyRJ-Ql5co51XCWwDXFh9hezzrSXRdTo8CVNUkUyzVuPBGeXo_btyB_RgKStan7Yl-d-VdNa6lCTnbggM3hGSLmK96OAKVPdwF2z1tadbUIkj3aY5Iu9fQ3Gu6L6T_uxRZ4mQzIQUWmsBNKR1hQoHmhH5M7a2l_DWFkvCJT_ebFkIM6IyMcpXbJmSL6HC1HjK663LvrmPufg2I8pGs5wnO5n8UXoXhIHApW2j3uyon0QyObUMsjOQOL5cSPT9_T5GXIV7HVm00]--></g></svg>