<?xml version="1.0" encoding="us-ascii" standalone="no"?><svg xmlns="http://www.w3.org/2000/svg" xmlns:xlink="http://www.w3.org/1999/xlink" contentStyleType="text/css" height="336px" preserveAspectRatio="none" style="width:589px;height:336px;background:#FFFFFF;" version="1.1" viewBox="0 0 589 336" width="589.2px" zoomAndPan="magnify"><defs/><g><text fill="#000000" font-family="sans-serif" font-size="8.4" font-weight="bold" lengthAdjust="spacing" textLength="195.6" x="194.55" y="18.0645">US 6.3.1 Process View (Level 3) | MDBackoffice</text><rect fill="#FFFFFF" height="213.866" style="stroke:#181818;stroke-width:0.6;" width="6" x="146.4" y="78.0926"/><rect fill="#FFFFFF" height="176.3168" style="stroke:#181818;stroke-width:0.6;" width="6" x="271.2" y="96.8672"/><rect fill="#FFFFFF" height="70.2984" style="stroke:#181818;stroke-width:0.6;" width="6" x="491.1" y="184.1109"/><line style="stroke:#181818;stroke-width:0.3;stroke-dasharray:5.0,5.0;" x1="149.4" x2="149.4" y1="58.118" y2="302.7586"/><line style="stroke:#181818;stroke-width:0.3;stroke-dasharray:5.0,5.0;" x1="274.2" x2="274.2" y1="58.118" y2="302.7586"/><line style="stroke:#181818;stroke-width:0.3;stroke-dasharray:5.0,5.0;" x1="390.6" x2="390.6" y1="126.3398" y2="302.7586"/><line style="stroke:#181818;stroke-width:0.3;stroke-dasharray:5.0,5.0;" x1="493.8" x2="493.8" y1="58.118" y2="302.7586"/><rect fill="#E2E2F0" height="30.7453" rx="1.5" ry="1.5" style="stroke:#181818;stroke-width:0.3;" width="103.2" x="97.8" y="26.7727"/><text fill="#000000" font-family="sans-serif" font-size="8.4" lengthAdjust="spacing" textLength="32.4" x="133.2" y="40.0371">&#171;Route&#187;</text><text fill="#000000" font-family="sans-serif" font-size="8.4" lengthAdjust="spacing" textLength="92.4" x="104.4" y="51.2098">OperationRequestRoute</text><rect fill="#E2E2F0" height="30.7453" rx="1.5" ry="1.5" style="stroke:#181818;stroke-width:0.3;" width="103.2" x="97.8" y="302.1586"/><text fill="#000000" font-family="sans-serif" font-size="8.4" lengthAdjust="spacing" textLength="32.4" x="133.2" y="315.423">&#171;Route&#187;</text><text fill="#000000" font-family="sans-serif" font-size="8.4" lengthAdjust="spacing" textLength="92.4" x="104.4" y="326.5957">OperationRequestRoute</text><rect fill="#E2E2F0" height="30.7453" rx="1.5" ry="1.5" style="stroke:#181818;stroke-width:0.3;" width="117.6" x="215.4" y="26.7727"/><text fill="#000000" font-family="sans-serif" font-size="8.4" lengthAdjust="spacing" textLength="46.8" x="250.8" y="40.0371">&#171;Controller&#187;</text><text fill="#000000" font-family="sans-serif" font-size="8.4" lengthAdjust="spacing" textLength="106.8" x="222" y="51.2098">OperationRequestController</text><rect fill="#E2E2F0" height="30.7453" rx="1.5" ry="1.5" style="stroke:#181818;stroke-width:0.3;" width="117.6" x="215.4" y="302.1586"/><text fill="#000000" font-family="sans-serif" font-size="8.4" lengthAdjust="spacing" textLength="46.8" x="250.8" y="315.423">&#171;Controller&#187;</text><text fill="#000000" font-family="sans-serif" font-size="8.4" lengthAdjust="spacing" textLength="106.8" x="222" y="326.5957">OperationRequestController</text><rect fill="#E2E2F0" height="30.7453" rx="1.5" ry="1.5" style="stroke:#181818;stroke-width:0.3;" width="86.4" x="347.4" y="302.1586"/><text fill="#000000" font-family="sans-serif" font-size="8.4" lengthAdjust="spacing" textLength="27.6" x="376.8" y="315.423">&#171;DTO&#187;</text><text fill="#000000" font-family="sans-serif" font-size="8.4" lengthAdjust="spacing" textLength="75.6" x="354" y="326.5957">OpReqScheduleDto</text><rect fill="#E2E2F0" height="30.7453" rx="1.5" ry="1.5" style="stroke:#181818;stroke-width:0.3;" width="108.6" x="439.8" y="26.7727"/><text fill="#000000" font-family="sans-serif" font-size="8.4" lengthAdjust="spacing" textLength="37.8" x="475.2" y="40.0371">&#171;Service&#187;</text><text fill="#000000" font-family="sans-serif" font-size="8.4" lengthAdjust="spacing" textLength="97.8" x="446.4" y="51.2098">OperationRequestService</text><rect fill="#E2E2F0" height="30.7453" rx="1.5" ry="1.5" style="stroke:#181818;stroke-width:0.3;" width="108.6" x="439.8" y="302.1586"/><text fill="#000000" font-family="sans-serif" font-size="8.4" lengthAdjust="spacing" textLength="37.8" x="475.2" y="315.423">&#171;Service&#187;</text><text fill="#000000" font-family="sans-serif" font-size="8.4" lengthAdjust="spacing" textLength="97.8" x="446.4" y="326.5957">OperationRequestService</text><rect fill="#FFFFFF" height="213.866" style="stroke:#181818;stroke-width:0.6;" width="6" x="146.4" y="78.0926"/><rect fill="#FFFFFF" height="176.3168" style="stroke:#181818;stroke-width:0.6;" width="6" x="271.2" y="96.8672"/><rect fill="#FFFFFF" height="70.2984" style="stroke:#181818;stroke-width:0.6;" width="6" x="491.1" y="184.1109"/><ellipse cx="4.5" cy="77.6426" fill="none" rx="2.4" ry="2.4" style="stroke:#181818;stroke-width:0.8999999999999999;"/><polygon fill="#181818" points="139.2,75.6926,145.2,78.0926,139.2,80.4926,141.6,78.0926" style="stroke:#181818;stroke-width:0.6;"/><line style="stroke:#181818;stroke-width:0.6;" x1="7.2" x2="142.8" y1="78.0926" y2="78.0926"/><text fill="#000000" font-family="sans-serif" font-size="7.8" lengthAdjust="spacing" textLength="130.2" x="9" y="74.935">GET: Get-BetterScheduling(jsonData)</text><polygon fill="#181818" points="264,94.4672,270,96.8672,264,99.2672,266.4,96.8672" style="stroke:#181818;stroke-width:0.6;"/><line style="stroke:#181818;stroke-width:0.6;" x1="152.4" x2="267.6" y1="96.8672" y2="96.8672"/><text fill="#000000" font-family="sans-serif" font-size="7.8" lengthAdjust="spacing" textLength="107.4" x="156.6" y="93.7096">GetBetterScheduling(jsonData)</text><polygon fill="#181818" points="340.2,113.2418,346.2,115.6418,340.2,118.0418,342.6,115.6418" style="stroke:#181818;stroke-width:0.6;"/><line style="stroke:#181818;stroke-width:0.6;" x1="277.2" x2="343.8" y1="115.6418" y2="115.6418"/><text fill="#000000" font-family="sans-serif" font-size="7.8" lengthAdjust="spacing" textLength="55.8" x="281.4" y="112.4842">ToDto(jsonData)</text><rect fill="#E2E2F0" height="30.7453" rx="1.5" ry="1.5" style="stroke:#181818;stroke-width:0.3;" width="86.4" x="347.4" y="101.6672"/><text fill="#000000" font-family="sans-serif" font-size="8.4" lengthAdjust="spacing" textLength="27.6" x="376.8" y="114.9316">&#171;DTO&#187;</text><text fill="#000000" font-family="sans-serif" font-size="8.4" lengthAdjust="spacing" textLength="75.6" x="354" y="126.1043">OpReqScheduleDto</text><polygon fill="#181818" points="483.9,181.7109,489.9,184.1109,483.9,186.5109,486.3,184.1109" style="stroke:#181818;stroke-width:0.6;"/><line style="stroke:#181818;stroke-width:0.6;" x1="277.2" x2="487.5" y1="184.1109" y2="184.1109"/><text fill="#000000" font-family="sans-serif" font-size="7.8" lengthAdjust="spacing" textLength="74.4" x="281.4" y="149.8295">GetBetterScheduling(</text><text fill="#000000" font-family="sans-serif" font-size="7.8" lengthAdjust="spacing" textLength="108.6" x="281.4" y="160.2041">OpReqScheduleDto.roomCode,</text><text fill="#000000" font-family="sans-serif" font-size="7.8" lengthAdjust="spacing" textLength="99.6" x="281.4" y="170.5787">OpReqScheduleDto.opCode,</text><text fill="#000000" font-family="sans-serif" font-size="7.8" lengthAdjust="spacing" textLength="88.2" x="281.4" y="180.9533">OpReqScheduleDto.date)</text><polygon fill="#181818" points="573,207.4729,579,209.8729,573,212.2729,575.4,209.8729" style="stroke:#181818;stroke-width:0.6;"/><line style="stroke:#181818;stroke-width:0.6;" x1="497.1" x2="576.6" y1="209.8729" y2="209.8729"/><text fill="#000000" font-family="sans-serif" font-size="7.8" lengthAdjust="spacing" textLength="72" x="501.3" y="206.7152">GetBetterScheduling</text><path d="M392.4,191.9109 L392.4,218.3109 L487.8,218.3109 L487.8,197.9109 L481.8,191.9109 L392.4,191.9109 " fill="#FEFFDD" style="stroke:#181818;stroke-width:0.3;"/><path d="M481.8,191.9109 L481.8,197.9109 L487.8,197.9109 L481.8,191.9109 " fill="#FEFFDD" style="stroke:#181818;stroke-width:0.3;"/><text fill="#000000" font-family="sans-serif" font-size="7.8" lengthAdjust="spacing" textLength="82.8" x="396" y="203.3279">It will communicate with</text><text fill="#000000" font-family="sans-serif" font-size="7.8" lengthAdjust="spacing" textLength="73.2" x="396" y="213.7025">the Planning Module.</text><polygon fill="#181818" points="503.7,233.2348,497.7,235.6348,503.7,238.0348,501.3,235.6348" style="stroke:#181818;stroke-width:0.6;"/><ellipse cx="580.2" cy="235.1848" fill="none" rx="2.4" ry="2.4" style="stroke:#181818;stroke-width:0.8999999999999999;"/><line style="stroke:#181818;stroke-width:0.6;stroke-dasharray:2.0,2.0;" x1="500.1" x2="577.5" y1="235.6348" y2="235.6348"/><text fill="#000000" font-family="sans-serif" font-size="7.8" lengthAdjust="spacing" textLength="44.4" x="507.3" y="232.4771">InfoSchedule</text><polygon fill="#181818" points="283.8,252.0094,277.8,254.4094,283.8,256.8094,281.4,254.4094" style="stroke:#181818;stroke-width:0.6;"/><line style="stroke:#181818;stroke-width:0.6;stroke-dasharray:2.0,2.0;" x1="280.2" x2="493.5" y1="254.4094" y2="254.4094"/><text fill="#000000" font-family="sans-serif" font-size="7.8" lengthAdjust="spacing" textLength="44.4" x="287.4" y="251.2518">InfoSchedule</text><polygon fill="#181818" points="159,270.784,153,273.184,159,275.584,156.6,273.184" style="stroke:#181818;stroke-width:0.6;"/><line style="stroke:#181818;stroke-width:0.6;stroke-dasharray:2.0,2.0;" x1="155.4" x2="273.6" y1="273.184" y2="273.184"/><text fill="#000000" font-family="sans-serif" font-size="7.8" lengthAdjust="spacing" textLength="59.4" x="162.6" y="270.0264">Ok(InfoSchedule)</text><ellipse cx="4.5" cy="291.5086" fill="none" rx="2.4" ry="2.4" style="stroke:#181818;stroke-width:0.8999999999999999;"/><polygon fill="#181818" points="14.7,289.5586,8.7,291.9586,14.7,294.3586,12.3,291.9586" style="stroke:#181818;stroke-width:0.6;"/><line style="stroke:#181818;stroke-width:0.6;" x1="13.5" x2="148.8" y1="291.9586" y2="291.9586"/><text fill="#000000" font-family="sans-serif" font-size="7.8" lengthAdjust="spacing" textLength="16.2" x="15" y="288.801">Json</text><!--SRC=[VP9FRu904CNlV8g99sqAIMFIGsCy-2UDZHOBw4LxsC9Ojy8EXL4l_V1T4GK9k8UzpBpVl3UxB3b4Q2rSUBQwrXFC4_8nJM4fyGZjAHumX6u7_c0s6WX_HvkDzB5b6B58MFeo5egXrUivj6VizzSAx1WJmPAKWxzxJ3chj42auDWBRrmL3abnGc68IQswA6U8eVtkEVQq2XbvTgxMCjVVOh0FSSIKQUovC_xG7LMHYyb1PwaTczSAlJjsbeQn8hD_ZW4ly3hsz8Li3f0PatoiLD_jdvJKIB3e6C9dUH2CUNRGvopNd3mBP90xZ9Feohai0F9pWMZU9UV3WqPwfEDN87NzfrmD3jQgkauh8Og65E1ZJOtYfagWZHSEhb6AlKBf5AxCFdtMMxiHADAiBsAcI7TF68uo3C6dADehwPy67ILlrugt2FDGAAK1CAEJEQjXSiyqiz4JjQ5Ba2QJDmzPAmZmJkJhUvG-bhrhbq7drPKevJ-mefvv5RxfvpPAZUTFzmy0]--></g></svg>