<?xml version="1.0" encoding="us-ascii" standalone="no"?><svg xmlns="http://www.w3.org/2000/svg" xmlns:xlink="http://www.w3.org/1999/xlink" contentStyleType="text/css" height="856px" preserveAspectRatio="none" style="width:2727px;height:856px;background:#FFFFFF;" version="1.1" viewBox="0 0 2727 856" width="2727px" zoomAndPan="magnify"><defs/><g><text fill="#000000" font-family="sans-serif" font-size="14" font-weight="bold" lengthAdjust="spacing" textLength="290" x="1218.25" y="30.1074">US 6.3.1 Process View (Level 3) | Planning</text><line style="stroke:#181818;stroke-width:0.5;stroke-dasharray:5.0,5.0;" x1="45" x2="45" y1="78.2422" y2="819.0625"/><line style="stroke:#181818;stroke-width:0.5;stroke-dasharray:5.0,5.0;" x1="460.5" x2="460.5" y1="78.2422" y2="819.0625"/><line style="stroke:#181818;stroke-width:0.5;stroke-dasharray:5.0,5.0;" x1="652.5" x2="652.5" y1="78.2422" y2="819.0625"/><line style="stroke:#181818;stroke-width:0.5;stroke-dasharray:5.0,5.0;" x1="746.5" x2="746.5" y1="78.2422" y2="819.0625"/><line style="stroke:#181818;stroke-width:0.5;stroke-dasharray:5.0,5.0;" x1="849.5" x2="849.5" y1="78.2422" y2="819.0625"/><line style="stroke:#181818;stroke-width:0.5;stroke-dasharray:5.0,5.0;" x1="973.5" x2="973.5" y1="78.2422" y2="819.0625"/><line style="stroke:#181818;stroke-width:0.5;stroke-dasharray:5.0,5.0;" x1="1161.5" x2="1161.5" y1="78.2422" y2="819.0625"/><line style="stroke:#181818;stroke-width:0.5;stroke-dasharray:5.0,5.0;" x1="1323.5" x2="1323.5" y1="78.2422" y2="819.0625"/><line style="stroke:#181818;stroke-width:0.5;stroke-dasharray:5.0,5.0;" x1="1470.5" x2="1470.5" y1="78.2422" y2="819.0625"/><line style="stroke:#181818;stroke-width:0.5;stroke-dasharray:5.0,5.0;" x1="1641.5" x2="1641.5" y1="78.2422" y2="819.0625"/><line style="stroke:#181818;stroke-width:0.5;stroke-dasharray:5.0,5.0;" x1="1790.5" x2="1790.5" y1="78.2422" y2="819.0625"/><line style="stroke:#181818;stroke-width:0.5;stroke-dasharray:5.0,5.0;" x1="2007" x2="2007" y1="78.2422" y2="819.0625"/><line style="stroke:#181818;stroke-width:0.5;stroke-dasharray:5.0,5.0;" x1="2283" x2="2283" y1="78.2422" y2="819.0625"/><line style="stroke:#181818;stroke-width:0.5;stroke-dasharray:5.0,5.0;" x1="2547" x2="2547" y1="78.2422" y2="819.0625"/><rect fill="#E2E2F0" height="32.6211" rx="2.5" ry="2.5" style="stroke:#181818;stroke-width:0.5;" width="80" x="5" y="44.6211"/><text fill="#000000" font-family="sans-serif" font-size="14" lengthAdjust="spacing" textLength="66" x="12" y="66.7285">US 6.3.1/3</text><rect fill="#E2E2F0" height="32.6211" rx="2.5" ry="2.5" style="stroke:#181818;stroke-width:0.5;" width="80" x="5" y="818.0625"/><text fill="#000000" font-family="sans-serif" font-size="14" lengthAdjust="spacing" textLength="66" x="12" y="840.1699">US 6.3.1/3</text><rect fill="#E2E2F0" height="32.6211" rx="2.5" ry="2.5" style="stroke:#181818;stroke-width:0.5;" width="159" x="381.5" y="44.6211"/><text fill="#000000" font-family="sans-serif" font-size="14" lengthAdjust="spacing" textLength="145" x="388.5" y="66.7285">availability_operation/5</text><rect fill="#E2E2F0" height="32.6211" rx="2.5" ry="2.5" style="stroke:#181818;stroke-width:0.5;" width="159" x="381.5" y="818.0625"/><text fill="#000000" font-family="sans-serif" font-size="14" lengthAdjust="spacing" textLength="145" x="388.5" y="840.1699">availability_operation/5</text><rect fill="#E2E2F0" height="32.6211" rx="2.5" ry="2.5" style="stroke:#181818;stroke-width:0.5;" width="93" x="606.5" y="44.6211"/><text fill="#000000" font-family="sans-serif" font-size="14" lengthAdjust="spacing" textLength="79" x="613.5" y="66.7285">surgery_id/2</text><rect fill="#E2E2F0" height="32.6211" rx="2.5" ry="2.5" style="stroke:#181818;stroke-width:0.5;" width="93" x="606.5" y="818.0625"/><text fill="#000000" font-family="sans-serif" font-size="14" lengthAdjust="spacing" textLength="79" x="613.5" y="840.1699">surgery_id/2</text><rect fill="#E2E2F0" height="32.6211" rx="2.5" ry="2.5" style="stroke:#181818;stroke-width:0.5;" width="74" x="709.5" y="44.6211"/><text fill="#000000" font-family="sans-serif" font-size="14" lengthAdjust="spacing" textLength="60" x="716.5" y="66.7285">surgery/4</text><rect fill="#E2E2F0" height="32.6211" rx="2.5" ry="2.5" style="stroke:#181818;stroke-width:0.5;" width="74" x="709.5" y="818.0625"/><text fill="#000000" font-family="sans-serif" font-size="14" lengthAdjust="spacing" textLength="60" x="716.5" y="840.1699">surgery/4</text><rect fill="#E2E2F0" height="32.6211" rx="2.5" ry="2.5" style="stroke:#181818;stroke-width:0.5;" width="63" x="818.5" y="44.6211"/><text fill="#000000" font-family="sans-serif" font-size="14" lengthAdjust="spacing" textLength="49" x="825.5" y="66.7285">findall/3</text><rect fill="#E2E2F0" height="32.6211" rx="2.5" ry="2.5" style="stroke:#181818;stroke-width:0.5;" width="63" x="818.5" y="818.0625"/><text fill="#000000" font-family="sans-serif" font-size="14" lengthAdjust="spacing" textLength="49" x="825.5" y="840.1699">findall/3</text><rect fill="#E2E2F0" height="32.6211" rx="2.5" ry="2.5" style="stroke:#181818;stroke-width:0.5;" width="165" x="891.5" y="44.6211"/><text fill="#000000" font-family="sans-serif" font-size="14" lengthAdjust="spacing" textLength="151" x="898.5" y="66.7285">intersect_all_agendas/3</text><rect fill="#E2E2F0" height="32.6211" rx="2.5" ry="2.5" style="stroke:#181818;stroke-width:0.5;" width="165" x="891.5" y="818.0625"/><text fill="#000000" font-family="sans-serif" font-size="14" lengthAdjust="spacing" textLength="151" x="898.5" y="840.1699">intersect_all_agendas/3</text><rect fill="#E2E2F0" height="32.6211" rx="2.5" ry="2.5" style="stroke:#181818;stroke-width:0.5;" width="190" x="1066.5" y="44.6211"/><text fill="#000000" font-family="sans-serif" font-size="14" lengthAdjust="spacing" textLength="176" x="1073.5" y="66.7285">agenda_operation_room1/3</text><rect fill="#E2E2F0" height="32.6211" rx="2.5" ry="2.5" style="stroke:#181818;stroke-width:0.5;" width="190" x="1066.5" y="818.0625"/><text fill="#000000" font-family="sans-serif" font-size="14" lengthAdjust="spacing" textLength="176" x="1073.5" y="840.1699">agenda_operation_room1/3</text><rect fill="#E2E2F0" height="32.6211" rx="2.5" ry="2.5" style="stroke:#181818;stroke-width:0.5;" width="115" x="1266.5" y="44.6211"/><text fill="#000000" font-family="sans-serif" font-size="14" lengthAdjust="spacing" textLength="101" x="1273.5" y="66.7285">free_agenda0/2</text><rect fill="#E2E2F0" height="32.6211" rx="2.5" ry="2.5" style="stroke:#181818;stroke-width:0.5;" width="115" x="1266.5" y="818.0625"/><text fill="#000000" font-family="sans-serif" font-size="14" lengthAdjust="spacing" textLength="101" x="1273.5" y="840.1699">free_agenda0/2</text><rect fill="#E2E2F0" height="32.6211" rx="2.5" ry="2.5" style="stroke:#181818;stroke-width:0.5;" width="159" x="1391.5" y="44.6211"/><text fill="#000000" font-family="sans-serif" font-size="14" lengthAdjust="spacing" textLength="145" x="1398.5" y="66.7285">intersect_2_agendas/3</text><rect fill="#E2E2F0" height="32.6211" rx="2.5" ry="2.5" style="stroke:#181818;stroke-width:0.5;" width="159" x="1391.5" y="818.0625"/><text fill="#000000" font-family="sans-serif" font-size="14" lengthAdjust="spacing" textLength="145" x="1398.5" y="840.1699">intersect_2_agendas/3</text><rect fill="#E2E2F0" height="32.6211" rx="2.5" ry="2.5" style="stroke:#181818;stroke-width:0.5;" width="162" x="1560.5" y="44.6211"/><text fill="#000000" font-family="sans-serif" font-size="14" lengthAdjust="spacing" textLength="148" x="1567.5" y="66.7285">remove_unf_intervals/3</text><rect fill="#E2E2F0" height="32.6211" rx="2.5" ry="2.5" style="stroke:#181818;stroke-width:0.5;" width="162" x="1560.5" y="818.0625"/><text fill="#000000" font-family="sans-serif" font-size="14" lengthAdjust="spacing" textLength="148" x="1567.5" y="840.1699">remove_unf_intervals/3</text><rect fill="#E2E2F0" height="32.6211" rx="2.5" ry="2.5" style="stroke:#181818;stroke-width:0.5;" width="117" x="1732.5" y="44.6211"/><text fill="#000000" font-family="sans-serif" font-size="14" lengthAdjust="spacing" textLength="103" x="1739.5" y="66.7285">insert_agenda/3</text><rect fill="#E2E2F0" height="32.6211" rx="2.5" ry="2.5" style="stroke:#181818;stroke-width:0.5;" width="117" x="1732.5" y="818.0625"/><text fill="#000000" font-family="sans-serif" font-size="14" lengthAdjust="spacing" textLength="103" x="1739.5" y="840.1699">insert_agenda/3</text><rect fill="#E2E2F0" height="32.6211" rx="2.5" ry="2.5" style="stroke:#181818;stroke-width:0.5;" width="172" x="1921" y="44.6211"/><text fill="#000000" font-family="sans-serif" font-size="14" lengthAdjust="spacing" textLength="158" x="1928" y="66.7285">insert_agenda_doctors/3</text><rect fill="#E2E2F0" height="32.6211" rx="2.5" ry="2.5" style="stroke:#181818;stroke-width:0.5;" width="172" x="1921" y="818.0625"/><text fill="#000000" font-family="sans-serif" font-size="14" lengthAdjust="spacing" textLength="158" x="1928" y="840.1699">insert_agenda_doctors/3</text><rect fill="#E2E2F0" height="32.6211" rx="2.5" ry="2.5" style="stroke:#181818;stroke-width:0.5;" width="361" x="2103" y="44.6211"/><text fill="#000000" font-family="sans-serif" font-size="14" lengthAdjust="spacing" textLength="347" x="2110" y="66.7285">schedule_first_interval(TSurgery,[(Tin,_)|_],(Tin,TfinS))</text><rect fill="#E2E2F0" height="32.6211" rx="2.5" ry="2.5" style="stroke:#181818;stroke-width:0.5;" width="361" x="2103" y="818.0625"/><text fill="#000000" font-family="sans-serif" font-size="14" lengthAdjust="spacing" textLength="347" x="2110" y="840.1699">schedule_first_interval(TSurgery,[(Tin,_)|_],(Tin,TfinS))</text><rect fill="#E2E2F0" height="32.6211" rx="2.5" ry="2.5" style="stroke:#181818;stroke-width:0.5;" width="147" x="2474" y="44.6211"/><text fill="#000000" font-family="sans-serif" font-size="14" lengthAdjust="spacing" textLength="133" x="2481" y="66.7285">InsertAgendaDoctors</text><rect fill="#E2E2F0" height="32.6211" rx="2.5" ry="2.5" style="stroke:#181818;stroke-width:0.5;" width="147" x="2474" y="818.0625"/><text fill="#000000" font-family="sans-serif" font-size="14" lengthAdjust="spacing" textLength="133" x="2481" y="840.1699">InsertAgendaDoctors</text><ellipse cx="7.5" cy="93.4922" fill="none" rx="4" ry="4" style="stroke:#181818;stroke-width:1.5;"/><polygon fill="#181818" points="33,90.2422,43,94.2422,33,98.2422,37,94.2422" style="stroke:#181818;stroke-width:1.0;"/><line style="stroke:#181818;stroke-width:1.0;" x1="12" x2="39" y1="94.2422" y2="94.2422"/><polygon fill="#181818" points="449,121.5332,459,125.5332,449,129.5332,453,125.5332" style="stroke:#181818;stroke-width:1.0;"/><line style="stroke:#181818;stroke-width:1.0;" x1="45" x2="455" y1="125.5332" y2="125.5332"/><text fill="#000000" font-family="sans-serif" font-size="13" lengthAdjust="spacing" textLength="392" x="52" y="120.2705">availability_operation(OpCode, Room, Day, LPossibilities, LDoctors)</text><polygon fill="#181818" points="641,152.8242,651,156.8242,641,160.8242,645,156.8242" style="stroke:#181818;stroke-width:1.0;"/><line style="stroke:#181818;stroke-width:1.0;" x1="461" x2="647" y1="156.8242" y2="156.8242"/><text fill="#000000" font-family="sans-serif" font-size="13" lengthAdjust="spacing" textLength="168" x="468" y="151.5615">surgery_id(OpCode, OpType)</text><polygon fill="#181818" points="734.5,184.1152,744.5,188.1152,734.5,192.1152,738.5,188.1152" style="stroke:#181818;stroke-width:1.0;"/><line style="stroke:#181818;stroke-width:1.0;" x1="461" x2="740.5" y1="188.1152" y2="188.1152"/><text fill="#000000" font-family="sans-serif" font-size="13" lengthAdjust="spacing" textLength="186" x="468" y="182.8525">surgery(OpType, _, TSurgery, _)</text><polygon fill="#181818" points="838,215.4063,848,219.4063,838,223.4063,842,219.4063" style="stroke:#181818;stroke-width:1.0;"/><line style="stroke:#181818;stroke-width:1.0;" x1="461" x2="844" y1="219.4063" y2="219.4063"/><text fill="#000000" font-family="sans-serif" font-size="13" lengthAdjust="spacing" textLength="365" x="468" y="214.1436">findall(Doctor, assignment_surgery(OpCode, Doctor), LDoctors)</text><polygon fill="#181818" points="962,246.6973,972,250.6973,962,254.6973,966,250.6973" style="stroke:#181818;stroke-width:1.0;"/><line style="stroke:#181818;stroke-width:1.0;" x1="461" x2="968" y1="250.6973" y2="250.6973"/><text fill="#000000" font-family="sans-serif" font-size="13" lengthAdjust="spacing" textLength="241" x="468" y="245.4346">intersect_all_agendas(LDoctors, Day, LA)</text><polygon fill="#181818" points="1149.5,277.9883,1159.5,281.9883,1149.5,285.9883,1153.5,281.9883" style="stroke:#181818;stroke-width:1.0;"/><line style="stroke:#181818;stroke-width:1.0;" x1="461" x2="1155.5" y1="281.9883" y2="281.9883"/><text fill="#000000" font-family="sans-serif" font-size="13" lengthAdjust="spacing" textLength="277" x="468" y="276.7256">agenda_operation_room1(Room, Day, LAgenda)</text><polygon fill="#181818" points="1312,309.2793,1322,313.2793,1312,317.2793,1316,313.2793" style="stroke:#181818;stroke-width:1.0;"/><line style="stroke:#181818;stroke-width:1.0;" x1="461" x2="1318" y1="313.2793" y2="313.2793"/><text fill="#000000" font-family="sans-serif" font-size="13" lengthAdjust="spacing" textLength="209" x="468" y="308.0166">free_agenda0(LAgenda, LFAgRoom)</text><polygon fill="#181818" points="1459,340.5703,1469,344.5703,1459,348.5703,1463,344.5703" style="stroke:#181818;stroke-width:1.0;"/><line style="stroke:#181818;stroke-width:1.0;" x1="461" x2="1465" y1="344.5703" y2="344.5703"/><text fill="#000000" font-family="sans-serif" font-size="13" lengthAdjust="spacing" textLength="341" x="468" y="339.3076">intersect_2_agendas(LA, LFAgRoom, LIntAgDoctorsRoom)</text><polygon fill="#181818" points="1629.5,371.8613,1639.5,375.8613,1629.5,379.8613,1633.5,375.8613" style="stroke:#181818;stroke-width:1.0;"/><line style="stroke:#181818;stroke-width:1.0;" x1="461" x2="1635.5" y1="375.8613" y2="375.8613"/><text fill="#000000" font-family="sans-serif" font-size="13" lengthAdjust="spacing" textLength="388" x="468" y="370.5986">remove_unf_intervals(TSurgery, LIntAgDoctorsRoom, LPossibilities)</text><line style="stroke:#181818;stroke-width:1.0;" x1="1641.5" x2="1683.5" y1="407.1523" y2="407.1523"/><line style="stroke:#181818;stroke-width:1.0;" x1="1683.5" x2="1683.5" y1="407.1523" y2="420.1523"/><line style="stroke:#181818;stroke-width:1.0;" x1="1642.5" x2="1683.5" y1="420.1523" y2="420.1523"/><polygon fill="#181818" points="1652.5,416.1523,1642.5,420.1523,1652.5,424.1523,1648.5,420.1523" style="stroke:#181818;stroke-width:1.0;"/><text fill="#000000" font-family="sans-serif" font-size="13" lengthAdjust="spacing" textLength="134" x="1648.5" y="401.8896">iterate through intervals</text><polygon fill="#181818" points="472,447.4434,462,451.4434,472,455.4434,468,451.4434" style="stroke:#181818;stroke-width:1.0;"/><line style="stroke:#181818;stroke-width:1.0;stroke-dasharray:2.0,2.0;" x1="466" x2="1640.5" y1="451.4434" y2="451.4434"/><text fill="#000000" font-family="sans-serif" font-size="13" lengthAdjust="spacing" textLength="215" x="478" y="446.1807">return LPossibilities (filtered intervals)</text><polygon fill="#181818" points="56,478.7344,46,482.7344,56,486.7344,52,482.7344" style="stroke:#181818;stroke-width:1.0;"/><line style="stroke:#181818;stroke-width:1.0;stroke-dasharray:2.0,2.0;" x1="50" x2="460" y1="482.7344" y2="482.7344"/><text fill="#000000" font-family="sans-serif" font-size="13" lengthAdjust="spacing" textLength="215" x="62" y="477.4717">return LPossibilities (filtered intervals)</text><polygon fill="#181818" points="2271.5,492.7344,2281.5,496.7344,2271.5,500.7344,2275.5,496.7344" style="stroke:#181818;stroke-width:1.0;"/><line style="stroke:#181818;stroke-width:1.0;" x1="45" x2="2277.5" y1="496.7344" y2="496.7344"/><polygon fill="#181818" points="56,506.7344,46,510.7344,56,514.7344,52,510.7344" style="stroke:#181818;stroke-width:1.0;"/><line style="stroke:#181818;stroke-width:1.0;stroke-dasharray:2.0,2.0;" x1="50" x2="2282.5" y1="510.7344" y2="510.7344"/><polygon fill="#181818" points="1779,538.0254,1789,542.0254,1779,546.0254,1783,542.0254" style="stroke:#181818;stroke-width:1.0;"/><line style="stroke:#181818;stroke-width:1.0;" x1="45" x2="1785" y1="542.0254" y2="542.0254"/><text fill="#000000" font-family="sans-serif" font-size="13" lengthAdjust="spacing" textLength="326" x="52" y="536.7627">insert_agenda((TinS, TfinS, OpCode), Agenda, Agenda1)</text><line style="stroke:#181818;stroke-width:1.0;" x1="1791" x2="1833" y1="573.3164" y2="573.3164"/><line style="stroke:#181818;stroke-width:1.0;" x1="1833" x2="1833" y1="573.3164" y2="586.3164"/><line style="stroke:#181818;stroke-width:1.0;" x1="1792" x2="1833" y1="586.3164" y2="586.3164"/><polygon fill="#181818" points="1802,582.3164,1792,586.3164,1802,590.3164,1798,586.3164" style="stroke:#181818;stroke-width:1.0;"/><text fill="#000000" font-family="sans-serif" font-size="13" lengthAdjust="spacing" textLength="202" x="1798" y="568.0537">insert operation into room's agenda</text><polygon fill="#181818" points="56,613.6074,46,617.6074,56,621.6074,52,617.6074" style="stroke:#181818;stroke-width:1.0;"/><line style="stroke:#181818;stroke-width:1.0;stroke-dasharray:2.0,2.0;" x1="50" x2="1790" y1="617.6074" y2="617.6074"/><text fill="#000000" font-family="sans-serif" font-size="13" lengthAdjust="spacing" textLength="225" x="62" y="612.3447">return updated room agenda (Agenda1)</text><polygon fill="#181818" points="2535.5,644.8984,2545.5,648.8984,2535.5,652.8984,2539.5,648.8984" style="stroke:#181818;stroke-width:1.0;"/><line style="stroke:#181818;stroke-width:1.0;" x1="45" x2="2541.5" y1="648.8984" y2="648.8984"/><text fill="#000000" font-family="sans-serif" font-size="13" lengthAdjust="spacing" textLength="356" x="52" y="643.6357">insert_agenda_doctors((TinS, TfinS, OpCode), Day, LDoctors)</text><line style="stroke:#181818;stroke-width:1.0;" x1="2547.5" x2="2589.5" y1="680.1895" y2="680.1895"/><line style="stroke:#181818;stroke-width:1.0;" x1="2589.5" x2="2589.5" y1="680.1895" y2="693.1895"/><line style="stroke:#181818;stroke-width:1.0;" x1="2548.5" x2="2589.5" y1="693.1895" y2="693.1895"/><polygon fill="#181818" points="2558.5,689.1895,2548.5,693.1895,2558.5,697.1895,2554.5,693.1895" style="stroke:#181818;stroke-width:1.0;"/><text fill="#000000" font-family="sans-serif" font-size="13" lengthAdjust="spacing" textLength="166" x="2554.5" y="674.9268">update each doctor's agenda</text><polygon fill="#181818" points="1802,720.4805,1792,724.4805,1802,728.4805,1798,724.4805" style="stroke:#181818;stroke-width:1.0;"/><line style="stroke:#181818;stroke-width:1.0;" x1="1796" x2="2546.5" y1="724.4805" y2="724.4805"/><text fill="#000000" font-family="sans-serif" font-size="13" lengthAdjust="spacing" textLength="195" x="1808" y="719.2178">call insert_agenda for each doctor</text><polygon fill="#181818" points="2535.5,751.7715,2545.5,755.7715,2535.5,759.7715,2539.5,755.7715" style="stroke:#181818;stroke-width:1.0;"/><line style="stroke:#181818;stroke-width:1.0;stroke-dasharray:2.0,2.0;" x1="1791" x2="2541.5" y1="755.7715" y2="755.7715"/><text fill="#000000" font-family="sans-serif" font-size="13" lengthAdjust="spacing" textLength="187" x="1798" y="750.5088">return updated agenda for doctor</text><polygon fill="#181818" points="56,783.0625,46,787.0625,56,791.0625,52,787.0625" style="stroke:#181818;stroke-width:1.0;"/><line style="stroke:#181818;stroke-width:1.0;stroke-dasharray:2.0,2.0;" x1="50" x2="2546.5" y1="787.0625" y2="787.0625"/><text fill="#000000" font-family="sans-serif" font-size="13" lengthAdjust="spacing" textLength="202" x="62" y="781.7998">confirm insertion in doctor agendas</text><ellipse cx="7.5" cy="800.3125" fill="none" rx="4" ry="4" style="stroke:#181818;stroke-width:1.5;"/><polygon fill="#181818" points="24.5,797.0625,14.5,801.0625,24.5,805.0625,20.5,801.0625" style="stroke:#181818;stroke-width:1.0;"/><line style="stroke:#181818;stroke-width:1.0;stroke-dasharray:2.0,2.0;" x1="22.5" x2="44" y1="801.0625" y2="801.0625"/><!--SRC=[fLLTQzim57tFhxZaPGwupTfkVGXZ45OAXK9Ba-ob3A7PiYDm92Cf6O7- -EdBikmetSQU8altd7llqRcAegeXCDsiuFRovl8AdWKlY9JmdP9Va3sI0sdWPWPlyDnWnYYhfvD9YuMY1MqnKproVZC5B66p6XxZ0wOD_aaRgew8jqHWHJcRVxR1o-ZmgHq2vLxKH1mHBUVNDdZbDXxkad7pJt7GCAIYhCHDuokyrrztl51So64OPOe8IGg5T332DT4ewK4FtTdIRO-Qj9jzUqXmlkiKUT5hXnfL9GZnMJxw5k_rLYgqh-pw3tMPP4Ei83j-86ZFAcHf3hZfm2_sQCEgSJP9XFA9GXwpbwujYaQb4xP3tKQmJlF9Ax_uQdoYdQCNGmyi86sOxAdznakIMpLpkCF771wVkPJKHb8YzRVFC9iCEKsMO9u5zCOAf4_j-jYITt01bRdG750EQt-eFrBGo6SBy1RCt4QknP6qPZl25EgPNJ4kPFP-F-DxNq3IlLd7qKcsJ97r3jNo9wsSnRAxq6JBmR-wuyZUcSTeyFsoDbn_qvE9Y_kwxhjQzanwfO7BsZVgo5DDTcPVG6eailusJ_Z6LjFyWMr4JPNHZO3Q2hwljn3uOqJ2zOAelM2ZF91LjD5uKlOyfyBPOO9_el2ZDvN5bfJxXg2A2gc26BqMhzcQiXpDtj2Ft2xNsiYhsMng6BvSNFmNXQyYVbhCTKVFIMO0AprfbVrn4w8detEJ-xtI3SKavqWXcDfemS4u-uFqZXynM563flksr9TQMeIFXwnFVjf7cFlawtYkBJTUOUed2SQpYLo9G72n1PSctTePdWKK-jaObWiL5p7XgKJ9IaQQHLm9cb2E5xpWJ1jfvmjnL-Lndid-WHZhwV39Rm00]--></g></svg>