<?xml version="1.0" encoding="UTF-8" standalone="no"?><svg xmlns="http://www.w3.org/2000/svg" xmlns:xlink="http://www.w3.org/1999/xlink" contentStyleType="text/css" height="551px" preserveAspectRatio="none" style="width:639px;height:551px;background:#FFFFFF;" version="1.1" viewBox="0 0 639 551" width="639px" zoomAndPan="magnify"><defs/><g><text fill="#000000" font-family="sans-serif" font-size="14" font-weight="bold" lengthAdjust="spacing" textLength="227" x="205.25" y="29.5332">US 6.2.6 - Process View [Level 2]</text><rect fill="#FFFFFF" height="314.25" style="stroke:#181818;stroke-width:1.0;" width="10" x="35" y="138.7656"/><rect fill="#FFFFFF" height="305.25" style="stroke:#181818;stroke-width:1.0;" width="10" x="35" y="138.7656"/><rect fill="#FFFFFF" height="117.4688" style="stroke:#181818;stroke-width:1.0;" width="10" x="276" y="169.9219"/><rect fill="#FFFFFF" height="117.4688" style="stroke:#181818;stroke-width:1.0;" width="10" x="276" y="326.5469"/><rect fill="#FFFFFF" height="39.1563" style="stroke:#181818;stroke-width:1.0;" width="10" x="552" y="209.0781"/><rect fill="#FFFFFF" height="39.1563" style="stroke:#181818;stroke-width:1.0;" width="10" x="552" y="365.7031"/><line style="stroke:#181818;stroke-width:0.5;stroke-dasharray:5.0,5.0;" x1="35" x2="35" y1="128.7656" y2="462.0156"/><line style="stroke:#181818;stroke-width:0.5;stroke-dasharray:5.0,5.0;" x1="280.5" x2="280.5" y1="128.7656" y2="462.0156"/><line style="stroke:#181818;stroke-width:0.5;stroke-dasharray:5.0,5.0;" x1="556.5" x2="556.5" y1="128.7656" y2="462.0156"/><text fill="#000000" font-family="sans-serif" font-size="20" lengthAdjust="spacing" textLength="54" x="5" y="124.3711">Admin</text><ellipse cx="35" cy="52.1094" fill="#E2E2F0" rx="8" ry="8" style="stroke:#181818;stroke-width:0.5;"/><path d="M35,60.1094 L35,87.1094 M22,68.1094 L48,68.1094 M35,87.1094 L22,102.1094 M35,87.1094 L48,102.1094 " fill="none" style="stroke:#181818;stroke-width:0.5;"/><text fill="#000000" font-family="sans-serif" font-size="20" lengthAdjust="spacing" textLength="54" x="5" y="481.7773">Admin</text><ellipse cx="35" cy="494.6719" fill="#E2E2F0" rx="8" ry="8" style="stroke:#181818;stroke-width:0.5;"/><path d="M35,502.6719 L35,529.6719 M22,510.6719 L48,510.6719 M35,529.6719 L22,544.6719 M35,529.6719 L48,544.6719 " fill="none" style="stroke:#181818;stroke-width:0.5;"/><rect fill="#E2E2F0" height="64.3125" rx="2.5" ry="2.5" style="stroke:#181818;stroke-width:0.5;" width="153" x="204.5" y="63.4531"/><text fill="#000000" font-family="sans-serif" font-size="20" font-style="italic" lengthAdjust="spacing" textLength="139" x="211.5" y="91.2148">«Container C4»</text><text fill="#000000" font-family="sans-serif" font-size="20" lengthAdjust="spacing" textLength="107" x="227.5" y="116.3711">Visualization</text><rect fill="#E2E2F0" height="64.3125" rx="2.5" ry="2.5" style="stroke:#181818;stroke-width:0.5;" width="153" x="204.5" y="461.0156"/><text fill="#000000" font-family="sans-serif" font-size="20" font-style="italic" lengthAdjust="spacing" textLength="139" x="211.5" y="488.7773">«Container C4»</text><text fill="#000000" font-family="sans-serif" font-size="20" lengthAdjust="spacing" textLength="107" x="227.5" y="513.9336">Visualization</text><rect fill="#E2E2F0" height="64.3125" rx="2.5" ry="2.5" style="stroke:#181818;stroke-width:0.5;" width="153" x="480.5" y="63.4531"/><text fill="#000000" font-family="sans-serif" font-size="20" font-style="italic" lengthAdjust="spacing" textLength="139" x="487.5" y="91.2148">«Container C4»</text><text fill="#000000" font-family="sans-serif" font-size="20" lengthAdjust="spacing" textLength="123" x="495.5" y="116.3711">MDBackoffice</text><rect fill="#E2E2F0" height="64.3125" rx="2.5" ry="2.5" style="stroke:#181818;stroke-width:0.5;" width="153" x="480.5" y="461.0156"/><text fill="#000000" font-family="sans-serif" font-size="20" font-style="italic" lengthAdjust="spacing" textLength="139" x="487.5" y="488.7773">«Container C4»</text><text fill="#000000" font-family="sans-serif" font-size="20" lengthAdjust="spacing" textLength="123" x="495.5" y="513.9336">MDBackoffice</text><rect fill="#FFFFFF" height="314.25" style="stroke:#181818;stroke-width:1.0;" width="10" x="35" y="138.7656"/><rect fill="#FFFFFF" height="305.25" style="stroke:#181818;stroke-width:1.0;" width="10" x="35" y="138.7656"/><rect fill="#FFFFFF" height="117.4688" style="stroke:#181818;stroke-width:1.0;" width="10" x="276" y="169.9219"/><rect fill="#FFFFFF" height="117.4688" style="stroke:#181818;stroke-width:1.0;" width="10" x="276" y="326.5469"/><rect fill="#FFFFFF" height="39.1563" style="stroke:#181818;stroke-width:1.0;" width="10" x="552" y="209.0781"/><rect fill="#FFFFFF" height="39.1563" style="stroke:#181818;stroke-width:1.0;" width="10" x="552" y="365.7031"/><polygon fill="#181818" points="264,165.9219,274,169.9219,264,173.9219,268,169.9219" style="stroke:#181818;stroke-width:1.0;"/><line style="stroke:#181818;stroke-width:1.0;" x1="45" x2="270" y1="169.9219" y2="169.9219"/><text fill="#000000" font-family="sans-serif" font-size="20" font-weight="bold" lengthAdjust="spacing" textLength="11" x="52" y="163.5273">1</text><text fill="#000000" font-family="sans-serif" font-size="20" lengthAdjust="spacing" textLength="197" x="67" y="163.5273">remove operation type</text><polygon fill="#181818" points="540,205.0781,550,209.0781,540,213.0781,544,209.0781" style="stroke:#181818;stroke-width:1.0;"/><line style="stroke:#181818;stroke-width:1.0;" x1="286" x2="546" y1="209.0781" y2="209.0781"/><text fill="#000000" font-family="sans-serif" font-size="20" font-weight="bold" lengthAdjust="spacing" textLength="11" x="293" y="202.6836">2</text><text fill="#000000" font-family="sans-serif" font-size="20" lengthAdjust="spacing" textLength="121" x="308" y="202.6836">GetAllActive()</text><polygon fill="#181818" points="297,244.2344,287,248.2344,297,252.2344,293,248.2344" style="stroke:#181818;stroke-width:1.0;"/><line style="stroke:#181818;stroke-width:1.0;stroke-dasharray:2.0,2.0;" x1="291" x2="556" y1="248.2344" y2="248.2344"/><text fill="#000000" font-family="sans-serif" font-size="20" font-weight="bold" lengthAdjust="spacing" textLength="11" x="303" y="241.8398">3</text><text fill="#000000" font-family="sans-serif" font-size="20" lengthAdjust="spacing" textLength="136" x="318" y="241.8398">operationTypes</text><polygon fill="#181818" points="56,283.3906,46,287.3906,56,291.3906,52,287.3906" style="stroke:#181818;stroke-width:1.0;"/><line style="stroke:#181818;stroke-width:1.0;stroke-dasharray:2.0,2.0;" x1="50" x2="280" y1="287.3906" y2="287.3906"/><text fill="#000000" font-family="sans-serif" font-size="20" font-weight="bold" lengthAdjust="spacing" textLength="11" x="62" y="280.9961">4</text><text fill="#000000" font-family="sans-serif" font-size="20" lengthAdjust="spacing" textLength="184" x="77" y="280.9961">select operation type</text><polygon fill="#181818" points="264,322.5469,274,326.5469,264,330.5469,268,326.5469" style="stroke:#181818;stroke-width:1.0;"/><line style="stroke:#181818;stroke-width:1.0;" x1="45" x2="270" y1="326.5469" y2="326.5469"/><text fill="#000000" font-family="sans-serif" font-size="20" font-weight="bold" lengthAdjust="spacing" textLength="11" x="52" y="320.1523">5</text><text fill="#000000" font-family="sans-serif" font-size="20" lengthAdjust="spacing" textLength="194" x="67" y="320.1523">selects operation type</text><polygon fill="#181818" points="540,361.7031,550,365.7031,540,369.7031,544,365.7031" style="stroke:#181818;stroke-width:1.0;"/><line style="stroke:#181818;stroke-width:1.0;" x1="286" x2="546" y1="365.7031" y2="365.7031"/><text fill="#000000" font-family="sans-serif" font-size="20" font-weight="bold" lengthAdjust="spacing" textLength="11" x="293" y="359.3086">6</text><text fill="#000000" font-family="sans-serif" font-size="20" lengthAdjust="spacing" textLength="232" x="308" y="359.3086">RemoveOperationType(id)</text><polygon fill="#181818" points="297,400.8594,287,404.8594,297,408.8594,293,404.8594" style="stroke:#181818;stroke-width:1.0;"/><line style="stroke:#181818;stroke-width:1.0;stroke-dasharray:2.0,2.0;" x1="291" x2="556" y1="404.8594" y2="404.8594"/><text fill="#000000" font-family="sans-serif" font-size="20" font-weight="bold" lengthAdjust="spacing" textLength="11" x="303" y="398.4648">7</text><text fill="#000000" font-family="sans-serif" font-size="20" lengthAdjust="spacing" textLength="152" x="318" y="398.4648">success/insucess</text><polygon fill="#181818" points="51,440.0156,41,444.0156,51,448.0156,47,444.0156" style="stroke:#181818;stroke-width:1.0;"/><line style="stroke:#181818;stroke-width:1.0;stroke-dasharray:2.0,2.0;" x1="45" x2="280" y1="444.0156" y2="444.0156"/><text fill="#000000" font-family="sans-serif" font-size="20" font-weight="bold" lengthAdjust="spacing" textLength="11" x="57" y="437.6211">8</text><text fill="#000000" font-family="sans-serif" font-size="20" lengthAdjust="spacing" textLength="152" x="72" y="437.6211">success/insucess</text><!--SRC=[ZP51ImCn48Nl-HN3dkgXLHRfOIc5jKKHB8ghXI8UOdOAGxF9ainMxAytYSXkHQg7m8HvRzutZD-HQQMJZRPgXpNKk9MTvcjhkA83GduX11DhXEovWkaadqnX30_EAlGUreJly7A7UzIGlsP2o8wjwPetTA5MR1sKTKC6f8TokH8XYKbHAmr3jYRVIKq7oMHD5YNhsmfciqN8bcJGmU9oFZ_sh9PNKktiTaiAawNQ_6A9qRINZ2dqw1CUZESfgG27ZTqZs1PTWW3-QB7N1v4GKHaC8QU06-HIwpBsSNJM2qDJY4Wo_XfTz2EVmaGlQZpMfg516saAyAXHyK-CWIU1zEJV3lzVyf3nc5Qz7sADg3wvW-zKFF8vcL25ugyjJiWZp-0R3_49]--></g></svg>