<?xml version="1.0" encoding="us-ascii" standalone="no"?><svg xmlns="http://www.w3.org/2000/svg" xmlns:xlink="http://www.w3.org/1999/xlink" contentStyleType="text/css" height="1628px" preserveAspectRatio="none" style="width:2612px;height:1628px;background:#FFFFFF;" version="1.1" viewBox="0 0 2612 1628" width="2612px" zoomAndPan="magnify"><defs/><g><text fill="#000000" font-family="sans-serif" font-size="14" font-weight="bold" lengthAdjust="spacing" textLength="226" x="1194.5" y="30.1074">US 5.1.20 Process View (Level 3)</text><rect fill="#FFFFFF" height="671.8008" style="stroke:#181818;stroke-width:1.0;" width="10" x="186" y="130.1543"/><rect fill="#FFFFFF" height="689.4316" style="stroke:#181818;stroke-width:1.0;" width="10" x="186" y="858.2461"/><rect fill="#FFFFFF" height="609.2188" style="stroke:#181818;stroke-width:1.0;" width="10" x="411" y="161.4453"/><rect fill="#FFFFFF" height="28" style="stroke:#181818;stroke-width:1.0;" width="10" x="416" y="704.373"/><rect fill="#FFFFFF" height="552.6367" style="stroke:#181818;stroke-width:1.0;" width="10" x="411" y="889.5371"/><rect fill="#FFFFFF" height="189.4063" style="stroke:#181818;stroke-width:1.0;" width="10" x="601" y="192.7363"/><rect fill="#FFFFFF" height="31.291" style="stroke:#181818;stroke-width:1.0;" width="10" x="772.5" y="224.0273"/><rect fill="#FFFFFF" height="189.4063" style="stroke:#181818;stroke-width:1.0;" width="10" x="1059.5" y="413.4336"/><rect fill="#FFFFFF" height="31.291" style="stroke:#181818;stroke-width:1.0;" width="10" x="1174" y="444.7246"/><rect fill="#FFFFFF" height="427.8125" style="stroke:#181818;stroke-width:1.0;" width="10" x="1856.5" y="983.0703"/><rect fill="#FFFFFF" height="104.873" style="stroke:#181818;stroke-width:1.0;" width="10" x="1861.5" y="1022.3613"/><rect fill="#FFFFFF" height="31.291" style="stroke:#181818;stroke-width:1.0;" width="10" x="2147.5" y="1058.6523"/><rect fill="#FFFFFF" height="31.291" style="stroke:#181818;stroke-width:1.0;" width="10" x="2147.5" y="1348.3008"/><rect fill="#FFFFFF" height="78.5332" style="stroke:#181818;stroke-width:1.0;" width="10" x="2304.5" y="1200.5254"/><rect fill="none" height="81.5332" style="stroke:#000000;stroke-width:1.5;" width="497" x="520.5" y="270.3184"/><rect fill="none" height="81.5332" style="stroke:#000000;stroke-width:1.5;" width="326" x="1007.5" y="491.0156"/><rect fill="none" height="81.5332" style="stroke:#000000;stroke-width:1.5;" width="363" x="2243" y="1236.4766"/><rect fill="none" height="98.5039" style="stroke:#000000;stroke-width:1.5;" width="223.5" x="11" y="1457.1738"/><line style="stroke:#181818;stroke-width:0.5;stroke-dasharray:5.0,5.0;" x1="190.5" x2="190.5" y1="96.8633" y2="1572.6777"/><line style="stroke:#181818;stroke-width:0.5;stroke-dasharray:5.0,5.0;" x1="415.5" x2="415.5" y1="96.8633" y2="1572.6777"/><line style="stroke:#181818;stroke-width:0.5;stroke-dasharray:5.0,5.0;" x1="605.5" x2="605.5" y1="96.8633" y2="1572.6777"/><line style="stroke:#181818;stroke-width:0.5;stroke-dasharray:5.0,5.0;" x1="777.5" x2="777.5" y1="96.8633" y2="1572.6777"/><line style="stroke:#181818;stroke-width:0.5;stroke-dasharray:5.0,5.0;" x1="940.5" x2="940.5" y1="330.7305" y2="1572.6777"/><line style="stroke:#181818;stroke-width:0.5;stroke-dasharray:5.0,5.0;" x1="1064.5" x2="1064.5" y1="96.8633" y2="1572.6777"/><line style="stroke:#181818;stroke-width:0.5;stroke-dasharray:5.0,5.0;" x1="1178.5" x2="1178.5" y1="96.8633" y2="1572.6777"/><line style="stroke:#181818;stroke-width:0.5;stroke-dasharray:5.0,5.0;" x1="1284.5" x2="1284.5" y1="551.4277" y2="1572.6777"/><line style="stroke:#181818;stroke-width:0.5;stroke-dasharray:5.0,5.0;" x1="1475.5" x2="1475.5" y1="651.9609" y2="1572.6777"/><line style="stroke:#181818;stroke-width:0.5;stroke-dasharray:5.0,5.0;" x1="1699.5" x2="1699.5" y1="938.6582" y2="1572.6777"/><line style="stroke:#181818;stroke-width:0.5;stroke-dasharray:5.0,5.0;" x1="1861.5" x2="1861.5" y1="96.8633" y2="1572.6777"/><line style="stroke:#181818;stroke-width:0.5;stroke-dasharray:5.0,5.0;" x1="2152" x2="2152" y1="96.8633" y2="1572.6777"/><line style="stroke:#181818;stroke-width:0.5;stroke-dasharray:5.0,5.0;" x1="2309" x2="2309" y1="1208.3555" y2="1572.6777"/><line style="stroke:#181818;stroke-width:0.5;stroke-dasharray:5.0,5.0;" x1="2556.5" x2="2556.5" y1="1296.8887" y2="1572.6777"/><rect fill="#E2E2F0" height="51.2422" rx="2.5" ry="2.5" style="stroke:#181818;stroke-width:0.5;" width="67" x="157.5" y="44.6211"/><text fill="#000000" font-family="sans-serif" font-size="14" lengthAdjust="spacing" textLength="49" x="166.5" y="66.7285">&#171;route&#187;</text><text fill="#000000" font-family="sans-serif" font-size="14" lengthAdjust="spacing" textLength="49" x="168.5" y="85.3496">Routing</text><rect fill="#E2E2F0" height="51.2422" rx="2.5" ry="2.5" style="stroke:#181818;stroke-width:0.5;" width="67" x="157.5" y="1571.6777"/><text fill="#000000" font-family="sans-serif" font-size="14" lengthAdjust="spacing" textLength="49" x="166.5" y="1593.7852">&#171;route&#187;</text><text fill="#000000" font-family="sans-serif" font-size="14" lengthAdjust="spacing" textLength="49" x="168.5" y="1612.4063">Routing</text><rect fill="#E2E2F0" height="51.2422" rx="2.5" ry="2.5" style="stroke:#181818;stroke-width:0.5;" width="175" x="328.5" y="44.6211"/><text fill="#000000" font-family="sans-serif" font-size="14" lengthAdjust="spacing" textLength="75" x="378.5" y="66.7285">&#171;controller&#187;</text><text fill="#000000" font-family="sans-serif" font-size="14" lengthAdjust="spacing" textLength="157" x="339.5" y="85.3496">OperationTypeController</text><rect fill="#E2E2F0" height="51.2422" rx="2.5" ry="2.5" style="stroke:#181818;stroke-width:0.5;" width="175" x="328.5" y="1571.6777"/><text fill="#000000" font-family="sans-serif" font-size="14" lengthAdjust="spacing" textLength="75" x="378.5" y="1593.7852">&#171;controller&#187;</text><text fill="#000000" font-family="sans-serif" font-size="14" lengthAdjust="spacing" textLength="157" x="339.5" y="1612.4063">OperationTypeController</text><rect fill="#E2E2F0" height="51.2422" rx="2.5" ry="2.5" style="stroke:#181818;stroke-width:0.5;" width="151" x="530.5" y="44.6211"/><text fill="#000000" font-family="sans-serif" font-size="14" lengthAdjust="spacing" textLength="61" x="575.5" y="66.7285">&#171;service&#187;</text><text fill="#000000" font-family="sans-serif" font-size="14" lengthAdjust="spacing" textLength="133" x="541.5" y="85.3496">SpecializationService</text><rect fill="#E2E2F0" height="51.2422" rx="2.5" ry="2.5" style="stroke:#181818;stroke-width:0.5;" width="151" x="530.5" y="1571.6777"/><text fill="#000000" font-family="sans-serif" font-size="14" lengthAdjust="spacing" textLength="61" x="575.5" y="1593.7852">&#171;service&#187;</text><text fill="#000000" font-family="sans-serif" font-size="14" lengthAdjust="spacing" textLength="133" x="541.5" y="1612.4063">SpecializationService</text><rect fill="#E2E2F0" height="51.2422" rx="2.5" ry="2.5" style="stroke:#181818;stroke-width:0.5;" width="172" x="691.5" y="44.6211"/><text fill="#000000" font-family="sans-serif" font-size="14" lengthAdjust="spacing" textLength="79" x="738" y="66.7285">&#171;repository&#187;</text><text fill="#000000" font-family="sans-serif" font-size="14" lengthAdjust="spacing" textLength="154" x="702.5" y="85.3496">SpecializationRepository</text><rect fill="#E2E2F0" height="51.2422" rx="2.5" ry="2.5" style="stroke:#181818;stroke-width:0.5;" width="172" x="691.5" y="1571.6777"/><text fill="#000000" font-family="sans-serif" font-size="14" lengthAdjust="spacing" textLength="79" x="738" y="1593.7852">&#171;repository&#187;</text><text fill="#000000" font-family="sans-serif" font-size="14" lengthAdjust="spacing" textLength="154" x="702.5" y="1612.4063">SpecializationRepository</text><rect fill="#E2E2F0" height="51.2422" rx="2.5" ry="2.5" style="stroke:#181818;stroke-width:0.5;" width="134" x="873.5" y="1571.6777"/><text fill="#000000" font-family="sans-serif" font-size="14" lengthAdjust="spacing" textLength="36" x="922.5" y="1593.7852">&#171;dto&#187;</text><text fill="#000000" font-family="sans-serif" font-size="14" lengthAdjust="spacing" textLength="116" x="884.5" y="1612.4063">SpecializationDTO</text><rect fill="#E2E2F0" height="51.2422" rx="2.5" ry="2.5" style="stroke:#181818;stroke-width:0.5;" width="94" x="1017.5" y="44.6211"/><text fill="#000000" font-family="sans-serif" font-size="14" lengthAdjust="spacing" textLength="61" x="1034" y="66.7285">&#171;service&#187;</text><text fill="#000000" font-family="sans-serif" font-size="14" lengthAdjust="spacing" textLength="76" x="1028.5" y="85.3496">RoleService</text><rect fill="#E2E2F0" height="51.2422" rx="2.5" ry="2.5" style="stroke:#181818;stroke-width:0.5;" width="94" x="1017.5" y="1571.6777"/><text fill="#000000" font-family="sans-serif" font-size="14" lengthAdjust="spacing" textLength="61" x="1034" y="1593.7852">&#171;service&#187;</text><text fill="#000000" font-family="sans-serif" font-size="14" lengthAdjust="spacing" textLength="76" x="1028.5" y="1612.4063">RoleService</text><rect fill="#E2E2F0" height="51.2422" rx="2.5" ry="2.5" style="stroke:#181818;stroke-width:0.5;" width="115" x="1121.5" y="44.6211"/><text fill="#000000" font-family="sans-serif" font-size="14" lengthAdjust="spacing" textLength="79" x="1139.5" y="66.7285">&#171;repository&#187;</text><text fill="#000000" font-family="sans-serif" font-size="14" lengthAdjust="spacing" textLength="97" x="1132.5" y="85.3496">RoleRepository</text><rect fill="#E2E2F0" height="51.2422" rx="2.5" ry="2.5" style="stroke:#181818;stroke-width:0.5;" width="115" x="1121.5" y="1571.6777"/><text fill="#000000" font-family="sans-serif" font-size="14" lengthAdjust="spacing" textLength="79" x="1139.5" y="1593.7852">&#171;repository&#187;</text><text fill="#000000" font-family="sans-serif" font-size="14" lengthAdjust="spacing" textLength="97" x="1132.5" y="1612.4063">RoleRepository</text><rect fill="#E2E2F0" height="51.2422" rx="2.5" ry="2.5" style="stroke:#181818;stroke-width:0.5;" width="77" x="1246.5" y="1571.6777"/><text fill="#000000" font-family="sans-serif" font-size="14" lengthAdjust="spacing" textLength="36" x="1267" y="1593.7852">&#171;dto&#187;</text><text fill="#000000" font-family="sans-serif" font-size="14" lengthAdjust="spacing" textLength="59" x="1257.5" y="1612.4063">RoleDTO</text><rect fill="#E2E2F0" height="51.2422" rx="2.5" ry="2.5" style="stroke:#181818;stroke-width:0.5;" width="285" x="1333.5" y="1571.6777"/><text fill="#000000" font-family="sans-serif" font-size="14" lengthAdjust="spacing" textLength="36" x="1458" y="1593.7852">&#171;dto&#187;</text><text fill="#000000" font-family="sans-serif" font-size="14" lengthAdjust="spacing" textLength="263" x="1344.5" y="1612.4063">StaffSpecializationAndRoleResponseDTO</text><rect fill="#E2E2F0" height="51.2422" rx="2.5" ry="2.5" style="stroke:#181818;stroke-width:0.5;" width="143" x="1628.5" y="1571.6777"/><text fill="#000000" font-family="sans-serif" font-size="14" lengthAdjust="spacing" textLength="36" x="1682" y="1593.7852">&#171;dto&#187;</text><text fill="#000000" font-family="sans-serif" font-size="14" lengthAdjust="spacing" textLength="125" x="1639.5" y="1612.4063">OperationTypeDTO</text><rect fill="#E2E2F0" height="51.2422" rx="2.5" ry="2.5" style="stroke:#181818;stroke-width:0.5;" width="160" x="1781.5" y="44.6211"/><text fill="#000000" font-family="sans-serif" font-size="14" lengthAdjust="spacing" textLength="61" x="1831" y="66.7285">&#171;service&#187;</text><text fill="#000000" font-family="sans-serif" font-size="14" lengthAdjust="spacing" textLength="142" x="1792.5" y="85.3496">OperationTypeService</text><rect fill="#E2E2F0" height="51.2422" rx="2.5" ry="2.5" style="stroke:#181818;stroke-width:0.5;" width="160" x="1781.5" y="1571.6777"/><text fill="#000000" font-family="sans-serif" font-size="14" lengthAdjust="spacing" textLength="61" x="1831" y="1593.7852">&#171;service&#187;</text><text fill="#000000" font-family="sans-serif" font-size="14" lengthAdjust="spacing" textLength="142" x="1792.5" y="1612.4063">OperationTypeService</text><rect fill="#E2E2F0" height="51.2422" rx="2.5" ry="2.5" style="stroke:#181818;stroke-width:0.5;" width="181" x="2062" y="44.6211"/><text fill="#000000" font-family="sans-serif" font-size="14" lengthAdjust="spacing" textLength="79" x="2113" y="66.7285">&#171;repository&#187;</text><text fill="#000000" font-family="sans-serif" font-size="14" lengthAdjust="spacing" textLength="163" x="2073" y="85.3496">OperationTypeRepository</text><rect fill="#E2E2F0" height="51.2422" rx="2.5" ry="2.5" style="stroke:#181818;stroke-width:0.5;" width="181" x="2062" y="1571.6777"/><text fill="#000000" font-family="sans-serif" font-size="14" lengthAdjust="spacing" textLength="79" x="2113" y="1593.7852">&#171;repository&#187;</text><text fill="#000000" font-family="sans-serif" font-size="14" lengthAdjust="spacing" textLength="163" x="2073" y="1612.4063">OperationTypeRepository</text><rect fill="#E2E2F0" height="51.2422" rx="2.5" ry="2.5" style="stroke:#181818;stroke-width:0.5;" width="113" x="2253" y="1571.6777"/><text fill="#000000" font-family="sans-serif" font-size="14" lengthAdjust="spacing" textLength="62" x="2278.5" y="1593.7852">&#171;domain&#187;</text><text fill="#000000" font-family="sans-serif" font-size="14" lengthAdjust="spacing" textLength="95" x="2264" y="1612.4063">OperationType</text><rect fill="#E2E2F0" height="51.2422" rx="2.5" ry="2.5" style="stroke:#181818;stroke-width:0.5;" width="76" x="2518.5" y="1571.6777"/><text fill="#000000" font-family="sans-serif" font-size="14" lengthAdjust="spacing" textLength="62" x="2525.5" y="1593.7852">&#171;domain&#187;</text><text fill="#000000" font-family="sans-serif" font-size="14" lengthAdjust="spacing" textLength="40" x="2538.5" y="1612.4063">Phase</text><rect fill="#FFFFFF" height="671.8008" style="stroke:#181818;stroke-width:1.0;" width="10" x="186" y="130.1543"/><rect fill="#FFFFFF" height="689.4316" style="stroke:#181818;stroke-width:1.0;" width="10" x="186" y="858.2461"/><rect fill="#FFFFFF" height="609.2188" style="stroke:#181818;stroke-width:1.0;" width="10" x="411" y="161.4453"/><rect fill="#FFFFFF" height="28" style="stroke:#181818;stroke-width:1.0;" width="10" x="416" y="704.373"/><rect fill="#FFFFFF" height="552.6367" style="stroke:#181818;stroke-width:1.0;" width="10" x="411" y="889.5371"/><rect fill="#FFFFFF" height="189.4063" style="stroke:#181818;stroke-width:1.0;" width="10" x="601" y="192.7363"/><rect fill="#FFFFFF" height="31.291" style="stroke:#181818;stroke-width:1.0;" width="10" x="772.5" y="224.0273"/><rect fill="#FFFFFF" height="189.4063" style="stroke:#181818;stroke-width:1.0;" width="10" x="1059.5" y="413.4336"/><rect fill="#FFFFFF" height="31.291" style="stroke:#181818;stroke-width:1.0;" width="10" x="1174" y="444.7246"/><rect fill="#FFFFFF" height="427.8125" style="stroke:#181818;stroke-width:1.0;" width="10" x="1856.5" y="983.0703"/><rect fill="#FFFFFF" height="104.873" style="stroke:#181818;stroke-width:1.0;" width="10" x="1861.5" y="1022.3613"/><rect fill="#FFFFFF" height="31.291" style="stroke:#181818;stroke-width:1.0;" width="10" x="2147.5" y="1058.6523"/><rect fill="#FFFFFF" height="31.291" style="stroke:#181818;stroke-width:1.0;" width="10" x="2147.5" y="1348.3008"/><rect fill="#FFFFFF" height="78.5332" style="stroke:#181818;stroke-width:1.0;" width="10" x="2304.5" y="1200.5254"/><ellipse cx="7.5" cy="129.4043" fill="none" rx="4" ry="4" style="stroke:#181818;stroke-width:1.5;"/><polygon fill="#181818" points="174,126.1543,184,130.1543,174,134.1543,178,130.1543" style="stroke:#181818;stroke-width:1.0;"/><line style="stroke:#181818;stroke-width:1.0;" x1="12" x2="180" y1="130.1543" y2="130.1543"/><text fill="#000000" font-family="sans-serif" font-size="13" font-weight="bold" lengthAdjust="spacing" textLength="7" x="15" y="124.8916">1</text><text fill="#000000" font-family="sans-serif" font-size="13" lengthAdjust="spacing" textLength="148" x="26" y="124.8916">GET() /api/operationtypes</text><polygon fill="#181818" points="399,157.4453,409,161.4453,399,165.4453,403,161.4453" style="stroke:#181818;stroke-width:1.0;"/><line style="stroke:#181818;stroke-width:1.0;" x1="196" x2="405" y1="161.4453" y2="161.4453"/><text fill="#000000" font-family="sans-serif" font-size="13" font-weight="bold" lengthAdjust="spacing" textLength="7" x="203" y="156.1826">2</text><text fill="#000000" font-family="sans-serif" font-size="13" lengthAdjust="spacing" textLength="185" x="214" y="156.1826">getAllSpecializationsAndRoles()</text><polygon fill="#181818" points="589,188.7363,599,192.7363,589,196.7363,593,192.7363" style="stroke:#181818;stroke-width:1.0;"/><line style="stroke:#181818;stroke-width:1.0;" x1="421" x2="595" y1="192.7363" y2="192.7363"/><text fill="#000000" font-family="sans-serif" font-size="13" font-weight="bold" lengthAdjust="spacing" textLength="7" x="428" y="187.4736">3</text><text fill="#000000" font-family="sans-serif" font-size="13" lengthAdjust="spacing" textLength="150" x="439" y="187.4736">getAllSpecializationsList()</text><polygon fill="#181818" points="760.5,220.0273,770.5,224.0273,760.5,228.0273,764.5,224.0273" style="stroke:#181818;stroke-width:1.0;"/><line style="stroke:#181818;stroke-width:1.0;" x1="611" x2="766.5" y1="224.0273" y2="224.0273"/><text fill="#000000" font-family="sans-serif" font-size="13" font-weight="bold" lengthAdjust="spacing" textLength="7" x="618" y="218.7646">4</text><text fill="#000000" font-family="sans-serif" font-size="13" lengthAdjust="spacing" textLength="43" x="629" y="218.7646">findAll()</text><polygon fill="#181818" points="622,251.3184,612,255.3184,622,259.3184,618,255.3184" style="stroke:#181818;stroke-width:1.0;"/><line style="stroke:#181818;stroke-width:1.0;stroke-dasharray:2.0,2.0;" x1="616" x2="776.5" y1="255.3184" y2="255.3184"/><text fill="#000000" font-family="sans-serif" font-size="13" font-weight="bold" lengthAdjust="spacing" textLength="7" x="628" y="250.0557">5</text><text fill="#000000" font-family="sans-serif" font-size="13" lengthAdjust="spacing" textLength="107" x="639" y="250.0557">specializationsList</text><path d="M520.5,270.3184 L593.5,270.3184 L593.5,279.6094 L583.5,289.6094 L520.5,289.6094 L520.5,270.3184 " fill="#EEEEEE" style="stroke:#000000;stroke-width:1.5;"/><rect fill="none" height="81.5332" style="stroke:#000000;stroke-width:1.5;" width="497" x="520.5" y="270.3184"/><text fill="#000000" font-family="sans-serif" font-size="13" font-weight="bold" lengthAdjust="spacing" textLength="28" x="535.5" y="285.3467">loop</text><text fill="#000000" font-family="sans-serif" font-size="11" font-weight="bold" lengthAdjust="spacing" textLength="185" x="608.5" y="284.1885">[for each specialization in the list]</text><polygon fill="#181818" points="861.5,308.9004,871.5,312.9004,861.5,316.9004,865.5,312.9004" style="stroke:#181818;stroke-width:1.0;"/><line style="stroke:#181818;stroke-width:1.0;" x1="611" x2="867.5" y1="312.9004" y2="312.9004"/><text fill="#000000" font-family="sans-serif" font-size="13" font-weight="bold" lengthAdjust="spacing" textLength="7" x="618" y="307.6377">6</text><text fill="#000000" font-family="sans-serif" font-size="13" lengthAdjust="spacing" textLength="124" x="629" y="307.6377">toDTO(specialization)</text><rect fill="#E2E2F0" height="51.2422" rx="2.5" ry="2.5" style="stroke:#181818;stroke-width:0.5;" width="134" x="873.5" y="289.6094"/><text fill="#000000" font-family="sans-serif" font-size="14" lengthAdjust="spacing" textLength="36" x="922.5" y="311.7168">&#171;dto&#187;</text><text fill="#000000" font-family="sans-serif" font-size="14" lengthAdjust="spacing" textLength="116" x="884.5" y="330.3379">SpecializationDTO</text><polygon fill="#181818" points="432,378.1426,422,382.1426,432,386.1426,428,382.1426" style="stroke:#181818;stroke-width:1.0;"/><line style="stroke:#181818;stroke-width:1.0;stroke-dasharray:2.0,2.0;" x1="426" x2="605" y1="382.1426" y2="382.1426"/><text fill="#000000" font-family="sans-serif" font-size="13" font-weight="bold" lengthAdjust="spacing" textLength="7" x="438" y="376.8799">7</text><text fill="#000000" font-family="sans-serif" font-size="13" lengthAdjust="spacing" textLength="126" x="449" y="376.8799">specializationListDTO</text><polygon fill="#181818" points="1047.5,409.4336,1057.5,413.4336,1047.5,417.4336,1051.5,413.4336" style="stroke:#181818;stroke-width:1.0;"/><line style="stroke:#181818;stroke-width:1.0;" x1="421" x2="1053.5" y1="413.4336" y2="413.4336"/><text fill="#000000" font-family="sans-serif" font-size="13" font-weight="bold" lengthAdjust="spacing" textLength="7" x="428" y="408.1709">8</text><text fill="#000000" font-family="sans-serif" font-size="13" lengthAdjust="spacing" textLength="95" x="439" y="408.1709">getAllRolesList()</text><polygon fill="#181818" points="1162,440.7246,1172,444.7246,1162,448.7246,1166,444.7246" style="stroke:#181818;stroke-width:1.0;"/><line style="stroke:#181818;stroke-width:1.0;" x1="1069.5" x2="1168" y1="444.7246" y2="444.7246"/><text fill="#000000" font-family="sans-serif" font-size="13" font-weight="bold" lengthAdjust="spacing" textLength="7" x="1076.5" y="439.4619">9</text><text fill="#000000" font-family="sans-serif" font-size="13" lengthAdjust="spacing" textLength="43" x="1087.5" y="439.4619">findAll()</text><polygon fill="#181818" points="1080.5,472.0156,1070.5,476.0156,1080.5,480.0156,1076.5,476.0156" style="stroke:#181818;stroke-width:1.0;"/><line style="stroke:#181818;stroke-width:1.0;stroke-dasharray:2.0,2.0;" x1="1074.5" x2="1178" y1="476.0156" y2="476.0156"/><text fill="#000000" font-family="sans-serif" font-size="13" font-weight="bold" lengthAdjust="spacing" textLength="14" x="1086.5" y="470.7529">10</text><text fill="#000000" font-family="sans-serif" font-size="13" lengthAdjust="spacing" textLength="49" x="1104.5" y="470.7529">rolesList</text><path d="M1007.5,491.0156 L1080.5,491.0156 L1080.5,500.3066 L1070.5,510.3066 L1007.5,510.3066 L1007.5,491.0156 " fill="#EEEEEE" style="stroke:#000000;stroke-width:1.5;"/><rect fill="none" height="81.5332" style="stroke:#000000;stroke-width:1.5;" width="326" x="1007.5" y="491.0156"/><text fill="#000000" font-family="sans-serif" font-size="13" font-weight="bold" lengthAdjust="spacing" textLength="28" x="1022.5" y="506.0439">loop</text><text fill="#000000" font-family="sans-serif" font-size="11" font-weight="bold" lengthAdjust="spacing" textLength="132" x="1095.5" y="504.8857">[for each role in the list]</text><polygon fill="#181818" points="1234.5,529.5977,1244.5,533.5977,1234.5,537.5977,1238.5,533.5977" style="stroke:#181818;stroke-width:1.0;"/><line style="stroke:#181818;stroke-width:1.0;" x1="1069.5" x2="1240.5" y1="533.5977" y2="533.5977"/><text fill="#000000" font-family="sans-serif" font-size="13" font-weight="bold" lengthAdjust="spacing" textLength="14" x="1076.5" y="528.335">11</text><text fill="#000000" font-family="sans-serif" font-size="13" lengthAdjust="spacing" textLength="66" x="1094.5" y="528.335">toDTO(role)</text><rect fill="#E2E2F0" height="51.2422" rx="2.5" ry="2.5" style="stroke:#181818;stroke-width:0.5;" width="77" x="1246.5" y="510.3066"/><text fill="#000000" font-family="sans-serif" font-size="14" lengthAdjust="spacing" textLength="36" x="1267" y="532.4141">&#171;dto&#187;</text><text fill="#000000" font-family="sans-serif" font-size="14" lengthAdjust="spacing" textLength="59" x="1257.5" y="551.0352">RoleDTO</text><polygon fill="#181818" points="432,598.8398,422,602.8398,432,606.8398,428,602.8398" style="stroke:#181818;stroke-width:1.0;"/><line style="stroke:#181818;stroke-width:1.0;stroke-dasharray:2.0,2.0;" x1="426" x2="1063.5" y1="602.8398" y2="602.8398"/><text fill="#000000" font-family="sans-serif" font-size="13" font-weight="bold" lengthAdjust="spacing" textLength="14" x="438" y="597.5771">12</text><text fill="#000000" font-family="sans-serif" font-size="13" lengthAdjust="spacing" textLength="68" x="456" y="597.5771">roleListDTO</text><polygon fill="#181818" points="1321.5,630.1309,1331.5,634.1309,1321.5,638.1309,1325.5,634.1309" style="stroke:#181818;stroke-width:1.0;"/><line style="stroke:#181818;stroke-width:1.0;" x1="421" x2="1327.5" y1="634.1309" y2="634.1309"/><text fill="#000000" font-family="sans-serif" font-size="13" font-weight="bold" lengthAdjust="spacing" textLength="14" x="428" y="628.8682">13</text><text fill="#000000" font-family="sans-serif" font-size="13" lengthAdjust="spacing" textLength="247" x="446" y="628.8682">toDTO(specializationListDTO, roleListDTO)</text><rect fill="#E2E2F0" height="51.2422" rx="2.5" ry="2.5" style="stroke:#181818;stroke-width:0.5;" width="285" x="1333.5" y="610.8398"/><text fill="#000000" font-family="sans-serif" font-size="14" lengthAdjust="spacing" textLength="36" x="1458" y="632.9473">&#171;dto&#187;</text><text fill="#000000" font-family="sans-serif" font-size="14" lengthAdjust="spacing" textLength="263" x="1344.5" y="651.5684">StaffSpecializationAndRoleResponseDTO</text><line style="stroke:#181818;stroke-width:1.0;" x1="426" x2="468" y1="696.373" y2="696.373"/><line style="stroke:#181818;stroke-width:1.0;" x1="468" x2="468" y1="696.373" y2="709.373"/><line style="stroke:#181818;stroke-width:1.0;" x1="427" x2="468" y1="709.373" y2="709.373"/><polygon fill="#181818" points="437,705.373,427,709.373,437,713.373,433,709.373" style="stroke:#181818;stroke-width:1.0;"/><text fill="#000000" font-family="sans-serif" font-size="13" font-weight="bold" lengthAdjust="spacing" textLength="14" x="433" y="691.1104">14</text><text fill="#000000" font-family="sans-serif" font-size="13" lengthAdjust="spacing" textLength="111" x="451" y="691.1104">json(responseDTO)</text><polygon fill="#181818" points="207,766.6641,197,770.6641,207,774.6641,203,770.6641" style="stroke:#181818;stroke-width:1.0;"/><line style="stroke:#181818;stroke-width:1.0;stroke-dasharray:2.0,2.0;" x1="201" x2="415" y1="770.6641" y2="770.6641"/><text fill="#000000" font-family="sans-serif" font-size="13" font-weight="bold" lengthAdjust="spacing" textLength="14" x="213" y="765.4014">15</text><text fill="#000000" font-family="sans-serif" font-size="13" lengthAdjust="spacing" textLength="24" x="231" y="765.4014">json</text><ellipse cx="7.5" cy="801.2051" fill="none" rx="4" ry="4" style="stroke:#181818;stroke-width:1.5;"/><polygon fill="#181818" points="24.5,797.9551,14.5,801.9551,24.5,805.9551,20.5,801.9551" style="stroke:#181818;stroke-width:1.0;"/><line style="stroke:#181818;stroke-width:1.0;stroke-dasharray:2.0,2.0;" x1="22.5" x2="190" y1="801.9551" y2="801.9551"/><text fill="#000000" font-family="sans-serif" font-size="13" font-weight="bold" lengthAdjust="spacing" textLength="14" x="25" y="796.6924">16</text><text fill="#000000" font-family="sans-serif" font-size="13" lengthAdjust="spacing" textLength="51" x="43" y="796.6924">OK(json)</text><ellipse cx="7.5" cy="857.4961" fill="none" rx="4" ry="4" style="stroke:#181818;stroke-width:1.5;"/><polygon fill="#181818" points="174,854.2461,184,858.2461,174,862.2461,178,858.2461" style="stroke:#181818;stroke-width:1.0;"/><line style="stroke:#181818;stroke-width:1.0;" x1="12" x2="180" y1="858.2461" y2="858.2461"/><text fill="#000000" font-family="sans-serif" font-size="13" font-weight="bold" lengthAdjust="spacing" textLength="14" x="15" y="852.9834">17</text><text fill="#000000" font-family="sans-serif" font-size="13" lengthAdjust="spacing" textLength="67" x="33" y="852.9834">POST(json)</text><polygon fill="#181818" points="399,885.5371,409,889.5371,399,893.5371,403,889.5371" style="stroke:#181818;stroke-width:1.0;"/><line style="stroke:#181818;stroke-width:1.0;" x1="196" x2="405" y1="889.5371" y2="889.5371"/><text fill="#000000" font-family="sans-serif" font-size="13" font-weight="bold" lengthAdjust="spacing" textLength="14" x="203" y="884.2744">18</text><text fill="#000000" font-family="sans-serif" font-size="13" lengthAdjust="spacing" textLength="159" x="221" y="884.2744">registerOperationType(json)</text><polygon fill="#181818" points="1616.5,916.8281,1626.5,920.8281,1616.5,924.8281,1620.5,920.8281" style="stroke:#181818;stroke-width:1.0;"/><line style="stroke:#181818;stroke-width:1.0;" x1="421" x2="1622.5" y1="920.8281" y2="920.8281"/><text fill="#000000" font-family="sans-serif" font-size="13" font-weight="bold" lengthAdjust="spacing" textLength="14" x="428" y="915.5654">19</text><text fill="#000000" font-family="sans-serif" font-size="13" lengthAdjust="spacing" textLength="153" x="446" y="915.5654">toDTO(operationTypeData)</text><rect fill="#E2E2F0" height="51.2422" rx="2.5" ry="2.5" style="stroke:#181818;stroke-width:0.5;" width="143" x="1628.5" y="897.5371"/><text fill="#000000" font-family="sans-serif" font-size="14" lengthAdjust="spacing" textLength="36" x="1682" y="919.6445">&#171;dto&#187;</text><text fill="#000000" font-family="sans-serif" font-size="14" lengthAdjust="spacing" textLength="125" x="1639.5" y="938.2656">OperationTypeDTO</text><polygon fill="#181818" points="1844.5,979.0703,1854.5,983.0703,1844.5,987.0703,1848.5,983.0703" style="stroke:#181818;stroke-width:1.0;"/><line style="stroke:#181818;stroke-width:1.0;" x1="421" x2="1850.5" y1="983.0703" y2="983.0703"/><text fill="#000000" font-family="sans-serif" font-size="13" font-weight="bold" lengthAdjust="spacing" textLength="14" x="428" y="977.8076">20</text><text fill="#000000" font-family="sans-serif" font-size="13" lengthAdjust="spacing" textLength="242" x="446" y="977.8076">registerOperationType(operationTypeDTO)</text><line style="stroke:#181818;stroke-width:1.0;" x1="1866.5" x2="1913.5" y1="1009.3613" y2="1009.3613"/><line style="stroke:#181818;stroke-width:1.0;" x1="1913.5" x2="1913.5" y1="1009.3613" y2="1022.3613"/><line style="stroke:#181818;stroke-width:1.0;" x1="1872.5" x2="1913.5" y1="1022.3613" y2="1022.3613"/><polygon fill="#181818" points="1882.5,1018.3613,1872.5,1022.3613,1882.5,1026.3613,1878.5,1022.3613" style="stroke:#181818;stroke-width:1.0;"/><text fill="#000000" font-family="sans-serif" font-size="13" font-weight="bold" lengthAdjust="spacing" textLength="14" x="1878.5" y="1004.0986">21</text><text fill="#000000" font-family="sans-serif" font-size="13" lengthAdjust="spacing" textLength="249" x="1896.5" y="1004.0986">checkIfOperationExists(operationTypeDTO)</text><polygon fill="#181818" points="2135.5,1054.6523,2145.5,1058.6523,2135.5,1062.6523,2139.5,1058.6523" style="stroke:#181818;stroke-width:1.0;"/><line style="stroke:#181818;stroke-width:1.0;" x1="1871.5" x2="2141.5" y1="1058.6523" y2="1058.6523"/><text fill="#000000" font-family="sans-serif" font-size="13" font-weight="bold" lengthAdjust="spacing" textLength="14" x="1878.5" y="1053.3896">22</text><text fill="#000000" font-family="sans-serif" font-size="13" lengthAdjust="spacing" textLength="196" x="1896.5" y="1053.3896">findByName(OperationTypeName)</text><polygon fill="#181818" points="1882.5,1085.9434,1872.5,1089.9434,1882.5,1093.9434,1878.5,1089.9434" style="stroke:#181818;stroke-width:1.0;"/><line style="stroke:#181818;stroke-width:1.0;stroke-dasharray:2.0,2.0;" x1="1876.5" x2="2151.5" y1="1089.9434" y2="1089.9434"/><text fill="#000000" font-family="sans-serif" font-size="13" font-weight="bold" lengthAdjust="spacing" textLength="14" x="1888.5" y="1084.6807">23</text><text fill="#000000" font-family="sans-serif" font-size="13" lengthAdjust="spacing" textLength="33" x="1906.5" y="1084.6807">return</text><line style="stroke:#181818;stroke-width:1.0;stroke-dasharray:2.0,2.0;" x1="1871.5" x2="1913.5" y1="1126.2344" y2="1126.2344"/><line style="stroke:#181818;stroke-width:1.0;stroke-dasharray:2.0,2.0;" x1="1913.5" x2="1913.5" y1="1126.2344" y2="1139.2344"/><line style="stroke:#181818;stroke-width:1.0;stroke-dasharray:2.0,2.0;" x1="1866.5" x2="1913.5" y1="1139.2344" y2="1139.2344"/><polygon fill="#181818" points="1876.5,1135.2344,1866.5,1139.2344,1876.5,1143.2344,1872.5,1139.2344" style="stroke:#181818;stroke-width:1.0;"/><text fill="#000000" font-family="sans-serif" font-size="13" font-weight="bold" lengthAdjust="spacing" textLength="14" x="1878.5" y="1120.9717">24</text><text fill="#000000" font-family="sans-serif" font-size="13" lengthAdjust="spacing" textLength="27" x="1896.5" y="1120.9717">false</text><polygon fill="#181818" points="2241,1186.5254,2251,1190.5254,2241,1194.5254,2245,1190.5254" style="stroke:#181818;stroke-width:1.0;"/><line style="stroke:#181818;stroke-width:1.0;" x1="1866.5" x2="2247" y1="1190.5254" y2="1190.5254"/><text fill="#000000" font-family="sans-serif" font-size="13" font-weight="bold" lengthAdjust="spacing" textLength="14" x="1873.5" y="1185.2627">25</text><text fill="#000000" font-family="sans-serif" font-size="13" lengthAdjust="spacing" textLength="199" x="1891.5" y="1185.2627">OperationType(operationTypeDTO)</text><rect fill="#E2E2F0" height="51.2422" rx="2.5" ry="2.5" style="stroke:#181818;stroke-width:0.5;" width="113" x="2253" y="1167.2344"/><text fill="#000000" font-family="sans-serif" font-size="14" lengthAdjust="spacing" textLength="62" x="2278.5" y="1189.3418">&#171;domain&#187;</text><text fill="#000000" font-family="sans-serif" font-size="14" lengthAdjust="spacing" textLength="95" x="2264" y="1207.9629">OperationType</text><path d="M2243,1236.4766 L2316,1236.4766 L2316,1245.7676 L2306,1255.7676 L2243,1255.7676 L2243,1236.4766 " fill="#EEEEEE" style="stroke:#000000;stroke-width:1.5;"/><rect fill="none" height="81.5332" style="stroke:#000000;stroke-width:1.5;" width="363" x="2243" y="1236.4766"/><text fill="#000000" font-family="sans-serif" font-size="13" font-weight="bold" lengthAdjust="spacing" textLength="28" x="2258" y="1251.5049">loop</text><text fill="#000000" font-family="sans-serif" font-size="11" font-weight="bold" lengthAdjust="spacing" textLength="270" x="2331" y="1250.3467">[for all 3 phases (Anesthesia, Surgery, Cleaning)]</text><polygon fill="#181818" points="2506.5,1275.0586,2516.5,1279.0586,2506.5,1283.0586,2510.5,1279.0586" style="stroke:#181818;stroke-width:1.0;"/><line style="stroke:#181818;stroke-width:1.0;" x1="2309.5" x2="2512.5" y1="1279.0586" y2="1279.0586"/><text fill="#000000" font-family="sans-serif" font-size="13" font-weight="bold" lengthAdjust="spacing" textLength="14" x="2316.5" y="1273.7959">26</text><text fill="#000000" font-family="sans-serif" font-size="13" lengthAdjust="spacing" textLength="162" x="2334.5" y="1273.7959">Phase(description, duration)</text><rect fill="#E2E2F0" height="51.2422" rx="2.5" ry="2.5" style="stroke:#181818;stroke-width:0.5;" width="76" x="2518.5" y="1255.7676"/><text fill="#000000" font-family="sans-serif" font-size="14" lengthAdjust="spacing" textLength="62" x="2525.5" y="1277.875">&#171;domain&#187;</text><text fill="#000000" font-family="sans-serif" font-size="14" lengthAdjust="spacing" textLength="40" x="2538.5" y="1296.4961">Phase</text><polygon fill="#181818" points="2135.5,1344.3008,2145.5,1348.3008,2135.5,1352.3008,2139.5,1348.3008" style="stroke:#181818;stroke-width:1.0;"/><line style="stroke:#181818;stroke-width:1.0;" x1="1866.5" x2="2141.5" y1="1348.3008" y2="1348.3008"/><text fill="#000000" font-family="sans-serif" font-size="13" font-weight="bold" lengthAdjust="spacing" textLength="14" x="1873.5" y="1343.0381">27</text><text fill="#000000" font-family="sans-serif" font-size="13" lengthAdjust="spacing" textLength="115" x="1891.5" y="1343.0381">save(operationType)</text><polygon fill="#181818" points="1877.5,1375.5918,1867.5,1379.5918,1877.5,1383.5918,1873.5,1379.5918" style="stroke:#181818;stroke-width:1.0;"/><line style="stroke:#181818;stroke-width:1.0;stroke-dasharray:2.0,2.0;" x1="1871.5" x2="2151.5" y1="1379.5918" y2="1379.5918"/><text fill="#000000" font-family="sans-serif" font-size="13" font-weight="bold" lengthAdjust="spacing" textLength="14" x="1883.5" y="1374.3291">28</text><text fill="#000000" font-family="sans-serif" font-size="13" lengthAdjust="spacing" textLength="33" x="1901.5" y="1374.3291">return</text><polygon fill="#181818" points="432,1406.8828,422,1410.8828,432,1414.8828,428,1410.8828" style="stroke:#181818;stroke-width:1.0;"/><line style="stroke:#181818;stroke-width:1.0;stroke-dasharray:2.0,2.0;" x1="426" x2="1860.5" y1="1410.8828" y2="1410.8828"/><text fill="#000000" font-family="sans-serif" font-size="13" font-weight="bold" lengthAdjust="spacing" textLength="14" x="438" y="1405.6201">29</text><text fill="#000000" font-family="sans-serif" font-size="13" lengthAdjust="spacing" textLength="33" x="456" y="1405.6201">return</text><polygon fill="#181818" points="207,1438.1738,197,1442.1738,207,1446.1738,203,1442.1738" style="stroke:#181818;stroke-width:1.0;"/><line style="stroke:#181818;stroke-width:1.0;stroke-dasharray:2.0,2.0;" x1="201" x2="415" y1="1442.1738" y2="1442.1738"/><text fill="#000000" font-family="sans-serif" font-size="13" font-weight="bold" lengthAdjust="spacing" textLength="14" x="213" y="1436.9111">30</text><text fill="#000000" font-family="sans-serif" font-size="13" lengthAdjust="spacing" textLength="33" x="231" y="1436.9111">return</text><path d="M11,1457.1738 L72,1457.1738 L72,1466.4648 L62,1476.4648 L11,1476.4648 L11,1457.1738 " fill="#EEEEEE" style="stroke:#000000;stroke-width:1.5;"/><rect fill="none" height="98.5039" style="stroke:#000000;stroke-width:1.5;" width="223.5" x="11" y="1457.1738"/><text fill="#000000" font-family="sans-serif" font-size="13" font-weight="bold" lengthAdjust="spacing" textLength="16" x="26" y="1472.2021">alt</text><text fill="#000000" font-family="sans-serif" font-size="11" font-weight="bold" lengthAdjust="spacing" textLength="55" x="87" y="1471.0439">[success]</text><ellipse cx="7.5" cy="1499.0059" fill="none" rx="4" ry="4" style="stroke:#181818;stroke-width:1.5;"/><polygon fill="#181818" points="24.5,1495.7559,14.5,1499.7559,24.5,1503.7559,20.5,1499.7559" style="stroke:#181818;stroke-width:1.0;"/><line style="stroke:#181818;stroke-width:1.0;stroke-dasharray:2.0,2.0;" x1="22.5" x2="185" y1="1499.7559" y2="1499.7559"/><text fill="#000000" font-family="sans-serif" font-size="13" font-weight="bold" lengthAdjust="spacing" textLength="14" x="25" y="1494.4932">31</text><text fill="#000000" font-family="sans-serif" font-size="13" lengthAdjust="spacing" textLength="44" x="43" y="1494.4932">200 OK</text><line style="stroke:#000000;stroke-width:1.0;stroke-dasharray:2.0,2.0;" x1="11" x2="234.5" y1="1508.7559" y2="1508.7559"/><text fill="#000000" font-family="sans-serif" font-size="11" font-weight="bold" lengthAdjust="spacing" textLength="43" x="16" y="1520.626">[failure]</text><ellipse cx="7.5" cy="1546.9277" fill="none" rx="4" ry="4" style="stroke:#181818;stroke-width:1.5;"/><polygon fill="#181818" points="24.5,1543.6777,14.5,1547.6777,24.5,1551.6777,20.5,1547.6777" style="stroke:#181818;stroke-width:1.0;"/><line style="stroke:#181818;stroke-width:1.0;stroke-dasharray:2.0,2.0;" x1="22.5" x2="190" y1="1547.6777" y2="1547.6777"/><text fill="#000000" font-family="sans-serif" font-size="13" font-weight="bold" lengthAdjust="spacing" textLength="14" x="25" y="1542.415">32</text><text fill="#000000" font-family="sans-serif" font-size="13" lengthAdjust="spacing" textLength="100" x="43" y="1542.415">400 Bad Request</text><!--SRC=[jLPTRzCm57tthx3siWIrwnZmCasJkb41ObghjaD2uyLBRbk36mVR6HJjnsFdmxMTf0matjhuddFlFJVdEiSRfN9vFXhbZ6IgsBAJX6z74huNa2KmJ2bP2x95I5750Dyjy9kJboTdftWcU09IuayKVk3e1Xw1uLSnGgHGF2ks3o0GoebGDA6v9iP75nU25mekBxzaUAv_qMnzX8d4y-dTSXA69ZnJWZC6eeoVvY28eZnRxdAujcSb_dfwkvnFRrhP98X7cbJv5Zaab33wgoHPL2SbkdtIgXfoBgdYOjT1DRU77MpcC6HB5U-WURkSTk3rquDTpJa3jvVc_nywC651tSsZlchDULDZ_HkXtjOKMQtyJiPPMgMGES-aWUEAQ_-WbywRVLF4TBRyR407rF5mham6-moPF7oWbw7er8jl2StQS0j21n2p3P5LvEpzU37H0j_puMNb3toEtqsMKOn79ASZtd0hpIqHIHHz90fgAw4AeQ6rDJHu3MhCc3yKMKz5Hl6UmhgfmMgQjaVw66-eL2vRXxjG1rihXz5MvrZHBDL9-XdB6Q0ExB2lRDak6ALma9vndkCL5rY7RG82J3EiDe2PuNbMQ-RTV_52LwAu_XdvT362BCKcOJUPDrCVQZenZkXjfbBV6MkpBkmmovSX7A5TAiZ6rzZ-8TbrWcpSq4yecbHklNkOBxa9zeKEImb4DG1Nodsu9w09wv1jtx4hbhEwUiTNamrSvjYZsIV_AdaMYJrhXmUTcjgsT3Q3eUeClkSNmw4DctwCJ6JizLfjZAUd9uIESy4Vo0FRLOJUyfbD5yiQ_Onj8s2jcmVXxS0GthLfwhNkAiozzKyKYLk8vftgpCg3wyEfm5u4oBBuZCa6acyVLfPmybCdaFz6wRZbQdTBjX1vTPedvkl99QgyOC73i5rL26_kFiQ-y0vcHPY445BLMxu2OT7L8FvAKCUyXEbFGfoRQqtYQ9o1r0wMb0pmeX1h4Bi1lcP0Clqb65UvJTxoygiIbpTYb89C1CrDoW5E2r5log0Bn-uzqalo65GV_nUzNHzqGOBTuhYi7MzDGfZ2iaZC9tTWwxFJKsrjX42FLW-Oia90QFtNEkQAf7gBwS_wOEcMBZRYwHG8_GO0]--></g></svg>