<?xml version="1.0" encoding="us-ascii" standalone="no"?><svg xmlns="http://www.w3.org/2000/svg" xmlns:xlink="http://www.w3.org/1999/xlink" contentStyleType="text/css" height="1393.2px" preserveAspectRatio="none" style="width:2589px;height:1393px;background:#FFFFFF;" version="1.1" viewBox="0 0 2589 1393" width="2589.3px" zoomAndPan="magnify"><defs/><g><text fill="#000000" font-family="sans-serif" font-size="12.6" font-weight="bold" lengthAdjust="spacing" textLength="203.4" x="1194.3" y="27.0967">US 5.1.20 Process View (Level 3)</text><rect fill="#FFFFFF" height="604.6207" style="stroke:#181818;stroke-width:0.9;" width="9" x="167.4" y="117.1389"/><rect fill="#FFFFFF" height="548.2266" style="stroke:#181818;stroke-width:0.9;" width="9" x="167.4" y="772.4215"/><rect fill="#FFFFFF" height="548.2969" style="stroke:#181818;stroke-width:0.9;" width="9" x="391.5" y="145.3008"/><rect fill="#FFFFFF" height="25.2" style="stroke:#181818;stroke-width:0.9;" width="9" x="396" y="633.9357"/><rect fill="#FFFFFF" height="425.1111" style="stroke:#181818;stroke-width:0.9;" width="9" x="391.5" y="800.5834"/><rect fill="#FFFFFF" height="170.4656" style="stroke:#181818;stroke-width:0.9;" width="9" x="547.2" y="173.4627"/><rect fill="#FFFFFF" height="28.1619" style="stroke:#181818;stroke-width:0.9;" width="9" x="701.55" y="201.6246"/><rect fill="#FFFFFF" height="170.4656" style="stroke:#181818;stroke-width:0.9;" width="9" x="1674.45" y="372.0902"/><rect fill="#FFFFFF" height="312.4635" style="stroke:#181818;stroke-width:0.9;" width="9" x="1674.45" y="828.7453"/><rect fill="#FFFFFF" height="28.1619" style="stroke:#181818;stroke-width:0.9;" width="9" x="1674.45" y="1169.3707"/><rect fill="#FFFFFF" height="28.1619" style="stroke:#181818;stroke-width:0.9;" width="9" x="1789.65" y="400.2521"/><rect fill="#FFFFFF" height="28.1619" style="stroke:#181818;stroke-width:0.9;" width="9" x="2016" y="1084.885"/><rect fill="#FFFFFF" height="156.6598" style="stroke:#181818;stroke-width:0.9;" width="9" x="2157.3" y="865.9072"/><rect fill="none" height="73.3799" style="stroke:#000000;stroke-width:1.35;" width="447.3" x="474.75" y="243.2865"/><rect fill="none" height="73.3799" style="stroke:#000000;stroke-width:1.35;" width="341.1" x="1597.95" y="441.9141"/><rect fill="none" height="73.3799" style="stroke:#000000;stroke-width:1.35;" width="481.95" x="2101.95" y="898.2633"/><rect fill="none" height="73.3799" style="stroke:#000000;stroke-width:1.35;" width="326.7" x="2101.95" y="984.2432"/><rect fill="none" height="88.6535" style="stroke:#000000;stroke-width:1.35;" width="201.15" x="9.9" y="1239.1945"/><line style="stroke:#181818;stroke-width:0.45;stroke-dasharray:5.0,5.0;" x1="171.45" x2="171.45" y1="87.177" y2="1343.148"/><line style="stroke:#181818;stroke-width:0.45;stroke-dasharray:5.0,5.0;" x1="395.55" x2="395.55" y1="87.177" y2="1343.148"/><line style="stroke:#181818;stroke-width:0.45;stroke-dasharray:5.0,5.0;" x1="551.25" x2="551.25" y1="87.177" y2="1343.148"/><line style="stroke:#181818;stroke-width:0.45;stroke-dasharray:5.0,5.0;" x1="706.05" x2="706.05" y1="87.177" y2="1343.148"/><line style="stroke:#181818;stroke-width:0.45;stroke-dasharray:5.0,5.0;" x1="852.75" x2="852.75" y1="297.6574" y2="1343.148"/><line style="stroke:#181818;stroke-width:0.45;stroke-dasharray:5.0,5.0;" x1="964.35" x2="964.35" y1="87.177" y2="1343.148"/><line style="stroke:#181818;stroke-width:0.45;stroke-dasharray:5.0,5.0;" x1="1066.95" x2="1066.95" y1="87.177" y2="1343.148"/><line style="stroke:#181818;stroke-width:0.45;stroke-dasharray:5.0,5.0;" x1="1162.35" x2="1162.35" y1="87.177" y2="1343.148"/><line style="stroke:#181818;stroke-width:0.45;stroke-dasharray:5.0,5.0;" x1="1333.35" x2="1333.35" y1="586.7648" y2="1343.148"/><line style="stroke:#181818;stroke-width:0.45;stroke-dasharray:5.0,5.0;" x1="1533.15" x2="1533.15" y1="87.177" y2="1343.148"/><line style="stroke:#181818;stroke-width:0.45;stroke-dasharray:5.0,5.0;" x1="1678.95" x2="1678.95" y1="87.177" y2="1343.148"/><line style="stroke:#181818;stroke-width:0.45;stroke-dasharray:5.0,5.0;" x1="1794.15" x2="1794.15" y1="87.177" y2="1343.148"/><line style="stroke:#181818;stroke-width:0.45;stroke-dasharray:5.0,5.0;" x1="1883.25" x2="1883.25" y1="496.285" y2="1343.148"/><line style="stroke:#181818;stroke-width:0.45;stroke-dasharray:5.0,5.0;" x1="2020.05" x2="2020.05" y1="87.177" y2="1343.148"/><line style="stroke:#181818;stroke-width:0.45;stroke-dasharray:5.0,5.0;" x1="2161.35" x2="2161.35" y1="872.9543" y2="1343.148"/><line style="stroke:#181818;stroke-width:0.45;stroke-dasharray:5.0,5.0;" x1="2384.1" x2="2384.1" y1="1038.6141" y2="1343.148"/><line style="stroke:#181818;stroke-width:0.45;stroke-dasharray:5.0,5.0;" x1="2527.2" x2="2527.2" y1="952.6342" y2="1343.148"/><rect fill="#E2E2F0" height="46.118" rx="2.25" ry="2.25" style="stroke:#181818;stroke-width:0.45;" width="60.3" x="141.75" y="40.159"/><text fill="#000000" font-family="sans-serif" font-size="12.6" lengthAdjust="spacing" textLength="44.1" x="149.85" y="60.0557">&#171;route&#187;</text><text fill="#000000" font-family="sans-serif" font-size="12.6" lengthAdjust="spacing" textLength="44.1" x="151.65" y="76.8146">Routing</text><rect fill="#E2E2F0" height="46.118" rx="2.25" ry="2.25" style="stroke:#181818;stroke-width:0.45;" width="60.3" x="141.75" y="1342.248"/><text fill="#000000" font-family="sans-serif" font-size="12.6" lengthAdjust="spacing" textLength="44.1" x="149.85" y="1362.1447">&#171;route&#187;</text><text fill="#000000" font-family="sans-serif" font-size="12.6" lengthAdjust="spacing" textLength="44.1" x="151.65" y="1378.9037">Routing</text><rect fill="#E2E2F0" height="46.118" rx="2.25" ry="2.25" style="stroke:#181818;stroke-width:0.45;" width="157.5" x="317.25" y="40.159"/><text fill="#000000" font-family="sans-serif" font-size="12.6" lengthAdjust="spacing" textLength="67.5" x="362.25" y="60.0557">&#171;controller&#187;</text><text fill="#000000" font-family="sans-serif" font-size="12.6" lengthAdjust="spacing" textLength="141.3" x="327.15" y="76.8146">OperationTypeController</text><rect fill="#E2E2F0" height="46.118" rx="2.25" ry="2.25" style="stroke:#181818;stroke-width:0.45;" width="157.5" x="317.25" y="1342.248"/><text fill="#000000" font-family="sans-serif" font-size="12.6" lengthAdjust="spacing" textLength="67.5" x="362.25" y="1362.1447">&#171;controller&#187;</text><text fill="#000000" font-family="sans-serif" font-size="12.6" lengthAdjust="spacing" textLength="141.3" x="327.15" y="1378.9037">OperationTypeController</text><rect fill="#E2E2F0" height="46.118" rx="2.25" ry="2.25" style="stroke:#181818;stroke-width:0.45;" width="135.9" x="483.75" y="40.159"/><text fill="#000000" font-family="sans-serif" font-size="12.6" lengthAdjust="spacing" textLength="54.9" x="524.25" y="60.0557">&#171;service&#187;</text><text fill="#000000" font-family="sans-serif" font-size="12.6" lengthAdjust="spacing" textLength="119.7" x="493.65" y="76.8146">SpecializationService</text><rect fill="#E2E2F0" height="46.118" rx="2.25" ry="2.25" style="stroke:#181818;stroke-width:0.45;" width="135.9" x="483.75" y="1342.248"/><text fill="#000000" font-family="sans-serif" font-size="12.6" lengthAdjust="spacing" textLength="54.9" x="524.25" y="1362.1447">&#171;service&#187;</text><text fill="#000000" font-family="sans-serif" font-size="12.6" lengthAdjust="spacing" textLength="119.7" x="493.65" y="1378.9037">SpecializationService</text><rect fill="#E2E2F0" height="46.118" rx="2.25" ry="2.25" style="stroke:#181818;stroke-width:0.45;" width="154.8" x="628.65" y="40.159"/><text fill="#000000" font-family="sans-serif" font-size="12.6" lengthAdjust="spacing" textLength="71.1" x="670.5" y="60.0557">&#171;repository&#187;</text><text fill="#000000" font-family="sans-serif" font-size="12.6" lengthAdjust="spacing" textLength="138.6" x="638.55" y="76.8146">SpecializationRepository</text><rect fill="#E2E2F0" height="46.118" rx="2.25" ry="2.25" style="stroke:#181818;stroke-width:0.45;" width="154.8" x="628.65" y="1342.248"/><text fill="#000000" font-family="sans-serif" font-size="12.6" lengthAdjust="spacing" textLength="71.1" x="670.5" y="1362.1447">&#171;repository&#187;</text><text fill="#000000" font-family="sans-serif" font-size="12.6" lengthAdjust="spacing" textLength="138.6" x="638.55" y="1378.9037">SpecializationRepository</text><rect fill="#E2E2F0" height="46.118" rx="2.25" ry="2.25" style="stroke:#181818;stroke-width:0.45;" width="120.6" x="792.45" y="1342.248"/><text fill="#000000" font-family="sans-serif" font-size="12.6" lengthAdjust="spacing" textLength="32.4" x="836.55" y="1362.1447">&#171;dto&#187;</text><text fill="#000000" font-family="sans-serif" font-size="12.6" lengthAdjust="spacing" textLength="104.4" x="802.35" y="1378.9037">SpecializationDTO</text><rect fill="#E2E2F0" height="46.118" rx="2.25" ry="2.25" style="stroke:#181818;stroke-width:0.45;" width="84.6" x="922.05" y="40.159"/><text fill="#000000" font-family="sans-serif" font-size="12.6" lengthAdjust="spacing" textLength="54.9" x="936.9" y="60.0557">&#171;service&#187;</text><text fill="#000000" font-family="sans-serif" font-size="12.6" lengthAdjust="spacing" textLength="68.4" x="931.95" y="76.8146">RoleService</text><rect fill="#E2E2F0" height="46.118" rx="2.25" ry="2.25" style="stroke:#181818;stroke-width:0.45;" width="84.6" x="922.05" y="1342.248"/><text fill="#000000" font-family="sans-serif" font-size="12.6" lengthAdjust="spacing" textLength="54.9" x="936.9" y="1362.1447">&#171;service&#187;</text><text fill="#000000" font-family="sans-serif" font-size="12.6" lengthAdjust="spacing" textLength="68.4" x="931.95" y="1378.9037">RoleService</text><rect fill="#E2E2F0" height="46.118" rx="2.25" ry="2.25" style="stroke:#181818;stroke-width:0.45;" width="103.5" x="1015.65" y="40.159"/><text fill="#000000" font-family="sans-serif" font-size="12.6" lengthAdjust="spacing" textLength="71.1" x="1031.85" y="60.0557">&#171;repository&#187;</text><text fill="#000000" font-family="sans-serif" font-size="12.6" lengthAdjust="spacing" textLength="87.3" x="1025.55" y="76.8146">RoleRepository</text><rect fill="#E2E2F0" height="46.118" rx="2.25" ry="2.25" style="stroke:#181818;stroke-width:0.45;" width="103.5" x="1015.65" y="1342.248"/><text fill="#000000" font-family="sans-serif" font-size="12.6" lengthAdjust="spacing" textLength="71.1" x="1031.85" y="1362.1447">&#171;repository&#187;</text><text fill="#000000" font-family="sans-serif" font-size="12.6" lengthAdjust="spacing" textLength="87.3" x="1025.55" y="1378.9037">RoleRepository</text><rect fill="#E2E2F0" height="46.118" rx="2.25" ry="2.25" style="stroke:#181818;stroke-width:0.45;" width="69.3" x="1128.15" y="40.159"/><text fill="#000000" font-family="sans-serif" font-size="12.6" lengthAdjust="spacing" textLength="32.4" x="1146.6" y="60.0557">&#171;dto&#187;</text><text fill="#000000" font-family="sans-serif" font-size="12.6" lengthAdjust="spacing" textLength="53.1" x="1138.05" y="76.8146">RoleDTO</text><rect fill="#E2E2F0" height="46.118" rx="2.25" ry="2.25" style="stroke:#181818;stroke-width:0.45;" width="69.3" x="1128.15" y="1342.248"/><text fill="#000000" font-family="sans-serif" font-size="12.6" lengthAdjust="spacing" textLength="32.4" x="1146.6" y="1362.1447">&#171;dto&#187;</text><text fill="#000000" font-family="sans-serif" font-size="12.6" lengthAdjust="spacing" textLength="53.1" x="1138.05" y="1378.9037">RoleDTO</text><rect fill="#E2E2F0" height="46.118" rx="2.25" ry="2.25" style="stroke:#181818;stroke-width:0.45;" width="253.8" x="1206.45" y="1342.248"/><text fill="#000000" font-family="sans-serif" font-size="12.6" lengthAdjust="spacing" textLength="32.4" x="1317.15" y="1362.1447">&#171;dto&#187;</text><text fill="#000000" font-family="sans-serif" font-size="12.6" lengthAdjust="spacing" textLength="234" x="1216.35" y="1378.9037">SpecializationAndFunctionResponseDTO</text><rect fill="#E2E2F0" height="46.118" rx="2.25" ry="2.25" style="stroke:#181818;stroke-width:0.45;" width="128.7" x="1469.25" y="40.159"/><text fill="#000000" font-family="sans-serif" font-size="12.6" lengthAdjust="spacing" textLength="32.4" x="1517.4" y="60.0557">&#171;dto&#187;</text><text fill="#000000" font-family="sans-serif" font-size="12.6" lengthAdjust="spacing" textLength="112.5" x="1479.15" y="76.8146">OperationTypeDTO</text><rect fill="#E2E2F0" height="46.118" rx="2.25" ry="2.25" style="stroke:#181818;stroke-width:0.45;" width="128.7" x="1469.25" y="1342.248"/><text fill="#000000" font-family="sans-serif" font-size="12.6" lengthAdjust="spacing" textLength="32.4" x="1517.4" y="1362.1447">&#171;dto&#187;</text><text fill="#000000" font-family="sans-serif" font-size="12.6" lengthAdjust="spacing" textLength="112.5" x="1479.15" y="1378.9037">OperationTypeDTO</text><rect fill="#E2E2F0" height="46.118" rx="2.25" ry="2.25" style="stroke:#181818;stroke-width:0.45;" width="144" x="1606.95" y="40.159"/><text fill="#000000" font-family="sans-serif" font-size="12.6" lengthAdjust="spacing" textLength="54.9" x="1651.5" y="60.0557">&#171;service&#187;</text><text fill="#000000" font-family="sans-serif" font-size="12.6" lengthAdjust="spacing" textLength="127.8" x="1616.85" y="76.8146">OperationTypeService</text><rect fill="#E2E2F0" height="46.118" rx="2.25" ry="2.25" style="stroke:#181818;stroke-width:0.45;" width="144" x="1606.95" y="1342.248"/><text fill="#000000" font-family="sans-serif" font-size="12.6" lengthAdjust="spacing" textLength="54.9" x="1651.5" y="1362.1447">&#171;service&#187;</text><text fill="#000000" font-family="sans-serif" font-size="12.6" lengthAdjust="spacing" textLength="127.8" x="1616.85" y="1378.9037">OperationTypeService</text><rect fill="#E2E2F0" height="46.118" rx="2.25" ry="2.25" style="stroke:#181818;stroke-width:0.45;" width="68.4" x="1759.95" y="40.159"/><text fill="#000000" font-family="sans-serif" font-size="12.6" lengthAdjust="spacing" textLength="55.8" x="1766.25" y="60.0557">&#171;domain&#187;</text><text fill="#000000" font-family="sans-serif" font-size="12.6" lengthAdjust="spacing" textLength="49.5" x="1771.2" y="76.8146">Function</text><rect fill="#E2E2F0" height="46.118" rx="2.25" ry="2.25" style="stroke:#181818;stroke-width:0.45;" width="68.4" x="1759.95" y="1342.248"/><text fill="#000000" font-family="sans-serif" font-size="12.6" lengthAdjust="spacing" textLength="55.8" x="1766.25" y="1362.1447">&#171;domain&#187;</text><text fill="#000000" font-family="sans-serif" font-size="12.6" lengthAdjust="spacing" textLength="49.5" x="1771.2" y="1378.9037">Function</text><rect fill="#E2E2F0" height="46.118" rx="2.25" ry="2.25" style="stroke:#181818;stroke-width:0.45;" width="92.7" x="1837.35" y="1342.248"/><text fill="#000000" font-family="sans-serif" font-size="12.6" lengthAdjust="spacing" textLength="32.4" x="1867.5" y="1362.1447">&#171;dto&#187;</text><text fill="#000000" font-family="sans-serif" font-size="12.6" lengthAdjust="spacing" textLength="76.5" x="1847.25" y="1378.9037">FunctionDTO</text><rect fill="#E2E2F0" height="46.118" rx="2.25" ry="2.25" style="stroke:#181818;stroke-width:0.45;" width="162.9" x="1939.05" y="40.159"/><text fill="#000000" font-family="sans-serif" font-size="12.6" lengthAdjust="spacing" textLength="71.1" x="1984.95" y="60.0557">&#171;repository&#187;</text><text fill="#000000" font-family="sans-serif" font-size="12.6" lengthAdjust="spacing" textLength="146.7" x="1948.95" y="76.8146">OperationTypeRepository</text><rect fill="#E2E2F0" height="46.118" rx="2.25" ry="2.25" style="stroke:#181818;stroke-width:0.45;" width="162.9" x="1939.05" y="1342.248"/><text fill="#000000" font-family="sans-serif" font-size="12.6" lengthAdjust="spacing" textLength="71.1" x="1984.95" y="1362.1447">&#171;repository&#187;</text><text fill="#000000" font-family="sans-serif" font-size="12.6" lengthAdjust="spacing" textLength="146.7" x="1948.95" y="1378.9037">OperationTypeRepository</text><rect fill="#E2E2F0" height="46.118" rx="2.25" ry="2.25" style="stroke:#181818;stroke-width:0.45;" width="101.7" x="2110.95" y="1342.248"/><text fill="#000000" font-family="sans-serif" font-size="12.6" lengthAdjust="spacing" textLength="55.8" x="2133.9" y="1362.1447">&#171;domain&#187;</text><text fill="#000000" font-family="sans-serif" font-size="12.6" lengthAdjust="spacing" textLength="85.5" x="2120.85" y="1378.9037">OperationType</text><rect fill="#E2E2F0" height="46.118" rx="2.25" ry="2.25" style="stroke:#181818;stroke-width:0.45;" width="68.4" x="2349.9" y="1342.248"/><text fill="#000000" font-family="sans-serif" font-size="12.6" lengthAdjust="spacing" textLength="55.8" x="2356.2" y="1362.1447">&#171;domain&#187;</text><text fill="#000000" font-family="sans-serif" font-size="12.6" lengthAdjust="spacing" textLength="36" x="2367.9" y="1378.9037">Phase</text><rect fill="#E2E2F0" height="46.118" rx="2.25" ry="2.25" style="stroke:#181818;stroke-width:0.45;" width="94.5" x="2480.4" y="1342.248"/><text fill="#000000" font-family="sans-serif" font-size="12.6" lengthAdjust="spacing" textLength="55.8" x="2499.75" y="1362.1447">&#171;domain&#187;</text><text fill="#000000" font-family="sans-serif" font-size="12.6" lengthAdjust="spacing" textLength="78.3" x="2490.3" y="1378.9037">RequiredStaff</text><rect fill="#FFFFFF" height="604.6207" style="stroke:#181818;stroke-width:0.9;" width="9" x="167.4" y="117.1389"/><rect fill="#FFFFFF" height="548.2266" style="stroke:#181818;stroke-width:0.9;" width="9" x="167.4" y="772.4215"/><rect fill="#FFFFFF" height="548.2969" style="stroke:#181818;stroke-width:0.9;" width="9" x="391.5" y="145.3008"/><rect fill="#FFFFFF" height="25.2" style="stroke:#181818;stroke-width:0.9;" width="9" x="396" y="633.9357"/><rect fill="#FFFFFF" height="425.1111" style="stroke:#181818;stroke-width:0.9;" width="9" x="391.5" y="800.5834"/><rect fill="#FFFFFF" height="170.4656" style="stroke:#181818;stroke-width:0.9;" width="9" x="547.2" y="173.4627"/><rect fill="#FFFFFF" height="28.1619" style="stroke:#181818;stroke-width:0.9;" width="9" x="701.55" y="201.6246"/><rect fill="#FFFFFF" height="170.4656" style="stroke:#181818;stroke-width:0.9;" width="9" x="1674.45" y="372.0902"/><rect fill="#FFFFFF" height="312.4635" style="stroke:#181818;stroke-width:0.9;" width="9" x="1674.45" y="828.7453"/><rect fill="#FFFFFF" height="28.1619" style="stroke:#181818;stroke-width:0.9;" width="9" x="1674.45" y="1169.3707"/><rect fill="#FFFFFF" height="28.1619" style="stroke:#181818;stroke-width:0.9;" width="9" x="1789.65" y="400.2521"/><rect fill="#FFFFFF" height="28.1619" style="stroke:#181818;stroke-width:0.9;" width="9" x="2016" y="1084.885"/><rect fill="#FFFFFF" height="156.6598" style="stroke:#181818;stroke-width:0.9;" width="9" x="2157.3" y="865.9072"/><ellipse cx="6.75" cy="116.4639" fill="none" rx="3.6" ry="3.6" style="stroke:#181818;stroke-width:1.35;"/><polygon fill="#181818" points="156.6,113.5389,165.6,117.1389,156.6,120.7389,160.2,117.1389" style="stroke:#181818;stroke-width:0.9;"/><line style="stroke:#181818;stroke-width:0.9;" x1="10.8" x2="162" y1="117.1389" y2="117.1389"/><text fill="#000000" font-family="sans-serif" font-size="11.7" font-weight="bold" lengthAdjust="spacing" textLength="6.3" x="13.5" y="112.4024">1</text><text fill="#000000" font-family="sans-serif" font-size="11.7" lengthAdjust="spacing" textLength="133.2" x="23.4" y="112.4024">GET() /api/operationtypes</text><polygon fill="#181818" points="380.7,141.7008,389.7,145.3008,380.7,148.9008,384.3,145.3008" style="stroke:#181818;stroke-width:0.9;"/><line style="stroke:#181818;stroke-width:0.9;" x1="176.4" x2="386.1" y1="145.3008" y2="145.3008"/><text fill="#000000" font-family="sans-serif" font-size="11.7" font-weight="bold" lengthAdjust="spacing" textLength="6.3" x="182.7" y="140.5644">2</text><text fill="#000000" font-family="sans-serif" font-size="11.7" lengthAdjust="spacing" textLength="188.1" x="192.6" y="140.5644">getAllSpecializationsAndFunctions()</text><polygon fill="#181818" points="536.4,169.8627,545.4,173.4627,536.4,177.0627,540,173.4627" style="stroke:#181818;stroke-width:0.9;"/><line style="stroke:#181818;stroke-width:0.9;" x1="400.5" x2="541.8" y1="173.4627" y2="173.4627"/><text fill="#000000" font-family="sans-serif" font-size="11.7" font-weight="bold" lengthAdjust="spacing" textLength="6.3" x="406.8" y="168.7263">3</text><text fill="#000000" font-family="sans-serif" font-size="11.7" lengthAdjust="spacing" textLength="72.9" x="416.7" y="168.7263">GetAllAsync()</text><polygon fill="#181818" points="690.75,198.0246,699.75,201.6246,690.75,205.2246,694.35,201.6246" style="stroke:#181818;stroke-width:0.9;"/><line style="stroke:#181818;stroke-width:0.9;" x1="556.2" x2="696.15" y1="201.6246" y2="201.6246"/><text fill="#000000" font-family="sans-serif" font-size="11.7" font-weight="bold" lengthAdjust="spacing" textLength="6.3" x="562.5" y="196.8882">4</text><text fill="#000000" font-family="sans-serif" font-size="11.7" lengthAdjust="spacing" textLength="38.7" x="572.4" y="196.8882">findAll()</text><polygon fill="#181818" points="566.1,226.1865,557.1,229.7865,566.1,233.3865,562.5,229.7865" style="stroke:#181818;stroke-width:0.9;"/><line style="stroke:#181818;stroke-width:0.9;stroke-dasharray:2.0,2.0;" x1="560.7" x2="705.15" y1="229.7865" y2="229.7865"/><text fill="#000000" font-family="sans-serif" font-size="11.7" font-weight="bold" lengthAdjust="spacing" textLength="6.3" x="571.5" y="225.0501">5</text><text fill="#000000" font-family="sans-serif" font-size="11.7" lengthAdjust="spacing" textLength="96.3" x="581.4" y="225.0501">specializationsList</text><path d="M474.75,243.2865 L540.45,243.2865 L540.45,251.6484 L531.45,260.6484 L474.75,260.6484 L474.75,243.2865 " fill="#EEEEEE" style="stroke:#000000;stroke-width:1.35;"/><rect fill="none" height="73.3799" style="stroke:#000000;stroke-width:1.35;" width="447.3" x="474.75" y="243.2865"/><text fill="#000000" font-family="sans-serif" font-size="11.7" font-weight="bold" lengthAdjust="spacing" textLength="25.2" x="488.25" y="256.812">loop</text><text fill="#000000" font-family="sans-serif" font-size="9.9" font-weight="bold" lengthAdjust="spacing" textLength="166.5" x="553.95" y="255.7696">[for each specialization in the list]</text><polygon fill="#181818" points="781.65,278.0104,790.65,281.6104,781.65,285.2104,785.25,281.6104" style="stroke:#181818;stroke-width:0.9;"/><line style="stroke:#181818;stroke-width:0.9;" x1="556.2" x2="787.05" y1="281.6104" y2="281.6104"/><text fill="#000000" font-family="sans-serif" font-size="11.7" font-weight="bold" lengthAdjust="spacing" textLength="6.3" x="562.5" y="276.8739">6</text><text fill="#000000" font-family="sans-serif" font-size="11.7" lengthAdjust="spacing" textLength="111.6" x="572.4" y="276.8739">toDTO(specialization)</text><rect fill="#E2E2F0" height="46.118" rx="2.25" ry="2.25" style="stroke:#181818;stroke-width:0.45;" width="120.6" x="792.45" y="260.6484"/><text fill="#000000" font-family="sans-serif" font-size="12.6" lengthAdjust="spacing" textLength="32.4" x="836.55" y="280.5451">&#171;dto&#187;</text><text fill="#000000" font-family="sans-serif" font-size="12.6" lengthAdjust="spacing" textLength="104.4" x="802.35" y="297.3041">SpecializationDTO</text><polygon fill="#181818" points="410.4,340.3283,401.4,343.9283,410.4,347.5283,406.8,343.9283" style="stroke:#181818;stroke-width:0.9;"/><line style="stroke:#181818;stroke-width:0.9;stroke-dasharray:2.0,2.0;" x1="405" x2="550.8" y1="343.9283" y2="343.9283"/><text fill="#000000" font-family="sans-serif" font-size="11.7" font-weight="bold" lengthAdjust="spacing" textLength="6.3" x="415.8" y="339.1919">7</text><text fill="#000000" font-family="sans-serif" font-size="11.7" lengthAdjust="spacing" textLength="113.4" x="425.7" y="339.1919">specializationListDTO</text><polygon fill="#181818" points="1663.65,368.4902,1672.65,372.0902,1663.65,375.6902,1667.25,372.0902" style="stroke:#181818;stroke-width:0.9;"/><line style="stroke:#181818;stroke-width:0.9;" x1="400.5" x2="1669.05" y1="372.0902" y2="372.0902"/><text fill="#000000" font-family="sans-serif" font-size="11.7" font-weight="bold" lengthAdjust="spacing" textLength="6.3" x="406.8" y="367.3538">8</text><text fill="#000000" font-family="sans-serif" font-size="11.7" lengthAdjust="spacing" textLength="107.1" x="416.7" y="367.3538">getAllFunctionsList()</text><polygon fill="#181818" points="1778.85,396.6521,1787.85,400.2521,1778.85,403.8521,1782.45,400.2521" style="stroke:#181818;stroke-width:0.9;"/><line style="stroke:#181818;stroke-width:0.9;" x1="1683.45" x2="1784.25" y1="400.2521" y2="400.2521"/><text fill="#000000" font-family="sans-serif" font-size="11.7" font-weight="bold" lengthAdjust="spacing" textLength="6.3" x="1689.75" y="395.5157">9</text><text fill="#000000" font-family="sans-serif" font-size="11.7" lengthAdjust="spacing" textLength="36.9" x="1699.65" y="395.5157">getAll()</text><polygon fill="#181818" points="1693.35,424.8141,1684.35,428.4141,1693.35,432.0141,1689.75,428.4141" style="stroke:#181818;stroke-width:0.9;"/><line style="stroke:#181818;stroke-width:0.9;stroke-dasharray:2.0,2.0;" x1="1687.95" x2="1793.25" y1="428.4141" y2="428.4141"/><text fill="#000000" font-family="sans-serif" font-size="11.7" font-weight="bold" lengthAdjust="spacing" textLength="12.6" x="1698.75" y="423.6776">10</text><text fill="#000000" font-family="sans-serif" font-size="11.7" lengthAdjust="spacing" textLength="65.7" x="1714.95" y="423.6776">functionsList</text><path d="M1597.95,441.9141 L1663.65,441.9141 L1663.65,450.276 L1654.65,459.276 L1597.95,459.276 L1597.95,441.9141 " fill="#EEEEEE" style="stroke:#000000;stroke-width:1.35;"/><rect fill="none" height="73.3799" style="stroke:#000000;stroke-width:1.35;" width="341.1" x="1597.95" y="441.9141"/><text fill="#000000" font-family="sans-serif" font-size="11.7" font-weight="bold" lengthAdjust="spacing" textLength="25.2" x="1611.45" y="455.4396">loop</text><text fill="#000000" font-family="sans-serif" font-size="9.9" font-weight="bold" lengthAdjust="spacing" textLength="84.6" x="1677.15" y="454.3972">[for all functions]</text><polygon fill="#181818" points="1826.55,476.6379,1835.55,480.2379,1826.55,483.8379,1830.15,480.2379" style="stroke:#181818;stroke-width:0.9;"/><line style="stroke:#181818;stroke-width:0.9;" x1="1683.45" x2="1831.95" y1="480.2379" y2="480.2379"/><text fill="#000000" font-family="sans-serif" font-size="11.7" font-weight="bold" lengthAdjust="spacing" textLength="12.6" x="1689.75" y="475.5015">11</text><text fill="#000000" font-family="sans-serif" font-size="11.7" lengthAdjust="spacing" textLength="75.6" x="1705.95" y="475.5015">toDto(function)</text><rect fill="#E2E2F0" height="46.118" rx="2.25" ry="2.25" style="stroke:#181818;stroke-width:0.45;" width="92.7" x="1837.35" y="459.276"/><text fill="#000000" font-family="sans-serif" font-size="12.6" lengthAdjust="spacing" textLength="32.4" x="1867.5" y="479.1727">&#171;dto&#187;</text><text fill="#000000" font-family="sans-serif" font-size="12.6" lengthAdjust="spacing" textLength="76.5" x="1847.25" y="495.9316">FunctionDTO</text><polygon fill="#181818" points="410.4,538.9559,401.4,542.5559,410.4,546.1559,406.8,542.5559" style="stroke:#181818;stroke-width:0.9;"/><line style="stroke:#181818;stroke-width:0.9;stroke-dasharray:2.0,2.0;" x1="405" x2="1678.05" y1="542.5559" y2="542.5559"/><text fill="#000000" font-family="sans-serif" font-size="11.7" font-weight="bold" lengthAdjust="spacing" textLength="12.6" x="415.8" y="537.8194">12</text><text fill="#000000" font-family="sans-serif" font-size="11.7" lengthAdjust="spacing" textLength="82.8" x="432" y="537.8194">functionListDTO</text><polygon fill="#181818" points="1195.65,567.1178,1204.65,570.7178,1195.65,574.3178,1199.25,570.7178" style="stroke:#181818;stroke-width:0.9;"/><line style="stroke:#181818;stroke-width:0.9;" x1="400.5" x2="1201.05" y1="570.7178" y2="570.7178"/><text fill="#000000" font-family="sans-serif" font-size="11.7" font-weight="bold" lengthAdjust="spacing" textLength="12.6" x="406.8" y="565.9813">13</text><text fill="#000000" font-family="sans-serif" font-size="11.7" lengthAdjust="spacing" textLength="243.9" x="423" y="565.9813">toDTO(specializationListDTO, functionListDTO)</text><rect fill="#E2E2F0" height="46.118" rx="2.25" ry="2.25" style="stroke:#181818;stroke-width:0.45;" width="253.8" x="1206.45" y="549.7559"/><text fill="#000000" font-family="sans-serif" font-size="12.6" lengthAdjust="spacing" textLength="32.4" x="1317.15" y="569.6525">&#171;dto&#187;</text><text fill="#000000" font-family="sans-serif" font-size="12.6" lengthAdjust="spacing" textLength="234" x="1216.35" y="586.4115">SpecializationAndFunctionResponseDTO</text><line style="stroke:#181818;stroke-width:0.9;" x1="405" x2="442.8" y1="626.7357" y2="626.7357"/><line style="stroke:#181818;stroke-width:0.9;" x1="442.8" x2="442.8" y1="626.7357" y2="638.4357"/><line style="stroke:#181818;stroke-width:0.9;" x1="405.9" x2="442.8" y1="638.4357" y2="638.4357"/><polygon fill="#181818" points="414.9,634.8357,405.9,638.4357,414.9,642.0357,411.3,638.4357" style="stroke:#181818;stroke-width:0.9;"/><text fill="#000000" font-family="sans-serif" font-size="11.7" font-weight="bold" lengthAdjust="spacing" textLength="12.6" x="411.3" y="621.9993">14</text><text fill="#000000" font-family="sans-serif" font-size="11.7" lengthAdjust="spacing" textLength="99.9" x="427.5" y="621.9993">json(responseDTO)</text><polygon fill="#181818" points="186.3,689.9977,177.3,693.5977,186.3,697.1977,182.7,693.5977" style="stroke:#181818;stroke-width:0.9;"/><line style="stroke:#181818;stroke-width:0.9;stroke-dasharray:2.0,2.0;" x1="180.9" x2="395.1" y1="693.5977" y2="693.5977"/><text fill="#000000" font-family="sans-serif" font-size="11.7" font-weight="bold" lengthAdjust="spacing" textLength="12.6" x="191.7" y="688.8612">15</text><text fill="#000000" font-family="sans-serif" font-size="11.7" lengthAdjust="spacing" textLength="21.6" x="207.9" y="688.8612">json</text><ellipse cx="6.75" cy="721.0846" fill="none" rx="3.6" ry="3.6" style="stroke:#181818;stroke-width:1.35;"/><polygon fill="#181818" points="22.05,718.1596,13.05,721.7596,22.05,725.3596,18.45,721.7596" style="stroke:#181818;stroke-width:0.9;"/><line style="stroke:#181818;stroke-width:0.9;stroke-dasharray:2.0,2.0;" x1="20.25" x2="171" y1="721.7596" y2="721.7596"/><text fill="#000000" font-family="sans-serif" font-size="11.7" font-weight="bold" lengthAdjust="spacing" textLength="12.6" x="22.5" y="717.0231">16</text><text fill="#000000" font-family="sans-serif" font-size="11.7" lengthAdjust="spacing" textLength="45.9" x="38.7" y="717.0231">OK(json)</text><ellipse cx="6.75" cy="771.7465" fill="none" rx="3.6" ry="3.6" style="stroke:#181818;stroke-width:1.35;"/><polygon fill="#181818" points="156.6,768.8215,165.6,772.4215,156.6,776.0215,160.2,772.4215" style="stroke:#181818;stroke-width:0.9;"/><line style="stroke:#181818;stroke-width:0.9;" x1="10.8" x2="162" y1="772.4215" y2="772.4215"/><text fill="#000000" font-family="sans-serif" font-size="11.7" font-weight="bold" lengthAdjust="spacing" textLength="12.6" x="13.5" y="767.6851">17</text><text fill="#000000" font-family="sans-serif" font-size="11.7" lengthAdjust="spacing" textLength="60.3" x="29.7" y="767.6851">POST(json)</text><polygon fill="#181818" points="380.7,796.9834,389.7,800.5834,380.7,804.1834,384.3,800.5834" style="stroke:#181818;stroke-width:0.9;"/><line style="stroke:#181818;stroke-width:0.9;" x1="176.4" x2="386.1" y1="800.5834" y2="800.5834"/><text fill="#000000" font-family="sans-serif" font-size="11.7" font-weight="bold" lengthAdjust="spacing" textLength="12.6" x="182.7" y="795.847">18</text><text fill="#000000" font-family="sans-serif" font-size="11.7" lengthAdjust="spacing" textLength="137.7" x="198.9" y="795.847">Create(operationTypeDTO)</text><polygon fill="#181818" points="1663.65,825.1453,1672.65,828.7453,1663.65,832.3453,1667.25,828.7453" style="stroke:#181818;stroke-width:0.9;"/><line style="stroke:#181818;stroke-width:0.9;" x1="400.5" x2="1669.05" y1="828.7453" y2="828.7453"/><text fill="#000000" font-family="sans-serif" font-size="11.7" font-weight="bold" lengthAdjust="spacing" textLength="12.6" x="406.8" y="824.0089">19</text><text fill="#000000" font-family="sans-serif" font-size="11.7" lengthAdjust="spacing" textLength="157.5" x="423" y="824.0089">AddAsync(operationTypeDTO)</text><polygon fill="#181818" points="2100.15,853.3072,2109.15,856.9072,2100.15,860.5072,2103.75,856.9072" style="stroke:#181818;stroke-width:0.9;"/><line style="stroke:#181818;stroke-width:0.9;" x1="1683.45" x2="2105.55" y1="856.9072" y2="856.9072"/><text fill="#000000" font-family="sans-serif" font-size="11.7" font-weight="bold" lengthAdjust="spacing" textLength="12.6" x="1689.75" y="852.1708">20</text><text fill="#000000" font-family="sans-serif" font-size="11.7" lengthAdjust="spacing" textLength="179.1" x="1705.95" y="852.1708">OperationType(operationTypeDTO)</text><rect fill="#E2E2F0" height="46.118" rx="2.25" ry="2.25" style="stroke:#181818;stroke-width:0.45;" width="101.7" x="2110.95" y="835.9453"/><text fill="#000000" font-family="sans-serif" font-size="12.6" lengthAdjust="spacing" textLength="55.8" x="2133.9" y="855.842">&#171;domain&#187;</text><text fill="#000000" font-family="sans-serif" font-size="12.6" lengthAdjust="spacing" textLength="85.5" x="2120.85" y="872.601">OperationType</text><path d="M2101.95,898.2633 L2167.65,898.2633 L2167.65,906.6252 L2158.65,915.6252 L2101.95,915.6252 L2101.95,898.2633 " fill="#EEEEEE" style="stroke:#000000;stroke-width:1.35;"/><rect fill="none" height="73.3799" style="stroke:#000000;stroke-width:1.35;" width="481.95" x="2101.95" y="898.2633"/><text fill="#000000" font-family="sans-serif" font-size="11.7" font-weight="bold" lengthAdjust="spacing" textLength="25.2" x="2115.45" y="911.7888">loop</text><text fill="#000000" font-family="sans-serif" font-size="9.9" font-weight="bold" lengthAdjust="spacing" textLength="258.3" x="2181.15" y="910.7464">[for each RequiredStaffDto within operationTypeDto]</text><polygon fill="#181818" points="2469.6,932.9871,2478.6,936.5871,2469.6,940.1871,2473.2,936.5871" style="stroke:#181818;stroke-width:0.9;"/><line style="stroke:#181818;stroke-width:0.9;" x1="2166.3" x2="2475" y1="936.5871" y2="936.5871"/><text fill="#000000" font-family="sans-serif" font-size="11.7" font-weight="bold" lengthAdjust="spacing" textLength="12.6" x="2172.6" y="931.8507">21</text><text fill="#000000" font-family="sans-serif" font-size="11.7" lengthAdjust="spacing" textLength="276.3" x="2188.8" y="931.8507">RequiredStaff(StaffQuantity, Function, Specialization)</text><rect fill="#E2E2F0" height="46.118" rx="2.25" ry="2.25" style="stroke:#181818;stroke-width:0.45;" width="94.5" x="2480.4" y="915.6252"/><text fill="#000000" font-family="sans-serif" font-size="12.6" lengthAdjust="spacing" textLength="55.8" x="2499.75" y="935.5219">&#171;domain&#187;</text><text fill="#000000" font-family="sans-serif" font-size="12.6" lengthAdjust="spacing" textLength="78.3" x="2490.3" y="952.2809">RequiredStaff</text><path d="M2101.95,984.2432 L2167.65,984.2432 L2167.65,992.6051 L2158.65,1001.6051 L2101.95,1001.6051 L2101.95,984.2432 " fill="#EEEEEE" style="stroke:#000000;stroke-width:1.35;"/><rect fill="none" height="73.3799" style="stroke:#000000;stroke-width:1.35;" width="326.7" x="2101.95" y="984.2432"/><text fill="#000000" font-family="sans-serif" font-size="11.7" font-weight="bold" lengthAdjust="spacing" textLength="25.2" x="2115.45" y="997.7687">loop</text><text fill="#000000" font-family="sans-serif" font-size="9.9" font-weight="bold" lengthAdjust="spacing" textLength="243" x="2181.15" y="996.7263">[for all 3 phases (Anesthesia, Surgery, Cleaning)]</text><polygon fill="#181818" points="2339.1,1018.967,2348.1,1022.567,2339.1,1026.167,2342.7,1022.567" style="stroke:#181818;stroke-width:0.9;"/><line style="stroke:#181818;stroke-width:0.9;" x1="2161.8" x2="2344.5" y1="1022.567" y2="1022.567"/><text fill="#000000" font-family="sans-serif" font-size="11.7" font-weight="bold" lengthAdjust="spacing" textLength="12.6" x="2168.1" y="1017.8306">22</text><text fill="#000000" font-family="sans-serif" font-size="11.7" lengthAdjust="spacing" textLength="145.8" x="2184.3" y="1017.8306">Phase(description, duration)</text><rect fill="#E2E2F0" height="46.118" rx="2.25" ry="2.25" style="stroke:#181818;stroke-width:0.45;" width="68.4" x="2349.9" y="1001.6051"/><text fill="#000000" font-family="sans-serif" font-size="12.6" lengthAdjust="spacing" textLength="55.8" x="2356.2" y="1021.5018">&#171;domain&#187;</text><text fill="#000000" font-family="sans-serif" font-size="12.6" lengthAdjust="spacing" textLength="36" x="2367.9" y="1038.2607">Phase</text><polygon fill="#181818" points="2005.2,1081.285,2014.2,1084.885,2005.2,1088.485,2008.8,1084.885" style="stroke:#181818;stroke-width:0.9;"/><line style="stroke:#181818;stroke-width:0.9;" x1="1683.45" x2="2010.6" y1="1084.885" y2="1084.885"/><text fill="#000000" font-family="sans-serif" font-size="11.7" font-weight="bold" lengthAdjust="spacing" textLength="12.6" x="1689.75" y="1080.1485">23</text><text fill="#000000" font-family="sans-serif" font-size="11.7" lengthAdjust="spacing" textLength="134.1" x="1705.95" y="1080.1485">AddAsync(operationType)</text><polygon fill="#181818" points="1693.35,1109.4469,1684.35,1113.0469,1693.35,1116.6469,1689.75,1113.0469" style="stroke:#181818;stroke-width:0.9;"/><line style="stroke:#181818;stroke-width:0.9;stroke-dasharray:2.0,2.0;" x1="1687.95" x2="2019.6" y1="1113.0469" y2="1113.0469"/><text fill="#000000" font-family="sans-serif" font-size="11.7" font-weight="bold" lengthAdjust="spacing" textLength="12.6" x="1698.75" y="1108.3104">24</text><text fill="#000000" font-family="sans-serif" font-size="11.7" lengthAdjust="spacing" textLength="90.9" x="1714.95" y="1108.3104">operationTypeDto</text><polygon fill="#181818" points="410.4,1137.6088,401.4,1141.2088,410.4,1144.8088,406.8,1141.2088" style="stroke:#181818;stroke-width:0.9;"/><line style="stroke:#181818;stroke-width:0.9;stroke-dasharray:2.0,2.0;" x1="405" x2="1678.05" y1="1141.2088" y2="1141.2088"/><text fill="#000000" font-family="sans-serif" font-size="11.7" font-weight="bold" lengthAdjust="spacing" textLength="12.6" x="415.8" y="1136.4724">25</text><text fill="#000000" font-family="sans-serif" font-size="11.7" lengthAdjust="spacing" textLength="90.9" x="432" y="1136.4724">operationTypeDto</text><polygon fill="#181818" points="1663.65,1165.7707,1672.65,1169.3707,1663.65,1172.9707,1667.25,1169.3707" style="stroke:#181818;stroke-width:0.9;"/><line style="stroke:#181818;stroke-width:0.9;" x1="400.5" x2="1669.05" y1="1169.3707" y2="1169.3707"/><text fill="#000000" font-family="sans-serif" font-size="11.7" font-weight="bold" lengthAdjust="spacing" textLength="12.6" x="406.8" y="1164.6343">26</text><text fill="#000000" font-family="sans-serif" font-size="11.7" lengthAdjust="spacing" textLength="207.9" x="423" y="1164.6343">GetByIdAsync(operationTypeDto.Name)</text><polygon fill="#181818" points="410.4,1193.9326,401.4,1197.5326,410.4,1201.1326,406.8,1197.5326" style="stroke:#181818;stroke-width:0.9;"/><line style="stroke:#181818;stroke-width:0.9;stroke-dasharray:2.0,2.0;" x1="405" x2="1678.05" y1="1197.5326" y2="1197.5326"/><text fill="#000000" font-family="sans-serif" font-size="11.7" font-weight="bold" lengthAdjust="spacing" textLength="12.6" x="415.8" y="1192.7962">27</text><text fill="#000000" font-family="sans-serif" font-size="11.7" lengthAdjust="spacing" textLength="90.9" x="432" y="1192.7962">operationTypeDto</text><polygon fill="#181818" points="186.3,1222.0945,177.3,1225.6945,186.3,1229.2945,182.7,1225.6945" style="stroke:#181818;stroke-width:0.9;"/><line style="stroke:#181818;stroke-width:0.9;stroke-dasharray:2.0,2.0;" x1="180.9" x2="395.1" y1="1225.6945" y2="1225.6945"/><text fill="#000000" font-family="sans-serif" font-size="11.7" font-weight="bold" lengthAdjust="spacing" textLength="12.6" x="191.7" y="1220.9581">28</text><text fill="#000000" font-family="sans-serif" font-size="11.7" lengthAdjust="spacing" textLength="90.9" x="207.9" y="1220.9581">operationTypeDto</text><path d="M9.9,1239.1945 L64.8,1239.1945 L64.8,1247.5564 L55.8,1256.5564 L9.9,1256.5564 L9.9,1239.1945 " fill="#EEEEEE" style="stroke:#000000;stroke-width:1.35;"/><rect fill="none" height="88.6535" style="stroke:#000000;stroke-width:1.35;" width="201.15" x="9.9" y="1239.1945"/><text fill="#000000" font-family="sans-serif" font-size="11.7" font-weight="bold" lengthAdjust="spacing" textLength="14.4" x="23.4" y="1252.72">alt</text><text fill="#000000" font-family="sans-serif" font-size="9.9" font-weight="bold" lengthAdjust="spacing" textLength="49.5" x="78.3" y="1251.6776">[success]</text><ellipse cx="6.75" cy="1276.8434" fill="none" rx="3.6" ry="3.6" style="stroke:#181818;stroke-width:1.35;"/><polygon fill="#181818" points="22.05,1273.9184,13.05,1277.5184,22.05,1281.1184,18.45,1277.5184" style="stroke:#181818;stroke-width:0.9;"/><line style="stroke:#181818;stroke-width:0.9;stroke-dasharray:2.0,2.0;" x1="20.25" x2="166.5" y1="1277.5184" y2="1277.5184"/><text fill="#000000" font-family="sans-serif" font-size="11.7" font-weight="bold" lengthAdjust="spacing" textLength="12.6" x="22.5" y="1272.7819">29</text><text fill="#000000" font-family="sans-serif" font-size="11.7" lengthAdjust="spacing" textLength="39.6" x="38.7" y="1272.7819">200 OK</text><line style="stroke:#000000;stroke-width:0.9;stroke-dasharray:2.0,2.0;" x1="9.9" x2="211.05" y1="1285.6184" y2="1285.6184"/><text fill="#000000" font-family="sans-serif" font-size="9.9" font-weight="bold" lengthAdjust="spacing" textLength="38.7" x="14.4" y="1296.3015">[failure]</text><ellipse cx="6.75" cy="1319.973" fill="none" rx="3.6" ry="3.6" style="stroke:#181818;stroke-width:1.35;"/><polygon fill="#181818" points="22.05,1317.048,13.05,1320.648,22.05,1324.248,18.45,1320.648" style="stroke:#181818;stroke-width:0.9;"/><line style="stroke:#181818;stroke-width:0.9;stroke-dasharray:2.0,2.0;" x1="20.25" x2="171" y1="1320.648" y2="1320.648"/><text fill="#000000" font-family="sans-serif" font-size="11.7" font-weight="bold" lengthAdjust="spacing" textLength="12.6" x="22.5" y="1315.9116">30</text><text fill="#000000" font-family="sans-serif" font-size="11.7" lengthAdjust="spacing" textLength="90" x="38.7" y="1315.9116">400 Bad Request</text><!--SRC=[fLRHRjCm57ttLrYyaA9r7GDUq3If6niWfhMq1Gd1YvVShaQk7MndKz4-7Zjk73jrqqcyL6byp_7nlVTSv-LAwrAz7urAHhYkrkmu5-kHWZyLy1o61INtagmHqbGpmD_c-Dtnw-FJ4poL8WUby7SAZpYxWGTW-Cq08L9fmQlr7KY4IY8rpMbfYF6BipCfAWtdvxyudfadokzVOABmRF9jSTKDpGNNKZ06iewVb229fe8lDYLS-hKQVpcvNSmcDpkxAP0FD7VxpKl8AM7qRqqoToirUdTbHpMKGb4jv2P1DVEB2JQxs6Khj4ZGV5XC4dZpjlTKCy4WF4lp_y09R5X7T_DgdrgxtcZSFYFqlAEDUN5TyTpbGvM2Aul6ZgfziPSjAdsZOJ9T_B2WdkH4k31B5flAKY7MXF8QsmYkuvi_-mGswussu3ywK8b8OwSaLcQo9AtC2Ev1g0SnNH7b8gUVnlEhdiYP6G1KGZ7NPBbqlRaONr-RglyKmtDdMlmUVxnQP0Cy8YKTYKQDDceK8YO93qJ3rj_88GnqwrS3lWSzPYnk5nNqYye6BOstUOCtLBlcjP9grh7Qy3p49uoE4lWTLbi3mxgal32q-ndhMg44ThXFg8eFVaELHWNqqZCXIhmK4fkmLOS0Kuxr2Z2pFCywclNXgrT6YHRcCOlf1WXuWUs6QRAeaZ7KdiHs_zx3kEm7XMmywPl2ju3b2fFktOiynk2RS8yF8Tx0o8SDupsNuMwXx1RgCqyOQ-EJ8ipHcwngaJMnOJvRL9J59ZIHl_ROGTR2URgtZbkoeoxx8A9gHVnMWcUoPKvOCD2rwyfWE5YgPF1FSJOS-h39byn63iBGxT1uUdf2w6KfnHsvOnj76CsVwMI-sAAVCN0k9PY0J7Ikb0DJ9cYKSL6umT93qPOgwWxxxAeKZUr3J5tFHtFPz1T-f7fbd1_JQE4shprlvxRREG9dzU_Noin-gZT7ldsFEcOD6pTomHjSskj4uMpCGPdHeoWnu4hUWpHybmm8DnzvWrPAVUauAVLDb1MWSabBjsrHoUs6dSPFEkVStv1xwz99fHkX7jMP0Ji9x8XeqGdd7WBt3JnpNrriFYVxIelZMx86-rNTD__-HqhWfJwazmLX6gigjv_-7HkVdfmOAoC4J05U4ieg2LshlpKn5wIe6n7YKUjSQojjja3e7m00]--></g></svg>