<?xml version="1.0" encoding="us-ascii" standalone="no"?><svg xmlns="http://www.w3.org/2000/svg" xmlns:xlink="http://www.w3.org/1999/xlink" contentStyleType="text/css" height="1220px" preserveAspectRatio="none" style="width:1542px;height:1220px;background:#FFFFFF;" version="1.1" viewBox="0 0 1542 1220" width="1542px" zoomAndPan="magnify"><defs/><g><text fill="#000000" font-family="sans-serif" font-size="14" font-weight="bold" lengthAdjust="spacing" textLength="226" x="657" y="30.1074">US 5.1.20 Process View (Level 3)</text><rect fill="#FFFFFF" height="358.8613" style="stroke:#181818;stroke-width:1.0;" width="10" x="145" y="130.1543"/><rect fill="#FFFFFF" height="593.8984" style="stroke:#181818;stroke-width:1.0;" width="10" x="145" y="545.3066"/><rect fill="#FFFFFF" height="296.2793" style="stroke:#181818;stroke-width:1.0;" width="10" x="351" y="161.4453"/><rect fill="#FFFFFF" height="457.1035" style="stroke:#181818;stroke-width:1.0;" width="10" x="351" y="576.5977"/><rect fill="#FFFFFF" height="189.4063" style="stroke:#181818;stroke-width:1.0;" width="10" x="498.5" y="192.7363"/><rect fill="#FFFFFF" height="31.291" style="stroke:#181818;stroke-width:1.0;" width="10" x="616" y="224.0273"/><rect fill="#FFFFFF" height="332.2793" style="stroke:#181818;stroke-width:1.0;" width="10" x="1026.5" y="670.1309"/><rect fill="#FFFFFF" height="104.873" style="stroke:#181818;stroke-width:1.0;" width="10" x="1031.5" y="709.4219"/><rect fill="#FFFFFF" height="31.291" style="stroke:#181818;stroke-width:1.0;" width="10" x="1317.5" y="745.7129"/><rect fill="#FFFFFF" height="31.291" style="stroke:#181818;stroke-width:1.0;" width="10" x="1317.5" y="939.8281"/><rect fill="none" height="81.5332" style="stroke:#000000;stroke-width:1.5;" width="355" x="443.5" y="270.3184"/><rect fill="none" height="98.5039" style="stroke:#000000;stroke-width:1.5;" width="199" x="11" y="1048.7012"/><line style="stroke:#181818;stroke-width:0.5;stroke-dasharray:5.0,5.0;" x1="150" x2="150" y1="96.8633" y2="1164.2051"/><line style="stroke:#181818;stroke-width:0.5;stroke-dasharray:5.0,5.0;" x1="355.5" x2="355.5" y1="96.8633" y2="1164.2051"/><line style="stroke:#181818;stroke-width:0.5;stroke-dasharray:5.0,5.0;" x1="503.5" x2="503.5" y1="96.8633" y2="1164.2051"/><line style="stroke:#181818;stroke-width:0.5;stroke-dasharray:5.0,5.0;" x1="620.5" x2="620.5" y1="96.8633" y2="1164.2051"/><line style="stroke:#181818;stroke-width:0.5;stroke-dasharray:5.0,5.0;" x1="738.5" x2="738.5" y1="330.7305" y2="1164.2051"/><line style="stroke:#181818;stroke-width:0.5;stroke-dasharray:5.0,5.0;" x1="869.5" x2="869.5" y1="625.7188" y2="1164.2051"/><line style="stroke:#181818;stroke-width:0.5;stroke-dasharray:5.0,5.0;" x1="1031.5" x2="1031.5" y1="96.8633" y2="1164.2051"/><line style="stroke:#181818;stroke-width:0.5;stroke-dasharray:5.0,5.0;" x1="1322" x2="1322" y1="96.8633" y2="1164.2051"/><line style="stroke:#181818;stroke-width:0.5;stroke-dasharray:5.0,5.0;" x1="1479" x2="1479" y1="895.416" y2="1164.2051"/><rect fill="#E2E2F0" height="51.2422" rx="2.5" ry="2.5" style="stroke:#181818;stroke-width:0.5;" width="100" x="100" y="44.6211"/><text fill="#000000" font-family="sans-serif" font-size="14" lengthAdjust="spacing" textLength="86" x="107" y="66.7285">&#171;component&#187;</text><text fill="#000000" font-family="sans-serif" font-size="14" lengthAdjust="spacing" textLength="49" x="127.5" y="85.3496">Routing</text><rect fill="#E2E2F0" height="51.2422" rx="2.5" ry="2.5" style="stroke:#181818;stroke-width:0.5;" width="100" x="100" y="1163.2051"/><text fill="#000000" font-family="sans-serif" font-size="14" lengthAdjust="spacing" textLength="86" x="107" y="1185.3125">&#171;component&#187;</text><text fill="#000000" font-family="sans-serif" font-size="14" lengthAdjust="spacing" textLength="49" x="127.5" y="1203.9336">Routing</text><rect fill="#E2E2F0" height="51.2422" rx="2.5" ry="2.5" style="stroke:#181818;stroke-width:0.5;" width="175" x="268.5" y="44.6211"/><text fill="#000000" font-family="sans-serif" font-size="14" lengthAdjust="spacing" textLength="86" x="313" y="66.7285">&#171;component&#187;</text><text fill="#000000" font-family="sans-serif" font-size="14" lengthAdjust="spacing" textLength="157" x="279.5" y="85.3496">OperationTypeController</text><rect fill="#E2E2F0" height="51.2422" rx="2.5" ry="2.5" style="stroke:#181818;stroke-width:0.5;" width="175" x="268.5" y="1163.2051"/><text fill="#000000" font-family="sans-serif" font-size="14" lengthAdjust="spacing" textLength="86" x="313" y="1185.3125">&#171;component&#187;</text><text fill="#000000" font-family="sans-serif" font-size="14" lengthAdjust="spacing" textLength="157" x="279.5" y="1203.9336">OperationTypeController</text><rect fill="#E2E2F0" height="51.2422" rx="2.5" ry="2.5" style="stroke:#181818;stroke-width:0.5;" width="100" x="453.5" y="44.6211"/><text fill="#000000" font-family="sans-serif" font-size="14" lengthAdjust="spacing" textLength="86" x="460.5" y="66.7285">&#171;component&#187;</text><text fill="#000000" font-family="sans-serif" font-size="14" lengthAdjust="spacing" textLength="76" x="467.5" y="85.3496">StaffService</text><rect fill="#E2E2F0" height="51.2422" rx="2.5" ry="2.5" style="stroke:#181818;stroke-width:0.5;" width="100" x="453.5" y="1163.2051"/><text fill="#000000" font-family="sans-serif" font-size="14" lengthAdjust="spacing" textLength="86" x="460.5" y="1185.3125">&#171;component&#187;</text><text fill="#000000" font-family="sans-serif" font-size="14" lengthAdjust="spacing" textLength="76" x="467.5" y="1203.9336">StaffService</text><rect fill="#E2E2F0" height="51.2422" rx="2.5" ry="2.5" style="stroke:#181818;stroke-width:0.5;" width="115" x="563.5" y="44.6211"/><text fill="#000000" font-family="sans-serif" font-size="14" lengthAdjust="spacing" textLength="86" x="578" y="66.7285">&#171;component&#187;</text><text fill="#000000" font-family="sans-serif" font-size="14" lengthAdjust="spacing" textLength="97" x="574.5" y="85.3496">StaffRepository</text><rect fill="#E2E2F0" height="51.2422" rx="2.5" ry="2.5" style="stroke:#181818;stroke-width:0.5;" width="115" x="563.5" y="1163.2051"/><text fill="#000000" font-family="sans-serif" font-size="14" lengthAdjust="spacing" textLength="86" x="578" y="1185.3125">&#171;component&#187;</text><text fill="#000000" font-family="sans-serif" font-size="14" lengthAdjust="spacing" textLength="97" x="574.5" y="1203.9336">StaffRepository</text><rect fill="#E2E2F0" height="51.2422" rx="2.5" ry="2.5" style="stroke:#181818;stroke-width:0.5;" width="100" x="688.5" y="1163.2051"/><text fill="#000000" font-family="sans-serif" font-size="14" lengthAdjust="spacing" textLength="86" x="695.5" y="1185.3125">&#171;component&#187;</text><text fill="#000000" font-family="sans-serif" font-size="14" lengthAdjust="spacing" textLength="59" x="711" y="1203.9336">StaffDTO</text><rect fill="#E2E2F0" height="51.2422" rx="2.5" ry="2.5" style="stroke:#181818;stroke-width:0.5;" width="143" x="798.5" y="1163.2051"/><text fill="#000000" font-family="sans-serif" font-size="14" lengthAdjust="spacing" textLength="86" x="827" y="1185.3125">&#171;component&#187;</text><text fill="#000000" font-family="sans-serif" font-size="14" lengthAdjust="spacing" textLength="125" x="809.5" y="1203.9336">OperationTypeDTO</text><rect fill="#E2E2F0" height="51.2422" rx="2.5" ry="2.5" style="stroke:#181818;stroke-width:0.5;" width="160" x="951.5" y="44.6211"/><text fill="#000000" font-family="sans-serif" font-size="14" lengthAdjust="spacing" textLength="86" x="988.5" y="66.7285">&#171;component&#187;</text><text fill="#000000" font-family="sans-serif" font-size="14" lengthAdjust="spacing" textLength="142" x="962.5" y="85.3496">OperationTypeService</text><rect fill="#E2E2F0" height="51.2422" rx="2.5" ry="2.5" style="stroke:#181818;stroke-width:0.5;" width="160" x="951.5" y="1163.2051"/><text fill="#000000" font-family="sans-serif" font-size="14" lengthAdjust="spacing" textLength="86" x="988.5" y="1185.3125">&#171;component&#187;</text><text fill="#000000" font-family="sans-serif" font-size="14" lengthAdjust="spacing" textLength="142" x="962.5" y="1203.9336">OperationTypeService</text><rect fill="#E2E2F0" height="51.2422" rx="2.5" ry="2.5" style="stroke:#181818;stroke-width:0.5;" width="181" x="1232" y="44.6211"/><text fill="#000000" font-family="sans-serif" font-size="14" lengthAdjust="spacing" textLength="86" x="1279.5" y="66.7285">&#171;component&#187;</text><text fill="#000000" font-family="sans-serif" font-size="14" lengthAdjust="spacing" textLength="163" x="1243" y="85.3496">OperationTypeRepository</text><rect fill="#E2E2F0" height="51.2422" rx="2.5" ry="2.5" style="stroke:#181818;stroke-width:0.5;" width="181" x="1232" y="1163.2051"/><text fill="#000000" font-family="sans-serif" font-size="14" lengthAdjust="spacing" textLength="86" x="1279.5" y="1185.3125">&#171;component&#187;</text><text fill="#000000" font-family="sans-serif" font-size="14" lengthAdjust="spacing" textLength="163" x="1243" y="1203.9336">OperationTypeRepository</text><rect fill="#E2E2F0" height="51.2422" rx="2.5" ry="2.5" style="stroke:#181818;stroke-width:0.5;" width="113" x="1423" y="1163.2051"/><text fill="#000000" font-family="sans-serif" font-size="14" lengthAdjust="spacing" textLength="86" x="1436.5" y="1185.3125">&#171;component&#187;</text><text fill="#000000" font-family="sans-serif" font-size="14" lengthAdjust="spacing" textLength="95" x="1434" y="1203.9336">OperationType</text><rect fill="#FFFFFF" height="358.8613" style="stroke:#181818;stroke-width:1.0;" width="10" x="145" y="130.1543"/><rect fill="#FFFFFF" height="593.8984" style="stroke:#181818;stroke-width:1.0;" width="10" x="145" y="545.3066"/><rect fill="#FFFFFF" height="296.2793" style="stroke:#181818;stroke-width:1.0;" width="10" x="351" y="161.4453"/><rect fill="#FFFFFF" height="457.1035" style="stroke:#181818;stroke-width:1.0;" width="10" x="351" y="576.5977"/><rect fill="#FFFFFF" height="189.4063" style="stroke:#181818;stroke-width:1.0;" width="10" x="498.5" y="192.7363"/><rect fill="#FFFFFF" height="31.291" style="stroke:#181818;stroke-width:1.0;" width="10" x="616" y="224.0273"/><rect fill="#FFFFFF" height="332.2793" style="stroke:#181818;stroke-width:1.0;" width="10" x="1026.5" y="670.1309"/><rect fill="#FFFFFF" height="104.873" style="stroke:#181818;stroke-width:1.0;" width="10" x="1031.5" y="709.4219"/><rect fill="#FFFFFF" height="31.291" style="stroke:#181818;stroke-width:1.0;" width="10" x="1317.5" y="745.7129"/><rect fill="#FFFFFF" height="31.291" style="stroke:#181818;stroke-width:1.0;" width="10" x="1317.5" y="939.8281"/><ellipse cx="7.5" cy="129.4043" fill="none" rx="4" ry="4" style="stroke:#181818;stroke-width:1.5;"/><polygon fill="#181818" points="133,126.1543,143,130.1543,133,134.1543,137,130.1543" style="stroke:#181818;stroke-width:1.0;"/><line style="stroke:#181818;stroke-width:1.0;" x1="12" x2="139" y1="130.1543" y2="130.1543"/><text fill="#000000" font-family="sans-serif" font-size="13" font-weight="bold" lengthAdjust="spacing" textLength="7" x="15" y="124.8916">1</text><text fill="#000000" font-family="sans-serif" font-size="13" lengthAdjust="spacing" textLength="34" x="26" y="124.8916">GET()</text><polygon fill="#181818" points="339,157.4453,349,161.4453,339,165.4453,343,161.4453" style="stroke:#181818;stroke-width:1.0;"/><line style="stroke:#181818;stroke-width:1.0;" x1="155" x2="345" y1="161.4453" y2="161.4453"/><text fill="#000000" font-family="sans-serif" font-size="13" font-weight="bold" lengthAdjust="spacing" textLength="7" x="162" y="156.1826">2</text><text fill="#000000" font-family="sans-serif" font-size="13" lengthAdjust="spacing" textLength="67" x="173" y="156.1826">getAllStaff()</text><polygon fill="#181818" points="486.5,188.7363,496.5,192.7363,486.5,196.7363,490.5,192.7363" style="stroke:#181818;stroke-width:1.0;"/><line style="stroke:#181818;stroke-width:1.0;" x1="361" x2="492.5" y1="192.7363" y2="192.7363"/><text fill="#000000" font-family="sans-serif" font-size="13" font-weight="bold" lengthAdjust="spacing" textLength="7" x="368" y="187.4736">3</text><text fill="#000000" font-family="sans-serif" font-size="13" lengthAdjust="spacing" textLength="88" x="379" y="187.4736">getAllStaffList()</text><polygon fill="#181818" points="604,220.0273,614,224.0273,604,228.0273,608,224.0273" style="stroke:#181818;stroke-width:1.0;"/><line style="stroke:#181818;stroke-width:1.0;" x1="508.5" x2="610" y1="224.0273" y2="224.0273"/><text fill="#000000" font-family="sans-serif" font-size="13" font-weight="bold" lengthAdjust="spacing" textLength="7" x="515.5" y="218.7646">4</text><text fill="#000000" font-family="sans-serif" font-size="13" lengthAdjust="spacing" textLength="43" x="526.5" y="218.7646">findAll()</text><polygon fill="#181818" points="519.5,251.3184,509.5,255.3184,519.5,259.3184,515.5,255.3184" style="stroke:#181818;stroke-width:1.0;"/><line style="stroke:#181818;stroke-width:1.0;stroke-dasharray:2.0,2.0;" x1="513.5" x2="620" y1="255.3184" y2="255.3184"/><text fill="#000000" font-family="sans-serif" font-size="13" font-weight="bold" lengthAdjust="spacing" textLength="7" x="525.5" y="250.0557">5</text><text fill="#000000" font-family="sans-serif" font-size="13" lengthAdjust="spacing" textLength="45" x="536.5" y="250.0557">staffList</text><path d="M443.5,270.3184 L516.5,270.3184 L516.5,279.6094 L506.5,289.6094 L443.5,289.6094 L443.5,270.3184 " fill="#EEEEEE" style="stroke:#000000;stroke-width:1.5;"/><rect fill="none" height="81.5332" style="stroke:#000000;stroke-width:1.5;" width="355" x="443.5" y="270.3184"/><text fill="#000000" font-family="sans-serif" font-size="13" font-weight="bold" lengthAdjust="spacing" textLength="28" x="458.5" y="285.3467">loop</text><text fill="#000000" font-family="sans-serif" font-size="11" font-weight="bold" lengthAdjust="spacing" textLength="149" x="531.5" y="284.1885">[for all staff in the staff list]</text><polygon fill="#181818" points="676.5,308.9004,686.5,312.9004,676.5,316.9004,680.5,312.9004" style="stroke:#181818;stroke-width:1.0;"/><line style="stroke:#181818;stroke-width:1.0;" x1="508.5" x2="682.5" y1="312.9004" y2="312.9004"/><text fill="#000000" font-family="sans-serif" font-size="13" font-weight="bold" lengthAdjust="spacing" textLength="7" x="515.5" y="307.6377">6</text><text fill="#000000" font-family="sans-serif" font-size="13" lengthAdjust="spacing" textLength="69" x="526.5" y="307.6377">toDTO(staff)</text><rect fill="#E2E2F0" height="51.2422" rx="2.5" ry="2.5" style="stroke:#181818;stroke-width:0.5;" width="100" x="688.5" y="289.6094"/><text fill="#000000" font-family="sans-serif" font-size="14" lengthAdjust="spacing" textLength="86" x="695.5" y="311.7168">&#171;component&#187;</text><text fill="#000000" font-family="sans-serif" font-size="14" lengthAdjust="spacing" textLength="59" x="711" y="330.3379">StaffDTO</text><polygon fill="#181818" points="372,378.1426,362,382.1426,372,386.1426,368,382.1426" style="stroke:#181818;stroke-width:1.0;"/><line style="stroke:#181818;stroke-width:1.0;stroke-dasharray:2.0,2.0;" x1="366" x2="502.5" y1="382.1426" y2="382.1426"/><text fill="#000000" font-family="sans-serif" font-size="13" font-weight="bold" lengthAdjust="spacing" textLength="7" x="378" y="376.8799">7</text><text fill="#000000" font-family="sans-serif" font-size="13" lengthAdjust="spacing" textLength="71" x="389" y="376.8799">staffListDTO</text><line style="stroke:#181818;stroke-width:1.0;" x1="361" x2="403" y1="413.4336" y2="413.4336"/><line style="stroke:#181818;stroke-width:1.0;" x1="403" x2="403" y1="413.4336" y2="426.4336"/><line style="stroke:#181818;stroke-width:1.0;" x1="362" x2="403" y1="426.4336" y2="426.4336"/><polygon fill="#181818" points="372,422.4336,362,426.4336,372,430.4336,368,426.4336" style="stroke:#181818;stroke-width:1.0;"/><text fill="#000000" font-family="sans-serif" font-size="13" font-weight="bold" lengthAdjust="spacing" textLength="7" x="368" y="408.1709">8</text><text fill="#000000" font-family="sans-serif" font-size="13" lengthAdjust="spacing" textLength="103" x="379" y="408.1709">json(staffListDTO)</text><polygon fill="#181818" points="166,453.7246,156,457.7246,166,461.7246,162,457.7246" style="stroke:#181818;stroke-width:1.0;"/><line style="stroke:#181818;stroke-width:1.0;stroke-dasharray:2.0,2.0;" x1="160" x2="355" y1="457.7246" y2="457.7246"/><text fill="#000000" font-family="sans-serif" font-size="13" font-weight="bold" lengthAdjust="spacing" textLength="7" x="172" y="452.4619">9</text><text fill="#000000" font-family="sans-serif" font-size="13" lengthAdjust="spacing" textLength="24" x="183" y="452.4619">json</text><ellipse cx="7.5" cy="488.2656" fill="none" rx="4" ry="4" style="stroke:#181818;stroke-width:1.5;"/><polygon fill="#181818" points="24.5,485.0156,14.5,489.0156,24.5,493.0156,20.5,489.0156" style="stroke:#181818;stroke-width:1.0;"/><line style="stroke:#181818;stroke-width:1.0;stroke-dasharray:2.0,2.0;" x1="22.5" x2="149" y1="489.0156" y2="489.0156"/><text fill="#000000" font-family="sans-serif" font-size="13" font-weight="bold" lengthAdjust="spacing" textLength="14" x="25" y="483.7529">10</text><text fill="#000000" font-family="sans-serif" font-size="13" lengthAdjust="spacing" textLength="46" x="43" y="483.7529">ok(json)</text><ellipse cx="7.5" cy="544.5566" fill="none" rx="4" ry="4" style="stroke:#181818;stroke-width:1.5;"/><polygon fill="#181818" points="133,541.3066,143,545.3066,133,549.3066,137,545.3066" style="stroke:#181818;stroke-width:1.0;"/><line style="stroke:#181818;stroke-width:1.0;" x1="12" x2="139" y1="545.3066" y2="545.3066"/><text fill="#000000" font-family="sans-serif" font-size="13" font-weight="bold" lengthAdjust="spacing" textLength="14" x="15" y="540.0439">11</text><text fill="#000000" font-family="sans-serif" font-size="13" lengthAdjust="spacing" textLength="67" x="33" y="540.0439">POST(json)</text><polygon fill="#181818" points="339,572.5977,349,576.5977,339,580.5977,343,576.5977" style="stroke:#181818;stroke-width:1.0;"/><line style="stroke:#181818;stroke-width:1.0;" x1="155" x2="345" y1="576.5977" y2="576.5977"/><text fill="#000000" font-family="sans-serif" font-size="13" font-weight="bold" lengthAdjust="spacing" textLength="14" x="162" y="571.335">12</text><text fill="#000000" font-family="sans-serif" font-size="13" lengthAdjust="spacing" textLength="159" x="180" y="571.335">registerOperationType(json)</text><polygon fill="#181818" points="786.5,603.8887,796.5,607.8887,786.5,611.8887,790.5,607.8887" style="stroke:#181818;stroke-width:1.0;"/><line style="stroke:#181818;stroke-width:1.0;" x1="361" x2="792.5" y1="607.8887" y2="607.8887"/><text fill="#000000" font-family="sans-serif" font-size="13" font-weight="bold" lengthAdjust="spacing" textLength="14" x="368" y="602.626">13</text><text fill="#000000" font-family="sans-serif" font-size="13" lengthAdjust="spacing" textLength="153" x="386" y="602.626">toDTO(operationTypeData)</text><rect fill="#E2E2F0" height="51.2422" rx="2.5" ry="2.5" style="stroke:#181818;stroke-width:0.5;" width="143" x="798.5" y="584.5977"/><text fill="#000000" font-family="sans-serif" font-size="14" lengthAdjust="spacing" textLength="86" x="827" y="606.7051">&#171;component&#187;</text><text fill="#000000" font-family="sans-serif" font-size="14" lengthAdjust="spacing" textLength="125" x="809.5" y="625.3262">OperationTypeDTO</text><polygon fill="#181818" points="1014.5,666.1309,1024.5,670.1309,1014.5,674.1309,1018.5,670.1309" style="stroke:#181818;stroke-width:1.0;"/><line style="stroke:#181818;stroke-width:1.0;" x1="361" x2="1020.5" y1="670.1309" y2="670.1309"/><text fill="#000000" font-family="sans-serif" font-size="13" font-weight="bold" lengthAdjust="spacing" textLength="14" x="368" y="664.8682">14</text><text fill="#000000" font-family="sans-serif" font-size="13" lengthAdjust="spacing" textLength="242" x="386" y="664.8682">registerOperationType(operationTypeDTO)</text><line style="stroke:#181818;stroke-width:1.0;" x1="1036.5" x2="1083.5" y1="696.4219" y2="696.4219"/><line style="stroke:#181818;stroke-width:1.0;" x1="1083.5" x2="1083.5" y1="696.4219" y2="709.4219"/><line style="stroke:#181818;stroke-width:1.0;" x1="1042.5" x2="1083.5" y1="709.4219" y2="709.4219"/><polygon fill="#181818" points="1052.5,705.4219,1042.5,709.4219,1052.5,713.4219,1048.5,709.4219" style="stroke:#181818;stroke-width:1.0;"/><text fill="#000000" font-family="sans-serif" font-size="13" font-weight="bold" lengthAdjust="spacing" textLength="14" x="1048.5" y="691.1592">15</text><text fill="#000000" font-family="sans-serif" font-size="13" lengthAdjust="spacing" textLength="249" x="1066.5" y="691.1592">checkIfOperationExists(operationTypeDTO)</text><polygon fill="#181818" points="1305.5,741.7129,1315.5,745.7129,1305.5,749.7129,1309.5,745.7129" style="stroke:#181818;stroke-width:1.0;"/><line style="stroke:#181818;stroke-width:1.0;" x1="1041.5" x2="1311.5" y1="745.7129" y2="745.7129"/><text fill="#000000" font-family="sans-serif" font-size="13" font-weight="bold" lengthAdjust="spacing" textLength="14" x="1048.5" y="740.4502">16</text><text fill="#000000" font-family="sans-serif" font-size="13" lengthAdjust="spacing" textLength="196" x="1066.5" y="740.4502">findByName(OperationTypeName)</text><polygon fill="#181818" points="1052.5,773.0039,1042.5,777.0039,1052.5,781.0039,1048.5,777.0039" style="stroke:#181818;stroke-width:1.0;"/><line style="stroke:#181818;stroke-width:1.0;stroke-dasharray:2.0,2.0;" x1="1046.5" x2="1321.5" y1="777.0039" y2="777.0039"/><text fill="#000000" font-family="sans-serif" font-size="13" font-weight="bold" lengthAdjust="spacing" textLength="14" x="1058.5" y="771.7412">17</text><text fill="#000000" font-family="sans-serif" font-size="13" lengthAdjust="spacing" textLength="33" x="1076.5" y="771.7412">return</text><line style="stroke:#181818;stroke-width:1.0;stroke-dasharray:2.0,2.0;" x1="1041.5" x2="1083.5" y1="813.2949" y2="813.2949"/><line style="stroke:#181818;stroke-width:1.0;stroke-dasharray:2.0,2.0;" x1="1083.5" x2="1083.5" y1="813.2949" y2="826.2949"/><line style="stroke:#181818;stroke-width:1.0;stroke-dasharray:2.0,2.0;" x1="1036.5" x2="1083.5" y1="826.2949" y2="826.2949"/><polygon fill="#181818" points="1046.5,822.2949,1036.5,826.2949,1046.5,830.2949,1042.5,826.2949" style="stroke:#181818;stroke-width:1.0;"/><text fill="#000000" font-family="sans-serif" font-size="13" font-weight="bold" lengthAdjust="spacing" textLength="14" x="1048.5" y="808.0322">18</text><text fill="#000000" font-family="sans-serif" font-size="13" lengthAdjust="spacing" textLength="27" x="1066.5" y="808.0322">false</text><polygon fill="#181818" points="1411,873.5859,1421,877.5859,1411,881.5859,1415,877.5859" style="stroke:#181818;stroke-width:1.0;"/><line style="stroke:#181818;stroke-width:1.0;" x1="1036.5" x2="1417" y1="877.5859" y2="877.5859"/><text fill="#000000" font-family="sans-serif" font-size="13" font-weight="bold" lengthAdjust="spacing" textLength="14" x="1043.5" y="872.3232">19</text><text fill="#000000" font-family="sans-serif" font-size="13" lengthAdjust="spacing" textLength="199" x="1061.5" y="872.3232">OperationType(operationTypeDTO)</text><rect fill="#E2E2F0" height="51.2422" rx="2.5" ry="2.5" style="stroke:#181818;stroke-width:0.5;" width="113" x="1423" y="854.2949"/><text fill="#000000" font-family="sans-serif" font-size="14" lengthAdjust="spacing" textLength="86" x="1436.5" y="876.4023">&#171;component&#187;</text><text fill="#000000" font-family="sans-serif" font-size="14" lengthAdjust="spacing" textLength="95" x="1434" y="895.0234">OperationType</text><polygon fill="#181818" points="1305.5,935.8281,1315.5,939.8281,1305.5,943.8281,1309.5,939.8281" style="stroke:#181818;stroke-width:1.0;"/><line style="stroke:#181818;stroke-width:1.0;" x1="1036.5" x2="1311.5" y1="939.8281" y2="939.8281"/><text fill="#000000" font-family="sans-serif" font-size="13" font-weight="bold" lengthAdjust="spacing" textLength="14" x="1043.5" y="934.5654">20</text><text fill="#000000" font-family="sans-serif" font-size="13" lengthAdjust="spacing" textLength="115" x="1061.5" y="934.5654">save(operationType)</text><polygon fill="#181818" points="1047.5,967.1191,1037.5,971.1191,1047.5,975.1191,1043.5,971.1191" style="stroke:#181818;stroke-width:1.0;"/><line style="stroke:#181818;stroke-width:1.0;stroke-dasharray:2.0,2.0;" x1="1041.5" x2="1321.5" y1="971.1191" y2="971.1191"/><text fill="#000000" font-family="sans-serif" font-size="13" font-weight="bold" lengthAdjust="spacing" textLength="14" x="1053.5" y="965.8564">21</text><text fill="#000000" font-family="sans-serif" font-size="13" lengthAdjust="spacing" textLength="33" x="1071.5" y="965.8564">return</text><polygon fill="#181818" points="372,998.4102,362,1002.4102,372,1006.4102,368,1002.4102" style="stroke:#181818;stroke-width:1.0;"/><line style="stroke:#181818;stroke-width:1.0;stroke-dasharray:2.0,2.0;" x1="366" x2="1030.5" y1="1002.4102" y2="1002.4102"/><text fill="#000000" font-family="sans-serif" font-size="13" font-weight="bold" lengthAdjust="spacing" textLength="14" x="378" y="997.1475">22</text><text fill="#000000" font-family="sans-serif" font-size="13" lengthAdjust="spacing" textLength="33" x="396" y="997.1475">return</text><polygon fill="#181818" points="166,1029.7012,156,1033.7012,166,1037.7012,162,1033.7012" style="stroke:#181818;stroke-width:1.0;"/><line style="stroke:#181818;stroke-width:1.0;stroke-dasharray:2.0,2.0;" x1="160" x2="355" y1="1033.7012" y2="1033.7012"/><text fill="#000000" font-family="sans-serif" font-size="13" font-weight="bold" lengthAdjust="spacing" textLength="14" x="172" y="1028.4385">23</text><text fill="#000000" font-family="sans-serif" font-size="13" lengthAdjust="spacing" textLength="33" x="190" y="1028.4385">return</text><path d="M11,1048.7012 L72,1048.7012 L72,1057.9922 L62,1067.9922 L11,1067.9922 L11,1048.7012 " fill="#EEEEEE" style="stroke:#000000;stroke-width:1.5;"/><rect fill="none" height="98.5039" style="stroke:#000000;stroke-width:1.5;" width="199" x="11" y="1048.7012"/><text fill="#000000" font-family="sans-serif" font-size="13" font-weight="bold" lengthAdjust="spacing" textLength="16" x="26" y="1063.7295">alt</text><text fill="#000000" font-family="sans-serif" font-size="11" font-weight="bold" lengthAdjust="spacing" textLength="55" x="87" y="1062.5713">[success]</text><ellipse cx="7.5" cy="1090.5332" fill="none" rx="4" ry="4" style="stroke:#181818;stroke-width:1.5;"/><polygon fill="#181818" points="24.5,1087.2832,14.5,1091.2832,24.5,1095.2832,20.5,1091.2832" style="stroke:#181818;stroke-width:1.0;"/><line style="stroke:#181818;stroke-width:1.0;stroke-dasharray:2.0,2.0;" x1="22.5" x2="144" y1="1091.2832" y2="1091.2832"/><text fill="#000000" font-family="sans-serif" font-size="13" font-weight="bold" lengthAdjust="spacing" textLength="14" x="25" y="1086.0205">24</text><text fill="#000000" font-family="sans-serif" font-size="13" lengthAdjust="spacing" textLength="44" x="43" y="1086.0205">200 OK</text><line style="stroke:#000000;stroke-width:1.0;stroke-dasharray:2.0,2.0;" x1="11" x2="210" y1="1100.2832" y2="1100.2832"/><text fill="#000000" font-family="sans-serif" font-size="11" font-weight="bold" lengthAdjust="spacing" textLength="43" x="16" y="1112.1533">[failure]</text><ellipse cx="7.5" cy="1138.4551" fill="none" rx="4" ry="4" style="stroke:#181818;stroke-width:1.5;"/><polygon fill="#181818" points="24.5,1135.2051,14.5,1139.2051,24.5,1143.2051,20.5,1139.2051" style="stroke:#181818;stroke-width:1.0;"/><line style="stroke:#181818;stroke-width:1.0;stroke-dasharray:2.0,2.0;" x1="22.5" x2="149" y1="1139.2051" y2="1139.2051"/><text fill="#000000" font-family="sans-serif" font-size="13" font-weight="bold" lengthAdjust="spacing" textLength="14" x="25" y="1133.9424">25</text><text fill="#000000" font-family="sans-serif" font-size="13" lengthAdjust="spacing" textLength="100" x="43" y="1133.9424">400 Bad Request</text><!--SRC=[jPLHRzem4CVV_IcilZIf563Tzb8XfBQZqpJK84WdJTsB2HVmQkpCTbYH-F2pan3im0QRj3SI_h_ptVtldCkbrhcwwNPpHhWkLgoJYbLNmOy2U0hHd9A592k4DDKCyDCKl- -ywLpty5YA59J2NoZynC48ri3msn0XKcZ1YzKC948vaPgcD3U1yKM_RmBdWWFNWy4tZYUYq9GlBZ1HU18_9SC_o-CS9D5Ky6IJmxtWMWh6G9RuVVoOJEBHYGEdccJP5EIQfb1Yq-JsuS6-E8ERG2uKrK9kzgXzTmRw8OdtZ7b0Vr7eZet7oLUBda-wXLhwT9qUtghNHZXThXUXuH12po8QL2RZ6_nnc0GX8gccQwAXzXvL_nfPRQOHBa3VCbRsq0KQjtTA0pLM-jY8AksYUyVHdjZXjZw3PvJF3N-0bUMZlJ9g7Qjs1w8v72EP43dEXCI4iKgCASTw2VK3i-YHj8pj-EhA7A25-HcKuX01dsCRqIEyxZNvsBbffrJrm6dWdlkk10zSE7I4ZerMvyPjR7aM_IXgPE8biChGbTQMRxTRX2vpAMPanZPLG6zInl4qgUapnaN2mYGCqfl2DdviUEhbShiil2KaceG7H6txyLD5QucT39fbH4qKFsAwXFJbKzO47BwQ0zI_XNHc-cxpI5OGU7dQD_RETWDLqzh0KRjSNKZFTvzf1j5XCi8Kj94gtt84sabNHfngwEzgLMJTaeV_fK1ty8uXhHLpnlfGtqmbOHgh8hLVrjOUNVTwEFwC49XUcevILaXexzexexaZSponNs__8ghMnjuQvWY4VW40]--></g></svg>