<?xml version="1.0" encoding="us-ascii" standalone="no"?><svg xmlns="http://www.w3.org/2000/svg" xmlns:xlink="http://www.w3.org/1999/xlink" contentStyleType="text/css" height="2407px" preserveAspectRatio="none" style="width:2388px;height:2407px;background:#FFFFFF;" version="1.1" viewBox="0 0 2388 2407" width="2388px" zoomAndPan="magnify"><defs/><g><text fill="#000000" font-family="sans-serif" font-size="14" font-weight="bold" lengthAdjust="spacing" textLength="336" x="1025" y="30.1074">US 6.2.19 Process View - MDBackoffice (Level 3)</text><rect fill="#FFFFFF" height="515.9619" style="stroke:#181818;stroke-width:1.0;" width="10" x="94" y="150.4453"/><rect fill="#FFFFFF" height="1611.8447" style="stroke:#181818;stroke-width:1.0;" width="10" x="94" y="720.9893"/><rect fill="#FFFFFF" height="421.4434" style="stroke:#181818;stroke-width:1.0;" width="10" x="267" y="202.0273"/><rect fill="#FFFFFF" height="1537.6172" style="stroke:#181818;stroke-width:1.0;" width="10" x="267" y="763.9258"/><rect fill="#FFFFFF" height="314.5703" style="stroke:#181818;stroke-width:1.0;" width="10" x="497" y="233.3184"/><rect fill="#FFFFFF" height="1368.502" style="stroke:#181818;stroke-width:1.0;" width="10" x="497" y="857.459"/><rect fill="#FFFFFF" height="31.291" style="stroke:#181818;stroke-width:1.0;" width="10" x="827" y="264.6094"/><rect fill="#FFFFFF" height="31.291" style="stroke:#181818;stroke-width:1.0;" width="10" x="827" y="888.75"/><rect fill="#FFFFFF" height="31.291" style="stroke:#181818;stroke-width:1.0;" width="10" x="1010" y="478.3066"/><rect fill="#FFFFFF" height="31.291" style="stroke:#181818;stroke-width:1.0;" width="10" x="1159" y="415.7246"/><rect fill="#FFFFFF" height="882.1855" style="stroke:#181818;stroke-width:1.0;" width="10" x="1453.5" y="1312.4844"/><rect fill="#FFFFFF" height="31.291" style="stroke:#181818;stroke-width:1.0;" width="10" x="1956.5" y="1343.7754"/><rect fill="#FFFFFF" height="31.291" style="stroke:#181818;stroke-width:1.0;" width="10" x="1956.5" y="1865.8086"/><rect fill="#FFFFFF" height="156.1152" style="stroke:#181818;stroke-width:1.0;" width="10" x="2124.5" y="1125.0781"/><rect fill="#FFFFFF" height="156.1152" style="stroke:#181818;stroke-width:1.0;" width="10" x="2124.5" y="2007.2637"/><rect fill="#FFFFFF" height="31.291" style="stroke:#181818;stroke-width:1.0;" width="10" x="2322" y="1218.6113"/><rect fill="#FFFFFF" height="31.291" style="stroke:#181818;stroke-width:1.0;" width="10" x="2322" y="2100.7969"/><rect fill="none" height="144.4551" style="stroke:#000000;stroke-width:1.5;" width="818.5" x="412" y="373.1426"/><rect fill="none" height="63.582" style="stroke:#000000;stroke-width:1.5;" width="420" x="412" y="935.041"/><rect fill="none" height="383.8691" style="stroke:#000000;stroke-width:1.5;" width="616" x="1345.5" y="1451.6484"/><line style="stroke:#181818;stroke-width:0.5;stroke-dasharray:5.0,5.0;" x1="98.5" x2="98.5" y1="96.8633" y2="2350.834"/><line style="stroke:#181818;stroke-width:0.5;stroke-dasharray:5.0,5.0;" x1="271.5" x2="271.5" y1="96.8633" y2="2350.834"/><line style="stroke:#181818;stroke-width:0.5;stroke-dasharray:5.0,5.0;" x1="502" x2="502" y1="96.8633" y2="2350.834"/><line style="stroke:#181818;stroke-width:0.5;stroke-dasharray:5.0,5.0;" x1="831.5" x2="831.5" y1="96.8633" y2="2350.834"/><line style="stroke:#181818;stroke-width:0.5;stroke-dasharray:5.0,5.0;" x1="1014.5" x2="1014.5" y1="345.0215" y2="2350.834"/><line style="stroke:#181818;stroke-width:0.5;stroke-dasharray:5.0,5.0;" x1="1163.5" x2="1163.5" y1="96.8633" y2="2350.834"/><line style="stroke:#181818;stroke-width:0.5;stroke-dasharray:5.0,5.0;" x1="1287.5" x2="1287.5" y1="813.0469" y2="2350.834"/><line style="stroke:#181818;stroke-width:0.5;stroke-dasharray:5.0,5.0;" x1="1458.5" x2="1458.5" y1="96.8633" y2="2350.834"/><line style="stroke:#181818;stroke-width:0.5;stroke-dasharray:5.0,5.0;" x1="1961" x2="1961" y1="96.8633" y2="2350.834"/><line style="stroke:#181818;stroke-width:0.5;stroke-dasharray:5.0,5.0;" x1="2129" x2="2129" y1="96.8633" y2="2350.834"/><line style="stroke:#181818;stroke-width:0.5;stroke-dasharray:5.0,5.0;" x1="2223" x2="2223" y1="2056.3848" y2="2350.834"/><line style="stroke:#181818;stroke-width:0.5;stroke-dasharray:5.0,5.0;" x1="2327" x2="2327" y1="96.8633" y2="2350.834"/><rect fill="#E2E2F0" height="51.2422" rx="2.5" ry="2.5" style="stroke:#181818;stroke-width:0.5;" width="151" x="23.5" y="44.6211"/><text fill="#000000" font-family="sans-serif" font-size="14" lengthAdjust="spacing" textLength="54" x="72" y="66.7285">&#171;Route&#187;</text><text fill="#000000" font-family="sans-serif" font-size="14" lengthAdjust="spacing" textLength="133" x="34.5" y="85.3496">OperationTypeRoute</text><rect fill="#E2E2F0" height="51.2422" rx="2.5" ry="2.5" style="stroke:#181818;stroke-width:0.5;" width="151" x="23.5" y="2349.834"/><text fill="#000000" font-family="sans-serif" font-size="14" lengthAdjust="spacing" textLength="54" x="72" y="2371.9414">&#171;Route&#187;</text><text fill="#000000" font-family="sans-serif" font-size="14" lengthAdjust="spacing" textLength="133" x="34.5" y="2390.5625">OperationTypeRoute</text><rect fill="#E2E2F0" height="51.2422" rx="2.5" ry="2.5" style="stroke:#181818;stroke-width:0.5;" width="175" x="184.5" y="44.6211"/><text fill="#000000" font-family="sans-serif" font-size="14" lengthAdjust="spacing" textLength="78" x="233" y="66.7285">&#171;Controller&#187;</text><text fill="#000000" font-family="sans-serif" font-size="14" lengthAdjust="spacing" textLength="157" x="195.5" y="85.3496">OperationTypeController</text><rect fill="#E2E2F0" height="51.2422" rx="2.5" ry="2.5" style="stroke:#181818;stroke-width:0.5;" width="175" x="184.5" y="2349.834"/><text fill="#000000" font-family="sans-serif" font-size="14" lengthAdjust="spacing" textLength="78" x="233" y="2371.9414">&#171;Controller&#187;</text><text fill="#000000" font-family="sans-serif" font-size="14" lengthAdjust="spacing" textLength="157" x="195.5" y="2390.5625">OperationTypeController</text><rect fill="#E2E2F0" height="51.2422" rx="2.5" ry="2.5" style="stroke:#181818;stroke-width:0.5;" width="160" x="422" y="44.6211"/><text fill="#000000" font-family="sans-serif" font-size="14" lengthAdjust="spacing" textLength="63" x="470.5" y="66.7285">&#171;Service&#187;</text><text fill="#000000" font-family="sans-serif" font-size="14" lengthAdjust="spacing" textLength="142" x="433" y="85.3496">OperationTypeService</text><rect fill="#E2E2F0" height="51.2422" rx="2.5" ry="2.5" style="stroke:#181818;stroke-width:0.5;" width="160" x="422" y="2349.834"/><text fill="#000000" font-family="sans-serif" font-size="14" lengthAdjust="spacing" textLength="63" x="470.5" y="2371.9414">&#171;Service&#187;</text><text fill="#000000" font-family="sans-serif" font-size="14" lengthAdjust="spacing" textLength="142" x="433" y="2390.5625">OperationTypeService</text><rect fill="#E2E2F0" height="51.2422" rx="2.5" ry="2.5" style="stroke:#181818;stroke-width:0.5;" width="181" x="741.5" y="44.6211"/><text fill="#000000" font-family="sans-serif" font-size="14" lengthAdjust="spacing" textLength="84" x="790" y="66.7285">&#171;Repository&#187;</text><text fill="#000000" font-family="sans-serif" font-size="14" lengthAdjust="spacing" textLength="163" x="752.5" y="85.3496">OperationTypeRepository</text><rect fill="#E2E2F0" height="51.2422" rx="2.5" ry="2.5" style="stroke:#181818;stroke-width:0.5;" width="181" x="741.5" y="2349.834"/><text fill="#000000" font-family="sans-serif" font-size="14" lengthAdjust="spacing" textLength="84" x="790" y="2371.9414">&#171;Repository&#187;</text><text fill="#000000" font-family="sans-serif" font-size="14" lengthAdjust="spacing" textLength="163" x="752.5" y="2390.5625">OperationTypeRepository</text><rect fill="#E2E2F0" height="51.2422" rx="2.5" ry="2.5" style="stroke:#181818;stroke-width:0.5;" width="165" x="932.5" y="2349.834"/><text fill="#000000" font-family="sans-serif" font-size="14" lengthAdjust="spacing" textLength="46" x="992" y="2371.9414">&#171;DTO&#187;</text><text fill="#000000" font-family="sans-serif" font-size="14" lengthAdjust="spacing" textLength="147" x="943.5" y="2390.5625">OperationTypeListDTO</text><rect fill="#E2E2F0" height="51.2422" rx="2.5" ry="2.5" style="stroke:#181818;stroke-width:0.5;" width="113" x="1107.5" y="44.6211"/><text fill="#000000" font-family="sans-serif" font-size="14" lengthAdjust="spacing" textLength="64" x="1132" y="66.7285">&#171;Domain&#187;</text><text fill="#000000" font-family="sans-serif" font-size="14" lengthAdjust="spacing" textLength="95" x="1118.5" y="85.3496">OperationType</text><rect fill="#E2E2F0" height="51.2422" rx="2.5" ry="2.5" style="stroke:#181818;stroke-width:0.5;" width="113" x="1107.5" y="2349.834"/><text fill="#000000" font-family="sans-serif" font-size="14" lengthAdjust="spacing" textLength="64" x="1132" y="2371.9414">&#171;Domain&#187;</text><text fill="#000000" font-family="sans-serif" font-size="14" lengthAdjust="spacing" textLength="95" x="1118.5" y="2390.5625">OperationType</text><rect fill="#E2E2F0" height="51.2422" rx="2.5" ry="2.5" style="stroke:#181818;stroke-width:0.5;" width="115" x="1230.5" y="2349.834"/><text fill="#000000" font-family="sans-serif" font-size="14" lengthAdjust="spacing" textLength="46" x="1265" y="2371.9414">&#171;DTO&#187;</text><text fill="#000000" font-family="sans-serif" font-size="14" lengthAdjust="spacing" textLength="97" x="1241.5" y="2390.5625">EditOpTypeDto</text><rect fill="#E2E2F0" height="51.2422" rx="2.5" ry="2.5" style="stroke:#181818;stroke-width:0.5;" width="206" x="1355.5" y="44.6211"/><text fill="#000000" font-family="sans-serif" font-size="14" lengthAdjust="spacing" textLength="63" x="1427" y="66.7285">&#171;Service&#187;</text><text fill="#000000" font-family="sans-serif" font-size="14" lengthAdjust="spacing" textLength="188" x="1366.5" y="85.3496">OperationTypeRecordService</text><rect fill="#E2E2F0" height="51.2422" rx="2.5" ry="2.5" style="stroke:#181818;stroke-width:0.5;" width="206" x="1355.5" y="2349.834"/><text fill="#000000" font-family="sans-serif" font-size="14" lengthAdjust="spacing" textLength="63" x="1427" y="2371.9414">&#171;Service&#187;</text><text fill="#000000" font-family="sans-serif" font-size="14" lengthAdjust="spacing" textLength="188" x="1366.5" y="2390.5625">OperationTypeRecordService</text><rect fill="#E2E2F0" height="51.2422" rx="2.5" ry="2.5" style="stroke:#181818;stroke-width:0.5;" width="227" x="1848" y="44.6211"/><text fill="#000000" font-family="sans-serif" font-size="14" lengthAdjust="spacing" textLength="84" x="1919.5" y="66.7285">&#171;Repository&#187;</text><text fill="#000000" font-family="sans-serif" font-size="14" lengthAdjust="spacing" textLength="209" x="1859" y="85.3496">OperationTypeRecordRepository</text><rect fill="#E2E2F0" height="51.2422" rx="2.5" ry="2.5" style="stroke:#181818;stroke-width:0.5;" width="227" x="1848" y="2349.834"/><text fill="#000000" font-family="sans-serif" font-size="14" lengthAdjust="spacing" textLength="84" x="1919.5" y="2371.9414">&#171;Repository&#187;</text><text fill="#000000" font-family="sans-serif" font-size="14" lengthAdjust="spacing" textLength="209" x="1859" y="2390.5625">OperationTypeRecordRepository</text><rect fill="#E2E2F0" height="51.2422" rx="2.5" ry="2.5" style="stroke:#181818;stroke-width:0.5;" width="89" x="2085" y="44.6211"/><text fill="#000000" font-family="sans-serif" font-size="14" lengthAdjust="spacing" textLength="63" x="2098" y="66.7285">&#171;Service&#187;</text><text fill="#000000" font-family="sans-serif" font-size="14" lengthAdjust="spacing" textLength="71" x="2096" y="85.3496">LogService</text><rect fill="#E2E2F0" height="51.2422" rx="2.5" ry="2.5" style="stroke:#181818;stroke-width:0.5;" width="89" x="2085" y="2349.834"/><text fill="#000000" font-family="sans-serif" font-size="14" lengthAdjust="spacing" textLength="63" x="2098" y="2371.9414">&#171;Service&#187;</text><text fill="#000000" font-family="sans-serif" font-size="14" lengthAdjust="spacing" textLength="71" x="2096" y="2390.5625">LogService</text><rect fill="#E2E2F0" height="51.2422" rx="2.5" ry="2.5" style="stroke:#181818;stroke-width:0.5;" width="78" x="2184" y="2349.834"/><text fill="#000000" font-family="sans-serif" font-size="14" lengthAdjust="spacing" textLength="64" x="2191" y="2371.9414">&#171;Domain&#187;</text><text fill="#000000" font-family="sans-serif" font-size="14" lengthAdjust="spacing" textLength="24" x="2213" y="2390.5625">Log</text><rect fill="#E2E2F0" height="51.2422" rx="2.5" ry="2.5" style="stroke:#181818;stroke-width:0.5;" width="110" x="2272" y="44.6211"/><text fill="#000000" font-family="sans-serif" font-size="14" lengthAdjust="spacing" textLength="84" x="2285" y="66.7285">&#171;Repository&#187;</text><text fill="#000000" font-family="sans-serif" font-size="14" lengthAdjust="spacing" textLength="92" x="2283" y="85.3496">LogRepository</text><rect fill="#E2E2F0" height="51.2422" rx="2.5" ry="2.5" style="stroke:#181818;stroke-width:0.5;" width="110" x="2272" y="2349.834"/><text fill="#000000" font-family="sans-serif" font-size="14" lengthAdjust="spacing" textLength="84" x="2285" y="2371.9414">&#171;Repository&#187;</text><text fill="#000000" font-family="sans-serif" font-size="14" lengthAdjust="spacing" textLength="92" x="2283" y="2390.5625">LogRepository</text><rect fill="#FFFFFF" height="515.9619" style="stroke:#181818;stroke-width:1.0;" width="10" x="94" y="150.4453"/><rect fill="#FFFFFF" height="1611.8447" style="stroke:#181818;stroke-width:1.0;" width="10" x="94" y="720.9893"/><rect fill="#FFFFFF" height="421.4434" style="stroke:#181818;stroke-width:1.0;" width="10" x="267" y="202.0273"/><rect fill="#FFFFFF" height="1537.6172" style="stroke:#181818;stroke-width:1.0;" width="10" x="267" y="763.9258"/><rect fill="#FFFFFF" height="314.5703" style="stroke:#181818;stroke-width:1.0;" width="10" x="497" y="233.3184"/><rect fill="#FFFFFF" height="1368.502" style="stroke:#181818;stroke-width:1.0;" width="10" x="497" y="857.459"/><rect fill="#FFFFFF" height="31.291" style="stroke:#181818;stroke-width:1.0;" width="10" x="827" y="264.6094"/><rect fill="#FFFFFF" height="31.291" style="stroke:#181818;stroke-width:1.0;" width="10" x="827" y="888.75"/><rect fill="#FFFFFF" height="31.291" style="stroke:#181818;stroke-width:1.0;" width="10" x="1010" y="478.3066"/><rect fill="#FFFFFF" height="31.291" style="stroke:#181818;stroke-width:1.0;" width="10" x="1159" y="415.7246"/><rect fill="#FFFFFF" height="882.1855" style="stroke:#181818;stroke-width:1.0;" width="10" x="1453.5" y="1312.4844"/><rect fill="#FFFFFF" height="31.291" style="stroke:#181818;stroke-width:1.0;" width="10" x="1956.5" y="1343.7754"/><rect fill="#FFFFFF" height="31.291" style="stroke:#181818;stroke-width:1.0;" width="10" x="1956.5" y="1865.8086"/><rect fill="#FFFFFF" height="156.1152" style="stroke:#181818;stroke-width:1.0;" width="10" x="2124.5" y="1125.0781"/><rect fill="#FFFFFF" height="156.1152" style="stroke:#181818;stroke-width:1.0;" width="10" x="2124.5" y="2007.2637"/><rect fill="#FFFFFF" height="31.291" style="stroke:#181818;stroke-width:1.0;" width="10" x="2322" y="1218.6113"/><rect fill="#FFFFFF" height="31.291" style="stroke:#181818;stroke-width:1.0;" width="10" x="2322" y="2100.7969"/><ellipse cx="7.5" cy="149.6953" fill="none" rx="4" ry="4" style="stroke:#181818;stroke-width:1.5;"/><polygon fill="#181818" points="82,146.4453,92,150.4453,82,154.4453,86,150.4453" style="stroke:#181818;stroke-width:1.0;"/><line style="stroke:#181818;stroke-width:1.0;" x1="12" x2="88" y1="150.4453" y2="150.4453"/><text fill="#000000" font-family="sans-serif" font-size="13" lengthAdjust="spacing" textLength="58" x="15" y="145.1826">GET(json)</text><path d="M109,111.8633 L109,172.8633 L195,172.8633 L195,121.8633 L185,111.8633 L109,111.8633 " fill="#FEFFDD" style="stroke:#181818;stroke-width:0.5;"/><path d="M185,111.8633 L185,121.8633 L195,121.8633 L185,111.8633 " fill="#FEFFDD" style="stroke:#181818;stroke-width:0.5;"/><text fill="#000000" font-family="sans-serif" font-size="13" lengthAdjust="spacing" textLength="61" x="115" y="130.8916">getting the</text><text fill="#000000" font-family="sans-serif" font-size="13" lengthAdjust="spacing" textLength="31" x="115" y="148.1826">list of</text><text fill="#000000" font-family="sans-serif" font-size="13" lengthAdjust="spacing" textLength="49" x="115" y="165.4736">all types</text><polygon fill="#181818" points="255,198.0273,265,202.0273,255,206.0273,259,202.0273" style="stroke:#181818;stroke-width:1.0;"/><line style="stroke:#181818;stroke-width:1.0;" x1="104" x2="261" y1="202.0273" y2="202.0273"/><text fill="#000000" font-family="sans-serif" font-size="13" lengthAdjust="spacing" textLength="136" x="111" y="196.7646">getListOfOpTypes(json)</text><polygon fill="#181818" points="485,229.3184,495,233.3184,485,237.3184,489,233.3184" style="stroke:#181818;stroke-width:1.0;"/><line style="stroke:#181818;stroke-width:1.0;" x1="277" x2="491" y1="233.3184" y2="233.3184"/><text fill="#000000" font-family="sans-serif" font-size="13" lengthAdjust="spacing" textLength="112" x="284" y="228.0557">getListOfOpTypes()</text><polygon fill="#181818" points="815,260.6094,825,264.6094,815,268.6094,819,264.6094" style="stroke:#181818;stroke-width:1.0;"/><line style="stroke:#181818;stroke-width:1.0;" x1="507" x2="821" y1="264.6094" y2="264.6094"/><text fill="#000000" font-family="sans-serif" font-size="13" lengthAdjust="spacing" textLength="43" x="514" y="259.3467">findAll()</text><polygon fill="#181818" points="518,291.9004,508,295.9004,518,299.9004,514,295.9004" style="stroke:#181818;stroke-width:1.0;"/><line style="stroke:#181818;stroke-width:1.0;stroke-dasharray:2.0,2.0;" x1="512" x2="831" y1="295.9004" y2="295.9004"/><text fill="#000000" font-family="sans-serif" font-size="13" lengthAdjust="spacing" textLength="82" x="524" y="290.6377">listOfOpTypes</text><polygon fill="#181818" points="920.5,305.9004,930.5,309.9004,920.5,313.9004,924.5,309.9004" style="stroke:#181818;stroke-width:1.0;"/><line style="stroke:#181818;stroke-width:1.0;" x1="507" x2="926.5" y1="309.9004" y2="309.9004"/><rect fill="#E2E2F0" height="51.2422" rx="2.5" ry="2.5" style="stroke:#181818;stroke-width:0.5;" width="165" x="932.5" y="303.9004"/><text fill="#000000" font-family="sans-serif" font-size="14" lengthAdjust="spacing" textLength="46" x="992" y="326.0078">&#171;DTO&#187;</text><text fill="#000000" font-family="sans-serif" font-size="14" lengthAdjust="spacing" textLength="147" x="943.5" y="344.6289">OperationTypeListDTO</text><path d="M412,373.1426 L485,373.1426 L485,382.4336 L475,392.4336 L412,392.4336 L412,373.1426 " fill="#EEEEEE" style="stroke:#000000;stroke-width:1.5;"/><rect fill="none" height="144.4551" style="stroke:#000000;stroke-width:1.5;" width="818.5" x="412" y="373.1426"/><text fill="#000000" font-family="sans-serif" font-size="13" font-weight="bold" lengthAdjust="spacing" textLength="28" x="427" y="388.1709">loop</text><text fill="#000000" font-family="sans-serif" font-size="11" font-weight="bold" lengthAdjust="spacing" textLength="191" x="500" y="387.0127">[for every profile in listOfOpTypes]</text><polygon fill="#181818" points="1147,411.7246,1157,415.7246,1147,419.7246,1151,415.7246" style="stroke:#181818;stroke-width:1.0;"/><line style="stroke:#181818;stroke-width:1.0;" x1="507" x2="1153" y1="415.7246" y2="415.7246"/><text fill="#000000" font-family="sans-serif" font-size="13" lengthAdjust="spacing" textLength="45" x="514" y="410.4619">toDTO()</text><polygon fill="#181818" points="518,443.0156,508,447.0156,518,451.0156,514,447.0156" style="stroke:#181818;stroke-width:1.0;"/><line style="stroke:#181818;stroke-width:1.0;stroke-dasharray:2.0,2.0;" x1="512" x2="1163" y1="447.0156" y2="447.0156"/><text fill="#000000" font-family="sans-serif" font-size="13" lengthAdjust="spacing" textLength="75" x="524" y="441.7529">opTypesDTO</text><polygon fill="#181818" points="998,474.3066,1008,478.3066,998,482.3066,1002,478.3066" style="stroke:#181818;stroke-width:1.0;"/><line style="stroke:#181818;stroke-width:1.0;" x1="507" x2="1004" y1="478.3066" y2="478.3066"/><text fill="#000000" font-family="sans-serif" font-size="13" lengthAdjust="spacing" textLength="123" x="514" y="473.0439">listAdd(opTypesDTO)</text><polygon fill="#181818" points="518,505.5977,508,509.5977,518,513.5977,514,509.5977" style="stroke:#181818;stroke-width:1.0;"/><line style="stroke:#181818;stroke-width:1.0;stroke-dasharray:2.0,2.0;" x1="512" x2="1014" y1="509.5977" y2="509.5977"/><text fill="#000000" font-family="sans-serif" font-size="13" lengthAdjust="spacing" textLength="33" x="524" y="504.335">return</text><polygon fill="#181818" points="288,543.8887,278,547.8887,288,551.8887,284,547.8887" style="stroke:#181818;stroke-width:1.0;"/><line style="stroke:#181818;stroke-width:1.0;stroke-dasharray:2.0,2.0;" x1="282" x2="501" y1="547.8887" y2="547.8887"/><text fill="#000000" font-family="sans-serif" font-size="13" lengthAdjust="spacing" textLength="96" x="294" y="542.626">opTypesListDTO</text><line style="stroke:#181818;stroke-width:1.0;" x1="277" x2="319" y1="579.1797" y2="579.1797"/><line style="stroke:#181818;stroke-width:1.0;" x1="319" x2="319" y1="579.1797" y2="592.1797"/><line style="stroke:#181818;stroke-width:1.0;" x1="278" x2="319" y1="592.1797" y2="592.1797"/><polygon fill="#181818" points="288,588.1797,278,592.1797,288,596.1797,284,592.1797" style="stroke:#181818;stroke-width:1.0;"/><text fill="#000000" font-family="sans-serif" font-size="13" lengthAdjust="spacing" textLength="118" x="284" y="573.917">ok(opTypesListDTO)</text><polygon fill="#181818" points="115,619.4707,105,623.4707,115,627.4707,111,623.4707" style="stroke:#181818;stroke-width:1.0;"/><line style="stroke:#181818;stroke-width:1.0;stroke-dasharray:2.0,2.0;" x1="109" x2="271" y1="623.4707" y2="623.4707"/><text fill="#000000" font-family="sans-serif" font-size="13" lengthAdjust="spacing" textLength="24" x="121" y="618.208">json</text><polygon fill="#181818" points="11,662.4072,1,666.4072,11,670.4072,7,666.4072" style="stroke:#181818;stroke-width:1.0;"/><line style="stroke:#181818;stroke-width:1.0;stroke-dasharray:2.0,2.0;" x1="5" x2="98" y1="666.4072" y2="666.4072"/><text fill="#000000" font-family="sans-serif" font-size="13" lengthAdjust="spacing" textLength="24" x="17" y="661.1445">json</text><path d="M109,636.4707 L109,680.4707 L211,680.4707 L211,646.4707 L201,636.4707 L109,636.4707 " fill="#FEFFDD" style="stroke:#181818;stroke-width:0.5;"/><path d="M201,636.4707 L201,646.4707 L211,646.4707 L201,636.4707 " fill="#FEFFDD" style="stroke:#181818;stroke-width:0.5;"/><text fill="#000000" font-family="sans-serif" font-size="13" lengthAdjust="spacing" textLength="81" x="115" y="655.499">after choosing</text><text fill="#000000" font-family="sans-serif" font-size="13" lengthAdjust="spacing" textLength="54" x="119" y="672.79">a request</text><ellipse cx="7.5" cy="720.2393" fill="none" rx="4" ry="4" style="stroke:#181818;stroke-width:1.5;"/><polygon fill="#181818" points="82,716.9893,92,720.9893,82,724.9893,86,720.9893" style="stroke:#181818;stroke-width:1.0;"/><line style="stroke:#181818;stroke-width:1.0;" x1="12" x2="88" y1="720.9893" y2="720.9893"/><text fill="#000000" font-family="sans-serif" font-size="13" lengthAdjust="spacing" textLength="67" x="15" y="715.7266">POST(json)</text><path d="M109,691.0527 L109,735.0527 L226,735.0527 L226,701.0527 L216,691.0527 L109,691.0527 " fill="#FEFFDD" style="stroke:#181818;stroke-width:0.5;"/><path d="M216,691.0527 L216,701.0527 L226,701.0527 L216,691.0527 " fill="#FEFFDD" style="stroke:#181818;stroke-width:0.5;"/><text fill="#000000" font-family="sans-serif" font-size="13" lengthAdjust="spacing" textLength="68" x="115" y="710.0811">after getting</text><text fill="#000000" font-family="sans-serif" font-size="13" lengthAdjust="spacing" textLength="92" x="119" y="727.3721">the confirmation</text><polygon fill="#181818" points="255,759.9258,265,763.9258,255,767.9258,259,763.9258" style="stroke:#181818;stroke-width:1.0;"/><line style="stroke:#181818;stroke-width:1.0;" x1="104" x2="261" y1="763.9258" y2="763.9258"/><text fill="#000000" font-family="sans-serif" font-size="13" lengthAdjust="spacing" textLength="139" x="111" y="758.6631">EditOperationType(json)</text><polygon fill="#181818" points="1218.5,791.2168,1228.5,795.2168,1218.5,799.2168,1222.5,795.2168" style="stroke:#181818;stroke-width:1.0;"/><line style="stroke:#181818;stroke-width:1.0;" x1="277" x2="1224.5" y1="795.2168" y2="795.2168"/><text fill="#000000" font-family="sans-serif" font-size="13" lengthAdjust="spacing" textLength="69" x="284" y="789.9541">toDTO(json)</text><rect fill="#E2E2F0" height="51.2422" rx="2.5" ry="2.5" style="stroke:#181818;stroke-width:0.5;" width="115" x="1230.5" y="771.9258"/><text fill="#000000" font-family="sans-serif" font-size="14" lengthAdjust="spacing" textLength="46" x="1265" y="794.0332">&#171;DTO&#187;</text><text fill="#000000" font-family="sans-serif" font-size="14" lengthAdjust="spacing" textLength="97" x="1241.5" y="812.6543">EditOpTypeDto</text><polygon fill="#181818" points="485,853.459,495,857.459,485,861.459,489,857.459" style="stroke:#181818;stroke-width:1.0;"/><line style="stroke:#181818;stroke-width:1.0;" x1="277" x2="491" y1="857.459" y2="857.459"/><text fill="#000000" font-family="sans-serif" font-size="13" lengthAdjust="spacing" textLength="201" x="284" y="852.1963">EditOperationType(editOpTypeDto)</text><polygon fill="#181818" points="815,884.75,825,888.75,815,892.75,819,888.75" style="stroke:#181818;stroke-width:1.0;"/><line style="stroke:#181818;stroke-width:1.0;" x1="507" x2="821" y1="888.75" y2="888.75"/><text fill="#000000" font-family="sans-serif" font-size="13" lengthAdjust="spacing" textLength="110" x="514" y="883.4873">findByID(opTypeID)</text><polygon fill="#181818" points="518,916.041,508,920.041,518,924.041,514,920.041" style="stroke:#181818;stroke-width:1.0;"/><line style="stroke:#181818;stroke-width:1.0;stroke-dasharray:2.0,2.0;" x1="512" x2="831" y1="920.041" y2="920.041"/><text fill="#000000" font-family="sans-serif" font-size="13" lengthAdjust="spacing" textLength="81" x="524" y="914.7783">operationType</text><path d="M412,935.041 L485,935.041 L485,944.332 L475,954.332 L412,954.332 L412,935.041 " fill="#EEEEEE" style="stroke:#000000;stroke-width:1.5;"/><rect fill="none" height="63.582" style="stroke:#000000;stroke-width:1.5;" width="420" x="412" y="935.041"/><text fill="#000000" font-family="sans-serif" font-size="13" font-weight="bold" lengthAdjust="spacing" textLength="28" x="427" y="950.0693">loop</text><text fill="#000000" font-family="sans-serif" font-size="11" font-weight="bold" lengthAdjust="spacing" textLength="226" x="500" y="948.9111">[for every attribute in operationTypeDTO]</text><line style="stroke:#181818;stroke-width:1.0;" x1="507" x2="549" y1="977.623" y2="977.623"/><line style="stroke:#181818;stroke-width:1.0;" x1="549" x2="549" y1="977.623" y2="990.623"/><line style="stroke:#181818;stroke-width:1.0;" x1="508" x2="549" y1="990.623" y2="990.623"/><polygon fill="#181818" points="518,986.623,508,990.623,518,994.623,514,990.623" style="stroke:#181818;stroke-width:1.0;"/><text fill="#000000" font-family="sans-serif" font-size="13" lengthAdjust="spacing" textLength="306" x="514" y="972.3604">operationType.attribute = operationTypeDTO.attribute</text><line style="stroke:#181818;stroke-width:1.0;" x1="507" x2="549" y1="1028.9141" y2="1028.9141"/><line style="stroke:#181818;stroke-width:1.0;" x1="549" x2="549" y1="1028.9141" y2="1041.9141"/><line style="stroke:#181818;stroke-width:1.0;" x1="508" x2="549" y1="1041.9141" y2="1041.9141"/><polygon fill="#181818" points="518,1037.9141,508,1041.9141,518,1045.9141,514,1041.9141" style="stroke:#181818;stroke-width:1.0;"/><text fill="#000000" font-family="sans-serif" font-size="13" lengthAdjust="spacing" textLength="90" x="514" y="1023.6514">CommitAsync()</text><polygon fill="#181818" points="2112.5,1121.0781,2122.5,1125.0781,2112.5,1129.0781,2116.5,1125.0781" style="stroke:#181818;stroke-width:1.0;"/><line style="stroke:#181818;stroke-width:1.0;" x1="507" x2="2118.5" y1="1125.0781" y2="1125.0781"/><text fill="#000000" font-family="sans-serif" font-size="13" lengthAdjust="spacing" textLength="222" x="514" y="1067.9424">CreateEditLog(operationType.Id.Value,</text><text fill="#000000" font-family="sans-serif" font-size="13" lengthAdjust="spacing" textLength="184" x="514" y="1085.2334">operationType.GetType().Name,</text><text fill="#000000" font-family="sans-serif" font-size="13" lengthAdjust="spacing" textLength="142" x="514" y="1102.5244">"Operation type edited: "</text><text fill="#000000" font-family="sans-serif" font-size="13" lengthAdjust="spacing" textLength="229" x="514" y="1119.8154">+ operationType.Name.OperationName)</text><polygon fill="#181818" points="2172,1135.0781,2182,1139.0781,2172,1143.0781,2176,1139.0781" style="stroke:#181818;stroke-width:1.0;"/><line style="stroke:#181818;stroke-width:1.0;" x1="2134.5" x2="2178" y1="1139.0781" y2="1139.0781"/><rect fill="#E2E2F0" height="51.2422" rx="2.5" ry="2.5" style="stroke:#181818;stroke-width:0.5;" width="78" x="2184" y="1133.0781"/><text fill="#000000" font-family="sans-serif" font-size="14" lengthAdjust="spacing" textLength="64" x="2191" y="1155.1855">&#171;Domain&#187;</text><text fill="#000000" font-family="sans-serif" font-size="14" lengthAdjust="spacing" textLength="24" x="2213" y="1173.8066">Log</text><polygon fill="#181818" points="2310,1214.6113,2320,1218.6113,2310,1222.6113,2314,1218.6113" style="stroke:#181818;stroke-width:1.0;"/><line style="stroke:#181818;stroke-width:1.0;" x1="2134.5" x2="2316" y1="1218.6113" y2="1218.6113"/><text fill="#000000" font-family="sans-serif" font-size="13" lengthAdjust="spacing" textLength="85" x="2141.5" y="1213.3486">AddAsync(log)</text><polygon fill="#181818" points="2145.5,1245.9023,2135.5,1249.9023,2145.5,1253.9023,2141.5,1249.9023" style="stroke:#181818;stroke-width:1.0;"/><line style="stroke:#181818;stroke-width:1.0;stroke-dasharray:2.0,2.0;" x1="2139.5" x2="2326" y1="1249.9023" y2="1249.9023"/><text fill="#000000" font-family="sans-serif" font-size="13" lengthAdjust="spacing" textLength="22" x="2151.5" y="1244.6396">true</text><polygon fill="#181818" points="518,1277.1934,508,1281.1934,518,1285.1934,514,1281.1934" style="stroke:#181818;stroke-width:1.0;"/><line style="stroke:#181818;stroke-width:1.0;stroke-dasharray:2.0,2.0;" x1="512" x2="2128.5" y1="1281.1934" y2="1281.1934"/><text fill="#000000" font-family="sans-serif" font-size="13" lengthAdjust="spacing" textLength="22" x="524" y="1275.9307">true</text><polygon fill="#181818" points="1441.5,1308.4844,1451.5,1312.4844,1441.5,1316.4844,1445.5,1312.4844" style="stroke:#181818;stroke-width:1.0;"/><line style="stroke:#181818;stroke-width:1.0;" x1="507" x2="1447.5" y1="1312.4844" y2="1312.4844"/><text fill="#000000" font-family="sans-serif" font-size="13" lengthAdjust="spacing" textLength="149" x="514" y="1307.2217">AddAsync(operationType)</text><polygon fill="#181818" points="1944.5,1339.7754,1954.5,1343.7754,1944.5,1347.7754,1948.5,1343.7754" style="stroke:#181818;stroke-width:1.0;"/><line style="stroke:#181818;stroke-width:1.0;" x1="1463.5" x2="1950.5" y1="1343.7754" y2="1343.7754"/><text fill="#000000" font-family="sans-serif" font-size="13" lengthAdjust="spacing" textLength="224" x="1470.5" y="1338.5127">GetLastFromOpType(operationType.Id)</text><polygon fill="#181818" points="1474.5,1371.0664,1464.5,1375.0664,1474.5,1379.0664,1470.5,1375.0664" style="stroke:#181818;stroke-width:1.0;"/><line style="stroke:#181818;stroke-width:1.0;stroke-dasharray:2.0,2.0;" x1="1468.5" x2="1960.5" y1="1375.0664" y2="1375.0664"/><text fill="#000000" font-family="sans-serif" font-size="13" lengthAdjust="spacing" textLength="118" x="1480.5" y="1369.8037">lastOperationRecord</text><line style="stroke:#181818;stroke-width:1.0;" x1="1463.5" x2="1505.5" y1="1423.6484" y2="1423.6484"/><line style="stroke:#181818;stroke-width:1.0;" x1="1505.5" x2="1505.5" y1="1423.6484" y2="1436.6484"/><line style="stroke:#181818;stroke-width:1.0;" x1="1464.5" x2="1505.5" y1="1436.6484" y2="1436.6484"/><polygon fill="#181818" points="1474.5,1432.6484,1464.5,1436.6484,1474.5,1440.6484,1470.5,1436.6484" style="stroke:#181818;stroke-width:1.0;"/><text fill="#000000" font-family="sans-serif" font-size="13" lengthAdjust="spacing" textLength="153" x="1470.5" y="1401.0947">var todayDate = new Date(</text><text fill="#000000" font-family="sans-serif" font-size="13" lengthAdjust="spacing" textLength="234" x="1470.5" y="1418.3857">DateTime.Now.ToString("yyyy-MM-dd"));</text><path d="M1345.5,1451.6484 L1406.5,1451.6484 L1406.5,1460.9395 L1396.5,1470.9395 L1345.5,1470.9395 L1345.5,1451.6484 " fill="#EEEEEE" style="stroke:#000000;stroke-width:1.5;"/><rect fill="none" height="383.8691" style="stroke:#000000;stroke-width:1.5;" width="616" x="1345.5" y="1451.6484"/><text fill="#000000" font-family="sans-serif" font-size="13" font-weight="bold" lengthAdjust="spacing" textLength="16" x="1360.5" y="1466.6768">alt</text><text fill="#000000" font-family="sans-serif" font-size="11" font-weight="bold" lengthAdjust="spacing" textLength="115" x="1421.5" y="1465.5186">[If there's no record]</text><line style="stroke:#181818;stroke-width:1.0;" x1="1463.5" x2="1505.5" y1="1615.2676" y2="1615.2676"/><line style="stroke:#181818;stroke-width:1.0;" x1="1505.5" x2="1505.5" y1="1615.2676" y2="1628.2676"/><line style="stroke:#181818;stroke-width:1.0;" x1="1464.5" x2="1505.5" y1="1628.2676" y2="1628.2676"/><polygon fill="#181818" points="1474.5,1624.2676,1464.5,1628.2676,1474.5,1632.2676,1470.5,1628.2676" style="stroke:#181818;stroke-width:1.0;"/><text fill="#000000" font-family="sans-serif" font-size="13" lengthAdjust="spacing" textLength="479" x="1470.5" y="1488.9678">operationRecord = new OperationTypeRecord(new Date(todayDate.Start.ToString(),</text><text fill="#000000" font-family="sans-serif" font-size="13" lengthAdjust="spacing" textLength="169" x="1470.5" y="1506.2588">todayDate.End.ToString()), 0,</text><text fill="#000000" font-family="sans-serif" font-size="13" lengthAdjust="spacing" textLength="99" x="1470.5" y="1523.5498">operationType.Id,</text><text fill="#000000" font-family="sans-serif" font-size="13" lengthAdjust="spacing" textLength="123" x="1470.5" y="1540.8408">operationType.Name,</text><text fill="#000000" font-family="sans-serif" font-size="13" lengthAdjust="spacing" textLength="196" x="1470.5" y="1558.1318">operationType.EstimatedDuration,</text><text fill="#000000" font-family="sans-serif" font-size="13" lengthAdjust="spacing" textLength="127" x="1470.5" y="1575.4229">operationType.Status,</text><text fill="#000000" font-family="sans-serif" font-size="13" lengthAdjust="spacing" textLength="166" x="1470.5" y="1592.7139">operationType.RequiredStaff,</text><text fill="#000000" font-family="sans-serif" font-size="13" lengthAdjust="spacing" textLength="133" x="1470.5" y="1610.0049">operationType.Phases)</text><line style="stroke:#000000;stroke-width:1.0;stroke-dasharray:2.0,2.0;" x1="1345.5" x2="1961.5" y1="1637.2676" y2="1637.2676"/><text fill="#000000" font-family="sans-serif" font-size="11" font-weight="bold" lengthAdjust="spacing" textLength="61" x="1350.5" y="1649.1377">[If there is]</text><line style="stroke:#181818;stroke-width:1.0;" x1="1463.5" x2="1505.5" y1="1814.5176" y2="1814.5176"/><line style="stroke:#181818;stroke-width:1.0;" x1="1505.5" x2="1505.5" y1="1814.5176" y2="1827.5176"/><line style="stroke:#181818;stroke-width:1.0;" x1="1464.5" x2="1505.5" y1="1827.5176" y2="1827.5176"/><polygon fill="#181818" points="1474.5,1823.5176,1464.5,1827.5176,1474.5,1831.5176,1470.5,1827.5176" style="stroke:#181818;stroke-width:1.0;"/><text fill="#000000" font-family="sans-serif" font-size="13" lengthAdjust="spacing" textLength="479" x="1470.5" y="1670.9268">operationRecord = new OperationTypeRecord(new Date(todayDate.Start.ToString(),</text><text fill="#000000" font-family="sans-serif" font-size="13" lengthAdjust="spacing" textLength="154" x="1470.5" y="1688.2178">todayDate.End.ToString()),</text><text fill="#000000" font-family="sans-serif" font-size="13" lengthAdjust="spacing" textLength="216" x="1474.5" y="1705.5088">operationRecord1.Version.Version+1,</text><text fill="#000000" font-family="sans-serif" font-size="13" lengthAdjust="spacing" textLength="99" x="1470.5" y="1722.7998">operationType.Id,</text><text fill="#000000" font-family="sans-serif" font-size="13" lengthAdjust="spacing" textLength="123" x="1470.5" y="1740.0908">operationType.Name,</text><text fill="#000000" font-family="sans-serif" font-size="13" lengthAdjust="spacing" textLength="196" x="1470.5" y="1757.3818">operationType.EstimatedDuration,</text><text fill="#000000" font-family="sans-serif" font-size="13" lengthAdjust="spacing" textLength="127" x="1470.5" y="1774.6729">operationType.Status,</text><text fill="#000000" font-family="sans-serif" font-size="13" lengthAdjust="spacing" textLength="166" x="1470.5" y="1791.9639">operationType.RequiredStaff,</text><text fill="#000000" font-family="sans-serif" font-size="13" lengthAdjust="spacing" textLength="133" x="1470.5" y="1809.2549">operationType.Phases)</text><polygon fill="#181818" points="1944.5,1861.8086,1954.5,1865.8086,1944.5,1869.8086,1948.5,1865.8086" style="stroke:#181818;stroke-width:1.0;"/><line style="stroke:#181818;stroke-width:1.0;" x1="1463.5" x2="1950.5" y1="1865.8086" y2="1865.8086"/><text fill="#000000" font-family="sans-serif" font-size="13" lengthAdjust="spacing" textLength="162" x="1470.5" y="1860.5459">AddAsync(operationRecord)</text><polygon fill="#181818" points="1474.5,1893.0996,1464.5,1897.0996,1474.5,1901.0996,1470.5,1897.0996" style="stroke:#181818;stroke-width:1.0;"/><line style="stroke:#181818;stroke-width:1.0;stroke-dasharray:2.0,2.0;" x1="1468.5" x2="1960.5" y1="1897.0996" y2="1897.0996"/><text fill="#000000" font-family="sans-serif" font-size="13" lengthAdjust="spacing" textLength="22" x="1480.5" y="1891.8369">true</text><line style="stroke:#181818;stroke-width:1.0;" x1="1463.5" x2="1505.5" y1="1928.3906" y2="1928.3906"/><line style="stroke:#181818;stroke-width:1.0;" x1="1505.5" x2="1505.5" y1="1928.3906" y2="1941.3906"/><line style="stroke:#181818;stroke-width:1.0;" x1="1464.5" x2="1505.5" y1="1941.3906" y2="1941.3906"/><polygon fill="#181818" points="1474.5,1937.3906,1464.5,1941.3906,1474.5,1945.3906,1470.5,1941.3906" style="stroke:#181818;stroke-width:1.0;"/><text fill="#000000" font-family="sans-serif" font-size="13" lengthAdjust="spacing" textLength="90" x="1470.5" y="1923.1279">CommitAsync()</text><polygon fill="#181818" points="2112.5,2003.2637,2122.5,2007.2637,2112.5,2011.2637,2116.5,2007.2637" style="stroke:#181818;stroke-width:1.0;"/><line style="stroke:#181818;stroke-width:1.0;" x1="1463.5" x2="2118.5" y1="2007.2637" y2="2007.2637"/><text fill="#000000" font-family="sans-serif" font-size="13" lengthAdjust="spacing" textLength="260" x="1470.5" y="1967.4189">CreateCreationLog(operationRecord.Id.Value,</text><text fill="#000000" font-family="sans-serif" font-size="13" lengthAdjust="spacing" textLength="197" x="1470.5" y="1984.71">operationRecord.GetType().Name,</text><text fill="#000000" font-family="sans-serif" font-size="13" lengthAdjust="spacing" textLength="260" x="1470.5" y="2002.001">"New operation type version record created.")</text><polygon fill="#181818" points="2172,2017.2637,2182,2021.2637,2172,2025.2637,2176,2021.2637" style="stroke:#181818;stroke-width:1.0;"/><line style="stroke:#181818;stroke-width:1.0;" x1="2134.5" x2="2178" y1="2021.2637" y2="2021.2637"/><rect fill="#E2E2F0" height="51.2422" rx="2.5" ry="2.5" style="stroke:#181818;stroke-width:0.5;" width="78" x="2184" y="2015.2637"/><text fill="#000000" font-family="sans-serif" font-size="14" lengthAdjust="spacing" textLength="64" x="2191" y="2037.3711">&#171;Domain&#187;</text><text fill="#000000" font-family="sans-serif" font-size="14" lengthAdjust="spacing" textLength="24" x="2213" y="2055.9922">Log</text><polygon fill="#181818" points="2310,2096.7969,2320,2100.7969,2310,2104.7969,2314,2100.7969" style="stroke:#181818;stroke-width:1.0;"/><line style="stroke:#181818;stroke-width:1.0;" x1="2134.5" x2="2316" y1="2100.7969" y2="2100.7969"/><text fill="#000000" font-family="sans-serif" font-size="13" lengthAdjust="spacing" textLength="85" x="2141.5" y="2095.5342">AddAsync(log)</text><polygon fill="#181818" points="2145.5,2128.0879,2135.5,2132.0879,2145.5,2136.0879,2141.5,2132.0879" style="stroke:#181818;stroke-width:1.0;"/><line style="stroke:#181818;stroke-width:1.0;stroke-dasharray:2.0,2.0;" x1="2139.5" x2="2326" y1="2132.0879" y2="2132.0879"/><text fill="#000000" font-family="sans-serif" font-size="13" lengthAdjust="spacing" textLength="22" x="2151.5" y="2126.8252">true</text><polygon fill="#181818" points="1474.5,2159.3789,1464.5,2163.3789,1474.5,2167.3789,1470.5,2163.3789" style="stroke:#181818;stroke-width:1.0;"/><line style="stroke:#181818;stroke-width:1.0;stroke-dasharray:2.0,2.0;" x1="1468.5" x2="2128.5" y1="2163.3789" y2="2163.3789"/><text fill="#000000" font-family="sans-serif" font-size="13" lengthAdjust="spacing" textLength="22" x="1480.5" y="2158.1162">true</text><polygon fill="#181818" points="518,2190.6699,508,2194.6699,518,2198.6699,514,2194.6699" style="stroke:#181818;stroke-width:1.0;"/><line style="stroke:#181818;stroke-width:1.0;stroke-dasharray:2.0,2.0;" x1="512" x2="1457.5" y1="2194.6699" y2="2194.6699"/><text fill="#000000" font-family="sans-serif" font-size="13" lengthAdjust="spacing" textLength="22" x="524" y="2189.4072">true</text><polygon fill="#181818" points="288,2221.9609,278,2225.9609,288,2229.9609,284,2225.9609" style="stroke:#181818;stroke-width:1.0;"/><line style="stroke:#181818;stroke-width:1.0;stroke-dasharray:2.0,2.0;" x1="282" x2="501" y1="2225.9609" y2="2225.9609"/><text fill="#000000" font-family="sans-serif" font-size="13" lengthAdjust="spacing" textLength="33" x="294" y="2220.6982">return</text><line style="stroke:#181818;stroke-width:1.0;stroke-dasharray:2.0,2.0;" x1="277" x2="319" y1="2257.252" y2="2257.252"/><line style="stroke:#181818;stroke-width:1.0;stroke-dasharray:2.0,2.0;" x1="319" x2="319" y1="2257.252" y2="2270.252"/><line style="stroke:#181818;stroke-width:1.0;stroke-dasharray:2.0,2.0;" x1="278" x2="319" y1="2270.252" y2="2270.252"/><polygon fill="#181818" points="288,2266.252,278,2270.252,288,2274.252,284,2270.252" style="stroke:#181818;stroke-width:1.0;"/><text fill="#000000" font-family="sans-serif" font-size="13" lengthAdjust="spacing" textLength="64" x="284" y="2251.9893">ok(sucess)</text><polygon fill="#181818" points="115,2297.543,105,2301.543,115,2305.543,111,2301.543" style="stroke:#181818;stroke-width:1.0;"/><line style="stroke:#181818;stroke-width:1.0;stroke-dasharray:2.0,2.0;" x1="109" x2="271" y1="2301.543" y2="2301.543"/><text fill="#000000" font-family="sans-serif" font-size="13" lengthAdjust="spacing" textLength="24" x="121" y="2296.2803">json</text><polygon fill="#181818" points="11,2328.834,1,2332.834,11,2336.834,7,2332.834" style="stroke:#181818;stroke-width:1.0;"/><line style="stroke:#181818;stroke-width:1.0;stroke-dasharray:2.0,2.0;" x1="5" x2="98" y1="2332.834" y2="2332.834"/><text fill="#000000" font-family="sans-serif" font-size="13" lengthAdjust="spacing" textLength="24" x="17" y="2327.5713">json</text><!--SRC=[pLVVRzis47xNNq7uPLPQ2yq636YR1KXZBp3WH8Rj1XZc5qwa7BOowP6q2__tEvBwGOfAbhub3x7Ck-_ku_6x4wsPhYWQVLsZtxDViykFQ2b5GPL2Zup-G1DqF_s2Y- -YB5b1qNX1JxH2lwMZ93bWgLd13fXhDBgwMecZfjVNMuxo0vLOCy4tvmErooE45LhbNpUpFkfMS2r5LL4PGpkRnT_c3vjLlkX7M5Dv0cenl3POx7gsUem8quDGJ0jv7c3TsXprsJBlmwURFCOjcD9WiA35VBs1vmWdzfZn66en-NBpr_AvJ3F2T7umlbCjQlVLR3sGuzcQh6WX9F4hivhTvgkfMVcv-fWuKPLCABFu4f-5sFdv5_dTK7AlIW1eFF-78dZsA076yad-5fDhfq3q2TtDDkDlIl0quK9J9DdkISFoZchD-0xf9ugsl8AZHAA49rnLICEcLPBS59gTC62Sc1CN4KBNudHHZ0hoqXsLgZDrq4R7IOC1kD7d43RjO5R2YNKqMm550g1adDnKrJX57ZKZriGwJBhGbHytcL8SkZTnQz5UN2IL40TK2ecWu-KP7QGe6GmAndkX6gILBYJI0l10l4tWDEtC7Y7Xy4QzXFQSUsng-ZU4Z3kKbw7fjCRTooAfFahkPsYSAIVDjeFpgpFKdUnNofs0TseUwFiunAMUewSyemK_PAE5gyaaz0bEo6ajq2ekDPMeU1AWThu3xMFOwhz7gdHFwyjyFIXs5w2MFE2Dw0l1IoRtjijVfNKtaRovy2gnDrFhugALImsBEoBEGFqf-9h- -7AUJ-lJcKyzrLZXzzj4-BbysRWswJK5rbgoV-05PzeYW1hfD5o6GcSTz8y8sHbzbRQ1RiL-p_IDElC2-gnh5ZT9ZOEaGDcK3YRYECmx9zaZhexq_PQ7XZkgRNtJx07lZNdKrjrEFsGAJyadDDhoTxtD64JMkfjlVdVMl9BcmN654HCkc44DvA7BtTOgiGkZs4dUE4w27Mjv34xBytOPkkeDkDeNa2UTveteimas7AYeVNyc7hADK-yAghl0IlyfnTw9DpgMAARTW1TaqkTMGS2swEwD72gsZJB8h8vomXAQaE3p55inShZrcSVnbfkF3OEZVH0_ierOWoZvRZmwmz_a_dv2o2XDFoS9hZIQbsQ2IFgBGbp0AB9aNaehGk9rue5BnhWbrBBCrXhk0HsZ5DJQ6MUSUARqFVeGQNrEeYKhUjHVdIdDO1vICZswrGW7LFHHHSih6CPCKWBcieoiooUig8BUfPMYRUqGKs-aP5lUJtQPFLAfu6lp-Uxo3LULanURCMvgjycVRy7-C7bbp_KcUEZPd-FsFt0CPhaZF3ZDQrCypnz05IASwITtc7N3ei8c9Dde3Oxl5-lU3d6_bC_FV7ze3rm1uqjZx-hNl_kfe_d5d3v_vIFnbI- -yv7eolSV]--></g></svg>