<?xml version="1.0" encoding="UTF-8" standalone="no"?><svg xmlns="http://www.w3.org/2000/svg" xmlns:xlink="http://www.w3.org/1999/xlink" contentStyleType="text/css" height="1122px" preserveAspectRatio="none" style="width:556px;height:1122px;background:#FFFFFF;" version="1.1" viewBox="0 0 556 1122" width="556px" zoomAndPan="magnify"><defs/><g><!--cluster <<aggregate>> User--><g id="cluster_&lt;&lt;aggregate&gt;&gt; User"><path d="M301.5,987.8945 L469.5,987.8945 A3.75,3.75 0 0 1 472,990.3945 L479,1019.0508 L479.5,1019.0508 A2.5,2.5 0 0 1 482,1021.5508 L482,1113.3945 A2.5,2.5 0 0 1 479.5,1115.8945 L301.5,1115.8945 A2.5,2.5 0 0 1 299,1113.3945 L299,990.3945 A2.5,2.5 0 0 1 301.5,987.8945 " fill="none" style="stroke:#000000;stroke-width:1.5;"/><line style="stroke:#000000;stroke-width:1.5;" x1="299" x2="479" y1="1019.0508" y2="1019.0508"/><text fill="#000000" font-family="sans-serif" font-size="20" font-weight="bold" lengthAdjust="spacing" textLength="167" x="303" y="1010.6563">«aggregate» User</text></g><!--cluster <<aggregate>> Staff--><g id="cluster_&lt;&lt;aggregate&gt;&gt; Staff"><path d="M80.5,764.8945 L249.5,764.8945 A3.75,3.75 0 0 1 252,767.3945 L259,796.0508 L259.5,796.0508 A2.5,2.5 0 0 1 262,798.5508 L262,890.3945 A2.5,2.5 0 0 1 259.5,892.8945 L80.5,892.8945 A2.5,2.5 0 0 1 78,890.3945 L78,767.3945 A2.5,2.5 0 0 1 80.5,764.8945 " fill="none" style="stroke:#000000;stroke-width:1.5;"/><line style="stroke:#000000;stroke-width:1.5;" x1="78" x2="259" y1="796.0508" y2="796.0508"/><text fill="#000000" font-family="sans-serif" font-size="20" font-weight="bold" lengthAdjust="spacing" textLength="168" x="82" y="787.6563">«aggregate» Staff</text></g><!--cluster <<aggregate>> Patient--><g id="cluster_&lt;&lt;aggregate&gt;&gt; Patient"><path d="M299.5,764.8945 L489.5,764.8945 A3.75,3.75 0 0 1 492,767.3945 L499,796.0508 L499.5,796.0508 A2.5,2.5 0 0 1 502,798.5508 L502,890.3945 A2.5,2.5 0 0 1 499.5,892.8945 L299.5,892.8945 A2.5,2.5 0 0 1 297,890.3945 L297,767.3945 A2.5,2.5 0 0 1 299.5,764.8945 " fill="none" style="stroke:#000000;stroke-width:1.5;"/><line style="stroke:#000000;stroke-width:1.5;" x1="297" x2="499" y1="796.0508" y2="796.0508"/><text fill="#000000" font-family="sans-serif" font-size="20" font-weight="bold" lengthAdjust="spacing" textLength="189" x="301" y="787.6563">«aggregate» Patient</text></g><!--cluster <<aggregate>> Doctor--><g id="cluster_&lt;&lt;aggregate&gt;&gt; Doctor"><path d="M77.5,442.8945 L265.5,442.8945 A3.75,3.75 0 0 1 268,445.3945 L275,474.0508 L275.5,474.0508 A2.5,2.5 0 0 1 278,476.5508 L278,568.3945 A2.5,2.5 0 0 1 275.5,570.8945 L77.5,570.8945 A2.5,2.5 0 0 1 75,568.3945 L75,445.3945 A2.5,2.5 0 0 1 77.5,442.8945 " fill="none" style="stroke:#000000;stroke-width:1.5;"/><line style="stroke:#000000;stroke-width:1.5;" x1="75" x2="275" y1="474.0508" y2="474.0508"/><text fill="#000000" font-family="sans-serif" font-size="20" font-weight="bold" lengthAdjust="spacing" textLength="187" x="79" y="465.6563">«aggregate» Doctor</text></g><!--cluster <<aggregate>> Appointment--><g id="cluster_&lt;&lt;aggregate&gt;&gt; Appointment"><path d="M292.5,6.8945 L536.5,6.8945 A3.75,3.75 0 0 1 539,9.3945 L546,38.0508 L546.5,38.0508 A2.5,2.5 0 0 1 549,40.5508 L549,132.3945 A2.5,2.5 0 0 1 546.5,134.8945 L292.5,134.8945 A2.5,2.5 0 0 1 290,132.3945 L290,9.3945 A2.5,2.5 0 0 1 292.5,6.8945 " fill="none" style="stroke:#000000;stroke-width:1.5;"/><line style="stroke:#000000;stroke-width:1.5;" x1="290" x2="546" y1="38.0508" y2="38.0508"/><text fill="#000000" font-family="sans-serif" font-size="20" font-weight="bold" lengthAdjust="spacing" textLength="243" x="294" y="29.6563">«aggregate» Appointment</text></g><!--cluster <<aggregate>> OperationRequest--><g id="cluster_&lt;&lt;aggregate&gt;&gt; OperationRequest"><path d="M9.5,255.8945 L305.5,255.8945 A3.75,3.75 0 0 1 308,258.3945 L315,287.0508 L315.5,287.0508 A2.5,2.5 0 0 1 318,289.5508 L318,381.3945 A2.5,2.5 0 0 1 315.5,383.8945 L9.5,383.8945 A2.5,2.5 0 0 1 7,381.3945 L7,258.3945 A2.5,2.5 0 0 1 9.5,255.8945 " fill="none" style="stroke:#000000;stroke-width:1.5;"/><line style="stroke:#000000;stroke-width:1.5;" x1="7" x2="315" y1="287.0508" y2="287.0508"/><text fill="#000000" font-family="sans-serif" font-size="20" font-weight="bold" lengthAdjust="spacing" textLength="295" x="11" y="278.6563">«aggregate» OperationRequest</text></g><!--cluster <<aggregate>> OperationType--><g id="cluster_&lt;&lt;aggregate&gt;&gt; OperationType"><path d="M241.5,603.8945 L506.5,603.8945 A3.75,3.75 0 0 1 509,606.3945 L516,635.0508 L516.5,635.0508 A2.5,2.5 0 0 1 519,637.5508 L519,729.3945 A2.5,2.5 0 0 1 516.5,731.8945 L241.5,731.8945 A2.5,2.5 0 0 1 239,729.3945 L239,606.3945 A2.5,2.5 0 0 1 241.5,603.8945 " fill="none" style="stroke:#000000;stroke-width:1.5;"/><line style="stroke:#000000;stroke-width:1.5;" x1="239" x2="516" y1="635.0508" y2="635.0508"/><text fill="#000000" font-family="sans-serif" font-size="20" font-weight="bold" lengthAdjust="spacing" textLength="264" x="243" y="626.6563">«aggregate» OperationType</text></g><!--cluster <<aggregate>> Room--><g id="cluster_&lt;&lt;aggregate&gt;&gt; Room"><path d="M344.5,255.8945 L523.5,255.8945 A3.75,3.75 0 0 1 526,258.3945 L533,287.0508 L533.5,287.0508 A2.5,2.5 0 0 1 536,289.5508 L536,381.3945 A2.5,2.5 0 0 1 533.5,383.8945 L344.5,383.8945 A2.5,2.5 0 0 1 342,381.3945 L342,258.3945 A2.5,2.5 0 0 1 344.5,255.8945 " fill="none" style="stroke:#000000;stroke-width:1.5;"/><line style="stroke:#000000;stroke-width:1.5;" x1="342" x2="533" y1="287.0508" y2="287.0508"/><text fill="#000000" font-family="sans-serif" font-size="20" font-weight="bold" lengthAdjust="spacing" textLength="178" x="346" y="278.6563">«aggregate» Room</text></g><!--cluster <<aggregate>> Specialization--><g id="cluster_&lt;&lt;aggregate&gt;&gt; Specialization"><path d="M8.5,987.8945 L262.5,987.8945 A3.75,3.75 0 0 1 265,990.3945 L272,1019.0508 L272.5,1019.0508 A2.5,2.5 0 0 1 275,1021.5508 L275,1113.3945 A2.5,2.5 0 0 1 272.5,1115.8945 L8.5,1115.8945 A2.5,2.5 0 0 1 6,1113.3945 L6,990.3945 A2.5,2.5 0 0 1 8.5,987.8945 " fill="none" style="stroke:#000000;stroke-width:1.5;"/><line style="stroke:#000000;stroke-width:1.5;" x1="6" x2="272" y1="1019.0508" y2="1019.0508"/><text fill="#000000" font-family="sans-serif" font-size="20" font-weight="bold" lengthAdjust="spacing" textLength="253" x="10" y="1010.6563">«aggregate» Specialization</text></g><!--class User--><g id="elem_User"><rect codeLine="8" fill="#F5F5DC" height="68.3125" id="User" rx="2.5" ry="2.5" style="stroke:#181818;stroke-width:0.5;" width="99" x="315.5" y="1031.8945"/><ellipse cx="331.5" cy="1062.0508" fill="#ADD1B2" rx="12" ry="12" style="stroke:#181818;stroke-width:1.0;"/><path d="M329.4531,1063.1133 L329.4531,1066.0508 L334.5469,1066.0508 L334.5469,1064.957 Q334.5469,1064.2383 334.8281,1063.9414 Q335.1094,1063.6289 335.5625,1063.6289 Q336,1063.6289 336.2813,1063.9414 Q336.5625,1064.2383 336.5625,1064.957 L336.5625,1068.0508 L327.125,1068.0508 Q326.4063,1068.0508 326.0938,1067.7695 Q325.7969,1067.4883 325.7969,1067.0508 Q325.7969,1066.5977 326.1094,1066.332 Q326.4219,1066.0508 327.125,1066.0508 L327.4375,1066.0508 L327.4375,1058.2227 L327.125,1058.2227 Q326.4063,1058.2227 326.0938,1057.9414 Q325.7969,1057.6602 325.7969,1057.207 Q325.7969,1056.7539 326.0938,1056.4883 Q326.4063,1056.207 327.125,1056.207 L336.1094,1056.207 L336.1094,1059.2539 Q336.1094,1059.9727 335.8281,1060.2852 Q335.5625,1060.582 335.125,1060.582 Q334.6719,1060.582 334.3906,1060.2852 Q334.1094,1059.9883 334.1094,1059.2539 L334.1094,1058.2227 L329.4531,1058.2227 L329.4531,1061.1133 L331.2031,1061.1133 Q331.2031,1060.332 331.3438,1060.0977 Q331.6563,1059.6289 332.2031,1059.6289 Q332.6563,1059.6289 332.9219,1059.9414 Q333.2031,1060.2383 333.2031,1060.957 L333.2031,1063.2695 Q333.2031,1063.9258 333.0469,1064.1445 Q332.7344,1064.5977 332.2031,1064.5977 Q331.6563,1064.5977 331.3438,1064.1289 Q331.2031,1063.8945 331.2031,1063.1133 L329.4531,1063.1133 Z " fill="#000000"/><text fill="#000000" font-family="sans-serif" font-size="20" font-style="italic" lengthAdjust="spacing" textLength="69" x="344.5" y="1057.6563">«entity»</text><text fill="#000000" font-family="sans-serif" font-size="20" lengthAdjust="spacing" textLength="41" x="358.5" y="1082.8125">User</text><line style="stroke:#181818;stroke-width:0.5;" x1="316.5" x2="413.5" y1="1092.207" y2="1092.207"/></g><!--class Staff--><g id="elem_Staff"><rect codeLine="12" fill="#F5F5DC" height="68.3125" id="Staff" rx="2.5" ry="2.5" style="stroke:#181818;stroke-width:0.5;" width="99" x="139.5" y="808.8945"/><ellipse cx="155.5" cy="839.0508" fill="#ADD1B2" rx="12" ry="12" style="stroke:#181818;stroke-width:1.0;"/><path d="M153.4531,840.1133 L153.4531,843.0508 L158.5469,843.0508 L158.5469,841.957 Q158.5469,841.2383 158.8281,840.9414 Q159.1094,840.6289 159.5625,840.6289 Q160,840.6289 160.2813,840.9414 Q160.5625,841.2383 160.5625,841.957 L160.5625,845.0508 L151.125,845.0508 Q150.4063,845.0508 150.0938,844.7695 Q149.7969,844.4883 149.7969,844.0508 Q149.7969,843.5977 150.1094,843.332 Q150.4219,843.0508 151.125,843.0508 L151.4375,843.0508 L151.4375,835.2227 L151.125,835.2227 Q150.4063,835.2227 150.0938,834.9414 Q149.7969,834.6602 149.7969,834.207 Q149.7969,833.7539 150.0938,833.4883 Q150.4063,833.207 151.125,833.207 L160.1094,833.207 L160.1094,836.2539 Q160.1094,836.9727 159.8281,837.2852 Q159.5625,837.582 159.125,837.582 Q158.6719,837.582 158.3906,837.2852 Q158.1094,836.9883 158.1094,836.2539 L158.1094,835.2227 L153.4531,835.2227 L153.4531,838.1133 L155.2031,838.1133 Q155.2031,837.332 155.3438,837.0977 Q155.6563,836.6289 156.2031,836.6289 Q156.6563,836.6289 156.9219,836.9414 Q157.2031,837.2383 157.2031,837.957 L157.2031,840.2695 Q157.2031,840.9258 157.0469,841.1445 Q156.7344,841.5977 156.2031,841.5977 Q155.6563,841.5977 155.3438,841.1289 Q155.2031,840.8945 155.2031,840.1133 L153.4531,840.1133 Z " fill="#000000"/><text fill="#000000" font-family="sans-serif" font-size="20" font-style="italic" lengthAdjust="spacing" textLength="69" x="168.5" y="834.6563">«entity»</text><text fill="#000000" font-family="sans-serif" font-size="20" lengthAdjust="spacing" textLength="42" x="182" y="859.8125">Staff</text><line style="stroke:#181818;stroke-width:0.5;" x1="140.5" x2="237.5" y1="869.207" y2="869.207"/></g><!--class Patient--><g id="elem_Patient"><rect codeLine="15" fill="#F5F5DC" height="68.3125" id="Patient" rx="2.5" ry="2.5" style="stroke:#181818;stroke-width:0.5;" width="99" x="315.5" y="808.8945"/><ellipse cx="331.5" cy="839.0508" fill="#ADD1B2" rx="12" ry="12" style="stroke:#181818;stroke-width:1.0;"/><path d="M329.4531,840.1133 L329.4531,843.0508 L334.5469,843.0508 L334.5469,841.957 Q334.5469,841.2383 334.8281,840.9414 Q335.1094,840.6289 335.5625,840.6289 Q336,840.6289 336.2813,840.9414 Q336.5625,841.2383 336.5625,841.957 L336.5625,845.0508 L327.125,845.0508 Q326.4063,845.0508 326.0938,844.7695 Q325.7969,844.4883 325.7969,844.0508 Q325.7969,843.5977 326.1094,843.332 Q326.4219,843.0508 327.125,843.0508 L327.4375,843.0508 L327.4375,835.2227 L327.125,835.2227 Q326.4063,835.2227 326.0938,834.9414 Q325.7969,834.6602 325.7969,834.207 Q325.7969,833.7539 326.0938,833.4883 Q326.4063,833.207 327.125,833.207 L336.1094,833.207 L336.1094,836.2539 Q336.1094,836.9727 335.8281,837.2852 Q335.5625,837.582 335.125,837.582 Q334.6719,837.582 334.3906,837.2852 Q334.1094,836.9883 334.1094,836.2539 L334.1094,835.2227 L329.4531,835.2227 L329.4531,838.1133 L331.2031,838.1133 Q331.2031,837.332 331.3438,837.0977 Q331.6563,836.6289 332.2031,836.6289 Q332.6563,836.6289 332.9219,836.9414 Q333.2031,837.2383 333.2031,837.957 L333.2031,840.2695 Q333.2031,840.9258 333.0469,841.1445 Q332.7344,841.5977 332.2031,841.5977 Q331.6563,841.5977 331.3438,841.1289 Q331.2031,840.8945 331.2031,840.1133 L329.4531,840.1133 Z " fill="#000000"/><text fill="#000000" font-family="sans-serif" font-size="20" font-style="italic" lengthAdjust="spacing" textLength="69" x="344.5" y="834.6563">«entity»</text><text fill="#000000" font-family="sans-serif" font-size="20" lengthAdjust="spacing" textLength="61" x="348.5" y="859.8125">Patient</text><line style="stroke:#181818;stroke-width:0.5;" x1="316.5" x2="413.5" y1="869.207" y2="869.207"/></g><!--class Doctor--><g id="elem_Doctor"><rect codeLine="18" fill="#F5F5DC" height="68.3125" id="Doctor" rx="2.5" ry="2.5" style="stroke:#181818;stroke-width:0.5;" width="99" x="150.5" y="486.8945"/><ellipse cx="166.5" cy="517.0508" fill="#ADD1B2" rx="12" ry="12" style="stroke:#181818;stroke-width:1.0;"/><path d="M164.4531,518.1133 L164.4531,521.0508 L169.5469,521.0508 L169.5469,519.957 Q169.5469,519.2383 169.8281,518.9414 Q170.1094,518.6289 170.5625,518.6289 Q171,518.6289 171.2813,518.9414 Q171.5625,519.2383 171.5625,519.957 L171.5625,523.0508 L162.125,523.0508 Q161.4063,523.0508 161.0938,522.7695 Q160.7969,522.4883 160.7969,522.0508 Q160.7969,521.5977 161.1094,521.332 Q161.4219,521.0508 162.125,521.0508 L162.4375,521.0508 L162.4375,513.2227 L162.125,513.2227 Q161.4063,513.2227 161.0938,512.9414 Q160.7969,512.6602 160.7969,512.207 Q160.7969,511.7539 161.0938,511.4883 Q161.4063,511.207 162.125,511.207 L171.1094,511.207 L171.1094,514.2539 Q171.1094,514.9727 170.8281,515.2852 Q170.5625,515.582 170.125,515.582 Q169.6719,515.582 169.3906,515.2852 Q169.1094,514.9883 169.1094,514.2539 L169.1094,513.2227 L164.4531,513.2227 L164.4531,516.1133 L166.2031,516.1133 Q166.2031,515.332 166.3438,515.0977 Q166.6563,514.6289 167.2031,514.6289 Q167.6563,514.6289 167.9219,514.9414 Q168.2031,515.2383 168.2031,515.957 L168.2031,518.2695 Q168.2031,518.9258 168.0469,519.1445 Q167.7344,519.5977 167.2031,519.5977 Q166.6563,519.5977 166.3438,519.1289 Q166.2031,518.8945 166.2031,518.1133 L164.4531,518.1133 Z " fill="#000000"/><text fill="#000000" font-family="sans-serif" font-size="20" font-style="italic" lengthAdjust="spacing" textLength="69" x="179.5" y="512.6563">«entity»</text><text fill="#000000" font-family="sans-serif" font-size="20" lengthAdjust="spacing" textLength="59" x="184.5" y="537.8125">Doctor</text><line style="stroke:#181818;stroke-width:0.5;" x1="151.5" x2="248.5" y1="547.207" y2="547.207"/></g><!--class Appointment--><g id="elem_Appointment"><rect codeLine="21" fill="#F5F5DC" height="68.3125" id="Appointment" rx="2.5" ry="2.5" style="stroke:#181818;stroke-width:0.5;" width="143" x="319.5" y="50.8945"/><ellipse cx="335.5" cy="81.0508" fill="#ADD1B2" rx="12" ry="12" style="stroke:#181818;stroke-width:1.0;"/><path d="M333.4531,82.1133 L333.4531,85.0508 L338.5469,85.0508 L338.5469,83.957 Q338.5469,83.2383 338.8281,82.9414 Q339.1094,82.6289 339.5625,82.6289 Q340,82.6289 340.2813,82.9414 Q340.5625,83.2383 340.5625,83.957 L340.5625,87.0508 L331.125,87.0508 Q330.4063,87.0508 330.0938,86.7695 Q329.7969,86.4883 329.7969,86.0508 Q329.7969,85.5977 330.1094,85.332 Q330.4219,85.0508 331.125,85.0508 L331.4375,85.0508 L331.4375,77.2227 L331.125,77.2227 Q330.4063,77.2227 330.0938,76.9414 Q329.7969,76.6602 329.7969,76.207 Q329.7969,75.7539 330.0938,75.4883 Q330.4063,75.207 331.125,75.207 L340.1094,75.207 L340.1094,78.2539 Q340.1094,78.9727 339.8281,79.2852 Q339.5625,79.582 339.125,79.582 Q338.6719,79.582 338.3906,79.2852 Q338.1094,78.9883 338.1094,78.2539 L338.1094,77.2227 L333.4531,77.2227 L333.4531,80.1133 L335.2031,80.1133 Q335.2031,79.332 335.3438,79.0977 Q335.6563,78.6289 336.2031,78.6289 Q336.6563,78.6289 336.9219,78.9414 Q337.2031,79.2383 337.2031,79.957 L337.2031,82.2695 Q337.2031,82.9258 337.0469,83.1445 Q336.7344,83.5977 336.2031,83.5977 Q335.6563,83.5977 335.3438,83.1289 Q335.2031,82.8945 335.2031,82.1133 L333.4531,82.1133 Z " fill="#000000"/><text fill="#000000" font-family="sans-serif" font-size="20" font-style="italic" lengthAdjust="spacing" textLength="69" x="370.5" y="76.6563">«entity»</text><text fill="#000000" font-family="sans-serif" font-size="20" lengthAdjust="spacing" textLength="109" x="350.5" y="101.8125">Appointment</text><line style="stroke:#181818;stroke-width:0.5;" x1="320.5" x2="461.5" y1="111.207" y2="111.207"/></g><!--class OperationRequest--><g id="elem_OperationRequest"><rect codeLine="24" fill="#F5F5DC" height="68.3125" id="OperationRequest" rx="2.5" ry="2.5" style="stroke:#181818;stroke-width:0.5;" width="194" x="108" y="299.8945"/><ellipse cx="124" cy="330.0508" fill="#ADD1B2" rx="12" ry="12" style="stroke:#181818;stroke-width:1.0;"/><path d="M121.9531,331.1133 L121.9531,334.0508 L127.0469,334.0508 L127.0469,332.957 Q127.0469,332.2383 127.3281,331.9414 Q127.6094,331.6289 128.0625,331.6289 Q128.5,331.6289 128.7813,331.9414 Q129.0625,332.2383 129.0625,332.957 L129.0625,336.0508 L119.625,336.0508 Q118.9063,336.0508 118.5938,335.7695 Q118.2969,335.4883 118.2969,335.0508 Q118.2969,334.5977 118.6094,334.332 Q118.9219,334.0508 119.625,334.0508 L119.9375,334.0508 L119.9375,326.2227 L119.625,326.2227 Q118.9063,326.2227 118.5938,325.9414 Q118.2969,325.6602 118.2969,325.207 Q118.2969,324.7539 118.5938,324.4883 Q118.9063,324.207 119.625,324.207 L128.6094,324.207 L128.6094,327.2539 Q128.6094,327.9727 128.3281,328.2852 Q128.0625,328.582 127.625,328.582 Q127.1719,328.582 126.8906,328.2852 Q126.6094,327.9883 126.6094,327.2539 L126.6094,326.2227 L121.9531,326.2227 L121.9531,329.1133 L123.7031,329.1133 Q123.7031,328.332 123.8438,328.0977 Q124.1563,327.6289 124.7031,327.6289 Q125.1563,327.6289 125.4219,327.9414 Q125.7031,328.2383 125.7031,328.957 L125.7031,331.2695 Q125.7031,331.9258 125.5469,332.1445 Q125.2344,332.5977 124.7031,332.5977 Q124.1563,332.5977 123.8438,332.1289 Q123.7031,331.8945 123.7031,331.1133 L121.9531,331.1133 Z " fill="#000000"/><text fill="#000000" font-family="sans-serif" font-size="20" font-style="italic" lengthAdjust="spacing" textLength="69" x="184.5" y="325.6563">«entity»</text><text fill="#000000" font-family="sans-serif" font-size="20" lengthAdjust="spacing" textLength="160" x="139" y="350.8125">OperationRequest</text><line style="stroke:#181818;stroke-width:0.5;" x1="109" x2="301" y1="360.207" y2="360.207"/></g><!--class OperationType--><g id="elem_OperationType"><rect codeLine="27" fill="#F5F5DC" height="68.3125" id="OperationType" rx="2.5" ry="2.5" style="stroke:#181818;stroke-width:0.5;" width="165" x="257.5" y="647.8945"/><ellipse cx="273.5" cy="678.0508" fill="#ADD1B2" rx="12" ry="12" style="stroke:#181818;stroke-width:1.0;"/><path d="M271.4531,679.1133 L271.4531,682.0508 L276.5469,682.0508 L276.5469,680.957 Q276.5469,680.2383 276.8281,679.9414 Q277.1094,679.6289 277.5625,679.6289 Q278,679.6289 278.2813,679.9414 Q278.5625,680.2383 278.5625,680.957 L278.5625,684.0508 L269.125,684.0508 Q268.4063,684.0508 268.0938,683.7695 Q267.7969,683.4883 267.7969,683.0508 Q267.7969,682.5977 268.1094,682.332 Q268.4219,682.0508 269.125,682.0508 L269.4375,682.0508 L269.4375,674.2227 L269.125,674.2227 Q268.4063,674.2227 268.0938,673.9414 Q267.7969,673.6602 267.7969,673.207 Q267.7969,672.7539 268.0938,672.4883 Q268.4063,672.207 269.125,672.207 L278.1094,672.207 L278.1094,675.2539 Q278.1094,675.9727 277.8281,676.2852 Q277.5625,676.582 277.125,676.582 Q276.6719,676.582 276.3906,676.2852 Q276.1094,675.9883 276.1094,675.2539 L276.1094,674.2227 L271.4531,674.2227 L271.4531,677.1133 L273.2031,677.1133 Q273.2031,676.332 273.3438,676.0977 Q273.6563,675.6289 274.2031,675.6289 Q274.6563,675.6289 274.9219,675.9414 Q275.2031,676.2383 275.2031,676.957 L275.2031,679.2695 Q275.2031,679.9258 275.0469,680.1445 Q274.7344,680.5977 274.2031,680.5977 Q273.6563,680.5977 273.3438,680.1289 Q273.2031,679.8945 273.2031,679.1133 L271.4531,679.1133 Z " fill="#000000"/><text fill="#000000" font-family="sans-serif" font-size="20" font-style="italic" lengthAdjust="spacing" textLength="69" x="319.5" y="673.6563">«entity»</text><text fill="#000000" font-family="sans-serif" font-size="20" lengthAdjust="spacing" textLength="131" x="288.5" y="698.8125">OperationType</text><line style="stroke:#181818;stroke-width:0.5;" x1="258.5" x2="421.5" y1="708.207" y2="708.207"/></g><!--class Room--><g id="elem_Room"><rect codeLine="31" fill="#F5F5DC" height="68.3125" id="Room" rx="2.5" ry="2.5" style="stroke:#181818;stroke-width:0.5;" width="99" x="358.5" y="299.8945"/><ellipse cx="374.5" cy="330.0508" fill="#ADD1B2" rx="12" ry="12" style="stroke:#181818;stroke-width:1.0;"/><path d="M372.4531,331.1133 L372.4531,334.0508 L377.5469,334.0508 L377.5469,332.957 Q377.5469,332.2383 377.8281,331.9414 Q378.1094,331.6289 378.5625,331.6289 Q379,331.6289 379.2813,331.9414 Q379.5625,332.2383 379.5625,332.957 L379.5625,336.0508 L370.125,336.0508 Q369.4063,336.0508 369.0938,335.7695 Q368.7969,335.4883 368.7969,335.0508 Q368.7969,334.5977 369.1094,334.332 Q369.4219,334.0508 370.125,334.0508 L370.4375,334.0508 L370.4375,326.2227 L370.125,326.2227 Q369.4063,326.2227 369.0938,325.9414 Q368.7969,325.6602 368.7969,325.207 Q368.7969,324.7539 369.0938,324.4883 Q369.4063,324.207 370.125,324.207 L379.1094,324.207 L379.1094,327.2539 Q379.1094,327.9727 378.8281,328.2852 Q378.5625,328.582 378.125,328.582 Q377.6719,328.582 377.3906,328.2852 Q377.1094,327.9883 377.1094,327.2539 L377.1094,326.2227 L372.4531,326.2227 L372.4531,329.1133 L374.2031,329.1133 Q374.2031,328.332 374.3438,328.0977 Q374.6563,327.6289 375.2031,327.6289 Q375.6563,327.6289 375.9219,327.9414 Q376.2031,328.2383 376.2031,328.957 L376.2031,331.2695 Q376.2031,331.9258 376.0469,332.1445 Q375.7344,332.5977 375.2031,332.5977 Q374.6563,332.5977 374.3438,332.1289 Q374.2031,331.8945 374.2031,331.1133 L372.4531,331.1133 Z " fill="#000000"/><text fill="#000000" font-family="sans-serif" font-size="20" font-style="italic" lengthAdjust="spacing" textLength="69" x="387.5" y="325.6563">«entity»</text><text fill="#000000" font-family="sans-serif" font-size="20" lengthAdjust="spacing" textLength="52" x="396" y="350.8125">Room</text><line style="stroke:#181818;stroke-width:0.5;" x1="359.5" x2="456.5" y1="360.207" y2="360.207"/></g><!--class Specialization--><g id="elem_Specialization"><rect codeLine="34" fill="#F5F5DC" height="68.3125" id="Specialization" rx="2.5" ry="2.5" style="stroke:#181818;stroke-width:0.5;" width="153" x="105.5" y="1031.8945"/><ellipse cx="121.5" cy="1062.0508" fill="#ADD1B2" rx="12" ry="12" style="stroke:#181818;stroke-width:1.0;"/><path d="M119.4531,1063.1133 L119.4531,1066.0508 L124.5469,1066.0508 L124.5469,1064.957 Q124.5469,1064.2383 124.8281,1063.9414 Q125.1094,1063.6289 125.5625,1063.6289 Q126,1063.6289 126.2813,1063.9414 Q126.5625,1064.2383 126.5625,1064.957 L126.5625,1068.0508 L117.125,1068.0508 Q116.4063,1068.0508 116.0938,1067.7695 Q115.7969,1067.4883 115.7969,1067.0508 Q115.7969,1066.5977 116.1094,1066.332 Q116.4219,1066.0508 117.125,1066.0508 L117.4375,1066.0508 L117.4375,1058.2227 L117.125,1058.2227 Q116.4063,1058.2227 116.0938,1057.9414 Q115.7969,1057.6602 115.7969,1057.207 Q115.7969,1056.7539 116.0938,1056.4883 Q116.4063,1056.207 117.125,1056.207 L126.1094,1056.207 L126.1094,1059.2539 Q126.1094,1059.9727 125.8281,1060.2852 Q125.5625,1060.582 125.125,1060.582 Q124.6719,1060.582 124.3906,1060.2852 Q124.1094,1059.9883 124.1094,1059.2539 L124.1094,1058.2227 L119.4531,1058.2227 L119.4531,1061.1133 L121.2031,1061.1133 Q121.2031,1060.332 121.3438,1060.0977 Q121.6563,1059.6289 122.2031,1059.6289 Q122.6563,1059.6289 122.9219,1059.9414 Q123.2031,1060.2383 123.2031,1060.957 L123.2031,1063.2695 Q123.2031,1063.9258 123.0469,1064.1445 Q122.7344,1064.5977 122.2031,1064.5977 Q121.6563,1064.5977 121.3438,1064.1289 Q121.2031,1063.8945 121.2031,1063.1133 L119.4531,1063.1133 Z " fill="#000000"/><text fill="#000000" font-family="sans-serif" font-size="20" font-style="italic" lengthAdjust="spacing" textLength="69" x="161.5" y="1057.6563">«entity»</text><text fill="#000000" font-family="sans-serif" font-size="20" lengthAdjust="spacing" textLength="119" x="136.5" y="1082.8125">Specialization</text><line style="stroke:#181818;stroke-width:0.5;" x1="106.5" x2="257.5" y1="1092.207" y2="1092.207"/></g><!--reverse link Staff to User--><g id="link_Staff_User"><path codeLine="38" d="M218.53,880.9745 C252.05,923.0645 306.25,991.1145 338.47,1031.5845 " fill="none" id="Staff-backto-User" style="stroke:#222222;stroke-width:1.0;"/><polygon fill="#222222" points="215.35,876.9845,217.8233,886.5178,218.463,880.8972,224.0836,881.537,215.35,876.9845" style="stroke:#222222;stroke-width:1.0;"/><text fill="#000000" font-family="sans-serif" font-size="20" lengthAdjust="spacing" textLength="11" x="208.0639" y="906.0312">1</text></g><!--reverse link Patient to User--><g id="link_Patient_User"><path codeLine="39" d="M365,881.9945 C365,924.1545 365,991.4445 365,1031.5845 " fill="none" id="Patient-backto-User" style="stroke:#222222;stroke-width:1.0;"/><polygon fill="#222222" points="365,876.9845,361,885.9845,365,881.9845,369,885.9845,365,876.9845" style="stroke:#222222;stroke-width:1.0;"/><text fill="#000000" font-family="sans-serif" font-size="20" lengthAdjust="spacing" textLength="34" x="327.9719" y="906.0312">0..1</text></g><!--link Doctor to Staff--><g id="link_Doctor_Staff"><path codeLine="40" d="M198.86,554.9345 C196.81,614.5745 192.51,739.9145 190.32,803.3545 " fill="none" id="Doctor-to-Staff" style="stroke:#222222;stroke-width:1.0;"/><polygon fill="#222222" points="190.15,808.5545,194.456,799.6969,190.3213,803.5575,186.4607,799.4228,190.15,808.5545" style="stroke:#222222;stroke-width:1.0;"/><text fill="#000000" font-family="sans-serif" font-size="20" lengthAdjust="spacing" textLength="31" x="198" y="690.1563">is a</text><text fill="#000000" font-family="sans-serif" font-size="20" lengthAdjust="spacing" textLength="11" x="178.4295" y="796.5454">1</text></g><!--link Staff to Specialization--><g id="link_Staff_Specialization"><path codeLine="41" d="M187.95,876.9845 C186.68,917.0145 184.55,984.2945 183.21,1026.5545 " fill="none" id="Staff-to-Specialization" style="stroke:#222222;stroke-width:1.0;"/><polygon fill="#222222" points="183.06,1031.5845,187.366,1022.7269,183.2313,1026.5875,179.3707,1022.4528,183.06,1031.5845" style="stroke:#222222;stroke-width:1.0;"/><text fill="#000000" font-family="sans-serif" font-size="20" lengthAdjust="spacing" textLength="11" x="171.3246" y="1019.5804">1</text></g><!--link OperationRequest to Doctor--><g id="link_OperationRequest_Doctor"><path codeLine="42" d="M204.11,367.9645 C203.24,399.8345 201.94,448.0145 201.04,481.5445 " fill="none" id="OperationRequest-to-Doctor" style="stroke:#222222;stroke-width:1.0;"/><polygon fill="#222222" points="200.89,486.7945,205.12,477.9003,201.0185,481.7962,197.1227,477.6947,200.89,486.7945" style="stroke:#222222;stroke-width:1.0;"/><text fill="#000000" font-family="sans-serif" font-size="20" lengthAdjust="spacing" textLength="93" x="204" y="421.6563">request by</text><text fill="#000000" font-family="sans-serif" font-size="20" lengthAdjust="spacing" textLength="11" x="189.0977" y="474.5334">1</text></g><!--link Appointment to OperationRequest--><g id="link_Appointment_OperationRequest"><path codeLine="43" d="M340.19,119.0545 C317.43,135.8145 291.59,157.7145 273,181.8945 C246.63,216.1845 227.77,262.3245 216.7,294.5445 " fill="none" id="Appointment-to-OperationRequest" style="stroke:#222222;stroke-width:1.0;"/><polygon fill="#222222" points="214.99,299.5945,221.6636,292.3514,216.5926,294.8583,214.0857,289.7873,214.99,299.5945" style="stroke:#222222;stroke-width:1.0;"/><text fill="#000000" font-family="sans-serif" font-size="20" lengthAdjust="spacing" textLength="114" x="274" y="203.6563">scheduling of</text><text fill="#000000" font-family="sans-serif" font-size="20" lengthAdjust="spacing" textLength="11" x="204.7337" y="287.5921">1</text></g><!--link OperationRequest to OperationType--><g id="link_OperationRequest_OperationType"><path codeLine="44" d="M274.69,368.0145 C286.87,376.7645 298.14,387.3445 306,399.8945 C353.36,475.4845 350.65,585.1545 345.07,642.5745 " fill="none" id="OperationRequest-to-OperationType" style="stroke:#222222;stroke-width:1.0;"/><polygon fill="#222222" points="344.55,647.6245,349.4549,639.0839,345.0645,642.6511,341.4973,638.2607,344.55,647.6245" style="stroke:#222222;stroke-width:1.0;"/><text fill="#000000" font-family="sans-serif" font-size="20" lengthAdjust="spacing" textLength="91" x="349" y="529.1563">defined by</text><text fill="#000000" font-family="sans-serif" font-size="20" lengthAdjust="spacing" textLength="11" x="333.3927" y="635.627">1</text></g><!--link Appointment to Room--><g id="link_Appointment_Room"><path codeLine="45" d="M393.28,118.9545 C396.41,164.4845 402.04,246.3245 405.36,294.5145 " fill="none" id="Appointment-to-Room" style="stroke:#222222;stroke-width:1.0;"/><polygon fill="#222222" points="405.71,299.6445,409.0831,290.3913,405.367,294.6563,401.102,290.9402,405.71,299.6445" style="stroke:#222222;stroke-width:1.0;"/><text fill="#000000" font-family="sans-serif" font-size="20" lengthAdjust="spacing" textLength="136" x="400" y="203.6563">associated with</text><text fill="#000000" font-family="sans-serif" font-size="20" lengthAdjust="spacing" textLength="11" x="393.3711" y="287.3577">1</text></g><!--SRC=[bLHBRy8m3BxdLrZTkOXnhAfARDEadJR1zWD2wvQ8DiwIL0WG_ttfWwqFG5rkyVUm4pinEo4Lrxp8ATvX0WcclCpjAqcx5aU4nPmnS-50d7DZbjPgiIajliKaQzASRKM2W8Mo1-0Ns0o5JppUPPfAcJnJJXesA3Bia9PQqxw17XRrOamv3SyGl33aMQOnunQZ2BuCQk_4m2sKLhYqLGGW39jj59tEx7nJlhOyJVlwEZJKtv1_S2iShs_G1c6Ynml5bWPdQ68J3PPAaP2s61NI0IPQlIlKhdgIA_mkqLWFUeP3-B-kdmU5tdN72khOmTskhOYAGMbLQ68vQuMnuBaurea7FdrmN16hnyilbUz7u3rwxRZqm_FPp27j7B2scNvV4O0mm5cp-SDwwTdemY-yrZC0tGAR0-ks-zTmv120YRUObBcG6L1wBSLGMlScg7u48TtFS2jLtO80tFicTmRhc7jXj-xAs0y0]--></g></svg>