<?xml version="1.0" encoding="UTF-8" standalone="no"?><svg xmlns="http://www.w3.org/2000/svg" xmlns:xlink="http://www.w3.org/1999/xlink" contentStyleType="text/css" height="929px" preserveAspectRatio="none" style="width:591px;height:929px;background:#FFFFFF;" version="1.1" viewBox="0 0 591 929" width="591px" zoomAndPan="magnify"><defs/><g><!--class User--><g id="elem_User"><rect codeLine="8" fill="#F5F5DC" height="68.3125" id="User" rx="2.5" ry="2.5" style="stroke:#181818;stroke-width:0.5;" width="99" x="7" y="854"/><ellipse cx="23" cy="884.1563" fill="#ADD1B2" rx="12" ry="12" style="stroke:#181818;stroke-width:1.0;"/><path d="M20.9531,885.2188 L20.9531,888.1563 L26.0469,888.1563 L26.0469,887.0625 Q26.0469,886.3438 26.3281,886.0469 Q26.6094,885.7344 27.0625,885.7344 Q27.5,885.7344 27.7813,886.0469 Q28.0625,886.3438 28.0625,887.0625 L28.0625,890.1563 L18.625,890.1563 Q17.9063,890.1563 17.5938,889.875 Q17.2969,889.5938 17.2969,889.1563 Q17.2969,888.7031 17.6094,888.4375 Q17.9219,888.1563 18.625,888.1563 L18.9375,888.1563 L18.9375,880.3281 L18.625,880.3281 Q17.9063,880.3281 17.5938,880.0469 Q17.2969,879.7656 17.2969,879.3125 Q17.2969,878.8594 17.5938,878.5938 Q17.9063,878.3125 18.625,878.3125 L27.6094,878.3125 L27.6094,881.3594 Q27.6094,882.0781 27.3281,882.3906 Q27.0625,882.6875 26.625,882.6875 Q26.1719,882.6875 25.8906,882.3906 Q25.6094,882.0938 25.6094,881.3594 L25.6094,880.3281 L20.9531,880.3281 L20.9531,883.2188 L22.7031,883.2188 Q22.7031,882.4375 22.8438,882.2031 Q23.1563,881.7344 23.7031,881.7344 Q24.1563,881.7344 24.4219,882.0469 Q24.7031,882.3438 24.7031,883.0625 L24.7031,885.375 Q24.7031,886.0313 24.5469,886.25 Q24.2344,886.7031 23.7031,886.7031 Q23.1563,886.7031 22.8438,886.2344 Q22.7031,886 22.7031,885.2188 L20.9531,885.2188 Z " fill="#000000"/><text fill="#000000" font-family="sans-serif" font-size="20" font-style="italic" lengthAdjust="spacing" textLength="69" x="36" y="879.7617">«entity»</text><text fill="#000000" font-family="sans-serif" font-size="20" lengthAdjust="spacing" textLength="41" x="50" y="904.918">User</text><line style="stroke:#181818;stroke-width:0.5;" x1="8" x2="105" y1="914.3125" y2="914.3125"/></g><!--class Staff--><g id="elem_Staff"><rect codeLine="9" fill="#F5F5DC" height="68.3125" id="Staff" rx="2.5" ry="2.5" style="stroke:#181818;stroke-width:0.5;" width="99" x="155" y="637"/><ellipse cx="171" cy="667.1563" fill="#ADD1B2" rx="12" ry="12" style="stroke:#181818;stroke-width:1.0;"/><path d="M168.9531,668.2188 L168.9531,671.1563 L174.0469,671.1563 L174.0469,670.0625 Q174.0469,669.3438 174.3281,669.0469 Q174.6094,668.7344 175.0625,668.7344 Q175.5,668.7344 175.7813,669.0469 Q176.0625,669.3438 176.0625,670.0625 L176.0625,673.1563 L166.625,673.1563 Q165.9063,673.1563 165.5938,672.875 Q165.2969,672.5938 165.2969,672.1563 Q165.2969,671.7031 165.6094,671.4375 Q165.9219,671.1563 166.625,671.1563 L166.9375,671.1563 L166.9375,663.3281 L166.625,663.3281 Q165.9063,663.3281 165.5938,663.0469 Q165.2969,662.7656 165.2969,662.3125 Q165.2969,661.8594 165.5938,661.5938 Q165.9063,661.3125 166.625,661.3125 L175.6094,661.3125 L175.6094,664.3594 Q175.6094,665.0781 175.3281,665.3906 Q175.0625,665.6875 174.625,665.6875 Q174.1719,665.6875 173.8906,665.3906 Q173.6094,665.0938 173.6094,664.3594 L173.6094,663.3281 L168.9531,663.3281 L168.9531,666.2188 L170.7031,666.2188 Q170.7031,665.4375 170.8438,665.2031 Q171.1563,664.7344 171.7031,664.7344 Q172.1563,664.7344 172.4219,665.0469 Q172.7031,665.3438 172.7031,666.0625 L172.7031,668.375 Q172.7031,669.0313 172.5469,669.25 Q172.2344,669.7031 171.7031,669.7031 Q171.1563,669.7031 170.8438,669.2344 Q170.7031,669 170.7031,668.2188 L168.9531,668.2188 Z " fill="#000000"/><text fill="#000000" font-family="sans-serif" font-size="20" font-style="italic" lengthAdjust="spacing" textLength="69" x="184" y="662.7617">«entity»</text><text fill="#000000" font-family="sans-serif" font-size="20" lengthAdjust="spacing" textLength="42" x="197.5" y="687.918">Staff</text><line style="stroke:#181818;stroke-width:0.5;" x1="156" x2="253" y1="697.3125" y2="697.3125"/></g><!--class Patient--><g id="elem_Patient"><rect codeLine="10" fill="#F5F5DC" height="68.3125" id="Patient" rx="2.5" ry="2.5" style="stroke:#181818;stroke-width:0.5;" width="99" x="7" y="637"/><ellipse cx="23" cy="667.1563" fill="#ADD1B2" rx="12" ry="12" style="stroke:#181818;stroke-width:1.0;"/><path d="M20.9531,668.2188 L20.9531,671.1563 L26.0469,671.1563 L26.0469,670.0625 Q26.0469,669.3438 26.3281,669.0469 Q26.6094,668.7344 27.0625,668.7344 Q27.5,668.7344 27.7813,669.0469 Q28.0625,669.3438 28.0625,670.0625 L28.0625,673.1563 L18.625,673.1563 Q17.9063,673.1563 17.5938,672.875 Q17.2969,672.5938 17.2969,672.1563 Q17.2969,671.7031 17.6094,671.4375 Q17.9219,671.1563 18.625,671.1563 L18.9375,671.1563 L18.9375,663.3281 L18.625,663.3281 Q17.9063,663.3281 17.5938,663.0469 Q17.2969,662.7656 17.2969,662.3125 Q17.2969,661.8594 17.5938,661.5938 Q17.9063,661.3125 18.625,661.3125 L27.6094,661.3125 L27.6094,664.3594 Q27.6094,665.0781 27.3281,665.3906 Q27.0625,665.6875 26.625,665.6875 Q26.1719,665.6875 25.8906,665.3906 Q25.6094,665.0938 25.6094,664.3594 L25.6094,663.3281 L20.9531,663.3281 L20.9531,666.2188 L22.7031,666.2188 Q22.7031,665.4375 22.8438,665.2031 Q23.1563,664.7344 23.7031,664.7344 Q24.1563,664.7344 24.4219,665.0469 Q24.7031,665.3438 24.7031,666.0625 L24.7031,668.375 Q24.7031,669.0313 24.5469,669.25 Q24.2344,669.7031 23.7031,669.7031 Q23.1563,669.7031 22.8438,669.2344 Q22.7031,669 22.7031,668.2188 L20.9531,668.2188 Z " fill="#000000"/><text fill="#000000" font-family="sans-serif" font-size="20" font-style="italic" lengthAdjust="spacing" textLength="69" x="36" y="662.7617">«entity»</text><text fill="#000000" font-family="sans-serif" font-size="20" lengthAdjust="spacing" textLength="61" x="40" y="687.918">Patient</text><line style="stroke:#181818;stroke-width:0.5;" x1="8" x2="105" y1="697.3125" y2="697.3125"/></g><!--class Doctor--><g id="elem_Doctor"><rect codeLine="11" fill="#F5F5DC" height="68.3125" id="Doctor" rx="2.5" ry="2.5" style="stroke:#181818;stroke-width:0.5;" width="99" x="171" y="379"/><ellipse cx="187" cy="409.1563" fill="#ADD1B2" rx="12" ry="12" style="stroke:#181818;stroke-width:1.0;"/><path d="M184.9531,410.2188 L184.9531,413.1563 L190.0469,413.1563 L190.0469,412.0625 Q190.0469,411.3438 190.3281,411.0469 Q190.6094,410.7344 191.0625,410.7344 Q191.5,410.7344 191.7813,411.0469 Q192.0625,411.3438 192.0625,412.0625 L192.0625,415.1563 L182.625,415.1563 Q181.9063,415.1563 181.5938,414.875 Q181.2969,414.5938 181.2969,414.1563 Q181.2969,413.7031 181.6094,413.4375 Q181.9219,413.1563 182.625,413.1563 L182.9375,413.1563 L182.9375,405.3281 L182.625,405.3281 Q181.9063,405.3281 181.5938,405.0469 Q181.2969,404.7656 181.2969,404.3125 Q181.2969,403.8594 181.5938,403.5938 Q181.9063,403.3125 182.625,403.3125 L191.6094,403.3125 L191.6094,406.3594 Q191.6094,407.0781 191.3281,407.3906 Q191.0625,407.6875 190.625,407.6875 Q190.1719,407.6875 189.8906,407.3906 Q189.6094,407.0938 189.6094,406.3594 L189.6094,405.3281 L184.9531,405.3281 L184.9531,408.2188 L186.7031,408.2188 Q186.7031,407.4375 186.8438,407.2031 Q187.1563,406.7344 187.7031,406.7344 Q188.1563,406.7344 188.4219,407.0469 Q188.7031,407.3438 188.7031,408.0625 L188.7031,410.375 Q188.7031,411.0313 188.5469,411.25 Q188.2344,411.7031 187.7031,411.7031 Q187.1563,411.7031 186.8438,411.2344 Q186.7031,411 186.7031,410.2188 L184.9531,410.2188 Z " fill="#000000"/><text fill="#000000" font-family="sans-serif" font-size="20" font-style="italic" lengthAdjust="spacing" textLength="69" x="200" y="404.7617">«entity»</text><text fill="#000000" font-family="sans-serif" font-size="20" lengthAdjust="spacing" textLength="59" x="205" y="429.918">Doctor</text><line style="stroke:#181818;stroke-width:0.5;" x1="172" x2="269" y1="439.3125" y2="439.3125"/></g><!--class Appointment--><g id="elem_Appointment"><rect codeLine="12" fill="#F5F5DC" height="68.3125" id="Appointment" rx="2.5" ry="2.5" style="stroke:#181818;stroke-width:0.5;" width="143" x="310" y="7"/><ellipse cx="326" cy="37.1563" fill="#ADD1B2" rx="12" ry="12" style="stroke:#181818;stroke-width:1.0;"/><path d="M323.9531,38.2188 L323.9531,41.1563 L329.0469,41.1563 L329.0469,40.0625 Q329.0469,39.3438 329.3281,39.0469 Q329.6094,38.7344 330.0625,38.7344 Q330.5,38.7344 330.7813,39.0469 Q331.0625,39.3438 331.0625,40.0625 L331.0625,43.1563 L321.625,43.1563 Q320.9063,43.1563 320.5938,42.875 Q320.2969,42.5938 320.2969,42.1563 Q320.2969,41.7031 320.6094,41.4375 Q320.9219,41.1563 321.625,41.1563 L321.9375,41.1563 L321.9375,33.3281 L321.625,33.3281 Q320.9063,33.3281 320.5938,33.0469 Q320.2969,32.7656 320.2969,32.3125 Q320.2969,31.8594 320.5938,31.5938 Q320.9063,31.3125 321.625,31.3125 L330.6094,31.3125 L330.6094,34.3594 Q330.6094,35.0781 330.3281,35.3906 Q330.0625,35.6875 329.625,35.6875 Q329.1719,35.6875 328.8906,35.3906 Q328.6094,35.0938 328.6094,34.3594 L328.6094,33.3281 L323.9531,33.3281 L323.9531,36.2188 L325.7031,36.2188 Q325.7031,35.4375 325.8438,35.2031 Q326.1563,34.7344 326.7031,34.7344 Q327.1563,34.7344 327.4219,35.0469 Q327.7031,35.3438 327.7031,36.0625 L327.7031,38.375 Q327.7031,39.0313 327.5469,39.25 Q327.2344,39.7031 326.7031,39.7031 Q326.1563,39.7031 325.8438,39.2344 Q325.7031,39 325.7031,38.2188 L323.9531,38.2188 Z " fill="#000000"/><text fill="#000000" font-family="sans-serif" font-size="20" font-style="italic" lengthAdjust="spacing" textLength="69" x="361" y="32.7617">«entity»</text><text fill="#000000" font-family="sans-serif" font-size="20" lengthAdjust="spacing" textLength="109" x="341" y="57.918">Appointment</text><line style="stroke:#181818;stroke-width:0.5;" x1="311" x2="452" y1="67.3125" y2="67.3125"/></g><!--class OperationRequest--><g id="elem_OperationRequest"><rect codeLine="13" fill="#F5F5DC" height="68.3125" id="OperationRequest" rx="2.5" ry="2.5" style="stroke:#181818;stroke-width:0.5;" width="194" x="191.5" y="224"/><ellipse cx="207.5" cy="254.1563" fill="#ADD1B2" rx="12" ry="12" style="stroke:#181818;stroke-width:1.0;"/><path d="M205.4531,255.2188 L205.4531,258.1563 L210.5469,258.1563 L210.5469,257.0625 Q210.5469,256.3438 210.8281,256.0469 Q211.1094,255.7344 211.5625,255.7344 Q212,255.7344 212.2813,256.0469 Q212.5625,256.3438 212.5625,257.0625 L212.5625,260.1563 L203.125,260.1563 Q202.4063,260.1563 202.0938,259.875 Q201.7969,259.5938 201.7969,259.1563 Q201.7969,258.7031 202.1094,258.4375 Q202.4219,258.1563 203.125,258.1563 L203.4375,258.1563 L203.4375,250.3281 L203.125,250.3281 Q202.4063,250.3281 202.0938,250.0469 Q201.7969,249.7656 201.7969,249.3125 Q201.7969,248.8594 202.0938,248.5938 Q202.4063,248.3125 203.125,248.3125 L212.1094,248.3125 L212.1094,251.3594 Q212.1094,252.0781 211.8281,252.3906 Q211.5625,252.6875 211.125,252.6875 Q210.6719,252.6875 210.3906,252.3906 Q210.1094,252.0938 210.1094,251.3594 L210.1094,250.3281 L205.4531,250.3281 L205.4531,253.2188 L207.2031,253.2188 Q207.2031,252.4375 207.3438,252.2031 Q207.6563,251.7344 208.2031,251.7344 Q208.6563,251.7344 208.9219,252.0469 Q209.2031,252.3438 209.2031,253.0625 L209.2031,255.375 Q209.2031,256.0313 209.0469,256.25 Q208.7344,256.7031 208.2031,256.7031 Q207.6563,256.7031 207.3438,256.2344 Q207.2031,256 207.2031,255.2188 L205.4531,255.2188 Z " fill="#000000"/><text fill="#000000" font-family="sans-serif" font-size="20" font-style="italic" lengthAdjust="spacing" textLength="69" x="268" y="249.7617">«entity»</text><text fill="#000000" font-family="sans-serif" font-size="20" lengthAdjust="spacing" textLength="160" x="222.5" y="274.918">OperationRequest</text><line style="stroke:#181818;stroke-width:0.5;" x1="192.5" x2="384.5" y1="284.3125" y2="284.3125"/></g><!--class OperationType--><g id="elem_OperationType"><rect codeLine="14" fill="#F5F5DC" height="68.3125" id="OperationType" rx="2.5" ry="2.5" style="stroke:#181818;stroke-width:0.5;" width="165" x="273" y="508"/><ellipse cx="289" cy="538.1563" fill="#ADD1B2" rx="12" ry="12" style="stroke:#181818;stroke-width:1.0;"/><path d="M286.9531,539.2188 L286.9531,542.1563 L292.0469,542.1563 L292.0469,541.0625 Q292.0469,540.3438 292.3281,540.0469 Q292.6094,539.7344 293.0625,539.7344 Q293.5,539.7344 293.7813,540.0469 Q294.0625,540.3438 294.0625,541.0625 L294.0625,544.1563 L284.625,544.1563 Q283.9063,544.1563 283.5938,543.875 Q283.2969,543.5938 283.2969,543.1563 Q283.2969,542.7031 283.6094,542.4375 Q283.9219,542.1563 284.625,542.1563 L284.9375,542.1563 L284.9375,534.3281 L284.625,534.3281 Q283.9063,534.3281 283.5938,534.0469 Q283.2969,533.7656 283.2969,533.3125 Q283.2969,532.8594 283.5938,532.5938 Q283.9063,532.3125 284.625,532.3125 L293.6094,532.3125 L293.6094,535.3594 Q293.6094,536.0781 293.3281,536.3906 Q293.0625,536.6875 292.625,536.6875 Q292.1719,536.6875 291.8906,536.3906 Q291.6094,536.0938 291.6094,535.3594 L291.6094,534.3281 L286.9531,534.3281 L286.9531,537.2188 L288.7031,537.2188 Q288.7031,536.4375 288.8438,536.2031 Q289.1563,535.7344 289.7031,535.7344 Q290.1563,535.7344 290.4219,536.0469 Q290.7031,536.3438 290.7031,537.0625 L290.7031,539.375 Q290.7031,540.0313 290.5469,540.25 Q290.2344,540.7031 289.7031,540.7031 Q289.1563,540.7031 288.8438,540.2344 Q288.7031,540 288.7031,539.2188 L286.9531,539.2188 Z " fill="#000000"/><text fill="#000000" font-family="sans-serif" font-size="20" font-style="italic" lengthAdjust="spacing" textLength="69" x="335" y="533.7617">«entity»</text><text fill="#000000" font-family="sans-serif" font-size="20" lengthAdjust="spacing" textLength="131" x="304" y="558.918">OperationType</text><line style="stroke:#181818;stroke-width:0.5;" x1="274" x2="437" y1="568.3125" y2="568.3125"/></g><!--class Room--><g id="elem_Room"><rect codeLine="15" fill="#F5F5DC" height="68.3125" id="Room" rx="2.5" ry="2.5" style="stroke:#181818;stroke-width:0.5;" width="99" x="425" y="224"/><ellipse cx="441" cy="254.1563" fill="#ADD1B2" rx="12" ry="12" style="stroke:#181818;stroke-width:1.0;"/><path d="M438.9531,255.2188 L438.9531,258.1563 L444.0469,258.1563 L444.0469,257.0625 Q444.0469,256.3438 444.3281,256.0469 Q444.6094,255.7344 445.0625,255.7344 Q445.5,255.7344 445.7813,256.0469 Q446.0625,256.3438 446.0625,257.0625 L446.0625,260.1563 L436.625,260.1563 Q435.9063,260.1563 435.5938,259.875 Q435.2969,259.5938 435.2969,259.1563 Q435.2969,258.7031 435.6094,258.4375 Q435.9219,258.1563 436.625,258.1563 L436.9375,258.1563 L436.9375,250.3281 L436.625,250.3281 Q435.9063,250.3281 435.5938,250.0469 Q435.2969,249.7656 435.2969,249.3125 Q435.2969,248.8594 435.5938,248.5938 Q435.9063,248.3125 436.625,248.3125 L445.6094,248.3125 L445.6094,251.3594 Q445.6094,252.0781 445.3281,252.3906 Q445.0625,252.6875 444.625,252.6875 Q444.1719,252.6875 443.8906,252.3906 Q443.6094,252.0938 443.6094,251.3594 L443.6094,250.3281 L438.9531,250.3281 L438.9531,253.2188 L440.7031,253.2188 Q440.7031,252.4375 440.8438,252.2031 Q441.1563,251.7344 441.7031,251.7344 Q442.1563,251.7344 442.4219,252.0469 Q442.7031,252.3438 442.7031,253.0625 L442.7031,255.375 Q442.7031,256.0313 442.5469,256.25 Q442.2344,256.7031 441.7031,256.7031 Q441.1563,256.7031 440.8438,256.2344 Q440.7031,256 440.7031,255.2188 L438.9531,255.2188 Z " fill="#000000"/><text fill="#000000" font-family="sans-serif" font-size="20" font-style="italic" lengthAdjust="spacing" textLength="69" x="454" y="249.7617">«entity»</text><text fill="#000000" font-family="sans-serif" font-size="20" lengthAdjust="spacing" textLength="52" x="462.5" y="274.918">Room</text><line style="stroke:#181818;stroke-width:0.5;" x1="426" x2="523" y1="284.3125" y2="284.3125"/></g><!--class Specialization--><g id="elem_Specialization"><rect codeLine="16" fill="#F5F5DC" height="68.3125" id="Specialization" rx="2.5" ry="2.5" style="stroke:#181818;stroke-width:0.5;" width="153" x="141" y="854"/><ellipse cx="157" cy="884.1563" fill="#ADD1B2" rx="12" ry="12" style="stroke:#181818;stroke-width:1.0;"/><path d="M154.9531,885.2188 L154.9531,888.1563 L160.0469,888.1563 L160.0469,887.0625 Q160.0469,886.3438 160.3281,886.0469 Q160.6094,885.7344 161.0625,885.7344 Q161.5,885.7344 161.7813,886.0469 Q162.0625,886.3438 162.0625,887.0625 L162.0625,890.1563 L152.625,890.1563 Q151.9063,890.1563 151.5938,889.875 Q151.2969,889.5938 151.2969,889.1563 Q151.2969,888.7031 151.6094,888.4375 Q151.9219,888.1563 152.625,888.1563 L152.9375,888.1563 L152.9375,880.3281 L152.625,880.3281 Q151.9063,880.3281 151.5938,880.0469 Q151.2969,879.7656 151.2969,879.3125 Q151.2969,878.8594 151.5938,878.5938 Q151.9063,878.3125 152.625,878.3125 L161.6094,878.3125 L161.6094,881.3594 Q161.6094,882.0781 161.3281,882.3906 Q161.0625,882.6875 160.625,882.6875 Q160.1719,882.6875 159.8906,882.3906 Q159.6094,882.0938 159.6094,881.3594 L159.6094,880.3281 L154.9531,880.3281 L154.9531,883.2188 L156.7031,883.2188 Q156.7031,882.4375 156.8438,882.2031 Q157.1563,881.7344 157.7031,881.7344 Q158.1563,881.7344 158.4219,882.0469 Q158.7031,882.3438 158.7031,883.0625 L158.7031,885.375 Q158.7031,886.0313 158.5469,886.25 Q158.2344,886.7031 157.7031,886.7031 Q157.1563,886.7031 156.8438,886.2344 Q156.7031,886 156.7031,885.2188 L154.9531,885.2188 Z " fill="#000000"/><text fill="#000000" font-family="sans-serif" font-size="20" font-style="italic" lengthAdjust="spacing" textLength="69" x="197" y="879.7617">«entity»</text><text fill="#000000" font-family="sans-serif" font-size="20" lengthAdjust="spacing" textLength="119" x="172" y="904.918">Specialization</text><line style="stroke:#181818;stroke-width:0.5;" x1="142" x2="293" y1="914.3125" y2="914.3125"/></g><!--link Staff to User--><g id="link_Staff_User"><path codeLine="20" d="M181.7,705.12 C154.87,744.1 110.41,808.68 82.33,849.48 " fill="none" id="Staff-to-User" style="stroke:#222222;stroke-width:1.0;"/><polygon fill="#222222" points="79.33,853.84,87.7249,848.6897,82.1626,849.7198,81.1326,844.1575,79.33,853.84" style="stroke:#222222;stroke-width:1.0;"/><text fill="#000000" font-family="sans-serif" font-size="20" lengthAdjust="spacing" textLength="11" x="165.6591" y="734.172">1</text></g><!--link Patient to User--><g id="link_Patient_User"><path codeLine="21" d="M56.5,705.12 C56.5,743.79 56.5,807.64 56.5,848.48 " fill="none" id="Patient-to-User" style="stroke:#222222;stroke-width:1.0;"/><polygon fill="#222222" points="56.5,853.84,60.5,844.84,56.5,848.84,52.5,844.84,56.5,853.84" style="stroke:#222222;stroke-width:1.0;"/><text fill="#000000" font-family="sans-serif" font-size="20" lengthAdjust="spacing" textLength="34" x="19.4719" y="734.172">0..1</text></g><!--link Doctor to Staff--><g id="link_Doctor_Staff"><path codeLine="22" d="M218.42,447.21 C215.46,494.68 210.02,581.75 206.89,631.83 " fill="none" id="Doctor-to-Staff" style="stroke:#222222;stroke-width:1.0;"/><polygon fill="#222222" points="206.57,636.85,211.1283,628.1195,206.8846,631.8599,203.1441,627.6162,206.57,636.85" style="stroke:#222222;stroke-width:1.0;"/><text fill="#000000" font-family="sans-serif" font-size="20" lengthAdjust="spacing" textLength="31" x="216.5" y="550.2617">is a</text><text fill="#000000" font-family="sans-serif" font-size="20" lengthAdjust="spacing" textLength="11" x="194.9805" y="624.5803">1</text></g><!--link Staff to Specialization--><g id="link_Staff_Specialization"><path codeLine="23" d="M206.5,705.12 C208.84,743.79 212.7,807.64 215.17,848.48 " fill="none" id="Staff-to-Specialization" style="stroke:#222222;stroke-width:1.0;"/><polygon fill="#222222" points="215.49,853.84,218.9422,844.616,215.1897,848.849,210.9567,845.0965,215.49,853.84" style="stroke:#222222;stroke-width:1.0;"/><text fill="#000000" font-family="sans-serif" font-size="20" lengthAdjust="spacing" textLength="115" x="213.5" y="787.7617">specializes in</text><text fill="#000000" font-family="sans-serif" font-size="20" lengthAdjust="spacing" textLength="11" x="203.1992" y="841.5686">1</text></g><!--link OperationRequest to Doctor--><g id="link_OperationRequest_Doctor"><path codeLine="24" d="M254.14,292.21 C246.58,301.2 239.38,311.4 234.5,322 C227.13,338.01 223.52,357.14 221.8,373.64 " fill="none" id="OperationRequest-to-Doctor" style="stroke:#222222;stroke-width:1.0;"/><polygon fill="#222222" points="221.32,378.67,226.1495,370.0865,221.7907,373.6922,218.185,369.3334,221.32,378.67" style="stroke:#222222;stroke-width:1.0;"/><text fill="#000000" font-family="sans-serif" font-size="20" lengthAdjust="spacing" textLength="93" x="235.5" y="343.7617">request by</text><text fill="#000000" font-family="sans-serif" font-size="20" lengthAdjust="spacing" textLength="11" x="209.5449" y="366.6626">1</text></g><!--link Appointment to OperationRequest--><g id="link_Appointment_OperationRequest"><path codeLine="25" d="M353.26,75.3 C340.02,92.46 325.09,114.29 315.5,136 C303.85,162.38 297,194.29 293.12,218.71 " fill="none" id="Appointment-to-OperationRequest" style="stroke:#222222;stroke-width:1.0;"/><polygon fill="#222222" points="292.33,223.8,297.6466,215.5094,293.0871,218.8576,289.7388,214.2981,292.33,223.8" style="stroke:#222222;stroke-width:1.0;"/><text fill="#000000" font-family="sans-serif" font-size="20" lengthAdjust="spacing" textLength="114" x="316.5" y="157.7617">scheduling of</text><text fill="#000000" font-family="sans-serif" font-size="20" lengthAdjust="spacing" textLength="11" x="281.043" y="211.5217">1</text></g><!--link OperationRequest to OperationType--><g id="link_OperationRequest_OperationType"><path codeLine="26" d="M316.99,292.12 C323.46,301.27 329.57,311.56 333.5,322 C356.19,382.26 358.54,458.07 357.5,502.86 " fill="none" id="OperationRequest-to-OperationType" style="stroke:#222222;stroke-width:1.0;"/><polygon fill="#222222" points="357.36,507.9,361.59,499.0058,357.4885,502.9017,353.5927,498.8002,357.36,507.9" style="stroke:#222222;stroke-width:1.0;"/><text fill="#000000" font-family="sans-serif" font-size="20" lengthAdjust="spacing" textLength="91" x="358.5" y="421.2617">defined by</text><text fill="#000000" font-family="sans-serif" font-size="20" lengthAdjust="spacing" textLength="11" x="345.7344" y="495.6389">1</text></g><!--link Appointment to Room--><g id="link_Appointment_Room"><path codeLine="27" d="M402.76,75.04 C413.51,92.67 426.21,115 435.5,136 C447.42,162.95 457.52,194.69 464.45,218.91 " fill="none" id="Appointment-to-Room" style="stroke:#222222;stroke-width:1.0;"/><polygon fill="#222222" points="465.88,223.96,467.288,214.2123,464.5234,219.1476,459.5881,216.3829,465.88,223.96" style="stroke:#222222;stroke-width:1.0;"/><text fill="#000000" font-family="sans-serif" font-size="20" lengthAdjust="spacing" textLength="136" x="447.5" y="157.7617">associated with</text><text fill="#000000" font-family="sans-serif" font-size="20" lengthAdjust="spacing" textLength="11" x="452.4531" y="211.7092">1</text></g><!--SRC=[XLBBJiCm4BpxArRbdAhq65ML2WY94wY53t2TJRjAuZNsHbMB-7VSFEWhY3tPEpCxsj66WgpJNbSbcm8po33NTIdFR6L51uJfHAdGSy2KEeI5YATrBVXYs3QaYTfIXe2Lapte7WxNmWTjYetdscQFNBA7DT86pqWBxtdNGdVJffHIQ8NYr8-07c0sQx_p-TTtZwn4v_aWygQ5udDOziH6ej4Gj72EoKfrr0xXhmvz7CrsYPyrXdz8xtk7PmmuKPRCrV1A3WtfaWxDW2jnh2QCMLAx987H_QYDuB8x6OyZq2MWkcMJ99cV19021T2g_PomI_CKGj_006JLpVQzi3D9mNV0Ug_Ee_nrk9aGFSmMixeakm7EXookfKsgwV5SoSQp_SkgYJY5U7mSTv38t95iZnd-0000]--></g></svg>