<?xml version="1.0" encoding="UTF-8" standalone="no"?><svg xmlns="http://www.w3.org/2000/svg" xmlns:xlink="http://www.w3.org/1999/xlink" contentStyleType="text/css" height="996px" preserveAspectRatio="none" style="width:480px;height:996px;background:#FFFFFF;" version="1.1" viewBox="0 0 480 996" width="480px" zoomAndPan="magnify"><defs/><g><!--class User--><g id="elem_User"><rect codeLine="8" fill="#F5F5DC" height="68.3125" id="User" rx="2.5" ry="2.5" style="stroke:#181818;stroke-width:0.5;" width="99" x="7" y="921"/><ellipse cx="23" cy="951.1563" fill="#ADD1B2" rx="12" ry="12" style="stroke:#181818;stroke-width:1.0;"/><path d="M20.9531,952.2188 L20.9531,955.1563 L26.0469,955.1563 L26.0469,954.0625 Q26.0469,953.3438 26.3281,953.0469 Q26.6094,952.7344 27.0625,952.7344 Q27.5,952.7344 27.7813,953.0469 Q28.0625,953.3438 28.0625,954.0625 L28.0625,957.1563 L18.625,957.1563 Q17.9063,957.1563 17.5938,956.875 Q17.2969,956.5938 17.2969,956.1563 Q17.2969,955.7031 17.6094,955.4375 Q17.9219,955.1563 18.625,955.1563 L18.9375,955.1563 L18.9375,947.3281 L18.625,947.3281 Q17.9063,947.3281 17.5938,947.0469 Q17.2969,946.7656 17.2969,946.3125 Q17.2969,945.8594 17.5938,945.5938 Q17.9063,945.3125 18.625,945.3125 L27.6094,945.3125 L27.6094,948.3594 Q27.6094,949.0781 27.3281,949.3906 Q27.0625,949.6875 26.625,949.6875 Q26.1719,949.6875 25.8906,949.3906 Q25.6094,949.0938 25.6094,948.3594 L25.6094,947.3281 L20.9531,947.3281 L20.9531,950.2188 L22.7031,950.2188 Q22.7031,949.4375 22.8438,949.2031 Q23.1563,948.7344 23.7031,948.7344 Q24.1563,948.7344 24.4219,949.0469 Q24.7031,949.3438 24.7031,950.0625 L24.7031,952.375 Q24.7031,953.0313 24.5469,953.25 Q24.2344,953.7031 23.7031,953.7031 Q23.1563,953.7031 22.8438,953.2344 Q22.7031,953 22.7031,952.2188 L20.9531,952.2188 Z " fill="#000000"/><text fill="#000000" font-family="sans-serif" font-size="20" font-style="italic" lengthAdjust="spacing" textLength="69" x="36" y="946.7617">«entity»</text><text fill="#000000" font-family="sans-serif" font-size="20" lengthAdjust="spacing" textLength="41" x="50" y="971.918">User</text><line style="stroke:#181818;stroke-width:0.5;" x1="8" x2="105" y1="981.3125" y2="981.3125"/></g><!--class Staff--><g id="elem_Staff"><rect codeLine="9" fill="#F5F5DC" height="68.3125" id="Staff" rx="2.5" ry="2.5" style="stroke:#181818;stroke-width:0.5;" width="99" x="119" y="704"/><ellipse cx="135" cy="734.1563" fill="#ADD1B2" rx="12" ry="12" style="stroke:#181818;stroke-width:1.0;"/><path d="M132.9531,735.2188 L132.9531,738.1563 L138.0469,738.1563 L138.0469,737.0625 Q138.0469,736.3438 138.3281,736.0469 Q138.6094,735.7344 139.0625,735.7344 Q139.5,735.7344 139.7813,736.0469 Q140.0625,736.3438 140.0625,737.0625 L140.0625,740.1563 L130.625,740.1563 Q129.9063,740.1563 129.5938,739.875 Q129.2969,739.5938 129.2969,739.1563 Q129.2969,738.7031 129.6094,738.4375 Q129.9219,738.1563 130.625,738.1563 L130.9375,738.1563 L130.9375,730.3281 L130.625,730.3281 Q129.9063,730.3281 129.5938,730.0469 Q129.2969,729.7656 129.2969,729.3125 Q129.2969,728.8594 129.5938,728.5938 Q129.9063,728.3125 130.625,728.3125 L139.6094,728.3125 L139.6094,731.3594 Q139.6094,732.0781 139.3281,732.3906 Q139.0625,732.6875 138.625,732.6875 Q138.1719,732.6875 137.8906,732.3906 Q137.6094,732.0938 137.6094,731.3594 L137.6094,730.3281 L132.9531,730.3281 L132.9531,733.2188 L134.7031,733.2188 Q134.7031,732.4375 134.8438,732.2031 Q135.1563,731.7344 135.7031,731.7344 Q136.1563,731.7344 136.4219,732.0469 Q136.7031,732.3438 136.7031,733.0625 L136.7031,735.375 Q136.7031,736.0313 136.5469,736.25 Q136.2344,736.7031 135.7031,736.7031 Q135.1563,736.7031 134.8438,736.2344 Q134.7031,736 134.7031,735.2188 L132.9531,735.2188 Z " fill="#000000"/><text fill="#000000" font-family="sans-serif" font-size="20" font-style="italic" lengthAdjust="spacing" textLength="69" x="148" y="729.7617">«entity»</text><text fill="#000000" font-family="sans-serif" font-size="20" lengthAdjust="spacing" textLength="42" x="161.5" y="754.918">Staff</text><line style="stroke:#181818;stroke-width:0.5;" x1="120" x2="217" y1="764.3125" y2="764.3125"/></g><!--class Patient--><g id="elem_Patient"><rect codeLine="10" fill="#F5F5DC" height="68.3125" id="Patient" rx="2.5" ry="2.5" style="stroke:#181818;stroke-width:0.5;" width="99" x="7" y="477"/><ellipse cx="23" cy="507.1563" fill="#ADD1B2" rx="12" ry="12" style="stroke:#181818;stroke-width:1.0;"/><path d="M20.9531,508.2188 L20.9531,511.1563 L26.0469,511.1563 L26.0469,510.0625 Q26.0469,509.3438 26.3281,509.0469 Q26.6094,508.7344 27.0625,508.7344 Q27.5,508.7344 27.7813,509.0469 Q28.0625,509.3438 28.0625,510.0625 L28.0625,513.1563 L18.625,513.1563 Q17.9063,513.1563 17.5938,512.875 Q17.2969,512.5938 17.2969,512.1563 Q17.2969,511.7031 17.6094,511.4375 Q17.9219,511.1563 18.625,511.1563 L18.9375,511.1563 L18.9375,503.3281 L18.625,503.3281 Q17.9063,503.3281 17.5938,503.0469 Q17.2969,502.7656 17.2969,502.3125 Q17.2969,501.8594 17.5938,501.5938 Q17.9063,501.3125 18.625,501.3125 L27.6094,501.3125 L27.6094,504.3594 Q27.6094,505.0781 27.3281,505.3906 Q27.0625,505.6875 26.625,505.6875 Q26.1719,505.6875 25.8906,505.3906 Q25.6094,505.0938 25.6094,504.3594 L25.6094,503.3281 L20.9531,503.3281 L20.9531,506.2188 L22.7031,506.2188 Q22.7031,505.4375 22.8438,505.2031 Q23.1563,504.7344 23.7031,504.7344 Q24.1563,504.7344 24.4219,505.0469 Q24.7031,505.3438 24.7031,506.0625 L24.7031,508.375 Q24.7031,509.0313 24.5469,509.25 Q24.2344,509.7031 23.7031,509.7031 Q23.1563,509.7031 22.8438,509.2344 Q22.7031,509 22.7031,508.2188 L20.9531,508.2188 Z " fill="#000000"/><text fill="#000000" font-family="sans-serif" font-size="20" font-style="italic" lengthAdjust="spacing" textLength="69" x="36" y="502.7617">«entity»</text><text fill="#000000" font-family="sans-serif" font-size="20" lengthAdjust="spacing" textLength="61" x="40" y="527.918">Patient</text><line style="stroke:#181818;stroke-width:0.5;" x1="8" x2="105" y1="537.3125" y2="537.3125"/></g><!--class Doctor--><g id="elem_Doctor"><rect codeLine="11" fill="#F5F5DC" height="68.3125" id="Doctor" rx="2.5" ry="2.5" style="stroke:#181818;stroke-width:0.5;" width="99" x="124" y="379"/><ellipse cx="140" cy="409.1563" fill="#ADD1B2" rx="12" ry="12" style="stroke:#181818;stroke-width:1.0;"/><path d="M137.9531,410.2188 L137.9531,413.1563 L143.0469,413.1563 L143.0469,412.0625 Q143.0469,411.3438 143.3281,411.0469 Q143.6094,410.7344 144.0625,410.7344 Q144.5,410.7344 144.7813,411.0469 Q145.0625,411.3438 145.0625,412.0625 L145.0625,415.1563 L135.625,415.1563 Q134.9063,415.1563 134.5938,414.875 Q134.2969,414.5938 134.2969,414.1563 Q134.2969,413.7031 134.6094,413.4375 Q134.9219,413.1563 135.625,413.1563 L135.9375,413.1563 L135.9375,405.3281 L135.625,405.3281 Q134.9063,405.3281 134.5938,405.0469 Q134.2969,404.7656 134.2969,404.3125 Q134.2969,403.8594 134.5938,403.5938 Q134.9063,403.3125 135.625,403.3125 L144.6094,403.3125 L144.6094,406.3594 Q144.6094,407.0781 144.3281,407.3906 Q144.0625,407.6875 143.625,407.6875 Q143.1719,407.6875 142.8906,407.3906 Q142.6094,407.0938 142.6094,406.3594 L142.6094,405.3281 L137.9531,405.3281 L137.9531,408.2188 L139.7031,408.2188 Q139.7031,407.4375 139.8438,407.2031 Q140.1563,406.7344 140.7031,406.7344 Q141.1563,406.7344 141.4219,407.0469 Q141.7031,407.3438 141.7031,408.0625 L141.7031,410.375 Q141.7031,411.0313 141.5469,411.25 Q141.2344,411.7031 140.7031,411.7031 Q140.1563,411.7031 139.8438,411.2344 Q139.7031,411 139.7031,410.2188 L137.9531,410.2188 Z " fill="#000000"/><text fill="#000000" font-family="sans-serif" font-size="20" font-style="italic" lengthAdjust="spacing" textLength="69" x="153" y="404.7617">«entity»</text><text fill="#000000" font-family="sans-serif" font-size="20" lengthAdjust="spacing" textLength="59" x="158" y="429.918">Doctor</text><line style="stroke:#181818;stroke-width:0.5;" x1="125" x2="222" y1="439.3125" y2="439.3125"/></g><!--class Appointment--><g id="elem_Appointment"><rect codeLine="12" fill="#F5F5DC" height="68.3125" id="Appointment" rx="2.5" ry="2.5" style="stroke:#181818;stroke-width:0.5;" width="143" x="199" y="7"/><ellipse cx="215" cy="37.1563" fill="#ADD1B2" rx="12" ry="12" style="stroke:#181818;stroke-width:1.0;"/><path d="M212.9531,38.2188 L212.9531,41.1563 L218.0469,41.1563 L218.0469,40.0625 Q218.0469,39.3438 218.3281,39.0469 Q218.6094,38.7344 219.0625,38.7344 Q219.5,38.7344 219.7813,39.0469 Q220.0625,39.3438 220.0625,40.0625 L220.0625,43.1563 L210.625,43.1563 Q209.9063,43.1563 209.5938,42.875 Q209.2969,42.5938 209.2969,42.1563 Q209.2969,41.7031 209.6094,41.4375 Q209.9219,41.1563 210.625,41.1563 L210.9375,41.1563 L210.9375,33.3281 L210.625,33.3281 Q209.9063,33.3281 209.5938,33.0469 Q209.2969,32.7656 209.2969,32.3125 Q209.2969,31.8594 209.5938,31.5938 Q209.9063,31.3125 210.625,31.3125 L219.6094,31.3125 L219.6094,34.3594 Q219.6094,35.0781 219.3281,35.3906 Q219.0625,35.6875 218.625,35.6875 Q218.1719,35.6875 217.8906,35.3906 Q217.6094,35.0938 217.6094,34.3594 L217.6094,33.3281 L212.9531,33.3281 L212.9531,36.2188 L214.7031,36.2188 Q214.7031,35.4375 214.8438,35.2031 Q215.1563,34.7344 215.7031,34.7344 Q216.1563,34.7344 216.4219,35.0469 Q216.7031,35.3438 216.7031,36.0625 L216.7031,38.375 Q216.7031,39.0313 216.5469,39.25 Q216.2344,39.7031 215.7031,39.7031 Q215.1563,39.7031 214.8438,39.2344 Q214.7031,39 214.7031,38.2188 L212.9531,38.2188 Z " fill="#000000"/><text fill="#000000" font-family="sans-serif" font-size="20" font-style="italic" lengthAdjust="spacing" textLength="69" x="250" y="32.7617">«entity»</text><text fill="#000000" font-family="sans-serif" font-size="20" lengthAdjust="spacing" textLength="109" x="230" y="57.918">Appointment</text><line style="stroke:#181818;stroke-width:0.5;" x1="200" x2="341" y1="67.3125" y2="67.3125"/></g><!--class OperationRequest--><g id="elem_OperationRequest"><rect codeLine="13" fill="#F5F5DC" height="68.3125" id="OperationRequest" rx="2.5" ry="2.5" style="stroke:#181818;stroke-width:0.5;" width="194" x="80.5" y="224"/><ellipse cx="96.5" cy="254.1563" fill="#ADD1B2" rx="12" ry="12" style="stroke:#181818;stroke-width:1.0;"/><path d="M94.4531,255.2188 L94.4531,258.1563 L99.5469,258.1563 L99.5469,257.0625 Q99.5469,256.3438 99.8281,256.0469 Q100.1094,255.7344 100.5625,255.7344 Q101,255.7344 101.2813,256.0469 Q101.5625,256.3438 101.5625,257.0625 L101.5625,260.1563 L92.125,260.1563 Q91.4063,260.1563 91.0938,259.875 Q90.7969,259.5938 90.7969,259.1563 Q90.7969,258.7031 91.1094,258.4375 Q91.4219,258.1563 92.125,258.1563 L92.4375,258.1563 L92.4375,250.3281 L92.125,250.3281 Q91.4063,250.3281 91.0938,250.0469 Q90.7969,249.7656 90.7969,249.3125 Q90.7969,248.8594 91.0938,248.5938 Q91.4063,248.3125 92.125,248.3125 L101.1094,248.3125 L101.1094,251.3594 Q101.1094,252.0781 100.8281,252.3906 Q100.5625,252.6875 100.125,252.6875 Q99.6719,252.6875 99.3906,252.3906 Q99.1094,252.0938 99.1094,251.3594 L99.1094,250.3281 L94.4531,250.3281 L94.4531,253.2188 L96.2031,253.2188 Q96.2031,252.4375 96.3438,252.2031 Q96.6563,251.7344 97.2031,251.7344 Q97.6563,251.7344 97.9219,252.0469 Q98.2031,252.3438 98.2031,253.0625 L98.2031,255.375 Q98.2031,256.0313 98.0469,256.25 Q97.7344,256.7031 97.2031,256.7031 Q96.6563,256.7031 96.3438,256.2344 Q96.2031,256 96.2031,255.2188 L94.4531,255.2188 Z " fill="#000000"/><text fill="#000000" font-family="sans-serif" font-size="20" font-style="italic" lengthAdjust="spacing" textLength="69" x="157" y="249.7617">«entity»</text><text fill="#000000" font-family="sans-serif" font-size="20" lengthAdjust="spacing" textLength="160" x="111.5" y="274.918">OperationRequest</text><line style="stroke:#181818;stroke-width:0.5;" x1="81.5" x2="273.5" y1="284.3125" y2="284.3125"/></g><!--class OperationType--><g id="elem_OperationType"><rect codeLine="14" fill="#F5F5DC" height="68.3125" id="OperationType" rx="2.5" ry="2.5" style="stroke:#181818;stroke-width:0.5;" width="165" x="237" y="575"/><ellipse cx="253" cy="605.1563" fill="#ADD1B2" rx="12" ry="12" style="stroke:#181818;stroke-width:1.0;"/><path d="M250.9531,606.2188 L250.9531,609.1563 L256.0469,609.1563 L256.0469,608.0625 Q256.0469,607.3438 256.3281,607.0469 Q256.6094,606.7344 257.0625,606.7344 Q257.5,606.7344 257.7813,607.0469 Q258.0625,607.3438 258.0625,608.0625 L258.0625,611.1563 L248.625,611.1563 Q247.9063,611.1563 247.5938,610.875 Q247.2969,610.5938 247.2969,610.1563 Q247.2969,609.7031 247.6094,609.4375 Q247.9219,609.1563 248.625,609.1563 L248.9375,609.1563 L248.9375,601.3281 L248.625,601.3281 Q247.9063,601.3281 247.5938,601.0469 Q247.2969,600.7656 247.2969,600.3125 Q247.2969,599.8594 247.5938,599.5938 Q247.9063,599.3125 248.625,599.3125 L257.6094,599.3125 L257.6094,602.3594 Q257.6094,603.0781 257.3281,603.3906 Q257.0625,603.6875 256.625,603.6875 Q256.1719,603.6875 255.8906,603.3906 Q255.6094,603.0938 255.6094,602.3594 L255.6094,601.3281 L250.9531,601.3281 L250.9531,604.2188 L252.7031,604.2188 Q252.7031,603.4375 252.8438,603.2031 Q253.1563,602.7344 253.7031,602.7344 Q254.1563,602.7344 254.4219,603.0469 Q254.7031,603.3438 254.7031,604.0625 L254.7031,606.375 Q254.7031,607.0313 254.5469,607.25 Q254.2344,607.7031 253.7031,607.7031 Q253.1563,607.7031 252.8438,607.2344 Q252.7031,607 252.7031,606.2188 L250.9531,606.2188 Z " fill="#000000"/><text fill="#000000" font-family="sans-serif" font-size="20" font-style="italic" lengthAdjust="spacing" textLength="69" x="299" y="600.7617">«entity»</text><text fill="#000000" font-family="sans-serif" font-size="20" lengthAdjust="spacing" textLength="131" x="268" y="625.918">OperationType</text><line style="stroke:#181818;stroke-width:0.5;" x1="238" x2="401" y1="635.3125" y2="635.3125"/></g><!--class Room--><g id="elem_Room"><rect codeLine="15" fill="#F5F5DC" height="68.3125" id="Room" rx="2.5" ry="2.5" style="stroke:#181818;stroke-width:0.5;" width="99" x="314" y="224"/><ellipse cx="330" cy="254.1563" fill="#ADD1B2" rx="12" ry="12" style="stroke:#181818;stroke-width:1.0;"/><path d="M327.9531,255.2188 L327.9531,258.1563 L333.0469,258.1563 L333.0469,257.0625 Q333.0469,256.3438 333.3281,256.0469 Q333.6094,255.7344 334.0625,255.7344 Q334.5,255.7344 334.7813,256.0469 Q335.0625,256.3438 335.0625,257.0625 L335.0625,260.1563 L325.625,260.1563 Q324.9063,260.1563 324.5938,259.875 Q324.2969,259.5938 324.2969,259.1563 Q324.2969,258.7031 324.6094,258.4375 Q324.9219,258.1563 325.625,258.1563 L325.9375,258.1563 L325.9375,250.3281 L325.625,250.3281 Q324.9063,250.3281 324.5938,250.0469 Q324.2969,249.7656 324.2969,249.3125 Q324.2969,248.8594 324.5938,248.5938 Q324.9063,248.3125 325.625,248.3125 L334.6094,248.3125 L334.6094,251.3594 Q334.6094,252.0781 334.3281,252.3906 Q334.0625,252.6875 333.625,252.6875 Q333.1719,252.6875 332.8906,252.3906 Q332.6094,252.0938 332.6094,251.3594 L332.6094,250.3281 L327.9531,250.3281 L327.9531,253.2188 L329.7031,253.2188 Q329.7031,252.4375 329.8438,252.2031 Q330.1563,251.7344 330.7031,251.7344 Q331.1563,251.7344 331.4219,252.0469 Q331.7031,252.3438 331.7031,253.0625 L331.7031,255.375 Q331.7031,256.0313 331.5469,256.25 Q331.2344,256.7031 330.7031,256.7031 Q330.1563,256.7031 329.8438,256.2344 Q329.7031,256 329.7031,255.2188 L327.9531,255.2188 Z " fill="#000000"/><text fill="#000000" font-family="sans-serif" font-size="20" font-style="italic" lengthAdjust="spacing" textLength="69" x="343" y="249.7617">«entity»</text><text fill="#000000" font-family="sans-serif" font-size="20" lengthAdjust="spacing" textLength="52" x="351.5" y="274.918">Room</text><line style="stroke:#181818;stroke-width:0.5;" x1="315" x2="412" y1="284.3125" y2="284.3125"/></g><!--class Specialization--><g id="elem_Specialization"><rect codeLine="16" fill="#F5F5DC" height="68.3125" id="Specialization" rx="2.5" ry="2.5" style="stroke:#181818;stroke-width:0.5;" width="153" x="141" y="921"/><ellipse cx="157" cy="951.1563" fill="#ADD1B2" rx="12" ry="12" style="stroke:#181818;stroke-width:1.0;"/><path d="M154.9531,952.2188 L154.9531,955.1563 L160.0469,955.1563 L160.0469,954.0625 Q160.0469,953.3438 160.3281,953.0469 Q160.6094,952.7344 161.0625,952.7344 Q161.5,952.7344 161.7813,953.0469 Q162.0625,953.3438 162.0625,954.0625 L162.0625,957.1563 L152.625,957.1563 Q151.9063,957.1563 151.5938,956.875 Q151.2969,956.5938 151.2969,956.1563 Q151.2969,955.7031 151.6094,955.4375 Q151.9219,955.1563 152.625,955.1563 L152.9375,955.1563 L152.9375,947.3281 L152.625,947.3281 Q151.9063,947.3281 151.5938,947.0469 Q151.2969,946.7656 151.2969,946.3125 Q151.2969,945.8594 151.5938,945.5938 Q151.9063,945.3125 152.625,945.3125 L161.6094,945.3125 L161.6094,948.3594 Q161.6094,949.0781 161.3281,949.3906 Q161.0625,949.6875 160.625,949.6875 Q160.1719,949.6875 159.8906,949.3906 Q159.6094,949.0938 159.6094,948.3594 L159.6094,947.3281 L154.9531,947.3281 L154.9531,950.2188 L156.7031,950.2188 Q156.7031,949.4375 156.8438,949.2031 Q157.1563,948.7344 157.7031,948.7344 Q158.1563,948.7344 158.4219,949.0469 Q158.7031,949.3438 158.7031,950.0625 L158.7031,952.375 Q158.7031,953.0313 158.5469,953.25 Q158.2344,953.7031 157.7031,953.7031 Q157.1563,953.7031 156.8438,953.2344 Q156.7031,953 156.7031,952.2188 L154.9531,952.2188 Z " fill="#000000"/><text fill="#000000" font-family="sans-serif" font-size="20" font-style="italic" lengthAdjust="spacing" textLength="69" x="197" y="946.7617">«entity»</text><text fill="#000000" font-family="sans-serif" font-size="20" lengthAdjust="spacing" textLength="119" x="172" y="971.918">Specialization</text><line style="stroke:#181818;stroke-width:0.5;" x1="142" x2="293" y1="981.3125" y2="981.3125"/></g><!--link Staff to User--><g id="link_Staff_User"><path codeLine="20" d="M151.25,772.12 C131.02,810.95 97.57,875.16 76.31,915.98 " fill="none" id="Staff-to-User" style="stroke:#222222;stroke-width:1.0;"/><polygon fill="#222222" points="73.77,920.84,81.4598,914.6864,76.0687,916.3997,74.3554,911.0086,73.77,920.84" style="stroke:#222222;stroke-width:1.0;"/><text fill="#000000" font-family="sans-serif" font-size="20" lengthAdjust="spacing" textLength="11" x="136.1977" y="801.172">1</text></g><!--link Patient to User--><g id="link_Patient_User"><path codeLine="21" d="M56.5,545.3 C56.5,577.86 56.5,628.84 56.5,673 C56.5,673 56.5,673 56.5,847.5 C56.5,870.17 56.5,895.55 56.5,915.85 " fill="none" id="Patient-to-User" style="stroke:#222222;stroke-width:1.0;"/><polygon fill="#222222" points="56.5,920.9,60.5,911.9,56.5,915.9,52.5,911.9,56.5,920.9" style="stroke:#222222;stroke-width:1.0;"/><text fill="#000000" font-family="sans-serif" font-size="20" lengthAdjust="spacing" textLength="34" x="19.5781" y="574.092">0..1</text></g><!--link Doctor to Staff--><g id="link_Doctor_Staff"><path codeLine="22" d="M172.99,447.05 C172.06,507.26 170.09,634.5 169.1,698.51 " fill="none" id="Doctor-to-Staff" style="stroke:#222222;stroke-width:1.0;"/><polygon fill="#222222" points="169.01,703.76,173.1382,694.8181,169.0814,698.7605,165.139,694.7038,169.01,703.76" style="stroke:#222222;stroke-width:1.0;"/><text fill="#000000" font-family="sans-serif" font-size="20" lengthAdjust="spacing" textLength="31" x="172.5" y="617.2617">is a</text><text fill="#000000" font-family="sans-serif" font-size="20" lengthAdjust="spacing" textLength="11" x="157.1523" y="691.4749">1</text></g><!--link Staff to Specialization--><g id="link_Staff_Specialization"><path codeLine="23" d="M176.05,772.12 C184.86,810.79 199.41,874.64 208.72,915.48 " fill="none" id="Staff-to-Specialization" style="stroke:#222222;stroke-width:1.0;"/><polygon fill="#222222" points="209.94,920.84,211.8594,911.18,208.8387,915.9628,204.0559,912.9421,209.94,920.84" style="stroke:#222222;stroke-width:1.0;"/><text fill="#000000" font-family="sans-serif" font-size="20" lengthAdjust="spacing" textLength="115" x="197.5" y="854.7617">specializes in</text><text fill="#000000" font-family="sans-serif" font-size="20" lengthAdjust="spacing" textLength="11" x="196.6953" y="908.5686">1</text></g><!--link OperationRequest to Doctor--><g id="link_OperationRequest_Doctor"><path codeLine="24" d="M176.63,292.2 C176.01,316.16 175.16,348.57 174.5,373.63 " fill="none" id="OperationRequest-to-Doctor" style="stroke:#222222;stroke-width:1.0;"/><polygon fill="#222222" points="174.37,378.87,178.6,369.9758,174.4985,373.8717,170.6027,369.7702,174.37,378.87" style="stroke:#222222;stroke-width:1.0;"/><text fill="#000000" font-family="sans-serif" font-size="20" lengthAdjust="spacing" textLength="93" x="177.5" y="343.7617">request by</text><text fill="#000000" font-family="sans-serif" font-size="20" lengthAdjust="spacing" textLength="11" x="162.5742" y="366.6038">1</text></g><!--link OperationRequest to Patient--><g id="link_OperationRequest_Patient"><path codeLine="25" d="M115,292.06 C104,300.47 93.77,310.45 86.5,322 C57.86,367.51 53.5,431.11 54.14,471.42 " fill="none" id="OperationRequest-to-Patient" style="stroke:#222222;stroke-width:1.0;"/><polygon fill="#222222" points="54.25,476.71,58.0692,467.6318,54.15,471.711,50.0708,467.7918,54.25,476.71" style="stroke:#222222;stroke-width:1.0;"/><text fill="#000000" font-family="sans-serif" font-size="20" lengthAdjust="spacing" textLength="79" x="87.5" y="343.7617">made for</text><text fill="#000000" font-family="sans-serif" font-size="20" lengthAdjust="spacing" textLength="11" x="41.9664" y="464.7092">1</text></g><!--link Appointment to OperationRequest--><g id="link_Appointment_OperationRequest"><path codeLine="26" d="M242.26,75.3 C229.02,92.46 214.09,114.29 204.5,136 C192.85,162.38 186,194.29 182.12,218.71 " fill="none" id="Appointment-to-OperationRequest" style="stroke:#222222;stroke-width:1.0;"/><polygon fill="#222222" points="181.33,223.8,186.6466,215.5094,182.0871,218.8576,178.7388,214.2981,181.33,223.8" style="stroke:#222222;stroke-width:1.0;"/><text fill="#000000" font-family="sans-serif" font-size="20" lengthAdjust="spacing" textLength="114" x="205.5" y="157.7617">scheduling of</text><text fill="#000000" font-family="sans-serif" font-size="20" lengthAdjust="spacing" textLength="11" x="170.043" y="211.5217">1</text></g><!--link OperationRequest to OperationType--><g id="link_OperationRequest_OperationType"><path codeLine="27" d="M249.48,292.03 C261.1,300.29 271.82,310.23 279.5,322 C329.51,398.62 328.54,511.34 323.87,569.75 " fill="none" id="OperationRequest-to-OperationType" style="stroke:#222222;stroke-width:1.0;"/><polygon fill="#222222" points="323.44,574.89,328.1715,566.2521,323.854,569.9072,320.199,565.5897,323.44,574.89" style="stroke:#222222;stroke-width:1.0;"/><text fill="#000000" font-family="sans-serif" font-size="20" lengthAdjust="spacing" textLength="91" x="322.5" y="421.2617">defined by</text><text fill="#000000" font-family="sans-serif" font-size="20" lengthAdjust="spacing" textLength="11" x="312.1719" y="562.6272">1</text></g><!--link Appointment to Room--><g id="link_Appointment_Room"><path codeLine="28" d="M291.76,75.04 C302.51,92.67 315.21,115 324.5,136 C336.42,162.95 346.52,194.69 353.45,218.91 " fill="none" id="Appointment-to-Room" style="stroke:#222222;stroke-width:1.0;"/><polygon fill="#222222" points="354.88,223.96,356.288,214.2123,353.5234,219.1476,348.5881,216.3829,354.88,223.96" style="stroke:#222222;stroke-width:1.0;"/><text fill="#000000" font-family="sans-serif" font-size="20" lengthAdjust="spacing" textLength="136" x="336.5" y="157.7617">associated with</text><text fill="#000000" font-family="sans-serif" font-size="20" lengthAdjust="spacing" textLength="11" x="341.4531" y="211.7092">1</text></g><!--SRC=[XLBBJiCm4BpxArRbdAhq64ML2WY94wY53t2TJRjAuZMseof5_3jk7lHbX4-sPsPdNwuaRQILTSMgn1noB6HJ-MVMVaq7XFbC23ToG5NIkQNtbZQDnnV5kYFDn8vo1AoDRq6EiBiMFaXLRYqtEd_aYYriaBPuHbfQo_iUkfjtHmY1sbE8-k7G0cHP_rmilhv7PErbKKIHD-afNEEo9rO-6CMWfJ5CsjT7RGn_DMX3QDOh_6pG_KDwRmsUCU14MJ7NyP8CAf8L7Re0L-9mkcPaIMEI12Rtaxu5bx-pwJG0GmV4K6oI98kJ058W1rBqZnDsQPw26p_G0MbnK_qe74nIi0EmQVycZxD9ePPXTGgsuhpjlzdS10Zvg1tcJKLw2rp47AwbtGJIusgJ3YiUqefQTUD88ImgXtfzOEx9xuxz_W40]--></g></svg>