<?xml version="1.0" encoding="us-ascii" standalone="no"?><svg xmlns="http://www.w3.org/2000/svg" xmlns:xlink="http://www.w3.org/1999/xlink" contentStyleType="text/css" height="884px" preserveAspectRatio="none" style="width:385px;height:884px;background:#FFFFFF;" version="1.1" viewBox="0 0 385 884" width="385px" zoomAndPan="magnify"><defs/><g><!--class User--><g id="elem_User"><rect codeLine="8" fill="#F5F5DC" height="52.582" id="User" rx="2.5" ry="2.5" style="stroke:#181818;stroke-width:0.5;" width="71" x="24.5" y="825"/><ellipse cx="39.5" cy="847.291" fill="#ADD1B2" rx="11" ry="11" style="stroke:#181818;stroke-width:1.0;"/><path d="M38.3594,848.0879 L38.3594,850.5879 L42.6875,850.5879 L42.6875,849.666 Q42.6875,849.0566 42.9219,848.791 Q43.1719,848.5254 43.5469,848.5254 Q43.9219,848.5254 44.1563,848.791 Q44.3906,849.0566 44.3906,849.666 L44.3906,852.291 L36.3906,852.291 Q35.7656,852.291 35.5,852.0566 Q35.25,851.8223 35.25,851.4316 Q35.25,851.0566 35.5156,850.8223 Q35.7813,850.5879 36.3906,850.5879 L36.6563,850.5879 L36.6563,843.9316 L36.3906,843.9316 Q35.7656,843.9316 35.5,843.6973 Q35.25,843.4629 35.25,843.0723 Q35.25,842.6973 35.5,842.4629 Q35.7656,842.2285 36.3906,842.2285 L44.0156,842.2285 L44.0156,844.8223 Q44.0156,845.4316 43.7813,845.6973 Q43.5625,845.9473 43.1719,845.9473 Q42.7969,845.9473 42.5625,845.6973 Q42.3281,845.4316 42.3281,844.8223 L42.3281,843.9316 L38.3594,843.9316 L38.3594,846.3848 L39.8438,846.3848 Q39.8438,845.7285 39.9688,845.541 Q40.2344,845.1348 40.7031,845.1348 Q41.0781,845.1348 41.3125,845.4004 Q41.5469,845.6504 41.5469,846.2598 L41.5469,848.2285 Q41.5469,848.7754 41.4219,848.9629 Q41.1563,849.3535 40.7031,849.3535 Q40.2344,849.3535 39.9688,848.9473 Q39.8438,848.7598 39.8438,848.0879 L38.3594,848.0879 Z " fill="#000000"/><text fill="#000000" font-family="sans-serif" font-size="12" font-style="italic" lengthAdjust="spacing" textLength="43" x="51.5" y="842.9492">&#171;entity&#187;</text><text fill="#000000" font-family="sans-serif" font-size="14" lengthAdjust="spacing" textLength="29" x="58.5" y="861.0684">User</text><line style="stroke:#181818;stroke-width:0.5;" x1="25.5" x2="94.5" y1="869.582" y2="869.582"/></g><!--class Staff--><g id="elem_Staff"><rect codeLine="9" fill="#F5F5DC" height="52.582" id="Staff" rx="2.5" ry="2.5" style="stroke:#181818;stroke-width:0.5;" width="71" x="99.5" y="631"/><ellipse cx="114.5" cy="653.291" fill="#ADD1B2" rx="11" ry="11" style="stroke:#181818;stroke-width:1.0;"/><path d="M113.3594,654.0879 L113.3594,656.5879 L117.6875,656.5879 L117.6875,655.666 Q117.6875,655.0566 117.9219,654.791 Q118.1719,654.5254 118.5469,654.5254 Q118.9219,654.5254 119.1563,654.791 Q119.3906,655.0566 119.3906,655.666 L119.3906,658.291 L111.3906,658.291 Q110.7656,658.291 110.5,658.0566 Q110.25,657.8223 110.25,657.4316 Q110.25,657.0566 110.5156,656.8223 Q110.7813,656.5879 111.3906,656.5879 L111.6563,656.5879 L111.6563,649.9316 L111.3906,649.9316 Q110.7656,649.9316 110.5,649.6973 Q110.25,649.4629 110.25,649.0723 Q110.25,648.6973 110.5,648.4629 Q110.7656,648.2285 111.3906,648.2285 L119.0156,648.2285 L119.0156,650.8223 Q119.0156,651.4316 118.7813,651.6973 Q118.5625,651.9473 118.1719,651.9473 Q117.7969,651.9473 117.5625,651.6973 Q117.3281,651.4316 117.3281,650.8223 L117.3281,649.9316 L113.3594,649.9316 L113.3594,652.3848 L114.8438,652.3848 Q114.8438,651.7285 114.9688,651.541 Q115.2344,651.1348 115.7031,651.1348 Q116.0781,651.1348 116.3125,651.4004 Q116.5469,651.6504 116.5469,652.2598 L116.5469,654.2285 Q116.5469,654.7754 116.4219,654.9629 Q116.1563,655.3535 115.7031,655.3535 Q115.2344,655.3535 114.9688,654.9473 Q114.8438,654.7598 114.8438,654.0879 L113.3594,654.0879 Z " fill="#000000"/><text fill="#000000" font-family="sans-serif" font-size="12" font-style="italic" lengthAdjust="spacing" textLength="43" x="126.5" y="648.9492">&#171;entity&#187;</text><text fill="#000000" font-family="sans-serif" font-size="14" lengthAdjust="spacing" textLength="29" x="133.5" y="667.0684">Staff</text><line style="stroke:#181818;stroke-width:0.5;" x1="100.5" x2="169.5" y1="675.582" y2="675.582"/></g><!--class Patient--><g id="elem_Patient"><rect codeLine="10" fill="#F5F5DC" height="52.582" id="Patient" rx="2.5" ry="2.5" style="stroke:#181818;stroke-width:0.5;" width="76" x="7" y="416"/><ellipse cx="22" cy="438.291" fill="#ADD1B2" rx="11" ry="11" style="stroke:#181818;stroke-width:1.0;"/><path d="M20.8594,439.0879 L20.8594,441.5879 L25.1875,441.5879 L25.1875,440.666 Q25.1875,440.0566 25.4219,439.791 Q25.6719,439.5254 26.0469,439.5254 Q26.4219,439.5254 26.6563,439.791 Q26.8906,440.0566 26.8906,440.666 L26.8906,443.291 L18.8906,443.291 Q18.2656,443.291 18,443.0566 Q17.75,442.8223 17.75,442.4316 Q17.75,442.0566 18.0156,441.8223 Q18.2813,441.5879 18.8906,441.5879 L19.1563,441.5879 L19.1563,434.9316 L18.8906,434.9316 Q18.2656,434.9316 18,434.6973 Q17.75,434.4629 17.75,434.0723 Q17.75,433.6973 18,433.4629 Q18.2656,433.2285 18.8906,433.2285 L26.5156,433.2285 L26.5156,435.8223 Q26.5156,436.4316 26.2813,436.6973 Q26.0625,436.9473 25.6719,436.9473 Q25.2969,436.9473 25.0625,436.6973 Q24.8281,436.4316 24.8281,435.8223 L24.8281,434.9316 L20.8594,434.9316 L20.8594,437.3848 L22.3438,437.3848 Q22.3438,436.7285 22.4688,436.541 Q22.7344,436.1348 23.2031,436.1348 Q23.5781,436.1348 23.8125,436.4004 Q24.0469,436.6504 24.0469,437.2598 L24.0469,439.2285 Q24.0469,439.7754 23.9219,439.9629 Q23.6563,440.3535 23.2031,440.3535 Q22.7344,440.3535 22.4688,439.9473 Q22.3438,439.7598 22.3438,439.0879 L20.8594,439.0879 Z " fill="#000000"/><text fill="#000000" font-family="sans-serif" font-size="12" font-style="italic" lengthAdjust="spacing" textLength="43" x="36.5" y="433.9492">&#171;entity&#187;</text><text fill="#000000" font-family="sans-serif" font-size="14" lengthAdjust="spacing" textLength="44" x="36" y="452.0684">Patient</text><line style="stroke:#181818;stroke-width:0.5;" x1="8" x2="82" y1="460.582" y2="460.582"/></g><!--class Doctor--><g id="elem_Doctor"><rect codeLine="11" fill="#F5F5DC" height="52.582" id="Doctor" rx="2.5" ry="2.5" style="stroke:#181818;stroke-width:0.5;" width="74" x="99" y="333"/><ellipse cx="114" cy="355.291" fill="#ADD1B2" rx="11" ry="11" style="stroke:#181818;stroke-width:1.0;"/><path d="M112.8594,356.0879 L112.8594,358.5879 L117.1875,358.5879 L117.1875,357.666 Q117.1875,357.0566 117.4219,356.791 Q117.6719,356.5254 118.0469,356.5254 Q118.4219,356.5254 118.6563,356.791 Q118.8906,357.0566 118.8906,357.666 L118.8906,360.291 L110.8906,360.291 Q110.2656,360.291 110,360.0566 Q109.75,359.8223 109.75,359.4316 Q109.75,359.0566 110.0156,358.8223 Q110.2813,358.5879 110.8906,358.5879 L111.1563,358.5879 L111.1563,351.9316 L110.8906,351.9316 Q110.2656,351.9316 110,351.6973 Q109.75,351.4629 109.75,351.0723 Q109.75,350.6973 110,350.4629 Q110.2656,350.2285 110.8906,350.2285 L118.5156,350.2285 L118.5156,352.8223 Q118.5156,353.4316 118.2813,353.6973 Q118.0625,353.9473 117.6719,353.9473 Q117.2969,353.9473 117.0625,353.6973 Q116.8281,353.4316 116.8281,352.8223 L116.8281,351.9316 L112.8594,351.9316 L112.8594,354.3848 L114.3438,354.3848 Q114.3438,353.7285 114.4688,353.541 Q114.7344,353.1348 115.2031,353.1348 Q115.5781,353.1348 115.8125,353.4004 Q116.0469,353.6504 116.0469,354.2598 L116.0469,356.2285 Q116.0469,356.7754 115.9219,356.9629 Q115.6563,357.3535 115.2031,357.3535 Q114.7344,357.3535 114.4688,356.9473 Q114.3438,356.7598 114.3438,356.0879 L112.8594,356.0879 Z " fill="#000000"/><text fill="#000000" font-family="sans-serif" font-size="12" font-style="italic" lengthAdjust="spacing" textLength="43" x="127.5" y="350.9492">&#171;entity&#187;</text><text fill="#000000" font-family="sans-serif" font-size="14" lengthAdjust="spacing" textLength="42" x="128" y="369.0684">Doctor</text><line style="stroke:#181818;stroke-width:0.5;" x1="100" x2="172" y1="377.582" y2="377.582"/></g><!--class Appointment--><g id="elem_Appointment"><rect codeLine="12" fill="#F5F5DC" height="52.582" id="Appointment" rx="2.5" ry="2.5" style="stroke:#181818;stroke-width:0.5;" width="111" x="155.5" y="7"/><ellipse cx="170.5" cy="29.291" fill="#ADD1B2" rx="11" ry="11" style="stroke:#181818;stroke-width:1.0;"/><path d="M169.3594,30.0879 L169.3594,32.5879 L173.6875,32.5879 L173.6875,31.666 Q173.6875,31.0566 173.9219,30.791 Q174.1719,30.5254 174.5469,30.5254 Q174.9219,30.5254 175.1563,30.791 Q175.3906,31.0566 175.3906,31.666 L175.3906,34.291 L167.3906,34.291 Q166.7656,34.291 166.5,34.0566 Q166.25,33.8223 166.25,33.4316 Q166.25,33.0566 166.5156,32.8223 Q166.7813,32.5879 167.3906,32.5879 L167.6563,32.5879 L167.6563,25.9316 L167.3906,25.9316 Q166.7656,25.9316 166.5,25.6973 Q166.25,25.4629 166.25,25.0723 Q166.25,24.6973 166.5,24.4629 Q166.7656,24.2285 167.3906,24.2285 L175.0156,24.2285 L175.0156,26.8223 Q175.0156,27.4316 174.7813,27.6973 Q174.5625,27.9473 174.1719,27.9473 Q173.7969,27.9473 173.5625,27.6973 Q173.3281,27.4316 173.3281,26.8223 L173.3281,25.9316 L169.3594,25.9316 L169.3594,28.3848 L170.8438,28.3848 Q170.8438,27.7285 170.9688,27.541 Q171.2344,27.1348 171.7031,27.1348 Q172.0781,27.1348 172.3125,27.4004 Q172.5469,27.6504 172.5469,28.2598 L172.5469,30.2285 Q172.5469,30.7754 172.4219,30.9629 Q172.1563,31.3535 171.7031,31.3535 Q171.2344,31.3535 170.9688,30.9473 Q170.8438,30.7598 170.8438,30.0879 L169.3594,30.0879 Z " fill="#000000"/><text fill="#000000" font-family="sans-serif" font-size="12" font-style="italic" lengthAdjust="spacing" textLength="43" x="202.5" y="24.9492">&#171;entity&#187;</text><text fill="#000000" font-family="sans-serif" font-size="14" lengthAdjust="spacing" textLength="79" x="184.5" y="43.0684">Appointment</text><line style="stroke:#181818;stroke-width:0.5;" x1="156.5" x2="265.5" y1="51.582" y2="51.582"/></g><!--class OperationRequest--><g id="elem_OperationRequest"><rect codeLine="13" fill="#F5F5DC" height="52.582" id="OperationRequest" rx="2.5" ry="2.5" style="stroke:#181818;stroke-width:0.5;" width="148" x="63" y="201"/><ellipse cx="78" cy="223.291" fill="#ADD1B2" rx="11" ry="11" style="stroke:#181818;stroke-width:1.0;"/><path d="M76.8594,224.0879 L76.8594,226.5879 L81.1875,226.5879 L81.1875,225.666 Q81.1875,225.0566 81.4219,224.791 Q81.6719,224.5254 82.0469,224.5254 Q82.4219,224.5254 82.6563,224.791 Q82.8906,225.0566 82.8906,225.666 L82.8906,228.291 L74.8906,228.291 Q74.2656,228.291 74,228.0566 Q73.75,227.8223 73.75,227.4316 Q73.75,227.0566 74.0156,226.8223 Q74.2813,226.5879 74.8906,226.5879 L75.1563,226.5879 L75.1563,219.9316 L74.8906,219.9316 Q74.2656,219.9316 74,219.6973 Q73.75,219.4629 73.75,219.0723 Q73.75,218.6973 74,218.4629 Q74.2656,218.2285 74.8906,218.2285 L82.5156,218.2285 L82.5156,220.8223 Q82.5156,221.4316 82.2813,221.6973 Q82.0625,221.9473 81.6719,221.9473 Q81.2969,221.9473 81.0625,221.6973 Q80.8281,221.4316 80.8281,220.8223 L80.8281,219.9316 L76.8594,219.9316 L76.8594,222.3848 L78.3438,222.3848 Q78.3438,221.7285 78.4688,221.541 Q78.7344,221.1348 79.2031,221.1348 Q79.5781,221.1348 79.8125,221.4004 Q80.0469,221.6504 80.0469,222.2598 L80.0469,224.2285 Q80.0469,224.7754 79.9219,224.9629 Q79.6563,225.3535 79.2031,225.3535 Q78.7344,225.3535 78.4688,224.9473 Q78.3438,224.7598 78.3438,224.0879 L76.8594,224.0879 Z " fill="#000000"/><text fill="#000000" font-family="sans-serif" font-size="12" font-style="italic" lengthAdjust="spacing" textLength="43" x="128.5" y="218.9492">&#171;entity&#187;</text><text fill="#000000" font-family="sans-serif" font-size="14" lengthAdjust="spacing" textLength="116" x="92" y="237.0684">OperationRequest</text><line style="stroke:#181818;stroke-width:0.5;" x1="64" x2="210" y1="245.582" y2="245.582"/></g><!--class OperationType--><g id="elem_OperationType"><rect codeLine="14" fill="#F5F5DC" height="52.582" id="OperationType" rx="2.5" ry="2.5" style="stroke:#181818;stroke-width:0.5;" width="127" x="216.5" y="499"/><ellipse cx="231.5" cy="521.291" fill="#ADD1B2" rx="11" ry="11" style="stroke:#181818;stroke-width:1.0;"/><path d="M230.3594,522.0879 L230.3594,524.5879 L234.6875,524.5879 L234.6875,523.666 Q234.6875,523.0566 234.9219,522.791 Q235.1719,522.5254 235.5469,522.5254 Q235.9219,522.5254 236.1563,522.791 Q236.3906,523.0566 236.3906,523.666 L236.3906,526.291 L228.3906,526.291 Q227.7656,526.291 227.5,526.0566 Q227.25,525.8223 227.25,525.4316 Q227.25,525.0566 227.5156,524.8223 Q227.7813,524.5879 228.3906,524.5879 L228.6563,524.5879 L228.6563,517.9316 L228.3906,517.9316 Q227.7656,517.9316 227.5,517.6973 Q227.25,517.4629 227.25,517.0723 Q227.25,516.6973 227.5,516.4629 Q227.7656,516.2285 228.3906,516.2285 L236.0156,516.2285 L236.0156,518.8223 Q236.0156,519.4316 235.7813,519.6973 Q235.5625,519.9473 235.1719,519.9473 Q234.7969,519.9473 234.5625,519.6973 Q234.3281,519.4316 234.3281,518.8223 L234.3281,517.9316 L230.3594,517.9316 L230.3594,520.3848 L231.8438,520.3848 Q231.8438,519.7285 231.9688,519.541 Q232.2344,519.1348 232.7031,519.1348 Q233.0781,519.1348 233.3125,519.4004 Q233.5469,519.6504 233.5469,520.2598 L233.5469,522.2285 Q233.5469,522.7754 233.4219,522.9629 Q233.1563,523.3535 232.7031,523.3535 Q232.2344,523.3535 231.9688,522.9473 Q231.8438,522.7598 231.8438,522.0879 L230.3594,522.0879 Z " fill="#000000"/><text fill="#000000" font-family="sans-serif" font-size="12" font-style="italic" lengthAdjust="spacing" textLength="43" x="271.5" y="516.9492">&#171;entity&#187;</text><text fill="#000000" font-family="sans-serif" font-size="14" lengthAdjust="spacing" textLength="95" x="245.5" y="535.0684">OperationType</text><line style="stroke:#181818;stroke-width:0.5;" x1="217.5" x2="342.5" y1="543.582" y2="543.582"/></g><!--class OperationTypeRecord--><g id="elem_OperationTypeRecord"><rect codeLine="15" fill="#F5F5DC" height="52.582" id="OperationTypeRecord" rx="2.5" ry="2.5" style="stroke:#181818;stroke-width:0.5;" width="173" x="205.5" y="631"/><ellipse cx="220.5" cy="653.291" fill="#ADD1B2" rx="11" ry="11" style="stroke:#181818;stroke-width:1.0;"/><path d="M219.3594,654.0879 L219.3594,656.5879 L223.6875,656.5879 L223.6875,655.666 Q223.6875,655.0566 223.9219,654.791 Q224.1719,654.5254 224.5469,654.5254 Q224.9219,654.5254 225.1563,654.791 Q225.3906,655.0566 225.3906,655.666 L225.3906,658.291 L217.3906,658.291 Q216.7656,658.291 216.5,658.0566 Q216.25,657.8223 216.25,657.4316 Q216.25,657.0566 216.5156,656.8223 Q216.7813,656.5879 217.3906,656.5879 L217.6563,656.5879 L217.6563,649.9316 L217.3906,649.9316 Q216.7656,649.9316 216.5,649.6973 Q216.25,649.4629 216.25,649.0723 Q216.25,648.6973 216.5,648.4629 Q216.7656,648.2285 217.3906,648.2285 L225.0156,648.2285 L225.0156,650.8223 Q225.0156,651.4316 224.7813,651.6973 Q224.5625,651.9473 224.1719,651.9473 Q223.7969,651.9473 223.5625,651.6973 Q223.3281,651.4316 223.3281,650.8223 L223.3281,649.9316 L219.3594,649.9316 L219.3594,652.3848 L220.8438,652.3848 Q220.8438,651.7285 220.9688,651.541 Q221.2344,651.1348 221.7031,651.1348 Q222.0781,651.1348 222.3125,651.4004 Q222.5469,651.6504 222.5469,652.2598 L222.5469,654.2285 Q222.5469,654.7754 222.4219,654.9629 Q222.1563,655.3535 221.7031,655.3535 Q221.2344,655.3535 220.9688,654.9473 Q220.8438,654.7598 220.8438,654.0879 L219.3594,654.0879 Z " fill="#000000"/><text fill="#000000" font-family="sans-serif" font-size="12" font-style="italic" lengthAdjust="spacing" textLength="43" x="283.5" y="648.9492">&#171;entity&#187;</text><text fill="#000000" font-family="sans-serif" font-size="14" lengthAdjust="spacing" textLength="141" x="234.5" y="667.0684">OperationTypeRecord</text><line style="stroke:#181818;stroke-width:0.5;" x1="206.5" x2="377.5" y1="675.582" y2="675.582"/></g><!--class Room--><g id="elem_Room"><rect codeLine="16" fill="#F5F5DC" height="52.582" id="Room" rx="2.5" ry="2.5" style="stroke:#181818;stroke-width:0.5;" width="71" x="249.5" y="201"/><ellipse cx="264.5" cy="223.291" fill="#ADD1B2" rx="11" ry="11" style="stroke:#181818;stroke-width:1.0;"/><path d="M263.3594,224.0879 L263.3594,226.5879 L267.6875,226.5879 L267.6875,225.666 Q267.6875,225.0566 267.9219,224.791 Q268.1719,224.5254 268.5469,224.5254 Q268.9219,224.5254 269.1563,224.791 Q269.3906,225.0566 269.3906,225.666 L269.3906,228.291 L261.3906,228.291 Q260.7656,228.291 260.5,228.0566 Q260.25,227.8223 260.25,227.4316 Q260.25,227.0566 260.5156,226.8223 Q260.7813,226.5879 261.3906,226.5879 L261.6563,226.5879 L261.6563,219.9316 L261.3906,219.9316 Q260.7656,219.9316 260.5,219.6973 Q260.25,219.4629 260.25,219.0723 Q260.25,218.6973 260.5,218.4629 Q260.7656,218.2285 261.3906,218.2285 L269.0156,218.2285 L269.0156,220.8223 Q269.0156,221.4316 268.7813,221.6973 Q268.5625,221.9473 268.1719,221.9473 Q267.7969,221.9473 267.5625,221.6973 Q267.3281,221.4316 267.3281,220.8223 L267.3281,219.9316 L263.3594,219.9316 L263.3594,222.3848 L264.8438,222.3848 Q264.8438,221.7285 264.9688,221.541 Q265.2344,221.1348 265.7031,221.1348 Q266.0781,221.1348 266.3125,221.4004 Q266.5469,221.6504 266.5469,222.2598 L266.5469,224.2285 Q266.5469,224.7754 266.4219,224.9629 Q266.1563,225.3535 265.7031,225.3535 Q265.2344,225.3535 264.9688,224.9473 Q264.8438,224.7598 264.8438,224.0879 L263.3594,224.0879 Z " fill="#000000"/><text fill="#000000" font-family="sans-serif" font-size="12" font-style="italic" lengthAdjust="spacing" textLength="43" x="276.5" y="218.9492">&#171;entity&#187;</text><text fill="#000000" font-family="sans-serif" font-size="14" lengthAdjust="spacing" textLength="37" x="279.5" y="237.0684">Room</text><line style="stroke:#181818;stroke-width:0.5;" x1="250.5" x2="319.5" y1="245.582" y2="245.582"/></g><!--class Specialization--><g id="elem_Specialization"><rect codeLine="17" fill="#F5F5DC" height="52.582" id="Specialization" rx="2.5" ry="2.5" style="stroke:#181818;stroke-width:0.5;" width="118" x="145" y="825"/><ellipse cx="160" cy="847.291" fill="#ADD1B2" rx="11" ry="11" style="stroke:#181818;stroke-width:1.0;"/><path d="M158.8594,848.0879 L158.8594,850.5879 L163.1875,850.5879 L163.1875,849.666 Q163.1875,849.0566 163.4219,848.791 Q163.6719,848.5254 164.0469,848.5254 Q164.4219,848.5254 164.6563,848.791 Q164.8906,849.0566 164.8906,849.666 L164.8906,852.291 L156.8906,852.291 Q156.2656,852.291 156,852.0566 Q155.75,851.8223 155.75,851.4316 Q155.75,851.0566 156.0156,850.8223 Q156.2813,850.5879 156.8906,850.5879 L157.1563,850.5879 L157.1563,843.9316 L156.8906,843.9316 Q156.2656,843.9316 156,843.6973 Q155.75,843.4629 155.75,843.0723 Q155.75,842.6973 156,842.4629 Q156.2656,842.2285 156.8906,842.2285 L164.5156,842.2285 L164.5156,844.8223 Q164.5156,845.4316 164.2813,845.6973 Q164.0625,845.9473 163.6719,845.9473 Q163.2969,845.9473 163.0625,845.6973 Q162.8281,845.4316 162.8281,844.8223 L162.8281,843.9316 L158.8594,843.9316 L158.8594,846.3848 L160.3438,846.3848 Q160.3438,845.7285 160.4688,845.541 Q160.7344,845.1348 161.2031,845.1348 Q161.5781,845.1348 161.8125,845.4004 Q162.0469,845.6504 162.0469,846.2598 L162.0469,848.2285 Q162.0469,848.7754 161.9219,848.9629 Q161.6563,849.3535 161.2031,849.3535 Q160.7344,849.3535 160.4688,848.9473 Q160.3438,848.7598 160.3438,848.0879 L158.8594,848.0879 Z " fill="#000000"/><text fill="#000000" font-family="sans-serif" font-size="12" font-style="italic" lengthAdjust="spacing" textLength="43" x="195.5" y="842.9492">&#171;entity&#187;</text><text fill="#000000" font-family="sans-serif" font-size="14" lengthAdjust="spacing" textLength="86" x="174" y="861.0684">Specialization</text><line style="stroke:#181818;stroke-width:0.5;" x1="146" x2="262" y1="869.582" y2="869.582"/></g><!--link Staff to User--><g id="link_Staff_User"><path codeLine="21" d="M124.89,684.39 C110.53,721.14 86.5942,782.4317 72.2542,819.1217 " fill="none" id="Staff-to-User" style="stroke:#222222;stroke-width:1.0;"/><polygon fill="#222222" points="70.07,824.71,77.0718,817.7836,71.8901,820.0531,69.6207,814.8714,70.07,824.71" style="stroke:#222222;stroke-width:1.0;"/><text fill="#000000" font-family="sans-serif" font-size="13" lengthAdjust="spacing" textLength="7" x="115.0829" y="705.7906">1</text></g><!--link Patient to User--><g id="link_Patient_User"><path codeLine="22" d="M45,469.26 C45,498.61 45,548.01 45,590.5 C45,590.5 45,590.5 45,755.5 C45,779.21 48.3527,799.9854 52.4627,819.0054 " fill="none" id="Patient-to-User" style="stroke:#222222;stroke-width:1.0;"/><polygon fill="#222222" points="53.73,824.87,55.7388,815.2282,52.6739,819.9828,47.9193,816.9179,53.73,824.87" style="stroke:#222222;stroke-width:1.0;"/><text fill="#000000" font-family="sans-serif" font-size="13" lengthAdjust="spacing" textLength="22" x="20.7313" y="490.6338">0..1</text></g><!--link Doctor to Staff--><g id="link_Doctor_Staff"><path codeLine="23" d="M135.91,386.25 C135.72,442.23 135.3003,568.48 135.1103,624.6 " fill="none" id="Doctor-to-Staff" style="stroke:#222222;stroke-width:1.0;"/><polygon fill="#222222" points="135.09,630.6,139.1204,621.6136,135.1069,625.6,131.1205,621.5865,135.09,630.6" style="stroke:#222222;stroke-width:1.0;"/><text fill="#000000" font-family="sans-serif" font-size="13" lengthAdjust="spacing" textLength="21" x="137" y="531.0283">is a</text><text fill="#000000" font-family="sans-serif" font-size="13" lengthAdjust="spacing" textLength="7" x="127.3014" y="619.524">1</text></g><!--link Staff to Specialization--><g id="link_Staff_Specialization"><path codeLine="24" d="M144.31,684.39 C157.51,721.14 179.5216,782.3733 192.7016,819.0633 " fill="none" id="Staff-to-Specialization" style="stroke:#222222;stroke-width:1.0;"/><polygon fill="#222222" points="194.73,824.71,195.4518,814.8876,193.0396,820.0044,187.9229,817.5922,194.73,824.71" style="stroke:#222222;stroke-width:1.0;"/><text fill="#000000" font-family="sans-serif" font-size="13" lengthAdjust="spacing" textLength="79" x="173" y="760.0283">specializes in</text><text fill="#000000" font-family="sans-serif" font-size="13" lengthAdjust="spacing" textLength="7" x="184.7769" y="813.6595">1</text></g><!--link OperationRequest to Doctor--><g id="link_OperationRequest_Doctor"><path codeLine="25" d="M136.8,254.18 C136.63,276.97 136.4148,304.0902 136.2448,326.8702 " fill="none" id="OperationRequest-to-Doctor" style="stroke:#222222;stroke-width:1.0;"/><polygon fill="#222222" points="136.2,332.87,140.2671,323.9001,136.2373,327.8701,132.2673,323.8404,136.2,332.87" style="stroke:#222222;stroke-width:1.0;"/><text fill="#000000" font-family="sans-serif" font-size="13" lengthAdjust="spacing" textLength="61" x="138" y="299.0283">request by</text><text fill="#000000" font-family="sans-serif" font-size="13" lengthAdjust="spacing" textLength="7" x="128.4369" y="321.8565">1</text></g><!--link OperationRequest to Patient--><g id="link_OperationRequest_Patient"><path codeLine="26" d="M101.93,254.2 C92.54,262.71 83.26,272.87 77,284 C53.33,326.07 47.3321,377.2171 45.7421,409.8371 " fill="none" id="OperationRequest-to-Patient" style="stroke:#222222;stroke-width:1.0;"/><polygon fill="#222222" points="45.45,415.83,49.8834,407.0354,45.6934,410.8359,41.8929,406.6459,45.45,415.83" style="stroke:#222222;stroke-width:1.0;"/><text fill="#000000" font-family="sans-serif" font-size="13" lengthAdjust="spacing" textLength="50" x="78" y="299.0283">made for</text><text fill="#000000" font-family="sans-serif" font-size="13" lengthAdjust="spacing" textLength="7" x="37.7447" y="404.8072">1</text></g><!--link Appointment to OperationRequest--><g id="link_Appointment_OperationRequest"><path codeLine="27" d="M194.85,60.19 C184.85,76.98 172.37,99.68 164,121 C153.64,147.4 147.3496,173.2011 142.9196,194.9111 " fill="none" id="Appointment-to-OperationRequest" style="stroke:#222222;stroke-width:1.0;"/><polygon fill="#222222" points="141.72,200.79,147.4386,192.7714,142.7197,195.891,139.6002,191.172,141.72,200.79" style="stroke:#222222;stroke-width:1.0;"/><text fill="#000000" font-family="sans-serif" font-size="13" lengthAdjust="spacing" textLength="76" x="165" y="136.0283">scheduling of</text><text fill="#000000" font-family="sans-serif" font-size="13" lengthAdjust="spacing" textLength="7" x="135.0021" y="189.758">1</text></g><!--link OperationRequest to OperationType--><g id="link_OperationRequest_OperationType"><path codeLine="28" d="M178.57,254.14 C189.42,262.52 200.24,272.63 208,284 C254.82,352.57 271.108,446.3036 276.748,492.8336 " fill="none" id="OperationRequest-to-OperationType" style="stroke:#222222;stroke-width:1.0;"/><polygon fill="#222222" points="277.47,498.79,280.358,489.3741,276.8683,493.8263,272.4161,490.3367,277.47,498.79" style="stroke:#222222;stroke-width:1.0;"/><text fill="#000000" font-family="sans-serif" font-size="13" lengthAdjust="spacing" textLength="59" x="255" y="365.0283">defined by</text><text fill="#000000" font-family="sans-serif" font-size="13" lengthAdjust="spacing" textLength="7" x="269.0756" y="487.758">1</text></g><!--reverse link OperationType to OperationTypeRecord--><g id="link_OperationType_OperationTypeRecord"><path codeLine="29" d="M282.9205,558.1547 C285.0205,580.9447 287.53,608.09 289.63,630.87 " fill="none" id="OperationType-backto-OperationTypeRecord" style="stroke:#222222;stroke-width:1.0;"/><polygon fill="#222222" points="282.37,552.18,279.2127,561.5091,282.8288,557.1589,287.1789,560.775,282.37,552.18" style="stroke:#222222;stroke-width:1.0;"/><text fill="#000000" font-family="sans-serif" font-size="13" lengthAdjust="spacing" textLength="47" x="287" y="597.0283">versions</text><text fill="#000000" font-family="sans-serif" font-size="13" lengthAdjust="spacing" textLength="7" x="275.1369" y="573.5373">1</text></g><!--link Appointment to Room--><g id="link_Appointment_Room"><path codeLine="30" d="M221.62,60.16 C228.67,77.32 238.05,100.45 246,121 C256.5,148.13 265.944,173.7796 273.714,195.1996 " fill="none" id="Appointment-to-Room" style="stroke:#222222;stroke-width:1.0;"/><polygon fill="#222222" points="275.76,200.84,276.4512,191.0154,274.055,196.1397,268.9307,193.7435,275.76,200.84" style="stroke:#222222;stroke-width:1.0;"/><text fill="#000000" font-family="sans-serif" font-size="13" lengthAdjust="spacing" textLength="90" x="254" y="136.0283">associated with</text><text fill="#000000" font-family="sans-serif" font-size="13" lengthAdjust="spacing" textLength="7" x="265.8139" y="189.8195">1</text></g><!--SRC=[XLFBRi8m4BpxArRq74HxZ28asbvwQXNQ3p3E1bOaNjTsYg3glzVaKGWOrQTuPsPtCvEuBMaZhQn1LTAvXVUMLet75yLwIGU4cTXGWO2ryNkG0-o46miVfTgkBJUwUEAABQoGrdX6MbZBkmwwUsYF40Arfz3rmw45oBBkEfz__mp8qikoZ29lqbDuZCkUMVamA0OjZ67IlZvgO_YhGHjQiyxniq7t3-bzR_2C0JSeEIgsHPoOCzVnTpUeI5PqQDjSYCDfNSkInYG9JEuddLVZwcmw3K1lbUXTIP9aVX902kH0YkvomiR3Kt130HsG5bSs3S9-I0gs1rRxs-GXn1Hg6Rwnagqup-Tlcwi6OH-rmQAfIA-1ozY4IsaRLGe5bgIn6AtLGaTo5aoB1PV25reNQYw-NvjX2k4tu62I3-rtv3V7a7u1]--></g></svg>