<svg xmlns="http://www.w3.org/2000/svg" xmlns:xlink="http://www.w3.org/1999/xlink" contentStyleType="text/css" height="366px" preserveAspectRatio="none" style="width:370px;height:366px;background:#FFFFFF;" version="1.1" viewBox="0 0 370 366" width="370px" zoomAndPan="magnify"><title>US 6.1.2 Process View (Level 2)</title><defs/><g><text fill="#000000" font-family="sans-serif" font-size="14" font-weight="bold" lengthAdjust="spacing" textLength="249.3613" x="59.4187" y="27.9951">US 6.1.2 Process View (Level 2)</text><rect fill="#FFFFFF" height="138.7969" style="stroke:#181818;stroke-width:1.0;" width="10" x="18.9551" y="128.5938"/><rect fill="#FFFFFF" height="117.6641" style="stroke:#181818;stroke-width:1.0;" width="10" x="156.207" y="149.7266"/><rect fill="#FFFFFF" height="29.1328" style="stroke:#181818;stroke-width:1.0;" width="10" x="297.8599" y="209.125"/><line style="stroke:#181818;stroke-width:0.5;stroke-dasharray:5.0,5.0;" x1="23" x2="23" y1="118.5938" y2="285.3906"/><line style="stroke:#181818;stroke-width:0.5;stroke-dasharray:5.0,5.0;" x1="160.8682" x2="160.8682" y1="118.5938" y2="285.3906"/><line style="stroke:#181818;stroke-width:0.5;stroke-dasharray:5.0,5.0;" x1="302.521" x2="302.521" y1="118.5938" y2="285.3906"/><text fill="#000000" font-family="sans-serif" font-size="14" lengthAdjust="spacing" textLength="31.9102" x="5" y="115.292">User</text><ellipse cx="23.9551" cy="50.7969" fill="#E2E2F0" rx="8" ry="8" style="stroke:#181818;stroke-width:0.5;"/><path d="M23.9551,58.7969 L23.9551,85.7969 M10.9551,66.7969 L36.9551,66.7969 M23.9551,85.7969 L10.9551,100.7969 M23.9551,85.7969 L36.9551,100.7969 " fill="none" style="stroke:#181818;stroke-width:0.5;"/><text fill="#000000" font-family="sans-serif" font-size="14" lengthAdjust="spacing" textLength="31.9102" x="5" y="297.3857">User</text><ellipse cx="23.9551" cy="309.1875" fill="#E2E2F0" rx="8" ry="8" style="stroke:#181818;stroke-width:0.5;"/><path d="M23.9551,317.1875 L23.9551,344.1875 M10.9551,325.1875 L36.9551,325.1875 M23.9551,344.1875 L10.9551,359.1875 M23.9551,344.1875 L36.9551,359.1875 " fill="none" style="stroke:#181818;stroke-width:0.5;"/><rect fill="#E2E2F0" height="46.5938" rx="2.5" ry="2.5" style="stroke:#181818;stroke-width:0.5;" width="122.6777" x="99.8682" y="71"/><text fill="#000000" font-family="sans-serif" font-size="14" lengthAdjust="spacing" textLength="108.6777" x="106.8682" y="90.9951">&#171;Container C4&#187;</text><text fill="#000000" font-family="sans-serif" font-size="14" lengthAdjust="spacing" textLength="88.7373" x="119.0635" y="107.292">Visualization</text><rect fill="#E2E2F0" height="46.5938" rx="2.5" ry="2.5" style="stroke:#181818;stroke-width:0.5;" width="122.6777" x="99.8682" y="284.3906"/><text fill="#000000" font-family="sans-serif" font-size="14" lengthAdjust="spacing" textLength="108.6777" x="106.8682" y="304.3857">&#171;Container C4&#187;</text><text fill="#000000" font-family="sans-serif" font-size="14" lengthAdjust="spacing" textLength="88.7373" x="119.0635" y="320.6826">Visualization</text><rect fill="#E2E2F0" height="46.5938" rx="2.5" ry="2.5" style="stroke:#181818;stroke-width:0.5;" width="122.6777" x="241.521" y="71"/><text fill="#000000" font-family="sans-serif" font-size="14" lengthAdjust="spacing" textLength="108.6777" x="248.521" y="90.9951">&#171;Container C4&#187;</text><text fill="#000000" font-family="sans-serif" font-size="14" lengthAdjust="spacing" textLength="72.6113" x="268.7793" y="107.292">Backoffice</text><rect fill="#E2E2F0" height="46.5938" rx="2.5" ry="2.5" style="stroke:#181818;stroke-width:0.5;" width="122.6777" x="241.521" y="284.3906"/><text fill="#000000" font-family="sans-serif" font-size="14" lengthAdjust="spacing" textLength="108.6777" x="248.521" y="304.3857">&#171;Container C4&#187;</text><text fill="#000000" font-family="sans-serif" font-size="14" lengthAdjust="spacing" textLength="72.6113" x="268.7793" y="320.6826">Backoffice</text><rect fill="#FFFFFF" height="138.7969" style="stroke:#181818;stroke-width:1.0;" width="10" x="18.9551" y="128.5938"/><rect fill="#FFFFFF" height="117.6641" style="stroke:#181818;stroke-width:1.0;" width="10" x="156.207" y="149.7266"/><rect fill="#FFFFFF" height="29.1328" style="stroke:#181818;stroke-width:1.0;" width="10" x="297.8599" y="209.125"/><polygon fill="#181818" points="144.207,145.7266,154.207,149.7266,144.207,153.7266,148.207,149.7266" style="stroke:#181818;stroke-width:1.0;"/><line style="stroke:#181818;stroke-width:1.0;" x1="28.9551" x2="150.207" y1="149.7266" y2="149.7266"/><text fill="#000000" font-family="sans-serif" font-size="13" font-weight="bold" lengthAdjust="spacing" textLength="9.0454" x="35.9551" y="144.6606">1</text><text fill="#000000" font-family="sans-serif" font-size="13" lengthAdjust="spacing" textLength="75.1245" x="49.0005" y="144.6606">Login Menu</text><polygon fill="#181818" points="285.8599,205.125,295.8599,209.125,285.8599,213.125,289.8599,209.125" style="stroke:#181818;stroke-width:1.0;"/><line style="stroke:#181818;stroke-width:1.0;" x1="166.207" x2="291.8599" y1="209.125" y2="209.125"/><text fill="#000000" font-family="sans-serif" font-size="13" font-weight="bold" lengthAdjust="spacing" textLength="9.0454" x="173.207" y="188.9263">2</text><text fill="#000000" font-family="sans-serif" font-size="13" lengthAdjust="spacing" textLength="95.7734" x="186.2524" y="173.7935">LoginInternal()</text><text fill="#000000" font-family="sans-serif" font-size="13" lengthAdjust="spacing" textLength="4.3799" x="186.2524" y="188.9263">/</text><text fill="#000000" font-family="sans-serif" font-size="13" lengthAdjust="spacing" textLength="99.6074" x="186.2524" y="204.0591">LoginExternal()</text><polygon fill="#181818" points="177.207,234.2578,167.207,238.2578,177.207,242.2578,173.207,238.2578" style="stroke:#181818;stroke-width:1.0;"/><line style="stroke:#181818;stroke-width:1.0;stroke-dasharray:2.0,2.0;" x1="171.207" x2="301.8599" y1="238.2578" y2="238.2578"/><text fill="#000000" font-family="sans-serif" font-size="13" font-weight="bold" lengthAdjust="spacing" textLength="9.0454" x="183.207" y="233.1919">3</text><text fill="#000000" font-family="sans-serif" font-size="13" lengthAdjust="spacing" textLength="46.96" x="196.2524" y="233.1919">token()</text><polygon fill="#181818" points="34.9551,263.3906,24.9551,267.3906,34.9551,271.3906,30.9551,267.3906" style="stroke:#181818;stroke-width:1.0;"/><line style="stroke:#181818;stroke-width:1.0;stroke-dasharray:2.0,2.0;" x1="28.9551" x2="160.207" y1="267.3906" y2="267.3906"/><text fill="#000000" font-family="sans-serif" font-size="13" font-weight="bold" lengthAdjust="spacing" textLength="9.0454" x="40.9551" y="262.3247">4</text><text fill="#000000" font-family="sans-serif" font-size="13" lengthAdjust="spacing" textLength="90.2065" x="54.0005" y="262.3247">&lt;Role&gt; Menu</text><!--SRC=[XOwnJiCm48RtFCKf2-sGH5I8eOeYqOYXeaY8AanPZ7ijLfrpiCy5yVGu3b4hbYxM-VJTz_yt7yozMnP5hmMnxtGkJLSu_FH84hET4WShkYHXnHeXRRPmdz_c2tYnHg9pyARm2sORFA66nJnD4k7PaE_UqOPPih7Gk33tmhAIgWyXa9PbROY58hHGtrLLIy7ZlD3gHx0ob888vlMskNgs4l9ezdibCTwi7kgd6AjEWd5C7Xx8gkY39MpCGH4y8_ap5wEI20Hma4pWcXWj2JsRjrIq57UFtzFkR1Y3ew7Ciad1veWKi1t-0sEd0VmhLRuQZTNOwWAElIx-mzal]--></g></svg>