<?xml version="1.0" encoding="UTF-8" standalone="no"?><svg xmlns="http://www.w3.org/2000/svg" xmlns:xlink="http://www.w3.org/1999/xlink" contentStyleType="text/css" height="2278px" preserveAspectRatio="none" style="width:2833px;height:2278px;background:#FFFFFF;" version="1.1" viewBox="0 0 2833 2278" width="2833px" zoomAndPan="magnify"><defs/><g><text fill="#000000" font-family="sans-serif" font-size="14" font-weight="bold" lengthAdjust="spacing" textLength="335" x="1250.75" y="29.5332">US 6.2.2 - Process View [Level 3 | MDBackoffice]</text><rect fill="#FFFFFF" height="2048.6563" style="stroke:#181818;stroke-width:1.0;" width="10" x="234" y="150.0781"/><rect fill="#FFFFFF" height="1804.7188" style="stroke:#181818;stroke-width:1.0;" width="10" x="669" y="264.5469"/><rect fill="#FFFFFF" height="39.1563" style="stroke:#181818;stroke-width:1.0;" width="10" x="1009" y="303.7031"/><rect fill="#FFFFFF" height="1596.7813" style="stroke:#181818;stroke-width:1.0;" width="10" x="1180" y="426.3281"/><rect fill="#FFFFFF" height="30" style="stroke:#181818;stroke-width:1.0;" width="10" x="1598" y="1809.4844"/><rect fill="#FFFFFF" height="624.1875" style="stroke:#181818;stroke-width:1.0;" width="10" x="1724" y="1069.9844"/><rect fill="#FFFFFF" height="28" style="stroke:#181818;stroke-width:1.0;" width="10" x="1729" y="1613.0156"/><rect fill="#FFFFFF" height="39.1563" style="stroke:#181818;stroke-width:1.0;" width="10" x="2226" y="1109.1406"/><rect fill="#FFFFFF" height="39.1563" style="stroke:#181818;stroke-width:1.0;" width="10" x="2226" y="1187.4531"/><rect fill="#FFFFFF" height="39.1563" style="stroke:#181818;stroke-width:1.0;" width="10" x="2226" y="1265.7656"/><rect fill="#FFFFFF" height="30" style="stroke:#181818;stroke-width:1.0;" width="10" x="2226" y="1457.5469"/><rect fill="#FFFFFF" height="39.1563" style="stroke:#181818;stroke-width:1.0;" width="10" x="2226" y="1526.7031"/><rect fill="#FFFFFF" height="30" style="stroke:#181818;stroke-width:1.0;" width="10" x="2353.5" y="1388.3906"/><rect fill="#FFFFFF" height="39.1563" style="stroke:#181818;stroke-width:1.0;" width="10" x="2499.5" y="465.4844"/><rect fill="#FFFFFF" height="30" style="stroke:#181818;stroke-width:1.0;" width="10" x="2499.5" y="1878.6406"/><rect fill="#FFFFFF" height="30" style="stroke:#181818;stroke-width:1.0;" width="10" x="2645.5" y="588.1094"/><rect fill="#FFFFFF" height="30" style="stroke:#181818;stroke-width:1.0;" width="10" x="2645.5" y="708.5781"/><rect fill="#FFFFFF" height="30" style="stroke:#181818;stroke-width:1.0;" width="10" x="2645.5" y="829.0469"/><rect fill="#FFFFFF" height="30" style="stroke:#181818;stroke-width:1.0;" width="10" x="2645.5" y="949.5156"/><rect fill="#FFFFFF" height="30" style="stroke:#181818;stroke-width:1.0;" width="10" x="2645.5" y="1733.3281"/><rect fill="none" height="1673.25" style="stroke:#000000;stroke-width:1.5;" width="2243.5" x="584" y="357.8594"/><rect fill="none" height="106.4688" style="stroke:#000000;stroke-width:1.5;" width="1606.5" x="1105" y="519.6406"/><rect fill="none" height="106.4688" style="stroke:#000000;stroke-width:1.5;" width="1606.5" x="1105" y="640.1094"/><rect fill="none" height="106.4688" style="stroke:#000000;stroke-width:1.5;" width="1606.5" x="1105" y="760.5781"/><rect fill="none" height="106.4688" style="stroke:#000000;stroke-width:1.5;" width="1606.5" x="1105" y="881.0469"/><rect fill="none" height="769.8125" style="stroke:#000000;stroke-width:1.5;" width="1606.5" x="1105" y="1001.5156"/><rect fill="none" height="336.0938" style="stroke:#000000;stroke-width:1.5;" width="760.5" x="1659" y="1319.9219"/><rect fill="none" height="107.4688" style="stroke:#000000;stroke-width:1.5;" width="301.5" x="11" y="2084.2656"/><line style="stroke:#181818;stroke-width:0.5;stroke-dasharray:5.0,5.0;" x1="238.5" x2="238.5" y1="108.9219" y2="2208.7344"/><line style="stroke:#181818;stroke-width:0.5;stroke-dasharray:5.0,5.0;" x1="486" x2="486" y1="205.7344" y2="2208.7344"/><line style="stroke:#181818;stroke-width:0.5;stroke-dasharray:5.0,5.0;" x1="674" x2="674" y1="108.9219" y2="2208.7344"/><line style="stroke:#181818;stroke-width:0.5;stroke-dasharray:5.0,5.0;" x1="1014" x2="1014" y1="108.9219" y2="2208.7344"/><line style="stroke:#181818;stroke-width:0.5;stroke-dasharray:5.0,5.0;" x1="1185" x2="1185" y1="108.9219" y2="2208.7344"/><line style="stroke:#181818;stroke-width:0.5;stroke-dasharray:5.0,5.0;" x1="1603" x2="1603" y1="108.9219" y2="2208.7344"/><line style="stroke:#181818;stroke-width:0.5;stroke-dasharray:5.0,5.0;" x1="1729" x2="1729" y1="108.9219" y2="2208.7344"/><line style="stroke:#181818;stroke-width:0.5;stroke-dasharray:5.0,5.0;" x1="2230.5" x2="2230.5" y1="108.9219" y2="2208.7344"/><line style="stroke:#181818;stroke-width:0.5;stroke-dasharray:5.0,5.0;" x1="2358.5" x2="2358.5" y1="108.9219" y2="2208.7344"/><line style="stroke:#181818;stroke-width:0.5;stroke-dasharray:5.0,5.0;" x1="2504.5" x2="2504.5" y1="108.9219" y2="2208.7344"/><line style="stroke:#181818;stroke-width:0.5;stroke-dasharray:5.0,5.0;" x1="2650.5" x2="2650.5" y1="108.9219" y2="2208.7344"/><line style="stroke:#181818;stroke-width:0.5;stroke-dasharray:5.0,5.0;" x1="2764.5" x2="2764.5" y1="1964.2969" y2="2208.7344"/><rect fill="#E2E2F0" height="64.3125" rx="2.5" ry="2.5" style="stroke:#181818;stroke-width:0.5;" width="127" x="175.5" y="43.6094"/><text fill="#000000" font-family="sans-serif" font-size="20" font-style="italic" lengthAdjust="spacing" textLength="67" x="205.5" y="71.3711">«route»</text><text fill="#000000" font-family="sans-serif" font-size="20" lengthAdjust="spacing" textLength="113" x="182.5" y="96.5273">PatientRoute</text><rect fill="#E2E2F0" height="64.3125" rx="2.5" ry="2.5" style="stroke:#181818;stroke-width:0.5;" width="127" x="175.5" y="2207.7344"/><text fill="#000000" font-family="sans-serif" font-size="20" font-style="italic" lengthAdjust="spacing" textLength="67" x="205.5" y="2235.4961">«route»</text><text fill="#000000" font-family="sans-serif" font-size="20" lengthAdjust="spacing" textLength="113" x="182.5" y="2260.6523">PatientRoute</text><rect fill="#E2E2F0" height="64.3125" rx="2.5" ry="2.5" style="stroke:#181818;stroke-width:0.5;" width="196" x="388" y="2207.7344"/><text fill="#000000" font-family="sans-serif" font-size="20" font-style="italic" lengthAdjust="spacing" textLength="49" x="461.5" y="2235.4961">«dto»</text><text fill="#000000" font-family="sans-serif" font-size="20" lengthAdjust="spacing" textLength="182" x="395" y="2260.6523">EditPatientProfileDto</text><rect fill="#E2E2F0" height="64.3125" rx="2.5" ry="2.5" style="stroke:#181818;stroke-width:0.5;" width="160" x="594" y="43.6094"/><text fill="#000000" font-family="sans-serif" font-size="20" font-style="italic" lengthAdjust="spacing" textLength="105" x="621.5" y="71.3711">«controller»</text><text fill="#000000" font-family="sans-serif" font-size="20" lengthAdjust="spacing" textLength="146" x="601" y="96.5273">PatientController</text><rect fill="#E2E2F0" height="64.3125" rx="2.5" ry="2.5" style="stroke:#181818;stroke-width:0.5;" width="160" x="594" y="2207.7344"/><text fill="#000000" font-family="sans-serif" font-size="20" font-style="italic" lengthAdjust="spacing" textLength="105" x="621.5" y="2235.4961">«controller»</text><text fill="#000000" font-family="sans-serif" font-size="20" lengthAdjust="spacing" textLength="146" x="601" y="2260.6523">PatientController</text><rect fill="#E2E2F0" height="64.3125" rx="2.5" ry="2.5" style="stroke:#181818;stroke-width:0.5;" width="182" x="923" y="43.6094"/><text fill="#000000" font-family="sans-serif" font-size="20" font-style="italic" lengthAdjust="spacing" textLength="68" x="980" y="71.3711">«utility»</text><text fill="#000000" font-family="sans-serif" font-size="20" lengthAdjust="spacing" textLength="168" x="930" y="96.5273">PrincipalExtensions</text><rect fill="#E2E2F0" height="64.3125" rx="2.5" ry="2.5" style="stroke:#181818;stroke-width:0.5;" width="182" x="923" y="2207.7344"/><text fill="#000000" font-family="sans-serif" font-size="20" font-style="italic" lengthAdjust="spacing" textLength="68" x="980" y="2235.4961">«utility»</text><text fill="#000000" font-family="sans-serif" font-size="20" lengthAdjust="spacing" textLength="168" x="930" y="2260.6523">PrincipalExtensions</text><rect fill="#E2E2F0" height="64.3125" rx="2.5" ry="2.5" style="stroke:#181818;stroke-width:0.5;" width="140" x="1115" y="43.6094"/><text fill="#000000" font-family="sans-serif" font-size="20" font-style="italic" lengthAdjust="spacing" textLength="86" x="1142" y="71.3711">«service»</text><text fill="#000000" font-family="sans-serif" font-size="20" lengthAdjust="spacing" textLength="126" x="1122" y="96.5273">PatientService</text><rect fill="#E2E2F0" height="64.3125" rx="2.5" ry="2.5" style="stroke:#181818;stroke-width:0.5;" width="140" x="1115" y="2207.7344"/><text fill="#000000" font-family="sans-serif" font-size="20" font-style="italic" lengthAdjust="spacing" textLength="86" x="1142" y="2235.4961">«service»</text><text fill="#000000" font-family="sans-serif" font-size="20" lengthAdjust="spacing" textLength="126" x="1122" y="2260.6523">PatientService</text><rect fill="#E2E2F0" height="64.3125" rx="2.5" ry="2.5" style="stroke:#181818;stroke-width:0.5;" width="112" x="1547" y="43.6094"/><text fill="#000000" font-family="sans-serif" font-size="20" font-style="italic" lengthAdjust="spacing" textLength="86" x="1560" y="71.3711">«service»</text><text fill="#000000" font-family="sans-serif" font-size="20" lengthAdjust="spacing" textLength="98" x="1554" y="96.5273">LogService</text><rect fill="#E2E2F0" height="64.3125" rx="2.5" ry="2.5" style="stroke:#181818;stroke-width:0.5;" width="112" x="1547" y="2207.7344"/><text fill="#000000" font-family="sans-serif" font-size="20" font-style="italic" lengthAdjust="spacing" textLength="86" x="1560" y="2235.4961">«service»</text><text fill="#000000" font-family="sans-serif" font-size="20" lengthAdjust="spacing" textLength="98" x="1554" y="2260.6523">LogService</text><rect fill="#E2E2F0" height="64.3125" rx="2.5" ry="2.5" style="stroke:#181818;stroke-width:0.5;" width="120" x="1669" y="43.6094"/><text fill="#000000" font-family="sans-serif" font-size="20" font-style="italic" lengthAdjust="spacing" textLength="86" x="1686" y="71.3711">«service»</text><text fill="#000000" font-family="sans-serif" font-size="20" lengthAdjust="spacing" textLength="106" x="1676" y="96.5273">UserService</text><rect fill="#E2E2F0" height="64.3125" rx="2.5" ry="2.5" style="stroke:#181818;stroke-width:0.5;" width="120" x="1669" y="2207.7344"/><text fill="#000000" font-family="sans-serif" font-size="20" font-style="italic" lengthAdjust="spacing" textLength="86" x="1686" y="2235.4961">«service»</text><text fill="#000000" font-family="sans-serif" font-size="20" lengthAdjust="spacing" textLength="106" x="1676" y="2260.6523">UserService</text><rect fill="#E2E2F0" height="64.3125" rx="2.5" ry="2.5" style="stroke:#181818;stroke-width:0.5;" width="133" x="2164.5" y="43.6094"/><text fill="#000000" font-family="sans-serif" font-size="20" font-style="italic" lengthAdjust="spacing" textLength="86" x="2188" y="71.3711">«service»</text><text fill="#000000" font-family="sans-serif" font-size="20" lengthAdjust="spacing" textLength="119" x="2171.5" y="96.5273">UserManager</text><rect fill="#E2E2F0" height="64.3125" rx="2.5" ry="2.5" style="stroke:#181818;stroke-width:0.5;" width="133" x="2164.5" y="2207.7344"/><text fill="#000000" font-family="sans-serif" font-size="20" font-style="italic" lengthAdjust="spacing" textLength="86" x="2188" y="2235.4961">«service»</text><text fill="#000000" font-family="sans-serif" font-size="20" lengthAdjust="spacing" textLength="119" x="2171.5" y="2260.6523">UserManager</text><rect fill="#E2E2F0" height="64.3125" rx="2.5" ry="2.5" style="stroke:#181818;stroke-width:0.5;" width="102" x="2307.5" y="43.6094"/><text fill="#000000" font-family="sans-serif" font-size="20" font-style="italic" lengthAdjust="spacing" textLength="88" x="2314.5" y="71.3711">«domain»</text><text fill="#000000" font-family="sans-serif" font-size="20" lengthAdjust="spacing" textLength="41" x="2338" y="96.5273">User</text><rect fill="#E2E2F0" height="64.3125" rx="2.5" ry="2.5" style="stroke:#181818;stroke-width:0.5;" width="102" x="2307.5" y="2207.7344"/><text fill="#000000" font-family="sans-serif" font-size="20" font-style="italic" lengthAdjust="spacing" textLength="88" x="2314.5" y="2235.4961">«domain»</text><text fill="#000000" font-family="sans-serif" font-size="20" lengthAdjust="spacing" textLength="41" x="2338" y="2260.6523">User</text><rect fill="#E2E2F0" height="64.3125" rx="2.5" ry="2.5" style="stroke:#181818;stroke-width:0.5;" width="170" x="2419.5" y="43.6094"/><text fill="#000000" font-family="sans-serif" font-size="20" font-style="italic" lengthAdjust="spacing" textLength="110" x="2449.5" y="71.3711">«repository»</text><text fill="#000000" font-family="sans-serif" font-size="20" lengthAdjust="spacing" textLength="156" x="2426.5" y="96.5273">PatientRepository</text><rect fill="#E2E2F0" height="64.3125" rx="2.5" ry="2.5" style="stroke:#181818;stroke-width:0.5;" width="170" x="2419.5" y="2207.7344"/><text fill="#000000" font-family="sans-serif" font-size="20" font-style="italic" lengthAdjust="spacing" textLength="110" x="2449.5" y="2235.4961">«repository»</text><text fill="#000000" font-family="sans-serif" font-size="20" lengthAdjust="spacing" textLength="156" x="2426.5" y="2260.6523">PatientRepository</text><rect fill="#E2E2F0" height="64.3125" rx="2.5" ry="2.5" style="stroke:#181818;stroke-width:0.5;" width="102" x="2599.5" y="43.6094"/><text fill="#000000" font-family="sans-serif" font-size="20" font-style="italic" lengthAdjust="spacing" textLength="88" x="2606.5" y="71.3711">«domain»</text><text fill="#000000" font-family="sans-serif" font-size="20" lengthAdjust="spacing" textLength="61" x="2620" y="96.5273">Patient</text><rect fill="#E2E2F0" height="64.3125" rx="2.5" ry="2.5" style="stroke:#181818;stroke-width:0.5;" width="102" x="2599.5" y="2207.7344"/><text fill="#000000" font-family="sans-serif" font-size="20" font-style="italic" lengthAdjust="spacing" textLength="88" x="2606.5" y="2235.4961">«domain»</text><text fill="#000000" font-family="sans-serif" font-size="20" lengthAdjust="spacing" textLength="61" x="2620" y="2260.6523">Patient</text><rect fill="#E2E2F0" height="64.3125" rx="2.5" ry="2.5" style="stroke:#181818;stroke-width:0.5;" width="106" x="2711.5" y="2207.7344"/><text fill="#000000" font-family="sans-serif" font-size="20" font-style="italic" lengthAdjust="spacing" textLength="49" x="2740" y="2235.4961">«dto»</text><text fill="#000000" font-family="sans-serif" font-size="20" lengthAdjust="spacing" textLength="92" x="2718.5" y="2260.6523">PatientDto</text><rect fill="#FFFFFF" height="2048.6563" style="stroke:#181818;stroke-width:1.0;" width="10" x="234" y="150.0781"/><rect fill="#FFFFFF" height="1804.7188" style="stroke:#181818;stroke-width:1.0;" width="10" x="669" y="264.5469"/><rect fill="#FFFFFF" height="39.1563" style="stroke:#181818;stroke-width:1.0;" width="10" x="1009" y="303.7031"/><rect fill="#FFFFFF" height="1596.7813" style="stroke:#181818;stroke-width:1.0;" width="10" x="1180" y="426.3281"/><rect fill="#FFFFFF" height="30" style="stroke:#181818;stroke-width:1.0;" width="10" x="1598" y="1809.4844"/><rect fill="#FFFFFF" height="624.1875" style="stroke:#181818;stroke-width:1.0;" width="10" x="1724" y="1069.9844"/><rect fill="#FFFFFF" height="28" style="stroke:#181818;stroke-width:1.0;" width="10" x="1729" y="1613.0156"/><rect fill="#FFFFFF" height="39.1563" style="stroke:#181818;stroke-width:1.0;" width="10" x="2226" y="1109.1406"/><rect fill="#FFFFFF" height="39.1563" style="stroke:#181818;stroke-width:1.0;" width="10" x="2226" y="1187.4531"/><rect fill="#FFFFFF" height="39.1563" style="stroke:#181818;stroke-width:1.0;" width="10" x="2226" y="1265.7656"/><rect fill="#FFFFFF" height="30" style="stroke:#181818;stroke-width:1.0;" width="10" x="2226" y="1457.5469"/><rect fill="#FFFFFF" height="39.1563" style="stroke:#181818;stroke-width:1.0;" width="10" x="2226" y="1526.7031"/><rect fill="#FFFFFF" height="30" style="stroke:#181818;stroke-width:1.0;" width="10" x="2353.5" y="1388.3906"/><rect fill="#FFFFFF" height="39.1563" style="stroke:#181818;stroke-width:1.0;" width="10" x="2499.5" y="465.4844"/><rect fill="#FFFFFF" height="30" style="stroke:#181818;stroke-width:1.0;" width="10" x="2499.5" y="1878.6406"/><rect fill="#FFFFFF" height="30" style="stroke:#181818;stroke-width:1.0;" width="10" x="2645.5" y="588.1094"/><rect fill="#FFFFFF" height="30" style="stroke:#181818;stroke-width:1.0;" width="10" x="2645.5" y="708.5781"/><rect fill="#FFFFFF" height="30" style="stroke:#181818;stroke-width:1.0;" width="10" x="2645.5" y="829.0469"/><rect fill="#FFFFFF" height="30" style="stroke:#181818;stroke-width:1.0;" width="10" x="2645.5" y="949.5156"/><rect fill="#FFFFFF" height="30" style="stroke:#181818;stroke-width:1.0;" width="10" x="2645.5" y="1733.3281"/><ellipse cx="7.5" cy="149.3281" fill="none" rx="4" ry="4" style="stroke:#181818;stroke-width:1.5;"/><polygon fill="#181818" points="222,146.0781,232,150.0781,222,154.0781,226,150.0781" style="stroke:#181818;stroke-width:1.0;"/><line style="stroke:#181818;stroke-width:1.0;" x1="12" x2="228" y1="150.0781" y2="150.0781"/><text fill="#000000" font-family="sans-serif" font-size="20" font-weight="bold" lengthAdjust="spacing" textLength="11" x="15" y="143.6836">1</text><text fill="#000000" font-family="sans-serif" font-size="20" lengthAdjust="spacing" textLength="192" x="30" y="143.6836">PUT(json) /api/Patient</text><polygon fill="#181818" points="376,185.2344,386,189.2344,376,193.2344,380,189.2344" style="stroke:#181818;stroke-width:1.0;"/><line style="stroke:#181818;stroke-width:1.0;" x1="244" x2="382" y1="189.2344" y2="189.2344"/><text fill="#000000" font-family="sans-serif" font-size="20" font-weight="bold" lengthAdjust="spacing" textLength="11" x="251" y="182.8398">2</text><text fill="#000000" font-family="sans-serif" font-size="20" lengthAdjust="spacing" textLength="105" x="266" y="182.8398">create(json)</text><rect fill="#E2E2F0" height="64.3125" rx="2.5" ry="2.5" style="stroke:#181818;stroke-width:0.5;" width="196" x="388" y="158.0781"/><text fill="#000000" font-family="sans-serif" font-size="20" font-style="italic" lengthAdjust="spacing" textLength="49" x="461.5" y="185.8398">«dto»</text><text fill="#000000" font-family="sans-serif" font-size="20" lengthAdjust="spacing" textLength="182" x="395" y="210.9961">EditPatientProfileDto</text><polygon fill="#181818" points="657,260.5469,667,264.5469,657,268.5469,661,264.5469" style="stroke:#181818;stroke-width:1.0;"/><line style="stroke:#181818;stroke-width:1.0;" x1="244" x2="663" y1="264.5469" y2="264.5469"/><text fill="#000000" font-family="sans-serif" font-size="20" font-weight="bold" lengthAdjust="spacing" textLength="11" x="251" y="258.1523">3</text><text fill="#000000" font-family="sans-serif" font-size="20" lengthAdjust="spacing" textLength="345" x="266" y="258.1523">EditPatientProfile(editPatientProfileDto)</text><polygon fill="#181818" points="997,299.7031,1007,303.7031,997,307.7031,1001,303.7031" style="stroke:#181818;stroke-width:1.0;"/><line style="stroke:#181818;stroke-width:1.0;" x1="679" x2="1003" y1="303.7031" y2="303.7031"/><text fill="#000000" font-family="sans-serif" font-size="20" font-weight="bold" lengthAdjust="spacing" textLength="11" x="686" y="297.3086">4</text><text fill="#000000" font-family="sans-serif" font-size="20" lengthAdjust="spacing" textLength="296" x="701" y="297.3086">FindFirstValue(ClaimTypes.Email)</text><polygon fill="#181818" points="690,338.8594,680,342.8594,690,346.8594,686,342.8594" style="stroke:#181818;stroke-width:1.0;"/><line style="stroke:#181818;stroke-width:1.0;stroke-dasharray:2.0,2.0;" x1="684" x2="1013" y1="342.8594" y2="342.8594"/><text fill="#000000" font-family="sans-serif" font-size="20" font-weight="bold" lengthAdjust="spacing" textLength="11" x="696" y="336.4648">5</text><text fill="#000000" font-family="sans-serif" font-size="20" lengthAdjust="spacing" textLength="169" x="711" y="336.4648">emailLoggedInUser</text><path d="M584,357.8594 L652,357.8594 L652,375.0156 L642,385.0156 L584,385.0156 L584,357.8594 " fill="#EEEEEE" style="stroke:#000000;stroke-width:1.5;"/><rect fill="none" height="1673.25" style="stroke:#000000;stroke-width:1.5;" width="2243.5" x="584" y="357.8594"/><text fill="#000000" font-family="sans-serif" font-size="20" font-weight="bold" lengthAdjust="spacing" textLength="23" x="599" y="379.6211">alt</text><text fill="#000000" font-family="sans-serif" font-size="20" font-weight="bold" lengthAdjust="spacing" textLength="128" x="667" y="380.6211">[email != null]</text><polygon fill="#181818" points="1168,422.3281,1178,426.3281,1168,430.3281,1172,426.3281" style="stroke:#181818;stroke-width:1.0;"/><line style="stroke:#181818;stroke-width:1.0;" x1="679" x2="1174" y1="426.3281" y2="426.3281"/><text fill="#000000" font-family="sans-serif" font-size="20" font-weight="bold" lengthAdjust="spacing" textLength="11" x="686" y="419.9336">6</text><text fill="#000000" font-family="sans-serif" font-size="20" lengthAdjust="spacing" textLength="459" x="701" y="419.9336">EditProfile(emailLoggedInUser,editPatientProfileDto)</text><polygon fill="#181818" points="2487.5,461.4844,2497.5,465.4844,2487.5,469.4844,2491.5,465.4844" style="stroke:#181818;stroke-width:1.0;"/><line style="stroke:#181818;stroke-width:1.0;" x1="1190" x2="2493.5" y1="465.4844" y2="465.4844"/><text fill="#000000" font-family="sans-serif" font-size="20" font-weight="bold" lengthAdjust="spacing" textLength="11" x="1197" y="459.0898">7</text><text fill="#000000" font-family="sans-serif" font-size="20" lengthAdjust="spacing" textLength="286" x="1212" y="459.0898">FindPatientWithUserEmail(email)</text><polygon fill="#181818" points="1201,500.6406,1191,504.6406,1201,508.6406,1197,504.6406" style="stroke:#181818;stroke-width:1.0;"/><line style="stroke:#181818;stroke-width:1.0;" x1="1195" x2="2503.5" y1="504.6406" y2="504.6406"/><text fill="#000000" font-family="sans-serif" font-size="20" font-weight="bold" lengthAdjust="spacing" textLength="11" x="1207" y="498.2461">8</text><text fill="#000000" font-family="sans-serif" font-size="20" lengthAdjust="spacing" textLength="59" x="1222" y="498.2461">patient</text><path d="M1105,519.6406 L1173,519.6406 L1173,536.7969 L1163,546.7969 L1105,546.7969 L1105,519.6406 " fill="#EEEEEE" style="stroke:#000000;stroke-width:1.5;"/><rect fill="none" height="106.4688" style="stroke:#000000;stroke-width:1.5;" width="1606.5" x="1105" y="519.6406"/><text fill="#000000" font-family="sans-serif" font-size="20" font-weight="bold" lengthAdjust="spacing" textLength="23" x="1120" y="541.4023">alt</text><text fill="#000000" font-family="sans-serif" font-size="20" font-weight="bold" lengthAdjust="spacing" textLength="251" x="1188" y="542.4023">[newPhoneNumber != null]</text><polygon fill="#181818" points="2633.5,584.1094,2643.5,588.1094,2633.5,592.1094,2637.5,588.1094" style="stroke:#181818;stroke-width:1.0;"/><line style="stroke:#181818;stroke-width:1.0;" x1="1190" x2="2639.5" y1="588.1094" y2="588.1094"/><text fill="#000000" font-family="sans-serif" font-size="20" font-weight="bold" lengthAdjust="spacing" textLength="11" x="1197" y="581.7148">9</text><text fill="#000000" font-family="sans-serif" font-size="20" lengthAdjust="spacing" textLength="295" x="1212" y="581.7148">ChangePhone(newPhoneNumber)</text><path d="M1105,640.1094 L1173,640.1094 L1173,657.2656 L1163,667.2656 L1105,667.2656 L1105,640.1094 " fill="#EEEEEE" style="stroke:#000000;stroke-width:1.5;"/><rect fill="none" height="106.4688" style="stroke:#000000;stroke-width:1.5;" width="1606.5" x="1105" y="640.1094"/><text fill="#000000" font-family="sans-serif" font-size="20" font-weight="bold" lengthAdjust="spacing" textLength="23" x="1120" y="661.8711">alt</text><text fill="#000000" font-family="sans-serif" font-size="20" font-weight="bold" lengthAdjust="spacing" textLength="195" x="1188" y="662.8711">[newAddress != null]</text><polygon fill="#181818" points="2633.5,704.5781,2643.5,708.5781,2633.5,712.5781,2637.5,708.5781" style="stroke:#181818;stroke-width:1.0;"/><line style="stroke:#181818;stroke-width:1.0;" x1="1190" x2="2639.5" y1="708.5781" y2="708.5781"/><text fill="#000000" font-family="sans-serif" font-size="20" font-weight="bold" lengthAdjust="spacing" textLength="22" x="1197" y="702.1836">10</text><text fill="#000000" font-family="sans-serif" font-size="20" lengthAdjust="spacing" textLength="263" x="1223" y="702.1836">ChangeAddress(newAddress)</text><path d="M1105,760.5781 L1173,760.5781 L1173,777.7344 L1163,787.7344 L1105,787.7344 L1105,760.5781 " fill="#EEEEEE" style="stroke:#000000;stroke-width:1.5;"/><rect fill="none" height="106.4688" style="stroke:#000000;stroke-width:1.5;" width="1606.5" x="1105" y="760.5781"/><text fill="#000000" font-family="sans-serif" font-size="20" font-weight="bold" lengthAdjust="spacing" textLength="23" x="1120" y="782.3398">alt</text><text fill="#000000" font-family="sans-serif" font-size="20" font-weight="bold" lengthAdjust="spacing" textLength="170" x="1188" y="783.3398">[newName != null]</text><polygon fill="#181818" points="2633.5,825.0469,2643.5,829.0469,2633.5,833.0469,2637.5,829.0469" style="stroke:#181818;stroke-width:1.0;"/><line style="stroke:#181818;stroke-width:1.0;" x1="1190" x2="2639.5" y1="829.0469" y2="829.0469"/><text fill="#000000" font-family="sans-serif" font-size="20" font-weight="bold" lengthAdjust="spacing" textLength="22" x="1197" y="822.6523">11</text><text fill="#000000" font-family="sans-serif" font-size="20" lengthAdjust="spacing" textLength="219" x="1223" y="822.6523">ChangeName(newName)</text><path d="M1105,881.0469 L1173,881.0469 L1173,898.2031 L1163,908.2031 L1105,908.2031 L1105,881.0469 " fill="#EEEEEE" style="stroke:#000000;stroke-width:1.5;"/><rect fill="none" height="106.4688" style="stroke:#000000;stroke-width:1.5;" width="1606.5" x="1105" y="881.0469"/><text fill="#000000" font-family="sans-serif" font-size="20" font-weight="bold" lengthAdjust="spacing" textLength="23" x="1120" y="902.8086">alt</text><text fill="#000000" font-family="sans-serif" font-size="20" font-weight="bold" lengthAdjust="spacing" textLength="297" x="1188" y="903.8086">[newEmergencyContact != null]</text><polygon fill="#181818" points="2633.5,945.5156,2643.5,949.5156,2633.5,953.5156,2637.5,949.5156" style="stroke:#181818;stroke-width:1.0;"/><line style="stroke:#181818;stroke-width:1.0;" x1="1190" x2="2639.5" y1="949.5156" y2="949.5156"/><text fill="#000000" font-family="sans-serif" font-size="20" font-weight="bold" lengthAdjust="spacing" textLength="22" x="1197" y="943.1211">12</text><text fill="#000000" font-family="sans-serif" font-size="20" lengthAdjust="spacing" textLength="451" x="1223" y="943.1211">ChangeEmergencyContact(newEmergencyContact)</text><path d="M1105,1001.5156 L1173,1001.5156 L1173,1018.6719 L1163,1028.6719 L1105,1028.6719 L1105,1001.5156 " fill="#EEEEEE" style="stroke:#000000;stroke-width:1.5;"/><rect fill="none" height="769.8125" style="stroke:#000000;stroke-width:1.5;" width="1606.5" x="1105" y="1001.5156"/><text fill="#000000" font-family="sans-serif" font-size="20" font-weight="bold" lengthAdjust="spacing" textLength="23" x="1120" y="1023.2773">alt</text><text fill="#000000" font-family="sans-serif" font-size="20" font-weight="bold" lengthAdjust="spacing" textLength="168" x="1188" y="1024.2773">[newEmail != null]</text><polygon fill="#181818" points="1712,1065.9844,1722,1069.9844,1712,1073.9844,1716,1069.9844" style="stroke:#181818;stroke-width:1.0;"/><line style="stroke:#181818;stroke-width:1.0;" x1="1190" x2="1718" y1="1069.9844" y2="1069.9844"/><text fill="#000000" font-family="sans-serif" font-size="20" font-weight="bold" lengthAdjust="spacing" textLength="22" x="1197" y="1063.5898">13</text><text fill="#000000" font-family="sans-serif" font-size="20" lengthAdjust="spacing" textLength="309" x="1223" y="1063.5898">EditUserProfile(oldEmail,newEmail)</text><polygon fill="#181818" points="2214,1105.1406,2224,1109.1406,2214,1113.1406,2218,1109.1406" style="stroke:#181818;stroke-width:1.0;"/><line style="stroke:#181818;stroke-width:1.0;" x1="1734" x2="2220" y1="1109.1406" y2="1109.1406"/><text fill="#000000" font-family="sans-serif" font-size="20" font-weight="bold" lengthAdjust="spacing" textLength="22" x="1741" y="1102.7461">14</text><text fill="#000000" font-family="sans-serif" font-size="20" lengthAdjust="spacing" textLength="249" x="1767" y="1102.7461">FindByEmailAsync(oldEmail)</text><polygon fill="#181818" points="1745,1144.2969,1735,1148.2969,1745,1152.2969,1741,1148.2969" style="stroke:#181818;stroke-width:1.0;"/><line style="stroke:#181818;stroke-width:1.0;stroke-dasharray:2.0,2.0;" x1="1739" x2="2230" y1="1148.2969" y2="1148.2969"/><text fill="#000000" font-family="sans-serif" font-size="20" font-weight="bold" lengthAdjust="spacing" textLength="22" x="1751" y="1141.9023">15</text><text fill="#000000" font-family="sans-serif" font-size="20" lengthAdjust="spacing" textLength="38" x="1777" y="1141.9023">user</text><polygon fill="#181818" points="2214,1183.4531,2224,1187.4531,2214,1191.4531,2218,1187.4531" style="stroke:#181818;stroke-width:1.0;"/><line style="stroke:#181818;stroke-width:1.0;" x1="1734" x2="2220" y1="1187.4531" y2="1187.4531"/><text fill="#000000" font-family="sans-serif" font-size="20" font-weight="bold" lengthAdjust="spacing" textLength="22" x="1741" y="1181.0586">16</text><text fill="#000000" font-family="sans-serif" font-size="20" lengthAdjust="spacing" textLength="447" x="1767" y="1181.0586">GenerateChangeEmailTokenAsync(user,newEmail)</text><polygon fill="#181818" points="1745,1222.6094,1735,1226.6094,1745,1230.6094,1741,1226.6094" style="stroke:#181818;stroke-width:1.0;"/><line style="stroke:#181818;stroke-width:1.0;stroke-dasharray:2.0,2.0;" x1="1739" x2="2230" y1="1226.6094" y2="1226.6094"/><text fill="#000000" font-family="sans-serif" font-size="20" font-weight="bold" lengthAdjust="spacing" textLength="22" x="1751" y="1220.2148">17</text><text fill="#000000" font-family="sans-serif" font-size="20" lengthAdjust="spacing" textLength="48" x="1777" y="1220.2148">token</text><polygon fill="#181818" points="2214,1261.7656,2224,1265.7656,2214,1269.7656,2218,1265.7656" style="stroke:#181818;stroke-width:1.0;"/><line style="stroke:#181818;stroke-width:1.0;" x1="1734" x2="2220" y1="1265.7656" y2="1265.7656"/><text fill="#000000" font-family="sans-serif" font-size="20" font-weight="bold" lengthAdjust="spacing" textLength="22" x="1741" y="1259.3711">18</text><text fill="#000000" font-family="sans-serif" font-size="20" lengthAdjust="spacing" textLength="376" x="1767" y="1259.3711">ChangeEmailAsync(user, newEmail, token)</text><polygon fill="#181818" points="1745,1300.9219,1735,1304.9219,1745,1308.9219,1741,1304.9219" style="stroke:#181818;stroke-width:1.0;"/><line style="stroke:#181818;stroke-width:1.0;stroke-dasharray:2.0,2.0;" x1="1739" x2="2230" y1="1304.9219" y2="1304.9219"/><text fill="#000000" font-family="sans-serif" font-size="20" font-weight="bold" lengthAdjust="spacing" textLength="22" x="1751" y="1298.5273">19</text><text fill="#000000" font-family="sans-serif" font-size="20" lengthAdjust="spacing" textLength="48" x="1777" y="1298.5273">result</text><path d="M1659,1319.9219 L1727,1319.9219 L1727,1337.0781 L1717,1347.0781 L1659,1347.0781 L1659,1319.9219 " fill="#EEEEEE" style="stroke:#000000;stroke-width:1.5;"/><rect fill="none" height="336.0938" style="stroke:#000000;stroke-width:1.5;" width="760.5" x="1659" y="1319.9219"/><text fill="#000000" font-family="sans-serif" font-size="20" font-weight="bold" lengthAdjust="spacing" textLength="23" x="1674" y="1341.6836">alt</text><text fill="#000000" font-family="sans-serif" font-size="20" font-weight="bold" lengthAdjust="spacing" textLength="142" x="1742" y="1342.6836">[result == true]</text><polygon fill="#181818" points="2341.5,1384.3906,2351.5,1388.3906,2341.5,1392.3906,2345.5,1388.3906" style="stroke:#181818;stroke-width:1.0;"/><line style="stroke:#181818;stroke-width:1.0;" x1="1734" x2="2347.5" y1="1388.3906" y2="1388.3906"/><text fill="#000000" font-family="sans-serif" font-size="20" font-weight="bold" lengthAdjust="spacing" textLength="22" x="1741" y="1381.9961">20</text><text fill="#000000" font-family="sans-serif" font-size="20" lengthAdjust="spacing" textLength="175" x="1767" y="1381.9961">changeStatus(false)</text><polygon fill="#181818" points="2214,1453.5469,2224,1457.5469,2214,1461.5469,2218,1457.5469" style="stroke:#181818;stroke-width:1.0;"/><line style="stroke:#181818;stroke-width:1.0;" x1="1734" x2="2220" y1="1457.5469" y2="1457.5469"/><text fill="#000000" font-family="sans-serif" font-size="20" font-weight="bold" lengthAdjust="spacing" textLength="22" x="1741" y="1451.1523">21</text><text fill="#000000" font-family="sans-serif" font-size="20" lengthAdjust="spacing" textLength="168" x="1767" y="1451.1523">UpdateAsync(user)</text><polygon fill="#181818" points="2214,1522.7031,2224,1526.7031,2214,1530.7031,2218,1526.7031" style="stroke:#181818;stroke-width:1.0;"/><line style="stroke:#181818;stroke-width:1.0;" x1="1734" x2="2220" y1="1526.7031" y2="1526.7031"/><text fill="#000000" font-family="sans-serif" font-size="20" font-weight="bold" lengthAdjust="spacing" textLength="22" x="1741" y="1520.3086">22</text><text fill="#000000" font-family="sans-serif" font-size="20" lengthAdjust="spacing" textLength="400" x="1767" y="1520.3086">GenerateEmailConfirmationTokenAsync(user)</text><polygon fill="#181818" points="1745,1561.8594,1735,1565.8594,1745,1569.8594,1741,1565.8594" style="stroke:#181818;stroke-width:1.0;"/><line style="stroke:#181818;stroke-width:1.0;stroke-dasharray:2.0,2.0;" x1="1739" x2="2230" y1="1565.8594" y2="1565.8594"/><text fill="#000000" font-family="sans-serif" font-size="20" font-weight="bold" lengthAdjust="spacing" textLength="22" x="1751" y="1559.4648">23</text><text fill="#000000" font-family="sans-serif" font-size="20" lengthAdjust="spacing" textLength="48" x="1777" y="1559.4648">token</text><line style="stroke:#181818;stroke-width:1.0;" x1="1739" x2="1781" y1="1605.0156" y2="1605.0156"/><line style="stroke:#181818;stroke-width:1.0;" x1="1781" x2="1781" y1="1605.0156" y2="1618.0156"/><line style="stroke:#181818;stroke-width:1.0;" x1="1740" x2="1781" y1="1618.0156" y2="1618.0156"/><polygon fill="#181818" points="1750,1614.0156,1740,1618.0156,1750,1622.0156,1746,1618.0156" style="stroke:#181818;stroke-width:1.0;"/><text fill="#000000" font-family="sans-serif" font-size="20" font-weight="bold" lengthAdjust="spacing" textLength="22" x="1746" y="1598.6211">24</text><text fill="#000000" font-family="sans-serif" font-size="20" lengthAdjust="spacing" textLength="389" x="1772" y="1598.6211">SendConfirmationEmail(user,oldEmail,token)</text><polygon fill="#181818" points="1201,1690.1719,1191,1694.1719,1201,1698.1719,1197,1694.1719" style="stroke:#181818;stroke-width:1.0;"/><line style="stroke:#181818;stroke-width:1.0;stroke-dasharray:2.0,2.0;" x1="1195" x2="1728" y1="1694.1719" y2="1694.1719"/><text fill="#000000" font-family="sans-serif" font-size="20" font-weight="bold" lengthAdjust="spacing" textLength="22" x="1207" y="1687.7773">25</text><text fill="#000000" font-family="sans-serif" font-size="20" lengthAdjust="spacing" textLength="6" x="1233" y="1687.7773"> </text><polygon fill="#181818" points="2633.5,1729.3281,2643.5,1733.3281,2633.5,1737.3281,2637.5,1733.3281" style="stroke:#181818;stroke-width:1.0;"/><line style="stroke:#181818;stroke-width:1.0;" x1="1190" x2="2639.5" y1="1733.3281" y2="1733.3281"/><text fill="#000000" font-family="sans-serif" font-size="20" font-weight="bold" lengthAdjust="spacing" textLength="22" x="1197" y="1726.9336">26</text><text fill="#000000" font-family="sans-serif" font-size="20" lengthAdjust="spacing" textLength="213" x="1223" y="1726.9336">ChangeEmail(newEmail)</text><polygon fill="#181818" points="1586,1805.4844,1596,1809.4844,1586,1813.4844,1590,1809.4844" style="stroke:#181818;stroke-width:1.0;"/><line style="stroke:#181818;stroke-width:1.0;" x1="1190" x2="1592" y1="1809.4844" y2="1809.4844"/><text fill="#000000" font-family="sans-serif" font-size="20" font-weight="bold" lengthAdjust="spacing" textLength="22" x="1197" y="1803.0898">27</text><text fill="#000000" font-family="sans-serif" font-size="20" lengthAdjust="spacing" textLength="363" x="1223" y="1803.0898">CreateEditLog(patientId,patientClass,log)</text><polygon fill="#181818" points="2487.5,1874.6406,2497.5,1878.6406,2487.5,1882.6406,2491.5,1878.6406" style="stroke:#181818;stroke-width:1.0;"/><line style="stroke:#181818;stroke-width:1.0;" x1="1190" x2="2493.5" y1="1878.6406" y2="1878.6406"/><text fill="#000000" font-family="sans-serif" font-size="20" font-weight="bold" lengthAdjust="spacing" textLength="22" x="1197" y="1872.2461">28</text><text fill="#000000" font-family="sans-serif" font-size="20" lengthAdjust="spacing" textLength="55" x="1223" y="1872.2461">save()</text><polygon fill="#181818" points="2699.5,1943.7969,2709.5,1947.7969,2699.5,1951.7969,2703.5,1947.7969" style="stroke:#181818;stroke-width:1.0;"/><line style="stroke:#181818;stroke-width:1.0;" x1="1190" x2="2705.5" y1="1947.7969" y2="1947.7969"/><text fill="#000000" font-family="sans-serif" font-size="20" font-weight="bold" lengthAdjust="spacing" textLength="22" x="1197" y="1941.4023">29</text><text fill="#000000" font-family="sans-serif" font-size="20" lengthAdjust="spacing" textLength="374" x="1223" y="1941.4023">create(name,phoneNumber,email,address)</text><rect fill="#E2E2F0" height="64.3125" rx="2.5" ry="2.5" style="stroke:#181818;stroke-width:0.5;" width="106" x="2711.5" y="1916.6406"/><text fill="#000000" font-family="sans-serif" font-size="20" font-style="italic" lengthAdjust="spacing" textLength="49" x="2740" y="1944.4023">«dto»</text><text fill="#000000" font-family="sans-serif" font-size="20" lengthAdjust="spacing" textLength="92" x="2718.5" y="1969.5586">PatientDto</text><polygon fill="#181818" points="690,2019.1094,680,2023.1094,690,2027.1094,686,2023.1094" style="stroke:#181818;stroke-width:1.0;"/><line style="stroke:#181818;stroke-width:1.0;stroke-dasharray:2.0,2.0;" x1="684" x2="1184" y1="2023.1094" y2="2023.1094"/><text fill="#000000" font-family="sans-serif" font-size="20" font-weight="bold" lengthAdjust="spacing" textLength="22" x="696" y="2016.7148">30</text><text fill="#000000" font-family="sans-serif" font-size="20" lengthAdjust="spacing" textLength="90" x="722" y="2016.7148">patientDto</text><polygon fill="#181818" points="255,2065.2656,245,2069.2656,255,2073.2656,251,2069.2656" style="stroke:#181818;stroke-width:1.0;"/><line style="stroke:#181818;stroke-width:1.0;stroke-dasharray:2.0,2.0;" x1="249" x2="673" y1="2069.2656" y2="2069.2656"/><text fill="#000000" font-family="sans-serif" font-size="20" font-weight="bold" lengthAdjust="spacing" textLength="22" x="261" y="2062.8711">31</text><text fill="#000000" font-family="sans-serif" font-size="20" lengthAdjust="spacing" textLength="71" x="287" y="2062.8711">success</text><path d="M11,2084.2656 L79,2084.2656 L79,2101.4219 L69,2111.4219 L11,2111.4219 L11,2084.2656 " fill="#EEEEEE" style="stroke:#000000;stroke-width:1.5;"/><rect fill="none" height="107.4688" style="stroke:#000000;stroke-width:1.5;" width="301.5" x="11" y="2084.2656"/><text fill="#000000" font-family="sans-serif" font-size="20" font-weight="bold" lengthAdjust="spacing" textLength="23" x="26" y="2106.0273">alt</text><ellipse cx="7.5" cy="2141.8281" fill="none" rx="4" ry="4" style="stroke:#181818;stroke-width:1.5;"/><polygon fill="#181818" points="24.5,2138.5781,14.5,2142.5781,24.5,2146.5781,20.5,2142.5781" style="stroke:#181818;stroke-width:1.0;"/><line style="stroke:#181818;stroke-width:1.0;stroke-dasharray:2.0,2.0;" x1="22.5" x2="233" y1="2142.5781" y2="2142.5781"/><text fill="#000000" font-family="sans-serif" font-size="20" font-weight="bold" lengthAdjust="spacing" textLength="22" x="25" y="2136.1836">32</text><text fill="#000000" font-family="sans-serif" font-size="20" lengthAdjust="spacing" textLength="97" x="51" y="2136.1836">Accepted()</text><line style="stroke:#000000;stroke-width:1.0;stroke-dasharray:2.0,2.0;" x1="11" x2="312.5" y1="2151.5781" y2="2151.5781"/><ellipse cx="7.5" cy="2182.9844" fill="none" rx="4" ry="4" style="stroke:#181818;stroke-width:1.5;"/><polygon fill="#181818" points="24.5,2179.7344,14.5,2183.7344,24.5,2187.7344,20.5,2183.7344" style="stroke:#181818;stroke-width:1.0;"/><line style="stroke:#181818;stroke-width:1.0;stroke-dasharray:2.0,2.0;" x1="22.5" x2="233" y1="2183.7344" y2="2183.7344"/><text fill="#000000" font-family="sans-serif" font-size="20" font-weight="bold" lengthAdjust="spacing" textLength="22" x="25" y="2177.3398">33</text><text fill="#000000" font-family="sans-serif" font-size="20" lengthAdjust="spacing" textLength="122" x="51" y="2177.3398">BadRequest()</text><!--SRC=[hLXHSzeu47xthz3boNI0DlIQwJ59vXBYv9B12GCcVSZSP5Hx8ReOoRLbUjpSZx-LP1i7i36zyf0XPhzllyzQhrPENXcFQ4mNeV1V8I01p6WQocl1vOJz0wJtmR8aao6Ge-c4d7HxtHxfa54iV4WIyiZWEtaQmX92yf7yIzohI-g_YjcC-V3daMNHL0gUBhv2R64IoNmMKIx9qOXA1boEHIhXYD24Z1-cdaDEJsDrvVpyRRGJC9aXCF6CXN0bXOP5L3u7KY0G_sx2CiW0hSGY327Ma84t7cAyNrpTWiMCg- -XyxS4dZ314mCSNjow4uIcaeLChYhIJI1UediDcJmEC3unLpRZXs9UZXq-t5J7Jl5wENWwUQxbLl4kvNIUcPwwzR4PgJDMTr8iAECLxiOGYOH94Q_CiZcZ1xLgnTKAc0uUNNYtphstBqM-jbduyvNtKAmlVfv4vzoKIv-CffxzLo9uYxod4NkV4LZKbsn99PWmopB5XR2yNDwzwnC_1Wmny5A8Aey-sQuu6tOLOMkTIm4jIrUNeZ75qYVNZ0VNB4xa8mrJi0SXPGjl5K7ITV0UX6K23K4A0-raOf03L2IMono2MwwMomfW2qP3QGB9BsU4fs5eMGG_kI1LBfcltD0cQxl2eg8fqY6F8LQ4QYMm0epB3Fc5oHV5fksP91iK2c8uTFaOSNsrE7hrr0ybV-jevP33zz6Bu72lcqfXbMIVJ5HUQNqoUA5y3XfYlyMs2b2HAeCLFvHKRFu4F51wh3M94NSH1B5gZ9l2QiHb47kDRhs1LMhO8t6dp9BKUxg0dJfhj2gCdM5RMw1QAGtKLYekgNOM4C-1-olLrf6jqa6DYqqEUmTlQoVXNlaDNTOwVUDswu6kyMbs1VEKgqSmVz9566YYTixOgcGgb1kkwfJP3gIokkRvlrnfxejanVqYPPDCRdKILxV1t5UgMbzLREck8sD3tJV08KP8NXUes1Elm8q9bU-WUrQNzwqLgRByN2yb3oNvHHMrJSwVkY3Oh71M_BysLAqR9d9sHcISGdNiXcsSM70dryOdaieqiMSqJA1LYo_Lk3EkZImRKB5DPU5gJAC0OUk5Q2h9RIp8FKHENkYw5B35pLYymFrMy8roRowpFlaXrVxZnZBw2RRIiYSpUkZoBrhVdkBVrViQLqPjD6hR_mHdCv3LFDs-lM1xprFtv81cLhTr7R3BxTtfIfhn28HozLokjZ2SJUriABmDsjat7A2Jf1sAUGCBoDT4lWhR9qrFgdsIq2NO3JBheRL1wlLmMv5xlPBg75Gwjt2SmDhHUfnjwqcxJVC9Se-ZugGJ5OUk9dfrvVtuEfl3oFhybgI-UetG9BCvNjLi8VLDuqcSTZfvsWlC6aa8S2MhlU0sSW3b9Gt6y2s5HDQHDhf9coMYpx1rmRyZPRh0yN0KuZbwwWx94cBrte8STtiVUX-xn_OavUIESjBxZHpt-fy-zp-Ta2-EHzJFBSk-6Gr98jBO1nAmHCRiQwhwQCkweqjAnYcNR05zelwpFRT59av-aJXyoMB15-haTlVecY3oXv2JI4WTVF9hvv99ebvVu8djqRMkp2icXFeYO7oEcwLttVbi3R5FfNIEYI9f3GGcY5TunlV-0m00]--></g></svg>