<?xml version="1.0" encoding="us-ascii" standalone="no"?><svg xmlns="http://www.w3.org/2000/svg" xmlns:xlink="http://www.w3.org/1999/xlink" contentStyleType="text/css" height="705px" preserveAspectRatio="none" style="width:797px;height:705px;background:#FFFFFF;" version="1.1" viewBox="0 0 797 705" width="797px" zoomAndPan="magnify"><defs/><g><text fill="#000000" font-family="sans-serif" font-size="14" font-weight="bold" lengthAdjust="spacing" textLength="331" x="232" y="30.1074">US 6.2.16. Process View - Visualization (Level 3)</text><rect fill="#FFFFFF" height="471.2383" style="stroke:#181818;stroke-width:1.0;" width="10" x="24" y="133.2422"/><rect fill="#FFFFFF" height="156.4551" style="stroke:#181818;stroke-width:1.0;" width="10" x="210" y="156.5332"/><rect fill="#FFFFFF" height="260.2012" style="stroke:#181818;stroke-width:1.0;" width="10" x="210" y="344.2793"/><rect fill="#FFFFFF" height="93.873" style="stroke:#181818;stroke-width:1.0;" width="10" x="455" y="187.8242"/><rect fill="#FFFFFF" height="145.7461" style="stroke:#181818;stroke-width:1.0;" width="10" x="455" y="427.4434"/><line style="stroke:#181818;stroke-width:0.5;stroke-dasharray:5.0,5.0;" x1="29" x2="29" y1="123.2422" y2="622.4805"/><line style="stroke:#181818;stroke-width:0.5;stroke-dasharray:5.0,5.0;" x1="215" x2="215" y1="123.2422" y2="622.4805"/><line style="stroke:#181818;stroke-width:0.5;stroke-dasharray:5.0,5.0;" x1="459.5" x2="459.5" y1="123.2422" y2="622.4805"/><text fill="#000000" font-family="sans-serif" font-size="14" lengthAdjust="spacing" textLength="42" x="5" y="119.7285">Doctor</text><ellipse cx="29" cy="53.1211" fill="#E2E2F0" rx="8" ry="8" style="stroke:#181818;stroke-width:0.5;"/><path d="M29,61.1211 L29,88.1211 M16,69.1211 L42,69.1211 M29,88.1211 L16,103.1211 M29,88.1211 L42,103.1211 " fill="none" style="stroke:#181818;stroke-width:0.5;"/><text fill="#000000" font-family="sans-serif" font-size="14" lengthAdjust="spacing" textLength="42" x="5" y="636.5879">Doctor</text><ellipse cx="29" cy="648.6016" fill="#E2E2F0" rx="8" ry="8" style="stroke:#181818;stroke-width:0.5;"/><path d="M29,656.6016 L29,683.6016 M16,664.6016 L42,664.6016 M29,683.6016 L16,698.6016 M29,683.6016 L42,698.6016 " fill="none" style="stroke:#181818;stroke-width:0.5;"/><rect fill="#E2E2F0" height="51.2422" rx="2.5" ry="2.5" style="stroke:#181818;stroke-width:0.5;" width="134" x="148" y="71"/><text fill="#000000" font-family="sans-serif" font-size="14" lengthAdjust="spacing" textLength="89" x="170.5" y="93.1074">&#171;Component&#187;</text><text fill="#000000" font-family="sans-serif" font-size="14" lengthAdjust="spacing" textLength="116" x="159" y="111.7285">OperationRequest</text><rect fill="#E2E2F0" height="51.2422" rx="2.5" ry="2.5" style="stroke:#181818;stroke-width:0.5;" width="134" x="148" y="621.4805"/><text fill="#000000" font-family="sans-serif" font-size="14" lengthAdjust="spacing" textLength="89" x="170.5" y="643.5879">&#171;Component&#187;</text><text fill="#000000" font-family="sans-serif" font-size="14" lengthAdjust="spacing" textLength="116" x="159" y="662.209">OperationRequest</text><rect fill="#E2E2F0" height="51.2422" rx="2.5" ry="2.5" style="stroke:#181818;stroke-width:0.5;" width="181" x="369.5" y="71"/><text fill="#000000" font-family="sans-serif" font-size="14" lengthAdjust="spacing" textLength="63" x="428.5" y="93.1074">&#171;Service&#187;</text><text fill="#000000" font-family="sans-serif" font-size="14" lengthAdjust="spacing" textLength="163" x="380.5" y="111.7285">OperationRequestService</text><rect fill="#E2E2F0" height="51.2422" rx="2.5" ry="2.5" style="stroke:#181818;stroke-width:0.5;" width="181" x="369.5" y="621.4805"/><text fill="#000000" font-family="sans-serif" font-size="14" lengthAdjust="spacing" textLength="63" x="428.5" y="643.5879">&#171;Service&#187;</text><text fill="#000000" font-family="sans-serif" font-size="14" lengthAdjust="spacing" textLength="163" x="380.5" y="662.209">OperationRequestService</text><rect fill="#FFFFFF" height="471.2383" style="stroke:#181818;stroke-width:1.0;" width="10" x="24" y="133.2422"/><rect fill="#FFFFFF" height="156.4551" style="stroke:#181818;stroke-width:1.0;" width="10" x="210" y="156.5332"/><rect fill="#FFFFFF" height="260.2012" style="stroke:#181818;stroke-width:1.0;" width="10" x="210" y="344.2793"/><rect fill="#FFFFFF" height="93.873" style="stroke:#181818;stroke-width:1.0;" width="10" x="455" y="187.8242"/><rect fill="#FFFFFF" height="145.7461" style="stroke:#181818;stroke-width:1.0;" width="10" x="455" y="427.4434"/><polygon fill="#181818" points="198,152.5332,208,156.5332,198,160.5332,202,156.5332" style="stroke:#181818;stroke-width:1.0;"/><line style="stroke:#181818;stroke-width:1.0;" x1="34" x2="204" y1="156.5332" y2="156.5332"/><text fill="#000000" font-family="sans-serif" font-size="13" lengthAdjust="spacing" textLength="117" x="41" y="151.2705">get all active profiles</text><polygon fill="#181818" points="443,183.8242,453,187.8242,443,191.8242,447,187.8242" style="stroke:#181818;stroke-width:1.0;"/><line style="stroke:#181818;stroke-width:1.0;" x1="220" x2="449" y1="187.8242" y2="187.8242"/><text fill="#000000" font-family="sans-serif" font-size="13" lengthAdjust="spacing" textLength="112" x="227" y="182.5615">GetAllFromDoctor()</text><ellipse cx="787.5" cy="218.3652" fill="none" rx="4" ry="4" style="stroke:#181818;stroke-width:1.5;"/><polygon fill="#181818" points="770.5,215.1152,780.5,219.1152,770.5,223.1152,774.5,219.1152" style="stroke:#181818;stroke-width:1.0;"/><line style="stroke:#181818;stroke-width:1.0;" x1="465" x2="776.5" y1="219.1152" y2="219.1152"/><text fill="#000000" font-family="sans-serif" font-size="13" lengthAdjust="spacing" textLength="171" x="472" y="213.8525">GET: api/Get-AllFromDoctor()</text><polygon fill="#181818" points="476,246.4063,466,250.4063,476,254.4063,472,250.4063" style="stroke:#181818;stroke-width:1.0;"/><ellipse cx="787.5" cy="249.6563" fill="none" rx="4" ry="4" style="stroke:#181818;stroke-width:1.5;"/><line style="stroke:#181818;stroke-width:1.0;stroke-dasharray:2.0,2.0;" x1="470" x2="783" y1="250.4063" y2="250.4063"/><text fill="#000000" font-family="sans-serif" font-size="13" lengthAdjust="spacing" textLength="133" x="482" y="245.1436">Ok(operationRequests)</text><polygon fill="#181818" points="231,277.6973,221,281.6973,231,285.6973,227,281.6973" style="stroke:#181818;stroke-width:1.0;"/><line style="stroke:#181818;stroke-width:1.0;stroke-dasharray:2.0,2.0;" x1="225" x2="459" y1="281.6973" y2="281.6973"/><text fill="#000000" font-family="sans-serif" font-size="13" lengthAdjust="spacing" textLength="108" x="237" y="276.4346">operationRequests</text><polygon fill="#181818" points="45,308.9883,35,312.9883,45,316.9883,41,312.9883" style="stroke:#181818;stroke-width:1.0;"/><line style="stroke:#181818;stroke-width:1.0;stroke-dasharray:2.0,2.0;" x1="39" x2="214" y1="312.9883" y2="312.9883"/><text fill="#000000" font-family="sans-serif" font-size="13" lengthAdjust="spacing" textLength="108" x="51" y="307.7256">operationRequests</text><polygon fill="#181818" points="198,340.2793,208,344.2793,198,348.2793,202,344.2793" style="stroke:#181818;stroke-width:1.0;"/><line style="stroke:#181818;stroke-width:1.0;" x1="34" x2="204" y1="344.2793" y2="344.2793"/><text fill="#000000" font-family="sans-serif" font-size="13" lengthAdjust="spacing" textLength="157" x="41" y="339.0166">delete an operation request</text><polygon fill="#181818" points="443,423.4434,453,427.4434,443,431.4434,447,427.4434" style="stroke:#181818;stroke-width:1.0;"/><line style="stroke:#181818;stroke-width:1.0;" x1="220" x2="449" y1="427.4434" y2="427.4434"/><text fill="#000000" font-family="sans-serif" font-size="13" lengthAdjust="spacing" textLength="216" x="227" y="370.3076">DeleteOperationRequestFromPatient(</text><text fill="#000000" font-family="sans-serif" font-size="13" lengthAdjust="spacing" textLength="55" x="227" y="387.5986">idPatient,</text><text fill="#000000" font-family="sans-serif" font-size="13" lengthAdjust="spacing" textLength="62" x="227" y="404.8896">idRequest,</text><text fill="#000000" font-family="sans-serif" font-size="13" lengthAdjust="spacing" textLength="35" x="227" y="422.1807">email)</text><ellipse cx="787.5" cy="509.8574" fill="none" rx="4" ry="4" style="stroke:#181818;stroke-width:1.5;"/><polygon fill="#181818" points="770.5,506.6074,780.5,510.6074,770.5,514.6074,774.5,510.6074" style="stroke:#181818;stroke-width:1.0;"/><line style="stroke:#181818;stroke-width:1.0;" x1="465" x2="776.5" y1="510.6074" y2="510.6074"/><text fill="#000000" font-family="sans-serif" font-size="13" lengthAdjust="spacing" textLength="299" x="472" y="453.4717">DELETE: api/Delete-OperationRequestFromPatient(</text><text fill="#000000" font-family="sans-serif" font-size="13" lengthAdjust="spacing" textLength="55" x="472" y="470.7627">idPatient,</text><text fill="#000000" font-family="sans-serif" font-size="13" lengthAdjust="spacing" textLength="62" x="472" y="488.0537">idRequest,</text><text fill="#000000" font-family="sans-serif" font-size="13" lengthAdjust="spacing" textLength="35" x="472" y="505.3447">email)</text><polygon fill="#181818" points="476,537.8984,466,541.8984,476,545.8984,472,541.8984" style="stroke:#181818;stroke-width:1.0;"/><ellipse cx="787.5" cy="541.1484" fill="none" rx="4" ry="4" style="stroke:#181818;stroke-width:1.5;"/><line style="stroke:#181818;stroke-width:1.0;stroke-dasharray:2.0,2.0;" x1="470" x2="783" y1="541.8984" y2="541.8984"/><text fill="#000000" font-family="sans-serif" font-size="13" lengthAdjust="spacing" textLength="256" x="482" y="536.6357">Ok("Operation request succefully removed.")</text><polygon fill="#181818" points="231,569.1895,221,573.1895,231,577.1895,227,573.1895" style="stroke:#181818;stroke-width:1.0;"/><line style="stroke:#181818;stroke-width:1.0;stroke-dasharray:2.0,2.0;" x1="225" x2="459" y1="573.1895" y2="573.1895"/><text fill="#000000" font-family="sans-serif" font-size="13" lengthAdjust="spacing" textLength="49" x="237" y="567.9268">success</text><polygon fill="#181818" points="40,600.4805,30,604.4805,40,608.4805,36,604.4805" style="stroke:#181818;stroke-width:1.0;"/><line style="stroke:#181818;stroke-width:1.0;stroke-dasharray:2.0,2.0;" x1="34" x2="214" y1="604.4805" y2="604.4805"/><text fill="#000000" font-family="sans-serif" font-size="13" lengthAdjust="spacing" textLength="49" x="46" y="599.2178">success</text><!--SRC=[hL8zRuCm5DppAvwOY5HJjPKoH15IrT0kaHBbQse72ruggmPJsr2rlxx6feGGizMB7-RkED-XcUO8mM47i-W-kfj5i94YHQNWoF0BYDbKHJdxePg90i8LriZXOHfC9ZJLGi9IDDkaf5Apb9Mqq10i5ayYBqM1XOxZrmBM9KhBt-9dXKe7G1KSTibsIDkXh5cANbBxpd8DzMWDi9fg_FC0PhaHI6prOGxlg85o3XQCK4fnOXoL1NS2rWkqonADGFCH8_22-f7pPobofnrEEsJ7jtwWjooNnEAj4KZsSw0bkpLAP4og8oq8iQprHoW62IWFd9nlUWNlq1dwdRgR6eKsjJ6D7jycvKywGuu6GOkp2aWdSvtOHUAUr9TMRFWFDD5jp87viSBNWcNjVDFCBSJCc5F6BxCQRshOrZ9P9Vl45UPCa7zpuIivM0_30bMbAPugph_DKIvgpA9WHAXNlsKfTO4RAzvV_b1XM7llsN5-0G00]--></g></svg>