<?xml version="1.0" encoding="us-ascii" standalone="no"?><svg xmlns="http://www.w3.org/2000/svg" xmlns:xlink="http://www.w3.org/1999/xlink" contentStyleType="text/css" height="1483.8px" preserveAspectRatio="none" style="width:1525px;height:1483px;background:#FFFFFF;" version="1.1" viewBox="0 0 1525 1483" width="1525.8px" zoomAndPan="magnify"><defs/><g><text fill="#000000" font-family="sans-serif" font-size="8.4" font-weight="bold" lengthAdjust="spacing" textLength="204" x="660.3" y="18.0645">US 6.2.16. Process View - MDBackoffice (Level 3)</text><rect fill="#FFFFFF" height="459.174" style="stroke:#181818;stroke-width:0.6;" width="6" x="65.4" y="90.2672"/><rect fill="#FFFFFF" height="436.0248" style="stroke:#181818;stroke-width:0.6;" width="6" x="65.4" y="582.1904"/><rect fill="#FFFFFF" height="402.4629" style="stroke:#181818;stroke-width:0.6;" width="6" x="65.4" y="1036.9898"/><rect fill="#FFFFFF" height="402.4629" style="stroke:#181818;stroke-width:0.6;" width="6" x="235.2" y="121.2164"/><rect fill="#FFFFFF" height="391.4883" style="stroke:#181818;stroke-width:0.6;" width="6" x="235.2" y="607.9523"/><rect fill="#FFFFFF" height="389.0883" style="stroke:#181818;stroke-width:0.6;" width="6" x="235.2" y="1055.7645"/><rect fill="#FFFFFF" height="301.3898" style="stroke:#181818;stroke-width:0.6;" width="6" x="694.5" y="176.9402"/><rect fill="#FFFFFF" height="253.0699" style="stroke:#181818;stroke-width:0.6;" width="6" x="694.5" y="701.0215"/><rect fill="#FFFFFF" height="232.3207" style="stroke:#181818;stroke-width:0.6;" width="6" x="694.5" y="1143.0082"/><rect fill="#FFFFFF" height="56.3238" style="stroke:#181818;stroke-width:0.6;" width="6" x="818.1" y="195.7148"/><rect fill="#FFFFFF" height="56.3238" style="stroke:#181818;stroke-width:0.6;" width="6" x="818.1" y="719.7961"/><rect fill="#FFFFFF" height="56.3238" style="stroke:#181818;stroke-width:0.6;" width="6" x="818.1" y="1161.7828"/><rect fill="#FFFFFF" height="18.7746" style="stroke:#181818;stroke-width:0.6;" width="6" x="941.7" y="214.4895"/><rect fill="#FFFFFF" height="18.7746" style="stroke:#181818;stroke-width:0.6;" width="6" x="941.7" y="738.5707"/><rect fill="#FFFFFF" height="18.7746" style="stroke:#181818;stroke-width:0.6;" width="6" x="941.7" y="1180.5574"/><rect fill="#FFFFFF" height="18.7746" style="stroke:#181818;stroke-width:0.6;" width="6" x="1016.7" y="270.8133"/><rect fill="#FFFFFF" height="18.7746" style="stroke:#181818;stroke-width:0.6;" width="6" x="1016.7" y="794.8945"/><rect fill="#FFFFFF" height="18.7746" style="stroke:#181818;stroke-width:0.6;" width="6" x="1016.7" y="1236.8813"/><rect fill="#FFFFFF" height="18.7746" style="stroke:#181818;stroke-width:0.6;" width="6" x="1117.8" y="308.3625"/><rect fill="#FFFFFF" height="18.7746" style="stroke:#181818;stroke-width:0.6;" width="6" x="1117.8" y="832.4438"/><rect fill="#FFFFFF" height="18.7746" style="stroke:#181818;stroke-width:0.6;" width="6" x="1117.8" y="885.7676"/><rect fill="#FFFFFF" height="18.7746" style="stroke:#181818;stroke-width:0.6;" width="6" x="1240.2" y="436.5809"/><rect fill="#FFFFFF" height="18.7746" style="stroke:#181818;stroke-width:0.6;" width="6" x="1342.2" y="399.0316"/><rect fill="#FFFFFF" height="18.7746" style="stroke:#181818;stroke-width:0.6;" width="6" x="1427.4" y="1274.4305"/><rect fill="#FFFFFF" height="18" style="stroke:#181818;stroke-width:0.6;" width="6" x="1495.8" y="1311.9797"/><rect fill="none" height="86.673" style="stroke:#000000;stroke-width:0.8999999999999999;" width="754.2" x="637.2" y="373.4824"/><rect fill="none" height="75.6984" style="stroke:#000000;stroke-width:0.8999999999999999;" width="550.2" x="637.2" y="860.2184"/><line style="stroke:#181818;stroke-width:0.3;stroke-dasharray:5.0,5.0;" x1="68.4" x2="68.4" y1="58.118" y2="1450.2527"/><line style="stroke:#181818;stroke-width:0.3;stroke-dasharray:5.0,5.0;" x1="238.2" x2="238.2" y1="58.118" y2="1450.2527"/><line style="stroke:#181818;stroke-width:0.3;stroke-dasharray:5.0,5.0;" x1="480.6" x2="480.6" y1="637.425" y2="1450.2527"/><line style="stroke:#181818;stroke-width:0.3;stroke-dasharray:5.0,5.0;" x1="574.2" x2="574.2" y1="1085.2371" y2="1450.2527"/><line style="stroke:#181818;stroke-width:0.3;stroke-dasharray:5.0,5.0;" x1="697.2" x2="697.2" y1="58.118" y2="1450.2527"/><line style="stroke:#181818;stroke-width:0.3;stroke-dasharray:5.0,5.0;" x1="821.1" x2="821.1" y1="58.118" y2="1450.2527"/><line style="stroke:#181818;stroke-width:0.3;stroke-dasharray:5.0,5.0;" x1="944.4" x2="944.4" y1="58.118" y2="1450.2527"/><line style="stroke:#181818;stroke-width:0.3;stroke-dasharray:5.0,5.0;" x1="1019.4" x2="1019.4" y1="58.118" y2="1450.2527"/><line style="stroke:#181818;stroke-width:0.3;stroke-dasharray:5.0,5.0;" x1="1120.8" x2="1120.8" y1="58.118" y2="1450.2527"/><line style="stroke:#181818;stroke-width:0.3;stroke-dasharray:5.0,5.0;" x1="1243.2" x2="1243.2" y1="356.6098" y2="1450.2527"/><line style="stroke:#181818;stroke-width:0.3;stroke-dasharray:5.0,5.0;" x1="1345.2" x2="1345.2" y1="58.118" y2="1450.2527"/><line style="stroke:#181818;stroke-width:0.3;stroke-dasharray:5.0,5.0;" x1="1430.4" x2="1430.4" y1="58.118" y2="1450.2527"/><line style="stroke:#181818;stroke-width:0.3;stroke-dasharray:5.0,5.0;" x1="1498.8" x2="1498.8" y1="58.118" y2="1450.2527"/><rect fill="#E2E2F0" height="30.7453" rx="1.5" ry="1.5" style="stroke:#181818;stroke-width:0.3;" width="103.2" x="16.8" y="26.7727"/><text fill="#000000" font-family="sans-serif" font-size="8.4" lengthAdjust="spacing" textLength="32.4" x="52.2" y="40.0371">&#171;Route&#187;</text><text fill="#000000" font-family="sans-serif" font-size="8.4" lengthAdjust="spacing" textLength="92.4" x="23.4" y="51.2098">OperationRequestRoute</text><rect fill="#E2E2F0" height="30.7453" rx="1.5" ry="1.5" style="stroke:#181818;stroke-width:0.3;" width="103.2" x="16.8" y="1449.6527"/><text fill="#000000" font-family="sans-serif" font-size="8.4" lengthAdjust="spacing" textLength="32.4" x="52.2" y="1462.9172">&#171;Route&#187;</text><text fill="#000000" font-family="sans-serif" font-size="8.4" lengthAdjust="spacing" textLength="92.4" x="23.4" y="1474.0898">OperationRequestRoute</text><rect fill="#E2E2F0" height="30.7453" rx="1.5" ry="1.5" style="stroke:#181818;stroke-width:0.3;" width="117.6" x="179.4" y="26.7727"/><text fill="#000000" font-family="sans-serif" font-size="8.4" lengthAdjust="spacing" textLength="46.8" x="214.8" y="40.0371">&#171;Controller&#187;</text><text fill="#000000" font-family="sans-serif" font-size="8.4" lengthAdjust="spacing" textLength="106.8" x="186" y="51.2098">OperationRequestController</text><rect fill="#E2E2F0" height="30.7453" rx="1.5" ry="1.5" style="stroke:#181818;stroke-width:0.3;" width="117.6" x="179.4" y="1449.6527"/><text fill="#000000" font-family="sans-serif" font-size="8.4" lengthAdjust="spacing" textLength="46.8" x="214.8" y="1462.9172">&#171;Controller&#187;</text><text fill="#000000" font-family="sans-serif" font-size="8.4" lengthAdjust="spacing" textLength="106.8" x="186" y="1474.0898">OperationRequestController</text><rect fill="#E2E2F0" height="30.7453" rx="1.5" ry="1.5" style="stroke:#181818;stroke-width:0.3;" width="49.2" x="456" y="1449.6527"/><text fill="#000000" font-family="sans-serif" font-size="8.4" lengthAdjust="spacing" textLength="27.6" x="466.8" y="1462.9172">&#171;DTO&#187;</text><text fill="#000000" font-family="sans-serif" font-size="8.4" lengthAdjust="spacing" textLength="38.4" x="462.6" y="1474.0898">IdPassDto</text><rect fill="#E2E2F0" height="30.7453" rx="1.5" ry="1.5" style="stroke:#181818;stroke-width:0.3;" width="126" x="511.2" y="1449.6527"/><text fill="#000000" font-family="sans-serif" font-size="8.4" lengthAdjust="spacing" textLength="27.6" x="560.4" y="1462.9172">&#171;DTO&#187;</text><text fill="#000000" font-family="sans-serif" font-size="8.4" lengthAdjust="spacing" textLength="115.2" x="517.8" y="1474.0898">AddOrRemoveFromPatientDto</text><rect fill="#E2E2F0" height="30.7453" rx="1.5" ry="1.5" style="stroke:#181818;stroke-width:0.3;" width="108.6" x="643.2" y="26.7727"/><text fill="#000000" font-family="sans-serif" font-size="8.4" lengthAdjust="spacing" textLength="37.8" x="678.6" y="40.0371">&#171;Service&#187;</text><text fill="#000000" font-family="sans-serif" font-size="8.4" lengthAdjust="spacing" textLength="97.8" x="649.8" y="51.2098">OperationRequestService</text><rect fill="#E2E2F0" height="30.7453" rx="1.5" ry="1.5" style="stroke:#181818;stroke-width:0.3;" width="108.6" x="643.2" y="1449.6527"/><text fill="#000000" font-family="sans-serif" font-size="8.4" lengthAdjust="spacing" textLength="37.8" x="678.6" y="1462.9172">&#171;Service&#187;</text><text fill="#000000" font-family="sans-serif" font-size="8.4" lengthAdjust="spacing" textLength="97.8" x="649.8" y="1474.0898">OperationRequestService</text><rect fill="#E2E2F0" height="30.7453" rx="1.5" ry="1.5" style="stroke:#181818;stroke-width:0.3;" width="56.4" x="792.9" y="26.7727"/><text fill="#000000" font-family="sans-serif" font-size="8.4" lengthAdjust="spacing" textLength="37.8" x="802.2" y="40.0371">&#171;Service&#187;</text><text fill="#000000" font-family="sans-serif" font-size="8.4" lengthAdjust="spacing" textLength="45.6" x="799.5" y="51.2098">UserService</text><rect fill="#E2E2F0" height="30.7453" rx="1.5" ry="1.5" style="stroke:#181818;stroke-width:0.3;" width="56.4" x="792.9" y="1449.6527"/><text fill="#000000" font-family="sans-serif" font-size="8.4" lengthAdjust="spacing" textLength="37.8" x="802.2" y="1462.9172">&#171;Service&#187;</text><text fill="#000000" font-family="sans-serif" font-size="8.4" lengthAdjust="spacing" textLength="45.6" x="799.5" y="1474.0898">UserService</text><rect fill="#E2E2F0" height="30.7453" rx="1.5" ry="1.5" style="stroke:#181818;stroke-width:0.3;" width="69" x="910.2" y="26.7727"/><text fill="#000000" font-family="sans-serif" font-size="8.4" lengthAdjust="spacing" textLength="50.4" x="919.5" y="40.0371">&#171;Repository&#187;</text><text fill="#000000" font-family="sans-serif" font-size="8.4" lengthAdjust="spacing" textLength="58.2" x="916.8" y="51.2098">UserRepository</text><rect fill="#E2E2F0" height="30.7453" rx="1.5" ry="1.5" style="stroke:#181818;stroke-width:0.3;" width="69" x="910.2" y="1449.6527"/><text fill="#000000" font-family="sans-serif" font-size="8.4" lengthAdjust="spacing" textLength="50.4" x="919.5" y="1462.9172">&#171;Repository&#187;</text><text fill="#000000" font-family="sans-serif" font-size="8.4" lengthAdjust="spacing" textLength="58.2" x="916.8" y="1474.0898">UserRepository</text><rect fill="#E2E2F0" height="30.7453" rx="1.5" ry="1.5" style="stroke:#181818;stroke-width:0.3;" width="69" x="985.2" y="26.7727"/><text fill="#000000" font-family="sans-serif" font-size="8.4" lengthAdjust="spacing" textLength="50.4" x="994.5" y="40.0371">&#171;Repository&#187;</text><text fill="#000000" font-family="sans-serif" font-size="8.4" lengthAdjust="spacing" textLength="58.2" x="991.8" y="51.2098">StaffRepository</text><rect fill="#E2E2F0" height="30.7453" rx="1.5" ry="1.5" style="stroke:#181818;stroke-width:0.3;" width="69" x="985.2" y="1449.6527"/><text fill="#000000" font-family="sans-serif" font-size="8.4" lengthAdjust="spacing" textLength="50.4" x="994.5" y="1462.9172">&#171;Repository&#187;</text><text fill="#000000" font-family="sans-serif" font-size="8.4" lengthAdjust="spacing" textLength="58.2" x="991.8" y="1474.0898">StaffRepository</text><rect fill="#E2E2F0" height="30.7453" rx="1.5" ry="1.5" style="stroke:#181818;stroke-width:0.3;" width="121.2" x="1060.2" y="26.7727"/><text fill="#000000" font-family="sans-serif" font-size="8.4" lengthAdjust="spacing" textLength="50.4" x="1095.6" y="40.0371">&#171;Repository&#187;</text><text fill="#000000" font-family="sans-serif" font-size="8.4" lengthAdjust="spacing" textLength="110.4" x="1066.8" y="51.2098">OperationRequestRepository</text><rect fill="#E2E2F0" height="30.7453" rx="1.5" ry="1.5" style="stroke:#181818;stroke-width:0.3;" width="121.2" x="1060.2" y="1449.6527"/><text fill="#000000" font-family="sans-serif" font-size="8.4" lengthAdjust="spacing" textLength="50.4" x="1095.6" y="1462.9172">&#171;Repository&#187;</text><text fill="#000000" font-family="sans-serif" font-size="8.4" lengthAdjust="spacing" textLength="110.4" x="1066.8" y="1474.0898">OperationRequestRepository</text><rect fill="#E2E2F0" height="30.7453" rx="1.5" ry="1.5" style="stroke:#181818;stroke-width:0.3;" width="111.6" x="1187.4" y="1449.6527"/><text fill="#000000" font-family="sans-serif" font-size="8.4" lengthAdjust="spacing" textLength="27.6" x="1229.4" y="1462.9172">&#171;DTO&#187;</text><text fill="#000000" font-family="sans-serif" font-size="8.4" lengthAdjust="spacing" textLength="100.8" x="1194" y="1474.0898">OperationRequestListDTO</text><rect fill="#E2E2F0" height="30.7453" rx="1.5" ry="1.5" style="stroke:#181818;stroke-width:0.3;" width="80.4" x="1305" y="26.7727"/><text fill="#000000" font-family="sans-serif" font-size="8.4" lengthAdjust="spacing" textLength="38.4" x="1326" y="40.0371">&#171;Domain&#187;</text><text fill="#000000" font-family="sans-serif" font-size="8.4" lengthAdjust="spacing" textLength="69.6" x="1311.6" y="51.2098">OperationRequest</text><rect fill="#E2E2F0" height="30.7453" rx="1.5" ry="1.5" style="stroke:#181818;stroke-width:0.3;" width="80.4" x="1305" y="1449.6527"/><text fill="#000000" font-family="sans-serif" font-size="8.4" lengthAdjust="spacing" textLength="38.4" x="1326" y="1462.9172">&#171;Domain&#187;</text><text fill="#000000" font-family="sans-serif" font-size="8.4" lengthAdjust="spacing" textLength="69.6" x="1311.6" y="1474.0898">OperationRequest</text><rect fill="#E2E2F0" height="30.7453" rx="1.5" ry="1.5" style="stroke:#181818;stroke-width:0.3;" width="78" x="1391.4" y="26.7727"/><text fill="#000000" font-family="sans-serif" font-size="8.4" lengthAdjust="spacing" textLength="50.4" x="1405.2" y="40.0371">&#171;Repository&#187;</text><text fill="#000000" font-family="sans-serif" font-size="8.4" lengthAdjust="spacing" textLength="67.2" x="1398" y="51.2098">PatientRepository</text><rect fill="#E2E2F0" height="30.7453" rx="1.5" ry="1.5" style="stroke:#181818;stroke-width:0.3;" width="78" x="1391.4" y="1449.6527"/><text fill="#000000" font-family="sans-serif" font-size="8.4" lengthAdjust="spacing" textLength="50.4" x="1405.2" y="1462.9172">&#171;Repository&#187;</text><text fill="#000000" font-family="sans-serif" font-size="8.4" lengthAdjust="spacing" textLength="67.2" x="1398" y="1474.0898">PatientRepository</text><rect fill="#E2E2F0" height="30.7453" rx="1.5" ry="1.5" style="stroke:#181818;stroke-width:0.3;" width="46.8" x="1475.4" y="26.7727"/><text fill="#000000" font-family="sans-serif" font-size="8.4" lengthAdjust="spacing" textLength="38.4" x="1479.6" y="40.0371">&#171;Domain&#187;</text><text fill="#000000" font-family="sans-serif" font-size="8.4" lengthAdjust="spacing" textLength="26.4" x="1486.8" y="51.2098">Patient</text><rect fill="#E2E2F0" height="30.7453" rx="1.5" ry="1.5" style="stroke:#181818;stroke-width:0.3;" width="46.8" x="1475.4" y="1449.6527"/><text fill="#000000" font-family="sans-serif" font-size="8.4" lengthAdjust="spacing" textLength="38.4" x="1479.6" y="1462.9172">&#171;Domain&#187;</text><text fill="#000000" font-family="sans-serif" font-size="8.4" lengthAdjust="spacing" textLength="26.4" x="1486.8" y="1474.0898">Patient</text><rect fill="#FFFFFF" height="459.174" style="stroke:#181818;stroke-width:0.6;" width="6" x="65.4" y="90.2672"/><rect fill="#FFFFFF" height="436.0248" style="stroke:#181818;stroke-width:0.6;" width="6" x="65.4" y="582.1904"/><rect fill="#FFFFFF" height="402.4629" style="stroke:#181818;stroke-width:0.6;" width="6" x="65.4" y="1036.9898"/><rect fill="#FFFFFF" height="402.4629" style="stroke:#181818;stroke-width:0.6;" width="6" x="235.2" y="121.2164"/><rect fill="#FFFFFF" height="391.4883" style="stroke:#181818;stroke-width:0.6;" width="6" x="235.2" y="607.9523"/><rect fill="#FFFFFF" height="389.0883" style="stroke:#181818;stroke-width:0.6;" width="6" x="235.2" y="1055.7645"/><rect fill="#FFFFFF" height="301.3898" style="stroke:#181818;stroke-width:0.6;" width="6" x="694.5" y="176.9402"/><rect fill="#FFFFFF" height="253.0699" style="stroke:#181818;stroke-width:0.6;" width="6" x="694.5" y="701.0215"/><rect fill="#FFFFFF" height="232.3207" style="stroke:#181818;stroke-width:0.6;" width="6" x="694.5" y="1143.0082"/><rect fill="#FFFFFF" height="56.3238" style="stroke:#181818;stroke-width:0.6;" width="6" x="818.1" y="195.7148"/><rect fill="#FFFFFF" height="56.3238" style="stroke:#181818;stroke-width:0.6;" width="6" x="818.1" y="719.7961"/><rect fill="#FFFFFF" height="56.3238" style="stroke:#181818;stroke-width:0.6;" width="6" x="818.1" y="1161.7828"/><rect fill="#FFFFFF" height="18.7746" style="stroke:#181818;stroke-width:0.6;" width="6" x="941.7" y="214.4895"/><rect fill="#FFFFFF" height="18.7746" style="stroke:#181818;stroke-width:0.6;" width="6" x="941.7" y="738.5707"/><rect fill="#FFFFFF" height="18.7746" style="stroke:#181818;stroke-width:0.6;" width="6" x="941.7" y="1180.5574"/><rect fill="#FFFFFF" height="18.7746" style="stroke:#181818;stroke-width:0.6;" width="6" x="1016.7" y="270.8133"/><rect fill="#FFFFFF" height="18.7746" style="stroke:#181818;stroke-width:0.6;" width="6" x="1016.7" y="794.8945"/><rect fill="#FFFFFF" height="18.7746" style="stroke:#181818;stroke-width:0.6;" width="6" x="1016.7" y="1236.8813"/><rect fill="#FFFFFF" height="18.7746" style="stroke:#181818;stroke-width:0.6;" width="6" x="1117.8" y="308.3625"/><rect fill="#FFFFFF" height="18.7746" style="stroke:#181818;stroke-width:0.6;" width="6" x="1117.8" y="832.4438"/><rect fill="#FFFFFF" height="18.7746" style="stroke:#181818;stroke-width:0.6;" width="6" x="1117.8" y="885.7676"/><rect fill="#FFFFFF" height="18.7746" style="stroke:#181818;stroke-width:0.6;" width="6" x="1240.2" y="436.5809"/><rect fill="#FFFFFF" height="18.7746" style="stroke:#181818;stroke-width:0.6;" width="6" x="1342.2" y="399.0316"/><rect fill="#FFFFFF" height="18.7746" style="stroke:#181818;stroke-width:0.6;" width="6" x="1427.4" y="1274.4305"/><rect fill="#FFFFFF" height="18" style="stroke:#181818;stroke-width:0.6;" width="6" x="1495.8" y="1311.9797"/><ellipse cx="4.5" cy="89.8172" fill="none" rx="2.4" ry="2.4" style="stroke:#181818;stroke-width:0.8999999999999999;"/><polygon fill="#181818" points="58.2,87.8672,64.2,90.2672,58.2,92.6672,60.6,90.2672" style="stroke:#181818;stroke-width:0.6;"/><line style="stroke:#181818;stroke-width:0.6;" x1="7.2" x2="61.8" y1="90.2672" y2="90.2672"/><text fill="#000000" font-family="sans-serif" font-size="7.8" lengthAdjust="spacing" textLength="34.8" x="9" y="87.1096">GET(json)</text><path d="M74.4,67.118 L74.4,103.718 L127.2,103.718 L127.2,73.118 L121.2,67.118 L74.4,67.118 " fill="#FEFFDD" style="stroke:#181818;stroke-width:0.3;"/><path d="M121.2,67.118 L121.2,73.118 L127.2,73.118 L121.2,67.118 " fill="#FEFFDD" style="stroke:#181818;stroke-width:0.3;"/><text fill="#000000" font-family="sans-serif" font-size="7.8" lengthAdjust="spacing" textLength="36.6" x="78" y="78.535">getting the</text><text fill="#000000" font-family="sans-serif" font-size="7.8" lengthAdjust="spacing" textLength="18.6" x="78" y="88.9096">list of</text><text fill="#000000" font-family="sans-serif" font-size="7.8" lengthAdjust="spacing" textLength="40.2" x="78" y="99.2842">all requests</text><polygon fill="#181818" points="228,118.8164,234,121.2164,228,123.6164,230.4,121.2164" style="stroke:#181818;stroke-width:0.6;"/><line style="stroke:#181818;stroke-width:0.6;" x1="71.4" x2="231.6" y1="121.2164" y2="121.2164"/><text fill="#000000" font-family="sans-serif" font-size="7.8" lengthAdjust="spacing" textLength="67.2" x="75.6" y="118.0588">GetAllFromDoctor()</text><line style="stroke:#181818;stroke-width:0.6;" x1="241.2" x2="266.4" y1="150.3656" y2="150.3656"/><line style="stroke:#181818;stroke-width:0.6;" x1="266.4" x2="266.4" y1="150.3656" y2="158.1656"/><line style="stroke:#181818;stroke-width:0.6;" x1="241.8" x2="266.4" y1="158.1656" y2="158.1656"/><polygon fill="#181818" points="247.8,155.7656,241.8,158.1656,247.8,160.5656,245.4,158.1656" style="stroke:#181818;stroke-width:0.6;"/><text fill="#000000" font-family="sans-serif" font-size="7.8" lengthAdjust="spacing" textLength="67.8" x="245.4" y="136.8334">string? userEmail =</text><text fill="#000000" font-family="sans-serif" font-size="7.8" lengthAdjust="spacing" textLength="136.8" x="245.4" y="147.208">User.FindFirstValue(ClaimTypes.Email)</text><polygon fill="#181818" points="687.3,174.5402,693.3,176.9402,687.3,179.3402,689.7,176.9402" style="stroke:#181818;stroke-width:0.6;"/><line style="stroke:#181818;stroke-width:0.6;" x1="241.2" x2="690.9" y1="176.9402" y2="176.9402"/><text fill="#000000" font-family="sans-serif" font-size="7.8" lengthAdjust="spacing" textLength="102" x="245.4" y="173.7826">GetAllFromDoctor(userEmail)</text><polygon fill="#181818" points="810.9,193.3148,816.9,195.7148,810.9,198.1148,813.3,195.7148" style="stroke:#181818;stroke-width:0.6;"/><line style="stroke:#181818;stroke-width:0.6;" x1="700.5" x2="814.5" y1="195.7148" y2="195.7148"/><text fill="#000000" font-family="sans-serif" font-size="7.8" lengthAdjust="spacing" textLength="106.2" x="704.7" y="192.5572">FindByEmailAsync(userEmail)</text><polygon fill="#181818" points="934.5,212.0895,940.5,214.4895,934.5,216.8895,936.9,214.4895" style="stroke:#181818;stroke-width:0.6;"/><line style="stroke:#181818;stroke-width:0.6;" x1="824.1" x2="938.1" y1="214.4895" y2="214.4895"/><text fill="#000000" font-family="sans-serif" font-size="7.8" lengthAdjust="spacing" textLength="106.2" x="828.3" y="211.3318">FindByEmailAsync(userEmail)</text><polygon fill="#181818" points="830.7,230.8641,824.7,233.2641,830.7,235.6641,828.3,233.2641" style="stroke:#181818;stroke-width:0.6;"/><line style="stroke:#181818;stroke-width:0.6;stroke-dasharray:2.0,2.0;" x1="827.1" x2="944.1" y1="233.2641" y2="233.2641"/><text fill="#000000" font-family="sans-serif" font-size="7.8" lengthAdjust="spacing" textLength="15" x="834.3" y="230.1064">user</text><polygon fill="#181818" points="707.1,249.6387,701.1,252.0387,707.1,254.4387,704.7,252.0387" style="stroke:#181818;stroke-width:0.6;"/><line style="stroke:#181818;stroke-width:0.6;stroke-dasharray:2.0,2.0;" x1="703.5" x2="820.5" y1="252.0387" y2="252.0387"/><text fill="#000000" font-family="sans-serif" font-size="7.8" lengthAdjust="spacing" textLength="15" x="710.7" y="248.8811">user</text><polygon fill="#181818" points="1009.5,268.4133,1015.5,270.8133,1009.5,273.2133,1011.9,270.8133" style="stroke:#181818;stroke-width:0.6;"/><line style="stroke:#181818;stroke-width:0.6;" x1="700.5" x2="1013.1" y1="270.8133" y2="270.8133"/><text fill="#000000" font-family="sans-serif" font-size="7.8" lengthAdjust="spacing" textLength="133.2" x="704.7" y="267.6557">FindStaffWithUserId(user.Id.ToString())</text><polygon fill="#181818" points="707.1,287.1879,701.1,289.5879,707.1,291.9879,704.7,289.5879" style="stroke:#181818;stroke-width:0.6;"/><line style="stroke:#181818;stroke-width:0.6;stroke-dasharray:2.0,2.0;" x1="703.5" x2="1019.1" y1="289.5879" y2="289.5879"/><text fill="#000000" font-family="sans-serif" font-size="7.8" lengthAdjust="spacing" textLength="14.4" x="710.7" y="286.4303">staff</text><polygon fill="#181818" points="1110.6,305.9625,1116.6,308.3625,1110.6,310.7625,1113,308.3625" style="stroke:#181818;stroke-width:0.6;"/><line style="stroke:#181818;stroke-width:0.6;" x1="700.5" x2="1114.2" y1="308.3625" y2="308.3625"/><text fill="#000000" font-family="sans-serif" font-size="7.8" lengthAdjust="spacing" textLength="148.2" x="704.7" y="305.2049">GetAllFromDoctorAsync(staff.Id.ToString())</text><polygon fill="#181818" points="707.1,324.7371,701.1,327.1371,707.1,329.5371,704.7,327.1371" style="stroke:#181818;stroke-width:0.6;"/><line style="stroke:#181818;stroke-width:0.6;stroke-dasharray:2.0,2.0;" x1="703.5" x2="1120.2" y1="327.1371" y2="327.1371"/><text fill="#000000" font-family="sans-serif" font-size="7.8" lengthAdjust="spacing" textLength="51" x="710.7" y="323.9795">listOfRequests</text><polygon fill="#181818" points="1180.2,333.1371,1186.2,335.5371,1180.2,337.9371,1182.6,335.5371" style="stroke:#181818;stroke-width:0.6;"/><line style="stroke:#181818;stroke-width:0.6;" x1="700.5" x2="1183.8" y1="335.5371" y2="335.5371"/><rect fill="#E2E2F0" height="30.7453" rx="1.5" ry="1.5" style="stroke:#181818;stroke-width:0.3;" width="111.6" x="1187.4" y="331.9371"/><text fill="#000000" font-family="sans-serif" font-size="8.4" lengthAdjust="spacing" textLength="27.6" x="1229.4" y="345.2016">&#171;DTO&#187;</text><text fill="#000000" font-family="sans-serif" font-size="8.4" lengthAdjust="spacing" textLength="100.8" x="1194" y="356.3742">OperationRequestListDTO</text><path d="M637.2,373.4824 L681,373.4824 L681,379.057 L675,385.057 L637.2,385.057 L637.2,373.4824 " fill="#EEEEEE" style="stroke:#000000;stroke-width:0.8999999999999999;"/><rect fill="none" height="86.673" style="stroke:#000000;stroke-width:0.8999999999999999;" width="754.2" x="637.2" y="373.4824"/><text fill="#000000" font-family="sans-serif" font-size="7.8" font-weight="bold" lengthAdjust="spacing" textLength="16.8" x="646.2" y="382.4994">loop</text><text fill="#000000" font-family="sans-serif" font-size="6.6" font-weight="bold" lengthAdjust="spacing" textLength="141" x="690" y="381.8045">[for every OpRequest in listOfOpRequests]</text><polygon fill="#181818" points="1335,396.6316,1341,399.0316,1335,401.4316,1337.4,399.0316" style="stroke:#181818;stroke-width:0.6;"/><line style="stroke:#181818;stroke-width:0.6;" x1="700.5" x2="1338.6" y1="399.0316" y2="399.0316"/><text fill="#000000" font-family="sans-serif" font-size="7.8" lengthAdjust="spacing" textLength="27" x="704.7" y="395.874">toDTO()</text><polygon fill="#181818" points="707.1,415.4063,701.1,417.8063,707.1,420.2063,704.7,417.8063" style="stroke:#181818;stroke-width:0.6;"/><line style="stroke:#181818;stroke-width:0.6;stroke-dasharray:2.0,2.0;" x1="703.5" x2="1344.6" y1="417.8063" y2="417.8063"/><text fill="#000000" font-family="sans-serif" font-size="7.8" lengthAdjust="spacing" textLength="63.6" x="710.7" y="414.6486">OpRequestListDto</text><polygon fill="#181818" points="1233,434.1809,1239,436.5809,1233,438.9809,1235.4,436.5809" style="stroke:#181818;stroke-width:0.6;"/><line style="stroke:#181818;stroke-width:0.6;" x1="700.5" x2="1236.6" y1="436.5809" y2="436.5809"/><text fill="#000000" font-family="sans-serif" font-size="7.8" lengthAdjust="spacing" textLength="78" x="704.7" y="433.4232">listAdd(opRequestDto)</text><polygon fill="#181818" points="707.1,452.9555,701.1,455.3555,707.1,457.7555,704.7,455.3555" style="stroke:#181818;stroke-width:0.6;"/><line style="stroke:#181818;stroke-width:0.6;stroke-dasharray:2.0,2.0;" x1="703.5" x2="1242.6" y1="455.3555" y2="455.3555"/><text fill="#000000" font-family="sans-serif" font-size="7.8" lengthAdjust="spacing" textLength="19.8" x="710.7" y="452.1979">return</text><polygon fill="#181818" points="247.8,475.9301,241.8,478.3301,247.8,480.7301,245.4,478.3301" style="stroke:#181818;stroke-width:0.6;"/><line style="stroke:#181818;stroke-width:0.6;stroke-dasharray:2.0,2.0;" x1="244.2" x2="696.9" y1="478.3301" y2="478.3301"/><text fill="#000000" font-family="sans-serif" font-size="7.8" lengthAdjust="spacing" textLength="65.4" x="251.4" y="475.1725">opRequestListDTO</text><line style="stroke:#181818;stroke-width:0.6;" x1="241.2" x2="266.4" y1="497.1047" y2="497.1047"/><line style="stroke:#181818;stroke-width:0.6;" x1="266.4" x2="266.4" y1="497.1047" y2="504.9047"/><line style="stroke:#181818;stroke-width:0.6;" x1="241.8" x2="266.4" y1="504.9047" y2="504.9047"/><polygon fill="#181818" points="247.8,502.5047,241.8,504.9047,247.8,507.3047,245.4,504.9047" style="stroke:#181818;stroke-width:0.6;"/><text fill="#000000" font-family="sans-serif" font-size="7.8" lengthAdjust="spacing" textLength="80.4" x="245.4" y="493.9471">Ok(opRequestListDTO)</text><polygon fill="#181818" points="78,521.2793,72,523.6793,78,526.0793,75.6,523.6793" style="stroke:#181818;stroke-width:0.6;"/><line style="stroke:#181818;stroke-width:0.6;stroke-dasharray:2.0,2.0;" x1="74.4" x2="237.6" y1="523.6793" y2="523.6793"/><text fill="#000000" font-family="sans-serif" font-size="7.8" lengthAdjust="spacing" textLength="14.4" x="81.6" y="520.5217">json</text><polygon fill="#181818" points="6.6,547.0412,0.6,549.4412,6.6,551.8412,4.2,549.4412" style="stroke:#181818;stroke-width:0.6;"/><line style="stroke:#181818;stroke-width:0.6;stroke-dasharray:2.0,2.0;" x1="3" x2="67.8" y1="549.4412" y2="549.4412"/><text fill="#000000" font-family="sans-serif" font-size="7.8" lengthAdjust="spacing" textLength="14.4" x="10.2" y="546.2836">json</text><path d="M74.4,531.4793 L74.4,557.8793 L135.6,557.8793 L135.6,537.4793 L129.6,531.4793 L74.4,531.4793 " fill="#FEFFDD" style="stroke:#181818;stroke-width:0.3;"/><path d="M129.6,531.4793 L129.6,537.4793 L135.6,537.4793 L129.6,531.4793 " fill="#FEFFDD" style="stroke:#181818;stroke-width:0.3;"/><text fill="#000000" font-family="sans-serif" font-size="7.8" lengthAdjust="spacing" textLength="48.6" x="78" y="542.8963">after choosing</text><text fill="#000000" font-family="sans-serif" font-size="7.8" lengthAdjust="spacing" textLength="32.4" x="80.4" y="553.2709">a request</text><ellipse cx="4.5" cy="581.7404" fill="none" rx="2.4" ry="2.4" style="stroke:#181818;stroke-width:0.8999999999999999;"/><polygon fill="#181818" points="58.2,579.7904,64.2,582.1904,58.2,584.5904,60.6,582.1904" style="stroke:#181818;stroke-width:0.6;"/><line style="stroke:#181818;stroke-width:0.6;" x1="7.2" x2="61.8" y1="582.1904" y2="582.1904"/><text fill="#000000" font-family="sans-serif" font-size="7.8" lengthAdjust="spacing" textLength="49.2" x="9" y="579.0328">DELETE(json)</text><path d="M74.4,564.2285 L74.4,590.6285 L144.6,590.6285 L144.6,570.2285 L138.6,564.2285 L74.4,564.2285 " fill="#FEFFDD" style="stroke:#181818;stroke-width:0.3;"/><path d="M138.6,564.2285 L138.6,570.2285 L144.6,570.2285 L138.6,564.2285 " fill="#FEFFDD" style="stroke:#181818;stroke-width:0.3;"/><text fill="#000000" font-family="sans-serif" font-size="7.8" lengthAdjust="spacing" textLength="40.8" x="78" y="575.6455">after getting</text><text fill="#000000" font-family="sans-serif" font-size="7.8" lengthAdjust="spacing" textLength="55.2" x="80.4" y="586.0201">the confirmation</text><polygon fill="#181818" points="228,605.5523,234,607.9523,228,610.3523,230.4,607.9523" style="stroke:#181818;stroke-width:0.6;"/><line style="stroke:#181818;stroke-width:0.6;" x1="71.4" x2="231.6" y1="607.9523" y2="607.9523"/><text fill="#000000" font-family="sans-serif" font-size="7.8" lengthAdjust="spacing" textLength="103.8" x="75.6" y="604.7947">DeleteOperationRequest(json)</text><polygon fill="#181818" points="448.8,624.327,454.8,626.727,448.8,629.127,451.2,626.727" style="stroke:#181818;stroke-width:0.6;"/><line style="stroke:#181818;stroke-width:0.6;" x1="241.2" x2="452.4" y1="626.727" y2="626.727"/><text fill="#000000" font-family="sans-serif" font-size="7.8" lengthAdjust="spacing" textLength="41.4" x="245.4" y="623.5693">toDTO(json)</text><rect fill="#E2E2F0" height="30.7453" rx="1.5" ry="1.5" style="stroke:#181818;stroke-width:0.3;" width="49.2" x="456" y="612.7523"/><text fill="#000000" font-family="sans-serif" font-size="8.4" lengthAdjust="spacing" textLength="27.6" x="466.8" y="626.0168">&#171;DTO&#187;</text><text fill="#000000" font-family="sans-serif" font-size="8.4" lengthAdjust="spacing" textLength="38.4" x="462.6" y="637.1895">IdPassDto</text><line style="stroke:#181818;stroke-width:0.6;" x1="241.2" x2="266.4" y1="674.4469" y2="674.4469"/><line style="stroke:#181818;stroke-width:0.6;" x1="266.4" x2="266.4" y1="674.4469" y2="682.2469"/><line style="stroke:#181818;stroke-width:0.6;" x1="241.8" x2="266.4" y1="682.2469" y2="682.2469"/><polygon fill="#181818" points="247.8,679.8469,241.8,682.2469,247.8,684.6469,245.4,682.2469" style="stroke:#181818;stroke-width:0.6;"/><text fill="#000000" font-family="sans-serif" font-size="7.8" lengthAdjust="spacing" textLength="67.8" x="245.4" y="660.9146">string? userEmail =</text><text fill="#000000" font-family="sans-serif" font-size="7.8" lengthAdjust="spacing" textLength="136.8" x="245.4" y="671.2893">User.FindFirstValue(ClaimTypes.Email)</text><polygon fill="#181818" points="687.3,698.6215,693.3,701.0215,687.3,703.4215,689.7,701.0215" style="stroke:#181818;stroke-width:0.6;"/><line style="stroke:#181818;stroke-width:0.6;" x1="241.2" x2="690.9" y1="701.0215" y2="701.0215"/><text fill="#000000" font-family="sans-serif" font-size="7.8" lengthAdjust="spacing" textLength="165" x="245.4" y="697.8639">DeleteOperationRequest(idPassDto, userEmail)</text><polygon fill="#181818" points="810.9,717.3961,816.9,719.7961,810.9,722.1961,813.3,719.7961" style="stroke:#181818;stroke-width:0.6;"/><line style="stroke:#181818;stroke-width:0.6;" x1="700.5" x2="814.5" y1="719.7961" y2="719.7961"/><text fill="#000000" font-family="sans-serif" font-size="7.8" lengthAdjust="spacing" textLength="106.2" x="704.7" y="716.6385">FindByEmailAsync(userEmail)</text><polygon fill="#181818" points="934.5,736.1707,940.5,738.5707,934.5,740.9707,936.9,738.5707" style="stroke:#181818;stroke-width:0.6;"/><line style="stroke:#181818;stroke-width:0.6;" x1="824.1" x2="938.1" y1="738.5707" y2="738.5707"/><text fill="#000000" font-family="sans-serif" font-size="7.8" lengthAdjust="spacing" textLength="106.2" x="828.3" y="735.4131">FindByEmailAsync(userEmail)</text><polygon fill="#181818" points="830.7,754.9453,824.7,757.3453,830.7,759.7453,828.3,757.3453" style="stroke:#181818;stroke-width:0.6;"/><line style="stroke:#181818;stroke-width:0.6;stroke-dasharray:2.0,2.0;" x1="827.1" x2="944.1" y1="757.3453" y2="757.3453"/><text fill="#000000" font-family="sans-serif" font-size="7.8" lengthAdjust="spacing" textLength="15" x="834.3" y="754.1877">user</text><polygon fill="#181818" points="707.1,773.7199,701.1,776.1199,707.1,778.5199,704.7,776.1199" style="stroke:#181818;stroke-width:0.6;"/><line style="stroke:#181818;stroke-width:0.6;stroke-dasharray:2.0,2.0;" x1="703.5" x2="820.5" y1="776.1199" y2="776.1199"/><text fill="#000000" font-family="sans-serif" font-size="7.8" lengthAdjust="spacing" textLength="15" x="710.7" y="772.9623">user</text><polygon fill="#181818" points="1009.5,792.4945,1015.5,794.8945,1009.5,797.2945,1011.9,794.8945" style="stroke:#181818;stroke-width:0.6;"/><line style="stroke:#181818;stroke-width:0.6;" x1="700.5" x2="1013.1" y1="794.8945" y2="794.8945"/><text fill="#000000" font-family="sans-serif" font-size="7.8" lengthAdjust="spacing" textLength="133.2" x="704.7" y="791.7369">FindStaffWithUserId(user.Id.ToString())</text><polygon fill="#181818" points="707.1,811.2691,701.1,813.6691,707.1,816.0691,704.7,813.6691" style="stroke:#181818;stroke-width:0.6;"/><line style="stroke:#181818;stroke-width:0.6;stroke-dasharray:2.0,2.0;" x1="703.5" x2="1019.1" y1="813.6691" y2="813.6691"/><text fill="#000000" font-family="sans-serif" font-size="7.8" lengthAdjust="spacing" textLength="14.4" x="710.7" y="810.5115">staff</text><polygon fill="#181818" points="1110.6,830.0437,1116.6,832.4438,1110.6,834.8438,1113,832.4438" style="stroke:#181818;stroke-width:0.6;"/><line style="stroke:#181818;stroke-width:0.6;" x1="700.5" x2="1114.2" y1="832.4438" y2="832.4438"/><text fill="#000000" font-family="sans-serif" font-size="7.8" lengthAdjust="spacing" textLength="150.6" x="704.7" y="829.2861">GetByIdAsync(new OperationRequestId(id))</text><polygon fill="#181818" points="707.1,848.8184,701.1,851.2184,707.1,853.6184,704.7,851.2184" style="stroke:#181818;stroke-width:0.6;"/><line style="stroke:#181818;stroke-width:0.6;stroke-dasharray:2.0,2.0;" x1="703.5" x2="1120.2" y1="851.2184" y2="851.2184"/><text fill="#000000" font-family="sans-serif" font-size="7.8" lengthAdjust="spacing" textLength="37.2" x="710.7" y="848.0607">opRequest</text><path d="M637.2,860.2184 L673.8,860.2184 L673.8,865.793 L667.8,871.793 L637.2,871.793 L637.2,860.2184 " fill="#EEEEEE" style="stroke:#000000;stroke-width:0.8999999999999999;"/><rect fill="none" height="75.6984" style="stroke:#000000;stroke-width:0.8999999999999999;" width="550.2" x="637.2" y="860.2184"/><text fill="#000000" font-family="sans-serif" font-size="7.8" font-weight="bold" lengthAdjust="spacing" textLength="9.6" x="646.2" y="869.2354">alt</text><text fill="#000000" font-family="sans-serif" font-size="6.6" font-weight="bold" lengthAdjust="spacing" textLength="222.6" x="682.8" y="868.5404">[If status is "Requested", opRequestId matches and is from doctor]</text><polygon fill="#181818" points="1110.6,883.3676,1116.6,885.7676,1110.6,888.1676,1113,885.7676" style="stroke:#181818;stroke-width:0.6;"/><line style="stroke:#181818;stroke-width:0.6;" x1="700.5" x2="1114.2" y1="885.7676" y2="885.7676"/><text fill="#000000" font-family="sans-serif" font-size="7.8" lengthAdjust="spacing" textLength="69.6" x="704.7" y="882.61">Remove(opRequest)</text><polygon fill="#181818" points="707.1,902.1422,701.1,904.5422,707.1,906.9422,704.7,904.5422" style="stroke:#181818;stroke-width:0.6;"/><line style="stroke:#181818;stroke-width:0.6;stroke-dasharray:2.0,2.0;" x1="703.5" x2="1120.2" y1="904.5422" y2="904.5422"/><text fill="#000000" font-family="sans-serif" font-size="7.8" lengthAdjust="spacing" textLength="37.2" x="710.7" y="901.3846">opRequest</text><line style="stroke:#181818;stroke-width:0.6;" x1="700.5" x2="725.7" y1="923.3168" y2="923.3168"/><line style="stroke:#181818;stroke-width:0.6;" x1="725.7" x2="725.7" y1="923.3168" y2="931.1168"/><line style="stroke:#181818;stroke-width:0.6;" x1="701.1" x2="725.7" y1="931.1168" y2="931.1168"/><polygon fill="#181818" points="707.1,928.7168,701.1,931.1168,707.1,933.5168,704.7,931.1168" style="stroke:#181818;stroke-width:0.6;"/><text fill="#000000" font-family="sans-serif" font-size="7.8" lengthAdjust="spacing" textLength="54" x="704.7" y="920.1592">CommitAsync()</text><polygon fill="#181818" points="247.8,951.6914,241.8,954.0914,247.8,956.4914,245.4,954.0914" style="stroke:#181818;stroke-width:0.6;"/><line style="stroke:#181818;stroke-width:0.6;stroke-dasharray:2.0,2.0;" x1="244.2" x2="696.9" y1="954.0914" y2="954.0914"/><text fill="#000000" font-family="sans-serif" font-size="7.8" lengthAdjust="spacing" textLength="13.2" x="251.4" y="950.9338">true</text><line style="stroke:#181818;stroke-width:0.6;stroke-dasharray:2.0,2.0;" x1="241.2" x2="266.4" y1="972.866" y2="972.866"/><line style="stroke:#181818;stroke-width:0.6;stroke-dasharray:2.0,2.0;" x1="266.4" x2="266.4" y1="972.866" y2="980.666"/><line style="stroke:#181818;stroke-width:0.6;stroke-dasharray:2.0,2.0;" x1="241.8" x2="266.4" y1="980.666" y2="980.666"/><polygon fill="#181818" points="247.8,978.266,241.8,980.666,247.8,983.066,245.4,980.666" style="stroke:#181818;stroke-width:0.6;"/><text fill="#000000" font-family="sans-serif" font-size="7.8" lengthAdjust="spacing" textLength="162" x="245.4" y="969.7084">Ok("Operation request successfully removed.")</text><polygon fill="#181818" points="78,997.0406,72,999.4406,78,1001.8406,75.6,999.4406" style="stroke:#181818;stroke-width:0.6;"/><line style="stroke:#181818;stroke-width:0.6;stroke-dasharray:2.0,2.0;" x1="74.4" x2="237.6" y1="999.4406" y2="999.4406"/><text fill="#000000" font-family="sans-serif" font-size="7.8" lengthAdjust="spacing" textLength="14.4" x="81.6" y="996.283">json</text><polygon fill="#181818" points="6.6,1015.8152,0.6,1018.2152,6.6,1020.6152,4.2,1018.2152" style="stroke:#181818;stroke-width:0.6;"/><line style="stroke:#181818;stroke-width:0.6;stroke-dasharray:2.0,2.0;" x1="3" x2="67.8" y1="1018.2152" y2="1018.2152"/><text fill="#000000" font-family="sans-serif" font-size="7.8" lengthAdjust="spacing" textLength="14.4" x="10.2" y="1015.0576">json</text><ellipse cx="4.5" cy="1036.5398" fill="none" rx="2.4" ry="2.4" style="stroke:#181818;stroke-width:0.8999999999999999;"/><polygon fill="#181818" points="58.2,1034.5898,64.2,1036.9898,58.2,1039.3898,60.6,1036.9898" style="stroke:#181818;stroke-width:0.6;"/><line style="stroke:#181818;stroke-width:0.6;" x1="7.2" x2="61.8" y1="1036.9898" y2="1036.9898"/><text fill="#000000" font-family="sans-serif" font-size="7.8" lengthAdjust="spacing" textLength="49.2" x="9" y="1033.8322">DELETE(json)</text><polygon fill="#181818" points="228,1053.3645,234,1055.7645,228,1058.1645,230.4,1055.7645" style="stroke:#181818;stroke-width:0.6;"/><line style="stroke:#181818;stroke-width:0.6;" x1="71.4" x2="231.6" y1="1055.7645" y2="1055.7645"/><text fill="#000000" font-family="sans-serif" font-size="7.8" lengthAdjust="spacing" textLength="152.4" x="75.6" y="1052.6068">DeleteOperationRequestFromPatient(JSON)</text><polygon fill="#181818" points="504,1072.1391,510,1074.5391,504,1076.9391,506.4,1074.5391" style="stroke:#181818;stroke-width:0.6;"/><line style="stroke:#181818;stroke-width:0.6;" x1="241.2" x2="507.6" y1="1074.5391" y2="1074.5391"/><text fill="#000000" font-family="sans-serif" font-size="7.8" lengthAdjust="spacing" textLength="43.8" x="245.4" y="1071.3814">toDto(JSON)</text><rect fill="#E2E2F0" height="30.7453" rx="1.5" ry="1.5" style="stroke:#181818;stroke-width:0.3;" width="126" x="511.2" y="1060.5645"/><text fill="#000000" font-family="sans-serif" font-size="8.4" lengthAdjust="spacing" textLength="27.6" x="560.4" y="1073.8289">&#171;DTO&#187;</text><text fill="#000000" font-family="sans-serif" font-size="8.4" lengthAdjust="spacing" textLength="115.2" x="517.8" y="1085.0016">AddOrRemoveFromPatientDto</text><polygon fill="#181818" points="687.3,1140.6082,693.3,1143.0082,687.3,1145.4082,689.7,1143.0082" style="stroke:#181818;stroke-width:0.6;"/><line style="stroke:#181818;stroke-width:0.6;" x1="241.2" x2="690.9" y1="1143.0082" y2="1143.0082"/><text fill="#000000" font-family="sans-serif" font-size="7.8" lengthAdjust="spacing" textLength="129.6" x="245.4" y="1108.7268">DeleteOperationRequestFromPatient(</text><text fill="#000000" font-family="sans-serif" font-size="7.8" lengthAdjust="spacing" textLength="120.6" x="245.4" y="1119.1014">removingFromPatientDto.PatientId,</text><text fill="#000000" font-family="sans-serif" font-size="7.8" lengthAdjust="spacing" textLength="158.4" x="245.4" y="1129.476">removingFromPatientDto.OperationRequestId,</text><text fill="#000000" font-family="sans-serif" font-size="7.8" lengthAdjust="spacing" textLength="139.2" x="245.4" y="1139.8506">User.FindFirstValue(ClaimTypes.Email))</text><polygon fill="#181818" points="810.9,1159.3828,816.9,1161.7828,810.9,1164.1828,813.3,1161.7828" style="stroke:#181818;stroke-width:0.6;"/><line style="stroke:#181818;stroke-width:0.6;" x1="700.5" x2="814.5" y1="1161.7828" y2="1161.7828"/><text fill="#000000" font-family="sans-serif" font-size="7.8" lengthAdjust="spacing" textLength="106.2" x="704.7" y="1158.6252">FindByEmailAsync(userEmail)</text><polygon fill="#181818" points="934.5,1178.1574,940.5,1180.5574,934.5,1182.9574,936.9,1180.5574" style="stroke:#181818;stroke-width:0.6;"/><line style="stroke:#181818;stroke-width:0.6;" x1="824.1" x2="938.1" y1="1180.5574" y2="1180.5574"/><text fill="#000000" font-family="sans-serif" font-size="7.8" lengthAdjust="spacing" textLength="106.2" x="828.3" y="1177.3998">FindByEmailAsync(userEmail)</text><polygon fill="#181818" points="830.7,1196.932,824.7,1199.332,830.7,1201.732,828.3,1199.332" style="stroke:#181818;stroke-width:0.6;"/><line style="stroke:#181818;stroke-width:0.6;stroke-dasharray:2.0,2.0;" x1="827.1" x2="944.1" y1="1199.332" y2="1199.332"/><text fill="#000000" font-family="sans-serif" font-size="7.8" lengthAdjust="spacing" textLength="15" x="834.3" y="1196.1744">user</text><polygon fill="#181818" points="707.1,1215.7066,701.1,1218.1066,707.1,1220.5066,704.7,1218.1066" style="stroke:#181818;stroke-width:0.6;"/><line style="stroke:#181818;stroke-width:0.6;stroke-dasharray:2.0,2.0;" x1="703.5" x2="820.5" y1="1218.1066" y2="1218.1066"/><text fill="#000000" font-family="sans-serif" font-size="7.8" lengthAdjust="spacing" textLength="15" x="710.7" y="1214.949">user</text><polygon fill="#181818" points="1009.5,1234.4813,1015.5,1236.8813,1009.5,1239.2813,1011.9,1236.8813" style="stroke:#181818;stroke-width:0.6;"/><line style="stroke:#181818;stroke-width:0.6;" x1="700.5" x2="1013.1" y1="1236.8813" y2="1236.8813"/><text fill="#000000" font-family="sans-serif" font-size="7.8" lengthAdjust="spacing" textLength="133.2" x="704.7" y="1233.7236">FindStaffWithUserId(user.Id.ToString())</text><polygon fill="#181818" points="707.1,1253.2559,701.1,1255.6559,707.1,1258.0559,704.7,1255.6559" style="stroke:#181818;stroke-width:0.6;"/><line style="stroke:#181818;stroke-width:0.6;stroke-dasharray:2.0,2.0;" x1="703.5" x2="1019.1" y1="1255.6559" y2="1255.6559"/><text fill="#000000" font-family="sans-serif" font-size="7.8" lengthAdjust="spacing" textLength="14.4" x="710.7" y="1252.4982">staff</text><polygon fill="#181818" points="1420.2,1272.0305,1426.2,1274.4305,1420.2,1276.8305,1422.6,1274.4305" style="stroke:#181818;stroke-width:0.6;"/><line style="stroke:#181818;stroke-width:0.6;" x1="700.5" x2="1423.8" y1="1274.4305" y2="1274.4305"/><text fill="#000000" font-family="sans-serif" font-size="7.8" lengthAdjust="spacing" textLength="184.2" x="704.7" y="1271.2729">GetByIdAsync(new MedicalRecordNumber(patientId))</text><polygon fill="#181818" points="707.1,1290.8051,701.1,1293.2051,707.1,1295.6051,704.7,1293.2051" style="stroke:#181818;stroke-width:0.6;"/><line style="stroke:#181818;stroke-width:0.6;stroke-dasharray:2.0,2.0;" x1="703.5" x2="1429.8" y1="1293.2051" y2="1293.2051"/><text fill="#000000" font-family="sans-serif" font-size="7.8" lengthAdjust="spacing" textLength="23.4" x="710.7" y="1290.0475">patient</text><polygon fill="#181818" points="1488.6,1309.5797,1494.6,1311.9797,1488.6,1314.3797,1491,1311.9797" style="stroke:#181818;stroke-width:0.6;"/><line style="stroke:#181818;stroke-width:0.6;" x1="700.5" x2="1492.2" y1="1311.9797" y2="1311.9797"/><text fill="#000000" font-family="sans-serif" font-size="7.8" lengthAdjust="spacing" textLength="259.8" x="704.7" y="1308.8221">RemoveRequestFromHistory(new OperationRequestId(operationRequestId))</text><line style="stroke:#181818;stroke-width:0.6;" x1="700.5" x2="725.7" y1="1348.7543" y2="1348.7543"/><line style="stroke:#181818;stroke-width:0.6;" x1="725.7" x2="725.7" y1="1348.7543" y2="1356.5543"/><line style="stroke:#181818;stroke-width:0.6;" x1="701.1" x2="725.7" y1="1356.5543" y2="1356.5543"/><polygon fill="#181818" points="707.1,1354.1543,701.1,1356.5543,707.1,1358.9543,704.7,1356.5543" style="stroke:#181818;stroke-width:0.6;"/><text fill="#000000" font-family="sans-serif" font-size="7.8" lengthAdjust="spacing" textLength="54" x="704.7" y="1345.5967">CommitAsync()</text><polygon fill="#181818" points="247.8,1372.9289,241.8,1375.3289,247.8,1377.7289,245.4,1375.3289" style="stroke:#181818;stroke-width:0.6;"/><line style="stroke:#181818;stroke-width:0.6;stroke-dasharray:2.0,2.0;" x1="244.2" x2="696.9" y1="1375.3289" y2="1375.3289"/><text fill="#000000" font-family="sans-serif" font-size="7.8" lengthAdjust="spacing" textLength="13.2" x="251.4" y="1372.1713">true</text><line style="stroke:#181818;stroke-width:0.6;stroke-dasharray:2.0,2.0;" x1="241.2" x2="266.4" y1="1394.1035" y2="1394.1035"/><line style="stroke:#181818;stroke-width:0.6;stroke-dasharray:2.0,2.0;" x1="266.4" x2="266.4" y1="1394.1035" y2="1401.9035"/><line style="stroke:#181818;stroke-width:0.6;stroke-dasharray:2.0,2.0;" x1="241.8" x2="266.4" y1="1401.9035" y2="1401.9035"/><polygon fill="#181818" points="247.8,1399.5035,241.8,1401.9035,247.8,1404.3035,245.4,1401.9035" style="stroke:#181818;stroke-width:0.6;"/><text fill="#000000" font-family="sans-serif" font-size="7.8" lengthAdjust="spacing" textLength="228" x="245.4" y="1390.9459">Ok("Operation request successfully removed from patient profile.")</text><polygon fill="#181818" points="78,1418.2781,72,1420.6781,78,1423.0781,75.6,1420.6781" style="stroke:#181818;stroke-width:0.6;"/><line style="stroke:#181818;stroke-width:0.6;stroke-dasharray:2.0,2.0;" x1="74.4" x2="234.6" y1="1420.6781" y2="1420.6781"/><text fill="#000000" font-family="sans-serif" font-size="7.8" lengthAdjust="spacing" textLength="14.4" x="81.6" y="1417.5205">json</text><polygon fill="#181818" points="6.6,1437.0527,0.6,1439.4527,6.6,1441.8527,4.2,1439.4527" style="stroke:#181818;stroke-width:0.6;"/><line style="stroke:#181818;stroke-width:0.6;stroke-dasharray:2.0,2.0;" x1="3" x2="67.8" y1="1439.4527" y2="1439.4527"/><text fill="#000000" font-family="sans-serif" font-size="7.8" lengthAdjust="spacing" textLength="14.4" x="10.2" y="1436.2951">json</text><!--SRC=[xPTDR-Cs48Rl-XM4Jr8G2-WMs4EHpSA9vTQ54ncoaXwQYofICRiqwP9K2l_xaXGbKL-EiGNQFUnDbkQTUKNEF1ObbWI1sTCEV0m_X3zy3C6Minm90Pun-XlCmSFoBik_iAB0EGB-1hqX0duCPfvtpBZ4EJvcL8BPpKt2IebkRryeY8-8Pn8pcg2_IYIaUJ83cG19_9H6VU4zev8pGX0VLRUFJOhx-35Duaq_oJADZNeDjvaGIybCSBnDefrwD1MzW33c2JgmDxJYxB1LTH6LjJg97kBdIFtgotU8lwdL6BLhdva4koXvFgTz4eYxyKzAe7yFbXOTcS2IyLCZQsyrIdth7ULEPaNHa-xInMfrWNQmgzqqIRITNEQ-T8E5LC-CRhFUfMCxn0uPfgFgTcVVSMotisTqE-gqBMTLLUmYzRpVsVoswbpm4_WvIlq_1QE1Hvb4WEFNlLItNv6KcBu2kKVWXHBrVe0LwYeZ1F3Ajl2yHIxnMwParHnuLLALtJQrpe_aWX3TZ4kMAyz-uCZgtlVg-8vKIAuiV0QbQez8lGu1drwexfLmXIbSOIxaSqPAvD-J31_Iqn69qCG5dOIwQSUCD6c3rf1fSCyebB9kNwNM5UzE9dmXJZGVLJVjtWXj4hrZxoJ9t2GctckkvbqlMkL1D50uPTlN7WisCUrhDWDZBPgX-WtBlLxhDJGkmpKCKxOpE-87ZjrMxBMNJdsXaxa6sl5i3EW67jcXQerCWidoflUDtgcfspKkahfDdU8clAbhH_NgoYEC7K71E53_1loa9jIA0QOsMtDBD78piggSP2g9xvYgPhbwxDXgKXXSA0exnYf9pvXz5GLrdzLQfNCgrR2f1KurZcJ9gLkZ3aOKrclGcJTsxEBCMpgxPWPZT4pZBtvVwGwWmnhD6JTfFVutytatnWsoQEdGAIiauY3VCyL1-geObzLGwj5j6MsYD1e3N9N2OavbqA3B6IqmFnWsNmIt9I98eZxFRRdpcAl_oQ-kcWwoil-0XHE-SVsjSGs-m_7RW-FTQGshfQ7gGxQ_UyeBXk-YiPdK8HKp8i6wq9vaAG0MO6P34PnTjy8r16f2yZqI8ADGnnMAs00QPFTTLv-YBH- -tbwp7rNWFJiSiAnM8vWackGbwYolxc2NJ1sApPebhMa2H9dheqDH4d9ID_NBm70MJDCD3kasn1iSq6qQMbzD8UVxt_zr5py6vtdKd0rg84bcPHVpmwtuGirggO7edaD2Uxc6rvCXmyw-lf1rxkXzXzN_0Alj5AqU4CHvHXAKCmuVoyCVYFl7kXLS5zLfPji7Wurros-x7tFgQDC0nsd8NzGNYJefJI6J3Mu50N3SgFEIMr8VdywIw588_MiALTIromAEd1MOeBDeke13_m00]--></g></svg>