<?xml version="1.0" encoding="us-ascii" standalone="no"?><svg xmlns="http://www.w3.org/2000/svg" xmlns:xlink="http://www.w3.org/1999/xlink" contentStyleType="text/css" height="366px" preserveAspectRatio="none" style="width:532px;height:366px;background:#FFFFFF;" version="1.1" viewBox="0 0 532 366" width="532px" zoomAndPan="magnify"><defs/><g><text fill="#000000" font-family="sans-serif" font-size="14" font-weight="bold" lengthAdjust="spacing" textLength="254" x="141" y="30.1074">US 5.1.5 - System Sequence Diagram</text><rect fill="#FFFFFF" height="62.582" style="stroke:#181818;stroke-width:1.0;" width="10" x="29" y="111.5332"/><rect fill="#FFFFFF" height="199.7461" style="stroke:#181818;stroke-width:1.0;" width="10" x="342" y="111.5332"/><line style="stroke:#181818;stroke-width:0.5;stroke-dasharray:5.0,5.0;" x1="34" x2="34" y1="78.2422" y2="329.2793"/><line style="stroke:#181818;stroke-width:0.5;stroke-dasharray:5.0,5.0;" x1="347" x2="347" y1="78.2422" y2="329.2793"/><rect fill="#E2E2F0" height="32.6211" rx="2.5" ry="2.5" style="stroke:#181818;stroke-width:0.5;" width="58" x="5" y="44.6211"/><text fill="#000000" font-family="sans-serif" font-size="14" lengthAdjust="spacing" textLength="44" x="12" y="66.7285">Patient</text><rect fill="#E2E2F0" height="32.6211" rx="2.5" ry="2.5" style="stroke:#181818;stroke-width:0.5;" width="58" x="5" y="328.2793"/><text fill="#000000" font-family="sans-serif" font-size="14" lengthAdjust="spacing" textLength="44" x="12" y="350.3867">Patient</text><rect fill="#E2E2F0" height="32.6211" rx="2.5" ry="2.5" style="stroke:#181818;stroke-width:0.5;" width="60" x="317" y="44.6211"/><text fill="#000000" font-family="sans-serif" font-size="14" lengthAdjust="spacing" textLength="46" x="324" y="66.7285">System</text><rect fill="#E2E2F0" height="32.6211" rx="2.5" ry="2.5" style="stroke:#181818;stroke-width:0.5;" width="60" x="317" y="328.2793"/><text fill="#000000" font-family="sans-serif" font-size="14" lengthAdjust="spacing" textLength="46" x="324" y="350.3867">System</text><rect fill="#FFFFFF" height="62.582" style="stroke:#181818;stroke-width:1.0;" width="10" x="29" y="111.5332"/><rect fill="#FFFFFF" height="199.7461" style="stroke:#181818;stroke-width:1.0;" width="10" x="342" y="111.5332"/><polygon fill="#181818" points="330,107.5332,340,111.5332,330,115.5332,334,111.5332" style="stroke:#181818;stroke-width:1.0;"/><line style="stroke:#181818;stroke-width:1.0;" x1="39" x2="336" y1="111.5332" y2="111.5332"/><text fill="#000000" font-family="sans-serif" font-size="13" font-weight="bold" lengthAdjust="spacing" textLength="7" x="46" y="106.2705">1</text><text fill="#000000" font-family="sans-serif" font-size="13" lengthAdjust="spacing" textLength="207" x="57" y="106.2705">requests the deletion of the account</text><polygon fill="#181818" points="50,138.8242,40,142.8242,50,146.8242,46,142.8242" style="stroke:#181818;stroke-width:1.0;"/><line style="stroke:#181818;stroke-width:1.0;stroke-dasharray:2.0,2.0;" x1="44" x2="341" y1="142.8242" y2="142.8242"/><text fill="#000000" font-family="sans-serif" font-size="13" font-weight="bold" lengthAdjust="spacing" textLength="7" x="56" y="137.5615">2</text><text fill="#000000" font-family="sans-serif" font-size="13" lengthAdjust="spacing" textLength="268" x="67" y="137.5615">sends confirmation email to the patient's inbox</text><polygon fill="#181818" points="330,170.1152,340,174.1152,330,178.1152,334,174.1152" style="stroke:#181818;stroke-width:1.0;"/><line style="stroke:#181818;stroke-width:1.0;" x1="34" x2="336" y1="174.1152" y2="174.1152"/><text fill="#000000" font-family="sans-serif" font-size="13" font-weight="bold" lengthAdjust="spacing" textLength="7" x="41" y="168.8525">3</text><text fill="#000000" font-family="sans-serif" font-size="13" lengthAdjust="spacing" textLength="256" x="52" y="168.8525">confirms the decision to delete their account</text><line style="stroke:#181818;stroke-width:1.0;stroke-dasharray:2.0,2.0;" x1="352" x2="394" y1="222.6973" y2="222.6973"/><line style="stroke:#181818;stroke-width:1.0;stroke-dasharray:2.0,2.0;" x1="394" x2="394" y1="222.6973" y2="235.6973"/><line style="stroke:#181818;stroke-width:1.0;stroke-dasharray:2.0,2.0;" x1="353" x2="394" y1="235.6973" y2="235.6973"/><polygon fill="#181818" points="363,231.6973,353,235.6973,363,239.6973,359,235.6973" style="stroke:#181818;stroke-width:1.0;"/><text fill="#000000" font-family="sans-serif" font-size="13" font-weight="bold" lengthAdjust="spacing" textLength="7" x="359" y="208.7891">4</text><text fill="#000000" font-family="sans-serif" font-size="13" lengthAdjust="spacing" textLength="136" x="370" y="200.1436">deletes identifiable data</text><text fill="#000000" font-family="sans-serif" font-size="13" lengthAdjust="spacing" textLength="151" x="374" y="217.4346">within the legal time frame</text><line style="stroke:#181818;stroke-width:1.0;" x1="352" x2="394" y1="284.2793" y2="284.2793"/><line style="stroke:#181818;stroke-width:1.0;" x1="394" x2="394" y1="284.2793" y2="297.2793"/><line style="stroke:#181818;stroke-width:1.0;" x1="353" x2="394" y1="297.2793" y2="297.2793"/><polygon fill="#181818" points="363,293.2793,353,297.2793,363,301.2793,359,297.2793" style="stroke:#181818;stroke-width:1.0;"/><text fill="#000000" font-family="sans-serif" font-size="13" font-weight="bold" lengthAdjust="spacing" textLength="7" x="359" y="270.3711">5</text><text fill="#000000" font-family="sans-serif" font-size="13" lengthAdjust="spacing" textLength="149" x="370" y="261.7256">registers account deletion</text><text fill="#000000" font-family="sans-serif" font-size="13" lengthAdjust="spacing" textLength="104" x="374" y="279.0166">on the system log</text><polygon fill="#FFFFFF" points="45,307.2793,35,311.2793,45,315.2793,41,311.2793" style="stroke:#FFFFFF;stroke-width:1.0;"/><line style="stroke:#FFFFFF;stroke-width:1.0;" x1="39" x2="346" y1="311.2793" y2="311.2793"/><!--SRC=[NP4zJyCm48Pt_ufJ6Jgb5KEN3fMG-06LKWO435VdafpaZs1VAFnxx3WDBLFYdEzv7xrPzo93t6-tWq4depKRxUqsqkT8JbFLC7O1hLB2OWXMBpNiDe-R7LHG_qGX2_Ly5PxBrPLIE8fteprJK6h08AnvI70ueZ2b9qOuFftkHZCiJUhNMgaqXkgGts4F8IT4YI0zGKE6XBq3tqvdrDgFJXHguIyKciZBOO9bIfLe6Rg7IAw9eBrhELYSK6IH3OYVW4EHN4TWT_RV_rpclQkBvfW1QNNoeloPmoBLq9tMOb9OPINbD2cFMyPpQhX1mNS75vQUtPHYgCDanvQWJVtIZFbhf-FKNOZNrAMYXF454KkxndUtFmUY-A70tXukFGjz78hdZNTky1S0]--></g></svg>