<?xml version="1.0" encoding="us-ascii" standalone="no"?><svg xmlns="http://www.w3.org/2000/svg" xmlns:xlink="http://www.w3.org/1999/xlink" contentStyleType="text/css" height="682.5px" preserveAspectRatio="none" style="width:986px;height:682px;background:#FFFFFF;" version="1.1" viewBox="0 0 986 682" width="986.3px" zoomAndPan="magnify"><defs/><g><text fill="#000000" font-family="sans-serif" font-size="9.8" font-weight="bold" lengthAdjust="spacing" textLength="274.4" x="357" y="21.0752">US 7.2.3 Process View (Level 3) | MDPatientManagement</text><rect fill="#FFFFFF" height="535.1705" style="stroke:#181818;stroke-width:0.6999999999999998;" width="7" x="101.5" y="91.108"/><rect fill="#FFFFFF" height="395.8445" style="stroke:#181818;stroke-width:0.6999999999999998;" width="7" x="341.95" y="156.5812"/><rect fill="#FFFFFF" height="352.0371" style="stroke:#181818;stroke-width:0.6999999999999998;" width="7" x="522.55" y="178.485"/><rect fill="#FFFFFF" height="21.9037" style="stroke:#181818;stroke-width:0.6999999999999998;" width="7" x="761.95" y="200.3887"/><rect fill="#FFFFFF" height="21" style="stroke:#181818;stroke-width:0.6999999999999998;" width="7" x="856.45" y="487.6184"/><rect fill="#FFFFFF" height="21" style="stroke:#181818;stroke-width:0.6999999999999998;" width="7" x="939.05" y="293.6035"/><rect fill="#FFFFFF" height="21" style="stroke:#181818;stroke-width:0.6999999999999998;" width="7" x="939.05" y="336.5072"/><rect fill="#FFFFFF" height="21" style="stroke:#181818;stroke-width:0.6999999999999998;" width="7" x="939.05" y="379.4109"/><rect fill="#FFFFFF" height="21" style="stroke:#181818;stroke-width:0.6999999999999998;" width="7" x="939.05" y="422.3146"/><rect fill="none" height="185.1186" style="stroke:#000000;stroke-width:1.0499999999999998;" width="512.05" x="470.05" y="263.7961"/><rect fill="none" height="68.9527" style="stroke:#000000;stroke-width:1.0499999999999998;" width="158.55" x="7.7" y="562.9258"/><line style="stroke:#181818;stroke-width:0.3499999999999999;stroke-dasharray:5.0,5.0;" x1="104.65" x2="104.65" y1="67.8043" y2="643.7785"/><line style="stroke:#181818;stroke-width:0.3499999999999999;stroke-dasharray:5.0,5.0;" x1="232.4" x2="232.4" y1="125.4928" y2="643.7785"/><line style="stroke:#181818;stroke-width:0.3499999999999999;stroke-dasharray:5.0,5.0;" x1="345.1" x2="345.1" y1="67.8043" y2="643.7785"/><line style="stroke:#181818;stroke-width:0.3499999999999999;stroke-dasharray:5.0,5.0;" x1="526.05" x2="526.05" y1="67.8043" y2="643.7785"/><line style="stroke:#181818;stroke-width:0.3499999999999999;stroke-dasharray:5.0,5.0;" x1="765.1" x2="765.1" y1="67.8043" y2="643.7785"/><line style="stroke:#181818;stroke-width:0.3499999999999999;stroke-dasharray:5.0,5.0;" x1="859.6" x2="859.6" y1="67.8043" y2="643.7785"/><line style="stroke:#181818;stroke-width:0.3499999999999999;stroke-dasharray:5.0,5.0;" x1="942.2" x2="942.2" y1="67.8043" y2="643.7785"/><rect fill="#E2E2F0" height="35.8695" rx="1.75" ry="1.75" style="stroke:#181818;stroke-width:0.3499999999999999;" width="108.5" x="50.75" y="31.2348"/><text fill="#000000" font-family="sans-serif" font-size="9.8" lengthAdjust="spacing" textLength="37.8" x="86.1" y="46.71">&#171;Route&#187;</text><text fill="#000000" font-family="sans-serif" font-size="9.8" lengthAdjust="spacing" textLength="98.7" x="55.65" y="59.7447">EditAppointmentRoute</text><rect fill="#E2E2F0" height="35.8695" rx="1.75" ry="1.75" style="stroke:#181818;stroke-width:0.3499999999999999;" width="108.5" x="50.75" y="643.0785"/><text fill="#000000" font-family="sans-serif" font-size="9.8" lengthAdjust="spacing" textLength="37.8" x="86.1" y="658.5537">&#171;Route&#187;</text><text fill="#000000" font-family="sans-serif" font-size="9.8" lengthAdjust="spacing" textLength="98.7" x="55.65" y="671.5885">EditAppointmentRoute</text><rect fill="#E2E2F0" height="35.8695" rx="1.75" ry="1.75" style="stroke:#181818;stroke-width:0.3499999999999999;" width="102.9" x="181.3" y="643.0785"/><text fill="#000000" font-family="sans-serif" font-size="9.8" lengthAdjust="spacing" textLength="26.6" x="219.45" y="658.5537">&#171;Dto&#187;</text><text fill="#000000" font-family="sans-serif" font-size="9.8" lengthAdjust="spacing" textLength="93.1" x="186.2" y="671.5885">EditAppointmentDTO</text><rect fill="#E2E2F0" height="35.8695" rx="1.75" ry="1.75" style="stroke:#181818;stroke-width:0.3499999999999999;" width="108.5" x="291.2" y="31.2348"/><text fill="#000000" font-family="sans-serif" font-size="9.8" lengthAdjust="spacing" textLength="54.6" x="318.15" y="46.71">&#171;Controller&#187;</text><text fill="#000000" font-family="sans-serif" font-size="9.8" lengthAdjust="spacing" textLength="98.7" x="296.1" y="59.7447">AppointmentController</text><rect fill="#E2E2F0" height="35.8695" rx="1.75" ry="1.75" style="stroke:#181818;stroke-width:0.3499999999999999;" width="108.5" x="291.2" y="643.0785"/><text fill="#000000" font-family="sans-serif" font-size="9.8" lengthAdjust="spacing" textLength="54.6" x="318.15" y="658.5537">&#171;Controller&#187;</text><text fill="#000000" font-family="sans-serif" font-size="9.8" lengthAdjust="spacing" textLength="98.7" x="296.1" y="671.5885">AppointmentController</text><rect fill="#E2E2F0" height="35.8695" rx="1.75" ry="1.75" style="stroke:#181818;stroke-width:0.3499999999999999;" width="98" x="477.05" y="31.2348"/><text fill="#000000" font-family="sans-serif" font-size="9.8" lengthAdjust="spacing" textLength="44.1" x="504" y="46.71">&#171;Service&#187;</text><text fill="#000000" font-family="sans-serif" font-size="9.8" lengthAdjust="spacing" textLength="88.2" x="481.95" y="59.7447">AppointmentService</text><rect fill="#E2E2F0" height="35.8695" rx="1.75" ry="1.75" style="stroke:#181818;stroke-width:0.3499999999999999;" width="98" x="477.05" y="643.0785"/><text fill="#000000" font-family="sans-serif" font-size="9.8" lengthAdjust="spacing" textLength="44.1" x="504" y="658.5537">&#171;Service&#187;</text><text fill="#000000" font-family="sans-serif" font-size="9.8" lengthAdjust="spacing" textLength="88.2" x="481.95" y="671.5885">AppointmentService</text><rect fill="#E2E2F0" height="35.8695" rx="1.75" ry="1.75" style="stroke:#181818;stroke-width:0.3499999999999999;" width="88.9" x="721" y="31.2348"/><text fill="#000000" font-family="sans-serif" font-size="9.8" lengthAdjust="spacing" textLength="35" x="747.95" y="46.71">&#171;Repo&#187;</text><text fill="#000000" font-family="sans-serif" font-size="9.8" lengthAdjust="spacing" textLength="79.1" x="725.9" y="59.7447">AppointmentRepo</text><rect fill="#E2E2F0" height="35.8695" rx="1.75" ry="1.75" style="stroke:#181818;stroke-width:0.3499999999999999;" width="88.9" x="721" y="643.0785"/><text fill="#000000" font-family="sans-serif" font-size="9.8" lengthAdjust="spacing" textLength="35" x="747.95" y="658.5537">&#171;Repo&#187;</text><text fill="#000000" font-family="sans-serif" font-size="9.8" lengthAdjust="spacing" textLength="79.1" x="725.9" y="671.5885">AppointmentRepo</text><rect fill="#E2E2F0" height="35.8695" rx="1.75" ry="1.75" style="stroke:#181818;stroke-width:0.3499999999999999;" width="86.1" x="816.9" y="31.2348"/><text fill="#000000" font-family="sans-serif" font-size="9.8" lengthAdjust="spacing" textLength="26.6" x="846.65" y="46.71">&#171;Dto&#187;</text><text fill="#000000" font-family="sans-serif" font-size="9.8" lengthAdjust="spacing" textLength="76.3" x="821.8" y="59.7447">AppointmentDTO</text><rect fill="#E2E2F0" height="35.8695" rx="1.75" ry="1.75" style="stroke:#181818;stroke-width:0.3499999999999999;" width="86.1" x="816.9" y="643.0785"/><text fill="#000000" font-family="sans-serif" font-size="9.8" lengthAdjust="spacing" textLength="26.6" x="846.65" y="658.5537">&#171;Dto&#187;</text><text fill="#000000" font-family="sans-serif" font-size="9.8" lengthAdjust="spacing" textLength="76.3" x="821.8" y="671.5885">AppointmentDTO</text><rect fill="#E2E2F0" height="35.8695" rx="1.75" ry="1.75" style="stroke:#181818;stroke-width:0.3499999999999999;" width="65.1" x="910" y="31.2348"/><text fill="#000000" font-family="sans-serif" font-size="9.8" lengthAdjust="spacing" textLength="44.8" x="920.15" y="46.71">&#171;Domain&#187;</text><text fill="#000000" font-family="sans-serif" font-size="9.8" lengthAdjust="spacing" textLength="55.3" x="914.9" y="59.7447">Appointment</text><rect fill="#E2E2F0" height="35.8695" rx="1.75" ry="1.75" style="stroke:#181818;stroke-width:0.3499999999999999;" width="65.1" x="910" y="643.0785"/><text fill="#000000" font-family="sans-serif" font-size="9.8" lengthAdjust="spacing" textLength="44.8" x="920.15" y="658.5537">&#171;Domain&#187;</text><text fill="#000000" font-family="sans-serif" font-size="9.8" lengthAdjust="spacing" textLength="55.3" x="914.9" y="671.5885">Appointment</text><rect fill="#FFFFFF" height="535.1705" style="stroke:#181818;stroke-width:0.6999999999999998;" width="7" x="101.5" y="91.108"/><rect fill="#FFFFFF" height="395.8445" style="stroke:#181818;stroke-width:0.6999999999999998;" width="7" x="341.95" y="156.5812"/><rect fill="#FFFFFF" height="352.0371" style="stroke:#181818;stroke-width:0.6999999999999998;" width="7" x="522.55" y="178.485"/><rect fill="#FFFFFF" height="21.9037" style="stroke:#181818;stroke-width:0.6999999999999998;" width="7" x="761.95" y="200.3887"/><rect fill="#FFFFFF" height="21" style="stroke:#181818;stroke-width:0.6999999999999998;" width="7" x="856.45" y="487.6184"/><rect fill="#FFFFFF" height="21" style="stroke:#181818;stroke-width:0.6999999999999998;" width="7" x="939.05" y="293.6035"/><rect fill="#FFFFFF" height="21" style="stroke:#181818;stroke-width:0.6999999999999998;" width="7" x="939.05" y="336.5072"/><rect fill="#FFFFFF" height="21" style="stroke:#181818;stroke-width:0.6999999999999998;" width="7" x="939.05" y="379.4109"/><rect fill="#FFFFFF" height="21" style="stroke:#181818;stroke-width:0.6999999999999998;" width="7" x="939.05" y="422.3146"/><ellipse cx="5.25" cy="90.583" fill="none" rx="2.8" ry="2.8" style="stroke:#181818;stroke-width:1.0499999999999998;"/><polygon fill="#181818" points="93.1,88.308,100.1,91.108,93.1,93.908,95.9,91.108" style="stroke:#181818;stroke-width:0.6999999999999998;"/><line style="stroke:#181818;stroke-width:0.6999999999999998;" x1="8.4" x2="97.3" y1="91.108" y2="91.108"/><text fill="#000000" font-family="sans-serif" font-size="9.1" font-weight="bold" lengthAdjust="spacing" textLength="4.9" x="10.5" y="87.4241">1</text><text fill="#000000" font-family="sans-serif" font-size="9.1" lengthAdjust="spacing" textLength="39.9" x="18.2" y="87.4241">PUT(json)</text><polygon fill="#181818" points="172.9,110.2117,179.9,113.0117,172.9,115.8117,175.7,113.0117" style="stroke:#181818;stroke-width:0.6999999999999998;"/><line style="stroke:#181818;stroke-width:0.6999999999999998;" x1="108.5" x2="177.1" y1="113.0117" y2="113.0117"/><text fill="#000000" font-family="sans-serif" font-size="9.1" font-weight="bold" lengthAdjust="spacing" textLength="4.9" x="113.4" y="109.3278">2</text><text fill="#000000" font-family="sans-serif" font-size="9.1" lengthAdjust="spacing" textLength="48.3" x="121.1" y="109.3278">toDTO(json)</text><rect fill="#E2E2F0" height="35.8695" rx="1.75" ry="1.75" style="stroke:#181818;stroke-width:0.3499999999999999;" width="102.9" x="181.3" y="96.708"/><text fill="#000000" font-family="sans-serif" font-size="9.8" lengthAdjust="spacing" textLength="26.6" x="219.45" y="112.1832">&#171;Dto&#187;</text><text fill="#000000" font-family="sans-serif" font-size="9.8" lengthAdjust="spacing" textLength="93.1" x="186.2" y="125.218">EditAppointmentDTO</text><polygon fill="#181818" points="333.55,153.7812,340.55,156.5812,333.55,159.3812,336.35,156.5812" style="stroke:#181818;stroke-width:0.6999999999999998;"/><line style="stroke:#181818;stroke-width:0.6999999999999998;" x1="108.5" x2="337.75" y1="156.5812" y2="156.5812"/><text fill="#000000" font-family="sans-serif" font-size="9.1" font-weight="bold" lengthAdjust="spacing" textLength="4.9" x="113.4" y="152.8974">3</text><text fill="#000000" font-family="sans-serif" font-size="9.1" lengthAdjust="spacing" textLength="163.8" x="121.1" y="152.8974">editAppointment(id, editAppointmentDto)</text><polygon fill="#181818" points="514.15,175.685,521.15,178.485,514.15,181.285,516.95,178.485" style="stroke:#181818;stroke-width:0.6999999999999998;"/><line style="stroke:#181818;stroke-width:0.6999999999999998;" x1="348.95" x2="518.35" y1="178.485" y2="178.485"/><text fill="#000000" font-family="sans-serif" font-size="9.1" font-weight="bold" lengthAdjust="spacing" textLength="4.9" x="353.85" y="174.8011">4</text><text fill="#000000" font-family="sans-serif" font-size="9.1" lengthAdjust="spacing" textLength="152.6" x="361.55" y="174.8011">UpdateAsync(id, editAppointmentDto)</text><polygon fill="#181818" points="753.55,197.5887,760.55,200.3887,753.55,203.1887,756.35,200.3887" style="stroke:#181818;stroke-width:0.6999999999999998;"/><line style="stroke:#181818;stroke-width:0.6999999999999998;" x1="529.55" x2="757.75" y1="200.3887" y2="200.3887"/><text fill="#000000" font-family="sans-serif" font-size="9.1" font-weight="bold" lengthAdjust="spacing" textLength="4.9" x="534.45" y="196.7048">5</text><text fill="#000000" font-family="sans-serif" font-size="9.1" lengthAdjust="spacing" textLength="71.4" x="542.15" y="196.7048">GetByIdAsync(id)</text><polygon fill="#181818" points="537.25,219.4924,530.25,222.2924,537.25,225.0924,534.45,222.2924" style="stroke:#181818;stroke-width:0.6999999999999998;"/><line style="stroke:#181818;stroke-width:0.6999999999999998;stroke-dasharray:2.0,2.0;" x1="533.05" x2="764.75" y1="222.2924" y2="222.2924"/><text fill="#000000" font-family="sans-serif" font-size="9.1" font-weight="bold" lengthAdjust="spacing" textLength="4.9" x="541.45" y="218.6085">6</text><text fill="#000000" font-family="sans-serif" font-size="9.1" lengthAdjust="spacing" textLength="49.7" x="549.15" y="218.6085">appointment</text><line style="stroke:#181818;stroke-width:0.6999999999999998;" x1="529.55" x2="558.95" y1="244.1961" y2="244.1961"/><line style="stroke:#181818;stroke-width:0.6999999999999998;" x1="558.95" x2="558.95" y1="244.1961" y2="253.2961"/><line style="stroke:#181818;stroke-width:0.6999999999999998;" x1="530.25" x2="558.95" y1="253.2961" y2="253.2961"/><polygon fill="#181818" points="537.25,250.4961,530.25,253.2961,537.25,256.0961,534.45,253.2961" style="stroke:#181818;stroke-width:0.6999999999999998;"/><text fill="#000000" font-family="sans-serif" font-size="9.1" font-weight="bold" lengthAdjust="spacing" textLength="4.9" x="534.45" y="240.5122">7</text><text fill="#000000" font-family="sans-serif" font-size="9.1" lengthAdjust="spacing" textLength="214.9" x="542.15" y="240.5122">testIfTimeMatches(appointment, editAppointmentDto)</text><path d="M470.05,263.7961 L515.55,263.7961 L515.55,270.2998 L508.55,277.2998 L470.05,277.2998 L470.05,263.7961 " fill="#EEEEEE" style="stroke:#000000;stroke-width:1.0499999999999998;"/><rect fill="none" height="185.1186" style="stroke:#000000;stroke-width:1.0499999999999998;" width="512.05" x="470.05" y="263.7961"/><text fill="#000000" font-family="sans-serif" font-size="9.1" font-weight="bold" lengthAdjust="spacing" textLength="14" x="480.55" y="274.3159">opt</text><text fill="#000000" font-family="sans-serif" font-size="7.7" font-weight="bold" lengthAdjust="spacing" textLength="254.1" x="526.05" y="273.5052">[Check and update Patient fields if testIfTimeMatches return true]</text><polygon fill="#181818" points="930.65,290.8035,937.65,293.6035,930.65,296.4035,933.45,293.6035" style="stroke:#181818;stroke-width:0.6999999999999998;"/><line style="stroke:#181818;stroke-width:0.6999999999999998;" x1="529.55" x2="934.85" y1="293.6035" y2="293.6035"/><text fill="#000000" font-family="sans-serif" font-size="9.1" font-weight="bold" lengthAdjust="spacing" textLength="4.9" x="534.45" y="289.9196">8</text><text fill="#000000" font-family="sans-serif" font-size="9.1" lengthAdjust="spacing" textLength="80.5" x="542.15" y="289.9196">ChangeRoom(room)</text><polygon fill="#181818" points="930.65,333.7072,937.65,336.5072,930.65,339.3072,933.45,336.5072" style="stroke:#181818;stroke-width:0.6999999999999998;"/><line style="stroke:#181818;stroke-width:0.6999999999999998;" x1="529.55" x2="934.85" y1="336.5072" y2="336.5072"/><text fill="#000000" font-family="sans-serif" font-size="9.1" font-weight="bold" lengthAdjust="spacing" textLength="4.9" x="534.45" y="332.8233">9</text><text fill="#000000" font-family="sans-serif" font-size="9.1" lengthAdjust="spacing" textLength="79.1" x="542.15" y="332.8233">ChangeTeam(team)</text><polygon fill="#181818" points="930.65,376.6109,937.65,379.4109,930.65,382.2109,933.45,379.4109" style="stroke:#181818;stroke-width:0.6999999999999998;"/><line style="stroke:#181818;stroke-width:0.6999999999999998;" x1="529.55" x2="934.85" y1="379.4109" y2="379.4109"/><text fill="#000000" font-family="sans-serif" font-size="9.1" font-weight="bold" lengthAdjust="spacing" textLength="9.8" x="534.45" y="375.7271">10</text><text fill="#000000" font-family="sans-serif" font-size="9.1" lengthAdjust="spacing" textLength="72.8" x="547.05" y="375.7271">ChangeDate(date)</text><polygon fill="#181818" points="930.65,419.5146,937.65,422.3146,930.65,425.1146,933.45,422.3146" style="stroke:#181818;stroke-width:0.6999999999999998;"/><line style="stroke:#181818;stroke-width:0.6999999999999998;" x1="529.55" x2="934.85" y1="422.3146" y2="422.3146"/><text fill="#000000" font-family="sans-serif" font-size="9.1" font-weight="bold" lengthAdjust="spacing" textLength="9.8" x="534.45" y="418.6308">11</text><text fill="#000000" font-family="sans-serif" font-size="9.1" lengthAdjust="spacing" textLength="73.5" x="547.05" y="418.6308">ChangeTime(time)</text><polygon fill="#181818" points="848.05,484.8184,855.05,487.6184,848.05,490.4184,850.85,487.6184" style="stroke:#181818;stroke-width:0.6999999999999998;"/><line style="stroke:#181818;stroke-width:0.6999999999999998;" x1="529.55" x2="852.25" y1="487.6184" y2="487.6184"/><text fill="#000000" font-family="sans-serif" font-size="9.1" font-weight="bold" lengthAdjust="spacing" textLength="9.8" x="534.45" y="483.9345">12</text><text fill="#000000" font-family="sans-serif" font-size="9.1" lengthAdjust="spacing" textLength="81.2" x="547.05" y="483.9345">toDTO(appointment)</text><polygon fill="#181818" points="356.65,527.7221,349.65,530.5221,356.65,533.3221,353.85,530.5221" style="stroke:#181818;stroke-width:0.6999999999999998;"/><line style="stroke:#181818;stroke-width:0.6999999999999998;stroke-dasharray:2.0,2.0;" x1="352.45" x2="525.35" y1="530.5221" y2="530.5221"/><text fill="#000000" font-family="sans-serif" font-size="9.1" font-weight="bold" lengthAdjust="spacing" textLength="9.8" x="360.85" y="526.8382">13</text><text fill="#000000" font-family="sans-serif" font-size="9.1" lengthAdjust="spacing" textLength="63.7" x="373.45" y="526.8382">appointmentDto</text><polygon fill="#181818" points="116.2,549.6258,109.2,552.4258,116.2,555.2258,113.4,552.4258" style="stroke:#181818;stroke-width:0.6999999999999998;"/><line style="stroke:#181818;stroke-width:0.6999999999999998;stroke-dasharray:2.0,2.0;" x1="112" x2="344.75" y1="552.4258" y2="552.4258"/><text fill="#000000" font-family="sans-serif" font-size="9.1" font-weight="bold" lengthAdjust="spacing" textLength="9.8" x="120.4" y="548.7419">14</text><text fill="#000000" font-family="sans-serif" font-size="9.1" lengthAdjust="spacing" textLength="63.7" x="133" y="548.7419">appointmentDto</text><path d="M7.7,562.9258 L50.4,562.9258 L50.4,569.4295 L43.4,576.4295 L7.7,576.4295 L7.7,562.9258 " fill="#EEEEEE" style="stroke:#000000;stroke-width:1.0499999999999998;"/><rect fill="none" height="68.9527" style="stroke:#000000;stroke-width:1.0499999999999998;" width="158.55" x="7.7" y="562.9258"/><text fill="#000000" font-family="sans-serif" font-size="9.1" font-weight="bold" lengthAdjust="spacing" textLength="11.2" x="18.2" y="573.4456">alt</text><text fill="#000000" font-family="sans-serif" font-size="7.7" font-weight="bold" lengthAdjust="spacing" textLength="38.5" x="60.9" y="572.6349">[success]</text><ellipse cx="5.25" cy="592.2082" fill="none" rx="2.8" ry="2.8" style="stroke:#181818;stroke-width:1.0499999999999998;"/><polygon fill="#181818" points="17.15,589.9332,10.15,592.7332,17.15,595.5332,14.35,592.7332" style="stroke:#181818;stroke-width:0.6999999999999998;"/><line style="stroke:#181818;stroke-width:0.6999999999999998;stroke-dasharray:2.0,2.0;" x1="15.75" x2="100.8" y1="592.7332" y2="592.7332"/><text fill="#000000" font-family="sans-serif" font-size="9.1" font-weight="bold" lengthAdjust="spacing" textLength="9.8" x="17.5" y="589.0493">15</text><text fill="#000000" font-family="sans-serif" font-size="9.1" lengthAdjust="spacing" textLength="30.8" x="30.1" y="589.0493">200 OK</text><line style="stroke:#000000;stroke-width:0.6999999999999998;stroke-dasharray:2.0,2.0;" x1="7.7" x2="166.25" y1="599.0332" y2="599.0332"/><text fill="#000000" font-family="sans-serif" font-size="7.7" font-weight="bold" lengthAdjust="spacing" textLength="30.1" x="11.2" y="607.3423">[failure]</text><ellipse cx="5.25" cy="625.7535" fill="none" rx="2.8" ry="2.8" style="stroke:#181818;stroke-width:1.0499999999999998;"/><polygon fill="#181818" points="17.15,623.4785,10.15,626.2785,17.15,629.0785,14.35,626.2785" style="stroke:#181818;stroke-width:0.6999999999999998;"/><line style="stroke:#181818;stroke-width:0.6999999999999998;stroke-dasharray:2.0,2.0;" x1="15.75" x2="104.3" y1="626.2785" y2="626.2785"/><text fill="#000000" font-family="sans-serif" font-size="9.1" font-weight="bold" lengthAdjust="spacing" textLength="9.8" x="17.5" y="622.5946">16</text><text fill="#000000" font-family="sans-serif" font-size="9.1" lengthAdjust="spacing" textLength="70" x="30.1" y="622.5946">400 Bad Request</text><!--SRC=[fLHTQzim57tNhxZaoIrBAUrWK4AWZSCeQqXmdBriBwfzqsgp9K- -pYZan-_A7udY9ApG5o5Bvnpfd7jbKfGX35PB-79rStKB2siIB4luhl0l14-umGnkBs0Bit0XIQ6ccTJo1NEU3OIG5HbTvSzeXIYa9PMeGcg2mMWKcOfmFFwffwcY-w8mIfDZrUi3a2L4yrKyxTD2CYT8OJolAQiYbOJyrQTDZ2PhiWojOtlC_KOjC8cZfwEhBj5kL88zPhjQqvRJwCWV5gR7S4kDi-bYViRO2LCdx8Gcbqhty3MuhO8GueSPZfiCuGuMgpZuLHfz8MH2QiCXjV6A1i7GNNPmUSaCCZnjEHxA1SIxU9X_eD9F_JKsv9tM15kpMONpOf7cnFloJIV_5t0H2yTphZW_vdz5UdXxJ3i1tviBMDImuUuukPSMAVQmhNA392pfSHsh76UIabSi0uzx-fx250IJLqn-WzGfLBMrhXgmLfYb9QZriJHOfCfg85jXTukETiUAKhzWP4mUM1uyYrsXFIUxsf-HYL7c0V7mCPcGGO6pzy7RS0O1yV1E6UHOEMGXjjljJjIrQzUhNeqyIVTwF3dtsRBttImFYkd3wwvhszPxJkS9JP_BZA2i4lUhv7Su6Wvtp9lhQvX_OpTPYR2MAgiiYXxcCsCUP0eH_gcuNGwQjNwqBWe-uXy0]--></g></svg>