<?xml version="1.0" encoding="us-ascii" standalone="no"?><svg xmlns="http://www.w3.org/2000/svg" xmlns:xlink="http://www.w3.org/1999/xlink" contentStyleType="text/css" height="497px" preserveAspectRatio="none" style="width:745px;height:497px;background:#FFFFFF;" version="1.1" viewBox="0 0 745 497" width="745px" zoomAndPan="magnify"><defs/><g><text fill="#000000" font-family="sans-serif" font-size="14" font-weight="bold" lengthAdjust="spacing" textLength="317" x="213" y="30.1074">US 7.2.9 Process View (Level 3) | Visualization</text><rect fill="#FFFFFF" height="262.9102" style="stroke:#181818;stroke-width:1.0;" width="10" x="24" y="133.2422"/><rect fill="#FFFFFF" height="239.6191" style="stroke:#181818;stroke-width:1.0;" width="10" x="220" y="156.5332"/><rect fill="#FFFFFF" height="111.1641" style="stroke:#181818;stroke-width:1.0;" width="10" x="411" y="253.6973"/><line style="stroke:#181818;stroke-width:0.5;stroke-dasharray:5.0,5.0;" x1="29" x2="29" y1="123.2422" y2="414.1523"/><line style="stroke:#181818;stroke-width:0.5;stroke-dasharray:5.0,5.0;" x1="225" x2="225" y1="123.2422" y2="414.1523"/><line style="stroke:#181818;stroke-width:0.5;stroke-dasharray:5.0,5.0;" x1="416" x2="416" y1="123.2422" y2="414.1523"/><text fill="#000000" font-family="sans-serif" font-size="14" lengthAdjust="spacing" textLength="42" x="5" y="119.7285">Doctor</text><ellipse cx="29" cy="53.1211" fill="#E2E2F0" rx="8" ry="8" style="stroke:#181818;stroke-width:0.5;"/><path d="M29,61.1211 L29,88.1211 M16,69.1211 L42,69.1211 M29,88.1211 L16,103.1211 M29,88.1211 L42,103.1211 " fill="none" style="stroke:#181818;stroke-width:0.5;"/><text fill="#000000" font-family="sans-serif" font-size="14" lengthAdjust="spacing" textLength="42" x="5" y="428.2598">Doctor</text><ellipse cx="29" cy="440.2734" fill="#E2E2F0" rx="8" ry="8" style="stroke:#181818;stroke-width:0.5;"/><path d="M29,448.2734 L29,475.2734 M16,456.2734 L42,456.2734 M29,475.2734 L16,490.2734 M29,475.2734 L42,490.2734 " fill="none" style="stroke:#181818;stroke-width:0.5;"/><rect fill="#E2E2F0" height="51.2422" rx="2.5" ry="2.5" style="stroke:#181818;stroke-width:0.5;" width="126" x="162" y="71"/><text fill="#000000" font-family="sans-serif" font-size="14" lengthAdjust="spacing" textLength="89" x="180.5" y="93.1074">&#171;Component&#187;</text><text fill="#000000" font-family="sans-serif" font-size="14" lengthAdjust="spacing" textLength="108" x="173" y="111.7285">Edit-Appointment</text><rect fill="#E2E2F0" height="51.2422" rx="2.5" ry="2.5" style="stroke:#181818;stroke-width:0.5;" width="126" x="162" y="413.1523"/><text fill="#000000" font-family="sans-serif" font-size="14" lengthAdjust="spacing" textLength="89" x="180.5" y="435.2598">&#171;Component&#187;</text><text fill="#000000" font-family="sans-serif" font-size="14" lengthAdjust="spacing" textLength="108" x="173" y="453.8809">Edit-Appointment</text><rect fill="#E2E2F0" height="51.2422" rx="2.5" ry="2.5" style="stroke:#181818;stroke-width:0.5;" width="144" x="344" y="71"/><text fill="#000000" font-family="sans-serif" font-size="14" lengthAdjust="spacing" textLength="63" x="384.5" y="93.1074">&#171;Service&#187;</text><text fill="#000000" font-family="sans-serif" font-size="14" lengthAdjust="spacing" textLength="126" x="355" y="111.7285">AppointmentService</text><rect fill="#E2E2F0" height="51.2422" rx="2.5" ry="2.5" style="stroke:#181818;stroke-width:0.5;" width="144" x="344" y="413.1523"/><text fill="#000000" font-family="sans-serif" font-size="14" lengthAdjust="spacing" textLength="63" x="384.5" y="435.2598">&#171;Service&#187;</text><text fill="#000000" font-family="sans-serif" font-size="14" lengthAdjust="spacing" textLength="126" x="355" y="453.8809">AppointmentService</text><rect fill="#FFFFFF" height="262.9102" style="stroke:#181818;stroke-width:1.0;" width="10" x="24" y="133.2422"/><rect fill="#FFFFFF" height="239.6191" style="stroke:#181818;stroke-width:1.0;" width="10" x="220" y="156.5332"/><rect fill="#FFFFFF" height="111.1641" style="stroke:#181818;stroke-width:1.0;" width="10" x="411" y="253.6973"/><polygon fill="#181818" points="208,152.5332,218,156.5332,208,160.5332,212,156.5332" style="stroke:#181818;stroke-width:1.0;"/><line style="stroke:#181818;stroke-width:1.0;" x1="34" x2="214" y1="156.5332" y2="156.5332"/><text fill="#000000" font-family="sans-serif" font-size="13" lengthAdjust="spacing" textLength="167" x="41" y="151.2705">Asks to edit an appointment.</text><polygon fill="#181818" points="45,201.1152,35,205.1152,45,209.1152,41,205.1152" style="stroke:#181818;stroke-width:1.0;"/><line style="stroke:#181818;stroke-width:1.0;stroke-dasharray:2.0,2.0;" x1="39" x2="219" y1="205.1152" y2="205.1152"/><text fill="#000000" font-family="sans-serif" font-size="13" lengthAdjust="spacing" textLength="118" x="51" y="182.5615">Asks for room, date,</text><text fill="#000000" font-family="sans-serif" font-size="13" lengthAdjust="spacing" textLength="102" x="51" y="199.8525">time and/or team.</text><polygon fill="#181818" points="399,249.6973,409,253.6973,399,257.6973,403,253.6973" style="stroke:#181818;stroke-width:1.0;"/><line style="stroke:#181818;stroke-width:1.0;" x1="230" x2="405" y1="253.6973" y2="253.6973"/><text fill="#000000" font-family="sans-serif" font-size="13" lengthAdjust="spacing" textLength="162" x="237" y="231.1436">EditAppointment(time, date,</text><text fill="#000000" font-family="sans-serif" font-size="13" lengthAdjust="spacing" textLength="70" x="237" y="248.4346">room, team)</text><ellipse cx="735.5" cy="301.5293" fill="none" rx="4" ry="4" style="stroke:#181818;stroke-width:1.5;"/><polygon fill="#181818" points="718.5,298.2793,728.5,302.2793,718.5,306.2793,722.5,302.2793" style="stroke:#181818;stroke-width:1.0;"/><line style="stroke:#181818;stroke-width:1.0;" x1="421" x2="724.5" y1="302.2793" y2="302.2793"/><text fill="#000000" font-family="sans-serif" font-size="13" lengthAdjust="spacing" textLength="291" x="428" y="279.7256">PUT: api/appointment/edit-appointment(time, date,</text><text fill="#000000" font-family="sans-serif" font-size="13" lengthAdjust="spacing" textLength="70" x="428" y="297.0166">room, team)</text><polygon fill="#181818" points="432,329.5703,422,333.5703,432,337.5703,428,333.5703" style="stroke:#181818;stroke-width:1.0;"/><ellipse cx="735.5" cy="332.8203" fill="none" rx="4" ry="4" style="stroke:#181818;stroke-width:1.5;"/><line style="stroke:#181818;stroke-width:1.0;stroke-dasharray:2.0,2.0;" x1="426" x2="731" y1="333.5703" y2="333.5703"/><text fill="#000000" font-family="sans-serif" font-size="13" lengthAdjust="spacing" textLength="133" x="438" y="328.3076">Ok(Success message)</text><polygon fill="#181818" points="241,360.8613,231,364.8613,241,368.8613,237,364.8613" style="stroke:#181818;stroke-width:1.0;"/><line style="stroke:#181818;stroke-width:1.0;stroke-dasharray:2.0,2.0;" x1="235" x2="415" y1="364.8613" y2="364.8613"/><text fill="#000000" font-family="sans-serif" font-size="13" lengthAdjust="spacing" textLength="108" x="247" y="359.5986">Success message</text><polygon fill="#181818" points="40,392.1523,30,396.1523,40,400.1523,36,396.1523" style="stroke:#181818;stroke-width:1.0;"/><line style="stroke:#181818;stroke-width:1.0;stroke-dasharray:2.0,2.0;" x1="34" x2="224" y1="396.1523" y2="396.1523"/><text fill="#000000" font-family="sans-serif" font-size="13" lengthAdjust="spacing" textLength="108" x="46" y="390.8896">Success message</text><!--SRC=[bP9DQuD048Rl_eh1au6iGdie3IA4DhT2GwqvfOT5fsM9xefEB9J- -8wZDIBfeNlmOvtdcNbLCbGY-5aAT-5DU0_xnkNOjd0m-0d14tPOmkqAldcZFUlIV6aoplgUftDo3Jow_kJLkY6JcrfR0Z-E7rnLEukMakHeOLSOKjkwTiPInPi-w1QoTFUon59iEfEZGBFwSLimfWxIstIQyBSzy1ekGIMYXWrisrCBv02vFMWB-c8CXPWiCWkCIsZ5ca4uUjvPtJXNhQ5WOdsqP2faQn7n0q9TXGj18gFo67twMPYW1oVBeEpvrSHFOqbMc2qngiIziNQVlMuuaebciQ8-gjB_QJPfOwN4-tmAqdCklq351_s1LuhLvIqlYgVQ0g_dMBpUFmmpMZxEx7xWVW00]--></g></svg>