<?xml version="1.0" encoding="us-ascii" standalone="no"?><svg xmlns="http://www.w3.org/2000/svg" xmlns:xlink="http://www.w3.org/1999/xlink" contentStyleType="text/css" height="414px" preserveAspectRatio="none" style="width:877px;height:414px;background:#FFFFFF;" version="1.1" viewBox="0 0 877 414" width="877px" zoomAndPan="magnify"><defs/><g><text fill="#000000" font-family="sans-serif" font-size="14" font-weight="bold" lengthAdjust="spacing" textLength="321" x="276.75" y="30.1074">US 7.2.8. Process View (Level 3 | Visualization)</text><rect fill="#FFFFFF" height="156.4551" style="stroke:#181818;stroke-width:1.0;" width="10" x="215.5" y="156.5332"/><rect fill="#FFFFFF" height="93.873" style="stroke:#181818;stroke-width:1.0;" width="10" x="598.5" y="187.8242"/><line style="stroke:#181818;stroke-width:0.5;stroke-dasharray:5.0,5.0;" x1="27" x2="27" y1="123.2422" y2="330.9883"/><line style="stroke:#181818;stroke-width:0.5;stroke-dasharray:5.0,5.0;" x1="220.5" x2="220.5" y1="123.2422" y2="330.9883"/><line style="stroke:#181818;stroke-width:0.5;stroke-dasharray:5.0,5.0;" x1="603.5" x2="603.5" y1="123.2422" y2="330.9883"/><text fill="#000000" font-family="sans-serif" font-size="14" lengthAdjust="spacing" textLength="39" x="5" y="119.7285">Admin</text><ellipse cx="27.5" cy="53.1211" fill="#E2E2F0" rx="8" ry="8" style="stroke:#181818;stroke-width:0.5;"/><path d="M27.5,61.1211 L27.5,88.1211 M14.5,69.1211 L40.5,69.1211 M27.5,88.1211 L14.5,103.1211 M27.5,88.1211 L40.5,103.1211 " fill="none" style="stroke:#181818;stroke-width:0.5;"/><text fill="#000000" font-family="sans-serif" font-size="14" lengthAdjust="spacing" textLength="39" x="5" y="345.0957">Admin</text><ellipse cx="27.5" cy="357.1094" fill="#E2E2F0" rx="8" ry="8" style="stroke:#181818;stroke-width:0.5;"/><path d="M27.5,365.1094 L27.5,392.1094 M14.5,373.1094 L40.5,373.1094 M27.5,392.1094 L14.5,407.1094 M27.5,392.1094 L40.5,407.1094 " fill="none" style="stroke:#181818;stroke-width:0.5;"/><rect fill="#E2E2F0" height="51.2422" rx="2.5" ry="2.5" style="stroke:#181818;stroke-width:0.5;" width="136" x="152.5" y="71"/><text fill="#000000" font-family="sans-serif" font-size="14" font-style="italic" lengthAdjust="spacing" textLength="86" x="177.5" y="93.1074">&#171;component&#187;</text><text fill="#000000" font-family="sans-serif" font-size="14" lengthAdjust="spacing" textLength="122" x="159.5" y="111.7285">CreateAppointment</text><rect fill="#E2E2F0" height="51.2422" rx="2.5" ry="2.5" style="stroke:#181818;stroke-width:0.5;" width="136" x="152.5" y="329.9883"/><text fill="#000000" font-family="sans-serif" font-size="14" font-style="italic" lengthAdjust="spacing" textLength="86" x="177.5" y="352.0957">&#171;component&#187;</text><text fill="#000000" font-family="sans-serif" font-size="14" lengthAdjust="spacing" textLength="122" x="159.5" y="370.7168">CreateAppointment</text><rect fill="#E2E2F0" height="51.2422" rx="2.5" ry="2.5" style="stroke:#181818;stroke-width:0.5;" width="140" x="533.5" y="71"/><text fill="#000000" font-family="sans-serif" font-size="14" font-style="italic" lengthAdjust="spacing" textLength="60" x="573.5" y="93.1074">&#171;service&#187;</text><text fill="#000000" font-family="sans-serif" font-size="14" lengthAdjust="spacing" textLength="126" x="540.5" y="111.7285">AppointmentService</text><rect fill="#E2E2F0" height="51.2422" rx="2.5" ry="2.5" style="stroke:#181818;stroke-width:0.5;" width="140" x="533.5" y="329.9883"/><text fill="#000000" font-family="sans-serif" font-size="14" font-style="italic" lengthAdjust="spacing" textLength="60" x="573.5" y="352.0957">&#171;service&#187;</text><text fill="#000000" font-family="sans-serif" font-size="14" lengthAdjust="spacing" textLength="126" x="540.5" y="370.7168">AppointmentService</text><rect fill="#FFFFFF" height="156.4551" style="stroke:#181818;stroke-width:1.0;" width="10" x="215.5" y="156.5332"/><rect fill="#FFFFFF" height="93.873" style="stroke:#181818;stroke-width:1.0;" width="10" x="598.5" y="187.8242"/><polygon fill="#181818" points="203.5,152.5332,213.5,156.5332,203.5,160.5332,207.5,156.5332" style="stroke:#181818;stroke-width:1.0;"/><line style="stroke:#181818;stroke-width:1.0;" x1="27.5" x2="209.5" y1="156.5332" y2="156.5332"/><text fill="#000000" font-family="sans-serif" font-size="13" font-weight="bold" lengthAdjust="spacing" textLength="7" x="34.5" y="151.2705">1</text><text fill="#000000" font-family="sans-serif" font-size="13" lengthAdjust="spacing" textLength="158" x="45.5" y="151.2705">create surgery appointment</text><polygon fill="#181818" points="586.5,183.8242,596.5,187.8242,586.5,191.8242,590.5,187.8242" style="stroke:#181818;stroke-width:1.0;"/><line style="stroke:#181818;stroke-width:1.0;" x1="225.5" x2="592.5" y1="187.8242" y2="187.8242"/><text fill="#000000" font-family="sans-serif" font-size="13" font-weight="bold" lengthAdjust="spacing" textLength="7" x="232.5" y="182.5615">2</text><text fill="#000000" font-family="sans-serif" font-size="13" lengthAdjust="spacing" textLength="343" x="243.5" y="182.5615">CreateSurgeryAppointment(surgeryAppointmentInformation)</text><ellipse cx="867" cy="218.3652" fill="none" rx="4" ry="4" style="stroke:#181818;stroke-width:1.5;"/><polygon fill="#181818" points="850,215.1152,860,219.1152,850,223.1152,854,219.1152" style="stroke:#181818;stroke-width:1.0;"/><line style="stroke:#181818;stroke-width:1.0;" x1="608.5" x2="856" y1="219.1152" y2="219.1152"/><text fill="#000000" font-family="sans-serif" font-size="13" font-weight="bold" lengthAdjust="spacing" textLength="7" x="615.5" y="213.8525">3</text><text fill="#000000" font-family="sans-serif" font-size="13" lengthAdjust="spacing" textLength="224" x="626.5" y="213.8525">POST: api/SurgeryAppointment/Create</text><polygon fill="#181818" points="619.5,246.4063,609.5,250.4063,619.5,254.4063,615.5,250.4063" style="stroke:#181818;stroke-width:1.0;"/><ellipse cx="867" cy="249.6563" fill="none" rx="4" ry="4" style="stroke:#181818;stroke-width:1.5;"/><line style="stroke:#181818;stroke-width:1.0;stroke-dasharray:2.0,2.0;" x1="613.5" x2="862.5" y1="250.4063" y2="250.4063"/><text fill="#000000" font-family="sans-serif" font-size="13" font-weight="bold" lengthAdjust="spacing" textLength="7" x="625.5" y="245.1436">4</text><text fill="#000000" font-family="sans-serif" font-size="13" lengthAdjust="spacing" textLength="191" x="636.5" y="245.1436">Created(SurgeryAppointmentDto)</text><polygon fill="#181818" points="236.5,277.6973,226.5,281.6973,236.5,285.6973,232.5,281.6973" style="stroke:#181818;stroke-width:1.0;"/><line style="stroke:#181818;stroke-width:1.0;stroke-dasharray:2.0,2.0;" x1="230.5" x2="602.5" y1="281.6973" y2="281.6973"/><text fill="#000000" font-family="sans-serif" font-size="13" font-weight="bold" lengthAdjust="spacing" textLength="7" x="242.5" y="276.4346">5</text><text fill="#000000" font-family="sans-serif" font-size="13" lengthAdjust="spacing" textLength="49" x="253.5" y="276.4346">success</text><polygon fill="#181818" points="38.5,308.9883,28.5,312.9883,38.5,316.9883,34.5,312.9883" style="stroke:#181818;stroke-width:1.0;"/><line style="stroke:#181818;stroke-width:1.0;stroke-dasharray:2.0,2.0;" x1="32.5" x2="219.5" y1="312.9883" y2="312.9883"/><text fill="#000000" font-family="sans-serif" font-size="13" font-weight="bold" lengthAdjust="spacing" textLength="7" x="44.5" y="307.7256">6</text><text fill="#000000" font-family="sans-serif" font-size="13" lengthAdjust="spacing" textLength="49" x="55.5" y="307.7256">success</text><!--SRC=[RP4_JyCm4CLtVufJ5jeXYGG3AAeYLS20X4I4AHk3SOvYAVw3VIa2yU6vn4DRjQFFl_VUFVlYaoYafgx3e1oDTgYqjtN2hn6Tnh8tQXkL5O8C3GZ5Hi9rTLdTLD15hp4bU3Nu3Oj7tE40L_37vpIgmVmgCjuj2o7KIDwDzXsZK9fyX6BTM-CAK0asylvP11N9Q1Cu7uhRY8fm7O8tZYmwobpNmMh5cmNlUDQsnw83N6BS6OspgfCiIdd04Z6bGTdERWteEGdI6BSOVq3jFQOzpMwwP99bZBEAtHh8wyciEOXTf9FHW_lmqUPds3jsKWXsAbl_ndRTatnfEDhKfvPrpfhnLLdEV1xrYrFwZlmoE-U23HVJqmU97e_2vpOJmuzn5few_mC0]--></g></svg>