<?xml version="1.0" encoding="us-ascii" standalone="no"?><svg xmlns="http://www.w3.org/2000/svg" xmlns:xlink="http://www.w3.org/1999/xlink" contentStyleType="text/css" height="395px" preserveAspectRatio="none" style="width:383px;height:395px;background:#FFFFFF;" version="1.1" viewBox="0 0 383 395" width="383px" zoomAndPan="magnify"><defs/><g><text fill="#000000" font-family="sans-serif" font-size="14" font-weight="bold" lengthAdjust="spacing" textLength="222" x="82.5" y="30.1074">US 5.1.6. Process View (Level 1)</text><rect fill="#FFFFFF" height="31.291" style="stroke:#181818;stroke-width:1.0;" width="10" x="52" y="187.8242"/><rect fill="#FFFFFF" height="31.291" style="stroke:#181818;stroke-width:1.0;" width="10" x="269" y="156.5332"/><rect fill="#FFFFFF" height="75.582" style="stroke:#181818;stroke-width:1.0;" width="10" x="269" y="219.1152"/><line style="stroke:#181818;stroke-width:0.5;stroke-dasharray:5.0,5.0;" x1="57" x2="57" y1="123.2422" y2="312.6973"/><line style="stroke:#181818;stroke-width:0.5;stroke-dasharray:5.0,5.0;" x1="274" x2="274" y1="123.2422" y2="312.6973"/><text fill="#000000" font-family="sans-serif" font-size="14" lengthAdjust="spacing" textLength="98" x="5" y="119.7285">Backoffice User</text><ellipse cx="57" cy="53.1211" fill="#E2E2F0" rx="8" ry="8" style="stroke:#181818;stroke-width:0.5;"/><path d="M57,61.1211 L57,88.1211 M44,69.1211 L70,69.1211 M57,88.1211 L44,103.1211 M57,88.1211 L70,103.1211 " fill="none" style="stroke:#181818;stroke-width:0.5;"/><text fill="#000000" font-family="sans-serif" font-size="14" lengthAdjust="spacing" textLength="98" x="5" y="326.8047">Backoffice User</text><ellipse cx="57" cy="338.8184" fill="#E2E2F0" rx="8" ry="8" style="stroke:#181818;stroke-width:0.5;"/><path d="M57,346.8184 L57,373.8184 M44,354.8184 L70,354.8184 M57,373.8184 L44,388.8184 M57,373.8184 L70,388.8184 " fill="none" style="stroke:#181818;stroke-width:0.5;"/><rect fill="#E2E2F0" height="51.2422" rx="2.5" ry="2.5" style="stroke:#181818;stroke-width:0.5;" width="136" x="206" y="71"/><text fill="#000000" font-family="sans-serif" font-size="14" lengthAdjust="spacing" textLength="92" x="228" y="93.1074">&#171;system (C4)&#187;</text><text fill="#000000" font-family="sans-serif" font-size="14" lengthAdjust="spacing" textLength="118" x="217" y="111.7285">Healthcare System</text><rect fill="#E2E2F0" height="51.2422" rx="2.5" ry="2.5" style="stroke:#181818;stroke-width:0.5;" width="136" x="206" y="311.6973"/><text fill="#000000" font-family="sans-serif" font-size="14" lengthAdjust="spacing" textLength="92" x="228" y="333.8047">&#171;system (C4)&#187;</text><text fill="#000000" font-family="sans-serif" font-size="14" lengthAdjust="spacing" textLength="118" x="217" y="352.4258">Healthcare System</text><rect fill="#FFFFFF" height="31.291" style="stroke:#181818;stroke-width:1.0;" width="10" x="52" y="187.8242"/><rect fill="#FFFFFF" height="31.291" style="stroke:#181818;stroke-width:1.0;" width="10" x="269" y="156.5332"/><rect fill="#FFFFFF" height="75.582" style="stroke:#181818;stroke-width:1.0;" width="10" x="269" y="219.1152"/><polygon fill="#181818" points="257,152.5332,267,156.5332,257,160.5332,261,156.5332" style="stroke:#181818;stroke-width:1.0;"/><line style="stroke:#181818;stroke-width:1.0;" x1="57" x2="263" y1="156.5332" y2="156.5332"/><text fill="#000000" font-family="sans-serif" font-size="13" font-weight="bold" lengthAdjust="spacing" textLength="7" x="64" y="151.2705">1</text><text fill="#000000" font-family="sans-serif" font-size="13" lengthAdjust="spacing" textLength="155" x="75" y="151.2705">wants to login into account</text><polygon fill="#181818" points="73,183.8242,63,187.8242,73,191.8242,69,187.8242" style="stroke:#181818;stroke-width:1.0;"/><line style="stroke:#181818;stroke-width:1.0;stroke-dasharray:2.0,2.0;" x1="67" x2="273" y1="187.8242" y2="187.8242"/><text fill="#000000" font-family="sans-serif" font-size="13" font-weight="bold" lengthAdjust="spacing" textLength="7" x="79" y="182.5615">2</text><text fill="#000000" font-family="sans-serif" font-size="13" lengthAdjust="spacing" textLength="135" x="90" y="182.5615">asks for the credentials</text><polygon fill="#181818" points="257,215.1152,267,219.1152,257,223.1152,261,219.1152" style="stroke:#181818;stroke-width:1.0;"/><line style="stroke:#181818;stroke-width:1.0;" x1="57" x2="263" y1="219.1152" y2="219.1152"/><text fill="#000000" font-family="sans-serif" font-size="13" font-weight="bold" lengthAdjust="spacing" textLength="7" x="64" y="213.8525">3</text><text fill="#000000" font-family="sans-serif" font-size="13" lengthAdjust="spacing" textLength="136" x="75" y="213.8525">provides the credentials</text><line style="stroke:#181818;stroke-width:1.0;" x1="279" x2="321" y1="250.4063" y2="250.4063"/><line style="stroke:#181818;stroke-width:1.0;" x1="321" x2="321" y1="250.4063" y2="263.4063"/><line style="stroke:#181818;stroke-width:1.0;" x1="280" x2="321" y1="263.4063" y2="263.4063"/><polygon fill="#181818" points="290,259.4063,280,263.4063,290,267.4063,286,263.4063" style="stroke:#181818;stroke-width:1.0;"/><text fill="#000000" font-family="sans-serif" font-size="13" font-weight="bold" lengthAdjust="spacing" textLength="7" x="286" y="245.1436">4</text><text fill="#000000" font-family="sans-serif" font-size="13" lengthAdjust="spacing" textLength="79" x="297" y="245.1436">validates user</text><polygon fill="#181818" points="68,290.6973,58,294.6973,68,298.6973,64,294.6973" style="stroke:#181818;stroke-width:1.0;"/><line style="stroke:#181818;stroke-width:1.0;stroke-dasharray:2.0,2.0;" x1="62" x2="273" y1="294.6973" y2="294.6973"/><text fill="#000000" font-family="sans-serif" font-size="13" font-weight="bold" lengthAdjust="spacing" textLength="7" x="74" y="289.4346">5</text><text fill="#000000" font-family="sans-serif" font-size="13" lengthAdjust="spacing" textLength="177" x="85" y="289.4346">provides access to the system</text><!--SRC=[VP11QyCm38Nl_XKYbxM79XIs7K89hBqCjiCWT33OHNEKnjInCqj9sR-VdRB2ojXDGlhUUz9D9p9mMHI3HITZRtFj-uBfSoIdQTKOF0JibH8ZbY3Rrt2Nh_Fx75w2ryGChuPEi7YcYIoibvbIE8ftO_z18TPQV81iY_heszPeWZrJo00PjW-x9pLW4AFD4AqXsspuYuLwMEnkbrNrxk2Hq4gdCH3KysWcwxTQgOJ3gaeDb72A0WpYmVg3SM1SB55hFpf96So4GcSkxQyYD_Dbb3ioj36ZT0GwK4DE35fM3VtYBiqS-yfz27uo3V5_8ZFtHvGVZGcjQUA8OUJqkQkS5ujuLVfwl2-PdHzs7VOR]--></g></svg>