<?xml version="1.0" encoding="UTF-8" standalone="no"?><svg xmlns="http://www.w3.org/2000/svg" xmlns:xlink="http://www.w3.org/1999/xlink" contentStyleType="text/css" height="791px" preserveAspectRatio="none" style="width:1778px;height:791px;background:#FFFFFF;" version="1.1" viewBox="0 0 1778 791" width="1778px" zoomAndPan="magnify"><defs/><g><!--cluster <<aggregate>> Patient--><g id="cluster_&lt;&lt;aggregate&gt;&gt; Patient"><path d="M603.5,348.8945 L793.5,348.8945 A3.75,3.75 0 0 1 796,351.3945 L803,380.0508 L1174.5,380.0508 A2.5,2.5 0 0 1 1177,382.5508 L1177,782.3945 A2.5,2.5 0 0 1 1174.5,784.8945 L603.5,784.8945 A2.5,2.5 0 0 1 601,782.3945 L601,351.3945 A2.5,2.5 0 0 1 603.5,348.8945 " fill="none" style="stroke:#000000;stroke-width:1.5;"/><line style="stroke:#000000;stroke-width:1.5;" x1="601" x2="803" y1="380.0508" y2="380.0508"/><text fill="#000000" font-family="sans-serif" font-size="20" font-weight="bold" lengthAdjust="spacing" textLength="189" x="605" y="371.6563">«aggregate» Patient</text></g><!--cluster <<aggregate Doctor>>--><g id="cluster_&lt;&lt;aggregate Doctor&gt;&gt;"><path d="M1062.5,6.8945 L1250.5,6.8945 A3.75,3.75 0 0 1 1253,9.3945 L1260,38.0508 L1260.5,38.0508 A2.5,2.5 0 0 1 1263,40.5508 L1263,157.3945 A2.5,2.5 0 0 1 1260.5,159.8945 L1062.5,159.8945 A2.5,2.5 0 0 1 1060,157.3945 L1060,9.3945 A2.5,2.5 0 0 1 1062.5,6.8945 " fill="none" style="stroke:#000000;stroke-width:1.5;"/><line style="stroke:#000000;stroke-width:1.5;" x1="1060" x2="1260" y1="38.0508" y2="38.0508"/><text fill="#000000" font-family="sans-serif" font-size="20" font-weight="bold" lengthAdjust="spacing" textLength="187" x="1064" y="29.6563">«aggregate Doctor»</text></g><!--cluster <<aggregate OperationRequest>>--><g id="cluster_&lt;&lt;aggregate OperationRequest&gt;&gt;"><path d="M8.5,6.8945 L304.5,6.8945 A3.75,3.75 0 0 1 307,9.3945 L314,38.0508 L1033.5,38.0508 A2.5,2.5 0 0 1 1036,40.5508 L1036,313.3945 A2.5,2.5 0 0 1 1033.5,315.8945 L8.5,315.8945 A2.5,2.5 0 0 1 6,313.3945 L6,9.3945 A2.5,2.5 0 0 1 8.5,6.8945 " fill="none" style="stroke:#000000;stroke-width:1.5;"/><line style="stroke:#000000;stroke-width:1.5;" x1="6" x2="314" y1="38.0508" y2="38.0508"/><text fill="#000000" font-family="sans-serif" font-size="20" font-weight="bold" lengthAdjust="spacing" textLength="295" x="10" y="29.6563">«aggregate OperationRequest»</text></g><!--cluster <<aggregate OperationType>>--><g id="cluster_&lt;&lt;aggregate OperationType&gt;&gt;"><path d="M1203.5,348.8945 L1468.5,348.8945 A3.75,3.75 0 0 1 1471,351.3945 L1478,380.0508 L1768.5,380.0508 A2.5,2.5 0 0 1 1771,382.5508 L1771,782.3945 A2.5,2.5 0 0 1 1768.5,784.8945 L1203.5,784.8945 A2.5,2.5 0 0 1 1201,782.3945 L1201,351.3945 A2.5,2.5 0 0 1 1203.5,348.8945 " fill="none" style="stroke:#000000;stroke-width:1.5;"/><line style="stroke:#000000;stroke-width:1.5;" x1="1201" x2="1478" y1="380.0508" y2="380.0508"/><text fill="#000000" font-family="sans-serif" font-size="20" font-weight="bold" lengthAdjust="spacing" textLength="264" x="1205" y="371.6563">«aggregate OperationType»</text></g><!--class Patient--><g id="elem_Patient"><rect codeLine="7" fill="#F5F5DC" height="93.4688" id="Patient" rx="2.5" ry="2.5" style="stroke:#181818;stroke-width:0.5;" width="99" x="992.5" y="392.8945"/><ellipse cx="1008.5" cy="435.6289" fill="#ADD1B2" rx="12" ry="12" style="stroke:#181818;stroke-width:1.0;"/><path d="M1006.4531,436.6914 L1006.4531,439.6289 L1011.5469,439.6289 L1011.5469,438.5352 Q1011.5469,437.8164 1011.8281,437.5195 Q1012.1094,437.207 1012.5625,437.207 Q1013,437.207 1013.2813,437.5195 Q1013.5625,437.8164 1013.5625,438.5352 L1013.5625,441.6289 L1004.125,441.6289 Q1003.4063,441.6289 1003.0938,441.3477 Q1002.7969,441.0664 1002.7969,440.6289 Q1002.7969,440.1758 1003.1094,439.9102 Q1003.4219,439.6289 1004.125,439.6289 L1004.4375,439.6289 L1004.4375,431.8008 L1004.125,431.8008 Q1003.4063,431.8008 1003.0938,431.5195 Q1002.7969,431.2383 1002.7969,430.7852 Q1002.7969,430.332 1003.0938,430.0664 Q1003.4063,429.7852 1004.125,429.7852 L1013.1094,429.7852 L1013.1094,432.832 Q1013.1094,433.5508 1012.8281,433.8633 Q1012.5625,434.1602 1012.125,434.1602 Q1011.6719,434.1602 1011.3906,433.8633 Q1011.1094,433.5664 1011.1094,432.832 L1011.1094,431.8008 L1006.4531,431.8008 L1006.4531,434.6914 L1008.2031,434.6914 Q1008.2031,433.9102 1008.3438,433.6758 Q1008.6563,433.207 1009.2031,433.207 Q1009.6563,433.207 1009.9219,433.5195 Q1010.2031,433.8164 1010.2031,434.5352 L1010.2031,436.8477 Q1010.2031,437.5039 1010.0469,437.7227 Q1009.7344,438.1758 1009.2031,438.1758 Q1008.6563,438.1758 1008.3438,437.707 Q1008.2031,437.4727 1008.2031,436.6914 L1006.4531,436.6914 Z " fill="#000000"/><text fill="#000000" font-family="sans-serif" font-size="20" font-style="italic" lengthAdjust="spacing" textLength="69" x="1021.5" y="418.6563">«entity»</text><text fill="#000000" font-family="sans-serif" font-size="20" font-style="italic" lengthAdjust="spacing" textLength="56" x="1028" y="443.8125">«root»</text><text fill="#000000" font-family="sans-serif" font-size="20" lengthAdjust="spacing" textLength="61" x="1025.5" y="468.9688">Patient</text><line style="stroke:#181818;stroke-width:0.5;" x1="993.5" x2="1090.5" y1="478.3633" y2="478.3633"/></g><!--class Name--><g id="elem_Name"><rect codeLine="8" fill="#F5F5DC" height="68.3125" id="Name" rx="2.5" ry="2.5" style="stroke:#181818;stroke-width:0.5;" width="158" x="846" y="559.3945"/><ellipse cx="862" cy="589.5508" fill="#FF8B40" rx="12" ry="12" style="stroke:#181818;stroke-width:1.0;"/><path d="M862.5,593.6289 L865.3906,586.7227 L864.9375,586.7227 Q864.2188,586.7227 863.9063,586.4414 Q863.5938,586.1602 863.5938,585.707 Q863.5938,585.2539 863.9063,584.9883 Q864.2188,584.707 864.9375,584.707 L867.625,584.707 Q868.3438,584.707 868.6563,584.9883 Q868.9688,585.2539 868.9688,585.707 Q868.9688,586.2539 868.5,586.5664 Q868.2656,586.7227 867.5781,586.7227 L863.4688,596.5508 L861.5469,596.5508 L857.4375,586.7227 Q856.7344,586.7227 856.5156,586.5664 Q856.0469,586.2539 856.0469,585.707 Q856.0469,585.2539 856.3594,584.9883 Q856.6563,584.707 857.375,584.707 L860.0781,584.707 Q860.7969,584.707 861.0938,584.9883 Q861.4063,585.2539 861.4063,585.707 Q861.4063,586.1602 861.1094,586.4414 Q860.8125,586.7227 860.0781,586.7227 L859.6094,586.7227 L862.5,593.6289 Z " fill="#000000"/><text fill="#000000" font-family="sans-serif" font-size="20" font-style="italic" lengthAdjust="spacing" textLength="128" x="875" y="585.1563">«value object»</text><text fill="#000000" font-family="sans-serif" font-size="20" lengthAdjust="spacing" textLength="51" x="913.5" y="610.3125">Name</text><line style="stroke:#181818;stroke-width:0.5;" x1="847" x2="1003" y1="619.707" y2="619.707"/></g><!--class FirstName--><g id="elem_FirstName"><rect codeLine="9" fill="#F5F5DC" height="68.3125" id="FirstName" rx="2.5" ry="2.5" style="stroke:#181818;stroke-width:0.5;" width="158" x="617" y="700.8945"/><ellipse cx="633" cy="731.0508" fill="#FF8B40" rx="12" ry="12" style="stroke:#181818;stroke-width:1.0;"/><path d="M633.5,735.1289 L636.3906,728.2227 L635.9375,728.2227 Q635.2188,728.2227 634.9063,727.9414 Q634.5938,727.6602 634.5938,727.207 Q634.5938,726.7539 634.9063,726.4883 Q635.2188,726.207 635.9375,726.207 L638.625,726.207 Q639.3438,726.207 639.6563,726.4883 Q639.9688,726.7539 639.9688,727.207 Q639.9688,727.7539 639.5,728.0664 Q639.2656,728.2227 638.5781,728.2227 L634.4688,738.0508 L632.5469,738.0508 L628.4375,728.2227 Q627.7344,728.2227 627.5156,728.0664 Q627.0469,727.7539 627.0469,727.207 Q627.0469,726.7539 627.3594,726.4883 Q627.6563,726.207 628.375,726.207 L631.0781,726.207 Q631.7969,726.207 632.0938,726.4883 Q632.4063,726.7539 632.4063,727.207 Q632.4063,727.6602 632.1094,727.9414 Q631.8125,728.2227 631.0781,728.2227 L630.6094,728.2227 L633.5,735.1289 Z " fill="#000000"/><text fill="#000000" font-family="sans-serif" font-size="20" font-style="italic" lengthAdjust="spacing" textLength="128" x="646" y="726.6563">«value object»</text><text fill="#000000" font-family="sans-serif" font-size="20" lengthAdjust="spacing" textLength="90" x="665" y="751.8125">FirstName</text><line style="stroke:#181818;stroke-width:0.5;" x1="618" x2="774" y1="761.207" y2="761.207"/></g><!--class LastName--><g id="elem_LastName"><rect codeLine="10" fill="#F5F5DC" height="68.3125" id="LastName" rx="2.5" ry="2.5" style="stroke:#181818;stroke-width:0.5;" width="158" x="810" y="700.8945"/><ellipse cx="826" cy="731.0508" fill="#FF8B40" rx="12" ry="12" style="stroke:#181818;stroke-width:1.0;"/><path d="M826.5,735.1289 L829.3906,728.2227 L828.9375,728.2227 Q828.2188,728.2227 827.9063,727.9414 Q827.5938,727.6602 827.5938,727.207 Q827.5938,726.7539 827.9063,726.4883 Q828.2188,726.207 828.9375,726.207 L831.625,726.207 Q832.3438,726.207 832.6563,726.4883 Q832.9688,726.7539 832.9688,727.207 Q832.9688,727.7539 832.5,728.0664 Q832.2656,728.2227 831.5781,728.2227 L827.4688,738.0508 L825.5469,738.0508 L821.4375,728.2227 Q820.7344,728.2227 820.5156,728.0664 Q820.0469,727.7539 820.0469,727.207 Q820.0469,726.7539 820.3594,726.4883 Q820.6563,726.207 821.375,726.207 L824.0781,726.207 Q824.7969,726.207 825.0938,726.4883 Q825.4063,726.7539 825.4063,727.207 Q825.4063,727.6602 825.1094,727.9414 Q824.8125,728.2227 824.0781,728.2227 L823.6094,728.2227 L826.5,735.1289 Z " fill="#000000"/><text fill="#000000" font-family="sans-serif" font-size="20" font-style="italic" lengthAdjust="spacing" textLength="128" x="839" y="726.6563">«value object»</text><text fill="#000000" font-family="sans-serif" font-size="20" lengthAdjust="spacing" textLength="89" x="858.5" y="751.8125">LastName</text><line style="stroke:#181818;stroke-width:0.5;" x1="811" x2="967" y1="761.207" y2="761.207"/></g><!--class FullName--><g id="elem_FullName"><rect codeLine="11" fill="#F5F5DC" height="68.3125" id="FullName" rx="2.5" ry="2.5" style="stroke:#181818;stroke-width:0.5;" width="158" x="1003" y="700.8945"/><ellipse cx="1019" cy="731.0508" fill="#FF8B40" rx="12" ry="12" style="stroke:#181818;stroke-width:1.0;"/><path d="M1019.5,735.1289 L1022.3906,728.2227 L1021.9375,728.2227 Q1021.2188,728.2227 1020.9063,727.9414 Q1020.5938,727.6602 1020.5938,727.207 Q1020.5938,726.7539 1020.9063,726.4883 Q1021.2188,726.207 1021.9375,726.207 L1024.625,726.207 Q1025.3438,726.207 1025.6563,726.4883 Q1025.9688,726.7539 1025.9688,727.207 Q1025.9688,727.7539 1025.5,728.0664 Q1025.2656,728.2227 1024.5781,728.2227 L1020.4688,738.0508 L1018.5469,738.0508 L1014.4375,728.2227 Q1013.7344,728.2227 1013.5156,728.0664 Q1013.0469,727.7539 1013.0469,727.207 Q1013.0469,726.7539 1013.3594,726.4883 Q1013.6563,726.207 1014.375,726.207 L1017.0781,726.207 Q1017.7969,726.207 1018.0938,726.4883 Q1018.4063,726.7539 1018.4063,727.207 Q1018.4063,727.6602 1018.1094,727.9414 Q1017.8125,728.2227 1017.0781,728.2227 L1016.6094,728.2227 L1019.5,735.1289 Z " fill="#000000"/><text fill="#000000" font-family="sans-serif" font-size="20" font-style="italic" lengthAdjust="spacing" textLength="128" x="1032" y="726.6563">«value object»</text><text fill="#000000" font-family="sans-serif" font-size="20" lengthAdjust="spacing" textLength="81" x="1055.5" y="751.8125">FullName</text><line style="stroke:#181818;stroke-width:0.5;" x1="1004" x2="1160" y1="761.207" y2="761.207"/></g><!--class Doctor--><g id="elem_Doctor"><rect codeLine="16" fill="#F5F5DC" height="93.4688" id="Doctor" rx="2.5" ry="2.5" style="stroke:#181818;stroke-width:0.5;" width="99" x="1076.5" y="50.8945"/><ellipse cx="1092.5" cy="93.6289" fill="#ADD1B2" rx="12" ry="12" style="stroke:#181818;stroke-width:1.0;"/><path d="M1090.4531,94.6914 L1090.4531,97.6289 L1095.5469,97.6289 L1095.5469,96.5352 Q1095.5469,95.8164 1095.8281,95.5195 Q1096.1094,95.207 1096.5625,95.207 Q1097,95.207 1097.2813,95.5195 Q1097.5625,95.8164 1097.5625,96.5352 L1097.5625,99.6289 L1088.125,99.6289 Q1087.4063,99.6289 1087.0938,99.3477 Q1086.7969,99.0664 1086.7969,98.6289 Q1086.7969,98.1758 1087.1094,97.9102 Q1087.4219,97.6289 1088.125,97.6289 L1088.4375,97.6289 L1088.4375,89.8008 L1088.125,89.8008 Q1087.4063,89.8008 1087.0938,89.5195 Q1086.7969,89.2383 1086.7969,88.7852 Q1086.7969,88.332 1087.0938,88.0664 Q1087.4063,87.7852 1088.125,87.7852 L1097.1094,87.7852 L1097.1094,90.832 Q1097.1094,91.5508 1096.8281,91.8633 Q1096.5625,92.1602 1096.125,92.1602 Q1095.6719,92.1602 1095.3906,91.8633 Q1095.1094,91.5664 1095.1094,90.832 L1095.1094,89.8008 L1090.4531,89.8008 L1090.4531,92.6914 L1092.2031,92.6914 Q1092.2031,91.9102 1092.3438,91.6758 Q1092.6563,91.207 1093.2031,91.207 Q1093.6563,91.207 1093.9219,91.5195 Q1094.2031,91.8164 1094.2031,92.5352 L1094.2031,94.8477 Q1094.2031,95.5039 1094.0469,95.7227 Q1093.7344,96.1758 1093.2031,96.1758 Q1092.6563,96.1758 1092.3438,95.707 Q1092.2031,95.4727 1092.2031,94.6914 L1090.4531,94.6914 Z " fill="#000000"/><text fill="#000000" font-family="sans-serif" font-size="20" font-style="italic" lengthAdjust="spacing" textLength="69" x="1105.5" y="76.6563">«entity»</text><text fill="#000000" font-family="sans-serif" font-size="20" font-style="italic" lengthAdjust="spacing" textLength="56" x="1112" y="101.8125">«root»</text><text fill="#000000" font-family="sans-serif" font-size="20" lengthAdjust="spacing" textLength="59" x="1110.5" y="126.9688">Doctor</text><line style="stroke:#181818;stroke-width:0.5;" x1="1077.5" x2="1174.5" y1="136.3633" y2="136.3633"/></g><!--class OperationRequest--><g id="elem_OperationRequest"><rect codeLine="20" fill="#F5F5DC" height="93.4688" id="OperationRequest" rx="2.5" ry="2.5" style="stroke:#181818;stroke-width:0.5;" width="194" x="700" y="50.8945"/><ellipse cx="716" cy="93.6289" fill="#ADD1B2" rx="12" ry="12" style="stroke:#181818;stroke-width:1.0;"/><path d="M713.9531,94.6914 L713.9531,97.6289 L719.0469,97.6289 L719.0469,96.5352 Q719.0469,95.8164 719.3281,95.5195 Q719.6094,95.207 720.0625,95.207 Q720.5,95.207 720.7813,95.5195 Q721.0625,95.8164 721.0625,96.5352 L721.0625,99.6289 L711.625,99.6289 Q710.9063,99.6289 710.5938,99.3477 Q710.2969,99.0664 710.2969,98.6289 Q710.2969,98.1758 710.6094,97.9102 Q710.9219,97.6289 711.625,97.6289 L711.9375,97.6289 L711.9375,89.8008 L711.625,89.8008 Q710.9063,89.8008 710.5938,89.5195 Q710.2969,89.2383 710.2969,88.7852 Q710.2969,88.332 710.5938,88.0664 Q710.9063,87.7852 711.625,87.7852 L720.6094,87.7852 L720.6094,90.832 Q720.6094,91.5508 720.3281,91.8633 Q720.0625,92.1602 719.625,92.1602 Q719.1719,92.1602 718.8906,91.8633 Q718.6094,91.5664 718.6094,90.832 L718.6094,89.8008 L713.9531,89.8008 L713.9531,92.6914 L715.7031,92.6914 Q715.7031,91.9102 715.8438,91.6758 Q716.1563,91.207 716.7031,91.207 Q717.1563,91.207 717.4219,91.5195 Q717.7031,91.8164 717.7031,92.5352 L717.7031,94.8477 Q717.7031,95.5039 717.5469,95.7227 Q717.2344,96.1758 716.7031,96.1758 Q716.1563,96.1758 715.8438,95.707 Q715.7031,95.4727 715.7031,94.6914 L713.9531,94.6914 Z " fill="#000000"/><text fill="#000000" font-family="sans-serif" font-size="20" font-style="italic" lengthAdjust="spacing" textLength="69" x="776.5" y="76.6563">«entity»</text><text fill="#000000" font-family="sans-serif" font-size="20" font-style="italic" lengthAdjust="spacing" textLength="56" x="783" y="101.8125">«root»</text><text fill="#000000" font-family="sans-serif" font-size="20" lengthAdjust="spacing" textLength="160" x="731" y="126.9688">OperationRequest</text><line style="stroke:#181818;stroke-width:0.5;" x1="701" x2="893" y1="136.3633" y2="136.3633"/></g><!--class OperationRequestId--><g id="elem_OperationRequestId"><rect codeLine="21" fill="#F5F5DC" height="93.4688" id="OperationRequestId" rx="2.5" ry="2.5" style="stroke:#181818;stroke-width:0.5;" width="211" x="22.5" y="206.8945"/><ellipse cx="38.5" cy="249.6289" fill="#FF8B40" rx="12" ry="12" style="stroke:#181818;stroke-width:1.0;"/><path d="M39,253.707 L41.8906,246.8008 L41.4375,246.8008 Q40.7188,246.8008 40.4063,246.5195 Q40.0938,246.2383 40.0938,245.7852 Q40.0938,245.332 40.4063,245.0664 Q40.7188,244.7852 41.4375,244.7852 L44.125,244.7852 Q44.8438,244.7852 45.1563,245.0664 Q45.4688,245.332 45.4688,245.7852 Q45.4688,246.332 45,246.6445 Q44.7656,246.8008 44.0781,246.8008 L39.9688,256.6289 L38.0469,256.6289 L33.9375,246.8008 Q33.2344,246.8008 33.0156,246.6445 Q32.5469,246.332 32.5469,245.7852 Q32.5469,245.332 32.8594,245.0664 Q33.1563,244.7852 33.875,244.7852 L36.5781,244.7852 Q37.2969,244.7852 37.5938,245.0664 Q37.9063,245.332 37.9063,245.7852 Q37.9063,246.2383 37.6094,246.5195 Q37.3125,246.8008 36.5781,246.8008 L36.1094,246.8008 L39,253.707 Z " fill="#000000"/><text fill="#000000" font-family="sans-serif" font-size="20" font-style="italic" lengthAdjust="spacing" textLength="128" x="78" y="232.6563">«value object»</text><text fill="#000000" font-family="sans-serif" font-size="20" font-style="italic" lengthAdjust="spacing" textLength="99" x="92.5" y="257.8125">«identifier»</text><text fill="#000000" font-family="sans-serif" font-size="20" lengthAdjust="spacing" textLength="177" x="53.5" y="282.9688">OperationRequestId</text><line style="stroke:#181818;stroke-width:0.5;" x1="23.5" x2="232.5" y1="292.3633" y2="292.3633"/></g><!--class Priority--><g id="elem_Priority"><rect codeLine="22" fill="#F5F5DC" height="93.4688" id="Priority" rx="2.5" ry="2.5" style="stroke:#181818;stroke-width:0.5;" width="158" x="269" y="206.8945"/><ellipse cx="285" cy="249.6289" fill="#FF8B40" rx="12" ry="12" style="stroke:#181818;stroke-width:1.0;"/><path d="M285.5,253.707 L288.3906,246.8008 L287.9375,246.8008 Q287.2188,246.8008 286.9063,246.5195 Q286.5938,246.2383 286.5938,245.7852 Q286.5938,245.332 286.9063,245.0664 Q287.2188,244.7852 287.9375,244.7852 L290.625,244.7852 Q291.3438,244.7852 291.6563,245.0664 Q291.9688,245.332 291.9688,245.7852 Q291.9688,246.332 291.5,246.6445 Q291.2656,246.8008 290.5781,246.8008 L286.4688,256.6289 L284.5469,256.6289 L280.4375,246.8008 Q279.7344,246.8008 279.5156,246.6445 Q279.0469,246.332 279.0469,245.7852 Q279.0469,245.332 279.3594,245.0664 Q279.6563,244.7852 280.375,244.7852 L283.0781,244.7852 Q283.7969,244.7852 284.0938,245.0664 Q284.4063,245.332 284.4063,245.7852 Q284.4063,246.2383 284.1094,246.5195 Q283.8125,246.8008 283.0781,246.8008 L282.6094,246.8008 L285.5,253.707 Z " fill="#000000"/><text fill="#000000" font-family="sans-serif" font-size="20" font-style="italic" lengthAdjust="spacing" textLength="128" x="298" y="232.6563">«value object»</text><text fill="#000000" font-family="sans-serif" font-size="20" font-style="italic" lengthAdjust="spacing" textLength="99" x="312.5" y="257.8125">«identifier»</text><text fill="#000000" font-family="sans-serif" font-size="20" lengthAdjust="spacing" textLength="62" x="331" y="282.9688">Priority</text><line style="stroke:#181818;stroke-width:0.5;" x1="270" x2="426" y1="292.3633" y2="292.3633"/></g><!--class Status--><g id="elem_Status"><rect codeLine="23" fill="#F5F5DC" height="93.4688" id="Status" rx="2.5" ry="2.5" style="stroke:#181818;stroke-width:0.5;" width="158" x="462" y="206.8945"/><ellipse cx="478" cy="249.6289" fill="#FF8B40" rx="12" ry="12" style="stroke:#181818;stroke-width:1.0;"/><path d="M478.5,253.707 L481.3906,246.8008 L480.9375,246.8008 Q480.2188,246.8008 479.9063,246.5195 Q479.5938,246.2383 479.5938,245.7852 Q479.5938,245.332 479.9063,245.0664 Q480.2188,244.7852 480.9375,244.7852 L483.625,244.7852 Q484.3438,244.7852 484.6563,245.0664 Q484.9688,245.332 484.9688,245.7852 Q484.9688,246.332 484.5,246.6445 Q484.2656,246.8008 483.5781,246.8008 L479.4688,256.6289 L477.5469,256.6289 L473.4375,246.8008 Q472.7344,246.8008 472.5156,246.6445 Q472.0469,246.332 472.0469,245.7852 Q472.0469,245.332 472.3594,245.0664 Q472.6563,244.7852 473.375,244.7852 L476.0781,244.7852 Q476.7969,244.7852 477.0938,245.0664 Q477.4063,245.332 477.4063,245.7852 Q477.4063,246.2383 477.1094,246.5195 Q476.8125,246.8008 476.0781,246.8008 L475.6094,246.8008 L478.5,253.707 Z " fill="#000000"/><text fill="#000000" font-family="sans-serif" font-size="20" font-style="italic" lengthAdjust="spacing" textLength="128" x="491" y="232.6563">«value object»</text><text fill="#000000" font-family="sans-serif" font-size="20" font-style="italic" lengthAdjust="spacing" textLength="99" x="505.5" y="257.8125">«identifier»</text><text fill="#000000" font-family="sans-serif" font-size="20" lengthAdjust="spacing" textLength="56" x="527" y="282.9688">Status</text><line style="stroke:#181818;stroke-width:0.5;" x1="463" x2="619" y1="292.3633" y2="292.3633"/></g><!--class DateOfRequest--><g id="elem_DateOfRequest"><rect codeLine="24" fill="#F5F5DC" height="93.4688" id="DateOfRequest" rx="2.5" ry="2.5" style="stroke:#181818;stroke-width:0.5;" width="171" x="655.5" y="206.8945"/><ellipse cx="671.5" cy="249.6289" fill="#FF8B40" rx="12" ry="12" style="stroke:#181818;stroke-width:1.0;"/><path d="M672,253.707 L674.8906,246.8008 L674.4375,246.8008 Q673.7188,246.8008 673.4063,246.5195 Q673.0938,246.2383 673.0938,245.7852 Q673.0938,245.332 673.4063,245.0664 Q673.7188,244.7852 674.4375,244.7852 L677.125,244.7852 Q677.8438,244.7852 678.1563,245.0664 Q678.4688,245.332 678.4688,245.7852 Q678.4688,246.332 678,246.6445 Q677.7656,246.8008 677.0781,246.8008 L672.9688,256.6289 L671.0469,256.6289 L666.9375,246.8008 Q666.2344,246.8008 666.0156,246.6445 Q665.5469,246.332 665.5469,245.7852 Q665.5469,245.332 665.8594,245.0664 Q666.1563,244.7852 666.875,244.7852 L669.5781,244.7852 Q670.2969,244.7852 670.5938,245.0664 Q670.9063,245.332 670.9063,245.7852 Q670.9063,246.2383 670.6094,246.5195 Q670.3125,246.8008 669.5781,246.8008 L669.1094,246.8008 L672,253.707 Z " fill="#000000"/><text fill="#000000" font-family="sans-serif" font-size="20" font-style="italic" lengthAdjust="spacing" textLength="128" x="691" y="232.6563">«value object»</text><text fill="#000000" font-family="sans-serif" font-size="20" font-style="italic" lengthAdjust="spacing" textLength="99" x="705.5" y="257.8125">«identifier»</text><text fill="#000000" font-family="sans-serif" font-size="20" lengthAdjust="spacing" textLength="137" x="686.5" y="282.9688">DateOfRequest</text><line style="stroke:#181818;stroke-width:0.5;" x1="656.5" x2="825.5" y1="292.3633" y2="292.3633"/></g><!--class DeadlineDate--><g id="elem_DeadlineDate"><rect codeLine="25" fill="#F5F5DC" height="93.4688" id="DeadlineDate" rx="2.5" ry="2.5" style="stroke:#181818;stroke-width:0.5;" width="158" x="862" y="206.8945"/><ellipse cx="878" cy="249.6289" fill="#FF8B40" rx="12" ry="12" style="stroke:#181818;stroke-width:1.0;"/><path d="M878.5,253.707 L881.3906,246.8008 L880.9375,246.8008 Q880.2188,246.8008 879.9063,246.5195 Q879.5938,246.2383 879.5938,245.7852 Q879.5938,245.332 879.9063,245.0664 Q880.2188,244.7852 880.9375,244.7852 L883.625,244.7852 Q884.3438,244.7852 884.6563,245.0664 Q884.9688,245.332 884.9688,245.7852 Q884.9688,246.332 884.5,246.6445 Q884.2656,246.8008 883.5781,246.8008 L879.4688,256.6289 L877.5469,256.6289 L873.4375,246.8008 Q872.7344,246.8008 872.5156,246.6445 Q872.0469,246.332 872.0469,245.7852 Q872.0469,245.332 872.3594,245.0664 Q872.6563,244.7852 873.375,244.7852 L876.0781,244.7852 Q876.7969,244.7852 877.0938,245.0664 Q877.4063,245.332 877.4063,245.7852 Q877.4063,246.2383 877.1094,246.5195 Q876.8125,246.8008 876.0781,246.8008 L875.6094,246.8008 L878.5,253.707 Z " fill="#000000"/><text fill="#000000" font-family="sans-serif" font-size="20" font-style="italic" lengthAdjust="spacing" textLength="128" x="891" y="232.6563">«value object»</text><text fill="#000000" font-family="sans-serif" font-size="20" font-style="italic" lengthAdjust="spacing" textLength="99" x="905.5" y="257.8125">«identifier»</text><text fill="#000000" font-family="sans-serif" font-size="20" lengthAdjust="spacing" textLength="118" x="896" y="282.9688">DeadlineDate</text><line style="stroke:#181818;stroke-width:0.5;" x1="863" x2="1019" y1="292.3633" y2="292.3633"/></g><!--class OperationType--><g id="elem_OperationType"><rect codeLine="29" fill="#F5F5DC" height="93.4688" id="OperationType" rx="2.5" ry="2.5" style="stroke:#181818;stroke-width:0.5;" width="165" x="1262.5" y="392.8945"/><ellipse cx="1278.5" cy="435.6289" fill="#ADD1B2" rx="12" ry="12" style="stroke:#181818;stroke-width:1.0;"/><path d="M1276.4531,436.6914 L1276.4531,439.6289 L1281.5469,439.6289 L1281.5469,438.5352 Q1281.5469,437.8164 1281.8281,437.5195 Q1282.1094,437.207 1282.5625,437.207 Q1283,437.207 1283.2813,437.5195 Q1283.5625,437.8164 1283.5625,438.5352 L1283.5625,441.6289 L1274.125,441.6289 Q1273.4063,441.6289 1273.0938,441.3477 Q1272.7969,441.0664 1272.7969,440.6289 Q1272.7969,440.1758 1273.1094,439.9102 Q1273.4219,439.6289 1274.125,439.6289 L1274.4375,439.6289 L1274.4375,431.8008 L1274.125,431.8008 Q1273.4063,431.8008 1273.0938,431.5195 Q1272.7969,431.2383 1272.7969,430.7852 Q1272.7969,430.332 1273.0938,430.0664 Q1273.4063,429.7852 1274.125,429.7852 L1283.1094,429.7852 L1283.1094,432.832 Q1283.1094,433.5508 1282.8281,433.8633 Q1282.5625,434.1602 1282.125,434.1602 Q1281.6719,434.1602 1281.3906,433.8633 Q1281.1094,433.5664 1281.1094,432.832 L1281.1094,431.8008 L1276.4531,431.8008 L1276.4531,434.6914 L1278.2031,434.6914 Q1278.2031,433.9102 1278.3438,433.6758 Q1278.6563,433.207 1279.2031,433.207 Q1279.6563,433.207 1279.9219,433.5195 Q1280.2031,433.8164 1280.2031,434.5352 L1280.2031,436.8477 Q1280.2031,437.5039 1280.0469,437.7227 Q1279.7344,438.1758 1279.2031,438.1758 Q1278.6563,438.1758 1278.3438,437.707 Q1278.2031,437.4727 1278.2031,436.6914 L1276.4531,436.6914 Z " fill="#000000"/><text fill="#000000" font-family="sans-serif" font-size="20" font-style="italic" lengthAdjust="spacing" textLength="69" x="1324.5" y="418.6563">«entity»</text><text fill="#000000" font-family="sans-serif" font-size="20" font-style="italic" lengthAdjust="spacing" textLength="56" x="1331" y="443.8125">«root»</text><text fill="#000000" font-family="sans-serif" font-size="20" lengthAdjust="spacing" textLength="131" x="1293.5" y="468.9688">OperationType</text><line style="stroke:#181818;stroke-width:0.5;" x1="1263.5" x2="1426.5" y1="478.3633" y2="478.3633"/></g><!--class OperationTypeId--><g id="elem_OperationTypeId"><rect codeLine="30" fill="#F5F5DC" height="93.4688" id="OperationTypeId" rx="2.5" ry="2.5" style="stroke:#181818;stroke-width:0.5;" width="182" x="1254" y="546.8945"/><ellipse cx="1270" cy="589.6289" fill="#FF8B40" rx="12" ry="12" style="stroke:#181818;stroke-width:1.0;"/><path d="M1270.5,593.707 L1273.3906,586.8008 L1272.9375,586.8008 Q1272.2188,586.8008 1271.9063,586.5195 Q1271.5938,586.2383 1271.5938,585.7852 Q1271.5938,585.332 1271.9063,585.0664 Q1272.2188,584.7852 1272.9375,584.7852 L1275.625,584.7852 Q1276.3438,584.7852 1276.6563,585.0664 Q1276.9688,585.332 1276.9688,585.7852 Q1276.9688,586.332 1276.5,586.6445 Q1276.2656,586.8008 1275.5781,586.8008 L1271.4688,596.6289 L1269.5469,596.6289 L1265.4375,586.8008 Q1264.7344,586.8008 1264.5156,586.6445 Q1264.0469,586.332 1264.0469,585.7852 Q1264.0469,585.332 1264.3594,585.0664 Q1264.6563,584.7852 1265.375,584.7852 L1268.0781,584.7852 Q1268.7969,584.7852 1269.0938,585.0664 Q1269.4063,585.332 1269.4063,585.7852 Q1269.4063,586.2383 1269.1094,586.5195 Q1268.8125,586.8008 1268.0781,586.8008 L1267.6094,586.8008 L1270.5,593.707 Z " fill="#000000"/><text fill="#000000" font-family="sans-serif" font-size="20" font-style="italic" lengthAdjust="spacing" textLength="128" x="1295" y="572.6563">«value object»</text><text fill="#000000" font-family="sans-serif" font-size="20" font-style="italic" lengthAdjust="spacing" textLength="99" x="1309.5" y="597.8125">«identifier»</text><text fill="#000000" font-family="sans-serif" font-size="20" lengthAdjust="spacing" textLength="148" x="1285" y="622.9688">OperationTypeId</text><line style="stroke:#181818;stroke-width:0.5;" x1="1255" x2="1435" y1="632.3633" y2="632.3633"/></g><!--class OperationTypeName--><g id="elem_OperationTypeName"><rect codeLine="31" fill="#F5F5DC" height="68.3125" id="OperationTypeName" rx="2.5" ry="2.5" style="stroke:#181818;stroke-width:0.5;" width="216" x="1471" y="559.3945"/><ellipse cx="1487" cy="589.5508" fill="#FF8B40" rx="12" ry="12" style="stroke:#181818;stroke-width:1.0;"/><path d="M1487.5,593.6289 L1490.3906,586.7227 L1489.9375,586.7227 Q1489.2188,586.7227 1488.9063,586.4414 Q1488.5938,586.1602 1488.5938,585.707 Q1488.5938,585.2539 1488.9063,584.9883 Q1489.2188,584.707 1489.9375,584.707 L1492.625,584.707 Q1493.3438,584.707 1493.6563,584.9883 Q1493.9688,585.2539 1493.9688,585.707 Q1493.9688,586.2539 1493.5,586.5664 Q1493.2656,586.7227 1492.5781,586.7227 L1488.4688,596.5508 L1486.5469,596.5508 L1482.4375,586.7227 Q1481.7344,586.7227 1481.5156,586.5664 Q1481.0469,586.2539 1481.0469,585.707 Q1481.0469,585.2539 1481.3594,584.9883 Q1481.6563,584.707 1482.375,584.707 L1485.0781,584.707 Q1485.7969,584.707 1486.0938,584.9883 Q1486.4063,585.2539 1486.4063,585.707 Q1486.4063,586.1602 1486.1094,586.4414 Q1485.8125,586.7227 1485.0781,586.7227 L1484.6094,586.7227 L1487.5,593.6289 Z " fill="#000000"/><text fill="#000000" font-family="sans-serif" font-size="20" font-style="italic" lengthAdjust="spacing" textLength="128" x="1529" y="585.1563">«value object»</text><text fill="#000000" font-family="sans-serif" font-size="20" lengthAdjust="spacing" textLength="182" x="1502" y="610.3125">OperationTypeName</text><line style="stroke:#181818;stroke-width:0.5;" x1="1472" x2="1686" y1="619.707" y2="619.707"/></g><!--class RequiredStaff--><g id="elem_RequiredStaff"><rect codeLine="32" fill="#F5F5DC" height="68.3125" id="RequiredStaff" rx="2.5" ry="2.5" style="stroke:#181818;stroke-width:0.5;" width="158" x="1366" y="700.8945"/><ellipse cx="1382" cy="731.0508" fill="#FF8B40" rx="12" ry="12" style="stroke:#181818;stroke-width:1.0;"/><path d="M1382.5,735.1289 L1385.3906,728.2227 L1384.9375,728.2227 Q1384.2188,728.2227 1383.9063,727.9414 Q1383.5938,727.6602 1383.5938,727.207 Q1383.5938,726.7539 1383.9063,726.4883 Q1384.2188,726.207 1384.9375,726.207 L1387.625,726.207 Q1388.3438,726.207 1388.6563,726.4883 Q1388.9688,726.7539 1388.9688,727.207 Q1388.9688,727.7539 1388.5,728.0664 Q1388.2656,728.2227 1387.5781,728.2227 L1383.4688,738.0508 L1381.5469,738.0508 L1377.4375,728.2227 Q1376.7344,728.2227 1376.5156,728.0664 Q1376.0469,727.7539 1376.0469,727.207 Q1376.0469,726.7539 1376.3594,726.4883 Q1376.6563,726.207 1377.375,726.207 L1380.0781,726.207 Q1380.7969,726.207 1381.0938,726.4883 Q1381.4063,726.7539 1381.4063,727.207 Q1381.4063,727.6602 1381.1094,727.9414 Q1380.8125,728.2227 1380.0781,728.2227 L1379.6094,728.2227 L1382.5,735.1289 Z " fill="#000000"/><text fill="#000000" font-family="sans-serif" font-size="20" font-style="italic" lengthAdjust="spacing" textLength="128" x="1395" y="726.6563">«value object»</text><text fill="#000000" font-family="sans-serif" font-size="20" lengthAdjust="spacing" textLength="121" x="1398.5" y="751.8125">RequiredStaff</text><line style="stroke:#181818;stroke-width:0.5;" x1="1367" x2="1523" y1="761.207" y2="761.207"/></g><g id="elem_GMN22"><path d="M1217,717.3945 L1217,752.5508 A0,0 0 0 0 1217,752.5508 L1331,752.5508 A0,0 0 0 0 1331,752.5508 L1331,738.8945 L1365.81,734.8945 L1331,730.8945 L1331,727.3945 L1321,717.3945 L1217,717.3945 A0,0 0 0 0 1217,717.3945 " fill="#FEFFDD" style="stroke:#181818;stroke-width:0.5;"/><path d="M1321,717.3945 L1321,727.3945 L1331,727.3945 L1321,717.3945 " fill="#FEFFDD" style="stroke:#181818;stroke-width:0.5;"/><text fill="#000000" font-family="sans-serif" font-size="20" lengthAdjust="spacing" textLength="93" x="1223" y="743.1563">review this</text></g><!--class EstimatedDuration--><g id="elem_EstimatedDuration"><rect codeLine="34" fill="#F5F5DC" height="68.3125" id="EstimatedDuration" rx="2.5" ry="2.5" style="stroke:#181818;stroke-width:0.5;" width="195" x="1559.5" y="700.8945"/><ellipse cx="1575.5" cy="731.0508" fill="#FF8B40" rx="12" ry="12" style="stroke:#181818;stroke-width:1.0;"/><path d="M1576,735.1289 L1578.8906,728.2227 L1578.4375,728.2227 Q1577.7188,728.2227 1577.4063,727.9414 Q1577.0938,727.6602 1577.0938,727.207 Q1577.0938,726.7539 1577.4063,726.4883 Q1577.7188,726.207 1578.4375,726.207 L1581.125,726.207 Q1581.8438,726.207 1582.1563,726.4883 Q1582.4688,726.7539 1582.4688,727.207 Q1582.4688,727.7539 1582,728.0664 Q1581.7656,728.2227 1581.0781,728.2227 L1576.9688,738.0508 L1575.0469,738.0508 L1570.9375,728.2227 Q1570.2344,728.2227 1570.0156,728.0664 Q1569.5469,727.7539 1569.5469,727.207 Q1569.5469,726.7539 1569.8594,726.4883 Q1570.1563,726.207 1570.875,726.207 L1573.5781,726.207 Q1574.2969,726.207 1574.5938,726.4883 Q1574.9063,726.7539 1574.9063,727.207 Q1574.9063,727.6602 1574.6094,727.9414 Q1574.3125,728.2227 1573.5781,728.2227 L1573.1094,728.2227 L1576,735.1289 Z " fill="#000000"/><text fill="#000000" font-family="sans-serif" font-size="20" font-style="italic" lengthAdjust="spacing" textLength="128" x="1607" y="726.6563">«value object»</text><text fill="#000000" font-family="sans-serif" font-size="20" lengthAdjust="spacing" textLength="161" x="1590.5" y="751.8125">EstimatedDuration</text><line style="stroke:#181818;stroke-width:0.5;" x1="1560.5" x2="1753.5" y1="761.207" y2="761.207"/></g><!--link Name to FirstName--><g id="link_Name_FirstName"><path codeLine="39" d="M870.73,627.4545 C835.78,648.7445 790.36,676.4145 754.59,698.2045 " fill="none" id="Name-to-FirstName" style="stroke:#222222;stroke-width:1.0;"/><polygon fill="#222222" points="750.28,700.8345,760.0476,699.5718,754.551,698.2348,755.888,692.7382,750.28,700.8345" style="stroke:#222222;stroke-width:1.0;"/></g><!--link Name to LastName--><g id="link_Name_LastName"><path codeLine="40" d="M916.47,627.4545 C911.19,647.8945 904.4,674.2045 898.89,695.5545 " fill="none" id="Name-to-LastName" style="stroke:#222222;stroke-width:1.0;"/><polygon fill="#222222" points="897.6,700.5845,903.7117,692.8614,898.8429,695.7415,895.9628,690.8727,897.6,700.5845" style="stroke:#222222;stroke-width:1.0;"/></g><!--link Name to FullName--><g id="link_Name_FullName"><path codeLine="41" d="M962.21,627.4545 C985.88,648.4845 1016.55,675.7345 1040.93,697.4045 " fill="none" id="Name-to-FullName" style="stroke:#222222;stroke-width:1.0;"/><polygon fill="#222222" points="1044.79,700.8345,1040.7208,691.8656,1041.053,697.5127,1035.4059,697.8449,1044.79,700.8345" style="stroke:#222222;stroke-width:1.0;"/></g><!--link OperationType to OperationTypeId--><g id="link_OperationType_OperationTypeId"><path codeLine="43" d="M1345,486.0045 C1345,503.5845 1345,523.7645 1345,541.7945 " fill="none" id="OperationType-to-OperationTypeId" style="stroke:#222222;stroke-width:1.0;"/><polygon fill="#222222" points="1345,546.8245,1349,537.8245,1345,541.8245,1341,537.8245,1345,546.8245" style="stroke:#222222;stroke-width:1.0;"/><text fill="#000000" font-family="sans-serif" font-size="20" lengthAdjust="spacing" textLength="11" x="1333.2609" y="534.6277">1</text></g><!--link OperationType to OperationTypeName--><g id="link_OperationType_OperationTypeName"><path codeLine="44" d="M1415.21,486.0045 C1449.99,508.5945 1491.39,535.4845 1523.86,556.5745 " fill="none" id="OperationType-to-OperationTypeName" style="stroke:#222222;stroke-width:1.0;"/><polygon fill="#222222" points="1528.18,559.3845,1522.812,551.1271,1523.9871,556.6606,1518.4537,557.8357,1528.18,559.3845" style="stroke:#222222;stroke-width:1.0;"/><text fill="#000000" font-family="sans-serif" font-size="20" lengthAdjust="spacing" textLength="11" x="1507.5" y="547.1389">1</text></g><!--link OperationType to RequiredStaff--><g id="link_OperationType_RequiredStaff"><path codeLine="45" d="M1282.32,486.1345 C1264.2,502.9845 1246.7,523.6945 1237,546.8945 C1221.05,585.0245 1214.58,605.1645 1237,639.8945 C1244.56,651.6145 1306.69,678.8545 1361.09,701.0145 " fill="none" id="OperationType-to-RequiredStaff" style="stroke:#222222;stroke-width:1.0;"/><polygon fill="#222222" points="1365.99,703.0145,1359.1644,695.9145,1361.3595,701.128,1356.146,703.3232,1365.99,703.0145" style="stroke:#222222;stroke-width:1.0;"/><text fill="#000000" font-family="sans-serif" font-size="20" lengthAdjust="spacing" textLength="11" x="1346.9351" y="694.5388">1</text></g><!--link OperationType to EstimatedDuration--><g id="link_OperationType_EstimatedDuration"><path codeLine="46" d="M1427.52,453.2045 C1523.1,469.9145 1671.75,502.3845 1705,546.8945 C1738,591.0645 1708.77,655.6845 1683.66,696.2345 " fill="none" id="OperationType-to-EstimatedDuration" style="stroke:#222222;stroke-width:1.0;"/><polygon fill="#222222" points="1680.93,700.5745,1689.1186,695.1021,1683.6005,696.3474,1682.3552,690.8293,1680.93,700.5745" style="stroke:#222222;stroke-width:1.0;"/><text fill="#000000" font-family="sans-serif" font-size="20" lengthAdjust="spacing" textLength="11" x="1672.9825" y="688.5687">1</text></g><!--link OperationRequest to OperationRequestId--><g id="link_OperationRequest_OperationRequestId"><path codeLine="48" d="M699.74,112.9545 C589.69,130.5145 405.63,163.2245 251,206.8945 C246.91,208.0545 242.75,209.2845 238.57,210.5645 " fill="none" id="OperationRequest-to-OperationRequestId" style="stroke:#222222;stroke-width:1.0;"/><polygon fill="#222222" points="233.66,212.1045,243.4423,213.248,238.4339,210.618,241.0639,205.6097,233.66,212.1045" style="stroke:#222222;stroke-width:1.0;"/><text fill="#000000" font-family="sans-serif" font-size="20" lengthAdjust="spacing" textLength="11" x="241.4759" y="204.0732">1</text></g><!--link OperationRequest to Priority--><g id="link_OperationRequest_Priority"><path codeLine="49" d="M699.83,124.1745 C628.2,144.1645 528.87,173.9345 444,206.8945 C440.05,208.4345 436.03,210.0545 431.99,211.7445 " fill="none" id="OperationRequest-to-Priority" style="stroke:#222222;stroke-width:1.0;"/><polygon fill="#222222" points="427.24,213.7545,437.0872,213.9376,431.846,211.8091,433.9745,206.568,427.24,213.7545" style="stroke:#222222;stroke-width:1.0;"/><text fill="#000000" font-family="sans-serif" font-size="20" lengthAdjust="spacing" textLength="11" x="435.052" y="204.6952">1</text></g><!--link OperationRequest to Patient--><g id="link_OperationRequest_Patient"><path codeLine="50" d="M894.18,116.1245 C946.14,131.0445 1005.88,158.1345 1038,206.8945 C1073.38,260.6045 1066.1,337.6145 1055.66,387.8045 " fill="none" id="OperationRequest-to-Patient" style="stroke:#222222;stroke-width:1.0;"/><polygon fill="#222222" points="1054.58,392.8845,1060.3929,384.934,1055.6374,387.9976,1052.5738,383.2422,1054.58,392.8845" style="stroke:#222222;stroke-width:1.0;"/><text fill="#000000" font-family="sans-serif" font-size="20" lengthAdjust="spacing" textLength="79" x="1065" y="261.6563">made for</text><text fill="#000000" font-family="sans-serif" font-size="20" lengthAdjust="spacing" textLength="11" x="1044.5756" y="380.326">1</text></g><!--link OperationRequest to Doctor--><g id="link_OperationRequest_Doctor"><path codeLine="51" d="M894.38,97.3945 C952.15,97.3945 1023.25,97.3945 1071.32,97.3945 " fill="none" id="OperationRequest-to-Doctor" style="stroke:#222222;stroke-width:1.0;"/><polygon fill="#222222" points="1076.48,97.3945,1067.48,93.3945,1071.48,97.3945,1067.48,101.3945,1076.48,97.3945" style="stroke:#222222;stroke-width:1.0;"/><text fill="#000000" font-family="sans-serif" font-size="20" lengthAdjust="spacing" textLength="98" x="936.25" y="89.1563">registed by</text><text fill="#000000" font-family="sans-serif" font-size="20" lengthAdjust="spacing" textLength="11" x="1057.3989" y="91.2974">1</text></g><!--link OperationRequest to OperationType--><g id="link_OperationRequest_OperationType"><path codeLine="52" d="M894.24,124.9245 C991.9,152.0645 1131.01,192.2645 1153,206.8945 C1224.25,254.3045 1282.96,335.8945 1315.99,388.4645 " fill="none" id="OperationRequest-to-OperationType" style="stroke:#222222;stroke-width:1.0;"/><polygon fill="#222222" points="1318.71,392.8245,1317.3468,383.0705,1316.0664,388.5805,1310.5564,387.3002,1318.71,392.8245" style="stroke:#222222;stroke-width:1.0;"/><text fill="#000000" font-family="sans-serif" font-size="20" lengthAdjust="spacing" textLength="91" x="1272" y="261.6563">defined by</text><text fill="#000000" font-family="sans-serif" font-size="20" lengthAdjust="spacing" textLength="11" x="1303.4382" y="380.6277">1</text></g><!--link OperationRequest to DateOfRequest--><g id="link_OperationRequest_DateOfRequest"><path codeLine="53" d="M780.35,144.1845 C773.78,162.2545 766.2,183.0845 759.46,201.6245 " fill="none" id="OperationRequest-to-DateOfRequest" style="stroke:#222222;stroke-width:1.0;"/><polygon fill="#222222" points="757.59,206.7845,764.4318,199.7,759.3033,202.0872,756.9161,196.9588,757.59,206.7845" style="stroke:#222222;stroke-width:1.0;"/><text fill="#000000" font-family="sans-serif" font-size="20" lengthAdjust="spacing" textLength="11" x="748.0802" y="194.5823">1</text></g><!--link OperationRequest to DeadlineDate--><g id="link_OperationRequest_DeadlineDate"><path codeLine="54" d="M839.81,144.1845 C857.15,162.7145 877.2,184.1545 894.85,203.0445 " fill="none" id="OperationRequest-to-DeadlineDate" style="stroke:#222222;stroke-width:1.0;"/><polygon fill="#222222" points="898.35,206.7845,895.1139,197.4825,894.9308,203.1364,889.2769,202.9533,898.35,206.7845" style="stroke:#222222;stroke-width:1.0;"/><text fill="#000000" font-family="sans-serif" font-size="20" lengthAdjust="spacing" textLength="11" x="880.8798" y="194.5823">1</text></g><!--link OperationRequest to Status--><g id="link_OperationRequest_Status"><path codeLine="55" d="M721.23,143.9745 C689.89,162.8245 653.51,184.7145 621.68,203.8645 " fill="none" id="OperationRequest-to-Status" style="stroke:#222222;stroke-width:1.0;"/><polygon fill="#222222" points="617.02,206.6645,626.7954,205.464,621.3075,204.0921,622.6795,198.6041,617.02,206.6645" style="stroke:#222222;stroke-width:1.0;"/><text fill="#000000" font-family="sans-serif" font-size="20" lengthAdjust="spacing" textLength="11" x="615.4961" y="194.4462">1</text></g><!--link Patient to Name--><g id="link_Patient_Name"><path codeLine="57" d="M1006.9,486.0045 C989.86,508.1345 969.65,534.3845 953.57,555.2745 " fill="none" id="Patient-to-Name" style="stroke:#222222;stroke-width:1.0;"/><polygon fill="#222222" points="950.41,559.3845,959.0671,554.6882,953.4579,555.4209,952.7252,549.8117,950.41,559.3845" style="stroke:#222222;stroke-width:1.0;"/><text fill="#000000" font-family="sans-serif" font-size="20" lengthAdjust="spacing" textLength="11" x="942.832" y="547.1389">1</text></g><!--SRC=[fLLDQzmm4BthLmpEfOK6jg67iXX3qeqXK9hGbDwrzjXHLhPSIKv8G_vxHxQLjRth_QfFHlFUqymRZMHMegouveLKoGfJI37ZjRInAksz-8jmCMF6Go2Ht9XBQxLOrXPl4bKsc1bx42a25fLz0Ux3PaoyuiagrwekqszAAWrB53dsG9TQg-SsT7RHV8nLnE4vGX26FCyrvjnY5C4Tjm9B6y0h0_heLz3MtIg4ORj0m33KIbdwUNrha4qYy8CNIA4Flp-TnV7Ngo-pZqzSrWXg-OZ91ZeMsjZZAD_viOoubl8GnXlRRWeiL6ALZgAH9-ropnBlIAkrLUgsGarMgl8d_gdH43WOQ8xZ-mqVCsxIdNM68PqdKim4wh7KdHPAkonE5RYttDRcPFg27BhDrfMVg88ybQ94ftQaoDwk_NgfSB9bBdX4lnpyFverqDbxl8TSPx7Gc5A_ikmWNgd81ecPdOF69u7FO1-4wKbU6oiAyYfTr6rQUsNTkB4cyVFpQ7qJh9VyfFT0tIGpDZJTnOBFmTZRGr2Dt1ZN0GSsJO4s2kybvu_onixlipgDzSEu3U4XtQKyXuBJ8v4flGNSGhkxodKl5uQoXUKkvM6jS_TqqKHDaRej-jEx0zORpsbKUvCmvalqwstt_m40]--></g></svg>