<?xml version="1.0" encoding="UTF-8" standalone="no"?><svg xmlns="http://www.w3.org/2000/svg" xmlns:xlink="http://www.w3.org/1999/xlink" contentStyleType="text/css" height="594px" preserveAspectRatio="none" style="width:1060px;height:594px;background:#FFFFFF;" version="1.1" viewBox="0 0 1060 594" width="1060px" zoomAndPan="magnify"><defs/><g><text fill="#000000" font-family="sans-serif" font-size="14" font-weight="bold" lengthAdjust="spacing" textLength="235" x="411" y="29.5332">US 6.2.10 - Process View [Level 2]</text><rect fill="#FFFFFF" height="357.5625" style="stroke:#181818;stroke-width:1.0;" width="10" x="47.5" y="138.7656"/><rect fill="#FFFFFF" height="39.1563" style="stroke:#181818;stroke-width:1.0;" width="10" x="312.5" y="169.9219"/><rect fill="#FFFFFF" height="194.7813" style="stroke:#181818;stroke-width:1.0;" width="10" x="312.5" y="292.5469"/><rect fill="#FFFFFF" height="109.4688" style="stroke:#181818;stroke-width:1.0;" width="10" x="688.5" y="338.7031"/><rect fill="none" height="76.4688" style="stroke:#000000;stroke-width:1.5;" width="496" x="10" y="224.0781"/><line style="stroke:#181818;stroke-width:0.5;stroke-dasharray:5.0,5.0;" x1="52" x2="52" y1="128.7656" y2="505.3281"/><line style="stroke:#181818;stroke-width:0.5;stroke-dasharray:5.0,5.0;" x1="317" x2="317" y1="128.7656" y2="505.3281"/><line style="stroke:#181818;stroke-width:0.5;stroke-dasharray:5.0,5.0;" x1="693" x2="693" y1="128.7656" y2="505.3281"/><text fill="#000000" font-family="sans-serif" font-size="20" lengthAdjust="spacing" textLength="59" x="20" y="124.3711">Doctor</text><ellipse cx="52.5" cy="52.1094" fill="#E2E2F0" rx="8" ry="8" style="stroke:#181818;stroke-width:0.5;"/><path d="M52.5,60.1094 L52.5,87.1094 M39.5,68.1094 L65.5,68.1094 M52.5,87.1094 L39.5,102.1094 M52.5,87.1094 L65.5,102.1094 " fill="none" style="stroke:#181818;stroke-width:0.5;"/><text fill="#000000" font-family="sans-serif" font-size="20" lengthAdjust="spacing" textLength="59" x="20" y="525.0898">Doctor</text><ellipse cx="52.5" cy="537.9844" fill="#E2E2F0" rx="8" ry="8" style="stroke:#181818;stroke-width:0.5;"/><path d="M52.5,545.9844 L52.5,572.9844 M39.5,553.9844 L65.5,553.9844 M52.5,572.9844 L39.5,587.9844 M52.5,572.9844 L65.5,587.9844 " fill="none" style="stroke:#181818;stroke-width:0.5;"/><rect fill="#E2E2F0" height="64.3125" rx="2.5" ry="2.5" style="stroke:#181818;stroke-width:0.5;" width="153" x="241" y="63.4531"/><text fill="#000000" font-family="sans-serif" font-size="20" font-style="italic" lengthAdjust="spacing" textLength="139" x="248" y="91.2148">«Container C4»</text><text fill="#000000" font-family="sans-serif" font-size="20" lengthAdjust="spacing" textLength="107" x="264" y="116.3711">Visualization</text><rect fill="#E2E2F0" height="64.3125" rx="2.5" ry="2.5" style="stroke:#181818;stroke-width:0.5;" width="153" x="241" y="504.3281"/><text fill="#000000" font-family="sans-serif" font-size="20" font-style="italic" lengthAdjust="spacing" textLength="139" x="248" y="532.0898">«Container C4»</text><text fill="#000000" font-family="sans-serif" font-size="20" lengthAdjust="spacing" textLength="107" x="264" y="557.2461">Visualization</text><rect fill="#E2E2F0" height="64.3125" rx="2.5" ry="2.5" style="stroke:#181818;stroke-width:0.5;" width="153" x="617" y="63.4531"/><text fill="#000000" font-family="sans-serif" font-size="20" font-style="italic" lengthAdjust="spacing" textLength="139" x="624" y="91.2148">«Container C4»</text><text fill="#000000" font-family="sans-serif" font-size="20" lengthAdjust="spacing" textLength="123" x="632" y="116.3711">MDBackoffice</text><rect fill="#E2E2F0" height="64.3125" rx="2.5" ry="2.5" style="stroke:#181818;stroke-width:0.5;" width="153" x="617" y="504.3281"/><text fill="#000000" font-family="sans-serif" font-size="20" font-style="italic" lengthAdjust="spacing" textLength="139" x="624" y="532.0898">«Container C4»</text><text fill="#000000" font-family="sans-serif" font-size="20" lengthAdjust="spacing" textLength="123" x="632" y="557.2461">MDBackoffice</text><rect fill="#FFFFFF" height="357.5625" style="stroke:#181818;stroke-width:1.0;" width="10" x="47.5" y="138.7656"/><rect fill="#FFFFFF" height="39.1563" style="stroke:#181818;stroke-width:1.0;" width="10" x="312.5" y="169.9219"/><rect fill="#FFFFFF" height="194.7813" style="stroke:#181818;stroke-width:1.0;" width="10" x="312.5" y="292.5469"/><rect fill="#FFFFFF" height="109.4688" style="stroke:#181818;stroke-width:1.0;" width="10" x="688.5" y="338.7031"/><polygon fill="#181818" points="300.5,165.9219,310.5,169.9219,300.5,173.9219,304.5,169.9219" style="stroke:#181818;stroke-width:1.0;"/><line style="stroke:#181818;stroke-width:1.0;" x1="57.5" x2="306.5" y1="169.9219" y2="169.9219"/><text fill="#000000" font-family="sans-serif" font-size="20" font-weight="bold" lengthAdjust="spacing" textLength="11" x="64.5" y="163.5273">1</text><text fill="#000000" font-family="sans-serif" font-size="20" lengthAdjust="spacing" textLength="194" x="79.5" y="163.5273">list operation requests</text><polygon fill="#181818" points="68.5,205.0781,58.5,209.0781,68.5,213.0781,64.5,209.0781" style="stroke:#181818;stroke-width:1.0;"/><line style="stroke:#181818;stroke-width:1.0;stroke-dasharray:2.0,2.0;" x1="62.5" x2="316.5" y1="209.0781" y2="209.0781"/><text fill="#000000" font-family="sans-serif" font-size="20" font-weight="bold" lengthAdjust="spacing" textLength="11" x="74.5" y="202.6836">2</text><text fill="#000000" font-family="sans-serif" font-size="20" lengthAdjust="spacing" textLength="106" x="89.5" y="202.6836">select filters</text><path d="M10,224.0781 L78,224.0781 L78,241.2344 L68,251.2344 L10,251.2344 L10,224.0781 " fill="#EEEEEE" style="stroke:#000000;stroke-width:1.5;"/><rect fill="none" height="76.4688" style="stroke:#000000;stroke-width:1.5;" width="496" x="10" y="224.0781"/><text fill="#000000" font-family="sans-serif" font-size="20" font-weight="bold" lengthAdjust="spacing" textLength="23" x="25" y="245.8398">alt</text><text fill="#000000" font-family="sans-serif" font-size="20" font-weight="bold" lengthAdjust="spacing" textLength="408" x="93" y="246.8398">[doctors wants to filter operation requests]</text><polygon fill="#181818" points="300.5,288.5469,310.5,292.5469,300.5,296.5469,304.5,292.5469" style="stroke:#181818;stroke-width:1.0;"/><line style="stroke:#181818;stroke-width:1.0;" x1="57.5" x2="306.5" y1="292.5469" y2="292.5469"/><text fill="#000000" font-family="sans-serif" font-size="20" font-weight="bold" lengthAdjust="spacing" textLength="11" x="64.5" y="286.1523">3</text><text fill="#000000" font-family="sans-serif" font-size="20" lengthAdjust="spacing" textLength="116" x="79.5" y="286.1523">selects filters</text><polygon fill="#181818" points="676.5,334.7031,686.5,338.7031,676.5,342.7031,680.5,338.7031" style="stroke:#181818;stroke-width:1.0;"/><line style="stroke:#181818;stroke-width:1.0;" x1="322.5" x2="682.5" y1="338.7031" y2="338.7031"/><text fill="#000000" font-family="sans-serif" font-size="20" font-weight="bold" lengthAdjust="spacing" textLength="11" x="329.5" y="332.3086">4</text><text fill="#000000" font-family="sans-serif" font-size="20" lengthAdjust="spacing" textLength="332" x="344.5" y="332.3086">GetOperationRequestByFilters(filters)</text><path d="M703,351.7031 L703,411.7031 L1053,411.7031 L1053,361.7031 L1043,351.7031 L703,351.7031 " fill="#FEFFDD" style="stroke:#181818;stroke-width:0.5;"/><path d="M1043,351.7031 L1043,361.7031 L1053,361.7031 L1043,351.7031 " fill="#FEFFDD" style="stroke:#181818;stroke-width:0.5;"/><text fill="#000000" font-family="sans-serif" font-size="20" font-weight="bold" lengthAdjust="spacing" textLength="54" x="709" y="377.4648">filters</text><text fill="#000000" font-family="sans-serif" font-size="20" lengthAdjust="spacing" textLength="269" x="769" y="377.4648">represent the various variables</text><text fill="#000000" font-family="sans-serif" font-size="20" lengthAdjust="spacing" textLength="204" x="709" y="402.6211">passed as parameters.</text><polygon fill="#181818" points="333.5,444.1719,323.5,448.1719,333.5,452.1719,329.5,448.1719" style="stroke:#181818;stroke-width:1.0;"/><line style="stroke:#181818;stroke-width:1.0;stroke-dasharray:2.0,2.0;" x1="327.5" x2="692.5" y1="448.1719" y2="448.1719"/><text fill="#000000" font-family="sans-serif" font-size="20" font-weight="bold" lengthAdjust="spacing" textLength="11" x="339.5" y="441.7773">5</text><text fill="#000000" font-family="sans-serif" font-size="20" lengthAdjust="spacing" textLength="165" x="354.5" y="441.7773">operationRequests</text><polygon fill="#181818" points="68.5,483.3281,58.5,487.3281,68.5,491.3281,64.5,487.3281" style="stroke:#181818;stroke-width:1.0;"/><line style="stroke:#181818;stroke-width:1.0;stroke-dasharray:2.0,2.0;" x1="62.5" x2="316.5" y1="487.3281" y2="487.3281"/><text fill="#000000" font-family="sans-serif" font-size="20" font-weight="bold" lengthAdjust="spacing" textLength="11" x="74.5" y="480.9336">6</text><text fill="#000000" font-family="sans-serif" font-size="20" lengthAdjust="spacing" textLength="216" x="89.5" y="480.9336">show operation requests</text><!--SRC=[RLBVIyCm47xFNt7iIGiTSuWFHGfkOo8u58i3KH-ozkh2igRchXlkhpV9EcV77a92-7xTnz5ALRMqSgrDli822YnbetbgAixK3c4u488LQuJUQmOt_M7_QW0nF5kJ8n7C5MxX_H4tg67usHD2DcogPhr0wzuv6miJ4ov9S3UP2UV5AbUrh1XwSqMDr6edMPcgvo7pXmnkRyVENQeABOolqxJBcKr6Cb-PibGv1ahsTeRYlTL6CWPJTo1EWtW2MX63gT46Lx3utI0n7HaE9eJ7nexZg0aGQimPIgKPBOa2krYf6Oem9S7MXIHWquBF6VsBSv2cF-skCbO5UFKsJng6JU0U-UcW-xAN7VrCzmeNhTBbKSgHH6NSmwglfPkzz3y9H54BZI8NhhP8w0hc9S96McKQ2hTSQAGFjoD4RZrSts5RqFFwGlWyyM4MSvAfqvGFSTBgqcpFzNDIxoy0]--></g></svg>