<?xml version="1.0" encoding="UTF-8" standalone="no"?><svg xmlns="http://www.w3.org/2000/svg" xmlns:xlink="http://www.w3.org/1999/xlink" contentStyleType="text/css" height="1117px" preserveAspectRatio="none" style="width:2752px;height:1117px;background:#FFFFFF;" version="1.1" viewBox="0 0 2752 1117" width="2752px" zoomAndPan="magnify"><defs/><g><text fill="#000000" font-family="sans-serif" font-size="14" font-weight="bold" lengthAdjust="spacing" textLength="239" x="1258.25" y="29.5332">US 5.1.19. - Process View [Level 3]</text><rect fill="#FFFFFF" height="880.5938" style="stroke:#181818;stroke-width:1.0;" width="10" x="432" y="150.0781"/><rect fill="#FFFFFF" height="706.8125" style="stroke:#181818;stroke-width:1.0;" width="10" x="899.5" y="284.7031"/><rect fill="#FFFFFF" height="39.1563" style="stroke:#181818;stroke-width:1.0;" width="10" x="1239.5" y="369.0156"/><rect fill="#FFFFFF" height="505.0313" style="stroke:#181818;stroke-width:1.0;" width="10" x="1460" y="447.3281"/><rect fill="#FFFFFF" height="255.0938" style="stroke:#181818;stroke-width:1.0;" width="10" x="1465" y="651.1094"/><rect fill="#FFFFFF" height="39.1563" style="stroke:#181818;stroke-width:1.0;" width="10" x="1971" y="486.4844"/><rect fill="#FFFFFF" height="39.1563" style="stroke:#181818;stroke-width:1.0;" width="10" x="2141.5" y="739.5781"/><rect fill="#FFFFFF" height="39.1563" style="stroke:#181818;stroke-width:1.0;" width="10" x="2371" y="564.7969"/><rect fill="none" height="190.9375" style="stroke:#000000;stroke-width:1.5;" width="1411" x="1335.5" y="671.1094"/><line style="stroke:#181818;stroke-width:0.5;stroke-dasharray:5.0,5.0;" x1="437" x2="437" y1="108.9219" y2="1048.6719"/><line style="stroke:#181818;stroke-width:0.5;stroke-dasharray:5.0,5.0;" x1="662" x2="662" y1="108.9219" y2="1048.6719"/><line style="stroke:#181818;stroke-width:0.5;stroke-dasharray:5.0,5.0;" x1="904" x2="904" y1="108.9219" y2="1048.6719"/><line style="stroke:#181818;stroke-width:0.5;stroke-dasharray:5.0,5.0;" x1="1244.5" x2="1244.5" y1="108.9219" y2="1048.6719"/><line style="stroke:#181818;stroke-width:0.5;stroke-dasharray:5.0,5.0;" x1="1464.5" x2="1464.5" y1="108.9219" y2="1048.6719"/><line style="stroke:#181818;stroke-width:0.5;stroke-dasharray:5.0,5.0;" x1="1975.5" x2="1975.5" y1="108.9219" y2="1048.6719"/><line style="stroke:#181818;stroke-width:0.5;stroke-dasharray:5.0,5.0;" x1="2146.5" x2="2146.5" y1="108.9219" y2="1048.6719"/><line style="stroke:#181818;stroke-width:0.5;stroke-dasharray:5.0,5.0;" x1="2375.5" x2="2375.5" y1="108.9219" y2="1048.6719"/><line style="stroke:#181818;stroke-width:0.5;stroke-dasharray:5.0,5.0;" x1="2628.5" x2="2628.5" y1="834.3906" y2="1048.6719"/><rect fill="#E2E2F0" height="64.3125" rx="2.5" ry="2.5" style="stroke:#181818;stroke-width:0.5;" width="226" x="324" y="43.6094"/><text fill="#000000" font-family="sans-serif" font-size="20" font-style="italic" lengthAdjust="spacing" textLength="67" x="403.5" y="71.3711">«route»</text><text fill="#000000" font-family="sans-serif" font-size="20" lengthAdjust="spacing" textLength="212" x="331" y="96.5273">OperationRequestRoute</text><rect fill="#E2E2F0" height="64.3125" rx="2.5" ry="2.5" style="stroke:#181818;stroke-width:0.5;" width="226" x="324" y="1047.6719"/><text fill="#000000" font-family="sans-serif" font-size="20" font-style="italic" lengthAdjust="spacing" textLength="67" x="403.5" y="1075.4336">«route»</text><text fill="#000000" font-family="sans-serif" font-size="20" lengthAdjust="spacing" textLength="212" x="331" y="1100.5898">OperationRequestRoute</text><rect fill="#E2E2F0" height="64.3125" rx="2.5" ry="2.5" style="stroke:#181818;stroke-width:0.5;" width="205" x="560" y="43.6094"/><text fill="#000000" font-family="sans-serif" font-size="20" font-style="italic" lengthAdjust="spacing" textLength="49" x="638" y="71.3711">«dto»</text><text fill="#000000" font-family="sans-serif" font-size="20" lengthAdjust="spacing" textLength="191" x="567" y="96.5273">OperationRequestDto</text><rect fill="#E2E2F0" height="64.3125" rx="2.5" ry="2.5" style="stroke:#181818;stroke-width:0.5;" width="205" x="560" y="1047.6719"/><text fill="#000000" font-family="sans-serif" font-size="20" font-style="italic" lengthAdjust="spacing" textLength="49" x="638" y="1075.4336">«dto»</text><text fill="#000000" font-family="sans-serif" font-size="20" lengthAdjust="spacing" textLength="191" x="567" y="1100.5898">OperationRequestDto</text><rect fill="#E2E2F0" height="64.3125" rx="2.5" ry="2.5" style="stroke:#181818;stroke-width:0.5;" width="259" x="775" y="43.6094"/><text fill="#000000" font-family="sans-serif" font-size="20" font-style="italic" lengthAdjust="spacing" textLength="105" x="852" y="71.3711">«controller»</text><text fill="#000000" font-family="sans-serif" font-size="20" lengthAdjust="spacing" textLength="245" x="782" y="96.5273">OperationRequestController</text><rect fill="#E2E2F0" height="64.3125" rx="2.5" ry="2.5" style="stroke:#181818;stroke-width:0.5;" width="259" x="775" y="1047.6719"/><text fill="#000000" font-family="sans-serif" font-size="20" font-style="italic" lengthAdjust="spacing" textLength="105" x="852" y="1075.4336">«controller»</text><text fill="#000000" font-family="sans-serif" font-size="20" lengthAdjust="spacing" textLength="245" x="782" y="1100.5898">OperationRequestController</text><rect fill="#E2E2F0" height="64.3125" rx="2.5" ry="2.5" style="stroke:#181818;stroke-width:0.5;" width="182" x="1153.5" y="43.6094"/><text fill="#000000" font-family="sans-serif" font-size="20" font-style="italic" lengthAdjust="spacing" textLength="68" x="1210.5" y="71.3711">«utility»</text><text fill="#000000" font-family="sans-serif" font-size="20" lengthAdjust="spacing" textLength="168" x="1160.5" y="96.5273">PrincipalExtensions</text><rect fill="#E2E2F0" height="64.3125" rx="2.5" ry="2.5" style="stroke:#181818;stroke-width:0.5;" width="182" x="1153.5" y="1047.6719"/><text fill="#000000" font-family="sans-serif" font-size="20" font-style="italic" lengthAdjust="spacing" textLength="68" x="1210.5" y="1075.4336">«utility»</text><text fill="#000000" font-family="sans-serif" font-size="20" lengthAdjust="spacing" textLength="168" x="1160.5" y="1100.5898">PrincipalExtensions</text><rect fill="#E2E2F0" height="64.3125" rx="2.5" ry="2.5" style="stroke:#181818;stroke-width:0.5;" width="239" x="1345.5" y="43.6094"/><text fill="#000000" font-family="sans-serif" font-size="20" font-style="italic" lengthAdjust="spacing" textLength="86" x="1422" y="71.3711">«service»</text><text fill="#000000" font-family="sans-serif" font-size="20" lengthAdjust="spacing" textLength="225" x="1352.5" y="96.5273">OperationRequestService</text><rect fill="#E2E2F0" height="64.3125" rx="2.5" ry="2.5" style="stroke:#181818;stroke-width:0.5;" width="239" x="1345.5" y="1047.6719"/><text fill="#000000" font-family="sans-serif" font-size="20" font-style="italic" lengthAdjust="spacing" textLength="86" x="1422" y="1075.4336">«service»</text><text fill="#000000" font-family="sans-serif" font-size="20" lengthAdjust="spacing" textLength="225" x="1352.5" y="1100.5898">OperationRequestService</text><rect fill="#E2E2F0" height="64.3125" rx="2.5" ry="2.5" style="stroke:#181818;stroke-width:0.5;" width="151" x="1900.5" y="43.6094"/><text fill="#000000" font-family="sans-serif" font-size="20" font-style="italic" lengthAdjust="spacing" textLength="110" x="1921" y="71.3711">«repository»</text><text fill="#000000" font-family="sans-serif" font-size="20" lengthAdjust="spacing" textLength="137" x="1907.5" y="96.5273">StaffRepository</text><rect fill="#E2E2F0" height="64.3125" rx="2.5" ry="2.5" style="stroke:#181818;stroke-width:0.5;" width="151" x="1900.5" y="1047.6719"/><text fill="#000000" font-family="sans-serif" font-size="20" font-style="italic" lengthAdjust="spacing" textLength="110" x="1921" y="1075.4336">«repository»</text><text fill="#000000" font-family="sans-serif" font-size="20" lengthAdjust="spacing" textLength="137" x="1907.5" y="1100.5898">StaffRepository</text><rect fill="#E2E2F0" height="64.3125" rx="2.5" ry="2.5" style="stroke:#181818;stroke-width:0.5;" width="170" x="2061.5" y="43.6094"/><text fill="#000000" font-family="sans-serif" font-size="20" font-style="italic" lengthAdjust="spacing" textLength="110" x="2091.5" y="71.3711">«repository»</text><text fill="#000000" font-family="sans-serif" font-size="20" lengthAdjust="spacing" textLength="156" x="2068.5" y="96.5273">PatientRepository</text><rect fill="#E2E2F0" height="64.3125" rx="2.5" ry="2.5" style="stroke:#181818;stroke-width:0.5;" width="170" x="2061.5" y="1047.6719"/><text fill="#000000" font-family="sans-serif" font-size="20" font-style="italic" lengthAdjust="spacing" textLength="110" x="2091.5" y="1075.4336">«repository»</text><text fill="#000000" font-family="sans-serif" font-size="20" lengthAdjust="spacing" textLength="156" x="2068.5" y="1100.5898">PatientRepository</text><rect fill="#E2E2F0" height="64.3125" rx="2.5" ry="2.5" style="stroke:#181818;stroke-width:0.5;" width="269" x="2241.5" y="43.6094"/><text fill="#000000" font-family="sans-serif" font-size="20" font-style="italic" lengthAdjust="spacing" textLength="110" x="2321" y="71.3711">«repository»</text><text fill="#000000" font-family="sans-serif" font-size="20" lengthAdjust="spacing" textLength="255" x="2248.5" y="96.5273">OperationRequestRepository</text><rect fill="#E2E2F0" height="64.3125" rx="2.5" ry="2.5" style="stroke:#181818;stroke-width:0.5;" width="269" x="2241.5" y="1047.6719"/><text fill="#000000" font-family="sans-serif" font-size="20" font-style="italic" lengthAdjust="spacing" textLength="110" x="2321" y="1075.4336">«repository»</text><text fill="#000000" font-family="sans-serif" font-size="20" lengthAdjust="spacing" textLength="255" x="2248.5" y="1100.5898">OperationRequestRepository</text><rect fill="#E2E2F0" height="64.3125" rx="2.5" ry="2.5" style="stroke:#181818;stroke-width:0.5;" width="216" x="2520.5" y="1047.6719"/><text fill="#000000" font-family="sans-serif" font-size="20" font-style="italic" lengthAdjust="spacing" textLength="49" x="2604" y="1075.4336">«dto»</text><text fill="#000000" font-family="sans-serif" font-size="20" lengthAdjust="spacing" textLength="202" x="2527.5" y="1100.5898">OperationRequestDTO</text><rect fill="#FFFFFF" height="880.5938" style="stroke:#181818;stroke-width:1.0;" width="10" x="432" y="150.0781"/><rect fill="#FFFFFF" height="706.8125" style="stroke:#181818;stroke-width:1.0;" width="10" x="899.5" y="284.7031"/><rect fill="#FFFFFF" height="39.1563" style="stroke:#181818;stroke-width:1.0;" width="10" x="1239.5" y="369.0156"/><rect fill="#FFFFFF" height="505.0313" style="stroke:#181818;stroke-width:1.0;" width="10" x="1460" y="447.3281"/><rect fill="#FFFFFF" height="255.0938" style="stroke:#181818;stroke-width:1.0;" width="10" x="1465" y="651.1094"/><rect fill="#FFFFFF" height="39.1563" style="stroke:#181818;stroke-width:1.0;" width="10" x="1971" y="486.4844"/><rect fill="#FFFFFF" height="39.1563" style="stroke:#181818;stroke-width:1.0;" width="10" x="2141.5" y="739.5781"/><rect fill="#FFFFFF" height="39.1563" style="stroke:#181818;stroke-width:1.0;" width="10" x="2371" y="564.7969"/><ellipse cx="7.5" cy="149.3281" fill="none" rx="4" ry="4" style="stroke:#181818;stroke-width:1.5;"/><polygon fill="#181818" points="420,146.0781,430,150.0781,420,154.0781,424,150.0781" style="stroke:#181818;stroke-width:1.0;"/><line style="stroke:#181818;stroke-width:1.0;" x1="12" x2="426" y1="150.0781" y2="150.0781"/><text fill="#000000" font-family="sans-serif" font-size="20" font-weight="bold" lengthAdjust="spacing" textLength="11" x="15" y="143.6836">1</text><text fill="#000000" font-family="sans-serif" font-size="20" lengthAdjust="spacing" textLength="390" x="30" y="143.6836">GET  api/OperationRequest/filtered?Params</text><path d="M447,163.0781 L447,248.0781 L760,248.0781 L760,173.0781 L750,163.0781 L447,163.0781 " fill="#FEFFDD" style="stroke:#181818;stroke-width:0.5;"/><path d="M750,163.0781 L750,173.0781 L760,173.0781 L750,163.0781 " fill="#FEFFDD" style="stroke:#181818;stroke-width:0.5;"/><text fill="#000000" font-family="sans-serif" font-size="20" font-weight="bold" lengthAdjust="spacing" textLength="71" x="453" y="188.8398">Params</text><text fill="#000000" font-family="sans-serif" font-size="20" lengthAdjust="spacing" textLength="6" x="524" y="188.8398">:</text><text fill="#000000" font-family="sans-serif" font-size="20" font-weight="bold" lengthAdjust="spacing" textLength="90" x="536" y="188.8398">[optional]</text><text fill="#000000" font-family="sans-serif" font-size="20" lengthAdjust="spacing" textLength="113" x="632" y="188.8398">patientname,</text><text fill="#000000" font-family="sans-serif" font-size="20" lengthAdjust="spacing" textLength="263" x="453" y="213.9961">operationtype, priority, status,</text><text fill="#000000" font-family="sans-serif" font-size="20" lengthAdjust="spacing" textLength="229" x="453" y="239.1523">daterequest, deadlinedate</text><polygon fill="#181818" points="887.5,280.7031,897.5,284.7031,887.5,288.7031,891.5,284.7031" style="stroke:#181818;stroke-width:1.0;"/><line style="stroke:#181818;stroke-width:1.0;" x1="442" x2="893.5" y1="284.7031" y2="284.7031"/><text fill="#000000" font-family="sans-serif" font-size="20" font-weight="bold" lengthAdjust="spacing" textLength="11" x="449" y="278.3086">2</text><text fill="#000000" font-family="sans-serif" font-size="20" lengthAdjust="spacing" textLength="332" x="464" y="278.3086">GetOperationRequestByFilters(filters)</text><path d="M914,297.7031 L914,332.7031 L1474,332.7031 L1474,307.7031 L1464,297.7031 L914,297.7031 " fill="#FEFFDD" style="stroke:#181818;stroke-width:0.5;"/><path d="M1464,297.7031 L1464,307.7031 L1474,307.7031 L1464,297.7031 " fill="#FEFFDD" style="stroke:#181818;stroke-width:0.5;"/><text fill="#000000" font-family="sans-serif" font-size="20" font-weight="bold" lengthAdjust="spacing" textLength="54" x="920" y="323.4648">filters</text><text fill="#000000" font-family="sans-serif" font-size="20" lengthAdjust="spacing" textLength="479" x="980" y="323.4648">represent the various variables passed as parameters.</text><polygon fill="#181818" points="1227.5,365.0156,1237.5,369.0156,1227.5,373.0156,1231.5,369.0156" style="stroke:#181818;stroke-width:1.0;"/><line style="stroke:#181818;stroke-width:1.0;" x1="909.5" x2="1233.5" y1="369.0156" y2="369.0156"/><text fill="#000000" font-family="sans-serif" font-size="20" font-weight="bold" lengthAdjust="spacing" textLength="11" x="916.5" y="362.6211">3</text><text fill="#000000" font-family="sans-serif" font-size="20" lengthAdjust="spacing" textLength="296" x="931.5" y="362.6211">FindFirstValue(ClaimTypes.Email)</text><polygon fill="#181818" points="920.5,404.1719,910.5,408.1719,920.5,412.1719,916.5,408.1719" style="stroke:#181818;stroke-width:1.0;"/><line style="stroke:#181818;stroke-width:1.0;stroke-dasharray:2.0,2.0;" x1="914.5" x2="1243.5" y1="408.1719" y2="408.1719"/><text fill="#000000" font-family="sans-serif" font-size="20" font-weight="bold" lengthAdjust="spacing" textLength="11" x="926.5" y="401.7773">4</text><text fill="#000000" font-family="sans-serif" font-size="20" lengthAdjust="spacing" textLength="169" x="941.5" y="401.7773">emailLoggedInUser</text><polygon fill="#181818" points="1448,443.3281,1458,447.3281,1448,451.3281,1452,447.3281" style="stroke:#181818;stroke-width:1.0;"/><line style="stroke:#181818;stroke-width:1.0;" x1="909.5" x2="1454" y1="447.3281" y2="447.3281"/><text fill="#000000" font-family="sans-serif" font-size="20" font-weight="bold" lengthAdjust="spacing" textLength="11" x="916.5" y="440.9336">5</text><text fill="#000000" font-family="sans-serif" font-size="20" lengthAdjust="spacing" textLength="437" x="931.5" y="440.9336">GetOperationRequestByFiltersAsync(email,filters)</text><polygon fill="#181818" points="1959,482.4844,1969,486.4844,1959,490.4844,1963,486.4844" style="stroke:#181818;stroke-width:1.0;"/><line style="stroke:#181818;stroke-width:1.0;" x1="1470" x2="1965" y1="486.4844" y2="486.4844"/><text fill="#000000" font-family="sans-serif" font-size="20" font-weight="bold" lengthAdjust="spacing" textLength="11" x="1477" y="480.0898">6</text><text fill="#000000" font-family="sans-serif" font-size="20" lengthAdjust="spacing" textLength="228" x="1492" y="480.0898">GetStaffWithEmail(email);</text><polygon fill="#181818" points="1481,521.6406,1471,525.6406,1481,529.6406,1477,525.6406" style="stroke:#181818;stroke-width:1.0;"/><line style="stroke:#181818;stroke-width:1.0;stroke-dasharray:2.0,2.0;" x1="1475" x2="1975" y1="525.6406" y2="525.6406"/><text fill="#000000" font-family="sans-serif" font-size="20" font-weight="bold" lengthAdjust="spacing" textLength="11" x="1487" y="519.2461">7</text><text fill="#000000" font-family="sans-serif" font-size="20" lengthAdjust="spacing" textLength="39" x="1502" y="519.2461">staff</text><polygon fill="#181818" points="2359,560.7969,2369,564.7969,2359,568.7969,2363,564.7969" style="stroke:#181818;stroke-width:1.0;"/><line style="stroke:#181818;stroke-width:1.0;" x1="1470" x2="2365" y1="564.7969" y2="564.7969"/><text fill="#000000" font-family="sans-serif" font-size="20" font-weight="bold" lengthAdjust="spacing" textLength="11" x="1477" y="558.4023">8</text><text fill="#000000" font-family="sans-serif" font-size="20" lengthAdjust="spacing" textLength="285" x="1492" y="558.4023">findAllConditioned(staffId, filters)</text><polygon fill="#181818" points="1481,599.9531,1471,603.9531,1481,607.9531,1477,603.9531" style="stroke:#181818;stroke-width:1.0;"/><line style="stroke:#181818;stroke-width:1.0;stroke-dasharray:2.0,2.0;" x1="1475" x2="2375" y1="603.9531" y2="603.9531"/><text fill="#000000" font-family="sans-serif" font-size="20" font-weight="bold" lengthAdjust="spacing" textLength="11" x="1487" y="597.5586">9</text><text fill="#000000" font-family="sans-serif" font-size="20" lengthAdjust="spacing" textLength="165" x="1502" y="597.5586">operationRequests</text><line style="stroke:#181818;stroke-width:1.0;" x1="1470" x2="1517" y1="638.1094" y2="638.1094"/><line style="stroke:#181818;stroke-width:1.0;" x1="1517" x2="1517" y1="638.1094" y2="651.1094"/><line style="stroke:#181818;stroke-width:1.0;" x1="1476" x2="1517" y1="651.1094" y2="651.1094"/><polygon fill="#181818" points="1486,647.1094,1476,651.1094,1486,655.1094,1482,651.1094" style="stroke:#181818;stroke-width:1.0;"/><text fill="#000000" font-family="sans-serif" font-size="20" font-weight="bold" lengthAdjust="spacing" textLength="22" x="1482" y="631.7148">10</text><text fill="#000000" font-family="sans-serif" font-size="20" lengthAdjust="spacing" textLength="461" x="1508" y="631.7148">ConvertOperationRequestToDto(operationRequests)</text><path d="M1335.5,671.1094 L1421.5,671.1094 L1421.5,688.2656 L1411.5,698.2656 L1335.5,698.2656 L1335.5,671.1094 " fill="#EEEEEE" style="stroke:#000000;stroke-width:1.5;"/><rect fill="none" height="190.9375" style="stroke:#000000;stroke-width:1.5;" width="1411" x="1335.5" y="671.1094"/><text fill="#000000" font-family="sans-serif" font-size="20" font-weight="bold" lengthAdjust="spacing" textLength="41" x="1350.5" y="692.8711">loop</text><text fill="#000000" font-family="sans-serif" font-size="20" font-weight="bold" lengthAdjust="spacing" textLength="274" x="1436.5" y="693.8711">[for all the profiles in the list]</text><polygon fill="#181818" points="2129.5,735.5781,2139.5,739.5781,2129.5,743.5781,2133.5,739.5781" style="stroke:#181818;stroke-width:1.0;"/><line style="stroke:#181818;stroke-width:1.0;" x1="1475" x2="2135.5" y1="739.5781" y2="739.5781"/><text fill="#000000" font-family="sans-serif" font-size="20" font-weight="bold" lengthAdjust="spacing" textLength="22" x="1482" y="733.1836">11</text><text fill="#000000" font-family="sans-serif" font-size="20" lengthAdjust="spacing" textLength="216" x="1508" y="733.1836">GetByIdAsync(patientId)</text><polygon fill="#181818" points="1486,774.7344,1476,778.7344,1486,782.7344,1482,778.7344" style="stroke:#181818;stroke-width:1.0;"/><line style="stroke:#181818;stroke-width:1.0;stroke-dasharray:2.0,2.0;" x1="1480" x2="2145.5" y1="778.7344" y2="778.7344"/><text fill="#000000" font-family="sans-serif" font-size="20" font-weight="bold" lengthAdjust="spacing" textLength="22" x="1492" y="772.3398">12</text><text fill="#000000" font-family="sans-serif" font-size="20" lengthAdjust="spacing" textLength="59" x="1518" y="772.3398">patient</text><polygon fill="#181818" points="2508.5,813.8906,2518.5,817.8906,2508.5,821.8906,2512.5,817.8906" style="stroke:#181818;stroke-width:1.0;"/><line style="stroke:#181818;stroke-width:1.0;" x1="1475" x2="2514.5" y1="817.8906" y2="817.8906"/><text fill="#000000" font-family="sans-serif" font-size="20" font-weight="bold" lengthAdjust="spacing" textLength="22" x="1482" y="811.4961">13</text><text fill="#000000" font-family="sans-serif" font-size="20" lengthAdjust="spacing" textLength="529" x="1508" y="811.4961">create(patientName,operationType,operationRequestStatus)</text><rect fill="#E2E2F0" height="64.3125" rx="2.5" ry="2.5" style="stroke:#181818;stroke-width:0.5;" width="216" x="2520.5" y="786.7344"/><text fill="#000000" font-family="sans-serif" font-size="20" font-style="italic" lengthAdjust="spacing" textLength="49" x="2604" y="814.4961">«dto»</text><text fill="#000000" font-family="sans-serif" font-size="20" lengthAdjust="spacing" textLength="202" x="2527.5" y="839.6523">OperationRequestDTO</text><line style="stroke:#181818;stroke-width:1.0;stroke-dasharray:2.0,2.0;" x1="1475" x2="1517" y1="905.2031" y2="905.2031"/><line style="stroke:#181818;stroke-width:1.0;stroke-dasharray:2.0,2.0;" x1="1517" x2="1517" y1="905.2031" y2="918.2031"/><line style="stroke:#181818;stroke-width:1.0;stroke-dasharray:2.0,2.0;" x1="1470" x2="1517" y1="918.2031" y2="918.2031"/><polygon fill="#181818" points="1480,914.2031,1470,918.2031,1480,922.2031,1476,918.2031" style="stroke:#181818;stroke-width:1.0;"/><text fill="#000000" font-family="sans-serif" font-size="20" font-weight="bold" lengthAdjust="spacing" textLength="22" x="1482" y="898.8086">14</text><text fill="#000000" font-family="sans-serif" font-size="20" lengthAdjust="spacing" textLength="196" x="1508" y="898.8086">operationRequestDtos</text><polygon fill="#181818" points="920.5,948.3594,910.5,952.3594,920.5,956.3594,916.5,952.3594" style="stroke:#181818;stroke-width:1.0;"/><line style="stroke:#181818;stroke-width:1.0;stroke-dasharray:2.0,2.0;" x1="914.5" x2="1464" y1="952.3594" y2="952.3594"/><text fill="#000000" font-family="sans-serif" font-size="20" font-weight="bold" lengthAdjust="spacing" textLength="22" x="926.5" y="945.9648">15</text><text fill="#000000" font-family="sans-serif" font-size="20" lengthAdjust="spacing" textLength="207" x="952.5" y="945.9648">operationRequestDTOs</text><polygon fill="#181818" points="453,987.5156,443,991.5156,453,995.5156,449,991.5156" style="stroke:#181818;stroke-width:1.0;"/><line style="stroke:#181818;stroke-width:1.0;stroke-dasharray:2.0,2.0;" x1="447" x2="903.5" y1="991.5156" y2="991.5156"/><text fill="#000000" font-family="sans-serif" font-size="20" font-weight="bold" lengthAdjust="spacing" textLength="22" x="459" y="985.1211">16</text><text fill="#000000" font-family="sans-serif" font-size="20" lengthAdjust="spacing" textLength="207" x="485" y="985.1211">operationRequestDTOs</text><ellipse cx="7.5" cy="1029.9219" fill="none" rx="4" ry="4" style="stroke:#181818;stroke-width:1.5;"/><polygon fill="#181818" points="24.5,1026.6719,14.5,1030.6719,24.5,1034.6719,20.5,1030.6719" style="stroke:#181818;stroke-width:1.0;"/><line style="stroke:#181818;stroke-width:1.0;stroke-dasharray:2.0,2.0;" x1="22.5" x2="436" y1="1030.6719" y2="1030.6719"/><text fill="#000000" font-family="sans-serif" font-size="20" font-weight="bold" lengthAdjust="spacing" textLength="22" x="25" y="1024.2773">17</text><text fill="#000000" font-family="sans-serif" font-size="20" lengthAdjust="spacing" textLength="207" x="51" y="1024.2773">operationRequestDTOs</text><!--SRC=[bPHDRnen48Rl_XLMJh02qhJgeJHAHGXKIBGWsAG7MaKEEoHMZBsrPsdfh-_ONZPaQKFBWOzbddVU6S_OFKgT2olMoYmV8UCPh4IXS6WqpkKluAzVCOOI5V2Jwpb_spdhdBthy3QVMhC4v_YDX1zyCOODAFxcsmbZea2ZY_KTM4QwA9So5nhvoIG7Ar0QFOFl1JYScGBXX0l7PvFhTC3Fpwr_Sd7nCdQ59a2vmDiC3M7qVWpgKpNMA0KsiFrqDYPmMJsjyrChjV-k1ZyHj2CX5y5nR_HfJcY1KadS7iix1xkHorZb_APFe8jFwk0SnMerWzmuYSPk8v3sRcU3wSHtflhdm2cb0uqrTDfBZwC71_9SuoZ_9y__dVGgdGIGFgkZP6nXsXTnBBhyuo3bNEJoj8wUhgH2i91zcFhvTKmiKMu4GYIPDlJLoli7v6PLgYL9Z4sIBa-IXSczdb3VaiGFbE-a5cjeVTLcbmotERHuRgMnTE0jxb1WuIWY4pvvSDAYhH6PaXhyGyRYG5C9Vj2e0i2wzyljC9XtZLY4Qpwvzn2hkOz2IL96arrgiGL7XZa-0Dy8CbYuy2dk5FZzS8xMEMmALGmUwp0MHjyxYvFSvKEfiw6q3c-4Ag3HLqAkKwhPTGPh8TM-hu2GH4JRPNsa0JvoRExl8HlfQnfnHlseOrLgMeINUz9pMxri1D7MONi8PymlavSgLoJeXNdy8l4X68zyy_qUM0OJlTkiziwEy-o-wxtWc2h4T_cAsjLJYYwKJ7hla3K2EyfQ_D1hKDZFH0gcLhRRJ_iiPN16cJPW3vgL6he86mTQzJufOtA-CfOBfSAWvDQGJPeFgSDl9HqoNhxAlDNj4TfwkHrbyKJA3HbbpOgeiksOwfzAn5TUbbuAL35xXLTytOo_66ZSktnfWG9t9ZxxDQtAzmFRgZTZ7ZQroK1dtFU1bOtzwqbGHvyTnjEaLQji3g-lGoGE-jCDTWoA2xymv-tslo8Xx3S0]--></g></svg>