<?xml version="1.0" encoding="UTF-8" standalone="no"?><svg xmlns="http://www.w3.org/2000/svg" xmlns:xlink="http://www.w3.org/1999/xlink" contentStyleType="text/css" height="446px" preserveAspectRatio="none" style="width:512px;height:446px;background:#FFFFFF;" version="1.1" viewBox="0 0 512 446" width="512px" zoomAndPan="magnify"><defs/><g><text fill="#000000" font-family="sans-serif" font-size="14" font-weight="bold" lengthAdjust="spacing" textLength="239" x="138" y="29.5332">US 5.1.19. - Process View [Level 1]</text><rect fill="#FFFFFF" height="199.9375" style="stroke:#181818;stroke-width:1.0;" width="10" x="47.5" y="138.7656"/><rect fill="#FFFFFF" height="39.1563" style="stroke:#181818;stroke-width:1.0;" width="10" x="344.5" y="169.9219"/><rect fill="#FFFFFF" height="46.1563" style="stroke:#181818;stroke-width:1.0;" width="10" x="344.5" y="292.5469"/><rect fill="none" height="76.4688" style="stroke:#000000;stroke-width:1.5;" width="496" x="10" y="224.0781"/><line style="stroke:#181818;stroke-width:0.5;stroke-dasharray:5.0,5.0;" x1="52" x2="52" y1="128.7656" y2="356.7031"/><line style="stroke:#181818;stroke-width:0.5;stroke-dasharray:5.0,5.0;" x1="349.5" x2="349.5" y1="128.7656" y2="356.7031"/><text fill="#000000" font-family="sans-serif" font-size="20" lengthAdjust="spacing" textLength="59" x="20" y="124.3711">Doctor</text><ellipse cx="52.5" cy="52.1094" fill="#E2E2F0" rx="8" ry="8" style="stroke:#181818;stroke-width:0.5;"/><path d="M52.5,60.1094 L52.5,87.1094 M39.5,68.1094 L65.5,68.1094 M52.5,87.1094 L39.5,102.1094 M52.5,87.1094 L65.5,102.1094 " fill="none" style="stroke:#181818;stroke-width:0.5;"/><text fill="#000000" font-family="sans-serif" font-size="20" lengthAdjust="spacing" textLength="59" x="20" y="376.4648">Doctor</text><ellipse cx="52.5" cy="389.3594" fill="#E2E2F0" rx="8" ry="8" style="stroke:#181818;stroke-width:0.5;"/><path d="M52.5,397.3594 L52.5,424.3594 M39.5,405.3594 L65.5,405.3594 M52.5,424.3594 L39.5,439.3594 M52.5,424.3594 L65.5,439.3594 " fill="none" style="stroke:#181818;stroke-width:0.5;"/><rect fill="#E2E2F0" height="64.3125" rx="2.5" ry="2.5" style="stroke:#181818;stroke-width:0.5;" width="186" x="256.5" y="63.4531"/><text fill="#000000" font-family="sans-serif" font-size="20" lengthAdjust="spacing" textLength="130" x="284.5" y="91.2148">«system (C4)»</text><text fill="#000000" font-family="sans-serif" font-size="20" lengthAdjust="spacing" textLength="166" x="269.5" y="116.3711">Healthcare System</text><rect fill="#E2E2F0" height="64.3125" rx="2.5" ry="2.5" style="stroke:#181818;stroke-width:0.5;" width="186" x="256.5" y="355.7031"/><text fill="#000000" font-family="sans-serif" font-size="20" lengthAdjust="spacing" textLength="130" x="284.5" y="383.4648">«system (C4)»</text><text fill="#000000" font-family="sans-serif" font-size="20" lengthAdjust="spacing" textLength="166" x="269.5" y="408.6211">Healthcare System</text><rect fill="#FFFFFF" height="199.9375" style="stroke:#181818;stroke-width:1.0;" width="10" x="47.5" y="138.7656"/><rect fill="#FFFFFF" height="39.1563" style="stroke:#181818;stroke-width:1.0;" width="10" x="344.5" y="169.9219"/><rect fill="#FFFFFF" height="46.1563" style="stroke:#181818;stroke-width:1.0;" width="10" x="344.5" y="292.5469"/><polygon fill="#181818" points="332.5,165.9219,342.5,169.9219,332.5,173.9219,336.5,169.9219" style="stroke:#181818;stroke-width:1.0;"/><line style="stroke:#181818;stroke-width:1.0;" x1="57.5" x2="338.5" y1="169.9219" y2="169.9219"/><text fill="#000000" font-family="sans-serif" font-size="20" font-weight="bold" lengthAdjust="spacing" textLength="11" x="64.5" y="163.5273">1</text><text fill="#000000" font-family="sans-serif" font-size="20" lengthAdjust="spacing" textLength="216" x="79.5" y="163.5273">list operation requisitions</text><polygon fill="#181818" points="68.5,205.0781,58.5,209.0781,68.5,213.0781,64.5,209.0781" style="stroke:#181818;stroke-width:1.0;"/><line style="stroke:#181818;stroke-width:1.0;stroke-dasharray:2.0,2.0;" x1="62.5" x2="348.5" y1="209.0781" y2="209.0781"/><text fill="#000000" font-family="sans-serif" font-size="20" font-weight="bold" lengthAdjust="spacing" textLength="11" x="74.5" y="202.6836">2</text><text fill="#000000" font-family="sans-serif" font-size="20" lengthAdjust="spacing" textLength="106" x="89.5" y="202.6836">select filters</text><path d="M10,224.0781 L78,224.0781 L78,241.2344 L68,251.2344 L10,251.2344 L10,224.0781 " fill="#EEEEEE" style="stroke:#000000;stroke-width:1.5;"/><rect fill="none" height="76.4688" style="stroke:#000000;stroke-width:1.5;" width="496" x="10" y="224.0781"/><text fill="#000000" font-family="sans-serif" font-size="20" font-weight="bold" lengthAdjust="spacing" textLength="23" x="25" y="245.8398">alt</text><text fill="#000000" font-family="sans-serif" font-size="20" font-weight="bold" lengthAdjust="spacing" textLength="408" x="93" y="246.8398">[doctors wants to filter operation requests]</text><polygon fill="#181818" points="332.5,288.5469,342.5,292.5469,332.5,296.5469,336.5,292.5469" style="stroke:#181818;stroke-width:1.0;"/><line style="stroke:#181818;stroke-width:1.0;" x1="57.5" x2="338.5" y1="292.5469" y2="292.5469"/><text fill="#000000" font-family="sans-serif" font-size="20" font-weight="bold" lengthAdjust="spacing" textLength="11" x="64.5" y="286.1523">3</text><text fill="#000000" font-family="sans-serif" font-size="20" lengthAdjust="spacing" textLength="116" x="79.5" y="286.1523">selects filters</text><polygon fill="#181818" points="63.5,334.7031,53.5,338.7031,63.5,342.7031,59.5,338.7031" style="stroke:#181818;stroke-width:1.0;"/><line style="stroke:#181818;stroke-width:1.0;stroke-dasharray:2.0,2.0;" x1="57.5" x2="348.5" y1="338.7031" y2="338.7031"/><text fill="#000000" font-family="sans-serif" font-size="20" font-weight="bold" lengthAdjust="spacing" textLength="11" x="69.5" y="332.3086">4</text><text fill="#000000" font-family="sans-serif" font-size="20" lengthAdjust="spacing" textLength="248" x="84.5" y="332.3086">shows operation requisitions</text><!--SRC=[TOzFIyGm4CNl-HIFdlJGOaKFBaj1NCI3Wb0KH3t4T9ODcoOrCzsYdzwq-6Uxu25aXddlDszuQtsdesvTC5jgqD1QzqwkWvVQVX9EJvGIAuwGFTGuBygYl2YGupu6Gynuj3JW-PPsv52-PahfNeBlspUAgJOI8bPX-ZJZSdMdqZAnndRQ2xBbaZzOgCNHrTbnLRrut91siZ4w4kffb8t6-gcUQ7QdXIPCUiYhSO05d6L1w2XgiS4ZqdjlsOur_xacngZFao_P5s1oP0HhwuGYguRcsXG4pPITCQIu30dVueDbnC9gBz8Fcd_PSpBv1YDzbYVTmPimy7-77CJRQvFv2m00]--></g></svg>