<?xml version="1.0" encoding="UTF-8" standalone="no"?><svg xmlns="http://www.w3.org/2000/svg" xmlns:xlink="http://www.w3.org/1999/xlink" contentStyleType="text/css" height="673px" preserveAspectRatio="none" style="width:1090px;height:673px;background:#FFFFFF;" version="1.1" viewBox="0 0 1090 673" width="1090px" zoomAndPan="magnify"><defs/><g><text fill="#000000" font-family="sans-serif" font-size="14" font-weight="bold" lengthAdjust="spacing" textLength="334" x="376.75" y="29.5332">US 6.2.10 - Process View [Level 3 | Visualization]</text><rect fill="#FFFFFF" height="426.875" style="stroke:#181818;stroke-width:1.0;" width="10" x="47.5" y="138.7656"/><rect fill="#FFFFFF" height="39.1563" style="stroke:#181818;stroke-width:1.0;" width="10" x="285.5" y="169.9219"/><rect fill="#FFFFFF" height="273.0938" style="stroke:#181818;stroke-width:1.0;" width="10" x="285.5" y="292.5469"/><rect fill="#FFFFFF" height="187.7813" style="stroke:#181818;stroke-width:1.0;" width="10" x="661.5" y="338.7031"/><rect fill="none" height="76.4688" style="stroke:#000000;stroke-width:1.5;" width="496" x="10" y="224.0781"/><line style="stroke:#181818;stroke-width:0.5;stroke-dasharray:5.0,5.0;" x1="52" x2="52" y1="128.7656" y2="583.6406"/><line style="stroke:#181818;stroke-width:0.5;stroke-dasharray:5.0,5.0;" x1="290" x2="290" y1="128.7656" y2="583.6406"/><line style="stroke:#181818;stroke-width:0.5;stroke-dasharray:5.0,5.0;" x1="666" x2="666" y1="128.7656" y2="583.6406"/><text fill="#000000" font-family="sans-serif" font-size="20" lengthAdjust="spacing" textLength="59" x="20" y="124.3711">Doctor</text><ellipse cx="52.5" cy="52.1094" fill="#E2E2F0" rx="8" ry="8" style="stroke:#181818;stroke-width:0.5;"/><path d="M52.5,60.1094 L52.5,87.1094 M39.5,68.1094 L65.5,68.1094 M52.5,87.1094 L39.5,102.1094 M52.5,87.1094 L65.5,102.1094 " fill="none" style="stroke:#181818;stroke-width:0.5;"/><text fill="#000000" font-family="sans-serif" font-size="20" lengthAdjust="spacing" textLength="59" x="20" y="603.4023">Doctor</text><ellipse cx="52.5" cy="616.2969" fill="#E2E2F0" rx="8" ry="8" style="stroke:#181818;stroke-width:0.5;"/><path d="M52.5,624.2969 L52.5,651.2969 M39.5,632.2969 L65.5,632.2969 M52.5,651.2969 L39.5,666.2969 M52.5,651.2969 L65.5,666.2969 " fill="none" style="stroke:#181818;stroke-width:0.5;"/><rect fill="#E2E2F0" height="64.3125" rx="2.5" ry="2.5" style="stroke:#181818;stroke-width:0.5;" width="215" x="183" y="63.4531"/><text fill="#000000" font-family="sans-serif" font-size="20" font-style="italic" lengthAdjust="spacing" textLength="120" x="230.5" y="91.2148">«component»</text><text fill="#000000" font-family="sans-serif" font-size="20" lengthAdjust="spacing" textLength="201" x="190" y="116.3711">ListOperationRequests</text><rect fill="#E2E2F0" height="64.3125" rx="2.5" ry="2.5" style="stroke:#181818;stroke-width:0.5;" width="215" x="183" y="582.6406"/><text fill="#000000" font-family="sans-serif" font-size="20" font-style="italic" lengthAdjust="spacing" textLength="120" x="230.5" y="610.4023">«component»</text><text fill="#000000" font-family="sans-serif" font-size="20" lengthAdjust="spacing" textLength="201" x="190" y="635.5586">ListOperationRequests</text><rect fill="#E2E2F0" height="64.3125" rx="2.5" ry="2.5" style="stroke:#181818;stroke-width:0.5;" width="239" x="547" y="63.4531"/><text fill="#000000" font-family="sans-serif" font-size="20" font-style="italic" lengthAdjust="spacing" textLength="86" x="623.5" y="91.2148">«service»</text><text fill="#000000" font-family="sans-serif" font-size="20" lengthAdjust="spacing" textLength="225" x="554" y="116.3711">OperationRequestService</text><rect fill="#E2E2F0" height="64.3125" rx="2.5" ry="2.5" style="stroke:#181818;stroke-width:0.5;" width="239" x="547" y="582.6406"/><text fill="#000000" font-family="sans-serif" font-size="20" font-style="italic" lengthAdjust="spacing" textLength="86" x="623.5" y="610.4023">«service»</text><text fill="#000000" font-family="sans-serif" font-size="20" lengthAdjust="spacing" textLength="225" x="554" y="635.5586">OperationRequestService</text><rect fill="#FFFFFF" height="426.875" style="stroke:#181818;stroke-width:1.0;" width="10" x="47.5" y="138.7656"/><rect fill="#FFFFFF" height="39.1563" style="stroke:#181818;stroke-width:1.0;" width="10" x="285.5" y="169.9219"/><rect fill="#FFFFFF" height="273.0938" style="stroke:#181818;stroke-width:1.0;" width="10" x="285.5" y="292.5469"/><rect fill="#FFFFFF" height="187.7813" style="stroke:#181818;stroke-width:1.0;" width="10" x="661.5" y="338.7031"/><polygon fill="#181818" points="273.5,165.9219,283.5,169.9219,273.5,173.9219,277.5,169.9219" style="stroke:#181818;stroke-width:1.0;"/><line style="stroke:#181818;stroke-width:1.0;" x1="57.5" x2="279.5" y1="169.9219" y2="169.9219"/><text fill="#000000" font-family="sans-serif" font-size="20" font-weight="bold" lengthAdjust="spacing" textLength="11" x="64.5" y="163.5273">1</text><text fill="#000000" font-family="sans-serif" font-size="20" lengthAdjust="spacing" textLength="194" x="79.5" y="163.5273">list operation requests</text><polygon fill="#181818" points="68.5,205.0781,58.5,209.0781,68.5,213.0781,64.5,209.0781" style="stroke:#181818;stroke-width:1.0;"/><line style="stroke:#181818;stroke-width:1.0;stroke-dasharray:2.0,2.0;" x1="62.5" x2="289.5" y1="209.0781" y2="209.0781"/><text fill="#000000" font-family="sans-serif" font-size="20" font-weight="bold" lengthAdjust="spacing" textLength="11" x="74.5" y="202.6836">2</text><text fill="#000000" font-family="sans-serif" font-size="20" lengthAdjust="spacing" textLength="106" x="89.5" y="202.6836">select filters</text><path d="M10,224.0781 L78,224.0781 L78,241.2344 L68,251.2344 L10,251.2344 L10,224.0781 " fill="#EEEEEE" style="stroke:#000000;stroke-width:1.5;"/><rect fill="none" height="76.4688" style="stroke:#000000;stroke-width:1.5;" width="496" x="10" y="224.0781"/><text fill="#000000" font-family="sans-serif" font-size="20" font-weight="bold" lengthAdjust="spacing" textLength="23" x="25" y="245.8398">alt</text><text fill="#000000" font-family="sans-serif" font-size="20" font-weight="bold" lengthAdjust="spacing" textLength="408" x="93" y="246.8398">[doctors wants to filter operation requests]</text><polygon fill="#181818" points="273.5,288.5469,283.5,292.5469,273.5,296.5469,277.5,292.5469" style="stroke:#181818;stroke-width:1.0;"/><line style="stroke:#181818;stroke-width:1.0;" x1="57.5" x2="279.5" y1="292.5469" y2="292.5469"/><text fill="#000000" font-family="sans-serif" font-size="20" font-weight="bold" lengthAdjust="spacing" textLength="11" x="64.5" y="286.1523">3</text><text fill="#000000" font-family="sans-serif" font-size="20" lengthAdjust="spacing" textLength="116" x="79.5" y="286.1523">selects filters</text><polygon fill="#181818" points="649.5,334.7031,659.5,338.7031,649.5,342.7031,653.5,338.7031" style="stroke:#181818;stroke-width:1.0;"/><line style="stroke:#181818;stroke-width:1.0;" x1="295.5" x2="655.5" y1="338.7031" y2="338.7031"/><text fill="#000000" font-family="sans-serif" font-size="20" font-weight="bold" lengthAdjust="spacing" textLength="11" x="302.5" y="332.3086">4</text><text fill="#000000" font-family="sans-serif" font-size="20" lengthAdjust="spacing" textLength="332" x="317.5" y="332.3086">GetOperationRequestByFilters(filters)</text><path d="M676,351.7031 L676,411.7031 L1026,411.7031 L1026,361.7031 L1016,351.7031 L676,351.7031 " fill="#FEFFDD" style="stroke:#181818;stroke-width:0.5;"/><path d="M1016,351.7031 L1016,361.7031 L1026,361.7031 L1016,351.7031 " fill="#FEFFDD" style="stroke:#181818;stroke-width:0.5;"/><text fill="#000000" font-family="sans-serif" font-size="20" font-weight="bold" lengthAdjust="spacing" textLength="54" x="682" y="377.4648">filters</text><text fill="#000000" font-family="sans-serif" font-size="20" lengthAdjust="spacing" textLength="269" x="742" y="377.4648">represent the various variables</text><text fill="#000000" font-family="sans-serif" font-size="20" lengthAdjust="spacing" textLength="204" x="682" y="402.6211">passed as parameters.</text><ellipse cx="1080" cy="447.4219" fill="none" rx="4" ry="4" style="stroke:#181818;stroke-width:1.5;"/><polygon fill="#181818" points="1063,444.1719,1073,448.1719,1063,452.1719,1067,448.1719" style="stroke:#181818;stroke-width:1.0;"/><line style="stroke:#181818;stroke-width:1.0;" x1="671.5" x2="1069" y1="448.1719" y2="448.1719"/><text fill="#000000" font-family="sans-serif" font-size="20" font-weight="bold" lengthAdjust="spacing" textLength="11" x="678.5" y="441.7773">5</text><text fill="#000000" font-family="sans-serif" font-size="20" lengthAdjust="spacing" textLength="370" x="693.5" y="441.7773">GET: api/OperationRequest/filtered?filters</text><polygon fill="#181818" points="682.5,483.3281,672.5,487.3281,682.5,491.3281,678.5,487.3281" style="stroke:#181818;stroke-width:1.0;"/><ellipse cx="1080" cy="486.5781" fill="none" rx="4" ry="4" style="stroke:#181818;stroke-width:1.5;"/><line style="stroke:#181818;stroke-width:1.0;stroke-dasharray:2.0,2.0;" x1="676.5" x2="1075.5" y1="487.3281" y2="487.3281"/><text fill="#000000" font-family="sans-serif" font-size="20" font-weight="bold" lengthAdjust="spacing" textLength="11" x="688.5" y="480.9336">6</text><text fill="#000000" font-family="sans-serif" font-size="20" lengthAdjust="spacing" textLength="205" x="703.5" y="480.9336">Ok(operationRequests)</text><polygon fill="#181818" points="306.5,522.4844,296.5,526.4844,306.5,530.4844,302.5,526.4844" style="stroke:#181818;stroke-width:1.0;"/><line style="stroke:#181818;stroke-width:1.0;stroke-dasharray:2.0,2.0;" x1="300.5" x2="665.5" y1="526.4844" y2="526.4844"/><text fill="#000000" font-family="sans-serif" font-size="20" font-weight="bold" lengthAdjust="spacing" textLength="11" x="312.5" y="520.0898">7</text><text fill="#000000" font-family="sans-serif" font-size="20" lengthAdjust="spacing" textLength="165" x="327.5" y="520.0898">operationRequests</text><polygon fill="#181818" points="63.5,561.6406,53.5,565.6406,63.5,569.6406,59.5,565.6406" style="stroke:#181818;stroke-width:1.0;"/><line style="stroke:#181818;stroke-width:1.0;stroke-dasharray:2.0,2.0;" x1="57.5" x2="289.5" y1="565.6406" y2="565.6406"/><text fill="#000000" font-family="sans-serif" font-size="20" font-weight="bold" lengthAdjust="spacing" textLength="11" x="69.5" y="559.2461">8</text><text fill="#000000" font-family="sans-serif" font-size="20" lengthAdjust="spacing" textLength="165" x="84.5" y="559.2461">operationRequests</text><!--SRC=[VP91JyCm38Nl-HNMJZ2fOu34OPgAXDYuJ5f5WGjm2At7ecL9YTqX43yUD-jW5CGfIkFl-VdLj3Akqa6lhIzMM4A92rrRddh7kNb7E1agnOOjGkysXxF1oU1u20bamHT817S6N-5-XXkqS0eVSgTQM_EksNZts5DAr-nTlNx2e7J1Fi2bZuSckCqdrw2aEPl2LDenz6Q6U5vXYFWrljH8JBrOd6Km7XT-NNc7ZjEqGtQf7CF651ZPF1UKjX_IL3L6p4OpHWSgsaZIs644LXo0tub1Q3tiCLccL5ERD8om8o2qM30iZ6KCf4hyMQmjGncd9dWLimJis-A_EkqRscdJb_XFQNGbDFAjerH67S4L_ihmucswvGzQdSDleJnNpiiPpFDIHbz4ZNw_BUptnLaLa2Hqu2N2HWVZQugdVh983x8_HB8wadJS96ouWL8IUvBwHmdrQd8p0bsPewwlesqNBCztypNKE4aYDbyT-Euo76vrT_7yUjzFNoRh_Ab_ovj4zw_DSYZr2G00]--></g></svg>