<?xml version="1.0" encoding="UTF-8" standalone="no"?><svg xmlns="http://www.w3.org/2000/svg" xmlns:xlink="http://www.w3.org/1999/xlink" contentStyleType="text/css" height="395px" preserveAspectRatio="none" style="width:595px;height:395px;background:#FFFFFF;" version="1.1" viewBox="0 0 595 395" width="595px" zoomAndPan="magnify"><defs/><g><text fill="#000000" font-family="sans-serif" font-size="14" font-weight="bold" lengthAdjust="spacing" textLength="227" x="183" y="29.5332">US 6.2.5 - Process View [Level 2]</text><rect fill="#FFFFFF" height="148.625" style="stroke:#181818;stroke-width:1.0;" width="10" x="33.5" y="138.7656"/><rect fill="#FFFFFF" height="117.4688" style="stroke:#181818;stroke-width:1.0;" width="10" x="306.5" y="169.9219"/><rect fill="#FFFFFF" height="39.1563" style="stroke:#181818;stroke-width:1.0;" width="10" x="507.5" y="209.0781"/><line style="stroke:#181818;stroke-width:0.5;stroke-dasharray:5.0,5.0;" x1="38" x2="38" y1="128.7656" y2="305.3906"/><line style="stroke:#181818;stroke-width:0.5;stroke-dasharray:5.0,5.0;" x1="311" x2="311" y1="128.7656" y2="305.3906"/><line style="stroke:#181818;stroke-width:0.5;stroke-dasharray:5.0,5.0;" x1="512" x2="512" y1="128.7656" y2="305.3906"/><text fill="#000000" font-family="sans-serif" font-size="20" lengthAdjust="spacing" textLength="61" x="5" y="124.3711">Patient</text><ellipse cx="38.5" cy="52.1094" fill="#E2E2F0" rx="8" ry="8" style="stroke:#181818;stroke-width:0.5;"/><path d="M38.5,60.1094 L38.5,87.1094 M25.5,68.1094 L51.5,68.1094 M38.5,87.1094 L25.5,102.1094 M38.5,87.1094 L51.5,102.1094 " fill="none" style="stroke:#181818;stroke-width:0.5;"/><text fill="#000000" font-family="sans-serif" font-size="20" lengthAdjust="spacing" textLength="61" x="5" y="325.1523">Patient</text><ellipse cx="38.5" cy="338.0469" fill="#E2E2F0" rx="8" ry="8" style="stroke:#181818;stroke-width:0.5;"/><path d="M38.5,346.0469 L38.5,373.0469 M25.5,354.0469 L51.5,354.0469 M38.5,373.0469 L25.5,388.0469 M38.5,373.0469 L51.5,388.0469 " fill="none" style="stroke:#181818;stroke-width:0.5;"/><rect fill="#E2E2F0" height="64.3125" rx="2.5" ry="2.5" style="stroke:#181818;stroke-width:0.5;" width="153" x="235" y="63.4531"/><text fill="#000000" font-family="sans-serif" font-size="20" font-style="italic" lengthAdjust="spacing" textLength="139" x="242" y="91.2148">«Container C4»</text><text fill="#000000" font-family="sans-serif" font-size="20" lengthAdjust="spacing" textLength="107" x="258" y="116.3711">Visualization</text><rect fill="#E2E2F0" height="64.3125" rx="2.5" ry="2.5" style="stroke:#181818;stroke-width:0.5;" width="153" x="235" y="304.3906"/><text fill="#000000" font-family="sans-serif" font-size="20" font-style="italic" lengthAdjust="spacing" textLength="139" x="242" y="332.1523">«Container C4»</text><text fill="#000000" font-family="sans-serif" font-size="20" lengthAdjust="spacing" textLength="107" x="258" y="357.3086">Visualization</text><rect fill="#E2E2F0" height="64.3125" rx="2.5" ry="2.5" style="stroke:#181818;stroke-width:0.5;" width="153" x="436" y="63.4531"/><text fill="#000000" font-family="sans-serif" font-size="20" font-style="italic" lengthAdjust="spacing" textLength="139" x="443" y="91.2148">«Container C4»</text><text fill="#000000" font-family="sans-serif" font-size="20" lengthAdjust="spacing" textLength="123" x="451" y="116.3711">MDBackoffice</text><rect fill="#E2E2F0" height="64.3125" rx="2.5" ry="2.5" style="stroke:#181818;stroke-width:0.5;" width="153" x="436" y="304.3906"/><text fill="#000000" font-family="sans-serif" font-size="20" font-style="italic" lengthAdjust="spacing" textLength="139" x="443" y="332.1523">«Container C4»</text><text fill="#000000" font-family="sans-serif" font-size="20" lengthAdjust="spacing" textLength="123" x="451" y="357.3086">MDBackoffice</text><rect fill="#FFFFFF" height="148.625" style="stroke:#181818;stroke-width:1.0;" width="10" x="33.5" y="138.7656"/><rect fill="#FFFFFF" height="117.4688" style="stroke:#181818;stroke-width:1.0;" width="10" x="306.5" y="169.9219"/><rect fill="#FFFFFF" height="39.1563" style="stroke:#181818;stroke-width:1.0;" width="10" x="507.5" y="209.0781"/><polygon fill="#181818" points="294.5,165.9219,304.5,169.9219,294.5,173.9219,298.5,169.9219" style="stroke:#181818;stroke-width:1.0;"/><line style="stroke:#181818;stroke-width:1.0;" x1="43.5" x2="300.5" y1="169.9219" y2="169.9219"/><text fill="#000000" font-family="sans-serif" font-size="20" font-weight="bold" lengthAdjust="spacing" textLength="11" x="50.5" y="163.5273">1</text><text fill="#000000" font-family="sans-serif" font-size="20" lengthAdjust="spacing" textLength="112" x="65.5" y="163.5273">initiates login</text><polygon fill="#181818" points="495.5,205.0781,505.5,209.0781,495.5,213.0781,499.5,209.0781" style="stroke:#181818;stroke-width:1.0;"/><line style="stroke:#181818;stroke-width:1.0;" x1="316.5" x2="501.5" y1="209.0781" y2="209.0781"/><text fill="#000000" font-family="sans-serif" font-size="20" font-weight="bold" lengthAdjust="spacing" textLength="11" x="323.5" y="202.6836">2</text><text fill="#000000" font-family="sans-serif" font-size="20" lengthAdjust="spacing" textLength="132" x="338.5" y="202.6836">LoginExternal()</text><polygon fill="#181818" points="327.5,244.2344,317.5,248.2344,327.5,252.2344,323.5,248.2344" style="stroke:#181818;stroke-width:1.0;"/><line style="stroke:#181818;stroke-width:1.0;stroke-dasharray:2.0,2.0;" x1="321.5" x2="511.5" y1="248.2344" y2="248.2344"/><text fill="#000000" font-family="sans-serif" font-size="20" font-weight="bold" lengthAdjust="spacing" textLength="11" x="333.5" y="241.8398">3</text><text fill="#000000" font-family="sans-serif" font-size="20" lengthAdjust="spacing" textLength="152" x="348.5" y="241.8398">success/insucess</text><polygon fill="#181818" points="49.5,283.3906,39.5,287.3906,49.5,291.3906,45.5,287.3906" style="stroke:#181818;stroke-width:1.0;"/><line style="stroke:#181818;stroke-width:1.0;stroke-dasharray:2.0,2.0;" x1="43.5" x2="310.5" y1="287.3906" y2="287.3906"/><text fill="#000000" font-family="sans-serif" font-size="20" font-weight="bold" lengthAdjust="spacing" textLength="11" x="55.5" y="280.9961">4</text><text fill="#000000" font-family="sans-serif" font-size="20" lengthAdjust="spacing" textLength="224" x="70.5" y="280.9961">grants access to features</text><!--SRC=[RP11ImCn48Nl-HN3dlJGAaKzB6L1MmMXXS9YGQI7CJjRXgP9IIPL-kkTh8TQy12OPBxttapIZlq18-vTi3lgeACUivENuANb4y7arXXXSGJLMmiFuydu7aQmYi5IIh1c-eAF1Ht9mMHJ6ODPWi_xJufQMmaHLYXCNW0JFCwNHhE4BHzGdwerfuoEJue4NnLa_Th2T3hJT6HF4MPtJNEfMSwVqEv2txEbGTA-_oCfuNn4eI5K3uoQmRm6zYoidGGkRDcVIMqRKnX5YsaDYm8yVmj5Z-xg-engsvZ2Z7vjQqZPbX-vOQ-L5gQZItemLhhCKiCswZ89S1211EW99KUwq9M1_bpB9Zy0]--></g></svg>