<svg xmlns="http://www.w3.org/2000/svg" xmlns:xlink="http://www.w3.org/1999/xlink" contentStyleType="text/css" height="1110px" preserveAspectRatio="none" style="width:2121px;height:1110px;background:#FFFFFF;" version="1.1" viewBox="0 0 2121 1110" width="2121px" zoomAndPan="magnify"><title>US 5.1.3. Process View (Level 3) [NO External IAM]</title><defs/><g><text fill="#000000" font-family="sans-serif" font-size="14" font-weight="bold" lengthAdjust="spacing" textLength="401.5908" x="858.7566" y="27.9951">US 5.1.3. Process View (Level 3) [NO External IAM]</text><rect fill="#FFFFFF" height="909.1289" style="stroke:#181818;stroke-width:1.0;" width="10" x="174.4878" y="131.5898"/><rect fill="#FFFFFF" height="840.2969" style="stroke:#181818;stroke-width:1.0;" width="10" x="462.0977" y="171.2891"/><rect fill="#FFFFFF" height="123.6641" style="stroke:#181818;stroke-width:1.0;" width="10" x="737.5898" y="258.0156"/><rect fill="#FFFFFF" height="29.1328" style="stroke:#181818;stroke-width:1.0;" width="10" x="737.5898" y="410.8125"/><rect fill="#FFFFFF" height="163.125" style="stroke:#181818;stroke-width:1.0;" width="10" x="737.5898" y="487.2109"/><rect fill="#FFFFFF" height="47.2656" style="stroke:#181818;stroke-width:1.0;" width="10" x="947.3965" y="287.1484"/><rect fill="#FFFFFF" height="29.1328" style="stroke:#181818;stroke-width:1.0;" width="10" x="947.3965" y="592.0703"/><rect fill="#FFFFFF" height="302.9844" style="stroke:#181818;stroke-width:1.0;" width="10" x="1260.7974" y="679.4688"/><rect fill="#FFFFFF" height="202.5859" style="stroke:#181818;stroke-width:1.0;" width="10" x="1669.4932" y="708.6016"/><rect fill="#FFFFFF" height="29.1328" style="stroke:#181818;stroke-width:1.0;" width="10" x="2057.0024" y="795.3281"/><line style="stroke:#181818;stroke-width:0.5;stroke-dasharray:5.0,5.0;" x1="178.9404" x2="178.9404" y1="89.8906" y2="1058.7188"/><line style="stroke:#181818;stroke-width:0.5;stroke-dasharray:5.0,5.0;" x1="466.5981" x2="466.5981" y1="89.8906" y2="1058.7188"/><line style="stroke:#181818;stroke-width:0.5;stroke-dasharray:5.0,5.0;" x1="741.7266" x2="741.7266" y1="89.8906" y2="1058.7188"/><line style="stroke:#181818;stroke-width:0.5;stroke-dasharray:5.0,5.0;" x1="951.6802" x2="951.6802" y1="89.8906" y2="1058.7188"/><line style="stroke:#181818;stroke-width:0.5;stroke-dasharray:5.0,5.0;" x1="1065.1128" x2="1065.1128" y1="218.0859" y2="1058.7188"/><line style="stroke:#181818;stroke-width:0.5;stroke-dasharray:5.0,5.0;" x1="1157.8247" x2="1157.8247" y1="552.1406" y2="1058.7188"/><line style="stroke:#181818;stroke-width:0.5;stroke-dasharray:5.0,5.0;" x1="1265.2808" x2="1265.2808" y1="89.8906" y2="1058.7188"/><line style="stroke:#181818;stroke-width:0.5;stroke-dasharray:5.0,5.0;" x1="1673.9302" x2="1673.9302" y1="89.8906" y2="1058.7188"/><line style="stroke:#181818;stroke-width:0.5;stroke-dasharray:5.0,5.0;" x1="1842.0562" x2="1842.0562" y1="755.3984" y2="1058.7188"/><line style="stroke:#181818;stroke-width:0.5;stroke-dasharray:5.0,5.0;" x1="1952.3882" x2="1952.3882" y1="871.2578" y2="1058.7188"/><line style="stroke:#181818;stroke-width:0.5;stroke-dasharray:5.0,5.0;" x1="2061.9009" x2="2061.9009" y1="89.8906" y2="1058.7188"/><rect fill="#E2E2F0" height="46.5938" rx="2.5" ry="2.5" style="stroke:#181818;stroke-width:0.5;" width="109.0947" x="124.9404" y="42.2969"/><text fill="#000000" font-family="sans-serif" font-size="14" lengthAdjust="spacing" textLength="58.3994" x="150.2881" y="62.292">&#171;Route&#187;</text><text fill="#000000" font-family="sans-serif" font-size="14" lengthAdjust="spacing" textLength="90.6445" x="136.3906" y="78.5889">PatientRoute</text><rect fill="#E2E2F0" height="46.5938" rx="2.5" ry="2.5" style="stroke:#181818;stroke-width:0.5;" width="109.0947" x="124.9404" y="1057.7188"/><text fill="#000000" font-family="sans-serif" font-size="14" lengthAdjust="spacing" textLength="58.3994" x="150.2881" y="1077.7139">&#171;Route&#187;</text><text fill="#000000" font-family="sans-serif" font-size="14" lengthAdjust="spacing" textLength="90.6445" x="136.3906" y="1094.0107">PatientRoute</text><rect fill="#E2E2F0" height="46.5938" rx="2.5" ry="2.5" style="stroke:#181818;stroke-width:0.5;" width="136.999" x="398.5981" y="42.2969"/><text fill="#000000" font-family="sans-serif" font-size="14" lengthAdjust="spacing" textLength="86.3037" x="423.9458" y="62.292">&#171;Controller&#187;</text><text fill="#000000" font-family="sans-serif" font-size="14" lengthAdjust="spacing" textLength="118.5488" x="410.0483" y="78.5889">PatientController</text><rect fill="#E2E2F0" height="46.5938" rx="2.5" ry="2.5" style="stroke:#181818;stroke-width:0.5;" width="136.999" x="398.5981" y="1057.7188"/><text fill="#000000" font-family="sans-serif" font-size="14" lengthAdjust="spacing" textLength="86.3037" x="423.9458" y="1077.7139">&#171;Controller&#187;</text><text fill="#000000" font-family="sans-serif" font-size="14" lengthAdjust="spacing" textLength="118.5488" x="410.0483" y="1094.0107">PatientController</text><rect fill="#E2E2F0" height="46.5938" rx="2.5" ry="2.5" style="stroke:#181818;stroke-width:0.5;" width="111.7266" x="686.7266" y="42.2969"/><text fill="#000000" font-family="sans-serif" font-size="14" lengthAdjust="spacing" textLength="68.8721" x="708.1538" y="62.292">&#171;Service&#187;</text><text fill="#000000" font-family="sans-serif" font-size="14" lengthAdjust="spacing" textLength="93.2764" x="698.1768" y="78.5889">UserManager</text><rect fill="#E2E2F0" height="46.5938" rx="2.5" ry="2.5" style="stroke:#181818;stroke-width:0.5;" width="111.7266" x="686.7266" y="1057.7188"/><text fill="#000000" font-family="sans-serif" font-size="14" lengthAdjust="spacing" textLength="68.8721" x="708.1538" y="1077.7139">&#171;Service&#187;</text><text fill="#000000" font-family="sans-serif" font-size="14" lengthAdjust="spacing" textLength="93.2764" x="698.1768" y="1094.0107">UserManager</text><rect fill="#E2E2F0" height="46.5938" rx="2.5" ry="2.5" style="stroke:#181818;stroke-width:0.5;" width="125.4326" x="889.6802" y="42.2969"/><text fill="#000000" font-family="sans-serif" font-size="14" lengthAdjust="spacing" textLength="92.2031" x="906.2949" y="62.292">&#171;Repository&#187;</text><text fill="#000000" font-family="sans-serif" font-size="14" lengthAdjust="spacing" textLength="106.9824" x="901.1304" y="78.5889">UserRepository</text><rect fill="#E2E2F0" height="46.5938" rx="2.5" ry="2.5" style="stroke:#181818;stroke-width:0.5;" width="125.4326" x="889.6802" y="1057.7188"/><text fill="#000000" font-family="sans-serif" font-size="14" lengthAdjust="spacing" textLength="92.2031" x="906.2949" y="1077.7139">&#171;Repository&#187;</text><text fill="#000000" font-family="sans-serif" font-size="14" lengthAdjust="spacing" textLength="106.9824" x="901.1304" y="1094.0107">UserRepository</text><rect fill="#E2E2F0" height="46.5938" rx="2.5" ry="2.5" style="stroke:#181818;stroke-width:0.5;" width="80.7119" x="1025.1128" y="1057.7188"/><text fill="#000000" font-family="sans-serif" font-size="14" lengthAdjust="spacing" textLength="47.4824" x="1041.7275" y="1077.7139">&#171;DTO&#187;</text><text fill="#000000" font-family="sans-serif" font-size="14" lengthAdjust="spacing" textLength="62.2617" x="1036.563" y="1094.0107">UserDTO</text><rect fill="#E2E2F0" height="46.5938" rx="2.5" ry="2.5" style="stroke:#181818;stroke-width:0.5;" width="85.4561" x="1115.8247" y="1057.7188"/><text fill="#000000" font-family="sans-serif" font-size="14" lengthAdjust="spacing" textLength="71.4561" x="1122.8247" y="1077.7139">&#171;Domain&#187;</text><text fill="#000000" font-family="sans-serif" font-size="14" lengthAdjust="spacing" textLength="31.9102" x="1144.8228" y="1094.0107">User</text><rect fill="#E2E2F0" height="46.5938" rx="2.5" ry="2.5" style="stroke:#181818;stroke-width:0.5;" width="109.0332" x="1211.2808" y="42.2969"/><text fill="#000000" font-family="sans-serif" font-size="14" lengthAdjust="spacing" textLength="68.8721" x="1231.3613" y="62.292">&#171;Service&#187;</text><text fill="#000000" font-family="sans-serif" font-size="14" lengthAdjust="spacing" textLength="90.583" x="1222.731" y="78.5889">EmailService</text><rect fill="#E2E2F0" height="46.5938" rx="2.5" ry="2.5" style="stroke:#181818;stroke-width:0.5;" width="109.0332" x="1211.2808" y="1057.7188"/><text fill="#000000" font-family="sans-serif" font-size="14" lengthAdjust="spacing" textLength="68.8721" x="1231.3613" y="1077.7139">&#171;Service&#187;</text><text fill="#000000" font-family="sans-serif" font-size="14" lengthAdjust="spacing" textLength="90.583" x="1222.731" y="1094.0107">EmailService</text><rect fill="#E2E2F0" height="46.5938" rx="2.5" ry="2.5" style="stroke:#181818;stroke-width:0.5;" width="205.126" x="1571.9302" y="42.2969"/><text fill="#000000" font-family="sans-serif" font-size="14" lengthAdjust="spacing" textLength="68.8721" x="1640.0571" y="62.292">&#171;Service&#187;</text><text fill="#000000" font-family="sans-serif" font-size="14" lengthAdjust="spacing" textLength="186.6758" x="1583.3804" y="78.5889">TokenManagementService</text><rect fill="#E2E2F0" height="46.5938" rx="2.5" ry="2.5" style="stroke:#181818;stroke-width:0.5;" width="205.126" x="1571.9302" y="1057.7188"/><text fill="#000000" font-family="sans-serif" font-size="14" lengthAdjust="spacing" textLength="68.8721" x="1640.0571" y="1077.7139">&#171;Service&#187;</text><text fill="#000000" font-family="sans-serif" font-size="14" lengthAdjust="spacing" textLength="186.6758" x="1583.3804" y="1094.0107">TokenManagementService</text><rect fill="#E2E2F0" height="46.5938" rx="2.5" ry="2.5" style="stroke:#181818;stroke-width:0.5;" width="110.332" x="1787.0562" y="1057.7188"/><text fill="#000000" font-family="sans-serif" font-size="14" lengthAdjust="spacing" textLength="96.332" x="1794.0562" y="1077.7139">&#171;component&#187;</text><text fill="#000000" font-family="sans-serif" font-size="14" lengthAdjust="spacing" textLength="42.7109" x="1823.0918" y="1094.0107">Token</text><rect fill="#E2E2F0" height="46.5938" rx="2.5" ry="2.5" style="stroke:#181818;stroke-width:0.5;" width="91.5127" x="1907.3882" y="1057.7188"/><text fill="#000000" font-family="sans-serif" font-size="14" lengthAdjust="spacing" textLength="47.4824" x="1929.4033" y="1077.7139">&#171;DTO&#187;</text><text fill="#000000" font-family="sans-serif" font-size="14" lengthAdjust="spacing" textLength="73.0625" x="1918.8384" y="1094.0107">TokenDTO</text><rect fill="#E2E2F0" height="46.5938" rx="2.5" ry="2.5" style="stroke:#181818;stroke-width:0.5;" width="106.2031" x="2008.9009" y="42.2969"/><text fill="#000000" font-family="sans-serif" font-size="14" lengthAdjust="spacing" textLength="92.2031" x="2015.9009" y="62.292">&#171;Repository&#187;</text><text fill="#000000" font-family="sans-serif" font-size="14" lengthAdjust="spacing" textLength="78.5039" x="2024.9756" y="78.5889">TokenRepo</text><rect fill="#E2E2F0" height="46.5938" rx="2.5" ry="2.5" style="stroke:#181818;stroke-width:0.5;" width="106.2031" x="2008.9009" y="1057.7188"/><text fill="#000000" font-family="sans-serif" font-size="14" lengthAdjust="spacing" textLength="92.2031" x="2015.9009" y="1077.7139">&#171;Repository&#187;</text><text fill="#000000" font-family="sans-serif" font-size="14" lengthAdjust="spacing" textLength="78.5039" x="2024.9756" y="1094.0107">TokenRepo</text><rect fill="#FFFFFF" height="909.1289" style="stroke:#181818;stroke-width:1.0;" width="10" x="174.4878" y="131.5898"/><rect fill="#FFFFFF" height="840.2969" style="stroke:#181818;stroke-width:1.0;" width="10" x="462.0977" y="171.2891"/><rect fill="#FFFFFF" height="123.6641" style="stroke:#181818;stroke-width:1.0;" width="10" x="737.5898" y="258.0156"/><rect fill="#FFFFFF" height="29.1328" style="stroke:#181818;stroke-width:1.0;" width="10" x="737.5898" y="410.8125"/><rect fill="#FFFFFF" height="163.125" style="stroke:#181818;stroke-width:1.0;" width="10" x="737.5898" y="487.2109"/><rect fill="#FFFFFF" height="47.2656" style="stroke:#181818;stroke-width:1.0;" width="10" x="947.3965" y="287.1484"/><rect fill="#FFFFFF" height="29.1328" style="stroke:#181818;stroke-width:1.0;" width="10" x="947.3965" y="592.0703"/><rect fill="#FFFFFF" height="302.9844" style="stroke:#181818;stroke-width:1.0;" width="10" x="1260.7974" y="679.4688"/><rect fill="#FFFFFF" height="202.5859" style="stroke:#181818;stroke-width:1.0;" width="10" x="1669.4932" y="708.6016"/><rect fill="#FFFFFF" height="29.1328" style="stroke:#181818;stroke-width:1.0;" width="10" x="2057.0024" y="795.3281"/><ellipse cx="7.5" cy="130.8398" fill="#000000" rx="4" ry="4" style="stroke:#181818;stroke-width:1.5;"/><polygon fill="#181818" points="162.4878,127.5898,172.4878,131.5898,162.4878,135.5898,166.4878,131.5898" style="stroke:#181818;stroke-width:1.0;"/><line style="stroke:#181818;stroke-width:1.0;" x1="12" x2="168.4878" y1="131.5898" y2="131.5898"/><text fill="#000000" font-family="sans-serif" font-size="13" lengthAdjust="spacing" textLength="147.4878" x="15" y="126.5239">POST(credentialsData)</text><path d="M189,104.8906 L189,144.8906 L346,144.8906 L346,114.8906 L336,104.8906 L189,104.8906 " fill="#FEFFDD" style="stroke:#181818;stroke-width:0.5;"/><path d="M336,104.8906 L336,114.8906 L346,114.8906 L336,104.8906 " fill="#FEFFDD" style="stroke:#181818;stroke-width:0.5;"/><text fill="#000000" font-family="sans-serif" font-size="13" lengthAdjust="spacing" textLength="111.3252" x="195" y="121.9575">Email is patient's</text><text fill="#000000" font-family="sans-serif" font-size="13" lengthAdjust="spacing" textLength="136.792" x="195" y="137.0903">Password is patient's</text><polygon fill="#181818" points="450.0977,167.2891,460.0977,171.2891,450.0977,175.2891,454.0977,171.2891" style="stroke:#181818;stroke-width:1.0;"/><line style="stroke:#181818;stroke-width:1.0;" x1="184.4878" x2="456.0977" y1="171.2891" y2="171.2891"/><text fill="#000000" font-family="sans-serif" font-size="13" lengthAdjust="spacing" textLength="258.6099" x="191.4878" y="166.2231">createNewPatientUser(credentialsData)</text><polygon fill="#181818" points="1013.1128,196.4219,1023.1128,200.4219,1013.1128,204.4219,1017.1128,200.4219" style="stroke:#181818;stroke-width:1.0;"/><line style="stroke:#181818;stroke-width:1.0;" x1="472.0977" x2="1019.1128" y1="200.4219" y2="200.4219"/><text fill="#000000" font-family="sans-serif" font-size="13" lengthAdjust="spacing" textLength="154.4575" x="479.0977" y="195.356">toDTO(credentialsData)</text><rect fill="#E2E2F0" height="46.5938" rx="2.5" ry="2.5" style="stroke:#181818;stroke-width:0.5;" width="80.7119" x="1025.1128" y="179.2891"/><text fill="#000000" font-family="sans-serif" font-size="14" lengthAdjust="spacing" textLength="47.4824" x="1041.7275" y="199.2842">&#171;DTO&#187;</text><text fill="#000000" font-family="sans-serif" font-size="14" lengthAdjust="spacing" textLength="62.2617" x="1036.563" y="215.5811">UserDTO</text><polygon fill="#181818" points="725.5898,254.0156,735.5898,258.0156,725.5898,262.0156,729.5898,258.0156" style="stroke:#181818;stroke-width:1.0;"/><line style="stroke:#181818;stroke-width:1.0;" x1="472.0977" x2="731.5898" y1="258.0156" y2="258.0156"/><text fill="#000000" font-family="sans-serif" font-size="13" lengthAdjust="spacing" textLength="180.9463" x="479.0977" y="252.9497">checkIfUserExists(userDTO)</text><polygon fill="#181818" points="935.3965,283.1484,945.3965,287.1484,935.3965,291.1484,939.3965,287.1484" style="stroke:#181818;stroke-width:1.0;"/><line style="stroke:#181818;stroke-width:1.0;" x1="747.5898" x2="941.3965" y1="287.1484" y2="287.1484"/><text fill="#000000" font-family="sans-serif" font-size="13" lengthAdjust="spacing" textLength="180.8066" x="754.5898" y="282.0825">existsById(usernameString)</text><polygon fill="#181818" points="758.5898,330.4141,748.5898,334.4141,758.5898,338.4141,754.5898,334.4141" style="stroke:#181818;stroke-width:1.0;"/><line style="stroke:#181818;stroke-width:1.0;stroke-dasharray:2.0,2.0;" x1="752.5898" x2="951.3965" y1="334.4141" y2="334.4141"/><text fill="#000000" font-family="sans-serif" font-size="13" lengthAdjust="spacing" textLength="51.9746" x="764.5898" y="329.3481">boolean</text><path d="M962,300.1484 L962,355.1484 L1102,355.1484 L1102,310.1484 L1092,300.1484 L962,300.1484 " fill="#FEFFDD" style="stroke:#181818;stroke-width:0.5;"/><path d="M1092,300.1484 L1092,310.1484 L1102,310.1484 L1092,300.1484 " fill="#FEFFDD" style="stroke:#181818;stroke-width:0.5;"/><text fill="#000000" font-family="sans-serif" font-size="13" lengthAdjust="spacing" textLength="103.6699" x="968" y="317.2153">Checks if a user</text><text fill="#000000" font-family="sans-serif" font-size="13" lengthAdjust="spacing" textLength="114.9053" x="972.1323" y="332.3481">doesn't exist with</text><text fill="#000000" font-family="sans-serif" font-size="13" lengthAdjust="spacing" textLength="66.3838" x="972.1323" y="347.481">that email</text><polygon fill="#181818" points="483.0977,377.6797,473.0977,381.6797,483.0977,385.6797,479.0977,381.6797" style="stroke:#181818;stroke-width:1.0;"/><line style="stroke:#181818;stroke-width:1.0;stroke-dasharray:2.0,2.0;" x1="477.0977" x2="741.5898" y1="381.6797" y2="381.6797"/><text fill="#000000" font-family="sans-serif" font-size="13" lengthAdjust="spacing" textLength="51.9746" x="489.0977" y="376.6138">boolean</text><polygon fill="#181818" points="725.5898,406.8125,735.5898,410.8125,725.5898,414.8125,729.5898,410.8125" style="stroke:#181818;stroke-width:1.0;"/><line style="stroke:#181818;stroke-width:1.0;" x1="472.0977" x2="731.5898" y1="410.8125" y2="410.8125"/><text fill="#000000" font-family="sans-serif" font-size="13" lengthAdjust="spacing" textLength="246.4922" x="479.0977" y="405.7466">validatePassword(userDTO.password)</text><polygon fill="#181818" points="483.0977,435.9453,473.0977,439.9453,483.0977,443.9453,479.0977,439.9453" style="stroke:#181818;stroke-width:1.0;"/><line style="stroke:#181818;stroke-width:1.0;stroke-dasharray:2.0,2.0;" x1="477.0977" x2="741.5898" y1="439.9453" y2="439.9453"/><text fill="#000000" font-family="sans-serif" font-size="13" lengthAdjust="spacing" textLength="51.9746" x="489.0977" y="434.8794">boolean</text><polygon fill="#181818" points="725.5898,483.2109,735.5898,487.2109,725.5898,491.2109,729.5898,487.2109" style="stroke:#181818;stroke-width:1.0;"/><line style="stroke:#181818;stroke-width:1.0;" x1="472.0977" x2="731.5898" y1="487.2109" y2="487.2109"/><text fill="#000000" font-family="sans-serif" font-size="13" lengthAdjust="spacing" textLength="166.2197" x="479.0977" y="482.145">createNewUser(userDTO)</text><path d="M752,452.9453 L752,507.9453 L951,507.9453 L951,462.9453 L941,452.9453 L752,452.9453 " fill="#FEFFDD" style="stroke:#181818;stroke-width:0.5;"/><path d="M941,452.9453 L941,462.9453 L951,462.9453 L941,452.9453 " fill="#FEFFDD" style="stroke:#181818;stroke-width:0.5;"/><text fill="#000000" font-family="sans-serif" font-size="13" lengthAdjust="spacing" textLength="78.5776" x="758" y="470.0122">Patient Role</text><text fill="#000000" font-family="sans-serif" font-size="13" lengthAdjust="spacing" textLength="116.6064" x="758" y="485.145">Status Non-Active</text><text fill="#000000" font-family="sans-serif" font-size="13" lengthAdjust="spacing" textLength="178.293" x="758" y="500.2778">Plus all details from patient</text><polygon fill="#181818" points="1103.8247,515.3438,1113.8247,519.3438,1103.8247,523.3438,1107.8247,519.3438" style="stroke:#181818;stroke-width:1.0;"/><line style="stroke:#181818;stroke-width:1.0;" x1="747.5898" x2="1109.8247" y1="519.3438" y2="519.3438"/><rect fill="#E2E2F0" height="46.5938" rx="2.5" ry="2.5" style="stroke:#181818;stroke-width:0.5;" width="85.4561" x="1115.8247" y="513.3438"/><text fill="#000000" font-family="sans-serif" font-size="14" lengthAdjust="spacing" textLength="71.4561" x="1122.8247" y="533.3389">&#171;Domain&#187;</text><text fill="#000000" font-family="sans-serif" font-size="14" lengthAdjust="spacing" textLength="31.9102" x="1144.8228" y="549.6357">User</text><polygon fill="#181818" points="935.3965,588.0703,945.3965,592.0703,935.3965,596.0703,939.3965,592.0703" style="stroke:#181818;stroke-width:1.0;"/><line style="stroke:#181818;stroke-width:1.0;" x1="747.5898" x2="941.3965" y1="592.0703" y2="592.0703"/><text fill="#000000" font-family="sans-serif" font-size="13" lengthAdjust="spacing" textLength="68.9292" x="754.5898" y="587.0044">save(user)</text><polygon fill="#181818" points="758.5898,617.2031,748.5898,621.2031,758.5898,625.2031,754.5898,621.2031" style="stroke:#181818;stroke-width:1.0;"/><line style="stroke:#181818;stroke-width:1.0;stroke-dasharray:2.0,2.0;" x1="752.5898" x2="951.3965" y1="621.2031" y2="621.2031"/><text fill="#000000" font-family="sans-serif" font-size="13" lengthAdjust="spacing" textLength="28.355" x="764.5898" y="616.1372">user</text><polygon fill="#181818" points="483.0977,646.3359,473.0977,650.3359,483.0977,654.3359,479.0977,650.3359" style="stroke:#181818;stroke-width:1.0;"/><line style="stroke:#181818;stroke-width:1.0;stroke-dasharray:2.0,2.0;" x1="477.0977" x2="741.5898" y1="650.3359" y2="650.3359"/><text fill="#000000" font-family="sans-serif" font-size="13" lengthAdjust="spacing" textLength="40.2632" x="489.0977" y="645.27">return</text><polygon fill="#181818" points="1248.7974,675.4688,1258.7974,679.4688,1248.7974,683.4688,1252.7974,679.4688" style="stroke:#181818;stroke-width:1.0;"/><line style="stroke:#181818;stroke-width:1.0;" x1="472.0977" x2="1254.7974" y1="679.4688" y2="679.4688"/><text fill="#000000" font-family="sans-serif" font-size="13" lengthAdjust="spacing" textLength="300.3901" x="479.0977" y="674.4028">sendTimeSensitiveConfirmationLink(userDTO)</text><polygon fill="#181818" points="1657.4932,704.6016,1667.4932,708.6016,1657.4932,712.6016,1661.4932,708.6016" style="stroke:#181818;stroke-width:1.0;"/><line style="stroke:#181818;stroke-width:1.0;" x1="1270.7974" x2="1663.4932" y1="708.6016" y2="708.6016"/><text fill="#000000" font-family="sans-serif" font-size="13" lengthAdjust="spacing" textLength="284.521" x="1277.7974" y="703.5356">generateTimeSensitiveConfirmationToken()</text><polygon fill="#181818" points="1775.0562,718.6016,1785.0562,722.6016,1775.0562,726.6016,1779.0562,722.6016" style="stroke:#181818;stroke-width:1.0;"/><line style="stroke:#181818;stroke-width:1.0;" x1="1679.4932" x2="1781.0562" y1="722.6016" y2="722.6016"/><rect fill="#E2E2F0" height="46.5938" rx="2.5" ry="2.5" style="stroke:#181818;stroke-width:0.5;" width="110.332" x="1787.0562" y="716.6016"/><text fill="#000000" font-family="sans-serif" font-size="14" lengthAdjust="spacing" textLength="96.332" x="1794.0562" y="736.5967">&#171;component&#187;</text><text fill="#000000" font-family="sans-serif" font-size="14" lengthAdjust="spacing" textLength="42.7109" x="1823.0918" y="752.8936">Token</text><polygon fill="#181818" points="2045.0024,791.3281,2055.0024,795.3281,2045.0024,799.3281,2049.0024,795.3281" style="stroke:#181818;stroke-width:1.0;"/><line style="stroke:#181818;stroke-width:1.0;" x1="1679.4932" x2="2051.0024" y1="795.3281" y2="795.3281"/><text fill="#000000" font-family="sans-serif" font-size="13" lengthAdjust="spacing" textLength="77.3906" x="1686.4932" y="790.2622">save(token)</text><polygon fill="#181818" points="1690.4932,820.4609,1680.4932,824.4609,1690.4932,828.4609,1686.4932,824.4609" style="stroke:#181818;stroke-width:1.0;"/><line style="stroke:#181818;stroke-width:1.0;stroke-dasharray:2.0,2.0;" x1="1684.4932" x2="2061.0024" y1="824.4609" y2="824.4609"/><text fill="#000000" font-family="sans-serif" font-size="13" lengthAdjust="spacing" textLength="40.2632" x="1696.4932" y="819.395">return</text><polygon fill="#181818" points="1895.3882,849.5938,1905.3882,853.5938,1895.3882,857.5938,1899.3882,853.5938" style="stroke:#181818;stroke-width:1.0;"/><line style="stroke:#181818;stroke-width:1.0;" x1="1679.4932" x2="1901.3882" y1="853.5938" y2="853.5938"/><text fill="#000000" font-family="sans-serif" font-size="13" lengthAdjust="spacing" textLength="88.1943" x="1686.4932" y="848.5278">toDTO(token)</text><rect fill="#E2E2F0" height="46.5938" rx="2.5" ry="2.5" style="stroke:#181818;stroke-width:0.5;" width="91.5127" x="1907.3882" y="832.4609"/><text fill="#000000" font-family="sans-serif" font-size="14" lengthAdjust="spacing" textLength="47.4824" x="1929.4033" y="852.4561">&#171;DTO&#187;</text><text fill="#000000" font-family="sans-serif" font-size="14" lengthAdjust="spacing" textLength="73.0625" x="1918.8384" y="868.7529">TokenDTO</text><polygon fill="#181818" points="1281.7974,907.1875,1271.7974,911.1875,1281.7974,915.1875,1277.7974,911.1875" style="stroke:#181818;stroke-width:1.0;"/><line style="stroke:#181818;stroke-width:1.0;stroke-dasharray:2.0,2.0;" x1="1275.7974" x2="1673.4932" y1="911.1875" y2="911.1875"/><text fill="#000000" font-family="sans-serif" font-size="13" lengthAdjust="spacing" textLength="65" x="1287.7974" y="906.1216">tokenDTO</text><line style="stroke:#181818;stroke-width:1.0;" x1="1270.7974" x2="1312.7974" y1="940.3203" y2="940.3203"/><line style="stroke:#181818;stroke-width:1.0;" x1="1312.7974" x2="1312.7974" y1="940.3203" y2="953.3203"/><line style="stroke:#181818;stroke-width:1.0;" x1="1271.7974" x2="1312.7974" y1="953.3203" y2="953.3203"/><polygon fill="#181818" points="1281.7974,949.3203,1271.7974,953.3203,1281.7974,957.3203,1277.7974,953.3203" style="stroke:#181818;stroke-width:1.0;"/><text fill="#000000" font-family="sans-serif" font-size="13" lengthAdjust="spacing" textLength="374.6958" x="1277.7974" y="935.2544">sendEmail(emailString, tokenDTO, emailTitle, emailBody)</text><polygon fill="#181818" points="483.0977,978.4531,473.0977,982.4531,483.0977,986.4531,479.0977,982.4531" style="stroke:#181818;stroke-width:1.0;"/><line style="stroke:#181818;stroke-width:1.0;stroke-dasharray:2.0,2.0;" x1="477.0977" x2="1264.7974" y1="982.4531" y2="982.4531"/><text fill="#000000" font-family="sans-serif" font-size="13" lengthAdjust="spacing" textLength="40.2632" x="489.0977" y="977.3872">return</text><polygon fill="#181818" points="195.4878,1007.5859,185.4878,1011.5859,195.4878,1015.5859,191.4878,1011.5859" style="stroke:#181818;stroke-width:1.0;"/><line style="stroke:#181818;stroke-width:1.0;stroke-dasharray:2.0,2.0;" x1="189.4878" x2="466.0977" y1="1011.5859" y2="1011.5859"/><text fill="#000000" font-family="sans-serif" font-size="13" lengthAdjust="spacing" textLength="40.2632" x="201.4878" y="1006.52">return</text><polygon fill="#181818" points="11,1036.7188,1,1040.7188,11,1044.7188,7,1040.7188" style="stroke:#181818;stroke-width:1.0;"/><line style="stroke:#181818;stroke-width:1.0;stroke-dasharray:2.0,2.0;" x1="5" x2="178.4878" y1="1040.7188" y2="1040.7188"/><text fill="#000000" font-family="sans-serif" font-size="13" lengthAdjust="spacing" textLength="87.2168" x="17" y="1035.6528">success/error</text><!--SRC=[bLPDRnen4Btlhx2u152Wgg9UAXI992iLbR08bbwI7jpT0QmiDh8D9F- -OtlN-vcqkLd3l3SpRzwEq4ndG7gRDVas_Zg-6PEb50aeHNunk93-7CwGaPi1ULf497pL83dDo6pw-BiN14SgDKlOaN9DUfF9IfmqtDu-SxAacW7NDj0ZL95Lj8d3Plwzu5gAB0DP1PLHYxoF5l4gchUAhK6UMUBARHJ8HyhfBiTCD_4FytkhGJWAnRIGRnvMXZpIX9h8XpZo47pRtFpTIXK7ohZFTgdhSFNH0252iZnW0U7ZT3Rl6g6AYiKBS3Vt0OMhukFePxZemYVYS1GSiqk64l3Ur3Qj6DjcTipT4DTYJAm4MM639p6wTNuWtyaoMiVzH4AA7J6QgGUgwI3WGWEHRBVNc6Ar8KoHe_F7bNhcIwhKHSYq5Ww2QQBPcIBMsIrmLR1SRY9amrgOi81BxZQpedO39PEtNq61RFdYXqFaqm9VRO9ATc56KtmFoSjiQ_3XArDQzK-EQb0MzDuDF30dCV8X2LZatTiijMXE3x3Mal5TWyIfxO6ZUYj_XCY0yhhKzwO_HTYMK6AuSOsf0CMljAjABaplCQZt52DcBy43qEwYhlEQzaND1iPDswtOcMOinSHYuOLWusCU60GjBlAl-kd_r_TsiJxvO5ir7NDlaHNMU-PhJVL9aONW8ul3q3B30Cqoae965HNPId4ed5pVl3aTm-5xPb3q3BQjJotV03wrEGdw96kBgmdchvNf27WQC_GaSBm6E2tUyosJ1vnDy3dZBnqgbjSkAAcGrrynvDq11ud9xtBRWzEl-A6yWK59LB0IrBGZN9LL6y8cdvEfp1qrsioLgbYi2QlLGnr8vOxa9Qk93NbrVefR5JhaQwx5NjA-_MxTnRZsTDVkSuxDdu7yVIVIjq6DiSiIbJOgM_JUg9pwDi3VribevDFKAJ5_Fxw0b486LSlPZBy0]--></g></svg>