<svg xmlns="http://www.w3.org/2000/svg" xmlns:xlink="http://www.w3.org/1999/xlink" contentStyleType="text/css" height="604px" preserveAspectRatio="none" style="width:1342px;height:604px;background:#FFFFFF;" version="1.1" viewBox="0 0 1342 604" width="1342px" zoomAndPan="magnify"><title>US 5.1.3. Process View (Level 3) - Creating a Patient Profile</title><defs/><g><text fill="#000000" font-family="sans-serif" font-size="14" font-weight="bold" lengthAdjust="spacing" textLength="471.2285" x="434.4448" y="27.9951">US 5.1.3. Process View (Level 3) - Creating a Patient Profile</text><rect fill="#FFFFFF" height="413.6484" style="stroke:#181818;stroke-width:1.0;" width="10" x="189.2334" y="121.0234"/><rect fill="#FFFFFF" height="355.3828" style="stroke:#181818;stroke-width:1.0;" width="10" x="474.9517" y="150.1563"/><rect fill="#FFFFFF" height="239.5234" style="stroke:#181818;stroke-width:1.0;" width="10" x="895.8745" y="236.8828"/><rect fill="#FFFFFF" height="47.2656" style="stroke:#181818;stroke-width:1.0;" width="10" x="1164.2129" y="266.0156"/><rect fill="#FFFFFF" height="29.1328" style="stroke:#181818;stroke-width:1.0;" width="10" x="1164.2129" y="418.1406"/><line style="stroke:#181818;stroke-width:0.5;stroke-dasharray:5.0,5.0;" x1="193.686" x2="193.686" y1="89.8906" y2="552.6719"/><line style="stroke:#181818;stroke-width:0.5;stroke-dasharray:5.0,5.0;" x1="479.4521" x2="479.4521" y1="89.8906" y2="552.6719"/><line style="stroke:#181818;stroke-width:0.5;stroke-dasharray:5.0,5.0;" x1="754.5674" x2="754.5674" y1="196.9531" y2="552.6719"/><line style="stroke:#181818;stroke-width:0.5;stroke-dasharray:5.0,5.0;" x1="900.0908" x2="900.0908" y1="89.8906" y2="552.6719"/><line style="stroke:#181818;stroke-width:0.5;stroke-dasharray:5.0,5.0;" x1="1168.7637" x2="1168.7637" y1="89.8906" y2="552.6719"/><line style="stroke:#181818;stroke-width:0.5;stroke-dasharray:5.0,5.0;" x1="1292.6621" x2="1292.6621" y1="378.2109" y2="552.6719"/><rect fill="#E2E2F0" height="46.5938" rx="2.5" ry="2.5" style="stroke:#181818;stroke-width:0.5;" width="109.0947" x="139.686" y="42.2969"/><text fill="#000000" font-family="sans-serif" font-size="14" lengthAdjust="spacing" textLength="58.3994" x="165.0337" y="62.292">&#171;Route&#187;</text><text fill="#000000" font-family="sans-serif" font-size="14" lengthAdjust="spacing" textLength="90.6445" x="151.1362" y="78.5889">PatientRoute</text><rect fill="#E2E2F0" height="46.5938" rx="2.5" ry="2.5" style="stroke:#181818;stroke-width:0.5;" width="109.0947" x="139.686" y="551.6719"/><text fill="#000000" font-family="sans-serif" font-size="14" lengthAdjust="spacing" textLength="58.3994" x="165.0337" y="571.667">&#171;Route&#187;</text><text fill="#000000" font-family="sans-serif" font-size="14" lengthAdjust="spacing" textLength="90.6445" x="151.1362" y="587.9639">PatientRoute</text><rect fill="#E2E2F0" height="46.5938" rx="2.5" ry="2.5" style="stroke:#181818;stroke-width:0.5;" width="136.999" x="411.4521" y="42.2969"/><text fill="#000000" font-family="sans-serif" font-size="14" lengthAdjust="spacing" textLength="86.3037" x="436.7998" y="62.292">&#171;Controller&#187;</text><text fill="#000000" font-family="sans-serif" font-size="14" lengthAdjust="spacing" textLength="118.5488" x="422.9023" y="78.5889">PatientController</text><rect fill="#E2E2F0" height="46.5938" rx="2.5" ry="2.5" style="stroke:#181818;stroke-width:0.5;" width="136.999" x="411.4521" y="551.6719"/><text fill="#000000" font-family="sans-serif" font-size="14" lengthAdjust="spacing" textLength="86.3037" x="436.7998" y="571.667">&#171;Controller&#187;</text><text fill="#000000" font-family="sans-serif" font-size="14" lengthAdjust="spacing" textLength="118.5488" x="422.9023" y="587.9639">PatientController</text><rect fill="#E2E2F0" height="46.5938" rx="2.5" ry="2.5" style="stroke:#181818;stroke-width:0.5;" width="152.5234" x="678.5674" y="551.6719"/><text fill="#000000" font-family="sans-serif" font-size="14" lengthAdjust="spacing" textLength="47.4824" x="731.0879" y="571.667">&#171;DTO&#187;</text><text fill="#000000" font-family="sans-serif" font-size="14" lengthAdjust="spacing" textLength="134.0732" x="690.0176" y="587.9639">CreatingPatientDto</text><rect fill="#E2E2F0" height="46.5938" rx="2.5" ry="2.5" style="stroke:#181818;stroke-width:0.5;" width="119.5674" x="841.0908" y="42.2969"/><text fill="#000000" font-family="sans-serif" font-size="14" lengthAdjust="spacing" textLength="68.8721" x="866.4385" y="62.292">&#171;Service&#187;</text><text fill="#000000" font-family="sans-serif" font-size="14" lengthAdjust="spacing" textLength="101.1172" x="852.541" y="78.5889">PatientService</text><rect fill="#E2E2F0" height="46.5938" rx="2.5" ry="2.5" style="stroke:#181818;stroke-width:0.5;" width="119.5674" x="841.0908" y="551.6719"/><text fill="#000000" font-family="sans-serif" font-size="14" lengthAdjust="spacing" textLength="68.8721" x="866.4385" y="571.667">&#171;Service&#187;</text><text fill="#000000" font-family="sans-serif" font-size="14" lengthAdjust="spacing" textLength="101.1172" x="852.541" y="587.9639">PatientService</text><rect fill="#E2E2F0" height="46.5938" rx="2.5" ry="2.5" style="stroke:#181818;stroke-width:0.5;" width="142.8984" x="1097.7637" y="42.2969"/><text fill="#000000" font-family="sans-serif" font-size="14" lengthAdjust="spacing" textLength="92.2031" x="1123.1113" y="62.292">&#171;Repository&#187;</text><text fill="#000000" font-family="sans-serif" font-size="14" lengthAdjust="spacing" textLength="124.4482" x="1109.2139" y="78.5889">PatientRepository</text><rect fill="#E2E2F0" height="46.5938" rx="2.5" ry="2.5" style="stroke:#181818;stroke-width:0.5;" width="142.8984" x="1097.7637" y="551.6719"/><text fill="#000000" font-family="sans-serif" font-size="14" lengthAdjust="spacing" textLength="92.2031" x="1123.1113" y="571.667">&#171;Repository&#187;</text><text fill="#000000" font-family="sans-serif" font-size="14" lengthAdjust="spacing" textLength="124.4482" x="1109.2139" y="587.9639">PatientRepository</text><rect fill="#E2E2F0" height="46.5938" rx="2.5" ry="2.5" style="stroke:#181818;stroke-width:0.5;" width="85.4561" x="1250.6621" y="551.6719"/><text fill="#000000" font-family="sans-serif" font-size="14" lengthAdjust="spacing" textLength="71.4561" x="1257.6621" y="571.667">&#171;Domain&#187;</text><text fill="#000000" font-family="sans-serif" font-size="14" lengthAdjust="spacing" textLength="49.376" x="1270.9272" y="587.9639">Patient</text><rect fill="#FFFFFF" height="413.6484" style="stroke:#181818;stroke-width:1.0;" width="10" x="189.2334" y="121.0234"/><rect fill="#FFFFFF" height="355.3828" style="stroke:#181818;stroke-width:1.0;" width="10" x="474.9517" y="150.1563"/><rect fill="#FFFFFF" height="239.5234" style="stroke:#181818;stroke-width:1.0;" width="10" x="895.8745" y="236.8828"/><rect fill="#FFFFFF" height="47.2656" style="stroke:#181818;stroke-width:1.0;" width="10" x="1164.2129" y="266.0156"/><rect fill="#FFFFFF" height="29.1328" style="stroke:#181818;stroke-width:1.0;" width="10" x="1164.2129" y="418.1406"/><ellipse cx="7.5" cy="120.2734" fill="#000000" rx="4" ry="4" style="stroke:#181818;stroke-width:1.5;"/><polygon fill="#181818" points="177.2334,117.0234,187.2334,121.0234,177.2334,125.0234,181.2334,121.0234" style="stroke:#181818;stroke-width:1.0;"/><line style="stroke:#181818;stroke-width:1.0;" x1="12" x2="183.2334" y1="121.0234" y2="121.0234"/><text fill="#000000" font-family="sans-serif" font-size="13" lengthAdjust="spacing" textLength="162.2334" x="15" y="115.9575">POST(PatientProfileData)</text><polygon fill="#181818" points="462.9517,146.1563,472.9517,150.1563,462.9517,154.1563,466.9517,150.1563" style="stroke:#181818;stroke-width:1.0;"/><line style="stroke:#181818;stroke-width:1.0;" x1="199.2334" x2="468.9517" y1="150.1563" y2="150.1563"/><text fill="#000000" font-family="sans-serif" font-size="13" lengthAdjust="spacing" textLength="256.7183" x="206.2334" y="145.0903">createPatientProfile(patientProfileData)</text><polygon fill="#181818" points="666.5674,175.2891,676.5674,179.2891,666.5674,183.2891,670.5674,179.2891" style="stroke:#181818;stroke-width:1.0;"/><line style="stroke:#181818;stroke-width:1.0;" x1="484.9517" x2="672.5674" y1="179.2891" y2="179.2891"/><text fill="#000000" font-family="sans-serif" font-size="13" lengthAdjust="spacing" textLength="169.6157" x="491.9517" y="174.2231">toDTO(patientProfileData)</text><rect fill="#E2E2F0" height="46.5938" rx="2.5" ry="2.5" style="stroke:#181818;stroke-width:0.5;" width="152.5234" x="678.5674" y="158.1563"/><text fill="#000000" font-family="sans-serif" font-size="14" lengthAdjust="spacing" textLength="47.4824" x="731.0879" y="178.1514">&#171;DTO&#187;</text><text fill="#000000" font-family="sans-serif" font-size="14" lengthAdjust="spacing" textLength="134.0732" x="690.0176" y="194.4482">CreatingPatientDto</text><polygon fill="#181818" points="883.8745,232.8828,893.8745,236.8828,883.8745,240.8828,887.8745,236.8828" style="stroke:#181818;stroke-width:1.0;"/><line style="stroke:#181818;stroke-width:1.0;" x1="484.9517" x2="889.8745" y1="236.8828" y2="236.8828"/><text fill="#000000" font-family="sans-serif" font-size="13" lengthAdjust="spacing" textLength="195.6538" x="491.9517" y="231.8169">createPatientProfile(staffDTO)</text><polygon fill="#181818" points="1152.2129,262.0156,1162.2129,266.0156,1152.2129,270.0156,1156.2129,266.0156" style="stroke:#181818;stroke-width:1.0;"/><line style="stroke:#181818;stroke-width:1.0;" x1="905.8745" x2="1158.2129" y1="266.0156" y2="266.0156"/><text fill="#000000" font-family="sans-serif" font-size="13" lengthAdjust="spacing" textLength="239.3384" x="912.8745" y="260.9497">existsById(creatingPatientDto.email)</text><polygon fill="#181818" points="916.8745,309.2813,906.8745,313.2813,916.8745,317.2813,912.8745,313.2813" style="stroke:#181818;stroke-width:1.0;"/><line style="stroke:#181818;stroke-width:1.0;stroke-dasharray:2.0,2.0;" x1="910.8745" x2="1168.2129" y1="313.2813" y2="313.2813"/><text fill="#000000" font-family="sans-serif" font-size="13" lengthAdjust="spacing" textLength="51.9746" x="922.8745" y="308.2153">boolean</text><path d="M1179,279.0156 L1179,334.0156 L1321,334.0156 L1321,289.0156 L1311,279.0156 L1179,279.0156 " fill="#FEFFDD" style="stroke:#181818;stroke-width:0.5;"/><path d="M1311,279.0156 L1311,289.0156 L1321,289.0156 L1311,279.0156 " fill="#FEFFDD" style="stroke:#181818;stroke-width:0.5;"/><text fill="#000000" font-family="sans-serif" font-size="13" lengthAdjust="spacing" textLength="121.5767" x="1185" y="296.0825">Checks if a patient</text><text fill="#000000" font-family="sans-serif" font-size="13" lengthAdjust="spacing" textLength="114.9053" x="1185" y="311.2153">doesn't exist with</text><text fill="#000000" font-family="sans-serif" font-size="13" lengthAdjust="spacing" textLength="70.5161" x="1185" y="326.3481">that email.</text><polygon fill="#181818" points="1238.6621,341.4141,1248.6621,345.4141,1238.6621,349.4141,1242.6621,345.4141" style="stroke:#181818;stroke-width:1.0;"/><line style="stroke:#181818;stroke-width:1.0;" x1="905.8745" x2="1244.6621" y1="345.4141" y2="345.4141"/><rect fill="#E2E2F0" height="46.5938" rx="2.5" ry="2.5" style="stroke:#181818;stroke-width:0.5;" width="85.4561" x="1250.6621" y="339.4141"/><text fill="#000000" font-family="sans-serif" font-size="14" lengthAdjust="spacing" textLength="71.4561" x="1257.6621" y="359.4092">&#171;Domain&#187;</text><text fill="#000000" font-family="sans-serif" font-size="14" lengthAdjust="spacing" textLength="49.376" x="1270.9272" y="375.7061">Patient</text><polygon fill="#181818" points="1152.2129,414.1406,1162.2129,418.1406,1152.2129,422.1406,1156.2129,418.1406" style="stroke:#181818;stroke-width:1.0;"/><line style="stroke:#181818;stroke-width:1.0;" x1="905.8745" x2="1158.2129" y1="418.1406" y2="418.1406"/><text fill="#000000" font-family="sans-serif" font-size="13" lengthAdjust="spacing" textLength="86.8359" x="912.8745" y="413.0747">save(patient)</text><polygon fill="#181818" points="916.8745,443.2734,906.8745,447.2734,916.8745,451.2734,912.8745,447.2734" style="stroke:#181818;stroke-width:1.0;"/><line style="stroke:#181818;stroke-width:1.0;stroke-dasharray:2.0,2.0;" x1="910.8745" x2="1168.2129" y1="447.2734" y2="447.2734"/><text fill="#000000" font-family="sans-serif" font-size="13" lengthAdjust="spacing" textLength="46.2617" x="922.8745" y="442.2075">patient</text><polygon fill="#181818" points="495.9517,472.4063,485.9517,476.4063,495.9517,480.4063,491.9517,476.4063" style="stroke:#181818;stroke-width:1.0;"/><line style="stroke:#181818;stroke-width:1.0;stroke-dasharray:2.0,2.0;" x1="489.9517" x2="899.8745" y1="476.4063" y2="476.4063"/><text fill="#000000" font-family="sans-serif" font-size="13" lengthAdjust="spacing" textLength="40.2632" x="501.9517" y="471.3403">return</text><polygon fill="#181818" points="210.2334,501.5391,200.2334,505.5391,210.2334,509.5391,206.2334,505.5391" style="stroke:#181818;stroke-width:1.0;"/><line style="stroke:#181818;stroke-width:1.0;stroke-dasharray:2.0,2.0;" x1="204.2334" x2="478.9517" y1="505.5391" y2="505.5391"/><text fill="#000000" font-family="sans-serif" font-size="13" lengthAdjust="spacing" textLength="40.2632" x="216.2334" y="500.4731">return</text><polygon fill="#181818" points="11,530.6719,1,534.6719,11,538.6719,7,534.6719" style="stroke:#181818;stroke-width:1.0;"/><line style="stroke:#181818;stroke-width:1.0;stroke-dasharray:2.0,2.0;" x1="5" x2="193.2334" y1="534.6719" y2="534.6719"/><text fill="#000000" font-family="sans-serif" font-size="13" lengthAdjust="spacing" textLength="87.2168" x="17" y="529.606">success/error</text><!--SRC=[bPHFQy904CNl-oaMBur2KehqKaImfa916j7OIxriusYMfhkoEshzzjqac_-rfRVmcD_RcJT3a6C2jBTUqNllpXjwTA5a15hJLmvdwipX10aTzgbBfmeOSh6dZ2xC1mXCQtSyWHuX1wQGH_p0ZDeRZPRoY30URqHHcWazoZHT1klmgLq_bGALJ19GTQXICt8Ql8JBODvc_J38eA8_2_ieCsg5RBSpDMri1Uh4eqQJLignS3ARfK9dD3X8pL6gIsE-KgteLEiqApyP5tMogYVaJRhZF23wG1V1AdHiaGtQPyZwP18XFp446oN90KFQW0mRfLb04tOEltaLuPB2nFWLqGq6nXAb-VhHequKgLthGLlBsijLqgJ22wyqG-C5NroZVhmyRvseisOFJAP9sp5BdrGcRgkzToaJO888QGZ5zp4QSHf3zA4ftvaZjwDkn5Q25ZUODq7F7EEDm9WP8NtN8pwmQoytPXaChW-esQbSq7ydiTZVVJHEH04UbI3R5fGlebnfxHwxG7apVbSRkMv9wcEK_b9kGIcf6jLPnJS0]--></g></svg>