<svg xmlns="http://www.w3.org/2000/svg" xmlns:xlink="http://www.w3.org/1999/xlink" contentStyleType="text/css" height="1316px" preserveAspectRatio="none" style="width:2816px;height:1316px;background:#FFFFFF;" version="1.1" viewBox="0 0 2816 1316" width="2816px" zoomAndPan="magnify"><title>US 5.1.3. Process View (Level 3) [NO External IAM]</title><defs/><g><text fill="#000000" font-family="sans-serif" font-size="14" font-weight="bold" lengthAdjust="spacing" textLength="401.5908" x="1206.5513" y="27.9951">US 5.1.3. Process View (Level 3) [NO External IAM]</text><rect fill="#FFFFFF" height="1107.8984" style="stroke:#181818;stroke-width:1.0;" width="10" x="148.71" y="139.1563"/><rect fill="#FFFFFF" height="1031.5" style="stroke:#181818;stroke-width:1.0;" width="10" x="599.6323" y="186.4219"/><rect fill="#FFFFFF" height="495.2578" style="stroke:#181818;stroke-width:1.0;" width="10" x="800.6094" y="693.5313"/><rect fill="#FFFFFF" height="29.1328" style="stroke:#181818;stroke-width:1.0;" width="10" x="997.1494" y="722.6641"/><rect fill="#FFFFFF" height="29.1328" style="stroke:#181818;stroke-width:1.0;" width="10" x="997.1494" y="839.1953"/><rect fill="#FFFFFF" height="29.1328" style="stroke:#181818;stroke-width:1.0;" width="10" x="1203.3057" y="780.9297"/><rect fill="#FFFFFF" height="276.0625" style="stroke:#181818;stroke-width:1.0;" width="10" x="1477.6299" y="388.3359"/><rect fill="#FFFFFF" height="28" style="stroke:#181818;stroke-width:1.0;" width="10" x="1482.6299" y="483.7344"/><rect fill="#FFFFFF" height="29.1328" style="stroke:#181818;stroke-width:1.0;" width="10" x="1725.5522" y="547.8672"/><rect fill="#FFFFFF" height="29.1328" style="stroke:#181818;stroke-width:1.0;" width="10" x="1945.3325" y="417.4688"/><rect fill="#FFFFFF" height="29.1328" style="stroke:#181818;stroke-width:1.0;" width="10" x="1945.3325" y="606.1328"/><rect fill="#FFFFFF" height="87.3984" style="stroke:#181818;stroke-width:1.0;" width="10" x="2176.3955" y="897.4609"/><rect fill="#FFFFFF" height="145.6641" style="stroke:#181818;stroke-width:1.0;" width="10" x="2176.3955" y="1013.9922"/><rect fill="#FFFFFF" height="29.1328" style="stroke:#181818;stroke-width:1.0;" width="10" x="2638.7881" y="926.5938"/><rect fill="#FFFFFF" height="29.1328" style="stroke:#181818;stroke-width:1.0;" width="10" x="2638.7881" y="1101.3906"/><rect fill="#FFFFFF" height="29.1328" style="stroke:#181818;stroke-width:1.0;" width="10" x="2762.9653" y="1043.125"/><line style="stroke:#181818;stroke-width:0.5;stroke-dasharray:5.0,5.0;" x1="153.1626" x2="153.1626" y1="89.8906" y2="1265.0547"/><line style="stroke:#181818;stroke-width:0.5;stroke-dasharray:5.0,5.0;" x1="604.1328" x2="604.1328" y1="89.8906" y2="1265.0547"/><line style="stroke:#181818;stroke-width:0.5;stroke-dasharray:5.0,5.0;" x1="804.7461" x2="804.7461" y1="89.8906" y2="1265.0547"/><line style="stroke:#181818;stroke-width:0.5;stroke-dasharray:5.0,5.0;" x1="1001.4331" x2="1001.4331" y1="89.8906" y2="1265.0547"/><line style="stroke:#181818;stroke-width:0.5;stroke-dasharray:5.0,5.0;" x1="1114.8657" x2="1114.8657" y1="348.4063" y2="1265.0547"/><line style="stroke:#181818;stroke-width:0.5;stroke-dasharray:5.0,5.0;" x1="1207.5776" x2="1207.5776" y1="89.8906" y2="1265.0547"/><line style="stroke:#181818;stroke-width:0.5;stroke-dasharray:5.0,5.0;" x1="1315.0337" x2="1315.0337" y1="89.8906" y2="1265.0547"/><line style="stroke:#181818;stroke-width:0.5;stroke-dasharray:5.0,5.0;" x1="1482.0669" x2="1482.0669" y1="89.8906" y2="1265.0547"/><line style="stroke:#181818;stroke-width:0.5;stroke-dasharray:5.0,5.0;" x1="1730.3862" x2="1730.3862" y1="89.8906" y2="1265.0547"/><line style="stroke:#181818;stroke-width:0.5;stroke-dasharray:5.0,5.0;" x1="1840.7183" x2="1840.7183" y1="233.2188" y2="1265.0547"/><line style="stroke:#181818;stroke-width:0.5;stroke-dasharray:5.0,5.0;" x1="1950.231" x2="1950.231" y1="89.8906" y2="1265.0547"/><line style="stroke:#181818;stroke-width:0.5;stroke-dasharray:5.0,5.0;" x1="2062.4341" x2="2062.4341" y1="290.8125" y2="1265.0547"/><line style="stroke:#181818;stroke-width:0.5;stroke-dasharray:5.0,5.0;" x1="2180.6118" x2="2180.6118" y1="89.8906" y2="1265.0547"/><line style="stroke:#181818;stroke-width:0.5;stroke-dasharray:5.0,5.0;" x1="2643.3389" x2="2643.3389" y1="89.8906" y2="1265.0547"/><line style="stroke:#181818;stroke-width:0.5;stroke-dasharray:5.0,5.0;" x1="2767.2373" x2="2767.2373" y1="89.8906" y2="1265.0547"/><rect fill="#E2E2F0" height="46.5938" rx="2.5" ry="2.5" style="stroke:#181818;stroke-width:0.5;" width="109.0947" x="99.1626" y="42.2969"/><text fill="#000000" font-family="sans-serif" font-size="14" lengthAdjust="spacing" textLength="58.3994" x="124.5103" y="62.292">&#171;Route&#187;</text><text fill="#000000" font-family="sans-serif" font-size="14" lengthAdjust="spacing" textLength="90.6445" x="110.6128" y="78.5889">PatientRoute</text><rect fill="#E2E2F0" height="46.5938" rx="2.5" ry="2.5" style="stroke:#181818;stroke-width:0.5;" width="109.0947" x="99.1626" y="1264.0547"/><text fill="#000000" font-family="sans-serif" font-size="14" lengthAdjust="spacing" textLength="58.3994" x="124.5103" y="1284.0498">&#171;Route&#187;</text><text fill="#000000" font-family="sans-serif" font-size="14" lengthAdjust="spacing" textLength="90.6445" x="110.6128" y="1300.3467">PatientRoute</text><rect fill="#E2E2F0" height="46.5938" rx="2.5" ry="2.5" style="stroke:#181818;stroke-width:0.5;" width="136.999" x="536.1328" y="42.2969"/><text fill="#000000" font-family="sans-serif" font-size="14" lengthAdjust="spacing" textLength="86.3037" x="561.4805" y="62.292">&#171;Controller&#187;</text><text fill="#000000" font-family="sans-serif" font-size="14" lengthAdjust="spacing" textLength="118.5488" x="547.583" y="78.5889">PatientController</text><rect fill="#E2E2F0" height="46.5938" rx="2.5" ry="2.5" style="stroke:#181818;stroke-width:0.5;" width="136.999" x="536.1328" y="1264.0547"/><text fill="#000000" font-family="sans-serif" font-size="14" lengthAdjust="spacing" textLength="86.3037" x="561.4805" y="1284.0498">&#171;Controller&#187;</text><text fill="#000000" font-family="sans-serif" font-size="14" lengthAdjust="spacing" textLength="118.5488" x="547.583" y="1300.3467">PatientController</text><rect fill="#E2E2F0" height="46.5938" rx="2.5" ry="2.5" style="stroke:#181818;stroke-width:0.5;" width="111.7266" x="749.7461" y="42.2969"/><text fill="#000000" font-family="sans-serif" font-size="14" lengthAdjust="spacing" textLength="68.8721" x="771.1733" y="62.292">&#171;Service&#187;</text><text fill="#000000" font-family="sans-serif" font-size="14" lengthAdjust="spacing" textLength="93.2764" x="761.1963" y="78.5889">UserManager</text><rect fill="#E2E2F0" height="46.5938" rx="2.5" ry="2.5" style="stroke:#181818;stroke-width:0.5;" width="111.7266" x="749.7461" y="1264.0547"/><text fill="#000000" font-family="sans-serif" font-size="14" lengthAdjust="spacing" textLength="68.8721" x="771.1733" y="1284.0498">&#171;Service&#187;</text><text fill="#000000" font-family="sans-serif" font-size="14" lengthAdjust="spacing" textLength="93.2764" x="761.1963" y="1300.3467">UserManager</text><rect fill="#E2E2F0" height="46.5938" rx="2.5" ry="2.5" style="stroke:#181818;stroke-width:0.5;" width="125.4326" x="939.4331" y="42.2969"/><text fill="#000000" font-family="sans-serif" font-size="14" lengthAdjust="spacing" textLength="92.2031" x="956.0479" y="62.292">&#171;Repository&#187;</text><text fill="#000000" font-family="sans-serif" font-size="14" lengthAdjust="spacing" textLength="106.9824" x="950.8833" y="78.5889">UserRepository</text><rect fill="#E2E2F0" height="46.5938" rx="2.5" ry="2.5" style="stroke:#181818;stroke-width:0.5;" width="125.4326" x="939.4331" y="1264.0547"/><text fill="#000000" font-family="sans-serif" font-size="14" lengthAdjust="spacing" textLength="92.2031" x="956.0479" y="1284.0498">&#171;Repository&#187;</text><text fill="#000000" font-family="sans-serif" font-size="14" lengthAdjust="spacing" textLength="106.9824" x="950.8833" y="1300.3467">UserRepository</text><rect fill="#E2E2F0" height="46.5938" rx="2.5" ry="2.5" style="stroke:#181818;stroke-width:0.5;" width="80.7119" x="1074.8657" y="1264.0547"/><text fill="#000000" font-family="sans-serif" font-size="14" lengthAdjust="spacing" textLength="47.4824" x="1091.4805" y="1284.0498">&#171;DTO&#187;</text><text fill="#000000" font-family="sans-serif" font-size="14" lengthAdjust="spacing" textLength="62.2617" x="1086.3159" y="1300.3467">UserDTO</text><rect fill="#E2E2F0" height="46.5938" rx="2.5" ry="2.5" style="stroke:#181818;stroke-width:0.5;" width="85.4561" x="1165.5776" y="42.2969"/><text fill="#000000" font-family="sans-serif" font-size="14" lengthAdjust="spacing" textLength="71.4561" x="1172.5776" y="62.292">&#171;Domain&#187;</text><text fill="#000000" font-family="sans-serif" font-size="14" lengthAdjust="spacing" textLength="31.9102" x="1194.5757" y="78.5889">User</text><rect fill="#E2E2F0" height="46.5938" rx="2.5" ry="2.5" style="stroke:#181818;stroke-width:0.5;" width="85.4561" x="1165.5776" y="1264.0547"/><text fill="#000000" font-family="sans-serif" font-size="14" lengthAdjust="spacing" textLength="71.4561" x="1172.5776" y="1284.0498">&#171;Domain&#187;</text><text fill="#000000" font-family="sans-serif" font-size="14" lengthAdjust="spacing" textLength="31.9102" x="1194.5757" y="1300.3467">User</text><rect fill="#E2E2F0" height="46.5938" rx="2.5" ry="2.5" style="stroke:#181818;stroke-width:0.5;" width="109.0332" x="1261.0337" y="42.2969"/><text fill="#000000" font-family="sans-serif" font-size="14" lengthAdjust="spacing" textLength="68.8721" x="1281.1143" y="62.292">&#171;Service&#187;</text><text fill="#000000" font-family="sans-serif" font-size="14" lengthAdjust="spacing" textLength="90.583" x="1272.4839" y="78.5889">EmailService</text><rect fill="#E2E2F0" height="46.5938" rx="2.5" ry="2.5" style="stroke:#181818;stroke-width:0.5;" width="109.0332" x="1261.0337" y="1264.0547"/><text fill="#000000" font-family="sans-serif" font-size="14" lengthAdjust="spacing" textLength="68.8721" x="1281.1143" y="1284.0498">&#171;Service&#187;</text><text fill="#000000" font-family="sans-serif" font-size="14" lengthAdjust="spacing" textLength="90.583" x="1272.4839" y="1300.3467">EmailService</text><rect fill="#E2E2F0" height="46.5938" rx="2.5" ry="2.5" style="stroke:#181818;stroke-width:0.5;" width="205.126" x="1380.0669" y="42.2969"/><text fill="#000000" font-family="sans-serif" font-size="14" lengthAdjust="spacing" textLength="68.8721" x="1448.1938" y="62.292">&#171;Service&#187;</text><text fill="#000000" font-family="sans-serif" font-size="14" lengthAdjust="spacing" textLength="186.6758" x="1391.5171" y="78.5889">TokenManagementService</text><rect fill="#E2E2F0" height="46.5938" rx="2.5" ry="2.5" style="stroke:#181818;stroke-width:0.5;" width="205.126" x="1380.0669" y="1264.0547"/><text fill="#000000" font-family="sans-serif" font-size="14" lengthAdjust="spacing" textLength="68.8721" x="1448.1938" y="1284.0498">&#171;Service&#187;</text><text fill="#000000" font-family="sans-serif" font-size="14" lengthAdjust="spacing" textLength="186.6758" x="1391.5171" y="1300.3467">TokenManagementService</text><rect fill="#E2E2F0" height="46.5938" rx="2.5" ry="2.5" style="stroke:#181818;stroke-width:0.5;" width="110.332" x="1675.3862" y="42.2969"/><text fill="#000000" font-family="sans-serif" font-size="14" lengthAdjust="spacing" textLength="96.332" x="1682.3862" y="62.292">&#171;component&#187;</text><text fill="#000000" font-family="sans-serif" font-size="14" lengthAdjust="spacing" textLength="42.7109" x="1711.4219" y="78.5889">Token</text><rect fill="#E2E2F0" height="46.5938" rx="2.5" ry="2.5" style="stroke:#181818;stroke-width:0.5;" width="110.332" x="1675.3862" y="1264.0547"/><text fill="#000000" font-family="sans-serif" font-size="14" lengthAdjust="spacing" textLength="96.332" x="1682.3862" y="1284.0498">&#171;component&#187;</text><text fill="#000000" font-family="sans-serif" font-size="14" lengthAdjust="spacing" textLength="42.7109" x="1711.4219" y="1300.3467">Token</text><rect fill="#E2E2F0" height="46.5938" rx="2.5" ry="2.5" style="stroke:#181818;stroke-width:0.5;" width="91.5127" x="1795.7183" y="1264.0547"/><text fill="#000000" font-family="sans-serif" font-size="14" lengthAdjust="spacing" textLength="47.4824" x="1817.7334" y="1284.0498">&#171;DTO&#187;</text><text fill="#000000" font-family="sans-serif" font-size="14" lengthAdjust="spacing" textLength="73.0625" x="1807.1685" y="1300.3467">TokenDTO</text><rect fill="#E2E2F0" height="46.5938" rx="2.5" ry="2.5" style="stroke:#181818;stroke-width:0.5;" width="106.2031" x="1897.231" y="42.2969"/><text fill="#000000" font-family="sans-serif" font-size="14" lengthAdjust="spacing" textLength="92.2031" x="1904.231" y="62.292">&#171;Repository&#187;</text><text fill="#000000" font-family="sans-serif" font-size="14" lengthAdjust="spacing" textLength="78.5039" x="1913.3057" y="78.5889">TokenRepo</text><rect fill="#E2E2F0" height="46.5938" rx="2.5" ry="2.5" style="stroke:#181818;stroke-width:0.5;" width="106.2031" x="1897.231" y="1264.0547"/><text fill="#000000" font-family="sans-serif" font-size="14" lengthAdjust="spacing" textLength="92.2031" x="1904.231" y="1284.0498">&#171;Repository&#187;</text><text fill="#000000" font-family="sans-serif" font-size="14" lengthAdjust="spacing" textLength="78.5039" x="1913.3057" y="1300.3467">TokenRepo</text><rect fill="#E2E2F0" height="46.5938" rx="2.5" ry="2.5" style="stroke:#181818;stroke-width:0.5;" width="98.1777" x="2013.4341" y="1264.0547"/><text fill="#000000" font-family="sans-serif" font-size="14" lengthAdjust="spacing" textLength="47.4824" x="2038.7817" y="1284.0498">&#171;DTO&#187;</text><text fill="#000000" font-family="sans-serif" font-size="14" lengthAdjust="spacing" textLength="79.7275" x="2024.8843" y="1300.3467">PatientDTO</text><rect fill="#E2E2F0" height="46.5938" rx="2.5" ry="2.5" style="stroke:#181818;stroke-width:0.5;" width="119.5674" x="2121.6118" y="42.2969"/><text fill="#000000" font-family="sans-serif" font-size="14" lengthAdjust="spacing" textLength="68.8721" x="2146.9595" y="62.292">&#171;Service&#187;</text><text fill="#000000" font-family="sans-serif" font-size="14" lengthAdjust="spacing" textLength="101.1172" x="2133.062" y="78.5889">PatientService</text><rect fill="#E2E2F0" height="46.5938" rx="2.5" ry="2.5" style="stroke:#181818;stroke-width:0.5;" width="119.5674" x="2121.6118" y="1264.0547"/><text fill="#000000" font-family="sans-serif" font-size="14" lengthAdjust="spacing" textLength="68.8721" x="2146.9595" y="1284.0498">&#171;Service&#187;</text><text fill="#000000" font-family="sans-serif" font-size="14" lengthAdjust="spacing" textLength="101.1172" x="2133.062" y="1300.3467">PatientService</text><rect fill="#E2E2F0" height="46.5938" rx="2.5" ry="2.5" style="stroke:#181818;stroke-width:0.5;" width="142.8984" x="2572.3389" y="42.2969"/><text fill="#000000" font-family="sans-serif" font-size="14" lengthAdjust="spacing" textLength="92.2031" x="2597.6865" y="62.292">&#171;Repository&#187;</text><text fill="#000000" font-family="sans-serif" font-size="14" lengthAdjust="spacing" textLength="124.4482" x="2583.7891" y="78.5889">PatientRepository</text><rect fill="#E2E2F0" height="46.5938" rx="2.5" ry="2.5" style="stroke:#181818;stroke-width:0.5;" width="142.8984" x="2572.3389" y="1264.0547"/><text fill="#000000" font-family="sans-serif" font-size="14" lengthAdjust="spacing" textLength="92.2031" x="2597.6865" y="1284.0498">&#171;Repository&#187;</text><text fill="#000000" font-family="sans-serif" font-size="14" lengthAdjust="spacing" textLength="124.4482" x="2583.7891" y="1300.3467">PatientRepository</text><rect fill="#E2E2F0" height="46.5938" rx="2.5" ry="2.5" style="stroke:#181818;stroke-width:0.5;" width="85.4561" x="2725.2373" y="42.2969"/><text fill="#000000" font-family="sans-serif" font-size="14" lengthAdjust="spacing" textLength="71.4561" x="2732.2373" y="62.292">&#171;Domain&#187;</text><text fill="#000000" font-family="sans-serif" font-size="14" lengthAdjust="spacing" textLength="49.376" x="2745.5024" y="78.5889">Patient</text><rect fill="#E2E2F0" height="46.5938" rx="2.5" ry="2.5" style="stroke:#181818;stroke-width:0.5;" width="85.4561" x="2725.2373" y="1264.0547"/><text fill="#000000" font-family="sans-serif" font-size="14" lengthAdjust="spacing" textLength="71.4561" x="2732.2373" y="1284.0498">&#171;Domain&#187;</text><text fill="#000000" font-family="sans-serif" font-size="14" lengthAdjust="spacing" textLength="49.376" x="2745.5024" y="1300.3467">Patient</text><rect fill="#FFFFFF" height="1107.8984" style="stroke:#181818;stroke-width:1.0;" width="10" x="148.71" y="139.1563"/><rect fill="#FFFFFF" height="1031.5" style="stroke:#181818;stroke-width:1.0;" width="10" x="599.6323" y="186.4219"/><rect fill="#FFFFFF" height="495.2578" style="stroke:#181818;stroke-width:1.0;" width="10" x="800.6094" y="693.5313"/><rect fill="#FFFFFF" height="29.1328" style="stroke:#181818;stroke-width:1.0;" width="10" x="997.1494" y="722.6641"/><rect fill="#FFFFFF" height="29.1328" style="stroke:#181818;stroke-width:1.0;" width="10" x="997.1494" y="839.1953"/><rect fill="#FFFFFF" height="29.1328" style="stroke:#181818;stroke-width:1.0;" width="10" x="1203.3057" y="780.9297"/><rect fill="#FFFFFF" height="276.0625" style="stroke:#181818;stroke-width:1.0;" width="10" x="1477.6299" y="388.3359"/><rect fill="#FFFFFF" height="28" style="stroke:#181818;stroke-width:1.0;" width="10" x="1482.6299" y="483.7344"/><rect fill="#FFFFFF" height="29.1328" style="stroke:#181818;stroke-width:1.0;" width="10" x="1725.5522" y="547.8672"/><rect fill="#FFFFFF" height="29.1328" style="stroke:#181818;stroke-width:1.0;" width="10" x="1945.3325" y="417.4688"/><rect fill="#FFFFFF" height="29.1328" style="stroke:#181818;stroke-width:1.0;" width="10" x="1945.3325" y="606.1328"/><rect fill="#FFFFFF" height="87.3984" style="stroke:#181818;stroke-width:1.0;" width="10" x="2176.3955" y="897.4609"/><rect fill="#FFFFFF" height="145.6641" style="stroke:#181818;stroke-width:1.0;" width="10" x="2176.3955" y="1013.9922"/><rect fill="#FFFFFF" height="29.1328" style="stroke:#181818;stroke-width:1.0;" width="10" x="2638.7881" y="926.5938"/><rect fill="#FFFFFF" height="29.1328" style="stroke:#181818;stroke-width:1.0;" width="10" x="2638.7881" y="1101.3906"/><rect fill="#FFFFFF" height="29.1328" style="stroke:#181818;stroke-width:1.0;" width="10" x="2762.9653" y="1043.125"/><ellipse cx="7.5" cy="138.4063" fill="#000000" rx="4" ry="4" style="stroke:#181818;stroke-width:1.5;"/><polygon fill="#181818" points="136.71,135.1563,146.71,139.1563,136.71,143.1563,140.71,139.1563" style="stroke:#181818;stroke-width:1.0;"/><line style="stroke:#181818;stroke-width:1.0;" x1="12" x2="142.71" y1="139.1563" y2="139.1563"/><text fill="#000000" font-family="sans-serif" font-size="13" lengthAdjust="spacing" textLength="121.71" x="15" y="134.0903">POST(patientData)</text><path d="M163,104.8906 L163,159.8906 L348,159.8906 L348,114.8906 L338,104.8906 L163,104.8906 " fill="#FEFFDD" style="stroke:#181818;stroke-width:0.5;"/><path d="M338,104.8906 L338,114.8906 L348,114.8906 L338,104.8906 " fill="#FEFFDD" style="stroke:#181818;stroke-width:0.5;"/><text fill="#000000" font-family="sans-serif" font-size="13" lengthAdjust="spacing" textLength="164.6646" x="169" y="121.9575">All of a patient's info that</text><text fill="#000000" font-family="sans-serif" font-size="13" lengthAdjust="spacing" textLength="134.2593" x="169" y="137.0903">is requested besides</text><text fill="#000000" font-family="sans-serif" font-size="13" lengthAdjust="spacing" textLength="130.5205" x="169" y="152.2231">email and password</text><polygon fill="#181818" points="587.6323,182.4219,597.6323,186.4219,587.6323,190.4219,591.6323,186.4219" style="stroke:#181818;stroke-width:1.0;"/><line style="stroke:#181818;stroke-width:1.0;" x1="158.71" x2="593.6323" y1="186.4219" y2="186.4219"/><text fill="#000000" font-family="sans-serif" font-size="13" lengthAdjust="spacing" textLength="421.9224" x="165.71" y="181.356">activatePatientAccount(credentialsData, tokenData,patientData)</text><polygon fill="#181818" points="1783.7183,211.5547,1793.7183,215.5547,1783.7183,219.5547,1787.7183,215.5547" style="stroke:#181818;stroke-width:1.0;"/><line style="stroke:#181818;stroke-width:1.0;" x1="609.6323" x2="1789.7183" y1="215.5547" y2="215.5547"/><text fill="#000000" font-family="sans-serif" font-size="13" lengthAdjust="spacing" textLength="119.2344" x="616.6323" y="210.4888">toDTO(tokenData)</text><rect fill="#E2E2F0" height="46.5938" rx="2.5" ry="2.5" style="stroke:#181818;stroke-width:0.5;" width="91.5127" x="1795.7183" y="194.4219"/><text fill="#000000" font-family="sans-serif" font-size="14" lengthAdjust="spacing" textLength="47.4824" x="1817.7334" y="214.417">&#171;DTO&#187;</text><text fill="#000000" font-family="sans-serif" font-size="14" lengthAdjust="spacing" textLength="73.0625" x="1807.1685" y="230.7139">TokenDTO</text><polygon fill="#181818" points="2001.4341,269.1484,2011.4341,273.1484,2001.4341,277.1484,2005.4341,273.1484" style="stroke:#181818;stroke-width:1.0;"/><line style="stroke:#181818;stroke-width:1.0;" x1="609.6323" x2="2007.4341" y1="273.1484" y2="273.1484"/><text fill="#000000" font-family="sans-serif" font-size="13" lengthAdjust="spacing" textLength="128.6797" x="616.6323" y="268.0825">toDTO(patientData)</text><rect fill="#E2E2F0" height="46.5938" rx="2.5" ry="2.5" style="stroke:#181818;stroke-width:0.5;" width="98.1777" x="2013.4341" y="252.0156"/><text fill="#000000" font-family="sans-serif" font-size="14" lengthAdjust="spacing" textLength="47.4824" x="2038.7817" y="272.0107">&#171;DTO&#187;</text><text fill="#000000" font-family="sans-serif" font-size="14" lengthAdjust="spacing" textLength="79.7275" x="2024.8843" y="288.3076">PatientDTO</text><polygon fill="#181818" points="1062.8657,326.7422,1072.8657,330.7422,1062.8657,334.7422,1066.8657,330.7422" style="stroke:#181818;stroke-width:1.0;"/><line style="stroke:#181818;stroke-width:1.0;" x1="609.6323" x2="1068.8657" y1="330.7422" y2="330.7422"/><text fill="#000000" font-family="sans-serif" font-size="13" lengthAdjust="spacing" textLength="154.4575" x="616.6323" y="325.6763">toDTO(credentialsData)</text><rect fill="#E2E2F0" height="46.5938" rx="2.5" ry="2.5" style="stroke:#181818;stroke-width:0.5;" width="80.7119" x="1074.8657" y="309.6094"/><text fill="#000000" font-family="sans-serif" font-size="14" lengthAdjust="spacing" textLength="47.4824" x="1091.4805" y="329.6045">&#171;DTO&#187;</text><text fill="#000000" font-family="sans-serif" font-size="14" lengthAdjust="spacing" textLength="62.2617" x="1086.3159" y="345.9014">UserDTO</text><polygon fill="#181818" points="1465.6299,384.3359,1475.6299,388.3359,1465.6299,392.3359,1469.6299,388.3359" style="stroke:#181818;stroke-width:1.0;"/><line style="stroke:#181818;stroke-width:1.0;" x1="609.6323" x2="1471.6299" y1="388.3359" y2="388.3359"/><text fill="#000000" font-family="sans-serif" font-size="13" lengthAdjust="spacing" textLength="167.0005" x="616.6323" y="383.27">validateToken(tokenDTO)</text><polygon fill="#181818" points="1933.3325,413.4688,1943.3325,417.4688,1933.3325,421.4688,1937.3325,417.4688" style="stroke:#181818;stroke-width:1.0;"/><line style="stroke:#181818;stroke-width:1.0;" x1="1487.6299" x2="1939.3325" y1="417.4688" y2="417.4688"/><text fill="#000000" font-family="sans-serif" font-size="13" lengthAdjust="spacing" textLength="139.001" x="1494.6299" y="412.4028">findByID(tokenDtoID)</text><polygon fill="#181818" points="1498.6299,442.6016,1488.6299,446.6016,1498.6299,450.6016,1494.6299,446.6016" style="stroke:#181818;stroke-width:1.0;"/><line style="stroke:#181818;stroke-width:1.0;stroke-dasharray:2.0,2.0;" x1="1492.6299" x2="1949.3325" y1="446.6016" y2="446.6016"/><text fill="#000000" font-family="sans-serif" font-size="13" lengthAdjust="spacing" textLength="36.8164" x="1504.6299" y="441.5356">token</text><line style="stroke:#181818;stroke-width:1.0;" x1="1492.6299" x2="1534.6299" y1="475.7344" y2="475.7344"/><line style="stroke:#181818;stroke-width:1.0;" x1="1534.6299" x2="1534.6299" y1="475.7344" y2="488.7344"/><line style="stroke:#181818;stroke-width:1.0;" x1="1493.6299" x2="1534.6299" y1="488.7344" y2="488.7344"/><polygon fill="#181818" points="1503.6299,484.7344,1493.6299,488.7344,1503.6299,492.7344,1499.6299,488.7344" style="stroke:#181818;stroke-width:1.0;"/><text fill="#000000" font-family="sans-serif" font-size="13" lengthAdjust="spacing" textLength="213.9224" x="1499.6299" y="470.6685">checkTokenValidityUsage(token)</text><polygon fill="#181818" points="1713.5522,543.8672,1723.5522,547.8672,1713.5522,551.8672,1717.5522,547.8672" style="stroke:#181818;stroke-width:1.0;"/><line style="stroke:#181818;stroke-width:1.0;" x1="1487.6299" x2="1719.5522" y1="547.8672" y2="547.8672"/><text fill="#000000" font-family="sans-serif" font-size="13" lengthAdjust="spacing" textLength="104.6855" x="1494.6299" y="542.8013">updateValidity()</text><polygon fill="#181818" points="1498.6299,573,1488.6299,577,1498.6299,581,1494.6299,577" style="stroke:#181818;stroke-width:1.0;"/><line style="stroke:#181818;stroke-width:1.0;stroke-dasharray:2.0,2.0;" x1="1492.6299" x2="1729.5522" y1="577" y2="577"/><text fill="#000000" font-family="sans-serif" font-size="13" lengthAdjust="spacing" textLength="40.2632" x="1504.6299" y="571.9341">return</text><polygon fill="#181818" points="1933.3325,602.1328,1943.3325,606.1328,1933.3325,610.1328,1937.3325,606.1328" style="stroke:#181818;stroke-width:1.0;"/><line style="stroke:#181818;stroke-width:1.0;" x1="1487.6299" x2="1939.3325" y1="606.1328" y2="606.1328"/><text fill="#000000" font-family="sans-serif" font-size="13" lengthAdjust="spacing" textLength="77.3906" x="1494.6299" y="601.0669">save(token)</text><polygon fill="#181818" points="1498.6299,631.2656,1488.6299,635.2656,1498.6299,639.2656,1494.6299,635.2656" style="stroke:#181818;stroke-width:1.0;"/><line style="stroke:#181818;stroke-width:1.0;stroke-dasharray:2.0,2.0;" x1="1492.6299" x2="1949.3325" y1="635.2656" y2="635.2656"/><text fill="#000000" font-family="sans-serif" font-size="13" lengthAdjust="spacing" textLength="40.2632" x="1504.6299" y="630.1997">return</text><polygon fill="#181818" points="620.6323,660.3984,610.6323,664.3984,620.6323,668.3984,616.6323,664.3984" style="stroke:#181818;stroke-width:1.0;"/><line style="stroke:#181818;stroke-width:1.0;stroke-dasharray:2.0,2.0;" x1="614.6323" x2="1481.6299" y1="664.3984" y2="664.3984"/><text fill="#000000" font-family="sans-serif" font-size="13" lengthAdjust="spacing" textLength="26.6792" x="626.6323" y="659.3325">true</text><polygon fill="#181818" points="788.6094,689.5313,798.6094,693.5313,788.6094,697.5313,792.6094,693.5313" style="stroke:#181818;stroke-width:1.0;"/><line style="stroke:#181818;stroke-width:1.0;" x1="609.6323" x2="794.6094" y1="693.5313" y2="693.5313"/><text fill="#000000" font-family="sans-serif" font-size="13" lengthAdjust="spacing" textLength="171.9771" x="616.6323" y="688.4653">activateAccount(userDTO)</text><polygon fill="#181818" points="985.1494,718.6641,995.1494,722.6641,985.1494,726.6641,989.1494,722.6641" style="stroke:#181818;stroke-width:1.0;"/><line style="stroke:#181818;stroke-width:1.0;" x1="810.6094" x2="991.1494" y1="722.6641" y2="722.6641"/><text fill="#000000" font-family="sans-serif" font-size="13" lengthAdjust="spacing" textLength="167.54" x="817.6094" y="717.5981">findById(usernameString)</text><polygon fill="#181818" points="821.6094,747.7969,811.6094,751.7969,821.6094,755.7969,817.6094,751.7969" style="stroke:#181818;stroke-width:1.0;"/><line style="stroke:#181818;stroke-width:1.0;stroke-dasharray:2.0,2.0;" x1="815.6094" x2="1001.1494" y1="751.7969" y2="751.7969"/><text fill="#000000" font-family="sans-serif" font-size="13" lengthAdjust="spacing" textLength="28.355" x="827.6094" y="746.731">user</text><polygon fill="#181818" points="1191.3057,776.9297,1201.3057,780.9297,1191.3057,784.9297,1195.3057,780.9297" style="stroke:#181818;stroke-width:1.0;"/><line style="stroke:#181818;stroke-width:1.0;" x1="810.6094" x2="1197.3057" y1="780.9297" y2="780.9297"/><text fill="#000000" font-family="sans-serif" font-size="13" lengthAdjust="spacing" textLength="161.2876" x="817.6094" y="775.8638">activatePatientAccount()</text><polygon fill="#181818" points="821.6094,806.0625,811.6094,810.0625,821.6094,814.0625,817.6094,810.0625" style="stroke:#181818;stroke-width:1.0;"/><line style="stroke:#181818;stroke-width:1.0;stroke-dasharray:2.0,2.0;" x1="815.6094" x2="1207.3057" y1="810.0625" y2="810.0625"/><text fill="#000000" font-family="sans-serif" font-size="13" lengthAdjust="spacing" textLength="40.2632" x="827.6094" y="804.9966">return</text><polygon fill="#181818" points="985.1494,835.1953,995.1494,839.1953,985.1494,843.1953,989.1494,839.1953" style="stroke:#181818;stroke-width:1.0;"/><line style="stroke:#181818;stroke-width:1.0;" x1="810.6094" x2="991.1494" y1="839.1953" y2="839.1953"/><text fill="#000000" font-family="sans-serif" font-size="13" lengthAdjust="spacing" textLength="68.9292" x="817.6094" y="834.1294">save(user)</text><polygon fill="#181818" points="821.6094,864.3281,811.6094,868.3281,821.6094,872.3281,817.6094,868.3281" style="stroke:#181818;stroke-width:1.0;"/><line style="stroke:#181818;stroke-width:1.0;stroke-dasharray:2.0,2.0;" x1="815.6094" x2="1001.1494" y1="868.3281" y2="868.3281"/><text fill="#000000" font-family="sans-serif" font-size="13" lengthAdjust="spacing" textLength="28.355" x="827.6094" y="863.2622">user</text><polygon fill="#181818" points="2164.3955,893.4609,2174.3955,897.4609,2164.3955,901.4609,2168.3955,897.4609" style="stroke:#181818;stroke-width:1.0;"/><line style="stroke:#181818;stroke-width:1.0;" x1="810.6094" x2="2170.3955" y1="897.4609" y2="897.4609"/><text fill="#000000" font-family="sans-serif" font-size="13" lengthAdjust="spacing" textLength="217.7944" x="817.6094" y="892.395">findByEmailOrPhone(patientDTO)</text><polygon fill="#181818" points="2626.7881,922.5938,2636.7881,926.5938,2626.7881,930.5938,2630.7881,926.5938" style="stroke:#181818;stroke-width:1.0;"/><line style="stroke:#181818;stroke-width:1.0;" x1="2186.3955" x2="2632.7881" y1="926.5938" y2="926.5938"/><text fill="#000000" font-family="sans-serif" font-size="13" lengthAdjust="spacing" textLength="433.3926" x="2193.3955" y="921.5278">findByEmailOrPhone(patientDTO.phoneNumber,patientDTO.email)</text><polygon fill="#181818" points="2197.3955,951.7266,2187.3955,955.7266,2197.3955,959.7266,2193.3955,955.7266" style="stroke:#181818;stroke-width:1.0;"/><line style="stroke:#181818;stroke-width:1.0;stroke-dasharray:2.0,2.0;" x1="2191.3955" x2="2642.7881" y1="955.7266" y2="955.7266"/><text fill="#000000" font-family="sans-serif" font-size="13" lengthAdjust="spacing" textLength="46.2617" x="2203.3955" y="950.6606">patient</text><polygon fill="#181818" points="821.6094,980.8594,811.6094,984.8594,821.6094,988.8594,817.6094,984.8594" style="stroke:#181818;stroke-width:1.0;"/><line style="stroke:#181818;stroke-width:1.0;stroke-dasharray:2.0,2.0;" x1="815.6094" x2="2180.3955" y1="984.8594" y2="984.8594"/><text fill="#000000" font-family="sans-serif" font-size="13" lengthAdjust="spacing" textLength="46.2617" x="827.6094" y="979.7935">patient</text><polygon fill="#181818" points="2164.3955,1009.9922,2174.3955,1013.9922,2164.3955,1017.9922,2168.3955,1013.9922" style="stroke:#181818;stroke-width:1.0;"/><line style="stroke:#181818;stroke-width:1.0;" x1="810.6094" x2="2170.3955" y1="1013.9922" y2="1013.9922"/><text fill="#000000" font-family="sans-serif" font-size="13" lengthAdjust="spacing" textLength="183.9424" x="817.6094" y="1008.9263">associateUser(user, patient)</text><polygon fill="#181818" points="2750.9653,1039.125,2760.9653,1043.125,2750.9653,1047.125,2754.9653,1043.125" style="stroke:#181818;stroke-width:1.0;"/><line style="stroke:#181818;stroke-width:1.0;" x1="2186.3955" x2="2756.9653" y1="1043.125" y2="1043.125"/><text fill="#000000" font-family="sans-serif" font-size="13" lengthAdjust="spacing" textLength="129.416" x="2193.3955" y="1038.0591">associateUser(user)</text><polygon fill="#181818" points="2197.3955,1068.2578,2187.3955,1072.2578,2197.3955,1076.2578,2193.3955,1072.2578" style="stroke:#181818;stroke-width:1.0;"/><line style="stroke:#181818;stroke-width:1.0;stroke-dasharray:2.0,2.0;" x1="2191.3955" x2="2766.9653" y1="1072.2578" y2="1072.2578"/><text fill="#000000" font-family="sans-serif" font-size="13" lengthAdjust="spacing" textLength="40.2632" x="2203.3955" y="1067.1919">return</text><polygon fill="#181818" points="2626.7881,1097.3906,2636.7881,1101.3906,2626.7881,1105.3906,2630.7881,1101.3906" style="stroke:#181818;stroke-width:1.0;"/><line style="stroke:#181818;stroke-width:1.0;" x1="2186.3955" x2="2632.7881" y1="1101.3906" y2="1101.3906"/><text fill="#000000" font-family="sans-serif" font-size="13" lengthAdjust="spacing" textLength="86.8359" x="2193.3955" y="1096.3247">save(patient)</text><polygon fill="#181818" points="2197.3955,1126.5234,2187.3955,1130.5234,2197.3955,1134.5234,2193.3955,1130.5234" style="stroke:#181818;stroke-width:1.0;"/><line style="stroke:#181818;stroke-width:1.0;stroke-dasharray:2.0,2.0;" x1="2191.3955" x2="2642.7881" y1="1130.5234" y2="1130.5234"/><text fill="#000000" font-family="sans-serif" font-size="13" lengthAdjust="spacing" textLength="46.2617" x="2203.3955" y="1125.4575">patient</text><polygon fill="#181818" points="821.6094,1155.6563,811.6094,1159.6563,821.6094,1163.6563,817.6094,1159.6563" style="stroke:#181818;stroke-width:1.0;"/><line style="stroke:#181818;stroke-width:1.0;stroke-dasharray:2.0,2.0;" x1="815.6094" x2="2180.3955" y1="1159.6563" y2="1159.6563"/><text fill="#000000" font-family="sans-serif" font-size="13" lengthAdjust="spacing" textLength="40.2632" x="827.6094" y="1154.5903">return</text><polygon fill="#181818" points="620.6323,1184.7891,610.6323,1188.7891,620.6323,1192.7891,616.6323,1188.7891" style="stroke:#181818;stroke-width:1.0;"/><line style="stroke:#181818;stroke-width:1.0;stroke-dasharray:2.0,2.0;" x1="614.6323" x2="804.6094" y1="1188.7891" y2="1188.7891"/><text fill="#000000" font-family="sans-serif" font-size="13" lengthAdjust="spacing" textLength="40.2632" x="626.6323" y="1183.7231">return</text><polygon fill="#181818" points="169.71,1213.9219,159.71,1217.9219,169.71,1221.9219,165.71,1217.9219" style="stroke:#181818;stroke-width:1.0;"/><line style="stroke:#181818;stroke-width:1.0;stroke-dasharray:2.0,2.0;" x1="163.71" x2="603.6323" y1="1217.9219" y2="1217.9219"/><text fill="#000000" font-family="sans-serif" font-size="13" lengthAdjust="spacing" textLength="69.3291" x="175.71" y="1212.856">ok(sucess)</text><polygon fill="#181818" points="11,1243.0547,1,1247.0547,11,1251.0547,7,1247.0547" style="stroke:#181818;stroke-width:1.0;"/><line style="stroke:#181818;stroke-width:1.0;stroke-dasharray:2.0,2.0;" x1="5" x2="152.71" y1="1247.0547" y2="1247.0547"/><text fill="#000000" font-family="sans-serif" font-size="13" lengthAdjust="spacing" textLength="87.2168" x="17" y="1241.9888">success/error</text><!--SRC=[hLPDJ-Cm4BtdLrYzR8jeLokqbnL2oj98MoqqLPjo0GucCTGYjRksKvP_lxPZEtO-2eUz1VUzcJTlPcm45YK2e-q6V9zzcrtCm8hH774ExZ1w0-CRT4Gbk9Y0-sKAahy2CG9Bi8Xl7qTHT81Cu1mV815WT7cvffL0LrSF1AoWm8W8VJ02a8DrkisIDlwQ4i5eMIBcavfJpRnEbzawlUaaso1sn7cTRiiHkuK4lXXElCr-gTyx0j61SYmeUtUqviWnrL6RESzIHv7V6ck-Er2wXvWuT0tT9EjJ1IIIKfe3JKXkuyLDNma-AwElYDHrxwLnFZzBVoVBFdvEzmTA9Bg9q126gjOmMxP6zjJTCbTpr5b3EcMiQRvDqlnvoW23yWjVnTadEc_dCso-vFPAR1fgU1QzI9PP5DtJwLKzuE07MAMRR7mmwg60auXGWG33BpiXVuxB4j1d0861VE40asSAn0wA1u8vOEXFXRX01NX271U8WmU2r7G0I0h9uloDiYAAubpW8vIHwysgqqiTPbraAcWGHdESvxGYOfmpLCW_CIovqdSEX6wk-WnaMtgpW3Qqp69d09oToKo2oi-nYpFnaKqZFMYGo4URbVB3jlHEkZfKloNy24jSIC5wy8oQBFKAQNOYQdWsY6gy3FACIV7pVJ4tV44NytO4FI9HGvgsT6XcLA11Lf3NaF8Tob-ryZjL1XRlMoxNkfRHMqCxWJxinfUnguEonSOTJvhPgPU-nhNBO4XKZ4JpLfeJtd5uT8BZRl73ZWsawbWMZBTW5UetmHyG-n9u-s0NeQfdpJFNFHkHevaGuNGKcalW7cq4m-Ib5KBhTgnfg48nVTcE4EHKxyNm2dlvzCEYqQqynbClauOELQPxfxHvhVjSBVEFQZ4tihDFltKfM-taC-HkWg0FzWwtp3f8q8E18BE3EbXM-oV4phrZVODwfTcRFh9nfu5Gm_HhimodARJ2CWhKgQBV2tcHqnnBdBhojFFdDiY7JgXdfpT4oDIlauM71NQdmyDtFTVJuTJ5FPxy5nDxLRKy3Ew0Bi6jiBi3lBUPlevvfVwtdVYYxFjsEPqwf8Gft5V460r6N0F-0G00]--></g></svg>