<svg xmlns="http://www.w3.org/2000/svg" xmlns:xlink="http://www.w3.org/1999/xlink" contentStyleType="text/css" height="908px" preserveAspectRatio="none" style="width:1766px;height:908px;background:#FFFFFF;" version="1.1" viewBox="0 0 1766 908" width="1766px" zoomAndPan="magnify"><title>US 5.1.3. Process View (Level 3) - Confirming Email and Activating Staff Account</title><defs/><g><text fill="#000000" font-family="sans-serif" font-size="14" font-weight="bold" lengthAdjust="spacing" textLength="637.0273" x="563.6787" y="27.9951">US 5.1.3. Process View (Level 3) - Confirming Email and Activating Staff Account</text><rect fill="#FFFFFF" height="715.8164" style="stroke:#181818;stroke-width:1.0;" width="10" x="244.6294" y="131.5898"/><rect fill="#FFFFFF" height="637.9844" style="stroke:#181818;stroke-width:1.0;" width="10" x="591.8184" y="171.2891"/><rect fill="#FFFFFF" height="522.125" style="stroke:#181818;stroke-width:1.0;" width="10" x="939.0073" y="258.0156"/><rect fill="#FFFFFF" height="238.0625" style="stroke:#181818;stroke-width:1.0;" width="10" x="944.0073" y="295.1484"/><rect fill="#FFFFFF" height="63.2656" style="stroke:#181818;stroke-width:1.0;" width="10" x="944.0073" y="687.7422"/><rect fill="#FFFFFF" height="145.6641" style="stroke:#181818;stroke-width:1.0;" width="10" x="1235.1021" y="387.5469"/><rect fill="#FFFFFF" height="29.1328" style="stroke:#181818;stroke-width:1.0;" width="10" x="1485.0322" y="329.2813"/><rect fill="#FFFFFF" height="29.1328" style="stroke:#181818;stroke-width:1.0;" width="10" x="1485.0322" y="416.6797"/><rect fill="#FFFFFF" height="29.1328" style="stroke:#181818;stroke-width:1.0;" width="10" x="1485.0322" y="474.9453"/><rect fill="#FFFFFF" height="29.1328" style="stroke:#181818;stroke-width:1.0;" width="10" x="1485.0322" y="562.3438"/><rect fill="#FFFFFF" height="29.1328" style="stroke:#181818;stroke-width:1.0;" width="10" x="1485.0322" y="721.875"/><rect fill="#FFFFFF" height="30" style="stroke:#181818;stroke-width:1.0;" width="10" x="1593.6235" y="620.6094"/><line style="stroke:#181818;stroke-width:0.5;stroke-dasharray:5.0,5.0;" x1="248.8149" x2="248.8149" y1="89.8906" y2="856.4063"/><line style="stroke:#181818;stroke-width:0.5;stroke-dasharray:5.0,5.0;" x1="596.0518" x2="596.0518" y1="89.8906" y2="856.4063"/><line style="stroke:#181818;stroke-width:0.5;stroke-dasharray:5.0,5.0;" x1="750.585" x2="750.585" y1="218.0859" y2="856.4063"/><line style="stroke:#181818;stroke-width:0.5;stroke-dasharray:5.0,5.0;" x1="943.9565" x2="943.9565" y1="89.8906" y2="856.4063"/><line style="stroke:#181818;stroke-width:0.5;stroke-dasharray:5.0,5.0;" x1="1239.5391" x2="1239.5391" y1="89.8906" y2="856.4063"/><line style="stroke:#181818;stroke-width:0.5;stroke-dasharray:5.0,5.0;" x1="1489.1689" x2="1489.1689" y1="89.8906" y2="856.4063"/><line style="stroke:#181818;stroke-width:0.5;stroke-dasharray:5.0,5.0;" x1="1597.8955" x2="1597.8955" y1="89.8906" y2="856.4063"/><line style="stroke:#181818;stroke-width:0.5;stroke-dasharray:5.0,5.0;" x1="1705.3516" x2="1705.3516" y1="89.8906" y2="856.4063"/><rect fill="#E2E2F0" height="46.5938" rx="2.5" ry="2.5" style="stroke:#181818;stroke-width:0.5;" width="91.6289" x="203.8149" y="42.2969"/><text fill="#000000" font-family="sans-serif" font-size="14" lengthAdjust="spacing" textLength="58.3994" x="220.4297" y="62.292">&#171;Route&#187;</text><text fill="#000000" font-family="sans-serif" font-size="14" lengthAdjust="spacing" textLength="73.1787" x="215.2651" y="78.5889">UserRoute</text><rect fill="#E2E2F0" height="46.5938" rx="2.5" ry="2.5" style="stroke:#181818;stroke-width:0.5;" width="91.6289" x="203.8149" y="855.4063"/><text fill="#000000" font-family="sans-serif" font-size="14" lengthAdjust="spacing" textLength="58.3994" x="220.4297" y="875.4014">&#171;Route&#187;</text><text fill="#000000" font-family="sans-serif" font-size="14" lengthAdjust="spacing" textLength="73.1787" x="215.2651" y="891.6982">UserRoute</text><rect fill="#E2E2F0" height="46.5938" rx="2.5" ry="2.5" style="stroke:#181818;stroke-width:0.5;" width="119.5332" x="537.0518" y="42.2969"/><text fill="#000000" font-family="sans-serif" font-size="14" lengthAdjust="spacing" textLength="86.3037" x="553.6665" y="62.292">&#171;Controller&#187;</text><text fill="#000000" font-family="sans-serif" font-size="14" lengthAdjust="spacing" textLength="101.083" x="548.502" y="78.5889">UserController</text><rect fill="#E2E2F0" height="46.5938" rx="2.5" ry="2.5" style="stroke:#181818;stroke-width:0.5;" width="119.5332" x="537.0518" y="855.4063"/><text fill="#000000" font-family="sans-serif" font-size="14" lengthAdjust="spacing" textLength="86.3037" x="553.6665" y="875.4014">&#171;Controller&#187;</text><text fill="#000000" font-family="sans-serif" font-size="14" lengthAdjust="spacing" textLength="101.083" x="548.502" y="891.6982">UserController</text><rect fill="#E2E2F0" height="46.5938" rx="2.5" ry="2.5" style="stroke:#181818;stroke-width:0.5;" width="169.4629" x="666.585" y="855.4063"/><text fill="#000000" font-family="sans-serif" font-size="14" lengthAdjust="spacing" textLength="47.4824" x="727.5752" y="875.4014">&#171;DTO&#187;</text><text fill="#000000" font-family="sans-serif" font-size="14" lengthAdjust="spacing" textLength="151.0127" x="678.0352" y="891.6982">ConfirmEmailUserDto</text><rect fill="#E2E2F0" height="46.5938" rx="2.5" ry="2.5" style="stroke:#181818;stroke-width:0.5;" width="102.1016" x="892.9565" y="42.2969"/><text fill="#000000" font-family="sans-serif" font-size="14" lengthAdjust="spacing" textLength="68.8721" x="909.5713" y="62.292">&#171;Service&#187;</text><text fill="#000000" font-family="sans-serif" font-size="14" lengthAdjust="spacing" textLength="83.6514" x="904.4067" y="78.5889">UserService</text><rect fill="#E2E2F0" height="46.5938" rx="2.5" ry="2.5" style="stroke:#181818;stroke-width:0.5;" width="102.1016" x="892.9565" y="855.4063"/><text fill="#000000" font-family="sans-serif" font-size="14" lengthAdjust="spacing" textLength="68.8721" x="909.5713" y="875.4014">&#171;Service&#187;</text><text fill="#000000" font-family="sans-serif" font-size="14" lengthAdjust="spacing" textLength="83.6514" x="904.4067" y="891.6982">UserService</text><rect fill="#E2E2F0" height="46.5938" rx="2.5" ry="2.5" style="stroke:#181818;stroke-width:0.5;" width="205.126" x="1137.5391" y="42.2969"/><text fill="#000000" font-family="sans-serif" font-size="14" lengthAdjust="spacing" textLength="68.8721" x="1205.666" y="62.292">&#171;Service&#187;</text><text fill="#000000" font-family="sans-serif" font-size="14" lengthAdjust="spacing" textLength="186.6758" x="1148.9893" y="78.5889">TokenManagementService</text><rect fill="#E2E2F0" height="46.5938" rx="2.5" ry="2.5" style="stroke:#181818;stroke-width:0.5;" width="205.126" x="1137.5391" y="855.4063"/><text fill="#000000" font-family="sans-serif" font-size="14" lengthAdjust="spacing" textLength="68.8721" x="1205.666" y="875.4014">&#171;Service&#187;</text><text fill="#000000" font-family="sans-serif" font-size="14" lengthAdjust="spacing" textLength="186.6758" x="1148.9893" y="891.6982">TokenManagementService</text><rect fill="#E2E2F0" height="46.5938" rx="2.5" ry="2.5" style="stroke:#181818;stroke-width:0.5;" width="111.7266" x="1434.1689" y="42.2969"/><text fill="#000000" font-family="sans-serif" font-size="14" lengthAdjust="spacing" textLength="58.3105" x="1460.877" y="62.292">&#171;Utility&#187;</text><text fill="#000000" font-family="sans-serif" font-size="14" lengthAdjust="spacing" textLength="93.2764" x="1445.6191" y="78.5889">UserManager</text><rect fill="#E2E2F0" height="46.5938" rx="2.5" ry="2.5" style="stroke:#181818;stroke-width:0.5;" width="111.7266" x="1434.1689" y="855.4063"/><text fill="#000000" font-family="sans-serif" font-size="14" lengthAdjust="spacing" textLength="58.3105" x="1460.877" y="875.4014">&#171;Utility&#187;</text><text fill="#000000" font-family="sans-serif" font-size="14" lengthAdjust="spacing" textLength="93.2764" x="1445.6191" y="891.6982">UserManager</text><rect fill="#E2E2F0" height="46.5938" rx="2.5" ry="2.5" style="stroke:#181818;stroke-width:0.5;" width="85.4561" x="1555.8955" y="42.2969"/><text fill="#000000" font-family="sans-serif" font-size="14" lengthAdjust="spacing" textLength="71.4561" x="1562.8955" y="62.292">&#171;Domain&#187;</text><text fill="#000000" font-family="sans-serif" font-size="14" lengthAdjust="spacing" textLength="31.9102" x="1584.8936" y="78.5889">User</text><rect fill="#E2E2F0" height="46.5938" rx="2.5" ry="2.5" style="stroke:#181818;stroke-width:0.5;" width="85.4561" x="1555.8955" y="855.4063"/><text fill="#000000" font-family="sans-serif" font-size="14" lengthAdjust="spacing" textLength="71.4561" x="1562.8955" y="875.4014">&#171;Domain&#187;</text><text fill="#000000" font-family="sans-serif" font-size="14" lengthAdjust="spacing" textLength="31.9102" x="1584.8936" y="891.6982">User</text><rect fill="#E2E2F0" height="46.5938" rx="2.5" ry="2.5" style="stroke:#181818;stroke-width:0.5;" width="109.0332" x="1651.3516" y="42.2969"/><text fill="#000000" font-family="sans-serif" font-size="14" lengthAdjust="spacing" textLength="68.8721" x="1671.4321" y="62.292">&#171;Service&#187;</text><text fill="#000000" font-family="sans-serif" font-size="14" lengthAdjust="spacing" textLength="90.583" x="1662.8018" y="78.5889">EmailService</text><rect fill="#E2E2F0" height="46.5938" rx="2.5" ry="2.5" style="stroke:#181818;stroke-width:0.5;" width="109.0332" x="1651.3516" y="855.4063"/><text fill="#000000" font-family="sans-serif" font-size="14" lengthAdjust="spacing" textLength="68.8721" x="1671.4321" y="875.4014">&#171;Service&#187;</text><text fill="#000000" font-family="sans-serif" font-size="14" lengthAdjust="spacing" textLength="90.583" x="1662.8018" y="891.6982">EmailService</text><rect fill="#FFFFFF" height="715.8164" style="stroke:#181818;stroke-width:1.0;" width="10" x="244.6294" y="131.5898"/><rect fill="#FFFFFF" height="637.9844" style="stroke:#181818;stroke-width:1.0;" width="10" x="591.8184" y="171.2891"/><rect fill="#FFFFFF" height="522.125" style="stroke:#181818;stroke-width:1.0;" width="10" x="939.0073" y="258.0156"/><rect fill="#FFFFFF" height="238.0625" style="stroke:#181818;stroke-width:1.0;" width="10" x="944.0073" y="295.1484"/><rect fill="#FFFFFF" height="63.2656" style="stroke:#181818;stroke-width:1.0;" width="10" x="944.0073" y="687.7422"/><rect fill="#FFFFFF" height="145.6641" style="stroke:#181818;stroke-width:1.0;" width="10" x="1235.1021" y="387.5469"/><rect fill="#FFFFFF" height="29.1328" style="stroke:#181818;stroke-width:1.0;" width="10" x="1485.0322" y="329.2813"/><rect fill="#FFFFFF" height="29.1328" style="stroke:#181818;stroke-width:1.0;" width="10" x="1485.0322" y="416.6797"/><rect fill="#FFFFFF" height="29.1328" style="stroke:#181818;stroke-width:1.0;" width="10" x="1485.0322" y="474.9453"/><rect fill="#FFFFFF" height="29.1328" style="stroke:#181818;stroke-width:1.0;" width="10" x="1485.0322" y="562.3438"/><rect fill="#FFFFFF" height="29.1328" style="stroke:#181818;stroke-width:1.0;" width="10" x="1485.0322" y="721.875"/><rect fill="#FFFFFF" height="30" style="stroke:#181818;stroke-width:1.0;" width="10" x="1593.6235" y="620.6094"/><ellipse cx="7.5" cy="130.8398" fill="#000000" rx="4" ry="4" style="stroke:#181818;stroke-width:1.5;"/><polygon fill="#181818" points="232.6294,127.5898,242.6294,131.5898,232.6294,135.5898,236.6294,131.5898" style="stroke:#181818;stroke-width:1.0;"/><line style="stroke:#181818;stroke-width:1.0;" x1="12" x2="238.6294" y1="131.5898" y2="131.5898"/><text fill="#000000" font-family="sans-serif" font-size="13" lengthAdjust="spacing" textLength="217.6294" x="15" y="126.5239">PUT(userId, token, newPassword)</text><path d="M259,104.8906 L259,144.8906 L410,144.8906 L410,114.8906 L400,104.8906 L259,104.8906 " fill="#FEFFDD" style="stroke:#181818;stroke-width:0.5;"/><path d="M400,104.8906 L400,114.8906 L410,114.8906 L400,104.8906 " fill="#FEFFDD" style="stroke:#181818;stroke-width:0.5;"/><text fill="#000000" font-family="sans-serif" font-size="13" lengthAdjust="spacing" textLength="130.9839" x="265" y="121.9575">After clicking on the</text><text fill="#000000" font-family="sans-serif" font-size="13" lengthAdjust="spacing" textLength="84.8174" x="265" y="137.0903">one time link</text><polygon fill="#181818" points="579.8184,167.2891,589.8184,171.2891,579.8184,175.2891,583.8184,171.2891" style="stroke:#181818;stroke-width:1.0;"/><line style="stroke:#181818;stroke-width:1.0;" x1="254.6294" x2="585.8184" y1="171.2891" y2="171.2891"/><text fill="#000000" font-family="sans-serif" font-size="13" lengthAdjust="spacing" textLength="318.189" x="261.6294" y="166.2231">confirmPatientStaff(userId, token, newPassword)</text><polygon fill="#181818" points="654.585,181.2891,664.585,185.2891,654.585,189.2891,658.585,185.2891" style="stroke:#181818;stroke-width:1.0;"/><line style="stroke:#181818;stroke-width:1.0;" x1="601.8184" x2="660.585" y1="185.2891" y2="185.2891"/><rect fill="#E2E2F0" height="46.5938" rx="2.5" ry="2.5" style="stroke:#181818;stroke-width:0.5;" width="169.4629" x="666.585" y="179.2891"/><text fill="#000000" font-family="sans-serif" font-size="14" lengthAdjust="spacing" textLength="47.4824" x="727.5752" y="199.2842">&#171;DTO&#187;</text><text fill="#000000" font-family="sans-serif" font-size="14" lengthAdjust="spacing" textLength="151.0127" x="678.0352" y="215.5811">ConfirmEmailUserDto</text><polygon fill="#181818" points="927.0073,254.0156,937.0073,258.0156,927.0073,262.0156,931.0073,258.0156" style="stroke:#181818;stroke-width:1.0;"/><line style="stroke:#181818;stroke-width:1.0;" x1="601.8184" x2="933.0073" y1="258.0156" y2="258.0156"/><text fill="#000000" font-family="sans-serif" font-size="13" lengthAdjust="spacing" textLength="318.189" x="608.8184" y="252.9497">confirmPatientStaff(userId, token, newPassword)</text><line style="stroke:#181818;stroke-width:1.0;" x1="949.0073" x2="996.0073" y1="282.1484" y2="282.1484"/><line style="stroke:#181818;stroke-width:1.0;" x1="996.0073" x2="996.0073" y1="282.1484" y2="295.1484"/><line style="stroke:#181818;stroke-width:1.0;" x1="955.0073" x2="996.0073" y1="295.1484" y2="295.1484"/><polygon fill="#181818" points="965.0073,291.1484,955.0073,295.1484,965.0073,299.1484,961.0073,295.1484" style="stroke:#181818;stroke-width:1.0;"/><text fill="#000000" font-family="sans-serif" font-size="13" lengthAdjust="spacing" textLength="262.0947" x="961.0073" y="277.0825">confirmEmailVerifications(userId, token)</text><polygon fill="#181818" points="1473.0322,325.2813,1483.0322,329.2813,1473.0322,333.2813,1477.0322,329.2813" style="stroke:#181818;stroke-width:1.0;"/><line style="stroke:#181818;stroke-width:1.0;" x1="954.0073" x2="1479.0322" y1="329.2813" y2="329.2813"/><text fill="#000000" font-family="sans-serif" font-size="13" lengthAdjust="spacing" textLength="145.6089" x="961.0073" y="324.2153">FindByIdAsync(userId)</text><polygon fill="#181818" points="965.0073,354.4141,955.0073,358.4141,965.0073,362.4141,961.0073,358.4141" style="stroke:#181818;stroke-width:1.0;"/><line style="stroke:#181818;stroke-width:1.0;stroke-dasharray:2.0,2.0;" x1="959.0073" x2="1489.0322" y1="358.4141" y2="358.4141"/><text fill="#000000" font-family="sans-serif" font-size="13" lengthAdjust="spacing" textLength="28.355" x="971.0073" y="353.3481">user</text><polygon fill="#181818" points="1223.1021,383.5469,1233.1021,387.5469,1223.1021,391.5469,1227.1021,387.5469" style="stroke:#181818;stroke-width:1.0;"/><line style="stroke:#181818;stroke-width:1.0;" x1="954.0073" x2="1229.1021" y1="387.5469" y2="387.5469"/><text fill="#000000" font-family="sans-serif" font-size="13" lengthAdjust="spacing" textLength="220.9302" x="961.0073" y="382.481">confirmEmailToken(userId, token)</text><polygon fill="#181818" points="1473.0322,412.6797,1483.0322,416.6797,1473.0322,420.6797,1477.0322,416.6797" style="stroke:#181818;stroke-width:1.0;"/><line style="stroke:#181818;stroke-width:1.0;" x1="1245.1021" x2="1479.0322" y1="416.6797" y2="416.6797"/><text fill="#000000" font-family="sans-serif" font-size="13" lengthAdjust="spacing" textLength="145.6089" x="1252.1021" y="411.6138">FindByIdAsync(userId)</text><polygon fill="#181818" points="1256.1021,441.8125,1246.1021,445.8125,1256.1021,449.8125,1252.1021,445.8125" style="stroke:#181818;stroke-width:1.0;"/><line style="stroke:#181818;stroke-width:1.0;stroke-dasharray:2.0,2.0;" x1="1250.1021" x2="1489.0322" y1="445.8125" y2="445.8125"/><text fill="#000000" font-family="sans-serif" font-size="13" lengthAdjust="spacing" textLength="28.355" x="1262.1021" y="440.7466">user</text><polygon fill="#181818" points="1473.0322,470.9453,1483.0322,474.9453,1473.0322,478.9453,1477.0322,474.9453" style="stroke:#181818;stroke-width:1.0;"/><line style="stroke:#181818;stroke-width:1.0;" x1="1245.1021" x2="1479.0322" y1="474.9453" y2="474.9453"/><text fill="#000000" font-family="sans-serif" font-size="13" lengthAdjust="spacing" textLength="220.9302" x="1252.1021" y="469.8794">confirmEmailToken(userId, token)</text><polygon fill="#181818" points="1256.1021,500.0781,1246.1021,504.0781,1256.1021,508.0781,1252.1021,504.0781" style="stroke:#181818;stroke-width:1.0;"/><line style="stroke:#181818;stroke-width:1.0;stroke-dasharray:2.0,2.0;" x1="1250.1021" x2="1489.0322" y1="504.0781" y2="504.0781"/><text fill="#000000" font-family="sans-serif" font-size="13" lengthAdjust="spacing" textLength="26.6792" x="1262.1021" y="499.0122">true</text><polygon fill="#181818" points="960.0073,529.2109,950.0073,533.2109,960.0073,537.2109,956.0073,533.2109" style="stroke:#181818;stroke-width:1.0;"/><line style="stroke:#181818;stroke-width:1.0;stroke-dasharray:2.0,2.0;" x1="954.0073" x2="1239.1021" y1="533.2109" y2="533.2109"/><text fill="#000000" font-family="sans-serif" font-size="13" lengthAdjust="spacing" textLength="26.6792" x="966.0073" y="528.145">true</text><polygon fill="#181818" points="1473.0322,558.3438,1483.0322,562.3438,1473.0322,566.3438,1477.0322,562.3438" style="stroke:#181818;stroke-width:1.0;"/><line style="stroke:#181818;stroke-width:1.0;" x1="949.0073" x2="1479.0322" y1="562.3438" y2="562.3438"/><text fill="#000000" font-family="sans-serif" font-size="13" lengthAdjust="spacing" textLength="145.6089" x="956.0073" y="557.2778">FindByIdAsync(userId)</text><polygon fill="#181818" points="960.0073,587.4766,950.0073,591.4766,960.0073,595.4766,956.0073,591.4766" style="stroke:#181818;stroke-width:1.0;"/><line style="stroke:#181818;stroke-width:1.0;stroke-dasharray:2.0,2.0;" x1="954.0073" x2="1489.0322" y1="591.4766" y2="591.4766"/><text fill="#000000" font-family="sans-serif" font-size="13" lengthAdjust="spacing" textLength="28.355" x="966.0073" y="586.4106">user</text><polygon fill="#181818" points="1581.6235,616.6094,1591.6235,620.6094,1581.6235,624.6094,1585.6235,620.6094" style="stroke:#181818;stroke-width:1.0;"/><line style="stroke:#181818;stroke-width:1.0;" x1="949.0073" x2="1587.6235" y1="620.6094" y2="620.6094"/><text fill="#000000" font-family="sans-serif" font-size="13" lengthAdjust="spacing" textLength="128.0195" x="956.0073" y="615.5435">ChangeStatus(true)</text><line style="stroke:#181818;stroke-width:1.0;" x1="949.0073" x2="996.0073" y1="674.7422" y2="674.7422"/><line style="stroke:#181818;stroke-width:1.0;" x1="996.0073" x2="996.0073" y1="674.7422" y2="687.7422"/><line style="stroke:#181818;stroke-width:1.0;" x1="955.0073" x2="996.0073" y1="687.7422" y2="687.7422"/><polygon fill="#181818" points="965.0073,683.7422,955.0073,687.7422,965.0073,691.7422,961.0073,687.7422" style="stroke:#181818;stroke-width:1.0;"/><text fill="#000000" font-family="sans-serif" font-size="13" lengthAdjust="spacing" textLength="124.3252" x="961.0073" y="669.6763">UpdateAsync(user)</text><polygon fill="#181818" points="1473.0322,717.875,1483.0322,721.875,1473.0322,725.875,1477.0322,721.875" style="stroke:#181818;stroke-width:1.0;"/><line style="stroke:#181818;stroke-width:1.0;" x1="954.0073" x2="1479.0322" y1="721.875" y2="721.875"/><text fill="#000000" font-family="sans-serif" font-size="13" lengthAdjust="spacing" textLength="124.3252" x="961.0073" y="716.8091">UpdateAsync(user)</text><polygon fill="#181818" points="960.0073,747.0078,950.0073,751.0078,960.0073,755.0078,956.0073,751.0078" style="stroke:#181818;stroke-width:1.0;"/><line style="stroke:#181818;stroke-width:1.0;stroke-dasharray:2.0,2.0;" x1="954.0073" x2="1489.0322" y1="751.0078" y2="751.0078"/><text fill="#000000" font-family="sans-serif" font-size="13" lengthAdjust="spacing" textLength="26.6792" x="966.0073" y="745.9419">true</text><polygon fill="#181818" points="612.8184,776.1406,602.8184,780.1406,612.8184,784.1406,608.8184,780.1406" style="stroke:#181818;stroke-width:1.0;"/><line style="stroke:#181818;stroke-width:1.0;stroke-dasharray:2.0,2.0;" x1="606.8184" x2="943.0073" y1="780.1406" y2="780.1406"/><text fill="#000000" font-family="sans-serif" font-size="13" lengthAdjust="spacing" textLength="26.6792" x="618.8184" y="775.0747">true</text><polygon fill="#181818" points="265.6294,805.2734,255.6294,809.2734,265.6294,813.2734,261.6294,809.2734" style="stroke:#181818;stroke-width:1.0;"/><line style="stroke:#181818;stroke-width:1.0;stroke-dasharray:2.0,2.0;" x1="259.6294" x2="595.8184" y1="809.2734" y2="809.2734"/><text fill="#000000" font-family="sans-serif" font-size="13" lengthAdjust="spacing" textLength="40.2632" x="271.6294" y="804.2075">return</text><polygon fill="#181818" points="11,834.4063,1,838.4063,11,842.4063,7,838.4063" style="stroke:#181818;stroke-width:1.0;"/><line style="stroke:#181818;stroke-width:1.0;stroke-dasharray:2.0,2.0;" x1="5" x2="243.6294" y1="838.4063" y2="838.4063"/><text fill="#000000" font-family="sans-serif" font-size="13" lengthAdjust="spacing" textLength="87.2168" x="17" y="833.3403">success/error</text><!--SRC=[jLLBR-8m4BxdLumuqQfGhQgzh10IIwaMBMqG9BtiNYndGYs2ZPm9Y7-_ZXES1wzArTvYQxx7p7noI522q0cNyBt_hV_KXxbM7DCKtWNkeJl37IRmT0Sz62iP2xqHSWMJ3HC9C1d1Y9FOCSelbyJYs5nmbKdgUDwMQH9SR9aaw0m62vKH3eT_9OGfQdlg04jXuOV1f5rij4Yh947j4DMLXOtzjs3XpqvadWFVGagtrcaEVoPbSVOxy4zmIzGxmIk3vTbYHc7mApzV1GLgZVALIRR23KggumF_z-JD4hJm8Ob4qC695l2YmN0vMPZpQOFAj2GTnDLUDMV7KBSqUHrDPqLFtX_L6nPhW1ym3uDkPdYdqGDGtj83IDpFMPhkbOxkFAa88S6Ol55Cg84dWg_pzIi9z86UaWWaDgP6oBM79Y8vmcD5Jh1SjrV86TroZqQP5nkRcpJbyylJTDM9etHHE78PsdBDz_VGk3vkyYjoLHeSsrbcE_Dtr28Mt8WecJRvpr7M6Si06C8N8QEVXsaqIW-IboGrz34fHq2lQIUlzo8yAQzhkOIsxDjGNxHTvRh2VzLutSabvnVKFc_ybZ3f36y8DsVS1bIJgLsU3yx_NlE9cAaTVp2vGfDvoj9kxhqbq-Qv6FLm6vcQol3dCtq5UQFHIykvCUd6MzFcg03kiQYzYHefqmq1z-GCUZrNbcOy_tC-ejPA_mC0]--></g></svg>