<svg xmlns="http://www.w3.org/2000/svg" xmlns:xlink="http://www.w3.org/1999/xlink" contentStyleType="text/css" height="2107px" preserveAspectRatio="none" style="width:2897px;height:2107px;background:#FFFFFF;" version="1.1" viewBox="0 0 2897 2107" width="2897px" zoomAndPan="magnify"><title>US 5.1.3. Process View (Level 3) - Create Patient User and Associating</title><defs/><g><text fill="#000000" font-family="sans-serif" font-size="14" font-weight="bold" lengthAdjust="spacing" textLength="556.0762" x="1177.8955" y="27.9951">US 5.1.3. Process View (Level 3) - Create Patient User and Associating</text><rect fill="#FFFFFF" height="1916.6094" style="stroke:#181818;stroke-width:1.0;" width="10" x="130.8032" y="121.0234"/><rect fill="#FFFFFF" height="1858.3438" style="stroke:#181818;stroke-width:1.0;" width="10" x="441.123" y="150.1563"/><rect fill="#FFFFFF" height="391.1875" style="stroke:#181818;stroke-width:1.0;" width="10" x="775.4116" y="236.8828"/><rect fill="#FFFFFF" height="272.5234" style="stroke:#181818;stroke-width:1.0;" width="10" x="780.4116" y="319.4141"/><rect fill="#FFFFFF" height="936.5703" style="stroke:#181818;stroke-width:1.0;" width="10" x="775.4116" y="1110.0625"/><rect fill="#FFFFFF" height="40.1328" style="stroke:#181818;stroke-width:1.0;" width="10" x="780.4116" y="1205.4609"/><rect fill="#FFFFFF" height="644.2422" style="stroke:#181818;stroke-width:1.0;" width="10" x="780.4116" y="1289.7266"/><rect fill="#FFFFFF" height="29.1328" style="stroke:#181818;stroke-width:1.0;" width="10" x="1105.5361" y="353.5469"/><rect fill="#FFFFFF" height="29.1328" style="stroke:#181818;stroke-width:1.0;" width="10" x="1322.1616" y="469.4063"/><rect fill="#FFFFFF" height="29.1328" style="stroke:#181818;stroke-width:1.0;" width="10" x="1322.1616" y="527.6719"/><rect fill="#FFFFFF" height="29.1328" style="stroke:#181818;stroke-width:1.0;" width="10" x="1322.1616" y="1139.1953"/><rect fill="#FFFFFF" height="307.1953" style="stroke:#181818;stroke-width:1.0;" width="10" x="1447.8086" y="657.2031"/><rect fill="#FFFFFF" height="28" style="stroke:#181818;stroke-width:1.0;" width="10" x="1452.8086" y="900.2656"/><rect fill="#FFFFFF" height="87.3984" style="stroke:#181818;stroke-width:1.0;" width="10" x="1447.8086" y="993.5313"/><rect fill="#FFFFFF" height="29.1328" style="stroke:#181818;stroke-width:1.0;" width="10" x="1958.5322" y="716.6016"/><rect fill="#FFFFFF" height="29.1328" style="stroke:#181818;stroke-width:1.0;" width="10" x="1958.5322" y="774.8672"/><rect fill="#FFFFFF" height="29.1328" style="stroke:#181818;stroke-width:1.0;" width="10" x="1958.5322" y="1022.6641"/><rect fill="#FFFFFF" height="30" style="stroke:#181818;stroke-width:1.0;" width="10" x="2082.7095" y="833.1328"/><rect fill="#FFFFFF" height="538.8438" style="stroke:#181818;stroke-width:1.0;" width="10" x="2189.9541" y="1323.8594"/><rect fill="#FFFFFF" height="30" style="stroke:#181818;stroke-width:1.0;" width="10" x="2610.7383" y="1525.7734"/><rect fill="#FFFFFF" height="30" style="stroke:#181818;stroke-width:1.0;" width="10" x="2610.7383" y="1584.9063"/><rect fill="#FFFFFF" height="30" style="stroke:#181818;stroke-width:1.0;" width="10" x="2610.7383" y="1644.0391"/><rect fill="#FFFFFF" height="30" style="stroke:#181818;stroke-width:1.0;" width="10" x="2610.7383" y="1703.1719"/><rect fill="#FFFFFF" height="71.2656" style="stroke:#181818;stroke-width:1.0;" width="10" x="2738.3574" y="1762.3047"/><line style="stroke:#181818;stroke-width:0.5;stroke-dasharray:5.0,5.0;" x1="134.9888" x2="134.9888" y1="89.8906" y2="2055.6328"/><line style="stroke:#181818;stroke-width:0.5;stroke-dasharray:5.0,5.0;" x1="445.3564" x2="445.3564" y1="89.8906" y2="2055.6328"/><line style="stroke:#181818;stroke-width:0.5;stroke-dasharray:5.0,5.0;" x1="651.896" x2="651.896" y1="196.9531" y2="2055.6328"/><line style="stroke:#181818;stroke-width:0.5;stroke-dasharray:5.0,5.0;" x1="780.3608" x2="780.3608" y1="89.8906" y2="2055.6328"/><line style="stroke:#181818;stroke-width:0.5;stroke-dasharray:5.0,5.0;" x1="1110.23" x2="1110.23" y1="89.8906" y2="2055.6328"/><line style="stroke:#181818;stroke-width:0.5;stroke-dasharray:5.0,5.0;" x1="1217.8423" x2="1217.8423" y1="429.4766" y2="2055.6328"/><line style="stroke:#181818;stroke-width:0.5;stroke-dasharray:5.0,5.0;" x1="1326.2983" x2="1326.2983" y1="89.8906" y2="2055.6328"/><line style="stroke:#181818;stroke-width:0.5;stroke-dasharray:5.0,5.0;" x1="1452.0249" x2="1452.0249" y1="89.8906" y2="2055.6328"/><line style="stroke:#181818;stroke-width:0.5;stroke-dasharray:5.0,5.0;" x1="1963.083" x2="1963.083" y1="89.8906" y2="2055.6328"/><line style="stroke:#181818;stroke-width:0.5;stroke-dasharray:5.0,5.0;" x1="2086.9814" x2="2086.9814" y1="89.8906" y2="2055.6328"/><line style="stroke:#181818;stroke-width:0.5;stroke-dasharray:5.0,5.0;" x1="2194.4375" x2="2194.4375" y1="89.8906" y2="2055.6328"/><line style="stroke:#181818;stroke-width:0.5;stroke-dasharray:5.0,5.0;" x1="2503.2676" x2="2503.2676" y1="1428.25" y2="2055.6328"/><line style="stroke:#181818;stroke-width:0.5;stroke-dasharray:5.0,5.0;" x1="2615.7236" x2="2615.7236" y1="1485.8438" y2="2055.6328"/><line style="stroke:#181818;stroke-width:0.5;stroke-dasharray:5.0,5.0;" x1="2742.7529" x2="2742.7529" y1="89.8906" y2="2055.6328"/><rect fill="#E2E2F0" height="46.5938" rx="2.5" ry="2.5" style="stroke:#181818;stroke-width:0.5;" width="91.6289" x="89.9888" y="42.2969"/><text fill="#000000" font-family="sans-serif" font-size="14" lengthAdjust="spacing" textLength="58.3994" x="106.6035" y="62.292">&#171;Route&#187;</text><text fill="#000000" font-family="sans-serif" font-size="14" lengthAdjust="spacing" textLength="73.1787" x="101.439" y="78.5889">UserRoute</text><rect fill="#E2E2F0" height="46.5938" rx="2.5" ry="2.5" style="stroke:#181818;stroke-width:0.5;" width="91.6289" x="89.9888" y="2054.6328"/><text fill="#000000" font-family="sans-serif" font-size="14" lengthAdjust="spacing" textLength="58.3994" x="106.6035" y="2074.6279">&#171;Route&#187;</text><text fill="#000000" font-family="sans-serif" font-size="14" lengthAdjust="spacing" textLength="73.1787" x="101.439" y="2090.9248">UserRoute</text><rect fill="#E2E2F0" height="46.5938" rx="2.5" ry="2.5" style="stroke:#181818;stroke-width:0.5;" width="119.5332" x="386.3564" y="42.2969"/><text fill="#000000" font-family="sans-serif" font-size="14" lengthAdjust="spacing" textLength="86.3037" x="402.9712" y="62.292">&#171;Controller&#187;</text><text fill="#000000" font-family="sans-serif" font-size="14" lengthAdjust="spacing" textLength="101.083" x="397.8066" y="78.5889">UserController</text><rect fill="#E2E2F0" height="46.5938" rx="2.5" ry="2.5" style="stroke:#181818;stroke-width:0.5;" width="119.5332" x="386.3564" y="2054.6328"/><text fill="#000000" font-family="sans-serif" font-size="14" lengthAdjust="spacing" textLength="86.3037" x="402.9712" y="2074.6279">&#171;Controller&#187;</text><text fill="#000000" font-family="sans-serif" font-size="14" lengthAdjust="spacing" textLength="101.083" x="397.8066" y="2090.9248">UserController</text><rect fill="#E2E2F0" height="46.5938" rx="2.5" ry="2.5" style="stroke:#181818;stroke-width:0.5;" width="133.4648" x="585.896" y="2054.6328"/><text fill="#000000" font-family="sans-serif" font-size="14" lengthAdjust="spacing" textLength="47.4824" x="628.8872" y="2074.6279">&#171;DTO&#187;</text><text fill="#000000" font-family="sans-serif" font-size="14" lengthAdjust="spacing" textLength="115.0146" x="597.3462" y="2090.9248">RegisterUserDto</text><rect fill="#E2E2F0" height="46.5938" rx="2.5" ry="2.5" style="stroke:#181818;stroke-width:0.5;" width="102.1016" x="729.3608" y="42.2969"/><text fill="#000000" font-family="sans-serif" font-size="14" lengthAdjust="spacing" textLength="68.8721" x="745.9756" y="62.292">&#171;Service&#187;</text><text fill="#000000" font-family="sans-serif" font-size="14" lengthAdjust="spacing" textLength="83.6514" x="740.811" y="78.5889">UserService</text><rect fill="#E2E2F0" height="46.5938" rx="2.5" ry="2.5" style="stroke:#181818;stroke-width:0.5;" width="102.1016" x="729.3608" y="2054.6328"/><text fill="#000000" font-family="sans-serif" font-size="14" lengthAdjust="spacing" textLength="68.8721" x="745.9756" y="2074.6279">&#171;Service&#187;</text><text fill="#000000" font-family="sans-serif" font-size="14" lengthAdjust="spacing" textLength="83.6514" x="740.811" y="2090.9248">UserService</text><rect fill="#E2E2F0" height="46.5938" rx="2.5" ry="2.5" style="stroke:#181818;stroke-width:0.5;" width="110.6123" x="1055.23" y="42.2969"/><text fill="#000000" font-family="sans-serif" font-size="14" lengthAdjust="spacing" textLength="58.3105" x="1081.3809" y="62.292">&#171;Utility&#187;</text><text fill="#000000" font-family="sans-serif" font-size="14" lengthAdjust="spacing" textLength="92.1621" x="1066.6802" y="78.5889">RoleManager</text><rect fill="#E2E2F0" height="46.5938" rx="2.5" ry="2.5" style="stroke:#181818;stroke-width:0.5;" width="110.6123" x="1055.23" y="2054.6328"/><text fill="#000000" font-family="sans-serif" font-size="14" lengthAdjust="spacing" textLength="58.3105" x="1081.3809" y="2074.6279">&#171;Utility&#187;</text><text fill="#000000" font-family="sans-serif" font-size="14" lengthAdjust="spacing" textLength="92.1621" x="1066.6802" y="2090.9248">RoleManager</text><rect fill="#E2E2F0" height="46.5938" rx="2.5" ry="2.5" style="stroke:#181818;stroke-width:0.5;" width="85.4561" x="1175.8423" y="2054.6328"/><text fill="#000000" font-family="sans-serif" font-size="14" lengthAdjust="spacing" textLength="71.4561" x="1182.8423" y="2074.6279">&#171;Domain&#187;</text><text fill="#000000" font-family="sans-serif" font-size="14" lengthAdjust="spacing" textLength="31.9102" x="1204.8403" y="2090.9248">User</text><rect fill="#E2E2F0" height="46.5938" rx="2.5" ry="2.5" style="stroke:#181818;stroke-width:0.5;" width="111.7266" x="1271.2983" y="42.2969"/><text fill="#000000" font-family="sans-serif" font-size="14" lengthAdjust="spacing" textLength="58.3105" x="1298.0063" y="62.292">&#171;Utility&#187;</text><text fill="#000000" font-family="sans-serif" font-size="14" lengthAdjust="spacing" textLength="93.2764" x="1282.7485" y="78.5889">UserManager</text><rect fill="#E2E2F0" height="46.5938" rx="2.5" ry="2.5" style="stroke:#181818;stroke-width:0.5;" width="111.7266" x="1271.2983" y="2054.6328"/><text fill="#000000" font-family="sans-serif" font-size="14" lengthAdjust="spacing" textLength="58.3105" x="1298.0063" y="2074.6279">&#171;Utility&#187;</text><text fill="#000000" font-family="sans-serif" font-size="14" lengthAdjust="spacing" textLength="93.2764" x="1282.7485" y="2090.9248">UserManager</text><rect fill="#E2E2F0" height="46.5938" rx="2.5" ry="2.5" style="stroke:#181818;stroke-width:0.5;" width="119.5674" x="1393.0249" y="42.2969"/><text fill="#000000" font-family="sans-serif" font-size="14" lengthAdjust="spacing" textLength="68.8721" x="1418.3726" y="62.292">&#171;Service&#187;</text><text fill="#000000" font-family="sans-serif" font-size="14" lengthAdjust="spacing" textLength="101.1172" x="1404.4751" y="78.5889">PatientService</text><rect fill="#E2E2F0" height="46.5938" rx="2.5" ry="2.5" style="stroke:#181818;stroke-width:0.5;" width="119.5674" x="1393.0249" y="2054.6328"/><text fill="#000000" font-family="sans-serif" font-size="14" lengthAdjust="spacing" textLength="68.8721" x="1418.3726" y="2074.6279">&#171;Service&#187;</text><text fill="#000000" font-family="sans-serif" font-size="14" lengthAdjust="spacing" textLength="101.1172" x="1404.4751" y="2090.9248">PatientService</text><rect fill="#E2E2F0" height="46.5938" rx="2.5" ry="2.5" style="stroke:#181818;stroke-width:0.5;" width="142.8984" x="1892.083" y="42.2969"/><text fill="#000000" font-family="sans-serif" font-size="14" lengthAdjust="spacing" textLength="92.2031" x="1917.4307" y="62.292">&#171;Repository&#187;</text><text fill="#000000" font-family="sans-serif" font-size="14" lengthAdjust="spacing" textLength="124.4482" x="1903.5332" y="78.5889">PatientRepository</text><rect fill="#E2E2F0" height="46.5938" rx="2.5" ry="2.5" style="stroke:#181818;stroke-width:0.5;" width="142.8984" x="1892.083" y="2054.6328"/><text fill="#000000" font-family="sans-serif" font-size="14" lengthAdjust="spacing" textLength="92.2031" x="1917.4307" y="2074.6279">&#171;Repository&#187;</text><text fill="#000000" font-family="sans-serif" font-size="14" lengthAdjust="spacing" textLength="124.4482" x="1903.5332" y="2090.9248">PatientRepository</text><rect fill="#E2E2F0" height="46.5938" rx="2.5" ry="2.5" style="stroke:#181818;stroke-width:0.5;" width="85.4561" x="2044.9814" y="42.2969"/><text fill="#000000" font-family="sans-serif" font-size="14" lengthAdjust="spacing" textLength="71.4561" x="2051.9814" y="62.292">&#171;Domain&#187;</text><text fill="#000000" font-family="sans-serif" font-size="14" lengthAdjust="spacing" textLength="49.376" x="2065.2466" y="78.5889">Patient</text><rect fill="#E2E2F0" height="46.5938" rx="2.5" ry="2.5" style="stroke:#181818;stroke-width:0.5;" width="85.4561" x="2044.9814" y="2054.6328"/><text fill="#000000" font-family="sans-serif" font-size="14" lengthAdjust="spacing" textLength="71.4561" x="2051.9814" y="2074.6279">&#171;Domain&#187;</text><text fill="#000000" font-family="sans-serif" font-size="14" lengthAdjust="spacing" textLength="49.376" x="2065.2466" y="2090.9248">Patient</text><rect fill="#E2E2F0" height="46.5938" rx="2.5" ry="2.5" style="stroke:#181818;stroke-width:0.5;" width="109.0332" x="2140.4375" y="42.2969"/><text fill="#000000" font-family="sans-serif" font-size="14" lengthAdjust="spacing" textLength="68.8721" x="2160.5181" y="62.292">&#171;Service&#187;</text><text fill="#000000" font-family="sans-serif" font-size="14" lengthAdjust="spacing" textLength="90.583" x="2151.8877" y="78.5889">EmailService</text><rect fill="#E2E2F0" height="46.5938" rx="2.5" ry="2.5" style="stroke:#181818;stroke-width:0.5;" width="109.0332" x="2140.4375" y="2054.6328"/><text fill="#000000" font-family="sans-serif" font-size="14" lengthAdjust="spacing" textLength="68.8721" x="2160.5181" y="2074.6279">&#171;Service&#187;</text><text fill="#000000" font-family="sans-serif" font-size="14" lengthAdjust="spacing" textLength="90.583" x="2151.8877" y="2090.9248">EmailService</text><rect fill="#E2E2F0" height="46.5938" rx="2.5" ry="2.5" style="stroke:#181818;stroke-width:0.5;" width="85.4561" x="2461.2676" y="2054.6328"/><text fill="#000000" font-family="sans-serif" font-size="14" lengthAdjust="spacing" textLength="71.4561" x="2468.2676" y="2074.6279">&#171;Domain&#187;</text><text fill="#000000" font-family="sans-serif" font-size="14" lengthAdjust="spacing" textLength="38.8418" x="2486.7998" y="2090.9248">Email</text><rect fill="#E2E2F0" height="46.5938" rx="2.5" ry="2.5" style="stroke:#181818;stroke-width:0.5;" width="118.0293" x="2556.7236" y="2054.6328"/><text fill="#000000" font-family="sans-serif" font-size="14" lengthAdjust="spacing" textLength="62.7266" x="2584.375" y="2074.6279">&#171;Object&#187;</text><text fill="#000000" font-family="sans-serif" font-size="14" lengthAdjust="spacing" textLength="99.5791" x="2568.1738" y="2090.9248">MimeMessage</text><rect fill="#E2E2F0" height="46.5938" rx="2.5" ry="2.5" style="stroke:#181818;stroke-width:0.5;" width="117.209" x="2684.7529" y="42.2969"/><text fill="#000000" font-family="sans-serif" font-size="14" lengthAdjust="spacing" textLength="79.8096" x="2703.4526" y="62.292">&#171;Interface&#187;</text><text fill="#000000" font-family="sans-serif" font-size="14" lengthAdjust="spacing" textLength="98.7588" x="2696.2031" y="78.5889">IEmailAdapter</text><rect fill="#E2E2F0" height="46.5938" rx="2.5" ry="2.5" style="stroke:#181818;stroke-width:0.5;" width="117.209" x="2684.7529" y="2054.6328"/><text fill="#000000" font-family="sans-serif" font-size="14" lengthAdjust="spacing" textLength="79.8096" x="2703.4526" y="2074.6279">&#171;Interface&#187;</text><text fill="#000000" font-family="sans-serif" font-size="14" lengthAdjust="spacing" textLength="98.7588" x="2696.2031" y="2090.9248">IEmailAdapter</text><rect fill="#FFFFFF" height="1916.6094" style="stroke:#181818;stroke-width:1.0;" width="10" x="130.8032" y="121.0234"/><rect fill="#FFFFFF" height="1858.3438" style="stroke:#181818;stroke-width:1.0;" width="10" x="441.123" y="150.1563"/><rect fill="#FFFFFF" height="391.1875" style="stroke:#181818;stroke-width:1.0;" width="10" x="775.4116" y="236.8828"/><rect fill="#FFFFFF" height="272.5234" style="stroke:#181818;stroke-width:1.0;" width="10" x="780.4116" y="319.4141"/><rect fill="#FFFFFF" height="936.5703" style="stroke:#181818;stroke-width:1.0;" width="10" x="775.4116" y="1110.0625"/><rect fill="#FFFFFF" height="40.1328" style="stroke:#181818;stroke-width:1.0;" width="10" x="780.4116" y="1205.4609"/><rect fill="#FFFFFF" height="644.2422" style="stroke:#181818;stroke-width:1.0;" width="10" x="780.4116" y="1289.7266"/><rect fill="#FFFFFF" height="29.1328" style="stroke:#181818;stroke-width:1.0;" width="10" x="1105.5361" y="353.5469"/><rect fill="#FFFFFF" height="29.1328" style="stroke:#181818;stroke-width:1.0;" width="10" x="1322.1616" y="469.4063"/><rect fill="#FFFFFF" height="29.1328" style="stroke:#181818;stroke-width:1.0;" width="10" x="1322.1616" y="527.6719"/><rect fill="#FFFFFF" height="29.1328" style="stroke:#181818;stroke-width:1.0;" width="10" x="1322.1616" y="1139.1953"/><rect fill="#FFFFFF" height="307.1953" style="stroke:#181818;stroke-width:1.0;" width="10" x="1447.8086" y="657.2031"/><rect fill="#FFFFFF" height="28" style="stroke:#181818;stroke-width:1.0;" width="10" x="1452.8086" y="900.2656"/><rect fill="#FFFFFF" height="87.3984" style="stroke:#181818;stroke-width:1.0;" width="10" x="1447.8086" y="993.5313"/><rect fill="#FFFFFF" height="29.1328" style="stroke:#181818;stroke-width:1.0;" width="10" x="1958.5322" y="716.6016"/><rect fill="#FFFFFF" height="29.1328" style="stroke:#181818;stroke-width:1.0;" width="10" x="1958.5322" y="774.8672"/><rect fill="#FFFFFF" height="29.1328" style="stroke:#181818;stroke-width:1.0;" width="10" x="1958.5322" y="1022.6641"/><rect fill="#FFFFFF" height="30" style="stroke:#181818;stroke-width:1.0;" width="10" x="2082.7095" y="833.1328"/><rect fill="#FFFFFF" height="538.8438" style="stroke:#181818;stroke-width:1.0;" width="10" x="2189.9541" y="1323.8594"/><rect fill="#FFFFFF" height="30" style="stroke:#181818;stroke-width:1.0;" width="10" x="2610.7383" y="1525.7734"/><rect fill="#FFFFFF" height="30" style="stroke:#181818;stroke-width:1.0;" width="10" x="2610.7383" y="1584.9063"/><rect fill="#FFFFFF" height="30" style="stroke:#181818;stroke-width:1.0;" width="10" x="2610.7383" y="1644.0391"/><rect fill="#FFFFFF" height="30" style="stroke:#181818;stroke-width:1.0;" width="10" x="2610.7383" y="1703.1719"/><rect fill="#FFFFFF" height="71.2656" style="stroke:#181818;stroke-width:1.0;" width="10" x="2738.3574" y="1762.3047"/><ellipse cx="7.5" cy="120.2734" fill="#000000" rx="4" ry="4" style="stroke:#181818;stroke-width:1.5;"/><polygon fill="#181818" points="118.8032,117.0234,128.8032,121.0234,118.8032,125.0234,122.8032,121.0234" style="stroke:#181818;stroke-width:1.0;"/><line style="stroke:#181818;stroke-width:1.0;" x1="12" x2="124.8032" y1="121.0234" y2="121.0234"/><text fill="#000000" font-family="sans-serif" font-size="13" lengthAdjust="spacing" textLength="103.8032" x="15" y="115.9575">POST(userData)</text><polygon fill="#181818" points="429.123,146.1563,439.123,150.1563,429.123,154.1563,433.123,150.1563" style="stroke:#181818;stroke-width:1.0;"/><line style="stroke:#181818;stroke-width:1.0;" x1="140.8032" x2="435.123" y1="150.1563" y2="150.1563"/><text fill="#000000" font-family="sans-serif" font-size="13" lengthAdjust="spacing" textLength="183.7456" x="147.8032" y="145.0903">RegisterStaffUser(userData)</text><polygon fill="#181818" points="573.896,175.2891,583.896,179.2891,573.896,183.2891,577.896,179.2891" style="stroke:#181818;stroke-width:1.0;"/><line style="stroke:#181818;stroke-width:1.0;" x1="451.123" x2="579.896" y1="179.2891" y2="179.2891"/><text fill="#000000" font-family="sans-serif" font-size="13" lengthAdjust="spacing" textLength="110.7729" x="458.123" y="174.2231">toDTO(userData)</text><rect fill="#E2E2F0" height="46.5938" rx="2.5" ry="2.5" style="stroke:#181818;stroke-width:0.5;" width="133.4648" x="585.896" y="158.1563"/><text fill="#000000" font-family="sans-serif" font-size="14" lengthAdjust="spacing" textLength="47.4824" x="628.8872" y="178.1514">&#171;DTO&#187;</text><text fill="#000000" font-family="sans-serif" font-size="14" lengthAdjust="spacing" textLength="115.0146" x="597.3462" y="194.4482">RegisterUserDto</text><polygon fill="#181818" points="763.4116,232.8828,773.4116,236.8828,763.4116,240.8828,767.4116,236.8828" style="stroke:#181818;stroke-width:1.0;"/><line style="stroke:#181818;stroke-width:1.0;" x1="451.123" x2="769.4116" y1="236.8828" y2="236.8828"/><text fill="#000000" font-family="sans-serif" font-size="13" lengthAdjust="spacing" textLength="269.0327" x="458.123" y="231.8169">createPatientUserAsync(registerUserDto)</text><line style="stroke:#181818;stroke-width:1.0;" x1="785.4116" x2="832.4116" y1="306.4141" y2="306.4141"/><line style="stroke:#181818;stroke-width:1.0;" x1="832.4116" x2="832.4116" y1="306.4141" y2="319.4141"/><line style="stroke:#181818;stroke-width:1.0;" x1="791.4116" x2="832.4116" y1="319.4141" y2="319.4141"/><polygon fill="#181818" points="801.4116,315.4141,791.4116,319.4141,801.4116,323.4141,797.4116,319.4141" style="stroke:#181818;stroke-width:1.0;"/><text fill="#000000" font-family="sans-serif" font-size="13" lengthAdjust="spacing" textLength="232.813" x="797.4116" y="255.9497">createAsync(registerUserDto.Email,</text><text fill="#000000" font-family="sans-serif" font-size="13" lengthAdjust="spacing" textLength="172.9102" x="797.4116" y="271.0825">registerUserDto.Password,</text><text fill="#000000" font-family="sans-serif" font-size="13" lengthAdjust="spacing" textLength="139.9722" x="797.4116" y="286.2153">registerUserDto.Role,</text><text fill="#000000" font-family="sans-serif" font-size="13" lengthAdjust="spacing" textLength="35.9976" x="797.4116" y="301.3481">false)</text><polygon fill="#181818" points="1093.5361,349.5469,1103.5361,353.5469,1093.5361,357.5469,1097.5361,353.5469" style="stroke:#181818;stroke-width:1.0;"/><line style="stroke:#181818;stroke-width:1.0;" x1="790.4116" x2="1099.5361" y1="353.5469" y2="353.5469"/><text fill="#000000" font-family="sans-serif" font-size="13" lengthAdjust="spacing" textLength="136.8682" x="797.4116" y="348.481">roleExistsAsync(role)</text><polygon fill="#181818" points="801.4116,378.6797,791.4116,382.6797,801.4116,386.6797,797.4116,382.6797" style="stroke:#181818;stroke-width:1.0;"/><line style="stroke:#181818;stroke-width:1.0;" x1="795.4116" x2="1109.5361" y1="382.6797" y2="382.6797"/><text fill="#000000" font-family="sans-serif" font-size="13" lengthAdjust="spacing" textLength="26.6792" x="807.4116" y="377.6138">true</text><polygon fill="#181818" points="1163.8423,392.6797,1173.8423,396.6797,1163.8423,400.6797,1167.8423,396.6797" style="stroke:#181818;stroke-width:1.0;"/><line style="stroke:#181818;stroke-width:1.0;" x1="790.4116" x2="1169.8423" y1="396.6797" y2="396.6797"/><rect fill="#E2E2F0" height="46.5938" rx="2.5" ry="2.5" style="stroke:#181818;stroke-width:0.5;" width="85.4561" x="1175.8423" y="390.6797"/><text fill="#000000" font-family="sans-serif" font-size="14" lengthAdjust="spacing" textLength="71.4561" x="1182.8423" y="410.6748">&#171;Domain&#187;</text><text fill="#000000" font-family="sans-serif" font-size="14" lengthAdjust="spacing" textLength="31.9102" x="1204.8403" y="426.9717">User</text><polygon fill="#181818" points="1310.1616,465.4063,1320.1616,469.4063,1310.1616,473.4063,1314.1616,469.4063" style="stroke:#181818;stroke-width:1.0;"/><line style="stroke:#181818;stroke-width:1.0;" x1="790.4116" x2="1316.1616" y1="469.4063" y2="469.4063"/><text fill="#000000" font-family="sans-serif" font-size="13" lengthAdjust="spacing" textLength="189.0078" x="797.4116" y="464.3403">createAsync(user, password)</text><polygon fill="#181818" points="801.4116,494.5391,791.4116,498.5391,801.4116,502.5391,797.4116,498.5391" style="stroke:#181818;stroke-width:1.0;"/><line style="stroke:#181818;stroke-width:1.0;stroke-dasharray:2.0,2.0;" x1="795.4116" x2="1326.1616" y1="498.5391" y2="498.5391"/><text fill="#000000" font-family="sans-serif" font-size="13" lengthAdjust="spacing" textLength="27.771" x="807.4116" y="493.4731">bool</text><polygon fill="#181818" points="1310.1616,523.6719,1320.1616,527.6719,1310.1616,531.6719,1314.1616,527.6719" style="stroke:#181818;stroke-width:1.0;"/><line style="stroke:#181818;stroke-width:1.0;" x1="790.4116" x2="1316.1616" y1="527.6719" y2="527.6719"/><text fill="#000000" font-family="sans-serif" font-size="13" lengthAdjust="spacing" textLength="179.3784" x="797.4116" y="522.606">addToRoleAsync(user, role)</text><polygon fill="#181818" points="801.4116,552.8047,791.4116,556.8047,801.4116,560.8047,797.4116,556.8047" style="stroke:#181818;stroke-width:1.0;"/><line style="stroke:#181818;stroke-width:1.0;stroke-dasharray:2.0,2.0;" x1="795.4116" x2="1326.1616" y1="556.8047" y2="556.8047"/><text fill="#000000" font-family="sans-serif" font-size="13" lengthAdjust="spacing" textLength="27.771" x="807.4116" y="551.7388">bool</text><line style="stroke:#181818;stroke-width:1.0;" x1="790.4116" x2="832.4116" y1="590.9375" y2="590.9375"/><line style="stroke:#181818;stroke-width:1.0;" x1="832.4116" x2="832.4116" y1="590.9375" y2="603.9375"/><line style="stroke:#181818;stroke-width:1.0;" x1="785.4116" x2="832.4116" y1="603.9375" y2="603.9375"/><polygon fill="#181818" points="795.4116,599.9375,785.4116,603.9375,795.4116,607.9375,791.4116,603.9375" style="stroke:#181818;stroke-width:1.0;"/><text fill="#000000" font-family="sans-serif" font-size="13" lengthAdjust="spacing" textLength="28.355" x="797.4116" y="585.8716">user</text><polygon fill="#181818" points="462.123,624.0703,452.123,628.0703,462.123,632.0703,458.123,628.0703" style="stroke:#181818;stroke-width:1.0;"/><line style="stroke:#181818;stroke-width:1.0;stroke-dasharray:2.0,2.0;" x1="456.123" x2="779.4116" y1="628.0703" y2="628.0703"/><text fill="#000000" font-family="sans-serif" font-size="13" lengthAdjust="spacing" textLength="28.355" x="468.123" y="623.0044">user</text><polygon fill="#181818" points="1435.8086,653.2031,1445.8086,657.2031,1435.8086,661.2031,1439.8086,657.2031" style="stroke:#181818;stroke-width:1.0;"/><line style="stroke:#181818;stroke-width:1.0;" x1="451.123" x2="1441.8086" y1="657.2031" y2="657.2031"/><text fill="#000000" font-family="sans-serif" font-size="13" lengthAdjust="spacing" textLength="399.9531" x="458.123" y="652.1372">addUser(user, registerUserDto.Email, registerUserDto.Phone)</text><polygon fill="#181818" points="1946.5322,712.6016,1956.5322,716.6016,1946.5322,720.6016,1950.5322,716.6016" style="stroke:#181818;stroke-width:1.0;"/><line style="stroke:#181818;stroke-width:1.0;" x1="1457.8086" x2="1952.5322" y1="716.6016" y2="716.6016"/><text fill="#000000" font-family="sans-serif" font-size="13" lengthAdjust="spacing" textLength="250.7832" x="1464.8086" y="681.27">ExistsPatientWithEmailOrPhone(email,</text><text fill="#000000" font-family="sans-serif" font-size="13" lengthAdjust="spacing" textLength="117.6094" x="1464.8086" y="696.4028">phone.Split(' ')[0],</text><text fill="#000000" font-family="sans-serif" font-size="13" lengthAdjust="spacing" textLength="118.5488" x="1464.8086" y="711.5356">phone.Split(' ')[1])</text><polygon fill="#181818" points="1468.8086,741.7344,1458.8086,745.7344,1468.8086,749.7344,1464.8086,745.7344" style="stroke:#181818;stroke-width:1.0;"/><line style="stroke:#181818;stroke-width:1.0;stroke-dasharray:2.0,2.0;" x1="1462.8086" x2="1962.5322" y1="745.7344" y2="745.7344"/><text fill="#000000" font-family="sans-serif" font-size="13" lengthAdjust="spacing" textLength="26.6792" x="1474.8086" y="740.6685">true</text><polygon fill="#181818" points="1946.5322,770.8672,1956.5322,774.8672,1946.5322,778.8672,1950.5322,774.8672" style="stroke:#181818;stroke-width:1.0;"/><line style="stroke:#181818;stroke-width:1.0;" x1="1457.8086" x2="1952.5322" y1="774.8672" y2="774.8672"/><text fill="#000000" font-family="sans-serif" font-size="13" lengthAdjust="spacing" textLength="179.061" x="1464.8086" y="769.8013">getPatientWithEmail(email)</text><polygon fill="#181818" points="1468.8086,800,1458.8086,804,1468.8086,808,1464.8086,804" style="stroke:#181818;stroke-width:1.0;"/><line style="stroke:#181818;stroke-width:1.0;stroke-dasharray:2.0,2.0;" x1="1462.8086" x2="1962.5322" y1="804" y2="804"/><text fill="#000000" font-family="sans-serif" font-size="13" lengthAdjust="spacing" textLength="28.9897" x="1474.8086" y="798.9341">staff</text><polygon fill="#181818" points="2070.7095,829.1328,2080.7095,833.1328,2070.7095,837.1328,2074.7095,833.1328" style="stroke:#181818;stroke-width:1.0;"/><line style="stroke:#181818;stroke-width:1.0;" x1="1457.8086" x2="2076.7095" y1="833.1328" y2="833.1328"/><text fill="#000000" font-family="sans-serif" font-size="13" lengthAdjust="spacing" textLength="92.5996" x="1464.8086" y="828.0669">addUser(user)</text><line style="stroke:#181818;stroke-width:1.0;" x1="1462.8086" x2="1504.8086" y1="892.2656" y2="892.2656"/><line style="stroke:#181818;stroke-width:1.0;" x1="1504.8086" x2="1504.8086" y1="892.2656" y2="905.2656"/><line style="stroke:#181818;stroke-width:1.0;" x1="1463.8086" x2="1504.8086" y1="905.2656" y2="905.2656"/><polygon fill="#181818" points="1473.8086,901.2656,1463.8086,905.2656,1473.8086,909.2656,1469.8086,905.2656" style="stroke:#181818;stroke-width:1.0;"/><text fill="#000000" font-family="sans-serif" font-size="13" lengthAdjust="spacing" textLength="98.0269" x="1469.8086" y="887.1997">commitAsync()</text><polygon fill="#181818" points="462.123,960.3984,452.123,964.3984,462.123,968.3984,458.123,964.3984" style="stroke:#181818;stroke-width:1.0;"/><line style="stroke:#181818;stroke-width:1.0;stroke-dasharray:2.0,2.0;" x1="456.123" x2="1451.8086" y1="964.3984" y2="964.3984"/><text fill="#000000" font-family="sans-serif" font-size="13" lengthAdjust="spacing" textLength="40.2632" x="468.123" y="959.3325">return</text><polygon fill="#181818" points="1435.8086,989.5313,1445.8086,993.5313,1435.8086,997.5313,1439.8086,993.5313" style="stroke:#181818;stroke-width:1.0;"/><line style="stroke:#181818;stroke-width:1.0;" x1="451.123" x2="1441.8086" y1="993.5313" y2="993.5313"/><text fill="#000000" font-family="sans-serif" font-size="13" lengthAdjust="spacing" textLength="401.7939" x="458.123" y="988.4653">getProfileEmail(user.Email.ToString(), registerUserDto.Phone)</text><polygon fill="#181818" points="1946.5322,1018.6641,1956.5322,1022.6641,1946.5322,1026.6641,1950.5322,1022.6641" style="stroke:#181818;stroke-width:1.0;"/><line style="stroke:#181818;stroke-width:1.0;" x1="1457.8086" x2="1952.5322" y1="1022.6641" y2="1022.6641"/><text fill="#000000" font-family="sans-serif" font-size="13" lengthAdjust="spacing" textLength="481.7236" x="1464.8086" y="1017.5981">findPatientWithEmailOrPhone(email, phone.Split(' ')[0], phone.Split(' ')[1])</text><polygon fill="#181818" points="1468.8086,1047.7969,1458.8086,1051.7969,1468.8086,1055.7969,1464.8086,1051.7969" style="stroke:#181818;stroke-width:1.0;"/><line style="stroke:#181818;stroke-width:1.0;stroke-dasharray:2.0,2.0;" x1="1462.8086" x2="1962.5322" y1="1051.7969" y2="1051.7969"/><text fill="#000000" font-family="sans-serif" font-size="13" lengthAdjust="spacing" textLength="35.8516" x="1474.8086" y="1046.731">email</text><polygon fill="#181818" points="462.123,1076.9297,452.123,1080.9297,462.123,1084.9297,458.123,1080.9297" style="stroke:#181818;stroke-width:1.0;"/><line style="stroke:#181818;stroke-width:1.0;stroke-dasharray:2.0,2.0;" x1="456.123" x2="1451.8086" y1="1080.9297" y2="1080.9297"/><text fill="#000000" font-family="sans-serif" font-size="13" lengthAdjust="spacing" textLength="35.8516" x="468.123" y="1075.8638">email</text><polygon fill="#181818" points="763.4116,1106.0625,773.4116,1110.0625,763.4116,1114.0625,767.4116,1110.0625" style="stroke:#181818;stroke-width:1.0;"/><line style="stroke:#181818;stroke-width:1.0;" x1="451.123" x2="769.4116" y1="1110.0625" y2="1110.0625"/><text fill="#000000" font-family="sans-serif" font-size="13" lengthAdjust="spacing" textLength="234.2793" x="458.123" y="1104.9966">sendConfirmationEmail(user, email)</text><polygon fill="#181818" points="1310.1616,1135.1953,1320.1616,1139.1953,1310.1616,1143.1953,1314.1616,1139.1953" style="stroke:#181818;stroke-width:1.0;"/><line style="stroke:#181818;stroke-width:1.0;" x1="785.4116" x2="1316.1616" y1="1139.1953" y2="1139.1953"/><text fill="#000000" font-family="sans-serif" font-size="13" lengthAdjust="spacing" textLength="296.2007" x="792.4116" y="1134.1294">generateEmailConfirmationTokenAsync(user)</text><polygon fill="#181818" points="796.4116,1164.3281,786.4116,1168.3281,796.4116,1172.3281,792.4116,1168.3281" style="stroke:#181818;stroke-width:1.0;"/><line style="stroke:#181818;stroke-width:1.0;stroke-dasharray:2.0,2.0;" x1="790.4116" x2="1326.1616" y1="1168.3281" y2="1168.3281"/><text fill="#000000" font-family="sans-serif" font-size="13" lengthAdjust="spacing" textLength="36.8164" x="802.4116" y="1163.2622">token</text><line style="stroke:#181818;stroke-width:1.0;" x1="785.4116" x2="832.4116" y1="1192.4609" y2="1192.4609"/><line style="stroke:#181818;stroke-width:1.0;" x1="832.4116" x2="832.4116" y1="1192.4609" y2="1205.4609"/><line style="stroke:#181818;stroke-width:1.0;" x1="791.4116" x2="832.4116" y1="1205.4609" y2="1205.4609"/><polygon fill="#181818" points="801.4116,1201.4609,791.4116,1205.4609,801.4116,1209.4609,797.4116,1205.4609" style="stroke:#181818;stroke-width:1.0;"/><text fill="#000000" font-family="sans-serif" font-size="13" lengthAdjust="spacing" textLength="247.749" x="797.4116" y="1187.395">configureUrlConfirmation(token, user)</text><line style="stroke:#181818;stroke-width:1.0;stroke-dasharray:2.0,2.0;" x1="790.4116" x2="832.4116" y1="1244.5938" y2="1244.5938"/><line style="stroke:#181818;stroke-width:1.0;stroke-dasharray:2.0,2.0;" x1="832.4116" x2="832.4116" y1="1244.5938" y2="1257.5938"/><line style="stroke:#181818;stroke-width:1.0;stroke-dasharray:2.0,2.0;" x1="785.4116" x2="832.4116" y1="1257.5938" y2="1257.5938"/><polygon fill="#181818" points="795.4116,1253.5938,785.4116,1257.5938,795.4116,1261.5938,791.4116,1257.5938" style="stroke:#181818;stroke-width:1.0;"/><text fill="#000000" font-family="sans-serif" font-size="13" lengthAdjust="spacing" textLength="109.0273" x="797.4116" y="1239.5278">confirmationLink</text><line style="stroke:#181818;stroke-width:1.0;" x1="785.4116" x2="832.4116" y1="1276.7266" y2="1276.7266"/><line style="stroke:#181818;stroke-width:1.0;" x1="832.4116" x2="832.4116" y1="1276.7266" y2="1289.7266"/><line style="stroke:#181818;stroke-width:1.0;" x1="791.4116" x2="832.4116" y1="1289.7266" y2="1289.7266"/><polygon fill="#181818" points="801.4116,1285.7266,791.4116,1289.7266,801.4116,1293.7266,797.4116,1289.7266" style="stroke:#181818;stroke-width:1.0;"/><text fill="#000000" font-family="sans-serif" font-size="13" lengthAdjust="spacing" textLength="296.1245" x="797.4116" y="1271.6606">sendEmail(email, "Account Activation", body)</text><polygon fill="#181818" points="2177.9541,1319.8594,2187.9541,1323.8594,2177.9541,1327.8594,2181.9541,1323.8594" style="stroke:#181818;stroke-width:1.0;"/><line style="stroke:#181818;stroke-width:1.0;" x1="790.4116" x2="2183.9541" y1="1323.8594" y2="1323.8594"/><text fill="#000000" font-family="sans-serif" font-size="13" lengthAdjust="spacing" textLength="220.7207" x="797.4116" y="1318.7935">sendConfirmationEmail(emailDto)</text><polygon fill="#181818" points="2449.2676,1348.9922,2459.2676,1352.9922,2449.2676,1356.9922,2453.2676,1352.9922" style="stroke:#181818;stroke-width:1.0;"/><line style="stroke:#181818;stroke-width:1.0;" x1="2199.9541" x2="2455.2676" y1="1352.9922" y2="1352.9922"/><text fill="#000000" font-family="sans-serif" font-size="13" lengthAdjust="spacing" textLength="222.4092" x="2206.9541" y="1347.9263">new Email(emailDto.SenderEmail)</text><rect fill="#E2E2F0" height="46.5938" rx="2.5" ry="2.5" style="stroke:#181818;stroke-width:0.5;" width="85.4561" x="2461.2676" y="1331.8594"/><text fill="#000000" font-family="sans-serif" font-size="14" lengthAdjust="spacing" textLength="71.4561" x="2468.2676" y="1351.8545">&#171;Domain&#187;</text><text fill="#000000" font-family="sans-serif" font-size="14" lengthAdjust="spacing" textLength="38.8418" x="2486.7998" y="1368.1514">Email</text><polygon fill="#181818" points="2449.2676,1406.5859,2459.2676,1410.5859,2449.2676,1414.5859,2453.2676,1410.5859" style="stroke:#181818;stroke-width:1.0;"/><line style="stroke:#181818;stroke-width:1.0;" x1="2199.9541" x2="2455.2676" y1="1410.5859" y2="1410.5859"/><text fill="#000000" font-family="sans-serif" font-size="13" lengthAdjust="spacing" textLength="237.3135" x="2206.9541" y="1405.52">new Email(emailDto.RecipientEmail)</text><rect fill="#E2E2F0" height="46.5938" rx="2.5" ry="2.5" style="stroke:#181818;stroke-width:0.5;" width="85.4561" x="2461.2676" y="1389.4531"/><text fill="#000000" font-family="sans-serif" font-size="14" lengthAdjust="spacing" textLength="71.4561" x="2468.2676" y="1409.4482">&#171;Domain&#187;</text><text fill="#000000" font-family="sans-serif" font-size="14" lengthAdjust="spacing" textLength="38.8418" x="2486.7998" y="1425.7451">Email</text><polygon fill="#181818" points="2544.7236,1464.1797,2554.7236,1468.1797,2544.7236,1472.1797,2548.7236,1468.1797" style="stroke:#181818;stroke-width:1.0;"/><line style="stroke:#181818;stroke-width:1.0;" x1="2199.9541" x2="2550.7236" y1="1468.1797" y2="1468.1797"/><text fill="#000000" font-family="sans-serif" font-size="13" lengthAdjust="spacing" textLength="133.6118" x="2206.9541" y="1463.1138">new MimeMessage()</text><rect fill="#E2E2F0" height="46.5938" rx="2.5" ry="2.5" style="stroke:#181818;stroke-width:0.5;" width="118.0293" x="2556.7236" y="1447.0469"/><text fill="#000000" font-family="sans-serif" font-size="14" lengthAdjust="spacing" textLength="62.7266" x="2584.375" y="1467.042">&#171;Object&#187;</text><text fill="#000000" font-family="sans-serif" font-size="14" lengthAdjust="spacing" textLength="99.5791" x="2568.1738" y="1483.3389">MimeMessage</text><polygon fill="#181818" points="2598.7383,1521.7734,2608.7383,1525.7734,2598.7383,1529.7734,2602.7383,1525.7734" style="stroke:#181818;stroke-width:1.0;"/><line style="stroke:#181818;stroke-width:1.0;" x1="2199.9541" x2="2604.7383" y1="1525.7734" y2="1525.7734"/><text fill="#000000" font-family="sans-serif" font-size="13" lengthAdjust="spacing" textLength="197.5771" x="2206.9541" y="1520.7075">From.Add("HealthCare Clinic")</text><polygon fill="#181818" points="2598.7383,1580.9063,2608.7383,1584.9063,2598.7383,1588.9063,2602.7383,1584.9063" style="stroke:#181818;stroke-width:1.0;"/><line style="stroke:#181818;stroke-width:1.0;" x1="2199.9541" x2="2604.7383" y1="1584.9063" y2="1584.9063"/><text fill="#000000" font-family="sans-serif" font-size="13" lengthAdjust="spacing" textLength="148.9351" x="2206.9541" y="1579.8403">To.Add(recipientEmail)</text><polygon fill="#181818" points="2598.7383,1640.0391,2608.7383,1644.0391,2598.7383,1648.0391,2602.7383,1644.0391" style="stroke:#181818;stroke-width:1.0;"/><line style="stroke:#181818;stroke-width:1.0;" x1="2199.9541" x2="2604.7383" y1="1644.0391" y2="1644.0391"/><text fill="#000000" font-family="sans-serif" font-size="13" lengthAdjust="spacing" textLength="215.4648" x="2206.9541" y="1638.9731">Subject = emailDto.EmailSubject</text><polygon fill="#181818" points="2598.7383,1699.1719,2608.7383,1703.1719,2598.7383,1707.1719,2602.7383,1703.1719" style="stroke:#181818;stroke-width:1.0;"/><line style="stroke:#181818;stroke-width:1.0;" x1="2199.9541" x2="2604.7383" y1="1703.1719" y2="1703.1719"/><text fill="#000000" font-family="sans-serif" font-size="13" lengthAdjust="spacing" textLength="277.0625" x="2206.9541" y="1698.106">Body = emailDto.EmailBody (Html format)</text><polygon fill="#181818" points="2726.3574,1758.3047,2736.3574,1762.3047,2726.3574,1766.3047,2730.3574,1762.3047" style="stroke:#181818;stroke-width:1.0;"/><line style="stroke:#181818;stroke-width:1.0;" x1="2199.9541" x2="2732.3574" y1="1762.3047" y2="1762.3047"/><text fill="#000000" font-family="sans-serif" font-size="13" lengthAdjust="spacing" textLength="114.4419" x="2206.9541" y="1757.2388">SendEmail(Mime)</text><line style="stroke:#181818;stroke-width:1.0;" x1="2748.3574" x2="2790.3574" y1="1791.4375" y2="1791.4375"/><line style="stroke:#181818;stroke-width:1.0;" x1="2790.3574" x2="2790.3574" y1="1791.4375" y2="1804.4375"/><line style="stroke:#181818;stroke-width:1.0;" x1="2749.3574" x2="2790.3574" y1="1804.4375" y2="1804.4375"/><polygon fill="#181818" points="2759.3574,1800.4375,2749.3574,1804.4375,2759.3574,1808.4375,2755.3574,1804.4375" style="stroke:#181818;stroke-width:1.0;"/><text fill="#000000" font-family="sans-serif" font-size="13" lengthAdjust="spacing" textLength="135.5098" x="2755.3574" y="1786.3716">Send email via SMTP</text><polygon fill="#181818" points="2210.9541,1829.5703,2200.9541,1833.5703,2210.9541,1837.5703,2206.9541,1833.5703" style="stroke:#181818;stroke-width:1.0;"/><line style="stroke:#181818;stroke-width:1.0;stroke-dasharray:2.0,2.0;" x1="2204.9541" x2="2742.3574" y1="1833.5703" y2="1833.5703"/><text fill="#000000" font-family="sans-serif" font-size="13" lengthAdjust="spacing" textLength="40.2632" x="2216.9541" y="1828.5044">return</text><polygon fill="#181818" points="801.4116,1858.7031,791.4116,1862.7031,801.4116,1866.7031,797.4116,1862.7031" style="stroke:#181818;stroke-width:1.0;"/><line style="stroke:#181818;stroke-width:1.0;" x1="795.4116" x2="2193.9541" y1="1862.7031" y2="1862.7031"/><text fill="#000000" font-family="sans-serif" font-size="13" lengthAdjust="spacing" textLength="40.2632" x="807.4116" y="1857.6372">return</text><line style="stroke:#181818;stroke-width:1.0;stroke-dasharray:2.0,2.0;" x1="790.4116" x2="832.4116" y1="1891.8359" y2="1891.8359"/><line style="stroke:#181818;stroke-width:1.0;stroke-dasharray:2.0,2.0;" x1="832.4116" x2="832.4116" y1="1891.8359" y2="1904.8359"/><line style="stroke:#181818;stroke-width:1.0;stroke-dasharray:2.0,2.0;" x1="791.4116" x2="832.4116" y1="1904.8359" y2="1904.8359"/><polygon fill="#181818" points="801.4116,1900.8359,791.4116,1904.8359,801.4116,1908.8359,797.4116,1904.8359" style="stroke:#181818;stroke-width:1.0;"/><text fill="#000000" font-family="sans-serif" font-size="13" lengthAdjust="spacing" textLength="40.2632" x="797.4116" y="1886.77">return</text><polygon fill="#181818" points="462.123,1929.9688,452.123,1933.9688,462.123,1937.9688,458.123,1933.9688" style="stroke:#181818;stroke-width:1.0;"/><line style="stroke:#181818;stroke-width:1.0;stroke-dasharray:2.0,2.0;" x1="456.123" x2="774.4116" y1="1933.9688" y2="1933.9688"/><text fill="#000000" font-family="sans-serif" font-size="13" lengthAdjust="spacing" textLength="40.2632" x="468.123" y="1928.9028">return</text><polygon fill="#181818" points="151.8032,2004.5,141.8032,2008.5,151.8032,2012.5,147.8032,2008.5" style="stroke:#181818;stroke-width:1.0;"/><line style="stroke:#181818;stroke-width:1.0;stroke-dasharray:2.0,2.0;" x1="145.8032" x2="445.123" y1="2008.5" y2="2008.5"/><text fill="#000000" font-family="sans-serif" font-size="13" lengthAdjust="spacing" textLength="276.3198" x="157.8032" y="1958.0356">return Ok("The user has been successfully</text><text fill="#000000" font-family="sans-serif" font-size="13" lengthAdjust="spacing" textLength="100.2549" x="157.8032" y="1973.1685">created. Please</text><text fill="#000000" font-family="sans-serif" font-size="13" lengthAdjust="spacing" textLength="192.3022" x="157.8032" y="1988.3013">verify your email to complete</text><text fill="#000000" font-family="sans-serif" font-size="13" lengthAdjust="spacing" textLength="115.9399" x="157.8032" y="2003.4341">the registration.")</text><polygon fill="#181818" points="11,2033.6328,1,2037.6328,11,2041.6328,7,2037.6328" style="stroke:#181818;stroke-width:1.0;"/><line style="stroke:#181818;stroke-width:1.0;stroke-dasharray:2.0,2.0;" x1="5" x2="134.8032" y1="2037.6328" y2="2037.6328"/><text fill="#000000" font-family="sans-serif" font-size="13" lengthAdjust="spacing" textLength="58.4238" x="17" y="2032.5669">message</text><!--SRC=[hLTDR-Cs4BthLn2-h6pOHXUBNe8qW9iuI82uDYovFMpsm4YKpKOc3OhArl- -mmz952Kv2TgRISzxCqE-6OuabJb1ers4Vfr_dN-ReutW2IaAz2SbFr7uHDv8ZhwDqGpT2e8bGHiiAM4IxGeY46OfMXG5JoZiilqe24vOI9hG4mQJqVNrbfUItDmyCsslLoE42xHTx-AbRtpBcHGypuce4SsMXjsk_uYtwoSVU1UlDM9BzhIGH2ZadUGQed_7QnyI4V56aoOqkzQGnIv-K6iVivCqf_9iNF6Sh333UniPHBM4TISoViIKrLvCHD5oUubQ6RhKohw7sit0NegRH1Glxk_xijYI4o-evEBiGflT1gtsBYHaaOtzfGYN0ClT-9QhnUDJNtoE1mrgh7tBzSlV997QSaMFP0MoXKFJzchjcpyoa4Q6RK2FcdoHufEqvzpQ2OBlV7PZT8gkq6OTnM6ff8Gb7WUBHD8tLGr6nu4n0tihK41KMemapZ9rfNtmIiz1XGCAAzZ914WaXryEq36hH0fMYQvCUnqAlYZEB0b5kneSjxN0Qv8-mbwMkJwawJFpzpUuA7voaVRyfMe5jZES5sGSu8jHs3g28A3ioV8V82fi8B0UemPULLo5QASWHKc2b7IiNL-gi2QJeBDd_Bk7e6vWYausHIU7gZOhsAmTnGldkHj5PJxW4gTfpDLfkLvrtl_Puy1DAnUkUS-Tj5GzQEzAisuz9gLQ_91BhvWwsvi3PsxEJIzhg2i_gac17wCKMmD_KNdGr6kXgK9YHNjIgtbqWbuRVa5Vnjz_-T6t-_M7xrotmiRVpClILrk36OvuJwGVhedpaxuBrM0-xDox4jzNXwUFe-eI_7YaqaYrzx9yBYCKXwybBK5aATW0Q41TwWm5poXq2dr-AYKZgddC8obW9Wd7_uk-CihIo-f2VU927zGMkd31chx_WeVEiX_IEKgd4HI4fJ1iPLGS8KlEclES8glATpftqyRsX141Tfh39OtvAs5DR_juLvCA-6uZTLymvNLV2h8JhGX2pJH5dll-jkVpMOudobxxU-10CEfidVgUej4YINW9KubzaO5qD8NMdPxVUnxhgMdmohGB_TpNJCse5JJuYcmokK8CHlqsUXu1EH5BS_CVHcq9Z5kgHYomZLH3MGLq1hPmt3MxGlU27-UBD0r73mJdyd2B1SnBEMKq6JcvwK7FkGozxg6BkIOJNe2VvebAFNIYtr2Tj1bjpVxd2N-7M- -mwStmGHvpb75rlUz5scPkJR8GSwq_PUjGUHDlQpd0Om95RnIZQ1LlV8mdqMvFRxjiHUrKJ1VNQ7YeH2rcO73fClQCBix0R-pH-ZKSnGUY-mKwm4V22o4C5MMYlf6pCi_FpymCYYbyEkS45-IPlH51ipCwyrBOuv9SlPQdd4ZuMmAVUP64hjivwDc9g_uckElkNSzcTOH7KpqjE_tVlm00]--></g></svg>