<svg xmlns="http://www.w3.org/2000/svg" xmlns:xlink="http://www.w3.org/1999/xlink" xmlns:lucid="lucid" width="982" height="562"><g transform="translate(261 21)" lucid:page-tab-id="0_0"><path d="M-500-500h1500v1500H-500z" fill="#fff"/><path d="M480 77.67a6 6 0 0 1 6-6h188a6 6 0 0 1 6 6V274a6 6 0 0 1-6 6H486a6 6 0 0 1-6-6z" stroke="#282c33" stroke-width="2" fill="#ffd9d9"/><path d="M260 77.67a6 6 0 0 1 6-6h188a6 6 0 0 1 6 6V274a6 6 0 0 1-6 6H266a6 6 0 0 1-6-6z" stroke="#282c33" stroke-width="2" fill="#c3f7c8"/><path d="M240 61a6 6 0 0 1 6-6h448a6 6 0 0 1 6 6v243a6 6 0 0 1-6 6H246a6 6 0 0 1-6-6z" stroke="#282c33" stroke-width="2" fill-opacity="0"/><path d="M240 6.33a6 6 0 0 1 6-6h166.72a6 6 0 0 1 6 6V37a6 6 0 0 1-6 6H246a6 6 0 0 1-6-6z" fill="#282c33"/><use xlink:href="#a" transform="matrix(1,0,0,1,248,10.733333333333333) translate(0 17.944444444444443)"/><use xlink:href="#b" transform="matrix(1,0,0,1,248,10.733333333333333) translate(67.77777777777777 17.944444444444443)"/><path d="M0 74.33a6 6 0 0 1 6-6h188a6 6 0 0 1 6 6v408a6 6 0 0 1-6 6H6a6 6 0 0 1-6-6z" stroke="#000" stroke-width="2" fill="#ffd9d9"/><path d="M-220 76a6 6 0 0 1 6-6h188a6 6 0 0 1 6 6v406.33a6 6 0 0 1-6 6h-188a6 6 0 0 1-6-6z" stroke="#282c33" stroke-width="2" fill="#c3f7c8"/><path d="M-240 61a6 6 0 0 1 6-6h448a6 6 0 0 1 6 6v453a6 6 0 0 1-6 6h-448a6 6 0 0 1-6-6z" stroke="#282c33" stroke-width="2" fill-opacity="0"/><path d="M-240 6.33a6 6 0 0 1 6-6h195a6 6 0 0 1 6 6V37a6 6 0 0 1-6 6h-195a6 6 0 0 1-6-6z" fill="#282c33"/><use xlink:href="#c" transform="matrix(1,0,0,1,-232,10.733333333333333) translate(0 17.944444444444443)"/><use xlink:href="#b" transform="matrix(1,0,0,1,-232,10.733333333333333) translate(96.04938271604938 17.944444444444443)"/><path d="M-200 218.33a6 6 0 0 1 6-6h148a6 6 0 0 1 6 6v48a6 6 0 0 1-6 6h-148a6 6 0 0 1-6-6z" stroke="#282c33" stroke-width="2" fill="#fff"/><use xlink:href="#d" transform="matrix(1,0,0,1,-195,217.33333333333331) translate(42.96296296296297 30.27777777777778)"/><path d="M-200 317.33a6 6 0 0 1 6-6h148a6 6 0 0 1 6 6v48a6 6 0 0 1-6 6h-148a6 6 0 0 1-6-6z" stroke="#282c33" stroke-width="2" fill="#fff"/><use xlink:href="#e" transform="matrix(1,0,0,1,-195,316.3333333333333) translate(27.561728395061735 30.27777777777778)"/><path d="M20 416a6 6 0 0 1 6-6h148a6 6 0 0 1 6 6v51.33a6 6 0 0 1-6 6H26a6 6 0 0 1-6-6z" stroke="#282c33" stroke-width="2" fill="#fff"/><use xlink:href="#f" transform="matrix(1,0,0,1,25,415) translate(27.777777777777786 21.15277777777778)"/><use xlink:href="#g" transform="matrix(1,0,0,1,25,415) translate(91.41975308641975 21.15277777777778)"/><use xlink:href="#h" transform="matrix(1,0,0,1,25,415) translate(41.97530864197531 47.81944444444444)"/><path d="M-200 116a6 6 0 0 1 6-6h148a6 6 0 0 1 6 6v51.33a6 6 0 0 1-6 6h-148a6 6 0 0 1-6-6z" stroke="#282c33" stroke-width="2" fill="#fff"/><use xlink:href="#i" transform="matrix(1,0,0,1,-195,115) translate(22.5 18.111111111111114)"/><use xlink:href="#j" transform="matrix(1,0,0,1,-195,115) translate(-1.7592592592592382 44.777777777777786)"/><path d="M-200 416.33a6 6 0 0 1 6-6h148a6 6 0 0 1 6 6v51.34a6 6 0 0 1-6 6h-148a6 6 0 0 1-6-6z" stroke="#282c33" stroke-width="2" fill="#fff"/><use xlink:href="#k" transform="matrix(1,0,0,1,-195,415.3333333333333) translate(3.73456790123457 21.15277777777778)"/><use xlink:href="#l" transform="matrix(1,0,0,1,-195,415.3333333333333) translate(22.28395061728395 47.81944444444444)"/><path d="M20 116a6 6 0 0 1 6-6h148a6 6 0 0 1 6 6v78a6 6 0 0 1-6 6H26a6 6 0 0 1-6-6z" stroke="#282c33" stroke-width="2" fill="#fff"/><use xlink:href="#m" transform="matrix(1,0,0,1,25,115) translate(26.111111111111114 20.27777777777778)"/><use xlink:href="#n" transform="matrix(1,0,0,1,25,115) translate(26.975308641975303 46.94444444444444)"/><use xlink:href="#o" transform="matrix(1,0,0,1,25,115) translate(26.97530864197531 73.61111111111111)"/><path d="M20 216a6 6 0 0 1 6-6h148a6 6 0 0 1 6 6v78a6 6 0 0 1-6 6H26a6 6 0 0 1-6-6z" stroke="#282c33" stroke-width="2" fill="#fff"/><use xlink:href="#m" transform="matrix(1,0,0,1,25,215) translate(26.111111111111114 30.27777777777778)"/><use xlink:href="#p" transform="matrix(1,0,0,1,25,215) translate(5.401234567901241 56.94444444444445)"/><path d="M280 116a6 6 0 0 1 6-6h148a6 6 0 0 1 6 6v48a6 6 0 0 1-6 6H286a6 6 0 0 1-6-6z" stroke="#282c33" stroke-width="2" fill="#fff"/><use xlink:href="#q" transform="matrix(1,0,0,1,285.0000000000001,115) translate(12.160493827160508 30.27777777777778)"/><path d="M280 186a6 6 0 0 1 6-6h148a6 6 0 0 1 6 6v48a6 6 0 0 1-6 6H286a6 6 0 0 1-6-6z" stroke="#282c33" stroke-width="2" fill="#fff"/><use xlink:href="#r" transform="matrix(1,0,0,1,285,185) translate(41.69753086419753 30.27777777777778)"/><path d="M500 116a6 6 0 0 1 6-6h148a6 6 0 0 1 6 6v48a6 6 0 0 1-6 6H506a6 6 0 0 1-6-6z" stroke="#282c33" stroke-width="2" fill="#fff"/><use xlink:href="#s" transform="matrix(1,0,0,1,505,115) translate(44.783950617283956 30.27777777777778)"/><path d="M20 316a6 6 0 0 1 6-6h148a6 6 0 0 1 6 6v78a6 6 0 0 1-6 6H26a6 6 0 0 1-6-6z" stroke="#282c33" stroke-width="2" fill="#fff"/><use xlink:href="#t" transform="matrix(1,0,0,1,25,315) translate(-3.75 31.111111111111114)"/><use xlink:href="#u" transform="matrix(1,0,0,1,25,315) translate(26.14197530864198 57.77777777777778)"/><path d="M-240 61a6 6 0 0 1 6-6H-6a6 6 0 0 1 6 6v48a6 6 0 0 1-6 6h-228a6 6 0 0 1-6-6z" fill="none"/><use xlink:href="#v" transform="matrix(1,0,0,1,-240,55) translate(62.8 33.6)"/><use xlink:href="#w" transform="matrix(1,0,0,1,-240,55) translate(105.7 33.6)"/><path d="M-260-20h980v560h-980z" stroke="#282c33" stroke-width="2" fill-opacity="0"/><path d="M-20 61a6 6 0 0 1 6-6h228a6 6 0 0 1 6 6v48a6 6 0 0 1-6 6H-14a6 6 0 0 1-6-6z" fill="none"/><g><use xlink:href="#x" transform="matrix(1,0,0,1,-20,55.000000000000014) translate(55.8 33.6)"/><use xlink:href="#w" transform="matrix(1,0,0,1,-20,55.000000000000014) translate(112.7 33.6)"/></g><path d="M240 61a6 6 0 0 1 6-6h228a6 6 0 0 1 6 6v48a6 6 0 0 1-6 6H246a6 6 0 0 1-6-6z" fill="none"/><g><use xlink:href="#v" transform="matrix(1,0,0,1,240,55) translate(62.8 33.6)"/><use xlink:href="#w" transform="matrix(1,0,0,1,240,55) translate(105.7 33.6)"/></g><path d="M460 61a6 6 0 0 1 6-6h228a6 6 0 0 1 6 6v48a6 6 0 0 1-6 6H466a6 6 0 0 1-6-6z" fill="none"/><g><use xlink:href="#x" transform="matrix(1,0,0,1,460,55) translate(55.8 33.6)"/><use xlink:href="#w" transform="matrix(1,0,0,1,460,55) translate(112.7 33.6)"/></g><path d="M460 466a6 6 0 0 1 6-6h228a6 6 0 0 1 6 6v48a6 6 0 0 1-6 6H466a6 6 0 0 1-6-6z" fill="none"/><g><use xlink:href="#y" transform="matrix(1,0,0,1,460,460) translate(159.1 52.8)"/><use xlink:href="#z" transform="matrix(1,0,0,1,460,460) translate(189.05 52.8)"/><use xlink:href="#A" transform="matrix(1,0,0,1,460,460) translate(200 52.8)"/></g><defs><path fill="#fff" d="M232-93c-1 65-40 97-104 97C67 4 28-28 28-90v-158h33c8 89-33 224 67 224 102 0 64-133 71-224h33v155" id="B"/><path fill="#fff" d="M185-189c-5-48-123-54-124 2 14 75 158 14 163 119 3 78-121 87-175 55-17-10-28-26-33-46l33-7c5 56 141 63 141-1 0-78-155-14-162-118-5-82 145-84 179-34 5 7 8 16 11 25" id="C"/><path fill="#fff" d="M30 0v-248h187v28H63v79h144v27H63v87h162V0H30" id="D"/><path fill="#fff" d="M233-177c-1 41-23 64-60 70L243 0h-38l-65-103H63V0H30v-248c88 3 205-21 203 71zM63-129c60-2 137 13 137-47 0-61-80-42-137-45v92" id="E"/><g id="a"><use transform="matrix(0.06172839506172839,0,0,0.06172839506172839,0,0)" xlink:href="#B"/><use transform="matrix(0.06172839506172839,0,0,0.06172839506172839,15.987654320987653,0)" xlink:href="#C"/><use transform="matrix(0.06172839506172839,0,0,0.06172839506172839,30.80246913580247,0)" xlink:href="#D"/><use transform="matrix(0.06172839506172839,0,0,0.06172839506172839,45.61728395061728,0)" xlink:href="#E"/></g><path fill="#fff" d="M30-248c87 1 191-15 191 75 0 78-77 80-158 76V0H30v-248zm33 125c57 0 124 11 124-50 0-59-68-47-124-48v98" id="F"/><path fill="#fff" d="M140-251c81 0 123 46 123 126C263-46 219 4 140 4 59 4 17-45 17-125s42-126 123-126zm0 227c63 0 89-41 89-101s-29-99-89-99c-61 0-89 39-89 99S79-25 140-24" id="G"/><path fill="#fff" d="M63-220v92h138v28H63V0H30v-248h175v28H63" id="H"/><path fill="#fff" d="M33 0v-248h34V0H33" id="I"/><path fill="#fff" d="M30 0v-248h33v221h125V0H30" id="J"/><g id="b"><use transform="matrix(0.06172839506172839,0,0,0.06172839506172839,0,0)" xlink:href="#F"/><use transform="matrix(0.06172839506172839,0,0,0.06172839506172839,14.814814814814813,0)" xlink:href="#E"/><use transform="matrix(0.06172839506172839,0,0,0.06172839506172839,30.80246913580247,0)" xlink:href="#G"/><use transform="matrix(0.06172839506172839,0,0,0.06172839506172839,48.08641975308642,0)" xlink:href="#H"/><use transform="matrix(0.06172839506172839,0,0,0.06172839506172839,61.60493827160494,0)" xlink:href="#I"/><use transform="matrix(0.06172839506172839,0,0,0.06172839506172839,67.77777777777777,0)" xlink:href="#J"/><use transform="matrix(0.06172839506172839,0,0,0.06172839506172839,80.12345679012346,0)" xlink:href="#D"/></g><path fill="#fff" d="M205 0l-28-72H64L36 0H1l101-248h38L239 0h-34zm-38-99l-47-123c-12 45-31 82-46 123h93" id="K"/><path fill="#fff" d="M127-220V0H93v-220H8v-28h204v28h-85" id="L"/><path fill="#fff" d="M190 0L58-211 59 0H30v-248h39L202-35l-2-213h31V0h-41" id="M"/><g id="c"><use transform="matrix(0.06172839506172839,0,0,0.06172839506172839,0,0)" xlink:href="#F"/><use transform="matrix(0.06172839506172839,0,0,0.06172839506172839,13.148148148148147,0)" xlink:href="#K"/><use transform="matrix(0.06172839506172839,0,0,0.06172839506172839,26.296296296296294,0)" xlink:href="#L"/><use transform="matrix(0.06172839506172839,0,0,0.06172839506172839,39.81481481481481,0)" xlink:href="#I"/><use transform="matrix(0.06172839506172839,0,0,0.06172839506172839,45.98765432098765,0)" xlink:href="#D"/><use transform="matrix(0.06172839506172839,0,0,0.06172839506172839,60.80246913580247,0)" xlink:href="#M"/><use transform="matrix(0.06172839506172839,0,0,0.06172839506172839,76.79012345679013,0)" xlink:href="#L"/></g><path fill="#3a414a" d="M190 0L58-211 59 0H30v-248h39L202-35l-2-213h31V0h-41" id="N"/><path fill="#3a414a" d="M205 0l-28-72H64L36 0H1l101-248h38L239 0h-34zm-38-99l-47-123c-12 45-31 82-46 123h93" id="O"/><path fill="#3a414a" d="M240 0l2-218c-23 76-54 145-80 218h-23L58-218 59 0H30v-248h44l77 211c21-75 51-140 76-211h43V0h-30" id="P"/><path fill="#3a414a" d="M30 0v-248h187v28H63v79h144v27H63v87h162V0H30" id="Q"/><g id="d"><use transform="matrix(0.06172839506172839,0,0,0.06172839506172839,0,0)" xlink:href="#N"/><use transform="matrix(0.06172839506172839,0,0,0.06172839506172839,15.987654320987653,0)" xlink:href="#O"/><use transform="matrix(0.06172839506172839,0,0,0.06172839506172839,30.80246913580247,0)" xlink:href="#P"/><use transform="matrix(0.06172839506172839,0,0,0.06172839506172839,49.25925925925925,0)" xlink:href="#Q"/></g><path fill="#3a414a" d="M143 4C61 4 22-44 18-125c-5-107 100-154 193-111 17 8 29 25 37 43l-32 9c-13-25-37-40-76-40-61 0-88 39-88 99 0 61 29 100 91 101 35 0 62-11 79-27v-45h-74v-28h105v86C228-13 192 4 143 4" id="R"/><path fill="#3a414a" d="M30-248c118-7 216 8 213 122C240-48 200 0 122 0H30v-248zM63-27c89 8 146-16 146-99s-60-101-146-95v194" id="S"/><path fill="#3a414a" d="M233-177c-1 41-23 64-60 70L243 0h-38l-65-103H63V0H30v-248c88 3 205-21 203 71zM63-129c60-2 137 13 137-47 0-61-80-42-137-45v92" id="T"/><g id="e"><use transform="matrix(0.06172839506172839,0,0,0.06172839506172839,0,0)" xlink:href="#R"/><use transform="matrix(0.06172839506172839,0,0,0.06172839506172839,17.28395061728395,0)" xlink:href="#Q"/><use transform="matrix(0.06172839506172839,0,0,0.06172839506172839,32.09876543209876,0)" xlink:href="#N"/><use transform="matrix(0.06172839506172839,0,0,0.06172839506172839,48.08641975308641,0)" xlink:href="#S"/><use transform="matrix(0.06172839506172839,0,0,0.06172839506172839,64.07407407407406,0)" xlink:href="#Q"/><use transform="matrix(0.06172839506172839,0,0,0.06172839506172839,78.88888888888887,0)" xlink:href="#T"/></g><path fill="#3a414a" d="M127-220V0H93v-220H8v-28h204v28h-85" id="U"/><g id="f"><use transform="matrix(0.06172839506172839,0,0,0.06172839506172839,0,0)" xlink:href="#S"/><use transform="matrix(0.06172839506172839,0,0,0.06172839506172839,15.987654320987653,0)" xlink:href="#O"/><use transform="matrix(0.06172839506172839,0,0,0.06172839506172839,29.1358024691358,0)" xlink:href="#U"/><use transform="matrix(0.06172839506172839,0,0,0.06172839506172839,42.654320987654316,0)" xlink:href="#Q"/></g><path fill="#3a414a" d="M140-251c81 0 123 46 123 126C263-46 219 4 140 4 59 4 17-45 17-125s42-126 123-126zm0 227c63 0 89-41 89-101s-29-99-89-99c-61 0-89 39-89 99S79-25 140-24" id="V"/><path fill="#3a414a" d="M63-220v92h138v28H63V0H30v-248h175v28H63" id="W"/><g id="g"><use transform="matrix(0.06172839506172839,0,0,0.06172839506172839,0,0)" xlink:href="#V"/><use transform="matrix(0.06172839506172839,0,0,0.06172839506172839,17.28395061728395,0)" xlink:href="#W"/></g><path fill="#3a414a" d="M160-131c35 5 61 23 61 61C221 17 115-2 30 0v-248c76 3 177-17 177 60 0 33-19 50-47 57zm-97-11c50-1 110 9 110-42 0-47-63-36-110-37v79zm0 115c55-2 124 14 124-45 0-56-70-42-124-44v89" id="X"/><path fill="#3a414a" d="M33 0v-248h34V0H33" id="Y"/><path fill="#3a414a" d="M197 0v-115H63V0H30v-248h33v105h134v-105h34V0h-34" id="Z"/><g id="h"><use transform="matrix(0.06172839506172839,0,0,0.06172839506172839,0,0)" xlink:href="#X"/><use transform="matrix(0.06172839506172839,0,0,0.06172839506172839,14.814814814814813,0)" xlink:href="#Y"/><use transform="matrix(0.06172839506172839,0,0,0.06172839506172839,20.98765432098765,0)" xlink:href="#T"/><use transform="matrix(0.06172839506172839,0,0,0.06172839506172839,36.54320987654321,0)" xlink:href="#U"/><use transform="matrix(0.06172839506172839,0,0,0.06172839506172839,50.06172839506173,0)" xlink:href="#Z"/></g><path fill="#3a414a" d="M212-179c-10-28-35-45-73-45-59 0-87 40-87 99 0 60 29 101 89 101 43 0 62-24 78-52l27 14C228-24 195 4 139 4 59 4 22-46 18-125c-6-104 99-153 187-111 19 9 31 26 39 46" id="aa"/><g id="i"><use transform="matrix(0.06172839506172839,0,0,0.06172839506172839,0,0)" xlink:href="#aa"/><use transform="matrix(0.06172839506172839,0,0,0.06172839506172839,15.987654320987653,0)" xlink:href="#V"/><use transform="matrix(0.06172839506172839,0,0,0.06172839506172839,33.2716049382716,0)" xlink:href="#N"/><use transform="matrix(0.06172839506172839,0,0,0.06172839506172839,49.25925925925925,0)" xlink:href="#U"/><use transform="matrix(0.06172839506172839,0,0,0.06172839506172839,61.11111111111111,0)" xlink:href="#O"/><use transform="matrix(0.06172839506172839,0,0,0.06172839506172839,75.92592592592592,0)" xlink:href="#aa"/><use transform="matrix(0.06172839506172839,0,0,0.06172839506172839,91.91358024691358,0)" xlink:href="#U"/></g><g id="j"><use transform="matrix(0.06172839506172839,0,0,0.06172839506172839,0,0)" xlink:href="#Y"/><use transform="matrix(0.06172839506172839,0,0,0.06172839506172839,6.172839506172839,0)" xlink:href="#N"/><use transform="matrix(0.06172839506172839,0,0,0.06172839506172839,22.160493827160494,0)" xlink:href="#W"/><use transform="matrix(0.06172839506172839,0,0,0.06172839506172839,35.67901234567901,0)" xlink:href="#V"/><use transform="matrix(0.06172839506172839,0,0,0.06172839506172839,52.96296296296296,0)" xlink:href="#T"/><use transform="matrix(0.06172839506172839,0,0,0.06172839506172839,68.95061728395062,0)" xlink:href="#P"/><use transform="matrix(0.06172839506172839,0,0,0.06172839506172839,87.4074074074074,0)" xlink:href="#O"/><use transform="matrix(0.06172839506172839,0,0,0.06172839506172839,100.55555555555554,0)" xlink:href="#U"/><use transform="matrix(0.06172839506172839,0,0,0.06172839506172839,114.07407407407406,0)" xlink:href="#Y"/><use transform="matrix(0.06172839506172839,0,0,0.06172839506172839,120.2469135802469,0)" xlink:href="#V"/><use transform="matrix(0.06172839506172839,0,0,0.06172839506172839,137.53086419753083,0)" xlink:href="#N"/></g><path fill="#3a414a" d="M137-103V0h-34v-103L8-248h37l75 118 75-118h37" id="ab"/><g id="k"><use transform="matrix(0.06172839506172839,0,0,0.06172839506172839,0,0)" xlink:href="#Q"/><use transform="matrix(0.06172839506172839,0,0,0.06172839506172839,14.814814814814813,0)" xlink:href="#P"/><use transform="matrix(0.06172839506172839,0,0,0.06172839506172839,33.2716049382716,0)" xlink:href="#Q"/><use transform="matrix(0.06172839506172839,0,0,0.06172839506172839,48.08641975308642,0)" xlink:href="#T"/><use transform="matrix(0.06172839506172839,0,0,0.06172839506172839,64.07407407407408,0)" xlink:href="#R"/><use transform="matrix(0.06172839506172839,0,0,0.06172839506172839,81.35802469135803,0)" xlink:href="#Q"/><use transform="matrix(0.06172839506172839,0,0,0.06172839506172839,96.17283950617283,0)" xlink:href="#N"/><use transform="matrix(0.06172839506172839,0,0,0.06172839506172839,112.1604938271605,0)" xlink:href="#aa"/><use transform="matrix(0.06172839506172839,0,0,0.06172839506172839,128.14814814814815,0)" xlink:href="#ab"/></g><g id="l"><use transform="matrix(0.06172839506172839,0,0,0.06172839506172839,0,0)" xlink:href="#aa"/><use transform="matrix(0.06172839506172839,0,0,0.06172839506172839,15.987654320987653,0)" xlink:href="#V"/><use transform="matrix(0.06172839506172839,0,0,0.06172839506172839,33.2716049382716,0)" xlink:href="#N"/><use transform="matrix(0.06172839506172839,0,0,0.06172839506172839,49.25925925925925,0)" xlink:href="#U"/><use transform="matrix(0.06172839506172839,0,0,0.06172839506172839,61.11111111111111,0)" xlink:href="#O"/><use transform="matrix(0.06172839506172839,0,0,0.06172839506172839,75.92592592592592,0)" xlink:href="#aa"/><use transform="matrix(0.06172839506172839,0,0,0.06172839506172839,91.91358024691358,0)" xlink:href="#U"/></g><path fill="#3a414a" d="M30 0v-248h33v221h125V0H30" id="ac"/><g id="m"><use transform="matrix(0.06172839506172839,0,0,0.06172839506172839,0,0)" xlink:href="#P"/><use transform="matrix(0.06172839506172839,0,0,0.06172839506172839,18.456790123456788,0)" xlink:href="#Q"/><use transform="matrix(0.06172839506172839,0,0,0.06172839506172839,33.2716049382716,0)" xlink:href="#S"/><use transform="matrix(0.06172839506172839,0,0,0.06172839506172839,49.25925925925925,0)" xlink:href="#Y"/><use transform="matrix(0.06172839506172839,0,0,0.06172839506172839,55.432098765432094,0)" xlink:href="#aa"/><use transform="matrix(0.06172839506172839,0,0,0.06172839506172839,71.41975308641975,0)" xlink:href="#O"/><use transform="matrix(0.06172839506172839,0,0,0.06172839506172839,86.23456790123456,0)" xlink:href="#ac"/></g><g id="n"><use transform="matrix(0.06172839506172839,0,0,0.06172839506172839,0,0)" xlink:href="#T"/><use transform="matrix(0.06172839506172839,0,0,0.06172839506172839,15.987654320987653,0)" xlink:href="#Q"/><use transform="matrix(0.06172839506172839,0,0,0.06172839506172839,30.80246913580247,0)" xlink:href="#aa"/><use transform="matrix(0.06172839506172839,0,0,0.06172839506172839,46.79012345679012,0)" xlink:href="#V"/><use transform="matrix(0.06172839506172839,0,0,0.06172839506172839,64.07407407407408,0)" xlink:href="#T"/><use transform="matrix(0.06172839506172839,0,0,0.06172839506172839,80.06172839506173,0)" xlink:href="#S"/></g><path fill="#3a414a" d="M232-93c-1 65-40 97-104 97C67 4 28-28 28-90v-158h33c8 89-33 224 67 224 102 0 64-133 71-224h33v155" id="ad"/><g id="o"><use transform="matrix(0.06172839506172839,0,0,0.06172839506172839,0,0)" xlink:href="#N"/><use transform="matrix(0.06172839506172839,0,0,0.06172839506172839,15.987654320987653,0)" xlink:href="#ad"/><use transform="matrix(0.06172839506172839,0,0,0.06172839506172839,31.975308641975307,0)" xlink:href="#P"/><use transform="matrix(0.06172839506172839,0,0,0.06172839506172839,50.432098765432094,0)" xlink:href="#X"/><use transform="matrix(0.06172839506172839,0,0,0.06172839506172839,65.24691358024691,0)" xlink:href="#Q"/><use transform="matrix(0.06172839506172839,0,0,0.06172839506172839,80.06172839506172,0)" xlink:href="#T"/></g><path fill="#3a414a" d="M185-189c-5-48-123-54-124 2 14 75 158 14 163 119 3 78-121 87-175 55-17-10-28-26-33-46l33-7c5 56 141 63 141-1 0-78-155-14-162-118-5-82 145-84 179-34 5 7 8 16 11 25" id="ae"/><g id="p"><use transform="matrix(0.06172839506172839,0,0,0.06172839506172839,0,0)" xlink:href="#aa"/><use transform="matrix(0.06172839506172839,0,0,0.06172839506172839,15.987654320987653,0)" xlink:href="#V"/><use transform="matrix(0.06172839506172839,0,0,0.06172839506172839,33.2716049382716,0)" xlink:href="#N"/><use transform="matrix(0.06172839506172839,0,0,0.06172839506172839,49.25925925925925,0)" xlink:href="#S"/><use transform="matrix(0.06172839506172839,0,0,0.06172839506172839,65.24691358024691,0)" xlink:href="#Y"/><use transform="matrix(0.06172839506172839,0,0,0.06172839506172839,71.41975308641975,0)" xlink:href="#U"/><use transform="matrix(0.06172839506172839,0,0,0.06172839506172839,84.93827160493827,0)" xlink:href="#Y"/><use transform="matrix(0.06172839506172839,0,0,0.06172839506172839,91.1111111111111,0)" xlink:href="#V"/><use transform="matrix(0.06172839506172839,0,0,0.06172839506172839,108.39506172839505,0)" xlink:href="#N"/><use transform="matrix(0.06172839506172839,0,0,0.06172839506172839,124.38271604938271,0)" xlink:href="#ae"/></g><g id="q"><use transform="matrix(0.06172839506172839,0,0,0.06172839506172839,0,0)" xlink:href="#ad"/><use transform="matrix(0.06172839506172839,0,0,0.06172839506172839,15.987654320987653,0)" xlink:href="#ae"/><use transform="matrix(0.06172839506172839,0,0,0.06172839506172839,30.80246913580247,0)" xlink:href="#Q"/><use transform="matrix(0.06172839506172839,0,0,0.06172839506172839,45.61728395061728,0)" xlink:href="#T"/><use transform="matrix(0.06172839506172839,0,0,0.06172839506172839,61.60493827160493,0)" xlink:href="#N"/><use transform="matrix(0.06172839506172839,0,0,0.06172839506172839,77.59259259259258,0)" xlink:href="#O"/><use transform="matrix(0.06172839506172839,0,0,0.06172839506172839,92.40740740740739,0)" xlink:href="#P"/><use transform="matrix(0.06172839506172839,0,0,0.06172839506172839,110.86419753086417,0)" xlink:href="#Q"/></g><g id="r"><use transform="matrix(0.06172839506172839,0,0,0.06172839506172839,0,0)" xlink:href="#Q"/><use transform="matrix(0.06172839506172839,0,0,0.06172839506172839,14.814814814814813,0)" xlink:href="#P"/><use transform="matrix(0.06172839506172839,0,0,0.06172839506172839,33.2716049382716,0)" xlink:href="#O"/><use transform="matrix(0.06172839506172839,0,0,0.06172839506172839,48.08641975308642,0)" xlink:href="#Y"/><use transform="matrix(0.06172839506172839,0,0,0.06172839506172839,54.25925925925926,0)" xlink:href="#ac"/></g><g id="s"><use transform="matrix(0.06172839506172839,0,0,0.06172839506172839,0,0)" xlink:href="#T"/><use transform="matrix(0.06172839506172839,0,0,0.06172839506172839,15.987654320987653,0)" xlink:href="#V"/><use transform="matrix(0.06172839506172839,0,0,0.06172839506172839,33.2716049382716,0)" xlink:href="#ac"/><use transform="matrix(0.06172839506172839,0,0,0.06172839506172839,45.61728395061728,0)" xlink:href="#Q"/></g><path fill="#3a414a" d="M30-248c87 1 191-15 191 75 0 78-77 80-158 76V0H30v-248zm33 125c57 0 124 11 124-50 0-59-68-47-124-48v98" id="af"/><g id="t"><use transform="matrix(0.05555555555555555,0,0,0.05555555555555555,0,0)" xlink:href="#O"/><use transform="matrix(0.05555555555555555,0,0,0.05555555555555555,13.333333333333332,0)" xlink:href="#af"/><use transform="matrix(0.05555555555555555,0,0,0.05555555555555555,26.666666666666664,0)" xlink:href="#af"/><use transform="matrix(0.05555555555555555,0,0,0.05555555555555555,40,0)" xlink:href="#V"/><use transform="matrix(0.05555555555555555,0,0,0.05555555555555555,55.55555555555556,0)" xlink:href="#Y"/><use transform="matrix(0.05555555555555555,0,0,0.05555555555555555,61.11111111111112,0)" xlink:href="#N"/><use transform="matrix(0.05555555555555555,0,0,0.05555555555555555,75.5,0)" xlink:href="#U"/><use transform="matrix(0.05555555555555555,0,0,0.05555555555555555,87.66666666666667,0)" xlink:href="#Q"/><use transform="matrix(0.05555555555555555,0,0,0.05555555555555555,101,0)" xlink:href="#P"/><use transform="matrix(0.05555555555555555,0,0,0.05555555555555555,117.6111111111111,0)" xlink:href="#Q"/><use transform="matrix(0.05555555555555555,0,0,0.05555555555555555,130.94444444444446,0)" xlink:href="#N"/><use transform="matrix(0.05555555555555555,0,0,0.05555555555555555,145.33333333333334,0)" xlink:href="#U"/></g><g id="u"><use transform="matrix(0.06172839506172839,0,0,0.06172839506172839,0,0)" xlink:href="#Z"/><use transform="matrix(0.06172839506172839,0,0,0.06172839506172839,15.987654320987653,0)" xlink:href="#Y"/><use transform="matrix(0.06172839506172839,0,0,0.06172839506172839,22.160493827160494,0)" xlink:href="#ae"/><use transform="matrix(0.06172839506172839,0,0,0.06172839506172839,36.9753086419753,0)" xlink:href="#U"/><use transform="matrix(0.06172839506172839,0,0,0.06172839506172839,50.06172839506172,0)" xlink:href="#V"/><use transform="matrix(0.06172839506172839,0,0,0.06172839506172839,67.34567901234567,0)" xlink:href="#T"/><use transform="matrix(0.06172839506172839,0,0,0.06172839506172839,82.90123456790123,0)" xlink:href="#ab"/></g><path d="M212-179c-10-28-35-45-73-45-59 0-87 40-87 99 0 60 29 101 89 101 43 0 62-24 78-52l27 14C228-24 195 4 139 4 59 4 22-46 18-125c-6-104 99-153 187-111 19 9 31 26 39 46" id="ag"/><path d="M205 0l-28-72H64L36 0H1l101-248h38L239 0h-34zm-38-99l-47-123c-12 45-31 82-46 123h93" id="ah"/><path d="M190 0L58-211 59 0H30v-248h39L202-35l-2-213h31V0h-41" id="ai"/><g id="v"><use transform="matrix(0.05,0,0,0.05,0,0)" xlink:href="#ag"/><use transform="matrix(0.05,0,0,0.05,12.950000000000001,0)" xlink:href="#ah"/><use transform="matrix(0.05,0,0,0.05,24.950000000000003,0)" xlink:href="#ai"/></g><path d="M232-93c-1 65-40 97-104 97C67 4 28-28 28-90v-158h33c8 89-33 224 67 224 102 0 64-133 71-224h33v155" id="aj"/><path d="M30-248c87 1 191-15 191 75 0 78-77 80-158 76V0H30v-248zm33 125c57 0 124 11 124-50 0-59-68-47-124-48v98" id="ak"/><path d="M30-248c118-7 216 8 213 122C240-48 200 0 122 0H30v-248zM63-27c89 8 146-16 146-99s-60-101-146-95v194" id="al"/><path d="M127-220V0H93v-220H8v-28h204v28h-85" id="am"/><path d="M30 0v-248h187v28H63v79h144v27H63v87h162V0H30" id="an"/><g id="w"><use transform="matrix(0.05,0,0,0.05,0,0)" xlink:href="#aj"/><use transform="matrix(0.05,0,0,0.05,12.950000000000001,0)" xlink:href="#ak"/><use transform="matrix(0.05,0,0,0.05,24.950000000000003,0)" xlink:href="#al"/><use transform="matrix(0.05,0,0,0.05,37.900000000000006,0)" xlink:href="#ah"/><use transform="matrix(0.05,0,0,0.05,48.550000000000004,0)" xlink:href="#am"/><use transform="matrix(0.05,0,0,0.05,59.5,0)" xlink:href="#an"/></g><path d="M47-170H22l-4-78h33" id="ao"/><g id="x"><use transform="matrix(0.05,0,0,0.05,0,0)" xlink:href="#ag"/><use transform="matrix(0.05,0,0,0.05,12.950000000000001,0)" xlink:href="#ah"/><use transform="matrix(0.05,0,0,0.05,24.950000000000003,0)" xlink:href="#ai"/><use transform="matrix(0.05,0,0,0.05,37.900000000000006,0)" xlink:href="#ao"/><use transform="matrix(0.05,0,0,0.05,41.300000000000004,0)" xlink:href="#am"/></g><path d="M185-189c-5-48-123-54-124 2 14 75 158 14 163 119 3 78-121 87-175 55-17-10-28-26-33-46l33-7c5 56 141 63 141-1 0-78-155-14-162-118-5-82 145-84 179-34 5 7 8 16 11 25" id="ap"/><g id="y"><use transform="matrix(0.05,0,0,0.05,0,0)" xlink:href="#aj"/><use transform="matrix(0.05,0,0,0.05,12.950000000000001,0)" xlink:href="#ap"/></g><path d="M16-82v-28h88v28H16" id="aq"/><use transform="matrix(0.05,0,0,0.05,0,0)" xlink:href="#aq" id="z"/><path d="M54-142c48-35 137-8 131 61C196 18 31 33 14-55l32-4c7 23 22 37 52 37 35-1 51-22 54-58 4-55-73-65-99-34H22l8-134h141v27H59" id="ar"/><path d="M33 0v-38h34V0H33" id="as"/><path d="M27 0v-27h64v-190l-56 39v-29l58-41h29v221h61V0H27" id="at"/><path d="M155-56V0h-30v-56H8v-25l114-167h33v167h35v25h-35zm-30-156c-27 46-58 90-88 131h88v-131" id="au"/><g id="A"><use transform="matrix(0.05,0,0,0.05,0,0)" xlink:href="#ar"/><use transform="matrix(0.05,0,0,0.05,10,0)" xlink:href="#as"/><use transform="matrix(0.05,0,0,0.05,15,0)" xlink:href="#at"/><use transform="matrix(0.05,0,0,0.05,25,0)" xlink:href="#as"/><use transform="matrix(0.05,0,0,0.05,30,0)" xlink:href="#au"/></g></defs></g></svg>