<?xml version="1.0" encoding="UTF-8" standalone="no"?><svg xmlns="http://www.w3.org/2000/svg" xmlns:xlink="http://www.w3.org/1999/xlink" contentStyleType="text/css" height="473px" preserveAspectRatio="none" style="width:406px;height:473px;background:#FFFFFF;" version="1.1" viewBox="0 0 406 473" width="406px" zoomAndPan="magnify"><defs/><g><text fill="#000000" font-family="sans-serif" font-size="14" font-weight="bold" lengthAdjust="spacing" textLength="231" x="86.75" y="29.5332">US 5.1.4. - Process View [Level 1]</text><rect fill="#FFFFFF" height="226.9375" style="stroke:#181818;stroke-width:1.0;" width="10" x="33.5" y="138.7656"/><rect fill="#FFFFFF" height="39.1563" style="stroke:#181818;stroke-width:1.0;" width="10" x="302.5" y="169.9219"/><rect fill="#FFFFFF" height="39.1563" style="stroke:#181818;stroke-width:1.0;" width="10" x="302.5" y="248.2344"/><rect fill="#FFFFFF" height="39.1563" style="stroke:#181818;stroke-width:1.0;" width="10" x="302.5" y="326.5469"/><line style="stroke:#181818;stroke-width:0.5;stroke-dasharray:5.0,5.0;" x1="38" x2="38" y1="128.7656" y2="383.7031"/><line style="stroke:#181818;stroke-width:0.5;stroke-dasharray:5.0,5.0;" x1="307.5" x2="307.5" y1="128.7656" y2="383.7031"/><text fill="#000000" font-family="sans-serif" font-size="20" lengthAdjust="spacing" textLength="61" x="5" y="124.3711">Patient</text><ellipse cx="38.5" cy="52.1094" fill="#E2E2F0" rx="8" ry="8" style="stroke:#181818;stroke-width:0.5;"/><path d="M38.5,60.1094 L38.5,87.1094 M25.5,68.1094 L51.5,68.1094 M38.5,87.1094 L25.5,102.1094 M38.5,87.1094 L51.5,102.1094 " fill="none" style="stroke:#181818;stroke-width:0.5;"/><text fill="#000000" font-family="sans-serif" font-size="20" lengthAdjust="spacing" textLength="61" x="5" y="403.4648">Patient</text><ellipse cx="38.5" cy="416.3594" fill="#E2E2F0" rx="8" ry="8" style="stroke:#181818;stroke-width:0.5;"/><path d="M38.5,424.3594 L38.5,451.3594 M25.5,432.3594 L51.5,432.3594 M38.5,451.3594 L25.5,466.3594 M38.5,451.3594 L51.5,466.3594 " fill="none" style="stroke:#181818;stroke-width:0.5;"/><rect fill="#E2E2F0" height="64.3125" rx="2.5" ry="2.5" style="stroke:#181818;stroke-width:0.5;" width="186" x="214.5" y="63.4531"/><text fill="#000000" font-family="sans-serif" font-size="20" lengthAdjust="spacing" textLength="130" x="242.5" y="91.2148">«system (C4)»</text><text fill="#000000" font-family="sans-serif" font-size="20" lengthAdjust="spacing" textLength="166" x="227.5" y="116.3711">Healthcare System</text><rect fill="#E2E2F0" height="64.3125" rx="2.5" ry="2.5" style="stroke:#181818;stroke-width:0.5;" width="186" x="214.5" y="382.7031"/><text fill="#000000" font-family="sans-serif" font-size="20" lengthAdjust="spacing" textLength="130" x="242.5" y="410.4648">«system (C4)»</text><text fill="#000000" font-family="sans-serif" font-size="20" lengthAdjust="spacing" textLength="166" x="227.5" y="435.6211">Healthcare System</text><rect fill="#FFFFFF" height="226.9375" style="stroke:#181818;stroke-width:1.0;" width="10" x="33.5" y="138.7656"/><rect fill="#FFFFFF" height="39.1563" style="stroke:#181818;stroke-width:1.0;" width="10" x="302.5" y="169.9219"/><rect fill="#FFFFFF" height="39.1563" style="stroke:#181818;stroke-width:1.0;" width="10" x="302.5" y="248.2344"/><rect fill="#FFFFFF" height="39.1563" style="stroke:#181818;stroke-width:1.0;" width="10" x="302.5" y="326.5469"/><polygon fill="#181818" points="290.5,165.9219,300.5,169.9219,290.5,173.9219,294.5,169.9219" style="stroke:#181818;stroke-width:1.0;"/><line style="stroke:#181818;stroke-width:1.0;" x1="43.5" x2="296.5" y1="169.9219" y2="169.9219"/><text fill="#000000" font-family="sans-serif" font-size="20" font-weight="bold" lengthAdjust="spacing" textLength="11" x="50.5" y="163.5273">1</text><text fill="#000000" font-family="sans-serif" font-size="20" lengthAdjust="spacing" textLength="164" x="65.5" y="163.5273">update user profile</text><polygon fill="#181818" points="54.5,205.0781,44.5,209.0781,54.5,213.0781,50.5,209.0781" style="stroke:#181818;stroke-width:1.0;"/><line style="stroke:#181818;stroke-width:1.0;stroke-dasharray:2.0,2.0;" x1="48.5" x2="306.5" y1="209.0781" y2="209.0781"/><text fill="#000000" font-family="sans-serif" font-size="20" font-weight="bold" lengthAdjust="spacing" textLength="11" x="60.5" y="202.6836">2</text><text fill="#000000" font-family="sans-serif" font-size="20" lengthAdjust="spacing" textLength="215" x="75.5" y="202.6836">select information to edit</text><polygon fill="#181818" points="290.5,244.2344,300.5,248.2344,290.5,252.2344,294.5,248.2344" style="stroke:#181818;stroke-width:1.0;"/><line style="stroke:#181818;stroke-width:1.0;stroke-dasharray:2.0,2.0;" x1="43.5" x2="296.5" y1="248.2344" y2="248.2344"/><text fill="#000000" font-family="sans-serif" font-size="20" font-weight="bold" lengthAdjust="spacing" textLength="11" x="50.5" y="241.8398">3</text><text fill="#000000" font-family="sans-serif" font-size="20" lengthAdjust="spacing" textLength="225" x="65.5" y="241.8398">selects information to edit</text><polygon fill="#181818" points="54.5,283.3906,44.5,287.3906,54.5,291.3906,50.5,287.3906" style="stroke:#181818;stroke-width:1.0;"/><line style="stroke:#181818;stroke-width:1.0;stroke-dasharray:2.0,2.0;" x1="48.5" x2="306.5" y1="287.3906" y2="287.3906"/><text fill="#000000" font-family="sans-serif" font-size="20" font-weight="bold" lengthAdjust="spacing" textLength="11" x="60.5" y="280.9961">4</text><text fill="#000000" font-family="sans-serif" font-size="20" lengthAdjust="spacing" textLength="143" x="75.5" y="280.9961">input information</text><polygon fill="#181818" points="290.5,322.5469,300.5,326.5469,290.5,330.5469,294.5,326.5469" style="stroke:#181818;stroke-width:1.0;"/><line style="stroke:#181818;stroke-width:1.0;stroke-dasharray:2.0,2.0;" x1="43.5" x2="296.5" y1="326.5469" y2="326.5469"/><text fill="#000000" font-family="sans-serif" font-size="20" font-weight="bold" lengthAdjust="spacing" textLength="11" x="50.5" y="320.1523">5</text><text fill="#000000" font-family="sans-serif" font-size="20" lengthAdjust="spacing" textLength="153" x="65.5" y="320.1523">inputs information</text><polygon fill="#181818" points="49.5,361.7031,39.5,365.7031,49.5,369.7031,45.5,365.7031" style="stroke:#181818;stroke-width:1.0;"/><line style="stroke:#181818;stroke-width:1.0;stroke-dasharray:2.0,2.0;" x1="43.5" x2="306.5" y1="365.7031" y2="365.7031"/><text fill="#000000" font-family="sans-serif" font-size="20" font-weight="bold" lengthAdjust="spacing" textLength="11" x="55.5" y="359.3086">6</text><text fill="#000000" font-family="sans-serif" font-size="20" lengthAdjust="spacing" textLength="152" x="70.5" y="359.3086">success/insucess</text><!--SRC=[XP51IyGm48Nl-HMFdlJGwifwMPQ2AE91OQ4eY7g8wHJ3fab99YlwwqqYg1LP3u79p7lpJIPXg-qalHoDKrlgqTCWe-5BPxdJxuIJOo5Oio5KjnrEcqMpR51ZuvsY472dwHKFrxGZWyLJ9OICx6mSdycdMB7ps4ZMP1aouEpYHYGOQwKdcLBLUXtU0jE8W_FbOTi-MboHDFoYf2TqfLHbOtVVbNPw9vbActHGjxc05UBKvtmCv35vDsX3t-hYpRewwRDjXK2654FRmVanZUSis85wpQAdkR5mla2Vnl2dSnymxJZEUFzmYdw6sV-UgF9l76cReXJyxlxZcdVt0G00]--></g></svg>