<?xml version="1.0" encoding="UTF-8" standalone="no"?><svg xmlns="http://www.w3.org/2000/svg" xmlns:xlink="http://www.w3.org/1999/xlink" contentStyleType="text/css" height="2208px" preserveAspectRatio="none" style="width:2643px;height:2208px;background:#FFFFFF;" version="1.1" viewBox="0 0 2643 2208" width="2643px" zoomAndPan="magnify"><defs/><g><text fill="#000000" font-family="sans-serif" font-size="14" font-weight="bold" lengthAdjust="spacing" textLength="231" x="1207.75" y="29.5332">US 5.1.4. - Process View [Level 3]</text><rect fill="#FFFFFF" height="1979.5" style="stroke:#181818;stroke-width:1.0;" width="10" x="232" y="150.0781"/><rect fill="#FFFFFF" height="1735.5625" style="stroke:#181818;stroke-width:1.0;" width="10" x="667" y="264.5469"/><rect fill="#FFFFFF" height="39.1563" style="stroke:#181818;stroke-width:1.0;" width="10" x="1007" y="303.7031"/><rect fill="#FFFFFF" height="1527.625" style="stroke:#181818;stroke-width:1.0;" width="10" x="1170" y="426.3281"/><rect fill="#FFFFFF" height="624.1875" style="stroke:#181818;stroke-width:1.0;" width="10" x="1534" y="1069.9844"/><rect fill="#FFFFFF" height="28" style="stroke:#181818;stroke-width:1.0;" width="10" x="1539" y="1613.0156"/><rect fill="#FFFFFF" height="39.1563" style="stroke:#181818;stroke-width:1.0;" width="10" x="2036" y="1109.1406"/><rect fill="#FFFFFF" height="39.1563" style="stroke:#181818;stroke-width:1.0;" width="10" x="2036" y="1187.4531"/><rect fill="#FFFFFF" height="39.1563" style="stroke:#181818;stroke-width:1.0;" width="10" x="2036" y="1265.7656"/><rect fill="#FFFFFF" height="30" style="stroke:#181818;stroke-width:1.0;" width="10" x="2036" y="1457.5469"/><rect fill="#FFFFFF" height="39.1563" style="stroke:#181818;stroke-width:1.0;" width="10" x="2036" y="1526.7031"/><rect fill="#FFFFFF" height="30" style="stroke:#181818;stroke-width:1.0;" width="10" x="2163.5" y="1388.3906"/><rect fill="#FFFFFF" height="39.1563" style="stroke:#181818;stroke-width:1.0;" width="10" x="2309.5" y="465.4844"/><rect fill="#FFFFFF" height="30" style="stroke:#181818;stroke-width:1.0;" width="10" x="2309.5" y="1809.4844"/><rect fill="#FFFFFF" height="30" style="stroke:#181818;stroke-width:1.0;" width="10" x="2455.5" y="588.1094"/><rect fill="#FFFFFF" height="30" style="stroke:#181818;stroke-width:1.0;" width="10" x="2455.5" y="708.5781"/><rect fill="#FFFFFF" height="30" style="stroke:#181818;stroke-width:1.0;" width="10" x="2455.5" y="829.0469"/><rect fill="#FFFFFF" height="30" style="stroke:#181818;stroke-width:1.0;" width="10" x="2455.5" y="949.5156"/><rect fill="#FFFFFF" height="30" style="stroke:#181818;stroke-width:1.0;" width="10" x="2455.5" y="1733.3281"/><rect fill="none" height="1604.0938" style="stroke:#000000;stroke-width:1.5;" width="2055.5" x="582" y="357.8594"/><rect fill="none" height="106.4688" style="stroke:#000000;stroke-width:1.5;" width="1426.5" x="1095" y="519.6406"/><rect fill="none" height="106.4688" style="stroke:#000000;stroke-width:1.5;" width="1426.5" x="1095" y="640.1094"/><rect fill="none" height="106.4688" style="stroke:#000000;stroke-width:1.5;" width="1426.5" x="1095" y="760.5781"/><rect fill="none" height="106.4688" style="stroke:#000000;stroke-width:1.5;" width="1426.5" x="1095" y="881.0469"/><rect fill="none" height="769.8125" style="stroke:#000000;stroke-width:1.5;" width="1426.5" x="1095" y="1001.5156"/><rect fill="none" height="336.0938" style="stroke:#000000;stroke-width:1.5;" width="760.5" x="1469" y="1319.9219"/><rect fill="none" height="107.4688" style="stroke:#000000;stroke-width:1.5;" width="299.5" x="11" y="2015.1094"/><line style="stroke:#181818;stroke-width:0.5;stroke-dasharray:5.0,5.0;" x1="236.5" x2="236.5" y1="108.9219" y2="2139.5781"/><line style="stroke:#181818;stroke-width:0.5;stroke-dasharray:5.0,5.0;" x1="484" x2="484" y1="205.7344" y2="2139.5781"/><line style="stroke:#181818;stroke-width:0.5;stroke-dasharray:5.0,5.0;" x1="672" x2="672" y1="108.9219" y2="2139.5781"/><line style="stroke:#181818;stroke-width:0.5;stroke-dasharray:5.0,5.0;" x1="1011.5" x2="1011.5" y1="108.9219" y2="2139.5781"/><line style="stroke:#181818;stroke-width:0.5;stroke-dasharray:5.0,5.0;" x1="1175" x2="1175" y1="108.9219" y2="2139.5781"/><line style="stroke:#181818;stroke-width:0.5;stroke-dasharray:5.0,5.0;" x1="1539" x2="1539" y1="108.9219" y2="2139.5781"/><line style="stroke:#181818;stroke-width:0.5;stroke-dasharray:5.0,5.0;" x1="2040.5" x2="2040.5" y1="108.9219" y2="2139.5781"/><line style="stroke:#181818;stroke-width:0.5;stroke-dasharray:5.0,5.0;" x1="2168.5" x2="2168.5" y1="108.9219" y2="2139.5781"/><line style="stroke:#181818;stroke-width:0.5;stroke-dasharray:5.0,5.0;" x1="2314.5" x2="2314.5" y1="108.9219" y2="2139.5781"/><line style="stroke:#181818;stroke-width:0.5;stroke-dasharray:5.0,5.0;" x1="2460.5" x2="2460.5" y1="108.9219" y2="2139.5781"/><line style="stroke:#181818;stroke-width:0.5;stroke-dasharray:5.0,5.0;" x1="2574.5" x2="2574.5" y1="1895.1406" y2="2139.5781"/><rect fill="#E2E2F0" height="64.3125" rx="2.5" ry="2.5" style="stroke:#181818;stroke-width:0.5;" width="127" x="173.5" y="43.6094"/><text fill="#000000" font-family="sans-serif" font-size="20" font-style="italic" lengthAdjust="spacing" textLength="67" x="203.5" y="71.3711">«route»</text><text fill="#000000" font-family="sans-serif" font-size="20" lengthAdjust="spacing" textLength="113" x="180.5" y="96.5273">PatientRoute</text><rect fill="#E2E2F0" height="64.3125" rx="2.5" ry="2.5" style="stroke:#181818;stroke-width:0.5;" width="127" x="173.5" y="2138.5781"/><text fill="#000000" font-family="sans-serif" font-size="20" font-style="italic" lengthAdjust="spacing" textLength="67" x="203.5" y="2166.3398">«route»</text><text fill="#000000" font-family="sans-serif" font-size="20" lengthAdjust="spacing" textLength="113" x="180.5" y="2191.4961">PatientRoute</text><rect fill="#E2E2F0" height="64.3125" rx="2.5" ry="2.5" style="stroke:#181818;stroke-width:0.5;" width="196" x="386" y="2138.5781"/><text fill="#000000" font-family="sans-serif" font-size="20" font-style="italic" lengthAdjust="spacing" textLength="49" x="459.5" y="2166.3398">«dto»</text><text fill="#000000" font-family="sans-serif" font-size="20" lengthAdjust="spacing" textLength="182" x="393" y="2191.4961">EditPatientProfileDto</text><rect fill="#E2E2F0" height="64.3125" rx="2.5" ry="2.5" style="stroke:#181818;stroke-width:0.5;" width="160" x="592" y="43.6094"/><text fill="#000000" font-family="sans-serif" font-size="20" font-style="italic" lengthAdjust="spacing" textLength="105" x="619.5" y="71.3711">«controller»</text><text fill="#000000" font-family="sans-serif" font-size="20" lengthAdjust="spacing" textLength="146" x="599" y="96.5273">PatientController</text><rect fill="#E2E2F0" height="64.3125" rx="2.5" ry="2.5" style="stroke:#181818;stroke-width:0.5;" width="160" x="592" y="2138.5781"/><text fill="#000000" font-family="sans-serif" font-size="20" font-style="italic" lengthAdjust="spacing" textLength="105" x="619.5" y="2166.3398">«controller»</text><text fill="#000000" font-family="sans-serif" font-size="20" lengthAdjust="spacing" textLength="146" x="599" y="2191.4961">PatientController</text><rect fill="#E2E2F0" height="39.1563" rx="2.5" ry="2.5" style="stroke:#181818;stroke-width:0.5;" width="147" x="938.5" y="68.7656"/><text fill="#000000" font-family="sans-serif" font-size="20" lengthAdjust="spacing" textLength="133" x="945.5" y="96.5273">ClaimsPrincipal</text><rect fill="#E2E2F0" height="39.1563" rx="2.5" ry="2.5" style="stroke:#181818;stroke-width:0.5;" width="147" x="938.5" y="2138.5781"/><text fill="#000000" font-family="sans-serif" font-size="20" lengthAdjust="spacing" textLength="133" x="945.5" y="2166.3398">ClaimsPrincipal</text><rect fill="#E2E2F0" height="64.3125" rx="2.5" ry="2.5" style="stroke:#181818;stroke-width:0.5;" width="140" x="1105" y="43.6094"/><text fill="#000000" font-family="sans-serif" font-size="20" font-style="italic" lengthAdjust="spacing" textLength="86" x="1132" y="71.3711">«service»</text><text fill="#000000" font-family="sans-serif" font-size="20" lengthAdjust="spacing" textLength="126" x="1112" y="96.5273">PatientService</text><rect fill="#E2E2F0" height="64.3125" rx="2.5" ry="2.5" style="stroke:#181818;stroke-width:0.5;" width="140" x="1105" y="2138.5781"/><text fill="#000000" font-family="sans-serif" font-size="20" font-style="italic" lengthAdjust="spacing" textLength="86" x="1132" y="2166.3398">«service»</text><text fill="#000000" font-family="sans-serif" font-size="20" lengthAdjust="spacing" textLength="126" x="1112" y="2191.4961">PatientService</text><rect fill="#E2E2F0" height="64.3125" rx="2.5" ry="2.5" style="stroke:#181818;stroke-width:0.5;" width="120" x="1479" y="43.6094"/><text fill="#000000" font-family="sans-serif" font-size="20" font-style="italic" lengthAdjust="spacing" textLength="86" x="1496" y="71.3711">«service»</text><text fill="#000000" font-family="sans-serif" font-size="20" lengthAdjust="spacing" textLength="106" x="1486" y="96.5273">UserService</text><rect fill="#E2E2F0" height="64.3125" rx="2.5" ry="2.5" style="stroke:#181818;stroke-width:0.5;" width="120" x="1479" y="2138.5781"/><text fill="#000000" font-family="sans-serif" font-size="20" font-style="italic" lengthAdjust="spacing" textLength="86" x="1496" y="2166.3398">«service»</text><text fill="#000000" font-family="sans-serif" font-size="20" lengthAdjust="spacing" textLength="106" x="1486" y="2191.4961">UserService</text><rect fill="#E2E2F0" height="64.3125" rx="2.5" ry="2.5" style="stroke:#181818;stroke-width:0.5;" width="133" x="1974.5" y="43.6094"/><text fill="#000000" font-family="sans-serif" font-size="20" font-style="italic" lengthAdjust="spacing" textLength="86" x="1998" y="71.3711">«service»</text><text fill="#000000" font-family="sans-serif" font-size="20" lengthAdjust="spacing" textLength="119" x="1981.5" y="96.5273">UserManager</text><rect fill="#E2E2F0" height="64.3125" rx="2.5" ry="2.5" style="stroke:#181818;stroke-width:0.5;" width="133" x="1974.5" y="2138.5781"/><text fill="#000000" font-family="sans-serif" font-size="20" font-style="italic" lengthAdjust="spacing" textLength="86" x="1998" y="2166.3398">«service»</text><text fill="#000000" font-family="sans-serif" font-size="20" lengthAdjust="spacing" textLength="119" x="1981.5" y="2191.4961">UserManager</text><rect fill="#E2E2F0" height="64.3125" rx="2.5" ry="2.5" style="stroke:#181818;stroke-width:0.5;" width="102" x="2117.5" y="43.6094"/><text fill="#000000" font-family="sans-serif" font-size="20" font-style="italic" lengthAdjust="spacing" textLength="88" x="2124.5" y="71.3711">«domain»</text><text fill="#000000" font-family="sans-serif" font-size="20" lengthAdjust="spacing" textLength="41" x="2148" y="96.5273">User</text><rect fill="#E2E2F0" height="64.3125" rx="2.5" ry="2.5" style="stroke:#181818;stroke-width:0.5;" width="102" x="2117.5" y="2138.5781"/><text fill="#000000" font-family="sans-serif" font-size="20" font-style="italic" lengthAdjust="spacing" textLength="88" x="2124.5" y="2166.3398">«domain»</text><text fill="#000000" font-family="sans-serif" font-size="20" lengthAdjust="spacing" textLength="41" x="2148" y="2191.4961">User</text><rect fill="#E2E2F0" height="64.3125" rx="2.5" ry="2.5" style="stroke:#181818;stroke-width:0.5;" width="170" x="2229.5" y="43.6094"/><text fill="#000000" font-family="sans-serif" font-size="20" font-style="italic" lengthAdjust="spacing" textLength="110" x="2259.5" y="71.3711">«repository»</text><text fill="#000000" font-family="sans-serif" font-size="20" lengthAdjust="spacing" textLength="156" x="2236.5" y="96.5273">PatientRepository</text><rect fill="#E2E2F0" height="64.3125" rx="2.5" ry="2.5" style="stroke:#181818;stroke-width:0.5;" width="170" x="2229.5" y="2138.5781"/><text fill="#000000" font-family="sans-serif" font-size="20" font-style="italic" lengthAdjust="spacing" textLength="110" x="2259.5" y="2166.3398">«repository»</text><text fill="#000000" font-family="sans-serif" font-size="20" lengthAdjust="spacing" textLength="156" x="2236.5" y="2191.4961">PatientRepository</text><rect fill="#E2E2F0" height="64.3125" rx="2.5" ry="2.5" style="stroke:#181818;stroke-width:0.5;" width="102" x="2409.5" y="43.6094"/><text fill="#000000" font-family="sans-serif" font-size="20" font-style="italic" lengthAdjust="spacing" textLength="88" x="2416.5" y="71.3711">«domain»</text><text fill="#000000" font-family="sans-serif" font-size="20" lengthAdjust="spacing" textLength="61" x="2430" y="96.5273">Patient</text><rect fill="#E2E2F0" height="64.3125" rx="2.5" ry="2.5" style="stroke:#181818;stroke-width:0.5;" width="102" x="2409.5" y="2138.5781"/><text fill="#000000" font-family="sans-serif" font-size="20" font-style="italic" lengthAdjust="spacing" textLength="88" x="2416.5" y="2166.3398">«domain»</text><text fill="#000000" font-family="sans-serif" font-size="20" lengthAdjust="spacing" textLength="61" x="2430" y="2191.4961">Patient</text><rect fill="#E2E2F0" height="64.3125" rx="2.5" ry="2.5" style="stroke:#181818;stroke-width:0.5;" width="106" x="2521.5" y="2138.5781"/><text fill="#000000" font-family="sans-serif" font-size="20" font-style="italic" lengthAdjust="spacing" textLength="49" x="2550" y="2166.3398">«dto»</text><text fill="#000000" font-family="sans-serif" font-size="20" lengthAdjust="spacing" textLength="92" x="2528.5" y="2191.4961">PatientDto</text><rect fill="#FFFFFF" height="1979.5" style="stroke:#181818;stroke-width:1.0;" width="10" x="232" y="150.0781"/><rect fill="#FFFFFF" height="1735.5625" style="stroke:#181818;stroke-width:1.0;" width="10" x="667" y="264.5469"/><rect fill="#FFFFFF" height="39.1563" style="stroke:#181818;stroke-width:1.0;" width="10" x="1007" y="303.7031"/><rect fill="#FFFFFF" height="1527.625" style="stroke:#181818;stroke-width:1.0;" width="10" x="1170" y="426.3281"/><rect fill="#FFFFFF" height="624.1875" style="stroke:#181818;stroke-width:1.0;" width="10" x="1534" y="1069.9844"/><rect fill="#FFFFFF" height="28" style="stroke:#181818;stroke-width:1.0;" width="10" x="1539" y="1613.0156"/><rect fill="#FFFFFF" height="39.1563" style="stroke:#181818;stroke-width:1.0;" width="10" x="2036" y="1109.1406"/><rect fill="#FFFFFF" height="39.1563" style="stroke:#181818;stroke-width:1.0;" width="10" x="2036" y="1187.4531"/><rect fill="#FFFFFF" height="39.1563" style="stroke:#181818;stroke-width:1.0;" width="10" x="2036" y="1265.7656"/><rect fill="#FFFFFF" height="30" style="stroke:#181818;stroke-width:1.0;" width="10" x="2036" y="1457.5469"/><rect fill="#FFFFFF" height="39.1563" style="stroke:#181818;stroke-width:1.0;" width="10" x="2036" y="1526.7031"/><rect fill="#FFFFFF" height="30" style="stroke:#181818;stroke-width:1.0;" width="10" x="2163.5" y="1388.3906"/><rect fill="#FFFFFF" height="39.1563" style="stroke:#181818;stroke-width:1.0;" width="10" x="2309.5" y="465.4844"/><rect fill="#FFFFFF" height="30" style="stroke:#181818;stroke-width:1.0;" width="10" x="2309.5" y="1809.4844"/><rect fill="#FFFFFF" height="30" style="stroke:#181818;stroke-width:1.0;" width="10" x="2455.5" y="588.1094"/><rect fill="#FFFFFF" height="30" style="stroke:#181818;stroke-width:1.0;" width="10" x="2455.5" y="708.5781"/><rect fill="#FFFFFF" height="30" style="stroke:#181818;stroke-width:1.0;" width="10" x="2455.5" y="829.0469"/><rect fill="#FFFFFF" height="30" style="stroke:#181818;stroke-width:1.0;" width="10" x="2455.5" y="949.5156"/><rect fill="#FFFFFF" height="30" style="stroke:#181818;stroke-width:1.0;" width="10" x="2455.5" y="1733.3281"/><ellipse cx="7.5" cy="149.3281" fill="none" rx="4" ry="4" style="stroke:#181818;stroke-width:1.5;"/><polygon fill="#181818" points="220,146.0781,230,150.0781,220,154.0781,224,150.0781" style="stroke:#181818;stroke-width:1.0;"/><line style="stroke:#181818;stroke-width:1.0;" x1="12" x2="226" y1="150.0781" y2="150.0781"/><text fill="#000000" font-family="sans-serif" font-size="20" font-weight="bold" lengthAdjust="spacing" textLength="11" x="15" y="143.6836">1</text><text fill="#000000" font-family="sans-serif" font-size="20" lengthAdjust="spacing" textLength="190" x="30" y="143.6836">PUT(json) /api/patient</text><polygon fill="#181818" points="374,185.2344,384,189.2344,374,193.2344,378,189.2344" style="stroke:#181818;stroke-width:1.0;"/><line style="stroke:#181818;stroke-width:1.0;" x1="242" x2="380" y1="189.2344" y2="189.2344"/><text fill="#000000" font-family="sans-serif" font-size="20" font-weight="bold" lengthAdjust="spacing" textLength="11" x="249" y="182.8398">2</text><text fill="#000000" font-family="sans-serif" font-size="20" lengthAdjust="spacing" textLength="105" x="264" y="182.8398">create(json)</text><rect fill="#E2E2F0" height="64.3125" rx="2.5" ry="2.5" style="stroke:#181818;stroke-width:0.5;" width="196" x="386" y="158.0781"/><text fill="#000000" font-family="sans-serif" font-size="20" font-style="italic" lengthAdjust="spacing" textLength="49" x="459.5" y="185.8398">«dto»</text><text fill="#000000" font-family="sans-serif" font-size="20" lengthAdjust="spacing" textLength="182" x="393" y="210.9961">EditPatientProfileDto</text><polygon fill="#181818" points="655,260.5469,665,264.5469,655,268.5469,659,264.5469" style="stroke:#181818;stroke-width:1.0;"/><line style="stroke:#181818;stroke-width:1.0;" x1="242" x2="661" y1="264.5469" y2="264.5469"/><text fill="#000000" font-family="sans-serif" font-size="20" font-weight="bold" lengthAdjust="spacing" textLength="11" x="249" y="258.1523">3</text><text fill="#000000" font-family="sans-serif" font-size="20" lengthAdjust="spacing" textLength="345" x="264" y="258.1523">EditPatientProfile(editPatientProfileDto)</text><polygon fill="#181818" points="995,299.7031,1005,303.7031,995,307.7031,999,303.7031" style="stroke:#181818;stroke-width:1.0;"/><line style="stroke:#181818;stroke-width:1.0;" x1="677" x2="1001" y1="303.7031" y2="303.7031"/><text fill="#000000" font-family="sans-serif" font-size="20" font-weight="bold" lengthAdjust="spacing" textLength="11" x="684" y="297.3086">4</text><text fill="#000000" font-family="sans-serif" font-size="20" lengthAdjust="spacing" textLength="296" x="699" y="297.3086">FindFirstValue(ClaimTypes.Email)</text><polygon fill="#181818" points="688,338.8594,678,342.8594,688,346.8594,684,342.8594" style="stroke:#181818;stroke-width:1.0;"/><line style="stroke:#181818;stroke-width:1.0;stroke-dasharray:2.0,2.0;" x1="682" x2="1011" y1="342.8594" y2="342.8594"/><text fill="#000000" font-family="sans-serif" font-size="20" font-weight="bold" lengthAdjust="spacing" textLength="11" x="694" y="336.4648">5</text><text fill="#000000" font-family="sans-serif" font-size="20" lengthAdjust="spacing" textLength="169" x="709" y="336.4648">emailLoggedInUser</text><path d="M582,357.8594 L650,357.8594 L650,375.0156 L640,385.0156 L582,385.0156 L582,357.8594 " fill="#EEEEEE" style="stroke:#000000;stroke-width:1.5;"/><rect fill="none" height="1604.0938" style="stroke:#000000;stroke-width:1.5;" width="2055.5" x="582" y="357.8594"/><text fill="#000000" font-family="sans-serif" font-size="20" font-weight="bold" lengthAdjust="spacing" textLength="23" x="597" y="379.6211">alt</text><text fill="#000000" font-family="sans-serif" font-size="20" font-weight="bold" lengthAdjust="spacing" textLength="128" x="665" y="380.6211">[email != null]</text><polygon fill="#181818" points="1158,422.3281,1168,426.3281,1158,430.3281,1162,426.3281" style="stroke:#181818;stroke-width:1.0;"/><line style="stroke:#181818;stroke-width:1.0;" x1="677" x2="1164" y1="426.3281" y2="426.3281"/><text fill="#000000" font-family="sans-serif" font-size="20" font-weight="bold" lengthAdjust="spacing" textLength="11" x="684" y="419.9336">6</text><text fill="#000000" font-family="sans-serif" font-size="20" lengthAdjust="spacing" textLength="459" x="699" y="419.9336">EditProfile(emailLoggedInUser,editPatientProfileDto)</text><polygon fill="#181818" points="2297.5,461.4844,2307.5,465.4844,2297.5,469.4844,2301.5,465.4844" style="stroke:#181818;stroke-width:1.0;"/><line style="stroke:#181818;stroke-width:1.0;" x1="1180" x2="2303.5" y1="465.4844" y2="465.4844"/><text fill="#000000" font-family="sans-serif" font-size="20" font-weight="bold" lengthAdjust="spacing" textLength="11" x="1187" y="459.0898">7</text><text fill="#000000" font-family="sans-serif" font-size="20" lengthAdjust="spacing" textLength="286" x="1202" y="459.0898">FindPatientWithUserEmail(email)</text><polygon fill="#181818" points="1191,500.6406,1181,504.6406,1191,508.6406,1187,504.6406" style="stroke:#181818;stroke-width:1.0;"/><line style="stroke:#181818;stroke-width:1.0;" x1="1185" x2="2313.5" y1="504.6406" y2="504.6406"/><text fill="#000000" font-family="sans-serif" font-size="20" font-weight="bold" lengthAdjust="spacing" textLength="11" x="1197" y="498.2461">8</text><text fill="#000000" font-family="sans-serif" font-size="20" lengthAdjust="spacing" textLength="59" x="1212" y="498.2461">patient</text><path d="M1095,519.6406 L1163,519.6406 L1163,536.7969 L1153,546.7969 L1095,546.7969 L1095,519.6406 " fill="#EEEEEE" style="stroke:#000000;stroke-width:1.5;"/><rect fill="none" height="106.4688" style="stroke:#000000;stroke-width:1.5;" width="1426.5" x="1095" y="519.6406"/><text fill="#000000" font-family="sans-serif" font-size="20" font-weight="bold" lengthAdjust="spacing" textLength="23" x="1110" y="541.4023">alt</text><text fill="#000000" font-family="sans-serif" font-size="20" font-weight="bold" lengthAdjust="spacing" textLength="251" x="1178" y="542.4023">[newPhoneNumber != null]</text><polygon fill="#181818" points="2443.5,584.1094,2453.5,588.1094,2443.5,592.1094,2447.5,588.1094" style="stroke:#181818;stroke-width:1.0;"/><line style="stroke:#181818;stroke-width:1.0;" x1="1180" x2="2449.5" y1="588.1094" y2="588.1094"/><text fill="#000000" font-family="sans-serif" font-size="20" font-weight="bold" lengthAdjust="spacing" textLength="11" x="1187" y="581.7148">9</text><text fill="#000000" font-family="sans-serif" font-size="20" lengthAdjust="spacing" textLength="295" x="1202" y="581.7148">ChangePhone(newPhoneNumber)</text><path d="M1095,640.1094 L1163,640.1094 L1163,657.2656 L1153,667.2656 L1095,667.2656 L1095,640.1094 " fill="#EEEEEE" style="stroke:#000000;stroke-width:1.5;"/><rect fill="none" height="106.4688" style="stroke:#000000;stroke-width:1.5;" width="1426.5" x="1095" y="640.1094"/><text fill="#000000" font-family="sans-serif" font-size="20" font-weight="bold" lengthAdjust="spacing" textLength="23" x="1110" y="661.8711">alt</text><text fill="#000000" font-family="sans-serif" font-size="20" font-weight="bold" lengthAdjust="spacing" textLength="195" x="1178" y="662.8711">[newAddress != null]</text><polygon fill="#181818" points="2443.5,704.5781,2453.5,708.5781,2443.5,712.5781,2447.5,708.5781" style="stroke:#181818;stroke-width:1.0;"/><line style="stroke:#181818;stroke-width:1.0;" x1="1180" x2="2449.5" y1="708.5781" y2="708.5781"/><text fill="#000000" font-family="sans-serif" font-size="20" font-weight="bold" lengthAdjust="spacing" textLength="22" x="1187" y="702.1836">10</text><text fill="#000000" font-family="sans-serif" font-size="20" lengthAdjust="spacing" textLength="263" x="1213" y="702.1836">ChangeAddress(newAddress)</text><path d="M1095,760.5781 L1163,760.5781 L1163,777.7344 L1153,787.7344 L1095,787.7344 L1095,760.5781 " fill="#EEEEEE" style="stroke:#000000;stroke-width:1.5;"/><rect fill="none" height="106.4688" style="stroke:#000000;stroke-width:1.5;" width="1426.5" x="1095" y="760.5781"/><text fill="#000000" font-family="sans-serif" font-size="20" font-weight="bold" lengthAdjust="spacing" textLength="23" x="1110" y="782.3398">alt</text><text fill="#000000" font-family="sans-serif" font-size="20" font-weight="bold" lengthAdjust="spacing" textLength="170" x="1178" y="783.3398">[newName != null]</text><polygon fill="#181818" points="2443.5,825.0469,2453.5,829.0469,2443.5,833.0469,2447.5,829.0469" style="stroke:#181818;stroke-width:1.0;"/><line style="stroke:#181818;stroke-width:1.0;" x1="1180" x2="2449.5" y1="829.0469" y2="829.0469"/><text fill="#000000" font-family="sans-serif" font-size="20" font-weight="bold" lengthAdjust="spacing" textLength="22" x="1187" y="822.6523">11</text><text fill="#000000" font-family="sans-serif" font-size="20" lengthAdjust="spacing" textLength="219" x="1213" y="822.6523">ChangeName(newName)</text><path d="M1095,881.0469 L1163,881.0469 L1163,898.2031 L1153,908.2031 L1095,908.2031 L1095,881.0469 " fill="#EEEEEE" style="stroke:#000000;stroke-width:1.5;"/><rect fill="none" height="106.4688" style="stroke:#000000;stroke-width:1.5;" width="1426.5" x="1095" y="881.0469"/><text fill="#000000" font-family="sans-serif" font-size="20" font-weight="bold" lengthAdjust="spacing" textLength="23" x="1110" y="902.8086">alt</text><text fill="#000000" font-family="sans-serif" font-size="20" font-weight="bold" lengthAdjust="spacing" textLength="297" x="1178" y="903.8086">[newEmergencyContact != null]</text><polygon fill="#181818" points="2443.5,945.5156,2453.5,949.5156,2443.5,953.5156,2447.5,949.5156" style="stroke:#181818;stroke-width:1.0;"/><line style="stroke:#181818;stroke-width:1.0;" x1="1180" x2="2449.5" y1="949.5156" y2="949.5156"/><text fill="#000000" font-family="sans-serif" font-size="20" font-weight="bold" lengthAdjust="spacing" textLength="22" x="1187" y="943.1211">12</text><text fill="#000000" font-family="sans-serif" font-size="20" lengthAdjust="spacing" textLength="451" x="1213" y="943.1211">ChangeEmergencyContact(newEmergencyContact)</text><path d="M1095,1001.5156 L1163,1001.5156 L1163,1018.6719 L1153,1028.6719 L1095,1028.6719 L1095,1001.5156 " fill="#EEEEEE" style="stroke:#000000;stroke-width:1.5;"/><rect fill="none" height="769.8125" style="stroke:#000000;stroke-width:1.5;" width="1426.5" x="1095" y="1001.5156"/><text fill="#000000" font-family="sans-serif" font-size="20" font-weight="bold" lengthAdjust="spacing" textLength="23" x="1110" y="1023.2773">alt</text><text fill="#000000" font-family="sans-serif" font-size="20" font-weight="bold" lengthAdjust="spacing" textLength="168" x="1178" y="1024.2773">[newEmail != null]</text><polygon fill="#181818" points="1522,1065.9844,1532,1069.9844,1522,1073.9844,1526,1069.9844" style="stroke:#181818;stroke-width:1.0;"/><line style="stroke:#181818;stroke-width:1.0;" x1="1180" x2="1528" y1="1069.9844" y2="1069.9844"/><text fill="#000000" font-family="sans-serif" font-size="20" font-weight="bold" lengthAdjust="spacing" textLength="22" x="1187" y="1063.5898">13</text><text fill="#000000" font-family="sans-serif" font-size="20" lengthAdjust="spacing" textLength="309" x="1213" y="1063.5898">EditUserProfile(oldEmail,newEmail)</text><polygon fill="#181818" points="2024,1105.1406,2034,1109.1406,2024,1113.1406,2028,1109.1406" style="stroke:#181818;stroke-width:1.0;"/><line style="stroke:#181818;stroke-width:1.0;" x1="1544" x2="2030" y1="1109.1406" y2="1109.1406"/><text fill="#000000" font-family="sans-serif" font-size="20" font-weight="bold" lengthAdjust="spacing" textLength="22" x="1551" y="1102.7461">14</text><text fill="#000000" font-family="sans-serif" font-size="20" lengthAdjust="spacing" textLength="249" x="1577" y="1102.7461">FindByEmailAsync(oldEmail)</text><polygon fill="#181818" points="1555,1144.2969,1545,1148.2969,1555,1152.2969,1551,1148.2969" style="stroke:#181818;stroke-width:1.0;"/><line style="stroke:#181818;stroke-width:1.0;stroke-dasharray:2.0,2.0;" x1="1549" x2="2040" y1="1148.2969" y2="1148.2969"/><text fill="#000000" font-family="sans-serif" font-size="20" font-weight="bold" lengthAdjust="spacing" textLength="22" x="1561" y="1141.9023">15</text><text fill="#000000" font-family="sans-serif" font-size="20" lengthAdjust="spacing" textLength="38" x="1587" y="1141.9023">user</text><polygon fill="#181818" points="2024,1183.4531,2034,1187.4531,2024,1191.4531,2028,1187.4531" style="stroke:#181818;stroke-width:1.0;"/><line style="stroke:#181818;stroke-width:1.0;" x1="1544" x2="2030" y1="1187.4531" y2="1187.4531"/><text fill="#000000" font-family="sans-serif" font-size="20" font-weight="bold" lengthAdjust="spacing" textLength="22" x="1551" y="1181.0586">16</text><text fill="#000000" font-family="sans-serif" font-size="20" lengthAdjust="spacing" textLength="447" x="1577" y="1181.0586">GenerateChangeEmailTokenAsync(user,newEmail)</text><polygon fill="#181818" points="1555,1222.6094,1545,1226.6094,1555,1230.6094,1551,1226.6094" style="stroke:#181818;stroke-width:1.0;"/><line style="stroke:#181818;stroke-width:1.0;stroke-dasharray:2.0,2.0;" x1="1549" x2="2040" y1="1226.6094" y2="1226.6094"/><text fill="#000000" font-family="sans-serif" font-size="20" font-weight="bold" lengthAdjust="spacing" textLength="22" x="1561" y="1220.2148">17</text><text fill="#000000" font-family="sans-serif" font-size="20" lengthAdjust="spacing" textLength="48" x="1587" y="1220.2148">token</text><polygon fill="#181818" points="2024,1261.7656,2034,1265.7656,2024,1269.7656,2028,1265.7656" style="stroke:#181818;stroke-width:1.0;"/><line style="stroke:#181818;stroke-width:1.0;" x1="1544" x2="2030" y1="1265.7656" y2="1265.7656"/><text fill="#000000" font-family="sans-serif" font-size="20" font-weight="bold" lengthAdjust="spacing" textLength="22" x="1551" y="1259.3711">18</text><text fill="#000000" font-family="sans-serif" font-size="20" lengthAdjust="spacing" textLength="376" x="1577" y="1259.3711">ChangeEmailAsync(user, newEmail, token)</text><polygon fill="#181818" points="1555,1300.9219,1545,1304.9219,1555,1308.9219,1551,1304.9219" style="stroke:#181818;stroke-width:1.0;"/><line style="stroke:#181818;stroke-width:1.0;stroke-dasharray:2.0,2.0;" x1="1549" x2="2040" y1="1304.9219" y2="1304.9219"/><text fill="#000000" font-family="sans-serif" font-size="20" font-weight="bold" lengthAdjust="spacing" textLength="22" x="1561" y="1298.5273">19</text><text fill="#000000" font-family="sans-serif" font-size="20" lengthAdjust="spacing" textLength="48" x="1587" y="1298.5273">result</text><path d="M1469,1319.9219 L1537,1319.9219 L1537,1337.0781 L1527,1347.0781 L1469,1347.0781 L1469,1319.9219 " fill="#EEEEEE" style="stroke:#000000;stroke-width:1.5;"/><rect fill="none" height="336.0938" style="stroke:#000000;stroke-width:1.5;" width="760.5" x="1469" y="1319.9219"/><text fill="#000000" font-family="sans-serif" font-size="20" font-weight="bold" lengthAdjust="spacing" textLength="23" x="1484" y="1341.6836">alt</text><text fill="#000000" font-family="sans-serif" font-size="20" font-weight="bold" lengthAdjust="spacing" textLength="142" x="1552" y="1342.6836">[result == true]</text><polygon fill="#181818" points="2151.5,1384.3906,2161.5,1388.3906,2151.5,1392.3906,2155.5,1388.3906" style="stroke:#181818;stroke-width:1.0;"/><line style="stroke:#181818;stroke-width:1.0;" x1="1544" x2="2157.5" y1="1388.3906" y2="1388.3906"/><text fill="#000000" font-family="sans-serif" font-size="20" font-weight="bold" lengthAdjust="spacing" textLength="22" x="1551" y="1381.9961">20</text><text fill="#000000" font-family="sans-serif" font-size="20" lengthAdjust="spacing" textLength="175" x="1577" y="1381.9961">changeStatus(false)</text><polygon fill="#181818" points="2024,1453.5469,2034,1457.5469,2024,1461.5469,2028,1457.5469" style="stroke:#181818;stroke-width:1.0;"/><line style="stroke:#181818;stroke-width:1.0;" x1="1544" x2="2030" y1="1457.5469" y2="1457.5469"/><text fill="#000000" font-family="sans-serif" font-size="20" font-weight="bold" lengthAdjust="spacing" textLength="22" x="1551" y="1451.1523">21</text><text fill="#000000" font-family="sans-serif" font-size="20" lengthAdjust="spacing" textLength="168" x="1577" y="1451.1523">UpdateAsync(user)</text><polygon fill="#181818" points="2024,1522.7031,2034,1526.7031,2024,1530.7031,2028,1526.7031" style="stroke:#181818;stroke-width:1.0;"/><line style="stroke:#181818;stroke-width:1.0;" x1="1544" x2="2030" y1="1526.7031" y2="1526.7031"/><text fill="#000000" font-family="sans-serif" font-size="20" font-weight="bold" lengthAdjust="spacing" textLength="22" x="1551" y="1520.3086">22</text><text fill="#000000" font-family="sans-serif" font-size="20" lengthAdjust="spacing" textLength="400" x="1577" y="1520.3086">GenerateEmailConfirmationTokenAsync(user)</text><polygon fill="#181818" points="1555,1561.8594,1545,1565.8594,1555,1569.8594,1551,1565.8594" style="stroke:#181818;stroke-width:1.0;"/><line style="stroke:#181818;stroke-width:1.0;stroke-dasharray:2.0,2.0;" x1="1549" x2="2040" y1="1565.8594" y2="1565.8594"/><text fill="#000000" font-family="sans-serif" font-size="20" font-weight="bold" lengthAdjust="spacing" textLength="22" x="1561" y="1559.4648">23</text><text fill="#000000" font-family="sans-serif" font-size="20" lengthAdjust="spacing" textLength="48" x="1587" y="1559.4648">token</text><line style="stroke:#181818;stroke-width:1.0;" x1="1549" x2="1591" y1="1605.0156" y2="1605.0156"/><line style="stroke:#181818;stroke-width:1.0;" x1="1591" x2="1591" y1="1605.0156" y2="1618.0156"/><line style="stroke:#181818;stroke-width:1.0;" x1="1550" x2="1591" y1="1618.0156" y2="1618.0156"/><polygon fill="#181818" points="1560,1614.0156,1550,1618.0156,1560,1622.0156,1556,1618.0156" style="stroke:#181818;stroke-width:1.0;"/><text fill="#000000" font-family="sans-serif" font-size="20" font-weight="bold" lengthAdjust="spacing" textLength="22" x="1556" y="1598.6211">24</text><text fill="#000000" font-family="sans-serif" font-size="20" lengthAdjust="spacing" textLength="389" x="1582" y="1598.6211">SendConfirmationEmail(user,oldEmail,token)</text><polygon fill="#181818" points="1191,1690.1719,1181,1694.1719,1191,1698.1719,1187,1694.1719" style="stroke:#181818;stroke-width:1.0;"/><line style="stroke:#181818;stroke-width:1.0;stroke-dasharray:2.0,2.0;" x1="1185" x2="1538" y1="1694.1719" y2="1694.1719"/><text fill="#000000" font-family="sans-serif" font-size="20" font-weight="bold" lengthAdjust="spacing" textLength="22" x="1197" y="1687.7773">25</text><text fill="#000000" font-family="sans-serif" font-size="20" lengthAdjust="spacing" textLength="6" x="1223" y="1687.7773"> </text><polygon fill="#181818" points="2443.5,1729.3281,2453.5,1733.3281,2443.5,1737.3281,2447.5,1733.3281" style="stroke:#181818;stroke-width:1.0;"/><line style="stroke:#181818;stroke-width:1.0;" x1="1180" x2="2449.5" y1="1733.3281" y2="1733.3281"/><text fill="#000000" font-family="sans-serif" font-size="20" font-weight="bold" lengthAdjust="spacing" textLength="22" x="1187" y="1726.9336">26</text><text fill="#000000" font-family="sans-serif" font-size="20" lengthAdjust="spacing" textLength="213" x="1213" y="1726.9336">ChangeEmail(newEmail)</text><polygon fill="#181818" points="2297.5,1805.4844,2307.5,1809.4844,2297.5,1813.4844,2301.5,1809.4844" style="stroke:#181818;stroke-width:1.0;"/><line style="stroke:#181818;stroke-width:1.0;" x1="1180" x2="2303.5" y1="1809.4844" y2="1809.4844"/><text fill="#000000" font-family="sans-serif" font-size="20" font-weight="bold" lengthAdjust="spacing" textLength="22" x="1187" y="1803.0898">27</text><text fill="#000000" font-family="sans-serif" font-size="20" lengthAdjust="spacing" textLength="55" x="1213" y="1803.0898">save()</text><polygon fill="#181818" points="2509.5,1874.6406,2519.5,1878.6406,2509.5,1882.6406,2513.5,1878.6406" style="stroke:#181818;stroke-width:1.0;"/><line style="stroke:#181818;stroke-width:1.0;" x1="1180" x2="2515.5" y1="1878.6406" y2="1878.6406"/><text fill="#000000" font-family="sans-serif" font-size="20" font-weight="bold" lengthAdjust="spacing" textLength="22" x="1187" y="1872.2461">28</text><text fill="#000000" font-family="sans-serif" font-size="20" lengthAdjust="spacing" textLength="374" x="1213" y="1872.2461">create(name,phoneNumber,email,address)</text><rect fill="#E2E2F0" height="64.3125" rx="2.5" ry="2.5" style="stroke:#181818;stroke-width:0.5;" width="106" x="2521.5" y="1847.4844"/><text fill="#000000" font-family="sans-serif" font-size="20" font-style="italic" lengthAdjust="spacing" textLength="49" x="2550" y="1875.2461">«dto»</text><text fill="#000000" font-family="sans-serif" font-size="20" lengthAdjust="spacing" textLength="92" x="2528.5" y="1900.4023">PatientDto</text><polygon fill="#181818" points="688,1949.9531,678,1953.9531,688,1957.9531,684,1953.9531" style="stroke:#181818;stroke-width:1.0;"/><line style="stroke:#181818;stroke-width:1.0;stroke-dasharray:2.0,2.0;" x1="682" x2="1174" y1="1953.9531" y2="1953.9531"/><text fill="#000000" font-family="sans-serif" font-size="20" font-weight="bold" lengthAdjust="spacing" textLength="22" x="694" y="1947.5586">29</text><text fill="#000000" font-family="sans-serif" font-size="20" lengthAdjust="spacing" textLength="90" x="720" y="1947.5586">patientDto</text><polygon fill="#181818" points="253,1996.1094,243,2000.1094,253,2004.1094,249,2000.1094" style="stroke:#181818;stroke-width:1.0;"/><line style="stroke:#181818;stroke-width:1.0;stroke-dasharray:2.0,2.0;" x1="247" x2="671" y1="2000.1094" y2="2000.1094"/><text fill="#000000" font-family="sans-serif" font-size="20" font-weight="bold" lengthAdjust="spacing" textLength="22" x="259" y="1993.7148">30</text><text fill="#000000" font-family="sans-serif" font-size="20" lengthAdjust="spacing" textLength="71" x="285" y="1993.7148">success</text><path d="M11,2015.1094 L79,2015.1094 L79,2032.2656 L69,2042.2656 L11,2042.2656 L11,2015.1094 " fill="#EEEEEE" style="stroke:#000000;stroke-width:1.5;"/><rect fill="none" height="107.4688" style="stroke:#000000;stroke-width:1.5;" width="299.5" x="11" y="2015.1094"/><text fill="#000000" font-family="sans-serif" font-size="20" font-weight="bold" lengthAdjust="spacing" textLength="23" x="26" y="2036.8711">alt</text><ellipse cx="7.5" cy="2072.6719" fill="none" rx="4" ry="4" style="stroke:#181818;stroke-width:1.5;"/><polygon fill="#181818" points="24.5,2069.4219,14.5,2073.4219,24.5,2077.4219,20.5,2073.4219" style="stroke:#181818;stroke-width:1.0;"/><line style="stroke:#181818;stroke-width:1.0;stroke-dasharray:2.0,2.0;" x1="22.5" x2="231" y1="2073.4219" y2="2073.4219"/><text fill="#000000" font-family="sans-serif" font-size="20" font-weight="bold" lengthAdjust="spacing" textLength="22" x="25" y="2067.0273">31</text><text fill="#000000" font-family="sans-serif" font-size="20" lengthAdjust="spacing" textLength="97" x="51" y="2067.0273">Accepted()</text><line style="stroke:#000000;stroke-width:1.0;stroke-dasharray:2.0,2.0;" x1="11" x2="310.5" y1="2082.4219" y2="2082.4219"/><ellipse cx="7.5" cy="2113.8281" fill="none" rx="4" ry="4" style="stroke:#181818;stroke-width:1.5;"/><polygon fill="#181818" points="24.5,2110.5781,14.5,2114.5781,24.5,2118.5781,20.5,2114.5781" style="stroke:#181818;stroke-width:1.0;"/><line style="stroke:#181818;stroke-width:1.0;stroke-dasharray:2.0,2.0;" x1="22.5" x2="231" y1="2114.5781" y2="2114.5781"/><text fill="#000000" font-family="sans-serif" font-size="20" font-weight="bold" lengthAdjust="spacing" textLength="22" x="25" y="2108.1836">32</text><text fill="#000000" font-family="sans-serif" font-size="20" lengthAdjust="spacing" textLength="122" x="51" y="2108.1836">BadRequest()</text><!--SRC=[hLXHKziu47xthz3nP7UIjD3IwMM0EGYc1nD39d7e0tF3gFOIT3YIJvRJoVtwMrcsOqpiEBtcWHcS_RxzFkrw9ILvOJocaYuZ4Rn0I49ueccahWHNC_OlaACFbgMOYe0Sp6VaU70u-3GWVJAH8e0a8VSCVf27CQmW8X__Eh0icYh1q-Lta1RIAXQmc7953YPKCU1gAb851uGcP7etzrroSYBraxEprz5ko5IEm4nFB89B9J9OJDLZg0G2yMyTbaD6A5wAA0APGKR-T8pnGVcq3Xj5b2sJYMHSFuaCQ7n-xMrbdu5SiS2OcDsFa3anJ-gqStnU3PxF7dV6UvJJHQvxxhN7vgJkL2-6M5B66zPZ2h58c19oRLRUdTpfXI-VDi2ouCcvV-tU-hjI5EN9mnyl_RkoHFXv4FqpK_4XcSnz- -z4S8Uyfp5x7ni2YmQAhQW24sPPfZyGLbJytRiX2IHWY85NGdI5X-HjqzYmhO-SJIuDjAoiGJIDhZaPaYl6moic4tLFenJih3tyTGp9mCKbYAhuh4ii0-pdIf01TDnOB1OGNdDTAok4EeX6oiIHtqu9JwF8iWX-2Z6wLN9FXPawQQ_1dgOfio6F8TQ4kWfOVMCnHtvZwbcpPTvCaXg5XXYEh7MCk24fAgU_gDZRH6k777vCdWM7ssmcb5P9_ib55Lqs9ADdoXUGGUpNMAS4bQboMFb5HKNzA-2XrcDjI8ouyp2KUf3LXRM8oo7s1ksyWZLgs25ngyoAr5kwXAqwMxHgZ9rZdJUWLYaTr3OghgXsbo0Nm8Erdih8rkYWnKMTmzx2wsmbt2c_eyjMfw_SldcXMtoQ7S6yvVeLBDvq4OKPKQzWT1gPIkM6gpbbllleh9vv_o_M6VTvikP1cR9B9gyvYPc2XQzKJxwcsCgg8sD7tL-1WqH8qHUes1Slm8q9dM-lDMlB-zgAqbb-hPUAXuhyiejw9kSlBGWEAppS_LyRkjSD4paz9Kgcq1nRiusd5Tp5C-CpHLMQs4yqIi1fnLTwt9ssHbODwDYkih0QypX4sAOGNILvdGLv-yWf6Zrh1HnnJqmkSRyLlDRktMMs9z-dst_UM4u_mr5QzMIE7bdxbwDlH_DlctsTEwCr6hNjVeFpCv3LFTsklU3jdgVNP8zXrhPrxR7BxTpfQcT959pG5TWT56OdmmxoDYV8XjoRvT8NZSh5WECnfnTlpeozx3ZReyKnROUZyYeHbxUQBdgpylxyOfeJ_-Q2bAI1lbjtoMpkBorpkltDV10d_NwHzXopnWf2h6Ip5vpLUr1Uq70A_wIGg3RIJejKRv7iajWM_0TIfaiyWqqYlAZElJ5PWKnms933mT67eu-3GtkMSd93EJdwdHmU3O-_38y_as-kJ_JNZcL_dOn98b8P00bPeYJxdkfXvLWtT4N9DEMABM58z7-sxpbavXOFYSjNJ0g-rDUZctlF194_XPh5GcN1dp_rBvWY-lS1l1RTUzQb-U45eO486L_WZkHVzRzOOnm6ALrWebXP8u49v1elqVv_]--></g></svg>