<?xml version="1.0" encoding="UTF-8" standalone="no"?><svg xmlns="http://www.w3.org/2000/svg" xmlns:xlink="http://www.w3.org/1999/xlink" contentStyleType="text/css" height="2278px" preserveAspectRatio="none" style="width:2831px;height:2278px;background:#FFFFFF;" version="1.1" viewBox="0 0 2831 2278" width="2831px" zoomAndPan="magnify"><defs/><g><text fill="#000000" font-family="sans-serif" font-size="14" font-weight="bold" lengthAdjust="spacing" textLength="231" x="1301.75" y="29.5332">US 5.1.4. - Process View [Level 3]</text><rect fill="#FFFFFF" height="2048.6563" style="stroke:#181818;stroke-width:1.0;" width="10" x="232" y="150.0781"/><rect fill="#FFFFFF" height="1804.7188" style="stroke:#181818;stroke-width:1.0;" width="10" x="667" y="264.5469"/><rect fill="#FFFFFF" height="39.1563" style="stroke:#181818;stroke-width:1.0;" width="10" x="1007" y="303.7031"/><rect fill="#FFFFFF" height="1596.7813" style="stroke:#181818;stroke-width:1.0;" width="10" x="1178" y="426.3281"/><rect fill="#FFFFFF" height="30" style="stroke:#181818;stroke-width:1.0;" width="10" x="1596" y="1809.4844"/><rect fill="#FFFFFF" height="624.1875" style="stroke:#181818;stroke-width:1.0;" width="10" x="1722" y="1069.9844"/><rect fill="#FFFFFF" height="28" style="stroke:#181818;stroke-width:1.0;" width="10" x="1727" y="1613.0156"/><rect fill="#FFFFFF" height="39.1563" style="stroke:#181818;stroke-width:1.0;" width="10" x="2224" y="1109.1406"/><rect fill="#FFFFFF" height="39.1563" style="stroke:#181818;stroke-width:1.0;" width="10" x="2224" y="1187.4531"/><rect fill="#FFFFFF" height="39.1563" style="stroke:#181818;stroke-width:1.0;" width="10" x="2224" y="1265.7656"/><rect fill="#FFFFFF" height="30" style="stroke:#181818;stroke-width:1.0;" width="10" x="2224" y="1457.5469"/><rect fill="#FFFFFF" height="39.1563" style="stroke:#181818;stroke-width:1.0;" width="10" x="2224" y="1526.7031"/><rect fill="#FFFFFF" height="30" style="stroke:#181818;stroke-width:1.0;" width="10" x="2351.5" y="1388.3906"/><rect fill="#FFFFFF" height="39.1563" style="stroke:#181818;stroke-width:1.0;" width="10" x="2497.5" y="465.4844"/><rect fill="#FFFFFF" height="30" style="stroke:#181818;stroke-width:1.0;" width="10" x="2497.5" y="1878.6406"/><rect fill="#FFFFFF" height="30" style="stroke:#181818;stroke-width:1.0;" width="10" x="2643.5" y="588.1094"/><rect fill="#FFFFFF" height="30" style="stroke:#181818;stroke-width:1.0;" width="10" x="2643.5" y="708.5781"/><rect fill="#FFFFFF" height="30" style="stroke:#181818;stroke-width:1.0;" width="10" x="2643.5" y="829.0469"/><rect fill="#FFFFFF" height="30" style="stroke:#181818;stroke-width:1.0;" width="10" x="2643.5" y="949.5156"/><rect fill="#FFFFFF" height="30" style="stroke:#181818;stroke-width:1.0;" width="10" x="2643.5" y="1733.3281"/><rect fill="none" height="1673.25" style="stroke:#000000;stroke-width:1.5;" width="2243.5" x="582" y="357.8594"/><rect fill="none" height="106.4688" style="stroke:#000000;stroke-width:1.5;" width="1606.5" x="1103" y="519.6406"/><rect fill="none" height="106.4688" style="stroke:#000000;stroke-width:1.5;" width="1606.5" x="1103" y="640.1094"/><rect fill="none" height="106.4688" style="stroke:#000000;stroke-width:1.5;" width="1606.5" x="1103" y="760.5781"/><rect fill="none" height="106.4688" style="stroke:#000000;stroke-width:1.5;" width="1606.5" x="1103" y="881.0469"/><rect fill="none" height="769.8125" style="stroke:#000000;stroke-width:1.5;" width="1606.5" x="1103" y="1001.5156"/><rect fill="none" height="336.0938" style="stroke:#000000;stroke-width:1.5;" width="760.5" x="1657" y="1319.9219"/><rect fill="none" height="107.4688" style="stroke:#000000;stroke-width:1.5;" width="299.5" x="11" y="2084.2656"/><line style="stroke:#181818;stroke-width:0.5;stroke-dasharray:5.0,5.0;" x1="236.5" x2="236.5" y1="108.9219" y2="2208.7344"/><line style="stroke:#181818;stroke-width:0.5;stroke-dasharray:5.0,5.0;" x1="484" x2="484" y1="205.7344" y2="2208.7344"/><line style="stroke:#181818;stroke-width:0.5;stroke-dasharray:5.0,5.0;" x1="672" x2="672" y1="108.9219" y2="2208.7344"/><line style="stroke:#181818;stroke-width:0.5;stroke-dasharray:5.0,5.0;" x1="1012" x2="1012" y1="108.9219" y2="2208.7344"/><line style="stroke:#181818;stroke-width:0.5;stroke-dasharray:5.0,5.0;" x1="1183" x2="1183" y1="108.9219" y2="2208.7344"/><line style="stroke:#181818;stroke-width:0.5;stroke-dasharray:5.0,5.0;" x1="1601" x2="1601" y1="108.9219" y2="2208.7344"/><line style="stroke:#181818;stroke-width:0.5;stroke-dasharray:5.0,5.0;" x1="1727" x2="1727" y1="108.9219" y2="2208.7344"/><line style="stroke:#181818;stroke-width:0.5;stroke-dasharray:5.0,5.0;" x1="2228.5" x2="2228.5" y1="108.9219" y2="2208.7344"/><line style="stroke:#181818;stroke-width:0.5;stroke-dasharray:5.0,5.0;" x1="2356.5" x2="2356.5" y1="108.9219" y2="2208.7344"/><line style="stroke:#181818;stroke-width:0.5;stroke-dasharray:5.0,5.0;" x1="2502.5" x2="2502.5" y1="108.9219" y2="2208.7344"/><line style="stroke:#181818;stroke-width:0.5;stroke-dasharray:5.0,5.0;" x1="2648.5" x2="2648.5" y1="108.9219" y2="2208.7344"/><line style="stroke:#181818;stroke-width:0.5;stroke-dasharray:5.0,5.0;" x1="2762.5" x2="2762.5" y1="1964.2969" y2="2208.7344"/><rect fill="#E2E2F0" height="64.3125" rx="2.5" ry="2.5" style="stroke:#181818;stroke-width:0.5;" width="127" x="173.5" y="43.6094"/><text fill="#000000" font-family="sans-serif" font-size="20" font-style="italic" lengthAdjust="spacing" textLength="67" x="203.5" y="71.3711">«route»</text><text fill="#000000" font-family="sans-serif" font-size="20" lengthAdjust="spacing" textLength="113" x="180.5" y="96.5273">PatientRoute</text><rect fill="#E2E2F0" height="64.3125" rx="2.5" ry="2.5" style="stroke:#181818;stroke-width:0.5;" width="127" x="173.5" y="2207.7344"/><text fill="#000000" font-family="sans-serif" font-size="20" font-style="italic" lengthAdjust="spacing" textLength="67" x="203.5" y="2235.4961">«route»</text><text fill="#000000" font-family="sans-serif" font-size="20" lengthAdjust="spacing" textLength="113" x="180.5" y="2260.6523">PatientRoute</text><rect fill="#E2E2F0" height="64.3125" rx="2.5" ry="2.5" style="stroke:#181818;stroke-width:0.5;" width="196" x="386" y="2207.7344"/><text fill="#000000" font-family="sans-serif" font-size="20" font-style="italic" lengthAdjust="spacing" textLength="49" x="459.5" y="2235.4961">«dto»</text><text fill="#000000" font-family="sans-serif" font-size="20" lengthAdjust="spacing" textLength="182" x="393" y="2260.6523">EditPatientProfileDto</text><rect fill="#E2E2F0" height="64.3125" rx="2.5" ry="2.5" style="stroke:#181818;stroke-width:0.5;" width="160" x="592" y="43.6094"/><text fill="#000000" font-family="sans-serif" font-size="20" font-style="italic" lengthAdjust="spacing" textLength="105" x="619.5" y="71.3711">«controller»</text><text fill="#000000" font-family="sans-serif" font-size="20" lengthAdjust="spacing" textLength="146" x="599" y="96.5273">PatientController</text><rect fill="#E2E2F0" height="64.3125" rx="2.5" ry="2.5" style="stroke:#181818;stroke-width:0.5;" width="160" x="592" y="2207.7344"/><text fill="#000000" font-family="sans-serif" font-size="20" font-style="italic" lengthAdjust="spacing" textLength="105" x="619.5" y="2235.4961">«controller»</text><text fill="#000000" font-family="sans-serif" font-size="20" lengthAdjust="spacing" textLength="146" x="599" y="2260.6523">PatientController</text><rect fill="#E2E2F0" height="64.3125" rx="2.5" ry="2.5" style="stroke:#181818;stroke-width:0.5;" width="182" x="921" y="43.6094"/><text fill="#000000" font-family="sans-serif" font-size="20" font-style="italic" lengthAdjust="spacing" textLength="68" x="978" y="71.3711">«utility»</text><text fill="#000000" font-family="sans-serif" font-size="20" lengthAdjust="spacing" textLength="168" x="928" y="96.5273">PrincipalExtensions</text><rect fill="#E2E2F0" height="64.3125" rx="2.5" ry="2.5" style="stroke:#181818;stroke-width:0.5;" width="182" x="921" y="2207.7344"/><text fill="#000000" font-family="sans-serif" font-size="20" font-style="italic" lengthAdjust="spacing" textLength="68" x="978" y="2235.4961">«utility»</text><text fill="#000000" font-family="sans-serif" font-size="20" lengthAdjust="spacing" textLength="168" x="928" y="2260.6523">PrincipalExtensions</text><rect fill="#E2E2F0" height="64.3125" rx="2.5" ry="2.5" style="stroke:#181818;stroke-width:0.5;" width="140" x="1113" y="43.6094"/><text fill="#000000" font-family="sans-serif" font-size="20" font-style="italic" lengthAdjust="spacing" textLength="86" x="1140" y="71.3711">«service»</text><text fill="#000000" font-family="sans-serif" font-size="20" lengthAdjust="spacing" textLength="126" x="1120" y="96.5273">PatientService</text><rect fill="#E2E2F0" height="64.3125" rx="2.5" ry="2.5" style="stroke:#181818;stroke-width:0.5;" width="140" x="1113" y="2207.7344"/><text fill="#000000" font-family="sans-serif" font-size="20" font-style="italic" lengthAdjust="spacing" textLength="86" x="1140" y="2235.4961">«service»</text><text fill="#000000" font-family="sans-serif" font-size="20" lengthAdjust="spacing" textLength="126" x="1120" y="2260.6523">PatientService</text><rect fill="#E2E2F0" height="64.3125" rx="2.5" ry="2.5" style="stroke:#181818;stroke-width:0.5;" width="112" x="1545" y="43.6094"/><text fill="#000000" font-family="sans-serif" font-size="20" font-style="italic" lengthAdjust="spacing" textLength="86" x="1558" y="71.3711">«service»</text><text fill="#000000" font-family="sans-serif" font-size="20" lengthAdjust="spacing" textLength="98" x="1552" y="96.5273">LogService</text><rect fill="#E2E2F0" height="64.3125" rx="2.5" ry="2.5" style="stroke:#181818;stroke-width:0.5;" width="112" x="1545" y="2207.7344"/><text fill="#000000" font-family="sans-serif" font-size="20" font-style="italic" lengthAdjust="spacing" textLength="86" x="1558" y="2235.4961">«service»</text><text fill="#000000" font-family="sans-serif" font-size="20" lengthAdjust="spacing" textLength="98" x="1552" y="2260.6523">LogService</text><rect fill="#E2E2F0" height="64.3125" rx="2.5" ry="2.5" style="stroke:#181818;stroke-width:0.5;" width="120" x="1667" y="43.6094"/><text fill="#000000" font-family="sans-serif" font-size="20" font-style="italic" lengthAdjust="spacing" textLength="86" x="1684" y="71.3711">«service»</text><text fill="#000000" font-family="sans-serif" font-size="20" lengthAdjust="spacing" textLength="106" x="1674" y="96.5273">UserService</text><rect fill="#E2E2F0" height="64.3125" rx="2.5" ry="2.5" style="stroke:#181818;stroke-width:0.5;" width="120" x="1667" y="2207.7344"/><text fill="#000000" font-family="sans-serif" font-size="20" font-style="italic" lengthAdjust="spacing" textLength="86" x="1684" y="2235.4961">«service»</text><text fill="#000000" font-family="sans-serif" font-size="20" lengthAdjust="spacing" textLength="106" x="1674" y="2260.6523">UserService</text><rect fill="#E2E2F0" height="64.3125" rx="2.5" ry="2.5" style="stroke:#181818;stroke-width:0.5;" width="133" x="2162.5" y="43.6094"/><text fill="#000000" font-family="sans-serif" font-size="20" font-style="italic" lengthAdjust="spacing" textLength="86" x="2186" y="71.3711">«service»</text><text fill="#000000" font-family="sans-serif" font-size="20" lengthAdjust="spacing" textLength="119" x="2169.5" y="96.5273">UserManager</text><rect fill="#E2E2F0" height="64.3125" rx="2.5" ry="2.5" style="stroke:#181818;stroke-width:0.5;" width="133" x="2162.5" y="2207.7344"/><text fill="#000000" font-family="sans-serif" font-size="20" font-style="italic" lengthAdjust="spacing" textLength="86" x="2186" y="2235.4961">«service»</text><text fill="#000000" font-family="sans-serif" font-size="20" lengthAdjust="spacing" textLength="119" x="2169.5" y="2260.6523">UserManager</text><rect fill="#E2E2F0" height="64.3125" rx="2.5" ry="2.5" style="stroke:#181818;stroke-width:0.5;" width="102" x="2305.5" y="43.6094"/><text fill="#000000" font-family="sans-serif" font-size="20" font-style="italic" lengthAdjust="spacing" textLength="88" x="2312.5" y="71.3711">«domain»</text><text fill="#000000" font-family="sans-serif" font-size="20" lengthAdjust="spacing" textLength="41" x="2336" y="96.5273">User</text><rect fill="#E2E2F0" height="64.3125" rx="2.5" ry="2.5" style="stroke:#181818;stroke-width:0.5;" width="102" x="2305.5" y="2207.7344"/><text fill="#000000" font-family="sans-serif" font-size="20" font-style="italic" lengthAdjust="spacing" textLength="88" x="2312.5" y="2235.4961">«domain»</text><text fill="#000000" font-family="sans-serif" font-size="20" lengthAdjust="spacing" textLength="41" x="2336" y="2260.6523">User</text><rect fill="#E2E2F0" height="64.3125" rx="2.5" ry="2.5" style="stroke:#181818;stroke-width:0.5;" width="170" x="2417.5" y="43.6094"/><text fill="#000000" font-family="sans-serif" font-size="20" font-style="italic" lengthAdjust="spacing" textLength="110" x="2447.5" y="71.3711">«repository»</text><text fill="#000000" font-family="sans-serif" font-size="20" lengthAdjust="spacing" textLength="156" x="2424.5" y="96.5273">PatientRepository</text><rect fill="#E2E2F0" height="64.3125" rx="2.5" ry="2.5" style="stroke:#181818;stroke-width:0.5;" width="170" x="2417.5" y="2207.7344"/><text fill="#000000" font-family="sans-serif" font-size="20" font-style="italic" lengthAdjust="spacing" textLength="110" x="2447.5" y="2235.4961">«repository»</text><text fill="#000000" font-family="sans-serif" font-size="20" lengthAdjust="spacing" textLength="156" x="2424.5" y="2260.6523">PatientRepository</text><rect fill="#E2E2F0" height="64.3125" rx="2.5" ry="2.5" style="stroke:#181818;stroke-width:0.5;" width="102" x="2597.5" y="43.6094"/><text fill="#000000" font-family="sans-serif" font-size="20" font-style="italic" lengthAdjust="spacing" textLength="88" x="2604.5" y="71.3711">«domain»</text><text fill="#000000" font-family="sans-serif" font-size="20" lengthAdjust="spacing" textLength="61" x="2618" y="96.5273">Patient</text><rect fill="#E2E2F0" height="64.3125" rx="2.5" ry="2.5" style="stroke:#181818;stroke-width:0.5;" width="102" x="2597.5" y="2207.7344"/><text fill="#000000" font-family="sans-serif" font-size="20" font-style="italic" lengthAdjust="spacing" textLength="88" x="2604.5" y="2235.4961">«domain»</text><text fill="#000000" font-family="sans-serif" font-size="20" lengthAdjust="spacing" textLength="61" x="2618" y="2260.6523">Patient</text><rect fill="#E2E2F0" height="64.3125" rx="2.5" ry="2.5" style="stroke:#181818;stroke-width:0.5;" width="106" x="2709.5" y="2207.7344"/><text fill="#000000" font-family="sans-serif" font-size="20" font-style="italic" lengthAdjust="spacing" textLength="49" x="2738" y="2235.4961">«dto»</text><text fill="#000000" font-family="sans-serif" font-size="20" lengthAdjust="spacing" textLength="92" x="2716.5" y="2260.6523">PatientDto</text><rect fill="#FFFFFF" height="2048.6563" style="stroke:#181818;stroke-width:1.0;" width="10" x="232" y="150.0781"/><rect fill="#FFFFFF" height="1804.7188" style="stroke:#181818;stroke-width:1.0;" width="10" x="667" y="264.5469"/><rect fill="#FFFFFF" height="39.1563" style="stroke:#181818;stroke-width:1.0;" width="10" x="1007" y="303.7031"/><rect fill="#FFFFFF" height="1596.7813" style="stroke:#181818;stroke-width:1.0;" width="10" x="1178" y="426.3281"/><rect fill="#FFFFFF" height="30" style="stroke:#181818;stroke-width:1.0;" width="10" x="1596" y="1809.4844"/><rect fill="#FFFFFF" height="624.1875" style="stroke:#181818;stroke-width:1.0;" width="10" x="1722" y="1069.9844"/><rect fill="#FFFFFF" height="28" style="stroke:#181818;stroke-width:1.0;" width="10" x="1727" y="1613.0156"/><rect fill="#FFFFFF" height="39.1563" style="stroke:#181818;stroke-width:1.0;" width="10" x="2224" y="1109.1406"/><rect fill="#FFFFFF" height="39.1563" style="stroke:#181818;stroke-width:1.0;" width="10" x="2224" y="1187.4531"/><rect fill="#FFFFFF" height="39.1563" style="stroke:#181818;stroke-width:1.0;" width="10" x="2224" y="1265.7656"/><rect fill="#FFFFFF" height="30" style="stroke:#181818;stroke-width:1.0;" width="10" x="2224" y="1457.5469"/><rect fill="#FFFFFF" height="39.1563" style="stroke:#181818;stroke-width:1.0;" width="10" x="2224" y="1526.7031"/><rect fill="#FFFFFF" height="30" style="stroke:#181818;stroke-width:1.0;" width="10" x="2351.5" y="1388.3906"/><rect fill="#FFFFFF" height="39.1563" style="stroke:#181818;stroke-width:1.0;" width="10" x="2497.5" y="465.4844"/><rect fill="#FFFFFF" height="30" style="stroke:#181818;stroke-width:1.0;" width="10" x="2497.5" y="1878.6406"/><rect fill="#FFFFFF" height="30" style="stroke:#181818;stroke-width:1.0;" width="10" x="2643.5" y="588.1094"/><rect fill="#FFFFFF" height="30" style="stroke:#181818;stroke-width:1.0;" width="10" x="2643.5" y="708.5781"/><rect fill="#FFFFFF" height="30" style="stroke:#181818;stroke-width:1.0;" width="10" x="2643.5" y="829.0469"/><rect fill="#FFFFFF" height="30" style="stroke:#181818;stroke-width:1.0;" width="10" x="2643.5" y="949.5156"/><rect fill="#FFFFFF" height="30" style="stroke:#181818;stroke-width:1.0;" width="10" x="2643.5" y="1733.3281"/><ellipse cx="7.5" cy="149.3281" fill="none" rx="4" ry="4" style="stroke:#181818;stroke-width:1.5;"/><polygon fill="#181818" points="220,146.0781,230,150.0781,220,154.0781,224,150.0781" style="stroke:#181818;stroke-width:1.0;"/><line style="stroke:#181818;stroke-width:1.0;" x1="12" x2="226" y1="150.0781" y2="150.0781"/><text fill="#000000" font-family="sans-serif" font-size="20" font-weight="bold" lengthAdjust="spacing" textLength="11" x="15" y="143.6836">1</text><text fill="#000000" font-family="sans-serif" font-size="20" lengthAdjust="spacing" textLength="190" x="30" y="143.6836">PUT(json) /api/patient</text><polygon fill="#181818" points="374,185.2344,384,189.2344,374,193.2344,378,189.2344" style="stroke:#181818;stroke-width:1.0;"/><line style="stroke:#181818;stroke-width:1.0;" x1="242" x2="380" y1="189.2344" y2="189.2344"/><text fill="#000000" font-family="sans-serif" font-size="20" font-weight="bold" lengthAdjust="spacing" textLength="11" x="249" y="182.8398">2</text><text fill="#000000" font-family="sans-serif" font-size="20" lengthAdjust="spacing" textLength="105" x="264" y="182.8398">create(json)</text><rect fill="#E2E2F0" height="64.3125" rx="2.5" ry="2.5" style="stroke:#181818;stroke-width:0.5;" width="196" x="386" y="158.0781"/><text fill="#000000" font-family="sans-serif" font-size="20" font-style="italic" lengthAdjust="spacing" textLength="49" x="459.5" y="185.8398">«dto»</text><text fill="#000000" font-family="sans-serif" font-size="20" lengthAdjust="spacing" textLength="182" x="393" y="210.9961">EditPatientProfileDto</text><polygon fill="#181818" points="655,260.5469,665,264.5469,655,268.5469,659,264.5469" style="stroke:#181818;stroke-width:1.0;"/><line style="stroke:#181818;stroke-width:1.0;" x1="242" x2="661" y1="264.5469" y2="264.5469"/><text fill="#000000" font-family="sans-serif" font-size="20" font-weight="bold" lengthAdjust="spacing" textLength="11" x="249" y="258.1523">3</text><text fill="#000000" font-family="sans-serif" font-size="20" lengthAdjust="spacing" textLength="345" x="264" y="258.1523">EditPatientProfile(editPatientProfileDto)</text><polygon fill="#181818" points="995,299.7031,1005,303.7031,995,307.7031,999,303.7031" style="stroke:#181818;stroke-width:1.0;"/><line style="stroke:#181818;stroke-width:1.0;" x1="677" x2="1001" y1="303.7031" y2="303.7031"/><text fill="#000000" font-family="sans-serif" font-size="20" font-weight="bold" lengthAdjust="spacing" textLength="11" x="684" y="297.3086">4</text><text fill="#000000" font-family="sans-serif" font-size="20" lengthAdjust="spacing" textLength="296" x="699" y="297.3086">FindFirstValue(ClaimTypes.Email)</text><polygon fill="#181818" points="688,338.8594,678,342.8594,688,346.8594,684,342.8594" style="stroke:#181818;stroke-width:1.0;"/><line style="stroke:#181818;stroke-width:1.0;stroke-dasharray:2.0,2.0;" x1="682" x2="1011" y1="342.8594" y2="342.8594"/><text fill="#000000" font-family="sans-serif" font-size="20" font-weight="bold" lengthAdjust="spacing" textLength="11" x="694" y="336.4648">5</text><text fill="#000000" font-family="sans-serif" font-size="20" lengthAdjust="spacing" textLength="169" x="709" y="336.4648">emailLoggedInUser</text><path d="M582,357.8594 L650,357.8594 L650,375.0156 L640,385.0156 L582,385.0156 L582,357.8594 " fill="#EEEEEE" style="stroke:#000000;stroke-width:1.5;"/><rect fill="none" height="1673.25" style="stroke:#000000;stroke-width:1.5;" width="2243.5" x="582" y="357.8594"/><text fill="#000000" font-family="sans-serif" font-size="20" font-weight="bold" lengthAdjust="spacing" textLength="23" x="597" y="379.6211">alt</text><text fill="#000000" font-family="sans-serif" font-size="20" font-weight="bold" lengthAdjust="spacing" textLength="128" x="665" y="380.6211">[email != null]</text><polygon fill="#181818" points="1166,422.3281,1176,426.3281,1166,430.3281,1170,426.3281" style="stroke:#181818;stroke-width:1.0;"/><line style="stroke:#181818;stroke-width:1.0;" x1="677" x2="1172" y1="426.3281" y2="426.3281"/><text fill="#000000" font-family="sans-serif" font-size="20" font-weight="bold" lengthAdjust="spacing" textLength="11" x="684" y="419.9336">6</text><text fill="#000000" font-family="sans-serif" font-size="20" lengthAdjust="spacing" textLength="459" x="699" y="419.9336">EditProfile(emailLoggedInUser,editPatientProfileDto)</text><polygon fill="#181818" points="2485.5,461.4844,2495.5,465.4844,2485.5,469.4844,2489.5,465.4844" style="stroke:#181818;stroke-width:1.0;"/><line style="stroke:#181818;stroke-width:1.0;" x1="1188" x2="2491.5" y1="465.4844" y2="465.4844"/><text fill="#000000" font-family="sans-serif" font-size="20" font-weight="bold" lengthAdjust="spacing" textLength="11" x="1195" y="459.0898">7</text><text fill="#000000" font-family="sans-serif" font-size="20" lengthAdjust="spacing" textLength="286" x="1210" y="459.0898">FindPatientWithUserEmail(email)</text><polygon fill="#181818" points="1199,500.6406,1189,504.6406,1199,508.6406,1195,504.6406" style="stroke:#181818;stroke-width:1.0;"/><line style="stroke:#181818;stroke-width:1.0;" x1="1193" x2="2501.5" y1="504.6406" y2="504.6406"/><text fill="#000000" font-family="sans-serif" font-size="20" font-weight="bold" lengthAdjust="spacing" textLength="11" x="1205" y="498.2461">8</text><text fill="#000000" font-family="sans-serif" font-size="20" lengthAdjust="spacing" textLength="59" x="1220" y="498.2461">patient</text><path d="M1103,519.6406 L1171,519.6406 L1171,536.7969 L1161,546.7969 L1103,546.7969 L1103,519.6406 " fill="#EEEEEE" style="stroke:#000000;stroke-width:1.5;"/><rect fill="none" height="106.4688" style="stroke:#000000;stroke-width:1.5;" width="1606.5" x="1103" y="519.6406"/><text fill="#000000" font-family="sans-serif" font-size="20" font-weight="bold" lengthAdjust="spacing" textLength="23" x="1118" y="541.4023">alt</text><text fill="#000000" font-family="sans-serif" font-size="20" font-weight="bold" lengthAdjust="spacing" textLength="251" x="1186" y="542.4023">[newPhoneNumber != null]</text><polygon fill="#181818" points="2631.5,584.1094,2641.5,588.1094,2631.5,592.1094,2635.5,588.1094" style="stroke:#181818;stroke-width:1.0;"/><line style="stroke:#181818;stroke-width:1.0;" x1="1188" x2="2637.5" y1="588.1094" y2="588.1094"/><text fill="#000000" font-family="sans-serif" font-size="20" font-weight="bold" lengthAdjust="spacing" textLength="11" x="1195" y="581.7148">9</text><text fill="#000000" font-family="sans-serif" font-size="20" lengthAdjust="spacing" textLength="295" x="1210" y="581.7148">ChangePhone(newPhoneNumber)</text><path d="M1103,640.1094 L1171,640.1094 L1171,657.2656 L1161,667.2656 L1103,667.2656 L1103,640.1094 " fill="#EEEEEE" style="stroke:#000000;stroke-width:1.5;"/><rect fill="none" height="106.4688" style="stroke:#000000;stroke-width:1.5;" width="1606.5" x="1103" y="640.1094"/><text fill="#000000" font-family="sans-serif" font-size="20" font-weight="bold" lengthAdjust="spacing" textLength="23" x="1118" y="661.8711">alt</text><text fill="#000000" font-family="sans-serif" font-size="20" font-weight="bold" lengthAdjust="spacing" textLength="195" x="1186" y="662.8711">[newAddress != null]</text><polygon fill="#181818" points="2631.5,704.5781,2641.5,708.5781,2631.5,712.5781,2635.5,708.5781" style="stroke:#181818;stroke-width:1.0;"/><line style="stroke:#181818;stroke-width:1.0;" x1="1188" x2="2637.5" y1="708.5781" y2="708.5781"/><text fill="#000000" font-family="sans-serif" font-size="20" font-weight="bold" lengthAdjust="spacing" textLength="22" x="1195" y="702.1836">10</text><text fill="#000000" font-family="sans-serif" font-size="20" lengthAdjust="spacing" textLength="263" x="1221" y="702.1836">ChangeAddress(newAddress)</text><path d="M1103,760.5781 L1171,760.5781 L1171,777.7344 L1161,787.7344 L1103,787.7344 L1103,760.5781 " fill="#EEEEEE" style="stroke:#000000;stroke-width:1.5;"/><rect fill="none" height="106.4688" style="stroke:#000000;stroke-width:1.5;" width="1606.5" x="1103" y="760.5781"/><text fill="#000000" font-family="sans-serif" font-size="20" font-weight="bold" lengthAdjust="spacing" textLength="23" x="1118" y="782.3398">alt</text><text fill="#000000" font-family="sans-serif" font-size="20" font-weight="bold" lengthAdjust="spacing" textLength="170" x="1186" y="783.3398">[newName != null]</text><polygon fill="#181818" points="2631.5,825.0469,2641.5,829.0469,2631.5,833.0469,2635.5,829.0469" style="stroke:#181818;stroke-width:1.0;"/><line style="stroke:#181818;stroke-width:1.0;" x1="1188" x2="2637.5" y1="829.0469" y2="829.0469"/><text fill="#000000" font-family="sans-serif" font-size="20" font-weight="bold" lengthAdjust="spacing" textLength="22" x="1195" y="822.6523">11</text><text fill="#000000" font-family="sans-serif" font-size="20" lengthAdjust="spacing" textLength="219" x="1221" y="822.6523">ChangeName(newName)</text><path d="M1103,881.0469 L1171,881.0469 L1171,898.2031 L1161,908.2031 L1103,908.2031 L1103,881.0469 " fill="#EEEEEE" style="stroke:#000000;stroke-width:1.5;"/><rect fill="none" height="106.4688" style="stroke:#000000;stroke-width:1.5;" width="1606.5" x="1103" y="881.0469"/><text fill="#000000" font-family="sans-serif" font-size="20" font-weight="bold" lengthAdjust="spacing" textLength="23" x="1118" y="902.8086">alt</text><text fill="#000000" font-family="sans-serif" font-size="20" font-weight="bold" lengthAdjust="spacing" textLength="297" x="1186" y="903.8086">[newEmergencyContact != null]</text><polygon fill="#181818" points="2631.5,945.5156,2641.5,949.5156,2631.5,953.5156,2635.5,949.5156" style="stroke:#181818;stroke-width:1.0;"/><line style="stroke:#181818;stroke-width:1.0;" x1="1188" x2="2637.5" y1="949.5156" y2="949.5156"/><text fill="#000000" font-family="sans-serif" font-size="20" font-weight="bold" lengthAdjust="spacing" textLength="22" x="1195" y="943.1211">12</text><text fill="#000000" font-family="sans-serif" font-size="20" lengthAdjust="spacing" textLength="451" x="1221" y="943.1211">ChangeEmergencyContact(newEmergencyContact)</text><path d="M1103,1001.5156 L1171,1001.5156 L1171,1018.6719 L1161,1028.6719 L1103,1028.6719 L1103,1001.5156 " fill="#EEEEEE" style="stroke:#000000;stroke-width:1.5;"/><rect fill="none" height="769.8125" style="stroke:#000000;stroke-width:1.5;" width="1606.5" x="1103" y="1001.5156"/><text fill="#000000" font-family="sans-serif" font-size="20" font-weight="bold" lengthAdjust="spacing" textLength="23" x="1118" y="1023.2773">alt</text><text fill="#000000" font-family="sans-serif" font-size="20" font-weight="bold" lengthAdjust="spacing" textLength="168" x="1186" y="1024.2773">[newEmail != null]</text><polygon fill="#181818" points="1710,1065.9844,1720,1069.9844,1710,1073.9844,1714,1069.9844" style="stroke:#181818;stroke-width:1.0;"/><line style="stroke:#181818;stroke-width:1.0;" x1="1188" x2="1716" y1="1069.9844" y2="1069.9844"/><text fill="#000000" font-family="sans-serif" font-size="20" font-weight="bold" lengthAdjust="spacing" textLength="22" x="1195" y="1063.5898">13</text><text fill="#000000" font-family="sans-serif" font-size="20" lengthAdjust="spacing" textLength="309" x="1221" y="1063.5898">EditUserProfile(oldEmail,newEmail)</text><polygon fill="#181818" points="2212,1105.1406,2222,1109.1406,2212,1113.1406,2216,1109.1406" style="stroke:#181818;stroke-width:1.0;"/><line style="stroke:#181818;stroke-width:1.0;" x1="1732" x2="2218" y1="1109.1406" y2="1109.1406"/><text fill="#000000" font-family="sans-serif" font-size="20" font-weight="bold" lengthAdjust="spacing" textLength="22" x="1739" y="1102.7461">14</text><text fill="#000000" font-family="sans-serif" font-size="20" lengthAdjust="spacing" textLength="249" x="1765" y="1102.7461">FindByEmailAsync(oldEmail)</text><polygon fill="#181818" points="1743,1144.2969,1733,1148.2969,1743,1152.2969,1739,1148.2969" style="stroke:#181818;stroke-width:1.0;"/><line style="stroke:#181818;stroke-width:1.0;stroke-dasharray:2.0,2.0;" x1="1737" x2="2228" y1="1148.2969" y2="1148.2969"/><text fill="#000000" font-family="sans-serif" font-size="20" font-weight="bold" lengthAdjust="spacing" textLength="22" x="1749" y="1141.9023">15</text><text fill="#000000" font-family="sans-serif" font-size="20" lengthAdjust="spacing" textLength="38" x="1775" y="1141.9023">user</text><polygon fill="#181818" points="2212,1183.4531,2222,1187.4531,2212,1191.4531,2216,1187.4531" style="stroke:#181818;stroke-width:1.0;"/><line style="stroke:#181818;stroke-width:1.0;" x1="1732" x2="2218" y1="1187.4531" y2="1187.4531"/><text fill="#000000" font-family="sans-serif" font-size="20" font-weight="bold" lengthAdjust="spacing" textLength="22" x="1739" y="1181.0586">16</text><text fill="#000000" font-family="sans-serif" font-size="20" lengthAdjust="spacing" textLength="447" x="1765" y="1181.0586">GenerateChangeEmailTokenAsync(user,newEmail)</text><polygon fill="#181818" points="1743,1222.6094,1733,1226.6094,1743,1230.6094,1739,1226.6094" style="stroke:#181818;stroke-width:1.0;"/><line style="stroke:#181818;stroke-width:1.0;stroke-dasharray:2.0,2.0;" x1="1737" x2="2228" y1="1226.6094" y2="1226.6094"/><text fill="#000000" font-family="sans-serif" font-size="20" font-weight="bold" lengthAdjust="spacing" textLength="22" x="1749" y="1220.2148">17</text><text fill="#000000" font-family="sans-serif" font-size="20" lengthAdjust="spacing" textLength="48" x="1775" y="1220.2148">token</text><polygon fill="#181818" points="2212,1261.7656,2222,1265.7656,2212,1269.7656,2216,1265.7656" style="stroke:#181818;stroke-width:1.0;"/><line style="stroke:#181818;stroke-width:1.0;" x1="1732" x2="2218" y1="1265.7656" y2="1265.7656"/><text fill="#000000" font-family="sans-serif" font-size="20" font-weight="bold" lengthAdjust="spacing" textLength="22" x="1739" y="1259.3711">18</text><text fill="#000000" font-family="sans-serif" font-size="20" lengthAdjust="spacing" textLength="376" x="1765" y="1259.3711">ChangeEmailAsync(user, newEmail, token)</text><polygon fill="#181818" points="1743,1300.9219,1733,1304.9219,1743,1308.9219,1739,1304.9219" style="stroke:#181818;stroke-width:1.0;"/><line style="stroke:#181818;stroke-width:1.0;stroke-dasharray:2.0,2.0;" x1="1737" x2="2228" y1="1304.9219" y2="1304.9219"/><text fill="#000000" font-family="sans-serif" font-size="20" font-weight="bold" lengthAdjust="spacing" textLength="22" x="1749" y="1298.5273">19</text><text fill="#000000" font-family="sans-serif" font-size="20" lengthAdjust="spacing" textLength="48" x="1775" y="1298.5273">result</text><path d="M1657,1319.9219 L1725,1319.9219 L1725,1337.0781 L1715,1347.0781 L1657,1347.0781 L1657,1319.9219 " fill="#EEEEEE" style="stroke:#000000;stroke-width:1.5;"/><rect fill="none" height="336.0938" style="stroke:#000000;stroke-width:1.5;" width="760.5" x="1657" y="1319.9219"/><text fill="#000000" font-family="sans-serif" font-size="20" font-weight="bold" lengthAdjust="spacing" textLength="23" x="1672" y="1341.6836">alt</text><text fill="#000000" font-family="sans-serif" font-size="20" font-weight="bold" lengthAdjust="spacing" textLength="142" x="1740" y="1342.6836">[result == true]</text><polygon fill="#181818" points="2339.5,1384.3906,2349.5,1388.3906,2339.5,1392.3906,2343.5,1388.3906" style="stroke:#181818;stroke-width:1.0;"/><line style="stroke:#181818;stroke-width:1.0;" x1="1732" x2="2345.5" y1="1388.3906" y2="1388.3906"/><text fill="#000000" font-family="sans-serif" font-size="20" font-weight="bold" lengthAdjust="spacing" textLength="22" x="1739" y="1381.9961">20</text><text fill="#000000" font-family="sans-serif" font-size="20" lengthAdjust="spacing" textLength="175" x="1765" y="1381.9961">changeStatus(false)</text><polygon fill="#181818" points="2212,1453.5469,2222,1457.5469,2212,1461.5469,2216,1457.5469" style="stroke:#181818;stroke-width:1.0;"/><line style="stroke:#181818;stroke-width:1.0;" x1="1732" x2="2218" y1="1457.5469" y2="1457.5469"/><text fill="#000000" font-family="sans-serif" font-size="20" font-weight="bold" lengthAdjust="spacing" textLength="22" x="1739" y="1451.1523">21</text><text fill="#000000" font-family="sans-serif" font-size="20" lengthAdjust="spacing" textLength="168" x="1765" y="1451.1523">UpdateAsync(user)</text><polygon fill="#181818" points="2212,1522.7031,2222,1526.7031,2212,1530.7031,2216,1526.7031" style="stroke:#181818;stroke-width:1.0;"/><line style="stroke:#181818;stroke-width:1.0;" x1="1732" x2="2218" y1="1526.7031" y2="1526.7031"/><text fill="#000000" font-family="sans-serif" font-size="20" font-weight="bold" lengthAdjust="spacing" textLength="22" x="1739" y="1520.3086">22</text><text fill="#000000" font-family="sans-serif" font-size="20" lengthAdjust="spacing" textLength="400" x="1765" y="1520.3086">GenerateEmailConfirmationTokenAsync(user)</text><polygon fill="#181818" points="1743,1561.8594,1733,1565.8594,1743,1569.8594,1739,1565.8594" style="stroke:#181818;stroke-width:1.0;"/><line style="stroke:#181818;stroke-width:1.0;stroke-dasharray:2.0,2.0;" x1="1737" x2="2228" y1="1565.8594" y2="1565.8594"/><text fill="#000000" font-family="sans-serif" font-size="20" font-weight="bold" lengthAdjust="spacing" textLength="22" x="1749" y="1559.4648">23</text><text fill="#000000" font-family="sans-serif" font-size="20" lengthAdjust="spacing" textLength="48" x="1775" y="1559.4648">token</text><line style="stroke:#181818;stroke-width:1.0;" x1="1737" x2="1779" y1="1605.0156" y2="1605.0156"/><line style="stroke:#181818;stroke-width:1.0;" x1="1779" x2="1779" y1="1605.0156" y2="1618.0156"/><line style="stroke:#181818;stroke-width:1.0;" x1="1738" x2="1779" y1="1618.0156" y2="1618.0156"/><polygon fill="#181818" points="1748,1614.0156,1738,1618.0156,1748,1622.0156,1744,1618.0156" style="stroke:#181818;stroke-width:1.0;"/><text fill="#000000" font-family="sans-serif" font-size="20" font-weight="bold" lengthAdjust="spacing" textLength="22" x="1744" y="1598.6211">24</text><text fill="#000000" font-family="sans-serif" font-size="20" lengthAdjust="spacing" textLength="389" x="1770" y="1598.6211">SendConfirmationEmail(user,oldEmail,token)</text><polygon fill="#181818" points="1199,1690.1719,1189,1694.1719,1199,1698.1719,1195,1694.1719" style="stroke:#181818;stroke-width:1.0;"/><line style="stroke:#181818;stroke-width:1.0;stroke-dasharray:2.0,2.0;" x1="1193" x2="1726" y1="1694.1719" y2="1694.1719"/><text fill="#000000" font-family="sans-serif" font-size="20" font-weight="bold" lengthAdjust="spacing" textLength="22" x="1205" y="1687.7773">25</text><text fill="#000000" font-family="sans-serif" font-size="20" lengthAdjust="spacing" textLength="6" x="1231" y="1687.7773"> </text><polygon fill="#181818" points="2631.5,1729.3281,2641.5,1733.3281,2631.5,1737.3281,2635.5,1733.3281" style="stroke:#181818;stroke-width:1.0;"/><line style="stroke:#181818;stroke-width:1.0;" x1="1188" x2="2637.5" y1="1733.3281" y2="1733.3281"/><text fill="#000000" font-family="sans-serif" font-size="20" font-weight="bold" lengthAdjust="spacing" textLength="22" x="1195" y="1726.9336">26</text><text fill="#000000" font-family="sans-serif" font-size="20" lengthAdjust="spacing" textLength="213" x="1221" y="1726.9336">ChangeEmail(newEmail)</text><polygon fill="#181818" points="1584,1805.4844,1594,1809.4844,1584,1813.4844,1588,1809.4844" style="stroke:#181818;stroke-width:1.0;"/><line style="stroke:#181818;stroke-width:1.0;" x1="1188" x2="1590" y1="1809.4844" y2="1809.4844"/><text fill="#000000" font-family="sans-serif" font-size="20" font-weight="bold" lengthAdjust="spacing" textLength="22" x="1195" y="1803.0898">27</text><text fill="#000000" font-family="sans-serif" font-size="20" lengthAdjust="spacing" textLength="363" x="1221" y="1803.0898">CreateEditLog(patientId,patientClass,log)</text><polygon fill="#181818" points="2485.5,1874.6406,2495.5,1878.6406,2485.5,1882.6406,2489.5,1878.6406" style="stroke:#181818;stroke-width:1.0;"/><line style="stroke:#181818;stroke-width:1.0;" x1="1188" x2="2491.5" y1="1878.6406" y2="1878.6406"/><text fill="#000000" font-family="sans-serif" font-size="20" font-weight="bold" lengthAdjust="spacing" textLength="22" x="1195" y="1872.2461">28</text><text fill="#000000" font-family="sans-serif" font-size="20" lengthAdjust="spacing" textLength="55" x="1221" y="1872.2461">save()</text><polygon fill="#181818" points="2697.5,1943.7969,2707.5,1947.7969,2697.5,1951.7969,2701.5,1947.7969" style="stroke:#181818;stroke-width:1.0;"/><line style="stroke:#181818;stroke-width:1.0;" x1="1188" x2="2703.5" y1="1947.7969" y2="1947.7969"/><text fill="#000000" font-family="sans-serif" font-size="20" font-weight="bold" lengthAdjust="spacing" textLength="22" x="1195" y="1941.4023">29</text><text fill="#000000" font-family="sans-serif" font-size="20" lengthAdjust="spacing" textLength="374" x="1221" y="1941.4023">create(name,phoneNumber,email,address)</text><rect fill="#E2E2F0" height="64.3125" rx="2.5" ry="2.5" style="stroke:#181818;stroke-width:0.5;" width="106" x="2709.5" y="1916.6406"/><text fill="#000000" font-family="sans-serif" font-size="20" font-style="italic" lengthAdjust="spacing" textLength="49" x="2738" y="1944.4023">«dto»</text><text fill="#000000" font-family="sans-serif" font-size="20" lengthAdjust="spacing" textLength="92" x="2716.5" y="1969.5586">PatientDto</text><polygon fill="#181818" points="688,2019.1094,678,2023.1094,688,2027.1094,684,2023.1094" style="stroke:#181818;stroke-width:1.0;"/><line style="stroke:#181818;stroke-width:1.0;stroke-dasharray:2.0,2.0;" x1="682" x2="1182" y1="2023.1094" y2="2023.1094"/><text fill="#000000" font-family="sans-serif" font-size="20" font-weight="bold" lengthAdjust="spacing" textLength="22" x="694" y="2016.7148">30</text><text fill="#000000" font-family="sans-serif" font-size="20" lengthAdjust="spacing" textLength="90" x="720" y="2016.7148">patientDto</text><polygon fill="#181818" points="253,2065.2656,243,2069.2656,253,2073.2656,249,2069.2656" style="stroke:#181818;stroke-width:1.0;"/><line style="stroke:#181818;stroke-width:1.0;stroke-dasharray:2.0,2.0;" x1="247" x2="671" y1="2069.2656" y2="2069.2656"/><text fill="#000000" font-family="sans-serif" font-size="20" font-weight="bold" lengthAdjust="spacing" textLength="22" x="259" y="2062.8711">31</text><text fill="#000000" font-family="sans-serif" font-size="20" lengthAdjust="spacing" textLength="71" x="285" y="2062.8711">success</text><path d="M11,2084.2656 L79,2084.2656 L79,2101.4219 L69,2111.4219 L11,2111.4219 L11,2084.2656 " fill="#EEEEEE" style="stroke:#000000;stroke-width:1.5;"/><rect fill="none" height="107.4688" style="stroke:#000000;stroke-width:1.5;" width="299.5" x="11" y="2084.2656"/><text fill="#000000" font-family="sans-serif" font-size="20" font-weight="bold" lengthAdjust="spacing" textLength="23" x="26" y="2106.0273">alt</text><ellipse cx="7.5" cy="2141.8281" fill="none" rx="4" ry="4" style="stroke:#181818;stroke-width:1.5;"/><polygon fill="#181818" points="24.5,2138.5781,14.5,2142.5781,24.5,2146.5781,20.5,2142.5781" style="stroke:#181818;stroke-width:1.0;"/><line style="stroke:#181818;stroke-width:1.0;stroke-dasharray:2.0,2.0;" x1="22.5" x2="231" y1="2142.5781" y2="2142.5781"/><text fill="#000000" font-family="sans-serif" font-size="20" font-weight="bold" lengthAdjust="spacing" textLength="22" x="25" y="2136.1836">32</text><text fill="#000000" font-family="sans-serif" font-size="20" lengthAdjust="spacing" textLength="97" x="51" y="2136.1836">Accepted()</text><line style="stroke:#000000;stroke-width:1.0;stroke-dasharray:2.0,2.0;" x1="11" x2="310.5" y1="2151.5781" y2="2151.5781"/><ellipse cx="7.5" cy="2182.9844" fill="none" rx="4" ry="4" style="stroke:#181818;stroke-width:1.5;"/><polygon fill="#181818" points="24.5,2179.7344,14.5,2183.7344,24.5,2187.7344,20.5,2183.7344" style="stroke:#181818;stroke-width:1.0;"/><line style="stroke:#181818;stroke-width:1.0;stroke-dasharray:2.0,2.0;" x1="22.5" x2="231" y1="2183.7344" y2="2183.7344"/><text fill="#000000" font-family="sans-serif" font-size="20" font-weight="bold" lengthAdjust="spacing" textLength="22" x="25" y="2177.3398">33</text><text fill="#000000" font-family="sans-serif" font-size="20" lengthAdjust="spacing" textLength="122" x="51" y="2177.3398">BadRequest()</text><!--SRC=[hLXHKziu47xthz3nv7IIjD3IwMM0EGY6WuaX4plqWRbXL7i9EXp9jUNqSh_-LfBjc2Hsd5xpm0Hdls-_prglLavV6OzfGkUH25uX924yqooILu9BZ_qBvEY3PKac8o07KuySzm_xd_gaHyQ9221DoGE37-Hn10k8oCU_3YoBPbBmRFuD4Wjf9GjOJBaa1sCg6N0v4Pc40q9JChcV-WuvEKdKbREpjz5Eo6IEm4pFB89BAJGifl8fb0A1-7STbaE6A3uHKGI9XWpzoGZZW_Bg1YnXN7sFd7yay9G9dXhWwFp6zH2QIHOnkQn9vq6oO85nvJqCCJurLzRZHs9MZHtTNzV7Jl5wDNZgFJLogtYNSZhBJK_TvjYSr9ceEodcbF4QTnE8HSgaI9PcsPpnlLgryceDJ0UFp_qRvyxVbQ9OsppywTA_BzSNFu-YTsRAPK36Kz_-EnMyGzxJcBsF3O550yaML889ionJN0WhokNTkm494i0G0w-4gF8OaCsAis5R4NPMkHJGidHrAHfJB0DonNXunP9KFj0e0tiOKJRtbp6aVGVlGLGbq12aCD1UBWOvG4LYkSmWlE5gkQmGDc0qaYQG_7PAU1P5baNmKmXIvPBxAWojitPhB2gQCXto6695g5O2Ay2up95VcNnHRDgUIR96eI26GvUF4JSWnUgf7oh-Lj7A8OSVunV1uKutbT8goJ-vgABI1cJuGlaCDCH-Y-sKe39L3Yj_gAXO_mbugFHOAn8ZxZmC4zK9ruKrYCiXzWhTUGEhrR13ubQP5QbtT0vRTJPeLHWxntOsG8rIMgYjLLnHxSmXcG4Fbggj8rkjWmONwnps5jxELiATybkwR7Jwnkt60ztWq-mAvYbNZs3nf8ier4JTWh5JorGgDrprAVCTI6LrpVD_iTJSv-cI1sNADfdS-YIkReE5hqorlhhOobr7nfQwhu53Wf2YBb2nBrw16nCgtrxth2dlMojIPVcrNYeUAlBBAkgQdBzqGR1PuNJuVsseMZTCvFIKo2I3-jWrspYnu4wkZNkIoYordscKGgSHNwbnPz8OMJMWOjlAmjMOnY72LWlHLfBRMf2xZvoYq7KfO8jxPiaSzrl1rygzlSpcvFjK-yyRo-azRALLJsRqqELVjhuTnR-jzxMkZCPerBRx2Svd8AjzkbrxmUQUf-x97isiQUlQOvVRkTDLDECH2ENgkLnjOJYRslbGU1DsysyuGATfDnAp5XQGhury5RPBcfvK1oIb2x1RPDP3QulKg-6s9lTg9TKvg79kuJY1TUFLEDlLatQN5XFa3aVbIISk3rrjzEhA-_brDeUHrVajpGBrtg1DPdEyQjX2cfl6epZfzOgqvvWrbX3YIjPxmMra3yeB6axWUmQfR29jTPFMIqIVOPk2_q3AR8xZuJZ2S_JK7P459Egz1Jdi7tqu-jW_jBsCarlAoT7lvF1eSFnbSFoPV7LyedxkMFRrU4HIaIK1a92bCc7VCjL7EzOjNL0ooRXaSnWGzP_jkntYESL5ul05ImIVgvFRxODhWiYVGdgna3huywVU1PD4lRx04zk3QrsQbqe83KJ8-0mtI_-gzyKQOP_Aw0mJnT8Q2aoGBF6Cx_y7]--></g></svg>