<?xml version="1.0" encoding="UTF-8" standalone="no"?><svg xmlns="http://www.w3.org/2000/svg" xmlns:xlink="http://www.w3.org/1999/xlink" contentStyleType="text/css" height="2278px" preserveAspectRatio="none" style="width:2823px;height:2278px;background:#FFFFFF;" version="1.1" viewBox="0 0 2823 2278" width="2823px" zoomAndPan="magnify"><defs/><g><text fill="#000000" font-family="sans-serif" font-size="14" font-weight="bold" lengthAdjust="spacing" textLength="231" x="1297.75" y="29.5332">US 5.1.4. - Process View [Level 3]</text><rect fill="#FFFFFF" height="2048.6563" style="stroke:#181818;stroke-width:1.0;" width="10" x="232" y="150.0781"/><rect fill="#FFFFFF" height="1804.7188" style="stroke:#181818;stroke-width:1.0;" width="10" x="667" y="264.5469"/><rect fill="#FFFFFF" height="39.1563" style="stroke:#181818;stroke-width:1.0;" width="10" x="1007" y="303.7031"/><rect fill="#FFFFFF" height="1596.7813" style="stroke:#181818;stroke-width:1.0;" width="10" x="1170" y="426.3281"/><rect fill="#FFFFFF" height="30" style="stroke:#181818;stroke-width:1.0;" width="10" x="1588" y="1809.4844"/><rect fill="#FFFFFF" height="624.1875" style="stroke:#181818;stroke-width:1.0;" width="10" x="1714" y="1069.9844"/><rect fill="#FFFFFF" height="28" style="stroke:#181818;stroke-width:1.0;" width="10" x="1719" y="1613.0156"/><rect fill="#FFFFFF" height="39.1563" style="stroke:#181818;stroke-width:1.0;" width="10" x="2216" y="1109.1406"/><rect fill="#FFFFFF" height="39.1563" style="stroke:#181818;stroke-width:1.0;" width="10" x="2216" y="1187.4531"/><rect fill="#FFFFFF" height="39.1563" style="stroke:#181818;stroke-width:1.0;" width="10" x="2216" y="1265.7656"/><rect fill="#FFFFFF" height="30" style="stroke:#181818;stroke-width:1.0;" width="10" x="2216" y="1457.5469"/><rect fill="#FFFFFF" height="39.1563" style="stroke:#181818;stroke-width:1.0;" width="10" x="2216" y="1526.7031"/><rect fill="#FFFFFF" height="30" style="stroke:#181818;stroke-width:1.0;" width="10" x="2343.5" y="1388.3906"/><rect fill="#FFFFFF" height="39.1563" style="stroke:#181818;stroke-width:1.0;" width="10" x="2489.5" y="465.4844"/><rect fill="#FFFFFF" height="30" style="stroke:#181818;stroke-width:1.0;" width="10" x="2489.5" y="1878.6406"/><rect fill="#FFFFFF" height="30" style="stroke:#181818;stroke-width:1.0;" width="10" x="2635.5" y="588.1094"/><rect fill="#FFFFFF" height="30" style="stroke:#181818;stroke-width:1.0;" width="10" x="2635.5" y="708.5781"/><rect fill="#FFFFFF" height="30" style="stroke:#181818;stroke-width:1.0;" width="10" x="2635.5" y="829.0469"/><rect fill="#FFFFFF" height="30" style="stroke:#181818;stroke-width:1.0;" width="10" x="2635.5" y="949.5156"/><rect fill="#FFFFFF" height="30" style="stroke:#181818;stroke-width:1.0;" width="10" x="2635.5" y="1733.3281"/><rect fill="none" height="1673.25" style="stroke:#000000;stroke-width:1.5;" width="2235.5" x="582" y="357.8594"/><rect fill="none" height="106.4688" style="stroke:#000000;stroke-width:1.5;" width="1606.5" x="1095" y="519.6406"/><rect fill="none" height="106.4688" style="stroke:#000000;stroke-width:1.5;" width="1606.5" x="1095" y="640.1094"/><rect fill="none" height="106.4688" style="stroke:#000000;stroke-width:1.5;" width="1606.5" x="1095" y="760.5781"/><rect fill="none" height="106.4688" style="stroke:#000000;stroke-width:1.5;" width="1606.5" x="1095" y="881.0469"/><rect fill="none" height="769.8125" style="stroke:#000000;stroke-width:1.5;" width="1606.5" x="1095" y="1001.5156"/><rect fill="none" height="336.0938" style="stroke:#000000;stroke-width:1.5;" width="760.5" x="1649" y="1319.9219"/><rect fill="none" height="107.4688" style="stroke:#000000;stroke-width:1.5;" width="299.5" x="11" y="2084.2656"/><line style="stroke:#181818;stroke-width:0.5;stroke-dasharray:5.0,5.0;" x1="236.5" x2="236.5" y1="108.9219" y2="2208.7344"/><line style="stroke:#181818;stroke-width:0.5;stroke-dasharray:5.0,5.0;" x1="484" x2="484" y1="205.7344" y2="2208.7344"/><line style="stroke:#181818;stroke-width:0.5;stroke-dasharray:5.0,5.0;" x1="672" x2="672" y1="108.9219" y2="2208.7344"/><line style="stroke:#181818;stroke-width:0.5;stroke-dasharray:5.0,5.0;" x1="1011.5" x2="1011.5" y1="108.9219" y2="2208.7344"/><line style="stroke:#181818;stroke-width:0.5;stroke-dasharray:5.0,5.0;" x1="1175" x2="1175" y1="108.9219" y2="2208.7344"/><line style="stroke:#181818;stroke-width:0.5;stroke-dasharray:5.0,5.0;" x1="1593" x2="1593" y1="108.9219" y2="2208.7344"/><line style="stroke:#181818;stroke-width:0.5;stroke-dasharray:5.0,5.0;" x1="1719" x2="1719" y1="108.9219" y2="2208.7344"/><line style="stroke:#181818;stroke-width:0.5;stroke-dasharray:5.0,5.0;" x1="2220.5" x2="2220.5" y1="108.9219" y2="2208.7344"/><line style="stroke:#181818;stroke-width:0.5;stroke-dasharray:5.0,5.0;" x1="2348.5" x2="2348.5" y1="108.9219" y2="2208.7344"/><line style="stroke:#181818;stroke-width:0.5;stroke-dasharray:5.0,5.0;" x1="2494.5" x2="2494.5" y1="108.9219" y2="2208.7344"/><line style="stroke:#181818;stroke-width:0.5;stroke-dasharray:5.0,5.0;" x1="2640.5" x2="2640.5" y1="108.9219" y2="2208.7344"/><line style="stroke:#181818;stroke-width:0.5;stroke-dasharray:5.0,5.0;" x1="2754.5" x2="2754.5" y1="1964.2969" y2="2208.7344"/><rect fill="#E2E2F0" height="64.3125" rx="2.5" ry="2.5" style="stroke:#181818;stroke-width:0.5;" width="127" x="173.5" y="43.6094"/><text fill="#000000" font-family="sans-serif" font-size="20" font-style="italic" lengthAdjust="spacing" textLength="67" x="203.5" y="71.3711">«route»</text><text fill="#000000" font-family="sans-serif" font-size="20" lengthAdjust="spacing" textLength="113" x="180.5" y="96.5273">PatientRoute</text><rect fill="#E2E2F0" height="64.3125" rx="2.5" ry="2.5" style="stroke:#181818;stroke-width:0.5;" width="127" x="173.5" y="2207.7344"/><text fill="#000000" font-family="sans-serif" font-size="20" font-style="italic" lengthAdjust="spacing" textLength="67" x="203.5" y="2235.4961">«route»</text><text fill="#000000" font-family="sans-serif" font-size="20" lengthAdjust="spacing" textLength="113" x="180.5" y="2260.6523">PatientRoute</text><rect fill="#E2E2F0" height="64.3125" rx="2.5" ry="2.5" style="stroke:#181818;stroke-width:0.5;" width="196" x="386" y="2207.7344"/><text fill="#000000" font-family="sans-serif" font-size="20" font-style="italic" lengthAdjust="spacing" textLength="49" x="459.5" y="2235.4961">«dto»</text><text fill="#000000" font-family="sans-serif" font-size="20" lengthAdjust="spacing" textLength="182" x="393" y="2260.6523">EditPatientProfileDto</text><rect fill="#E2E2F0" height="64.3125" rx="2.5" ry="2.5" style="stroke:#181818;stroke-width:0.5;" width="160" x="592" y="43.6094"/><text fill="#000000" font-family="sans-serif" font-size="20" font-style="italic" lengthAdjust="spacing" textLength="105" x="619.5" y="71.3711">«controller»</text><text fill="#000000" font-family="sans-serif" font-size="20" lengthAdjust="spacing" textLength="146" x="599" y="96.5273">PatientController</text><rect fill="#E2E2F0" height="64.3125" rx="2.5" ry="2.5" style="stroke:#181818;stroke-width:0.5;" width="160" x="592" y="2207.7344"/><text fill="#000000" font-family="sans-serif" font-size="20" font-style="italic" lengthAdjust="spacing" textLength="105" x="619.5" y="2235.4961">«controller»</text><text fill="#000000" font-family="sans-serif" font-size="20" lengthAdjust="spacing" textLength="146" x="599" y="2260.6523">PatientController</text><rect fill="#E2E2F0" height="39.1563" rx="2.5" ry="2.5" style="stroke:#181818;stroke-width:0.5;" width="147" x="938.5" y="68.7656"/><text fill="#000000" font-family="sans-serif" font-size="20" lengthAdjust="spacing" textLength="133" x="945.5" y="96.5273">ClaimsPrincipal</text><rect fill="#E2E2F0" height="39.1563" rx="2.5" ry="2.5" style="stroke:#181818;stroke-width:0.5;" width="147" x="938.5" y="2207.7344"/><text fill="#000000" font-family="sans-serif" font-size="20" lengthAdjust="spacing" textLength="133" x="945.5" y="2235.4961">ClaimsPrincipal</text><rect fill="#E2E2F0" height="64.3125" rx="2.5" ry="2.5" style="stroke:#181818;stroke-width:0.5;" width="140" x="1105" y="43.6094"/><text fill="#000000" font-family="sans-serif" font-size="20" font-style="italic" lengthAdjust="spacing" textLength="86" x="1132" y="71.3711">«service»</text><text fill="#000000" font-family="sans-serif" font-size="20" lengthAdjust="spacing" textLength="126" x="1112" y="96.5273">PatientService</text><rect fill="#E2E2F0" height="64.3125" rx="2.5" ry="2.5" style="stroke:#181818;stroke-width:0.5;" width="140" x="1105" y="2207.7344"/><text fill="#000000" font-family="sans-serif" font-size="20" font-style="italic" lengthAdjust="spacing" textLength="86" x="1132" y="2235.4961">«service»</text><text fill="#000000" font-family="sans-serif" font-size="20" lengthAdjust="spacing" textLength="126" x="1112" y="2260.6523">PatientService</text><rect fill="#E2E2F0" height="64.3125" rx="2.5" ry="2.5" style="stroke:#181818;stroke-width:0.5;" width="112" x="1537" y="43.6094"/><text fill="#000000" font-family="sans-serif" font-size="20" font-style="italic" lengthAdjust="spacing" textLength="86" x="1550" y="71.3711">«service»</text><text fill="#000000" font-family="sans-serif" font-size="20" lengthAdjust="spacing" textLength="98" x="1544" y="96.5273">LogService</text><rect fill="#E2E2F0" height="64.3125" rx="2.5" ry="2.5" style="stroke:#181818;stroke-width:0.5;" width="112" x="1537" y="2207.7344"/><text fill="#000000" font-family="sans-serif" font-size="20" font-style="italic" lengthAdjust="spacing" textLength="86" x="1550" y="2235.4961">«service»</text><text fill="#000000" font-family="sans-serif" font-size="20" lengthAdjust="spacing" textLength="98" x="1544" y="2260.6523">LogService</text><rect fill="#E2E2F0" height="64.3125" rx="2.5" ry="2.5" style="stroke:#181818;stroke-width:0.5;" width="120" x="1659" y="43.6094"/><text fill="#000000" font-family="sans-serif" font-size="20" font-style="italic" lengthAdjust="spacing" textLength="86" x="1676" y="71.3711">«service»</text><text fill="#000000" font-family="sans-serif" font-size="20" lengthAdjust="spacing" textLength="106" x="1666" y="96.5273">UserService</text><rect fill="#E2E2F0" height="64.3125" rx="2.5" ry="2.5" style="stroke:#181818;stroke-width:0.5;" width="120" x="1659" y="2207.7344"/><text fill="#000000" font-family="sans-serif" font-size="20" font-style="italic" lengthAdjust="spacing" textLength="86" x="1676" y="2235.4961">«service»</text><text fill="#000000" font-family="sans-serif" font-size="20" lengthAdjust="spacing" textLength="106" x="1666" y="2260.6523">UserService</text><rect fill="#E2E2F0" height="64.3125" rx="2.5" ry="2.5" style="stroke:#181818;stroke-width:0.5;" width="133" x="2154.5" y="43.6094"/><text fill="#000000" font-family="sans-serif" font-size="20" font-style="italic" lengthAdjust="spacing" textLength="86" x="2178" y="71.3711">«service»</text><text fill="#000000" font-family="sans-serif" font-size="20" lengthAdjust="spacing" textLength="119" x="2161.5" y="96.5273">UserManager</text><rect fill="#E2E2F0" height="64.3125" rx="2.5" ry="2.5" style="stroke:#181818;stroke-width:0.5;" width="133" x="2154.5" y="2207.7344"/><text fill="#000000" font-family="sans-serif" font-size="20" font-style="italic" lengthAdjust="spacing" textLength="86" x="2178" y="2235.4961">«service»</text><text fill="#000000" font-family="sans-serif" font-size="20" lengthAdjust="spacing" textLength="119" x="2161.5" y="2260.6523">UserManager</text><rect fill="#E2E2F0" height="64.3125" rx="2.5" ry="2.5" style="stroke:#181818;stroke-width:0.5;" width="102" x="2297.5" y="43.6094"/><text fill="#000000" font-family="sans-serif" font-size="20" font-style="italic" lengthAdjust="spacing" textLength="88" x="2304.5" y="71.3711">«domain»</text><text fill="#000000" font-family="sans-serif" font-size="20" lengthAdjust="spacing" textLength="41" x="2328" y="96.5273">User</text><rect fill="#E2E2F0" height="64.3125" rx="2.5" ry="2.5" style="stroke:#181818;stroke-width:0.5;" width="102" x="2297.5" y="2207.7344"/><text fill="#000000" font-family="sans-serif" font-size="20" font-style="italic" lengthAdjust="spacing" textLength="88" x="2304.5" y="2235.4961">«domain»</text><text fill="#000000" font-family="sans-serif" font-size="20" lengthAdjust="spacing" textLength="41" x="2328" y="2260.6523">User</text><rect fill="#E2E2F0" height="64.3125" rx="2.5" ry="2.5" style="stroke:#181818;stroke-width:0.5;" width="170" x="2409.5" y="43.6094"/><text fill="#000000" font-family="sans-serif" font-size="20" font-style="italic" lengthAdjust="spacing" textLength="110" x="2439.5" y="71.3711">«repository»</text><text fill="#000000" font-family="sans-serif" font-size="20" lengthAdjust="spacing" textLength="156" x="2416.5" y="96.5273">PatientRepository</text><rect fill="#E2E2F0" height="64.3125" rx="2.5" ry="2.5" style="stroke:#181818;stroke-width:0.5;" width="170" x="2409.5" y="2207.7344"/><text fill="#000000" font-family="sans-serif" font-size="20" font-style="italic" lengthAdjust="spacing" textLength="110" x="2439.5" y="2235.4961">«repository»</text><text fill="#000000" font-family="sans-serif" font-size="20" lengthAdjust="spacing" textLength="156" x="2416.5" y="2260.6523">PatientRepository</text><rect fill="#E2E2F0" height="64.3125" rx="2.5" ry="2.5" style="stroke:#181818;stroke-width:0.5;" width="102" x="2589.5" y="43.6094"/><text fill="#000000" font-family="sans-serif" font-size="20" font-style="italic" lengthAdjust="spacing" textLength="88" x="2596.5" y="71.3711">«domain»</text><text fill="#000000" font-family="sans-serif" font-size="20" lengthAdjust="spacing" textLength="61" x="2610" y="96.5273">Patient</text><rect fill="#E2E2F0" height="64.3125" rx="2.5" ry="2.5" style="stroke:#181818;stroke-width:0.5;" width="102" x="2589.5" y="2207.7344"/><text fill="#000000" font-family="sans-serif" font-size="20" font-style="italic" lengthAdjust="spacing" textLength="88" x="2596.5" y="2235.4961">«domain»</text><text fill="#000000" font-family="sans-serif" font-size="20" lengthAdjust="spacing" textLength="61" x="2610" y="2260.6523">Patient</text><rect fill="#E2E2F0" height="64.3125" rx="2.5" ry="2.5" style="stroke:#181818;stroke-width:0.5;" width="106" x="2701.5" y="2207.7344"/><text fill="#000000" font-family="sans-serif" font-size="20" font-style="italic" lengthAdjust="spacing" textLength="49" x="2730" y="2235.4961">«dto»</text><text fill="#000000" font-family="sans-serif" font-size="20" lengthAdjust="spacing" textLength="92" x="2708.5" y="2260.6523">PatientDto</text><rect fill="#FFFFFF" height="2048.6563" style="stroke:#181818;stroke-width:1.0;" width="10" x="232" y="150.0781"/><rect fill="#FFFFFF" height="1804.7188" style="stroke:#181818;stroke-width:1.0;" width="10" x="667" y="264.5469"/><rect fill="#FFFFFF" height="39.1563" style="stroke:#181818;stroke-width:1.0;" width="10" x="1007" y="303.7031"/><rect fill="#FFFFFF" height="1596.7813" style="stroke:#181818;stroke-width:1.0;" width="10" x="1170" y="426.3281"/><rect fill="#FFFFFF" height="30" style="stroke:#181818;stroke-width:1.0;" width="10" x="1588" y="1809.4844"/><rect fill="#FFFFFF" height="624.1875" style="stroke:#181818;stroke-width:1.0;" width="10" x="1714" y="1069.9844"/><rect fill="#FFFFFF" height="28" style="stroke:#181818;stroke-width:1.0;" width="10" x="1719" y="1613.0156"/><rect fill="#FFFFFF" height="39.1563" style="stroke:#181818;stroke-width:1.0;" width="10" x="2216" y="1109.1406"/><rect fill="#FFFFFF" height="39.1563" style="stroke:#181818;stroke-width:1.0;" width="10" x="2216" y="1187.4531"/><rect fill="#FFFFFF" height="39.1563" style="stroke:#181818;stroke-width:1.0;" width="10" x="2216" y="1265.7656"/><rect fill="#FFFFFF" height="30" style="stroke:#181818;stroke-width:1.0;" width="10" x="2216" y="1457.5469"/><rect fill="#FFFFFF" height="39.1563" style="stroke:#181818;stroke-width:1.0;" width="10" x="2216" y="1526.7031"/><rect fill="#FFFFFF" height="30" style="stroke:#181818;stroke-width:1.0;" width="10" x="2343.5" y="1388.3906"/><rect fill="#FFFFFF" height="39.1563" style="stroke:#181818;stroke-width:1.0;" width="10" x="2489.5" y="465.4844"/><rect fill="#FFFFFF" height="30" style="stroke:#181818;stroke-width:1.0;" width="10" x="2489.5" y="1878.6406"/><rect fill="#FFFFFF" height="30" style="stroke:#181818;stroke-width:1.0;" width="10" x="2635.5" y="588.1094"/><rect fill="#FFFFFF" height="30" style="stroke:#181818;stroke-width:1.0;" width="10" x="2635.5" y="708.5781"/><rect fill="#FFFFFF" height="30" style="stroke:#181818;stroke-width:1.0;" width="10" x="2635.5" y="829.0469"/><rect fill="#FFFFFF" height="30" style="stroke:#181818;stroke-width:1.0;" width="10" x="2635.5" y="949.5156"/><rect fill="#FFFFFF" height="30" style="stroke:#181818;stroke-width:1.0;" width="10" x="2635.5" y="1733.3281"/><ellipse cx="7.5" cy="149.3281" fill="none" rx="4" ry="4" style="stroke:#181818;stroke-width:1.5;"/><polygon fill="#181818" points="220,146.0781,230,150.0781,220,154.0781,224,150.0781" style="stroke:#181818;stroke-width:1.0;"/><line style="stroke:#181818;stroke-width:1.0;" x1="12" x2="226" y1="150.0781" y2="150.0781"/><text fill="#000000" font-family="sans-serif" font-size="20" font-weight="bold" lengthAdjust="spacing" textLength="11" x="15" y="143.6836">1</text><text fill="#000000" font-family="sans-serif" font-size="20" lengthAdjust="spacing" textLength="190" x="30" y="143.6836">PUT(json) /api/patient</text><polygon fill="#181818" points="374,185.2344,384,189.2344,374,193.2344,378,189.2344" style="stroke:#181818;stroke-width:1.0;"/><line style="stroke:#181818;stroke-width:1.0;" x1="242" x2="380" y1="189.2344" y2="189.2344"/><text fill="#000000" font-family="sans-serif" font-size="20" font-weight="bold" lengthAdjust="spacing" textLength="11" x="249" y="182.8398">2</text><text fill="#000000" font-family="sans-serif" font-size="20" lengthAdjust="spacing" textLength="105" x="264" y="182.8398">create(json)</text><rect fill="#E2E2F0" height="64.3125" rx="2.5" ry="2.5" style="stroke:#181818;stroke-width:0.5;" width="196" x="386" y="158.0781"/><text fill="#000000" font-family="sans-serif" font-size="20" font-style="italic" lengthAdjust="spacing" textLength="49" x="459.5" y="185.8398">«dto»</text><text fill="#000000" font-family="sans-serif" font-size="20" lengthAdjust="spacing" textLength="182" x="393" y="210.9961">EditPatientProfileDto</text><polygon fill="#181818" points="655,260.5469,665,264.5469,655,268.5469,659,264.5469" style="stroke:#181818;stroke-width:1.0;"/><line style="stroke:#181818;stroke-width:1.0;" x1="242" x2="661" y1="264.5469" y2="264.5469"/><text fill="#000000" font-family="sans-serif" font-size="20" font-weight="bold" lengthAdjust="spacing" textLength="11" x="249" y="258.1523">3</text><text fill="#000000" font-family="sans-serif" font-size="20" lengthAdjust="spacing" textLength="345" x="264" y="258.1523">EditPatientProfile(editPatientProfileDto)</text><polygon fill="#181818" points="995,299.7031,1005,303.7031,995,307.7031,999,303.7031" style="stroke:#181818;stroke-width:1.0;"/><line style="stroke:#181818;stroke-width:1.0;" x1="677" x2="1001" y1="303.7031" y2="303.7031"/><text fill="#000000" font-family="sans-serif" font-size="20" font-weight="bold" lengthAdjust="spacing" textLength="11" x="684" y="297.3086">4</text><text fill="#000000" font-family="sans-serif" font-size="20" lengthAdjust="spacing" textLength="296" x="699" y="297.3086">FindFirstValue(ClaimTypes.Email)</text><polygon fill="#181818" points="688,338.8594,678,342.8594,688,346.8594,684,342.8594" style="stroke:#181818;stroke-width:1.0;"/><line style="stroke:#181818;stroke-width:1.0;stroke-dasharray:2.0,2.0;" x1="682" x2="1011" y1="342.8594" y2="342.8594"/><text fill="#000000" font-family="sans-serif" font-size="20" font-weight="bold" lengthAdjust="spacing" textLength="11" x="694" y="336.4648">5</text><text fill="#000000" font-family="sans-serif" font-size="20" lengthAdjust="spacing" textLength="169" x="709" y="336.4648">emailLoggedInUser</text><path d="M582,357.8594 L650,357.8594 L650,375.0156 L640,385.0156 L582,385.0156 L582,357.8594 " fill="#EEEEEE" style="stroke:#000000;stroke-width:1.5;"/><rect fill="none" height="1673.25" style="stroke:#000000;stroke-width:1.5;" width="2235.5" x="582" y="357.8594"/><text fill="#000000" font-family="sans-serif" font-size="20" font-weight="bold" lengthAdjust="spacing" textLength="23" x="597" y="379.6211">alt</text><text fill="#000000" font-family="sans-serif" font-size="20" font-weight="bold" lengthAdjust="spacing" textLength="128" x="665" y="380.6211">[email != null]</text><polygon fill="#181818" points="1158,422.3281,1168,426.3281,1158,430.3281,1162,426.3281" style="stroke:#181818;stroke-width:1.0;"/><line style="stroke:#181818;stroke-width:1.0;" x1="677" x2="1164" y1="426.3281" y2="426.3281"/><text fill="#000000" font-family="sans-serif" font-size="20" font-weight="bold" lengthAdjust="spacing" textLength="11" x="684" y="419.9336">6</text><text fill="#000000" font-family="sans-serif" font-size="20" lengthAdjust="spacing" textLength="459" x="699" y="419.9336">EditProfile(emailLoggedInUser,editPatientProfileDto)</text><polygon fill="#181818" points="2477.5,461.4844,2487.5,465.4844,2477.5,469.4844,2481.5,465.4844" style="stroke:#181818;stroke-width:1.0;"/><line style="stroke:#181818;stroke-width:1.0;" x1="1180" x2="2483.5" y1="465.4844" y2="465.4844"/><text fill="#000000" font-family="sans-serif" font-size="20" font-weight="bold" lengthAdjust="spacing" textLength="11" x="1187" y="459.0898">7</text><text fill="#000000" font-family="sans-serif" font-size="20" lengthAdjust="spacing" textLength="286" x="1202" y="459.0898">FindPatientWithUserEmail(email)</text><polygon fill="#181818" points="1191,500.6406,1181,504.6406,1191,508.6406,1187,504.6406" style="stroke:#181818;stroke-width:1.0;"/><line style="stroke:#181818;stroke-width:1.0;" x1="1185" x2="2493.5" y1="504.6406" y2="504.6406"/><text fill="#000000" font-family="sans-serif" font-size="20" font-weight="bold" lengthAdjust="spacing" textLength="11" x="1197" y="498.2461">8</text><text fill="#000000" font-family="sans-serif" font-size="20" lengthAdjust="spacing" textLength="59" x="1212" y="498.2461">patient</text><path d="M1095,519.6406 L1163,519.6406 L1163,536.7969 L1153,546.7969 L1095,546.7969 L1095,519.6406 " fill="#EEEEEE" style="stroke:#000000;stroke-width:1.5;"/><rect fill="none" height="106.4688" style="stroke:#000000;stroke-width:1.5;" width="1606.5" x="1095" y="519.6406"/><text fill="#000000" font-family="sans-serif" font-size="20" font-weight="bold" lengthAdjust="spacing" textLength="23" x="1110" y="541.4023">alt</text><text fill="#000000" font-family="sans-serif" font-size="20" font-weight="bold" lengthAdjust="spacing" textLength="251" x="1178" y="542.4023">[newPhoneNumber != null]</text><polygon fill="#181818" points="2623.5,584.1094,2633.5,588.1094,2623.5,592.1094,2627.5,588.1094" style="stroke:#181818;stroke-width:1.0;"/><line style="stroke:#181818;stroke-width:1.0;" x1="1180" x2="2629.5" y1="588.1094" y2="588.1094"/><text fill="#000000" font-family="sans-serif" font-size="20" font-weight="bold" lengthAdjust="spacing" textLength="11" x="1187" y="581.7148">9</text><text fill="#000000" font-family="sans-serif" font-size="20" lengthAdjust="spacing" textLength="295" x="1202" y="581.7148">ChangePhone(newPhoneNumber)</text><path d="M1095,640.1094 L1163,640.1094 L1163,657.2656 L1153,667.2656 L1095,667.2656 L1095,640.1094 " fill="#EEEEEE" style="stroke:#000000;stroke-width:1.5;"/><rect fill="none" height="106.4688" style="stroke:#000000;stroke-width:1.5;" width="1606.5" x="1095" y="640.1094"/><text fill="#000000" font-family="sans-serif" font-size="20" font-weight="bold" lengthAdjust="spacing" textLength="23" x="1110" y="661.8711">alt</text><text fill="#000000" font-family="sans-serif" font-size="20" font-weight="bold" lengthAdjust="spacing" textLength="195" x="1178" y="662.8711">[newAddress != null]</text><polygon fill="#181818" points="2623.5,704.5781,2633.5,708.5781,2623.5,712.5781,2627.5,708.5781" style="stroke:#181818;stroke-width:1.0;"/><line style="stroke:#181818;stroke-width:1.0;" x1="1180" x2="2629.5" y1="708.5781" y2="708.5781"/><text fill="#000000" font-family="sans-serif" font-size="20" font-weight="bold" lengthAdjust="spacing" textLength="22" x="1187" y="702.1836">10</text><text fill="#000000" font-family="sans-serif" font-size="20" lengthAdjust="spacing" textLength="263" x="1213" y="702.1836">ChangeAddress(newAddress)</text><path d="M1095,760.5781 L1163,760.5781 L1163,777.7344 L1153,787.7344 L1095,787.7344 L1095,760.5781 " fill="#EEEEEE" style="stroke:#000000;stroke-width:1.5;"/><rect fill="none" height="106.4688" style="stroke:#000000;stroke-width:1.5;" width="1606.5" x="1095" y="760.5781"/><text fill="#000000" font-family="sans-serif" font-size="20" font-weight="bold" lengthAdjust="spacing" textLength="23" x="1110" y="782.3398">alt</text><text fill="#000000" font-family="sans-serif" font-size="20" font-weight="bold" lengthAdjust="spacing" textLength="170" x="1178" y="783.3398">[newName != null]</text><polygon fill="#181818" points="2623.5,825.0469,2633.5,829.0469,2623.5,833.0469,2627.5,829.0469" style="stroke:#181818;stroke-width:1.0;"/><line style="stroke:#181818;stroke-width:1.0;" x1="1180" x2="2629.5" y1="829.0469" y2="829.0469"/><text fill="#000000" font-family="sans-serif" font-size="20" font-weight="bold" lengthAdjust="spacing" textLength="22" x="1187" y="822.6523">11</text><text fill="#000000" font-family="sans-serif" font-size="20" lengthAdjust="spacing" textLength="219" x="1213" y="822.6523">ChangeName(newName)</text><path d="M1095,881.0469 L1163,881.0469 L1163,898.2031 L1153,908.2031 L1095,908.2031 L1095,881.0469 " fill="#EEEEEE" style="stroke:#000000;stroke-width:1.5;"/><rect fill="none" height="106.4688" style="stroke:#000000;stroke-width:1.5;" width="1606.5" x="1095" y="881.0469"/><text fill="#000000" font-family="sans-serif" font-size="20" font-weight="bold" lengthAdjust="spacing" textLength="23" x="1110" y="902.8086">alt</text><text fill="#000000" font-family="sans-serif" font-size="20" font-weight="bold" lengthAdjust="spacing" textLength="297" x="1178" y="903.8086">[newEmergencyContact != null]</text><polygon fill="#181818" points="2623.5,945.5156,2633.5,949.5156,2623.5,953.5156,2627.5,949.5156" style="stroke:#181818;stroke-width:1.0;"/><line style="stroke:#181818;stroke-width:1.0;" x1="1180" x2="2629.5" y1="949.5156" y2="949.5156"/><text fill="#000000" font-family="sans-serif" font-size="20" font-weight="bold" lengthAdjust="spacing" textLength="22" x="1187" y="943.1211">12</text><text fill="#000000" font-family="sans-serif" font-size="20" lengthAdjust="spacing" textLength="451" x="1213" y="943.1211">ChangeEmergencyContact(newEmergencyContact)</text><path d="M1095,1001.5156 L1163,1001.5156 L1163,1018.6719 L1153,1028.6719 L1095,1028.6719 L1095,1001.5156 " fill="#EEEEEE" style="stroke:#000000;stroke-width:1.5;"/><rect fill="none" height="769.8125" style="stroke:#000000;stroke-width:1.5;" width="1606.5" x="1095" y="1001.5156"/><text fill="#000000" font-family="sans-serif" font-size="20" font-weight="bold" lengthAdjust="spacing" textLength="23" x="1110" y="1023.2773">alt</text><text fill="#000000" font-family="sans-serif" font-size="20" font-weight="bold" lengthAdjust="spacing" textLength="168" x="1178" y="1024.2773">[newEmail != null]</text><polygon fill="#181818" points="1702,1065.9844,1712,1069.9844,1702,1073.9844,1706,1069.9844" style="stroke:#181818;stroke-width:1.0;"/><line style="stroke:#181818;stroke-width:1.0;" x1="1180" x2="1708" y1="1069.9844" y2="1069.9844"/><text fill="#000000" font-family="sans-serif" font-size="20" font-weight="bold" lengthAdjust="spacing" textLength="22" x="1187" y="1063.5898">13</text><text fill="#000000" font-family="sans-serif" font-size="20" lengthAdjust="spacing" textLength="309" x="1213" y="1063.5898">EditUserProfile(oldEmail,newEmail)</text><polygon fill="#181818" points="2204,1105.1406,2214,1109.1406,2204,1113.1406,2208,1109.1406" style="stroke:#181818;stroke-width:1.0;"/><line style="stroke:#181818;stroke-width:1.0;" x1="1724" x2="2210" y1="1109.1406" y2="1109.1406"/><text fill="#000000" font-family="sans-serif" font-size="20" font-weight="bold" lengthAdjust="spacing" textLength="22" x="1731" y="1102.7461">14</text><text fill="#000000" font-family="sans-serif" font-size="20" lengthAdjust="spacing" textLength="249" x="1757" y="1102.7461">FindByEmailAsync(oldEmail)</text><polygon fill="#181818" points="1735,1144.2969,1725,1148.2969,1735,1152.2969,1731,1148.2969" style="stroke:#181818;stroke-width:1.0;"/><line style="stroke:#181818;stroke-width:1.0;stroke-dasharray:2.0,2.0;" x1="1729" x2="2220" y1="1148.2969" y2="1148.2969"/><text fill="#000000" font-family="sans-serif" font-size="20" font-weight="bold" lengthAdjust="spacing" textLength="22" x="1741" y="1141.9023">15</text><text fill="#000000" font-family="sans-serif" font-size="20" lengthAdjust="spacing" textLength="38" x="1767" y="1141.9023">user</text><polygon fill="#181818" points="2204,1183.4531,2214,1187.4531,2204,1191.4531,2208,1187.4531" style="stroke:#181818;stroke-width:1.0;"/><line style="stroke:#181818;stroke-width:1.0;" x1="1724" x2="2210" y1="1187.4531" y2="1187.4531"/><text fill="#000000" font-family="sans-serif" font-size="20" font-weight="bold" lengthAdjust="spacing" textLength="22" x="1731" y="1181.0586">16</text><text fill="#000000" font-family="sans-serif" font-size="20" lengthAdjust="spacing" textLength="447" x="1757" y="1181.0586">GenerateChangeEmailTokenAsync(user,newEmail)</text><polygon fill="#181818" points="1735,1222.6094,1725,1226.6094,1735,1230.6094,1731,1226.6094" style="stroke:#181818;stroke-width:1.0;"/><line style="stroke:#181818;stroke-width:1.0;stroke-dasharray:2.0,2.0;" x1="1729" x2="2220" y1="1226.6094" y2="1226.6094"/><text fill="#000000" font-family="sans-serif" font-size="20" font-weight="bold" lengthAdjust="spacing" textLength="22" x="1741" y="1220.2148">17</text><text fill="#000000" font-family="sans-serif" font-size="20" lengthAdjust="spacing" textLength="48" x="1767" y="1220.2148">token</text><polygon fill="#181818" points="2204,1261.7656,2214,1265.7656,2204,1269.7656,2208,1265.7656" style="stroke:#181818;stroke-width:1.0;"/><line style="stroke:#181818;stroke-width:1.0;" x1="1724" x2="2210" y1="1265.7656" y2="1265.7656"/><text fill="#000000" font-family="sans-serif" font-size="20" font-weight="bold" lengthAdjust="spacing" textLength="22" x="1731" y="1259.3711">18</text><text fill="#000000" font-family="sans-serif" font-size="20" lengthAdjust="spacing" textLength="376" x="1757" y="1259.3711">ChangeEmailAsync(user, newEmail, token)</text><polygon fill="#181818" points="1735,1300.9219,1725,1304.9219,1735,1308.9219,1731,1304.9219" style="stroke:#181818;stroke-width:1.0;"/><line style="stroke:#181818;stroke-width:1.0;stroke-dasharray:2.0,2.0;" x1="1729" x2="2220" y1="1304.9219" y2="1304.9219"/><text fill="#000000" font-family="sans-serif" font-size="20" font-weight="bold" lengthAdjust="spacing" textLength="22" x="1741" y="1298.5273">19</text><text fill="#000000" font-family="sans-serif" font-size="20" lengthAdjust="spacing" textLength="48" x="1767" y="1298.5273">result</text><path d="M1649,1319.9219 L1717,1319.9219 L1717,1337.0781 L1707,1347.0781 L1649,1347.0781 L1649,1319.9219 " fill="#EEEEEE" style="stroke:#000000;stroke-width:1.5;"/><rect fill="none" height="336.0938" style="stroke:#000000;stroke-width:1.5;" width="760.5" x="1649" y="1319.9219"/><text fill="#000000" font-family="sans-serif" font-size="20" font-weight="bold" lengthAdjust="spacing" textLength="23" x="1664" y="1341.6836">alt</text><text fill="#000000" font-family="sans-serif" font-size="20" font-weight="bold" lengthAdjust="spacing" textLength="142" x="1732" y="1342.6836">[result == true]</text><polygon fill="#181818" points="2331.5,1384.3906,2341.5,1388.3906,2331.5,1392.3906,2335.5,1388.3906" style="stroke:#181818;stroke-width:1.0;"/><line style="stroke:#181818;stroke-width:1.0;" x1="1724" x2="2337.5" y1="1388.3906" y2="1388.3906"/><text fill="#000000" font-family="sans-serif" font-size="20" font-weight="bold" lengthAdjust="spacing" textLength="22" x="1731" y="1381.9961">20</text><text fill="#000000" font-family="sans-serif" font-size="20" lengthAdjust="spacing" textLength="175" x="1757" y="1381.9961">changeStatus(false)</text><polygon fill="#181818" points="2204,1453.5469,2214,1457.5469,2204,1461.5469,2208,1457.5469" style="stroke:#181818;stroke-width:1.0;"/><line style="stroke:#181818;stroke-width:1.0;" x1="1724" x2="2210" y1="1457.5469" y2="1457.5469"/><text fill="#000000" font-family="sans-serif" font-size="20" font-weight="bold" lengthAdjust="spacing" textLength="22" x="1731" y="1451.1523">21</text><text fill="#000000" font-family="sans-serif" font-size="20" lengthAdjust="spacing" textLength="168" x="1757" y="1451.1523">UpdateAsync(user)</text><polygon fill="#181818" points="2204,1522.7031,2214,1526.7031,2204,1530.7031,2208,1526.7031" style="stroke:#181818;stroke-width:1.0;"/><line style="stroke:#181818;stroke-width:1.0;" x1="1724" x2="2210" y1="1526.7031" y2="1526.7031"/><text fill="#000000" font-family="sans-serif" font-size="20" font-weight="bold" lengthAdjust="spacing" textLength="22" x="1731" y="1520.3086">22</text><text fill="#000000" font-family="sans-serif" font-size="20" lengthAdjust="spacing" textLength="400" x="1757" y="1520.3086">GenerateEmailConfirmationTokenAsync(user)</text><polygon fill="#181818" points="1735,1561.8594,1725,1565.8594,1735,1569.8594,1731,1565.8594" style="stroke:#181818;stroke-width:1.0;"/><line style="stroke:#181818;stroke-width:1.0;stroke-dasharray:2.0,2.0;" x1="1729" x2="2220" y1="1565.8594" y2="1565.8594"/><text fill="#000000" font-family="sans-serif" font-size="20" font-weight="bold" lengthAdjust="spacing" textLength="22" x="1741" y="1559.4648">23</text><text fill="#000000" font-family="sans-serif" font-size="20" lengthAdjust="spacing" textLength="48" x="1767" y="1559.4648">token</text><line style="stroke:#181818;stroke-width:1.0;" x1="1729" x2="1771" y1="1605.0156" y2="1605.0156"/><line style="stroke:#181818;stroke-width:1.0;" x1="1771" x2="1771" y1="1605.0156" y2="1618.0156"/><line style="stroke:#181818;stroke-width:1.0;" x1="1730" x2="1771" y1="1618.0156" y2="1618.0156"/><polygon fill="#181818" points="1740,1614.0156,1730,1618.0156,1740,1622.0156,1736,1618.0156" style="stroke:#181818;stroke-width:1.0;"/><text fill="#000000" font-family="sans-serif" font-size="20" font-weight="bold" lengthAdjust="spacing" textLength="22" x="1736" y="1598.6211">24</text><text fill="#000000" font-family="sans-serif" font-size="20" lengthAdjust="spacing" textLength="389" x="1762" y="1598.6211">SendConfirmationEmail(user,oldEmail,token)</text><polygon fill="#181818" points="1191,1690.1719,1181,1694.1719,1191,1698.1719,1187,1694.1719" style="stroke:#181818;stroke-width:1.0;"/><line style="stroke:#181818;stroke-width:1.0;stroke-dasharray:2.0,2.0;" x1="1185" x2="1718" y1="1694.1719" y2="1694.1719"/><text fill="#000000" font-family="sans-serif" font-size="20" font-weight="bold" lengthAdjust="spacing" textLength="22" x="1197" y="1687.7773">25</text><text fill="#000000" font-family="sans-serif" font-size="20" lengthAdjust="spacing" textLength="6" x="1223" y="1687.7773"> </text><polygon fill="#181818" points="2623.5,1729.3281,2633.5,1733.3281,2623.5,1737.3281,2627.5,1733.3281" style="stroke:#181818;stroke-width:1.0;"/><line style="stroke:#181818;stroke-width:1.0;" x1="1180" x2="2629.5" y1="1733.3281" y2="1733.3281"/><text fill="#000000" font-family="sans-serif" font-size="20" font-weight="bold" lengthAdjust="spacing" textLength="22" x="1187" y="1726.9336">26</text><text fill="#000000" font-family="sans-serif" font-size="20" lengthAdjust="spacing" textLength="213" x="1213" y="1726.9336">ChangeEmail(newEmail)</text><polygon fill="#181818" points="1576,1805.4844,1586,1809.4844,1576,1813.4844,1580,1809.4844" style="stroke:#181818;stroke-width:1.0;"/><line style="stroke:#181818;stroke-width:1.0;" x1="1180" x2="1582" y1="1809.4844" y2="1809.4844"/><text fill="#000000" font-family="sans-serif" font-size="20" font-weight="bold" lengthAdjust="spacing" textLength="22" x="1187" y="1803.0898">27</text><text fill="#000000" font-family="sans-serif" font-size="20" lengthAdjust="spacing" textLength="363" x="1213" y="1803.0898">CreateEditLog(patientId,patientClass,log)</text><polygon fill="#181818" points="2477.5,1874.6406,2487.5,1878.6406,2477.5,1882.6406,2481.5,1878.6406" style="stroke:#181818;stroke-width:1.0;"/><line style="stroke:#181818;stroke-width:1.0;" x1="1180" x2="2483.5" y1="1878.6406" y2="1878.6406"/><text fill="#000000" font-family="sans-serif" font-size="20" font-weight="bold" lengthAdjust="spacing" textLength="22" x="1187" y="1872.2461">28</text><text fill="#000000" font-family="sans-serif" font-size="20" lengthAdjust="spacing" textLength="55" x="1213" y="1872.2461">save()</text><polygon fill="#181818" points="2689.5,1943.7969,2699.5,1947.7969,2689.5,1951.7969,2693.5,1947.7969" style="stroke:#181818;stroke-width:1.0;"/><line style="stroke:#181818;stroke-width:1.0;" x1="1180" x2="2695.5" y1="1947.7969" y2="1947.7969"/><text fill="#000000" font-family="sans-serif" font-size="20" font-weight="bold" lengthAdjust="spacing" textLength="22" x="1187" y="1941.4023">29</text><text fill="#000000" font-family="sans-serif" font-size="20" lengthAdjust="spacing" textLength="374" x="1213" y="1941.4023">create(name,phoneNumber,email,address)</text><rect fill="#E2E2F0" height="64.3125" rx="2.5" ry="2.5" style="stroke:#181818;stroke-width:0.5;" width="106" x="2701.5" y="1916.6406"/><text fill="#000000" font-family="sans-serif" font-size="20" font-style="italic" lengthAdjust="spacing" textLength="49" x="2730" y="1944.4023">«dto»</text><text fill="#000000" font-family="sans-serif" font-size="20" lengthAdjust="spacing" textLength="92" x="2708.5" y="1969.5586">PatientDto</text><polygon fill="#181818" points="688,2019.1094,678,2023.1094,688,2027.1094,684,2023.1094" style="stroke:#181818;stroke-width:1.0;"/><line style="stroke:#181818;stroke-width:1.0;stroke-dasharray:2.0,2.0;" x1="682" x2="1174" y1="2023.1094" y2="2023.1094"/><text fill="#000000" font-family="sans-serif" font-size="20" font-weight="bold" lengthAdjust="spacing" textLength="22" x="694" y="2016.7148">30</text><text fill="#000000" font-family="sans-serif" font-size="20" lengthAdjust="spacing" textLength="90" x="720" y="2016.7148">patientDto</text><polygon fill="#181818" points="253,2065.2656,243,2069.2656,253,2073.2656,249,2069.2656" style="stroke:#181818;stroke-width:1.0;"/><line style="stroke:#181818;stroke-width:1.0;stroke-dasharray:2.0,2.0;" x1="247" x2="671" y1="2069.2656" y2="2069.2656"/><text fill="#000000" font-family="sans-serif" font-size="20" font-weight="bold" lengthAdjust="spacing" textLength="22" x="259" y="2062.8711">31</text><text fill="#000000" font-family="sans-serif" font-size="20" lengthAdjust="spacing" textLength="71" x="285" y="2062.8711">success</text><path d="M11,2084.2656 L79,2084.2656 L79,2101.4219 L69,2111.4219 L11,2111.4219 L11,2084.2656 " fill="#EEEEEE" style="stroke:#000000;stroke-width:1.5;"/><rect fill="none" height="107.4688" style="stroke:#000000;stroke-width:1.5;" width="299.5" x="11" y="2084.2656"/><text fill="#000000" font-family="sans-serif" font-size="20" font-weight="bold" lengthAdjust="spacing" textLength="23" x="26" y="2106.0273">alt</text><ellipse cx="7.5" cy="2141.8281" fill="none" rx="4" ry="4" style="stroke:#181818;stroke-width:1.5;"/><polygon fill="#181818" points="24.5,2138.5781,14.5,2142.5781,24.5,2146.5781,20.5,2142.5781" style="stroke:#181818;stroke-width:1.0;"/><line style="stroke:#181818;stroke-width:1.0;stroke-dasharray:2.0,2.0;" x1="22.5" x2="231" y1="2142.5781" y2="2142.5781"/><text fill="#000000" font-family="sans-serif" font-size="20" font-weight="bold" lengthAdjust="spacing" textLength="22" x="25" y="2136.1836">32</text><text fill="#000000" font-family="sans-serif" font-size="20" lengthAdjust="spacing" textLength="97" x="51" y="2136.1836">Accepted()</text><line style="stroke:#000000;stroke-width:1.0;stroke-dasharray:2.0,2.0;" x1="11" x2="310.5" y1="2151.5781" y2="2151.5781"/><ellipse cx="7.5" cy="2182.9844" fill="none" rx="4" ry="4" style="stroke:#181818;stroke-width:1.5;"/><polygon fill="#181818" points="24.5,2179.7344,14.5,2183.7344,24.5,2187.7344,20.5,2183.7344" style="stroke:#181818;stroke-width:1.0;"/><line style="stroke:#181818;stroke-width:1.0;stroke-dasharray:2.0,2.0;" x1="22.5" x2="231" y1="2183.7344" y2="2183.7344"/><text fill="#000000" font-family="sans-serif" font-size="20" font-weight="bold" lengthAdjust="spacing" textLength="22" x="25" y="2177.3398">33</text><text fill="#000000" font-family="sans-serif" font-size="20" lengthAdjust="spacing" textLength="122" x="51" y="2177.3398">BadRequest()</text><!--SRC=[hLXHKziu47xthzZZoUuaQQ6bqyi0Sn0C1nD39d7e0tF3gBO8kZgIpvRJoVtwMqcsOqpiEBtcWI7sVjz-dxLUhP9-Ppmc2Lb68lXEGmZfCyaYUIMudB5_AHnzi2p9P4JXO3w3uy7XuDC0-Z19H43J51uO_G6FOxgY4Npywy2oI2O5pvRVQ68XhMG1YmcNS30Xab4kfoAJz0182jFxkU_2oKcYhfoTlOvsGoPp16PwPX6zb4B3OYAVGYaGY7_hi1moGl69Y2AQQCZ8duunFYYlrc6ZYB1bEaaOLrSY0ngVttXRsMSqMR70c9WzZ90vDLVgj6EngCQExw-RO-TulHeydpsrSgjuZt2oo3tElVROdDITgWSdbeJnXcStfR58cHJ9sgoIExbNYrHURO3fuCcvV-FU-RjI54kPXpzT-lVbSkBdKVJFJ7KCOJBtxRzJmHruJsBsFZO45WaaMn59JPXbcLf2M54TxzuD8KWeXXXu9KHLmn3U5fXDjzMSiycbW9QbYqdHgFg08Lmn7bwn99KF9CgehKl9NySq7RZu2A8gNbUKPO3zN0aoK1M7jRAWuGrNQsM5j0uYaJHnyDify2oAB0lmKuXHfP9xAipKINiDzXHDcGrv3B4YLAk0gsyiviYlJBueDktD9AbHA8ZXqALZn0sXM3bres9l4wqSSlfZyY8ulTFzexGA-ISNLLJP44OlX2-eXjYliKu9AbFbiF96HKNz5kMXqcDjI8ouyp1CLDEh2siHbqFi3Tfv1MlKi4FYLfaLgNTaIRVgRD6gC7QETTw0MgLqKDkekABQNT9aGNcmLXqSsHeTjBYeSzXRU9sjX3lbTtJPwlILspSlT8jFioEOjrozWiMRBg9G4_KAHgUHgLHkk9fJvhkFokgPz_zYhRdFqpKFofHTCddDIKmNB7nbglCrnLQUEZ9sr7rDEKqGKjG5AlR5TygD2PLlhsVMblUr5Qco_5el5GyL-MKLzKpENxeWsAnm4Fo_DbIj6oOuFGMPPBGvjcORfnNSnRNncIGoI-rd4gNKQSLNQjoTjaPM3QZOhh9mDUPnYB3DGdILv7KMvEqZfoXqNGhOufvPiiJzLl1QkNUNsPvydsh_UMCv_GnRQTMJ6Jrq-PUjRqVnR-jzdIkZDHgrxNw3ynd8wfvkrrxmTizJpsIFPjQsTUsno-tSwIgQyVY3SlLChhOmd4tjV2Yy2NlvVpWzfsal4eiE5f2lYtmLjakQdbI7a98LjJjaraDhXzIRuROXzsObrHceScRXE87ruiquszEJTeyK4-GEH-Kf9ouFN5tqwihx-NKsXv7DsItD0lKJGPVCvcZLieMqDur7STBl5sdFCMiiQOWhsUm5jv4zA2z8EAN_P3ILRQIT7bAzHFJvjItu3wJCbZWUJY8yGy-zCQneac8VXCF1qOUZZuD3UvPnk2KSZdw7mwFXyPVXyMVuwlgWRZkMVJqPGogo9A0GibGcx5kc-gXZtP8LWMd69LlI8QXljkyvC7EBY-3o5Ki4NwgJs-s3PuBWJo5diP0w-FEd_WMJe7wwm1FRWsTTcj-F41g8aF45RfR-LV-BDSO-bP459egbDHAO85dZ-Tx_3m00]--></g></svg>