<?xml version="1.0" encoding="us-ascii" standalone="no"?><svg xmlns="http://www.w3.org/2000/svg" xmlns:xlink="http://www.w3.org/1999/xlink" contentStyleType="text/css" height="610px" preserveAspectRatio="none" style="width:2603px;height:610px;background:#FFFFFF;" version="1.1" viewBox="0 0 2603 610" width="2603px" zoomAndPan="magnify"><defs/><g><!--cluster <<aggregate>> Patient--><g id="cluster_&lt;&lt;aggregate&gt;&gt; Patient"><path d="M67.5,77.87 L209.5,77.87 A3.75,3.75 0 0 1 212,80.37 L219,102.4911 L1333.5,102.4911 A2.5,2.5 0 0 1 1336,104.9911 L1336,593.37 A2.5,2.5 0 0 1 1333.5,595.87 L67.5,595.87 A2.5,2.5 0 0 1 65,593.37 L65,80.37 A2.5,2.5 0 0 1 67.5,77.87 " fill="none" style="stroke:#000000;stroke-width:1.5;"/><line style="stroke:#000000;stroke-width:1.5;" x1="65" x2="219" y1="102.4911" y2="102.4911"/><text fill="#000000" font-family="sans-serif" font-size="14" font-weight="bold" lengthAdjust="spacing" textLength="141" x="69" y="94.9774">&#171;aggregate&#187; Patient</text></g><!--cluster <<aggregate MedicalRecord>>--><g id="cluster_&lt;&lt;aggregate MedicalRecord&gt;&gt;"><path d="M1384.5,77.87 L1583.5,77.87 A3.75,3.75 0 0 1 1586,80.37 L1593,102.4911 L1770.5,102.4911 A2.5,2.5 0 0 1 1773,104.9911 L1773,197.37 A2.5,2.5 0 0 1 1770.5,199.87 L1384.5,199.87 A2.5,2.5 0 0 1 1382,197.37 L1382,80.37 A2.5,2.5 0 0 1 1384.5,77.87 " fill="none" style="stroke:#000000;stroke-width:1.5;"/><line style="stroke:#000000;stroke-width:1.5;" x1="1382" x2="1593" y1="102.4911" y2="102.4911"/><text fill="#000000" font-family="sans-serif" font-size="14" font-weight="bold" lengthAdjust="spacing" textLength="198" x="1386" y="94.9774">&#171;aggregate MedicalRecord&#187;</text></g><!--cluster <<aggregate MedicalCondition>>--><g id="cluster_&lt;&lt;aggregate MedicalCondition&gt;&gt;"><path d="M1362.5,223.87 L1578.5,223.87 A3.75,3.75 0 0 1 1581,226.37 L1588,248.4911 L2061.5,248.4911 A2.5,2.5 0 0 1 2064,250.9911 L2064,472.37 A2.5,2.5 0 0 1 2061.5,474.87 L1362.5,474.87 A2.5,2.5 0 0 1 1360,472.37 L1360,226.37 A2.5,2.5 0 0 1 1362.5,223.87 " fill="none" style="stroke:#000000;stroke-width:1.5;"/><line style="stroke:#000000;stroke-width:1.5;" x1="1360" x2="1588" y1="248.4911" y2="248.4911"/><text fill="#000000" font-family="sans-serif" font-size="14" font-weight="bold" lengthAdjust="spacing" textLength="215" x="1364" y="240.9774">&#171;aggregate MedicalCondition&#187;</text></g><!--cluster <<aggregate Allergy>>--><g id="cluster_&lt;&lt;aggregate Allergy&gt;&gt;"><path d="M2090.5,352.87 L2231.5,352.87 A3.75,3.75 0 0 1 2234,355.37 L2241,377.4911 L2593.5,377.4911 A2.5,2.5 0 0 1 2596,379.9911 L2596,601.37 A2.5,2.5 0 0 1 2593.5,603.87 L2090.5,603.87 A2.5,2.5 0 0 1 2088,601.37 L2088,355.37 A2.5,2.5 0 0 1 2090.5,352.87 " fill="none" style="stroke:#000000;stroke-width:1.5;"/><line style="stroke:#000000;stroke-width:1.5;" x1="2088" x2="2241" y1="377.4911" y2="377.4911"/><text fill="#000000" font-family="sans-serif" font-size="14" font-weight="bold" lengthAdjust="spacing" textLength="140" x="2092" y="369.9774">&#171;aggregate Allergy&#187;</text></g><!--class Patient--><g id="elem_Patient"><rect codeLine="8" fill="#F5F5DC" height="68.543" id="Patient" rx="2.5" ry="2.5" style="stroke:#181818;stroke-width:0.5;" width="76" x="559" y="114.87"/><ellipse cx="574" cy="145.1415" fill="#ADD1B2" rx="11" ry="11" style="stroke:#181818;stroke-width:1.0;"/><path d="M572.8594,145.9384 L572.8594,148.4384 L577.1875,148.4384 L577.1875,147.5165 Q577.1875,146.9071 577.4219,146.6415 Q577.6719,146.3759 578.0469,146.3759 Q578.4219,146.3759 578.6563,146.6415 Q578.8906,146.9071 578.8906,147.5165 L578.8906,150.1415 L570.8906,150.1415 Q570.2656,150.1415 570,149.9071 Q569.75,149.6727 569.75,149.2821 Q569.75,148.9071 570.0156,148.6727 Q570.2813,148.4384 570.8906,148.4384 L571.1563,148.4384 L571.1563,141.7821 L570.8906,141.7821 Q570.2656,141.7821 570,141.5477 Q569.75,141.3134 569.75,140.9227 Q569.75,140.5477 570,140.3134 Q570.2656,140.079 570.8906,140.079 L578.5156,140.079 L578.5156,142.6727 Q578.5156,143.2821 578.2813,143.5477 Q578.0625,143.7977 577.6719,143.7977 Q577.2969,143.7977 577.0625,143.5477 Q576.8281,143.2821 576.8281,142.6727 L576.8281,141.7821 L572.8594,141.7821 L572.8594,144.2352 L574.3438,144.2352 Q574.3438,143.579 574.4688,143.3915 Q574.7344,142.9852 575.2031,142.9852 Q575.5781,142.9852 575.8125,143.2509 Q576.0469,143.5009 576.0469,144.1102 L576.0469,146.079 Q576.0469,146.6259 575.9219,146.8134 Q575.6563,147.204 575.2031,147.204 Q574.7344,147.204 574.4688,146.7977 Q574.3438,146.6102 574.3438,145.9384 L572.8594,145.9384 Z " fill="#000000"/><text fill="#000000" font-family="sans-serif" font-size="12" font-style="italic" lengthAdjust="spacing" textLength="43" x="588.5" y="132.8192">&#171;entity&#187;</text><text fill="#000000" font-family="sans-serif" font-size="12" font-style="italic" lengthAdjust="spacing" textLength="35" x="592.5" y="148.7802">&#171;root&#187;</text><text fill="#000000" font-family="sans-serif" font-size="14" lengthAdjust="spacing" textLength="44" x="588" y="166.8993">Patient</text><line style="stroke:#181818;stroke-width:0.5;" x1="560" x2="634" y1="175.413" y2="175.413"/></g><!--class DateBirth--><g id="elem_DateBirth"><rect codeLine="9" fill="#F5F5DC" height="52.582" id="DateBirth" rx="2.5" ry="2.5" style="stroke:#181818;stroke-width:0.5;" width="109" x="732.5" y="268.87"/><ellipse cx="747.5" cy="291.161" fill="#FF8B40" rx="11" ry="11" style="stroke:#181818;stroke-width:1.0;"/><path d="M748.0938,294.4266 L750.5625,288.5516 L750.1719,288.5516 Q749.5625,288.5516 749.2969,288.3173 Q749.0313,288.0829 749.0313,287.6923 Q749.0313,287.3173 749.2969,287.0829 Q749.5625,286.8485 750.1719,286.8485 L752.4531,286.8485 Q753.0625,286.8485 753.3281,287.0829 Q753.5938,287.3173 753.5938,287.6923 Q753.5938,288.161 753.1875,288.4266 Q753,288.5516 752.4063,288.5516 L748.9219,296.911 L747.2813,296.911 L743.7969,288.5516 Q743.2031,288.5516 743.0156,288.4266 Q742.6094,288.161 742.6094,287.6923 Q742.6094,287.3173 742.875,287.0829 Q743.1406,286.8485 743.75,286.8485 L746.0469,286.8485 Q746.6563,286.8485 746.9063,287.0829 Q747.1719,287.3173 747.1719,287.6923 Q747.1719,288.0829 746.9063,288.3173 Q746.6563,288.5516 746.0469,288.5516 L745.6406,288.5516 L748.0938,294.4266 Z " fill="#000000"/><text fill="#000000" font-family="sans-serif" font-size="12" font-style="italic" lengthAdjust="spacing" textLength="81" x="759.5" y="286.8192">&#171;value object&#187;</text><text fill="#000000" font-family="sans-serif" font-size="14" lengthAdjust="spacing" textLength="59" x="770.5" y="304.9384">DateBirth</text><line style="stroke:#181818;stroke-width:0.5;" x1="733.5" x2="840.5" y1="313.452" y2="313.452"/></g><!--class Gender--><g id="elem_Gender"><rect codeLine="10" fill="#F5F5DC" height="52.582" id="Gender" rx="2.5" ry="2.5" style="stroke:#181818;stroke-width:0.5;" width="109" x="406.5" y="268.87"/><ellipse cx="421.5" cy="291.161" fill="#FF8B40" rx="11" ry="11" style="stroke:#181818;stroke-width:1.0;"/><path d="M422.0938,294.4266 L424.5625,288.5516 L424.1719,288.5516 Q423.5625,288.5516 423.2969,288.3173 Q423.0313,288.0829 423.0313,287.6923 Q423.0313,287.3173 423.2969,287.0829 Q423.5625,286.8485 424.1719,286.8485 L426.4531,286.8485 Q427.0625,286.8485 427.3281,287.0829 Q427.5938,287.3173 427.5938,287.6923 Q427.5938,288.161 427.1875,288.4266 Q427,288.5516 426.4063,288.5516 L422.9219,296.911 L421.2813,296.911 L417.7969,288.5516 Q417.2031,288.5516 417.0156,288.4266 Q416.6094,288.161 416.6094,287.6923 Q416.6094,287.3173 416.875,287.0829 Q417.1406,286.8485 417.75,286.8485 L420.0469,286.8485 Q420.6563,286.8485 420.9063,287.0829 Q421.1719,287.3173 421.1719,287.6923 Q421.1719,288.0829 420.9063,288.3173 Q420.6563,288.5516 420.0469,288.5516 L419.6406,288.5516 L422.0938,294.4266 Z " fill="#000000"/><text fill="#000000" font-family="sans-serif" font-size="12" font-style="italic" lengthAdjust="spacing" textLength="81" x="433.5" y="286.8192">&#171;value object&#187;</text><text fill="#000000" font-family="sans-serif" font-size="14" lengthAdjust="spacing" textLength="48" x="450" y="304.9384">Gender</text><line style="stroke:#181818;stroke-width:0.5;" x1="407.5" x2="514.5" y1="313.452" y2="313.452"/></g><!--class EmergencyContact--><g id="elem_EmergencyContact"><rect codeLine="11" fill="#F5F5DC" height="52.582" id="EmergencyContact" rx="2.5" ry="2.5" style="stroke:#181818;stroke-width:0.5;" width="152" x="372" y="397.87"/><ellipse cx="387" cy="420.161" fill="#FF8B40" rx="11" ry="11" style="stroke:#181818;stroke-width:1.0;"/><path d="M387.5938,423.4266 L390.0625,417.5516 L389.6719,417.5516 Q389.0625,417.5516 388.7969,417.3173 Q388.5313,417.0829 388.5313,416.6923 Q388.5313,416.3173 388.7969,416.0829 Q389.0625,415.8485 389.6719,415.8485 L391.9531,415.8485 Q392.5625,415.8485 392.8281,416.0829 Q393.0938,416.3173 393.0938,416.6923 Q393.0938,417.161 392.6875,417.4266 Q392.5,417.5516 391.9063,417.5516 L388.4219,425.911 L386.7813,425.911 L383.2969,417.5516 Q382.7031,417.5516 382.5156,417.4266 Q382.1094,417.161 382.1094,416.6923 Q382.1094,416.3173 382.375,416.0829 Q382.6406,415.8485 383.25,415.8485 L385.5469,415.8485 Q386.1563,415.8485 386.4063,416.0829 Q386.6719,416.3173 386.6719,416.6923 Q386.6719,417.0829 386.4063,417.3173 Q386.1563,417.5516 385.5469,417.5516 L385.1406,417.5516 L387.5938,423.4266 Z " fill="#000000"/><text fill="#000000" font-family="sans-serif" font-size="12" font-style="italic" lengthAdjust="spacing" textLength="81" x="420.5" y="415.8192">&#171;value object&#187;</text><text fill="#000000" font-family="sans-serif" font-size="14" lengthAdjust="spacing" textLength="120" x="401" y="433.9384">EmergencyContact</text><line style="stroke:#181818;stroke-width:0.5;" x1="373" x2="523" y1="442.452" y2="442.452"/></g><!--class MRN--><g id="elem_MRN"><rect codeLine="12" fill="#F5F5DC" height="68.543" id="MRN" rx="2.5" ry="2.5" style="stroke:#181818;stroke-width:0.5;" width="109" x="588.5" y="260.87"/><ellipse cx="603.5" cy="291.1415" fill="#FF8B40" rx="11" ry="11" style="stroke:#181818;stroke-width:1.0;"/><path d="M604.0938,294.4071 L606.5625,288.5321 L606.1719,288.5321 Q605.5625,288.5321 605.2969,288.2977 Q605.0313,288.0634 605.0313,287.6727 Q605.0313,287.2977 605.2969,287.0634 Q605.5625,286.829 606.1719,286.829 L608.4531,286.829 Q609.0625,286.829 609.3281,287.0634 Q609.5938,287.2977 609.5938,287.6727 Q609.5938,288.1415 609.1875,288.4071 Q609,288.5321 608.4063,288.5321 L604.9219,296.8915 L603.2813,296.8915 L599.7969,288.5321 Q599.2031,288.5321 599.0156,288.4071 Q598.6094,288.1415 598.6094,287.6727 Q598.6094,287.2977 598.875,287.0634 Q599.1406,286.829 599.75,286.829 L602.0469,286.829 Q602.6563,286.829 602.9063,287.0634 Q603.1719,287.2977 603.1719,287.6727 Q603.1719,288.0634 602.9063,288.2977 Q602.6563,288.5321 602.0469,288.5321 L601.6406,288.5321 L604.0938,294.4071 Z " fill="#000000"/><text fill="#000000" font-family="sans-serif" font-size="12" font-style="italic" lengthAdjust="spacing" textLength="81" x="615.5" y="278.8192">&#171;value object&#187;</text><text fill="#000000" font-family="sans-serif" font-size="12" font-style="italic" lengthAdjust="spacing" textLength="61" x="625.5" y="294.7802">&#171;identifier&#187;</text><text fill="#000000" font-family="sans-serif" font-size="14" lengthAdjust="spacing" textLength="30" x="641" y="312.8993">MRN</text><line style="stroke:#181818;stroke-width:0.5;" x1="589.5" x2="696.5" y1="321.413" y2="321.413"/></g><!--class AppointmentHistory--><g id="elem_AppointmentHistory"><rect codeLine="13" fill="#F5F5DC" height="52.582" id="AppointmentHistory" rx="2.5" ry="2.5" style="stroke:#181818;stroke-width:0.5;" width="154" x="1021" y="268.87"/><ellipse cx="1036" cy="291.161" fill="#FF8B40" rx="11" ry="11" style="stroke:#181818;stroke-width:1.0;"/><path d="M1036.5938,294.4266 L1039.0625,288.5516 L1038.6719,288.5516 Q1038.0625,288.5516 1037.7969,288.3173 Q1037.5313,288.0829 1037.5313,287.6923 Q1037.5313,287.3173 1037.7969,287.0829 Q1038.0625,286.8485 1038.6719,286.8485 L1040.9531,286.8485 Q1041.5625,286.8485 1041.8281,287.0829 Q1042.0938,287.3173 1042.0938,287.6923 Q1042.0938,288.161 1041.6875,288.4266 Q1041.5,288.5516 1040.9063,288.5516 L1037.4219,296.911 L1035.7813,296.911 L1032.2969,288.5516 Q1031.7031,288.5516 1031.5156,288.4266 Q1031.1094,288.161 1031.1094,287.6923 Q1031.1094,287.3173 1031.375,287.0829 Q1031.6406,286.8485 1032.25,286.8485 L1034.5469,286.8485 Q1035.1563,286.8485 1035.4063,287.0829 Q1035.6719,287.3173 1035.6719,287.6923 Q1035.6719,288.0829 1035.4063,288.3173 Q1035.1563,288.5516 1034.5469,288.5516 L1034.1406,288.5516 L1036.5938,294.4266 Z " fill="#000000"/><text fill="#000000" font-family="sans-serif" font-size="12" font-style="italic" lengthAdjust="spacing" textLength="81" x="1070.5" y="286.8192">&#171;value object&#187;</text><text fill="#000000" font-family="sans-serif" font-size="14" lengthAdjust="spacing" textLength="122" x="1050" y="304.9384">AppointmentHistory</text><line style="stroke:#181818;stroke-width:0.5;" x1="1022" x2="1174" y1="313.452" y2="313.452"/></g><!--class AppointmentHistoryStatus--><g id="elem_AppointmentHistoryStatus"><rect codeLine="14" fill="#F5F5DC" height="52.582" id="AppointmentHistoryStatus" rx="2.5" ry="2.5" style="stroke:#181818;stroke-width:0.5;" width="194" x="760" y="397.87"/><ellipse cx="775" cy="420.161" fill="#FF8B40" rx="11" ry="11" style="stroke:#181818;stroke-width:1.0;"/><path d="M775.5938,423.4266 L778.0625,417.5516 L777.6719,417.5516 Q777.0625,417.5516 776.7969,417.3173 Q776.5313,417.0829 776.5313,416.6923 Q776.5313,416.3173 776.7969,416.0829 Q777.0625,415.8485 777.6719,415.8485 L779.9531,415.8485 Q780.5625,415.8485 780.8281,416.0829 Q781.0938,416.3173 781.0938,416.6923 Q781.0938,417.161 780.6875,417.4266 Q780.5,417.5516 779.9063,417.5516 L776.4219,425.911 L774.7813,425.911 L771.2969,417.5516 Q770.7031,417.5516 770.5156,417.4266 Q770.1094,417.161 770.1094,416.6923 Q770.1094,416.3173 770.375,416.0829 Q770.6406,415.8485 771.25,415.8485 L773.5469,415.8485 Q774.1563,415.8485 774.4063,416.0829 Q774.6719,416.3173 774.6719,416.6923 Q774.6719,417.0829 774.4063,417.3173 Q774.1563,417.5516 773.5469,417.5516 L773.1406,417.5516 L775.5938,423.4266 Z " fill="#000000"/><text fill="#000000" font-family="sans-serif" font-size="12" font-style="italic" lengthAdjust="spacing" textLength="81" x="829.5" y="415.8192">&#171;value object&#187;</text><text fill="#000000" font-family="sans-serif" font-size="14" lengthAdjust="spacing" textLength="162" x="789" y="433.9384">AppointmentHistoryStatus</text><line style="stroke:#181818;stroke-width:0.5;" x1="761" x2="953" y1="442.452" y2="442.452"/></g><!--class AppointmentHistoryType--><g id="elem_AppointmentHistoryType"><rect codeLine="15" fill="#F5F5DC" height="52.582" id="AppointmentHistoryType" rx="2.5" ry="2.5" style="stroke:#181818;stroke-width:0.5;" width="186" x="989" y="397.87"/><ellipse cx="1004" cy="420.161" fill="#FF8B40" rx="11" ry="11" style="stroke:#181818;stroke-width:1.0;"/><path d="M1004.5938,423.4266 L1007.0625,417.5516 L1006.6719,417.5516 Q1006.0625,417.5516 1005.7969,417.3173 Q1005.5313,417.0829 1005.5313,416.6923 Q1005.5313,416.3173 1005.7969,416.0829 Q1006.0625,415.8485 1006.6719,415.8485 L1008.9531,415.8485 Q1009.5625,415.8485 1009.8281,416.0829 Q1010.0938,416.3173 1010.0938,416.6923 Q1010.0938,417.161 1009.6875,417.4266 Q1009.5,417.5516 1008.9063,417.5516 L1005.4219,425.911 L1003.7813,425.911 L1000.2969,417.5516 Q999.7031,417.5516 999.5156,417.4266 Q999.1094,417.161 999.1094,416.6923 Q999.1094,416.3173 999.375,416.0829 Q999.6406,415.8485 1000.25,415.8485 L1002.5469,415.8485 Q1003.1563,415.8485 1003.4063,416.0829 Q1003.6719,416.3173 1003.6719,416.6923 Q1003.6719,417.0829 1003.4063,417.3173 Q1003.1563,417.5516 1002.5469,417.5516 L1002.1406,417.5516 L1004.5938,423.4266 Z " fill="#000000"/><text fill="#000000" font-family="sans-serif" font-size="12" font-style="italic" lengthAdjust="spacing" textLength="81" x="1054.5" y="415.8192">&#171;value object&#187;</text><text fill="#000000" font-family="sans-serif" font-size="14" lengthAdjust="spacing" textLength="154" x="1018" y="433.9384">AppointmentHistoryType</text><line style="stroke:#181818;stroke-width:0.5;" x1="990" x2="1174" y1="442.452" y2="442.452"/></g><!--class CreatedAt--><g id="elem_CreatedAt"><rect codeLine="16" fill="#F5F5DC" height="52.582" id="CreatedAt" rx="2.5" ry="2.5" style="stroke:#181818;stroke-width:0.5;" width="109" x="1210.5" y="397.87"/><ellipse cx="1225.5" cy="420.161" fill="#FF8B40" rx="11" ry="11" style="stroke:#181818;stroke-width:1.0;"/><path d="M1226.0938,423.4266 L1228.5625,417.5516 L1228.1719,417.5516 Q1227.5625,417.5516 1227.2969,417.3173 Q1227.0313,417.0829 1227.0313,416.6923 Q1227.0313,416.3173 1227.2969,416.0829 Q1227.5625,415.8485 1228.1719,415.8485 L1230.4531,415.8485 Q1231.0625,415.8485 1231.3281,416.0829 Q1231.5938,416.3173 1231.5938,416.6923 Q1231.5938,417.161 1231.1875,417.4266 Q1231,417.5516 1230.4063,417.5516 L1226.9219,425.911 L1225.2813,425.911 L1221.7969,417.5516 Q1221.2031,417.5516 1221.0156,417.4266 Q1220.6094,417.161 1220.6094,416.6923 Q1220.6094,416.3173 1220.875,416.0829 Q1221.1406,415.8485 1221.75,415.8485 L1224.0469,415.8485 Q1224.6563,415.8485 1224.9063,416.0829 Q1225.1719,416.3173 1225.1719,416.6923 Q1225.1719,417.0829 1224.9063,417.3173 Q1224.6563,417.5516 1224.0469,417.5516 L1223.6406,417.5516 L1226.0938,423.4266 Z " fill="#000000"/><text fill="#000000" font-family="sans-serif" font-size="12" font-style="italic" lengthAdjust="spacing" textLength="81" x="1237.5" y="415.8192">&#171;value object&#187;</text><text fill="#000000" font-family="sans-serif" font-size="14" lengthAdjust="spacing" textLength="64" x="1246" y="433.9384">CreatedAt</text><line style="stroke:#181818;stroke-width:0.5;" x1="1211.5" x2="1318.5" y1="442.452" y2="442.452"/></g><!--class Name--><g id="elem_Name"><rect codeLine="17" fill="#F5F5DC" height="52.582" id="Name" rx="2.5" ry="2.5" style="stroke:#181818;stroke-width:0.5;" width="109" x="876.5" y="122.87"/><ellipse cx="891.5" cy="145.161" fill="#FF8B40" rx="11" ry="11" style="stroke:#181818;stroke-width:1.0;"/><path d="M892.0938,148.4266 L894.5625,142.5516 L894.1719,142.5516 Q893.5625,142.5516 893.2969,142.3173 Q893.0313,142.0829 893.0313,141.6923 Q893.0313,141.3173 893.2969,141.0829 Q893.5625,140.8485 894.1719,140.8485 L896.4531,140.8485 Q897.0625,140.8485 897.3281,141.0829 Q897.5938,141.3173 897.5938,141.6923 Q897.5938,142.161 897.1875,142.4266 Q897,142.5516 896.4063,142.5516 L892.9219,150.911 L891.2813,150.911 L887.7969,142.5516 Q887.2031,142.5516 887.0156,142.4266 Q886.6094,142.161 886.6094,141.6923 Q886.6094,141.3173 886.875,141.0829 Q887.1406,140.8485 887.75,140.8485 L890.0469,140.8485 Q890.6563,140.8485 890.9063,141.0829 Q891.1719,141.3173 891.1719,141.6923 Q891.1719,142.0829 890.9063,142.3173 Q890.6563,142.5516 890.0469,142.5516 L889.6406,142.5516 L892.0938,148.4266 Z " fill="#000000"/><text fill="#000000" font-family="sans-serif" font-size="12" font-style="italic" lengthAdjust="spacing" textLength="81" x="903.5" y="140.8192">&#171;value object&#187;</text><text fill="#000000" font-family="sans-serif" font-size="14" lengthAdjust="spacing" textLength="36" x="926" y="158.9384">Name</text><line style="stroke:#181818;stroke-width:0.5;" x1="877.5" x2="984.5" y1="167.452" y2="167.452"/></g><!--class FirstName--><g id="elem_FirstName"><rect codeLine="18" fill="#F5F5DC" height="52.582" id="FirstName" rx="2.5" ry="2.5" style="stroke:#181818;stroke-width:0.5;" width="109" x="876.5" y="268.87"/><ellipse cx="891.5" cy="291.161" fill="#FF8B40" rx="11" ry="11" style="stroke:#181818;stroke-width:1.0;"/><path d="M892.0938,294.4266 L894.5625,288.5516 L894.1719,288.5516 Q893.5625,288.5516 893.2969,288.3173 Q893.0313,288.0829 893.0313,287.6923 Q893.0313,287.3173 893.2969,287.0829 Q893.5625,286.8485 894.1719,286.8485 L896.4531,286.8485 Q897.0625,286.8485 897.3281,287.0829 Q897.5938,287.3173 897.5938,287.6923 Q897.5938,288.161 897.1875,288.4266 Q897,288.5516 896.4063,288.5516 L892.9219,296.911 L891.2813,296.911 L887.7969,288.5516 Q887.2031,288.5516 887.0156,288.4266 Q886.6094,288.161 886.6094,287.6923 Q886.6094,287.3173 886.875,287.0829 Q887.1406,286.8485 887.75,286.8485 L890.0469,286.8485 Q890.6563,286.8485 890.9063,287.0829 Q891.1719,287.3173 891.1719,287.6923 Q891.1719,288.0829 890.9063,288.3173 Q890.6563,288.5516 890.0469,288.5516 L889.6406,288.5516 L892.0938,294.4266 Z " fill="#000000"/><text fill="#000000" font-family="sans-serif" font-size="12" font-style="italic" lengthAdjust="spacing" textLength="81" x="903.5" y="286.8192">&#171;value object&#187;</text><text fill="#000000" font-family="sans-serif" font-size="14" lengthAdjust="spacing" textLength="64" x="912" y="304.9384">FirstName</text><line style="stroke:#181818;stroke-width:0.5;" x1="877.5" x2="984.5" y1="313.452" y2="313.452"/></g><!--class LastName--><g id="elem_LastName"><rect codeLine="19" fill="#F5F5DC" height="52.582" id="LastName" rx="2.5" ry="2.5" style="stroke:#181818;stroke-width:0.5;" width="109" x="1020.5" y="122.87"/><ellipse cx="1035.5" cy="145.161" fill="#FF8B40" rx="11" ry="11" style="stroke:#181818;stroke-width:1.0;"/><path d="M1036.0938,148.4266 L1038.5625,142.5516 L1038.1719,142.5516 Q1037.5625,142.5516 1037.2969,142.3173 Q1037.0313,142.0829 1037.0313,141.6923 Q1037.0313,141.3173 1037.2969,141.0829 Q1037.5625,140.8485 1038.1719,140.8485 L1040.4531,140.8485 Q1041.0625,140.8485 1041.3281,141.0829 Q1041.5938,141.3173 1041.5938,141.6923 Q1041.5938,142.161 1041.1875,142.4266 Q1041,142.5516 1040.4063,142.5516 L1036.9219,150.911 L1035.2813,150.911 L1031.7969,142.5516 Q1031.2031,142.5516 1031.0156,142.4266 Q1030.6094,142.161 1030.6094,141.6923 Q1030.6094,141.3173 1030.875,141.0829 Q1031.1406,140.8485 1031.75,140.8485 L1034.0469,140.8485 Q1034.6563,140.8485 1034.9063,141.0829 Q1035.1719,141.3173 1035.1719,141.6923 Q1035.1719,142.0829 1034.9063,142.3173 Q1034.6563,142.5516 1034.0469,142.5516 L1033.6406,142.5516 L1036.0938,148.4266 Z " fill="#000000"/><text fill="#000000" font-family="sans-serif" font-size="12" font-style="italic" lengthAdjust="spacing" textLength="81" x="1047.5" y="140.8192">&#171;value object&#187;</text><text fill="#000000" font-family="sans-serif" font-size="14" lengthAdjust="spacing" textLength="63" x="1056.5" y="158.9384">LastName</text><line style="stroke:#181818;stroke-width:0.5;" x1="1021.5" x2="1128.5" y1="167.452" y2="167.452"/></g><!--class FullName--><g id="elem_FullName"><rect codeLine="20" fill="#F5F5DC" height="52.582" id="FullName" rx="2.5" ry="2.5" style="stroke:#181818;stroke-width:0.5;" width="109" x="1210.5" y="268.87"/><ellipse cx="1225.5" cy="291.161" fill="#FF8B40" rx="11" ry="11" style="stroke:#181818;stroke-width:1.0;"/><path d="M1226.0938,294.4266 L1228.5625,288.5516 L1228.1719,288.5516 Q1227.5625,288.5516 1227.2969,288.3173 Q1227.0313,288.0829 1227.0313,287.6923 Q1227.0313,287.3173 1227.2969,287.0829 Q1227.5625,286.8485 1228.1719,286.8485 L1230.4531,286.8485 Q1231.0625,286.8485 1231.3281,287.0829 Q1231.5938,287.3173 1231.5938,287.6923 Q1231.5938,288.161 1231.1875,288.4266 Q1231,288.5516 1230.4063,288.5516 L1226.9219,296.911 L1225.2813,296.911 L1221.7969,288.5516 Q1221.2031,288.5516 1221.0156,288.4266 Q1220.6094,288.161 1220.6094,287.6923 Q1220.6094,287.3173 1220.875,287.0829 Q1221.1406,286.8485 1221.75,286.8485 L1224.0469,286.8485 Q1224.6563,286.8485 1224.9063,287.0829 Q1225.1719,287.3173 1225.1719,287.6923 Q1225.1719,288.0829 1224.9063,288.3173 Q1224.6563,288.5516 1224.0469,288.5516 L1223.6406,288.5516 L1226.0938,294.4266 Z " fill="#000000"/><text fill="#000000" font-family="sans-serif" font-size="12" font-style="italic" lengthAdjust="spacing" textLength="81" x="1237.5" y="286.8192">&#171;value object&#187;</text><text fill="#000000" font-family="sans-serif" font-size="14" lengthAdjust="spacing" textLength="59" x="1248.5" y="304.9384">FullName</text><line style="stroke:#181818;stroke-width:0.5;" x1="1211.5" x2="1318.5" y1="313.452" y2="313.452"/></g><!--class Phone--><g id="elem_Phone"><rect codeLine="21" fill="#F5F5DC" height="52.582" id="Phone" rx="2.5" ry="2.5" style="stroke:#181818;stroke-width:0.5;" width="109" x="289.5" y="526.87"/><ellipse cx="304.5" cy="549.161" fill="#FF8B40" rx="11" ry="11" style="stroke:#181818;stroke-width:1.0;"/><path d="M305.0938,552.4266 L307.5625,546.5516 L307.1719,546.5516 Q306.5625,546.5516 306.2969,546.3173 Q306.0313,546.0829 306.0313,545.6923 Q306.0313,545.3173 306.2969,545.0829 Q306.5625,544.8485 307.1719,544.8485 L309.4531,544.8485 Q310.0625,544.8485 310.3281,545.0829 Q310.5938,545.3173 310.5938,545.6923 Q310.5938,546.161 310.1875,546.4266 Q310,546.5516 309.4063,546.5516 L305.9219,554.911 L304.2813,554.911 L300.7969,546.5516 Q300.2031,546.5516 300.0156,546.4266 Q299.6094,546.161 299.6094,545.6923 Q299.6094,545.3173 299.875,545.0829 Q300.1406,544.8485 300.75,544.8485 L303.0469,544.8485 Q303.6563,544.8485 303.9063,545.0829 Q304.1719,545.3173 304.1719,545.6923 Q304.1719,546.0829 303.9063,546.3173 Q303.6563,546.5516 303.0469,546.5516 L302.6406,546.5516 L305.0938,552.4266 Z " fill="#000000"/><text fill="#000000" font-family="sans-serif" font-size="12" font-style="italic" lengthAdjust="spacing" textLength="81" x="316.5" y="544.8192">&#171;value object&#187;</text><text fill="#000000" font-family="sans-serif" font-size="14" lengthAdjust="spacing" textLength="41" x="336.5" y="562.9384">Phone</text><line style="stroke:#181818;stroke-width:0.5;" x1="290.5" x2="397.5" y1="571.452" y2="571.452"/></g><!--class Email--><g id="elem_Email"><rect codeLine="22" fill="#F5F5DC" height="52.582" id="Email" rx="2.5" ry="2.5" style="stroke:#181818;stroke-width:0.5;" width="109" x="118.5" y="268.87"/><ellipse cx="133.5" cy="291.161" fill="#FF8B40" rx="11" ry="11" style="stroke:#181818;stroke-width:1.0;"/><path d="M134.0938,294.4266 L136.5625,288.5516 L136.1719,288.5516 Q135.5625,288.5516 135.2969,288.3173 Q135.0313,288.0829 135.0313,287.6923 Q135.0313,287.3173 135.2969,287.0829 Q135.5625,286.8485 136.1719,286.8485 L138.4531,286.8485 Q139.0625,286.8485 139.3281,287.0829 Q139.5938,287.3173 139.5938,287.6923 Q139.5938,288.161 139.1875,288.4266 Q139,288.5516 138.4063,288.5516 L134.9219,296.911 L133.2813,296.911 L129.7969,288.5516 Q129.2031,288.5516 129.0156,288.4266 Q128.6094,288.161 128.6094,287.6923 Q128.6094,287.3173 128.875,287.0829 Q129.1406,286.8485 129.75,286.8485 L132.0469,286.8485 Q132.6563,286.8485 132.9063,287.0829 Q133.1719,287.3173 133.1719,287.6923 Q133.1719,288.0829 132.9063,288.3173 Q132.6563,288.5516 132.0469,288.5516 L131.6406,288.5516 L134.0938,294.4266 Z " fill="#000000"/><text fill="#000000" font-family="sans-serif" font-size="12" font-style="italic" lengthAdjust="spacing" textLength="81" x="145.5" y="286.8192">&#171;value object&#187;</text><text fill="#000000" font-family="sans-serif" font-size="14" lengthAdjust="spacing" textLength="34" x="169" y="304.9384">Email</text><line style="stroke:#181818;stroke-width:0.5;" x1="119.5" x2="226.5" y1="313.452" y2="313.452"/></g><!--class Address--><g id="elem_Address"><rect codeLine="23" fill="#F5F5DC" height="52.582" id="Address" rx="2.5" ry="2.5" style="stroke:#181818;stroke-width:0.5;" width="109" x="262.5" y="268.87"/><ellipse cx="277.5" cy="291.161" fill="#FF8B40" rx="11" ry="11" style="stroke:#181818;stroke-width:1.0;"/><path d="M278.0938,294.4266 L280.5625,288.5516 L280.1719,288.5516 Q279.5625,288.5516 279.2969,288.3173 Q279.0313,288.0829 279.0313,287.6923 Q279.0313,287.3173 279.2969,287.0829 Q279.5625,286.8485 280.1719,286.8485 L282.4531,286.8485 Q283.0625,286.8485 283.3281,287.0829 Q283.5938,287.3173 283.5938,287.6923 Q283.5938,288.161 283.1875,288.4266 Q283,288.5516 282.4063,288.5516 L278.9219,296.911 L277.2813,296.911 L273.7969,288.5516 Q273.2031,288.5516 273.0156,288.4266 Q272.6094,288.161 272.6094,287.6923 Q272.6094,287.3173 272.875,287.0829 Q273.1406,286.8485 273.75,286.8485 L276.0469,286.8485 Q276.6563,286.8485 276.9063,287.0829 Q277.1719,287.3173 277.1719,287.6923 Q277.1719,288.0829 276.9063,288.3173 Q276.6563,288.5516 276.0469,288.5516 L275.6406,288.5516 L278.0938,294.4266 Z " fill="#000000"/><text fill="#000000" font-family="sans-serif" font-size="12" font-style="italic" lengthAdjust="spacing" textLength="81" x="289.5" y="286.8192">&#171;value object&#187;</text><text fill="#000000" font-family="sans-serif" font-size="14" lengthAdjust="spacing" textLength="52" x="304" y="304.9384">Address</text><line style="stroke:#181818;stroke-width:0.5;" x1="263.5" x2="370.5" y1="313.452" y2="313.452"/></g><!--class Status--><g id="elem_Status"><rect codeLine="24" fill="#F5F5DC" height="52.582" id="Status" rx="2.5" ry="2.5" style="stroke:#181818;stroke-width:0.5;" width="109" x="670.5" y="122.87"/><ellipse cx="685.5" cy="145.161" fill="#FF8B40" rx="11" ry="11" style="stroke:#181818;stroke-width:1.0;"/><path d="M686.0938,148.4266 L688.5625,142.5516 L688.1719,142.5516 Q687.5625,142.5516 687.2969,142.3173 Q687.0313,142.0829 687.0313,141.6923 Q687.0313,141.3173 687.2969,141.0829 Q687.5625,140.8485 688.1719,140.8485 L690.4531,140.8485 Q691.0625,140.8485 691.3281,141.0829 Q691.5938,141.3173 691.5938,141.6923 Q691.5938,142.161 691.1875,142.4266 Q691,142.5516 690.4063,142.5516 L686.9219,150.911 L685.2813,150.911 L681.7969,142.5516 Q681.2031,142.5516 681.0156,142.4266 Q680.6094,142.161 680.6094,141.6923 Q680.6094,141.3173 680.875,141.0829 Q681.1406,140.8485 681.75,140.8485 L684.0469,140.8485 Q684.6563,140.8485 684.9063,141.0829 Q685.1719,141.3173 685.1719,141.6923 Q685.1719,142.0829 684.9063,142.3173 Q684.6563,142.5516 684.0469,142.5516 L683.6406,142.5516 L686.0938,148.4266 Z " fill="#000000"/><text fill="#000000" font-family="sans-serif" font-size="12" font-style="italic" lengthAdjust="spacing" textLength="81" x="697.5" y="140.8192">&#171;value object&#187;</text><text fill="#000000" font-family="sans-serif" font-size="14" lengthAdjust="spacing" textLength="40" x="718" y="158.9384">Status</text><line style="stroke:#181818;stroke-width:0.5;" x1="671.5" x2="778.5" y1="167.452" y2="167.452"/></g><!--class MedicalRecord--><g id="elem_MedicalRecord"><rect codeLine="28" fill="#F5F5DC" height="68.543" id="MedicalRecord" rx="2.5" ry="2.5" style="stroke:#181818;stroke-width:0.5;" width="126" x="1398" y="114.87"/><ellipse cx="1413" cy="145.1415" fill="#ADD1B2" rx="11" ry="11" style="stroke:#181818;stroke-width:1.0;"/><path d="M1411.8594,145.9384 L1411.8594,148.4384 L1416.1875,148.4384 L1416.1875,147.5165 Q1416.1875,146.9071 1416.4219,146.6415 Q1416.6719,146.3759 1417.0469,146.3759 Q1417.4219,146.3759 1417.6563,146.6415 Q1417.8906,146.9071 1417.8906,147.5165 L1417.8906,150.1415 L1409.8906,150.1415 Q1409.2656,150.1415 1409,149.9071 Q1408.75,149.6727 1408.75,149.2821 Q1408.75,148.9071 1409.0156,148.6727 Q1409.2813,148.4384 1409.8906,148.4384 L1410.1563,148.4384 L1410.1563,141.7821 L1409.8906,141.7821 Q1409.2656,141.7821 1409,141.5477 Q1408.75,141.3134 1408.75,140.9227 Q1408.75,140.5477 1409,140.3134 Q1409.2656,140.079 1409.8906,140.079 L1417.5156,140.079 L1417.5156,142.6727 Q1417.5156,143.2821 1417.2813,143.5477 Q1417.0625,143.7977 1416.6719,143.7977 Q1416.2969,143.7977 1416.0625,143.5477 Q1415.8281,143.2821 1415.8281,142.6727 L1415.8281,141.7821 L1411.8594,141.7821 L1411.8594,144.2352 L1413.3438,144.2352 Q1413.3438,143.579 1413.4688,143.3915 Q1413.7344,142.9852 1414.2031,142.9852 Q1414.5781,142.9852 1414.8125,143.2509 Q1415.0469,143.5009 1415.0469,144.1102 L1415.0469,146.079 Q1415.0469,146.6259 1414.9219,146.8134 Q1414.6563,147.204 1414.2031,147.204 Q1413.7344,147.204 1413.4688,146.7977 Q1413.3438,146.6102 1413.3438,145.9384 L1411.8594,145.9384 Z " fill="#000000"/><text fill="#000000" font-family="sans-serif" font-size="12" font-style="italic" lengthAdjust="spacing" textLength="43" x="1452.5" y="132.8192">&#171;entity&#187;</text><text fill="#000000" font-family="sans-serif" font-size="12" font-style="italic" lengthAdjust="spacing" textLength="35" x="1456.5" y="148.7802">&#171;root&#187;</text><text fill="#000000" font-family="sans-serif" font-size="14" lengthAdjust="spacing" textLength="94" x="1427" y="166.8993">MedicalRecord</text><line style="stroke:#181818;stroke-width:0.5;" x1="1399" x2="1523" y1="175.413" y2="175.413"/></g><!--class MedicalRecordDescription--><g id="elem_MedicalRecordDescription"><rect codeLine="29" fill="#F5F5DC" height="68.543" id="MedicalRecordDescription" rx="2.5" ry="2.5" style="stroke:#181818;stroke-width:0.5;" width="197" x="1559.5" y="114.87"/><ellipse cx="1574.5" cy="145.1415" fill="#FF8B40" rx="11" ry="11" style="stroke:#181818;stroke-width:1.0;"/><path d="M1575.0938,148.4071 L1577.5625,142.5321 L1577.1719,142.5321 Q1576.5625,142.5321 1576.2969,142.2977 Q1576.0313,142.0634 1576.0313,141.6727 Q1576.0313,141.2977 1576.2969,141.0634 Q1576.5625,140.829 1577.1719,140.829 L1579.4531,140.829 Q1580.0625,140.829 1580.3281,141.0634 Q1580.5938,141.2977 1580.5938,141.6727 Q1580.5938,142.1415 1580.1875,142.4071 Q1580,142.5321 1579.4063,142.5321 L1575.9219,150.8915 L1574.2813,150.8915 L1570.7969,142.5321 Q1570.2031,142.5321 1570.0156,142.4071 Q1569.6094,142.1415 1569.6094,141.6727 Q1569.6094,141.2977 1569.875,141.0634 Q1570.1406,140.829 1570.75,140.829 L1573.0469,140.829 Q1573.6563,140.829 1573.9063,141.0634 Q1574.1719,141.2977 1574.1719,141.6727 Q1574.1719,142.0634 1573.9063,142.2977 Q1573.6563,142.5321 1573.0469,142.5321 L1572.6406,142.5321 L1575.0938,148.4071 Z " fill="#000000"/><text fill="#000000" font-family="sans-serif" font-size="12" font-style="italic" lengthAdjust="spacing" textLength="81" x="1630.5" y="132.8192">&#171;value object&#187;</text><text fill="#000000" font-family="sans-serif" font-size="12" font-style="italic" lengthAdjust="spacing" textLength="61" x="1640.5" y="148.7802">&#171;identifier&#187;</text><text fill="#000000" font-family="sans-serif" font-size="14" lengthAdjust="spacing" textLength="165" x="1588.5" y="166.8993">MedicalRecordDescription</text><line style="stroke:#181818;stroke-width:0.5;" x1="1560.5" x2="1755.5" y1="175.413" y2="175.413"/></g><!--class MedicalCondition--><g id="elem_MedicalCondition"><rect codeLine="33" fill="#F5F5DC" height="68.543" id="MedicalCondition" rx="2.5" ry="2.5" style="stroke:#181818;stroke-width:0.5;" width="140" x="1529" y="260.87"/><ellipse cx="1544" cy="291.1415" fill="#ADD1B2" rx="11" ry="11" style="stroke:#181818;stroke-width:1.0;"/><path d="M1542.8594,291.9384 L1542.8594,294.4384 L1547.1875,294.4384 L1547.1875,293.5165 Q1547.1875,292.9071 1547.4219,292.6415 Q1547.6719,292.3759 1548.0469,292.3759 Q1548.4219,292.3759 1548.6563,292.6415 Q1548.8906,292.9071 1548.8906,293.5165 L1548.8906,296.1415 L1540.8906,296.1415 Q1540.2656,296.1415 1540,295.9071 Q1539.75,295.6727 1539.75,295.2821 Q1539.75,294.9071 1540.0156,294.6727 Q1540.2813,294.4384 1540.8906,294.4384 L1541.1563,294.4384 L1541.1563,287.7821 L1540.8906,287.7821 Q1540.2656,287.7821 1540,287.5477 Q1539.75,287.3134 1539.75,286.9227 Q1539.75,286.5477 1540,286.3134 Q1540.2656,286.079 1540.8906,286.079 L1548.5156,286.079 L1548.5156,288.6727 Q1548.5156,289.2821 1548.2813,289.5477 Q1548.0625,289.7977 1547.6719,289.7977 Q1547.2969,289.7977 1547.0625,289.5477 Q1546.8281,289.2821 1546.8281,288.6727 L1546.8281,287.7821 L1542.8594,287.7821 L1542.8594,290.2352 L1544.3438,290.2352 Q1544.3438,289.579 1544.4688,289.3915 Q1544.7344,288.9852 1545.2031,288.9852 Q1545.5781,288.9852 1545.8125,289.2509 Q1546.0469,289.5009 1546.0469,290.1102 L1546.0469,292.079 Q1546.0469,292.6259 1545.9219,292.8134 Q1545.6563,293.204 1545.2031,293.204 Q1544.7344,293.204 1544.4688,292.7977 Q1544.3438,292.6102 1544.3438,291.9384 L1542.8594,291.9384 Z " fill="#000000"/><text fill="#000000" font-family="sans-serif" font-size="12" font-style="italic" lengthAdjust="spacing" textLength="43" x="1590.5" y="278.8192">&#171;entity&#187;</text><text fill="#000000" font-family="sans-serif" font-size="12" font-style="italic" lengthAdjust="spacing" textLength="35" x="1594.5" y="294.7802">&#171;root&#187;</text><text fill="#000000" font-family="sans-serif" font-size="14" lengthAdjust="spacing" textLength="108" x="1558" y="312.8993">MedicalCondition</text><line style="stroke:#181818;stroke-width:0.5;" x1="1530" x2="1668" y1="321.413" y2="321.413"/></g><!--class MedicalConditionDesignation--><g id="elem_MedicalConditionDesignation"><rect codeLine="34" fill="#F5F5DC" height="52.582" id="MedicalConditionDesignation" rx="2.5" ry="2.5" style="stroke:#181818;stroke-width:0.5;" width="215" x="1376.5" y="397.87"/><ellipse cx="1391.5" cy="420.161" fill="#FF8B40" rx="11" ry="11" style="stroke:#181818;stroke-width:1.0;"/><path d="M1392.0938,423.4266 L1394.5625,417.5516 L1394.1719,417.5516 Q1393.5625,417.5516 1393.2969,417.3173 Q1393.0313,417.0829 1393.0313,416.6923 Q1393.0313,416.3173 1393.2969,416.0829 Q1393.5625,415.8485 1394.1719,415.8485 L1396.4531,415.8485 Q1397.0625,415.8485 1397.3281,416.0829 Q1397.5938,416.3173 1397.5938,416.6923 Q1397.5938,417.161 1397.1875,417.4266 Q1397,417.5516 1396.4063,417.5516 L1392.9219,425.911 L1391.2813,425.911 L1387.7969,417.5516 Q1387.2031,417.5516 1387.0156,417.4266 Q1386.6094,417.161 1386.6094,416.6923 Q1386.6094,416.3173 1386.875,416.0829 Q1387.1406,415.8485 1387.75,415.8485 L1390.0469,415.8485 Q1390.6563,415.8485 1390.9063,416.0829 Q1391.1719,416.3173 1391.1719,416.6923 Q1391.1719,417.0829 1390.9063,417.3173 Q1390.6563,417.5516 1390.0469,417.5516 L1389.6406,417.5516 L1392.0938,423.4266 Z " fill="#000000"/><text fill="#000000" font-family="sans-serif" font-size="12" font-style="italic" lengthAdjust="spacing" textLength="81" x="1456.5" y="415.8192">&#171;value object&#187;</text><text fill="#000000" font-family="sans-serif" font-size="14" lengthAdjust="spacing" textLength="183" x="1405.5" y="433.9384">MedicalConditionDesignation</text><line style="stroke:#181818;stroke-width:0.5;" x1="1377.5" x2="1590.5" y1="442.452" y2="442.452"/></g><!--class MedicalConditionCode--><g id="elem_MedicalConditionCode"><rect codeLine="35" fill="#F5F5DC" height="68.543" id="MedicalConditionCode" rx="2.5" ry="2.5" style="stroke:#181818;stroke-width:0.5;" width="174" x="1627" y="389.87"/><ellipse cx="1642" cy="420.1415" fill="#FF8B40" rx="11" ry="11" style="stroke:#181818;stroke-width:1.0;"/><path d="M1642.5938,423.4071 L1645.0625,417.5321 L1644.6719,417.5321 Q1644.0625,417.5321 1643.7969,417.2977 Q1643.5313,417.0634 1643.5313,416.6727 Q1643.5313,416.2977 1643.7969,416.0634 Q1644.0625,415.829 1644.6719,415.829 L1646.9531,415.829 Q1647.5625,415.829 1647.8281,416.0634 Q1648.0938,416.2977 1648.0938,416.6727 Q1648.0938,417.1415 1647.6875,417.4071 Q1647.5,417.5321 1646.9063,417.5321 L1643.4219,425.8915 L1641.7813,425.8915 L1638.2969,417.5321 Q1637.7031,417.5321 1637.5156,417.4071 Q1637.1094,417.1415 1637.1094,416.6727 Q1637.1094,416.2977 1637.375,416.0634 Q1637.6406,415.829 1638.25,415.829 L1640.5469,415.829 Q1641.1563,415.829 1641.4063,416.0634 Q1641.6719,416.2977 1641.6719,416.6727 Q1641.6719,417.0634 1641.4063,417.2977 Q1641.1563,417.5321 1640.5469,417.5321 L1640.1406,417.5321 L1642.5938,423.4071 Z " fill="#000000"/><text fill="#000000" font-family="sans-serif" font-size="12" font-style="italic" lengthAdjust="spacing" textLength="81" x="1686.5" y="407.8192">&#171;value object&#187;</text><text fill="#000000" font-family="sans-serif" font-size="12" font-style="italic" lengthAdjust="spacing" textLength="61" x="1696.5" y="423.7802">&#171;identifier&#187;</text><text fill="#000000" font-family="sans-serif" font-size="14" lengthAdjust="spacing" textLength="142" x="1656" y="441.8993">MedicalConditionCode</text><line style="stroke:#181818;stroke-width:0.5;" x1="1628" x2="1800" y1="450.413" y2="450.413"/></g><!--class MedicalConditionDescription--><g id="elem_MedicalConditionDescription"><rect codeLine="36" fill="#F5F5DC" height="52.582" id="MedicalConditionDescription" rx="2.5" ry="2.5" style="stroke:#181818;stroke-width:0.5;" width="211" x="1836.5" y="397.87"/><ellipse cx="1851.5" cy="420.161" fill="#FF8B40" rx="11" ry="11" style="stroke:#181818;stroke-width:1.0;"/><path d="M1852.0938,423.4266 L1854.5625,417.5516 L1854.1719,417.5516 Q1853.5625,417.5516 1853.2969,417.3173 Q1853.0313,417.0829 1853.0313,416.6923 Q1853.0313,416.3173 1853.2969,416.0829 Q1853.5625,415.8485 1854.1719,415.8485 L1856.4531,415.8485 Q1857.0625,415.8485 1857.3281,416.0829 Q1857.5938,416.3173 1857.5938,416.6923 Q1857.5938,417.161 1857.1875,417.4266 Q1857,417.5516 1856.4063,417.5516 L1852.9219,425.911 L1851.2813,425.911 L1847.7969,417.5516 Q1847.2031,417.5516 1847.0156,417.4266 Q1846.6094,417.161 1846.6094,416.6923 Q1846.6094,416.3173 1846.875,416.0829 Q1847.1406,415.8485 1847.75,415.8485 L1850.0469,415.8485 Q1850.6563,415.8485 1850.9063,416.0829 Q1851.1719,416.3173 1851.1719,416.6923 Q1851.1719,417.0829 1850.9063,417.3173 Q1850.6563,417.5516 1850.0469,417.5516 L1849.6406,417.5516 L1852.0938,423.4266 Z " fill="#000000"/><text fill="#000000" font-family="sans-serif" font-size="12" font-style="italic" lengthAdjust="spacing" textLength="81" x="1914.5" y="415.8192">&#171;value object&#187;</text><text fill="#000000" font-family="sans-serif" font-size="14" lengthAdjust="spacing" textLength="179" x="1865.5" y="433.9384">MedicalConditionDescription</text><line style="stroke:#181818;stroke-width:0.5;" x1="1837.5" x2="2046.5" y1="442.452" y2="442.452"/></g><!--class Allergy--><g id="elem_Allergy"><rect codeLine="40" fill="#F5F5DC" height="68.543" id="Allergy" rx="2.5" ry="2.5" style="stroke:#181818;stroke-width:0.5;" width="75" x="2230.5" y="389.87"/><ellipse cx="2245.5" cy="420.1415" fill="#ADD1B2" rx="11" ry="11" style="stroke:#181818;stroke-width:1.0;"/><path d="M2244.3594,420.9384 L2244.3594,423.4384 L2248.6875,423.4384 L2248.6875,422.5165 Q2248.6875,421.9071 2248.9219,421.6415 Q2249.1719,421.3759 2249.5469,421.3759 Q2249.9219,421.3759 2250.1563,421.6415 Q2250.3906,421.9071 2250.3906,422.5165 L2250.3906,425.1415 L2242.3906,425.1415 Q2241.7656,425.1415 2241.5,424.9071 Q2241.25,424.6727 2241.25,424.2821 Q2241.25,423.9071 2241.5156,423.6727 Q2241.7813,423.4384 2242.3906,423.4384 L2242.6563,423.4384 L2242.6563,416.7821 L2242.3906,416.7821 Q2241.7656,416.7821 2241.5,416.5477 Q2241.25,416.3134 2241.25,415.9227 Q2241.25,415.5477 2241.5,415.3134 Q2241.7656,415.079 2242.3906,415.079 L2250.0156,415.079 L2250.0156,417.6727 Q2250.0156,418.2821 2249.7813,418.5477 Q2249.5625,418.7977 2249.1719,418.7977 Q2248.7969,418.7977 2248.5625,418.5477 Q2248.3281,418.2821 2248.3281,417.6727 L2248.3281,416.7821 L2244.3594,416.7821 L2244.3594,419.2352 L2245.8438,419.2352 Q2245.8438,418.579 2245.9688,418.3915 Q2246.2344,417.9852 2246.7031,417.9852 Q2247.0781,417.9852 2247.3125,418.2509 Q2247.5469,418.5009 2247.5469,419.1102 L2247.5469,421.079 Q2247.5469,421.6259 2247.4219,421.8134 Q2247.1563,422.204 2246.7031,422.204 Q2246.2344,422.204 2245.9688,421.7977 Q2245.8438,421.6102 2245.8438,420.9384 L2244.3594,420.9384 Z " fill="#000000"/><text fill="#000000" font-family="sans-serif" font-size="12" font-style="italic" lengthAdjust="spacing" textLength="43" x="2259.5" y="407.8192">&#171;entity&#187;</text><text fill="#000000" font-family="sans-serif" font-size="12" font-style="italic" lengthAdjust="spacing" textLength="35" x="2263.5" y="423.7802">&#171;root&#187;</text><text fill="#000000" font-family="sans-serif" font-size="14" lengthAdjust="spacing" textLength="43" x="2259.5" y="441.8993">Allergy</text><line style="stroke:#181818;stroke-width:0.5;" x1="2231.5" x2="2304.5" y1="450.413" y2="450.413"/></g><!--class AllergyDesignation--><g id="elem_AllergyDesignation"><rect codeLine="41" fill="#F5F5DC" height="52.582" id="AllergyDesignation" rx="2.5" ry="2.5" style="stroke:#181818;stroke-width:0.5;" width="150" x="2285" y="526.87"/><ellipse cx="2300" cy="549.161" fill="#FF8B40" rx="11" ry="11" style="stroke:#181818;stroke-width:1.0;"/><path d="M2300.5938,552.4266 L2303.0625,546.5516 L2302.6719,546.5516 Q2302.0625,546.5516 2301.7969,546.3173 Q2301.5313,546.0829 2301.5313,545.6923 Q2301.5313,545.3173 2301.7969,545.0829 Q2302.0625,544.8485 2302.6719,544.8485 L2304.9531,544.8485 Q2305.5625,544.8485 2305.8281,545.0829 Q2306.0938,545.3173 2306.0938,545.6923 Q2306.0938,546.161 2305.6875,546.4266 Q2305.5,546.5516 2304.9063,546.5516 L2301.4219,554.911 L2299.7813,554.911 L2296.2969,546.5516 Q2295.7031,546.5516 2295.5156,546.4266 Q2295.1094,546.161 2295.1094,545.6923 Q2295.1094,545.3173 2295.375,545.0829 Q2295.6406,544.8485 2296.25,544.8485 L2298.5469,544.8485 Q2299.1563,544.8485 2299.4063,545.0829 Q2299.6719,545.3173 2299.6719,545.6923 Q2299.6719,546.0829 2299.4063,546.3173 Q2299.1563,546.5516 2298.5469,546.5516 L2298.1406,546.5516 L2300.5938,552.4266 Z " fill="#000000"/><text fill="#000000" font-family="sans-serif" font-size="12" font-style="italic" lengthAdjust="spacing" textLength="81" x="2332.5" y="544.8192">&#171;value object&#187;</text><text fill="#000000" font-family="sans-serif" font-size="14" lengthAdjust="spacing" textLength="118" x="2314" y="562.9384">AllergyDesignation</text><line style="stroke:#181818;stroke-width:0.5;" x1="2286" x2="2434" y1="571.452" y2="571.452"/></g><!--class AllergyCode--><g id="elem_AllergyCode"><rect codeLine="42" fill="#F5F5DC" height="68.543" id="AllergyCode" rx="2.5" ry="2.5" style="stroke:#181818;stroke-width:0.5;" width="109" x="2470.5" y="518.87"/><ellipse cx="2485.5" cy="549.1415" fill="#FF8B40" rx="11" ry="11" style="stroke:#181818;stroke-width:1.0;"/><path d="M2486.0938,552.4071 L2488.5625,546.5321 L2488.1719,546.5321 Q2487.5625,546.5321 2487.2969,546.2977 Q2487.0313,546.0634 2487.0313,545.6727 Q2487.0313,545.2977 2487.2969,545.0634 Q2487.5625,544.829 2488.1719,544.829 L2490.4531,544.829 Q2491.0625,544.829 2491.3281,545.0634 Q2491.5938,545.2977 2491.5938,545.6727 Q2491.5938,546.1415 2491.1875,546.4071 Q2491,546.5321 2490.4063,546.5321 L2486.9219,554.8915 L2485.2813,554.8915 L2481.7969,546.5321 Q2481.2031,546.5321 2481.0156,546.4071 Q2480.6094,546.1415 2480.6094,545.6727 Q2480.6094,545.2977 2480.875,545.0634 Q2481.1406,544.829 2481.75,544.829 L2484.0469,544.829 Q2484.6563,544.829 2484.9063,545.0634 Q2485.1719,545.2977 2485.1719,545.6727 Q2485.1719,546.0634 2484.9063,546.2977 Q2484.6563,546.5321 2484.0469,546.5321 L2483.6406,546.5321 L2486.0938,552.4071 Z " fill="#000000"/><text fill="#000000" font-family="sans-serif" font-size="12" font-style="italic" lengthAdjust="spacing" textLength="81" x="2497.5" y="536.8192">&#171;value object&#187;</text><text fill="#000000" font-family="sans-serif" font-size="12" font-style="italic" lengthAdjust="spacing" textLength="61" x="2507.5" y="552.7802">&#171;identifier&#187;</text><text fill="#000000" font-family="sans-serif" font-size="14" lengthAdjust="spacing" textLength="77" x="2499.5" y="570.8993">AllergyCode</text><line style="stroke:#181818;stroke-width:0.5;" x1="2471.5" x2="2578.5" y1="579.413" y2="579.413"/></g><!--class AllergyDescription--><g id="elem_AllergyDescription"><rect codeLine="43" fill="#F5F5DC" height="52.582" id="AllergyDescription" rx="2.5" ry="2.5" style="stroke:#181818;stroke-width:0.5;" width="146" x="2104" y="526.87"/><ellipse cx="2119" cy="549.161" fill="#FF8B40" rx="11" ry="11" style="stroke:#181818;stroke-width:1.0;"/><path d="M2119.5938,552.4266 L2122.0625,546.5516 L2121.6719,546.5516 Q2121.0625,546.5516 2120.7969,546.3173 Q2120.5313,546.0829 2120.5313,545.6923 Q2120.5313,545.3173 2120.7969,545.0829 Q2121.0625,544.8485 2121.6719,544.8485 L2123.9531,544.8485 Q2124.5625,544.8485 2124.8281,545.0829 Q2125.0938,545.3173 2125.0938,545.6923 Q2125.0938,546.161 2124.6875,546.4266 Q2124.5,546.5516 2123.9063,546.5516 L2120.4219,554.911 L2118.7813,554.911 L2115.2969,546.5516 Q2114.7031,546.5516 2114.5156,546.4266 Q2114.1094,546.161 2114.1094,545.6923 Q2114.1094,545.3173 2114.375,545.0829 Q2114.6406,544.8485 2115.25,544.8485 L2117.5469,544.8485 Q2118.1563,544.8485 2118.4063,545.0829 Q2118.6719,545.3173 2118.6719,545.6923 Q2118.6719,546.0829 2118.4063,546.3173 Q2118.1563,546.5516 2117.5469,546.5516 L2117.1406,546.5516 L2119.5938,552.4266 Z " fill="#000000"/><text fill="#000000" font-family="sans-serif" font-size="12" font-style="italic" lengthAdjust="spacing" textLength="81" x="2149.5" y="544.8192">&#171;value object&#187;</text><text fill="#000000" font-family="sans-serif" font-size="14" lengthAdjust="spacing" textLength="114" x="2133" y="562.9384">AllergyDescription</text><line style="stroke:#181818;stroke-width:0.5;" x1="2105" x2="2249" y1="571.452" y2="571.452"/></g><!--link Name to FirstName--><g id="link_Name_FirstName"><path codeLine="47" d="M931,176.11 C931,202.33 931,236.72 931,262.85 " fill="none" id="Name-to-FirstName" style="stroke:#222222;stroke-width:1.0;"/><polygon fill="#222222" points="931,268.85,935,259.85,931,263.85,927,259.85,931,268.85" style="stroke:#222222;stroke-width:1.0;"/></g><!--link Name to LastName--><g id="link_Name_LastName"><path codeLine="48" d="M985.56,149.37 C997.21,149.37 1002.85,149.37 1014.5,149.37 " fill="none" id="Name-to-LastName" style="stroke:#222222;stroke-width:1.0;"/><polygon fill="#222222" points="1020.5,149.37,1011.5,145.37,1015.5,149.37,1011.5,153.37,1020.5,149.37" style="stroke:#222222;stroke-width:1.0;"/></g><!--link Name to FullName--><g id="link_Name_FullName"><path codeLine="49" d="M955.15,176.12 C968.08,188.09 985.02,201.14 1003,207.87 C1042.37,222.6 1153.82,198.27 1192,215.87 C1216.17,227.01 1232.6531,245.296 1245.5531,263.596 " fill="none" id="Name-to-FullName" style="stroke:#222222;stroke-width:1.0;"/><polygon fill="#222222" points="1249.01,268.5,1247.0939,258.8393,1246.1292,264.4133,1240.5552,263.4486,1249.01,268.5" style="stroke:#222222;stroke-width:1.0;"/></g><!--link Patient to Status--><g id="link_Patient_Status"><path codeLine="51" d="M635,149.37 C646.72,149.37 652.44,149.37 664.16,149.37 " fill="none" id="Patient-to-Status" style="stroke:#222222;stroke-width:1.0;"/><polygon fill="#222222" points="670.16,149.37,661.16,145.37,665.16,149.37,661.16,153.37,670.16,149.37" style="stroke:#222222;stroke-width:1.0;"/><text fill="#000000" font-family="sans-serif" font-size="13" lengthAdjust="spacing" textLength="7" x="655.3206" y="145.3038">1</text></g><!--link Patient to Name--><g id="link_Patient_Name"><path codeLine="52" d="M609.71,114.8 C621.24,89 641,55.6 670.5,39.87 C713.25,17.08 733.41,24.96 779.5,39.87 C829.68,56.1 872.8594,91.6972 900.8794,118.5672 " fill="none" id="Patient-to-Name" style="stroke:#222222;stroke-width:1.0;"/><polygon fill="#222222" points="905.21,122.72,901.4827,113.6037,901.6012,119.2593,895.9456,119.3778,905.21,122.72" style="stroke:#222222;stroke-width:1.0;"/><text fill="#000000" font-family="sans-serif" font-size="13" lengthAdjust="spacing" textLength="7" x="891.4367" y="111.7019">1</text></g><!--link Patient to DateBirth--><g id="link_Patient_DateBirth"><path codeLine="53" d="M622.38,183.87 C631.07,193.1 641.53,202.14 653,207.87 C677.85,220.29 690.34,203.08 715,215.87 C738.31,227.96 754.4179,245.9109 767.2579,263.8509 " fill="none" id="Patient-to-DateBirth" style="stroke:#222222;stroke-width:1.0;"/><polygon fill="#222222" points="770.75,268.73,768.7646,259.0833,767.84,264.6641,762.2592,263.7394,770.75,268.73" style="stroke:#222222;stroke-width:1.0;"/><text fill="#000000" font-family="sans-serif" font-size="13" lengthAdjust="spacing" textLength="7" x="759.1828" y="257.7142">1</text></g><!--link Patient to Gender--><g id="link_Patient_Gender"><path codeLine="54" d="M565.11,184.13 C540.78,209.9 511.8588,240.517 489.5888,264.107 " fill="none" id="Patient-to-Gender" style="stroke:#222222;stroke-width:1.0;"/><polygon fill="#222222" points="485.47,268.47,494.5569,264.6715,488.9023,264.8342,488.7396,259.1797,485.47,268.47" style="stroke:#222222;stroke-width:1.0;"/><text fill="#000000" font-family="sans-serif" font-size="13" lengthAdjust="spacing" textLength="7" x="483.3193" y="257.394">1</text></g><!--link Patient to EmergencyContact--><g id="link_Patient_EmergencyContact"><path codeLine="55" d="M583.28,183.89 C579.2,194.11 574.82,205.41 571,215.87 C552.7,266.04 559.99,283.78 533,329.87 C518.03,355.43 499.5314,375.8676 481.3114,393.4176 " fill="none" id="Patient-to-EmergencyContact" style="stroke:#222222;stroke-width:1.0;"/><polygon fill="#222222" points="476.99,397.58,486.247,394.2172,480.5911,394.1113,480.6971,388.4554,476.99,397.58" style="stroke:#222222;stroke-width:1.0;"/><text fill="#000000" font-family="sans-serif" font-size="13" lengthAdjust="spacing" textLength="7" x="475.8846" y="386.5295">1</text></g><!--link Patient to MRN--><g id="link_Patient_MRN"><path codeLine="56" d="M607.78,184.13 C615.17,207.24 623.0834,232.0448 630.4534,255.1048 " fill="none" id="Patient-to-MRN" style="stroke:#222222;stroke-width:1.0;"/><polygon fill="#222222" points="632.28,260.82,633.3503,251.0295,630.7578,256.0573,625.73,253.4649,632.28,260.82" style="stroke:#222222;stroke-width:1.0;"/><text fill="#000000" font-family="sans-serif" font-size="13" lengthAdjust="spacing" textLength="7" x="622.5693" y="249.7132">1</text></g><!--link Patient to MedicalRecord--><g id="link_Patient_MedicalRecord"><path codeLine="57" d="M609.71,114.8 C621.24,89 641,55.6 670.5,39.87 C734.03,6 1250.33,16.7 1318.5,39.87 C1361.92,54.63 1398.1922,84.3328 1424.8422,110.5428 " fill="none" id="Patient-to-MedicalRecord" style="stroke:#222222;stroke-width:1.0;"/><polygon fill="#222222" points="1429.12,114.75,1425.5081,105.5874,1425.5552,111.244,1419.8985,111.2911,1429.12,114.75" style="stroke:#222222;stroke-width:1.0;"/><text fill="#000000" font-family="sans-serif" font-size="13" lengthAdjust="spacing" textLength="7" x="1415.3757" y="103.6299">1</text></g><!--link MedicalRecord to AppointmentHistory--><g id="link_MedicalRecord_AppointmentHistory"><path codeLine="58" d="M1400.04,183.95 C1380.19,193.36 1357.68,202.48 1336,207.87 C1305.11,215.54 1222.64,204.26 1193,215.87 C1164.51,227.03 1142.3777,245.8937 1124.7077,264.1937 " fill="none" id="MedicalRecord-to-AppointmentHistory" style="stroke:#222222;stroke-width:1.0;"/><polygon fill="#222222" points="1120.54,268.51,1129.6691,264.814,1124.0131,264.9131,1123.914,259.2571,1120.54,268.51" style="stroke:#222222;stroke-width:1.0;"/><text fill="#000000" font-family="sans-serif" font-size="13" lengthAdjust="spacing" textLength="7" x="1117.943" y="257.4433">1</text></g><!--link Patient to AppointmentHistory--><g id="link_Patient_AppointmentHistory"><path codeLine="59" d="M621.47,184.02 C630.25,193.5 640.99,202.64 653,207.87 C688.66,223.4 966.55,202.29 1003,215.87 C1031.87,226.63 1054.182,245.7753 1071.802,264.2753 " fill="none" id="Patient-to-AppointmentHistory" style="stroke:#222222;stroke-width:1.0;"/><polygon fill="#222222" points="1075.94,268.62,1072.6294,259.3442,1072.4916,264.9994,1066.8365,264.8616,1075.94,268.62" style="stroke:#222222;stroke-width:1.0;"/><text fill="#000000" font-family="sans-serif" font-size="13" lengthAdjust="spacing" textLength="20" x="1048.5261" y="257.5787">0..*</text></g><!--link Patient to Email--><g id="link_Patient_Email"><path codeLine="60" d="M558.94,149.77 C491.4,150.3 348.02,158.75 245,215.87 C222.2,228.51 206.2124,246.1973 193.2724,263.8873 " fill="none" id="Patient-to-Email" style="stroke:#222222;stroke-width:1.0;"/><polygon fill="#222222" points="189.73,268.73,198.272,263.8275,192.682,264.6944,191.8151,259.1044,189.73,268.73" style="stroke:#222222;stroke-width:1.0;"/><text fill="#000000" font-family="sans-serif" font-size="13" lengthAdjust="spacing" textLength="7" x="185.7894" y="257.7142">1</text></g><!--link Patient to Phone--><g id="link_Patient_Phone"><path codeLine="61" d="M558.82,152.56 C447.82,159.31 131.17,181.46 101,215.87 C6,324.24 202.6617,465.4905 295.4817,523.4905 " fill="none" id="Patient-to-Phone" style="stroke:#222222;stroke-width:1.0;"/><polygon fill="#222222" points="300.57,526.67,295.0572,518.5086,296.3298,524.0204,290.8179,525.2929,300.57,526.67" style="stroke:#222222;stroke-width:1.0;"/><text fill="#000000" font-family="sans-serif" font-size="13" lengthAdjust="spacing" textLength="7" x="282.7174" y="515.6403">1</text></g><!--link Patient to Address--><g id="link_Patient_Address"><path codeLine="62" d="M558.79,156.23 C515.03,164.29 442.5,181.82 389,215.87 C367.31,229.67 351.599,246.8672 338.429,264.0572 " fill="none" id="Patient-to-Address" style="stroke:#222222;stroke-width:1.0;"/><polygon fill="#222222" points="334.78,268.82,343.4288,264.1084,337.8208,264.851,337.0783,259.2431,334.78,268.82" style="stroke:#222222;stroke-width:1.0;"/><text fill="#000000" font-family="sans-serif" font-size="13" lengthAdjust="spacing" textLength="7" x="331.2608" y="257.3913">1</text></g><!--link EmergencyContact to Phone--><g id="link_EmergencyContact_Phone"><path codeLine="63" d="M426.95,451.07 C408.91,473.1 386.8514,500.0379 368.8114,522.0679 " fill="none" id="EmergencyContact-to-Phone" style="stroke:#222222;stroke-width:1.0;"/><polygon fill="#222222" points="365.01,526.71,373.8068,522.281,368.1778,522.8415,367.6173,517.2125,365.01,526.71" style="stroke:#222222;stroke-width:1.0;"/><text fill="#000000" font-family="sans-serif" font-size="13" lengthAdjust="spacing" textLength="7" x="362.0592" y="515.6895">1</text></g><!--link AppointmentHistory to AppointmentHistoryStatus--><g id="link_AppointmentHistory_AppointmentHistoryStatus"><path codeLine="65" d="M1026.65,321.95 C1003.76,330.52 981.6,339.3 971,344.87 C942.07,360.07 916.5152,377.687 894.3952,394.227 " fill="none" id="AppointmentHistory-to-AppointmentHistoryStatus" style="stroke:#222222;stroke-width:1.0;"/><polygon fill="#222222" points="889.59,397.82,899.1932,395.6339,893.5943,394.8258,894.4024,389.227,889.59,397.82" style="stroke:#222222;stroke-width:1.0;"/><text fill="#000000" font-family="sans-serif" font-size="13" lengthAdjust="spacing" textLength="7" x="889.6807" y="386.3913">1</text></g><!--link AppointmentHistory to AppointmentHistoryType--><g id="link_AppointmentHistory_AppointmentHistoryType"><path codeLine="66" d="M1094.76,322.07 C1091.99,344.1 1088.7612,369.7272 1085.9812,391.7572 " fill="none" id="AppointmentHistory-to-AppointmentHistoryType" style="stroke:#222222;stroke-width:1.0;"/><polygon fill="#222222" points="1085.23,397.71,1090.3253,389.2816,1085.856,392.7493,1082.3883,388.28,1085.23,397.71" style="stroke:#222222;stroke-width:1.0;"/><text fill="#000000" font-family="sans-serif" font-size="13" lengthAdjust="spacing" textLength="7" x="1078.1676" y="386.6895">1</text></g><!--link AppointmentHistory to CreatedAt--><g id="link_AppointmentHistory_CreatedAt"><path codeLine="67" d="M1155.57,322.07 C1168.08,328.73 1180.88,336.43 1192,344.87 C1212.02,360.06 1227.3833,376.437 1241.0733,392.897 " fill="none" id="AppointmentHistory-to-CreatedAt" style="stroke:#222222;stroke-width:1.0;"/><polygon fill="#222222" points="1244.91,397.51,1242.2303,388.0327,1241.7128,393.6658,1236.0796,393.1483,1244.91,397.51" style="stroke:#222222;stroke-width:1.0;"/><text fill="#000000" font-family="sans-serif" font-size="13" lengthAdjust="spacing" textLength="7" x="1232.4548" y="386.4433">1</text></g><!--link MedicalRecord to MedicalCondition--><g id="link_MedicalRecord_MedicalCondition"><path codeLine="69" d="M1493.35,184.13 C1515.5,207.24 1540.5875,233.4291 1562.6975,256.4891 " fill="none" id="MedicalRecord-to-MedicalCondition" style="stroke:#222222;stroke-width:1.0;"/><polygon fill="#222222" points="1566.85,260.82,1563.5085,251.5553,1563.3896,257.2109,1557.734,257.092,1566.85,260.82" style="stroke:#222222;stroke-width:1.0;"/><text fill="#000000" font-family="sans-serif" font-size="13" lengthAdjust="spacing" textLength="20" x="1538.8152" y="249.7132">0..*</text></g><!--link MedicalRecord to Allergy--><g id="link_MedicalRecord_Allergy"><path codeLine="70" d="M1498.34,183.94 C1511.26,193.54 1526.43,202.77 1542,207.87 C1569.56,216.89 2037.34,204.45 2064,215.87 C2148.05,251.87 2211.9369,335.6745 2244.0769,384.6245 " fill="none" id="MedicalRecord-to-Allergy" style="stroke:#222222;stroke-width:1.0;"/><polygon fill="#222222" points="2247.37,389.64,2245.774,379.9213,2244.6257,385.4604,2239.0866,384.3122,2247.37,389.64" style="stroke:#222222;stroke-width:1.0;"/><text fill="#000000" font-family="sans-serif" font-size="13" lengthAdjust="spacing" textLength="20" x="2221.5312" y="378.4989">0..*</text></g><!--link MedicalRecord to MedicalRecordDescription--><g id="link_MedicalRecord_MedicalRecordDescription"><path codeLine="71" d="M1524.1,149.37 C1535.87,149.37 1541.64,149.37 1553.41,149.37 " fill="none" id="MedicalRecord-to-MedicalRecordDescription" style="stroke:#222222;stroke-width:1.0;"/><polygon fill="#222222" points="1559.41,149.37,1550.41,145.37,1554.41,149.37,1550.41,153.37,1559.41,149.37" style="stroke:#222222;stroke-width:1.0;"/></g><!--link Allergy to AllergyCode--><g id="link_Allergy_AllergyCode"><path codeLine="73" d="M2305.65,443.97 C2349.01,465.4 2415.2411,498.1315 2464.7911,522.6215 " fill="none" id="Allergy-to-AllergyCode" style="stroke:#222222;stroke-width:1.0;"/><polygon fill="#222222" points="2470.17,525.28,2463.874,517.7063,2465.6876,523.0646,2460.3293,524.8782,2470.17,525.28" style="stroke:#222222;stroke-width:1.0;"/><text fill="#000000" font-family="sans-serif" font-size="13" lengthAdjust="spacing" textLength="7" x="2455.3319" y="517.4418">1</text></g><!--link Allergy to AllergyDescription--><g id="link_Allergy_AllergyDescription"><path codeLine="74" d="M2243.85,459.07 C2228.69,480.23 2212.9257,502.2335 2198.9757,521.6935 " fill="none" id="Allergy-to-AllergyDescription" style="stroke:#222222;stroke-width:1.0;"/><polygon fill="#222222" points="2195.48,526.57,2203.9746,521.5858,2198.3931,522.5063,2197.4726,516.9248,2195.48,526.57" style="stroke:#222222;stroke-width:1.0;"/><text fill="#000000" font-family="sans-serif" font-size="13" lengthAdjust="spacing" textLength="22" x="2175.2098" y="515.5172">0..1</text></g><!--link Allergy to AllergyDesignation--><g id="link_Allergy_AllergyDesignation"><path codeLine="75" d="M2292.41,459.07 C2307.74,480.23 2323.6896,502.2513 2337.7896,521.7113 " fill="none" id="Allergy-to-AllergyDesignation" style="stroke:#222222;stroke-width:1.0;"/><polygon fill="#222222" points="2341.31,526.57,2339.2685,516.9351,2338.3763,522.5211,2332.7903,521.6289,2341.31,526.57" style="stroke:#222222;stroke-width:1.0;"/><text fill="#000000" font-family="sans-serif" font-size="13" lengthAdjust="spacing" textLength="7" x="2329.1786" y="515.5172">1</text></g><!--link MedicalCondition to MedicalConditionCode--><g id="link_MedicalCondition_MedicalConditionCode"><path codeLine="77" d="M1629.52,330.07 C1646.15,348.44 1662.6517,366.6734 1679.3117,385.0634 " fill="none" id="MedicalCondition-to-MedicalConditionCode" style="stroke:#222222;stroke-width:1.0;"/><polygon fill="#222222" points="1683.34,389.51,1680.2619,380.1545,1679.9831,385.8045,1674.3331,385.5256,1683.34,389.51" style="stroke:#222222;stroke-width:1.0;"/><text fill="#000000" font-family="sans-serif" font-size="13" lengthAdjust="spacing" textLength="7" x="1670.0417" y="378.6128">1</text></g><!--link MedicalCondition to MedicalConditionDescription--><g id="link_MedicalCondition_MedicalConditionDescription"><path codeLine="78" d="M1669.42,305.61 C1713.31,312.9 1770.3,325.2 1818,344.87 C1850.86,358.42 1879.8613,377.0034 1903.8813,394.3034 " fill="none" id="MedicalCondition-to-MedicalConditionDescription" style="stroke:#222222;stroke-width:1.0;"/><polygon fill="#222222" points="1908.75,397.81,1903.7847,389.3044,1904.6928,394.8879,1899.1093,395.7959,1908.75,397.81" style="stroke:#222222;stroke-width:1.0;"/><text fill="#000000" font-family="sans-serif" font-size="13" lengthAdjust="spacing" textLength="22" x="1876.5172" y="386.8127">0..1</text></g><!--link MedicalCondition to MedicalConditionDesignation--><g id="link_MedicalCondition_MedicalConditionDesignation"><path codeLine="79" d="M1568.48,330.07 C1549.32,351.23 1529.0072,373.6623 1511.3872,393.1223 " fill="none" id="MedicalCondition-to-MedicalConditionDesignation" style="stroke:#222222;stroke-width:1.0;"/><polygon fill="#222222" points="1507.36,397.57,1516.3659,393.5832,1510.716,393.8636,1510.4356,388.2137,1507.36,397.57" style="stroke:#222222;stroke-width:1.0;"/><text fill="#000000" font-family="sans-serif" font-size="13" lengthAdjust="spacing" textLength="7" x="1504.9526" y="386.5172">1</text></g><!--SRC=[fLN1Rfmm4BtxAwpDfQswqRRgeGU4n6wwRQKcYfAgTozCMJTW8zkqeb7-lGvu0MDWSSC9pRpd6PvvC_A1ie88akCu8r96IWbwA1LyZJcxfty1Rz2H9e0XBrI5oIajaRI9Mn8_f8ANBDdnZ0jy09f23nG9mVyqgOltzOCGAZI9f81NGK3IL41A58GXlYMA0bCh_8YmVlGhrRLD50T14z30812SA_to-5GZwqxmbJvbIuKwwloh7sylzlkFsm-Rrxz9LWBcXryGEvJFm18Go_6VSX0fiBZQSQP8h9Oph-zkPi51eDNMt_UJWXXoewBWbAbSvxzGgRYebjTrkVUAg5A-v8JlLG7B-Ji1-cAIo4Ei6v9x5DXJ8PKVvHlnPUpBBFDZt1uv0vzVYz3CurQIH83qkCPbr_uqRavy3GcDINO7CHT960uiQcLxHZtvr7P27tm5CXQqK9GpJtkSwLGRDA7Fnqursm8MzjlYTSiqPUHiotZsb1rFuBy7maXBYrISqotACZtRAaSk4p-dae4j5MUC-o99kle-Ig3Qqkjrs0qH4mhR6T73c1c0q6adwU3gtSfuQnYjeMtC1DibvMIQNTGBc_XmvpX4lLg6fIsF8TkU9vexr-sJDvUNRywZwWRrv7AYzVXpecPi8MUHsZGqilAc-pRoUt6UTzWSezrQQ4o-HfkX3HraJyRcznmYmibfg2Kmnck_eNE9dTCLkdJ_Y8aJUXvjFwwRXclx5x86rWIwQM1cA2slqk_j7m00]--></g></svg>