<?xml version="1.0" encoding="us-ascii" standalone="no"?><svg xmlns="http://www.w3.org/2000/svg" xmlns:xlink="http://www.w3.org/1999/xlink" contentStyleType="text/css" height="734px" preserveAspectRatio="none" style="width:2567px;height:734px;background:#FFFFFF;" version="1.1" viewBox="0 0 2567 734" width="2567px" zoomAndPan="magnify"><defs/><g><text fill="#000000" font-family="sans-serif" font-size="14" font-weight="bold" lengthAdjust="spacing" textLength="355" x="1108.25" y="30.1074">US 7.3.1 Process View (Level 3) | Room Distribution</text><rect fill="#FFFFFF" height="584.9473" style="stroke:#181818;stroke-width:1.0;" width="10" x="79.5" y="94.2422"/><rect fill="#FFFFFF" height="75.582" style="stroke:#181818;stroke-width:1.0;" width="10" x="436.5" y="125.5332"/><rect fill="#FFFFFF" height="432.7832" style="stroke:#181818;stroke-width:1.0;" width="10" x="652.5" y="232.4063"/><rect fill="#FFFFFF" height="325.9102" style="stroke:#181818;stroke-width:1.0;" width="10" x="1218.5" y="263.6973"/><rect fill="#FFFFFF" height="263.3281" style="stroke:#181818;stroke-width:1.0;" width="10" x="1730.5" y="294.9883"/><rect fill="#FFFFFF" height="31.291" style="stroke:#181818;stroke-width:1.0;" width="10" x="2011.5" y="326.2793"/><rect fill="#FFFFFF" height="31.291" style="stroke:#181818;stroke-width:1.0;" width="10" x="2153" y="388.8613"/><rect fill="#FFFFFF" height="75.582" style="stroke:#181818;stroke-width:1.0;" width="10" x="2304.5" y="451.4434"/><line style="stroke:#181818;stroke-width:0.5;stroke-dasharray:5.0,5.0;" x1="84" x2="84" y1="78.2422" y2="697.1895"/><line style="stroke:#181818;stroke-width:0.5;stroke-dasharray:5.0,5.0;" x1="441" x2="441" y1="78.2422" y2="697.1895"/><line style="stroke:#181818;stroke-width:0.5;stroke-dasharray:5.0,5.0;" x1="657" x2="657" y1="78.2422" y2="697.1895"/><line style="stroke:#181818;stroke-width:0.5;stroke-dasharray:5.0,5.0;" x1="1223.5" x2="1223.5" y1="78.2422" y2="697.1895"/><line style="stroke:#181818;stroke-width:0.5;stroke-dasharray:5.0,5.0;" x1="1735" x2="1735" y1="78.2422" y2="697.1895"/><line style="stroke:#181818;stroke-width:0.5;stroke-dasharray:5.0,5.0;" x1="2016" x2="2016" y1="78.2422" y2="697.1895"/><line style="stroke:#181818;stroke-width:0.5;stroke-dasharray:5.0,5.0;" x1="2158" x2="2158" y1="78.2422" y2="697.1895"/><line style="stroke:#181818;stroke-width:0.5;stroke-dasharray:5.0,5.0;" x1="2309" x2="2309" y1="78.2422" y2="697.1895"/><rect fill="#E2E2F0" height="32.6211" rx="2.5" ry="2.5" style="stroke:#181818;stroke-width:0.5;" width="159" x="5" y="44.6211"/><text fill="#000000" font-family="sans-serif" font-size="14" lengthAdjust="spacing" textLength="145" x="12" y="66.7285">distribute_operations/4</text><rect fill="#E2E2F0" height="32.6211" rx="2.5" ry="2.5" style="stroke:#181818;stroke-width:0.5;" width="159" x="5" y="696.1895"/><text fill="#000000" font-family="sans-serif" font-size="14" lengthAdjust="spacing" textLength="145" x="12" y="718.2969">distribute_operations/4</text><rect fill="#E2E2F0" height="32.6211" rx="2.5" ry="2.5" style="stroke:#181818;stroke-width:0.5;" width="187" x="348" y="44.6211"/><text fill="#000000" font-family="sans-serif" font-size="14" lengthAdjust="spacing" textLength="173" x="355" y="66.7285">initialize_room_schedules/3</text><rect fill="#E2E2F0" height="32.6211" rx="2.5" ry="2.5" style="stroke:#181818;stroke-width:0.5;" width="187" x="348" y="696.1895"/><text fill="#000000" font-family="sans-serif" font-size="14" lengthAdjust="spacing" textLength="173" x="355" y="718.2969">initialize_room_schedules/3</text><rect fill="#E2E2F0" height="32.6211" rx="2.5" ry="2.5" style="stroke:#181818;stroke-width:0.5;" width="225" x="545" y="44.6211"/><text fill="#000000" font-family="sans-serif" font-size="14" lengthAdjust="spacing" textLength="211" x="552" y="66.7285">distribute_operations_recursive/4</text><rect fill="#E2E2F0" height="32.6211" rx="2.5" ry="2.5" style="stroke:#181818;stroke-width:0.5;" width="225" x="545" y="696.1895"/><text fill="#000000" font-family="sans-serif" font-size="14" lengthAdjust="spacing" textLength="211" x="552" y="718.2969">distribute_operations_recursive/4</text><rect fill="#E2E2F0" height="32.6211" rx="2.5" ry="2.5" style="stroke:#181818;stroke-width:0.5;" width="210" x="1118.5" y="44.6211"/><text fill="#000000" font-family="sans-serif" font-size="14" lengthAdjust="spacing" textLength="196" x="1125.5" y="66.7285">schedule_operation_in_room/5</text><rect fill="#E2E2F0" height="32.6211" rx="2.5" ry="2.5" style="stroke:#181818;stroke-width:0.5;" width="210" x="1118.5" y="696.1895"/><text fill="#000000" font-family="sans-serif" font-size="14" lengthAdjust="spacing" textLength="196" x="1125.5" y="718.2969">schedule_operation_in_room/5</text><rect fill="#E2E2F0" height="32.6211" rx="2.5" ry="2.5" style="stroke:#181818;stroke-width:0.5;" width="175" x="1648" y="44.6211"/><text fill="#000000" font-family="sans-serif" font-size="14" lengthAdjust="spacing" textLength="161" x="1655" y="66.7285">try_schedule_operation/5</text><rect fill="#E2E2F0" height="32.6211" rx="2.5" ry="2.5" style="stroke:#181818;stroke-width:0.5;" width="175" x="1648" y="696.1895"/><text fill="#000000" font-family="sans-serif" font-size="14" lengthAdjust="spacing" textLength="161" x="1655" y="718.2969">try_schedule_operation/5</text><rect fill="#E2E2F0" height="32.6211" rx="2.5" ry="2.5" style="stroke:#181818;stroke-width:0.5;" width="115" x="1959" y="44.6211"/><text fill="#000000" font-family="sans-serif" font-size="14" lengthAdjust="spacing" textLength="101" x="1966" y="66.7285">free_agenda0/2</text><rect fill="#E2E2F0" height="32.6211" rx="2.5" ry="2.5" style="stroke:#181818;stroke-width:0.5;" width="115" x="1959" y="696.1895"/><text fill="#000000" font-family="sans-serif" font-size="14" lengthAdjust="spacing" textLength="101" x="1966" y="718.2969">free_agenda0/2</text><rect fill="#E2E2F0" height="32.6211" rx="2.5" ry="2.5" style="stroke:#181818;stroke-width:0.5;" width="148" x="2084" y="44.6211"/><text fill="#000000" font-family="sans-serif" font-size="14" lengthAdjust="spacing" textLength="134" x="2091" y="66.7285">filter_full_intervals1/3</text><rect fill="#E2E2F0" height="32.6211" rx="2.5" ry="2.5" style="stroke:#181818;stroke-width:0.5;" width="148" x="2084" y="696.1895"/><text fill="#000000" font-family="sans-serif" font-size="14" lengthAdjust="spacing" textLength="134" x="2091" y="718.2969">filter_full_intervals1/3</text><rect fill="#E2E2F0" height="32.6211" rx="2.5" ry="2.5" style="stroke:#181818;stroke-width:0.5;" width="135" x="2242" y="44.6211"/><text fill="#000000" font-family="sans-serif" font-size="14" lengthAdjust="spacing" textLength="121" x="2249" y="66.7285">update_schedule/4</text><rect fill="#E2E2F0" height="32.6211" rx="2.5" ry="2.5" style="stroke:#181818;stroke-width:0.5;" width="135" x="2242" y="696.1895"/><text fill="#000000" font-family="sans-serif" font-size="14" lengthAdjust="spacing" textLength="121" x="2249" y="718.2969">update_schedule/4</text><rect fill="#FFFFFF" height="584.9473" style="stroke:#181818;stroke-width:1.0;" width="10" x="79.5" y="94.2422"/><rect fill="#FFFFFF" height="75.582" style="stroke:#181818;stroke-width:1.0;" width="10" x="436.5" y="125.5332"/><rect fill="#FFFFFF" height="432.7832" style="stroke:#181818;stroke-width:1.0;" width="10" x="652.5" y="232.4063"/><rect fill="#FFFFFF" height="325.9102" style="stroke:#181818;stroke-width:1.0;" width="10" x="1218.5" y="263.6973"/><rect fill="#FFFFFF" height="263.3281" style="stroke:#181818;stroke-width:1.0;" width="10" x="1730.5" y="294.9883"/><rect fill="#FFFFFF" height="31.291" style="stroke:#181818;stroke-width:1.0;" width="10" x="2011.5" y="326.2793"/><rect fill="#FFFFFF" height="31.291" style="stroke:#181818;stroke-width:1.0;" width="10" x="2153" y="388.8613"/><rect fill="#FFFFFF" height="75.582" style="stroke:#181818;stroke-width:1.0;" width="10" x="2304.5" y="451.4434"/><ellipse cx="7.5" cy="93.4922" fill="none" rx="4" ry="4" style="stroke:#181818;stroke-width:1.5;"/><polygon fill="#181818" points="67.5,90.2422,77.5,94.2422,67.5,98.2422,71.5,94.2422" style="stroke:#181818;stroke-width:1.0;"/><line style="stroke:#181818;stroke-width:1.0;" x1="12" x2="73.5" y1="94.2422" y2="94.2422"/><polygon fill="#181818" points="424.5,121.5332,434.5,125.5332,424.5,129.5332,428.5,125.5332" style="stroke:#181818;stroke-width:1.0;"/><line style="stroke:#181818;stroke-width:1.0;" x1="89.5" x2="430.5" y1="125.5332" y2="125.5332"/><text fill="#000000" font-family="sans-serif" font-size="13" lengthAdjust="spacing" textLength="328" x="96.5" y="120.2705">initialize_room_schedules(Rooms, Day, InitialSchedules)</text><line style="stroke:#181818;stroke-width:1.0;" x1="446.5" x2="488.5" y1="156.8242" y2="156.8242"/><line style="stroke:#181818;stroke-width:1.0;" x1="488.5" x2="488.5" y1="156.8242" y2="169.8242"/><line style="stroke:#181818;stroke-width:1.0;" x1="447.5" x2="488.5" y1="169.8242" y2="169.8242"/><polygon fill="#181818" points="457.5,165.8242,447.5,169.8242,457.5,173.8242,453.5,169.8242" style="stroke:#181818;stroke-width:1.0;"/><text fill="#000000" font-family="sans-serif" font-size="13" lengthAdjust="spacing" textLength="162" x="453.5" y="151.5615">Fetch agenda for each room</text><polygon fill="#181818" points="100.5,197.1152,90.5,201.1152,100.5,205.1152,96.5,201.1152" style="stroke:#181818;stroke-width:1.0;"/><line style="stroke:#181818;stroke-width:1.0;stroke-dasharray:2.0,2.0;" x1="94.5" x2="440.5" y1="201.1152" y2="201.1152"/><text fill="#000000" font-family="sans-serif" font-size="13" lengthAdjust="spacing" textLength="133" x="106.5" y="195.8525">Return InitialSchedules</text><polygon fill="#181818" points="640.5,228.4063,650.5,232.4063,640.5,236.4063,644.5,232.4063" style="stroke:#181818;stroke-width:1.0;"/><line style="stroke:#181818;stroke-width:1.0;" x1="89.5" x2="646.5" y1="232.4063" y2="232.4063"/><text fill="#000000" font-family="sans-serif" font-size="13" lengthAdjust="spacing" textLength="531" x="96.5" y="227.1436">distribute_operations_recursive(Operations, Rooms, Day, InitialSchedules, RoomSchedules)</text><polygon fill="#181818" points="1206.5,259.6973,1216.5,263.6973,1206.5,267.6973,1210.5,263.6973" style="stroke:#181818;stroke-width:1.0;"/><line style="stroke:#181818;stroke-width:1.0;" x1="662.5" x2="1212.5" y1="263.6973" y2="263.6973"/><text fill="#000000" font-family="sans-serif" font-size="13" lengthAdjust="spacing" textLength="537" x="669.5" y="258.4346">schedule_operation_in_room(Operation, Rooms, Day, CurrentSchedules, UpdatedSchedules)</text><polygon fill="#181818" points="1718.5,290.9883,1728.5,294.9883,1718.5,298.9883,1722.5,294.9883" style="stroke:#181818;stroke-width:1.0;"/><line style="stroke:#181818;stroke-width:1.0;" x1="1228.5" x2="1724.5" y1="294.9883" y2="294.9883"/><text fill="#000000" font-family="sans-serif" font-size="13" lengthAdjust="spacing" textLength="483" x="1235.5" y="289.7256">try_schedule_operation(Operation, Room, Day, CurrentSchedules, TempSchedules)</text><polygon fill="#181818" points="1999.5,322.2793,2009.5,326.2793,1999.5,330.2793,2003.5,326.2793" style="stroke:#181818;stroke-width:1.0;"/><line style="stroke:#181818;stroke-width:1.0;" x1="1740.5" x2="2005.5" y1="326.2793" y2="326.2793"/><text fill="#000000" font-family="sans-serif" font-size="13" lengthAdjust="spacing" textLength="252" x="1747.5" y="321.0166">free_agenda0(CurrentAgenda, FreeIntervals)</text><polygon fill="#181818" points="1751.5,353.5703,1741.5,357.5703,1751.5,361.5703,1747.5,357.5703" style="stroke:#181818;stroke-width:1.0;"/><line style="stroke:#181818;stroke-width:1.0;stroke-dasharray:2.0,2.0;" x1="1745.5" x2="2015.5" y1="357.5703" y2="357.5703"/><text fill="#000000" font-family="sans-serif" font-size="13" lengthAdjust="spacing" textLength="115" x="1757.5" y="352.3076">Return FreeIntervals</text><polygon fill="#181818" points="2141,384.8613,2151,388.8613,2141,392.8613,2145,388.8613" style="stroke:#181818;stroke-width:1.0;"/><line style="stroke:#181818;stroke-width:1.0;" x1="1740.5" x2="2147" y1="388.8613" y2="388.8613"/><text fill="#000000" font-family="sans-serif" font-size="13" lengthAdjust="spacing" textLength="355" x="1747.5" y="383.5986">filter_full_intervals1(FreeIntervals, TotalTime, SuitableIntervals)</text><polygon fill="#181818" points="1751.5,416.1523,1741.5,420.1523,1751.5,424.1523,1747.5,420.1523" style="stroke:#181818;stroke-width:1.0;"/><line style="stroke:#181818;stroke-width:1.0;stroke-dasharray:2.0,2.0;" x1="1745.5" x2="2157" y1="420.1523" y2="420.1523"/><text fill="#000000" font-family="sans-serif" font-size="13" lengthAdjust="spacing" textLength="136" x="1757.5" y="414.8896">Return SuitableIntervals</text><polygon fill="#181818" points="2292.5,447.4434,2302.5,451.4434,2292.5,455.4434,2296.5,451.4434" style="stroke:#181818;stroke-width:1.0;"/><line style="stroke:#181818;stroke-width:1.0;" x1="1740.5" x2="2298.5" y1="451.4434" y2="451.4434"/><text fill="#000000" font-family="sans-serif" font-size="13" lengthAdjust="spacing" textLength="445" x="1747.5" y="446.1807">update_schedule(Room, NewAgenda, CurrentSchedules, UpdatedSchedules)</text><line style="stroke:#181818;stroke-width:1.0;" x1="2314.5" x2="2356.5" y1="482.7344" y2="482.7344"/><line style="stroke:#181818;stroke-width:1.0;" x1="2356.5" x2="2356.5" y1="482.7344" y2="495.7344"/><line style="stroke:#181818;stroke-width:1.0;" x1="2315.5" x2="2356.5" y1="495.7344" y2="495.7344"/><polygon fill="#181818" points="2325.5,491.7344,2315.5,495.7344,2325.5,499.7344,2321.5,495.7344" style="stroke:#181818;stroke-width:1.0;"/><text fill="#000000" font-family="sans-serif" font-size="13" lengthAdjust="spacing" textLength="239" x="2321.5" y="477.4717">Update room's schedule with NewAgenda</text><polygon fill="#181818" points="1751.5,523.0254,1741.5,527.0254,1751.5,531.0254,1747.5,527.0254" style="stroke:#181818;stroke-width:1.0;"/><line style="stroke:#181818;stroke-width:1.0;stroke-dasharray:2.0,2.0;" x1="1745.5" x2="2308.5" y1="527.0254" y2="527.0254"/><text fill="#000000" font-family="sans-serif" font-size="13" lengthAdjust="spacing" textLength="151" x="1757.5" y="521.7627">Return UpdatedSchedules</text><polygon fill="#181818" points="1239.5,554.3164,1229.5,558.3164,1239.5,562.3164,1235.5,558.3164" style="stroke:#181818;stroke-width:1.0;"/><line style="stroke:#181818;stroke-width:1.0;stroke-dasharray:2.0,2.0;" x1="1233.5" x2="1734.5" y1="558.3164" y2="558.3164"/><text fill="#000000" font-family="sans-serif" font-size="13" lengthAdjust="spacing" textLength="135" x="1245.5" y="553.0537">Return TempSchedules</text><polygon fill="#181818" points="673.5,585.6074,663.5,589.6074,673.5,593.6074,669.5,589.6074" style="stroke:#181818;stroke-width:1.0;"/><line style="stroke:#181818;stroke-width:1.0;stroke-dasharray:2.0,2.0;" x1="667.5" x2="1222.5" y1="589.6074" y2="589.6074"/><text fill="#000000" font-family="sans-serif" font-size="13" lengthAdjust="spacing" textLength="151" x="679.5" y="584.3447">Return UpdatedSchedules</text><line style="stroke:#181818;stroke-width:1.0;" x1="662.5" x2="704.5" y1="620.8984" y2="620.8984"/><line style="stroke:#181818;stroke-width:1.0;" x1="704.5" x2="704.5" y1="620.8984" y2="633.8984"/><line style="stroke:#181818;stroke-width:1.0;" x1="663.5" x2="704.5" y1="633.8984" y2="633.8984"/><polygon fill="#181818" points="673.5,629.8984,663.5,633.8984,673.5,637.8984,669.5,633.8984" style="stroke:#181818;stroke-width:1.0;"/><text fill="#000000" font-family="sans-serif" font-size="13" lengthAdjust="spacing" textLength="240" x="669.5" y="615.6357">Recursively process remaining operations</text><polygon fill="#181818" points="100.5,661.1895,90.5,665.1895,100.5,669.1895,96.5,665.1895" style="stroke:#181818;stroke-width:1.0;"/><line style="stroke:#181818;stroke-width:1.0;stroke-dasharray:2.0,2.0;" x1="94.5" x2="656.5" y1="665.1895" y2="665.1895"/><text fill="#000000" font-family="sans-serif" font-size="13" lengthAdjust="spacing" textLength="131" x="106.5" y="659.9268">Return FinalSchedules</text><ellipse cx="7.5" cy="678.4395" fill="none" rx="4" ry="4" style="stroke:#181818;stroke-width:1.5;"/><polygon fill="#181818" points="24.5,675.1895,14.5,679.1895,24.5,683.1895,20.5,679.1895" style="stroke:#181818;stroke-width:1.0;"/><line style="stroke:#181818;stroke-width:1.0;stroke-dasharray:2.0,2.0;" x1="22.5" x2="83.5" y1="679.1895" y2="679.1895"/><!--SRC=[bPRVQzim4CVV_LSSUQaBIRCkAmCp2cF541ZRQDAzzC6ezgKHABQHv8IC_V6JVqgofQPxYtIwhpuvtVSIIIL3c3rjuFFDwkOMVl4YHI7WDyKJXD_nY0nMr_0N7elY00zKI4vVAacBV1O49U6IfhGakOHPriSmAKhaf3uZbfzcG8JEmvz3oCwcEPMKCFe74wvkIaIwnwnYA9QhHc4zn6kGJHzz1qB2CQsue4ViO1xxjVbjRA7-TYsJqBm1Mzur6Zt0Egznx6J9pybKe4lSydEVQsVjE692NZ7Fo8Vbn-PihBQ-DZkZevH9vCckOanXgOz7miHjLwYu2SOgPYTLPKPKNNgmhXPFpUv053mNYtltQv5KqgCwwuwwDa59UPuj0kzxX_L1COS7SfxtwKFUjSRmDOHd_qsO66MwXxRui2iu857hcYlmwtaA5Qd-aXNF9-n1XXVXlNLqzcm45ne-r29pUAkkRTHLPhTP0kTs3MeR8mA_apISpVQjuXnpQR2rJPgvy4O-3Enr3MGOBWAtDSSaNf0j7aeNXMdgm5ZKzsiJHs1wFEpaszYyERVkpMne6qF0LFwoM5ZINTDPAcR76J8Jmc5YA4BdQ0ajMLM7GXAsfGUSmwQYahmmDxeUHVfZOnphKJhqYPA5hwN6-FO8Ys0qwCBsHN_WgQ_qVpNOQ43QIzVrxReP7bTYQ7yuKRdN4C54o5EKCPbPa_7ijkhYi68dQJMngMTryTX8_Xdq3jAnIxtJmtj5jytEK7P_K3WUYFeHoLz1JpwlygLP7TFSCwazy- -vg0te_2aqabtnVm00]--></g></svg>