<?xml version="1.0" encoding="us-ascii" standalone="no"?><svg xmlns="http://www.w3.org/2000/svg" xmlns:xlink="http://www.w3.org/1999/xlink" contentStyleType="text/css" height="485px" preserveAspectRatio="none" style="width:1404px;height:485px;background:#FFFFFF;" version="1.1" viewBox="0 0 1404 485" width="1404px" zoomAndPan="magnify"><defs/><g><text fill="#000000" font-family="sans-serif" font-size="14" font-weight="bold" lengthAdjust="spacing" textLength="328" x="536.75" y="30.1074">US 7.3.1 - Process View MDBackoffice [Level 3]</text><rect fill="#FFFFFF" height="281.2793" style="stroke:#181818;stroke-width:1.0;" width="10" x="336" y="130.1543"/><rect fill="#FFFFFF" height="156.4551" style="stroke:#181818;stroke-width:1.0;" width="10" x="688" y="223.6875"/><rect fill="#FFFFFF" height="93.873" style="stroke:#181818;stroke-width:1.0;" width="10" x="1133" y="254.9785"/><line style="stroke:#181818;stroke-width:0.5;stroke-dasharray:5.0,5.0;" x1="340.5" x2="340.5" y1="96.8633" y2="429.4336"/><line style="stroke:#181818;stroke-width:0.5;stroke-dasharray:5.0,5.0;" x1="486" x2="486" y1="179.2754" y2="429.4336"/><line style="stroke:#181818;stroke-width:0.5;stroke-dasharray:5.0,5.0;" x1="693" x2="693" y1="96.8633" y2="429.4336"/><line style="stroke:#181818;stroke-width:0.5;stroke-dasharray:5.0,5.0;" x1="1137.5" x2="1137.5" y1="96.8633" y2="429.4336"/><line style="stroke:#181818;stroke-width:0.5;stroke-dasharray:5.0,5.0;" x1="1316.5" x2="1316.5" y1="96.8633" y2="429.4336"/><rect fill="#E2E2F0" height="51.2422" rx="2.5" ry="2.5" style="stroke:#181818;stroke-width:0.5;" width="63" x="309.5" y="44.6211"/><text fill="#000000" font-family="sans-serif" font-size="14" font-style="italic" lengthAdjust="spacing" textLength="49" x="316.5" y="66.7285">&#171;route&#187;</text><text fill="#000000" font-family="sans-serif" font-size="14" lengthAdjust="spacing" textLength="49" x="316.5" y="85.3496">Routing</text><rect fill="#E2E2F0" height="51.2422" rx="2.5" ry="2.5" style="stroke:#181818;stroke-width:0.5;" width="63" x="309.5" y="428.4336"/><text fill="#000000" font-family="sans-serif" font-size="14" font-style="italic" lengthAdjust="spacing" textLength="49" x="316.5" y="450.541">&#171;route&#187;</text><text fill="#000000" font-family="sans-serif" font-size="14" lengthAdjust="spacing" textLength="49" x="316.5" y="469.1621">Routing</text><rect fill="#E2E2F0" height="51.2422" rx="2.5" ry="2.5" style="stroke:#181818;stroke-width:0.5;" width="202" x="385" y="428.4336"/><text fill="#000000" font-family="sans-serif" font-size="14" font-style="italic" lengthAdjust="spacing" textLength="36" x="468" y="450.541">&#171;dto&#187;</text><text fill="#000000" font-family="sans-serif" font-size="14" lengthAdjust="spacing" textLength="188" x="392" y="469.1621">OperationDistributionInitialDto</text><rect fill="#E2E2F0" height="51.2422" rx="2.5" ry="2.5" style="stroke:#181818;stroke-width:0.5;" width="192" x="597" y="44.6211"/><text fill="#000000" font-family="sans-serif" font-size="14" font-style="italic" lengthAdjust="spacing" textLength="75" x="655.5" y="66.7285">&#171;controller&#187;</text><text fill="#000000" font-family="sans-serif" font-size="14" lengthAdjust="spacing" textLength="178" x="604" y="85.3496">OperationRequestController</text><rect fill="#E2E2F0" height="51.2422" rx="2.5" ry="2.5" style="stroke:#181818;stroke-width:0.5;" width="192" x="597" y="428.4336"/><text fill="#000000" font-family="sans-serif" font-size="14" font-style="italic" lengthAdjust="spacing" textLength="75" x="655.5" y="450.541">&#171;controller&#187;</text><text fill="#000000" font-family="sans-serif" font-size="14" lengthAdjust="spacing" textLength="178" x="604" y="469.1621">OperationRequestController</text><rect fill="#E2E2F0" height="51.2422" rx="2.5" ry="2.5" style="stroke:#181818;stroke-width:0.5;" width="177" x="1049.5" y="44.6211"/><text fill="#000000" font-family="sans-serif" font-size="14" font-style="italic" lengthAdjust="spacing" textLength="60" x="1108" y="66.7285">&#171;service&#187;</text><text fill="#000000" font-family="sans-serif" font-size="14" lengthAdjust="spacing" textLength="163" x="1056.5" y="85.3496">OperationRequestService</text><rect fill="#E2E2F0" height="51.2422" rx="2.5" ry="2.5" style="stroke:#181818;stroke-width:0.5;" width="177" x="1049.5" y="428.4336"/><text fill="#000000" font-family="sans-serif" font-size="14" font-style="italic" lengthAdjust="spacing" textLength="60" x="1108" y="450.541">&#171;service&#187;</text><text fill="#000000" font-family="sans-serif" font-size="14" lengthAdjust="spacing" textLength="163" x="1056.5" y="469.1621">OperationRequestService</text><rect fill="#E2E2F0" height="51.2422" rx="2.5" ry="2.5" style="stroke:#181818;stroke-width:0.5;" width="161" x="1236.5" y="44.6211"/><text fill="#000000" font-family="sans-serif" font-size="14" font-style="italic" lengthAdjust="spacing" textLength="79" x="1277.5" y="66.7285">&#171;repository&#187;</text><text fill="#000000" font-family="sans-serif" font-size="14" lengthAdjust="spacing" textLength="147" x="1243.5" y="85.3496">AppointmentRepository</text><rect fill="#E2E2F0" height="51.2422" rx="2.5" ry="2.5" style="stroke:#181818;stroke-width:0.5;" width="161" x="1236.5" y="428.4336"/><text fill="#000000" font-family="sans-serif" font-size="14" font-style="italic" lengthAdjust="spacing" textLength="79" x="1277.5" y="450.541">&#171;repository&#187;</text><text fill="#000000" font-family="sans-serif" font-size="14" lengthAdjust="spacing" textLength="147" x="1243.5" y="469.1621">AppointmentRepository</text><rect fill="#FFFFFF" height="281.2793" style="stroke:#181818;stroke-width:1.0;" width="10" x="336" y="130.1543"/><rect fill="#FFFFFF" height="156.4551" style="stroke:#181818;stroke-width:1.0;" width="10" x="688" y="223.6875"/><rect fill="#FFFFFF" height="93.873" style="stroke:#181818;stroke-width:1.0;" width="10" x="1133" y="254.9785"/><ellipse cx="7.5" cy="129.4043" fill="none" rx="4" ry="4" style="stroke:#181818;stroke-width:1.5;"/><polygon fill="#181818" points="324,126.1543,334,130.1543,324,134.1543,328,130.1543" style="stroke:#181818;stroke-width:1.0;"/><line style="stroke:#181818;stroke-width:1.0;" x1="12" x2="330" y1="130.1543" y2="130.1543"/><text fill="#000000" font-family="sans-serif" font-size="13" font-weight="bold" lengthAdjust="spacing" textLength="7" x="15" y="124.8916">1</text><text fill="#000000" font-family="sans-serif" font-size="13" lengthAdjust="spacing" textLength="298" x="26" y="124.8916">PUT api/OperationRequest/put-DistributeOperations</text><polygon fill="#181818" points="373,157.4453,383,161.4453,373,165.4453,377,161.4453" style="stroke:#181818;stroke-width:1.0;"/><line style="stroke:#181818;stroke-width:1.0;" x1="346" x2="379" y1="161.4453" y2="161.4453"/><text fill="#000000" font-family="sans-serif" font-size="13" font-weight="bold" lengthAdjust="spacing" textLength="7" x="353" y="156.1826">2</text><text fill="#000000" font-family="sans-serif" font-size="13" lengthAdjust="spacing" textLength="4" x="364" y="156.1826">&#160;</text><rect fill="#E2E2F0" height="51.2422" rx="2.5" ry="2.5" style="stroke:#181818;stroke-width:0.5;" width="202" x="385" y="138.1543"/><text fill="#000000" font-family="sans-serif" font-size="14" font-style="italic" lengthAdjust="spacing" textLength="36" x="468" y="160.2617">&#171;dto&#187;</text><text fill="#000000" font-family="sans-serif" font-size="14" lengthAdjust="spacing" textLength="188" x="392" y="178.8828">OperationDistributionInitialDto</text><polygon fill="#181818" points="676,219.6875,686,223.6875,676,227.6875,680,223.6875" style="stroke:#181818;stroke-width:1.0;"/><line style="stroke:#181818;stroke-width:1.0;" x1="346" x2="682" y1="223.6875" y2="223.6875"/><text fill="#000000" font-family="sans-serif" font-size="13" font-weight="bold" lengthAdjust="spacing" textLength="7" x="353" y="218.4248">3</text><text fill="#000000" font-family="sans-serif" font-size="13" lengthAdjust="spacing" textLength="247" x="364" y="218.4248">distributeOperationRequestsByRooms(dto)</text><polygon fill="#181818" points="1121,250.9785,1131,254.9785,1121,258.9785,1125,254.9785" style="stroke:#181818;stroke-width:1.0;"/><line style="stroke:#181818;stroke-width:1.0;" x1="698" x2="1127" y1="254.9785" y2="254.9785"/><text fill="#000000" font-family="sans-serif" font-size="13" font-weight="bold" lengthAdjust="spacing" textLength="7" x="705" y="249.7158">4</text><text fill="#000000" font-family="sans-serif" font-size="13" lengthAdjust="spacing" textLength="405" x="716" y="249.7158">distributeOperationRequestsByRooms(dto.roomList, dto.operationList)</text><polygon fill="#181818" points="1390.5,282.2695,1400.5,286.2695,1390.5,290.2695,1394.5,286.2695" style="stroke:#181818;stroke-width:1.0;"/><line style="stroke:#181818;stroke-width:1.0;" x1="1143" x2="1396.5" y1="286.2695" y2="286.2695"/><text fill="#000000" font-family="sans-serif" font-size="13" font-weight="bold" lengthAdjust="spacing" textLength="7" x="1150" y="281.0068">5</text><text fill="#000000" font-family="sans-serif" font-size="13" lengthAdjust="spacing" textLength="221" x="1161" y="281.0068">distributeOperationRequestsByRooms</text><polygon fill="#181818" points="1154,313.5605,1144,317.5605,1154,321.5605,1150,317.5605" style="stroke:#181818;stroke-width:1.0;"/><ellipse cx="1394" cy="316.8105" fill="none" rx="4" ry="4" style="stroke:#181818;stroke-width:1.5;"/><line style="stroke:#181818;stroke-width:1.0;" x1="1148" x2="1389.5" y1="317.5605" y2="317.5605"/><text fill="#000000" font-family="sans-serif" font-size="13" font-weight="bold" lengthAdjust="spacing" textLength="7" x="1160" y="312.2979">6</text><text fill="#000000" font-family="sans-serif" font-size="13" lengthAdjust="spacing" textLength="118" x="1171" y="312.2979">operationDistribution</text><polygon fill="#181818" points="709,344.8516,699,348.8516,709,352.8516,705,348.8516" style="stroke:#181818;stroke-width:1.0;"/><line style="stroke:#181818;stroke-width:1.0;stroke-dasharray:2.0,2.0;" x1="703" x2="1137" y1="348.8516" y2="348.8516"/><text fill="#000000" font-family="sans-serif" font-size="13" font-weight="bold" lengthAdjust="spacing" textLength="7" x="715" y="343.5889">7</text><text fill="#000000" font-family="sans-serif" font-size="13" lengthAdjust="spacing" textLength="118" x="726" y="343.5889">operationDistribution</text><polygon fill="#181818" points="357,376.1426,347,380.1426,357,384.1426,353,380.1426" style="stroke:#181818;stroke-width:1.0;"/><line style="stroke:#181818;stroke-width:1.0;stroke-dasharray:2.0,2.0;" x1="351" x2="692" y1="380.1426" y2="380.1426"/><text fill="#000000" font-family="sans-serif" font-size="13" font-weight="bold" lengthAdjust="spacing" textLength="7" x="363" y="374.8799">8</text><text fill="#000000" font-family="sans-serif" font-size="13" lengthAdjust="spacing" textLength="118" x="374" y="374.8799">operationDistribution</text><ellipse cx="7.5" cy="410.6836" fill="none" rx="4" ry="4" style="stroke:#181818;stroke-width:1.5;"/><polygon fill="#181818" points="24.5,407.4336,14.5,411.4336,24.5,415.4336,20.5,411.4336" style="stroke:#181818;stroke-width:1.0;"/><line style="stroke:#181818;stroke-width:1.0;stroke-dasharray:2.0,2.0;" x1="22.5" x2="340" y1="411.4336" y2="411.4336"/><text fill="#000000" font-family="sans-serif" font-size="13" font-weight="bold" lengthAdjust="spacing" textLength="7" x="25" y="406.1709">9</text><text fill="#000000" font-family="sans-serif" font-size="13" lengthAdjust="spacing" textLength="140" x="36" y="406.1709">ok(operationDistribution)</text><!--SRC=[ZPBDRi8m48JlVWeh9q0DgE9G2KL8vUTGYGeK0XV4mOIbiWZPrDvGyVQrun02fOARlPxvrZisIKg0UuivVsjtsw_SvpE5CMZDbn9- -ETe8E8zxdOo1hwQm14ItbrxZ8cSCCqF6r0i4ufaB3EH4lT2p4ccNnuNceVJHJJcGQ1C3VhzQ-4q0oL8OZgIcfJSv7RzaKgI8XaH5e3pDfeQofRmNqO8tpbe6c9A2fC4L64VHk746EEg-iW_1tKqWnRc-N9elDfLRetlMOOofGEa54A6MXAgaxlosBPKLT4usGhzlWkZnsUBY8jCTcvRTxAS_2eAg8ur4p79eo1m1CPSgePOIwVLgjNjs3s-_SigM-d1AKGyw8P9j7d1MnjZHMO6OkT_5j9MPZKnqXTkTtYMsbAjWI4oPcCr-6VGJXpuk3PolFTTIbmvyx-gBLpVmSruUPE7BXVD2WFVBp-rCUqRTttDkj4zsIy0]--></g></svg>