<?xml version="1.0" encoding="us-ascii" standalone="no"?><svg xmlns="http://www.w3.org/2000/svg" xmlns:xlink="http://www.w3.org/1999/xlink" contentStyleType="text/css" height="343px" preserveAspectRatio="none" style="width:1077px;height:342px;background:#FFFFFF;" version="1.1" viewBox="0 0 1077 342" width="1078px" zoomAndPan="magnify"><defs/><g><!--cluster <<aggregate>> Patient--><g id="cluster_&lt;&lt;aggregate&gt;&gt; Patient"><path d="M269.85,4.2096 L369.25,4.2096 A2.625,2.625 0 0 1 371,5.9596 L375.9,21.4443 L1071.35,21.4443 A1.75,1.75 0 0 1 1073.1,23.1943 L1073.1,336.3596 A1.75,1.75 0 0 1 1071.35,338.1096 L269.85,338.1096 A1.75,1.75 0 0 1 268.1,336.3596 L268.1,5.9596 A1.75,1.75 0 0 1 269.85,4.2096 " fill="none" style="stroke:#000000;stroke-width:1.0499999999999998;"/><line style="stroke:#000000;stroke-width:1.0499999999999998;" x1="268.1" x2="375.9" y1="21.4443" y2="21.4443"/><text fill="#000000" font-family="sans-serif" font-size="9.8" font-weight="bold" lengthAdjust="spacing" textLength="98.7" x="270.9" y="16.1848">&#171;aggregate&#187; Patient</text></g><!--cluster <<aggregate>> User--><g id="cluster_&lt;&lt;aggregate&gt;&gt; User"><path d="M5.95,4.2096 L94.15,4.2096 A2.625,2.625 0 0 1 95.9,5.9596 L100.8,21.4443 L202.65,21.4443 A1.75,1.75 0 0 1 204.4,23.1943 L204.4,172.5596 A1.75,1.75 0 0 1 202.65,174.3096 L5.95,174.3096 A1.75,1.75 0 0 1 4.2,172.5596 L4.2,5.9596 A1.75,1.75 0 0 1 5.95,4.2096 " fill="none" style="stroke:#000000;stroke-width:1.0499999999999998;"/><line style="stroke:#000000;stroke-width:1.0499999999999998;" x1="4.2" x2="100.8" y1="21.4443" y2="21.4443"/><text fill="#000000" font-family="sans-serif" font-size="9.8" font-weight="bold" lengthAdjust="spacing" textLength="87.5" x="7" y="16.1848">&#171;aggregate&#187; User</text></g><!--class Patient--><g id="elem_Patient"><rect codeLine="11" fill="#F5F5DC" height="47.9801" id="Patient" rx="1.75" ry="1.75" style="stroke:#181818;stroke-width:0.3499999999999999;" width="53.2" x="519.4" y="30.1096"/><ellipse cx="529.9" cy="51.2996" fill="#ADD1B2" rx="7.7" ry="7.7" style="stroke:#181818;stroke-width:0.6999999999999998;"/><path d="M529.1016,51.8574 L529.1016,53.6074 L532.1312,53.6074 L532.1312,52.9621 Q532.1312,52.5355 532.2953,52.3496 Q532.4703,52.1637 532.7328,52.1637 Q532.9953,52.1637 533.1594,52.3496 Q533.3234,52.5355 533.3234,52.9621 L533.3234,54.7996 L527.7234,54.7996 Q527.2859,54.7996 527.1,54.6355 Q526.925,54.4715 526.925,54.198 Q526.925,53.9355 527.1109,53.7715 Q527.2969,53.6074 527.7234,53.6074 L527.9094,53.6074 L527.9094,48.948 L527.7234,48.948 Q527.2859,48.948 527.1,48.784 Q526.925,48.6199 526.925,48.3465 Q526.925,48.084 527.1,47.9199 Q527.2859,47.7559 527.7234,47.7559 L533.0609,47.7559 L533.0609,49.5715 Q533.0609,49.998 532.8969,50.184 Q532.7437,50.359 532.4703,50.359 Q532.2078,50.359 532.0437,50.184 Q531.8797,49.998 531.8797,49.5715 L531.8797,48.948 L529.1016,48.948 L529.1016,50.6652 L530.1406,50.6652 Q530.1406,50.2059 530.2281,50.0746 Q530.4141,49.7902 530.7422,49.7902 Q531.0047,49.7902 531.1687,49.9762 Q531.3328,50.1512 531.3328,50.5777 L531.3328,51.9559 Q531.3328,52.3387 531.2453,52.4699 Q531.0594,52.7434 530.7422,52.7434 Q530.4141,52.7434 530.2281,52.459 Q530.1406,52.3277 530.1406,51.8574 L529.1016,51.8574 Z " fill="#000000"/><text fill="#000000" font-family="sans-serif" font-size="8.4" font-style="italic" lengthAdjust="spacing" textLength="30.1" x="540.05" y="42.674">&#171;entity&#187;</text><text fill="#000000" font-family="sans-serif" font-size="8.4" font-style="italic" lengthAdjust="spacing" textLength="24.5" x="542.85" y="53.8467">&#171;root&#187;</text><text fill="#000000" font-family="sans-serif" font-size="9.8" lengthAdjust="spacing" textLength="30.8" x="539.7" y="66.5301">Patient</text><line style="stroke:#181818;stroke-width:0.3499999999999999;" x1="520.1" x2="571.9" y1="72.4896" y2="72.4896"/></g><!--class DateBirth--><g id="elem_DateBirth"><rect codeLine="12" fill="#F5F5DC" height="36.8074" id="DateBirth" rx="1.75" ry="1.75" style="stroke:#181818;stroke-width:0.3499999999999999;" width="76.3" x="279.65" y="126.0096"/><ellipse cx="290.15" cy="141.6133" fill="#FF8B40" rx="7.7" ry="7.7" style="stroke:#181818;stroke-width:0.6999999999999998;"/><path d="M290.5656,143.8992 L292.2937,139.7867 L292.0203,139.7867 Q291.5937,139.7867 291.4078,139.6227 Q291.2219,139.4586 291.2219,139.1852 Q291.2219,138.9227 291.4078,138.7586 Q291.5937,138.5945 292.0203,138.5945 L293.6172,138.5945 Q294.0437,138.5945 294.2297,138.7586 Q294.4156,138.9227 294.4156,139.1852 Q294.4156,139.5133 294.1312,139.6992 Q294,139.7867 293.5844,139.7867 L291.1453,145.6383 L289.9969,145.6383 L287.5578,139.7867 Q287.1422,139.7867 287.0109,139.6992 Q286.7266,139.5133 286.7266,139.1852 Q286.7266,138.9227 286.9125,138.7586 Q287.0984,138.5945 287.525,138.5945 L289.1328,138.5945 Q289.5594,138.5945 289.7344,138.7586 Q289.9203,138.9227 289.9203,139.1852 Q289.9203,139.4586 289.7344,139.6227 Q289.5594,139.7867 289.1328,139.7867 L288.8484,139.7867 L290.5656,143.8992 Z " fill="#000000"/><text fill="#000000" font-family="sans-serif" font-size="8.4" font-style="italic" lengthAdjust="spacing" textLength="56.7" x="298.55" y="138.574">&#171;value object&#187;</text><text fill="#000000" font-family="sans-serif" font-size="9.8" lengthAdjust="spacing" textLength="41.3" x="306.25" y="151.2574">DateBirth</text><line style="stroke:#181818;stroke-width:0.3499999999999999;" x1="280.35" x2="355.25" y1="157.217" y2="157.217"/></g><!--class Gender--><g id="elem_Gender"><rect codeLine="13" fill="#F5F5DC" height="36.8074" id="Gender" rx="1.75" ry="1.75" style="stroke:#181818;stroke-width:0.3499999999999999;" width="76.3" x="380.45" y="126.0096"/><ellipse cx="390.95" cy="141.6133" fill="#FF8B40" rx="7.7" ry="7.7" style="stroke:#181818;stroke-width:0.6999999999999998;"/><path d="M391.3656,143.8992 L393.0937,139.7867 L392.8203,139.7867 Q392.3937,139.7867 392.2078,139.6227 Q392.0219,139.4586 392.0219,139.1852 Q392.0219,138.9227 392.2078,138.7586 Q392.3937,138.5945 392.8203,138.5945 L394.4172,138.5945 Q394.8437,138.5945 395.0297,138.7586 Q395.2156,138.9227 395.2156,139.1852 Q395.2156,139.5133 394.9312,139.6992 Q394.8,139.7867 394.3844,139.7867 L391.9453,145.6383 L390.7969,145.6383 L388.3578,139.7867 Q387.9422,139.7867 387.8109,139.6992 Q387.5266,139.5133 387.5266,139.1852 Q387.5266,138.9227 387.7125,138.7586 Q387.8984,138.5945 388.325,138.5945 L389.9328,138.5945 Q390.3594,138.5945 390.5344,138.7586 Q390.7203,138.9227 390.7203,139.1852 Q390.7203,139.4586 390.5344,139.6227 Q390.3594,139.7867 389.9328,139.7867 L389.6484,139.7867 L391.3656,143.8992 Z " fill="#000000"/><text fill="#000000" font-family="sans-serif" font-size="8.4" font-style="italic" lengthAdjust="spacing" textLength="56.7" x="399.35" y="138.574">&#171;value object&#187;</text><text fill="#000000" font-family="sans-serif" font-size="9.8" lengthAdjust="spacing" textLength="33.6" x="410.9" y="151.2574">Gender</text><line style="stroke:#181818;stroke-width:0.3499999999999999;" x1="381.15" x2="456.05" y1="157.217" y2="157.217"/></g><!--class EmergencyContact--><g id="elem_EmergencyContact"><rect codeLine="15" fill="#F5F5DC" height="36.8074" id="EmergencyContact" rx="1.75" ry="1.75" style="stroke:#181818;stroke-width:0.3499999999999999;" width="106.4" x="675.5" y="210.7096"/><ellipse cx="686" cy="226.3133" fill="#FF8B40" rx="7.7" ry="7.7" style="stroke:#181818;stroke-width:0.6999999999999998;"/><path d="M686.4156,228.5992 L688.1437,224.4867 L687.8703,224.4867 Q687.4437,224.4867 687.2578,224.3227 Q687.0719,224.1586 687.0719,223.8852 Q687.0719,223.6227 687.2578,223.4586 Q687.4437,223.2945 687.8703,223.2945 L689.4672,223.2945 Q689.8937,223.2945 690.0797,223.4586 Q690.2656,223.6227 690.2656,223.8852 Q690.2656,224.2133 689.9812,224.3992 Q689.85,224.4867 689.4344,224.4867 L686.9953,230.3383 L685.8469,230.3383 L683.4078,224.4867 Q682.9922,224.4867 682.8609,224.3992 Q682.5766,224.2133 682.5766,223.8852 Q682.5766,223.6227 682.7625,223.4586 Q682.9484,223.2945 683.375,223.2945 L684.9828,223.2945 Q685.4094,223.2945 685.5844,223.4586 Q685.7703,223.6227 685.7703,223.8852 Q685.7703,224.1586 685.5844,224.3227 Q685.4094,224.4867 684.9828,224.4867 L684.6984,224.4867 L686.4156,228.5992 Z " fill="#000000"/><text fill="#000000" font-family="sans-serif" font-size="8.4" font-style="italic" lengthAdjust="spacing" textLength="56.7" x="709.45" y="223.274">&#171;value object&#187;</text><text fill="#000000" font-family="sans-serif" font-size="9.8" lengthAdjust="spacing" textLength="84" x="695.8" y="235.9574">EmergencyContact</text><line style="stroke:#181818;stroke-width:0.3499999999999999;" x1="676.2" x2="781.2" y1="241.917" y2="241.917"/></g><!--class MRN--><g id="elem_MRN"><rect codeLine="16" fill="#F5F5DC" height="47.9801" id="MRN" rx="1.75" ry="1.75" style="stroke:#181818;stroke-width:0.3499999999999999;" width="76.3" x="507.85" y="120.4096"/><ellipse cx="518.35" cy="141.5996" fill="#FF8B40" rx="7.7" ry="7.7" style="stroke:#181818;stroke-width:0.6999999999999998;"/><path d="M518.7656,143.8855 L520.4937,139.773 L520.2203,139.773 Q519.7937,139.773 519.6078,139.609 Q519.4219,139.4449 519.4219,139.1715 Q519.4219,138.909 519.6078,138.7449 Q519.7937,138.5809 520.2203,138.5809 L521.8172,138.5809 Q522.2437,138.5809 522.4297,138.7449 Q522.6156,138.909 522.6156,139.1715 Q522.6156,139.4996 522.3312,139.6855 Q522.2,139.773 521.7844,139.773 L519.3453,145.6246 L518.1969,145.6246 L515.7578,139.773 Q515.3422,139.773 515.2109,139.6855 Q514.9266,139.4996 514.9266,139.1715 Q514.9266,138.909 515.1125,138.7449 Q515.2984,138.5809 515.725,138.5809 L517.3328,138.5809 Q517.7594,138.5809 517.9344,138.7449 Q518.1203,138.909 518.1203,139.1715 Q518.1203,139.4449 517.9344,139.609 Q517.7594,139.773 517.3328,139.773 L517.0484,139.773 L518.7656,143.8855 Z " fill="#000000"/><text fill="#000000" font-family="sans-serif" font-size="8.4" font-style="italic" lengthAdjust="spacing" textLength="56.7" x="526.75" y="132.974">&#171;value object&#187;</text><text fill="#000000" font-family="sans-serif" font-size="8.4" font-style="italic" lengthAdjust="spacing" textLength="42.7" x="533.75" y="144.1467">&#171;identifier&#187;</text><text fill="#000000" font-family="sans-serif" font-size="9.8" lengthAdjust="spacing" textLength="21" x="544.6" y="156.8301">MRN</text><line style="stroke:#181818;stroke-width:0.3499999999999999;" x1="508.55" x2="583.45" y1="162.7896" y2="162.7896"/></g><!--class MedicalCondition--><g id="elem_MedicalCondition"><rect codeLine="17" fill="#F5F5DC" height="36.8074" id="MedicalCondition" rx="1.75" ry="1.75" style="stroke:#181818;stroke-width:0.3499999999999999;" width="98" x="609" y="126.0096"/><ellipse cx="619.5" cy="141.6133" fill="#FF8B40" rx="7.7" ry="7.7" style="stroke:#181818;stroke-width:0.6999999999999998;"/><path d="M619.9156,143.8992 L621.6437,139.7867 L621.3703,139.7867 Q620.9437,139.7867 620.7578,139.6227 Q620.5719,139.4586 620.5719,139.1852 Q620.5719,138.9227 620.7578,138.7586 Q620.9437,138.5945 621.3703,138.5945 L622.9672,138.5945 Q623.3937,138.5945 623.5797,138.7586 Q623.7656,138.9227 623.7656,139.1852 Q623.7656,139.5133 623.4812,139.6992 Q623.35,139.7867 622.9344,139.7867 L620.4953,145.6383 L619.3469,145.6383 L616.9078,139.7867 Q616.4922,139.7867 616.3609,139.6992 Q616.0766,139.5133 616.0766,139.1852 Q616.0766,138.9227 616.2625,138.7586 Q616.4484,138.5945 616.875,138.5945 L618.4828,138.5945 Q618.9094,138.5945 619.0844,138.7586 Q619.2703,138.9227 619.2703,139.1852 Q619.2703,139.4586 619.0844,139.6227 Q618.9094,139.7867 618.4828,139.7867 L618.1984,139.7867 L619.9156,143.8992 Z " fill="#000000"/><text fill="#000000" font-family="sans-serif" font-size="8.4" font-style="italic" lengthAdjust="spacing" textLength="56.7" x="638.75" y="138.574">&#171;value object&#187;</text><text fill="#000000" font-family="sans-serif" font-size="9.8" lengthAdjust="spacing" textLength="75.6" x="629.3" y="151.2574">MedicalCondition</text><line style="stroke:#181818;stroke-width:0.3499999999999999;" x1="609.7" x2="706.3" y1="157.217" y2="157.217"/></g><!--class AppoitmentHistory--><g id="elem_AppoitmentHistory"><rect codeLine="18" fill="#F5F5DC" height="36.8074" id="AppoitmentHistory" rx="1.75" ry="1.75" style="stroke:#181818;stroke-width:0.3499999999999999;" width="102.2" x="731.5" y="126.0096"/><ellipse cx="742" cy="141.6133" fill="#FF8B40" rx="7.7" ry="7.7" style="stroke:#181818;stroke-width:0.6999999999999998;"/><path d="M742.4156,143.8992 L744.1437,139.7867 L743.8703,139.7867 Q743.4437,139.7867 743.2578,139.6227 Q743.0719,139.4586 743.0719,139.1852 Q743.0719,138.9227 743.2578,138.7586 Q743.4437,138.5945 743.8703,138.5945 L745.4672,138.5945 Q745.8937,138.5945 746.0797,138.7586 Q746.2656,138.9227 746.2656,139.1852 Q746.2656,139.5133 745.9812,139.6992 Q745.85,139.7867 745.4344,139.7867 L742.9953,145.6383 L741.8469,145.6383 L739.4078,139.7867 Q738.9922,139.7867 738.8609,139.6992 Q738.5766,139.5133 738.5766,139.1852 Q738.5766,138.9227 738.7625,138.7586 Q738.9484,138.5945 739.375,138.5945 L740.9828,138.5945 Q741.4094,138.5945 741.5844,138.7586 Q741.7703,138.9227 741.7703,139.1852 Q741.7703,139.4586 741.5844,139.6227 Q741.4094,139.7867 740.9828,139.7867 L740.6984,139.7867 L742.4156,143.8992 Z " fill="#000000"/><text fill="#000000" font-family="sans-serif" font-size="8.4" font-style="italic" lengthAdjust="spacing" textLength="56.7" x="763.35" y="138.574">&#171;value object&#187;</text><text fill="#000000" font-family="sans-serif" font-size="9.8" lengthAdjust="spacing" textLength="79.8" x="751.8" y="151.2574">AppoitmentHistory</text><line style="stroke:#181818;stroke-width:0.3499999999999999;" x1="732.2" x2="833" y1="157.217" y2="157.217"/></g><!--class FirstName--><g id="elem_FirstName"><rect codeLine="19" fill="#F5F5DC" height="36.8074" id="FirstName" rx="1.75" ry="1.75" style="stroke:#181818;stroke-width:0.3499999999999999;" width="76.3" x="985.25" y="126.0096"/><ellipse cx="995.75" cy="141.6133" fill="#FF8B40" rx="7.7" ry="7.7" style="stroke:#181818;stroke-width:0.6999999999999998;"/><path d="M996.1656,143.8992 L997.8937,139.7867 L997.6203,139.7867 Q997.1937,139.7867 997.0078,139.6227 Q996.8219,139.4586 996.8219,139.1852 Q996.8219,138.9227 997.0078,138.7586 Q997.1937,138.5945 997.6203,138.5945 L999.2172,138.5945 Q999.6437,138.5945 999.8297,138.7586 Q1000.0156,138.9227 1000.0156,139.1852 Q1000.0156,139.5133 999.7312,139.6992 Q999.6,139.7867 999.1844,139.7867 L996.7453,145.6383 L995.5969,145.6383 L993.1578,139.7867 Q992.7422,139.7867 992.6109,139.6992 Q992.3266,139.5133 992.3266,139.1852 Q992.3266,138.9227 992.5125,138.7586 Q992.6984,138.5945 993.125,138.5945 L994.7328,138.5945 Q995.1594,138.5945 995.3344,138.7586 Q995.5203,138.9227 995.5203,139.1852 Q995.5203,139.4586 995.3344,139.6227 Q995.1594,139.7867 994.7328,139.7867 L994.4484,139.7867 L996.1656,143.8992 Z " fill="#000000"/><text fill="#000000" font-family="sans-serif" font-size="8.4" font-style="italic" lengthAdjust="spacing" textLength="56.7" x="1004.15" y="138.574">&#171;value object&#187;</text><text fill="#000000" font-family="sans-serif" font-size="9.8" lengthAdjust="spacing" textLength="44.8" x="1010.1" y="151.2574">FirstName</text><line style="stroke:#181818;stroke-width:0.3499999999999999;" x1="985.95" x2="1060.85" y1="157.217" y2="157.217"/></g><!--class LastName--><g id="elem_LastName"><rect codeLine="20" fill="#F5F5DC" height="36.8074" id="LastName" rx="1.75" ry="1.75" style="stroke:#181818;stroke-width:0.3499999999999999;" width="76.3" x="985.25" y="35.7096"/><ellipse cx="995.75" cy="51.3133" fill="#FF8B40" rx="7.7" ry="7.7" style="stroke:#181818;stroke-width:0.6999999999999998;"/><path d="M996.1656,53.5992 L997.8937,49.4867 L997.6203,49.4867 Q997.1937,49.4867 997.0078,49.3227 Q996.8219,49.1586 996.8219,48.8852 Q996.8219,48.6227 997.0078,48.4586 Q997.1937,48.2945 997.6203,48.2945 L999.2172,48.2945 Q999.6437,48.2945 999.8297,48.4586 Q1000.0156,48.6227 1000.0156,48.8852 Q1000.0156,49.2133 999.7312,49.3992 Q999.6,49.4867 999.1844,49.4867 L996.7453,55.3383 L995.5969,55.3383 L993.1578,49.4867 Q992.7422,49.4867 992.6109,49.3992 Q992.3266,49.2133 992.3266,48.8852 Q992.3266,48.6227 992.5125,48.4586 Q992.6984,48.2945 993.125,48.2945 L994.7328,48.2945 Q995.1594,48.2945 995.3344,48.4586 Q995.5203,48.6227 995.5203,48.8852 Q995.5203,49.1586 995.3344,49.3227 Q995.1594,49.4867 994.7328,49.4867 L994.4484,49.4867 L996.1656,53.5992 Z " fill="#000000"/><text fill="#000000" font-family="sans-serif" font-size="8.4" font-style="italic" lengthAdjust="spacing" textLength="56.7" x="1004.15" y="48.274">&#171;value object&#187;</text><text fill="#000000" font-family="sans-serif" font-size="9.8" lengthAdjust="spacing" textLength="44.1" x="1010.45" y="60.9574">LastName</text><line style="stroke:#181818;stroke-width:0.3499999999999999;" x1="985.95" x2="1060.85" y1="66.917" y2="66.917"/></g><!--class FullName--><g id="elem_FullName"><rect codeLine="21" fill="#F5F5DC" height="36.8074" id="FullName" rx="1.75" ry="1.75" style="stroke:#181818;stroke-width:0.3499999999999999;" width="76.3" x="884.45" y="126.0096"/><ellipse cx="894.95" cy="141.6133" fill="#FF8B40" rx="7.7" ry="7.7" style="stroke:#181818;stroke-width:0.6999999999999998;"/><path d="M895.3656,143.8992 L897.0937,139.7867 L896.8203,139.7867 Q896.3937,139.7867 896.2078,139.6227 Q896.0219,139.4586 896.0219,139.1852 Q896.0219,138.9227 896.2078,138.7586 Q896.3937,138.5945 896.8203,138.5945 L898.4172,138.5945 Q898.8437,138.5945 899.0297,138.7586 Q899.2156,138.9227 899.2156,139.1852 Q899.2156,139.5133 898.9312,139.6992 Q898.8,139.7867 898.3844,139.7867 L895.9453,145.6383 L894.7969,145.6383 L892.3578,139.7867 Q891.9422,139.7867 891.8109,139.6992 Q891.5266,139.5133 891.5266,139.1852 Q891.5266,138.9227 891.7125,138.7586 Q891.8984,138.5945 892.325,138.5945 L893.9328,138.5945 Q894.3594,138.5945 894.5344,138.7586 Q894.7203,138.9227 894.7203,139.1852 Q894.7203,139.4586 894.5344,139.6227 Q894.3594,139.7867 893.9328,139.7867 L893.6484,139.7867 L895.3656,143.8992 Z " fill="#000000"/><text fill="#000000" font-family="sans-serif" font-size="8.4" font-style="italic" lengthAdjust="spacing" textLength="56.7" x="903.35" y="138.574">&#171;value object&#187;</text><text fill="#000000" font-family="sans-serif" font-size="9.8" lengthAdjust="spacing" textLength="41.3" x="911.05" y="151.2574">FullName</text><line style="stroke:#181818;stroke-width:0.3499999999999999;" x1="885.15" x2="960.05" y1="157.217" y2="157.217"/></g><!--class ContactInfo--><g id="elem_ContactInfo"><rect codeLine="22" fill="#F5F5DC" height="36.8074" id="ContactInfo" rx="1.75" ry="1.75" style="stroke:#181818;stroke-width:0.3499999999999999;" width="76.3" x="444.15" y="210.7096"/><ellipse cx="454.65" cy="226.3133" fill="#FF8B40" rx="7.7" ry="7.7" style="stroke:#181818;stroke-width:0.6999999999999998;"/><path d="M455.0656,228.5992 L456.7937,224.4867 L456.5203,224.4867 Q456.0937,224.4867 455.9078,224.3227 Q455.7219,224.1586 455.7219,223.8852 Q455.7219,223.6227 455.9078,223.4586 Q456.0937,223.2945 456.5203,223.2945 L458.1172,223.2945 Q458.5437,223.2945 458.7297,223.4586 Q458.9156,223.6227 458.9156,223.8852 Q458.9156,224.2133 458.6312,224.3992 Q458.5,224.4867 458.0844,224.4867 L455.6453,230.3383 L454.4969,230.3383 L452.0578,224.4867 Q451.6422,224.4867 451.5109,224.3992 Q451.2266,224.2133 451.2266,223.8852 Q451.2266,223.6227 451.4125,223.4586 Q451.5984,223.2945 452.025,223.2945 L453.6328,223.2945 Q454.0594,223.2945 454.2344,223.4586 Q454.4203,223.6227 454.4203,223.8852 Q454.4203,224.1586 454.2344,224.3227 Q454.0594,224.4867 453.6328,224.4867 L453.3484,224.4867 L455.0656,228.5992 Z " fill="#000000"/><text fill="#000000" font-family="sans-serif" font-size="8.4" font-style="italic" lengthAdjust="spacing" textLength="56.7" x="463.05" y="223.274">&#171;value object&#187;</text><text fill="#000000" font-family="sans-serif" font-size="9.8" lengthAdjust="spacing" textLength="50.4" x="466.2" y="235.9574">ContactInfo</text><line style="stroke:#181818;stroke-width:0.3499999999999999;" x1="444.85" x2="519.75" y1="241.917" y2="241.917"/></g><!--class Phone--><g id="elem_Phone"><rect codeLine="23" fill="#F5F5DC" height="36.8074" id="Phone" rx="1.75" ry="1.75" style="stroke:#181818;stroke-width:0.3499999999999999;" width="76.3" x="502.25" y="289.8096"/><ellipse cx="512.75" cy="305.4133" fill="#FF8B40" rx="7.7" ry="7.7" style="stroke:#181818;stroke-width:0.6999999999999998;"/><path d="M513.1656,307.6992 L514.8937,303.5867 L514.6203,303.5867 Q514.1937,303.5867 514.0078,303.4227 Q513.8219,303.2586 513.8219,302.9852 Q513.8219,302.7227 514.0078,302.5586 Q514.1937,302.3945 514.6203,302.3945 L516.2172,302.3945 Q516.6437,302.3945 516.8297,302.5586 Q517.0156,302.7227 517.0156,302.9852 Q517.0156,303.3133 516.7312,303.4992 Q516.6,303.5867 516.1844,303.5867 L513.7453,309.4383 L512.5969,309.4383 L510.1578,303.5867 Q509.7422,303.5867 509.6109,303.4992 Q509.3266,303.3133 509.3266,302.9852 Q509.3266,302.7227 509.5125,302.5586 Q509.6984,302.3945 510.125,302.3945 L511.7328,302.3945 Q512.1594,302.3945 512.3344,302.5586 Q512.5203,302.7227 512.5203,302.9852 Q512.5203,303.2586 512.3344,303.4227 Q512.1594,303.5867 511.7328,303.5867 L511.4484,303.5867 L513.1656,307.6992 Z " fill="#000000"/><text fill="#000000" font-family="sans-serif" font-size="8.4" font-style="italic" lengthAdjust="spacing" textLength="56.7" x="521.15" y="302.374">&#171;value object&#187;</text><text fill="#000000" font-family="sans-serif" font-size="9.8" lengthAdjust="spacing" textLength="28.7" x="535.15" y="315.0574">Phone</text><line style="stroke:#181818;stroke-width:0.3499999999999999;" x1="502.95" x2="577.85" y1="321.017" y2="321.017"/></g><!--class Name--><g id="elem_Name"><rect codeLine="24" fill="#F5F5DC" height="36.8074" id="Name" rx="1.75" ry="1.75" style="stroke:#181818;stroke-width:0.3499999999999999;" width="76.3" x="884.45" y="35.7096"/><ellipse cx="894.95" cy="51.3133" fill="#FF8B40" rx="7.7" ry="7.7" style="stroke:#181818;stroke-width:0.6999999999999998;"/><path d="M895.3656,53.5992 L897.0937,49.4867 L896.8203,49.4867 Q896.3937,49.4867 896.2078,49.3227 Q896.0219,49.1586 896.0219,48.8852 Q896.0219,48.6227 896.2078,48.4586 Q896.3937,48.2945 896.8203,48.2945 L898.4172,48.2945 Q898.8437,48.2945 899.0297,48.4586 Q899.2156,48.6227 899.2156,48.8852 Q899.2156,49.2133 898.9312,49.3992 Q898.8,49.4867 898.3844,49.4867 L895.9453,55.3383 L894.7969,55.3383 L892.3578,49.4867 Q891.9422,49.4867 891.8109,49.3992 Q891.5266,49.2133 891.5266,48.8852 Q891.5266,48.6227 891.7125,48.4586 Q891.8984,48.2945 892.325,48.2945 L893.9328,48.2945 Q894.3594,48.2945 894.5344,48.4586 Q894.7203,48.6227 894.7203,48.8852 Q894.7203,49.1586 894.5344,49.3227 Q894.3594,49.4867 893.9328,49.4867 L893.6484,49.4867 L895.3656,53.5992 Z " fill="#000000"/><text fill="#000000" font-family="sans-serif" font-size="8.4" font-style="italic" lengthAdjust="spacing" textLength="56.7" x="903.35" y="48.274">&#171;value object&#187;</text><text fill="#000000" font-family="sans-serif" font-size="9.8" lengthAdjust="spacing" textLength="25.2" x="919.1" y="60.9574">Name</text><line style="stroke:#181818;stroke-width:0.3499999999999999;" x1="885.15" x2="960.05" y1="66.917" y2="66.917"/></g><!--class User--><g id="elem_User"><rect codeLine="29" fill="#F5F5DC" height="47.9801" id="User" rx="1.75" ry="1.75" style="stroke:#181818;stroke-width:0.3499999999999999;" width="49.7" x="136.15" y="30.1096"/><ellipse cx="146.65" cy="51.2996" fill="#ADD1B2" rx="7.7" ry="7.7" style="stroke:#181818;stroke-width:0.6999999999999998;"/><path d="M145.8516,51.8574 L145.8516,53.6074 L148.8812,53.6074 L148.8812,52.9621 Q148.8812,52.5355 149.0453,52.3496 Q149.2203,52.1637 149.4828,52.1637 Q149.7453,52.1637 149.9094,52.3496 Q150.0734,52.5355 150.0734,52.9621 L150.0734,54.7996 L144.4734,54.7996 Q144.0359,54.7996 143.85,54.6355 Q143.675,54.4715 143.675,54.198 Q143.675,53.9355 143.8609,53.7715 Q144.0469,53.6074 144.4734,53.6074 L144.6594,53.6074 L144.6594,48.948 L144.4734,48.948 Q144.0359,48.948 143.85,48.784 Q143.675,48.6199 143.675,48.3465 Q143.675,48.084 143.85,47.9199 Q144.0359,47.7559 144.4734,47.7559 L149.8109,47.7559 L149.8109,49.5715 Q149.8109,49.998 149.6469,50.184 Q149.4937,50.359 149.2203,50.359 Q148.9578,50.359 148.7937,50.184 Q148.6297,49.998 148.6297,49.5715 L148.6297,48.948 L145.8516,48.948 L145.8516,50.6652 L146.8906,50.6652 Q146.8906,50.2059 146.9781,50.0746 Q147.1641,49.7902 147.4922,49.7902 Q147.7547,49.7902 147.9187,49.9762 Q148.0828,50.1512 148.0828,50.5777 L148.0828,51.9559 Q148.0828,52.3387 147.9953,52.4699 Q147.8094,52.7434 147.4922,52.7434 Q147.1641,52.7434 146.9781,52.459 Q146.8906,52.3277 146.8906,51.8574 L145.8516,51.8574 Z " fill="#000000"/><text fill="#000000" font-family="sans-serif" font-size="8.4" font-style="italic" lengthAdjust="spacing" textLength="30.1" x="155.05" y="42.674">&#171;entity&#187;</text><text fill="#000000" font-family="sans-serif" font-size="8.4" font-style="italic" lengthAdjust="spacing" textLength="24.5" x="157.85" y="53.8467">&#171;root&#187;</text><text fill="#000000" font-family="sans-serif" font-size="9.8" lengthAdjust="spacing" textLength="20.3" x="159.95" y="66.5301">User</text><line style="stroke:#181818;stroke-width:0.3499999999999999;" x1="136.85" x2="185.15" y1="72.4896" y2="72.4896"/></g><!--class Username--><g id="elem_Username"><rect codeLine="30" fill="#F5F5DC" height="36.8074" id="Username" rx="1.75" ry="1.75" style="stroke:#181818;stroke-width:0.3499999999999999;" width="76.3" x="15.75" y="126.0096"/><ellipse cx="26.25" cy="141.6133" fill="#FF8B40" rx="7.7" ry="7.7" style="stroke:#181818;stroke-width:0.6999999999999998;"/><path d="M26.6656,143.8992 L28.3937,139.7867 L28.1203,139.7867 Q27.6937,139.7867 27.5078,139.6227 Q27.3219,139.4586 27.3219,139.1852 Q27.3219,138.9227 27.5078,138.7586 Q27.6937,138.5945 28.1203,138.5945 L29.7172,138.5945 Q30.1437,138.5945 30.3297,138.7586 Q30.5156,138.9227 30.5156,139.1852 Q30.5156,139.5133 30.2312,139.6992 Q30.1,139.7867 29.6844,139.7867 L27.2453,145.6383 L26.0969,145.6383 L23.6578,139.7867 Q23.2422,139.7867 23.1109,139.6992 Q22.8266,139.5133 22.8266,139.1852 Q22.8266,138.9227 23.0125,138.7586 Q23.1984,138.5945 23.625,138.5945 L25.2328,138.5945 Q25.6594,138.5945 25.8344,138.7586 Q26.0203,138.9227 26.0203,139.1852 Q26.0203,139.4586 25.8344,139.6227 Q25.6594,139.7867 25.2328,139.7867 L24.9484,139.7867 L26.6656,143.8992 Z " fill="#000000"/><text fill="#000000" font-family="sans-serif" font-size="8.4" font-style="italic" lengthAdjust="spacing" textLength="56.7" x="34.65" y="138.574">&#171;value object&#187;</text><text fill="#000000" font-family="sans-serif" font-size="9.8" lengthAdjust="spacing" textLength="44.8" x="40.6" y="151.2574">Username</text><line style="stroke:#181818;stroke-width:0.3499999999999999;" x1="16.45" x2="91.35" y1="157.217" y2="157.217"/></g><!--class Role--><g id="elem_Role"><rect codeLine="31" fill="#F5F5DC" height="36.8074" id="Role" rx="1.75" ry="1.75" style="stroke:#181818;stroke-width:0.3499999999999999;" width="76.3" x="116.55" y="126.0096"/><ellipse cx="127.05" cy="141.6133" fill="#FF8B40" rx="7.7" ry="7.7" style="stroke:#181818;stroke-width:0.6999999999999998;"/><path d="M127.4656,143.8992 L129.1937,139.7867 L128.9203,139.7867 Q128.4937,139.7867 128.3078,139.6227 Q128.1219,139.4586 128.1219,139.1852 Q128.1219,138.9227 128.3078,138.7586 Q128.4937,138.5945 128.9203,138.5945 L130.5172,138.5945 Q130.9437,138.5945 131.1297,138.7586 Q131.3156,138.9227 131.3156,139.1852 Q131.3156,139.5133 131.0312,139.6992 Q130.9,139.7867 130.4844,139.7867 L128.0453,145.6383 L126.8969,145.6383 L124.4578,139.7867 Q124.0422,139.7867 123.9109,139.6992 Q123.6266,139.5133 123.6266,139.1852 Q123.6266,138.9227 123.8125,138.7586 Q123.9984,138.5945 124.425,138.5945 L126.0328,138.5945 Q126.4594,138.5945 126.6344,138.7586 Q126.8203,138.9227 126.8203,139.1852 Q126.8203,139.4586 126.6344,139.6227 Q126.4594,139.7867 126.0328,139.7867 L125.7484,139.7867 L127.4656,143.8992 Z " fill="#000000"/><text fill="#000000" font-family="sans-serif" font-size="8.4" font-style="italic" lengthAdjust="spacing" textLength="56.7" x="135.45" y="138.574">&#171;value object&#187;</text><text fill="#000000" font-family="sans-serif" font-size="9.8" lengthAdjust="spacing" textLength="20.3" x="153.65" y="151.2574">Role</text><line style="stroke:#181818;stroke-width:0.3499999999999999;" x1="117.25" x2="192.15" y1="157.217" y2="157.217"/></g><!--class Email--><g id="elem_Email"><rect codeLine="7" fill="#F5F5DC" height="36.8074" id="Email" rx="1.75" ry="1.75" style="stroke:#181818;stroke-width:0.3499999999999999;" width="76.3" x="180.25" y="289.8096"/><ellipse cx="190.75" cy="305.4133" fill="#FF8B40" rx="7.7" ry="7.7" style="stroke:#181818;stroke-width:0.6999999999999998;"/><path d="M191.1656,307.6992 L192.8937,303.5867 L192.6203,303.5867 Q192.1937,303.5867 192.0078,303.4227 Q191.8219,303.2586 191.8219,302.9852 Q191.8219,302.7227 192.0078,302.5586 Q192.1937,302.3945 192.6203,302.3945 L194.2172,302.3945 Q194.6437,302.3945 194.8297,302.5586 Q195.0156,302.7227 195.0156,302.9852 Q195.0156,303.3133 194.7312,303.4992 Q194.6,303.5867 194.1844,303.5867 L191.7453,309.4383 L190.5969,309.4383 L188.1578,303.5867 Q187.7422,303.5867 187.6109,303.4992 Q187.3266,303.3133 187.3266,302.9852 Q187.3266,302.7227 187.5125,302.5586 Q187.6984,302.3945 188.125,302.3945 L189.7328,302.3945 Q190.1594,302.3945 190.3344,302.5586 Q190.5203,302.7227 190.5203,302.9852 Q190.5203,303.2586 190.3344,303.4227 Q190.1594,303.5867 189.7328,303.5867 L189.4484,303.5867 L191.1656,307.6992 Z " fill="#000000"/><text fill="#000000" font-family="sans-serif" font-size="8.4" font-style="italic" lengthAdjust="spacing" textLength="56.7" x="199.15" y="302.374">&#171;value object&#187;</text><text fill="#000000" font-family="sans-serif" font-size="9.8" lengthAdjust="spacing" textLength="23.8" x="215.6" y="315.0574">Email</text><line style="stroke:#181818;stroke-width:0.3499999999999999;" x1="180.95" x2="255.85" y1="321.017" y2="321.017"/></g><!--link User to Patient--><g id="link_User_Patient"><path codeLine="34" d="M186.004,54.2596 C297.094,54.2596 403.991,54.2596 515.081,54.2596 " fill="none" id="User-to-Patient" style="stroke:#222222;stroke-width:0.6999999999999998;"/><polygon fill="#222222" points="519.281,54.2596,512.981,51.4596,515.781,54.2596,512.981,57.0596,519.281,54.2596" style="stroke:#222222;stroke-width:0.6999999999999998;"/><text fill="#000000" font-family="sans-serif" font-size="9.1" lengthAdjust="spacing" textLength="15.4" x="498.3955" y="51.2728">0..1</text></g><!--link User to Username--><g id="link_User_Username"><path codeLine="35" d="M135.891,75.8056 C117.53,91.0446 96.1072,108.8224 78.6492,123.3194 " fill="none" id="User-to-Username" style="stroke:#222222;stroke-width:0.6999999999999998;"/><polygon fill="#222222" points="75.418,126.0026,82.0536,124.132,78.1107,123.7666,78.476,119.8237,75.418,126.0026" style="stroke:#222222;stroke-width:0.6999999999999998;"/></g><!--link User to Email--><g id="link_User_Email"><path codeLine="36" d="M181.265,78.4866 C190.218,90.2816 199.878,105.2546 205.1,120.4096 C225.54,179.7206 223.0856,251.5251 220.4466,285.5731 " fill="none" id="User-to-Email" style="stroke:#222222;stroke-width:0.6999999999999998;"/><polygon fill="#222222" points="220.122,289.7606,223.4005,283.6958,220.3925,286.271,217.8172,283.263,220.122,289.7606" style="stroke:#222222;stroke-width:0.6999999999999998;"/></g><!--link User to Role--><g id="link_User_Role"><path codeLine="37" d="M159.327,78.5496 C158.277,93.3616 157.2441,107.9881 156.2781,121.6101 " fill="none" id="User-to-Role" style="stroke:#222222;stroke-width:0.6999999999999998;"/><polygon fill="#222222" points="155.981,125.7996,159.2196,119.7134,156.2286,122.3083,153.6337,119.3173,155.981,125.7996" style="stroke:#222222;stroke-width:0.6999999999999998;"/></g><!--link Name to FirstName--><g id="link_Name_FirstName"><path codeLine="40" d="M942.998,72.9496 C960.484,88.3706 982.4015,107.6979 999.8805,123.1189 " fill="none" id="Name-to-FirstName" style="stroke:#222222;stroke-width:0.6999999999999998;"/><polygon fill="#222222" points="1003.03,125.8976,1000.1582,119.63,1000.4054,123.582,996.4534,123.8292,1003.03,125.8976" style="stroke:#222222;stroke-width:0.6999999999999998;"/></g><!--link Name to LastName--><g id="link_Name_LastName"><path codeLine="41" d="M960.792,54.2596 C968.947,54.2596 972.895,54.2596 981.05,54.2596 " fill="none" id="Name-to-LastName" style="stroke:#222222;stroke-width:0.6999999999999998;"/><polygon fill="#222222" points="985.25,54.2596,978.95,51.4596,981.75,54.2596,978.95,57.0596,985.25,54.2596" style="stroke:#222222;stroke-width:0.6999999999999998;"/></g><!--link Name to FullName--><g id="link_Name_FullName"><path codeLine="42" d="M922.6,72.9496 C922.6,88.3706 922.6,106.2766 922.6,121.6976 " fill="none" id="Name-to-FullName" style="stroke:#222222;stroke-width:0.6999999999999998;"/><polygon fill="#222222" points="922.6,125.8976,925.4,119.5976,922.6,122.3976,919.8,119.5976,922.6,125.8976" style="stroke:#222222;stroke-width:0.6999999999999998;"/></g><!--link Patient to Name--><g id="link_Patient_Name"><path codeLine="45" d="M572.663,54.2596 C676.55,54.2596 776.237,54.2596 880.124,54.2596 " fill="none" id="Patient-to-Name" style="stroke:#222222;stroke-width:0.6999999999999998;"/><polygon fill="#222222" points="884.324,54.2596,878.024,51.4596,880.824,54.2596,878.024,57.0596,884.324,54.2596" style="stroke:#222222;stroke-width:0.6999999999999998;"/><text fill="#000000" font-family="sans-serif" font-size="9.1" lengthAdjust="spacing" textLength="4.9" x="873.9514" y="51.4132">1</text></g><!--link Patient to DateBirth--><g id="link_Patient_DateBirth"><path codeLine="46" d="M519.225,64.0386 C484.197,76.0926 421.043,98.4296 368.2,120.4096 C364.014,122.1526 363.4918,122.3229 359.1868,124.2549 " fill="none" id="Patient-to-DateBirth" style="stroke:#222222;stroke-width:0.6999999999999998;"/><polygon fill="#222222" points="355.355,125.9746,362.2492,125.9496,358.5482,124.5415,359.9563,120.8406,355.355,125.9746" style="stroke:#222222;stroke-width:0.6999999999999998;"/><text fill="#000000" font-family="sans-serif" font-size="9.1" lengthAdjust="spacing" textLength="4.9" x="359.0118" y="117.9745">1</text></g><!--link Patient to Gender--><g id="link_Patient_Gender"><path codeLine="47" d="M519.295,73.5936 C497.182,89.0216 469.4205,108.3953 447.6295,123.5993 " fill="none" id="Patient-to-Gender" style="stroke:#222222;stroke-width:0.6999999999999998;"/><polygon fill="#222222" points="444.185,126.0026,450.9539,124.694,447.0554,123.9998,447.7495,120.1014,444.185,126.0026" style="stroke:#222222;stroke-width:0.6999999999999998;"/><text fill="#000000" font-family="sans-serif" font-size="9.1" lengthAdjust="spacing" textLength="4.9" x="444.9242" y="118.0093">1</text></g><!--link Patient to ContactInfo--><g id="link_Patient_ContactInfo"><path codeLine="48" d="M522.935,78.4656 C512.855,90.1346 501.914,105.0166 495.6,120.4096 C483.322,150.3416 481.488,184.3407 481.635,206.4047 " fill="none" id="Patient-to-ContactInfo" style="stroke:#222222;stroke-width:0.6999999999999998;"/><polygon fill="#222222" points="481.663,210.6046,484.421,204.2861,481.6397,207.1046,478.8211,204.3234,481.663,210.6046" style="stroke:#222222;stroke-width:0.6999999999999998;"/><text fill="#000000" font-family="sans-serif" font-size="9.1" lengthAdjust="spacing" textLength="4.9" x="476.0491" y="202.8919">1</text></g><!--link Patient to EmergencyContact--><g id="link_Patient_EmergencyContact"><path codeLine="49" d="M572.677,56.6256 C639.646,61.4276 811.951,77.7656 846.3,120.4096 C862.89,141.0036 861,157.9226 846.3,179.9096 C831.873,201.4906 809.9611,212.3758 786.0911,219.0678 " fill="none" id="Patient-to-EmergencyContact" style="stroke:#222222;stroke-width:0.6999999999999998;"/><polygon fill="#222222" points="782.047,220.2016,788.869,221.197,785.4171,219.2568,787.3573,215.8049,782.047,220.2016" style="stroke:#222222;stroke-width:0.6999999999999998;"/><text fill="#000000" font-family="sans-serif" font-size="9.1" lengthAdjust="spacing" textLength="4.9" x="787.5395" y="216.6685">1</text></g><!--link Patient to MRN--><g id="link_Patient_MRN"><path codeLine="50" d="M546,78.5496 C546,91.4086 546,103.0846 546,115.9576 " fill="none" id="Patient-to-MRN" style="stroke:#222222;stroke-width:0.6999999999999998;"/><polygon fill="#222222" points="546,120.1576,548.8,113.8576,546,116.6576,543.2,113.8576,546,120.1576" style="stroke:#222222;stroke-width:0.6999999999999998;"/><text fill="#000000" font-family="sans-serif" font-size="9.1" lengthAdjust="spacing" textLength="4.9" x="540.6483" y="112.5295">1</text></g><!--link Patient to MedicalCondition--><g id="link_Patient_MedicalCondition"><path codeLine="51" d="M572.824,76.2536 C591.92,91.4086 613.9992,108.9284 632.0662,123.2784 " fill="none" id="Patient-to-MedicalCondition" style="stroke:#222222;stroke-width:0.6999999999999998;"/><polygon fill="#222222" points="635.355,125.8906,632.1632,119.7797,632.6143,123.7137,628.6803,124.1648,635.355,125.8906" style="stroke:#222222;stroke-width:0.6999999999999998;"/><text fill="#000000" font-family="sans-serif" font-size="9.1" lengthAdjust="spacing" textLength="15.4" x="612.9377" y="118.1746">0..1</text></g><!--link Patient to AppoitmentHistory--><g id="link_Patient_AppoitmentHistory"><path codeLine="52" d="M572.684,64.9836 C612.017,79.7676 682.2502,106.1578 731.0612,124.4908 " fill="none" id="Patient-to-AppoitmentHistory" style="stroke:#222222;stroke-width:0.6999999999999998;"/><polygon fill="#222222" points="734.993,125.9676,730.0798,121.1312,731.7165,124.7369,728.1108,126.3736,734.993,125.9676" style="stroke:#222222;stroke-width:0.6999999999999998;"/><text fill="#000000" font-family="sans-serif" font-size="9.1" lengthAdjust="spacing" textLength="4.9" x="720.8637" y="119.4082">1</text></g><!--link ContactInfo to Email--><g id="link_ContactInfo_Email"><path codeLine="53" d="M444.136,239.7316 C401.1,250.9526 329.168,270.3426 268.1,289.8096 C264.341,291.0066 264.4226,290.9482 260.5376,292.2782 " fill="none" id="ContactInfo-to-Email" style="stroke:#222222;stroke-width:0.6999999999999998;"/><polygon fill="#222222" points="256.564,293.6386,263.4313,294.2471,259.8753,292.505,261.6175,288.949,256.564,293.6386" style="stroke:#222222;stroke-width:0.6999999999999998;"/><text fill="#000000" font-family="sans-serif" font-size="9.1" lengthAdjust="spacing" textLength="4.9" x="262.2753" y="288.6864">1</text></g><!--link ContactInfo to Phone--><g id="link_ContactInfo_Phone"><path codeLine="54" d="M495.775,247.9776 C505.162,260.5356 515.1144,273.8385 524.4804,286.3685 " fill="none" id="ContactInfo-to-Phone" style="stroke:#222222;stroke-width:0.6999999999999998;"/><polygon fill="#222222" points="526.995,289.7326,525.4658,283.0101,524.8995,286.9292,520.9804,286.3629,526.995,289.7326" style="stroke:#222222;stroke-width:0.6999999999999998;"/><text fill="#000000" font-family="sans-serif" font-size="9.1" lengthAdjust="spacing" textLength="4.9" x="518.4285" y="282.0263">1</text></g><!--link EmergencyContact to Phone--><g id="link_EmergencyContact_Phone"><path codeLine="55" d="M685.265,247.8866 C653.114,261.1516 613.6034,277.4555 582.7124,290.2025 " fill="none" id="EmergencyContact-to-Phone" style="stroke:#222222;stroke-width:0.6999999999999998;"/><polygon fill="#222222" points="578.83,291.8046,585.7217,291.9898,582.0654,290.4695,583.5856,286.8132,578.83,291.8046" style="stroke:#222222;stroke-width:0.6999999999999998;"/><text fill="#000000" font-family="sans-serif" font-size="9.1" lengthAdjust="spacing" textLength="4.9" x="584.0677" y="286.8727">1</text></g><!--SRC=[bLJ1Ji904BtlLspWe2P2q7Zmq3G1f4gYQ21oNzgXhBIxpNQhGUA_EzsMjb02fIVwvhrvqzrvn6ik8gPOIDs0nN5VQyKNYOQnAyMC_mBjaHNtW48OwGrbkt9CudtXWBbhNyb4U4CPI4KNm7seaFfAoP-irBut3o5NinLJuD4v2nAWxuilS3KntUWeP3oWbdKzlsqxpkFWeNVpRLZIi6oRRly88H6wCXzeoxAOxolmcGQiVJ3DGUWMtHAA3_xaE7oEOjSCGA9bAIdpRYapCt_2BWEkzEhS0ANa6OG7wkp0fM0KWl91k9kX59gvkhdLstHoacnPU5_uWKiEggO5ZxiiG4-FQov5SzT-54ckGspymcCjrQQvrE4grXCMGdF9AxjKuIH1S9aYF_YnMChcee-L51TuD9den1v_ng0EbZY5ZcrmnJIbY9entNUkyASoECF54OrlnwQjNhTxrzfbAOSxTc5Q8YR2vMlgWbzgJYHzBxOYX-pYqYkS_59HjmjlEWBw6xJ0Sh38RQsInRC2vtXb1-h5muZMkc8Izx7iR0v3LjFLiaIgkrZQf-Tth6AMaDJ-GVRB_m00]--></g></svg>